<?xml version="1.0" encoding="UTF-8" standalone="no"?>
<svg
   xmlns:dc="http://purl.org/dc/elements/1.1/"
   xmlns:cc="http://creativecommons.org/ns#"
   xmlns:rdf="http://www.w3.org/1999/02/22-rdf-syntax-ns#"
   xmlns:svg="http://www.w3.org/2000/svg"
   xmlns="http://www.w3.org/2000/svg"
   xmlns:sodipodi="http://sodipodi.sourceforge.net/DTD/sodipodi-0.dtd"
   xmlns:inkscape="http://www.inkscape.org/namespaces/inkscape"
   width="417px"
   height="513px"
   viewBox="0 0 417 513"
   version="1.1"
   id="svg8"
   sodipodi:docname="accessibility-outline.svg"
   inkscape:version="1.0.2 (e86c8708, 2021-01-15)">
  <metadata
     id="metadata14">
    <rdf:RDF>
      <cc:Work
         rdf:about="">
        <dc:format>image/svg+xml</dc:format>
        <dc:type
           rdf:resource="http://purl.org/dc/dcmitype/StillImage" />
      </cc:Work>
    </rdf:RDF>
  </metadata>
  <defs
     id="defs12" />
  <sodipodi:namedview
     pagecolor="#ffffff"
     bordercolor="#666666"
     borderopacity="1"
     objecttolerance="10"
     gridtolerance="10"
     guidetolerance="10"
     inkscape:pageopacity="0"
     inkscape:pageshadow="2"
     inkscape:window-width="689"
     inkscape:window-height="480"
     id="namedview10"
     showgrid="false"
     inkscape:zoom="1.3001949"
     inkscape:cx="208.5"
     inkscape:cy="256.5"
     inkscape:window-x="44"
     inkscape:window-y="25"
     inkscape:window-maximized="0"
     inkscape:current-layer="svg8" />
  <title
     id="title2">accessibility-outline</title>
  <path
     d="m 209,0 c -30.92795,0 -56,25.072054 -56,56 0,30.927946 25.07205,56 56,56 30.92795,0 56,-25.072054 56,-56 C 265,25.072054 239.92795,0 209,0 Z m 0,32 c 13.25484,0 24,10.745166 24,24 0,13.254834 -10.74516,24 -24,24 -13.25483,0 -24,-10.745166 -24,-24 0,-13.254834 10.74517,-24 24,-24 z"
     id="Oval"
     style="fill:#000000;fill-rule:nonzero;stroke:none;stroke-width:1" />
  <path
     d="m 366.71769,113.54371 c -0.23817,0.0662 -0.47476,0.13783 -0.70959,0.21494 l -2.28061,0.78845 -2.28445,0.77106 -2.67605,0.88408 -2.2914,0.74315 -2.40884,0.76874 -1.66978,0.52589 -1.71997,0.53602 -0.87855,0.27165 c -11.52849,3.55533 -24.11068,7.07801 -37.37374,10.34035 C 275.29005,138.52213 239.75774,143.96 209,143.96 c -8.83691,0 -18.17091,-0.45904 -27.93966,-1.34891 -24.53672,-2.23514 -50.94056,-7.07764 -77.83214,-13.75019 -12.830899,-3.1837 -24.970142,-6.58586 -36.064472,-9.99371 l -2.302529,-0.712 -2.317582,-0.72664 -1.485048,-0.47121 -2.135785,-0.68593 -2.672645,-0.87329 -2.402208,-0.80109 -2.510438,-0.8605 c -0.399817,-0.14148 -0.8051,-0.26701 -1.21489,-0.37629 -25.878221,-6.90086 -50.715198,12.85583 -49.094993,40.39931 0.63926,10.71377 5.402519,19.72299 13.265368,26.5653 5.673342,4.93698 12.587772,8.51398 20.844178,11.34266 l 0.93715,0.31542 92.129314,29.81007 0.61179,0.23725 c 7.45863,2.94784 11.29488,6.1878 12.98477,10.57305 l 0.11393,0.29991 c 0.75911,2.04829 1.29223,4.51779 1.6016,7.4195 l 0.0861,0.88348 c 0.0132,0.14942 0.0259,0.29991 0.038,0.45149 l 0.066,0.92251 c 0.01,0.15593 0.0192,0.31294 0.028,0.47104 l 0.0459,0.96168 c 0.0654,1.62461 0.075,3.35837 0.0292,5.20266 l -0.0341,1.11984 c -0.007,0.18886 -0.0141,0.37882 -0.022,0.56989 l -0.0541,1.15976 c -0.0101,0.19551 -0.0208,0.39214 -0.032,0.58988 l -0.074,1.19981 c -0.0134,0.2022 -0.0274,0.40552 -0.0419,0.60995 l -0.0938,1.24003 -0.10704,1.26691 -0.12027,1.29386 c -0.0211,0.2179 -0.0428,0.43692 -0.0651,0.65707 l -0.14006,1.33442 -0.15325,1.36154 c -0.0266,0.22918 -0.0538,0.4595 -0.0816,0.69096 l -0.17299,1.40234 -0.18615,1.42962 c -0.0321,0.24055 -0.0648,0.48224 -0.098,0.72506 l -0.20584,1.47068 -0.21896,1.49812 -0.23206,1.52564 -0.19915,1.25905 -5.794,29.101 -37.293819,163.41599 c -5.171431,21.37174 10.281399,43.42264 32.256029,47.26401 20.90638,3.65462 38.82453,-9.49072 45.43527,-29.84649 l 0.14296,-0.44921 32.79757,-101.3723 32.844,101.372 -0.0485,-0.15684 c 6.29333,20.63176 24.64672,34.15783 45.7607,30.45079 22.05117,-3.87158 36.96834,-24.82366 32.28234,-46.8311 l -0.0503,-0.22827 -37.3622,-163.68858 -5.79401,-29.097 -0.25511,-1.6453 -0.18696,-1.26265 -0.17651,-1.24603 -0.16609,-1.22915 -0.15571,-1.21199 -0.14533,-1.19458 -0.13501,-1.17691 -0.12471,-1.15896 -0.11444,-1.14076 -0.10421,-1.12229 -0.094,-1.10357 -0.12195,-1.61965 -0.0686,-1.05558 -0.0585,-1.03594 -0.0485,-1.01602 c -0.007,-0.16766 -0.0141,-0.33448 -0.0205,-0.50046 l -0.0334,-0.98565 -0.0234,-0.96509 c -0.003,-0.15911 -0.006,-0.31736 -0.008,-0.47474 l -0.009,-0.93373 c -10e-4,-0.30772 -7.4e-4,-0.6119 10e-4,-0.9125 l 0.0112,-0.891 c 0.003,-0.14669 0.006,-0.29248 0.009,-0.43736 l 0.026,-0.85826 0.0358,-0.83612 c 0.0136,-0.27498 0.0288,-0.54623 0.0456,-0.8137 l 0.0553,-0.79102 c 0.01,-0.12993 0.0205,-0.25891 0.0313,-0.38692 l 0.0698,-0.75651 c 0.0249,-0.2483 0.0514,-0.4927 0.0795,-0.73317 l 0.0891,-0.70957 0.0987,-0.68571 c 0.15528,-1.01053 0.34283,-1.93963 0.56218,-2.7833 l 0.15095,-0.54975 c 0.28534,-0.98451 0.61804,-1.84008 0.99722,-2.55941 l 0.18441,-0.3376 0.0984,-0.17245 c 0.75801,-1.27255 2.32023,-2.71662 4.47575,-4.19903 l 0.60242,-0.40515 c 0.20561,-0.1353 0.41596,-0.27082 0.63089,-0.40645 l 0.65841,-0.40715 0.68498,-0.40725 0.7106,-0.40675 c 0.12052,-0.0677 0.24205,-0.13538 0.36461,-0.203 l 0.74724,-0.40487 0.77047,-0.40288 c 0.2606,-0.13389 0.5249,-0.26735 0.79277,-0.40027 l 0.81411,-0.39707 c 0.27482,-0.13176 0.55304,-0.26289 0.83449,-0.39328 l 0.85393,-0.38887 c 0.71945,-0.32205 1.45815,-0.6389 2.21363,-0.94898 l 0.91448,-0.36873 0.92964,-0.36164 0.43685,-0.16623 87.86967,-31.86137 1.31345,-0.48191 1.26726,-0.47358 c 0.20747,-0.0783 0.41309,-0.15634 0.61692,-0.23411 l 1.20166,-0.4637 c 0.19678,-0.0768 0.39184,-0.15348 0.58522,-0.22995 l 1.14045,-0.45695 c 6.53888,-2.65615 11.12006,-5.17116 15.49149,-8.78571 8.34551,-6.90054 12.92925,-16.33609 12.92925,-27.85572 0,-26.36633 -22.76548,-46.84985 -50.2823,-39.20629 z m 15.33043,31.78415 c 1.75419,1.57835 2.95187,4.40104 2.95187,7.42214 v 0.23128 l -0.0127,0.41923 c -0.0536,1.17642 -0.29451,1.65429 -1.04034,2.3154 l -0.26774,0.22837 c -0.0911,0.0753 -0.1855,0.15074 -0.28331,0.22626 l -0.3039,0.22703 c -0.0524,0.0379 -0.10575,0.0759 -0.16,0.11395 l -0.33677,0.22906 -0.36002,0.231 -0.38432,0.23342 -0.40968,0.23631 -0.43612,0.23968 c -0.075,0.0402 -0.15104,0.0807 -0.2283,0.12125 l -0.47775,0.2456 c -0.082,0.0413 -0.16526,0.0828 -0.24972,0.12448 l -0.79411,0.38084 -0.56821,0.26066 -0.60047,0.26663 -0.63381,0.27306 -1.01555,0.42269 -1.09653,0.43983 -0.77778,0.30353 -1.23948,0.47194 -1.7941,0.66282 -88.1473,31.96441 c -5.97792,2.24172 -11.69117,4.90225 -16.93806,8.15533 l -0.60031,0.37607 c -7.15754,4.53088 -12.84923,9.84031 -16.57914,16.40968 l -0.23568,0.42233 c -5.13025,9.19171 -6.96333,20.77651 -6.39678,34.99856 l 0.0634,1.4074 0.0787,1.42447 c 0.0144,0.23883 0.0294,0.47838 0.045,0.71865 l 0.10129,1.45015 0.11611,1.46735 c 0.0411,0.49198 0.0847,0.98684 0.13073,1.48458 l 0.14517,1.50188 c 0.0254,0.25176 0.0514,0.50424 0.0779,0.75745 l 0.16646,1.52792 c 0.0578,0.5122 0.11797,1.02731 0.18041,1.54534 l 0.19419,1.56282 0.20777,1.58034 0.22115,1.59792 0.23436,1.61555 0.24736,1.63323 0.26019,1.65097 c 0.0316,0.1966 0.0668,0.3926 0.10569,0.5879 l 5.9,29.63 0.0931,0.4358 37.37145,163.73358 -0.0118,-0.0619 c 0.83344,3.91421 -1.9689,7.85027 -6.51766,8.64891 -3.86301,0.67823 -7.59439,-2.00393 -9.5088,-7.91762 l -0.1933,-0.61488 -37.56,-115.93 c -1.68907,-5.19811 -3.18117,-10.44222 -4.48074,-15.7462 l -5.76107,-23.48437 c -3.98752,-16.25468 -27.10067,-16.2491 -31.08035,0.007 l -5.3,21.65 c -1.59099,6.53439 -3.41629,12.97958 -5.48085,19.35579 l -36.95501,114.22326 c -1.99338,6.40371 -5.66503,9.13673 -9.56788,8.45447 -4.20215,-0.73457 -7.37776,-5.26612 -6.66397,-8.21599 l 0.0477,-0.20296 37.39,-163.83 c 0.033,-0.14471 0.064,-0.28986 0.093,-0.43543 l 5.9,-29.63 c 0.0389,-0.1953 0.0741,-0.3913 0.10569,-0.5879 l 0.27021,-1.70959 0.25775,-1.68663 c 0.0838,-0.55841 0.16554,-1.11305 0.24513,-1.66395 l 0.23237,-1.64159 0.21943,-1.6195 0.20635,-1.59773 0.19309,-1.57624 0.1797,-1.55505 0.16612,-1.53416 c 0.0265,-0.25397 0.0525,-0.50708 0.0779,-0.75934 l 0.14548,-1.50338 c 0.0462,-0.49775 0.09,-0.99215 0.13152,-1.48323 l 0.1174,-1.46338 0.10312,-1.44382 0.0887,-1.42455 c 0.0271,-0.47167 0.0518,-0.94019 0.0741,-1.40559 l 0.0593,-1.38692 c 0.44983,-11.93994 -0.78056,-21.80987 -4.1558,-30.47777 -5.50785,-14.29313 -16.62833,-23.3429 -32.46343,-29.31499 l -0.3587,-0.13042 -0.18048,-0.062 -92.577266,-29.95583 c -0.612037,-0.20401 -1.199182,-0.40791 -1.762126,-0.61183 l -0.826354,-0.30589 c -0.538917,-0.20396 -1.05398,-0.408 -1.545881,-0.61225 L 41.204466,159.744 c -0.234455,-0.10225 -0.463207,-0.20456 -0.686342,-0.30696 l -0.652636,-0.30747 c -0.211986,-0.10259 -0.418441,-0.20528 -0.619451,-0.30808 l -0.586784,-0.30878 c -3.899257,-2.11264 -5.546806,-4.28144 -5.687909,-6.64625 l -0.01226,-0.26697 c -0.16883,-5.12658 3.597019,-8.30623 8.194098,-7.4818 l 0.286195,0.0568 2.03914,0.69601 2.052283,0.68653 2.07603,0.68358 1.448122,0.4709 2.266606,0.72802 1.57301,0.49918 2.450694,0.76841 0.840866,0.26116 c 1.004678,0.3113 2.01758,0.62257 3.038482,0.93367 l 3.086483,0.93264 c 10.36679,3.10616 21.51129,6.18111 33.210463,9.084 28.355284,7.03572 56.302274,12.16125 82.635564,14.56004 10.69788,0.97451 20.99387,1.48086 30.84263,1.48086 33.7385,0 71.64499,-5.80121 111.06799,-15.49817 13.89524,-3.41784 27.06723,-7.10565 39.16082,-10.83526 l 1.84204,-0.57106 1.79152,-0.56129 1.74023,-0.55102 2.51244,-0.80618 2.39262,-0.78028 3.51113,-1.1697 2.4933,-0.85383 0.19853,-0.0702 0.22452,-0.0539 c 2.85857,-0.66646 4.66472,-0.18437 6.11298,1.11872 z"
     id="Path"
     style="fill:#000000;fill-rule:nonzero;stroke:none;stroke-width:1" />
</svg>
