<?xml version="1.0" encoding="UTF-8" standalone="no"?>
<svg
   xmlns:dc="http://purl.org/dc/elements/1.1/"
   xmlns:cc="http://creativecommons.org/ns#"
   xmlns:rdf="http://www.w3.org/1999/02/22-rdf-syntax-ns#"
   xmlns:svg="http://www.w3.org/2000/svg"
   xmlns="http://www.w3.org/2000/svg"
   xmlns:sodipodi="http://sodipodi.sourceforge.net/DTD/sodipodi-0.dtd"
   xmlns:inkscape="http://www.inkscape.org/namespaces/inkscape"
   class="ionicon"
   viewBox="0 0 512 512"
   version="1.1"
   id="svg100"
   sodipodi:docname="accessibility.svg"
   inkscape:version="1.0.2 (e86c8708, 2021-01-15)">
  <metadata
     id="metadata106">
    <rdf:RDF>
      <cc:Work
         rdf:about="">
        <dc:format>image/svg+xml</dc:format>
        <dc:type
           rdf:resource="http://purl.org/dc/dcmitype/StillImage" />
      </cc:Work>
    </rdf:RDF>
  </metadata>
  <defs
     id="defs104" />
  <sodipodi:namedview
     pagecolor="#ffffff"
     bordercolor="#666666"
     borderopacity="1"
     objecttolerance="10"
     gridtolerance="10"
     guidetolerance="10"
     inkscape:pageopacity="0"
     inkscape:pageshadow="2"
     inkscape:window-width="709"
     inkscape:window-height="480"
     id="namedview102"
     showgrid="false"
     inkscape:zoom="0.4665165"
     inkscape:cx="256"
     inkscape:cy="256"
     inkscape:window-x="359"
     inkscape:window-y="101"
     inkscape:window-maximized="0"
     inkscape:current-layer="svg100" />
  <title
     id="title94">Accessibility</title>
  <path
     style="color:#000000;font-style:normal;font-variant:normal;font-weight:normal;font-stretch:normal;font-size:medium;line-height:normal;font-family:sans-serif;font-variant-ligatures:normal;font-variant-position:normal;font-variant-caps:normal;font-variant-numeric:normal;font-variant-alternates:normal;font-variant-east-asian:normal;font-feature-settings:normal;font-variation-settings:normal;text-indent:0;text-align:start;text-decoration:none;text-decoration-line:none;text-decoration-style:solid;text-decoration-color:#000000;letter-spacing:normal;word-spacing:normal;text-transform:none;writing-mode:lr-tb;direction:ltr;text-orientation:mixed;dominant-baseline:auto;baseline-shift:baseline;text-anchor:start;white-space:normal;shape-padding:0;shape-margin:0;inline-size:0;clip-rule:nonzero;display:inline;overflow:visible;visibility:visible;isolation:auto;mix-blend-mode:normal;color-interpolation:sRGB;color-interpolation-filters:linearRGB;solid-color:#000000;solid-opacity:1;vector-effect:none;fill:#000000;fill-opacity:1;fill-rule:nonzero;stroke-width:1;stroke-linecap:butt;stroke-linejoin:miter;stroke-miterlimit:4;stroke-dasharray:none;stroke-dashoffset:0;stroke-opacity:1;color-rendering:auto;image-rendering:auto;shape-rendering:auto;text-rendering:auto;enable-background:accumulate;stop-color:#000000;stop-opacity:1;stroke:none;opacity:1"
     d="M 256,112 C 233.35014,112 212.93037,98.355962 204.26313,77.430594 195.59592,56.505269 200.38823,32.419833 216.40403,16.404032 232.41983,0.38823025 256.50527,-4.404084 277.43059,4.2631344 298.35596,12.93037 312,33.350139 312,56 c -0.0331,30.914238 -25.08576,55.96693 -56,56 z"
     id="path96" />
  <path
     style="color:#000000;font-style:normal;font-variant:normal;font-weight:normal;font-stretch:normal;font-size:medium;line-height:normal;font-family:sans-serif;font-variant-ligatures:normal;font-variant-position:normal;font-variant-caps:normal;font-variant-numeric:normal;font-variant-alternates:normal;font-variant-east-asian:normal;font-feature-settings:normal;font-variation-settings:normal;text-indent:0;text-align:start;text-decoration:none;text-decoration-line:none;text-decoration-style:solid;text-decoration-color:#000000;letter-spacing:normal;word-spacing:normal;text-transform:none;writing-mode:lr-tb;direction:ltr;text-orientation:mixed;dominant-baseline:auto;baseline-shift:baseline;text-anchor:start;white-space:normal;shape-padding:0;shape-margin:0;inline-size:0;clip-rule:nonzero;display:inline;overflow:visible;visibility:visible;isolation:auto;mix-blend-mode:normal;color-interpolation:sRGB;color-interpolation-filters:linearRGB;solid-color:#000000;solid-opacity:1;vector-effect:none;fill:#000000;fill-opacity:1;fill-rule:nonzero;stroke-width:1;stroke-linecap:butt;stroke-linejoin:miter;stroke-miterlimit:4;stroke-dasharray:none;stroke-dashoffset:0;stroke-opacity:1;color-rendering:auto;image-rendering:auto;shape-rendering:auto;text-rendering:auto;enable-background:accumulate;stop-color:#000000;stop-opacity:1;stroke:none;opacity:1"
     d="m 432,112.8 -0.45,0.12 -0.42,0.13 c -1,0.28 -2,0.58 -3,0.89 -18.61,5.46 -108.93,30.92 -172.56,30.92 -59.13,0 -141.28,-22 -167.56,-29.47 -2.615477,-1.01131 -5.286477,-1.87271 -8,-2.58 -19,-5 -32,14.3 -32,31.94 0,17.47 15.7,25.79 31.55,31.76 v 0.28 l 95.22,29.74 c 9.73,3.73 12.33,7.54 13.6,10.84 4.13,10.59 0.83,31.56 -0.34,38.88 l -5.8,45 -32.19,176.19 c -0.1,0.48 -0.19,0.97 -0.27,1.47 l -0.23,1.27 c -2.32,16.15 9.54,31.82 32,31.82 19.6,0 28.25,-13.53 32,-31.94 3.75,-18.41 28,-157.57 42,-157.57 14,0 42.84,157.57 42.84,157.57 3.75,18.41 12.4,31.94 32,31.94 22.52,0 34.38,-15.74 32,-31.94 -0.20435,-1.36205 -0.45784,-2.71626 -0.76,-4.06 L 329,301.27 l -5.79,-45 c -4.19,-26.21 -0.82,-34.87 0.32,-36.9 0.0305,-0.0478 0.0573,-0.098 0.08,-0.15 1.08,-2 6,-6.48 17.48,-10.79 l 89.28,-31.21 c 0.54839,-0.14602 1.08907,-0.31958 1.62,-0.52 16,-6 32,-14.3 32,-31.93 0,-17.63 -12.99,-36.96 -31.99,-31.97 z"
     id="path98" />
</svg>
