<?xml version="1.0" encoding="UTF-8"?>
<svg width="512px" height="512px" viewBox="0 0 512 512" version="1.1" xmlns="http://www.w3.org/2000/svg" xmlns:xlink="http://www.w3.org/1999/xlink">
    <!-- Generator: Sketch 62 (91390) - https://sketch.com -->
    <title>Artboard</title>
    <desc>Created with Sketch.</desc>
    <g id="Artboard" stroke="none" stroke-width="1" fill="none" fill-rule="evenodd">
        <g id="add-circle-outline" transform="translate(64.000000, 64.000000)" fill="#000000" fill-rule="nonzero">
            <path d="M192,-16 C77.163444,-16 -16,77.163444 -16,192 C-16,306.836556 77.163444,400 192,400 C306.836556,400 400,306.836556 400,192 C400,77.163444 306.836556,-16 192,-16 Z M192,16 C289.163444,16 368,94.836556 368,192 C368,289.163444 289.163444,368 192,368 C94.836556,368 16,289.163444 16,192 C16,94.836556 94.836556,16 192,16 Z" id="Path"></path>
            <path d="M192,96 C200.731359,96 207.829205,102.993901 207.996964,111.685129 L208,112 L208,272 C208,280.836556 200.836556,288 192,288 C183.268641,288 176.170795,281.006099 176.003036,272.314871 L176,272 L176,112 C176,103.163444 183.163444,96 192,96 Z" id="Path"></path>
            <path d="M272,176 C280.836556,176 288,183.163444 288,192 C288,200.731359 281.006099,207.829205 272.314871,207.996964 L272,208 L112,208 C103.163444,208 96,200.836556 96,192 C96,183.268641 102.993901,176.170795 111.685129,176.003036 L112,176 L272,176 Z" id="Path"></path>
        </g>
    </g>
</svg>