<?xml version="1.0" encoding="UTF-8"?>
<svg width="512px" height="512px" viewBox="0 0 512 512" version="1.1" xmlns="http://www.w3.org/2000/svg" xmlns:xlink="http://www.w3.org/1999/xlink">
    <!-- Generator: Sketch 62 (91390) - https://sketch.com -->
    <title>Artboard</title>
    <desc>Created with Sketch.</desc>
    <g id="Artboard" stroke="none" stroke-width="1" fill="none" fill-rule="evenodd">
        <g id="add-outline" transform="translate(112.000000, 112.000000)" fill="#000000" fill-rule="nonzero">
            <path d="M144,-16 C152.731359,-16 159.829205,-9.00609896 159.996964,-0.314870665 L160,0 L160,288 C160,296.836556 152.836556,304 144,304 C135.268641,304 128.170795,297.006099 128.003036,288.314871 L128,288 L128,0 C128,-8.836556 135.163444,-16 144,-16 Z" id="Path"></path>
            <path d="M288,128 C296.836556,128 304,135.163444 304,144 C304,152.731359 297.006099,159.829205 288.314871,159.996964 L288,160 L0,160 C-8.836556,160 -16,152.836556 -16,144 C-16,135.268641 -9.00609896,128.170795 -0.314870665,128.003036 L0,128 L288,128 Z" id="Path"></path>
        </g>
    </g>
</svg>