<?xml version="1.0" encoding="UTF-8" standalone="no"?>
<svg
   xmlns:dc="http://purl.org/dc/elements/1.1/"
   xmlns:cc="http://creativecommons.org/ns#"
   xmlns:rdf="http://www.w3.org/1999/02/22-rdf-syntax-ns#"
   xmlns:svg="http://www.w3.org/2000/svg"
   xmlns="http://www.w3.org/2000/svg"
   xmlns:sodipodi="http://sodipodi.sourceforge.net/DTD/sodipodi-0.dtd"
   xmlns:inkscape="http://www.inkscape.org/namespaces/inkscape"
   class="ionicon"
   viewBox="0 0 512 512"
   version="1.1"
   id="svg6"
   sodipodi:docname="airplane-outline.svg"
   inkscape:version="1.0.2 (e86c8708, 2021-01-15)">
  <metadata
     id="metadata12">
    <rdf:RDF>
      <cc:Work
         rdf:about="">
        <dc:format>image/svg+xml</dc:format>
        <dc:type
           rdf:resource="http://purl.org/dc/dcmitype/StillImage" />
      </cc:Work>
    </rdf:RDF>
  </metadata>
  <defs
     id="defs10" />
  <sodipodi:namedview
     pagecolor="#ffffff"
     bordercolor="#666666"
     borderopacity="1"
     objecttolerance="10"
     gridtolerance="10"
     guidetolerance="10"
     inkscape:pageopacity="0"
     inkscape:pageshadow="2"
     inkscape:window-width="689"
     inkscape:window-height="480"
     id="namedview8"
     showgrid="false"
     inkscape:zoom="1.3027344"
     inkscape:cx="256"
     inkscape:cy="256"
     inkscape:window-x="44"
     inkscape:window-y="25"
     inkscape:window-maximized="0"
     inkscape:current-layer="svg6" />
  <title
     id="title2">Airplane</title>
  <path
     style="color:#000000;font-style:normal;font-variant:normal;font-weight:normal;font-stretch:normal;font-size:medium;line-height:normal;font-family:sans-serif;font-variant-ligatures:normal;font-variant-position:normal;font-variant-caps:normal;font-variant-numeric:normal;font-variant-alternates:normal;font-variant-east-asian:normal;font-feature-settings:normal;font-variation-settings:normal;text-indent:0;text-align:start;text-decoration:none;text-decoration-line:none;text-decoration-style:solid;text-decoration-color:#000000;letter-spacing:normal;word-spacing:normal;text-transform:none;writing-mode:lr-tb;direction:ltr;text-orientation:mixed;dominant-baseline:auto;baseline-shift:baseline;text-anchor:start;white-space:normal;shape-padding:0;shape-margin:0;inline-size:0;clip-rule:nonzero;display:inline;overflow:visible;visibility:visible;isolation:auto;mix-blend-mode:normal;color-interpolation:sRGB;color-interpolation-filters:linearRGB;solid-color:#000000;solid-opacity:1;vector-effect:none;fill:currentColor;fill-opacity:1;fill-rule:nonzero;stroke:none;stroke-linecap:round;stroke-linejoin:round;stroke-miterlimit:4;stroke-dasharray:none;stroke-dashoffset:0;stroke-opacity:1;color-rendering:auto;image-rendering:auto;shape-rendering:auto;text-rendering:auto;enable-background:accumulate;stop-color:#000000;stop-opacity:1;opacity:1"
     d="M 160 48 A 16.0016 16.0016 0 0 0 145.42773 70.607422 L 209.83594 212.6582 L 112.51367 214.09766 L 77.808594 171.88867 L 78.132812 172.29492 C 70.937317 162.94078 61.41023 160.05078 51.939453 160.05078 L 33.080078 160.05078 C 30.256286 160.05078 25.808977 160.88099 22.09375 163.99414 C 18.378523 167.1073 16.708175 171.5619 16.275391 174.375 C 15.414633 179.96992 16.586089 181.6449 16.943359 182.86328 C 16.945357 182.87009 16.949226 182.8858 16.951172 182.89258 L 36.753906 254.18164 A 16.0016 16.0016 0 0 0 37.273438 255.74023 C 37.302792 255.8151 37.302792 255.88412 37.273438 255.95898 A 16.0016 16.0016 0 0 0 36.757812 257.50195 L 16.978516 328.41406 C 16.381197 330.32841 13.941977 333.91062 17.548828 341.84961 C 19.364174 345.84534 23.531467 349.33721 26.765625 350.64258 C 29.999783 351.94795 32.284871 352 34.080078 352 L 52 352 C 56.764513 352 61.833305 351.92366 67.431641 349.08594 C 73.029976 346.24821 75.757188 342.39971 77.941406 339.64844 L 77.751953 339.88086 L 113.14258 296.98047 L 209.90039 299.14453 L 145.42773 441.39453 A 16.0016 16.0016 0 0 0 160 464 L 186.64062 464 A 16.0016 16.0016 0 0 0 187.57031 463.97266 C 194.86412 463.54743 201.63105 459.93502 206.04297 454.11133 L 205.63281 454.63086 L 331.30273 302.25 L 389.30469 303.79492 L 388.76172 303.77148 C 393.93982 304.08531 404.00766 304.09961 407.73047 304.09961 C 431.33162 304.09961 451.17905 301.11333 466.92773 294.16016 C 482.67642 287.20699 496 273.45789 496 256 C 496 238.57422 482.69619 224.80775 466.95312 217.88086 C 451.21006 210.95397 431.37055 208 407.7207 208 C 404.00698 208 393.94873 208.00459 388.72461 208.33008 L 389.30078 208.30469 L 331.2832 209.82617 L 205.90625 57.396484 L 206.31641 57.916016 C 201.90382 52.074802 195.12469 48.451338 187.81641 48.027344 A 16.0016 16.0016 0 0 0 186.89062 48 L 160 48 z M 186.98242 84.761719 L 310.77344 235.26367 L 309.33203 233.20117 C 312.71509 238.963 319.12973 242.37931 325.79883 241.9707 L 325.23828 241.99414 L 390.13867 240.29492 A 16.0016 16.0016 0 0 0 390.71484 240.26953 C 391.91072 240.19502 404.63443 240 407.7207 240 C 428.47085 240 444.76947 243.08126 454.06641 247.17188 C 463.36334 251.26249 464 253.49578 464 256 C 464 258.47211 463.32272 260.77239 454.00391 264.88672 C 444.68509 269.00105 428.39931 272.09961 407.73047 272.09961 C 404.63327 272.09961 392.11916 271.91625 390.69727 271.83008 A 16.0016 16.0016 0 0 0 390.15625 271.80469 L 326.25586 270.10547 A 16.0016 16.0016 0 0 0 325.83008 270.09961 C 323.16624 270.09961 322.12536 270.34111 320.07227 270.91406 C 318.01917 271.48702 314.73841 270.56576 309.72461 278.2793 L 310.79688 276.82031 L 187.25977 426.61328 L 247.39258 293.94531 A 16.0016 16.0016 0 0 0 247.58398 293.50781 C 252.45338 281.85074 243.38386 267.89069 230.75391 267.60352 A 16.0016 16.0016 0 0 0 230.74805 267.60352 L 110.06836 264.9043 A 16.0016 16.0016 0 0 0 110.06641 264.9043 C 102.50698 264.73612 95.269661 268.13538 90.572266 274.06055 L 90.767578 273.81836 L 53.068359 319.51758 A 16.0016 16.0016 0 0 0 52.878906 319.75195 C 52.75176 319.91211 52.803429 319.83618 52.693359 319.9707 C 52.627682 319.9732 52.625858 319.9744 52.554688 319.97656 L 67.582031 266.09961 L 67.066406 267.64062 C 70.036448 260.06566 70.036448 251.63356 67.066406 244.05859 L 67.585938 245.61719 L 52.820312 192.46484 C 53.204973 192.648 53.424773 192.65904 52.767578 191.80469 A 16.0016 16.0016 0 0 0 53.091797 192.21094 L 90.091797 237.21094 L 89.832031 236.88867 C 94.539582 242.92566 101.88319 246.37434 109.53516 246.14258 L 109.28711 246.14844 L 230.97656 244.34766 L 229.82031 244.32422 C 242.99704 245.08366 253.10509 230.09774 247.4668 218.16406 L 247.57227 218.39258 L 186.98242 84.761719 z M 47.708984 174.06836 C 47.708995 174.0684 47.931099 174.41522 48.060547 175.32812 L 47.746094 174.19727 A 16.0016 16.0016 0 0 0 47.708984 174.06836 z M 334.2207 298.71289 C 333.95818 299.00819 333.64826 299.46415 333.40625 299.69922 L 334.2207 298.71289 z M 48.304688 335.21484 C 48.220793 336.93 47.617495 337.65762 47.625 337.63281 A 16.0016 16.0016 0 0 0 47.722656 337.29883 L 48.304688 335.21484 z "
     id="path4" />
</svg>
