<?xml version="1.0" encoding="UTF-8" standalone="no"?>
<svg
   xmlns:dc="http://purl.org/dc/elements/1.1/"
   xmlns:cc="http://creativecommons.org/ns#"
   xmlns:rdf="http://www.w3.org/1999/02/22-rdf-syntax-ns#"
   xmlns:svg="http://www.w3.org/2000/svg"
   xmlns="http://www.w3.org/2000/svg"
   xmlns:sodipodi="http://sodipodi.sourceforge.net/DTD/sodipodi-0.dtd"
   xmlns:inkscape="http://www.inkscape.org/namespaces/inkscape"
   class="ionicon"
   viewBox="0 0 512 512"
   version="1.1"
   id="svg38"
   sodipodi:docname="airplane.svg"
   inkscape:version="1.0.2 (e86c8708, 2021-01-15)">
  <metadata
     id="metadata44">
    <rdf:RDF>
      <cc:Work
         rdf:about="">
        <dc:format>image/svg+xml</dc:format>
        <dc:type
           rdf:resource="http://purl.org/dc/dcmitype/StillImage" />
      </cc:Work>
    </rdf:RDF>
  </metadata>
  <defs
     id="defs42" />
  <sodipodi:namedview
     pagecolor="#ffffff"
     bordercolor="#666666"
     borderopacity="1"
     objecttolerance="10"
     gridtolerance="10"
     guidetolerance="10"
     inkscape:pageopacity="0"
     inkscape:pageshadow="2"
     inkscape:window-width="705"
     inkscape:window-height="480"
     id="namedview40"
     showgrid="false"
     inkscape:zoom="0.38254353"
     inkscape:cx="256"
     inkscape:cy="256"
     inkscape:window-x="0"
     inkscape:window-y="25"
     inkscape:window-maximized="0"
     inkscape:current-layer="svg38" />
  <title
     id="title34">Airplane</title>
  <path
     style="color:#000000;font-style:normal;font-variant:normal;font-weight:normal;font-stretch:normal;font-size:medium;line-height:normal;font-family:sans-serif;font-variant-ligatures:normal;font-variant-position:normal;font-variant-caps:normal;font-variant-numeric:normal;font-variant-alternates:normal;font-variant-east-asian:normal;font-feature-settings:normal;font-variation-settings:normal;text-indent:0;text-align:start;text-decoration:none;text-decoration-line:none;text-decoration-style:solid;text-decoration-color:#000000;letter-spacing:normal;word-spacing:normal;text-transform:none;writing-mode:lr-tb;direction:ltr;text-orientation:mixed;dominant-baseline:auto;baseline-shift:baseline;text-anchor:start;white-space:normal;shape-padding:0;shape-margin:0;inline-size:0;clip-rule:nonzero;display:inline;overflow:visible;visibility:visible;isolation:auto;mix-blend-mode:normal;color-interpolation:sRGB;color-interpolation-filters:linearRGB;solid-color:#000000;solid-opacity:1;vector-effect:none;fill:#000000;fill-opacity:1;fill-rule:nonzero;stroke-width:1;stroke-linecap:butt;stroke-linejoin:miter;stroke-miterlimit:4;stroke-dasharray:none;stroke-dashoffset:0;stroke-opacity:1;color-rendering:auto;image-rendering:auto;shape-rendering:auto;text-rendering:auto;enable-background:accumulate;stop-color:#000000;stop-opacity:1;stroke:none;opacity:1"
     d="M 186.62,464 H 160 c -11.62442,-0.004 -19.36507,-12.01065 -14.57,-22.6 L 209.89,299.15 113.1,297 77.8,339.77 C 71.07,348.23 65.7,352 52,352 H 34.08 c -5.758257,0.18535 -11.244934,-2.44975 -14.7,-7.06 -2.38,-3.21 -4.72,-8.65 -2.44,-16.41 l 19.82,-71 c 0.15,-0.53 0.33,-1.06 0.53,-1.58 0.01,-0.0495 0.01,-0.1005 0,-0.15 -0.206518,-0.51958 -0.383468,-1.05043 -0.53,-1.59 L 16.92,182.76 c -2.15,-7.61 0.2,-12.93 2.56,-16.06 3.213766,-4.26435 8.260486,-6.7506 13.6,-6.7 H 52 c 10.23,0 20.16,4.59 26,12 l 34.57,42.05 97.32,-1.44 -64.44,-142 C 140.64845,60.025703 148.37752,48.015097 160,48 h 26.91 c 7.60501,0.152827 14.72676,3.759708 19.35,9.8 l 125.05,152 57.77,-1.52 c 4.23,-0.23 15.95,-0.31 18.66,-0.31 C 463,208 496,225.94 496,256 c 0,9.46 -3.78,27 -29.07,38.16 -14.93,6.6 -34.85,9.94 -59.21,9.94 -2.68,0 -14.37,-0.08 -18.66,-0.31 l -57.76,-1.54 -125.36,152 c -4.6268,6.01337 -11.73413,9.60014 -19.32,9.75 z"
     id="path36" />
</svg>
