<?xml version="1.0" encoding="UTF-8"?>
<svg width="512px" height="512px" viewBox="0 0 512 512" version="1.1" xmlns="http://www.w3.org/2000/svg" xmlns:xlink="http://www.w3.org/1999/xlink">
    <!-- Generator: Sketch 62 (91390) - https://sketch.com -->
    <title>Artboard</title>
    <desc>Created with Sketch.</desc>
    <g id="Artboard" stroke="none" stroke-width="1" fill="none" fill-rule="evenodd">
        <g id="airplane-outline" transform="translate(32.000000, 64.000000)" fill="#000000" fill-rule="nonzero">
            <path d="M128,-16 L127.65227,-16 C116.216223,-15.759842 108.673299,-3.87906387 113.427943,6.60720576 L177.835,148.657 L80.513,150.096 L45.902,108.002 L46.1319838,108.294628 C40.0354095,100.369081 29.8349129,96.05 19.94,96.05 L1.08,96.05 C-7.34133314,96.05 -14.4345888,101.993756 -15.7239472,110.374585 C-16.0499985,112.493919 -15.9710745,114.350301 -15.6697563,116.182316 L-15.568555,116.751275 C-15.4619503,117.307722 -15.3389077,117.83096 -15.197381,118.359901 L4.7537753,190.182524 C4.90041898,190.710412 5.07408003,191.230419 5.27407213,191.740491 C5.30167393,191.810888 5.30167393,191.889112 5.27407213,191.959509 L5.08476119,192.467499 C4.96431794,192.808223 4.8554357,193.15298 4.75831192,193.501178 L-15.076,264.611 L-15.0043706,264.366421 C-15.4263062,265.760954 -15.7255574,267.047711 -15.8901405,268.557444 C-16.2175748,271.561024 -15.9127252,274.634413 -14.4520952,277.849387 C-12.5680423,281.996351 -9.2229886,285.032526 -5.23415323,286.642501 C-2.73921227,287.64951 -0.368932046,288 2.08,288 L20,288 L20.509073,287.998371 C32.464955,287.921103 38.2578111,285.080303 45.3312889,276.406523 L45.842,275.772 L81.142,232.981 L177.902,235.145 L113.427062,377.394738 C108.626186,387.98673 116.370782,400 128,400 L154.64,400 C154.950604,400 155.261142,399.990955 155.571219,399.972878 L156.017677,399.942846 C162.84908,399.421959 169.16157,396.120088 173.484806,390.822155 L173.806,390.42 L299.3,238.251 L357.097,239.788 L357.752228,239.820097 C361.668239,239.985687 370.499856,240.1 375.73,240.1 C399.674517,240.1 419.953454,236.772268 434.928554,230.160643 C452.922538,222.216156 464,209.045003 464,192 C464,174.950658 452.940125,161.795113 434.953769,153.881188 C420.22395,147.400127 400.336103,144.099295 376.792668,144.002207 L374.778582,144.001691 L370.161913,144.030803 C365.362673,144.075648 360.309029,144.165743 357.640754,144.283544 L357.063,144.311 L299.282,145.825 L174.073,-6.4 L173.764041,-6.78924806 C169.345066,-12.223231 162.836234,-15.5658986 155.816691,-15.9731413 C155.508118,-15.9910434 155.199092,-16 154.89,-16 L128,-16 Z M154.98,20.759 L278.384,170.79 L278.571951,171.040422 C282.001577,175.5036 287.370667,178.11176 293.055338,178.000111 L358.138963,176.294514 L358.427074,176.284369 L359.340968,176.237903 C361.948292,176.129644 368.739961,176.030809 373.838362,176.005694 L375.739383,175.999988 C395.655162,176 411.71314,178.615993 422.066231,183.171312 C429.507745,186.445549 432,189.410046 432,192 C432,194.586965 429.476169,197.587812 422.003946,200.886857 C411.791173,205.395878 396.07471,208.018503 376.64355,208.098132 L374.40648,208.097421 C369.377967,208.079184 361.528863,207.966903 359.01347,207.846193 L358.697921,207.829304 C358.517266,207.818355 358.336437,207.810472 358.155515,207.805659 L294.255515,206.105659 C294.113708,206.101887 293.971857,206.1 293.83,206.1 C291.937507,206.1 289.92207,206.397481 288.071717,206.913859 C286.796296,207.26979 285.5377,207.739854 284.251975,208.407763 L283.917219,208.585502 C282.042816,209.602755 280.314794,210.92005 278.798211,212.798371 L278.486,213.196 L155.258,362.616 L215.392938,229.945262 L215.583703,229.507097 C217.96579,223.804507 217.376555,217.293282 214.009436,212.110968 C210.642318,206.928654 204.932224,203.744617 198.753703,203.604134 L78.0678819,200.904003 C70.6384386,200.738715 63.555628,203.995203 58.8463652,209.720502 L58.7676961,209.818274 L20.972729,255.6345 L20.684,255.996 L20.547,255.998 L35.401,202.742 L35.4445565,202.625054 C37.9115125,195.654132 37.9115125,188.045868 35.4445565,181.074946 L35.407,180.972 L20.74,128.176 L20.8054362,128.193935 L20.9894182,128.253246 L21.191,128.332 L58.013,173.116 L58.0973483,173.222168 C62.7314146,178.953404 69.7390857,182.244886 77.1088188,182.151798 L198.722,180.352 L198.956745,180.353817 C205.002198,180.32786 210.678971,177.318375 214.087223,172.266321 L214.309518,171.928888 C217.656151,166.725451 218.154732,160.182658 215.635198,154.532201 L154.98,20.759 Z" id="Path"></path>
        </g>
    </g>
</svg>