<?xml version="1.0" encoding="UTF-8" standalone="no"?>
<svg
   xmlns:dc="http://purl.org/dc/elements/1.1/"
   xmlns:cc="http://creativecommons.org/ns#"
   xmlns:rdf="http://www.w3.org/1999/02/22-rdf-syntax-ns#"
   xmlns:svg="http://www.w3.org/2000/svg"
   xmlns="http://www.w3.org/2000/svg"
   xmlns:sodipodi="http://sodipodi.sourceforge.net/DTD/sodipodi-0.dtd"
   xmlns:inkscape="http://www.inkscape.org/namespaces/inkscape"
   class="ionicon"
   viewBox="0 0 512 512"
   version="1.1"
   id="svg38"
   sodipodi:docname="alarm.svg"
   inkscape:version="1.0.2 (e86c8708, 2021-01-15)">
  <metadata
     id="metadata44">
    <rdf:RDF>
      <cc:Work
         rdf:about="">
        <dc:format>image/svg+xml</dc:format>
        <dc:type
           rdf:resource="http://purl.org/dc/dcmitype/StillImage" />
      </cc:Work>
    </rdf:RDF>
  </metadata>
  <defs
     id="defs42" />
  <sodipodi:namedview
     pagecolor="#ffffff"
     bordercolor="#666666"
     borderopacity="1"
     objecttolerance="10"
     gridtolerance="10"
     guidetolerance="10"
     inkscape:pageopacity="0"
     inkscape:pageshadow="2"
     inkscape:window-width="693"
     inkscape:window-height="480"
     id="namedview40"
     showgrid="false"
     inkscape:zoom="0.52249848"
     inkscape:cx="256"
     inkscape:cy="256"
     inkscape:window-x="44"
     inkscape:window-y="25"
     inkscape:window-maximized="0"
     inkscape:current-layer="svg38" />
  <title
     id="title32">Alarm</title>
  <path
     style="color:#000000;font-style:normal;font-variant:normal;font-weight:normal;font-stretch:normal;font-size:medium;line-height:normal;font-family:sans-serif;font-variant-ligatures:normal;font-variant-position:normal;font-variant-caps:normal;font-variant-numeric:normal;font-variant-alternates:normal;font-variant-east-asian:normal;font-feature-settings:normal;font-variation-settings:normal;text-indent:0;text-align:start;text-decoration:none;text-decoration-line:none;text-decoration-style:solid;text-decoration-color:#000000;letter-spacing:normal;word-spacing:normal;text-transform:none;writing-mode:lr-tb;direction:ltr;text-orientation:mixed;dominant-baseline:auto;baseline-shift:baseline;text-anchor:start;white-space:normal;shape-padding:0;shape-margin:0;inline-size:0;clip-rule:nonzero;display:inline;overflow:visible;visibility:visible;isolation:auto;mix-blend-mode:normal;color-interpolation:sRGB;color-interpolation-filters:linearRGB;solid-color:#000000;solid-opacity:1;vector-effect:none;fill:#000000;fill-opacity:1;fill-rule:nonzero;stroke-width:1;stroke-linecap:butt;stroke-linejoin:miter;stroke-miterlimit:4;stroke-dasharray:none;stroke-dashoffset:0;stroke-opacity:1;color-rendering:auto;image-rendering:auto;shape-rendering:auto;text-rendering:auto;enable-background:accumulate;stop-color:#000000;stop-opacity:1;stroke:none;opacity:1"
     d="M 153.59,110.46 C 162.48039,101.66224 161.96833,87.149302 152.48,79 141.18894,69.363734 126.84397,64.048155 112,64 l -3.27,0.09 h -0.48 C 74.4,66.15 48,95.55 48.07,131 c 0,19 8,29.06 14.32,37.11 3.585875,4.55057 8.921482,7.38171 14.7,7.8 0.26,0 0.7,0.05 2,0.05 5.194453,-0.008 10.16076,-2.13504 13.75,-5.89 z m 250.2,-46.35 -3.27,-0.1 H 400 c -14.85773,0.03868 -29.21846,5.354847 -40.52,15 -9.47403,8.147984 -9.98582,22.64417 -1.11,31.44 l 60.77,59.65 c 3.59714,3.76868 8.58017,5.90066 13.79,5.9 1.28,0 1.72,0 2,-0.05 5.77495,-0.42102 11.10642,-3.25189 14.69,-7.8 6.36,-8.05 14.28,-18.08 14.32,-37.11 C 464,95.55 437.6,66.15 403.79,64.11 Z"
     id="path34" />
  <path
     style="color:#000000;font-style:normal;font-variant:normal;font-weight:normal;font-stretch:normal;font-size:medium;line-height:normal;font-family:sans-serif;font-variant-ligatures:normal;font-variant-position:normal;font-variant-caps:normal;font-variant-numeric:normal;font-variant-alternates:normal;font-variant-east-asian:normal;font-feature-settings:normal;font-variation-settings:normal;text-indent:0;text-align:start;text-decoration:none;text-decoration-line:none;text-decoration-style:solid;text-decoration-color:#000000;letter-spacing:normal;word-spacing:normal;text-transform:none;writing-mode:lr-tb;direction:ltr;text-orientation:mixed;dominant-baseline:auto;baseline-shift:baseline;text-anchor:start;white-space:normal;shape-padding:0;shape-margin:0;inline-size:0;clip-rule:nonzero;display:inline;overflow:visible;visibility:visible;isolation:auto;mix-blend-mode:normal;color-interpolation:sRGB;color-interpolation-filters:linearRGB;solid-color:#000000;solid-opacity:1;vector-effect:none;fill:#000000;fill-opacity:1;fill-rule:nonzero;stroke-width:1;stroke-linecap:butt;stroke-linejoin:miter;stroke-miterlimit:4;stroke-dasharray:none;stroke-dashoffset:0;stroke-opacity:1;color-rendering:auto;image-rendering:auto;shape-rendering:auto;text-rendering:auto;enable-background:accumulate;stop-color:#000000;stop-opacity:1;stroke:none;opacity:1"
     d="m 256.07,96 c -97,0 -176,78.95 -176,176 -0.03436,41.14778 14.412839,80.99529 40.81,112.56 l -36.12,36.13 c -6.403275,6.22154 -6.47596,16.47992 -0.161506,22.79158 6.314453,6.31166 16.572796,6.23444 22.791506,-0.17158 l 36.12,-36.12 c 65.17537,54.41476 159.94463,54.41476 225.12,0 l 36.13,36.12 c 6.21871,6.40602 16.47705,6.48324 22.79151,0.17158 6.31445,-6.31166 6.24176,-16.57004 -0.16151,-22.79158 l -36.13,-36.13 c 26.40167,-31.56211 40.84949,-71.41132 40.81,-112.56 0,-97 -78.95,-176 -176,-176 z m 16,176 c 0,8.83656 -7.16344,16 -16,16 h -80 c -8.83656,0 -15.99999,-7.16344 -15.99999,-16 0,-8.83656 7.16343,-16 15.99999,-16 h 64 v -96 c 0,-8.83656 7.16344,-15.99999 16,-15.99999 8.83656,0 16,7.16343 16,15.99999 z"
     id="path36" />
</svg>
