<?xml version="1.0" encoding="UTF-8"?>
<svg width="512px" height="512px" viewBox="0 0 512 512" version="1.1" xmlns="http://www.w3.org/2000/svg" xmlns:xlink="http://www.w3.org/1999/xlink">
    <!-- Generator: Sketch 62 (91390) - https://sketch.com -->
    <title>Artboard</title>
    <desc>Created with Sketch.</desc>
    <g id="Artboard" stroke="none" stroke-width="1" fill="none" fill-rule="evenodd">
        <g id="alarm-outline" transform="translate(64.000000, 80.000000)" fill="#000000" fill-rule="nonzero">
            <path d="M192.07,16 C94.867884,16 16.07,94.797884 16.07,192 C16.07,289.202116 94.867884,368 192.07,368 C238.748102,368 283.514391,349.457196 316.520793,316.450793 C349.527196,283.444391 368.07,238.678102 368.07,192 C368.07,94.797884 289.272116,16 192.07,16 Z M192.07,48 C271.599004,48 336.07,112.470996 336.07,192 C336.07,230.191175 320.898615,266.818138 293.893376,293.823376 C266.888138,320.828615 230.261175,336 192.07,336 C112.540996,336 48.07,271.529004 48.07,192 C48.07,112.470996 112.540996,48 192.07,48 Z" id="Path"></path>
            <path d="M47.8089255,-16.0010973 L44.4992086,-15.906195 L44.2473635,-15.8910153 C10.0821266,-13.8317408 -16.0215253,15.6959163 -15.9306101,51.0413709 C-15.9306101,59.5070869 -14.4238034,66.7218875 -11.328446,73.3725635 L-10.9483649,74.1743567 C-8.91570025,78.3824285 -6.7584035,81.5615764 -2.76854847,86.669039 L-1.75777926,87.9517461 C1.77118195,92.5646273 7.08731117,95.468809 12.8756273,95.9459219 L13.5317012,96 L15.2131312,96 L15.7542544,95.9862045 C20.9204679,95.7869369 25.7662297,93.5170654 29.2205614,89.7289451 L29.337,89.597 L89.6751549,30.3328336 L89.7572826,30.2497751 C93.9255356,26.0342782 96.1563535,20.2773288 95.9169481,14.3538643 C95.7145345,8.54194994 93.0643926,2.99275771 88.6045783,-0.876091897 L88.5226703,-0.946662813 C77.4241488,-10.4438629 63.3627111,-15.7610728 48.771749,-15.9926376 L47.8089255,-16.0010973 Z M48.144,16.002 L48.4417287,16.0066729 C51.376065,16.0702759 54.2649127,16.5540583 57.0254808,17.427207 L57.117,17.457 L16.675,57.181 L16.6214578,56.9714367 C16.1955451,55.2542085 16.0698137,53.4070377 16.0698137,51 L16.0723633,50.4360302 C16.2862951,32.0503177 29.2714278,17.3532221 45.6695956,16.0856143 L45.978,16.064 L48.144,16.002 Z" id="Path"></path>
            <path d="M339.500791,-15.906195 L336.191075,-16.0010973 L335.923449,-15.9998169 C321.31629,-15.9299293 307.20003,-10.7600212 296.008061,-1.39574734 L295.395422,-0.876091897 C290.935607,2.99275771 288.285465,8.54194994 288.079718,14.4424252 C287.849548,20.1314562 289.964465,25.746382 293.933739,29.9307455 L294.325316,30.3333101 L354.662,89.588 L354.779439,89.7189451 C358.322343,93.6041967 363.328948,95.8923424 368.643761,95.9874394 L368.786869,95.99 L370.453835,95.99 L371.095588,95.9382684 L371.517734,95.8998602 C376.99433,95.3446513 382.020275,92.6145083 385.466996,88.3224835 L386.389079,87.1536032 C390.880079,81.432339 393.114961,78.1284499 395.328446,73.3725635 C398.423803,66.7218875 399.930425,59.5070869 399.930425,51 C400.021525,15.6959163 373.917873,-13.8317408 339.752637,-15.8910153 L339.500791,-15.906195 Z M335.855,16.002 L338.021,16.064 L337.827363,16.0510153 C354.630269,17.0637932 367.978839,32.1632896 367.930372,50.9586291 L367.929272,51.3176427 C367.916897,53.5652514 367.783182,55.3226176 367.378557,56.9598018 L367.324,57.172 L326.883,17.457 L326.974519,17.427207 C329.735087,16.5540583 332.623935,16.0702759 335.558271,16.0066729 L335.855,16.002 Z" id="Path"></path>
            <path d="M192.07,64 C200.801359,64 207.899205,70.993901 208.066964,79.6851293 L208.07,80 L208.07,192 C208.07,200.731359 201.076099,207.829205 192.384871,207.996964 L192.07,208 L112.07,208 C103.233444,208 96.07,200.836556 96.07,192 C96.07,183.268641 103.063901,176.170795 111.755129,176.003036 L112.07,176 L176.07,176 L176.07,80 C176.07,71.2686411 183.063901,64.1707953 191.755129,64.0030364 L192.07,64 Z" id="Path"></path>
            <path d="M300.756292,300.686292 C306.917897,294.524686 316.854662,294.439108 323.121133,300.429558 L323.383708,300.686292 L363.383708,340.686292 C369.632097,346.93468 369.632097,357.06532 363.383708,363.313708 C357.222103,369.475314 347.285338,369.560892 341.018867,363.570442 L340.756292,363.313708 L300.756292,323.313708 C294.507903,317.06532 294.507903,306.93468 300.756292,300.686292 Z" id="Path"></path>
            <path d="M60.7562915,300.686292 C67.0046802,294.437903 77.1353198,294.437903 83.3837085,300.686292 C89.545314,306.847897 89.6308918,316.784662 83.6404421,323.051133 L83.3837085,323.313708 L43.3837085,363.313708 C37.1353198,369.562097 27.0046802,369.562097 20.7562915,363.313708 C14.594686,357.152103 14.5091082,347.215338 20.4995579,340.948867 L20.7562915,340.686292 L60.7562915,300.686292 Z" id="Path"></path>
        </g>
    </g>
</svg>