<?xml version="1.0" encoding="UTF-8" standalone="no"?>
<svg
   xmlns:dc="http://purl.org/dc/elements/1.1/"
   xmlns:cc="http://creativecommons.org/ns#"
   xmlns:rdf="http://www.w3.org/1999/02/22-rdf-syntax-ns#"
   xmlns:svg="http://www.w3.org/2000/svg"
   xmlns="http://www.w3.org/2000/svg"
   xmlns:sodipodi="http://sodipodi.sourceforge.net/DTD/sodipodi-0.dtd"
   xmlns:inkscape="http://www.inkscape.org/namespaces/inkscape"
   class="ionicon"
   viewBox="0 0 512 512"
   version="1.1"
   id="svg8"
   sodipodi:docname="alarm-outline.svg"
   inkscape:version="1.0.2 (e86c8708, 2021-01-15)">
  <metadata
     id="metadata14">
    <rdf:RDF>
      <cc:Work
         rdf:about="">
        <dc:format>image/svg+xml</dc:format>
        <dc:type
           rdf:resource="http://purl.org/dc/dcmitype/StillImage" />
      </cc:Work>
    </rdf:RDF>
  </metadata>
  <defs
     id="defs12" />
  <sodipodi:namedview
     pagecolor="#ffffff"
     bordercolor="#666666"
     borderopacity="1"
     objecttolerance="10"
     gridtolerance="10"
     guidetolerance="10"
     inkscape:pageopacity="0"
     inkscape:pageshadow="2"
     inkscape:window-width="689"
     inkscape:window-height="480"
     id="namedview10"
     showgrid="false"
     inkscape:zoom="1.3027344"
     inkscape:cx="256"
     inkscape:cy="256"
     inkscape:window-x="44"
     inkscape:window-y="25"
     inkscape:window-maximized="0"
     inkscape:current-layer="svg8" />
  <title
     id="title2">Alarm</title>
  <path
     style="color:#000000;font-style:normal;font-variant:normal;font-weight:normal;font-stretch:normal;font-size:medium;line-height:normal;font-family:sans-serif;font-variant-ligatures:normal;font-variant-position:normal;font-variant-caps:normal;font-variant-numeric:normal;font-variant-alternates:normal;font-variant-east-asian:normal;font-feature-settings:normal;font-variation-settings:normal;text-indent:0;text-align:start;text-decoration:none;text-decoration-line:none;text-decoration-style:solid;text-decoration-color:#000000;letter-spacing:normal;word-spacing:normal;text-transform:none;writing-mode:lr-tb;direction:ltr;text-orientation:mixed;dominant-baseline:auto;baseline-shift:baseline;text-anchor:start;white-space:normal;shape-padding:0;shape-margin:0;inline-size:0;clip-rule:nonzero;display:inline;overflow:visible;visibility:visible;isolation:auto;mix-blend-mode:normal;color-interpolation:sRGB;color-interpolation-filters:linearRGB;solid-color:#000000;solid-opacity:1;vector-effect:none;fill:currentColor;fill-opacity:1;fill-rule:nonzero;stroke:none;stroke-linecap:butt;stroke-linejoin:miter;stroke-miterlimit:10;stroke-dasharray:none;stroke-dashoffset:0;stroke-opacity:1;color-rendering:auto;image-rendering:auto;shape-rendering:auto;text-rendering:auto;enable-background:accumulate;stop-color:#000000;stop-opacity:1;opacity:1"
     d="M 111.80859 63.998047 L 108.5 64.09375 L 108.24805 64.109375 C 73.905312 66.179348 47.9939 96.237866 48.072266 131.01758 C 48.077975 147.88595 55.98314 160.00642 62.294922 168.00586 C 65.819092 172.57688 71.120516 175.47099 76.875 175.94531 L 77.53125 176 L 79.212891 176 L 79.355469 175.99805 C 85.321392 175.8913 90.932596 172.99819 94.478516 168.19922 L 92.822266 170.10547 L 153.67578 110.33203 L 153.75781 110.25 C 157.91053 106.05022 160.14051 100.29715 159.91406 94.396484 C 159.69596 88.521364 157.04747 82.976445 152.60547 79.123047 L 152.56445 79.087891 L 152.52344 79.052734 C 141.25144 69.407087 126.91165 64.07098 112.07617 64 L 111.80859 63.998047 z M 400.19141 63.998047 L 399.92383 64 C 385.08835 64.07098 370.74856 69.407087 359.47656 79.052734 L 359.43555 79.087891 L 359.39453 79.123047 C 354.95253 82.976445 352.30404 88.521364 352.08594 94.396484 C 351.85949 100.29715 354.08947 106.05022 358.24219 110.25 L 358.32617 110.33398 L 419.17969 170.0957 L 417.52148 168.1875 C 421.0674 172.98647 426.67861 175.88153 432.64453 175.98828 L 432.78711 175.99023 L 434.45312 175.99023 L 435.0957 175.9375 C 440.84845 175.47377 446.15486 172.59305 449.6875 168.03125 C 456.00216 160.03208 463.92202 147.90157 463.92773 131.01758 C 464.0061 96.237866 438.09469 66.179348 403.75195 64.109375 L 403.5 64.09375 L 400.19141 63.998047 z M 112.00195 96.007812 C 115.10454 96.030643 118.13188 96.60568 121.04297 97.53125 L 80.576172 137.27734 C 80.256159 135.67577 80.070312 133.79258 80.070312 131 L 80.070312 130.97852 L 80.070312 130.95898 C 80.020576 111.77492 93.387956 97.107891 110.10547 96.0625 L 112.00195 96.007812 z M 399.99805 96.007812 L 401.89453 96.0625 C 418.61204 97.107891 431.97942 111.77492 431.92969 130.95898 L 431.92969 130.97852 L 431.92969 131 C 431.92969 133.7888 431.74481 135.67106 431.42578 137.27148 L 390.95898 97.53125 C 393.86953 96.606048 396.8961 96.030638 399.99805 96.007812 z M 259.94727 96.052734 C 212.82924 95.037841 166.20789 112.9718 131.625 147.55469 C 81.322621 197.85707 66.246305 273.63018 93.46875 339.35352 C 120.69124 405.07696 184.93094 448 256.07031 448 C 353.08291 448 432.07031 369.0126 432.07031 272 C 432.07031 200.86062 389.14727 136.62093 323.42383 109.39844 C 302.88529 100.89142 281.36455 96.514049 259.94727 96.052734 z M 259.2207 128.01758 C 276.73867 128.40157 294.34962 131.99273 311.17773 138.96289 C 365.02782 161.26746 400.07031 213.7116 400.07031 272 C 400.07031 351.71852 335.78883 416 256.07031 416 C 197.78191 416 145.33778 380.95751 123.0332 327.10742 C 100.72869 273.25747 113.03547 211.39813 154.25195 170.18164 C 182.58829 141.84531 220.68118 127.17279 259.2207 128.01758 z "
     id="path4" />
  <path
     style="color:#000000;font-style:normal;font-variant:normal;font-weight:normal;font-stretch:normal;font-size:medium;line-height:normal;font-family:sans-serif;font-variant-ligatures:normal;font-variant-position:normal;font-variant-caps:normal;font-variant-numeric:normal;font-variant-alternates:normal;font-variant-east-asian:normal;font-feature-settings:normal;font-variation-settings:normal;text-indent:0;text-align:start;text-decoration:none;text-decoration-line:none;text-decoration-style:solid;text-decoration-color:#000000;letter-spacing:normal;word-spacing:normal;text-transform:none;writing-mode:lr-tb;direction:ltr;text-orientation:mixed;dominant-baseline:auto;baseline-shift:baseline;text-anchor:start;white-space:normal;shape-padding:0;shape-margin:0;inline-size:0;clip-rule:nonzero;display:inline;overflow:visible;visibility:visible;isolation:auto;mix-blend-mode:normal;color-interpolation:sRGB;color-interpolation-filters:linearRGB;solid-color:#000000;solid-opacity:1;vector-effect:none;fill:currentColor;fill-opacity:1;fill-rule:nonzero;stroke:none;stroke-linecap:round;stroke-linejoin:round;stroke-miterlimit:4;stroke-dasharray:none;stroke-dashoffset:0;stroke-opacity:1;color-rendering:auto;image-rendering:auto;shape-rendering:auto;text-rendering:auto;enable-background:accumulate;stop-color:#000000;stop-opacity:1;opacity:1"
     d="M 256.07031 144 A 16 16 0 0 0 240.07031 160 L 240.07031 256 L 176.07031 256 A 16 16 0 0 0 160.07031 272 A 16 16 0 0 0 176.07031 288 L 256.07031 288 A 16.0016 16.0016 0 0 0 272.07031 272 L 272.07031 160 A 16 16 0 0 0 256.07031 144 z M 136.19141 376 A 16 16 0 0 0 124.75586 380.68555 L 84.755859 420.68555 A 16 16 0 0 0 84.755859 443.31445 A 16 16 0 0 0 107.38281 443.31445 L 147.38281 403.31445 A 16 16 0 0 0 147.38281 380.68555 A 16 16 0 0 0 136.19141 376 z M 376.19141 376 A 16 16 0 0 0 364.75586 380.68555 A 16 16 0 0 0 364.75586 403.31445 L 404.75586 443.31445 A 16 16 0 0 0 427.38281 443.31445 A 16 16 0 0 0 427.38281 420.68555 L 387.38281 380.68555 A 16 16 0 0 0 376.19141 376 z "
     id="path6" />
</svg>
