<?xml version="1.0" encoding="UTF-8"?>
<svg width="512px" height="512px" viewBox="0 0 512 512" version="1.1" xmlns="http://www.w3.org/2000/svg" xmlns:xlink="http://www.w3.org/1999/xlink">
    <!-- Generator: Sketch 62 (91390) - https://sketch.com -->
    <title>Artboard</title>
    <desc>Created with Sketch.</desc>
    <g id="Artboard" stroke="none" stroke-width="1" fill="none" fill-rule="evenodd">
        <g id="alarm-sharp" transform="translate(48.000000, 61.000000)" fill="#000000" fill-rule="nonzero">
            <path d="M32.07,208 C32.07,97.71 134,10.79 248.66,36.57 C306.33,49.54 365.36,107.71 379,165.23 C393,224.24 377,280 343.3,320.52 C343.279628,320.542776 343.279628,320.577224 343.3,320.6 L343.3,320.6 L392,368 L368.08,390.59 C368.057224,390.610372 368.022776,390.610372 368,390.59 L368,390.59 L320.64,343.22 C255.475445,397.591779 160.754555,397.591779 95.59,343.22 C95.5672239,343.199628 95.5327761,343.199628 95.51,343.22 L95.51,343.22 L48.08,390.59 C48.0572239,390.610372 48.0227761,390.610372 48,390.59 L48,390.59 L25,368.08 C24.9796285,368.057224 24.9796285,368.022776 25,368 L25,368 L72.85,320.6 C72.8703715,320.577224 72.8703715,320.542776 72.85,320.52 C46.4664737,288.96512 32.0297911,249.131488 32.07,208 Z M224.07,80 L192.07,80 L192.07,192.1 L112.07,192.1 L112.07,224 L224.07,224 L224.07,80 Z M352.52,0.01 L355.79,0.11 C389.6,2.15 416,31.55 415.930139,67.04 C415.89,86.07 407.97,96.01 401.61,104.15 C395.25,112.29 384,118 384,118 L384,118 L296,32 C296,32 299.51,24.1 311.48,15.01 C323.45,5.92 337.27,0.01 352,0.01 L352,0.01 L352.52,0.01 Z M64,0.01 C78.73,0.01 92.55,5.92 104.52,15.01 C116.49,24.1 120,32 120,32 L32,118 C32,118 20.75,112.29 14.39,104.15 L13.9540571,103.592125 C7.67407018,95.5534659 0.109087753,85.6365909 0.0698611195,67 C-1.49880108e-15,31.55 26.4,2.15 60.21,0.11 L63.48,0.01 L64,0.01 Z" id="Combined-Shape"></path>
        </g>
    </g>
</svg>