<?xml version="1.0" encoding="UTF-8"?>
<svg width="512px" height="512px" viewBox="0 0 512 512" version="1.1" xmlns="http://www.w3.org/2000/svg" xmlns:xlink="http://www.w3.org/1999/xlink">
    <!-- Generator: Sketch 62 (91390) - https://sketch.com -->
    <title>Artboard</title>
    <desc>Created with Sketch.</desc>
    <g id="Artboard" stroke="none" stroke-width="1" fill="none" fill-rule="evenodd">
        <g id="albums-outline" transform="translate(64.000000, 80.000000)" fill="#000000" fill-rule="nonzero">
            <path d="M355.13,81 L28.87,81 C4.08898328,81 -16,101.088983 -16,125.87 L-16,324.13 C-16,348.911017 4.08898328,369 28.87,369 L355.13,369 C379.911017,369 400,348.911017 400,324.13 L400,125.87 C400,101.088983 379.911017,81 355.13,81 Z M28.87,113 L355.13,113 C362.237905,113 368,118.762095 368,125.87 L368,324.13 C368,331.237905 362.237905,337 355.13,337 L28.87,337 C21.7620953,337 16,331.237905 16,324.13 L16,125.87 C16,118.762095 21.7620953,113 28.87,113 Z" id="Rectangle"></path>
            <path d="M304,-15 C312.836556,-15 320,-7.836556 320,1 C320,9.7313589 313.006099,16.8292047 304.314871,16.9969636 L304,17 L80,17 C71.163444,17 64,9.836556 64,1 C64,-7.7313589 70.993901,-14.8292047 79.6851293,-14.9969636 L80,-15 L304,-15 Z" id="Path"></path>
            <path d="M336,33 C344.836556,33 352,40.163444 352,49 C352,57.7313589 345.006099,64.8292047 336.314871,64.9969636 L336,65 L48,65 C39.163444,65 32,57.836556 32,49 C32,40.2686411 38.993901,33.1707953 47.6851293,33.0030364 L48,33 L336,33 Z" id="Path"></path>
        </g>
    </g>
</svg>