<?xml version="1.0" encoding="UTF-8"?>
<svg width="512px" height="512px" viewBox="0 0 512 512" version="1.1" xmlns="http://www.w3.org/2000/svg" xmlns:xlink="http://www.w3.org/1999/xlink">
    <!-- Generator: Sketch 62 (91390) - https://sketch.com -->
    <title>Artboard</title>
    <desc>Created with Sketch.</desc>
    <g id="Artboard" stroke="none" stroke-width="1" fill="none" fill-rule="evenodd">
        <g id="alert-outline" transform="translate(239.000000, 80.000000)" fill="#000000" fill-rule="nonzero">
            <path d="M16.4669327,-15.9955054 C-0.922042318,-15.7022474 -15.8590319,-1.09694713 -14.9954561,16.5310959 L-14.984,16.715 L-6.996,232.396 L-6.98768534,232.775773 C-6.59042258,245.272127 3.37016984,255.396199 15.8816192,255.974126 L16.50641,255.994326 L17,256 L17.3968839,255.996785 C30.3366246,255.786987 40.7869865,245.336625 40.9967847,232.396884 L48.984,16.715 L48.9640703,17.0716621 C50.1757297,-0.977885032 34.7934955,-16 17,-16 L16.4669327,-15.9955054 Z" id="Path"></path>
            <path d="M17,304 C-0.673111994,304 -15,318.326888 -15,336 C-15,353.673112 -0.673111994,368 17,368 C34.673112,368 49,353.673112 49,336 C49,318.326888 34.673112,304 17,304 Z" id="Oval"></path>
        </g>
    </g>
</svg>