<?xml version="1.0" encoding="UTF-8"?>
<svg width="512px" height="512px" viewBox="0 0 512 512" version="1.1" xmlns="http://www.w3.org/2000/svg" xmlns:xlink="http://www.w3.org/1999/xlink">
    <!-- Generator: Sketch 62 (91390) - https://sketch.com -->
    <title>Artboard</title>
    <desc>Created with Sketch.</desc>
    <g id="Artboard" stroke="none" stroke-width="1" fill="none" fill-rule="evenodd">
        <g id="alert-circle-outline" transform="translate(64.000000, 64.000000)" fill="#000000" fill-rule="nonzero">
            <path d="M192,-16 C77.163444,-16 -16,77.163444 -16,192 C-16,306.836556 77.163444,400 192,400 C306.836556,400 400,306.836556 400,192 C400,77.163444 306.836556,-16 192,-16 Z M192,16 C289.163444,16 368,94.836556 368,192 C368,289.163444 289.163444,368 192,368 C94.836556,368 16,289.163444 16,192 C16,94.836556 94.836556,16 192,16 Z" id="Path"></path>
            <path d="M192.173291,80.0514282 C192.044339,80.0497273 191.915368,80.0497273 191.786408,80.0497273 C185.886562,80.1071029 180.262796,82.5590434 176.206355,86.8440162 C172.149373,91.1295611 170.008888,96.880247 170.276455,102.775449 L176.017694,224.752263 C176.97465,245.083412 207.027075,245.082182 207.982367,224.750955 L213.712367,102.800955 C213.984409,96.8080074 211.787837,90.9919834 207.639734,86.6934313 C203.742748,82.6551032 198.437917,80.2828569 192.837274,80.06578 L192.450882,80.0554761 L192.173291,80.0514282 Z" id="Path"></path>
            <path d="M192,303.91 C180.954305,303.91 172,294.955695 172,283.91 C172,272.864305 180.954305,263.91 192,263.91 C203.045695,263.91 212,272.864305 212,283.91 C212,294.955695 203.045695,303.91 192,303.91 Z" id="Path"></path>
        </g>
    </g>
</svg>