<?xml version="1.0" encoding="utf-8"?>
<!-- Generator: Adobe Illustrator 24.0.0, SVG Export Plug-In . SVG Version: 6.00 Build 0)  -->
<svg version="1.1" id="Layer_1" xmlns="http://www.w3.org/2000/svg" xmlns:xlink="http://www.w3.org/1999/xlink" x="0px" y="0px"
	 viewBox="0 0 512 512" style="enable-background:new 0 0 512 512;" xml:space="preserve">
<title>ionicons-v5-a</title>
<g>
	<path d="M256,336c-13.1,0-23.8-10.6-24-23.6l-8-215.6c-0.5-8.2,2.5-16.2,8.3-22.4C238.5,67.8,247.1,64,256,64
		c8.9,0,17.5,3.8,23.7,10.4c5.8,6.2,8.8,14.2,8.3,22.4l-8,215.6C279.8,325.4,269.1,336,256,336z"/>
</g>
<g>
	<path d="M256,448c-17.6,0-32-14.4-32-32s14.4-32,32-32c17.6,0,32,14.4,32,32S273.6,448,256,448z M256,416C256,416,256,416,256,416
		L256,416z"/>
</g>
</svg>
