<?xml version="1.0" encoding="UTF-8" standalone="no"?>
<svg
   xmlns:dc="http://purl.org/dc/elements/1.1/"
   xmlns:cc="http://creativecommons.org/ns#"
   xmlns:rdf="http://www.w3.org/1999/02/22-rdf-syntax-ns#"
   xmlns:svg="http://www.w3.org/2000/svg"
   xmlns="http://www.w3.org/2000/svg"
   xmlns:sodipodi="http://sodipodi.sourceforge.net/DTD/sodipodi-0.dtd"
   xmlns:inkscape="http://www.inkscape.org/namespaces/inkscape"
   class="ionicon"
   viewBox="0 0 512 512"
   version="1.1"
   id="svg839"
   sodipodi:docname="american-football-outline.svg"
   inkscape:version="1.0.2 (e86c8708, 2021-01-15)">
  <metadata
     id="metadata845">
    <rdf:RDF>
      <cc:Work
         rdf:about="">
        <dc:format>image/svg+xml</dc:format>
        <dc:type
           rdf:resource="http://purl.org/dc/dcmitype/StillImage" />
      </cc:Work>
    </rdf:RDF>
  </metadata>
  <defs
     id="defs843" />
  <sodipodi:namedview
     pagecolor="#ffffff"
     bordercolor="#666666"
     borderopacity="1"
     objecttolerance="10"
     gridtolerance="10"
     guidetolerance="10"
     inkscape:pageopacity="0"
     inkscape:pageshadow="2"
     inkscape:window-width="1135"
     inkscape:window-height="622"
     id="namedview841"
     showgrid="false"
     inkscape:zoom="0.3"
     inkscape:cx="256"
     inkscape:cy="256"
     inkscape:window-x="268"
     inkscape:window-y="1165"
     inkscape:window-maximized="0"
     inkscape:current-layer="svg839"
     inkscape:document-rotation="0" />
  <title
     id="title833">American Football</title>
  <path
     id="ellipse835"
     style="color:#000000;font-style:normal;font-variant:normal;font-weight:normal;font-stretch:normal;font-size:medium;line-height:normal;font-family:sans-serif;font-variant-ligatures:normal;font-variant-position:normal;font-variant-caps:normal;font-variant-numeric:normal;font-variant-alternates:normal;font-variant-east-asian:normal;font-feature-settings:normal;font-variation-settings:normal;text-indent:0;text-align:start;text-decoration:none;text-decoration-line:none;text-decoration-style:solid;text-decoration-color:#000000;letter-spacing:normal;word-spacing:normal;text-transform:none;writing-mode:lr-tb;direction:ltr;text-orientation:mixed;dominant-baseline:auto;baseline-shift:baseline;text-anchor:start;white-space:normal;shape-padding:0;shape-margin:0;inline-size:0;clip-rule:nonzero;display:inline;overflow:visible;visibility:visible;isolation:auto;mix-blend-mode:normal;color-interpolation:sRGB;color-interpolation-filters:linearRGB;solid-color:#000000;solid-opacity:1;vector-effect:none;fill:currentColor;fill-opacity:1;fill-rule:nonzero;stroke:none;stroke-linecap:round;stroke-linejoin:round;stroke-miterlimit:4;stroke-dasharray:none;stroke-dashoffset:0;stroke-opacity:1;color-rendering:auto;image-rendering:auto;shape-rendering:auto;text-rendering:auto;enable-background:accumulate;stop-color:#000000;stop-opacity:1;opacity:1"
     d="M 349.55469 14.550781 C 333.35813 14.432141 316.61787 16.241929 299.72461 19.847656 C 239.6597 32.66803 176.2729 67.818898 122.04492 122.04688 C 67.816945 176.27485 32.666075 239.66165 19.845703 299.72656 C 7.0253379 359.79148 16.901709 417.93296 55.484375 456.51562 C 94.067041 495.09829 152.20852 504.97466 212.27344 492.1543 C 272.33835 479.33392 335.72515 444.18305 389.95312 389.95508 C 444.1811 335.7271 479.33197 272.3403 492.15234 212.27539 C 504.97271 152.21048 495.09634 94.068994 456.51367 55.486328 C 428.78238 27.755037 390.9459 14.853972 349.55469 14.550781 z M 349.02539 46.458984 C 383.51884 46.573417 412.9333 57.161813 433.88477 78.113281 C 461.05646 105.28497 470.79159 146.69527 462.86133 194.95312 L 317.04688 49.138672 C 328.09429 47.323226 338.78465 46.42501 349.02539 46.458984 z M 284.67578 56.865234 A 16 16 0 0 0 289.28711 66.632812 L 445.36719 222.71289 A 16 16 0 0 0 455.13477 227.32422 C 440.57799 274.12473 410.78562 323.86477 367.32422 367.32617 C 323.86337 410.78703 274.12421 440.57974 227.32422 455.13672 A 16 16 0 0 0 222.71289 445.36719 L 66.632812 289.28711 A 16 16 0 0 0 56.863281 284.67383 C 71.420479 237.87441 101.21163 188.13407 144.67188 144.67383 C 188.13322 101.21248 237.87533 71.42203 284.67578 56.865234 z M 333.82422 161.96094 A 16 16 0 0 0 322.72656 166.64648 L 300.59375 188.77734 L 289.61328 177.79688 A 16 16 0 0 0 266.98633 177.79688 A 16 16 0 0 0 266.98633 200.42383 L 277.96875 211.40625 L 256 233.37305 L 245.01367 222.38672 A 16 16 0 0 0 222.38672 222.38672 A 16 16 0 0 0 222.38672 245.01367 L 233.37305 256 L 211.40625 277.96875 L 200.42383 266.98633 A 16 16 0 0 0 177.79688 266.98633 A 16 16 0 0 0 177.79688 289.61328 L 188.77734 300.59375 L 166.64648 322.72656 A 16 16 0 0 0 166.64648 345.35352 A 16 16 0 0 0 189.27344 345.35352 L 211.40625 323.22266 L 222.38672 334.20312 A 16 16 0 0 0 245.01367 334.20312 A 16 16 0 0 0 245.01367 311.57617 L 234.03125 300.59375 L 256 278.62695 L 266.98633 289.61328 A 16 16 0 0 0 289.61328 289.61328 A 16 16 0 0 0 289.61328 266.98633 L 278.62695 256 L 300.59375 234.03125 L 311.57617 245.01367 A 16 16 0 0 0 334.20312 245.01367 A 16 16 0 0 0 334.20312 222.38672 L 323.22266 211.40625 L 345.35352 189.27344 A 16 16 0 0 0 345.35352 166.64648 A 16 16 0 0 0 333.82422 161.96094 z M 49.136719 317.04492 L 194.95508 462.86328 C 146.69558 470.79469 105.28374 461.05913 78.111328 433.88672 C 50.938873 406.71426 41.205238 365.30452 49.136719 317.04492 z " />
</svg>
