<?xml version="1.0" encoding="UTF-8" standalone="no"?>
<svg
   xmlns:dc="http://purl.org/dc/elements/1.1/"
   xmlns:cc="http://creativecommons.org/ns#"
   xmlns:rdf="http://www.w3.org/1999/02/22-rdf-syntax-ns#"
   xmlns:svg="http://www.w3.org/2000/svg"
   xmlns="http://www.w3.org/2000/svg"
   xmlns:sodipodi="http://sodipodi.sourceforge.net/DTD/sodipodi-0.dtd"
   xmlns:inkscape="http://www.inkscape.org/namespaces/inkscape"
   class="ionicon"
   viewBox="0 0 512 512"
   version="1.1"
   id="svg26"
   sodipodi:docname="american-football.svg"
   inkscape:version="1.0.2 (e86c8708, 2021-01-15)">
  <metadata
     id="metadata32">
    <rdf:RDF>
      <cc:Work
         rdf:about="">
        <dc:format>image/svg+xml</dc:format>
        <dc:type
           rdf:resource="http://purl.org/dc/dcmitype/StillImage" />
      </cc:Work>
    </rdf:RDF>
  </metadata>
  <defs
     id="defs30" />
  <sodipodi:namedview
     pagecolor="#ffffff"
     bordercolor="#666666"
     borderopacity="1"
     objecttolerance="10"
     gridtolerance="10"
     guidetolerance="10"
     inkscape:pageopacity="0"
     inkscape:pageshadow="2"
     inkscape:window-width="693"
     inkscape:window-height="480"
     id="namedview28"
     showgrid="false"
     inkscape:zoom="0.41986485"
     inkscape:cx="256"
     inkscape:cy="256"
     inkscape:window-x="44"
     inkscape:window-y="25"
     inkscape:window-maximized="0"
     inkscape:current-layer="svg26" />
  <title
     id="title22">American Football</title>
  <path
     style="color:#000000;font-style:normal;font-variant:normal;font-weight:normal;font-stretch:normal;font-size:medium;line-height:normal;font-family:sans-serif;font-variant-ligatures:normal;font-variant-position:normal;font-variant-caps:normal;font-variant-numeric:normal;font-variant-alternates:normal;font-variant-east-asian:normal;font-feature-settings:normal;font-variation-settings:normal;text-indent:0;text-align:start;text-decoration:none;text-decoration-line:none;text-decoration-style:solid;text-decoration-color:#000000;letter-spacing:normal;word-spacing:normal;text-transform:none;writing-mode:lr-tb;direction:ltr;text-orientation:mixed;dominant-baseline:auto;baseline-shift:baseline;text-anchor:start;white-space:normal;shape-padding:0;shape-margin:0;inline-size:0;clip-rule:nonzero;display:inline;overflow:visible;visibility:visible;isolation:auto;mix-blend-mode:normal;color-interpolation:sRGB;color-interpolation-filters:linearRGB;solid-color:#000000;solid-opacity:1;vector-effect:none;fill:#000000;fill-opacity:1;fill-rule:nonzero;stroke-width:1;stroke-linecap:butt;stroke-linejoin:miter;stroke-miterlimit:4;stroke-dasharray:none;stroke-dashoffset:0;stroke-opacity:1;color-rendering:auto;image-rendering:auto;shape-rendering:auto;text-rendering:auto;enable-background:accumulate;stop-color:#000000;stop-opacity:1;stroke:none;opacity:1"
     d="m 122.06,122.06 c -44.37,44.37 -66.71,100.61 -78,145.28 l 200.6,200.56 c 44.67,-11.25 100.91,-33.59 145.28,-78 44.37,-44.41 66.71,-100.61 78,-145.28 L 267.34,44.1 C 222.67,55.35 166.43,77.69 122.06,122.06 Z M 378.79,378.78 Z M 300.65,189 323,166.71 c 6.2338,-5.65615 15.8097,-5.42367 21.76169,0.52831 5.95198,5.95199 6.18446,15.52789 0.52831,21.76169 l -22.29,22.35 11.16,11.17 c 6.1635,6.1635 6.16349,16.1565 0,22.32 -6.1635,6.16349 -16.1565,6.1635 -22.32,0 l -11.16,-11.16 -22.36,22.32 11.16,11.16 c 6.1635,6.1635 6.16349,16.1565 0,22.32 -6.1635,6.16349 -16.1565,6.1635 -22.32,0 L 256,278.32 l -22.32,22.33 11.16,11.16 c 6.1635,6.1635 6.16349,16.1565 0,22.32 -6.1635,6.16349 -16.1565,6.1635 -22.32,0 L 211.35,323 189,345.29 c -6.2338,5.65615 -15.8097,5.42367 -21.76169,-0.52831 C 161.28633,338.8097 161.05385,329.2338 166.71,323 L 189,300.65 177.84,289.48 c -6.1635,-6.1635 -6.16349,-16.1565 0,-22.32 6.1635,-6.16349 16.1565,-6.1635 22.32,0 l 11.16,11.16 22.36,-22.32 -11.16,-11.16 c -6.1635,-6.1635 -6.16349,-16.1565 0,-22.32 6.1635,-6.16349 16.1565,-6.1635 22.32,0 l 11.16,11.16 22.32,-22.33 -11.16,-11.16 c -6.1635,-6.1635 -6.16349,-16.1565 0,-22.32 6.1635,-6.16349 16.1565,-6.1635 22.32,0 z m 175.92,10.63 c 7.31,-54.53 4,-120.26 -20,-144.21 -24,-23.95 -89.68,-27.3 -144.21,-20 -2.51,0.34 -5.16,0.72 -7.91,1.15 l 171,171 c 0.4,-2.78 0.78,-5.43 1.12,-7.94 z M 35.43,312.37 c -7.31,54.53 -4,120.26 20,144.21 16.74,16.75 53.91,23.42 93.41,23.42 16.98693,-0.0274 33.95363,-1.17322 50.79,-3.43 2.51,-0.34 5.16,-0.72 7.91,-1.15 l -171,-171 c -0.39,2.79 -0.77,5.44 -1.11,7.95 z"
     id="path24" />
</svg>
