<?xml version="1.0" encoding="UTF-8"?>
<svg width="512px" height="512px" viewBox="0 0 512 512" version="1.1" xmlns="http://www.w3.org/2000/svg" xmlns:xlink="http://www.w3.org/1999/xlink">
    <!-- Generator: Sketch 62 (91390) - https://sketch.com -->
    <title>Artboard</title>
    <desc>Created with Sketch.</desc>
    <g id="Artboard" stroke="none" stroke-width="1" fill="none" fill-rule="evenodd">
        <g id="american-football-outline" transform="translate(14.000000, 14.000000)" fill="#000000" fill-rule="nonzero">
            <path d="M108,108 C218,-1.9 367.4,-33.8 442.6,41.5 C517.8,116.8 486,266.1 376,376 C266,485.9 116.6,517.8 41.4,442.5 C-33.8,367.2 -2,218 108,108 Z M35.1333129,303.039808 C27.428294,350.172031 36.5469381,392.346938 64.1,419.9 C91.6530619,447.453062 133.827969,456.571706 180.960192,448.866687 Z M270.647335,42.8523409 L267.591394,43.8203576 C221.5719,58.72488 173.27,88.13 130.7,130.7 C87.1751918,174.224808 57.4124401,223.741523 42.8393704,270.684392 C46.3056343,271.012317 49.6866957,272.458969 52.4,275 L208.8,431.4 C211.506535,434.106535 213.031564,437.57533 213.375089,441.140875 C260.300619,426.562226 309.793714,396.806286 353.3,353.3 C396.824808,309.775192 426.58756,260.258477 441.16063,213.315608 C437.69427,212.987642 434.313266,211.540995 431.6,209 L431.3,208.7 L275.3,52.6 C272.539749,49.8835628 270.988861,46.4184725 270.647335,42.8523409 Z M419.9,64.1 C392.362939,36.5629394 350.221012,27.4388914 303.121918,35.119906 L448.867015,180.95819 C456.571448,133.826774 447.452672,91.6526716 419.9,64.1 Z" id="Combined-Shape"></path>
            <path d="M308.7,152.6 C314.9,146.4 325.1,146.4 331.3,152.6 C337.5,158.8 337.5,168.7 331.6,175 L331.3,175.3 L175.3,331.4 C169.1,337.6 158.9,337.6 152.7,331.4 C146.5,325.2 146.5,315.3 152.4,309 L152.7,308.7 L308.7,152.6 Z" id="Path"></path>
            <path d="M208.4,208.4 C214.6,202.2 224.5,202.2 230.8,208.1 L231.1,208.4 L275.7,253 C281.9,259.2 281.9,269.4 275.7,275.6 C269.5,281.8 259.6,281.8 253.3,275.9 L253,275.6 L208.4,231 C202.1,224.8 202.1,214.6 208.4,208.4 Z" id="Path_1_"></path>
            <path d="M253,163.8 C259.2,157.6 269.1,157.6 275.4,163.5 L275.7,163.8 L320.3,208.4 C326.5,214.6 326.5,224.8 320.3,231 C314.1,237.2 304.2,237.2 297.9,231.3 L297.6,231 L253,186.4 C246.7,180.2 246.7,170 253,163.8 Z" id="Path_2_"></path>
            <path d="M163.8,253 C170,246.8 179.9,246.8 186.2,252.7 L186.5,253 L231.1,297.6 C237.3,303.8 237.3,314 231.1,320.2 C224.9,326.4 215,326.4 208.7,320.5 L208.4,320.2 L163.8,275.6 C157.5,269.4 157.5,259.2 163.8,253 Z" id="Path_5_"></path>
        </g>
    </g>
</svg>