<?xml version="1.0" encoding="UTF-8"?>
<svg width="512px" height="512px" viewBox="0 0 512 512" version="1.1" xmlns="http://www.w3.org/2000/svg" xmlns:xlink="http://www.w3.org/1999/xlink">
    <!-- Generator: Sketch 62 (91390) - https://sketch.com -->
    <title>Artboard</title>
    <desc>Created with Sketch.</desc>
    <g id="Artboard" stroke="none" stroke-width="1" fill="none" fill-rule="evenodd">
        <g id="analytics-outline" transform="translate(32.000000, 144.000000)" fill="#000000" fill-rule="nonzero">
            <path d="M388.686292,36.6862915 C394.93468,30.4379028 405.06532,30.4379028 411.313708,36.6862915 C417.475314,42.847897 417.560892,52.7846621 411.570442,59.0511331 L411.313708,59.3137085 L323.313708,147.313708 C317.06532,153.562097 306.93468,153.562097 300.686292,147.313708 C294.524686,141.152103 294.439108,131.215338 300.429558,124.948867 L300.686292,124.686292 L388.686292,36.6862915 Z" id="Path"></path>
            <path d="M188.686292,60.6862915 C194.847897,54.524686 204.784662,54.4391082 211.051133,60.4295579 L211.313708,60.6862915 L275.313708,124.686292 C281.562097,130.93468 281.562097,141.06532 275.313708,147.313708 C269.152103,153.475314 259.215338,153.560892 252.948867,147.570442 L252.686292,147.313708 L188.686292,83.3137085 C182.437903,77.0653198 182.437903,66.9346802 188.686292,60.6862915 Z" id="Path"></path>
            <path d="M140.686292,60.6862915 C146.93468,54.4379028 157.06532,54.4379028 163.313708,60.6862915 C169.475314,66.847897 169.560892,76.7846621 163.570442,83.0511331 L163.313708,83.3137085 L59.3137085,187.313708 C53.0653198,193.562097 42.9346802,193.562097 36.6862915,187.313708 C30.524686,181.152103 30.4391082,171.215338 36.4295579,164.948867 L36.6862915,164.686292 L140.686292,60.6862915 Z" id="Path"></path>
            <path d="M424,-16 C401.90861,-16 384,1.90861001 384,24 C384,46.09139 401.90861,64 424,64 C446.09139,64 464,46.09139 464,24 C464,1.90861001 446.09139,-16 424,-16 Z M424,16 C428.418278,16 432,19.581722 432,24 C432,28.418278 428.418278,32 424,32 C419.581722,32 416,28.418278 416,24 C416,19.581722 419.581722,16 424,16 Z" id="Oval"></path>
            <path d="M288,120 C265.90861,120 248,137.90861 248,160 C248,182.09139 265.90861,200 288,200 C310.09139,200 328,182.09139 328,160 C328,137.90861 310.09139,120 288,120 Z M288,152 C292.418278,152 296,155.581722 296,160 C296,164.418278 292.418278,168 288,168 C283.581722,168 280,164.418278 280,160 C280,155.581722 283.581722,152 288,152 Z" id="Oval"></path>
            <path d="M176,8 C153.90861,8 136,25.90861 136,48 C136,70.09139 153.90861,88 176,88 C198.09139,88 216,70.09139 216,48 C216,25.90861 198.09139,8 176,8 Z M176,40 C180.418278,40 184,43.581722 184,48 C184,52.418278 180.418278,56 176,56 C171.581722,56 168,52.418278 168,48 C168,43.581722 171.581722,40 176,40 Z" id="Oval"></path>
            <path d="M24,160 C1.90861001,160 -16,177.90861 -16,200 C-16,222.09139 1.90861001,240 24,240 C46.09139,240 64,222.09139 64,200 C64,177.90861 46.09139,160 24,160 Z M24,192 C28.418278,192 32,195.581722 32,200 C32,204.418278 28.418278,208 24,208 C19.581722,208 16,204.418278 16,200 C16,195.581722 19.581722,192 24,192 Z" id="Oval"></path>
        </g>
    </g>
</svg>