<?xml version="1.0" encoding="UTF-8"?>
<svg width="512px" height="512px" viewBox="0 0 512 512" version="1.1" xmlns="http://www.w3.org/2000/svg" xmlns:xlink="http://www.w3.org/1999/xlink">
    <!-- Generator: Sketch 62 (91390) - https://sketch.com -->
    <title>Artboard</title>
    <desc>Created with Sketch.</desc>
    <g id="Artboard" stroke="none" stroke-width="1" fill="none" fill-rule="evenodd">
        <g id="aperture-outline" transform="translate(48.000000, 48.000000)" fill="#000000" fill-rule="nonzero">
            <path d="M208,0 C249.385293,0 287.963459,12.1122327 320.380017,32.9822162 C320.607611,33.1233817 320.831227,33.2697783 321.050897,33.4215391 C378.182108,70.5090341 416,134.872186 416,208 C416,249.385293 403.887767,287.963459 383.017784,320.380017 C382.876618,320.607611 382.730222,320.831227 382.578461,321.050897 C345.490966,378.182108 281.127814,416 208,416 C93.2,416 0,322.8 0,208 C0,166.614707 12.1122327,128.036541 32.9822162,95.6199834 C33.1233817,95.3923888 33.2697783,95.1687729 33.4215391,94.9491026 C70.5090341,37.8178919 134.872186,0 208,0 Z M120,286.6 L120.000648,360.453702 C145.887965,375.429008 175.943309,384 208,384 C211.073549,384 214.128699,383.92121 217.163543,383.765538 L120,286.6 Z M336.744293,328.00313 L206.7,328 L256.056925,377.358484 C287.378625,368.487685 315.148517,351.161798 336.744293,328.00313 Z M88,206.7 L38.6418003,256.057927 C47.5128119,287.379667 64.8389462,315.149544 87.9978664,336.745222 L88,206.7 Z M240.3,120 L174.7,120 L120,174.7 L120,241.3 L174.7,296 L241.303,296 L296,241.34 L296,174.599 L241.34268,119.942594 C240.998109,119.972693 240.650434,119.991944 240.3,120 Z M383.769681,198.917583 L286.618,296 L360.453126,296.000347 C374.974713,270.897738 383.474338,241.875902 383.97642,210.91042 L384,208 C384,204.953837 383.922607,201.925744 383.769681,198.917583 Z M129.4,120 L55.5462982,120.000648 C40.5709919,145.887965 32,175.943309 32,208 C32,211.073549 32.0787905,214.128699 32.2344618,217.163543 L92.72963,156.670446 L92.72963,156.670446 L129.4,120 Z M328.00313,79.2557072 L328.001147,166.740334 C328.066284,167.578676 328.066284,168.421324 328.001147,169.259666 L328,209.362 L377.379752,160.018237 C368.515396,128.665801 351.180321,100.868756 328.00313,79.2557072 Z M208,32 C204.958908,32 201.935827,32.0771352 198.932607,32.2295559 L296,129.3 L296.000347,55.546874 C270.897738,41.025287 241.875902,32.5256616 210.91042,32.0235796 Z M209.401,88 L160.021244,38.6193974 C128.667129,47.4836223 100.86865,64.8194354 79.2547776,87.9978664 L209.401,88 Z" id="Combined-Shape"></path>
        </g>
    </g>
</svg>