<?xml version="1.0" encoding="UTF-8" standalone="no"?>
<svg
   xmlns:dc="http://purl.org/dc/elements/1.1/"
   xmlns:cc="http://creativecommons.org/ns#"
   xmlns:rdf="http://www.w3.org/1999/02/22-rdf-syntax-ns#"
   xmlns:svg="http://www.w3.org/2000/svg"
   xmlns="http://www.w3.org/2000/svg"
   xmlns:sodipodi="http://sodipodi.sourceforge.net/DTD/sodipodi-0.dtd"
   xmlns:inkscape="http://www.inkscape.org/namespaces/inkscape"
   class="ionicon"
   viewBox="0 0 512 512"
   version="1.1"
   id="svg6"
   sodipodi:docname="aperture.svg"
   inkscape:version="1.0.2 (e86c8708, 2021-01-15)">
  <metadata
     id="metadata12">
    <rdf:RDF>
      <cc:Work
         rdf:about="">
        <dc:format>image/svg+xml</dc:format>
        <dc:type
           rdf:resource="http://purl.org/dc/dcmitype/StillImage" />
      </cc:Work>
    </rdf:RDF>
  </metadata>
  <defs
     id="defs10" />
  <sodipodi:namedview
     pagecolor="#ffffff"
     bordercolor="#666666"
     borderopacity="1"
     objecttolerance="10"
     gridtolerance="10"
     guidetolerance="10"
     inkscape:pageopacity="0"
     inkscape:pageshadow="2"
     inkscape:window-width="689"
     inkscape:window-height="480"
     id="namedview8"
     showgrid="false"
     inkscape:zoom="1.3027344"
     inkscape:cx="256"
     inkscape:cy="256"
     inkscape:window-x="44"
     inkscape:window-y="25"
     inkscape:window-maximized="0"
     inkscape:current-layer="svg6" />
  <title
     id="title2">Aperture</title>
  <path
     style="color:#000000;font-style:normal;font-variant:normal;font-weight:normal;font-stretch:normal;font-size:medium;line-height:normal;font-family:sans-serif;font-variant-ligatures:normal;font-variant-position:normal;font-variant-caps:normal;font-variant-numeric:normal;font-variant-alternates:normal;font-variant-east-asian:normal;font-feature-settings:normal;font-variation-settings:normal;text-indent:0;text-align:start;text-decoration:none;text-decoration-line:none;text-decoration-style:solid;text-decoration-color:#000000;letter-spacing:normal;word-spacing:normal;text-transform:none;writing-mode:lr-tb;direction:ltr;text-orientation:mixed;dominant-baseline:auto;baseline-shift:baseline;text-anchor:start;white-space:normal;shape-padding:0;shape-margin:0;inline-size:0;clip-rule:nonzero;display:inline;overflow:visible;visibility:visible;isolation:auto;mix-blend-mode:normal;color-interpolation:sRGB;color-interpolation-filters:linearRGB;solid-color:#000000;solid-opacity:1;vector-effect:none;fill:#000000;fill-opacity:1;fill-rule:nonzero;stroke-width:1;stroke-linecap:butt;stroke-linejoin:miter;stroke-miterlimit:4;stroke-dasharray:none;stroke-dashoffset:0;stroke-opacity:1;color-rendering:auto;image-rendering:auto;shape-rendering:auto;text-rendering:auto;enable-background:accumulate;stop-color:#000000;stop-opacity:1;stroke:none;opacity:1"
     d="m 250.54,129.17 -67.8,-67.8 C 143.91614,76.14493 110.35661,102.12033 86.32,136 h 161.4 c 3.56139,-0.006 5.33969,-4.31312 2.82,-6.83 z M 167.72,168 H 67.63 C 49.217367,207.24639 43.569284,251.27695 51.48,293.9 L 170.54,174.83 c 2.51969,-2.51688 0.74139,-6.8239 -2.82,-6.83 z M 344,167.72 V 67.56 C 304.73989,49.204459 260.72346,43.582216 218.11,51.48 l 119.06,119.06 c 2.51688,2.51969 6.8239,0.74139 6.83,-2.82 z M 460.52,218.1 341.46,337.17 c -2.51969,2.51688 -0.74139,6.8239 2.82,6.83 h 100.09 c 18.41263,-39.24639 24.06072,-83.27695 16.15,-125.9 z m -77.69,32.44 67.83,-67.82 C 435.92452,143.83855 409.93056,110.2337 376,86.2 v 161.52 c 0.006,3.56139 4.31312,5.33969 6.83,2.82 z m -161.15,91.23 c 1.48959,1.43057 3.47471,2.22964 5.54,2.23 h 59.66 c 2.14346,-8.9e-4 4.1969,-0.8619 5.7,-2.39 l 49.18,-50 c 1.47548,-1.49825 2.30174,-3.51719 2.3,-5.62 L 344,225.18 c -9.3e-4,-2.13854 -0.85804,-4.18768 -2.38,-5.69 l -50,-49.25 c -1.50072,-1.47792 -3.52373,-2.30437 -5.63,-2.3 L 225.15,168 c -2.13854,9.3e-4 -4.18768,0.85804 -5.69,2.38 l -49.25,50 c -1.47792,1.50072 -2.30437,3.52373 -2.3,5.63 l 0.06,60.78 c 4.7e-4,2.17306 0.88493,4.25244 2.45,5.76 z m 39.78,41.06 67.8,67.8 c 38.82386,-14.77493 72.38339,-40.75033 96.42,-74.63 h -161.4 c -3.56139,0.006 -5.33969,4.31312 -2.82,6.83 z M 168,344.28 v 100.16 c 39.26011,18.35554 83.27654,23.97778 125.89,16.08 L 174.83,341.46 c -2.51688,-2.51969 -6.8239,-0.74139 -6.83,2.82 z m -38.83,-82.82 -67.83,67.83 c 14.738266,38.87719 40.73186,72.47807 74.66,96.51 V 264.28 c -0.006,-3.56139 -4.31312,-5.33969 -6.83,-2.82 z"
     id="path4" />
</svg>
