<?xml version="1.0" encoding="UTF-8" standalone="no"?>
<svg
   xmlns:dc="http://purl.org/dc/elements/1.1/"
   xmlns:cc="http://creativecommons.org/ns#"
   xmlns:rdf="http://www.w3.org/1999/02/22-rdf-syntax-ns#"
   xmlns:svg="http://www.w3.org/2000/svg"
   xmlns="http://www.w3.org/2000/svg"
   xmlns:sodipodi="http://sodipodi.sourceforge.net/DTD/sodipodi-0.dtd"
   xmlns:inkscape="http://www.inkscape.org/namespaces/inkscape"
   class="ionicon"
   viewBox="0 0 512 512"
   version="1.1"
   id="svg6"
   sodipodi:docname="apps.svg"
   inkscape:version="1.0.2 (e86c8708, 2021-01-15)">
  <metadata
     id="metadata12">
    <rdf:RDF>
      <cc:Work
         rdf:about="">
        <dc:format>image/svg+xml</dc:format>
        <dc:type
           rdf:resource="http://purl.org/dc/dcmitype/StillImage" />
      </cc:Work>
    </rdf:RDF>
  </metadata>
  <defs
     id="defs10" />
  <sodipodi:namedview
     pagecolor="#ffffff"
     bordercolor="#666666"
     borderopacity="1"
     objecttolerance="10"
     gridtolerance="10"
     guidetolerance="10"
     inkscape:pageopacity="0"
     inkscape:pageshadow="2"
     inkscape:window-width="689"
     inkscape:window-height="480"
     id="namedview8"
     showgrid="false"
     inkscape:zoom="1.3027344"
     inkscape:cx="256"
     inkscape:cy="256"
     inkscape:window-x="44"
     inkscape:window-y="25"
     inkscape:window-maximized="0"
     inkscape:current-layer="svg6" />
  <title
     id="title2">Apps</title>
  <path
     style="color:#000000;font-style:normal;font-variant:normal;font-weight:normal;font-stretch:normal;font-size:medium;line-height:normal;font-family:sans-serif;font-variant-ligatures:normal;font-variant-position:normal;font-variant-caps:normal;font-variant-numeric:normal;font-variant-alternates:normal;font-variant-east-asian:normal;font-feature-settings:normal;font-variation-settings:normal;text-indent:0;text-align:start;text-decoration:none;text-decoration-line:none;text-decoration-style:solid;text-decoration-color:#000000;letter-spacing:normal;word-spacing:normal;text-transform:none;writing-mode:lr-tb;direction:ltr;text-orientation:mixed;dominant-baseline:auto;baseline-shift:baseline;text-anchor:start;white-space:normal;shape-padding:0;shape-margin:0;inline-size:0;clip-rule:nonzero;display:inline;overflow:visible;visibility:visible;isolation:auto;mix-blend-mode:normal;color-interpolation:sRGB;color-interpolation-filters:linearRGB;solid-color:#000000;solid-opacity:1;vector-effect:none;fill:#000000;fill-opacity:1;fill-rule:nonzero;stroke-width:1;stroke-linecap:butt;stroke-linejoin:miter;stroke-miterlimit:4;stroke-dasharray:none;stroke-dashoffset:0;stroke-opacity:1;color-rendering:auto;image-rendering:auto;shape-rendering:auto;text-rendering:auto;enable-background:accumulate;stop-color:#000000;stop-opacity:1;stroke:none;opacity:1"
     d="M 104,160 C 81.350139,160 60.93037,146.35596 52.263134,125.43059 43.595916,104.50527 48.38823,80.419833 64.404032,64.404032 80.419833,48.38823 104.50527,43.595916 125.43059,52.263134 146.35596,60.93037 160,81.350139 160,104 c -0.0331,30.91424 -25.08576,55.96693 -56,56 z m 152,0 c -22.64986,0 -43.06963,-13.64404 -51.73687,-34.56941 -8.66721,-20.92532 -3.8749,-45.010757 12.1409,-61.026558 C 232.41983,48.38823 256.50527,43.595916 277.43059,52.263134 298.35596,60.93037 312,81.350139 312,104 c -0.0331,30.91424 -25.08576,55.96693 -56,56 z m 152,0 c -22.64986,0 -43.06963,-13.64404 -51.73687,-34.56941 -8.66721,-20.92532 -3.8749,-45.010757 12.1409,-61.026558 C 384.41983,48.38823 408.50527,43.595916 429.43059,52.263134 450.35596,60.93037 464,81.350139 464,104 c -0.0331,30.91424 -25.08576,55.96693 -56,56 z M 104,312 C 81.350139,312 60.93037,298.35596 52.263134,277.43059 43.595916,256.50527 48.38823,232.41983 64.404032,216.40403 80.419833,200.38823 104.50527,195.59592 125.43059,204.26313 146.35596,212.93037 160,233.35014 160,256 c -0.0331,30.91424 -25.08576,55.96693 -56,56 z m 152,0 c -22.64986,0 -43.06963,-13.64404 -51.73687,-34.56941 -8.66721,-20.92532 -3.8749,-45.01076 12.1409,-61.02656 16.0158,-16.0158 40.10124,-20.80811 61.02656,-12.1409 C 298.35596,212.93037 312,233.35014 312,256 c -0.0331,30.91424 -25.08576,55.96693 -56,56 z m 152,0 c -22.64986,0 -43.06963,-13.64404 -51.73687,-34.56941 -8.66721,-20.92532 -3.8749,-45.01076 12.1409,-61.02656 16.0158,-16.0158 40.10124,-20.80811 61.02656,-12.1409 C 450.35596,212.93037 464,233.35014 464,256 c -0.0331,30.91424 -25.08576,55.96693 -56,56 z M 104,464 C 81.350139,464 60.93037,450.35596 52.263134,429.43059 43.595916,408.50527 48.38823,384.41983 64.404032,368.40403 80.419833,352.38823 104.50527,347.59592 125.43059,356.26313 146.35596,364.93037 160,385.35014 160,408 c -0.0331,30.91424 -25.08576,55.96693 -56,56 z m 152,0 c -22.64986,0 -43.06963,-13.64404 -51.73687,-34.56941 -8.66721,-20.92532 -3.8749,-45.01076 12.1409,-61.02656 16.0158,-16.0158 40.10124,-20.80811 61.02656,-12.1409 C 298.35596,364.93037 312,385.35014 312,408 c -0.0331,30.91424 -25.08576,55.96693 -56,56 z m 152,0 c -22.64986,0 -43.06963,-13.64404 -51.73687,-34.56941 -8.66721,-20.92532 -3.8749,-45.01076 12.1409,-61.02656 16.0158,-16.0158 40.10124,-20.80811 61.02656,-12.1409 C 450.35596,364.93037 464,385.35014 464,408 c -0.0331,30.91424 -25.08576,55.96693 -56,56 z"
     id="path4" />
</svg>
