<?xml version="1.0" encoding="UTF-8"?>
<svg width="512px" height="512px" viewBox="0 0 512 512" version="1.1" xmlns="http://www.w3.org/2000/svg" xmlns:xlink="http://www.w3.org/1999/xlink">
    <!-- Generator: Sketch 62 (91390) - https://sketch.com -->
    <title>Artboard</title>
    <desc>Created with Sketch.</desc>
    <g id="Artboard" stroke="none" stroke-width="1" fill="none" fill-rule="evenodd">
        <g id="apps-outline" transform="translate(64.000000, 64.000000)" fill="#000000" fill-rule="nonzero">
            <path d="M40,-16 C9.07205401,-16 -16,9.07205401 -16,40 C-16,70.927946 9.07205401,96 40,96 C70.927946,96 96,70.927946 96,40 C96,9.07205401 70.927946,-16 40,-16 Z M40,16 C53.254834,16 64,26.745166 64,40 C64,53.254834 53.254834,64 40,64 C26.745166,64 16,53.254834 16,40 C16,26.745166 26.745166,16 40,16 Z" id="Rectangle"></path>
            <path d="M192,-16 C161.072054,-16 136,9.07205401 136,40 C136,70.927946 161.072054,96 192,96 C222.927946,96 248,70.927946 248,40 C248,9.07205401 222.927946,-16 192,-16 Z M192,16 C205.254834,16 216,26.745166 216,40 C216,53.254834 205.254834,64 192,64 C178.745166,64 168,53.254834 168,40 C168,26.745166 178.745166,16 192,16 Z" id="Rectangle"></path>
            <path d="M344,-16 C313.072054,-16 288,9.07205401 288,40 C288,70.927946 313.072054,96 344,96 C374.927946,96 400,70.927946 400,40 C400,9.07205401 374.927946,-16 344,-16 Z M344,16 C357.254834,16 368,26.745166 368,40 C368,53.254834 357.254834,64 344,64 C330.745166,64 320,53.254834 320,40 C320,26.745166 330.745166,16 344,16 Z" id="Rectangle"></path>
            <path d="M40,136 C9.07205401,136 -16,161.072054 -16,192 C-16,222.927946 9.07205401,248 40,248 C70.927946,248 96,222.927946 96,192 C96,161.072054 70.927946,136 40,136 Z M40,168 C53.254834,168 64,178.745166 64,192 C64,205.254834 53.254834,216 40,216 C26.745166,216 16,205.254834 16,192 C16,178.745166 26.745166,168 40,168 Z" id="Rectangle"></path>
            <path d="M192,136 C161.072054,136 136,161.072054 136,192 C136,222.927946 161.072054,248 192,248 C222.927946,248 248,222.927946 248,192 C248,161.072054 222.927946,136 192,136 Z M192,168 C205.254834,168 216,178.745166 216,192 C216,205.254834 205.254834,216 192,216 C178.745166,216 168,205.254834 168,192 C168,178.745166 178.745166,168 192,168 Z" id="Rectangle"></path>
            <path d="M344,136 C313.072054,136 288,161.072054 288,192 C288,222.927946 313.072054,248 344,248 C374.927946,248 400,222.927946 400,192 C400,161.072054 374.927946,136 344,136 Z M344,168 C357.254834,168 368,178.745166 368,192 C368,205.254834 357.254834,216 344,216 C330.745166,216 320,205.254834 320,192 C320,178.745166 330.745166,168 344,168 Z" id="Rectangle"></path>
            <path d="M40,288 C9.07205401,288 -16,313.072054 -16,344 C-16,374.927946 9.07205401,400 40,400 C70.927946,400 96,374.927946 96,344 C96,313.072054 70.927946,288 40,288 Z M40,320 C53.254834,320 64,330.745166 64,344 C64,357.254834 53.254834,368 40,368 C26.745166,368 16,357.254834 16,344 C16,330.745166 26.745166,320 40,320 Z" id="Rectangle"></path>
            <path d="M192,288 C161.072054,288 136,313.072054 136,344 C136,374.927946 161.072054,400 192,400 C222.927946,400 248,374.927946 248,344 C248,313.072054 222.927946,288 192,288 Z M192,320 C205.254834,320 216,330.745166 216,344 C216,357.254834 205.254834,368 192,368 C178.745166,368 168,357.254834 168,344 C168,330.745166 178.745166,320 192,320 Z" id="Rectangle"></path>
            <path d="M344,288 C313.072054,288 288,313.072054 288,344 C288,374.927946 313.072054,400 344,400 C374.927946,400 400,374.927946 400,344 C400,313.072054 374.927946,288 344,288 Z M344,320 C357.254834,320 368,330.745166 368,344 C368,357.254834 357.254834,368 344,368 C330.745166,368 320,357.254834 320,344 C320,330.745166 330.745166,320 344,320 Z" id="Rectangle"></path>
        </g>
    </g>
</svg>