<?xml version="1.0" encoding="UTF-8"?>
<svg width="512px" height="512px" viewBox="0 0 512 512" version="1.1" xmlns="http://www.w3.org/2000/svg" xmlns:xlink="http://www.w3.org/1999/xlink">
    <!-- Generator: Sketch 62 (91390) - https://sketch.com -->
    <title>Artboard</title>
    <desc>Created with Sketch.</desc>
    <g id="Artboard" stroke="none" stroke-width="1" fill="none" fill-rule="evenodd">
        <g id="archive-outline" transform="translate(48.000000, 64.000000)" fill="#000000" fill-rule="nonzero">
            <path d="M384,72 C392.731359,72 399.829205,78.993901 400,87.6851293 L400,88 L400,344.047785 C399.908675,374.602407 375.408483,399.407232 344.925538,399.98978 L344,400 L71.9522149,400 C41.3975929,399.908675 16.5927679,375.408483 16.0102197,344.925538 L16,344 L16,88 C16,79.163444 23.163444,72 32,72 C40.7313589,72 47.8292047,78.993901 47.9969636,87.6851293 L48,88 L47.9999286,343.952215 C48.0391489,357.084387 58.569167,367.745334 71.6042393,367.995611 L72,368 L343.952215,368.000071 C357.084387,367.960851 367.745334,357.430833 367.995611,344.395761 L368,344 L368,88 C368,79.163444 375.163444,72 384,72 Z" id="Path"></path>
            <path d="M388,-16 L28,-16 C3.69947101,-16 -16,3.69947101 -16,28 L-16,52 C-16,76.300529 3.69947101,96 28,96 L388,96 C412.300529,96 432,76.300529 432,52 L432,28 C432,3.69947101 412.300529,-16 388,-16 Z M28,16 L388,16 C394.627417,16 400,21.372583 400,28 L400,52 C400,58.627417 394.627417,64 388,64 L28,64 C21.372583,64 16,58.627417 16,52 L16,28 C16,21.372583 21.372583,16 28,16 Z" id="Rectangle"></path>
            <path d="M260.686292,228.686292 C266.93468,222.437903 277.06532,222.437903 283.313708,228.686292 C289.475314,234.847897 289.560892,244.784662 283.570442,251.051133 L283.313708,251.313708 L219.313708,315.313708 C213.152103,321.475314 203.215338,321.560892 196.948867,315.570442 L196.686292,315.313708 L132.686292,251.313708 C126.437903,245.06532 126.437903,234.93468 132.686292,228.686292 C138.847897,222.524686 148.784662,222.439108 155.051133,228.429558 L155.313708,228.686292 L208,281.373 L260.686292,228.686292 Z" id="Path"></path>
            <path d="M208,144 C216.731359,144 223.829205,150.993901 223.996964,159.685129 L224,160 L224,281.89 C224,290.726556 216.836556,297.89 208,297.89 C199.268641,297.89 192.170795,290.896099 192.003036,282.204871 L192,281.89 L192,160 C192,151.163444 199.163444,144 208,144 Z" id="Path"></path>
        </g>
    </g>
</svg>