<?xml version="1.0" encoding="UTF-8"?>
<svg width="512px" height="512px" viewBox="0 0 512 512" version="1.1" xmlns="http://www.w3.org/2000/svg" xmlns:xlink="http://www.w3.org/1999/xlink">
    <!-- Generator: Sketch 62 (91390) - https://sketch.com -->
    <title>Artboard</title>
    <desc>Created with Sketch.</desc>
    <g id="Artboard" stroke="none" stroke-width="1" fill="none" fill-rule="evenodd">
        <g id="arrow-back-circle-outline" transform="translate(64.000000, 64.000000)" fill="#000000" fill-rule="nonzero">
            <path d="M174.022366,100.730388 C180.246401,94.45774 190.376964,94.4183314 196.649612,100.642366 C202.83514,106.779956 202.959372,116.716313 196.993344,123.00604 L196.737634,123.269612 L128.539,191.999999 L196.737634,260.730388 C202.875224,266.915916 202.922146,276.852939 196.907365,283.096059 L196.649612,283.357634 C190.464084,289.495224 180.527061,289.542146 174.283941,283.527365 L174.022366,283.269612 L94.6423663,203.269612 C88.5397252,197.119306 88.4537725,187.251258 94.3845082,180.996227 L94.6423663,180.730388 L174.022366,100.730388 Z" id="Path"></path>
            <path d="M278,176 C286.836556,176 294,183.163444 294,192 C294,200.731359 287.006099,207.829205 278.314871,207.996964 L278,208 L117.03,208 C108.193444,208 101.03,200.836556 101.03,192 C101.03,183.268641 108.023901,176.170795 116.715129,176.003036 L117.03,176 L278,176 Z" id="Path"></path>
            <path d="M192,-16 C77.163444,-16 -16,77.163444 -16,192 C-16,306.836556 77.163444,400 192,400 C306.836556,400 400,306.836556 400,192 C400,77.163444 306.836556,-16 192,-16 Z M192,16 C289.163444,16 368,94.836556 368,192 C368,289.163444 289.163444,368 192,368 C94.836556,368 16,289.163444 16,192 C16,94.836556 94.836556,16 192,16 Z" id="Path"></path>
        </g>
    </g>
</svg>