<?xml version="1.0" encoding="UTF-8"?>
<svg width="512px" height="512px" viewBox="0 0 512 512" version="1.1" xmlns="http://www.w3.org/2000/svg" xmlns:xlink="http://www.w3.org/1999/xlink">
    <!-- Generator: Sketch 62 (91390) - https://sketch.com -->
    <title>Artboard</title>
    <desc>Created with Sketch.</desc>
    <g id="Artboard" stroke="none" stroke-width="1" fill="none" fill-rule="evenodd">
        <g id="arrow-up-circle-outline" transform="translate(64.000000, 64.000000)" fill="#000000" fill-rule="nonzero">
            <path d="M180.730388,94.6423663 C186.880694,88.5397252 196.748742,88.4537725 203.003773,94.3845082 L203.269612,94.6423663 L283.269612,174.022366 C289.54226,180.246401 289.581669,190.376964 283.357634,196.649612 C277.220044,202.83514 267.283687,202.959372 260.99396,196.993344 L260.730388,196.737634 L191.999999,128.539 L123.269612,196.737634 C117.084084,202.875224 107.147061,202.922146 100.903941,196.907365 L100.642366,196.649612 C94.5047763,190.464084 94.4578536,180.527061 100.472635,174.283941 L100.730388,174.022366 L180.730388,94.6423663 Z" id="Path"></path>
            <path d="M192,101.03 C200.731359,101.03 207.829205,108.023901 207.996964,116.715129 L208,117.03 L208,278 C208,286.836556 200.836556,294 192,294 C183.268641,294 176.170795,287.006099 176.003036,278.314871 L176,278 L176,117.03 C176,108.193444 183.163444,101.03 192,101.03 Z" id="Path"></path>
            <path d="M192,-16 C77.163444,-16 -16,77.163444 -16,192 C-16,306.836556 77.163444,400 192,400 C306.836556,400 400,306.836556 400,192 C400,77.163444 306.836556,-16 192,-16 Z M192,16 C289.163444,16 368,94.836556 368,192 C368,289.163444 289.163444,368 192,368 C94.836556,368 16,289.163444 16,192 C16,94.836556 94.836556,16 192,16 Z" id="Path"></path>
        </g>
    </g>
</svg>