<?xml version="1.0" encoding="UTF-8"?>
<svg width="512px" height="512px" viewBox="0 0 512 512" version="1.1" xmlns="http://www.w3.org/2000/svg" xmlns:xlink="http://www.w3.org/1999/xlink">
    <!-- Generator: Sketch 62 (91390) - https://sketch.com -->
    <title>Artboard</title>
    <desc>Created with Sketch.</desc>
    <g id="Artboard" stroke="none" stroke-width="1" fill="none" fill-rule="evenodd">
        <g id="arrow-undo-outline" transform="translate(64.000000, 88.000000)" fill="#000000" fill-rule="nonzero">
            <path d="M164.952388,-11.5736887 L-11.0476119,156.426311 C-17.650796,162.729351 -17.650796,173.270649 -11.0476119,179.573689 L164.952388,347.573689 L165.259824,347.860188 C175.469822,357.147661 192,349.935038 192,336 L192,256.23 L193.303706,256.27077 C238.448503,257.733287 271.503579,265.136587 298.073272,278.872924 C324.09214,292.32449 344.732906,311.716635 371.390136,345.848417 C380.757397,357.842212 400,351.218301 400,336 C400,265.352175 386.705728,206.465938 356.353758,162.235699 L355.245651,160.638408 C321.051854,111.882714 267.365877,84.1055157 193.268448,80.4211807 L192,80.362 L192,-3.55271368e-15 C192,-14.0757957 175.134193,-21.2926843 164.952388,-11.5736887 Z M23.172,168 L160,37.391 L160,96 C160,104.836556 167.163444,112 176,112 C249.775572,112 299.490502,135.927555 329.968742,180.341801 L330.747381,181.487104 C349.849129,209.847569 361.208456,246.316845 365.72739,289.703895 L365.797,290.389 L365.767882,290.359414 C348.819504,273.067708 332.202517,260.493945 312.769228,250.447076 C277.85961,232.399058 234.90801,224 176,224 L175.685129,224.003036 C166.993901,224.170795 160,231.268641 160,240 L160,298.608 L23.172,168 Z" id="Path"></path>
        </g>
    </g>
</svg>