<?xml version="1.0" encoding="UTF-8"?>
<svg width="512px" height="512px" viewBox="0 0 512 512" version="1.1" xmlns="http://www.w3.org/2000/svg" xmlns:xlink="http://www.w3.org/1999/xlink">
    <!-- Generator: Sketch 62 (91390) - https://sketch.com -->
    <title>Artboard</title>
    <desc>Created with Sketch.</desc>
    <g id="Artboard" stroke="none" stroke-width="1" fill="none" fill-rule="evenodd">
        <g id="arrow-undo-circle-outline" transform="translate(64.000000, 64.000000)" fill="#000000" fill-rule="nonzero">
            <path d="M181.09,263.74 L181.09,226.42 C238.16,226.42 265.6,239.89 289.67,265.1 C295.07,270.75 304.67,266.42 303.96,258.67 C298.51,197.22 269.82,141.58 181.09,141.58 L181.09,104.26 C181.077105,100.939632 179.091216,97.9448369 176.03761,96.6408058 C172.984003,95.3367748 169.447409,95.9721136 167.04,98.26 L82.58,178 C80.9343498,179.549532 80.0013077,181.709643 80.0013077,183.97 C80.0013077,186.230357 80.9343498,188.390468 82.58,189.94 L167,269.71 C169.400469,272.020741 172.948009,272.67652 176.015919,271.376632 C179.083828,270.076744 181.080353,267.071919 181.09,263.74 Z" id="Path"></path>
            <path d="M192,-16 C77.163444,-16 -16,77.163444 -16,192 C-16,306.836556 77.163444,400 192,400 C306.836556,400 400,306.836556 400,192 C400,77.163444 306.836556,-16 192,-16 Z M192,16 C289.163444,16 368,94.836556 368,192 C368,289.163444 289.163444,368 192,368 C94.836556,368 16,289.163444 16,192 C16,94.836556 94.836556,16 192,16 Z" id="Path"></path>
        </g>
    </g>
</svg>