<?xml version="1.0" encoding="utf-8"?>
<!-- Generator: Adobe Illustrator 24.0.0, SVG Export Plug-In . SVG Version: 6.00 Build 0)  -->
<svg version="1.1" id="Layer_1" xmlns="http://www.w3.org/2000/svg" xmlns:xlink="http://www.w3.org/1999/xlink" x="0px" y="0px"
	 viewBox="0 0 512 512" style="enable-background:new 0 0 512 512;" xml:space="preserve">
<title>ionicons-v5-a</title>
<g>
	<path d="M256,436c-6.1,0-12.3-2.3-17-7L95,285c-9.4-9.4-9.4-24.6,0-33.9c9.4-9.4,24.6-9.4,33.9,0l127,127l127-127
		c9.4-9.4,24.6-9.4,33.9,0c9.4,9.4,9.4,24.6,0,33.9L273,429C268.3,433.7,262.1,436,256,436z"/>
</g>
<g>
	<path d="M256,416c-13.3,0-24-10.7-24-24V100c0-13.3,10.7-24,24-24s24,10.7,24,24v292C280,405.3,269.3,416,256,416z"/>
</g>
</svg>
