<?xml version="1.0" encoding="UTF-8"?>
<svg width="512px" height="512px" viewBox="0 0 512 512" version="1.1" xmlns="http://www.w3.org/2000/svg" xmlns:xlink="http://www.w3.org/1999/xlink">
    <!-- Generator: Sketch 62 (91390) - https://sketch.com -->
    <title>Artboard</title>
    <desc>Created with Sketch.</desc>
    <g id="Artboard" stroke="none" stroke-width="1" fill="none" fill-rule="evenodd">
        <g id="arrow-redo-outline" transform="translate(64.000000, 88.000000)" fill="#000000" fill-rule="nonzero">
            <path d="M192,80.362 L190.731552,80.4211807 C115.828717,84.1455628 61.7834713,112.489412 27.646242,162.235699 C-2.70572824,206.465938 -16,265.352175 -16,336 C-16,351.218301 3.24260276,357.842212 12.6098642,345.848417 C39.2670937,311.716635 59.9078597,292.32449 85.9267282,278.872924 L86.8248001,278.4123 C113.240758,264.97097 146.058742,257.716854 190.696294,256.27077 L192,256.23 L192,336 C192,350.075796 208.865807,357.292684 219.047612,347.573689 L395.047612,179.573689 C401.650796,173.270649 401.650796,162.729351 395.047612,156.426311 L219.047612,-11.5736887 C208.865807,-21.2926843 192,-14.0757957 192,0 L192,80.362 Z M224,37.392 L360.827,168 L224,298.607 L224,240 C224,231.163444 216.836556,224 208,224 C149.09199,224 106.14039,232.399058 71.2307718,250.447076 L70.3074932,250.927417 C51.6098333,260.71632 35.4965573,272.898404 19.1253652,289.452136 L18.202,290.389 L18.27261,289.703895 C22.8526111,245.730533 34.4591294,208.863176 54.031258,180.341801 C84.5094984,135.927555 134.224428,112 208,112 C216.836556,112 224,104.836556 224,96 L224,37.392 Z" id="Path"></path>
        </g>
    </g>
</svg>