<?xml version="1.0" encoding="UTF-8"?>
<svg width="512px" height="512px" viewBox="0 0 512 512" version="1.1" xmlns="http://www.w3.org/2000/svg" xmlns:xlink="http://www.w3.org/1999/xlink">
    <!-- Generator: Sketch 62 (91390) - https://sketch.com -->
    <title>Artboard</title>
    <desc>Created with Sketch.</desc>
    <g id="Artboard" stroke="none" stroke-width="1" fill="none" fill-rule="evenodd">
        <g id="arrow-back-outline" transform="translate(100.000000, 112.000000)" fill="#000000" fill-rule="nonzero">
            <path d="M127.029437,-16.9705627 C136.40202,-26.3431458 151.59798,-26.3431458 160.970563,-16.9705627 C170.246521,-7.69460431 170.34215,7.28527991 161.257448,16.6788451 L160.970563,16.9705627 L33.941,144 L160.970563,271.029437 C170.246521,280.305396 170.34215,295.28528 161.257448,304.678845 L160.970563,304.970563 C151.694604,314.246521 136.71472,314.34215 127.321155,305.257448 L127.029437,304.970563 L-16.9705627,160.970563 C-26.2465212,151.694604 -26.3421496,136.71472 -17.2574481,127.321155 L-16.9705627,127.029437 L127.029437,-16.9705627 Z" id="Path"></path>
            <path d="M312,120 C325.254834,120 336,130.745166 336,144 C336,157.122286 325.468663,167.784846 312.396884,167.996785 L312,168 L20,168 C6.745166,168 -4,157.254834 -4,144 C-4,130.877714 6.5313372,120.215154 19.6031161,120.003215 L20,120 L312,120 Z" id="Path"></path>
        </g>
    </g>
</svg>