<?xml version="1.0" encoding="utf-8"?>
<!-- Generator: Adobe Illustrator 24.0.0, SVG Export Plug-In . SVG Version: 6.00 Build 0)  -->
<svg version="1.1" id="Layer_1" xmlns="http://www.w3.org/2000/svg" xmlns:xlink="http://www.w3.org/1999/xlink" x="0px" y="0px"
	 viewBox="0 0 512 512" style="enable-background:new 0 0 512 512;" xml:space="preserve">
<title>ionicons-v5-a</title>
<g>
	<path d="M244,424c-6.1,0-12.3-2.3-17-7L83,273c-9.4-9.4-9.4-24.6,0-33.9L227,95c9.4-9.4,24.6-9.4,33.9,0c9.4,9.4,9.4,24.6,0,33.9
		l-127,127l127,127c9.4,9.4,9.4,24.6,0,33.9C256.3,421.7,250.1,424,244,424z"/>
</g>
<g>
	<path d="M412,280H120c-13.3,0-24-10.7-24-24s10.7-24,24-24h292c13.3,0,24,10.7,24,24S425.3,280,412,280z"/>
</g>
</svg>
