<?xml version="1.0" encoding="UTF-8"?>
<svg width="512px" height="512px" viewBox="0 0 512 512" version="1.1" xmlns="http://www.w3.org/2000/svg" xmlns:xlink="http://www.w3.org/1999/xlink">
    <!-- Generator: Sketch 62 (91390) - https://sketch.com -->
    <title>Artboard</title>
    <desc>Created with Sketch.</desc>
    <g id="Artboard" stroke="none" stroke-width="1" fill="none" fill-rule="evenodd">
        <g id="arrow-forward-outline" transform="translate(100.000000, 112.000000)" fill="#000000" fill-rule="nonzero">
            <path d="M151.029437,-16.9705627 C160.305396,-26.2465212 175.28528,-26.3421496 184.678845,-17.2574481 L184.970563,-16.9705627 L328.970563,127.029437 C338.246521,136.305396 338.34215,151.28528 329.257448,160.678845 L328.970563,160.970563 L184.970563,304.970563 C175.59798,314.343146 160.40202,314.343146 151.029437,304.970563 C141.753479,295.694604 141.65785,280.71472 150.742552,271.321155 L151.029437,271.029437 L278.059,144 L151.029437,16.9705627 C141.753479,7.69460431 141.65785,-7.28527991 150.742552,-16.6788451 L151.029437,-16.9705627 Z" id="Path"></path>
            <path d="M292,120 C305.254834,120 316,130.745166 316,144 C316,157.122286 305.468663,167.784846 292.396884,167.996785 L292,168 L0,168 C-13.254834,168 -24,157.254834 -24,144 C-24,130.877714 -13.4686628,120.215154 -0.396883884,120.003215 L0,120 L292,120 Z" id="Path"></path>
        </g>
    </g>
</svg>