<?xml version="1.0" encoding="UTF-8"?>
<svg width="512px" height="512px" viewBox="0 0 512 512" version="1.1" xmlns="http://www.w3.org/2000/svg" xmlns:xlink="http://www.w3.org/1999/xlink">
    <!-- Generator: Sketch 62 (91390) - https://sketch.com -->
    <title>Artboard</title>
    <desc>Created with Sketch.</desc>
    <g id="Artboard" stroke="none" stroke-width="1" fill="none" fill-rule="evenodd">
        <g id="arrow-forward-circle-outline" transform="translate(64.000000, 64.000000)" fill="#000000" fill-rule="nonzero">
            <path d="M187.350388,100.642366 C193.535916,94.5047763 203.472939,94.4578536 209.716059,100.472635 L209.977634,100.730388 L289.357634,180.730388 C295.460275,186.880694 295.546228,196.748742 289.615492,203.003773 L289.357634,203.269612 L209.977634,283.269612 C203.753599,289.54226 193.623036,289.581669 187.350388,283.357634 C181.16486,277.220044 181.040628,267.283687 187.006656,260.99396 L187.262366,260.730388 L255.46,191.999999 L187.262366,123.269612 C181.124776,117.084084 181.077854,107.147061 187.092635,100.903941 L187.350388,100.642366 Z" id="Path"></path>
            <path d="M266.97,176 C275.806556,176 282.97,183.163444 282.97,192 C282.97,200.731359 275.976099,207.829205 267.284871,207.996964 L266.97,208 L106,208 C97.163444,208 90,200.836556 90,192 C90,183.268641 96.993901,176.170795 105.685129,176.003036 L106,176 L266.97,176 Z" id="Path"></path>
            <path d="M192,-16 C77.163444,-16 -16,77.163444 -16,192 C-16,306.836556 77.163444,400 192,400 C306.836556,400 400,306.836556 400,192 C400,77.163444 306.836556,-16 192,-16 Z M192,16 C289.163444,16 368,94.836556 368,192 C368,289.163444 289.163444,368 192,368 C94.836556,368 16,289.163444 16,192 C16,94.836556 94.836556,16 192,16 Z" id="Path"></path>
        </g>
    </g>
</svg>