<?xml version="1.0" encoding="UTF-8"?>
<svg width="512px" height="512px" viewBox="0 0 512 512" version="1.1" xmlns="http://www.w3.org/2000/svg" xmlns:xlink="http://www.w3.org/1999/xlink">
    <!-- Generator: Sketch 62 (91390) - https://sketch.com -->
    <title>Artboard</title>
    <desc>Created with Sketch.</desc>
    <g id="Artboard" stroke="none" stroke-width="1" fill="none" fill-rule="evenodd">
        <g id="arrow-up-outline" transform="translate(112.000000, 100.000000)" fill="#000000" fill-rule="nonzero">
            <path d="M127.029437,-16.9705627 C136.305396,-26.2465212 151.28528,-26.3421496 160.678845,-17.2574481 L160.970563,-16.9705627 L304.970563,127.029437 C314.343146,136.40202 314.343146,151.59798 304.970563,160.970563 C295.694604,170.246521 280.71472,170.34215 271.321155,161.257448 L271.029437,160.970563 L144,33.941 L16.9705627,160.970563 C7.69460431,170.246521 -7.28527991,170.34215 -16.6788451,161.257448 L-16.9705627,160.970563 C-26.2465212,151.694604 -26.3421496,136.71472 -17.2574481,127.321155 L-16.9705627,127.029437 L127.029437,-16.9705627 Z" id="Path"></path>
            <path d="M144,-4 C157.122286,-4 167.784846,6.5313372 167.996785,19.6031161 L168,20 L168,312 C168,325.254834 157.254834,336 144,336 C130.877714,336 120.215154,325.468663 120.003215,312.396884 L120,312 L120,20 C120,6.745166 130.745166,-4 144,-4 Z" id="Path"></path>
        </g>
    </g>
</svg>