<?xml version="1.0" encoding="UTF-8"?>
<svg width="512px" height="512px" viewBox="0 0 512 512" version="1.1" xmlns="http://www.w3.org/2000/svg" xmlns:xlink="http://www.w3.org/1999/xlink">
    <!-- Generator: Sketch 62 (91390) - https://sketch.com -->
    <title>Artboard</title>
    <desc>Created with Sketch.</desc>
    <g id="Artboard" stroke="none" stroke-width="1" fill="none" fill-rule="evenodd">
        <g id="arrow-redo-circle-outline" transform="translate(64.000000, 64.000000)" fill="#000000" fill-rule="nonzero">
            <path d="M202.91,263.74 L202.91,226.42 C145.84,226.42 118.4,239.89 94.33,265.1 C88.93,270.75 79.33,266.42 80.04,258.67 C85.49,197.22 114.18,141.58 202.91,141.58 L202.91,104.26 C202.941378,100.960643 204.919491,97.9915745 207.952215,96.6918355 C210.98494,95.3920965 214.499171,96.0073036 216.91,98.26 L301.42,178 C303.06565,179.549532 303.998692,181.709643 303.998692,183.97 C303.998692,186.230357 303.06565,188.390468 301.42,189.94 L217,269.71 C214.599531,272.020741 211.051991,272.67652 207.984081,271.376632 C204.916172,270.076744 202.919647,267.071919 202.91,263.74 Z" id="Path"></path>
            <path d="M192,-16 C77.163444,-16 -16,77.163444 -16,192 C-16,306.836556 77.163444,400 192,400 C306.836556,400 400,306.836556 400,192 C400,77.163444 306.836556,-16 192,-16 Z M192,16 C289.163444,16 368,94.836556 368,192 C368,289.163444 289.163444,368 192,368 C94.836556,368 16,289.163444 16,192 C16,94.836556 94.836556,16 192,16 Z" id="Path"></path>
        </g>
    </g>
</svg>