<?xml version="1.0" encoding="UTF-8"?>
<svg width="512px" height="512px" viewBox="0 0 512 512" version="1.1" xmlns="http://www.w3.org/2000/svg" xmlns:xlink="http://www.w3.org/1999/xlink">
    <!-- Generator: Sketch 62 (91390) - https://sketch.com -->
    <title>Artboard</title>
    <desc>Created with Sketch.</desc>
    <g id="Artboard" stroke="none" stroke-width="1" fill="none" fill-rule="evenodd">
        <g id="arrow-down-circle-outline" transform="translate(64.000000, 64.000000)" fill="#000000" fill-rule="nonzero">
            <path d="M260.730388,187.262366 C267.003036,181.038331 277.133599,181.07774 283.357634,187.350388 C289.495224,193.535916 289.542146,203.472939 283.527365,209.716059 L283.269612,209.977634 L203.269612,289.357634 C197.119306,295.460275 187.251258,295.546228 180.996227,289.615492 L180.730388,289.357634 L100.730388,209.977634 C94.45774,203.753599 94.4183314,193.623036 100.642366,187.350388 C106.779956,181.16486 116.716313,181.040628 123.00604,187.006656 L123.269612,187.262366 L191.999999,255.46 L260.730388,187.262366 Z" id="Path"></path>
            <path d="M192,90 C200.731359,90 207.829205,96.993901 207.996964,105.685129 L208,106 L208,266.97 C208,275.806556 200.836556,282.97 192,282.97 C183.268641,282.97 176.170795,275.976099 176.003036,267.284871 L176,266.97 L176,106 C176,97.163444 183.163444,90 192,90 Z" id="Path"></path>
            <path d="M192,-16 C77.163444,-16 -16,77.163444 -16,192 C-16,306.836556 77.163444,400 192,400 C306.836556,400 400,306.836556 400,192 C400,77.163444 306.836556,-16 192,-16 Z M192,16 C289.163444,16 368,94.836556 368,192 C368,289.163444 289.163444,368 192,368 C94.836556,368 16,289.163444 16,192 C16,94.836556 94.836556,16 192,16 Z" id="Path"></path>
        </g>
    </g>
</svg>