<?xml version="1.0" encoding="UTF-8"?>
<svg width="512px" height="512px" viewBox="0 0 512 512" version="1.1" xmlns="http://www.w3.org/2000/svg" xmlns:xlink="http://www.w3.org/1999/xlink">
    <!-- Generator: Sketch 62 (91390) - https://sketch.com -->
    <title>Artboard</title>
    <desc>Created with Sketch.</desc>
    <g id="Artboard" stroke="none" stroke-width="1" fill="none" fill-rule="evenodd">
        <g id="arrow-down-outline" transform="translate(112.000000, 100.000000)" fill="#000000" fill-rule="nonzero">
            <path d="M-16.9705627,151.029437 C-7.69460431,141.753479 7.28527991,141.65785 16.6788451,150.742552 L16.9705627,151.029437 L144,278.059 L271.029437,151.029437 C280.305396,141.753479 295.28528,141.65785 304.678845,150.742552 L304.970563,151.029437 C314.246521,160.305396 314.34215,175.28528 305.257448,184.678845 L304.970563,184.970563 L160.970563,328.970563 C151.694604,338.246521 136.71472,338.34215 127.321155,329.257448 L127.029437,328.970563 L-16.9705627,184.970563 C-26.3431458,175.59798 -26.3431458,160.40202 -16.9705627,151.029437 Z" id="Path"></path>
            <path d="M144,-24 C157.122286,-24 167.784846,-13.4686628 167.996785,-0.396883884 L168,0 L168,292 C168,305.254834 157.254834,316 144,316 C130.877714,316 120.215154,305.468663 120.003215,292.396884 L120,292 L120,0 C120,-13.254834 130.745166,-24 144,-24 Z" id="Path"></path>
        </g>
    </g>
</svg>