<?xml version="1.0" encoding="UTF-8" standalone="no"?>
<svg
   xmlns:dc="http://purl.org/dc/elements/1.1/"
   xmlns:cc="http://creativecommons.org/ns#"
   xmlns:rdf="http://www.w3.org/1999/02/22-rdf-syntax-ns#"
   xmlns:svg="http://www.w3.org/2000/svg"
   xmlns="http://www.w3.org/2000/svg"
   xmlns:sodipodi="http://sodipodi.sourceforge.net/DTD/sodipodi-0.dtd"
   xmlns:inkscape="http://www.inkscape.org/namespaces/inkscape"
   class="ionicon"
   viewBox="0 0 512 512"
   version="1.1"
   id="svg8"
   sodipodi:docname="at-circle-outline.svg"
   inkscape:version="1.0.2 (e86c8708, 2021-01-15)">
  <metadata
     id="metadata14">
    <rdf:RDF>
      <cc:Work
         rdf:about="">
        <dc:format>image/svg+xml</dc:format>
        <dc:type
           rdf:resource="http://purl.org/dc/dcmitype/StillImage" />
      </cc:Work>
    </rdf:RDF>
  </metadata>
  <defs
     id="defs12" />
  <sodipodi:namedview
     pagecolor="#ffffff"
     bordercolor="#666666"
     borderopacity="1"
     objecttolerance="10"
     gridtolerance="10"
     guidetolerance="10"
     inkscape:pageopacity="0"
     inkscape:pageshadow="2"
     inkscape:window-width="689"
     inkscape:window-height="480"
     id="namedview10"
     showgrid="false"
     inkscape:zoom="1.3027344"
     inkscape:cx="256"
     inkscape:cy="256"
     inkscape:window-x="44"
     inkscape:window-y="25"
     inkscape:window-maximized="0"
     inkscape:current-layer="svg8" />
  <title
     id="title2">At Circle</title>
  <path
     style="color:#000000;font-style:normal;font-variant:normal;font-weight:normal;font-stretch:normal;font-size:medium;line-height:normal;font-family:sans-serif;font-variant-ligatures:normal;font-variant-position:normal;font-variant-caps:normal;font-variant-numeric:normal;font-variant-alternates:normal;font-variant-east-asian:normal;font-feature-settings:normal;font-variation-settings:normal;text-indent:0;text-align:start;text-decoration:none;text-decoration-line:none;text-decoration-style:solid;text-decoration-color:#000000;letter-spacing:normal;word-spacing:normal;text-transform:none;writing-mode:lr-tb;direction:ltr;text-orientation:mixed;dominant-baseline:auto;baseline-shift:baseline;text-anchor:start;white-space:normal;shape-padding:0;shape-margin:0;inline-size:0;clip-rule:nonzero;display:inline;overflow:visible;visibility:visible;isolation:auto;mix-blend-mode:normal;color-interpolation:sRGB;color-interpolation-filters:linearRGB;solid-color:#000000;solid-opacity:1;vector-effect:none;fill:currentColor;fill-opacity:1;fill-rule:nonzero;stroke:none;stroke-linecap:butt;stroke-linejoin:miter;stroke-miterlimit:10;stroke-dasharray:none;stroke-dashoffset:0;stroke-opacity:1;color-rendering:auto;image-rendering:auto;shape-rendering:auto;text-rendering:auto;enable-background:accumulate;stop-color:#000000;stop-opacity:1;opacity:1"
     d="M 256.08008 48.080078 C 141.42599 48.080078 48.080078 141.42599 48.080078 256.08008 C 48.080078 370.73417 141.42599 464.08008 256.08008 464.08008 C 370.73115 464.08008 464.08008 370.76172 464.08008 256.08008 C 464.08008 141.42599 370.73417 48.080078 256.08008 48.080078 z M 256.08008 80.080078 C 353.42599 80.080078 432.08008 158.73417 432.08008 256.08008 C 432.08008 353.45844 353.42901 432.08008 256.08008 432.08008 C 158.73417 432.08008 80.080078 353.42599 80.080078 256.08008 C 80.080078 158.73417 158.73417 80.080078 256.08008 80.080078 z "
     id="path4" />
  <path
     style="color:#000000;font-style:normal;font-variant:normal;font-weight:normal;font-stretch:normal;font-size:medium;line-height:normal;font-family:sans-serif;font-variant-ligatures:normal;font-variant-position:normal;font-variant-caps:normal;font-variant-numeric:normal;font-variant-alternates:normal;font-variant-east-asian:normal;font-feature-settings:normal;font-variation-settings:normal;text-indent:0;text-align:start;text-decoration:none;text-decoration-line:none;text-decoration-style:solid;text-decoration-color:#000000;letter-spacing:normal;word-spacing:normal;text-transform:none;writing-mode:lr-tb;direction:ltr;text-orientation:mixed;dominant-baseline:auto;baseline-shift:baseline;text-anchor:start;white-space:normal;shape-padding:0;shape-margin:0;inline-size:0;clip-rule:nonzero;display:inline;overflow:visible;visibility:visible;isolation:auto;mix-blend-mode:normal;color-interpolation:sRGB;color-interpolation-filters:linearRGB;solid-color:#000000;solid-opacity:1;vector-effect:none;fill:currentColor;fill-opacity:1;fill-rule:nonzero;stroke:none;stroke-linecap:round;stroke-linejoin:miter;stroke-miterlimit:10;stroke-dasharray:none;stroke-dashoffset:0;stroke-opacity:1;color-rendering:auto;image-rendering:auto;shape-rendering:auto;text-rendering:auto;enable-background:accumulate;stop-color:#000000;stop-opacity:1;opacity:1"
     d="M 266.14062 130.21094 C 197.35871 130.21094 137.71068 185.63933 131.67383 254.82227 C 125.63741 324.00031 177.80945 381.88086 246.61914 381.88086 C 267.76477 381.88086 283.72673 379.23731 305.50781 371.47852 A 14 14 0 0 0 313.99805 353.5918 A 14 14 0 0 0 296.11133 345.10156 C 276.23241 352.18277 265.75351 353.88086 246.61914 353.88086 C 193.08883 353.88086 154.82283 311.61977 159.56641 257.25781 C 164.30956 202.90075 212.64254 158.21094 266.14062 158.21094 C 297.51637 158.21094 319.90762 168.255 334.39258 184.06641 C 348.87753 199.87782 356.04609 222.20786 353.66211 249.54297 C 350.15432 289.44205 326.53297 293.72903 322.16602 292.97266 C 318.48615 292.30559 315.69412 290.68936 313.36328 287.18555 C 311.0358 283.68677 309.06563 277.69443 309.91406 267.74414 L 316.23633 217.49414 L 312.38086 212.83008 C 306.04229 205.16192 297.14608 200.02825 286.37305 196.45508 C 275.60533 192.88367 262.87928 191.26073 249.48633 193.38086 C 223.19175 197.47741 195.66196 219.80036 192.61328 254.78516 C 191.12159 271.90297 195.47844 288.1522 204.98633 300.47266 C 214.49421 312.79311 229.58051 320.83984 246.49023 320.83984 C 262.8466 320.83984 278.38525 314.2919 290.17383 302.8418 C 296.70767 312.56278 306.79982 318.66315 317.24609 320.53906 L 317.26758 320.54297 L 317.28906 320.54688 C 343.12902 325.10183 377.06464 303.12575 381.55664 251.98438 L 381.55664 251.98047 L 381.55664 251.97656 C 384.49266 218.31167 375.38715 187.36593 355.03711 165.15234 C 334.68707 142.93875 303.68488 130.21094 266.14062 130.21094 z M 260.14648 220.4668 C 266.39397 220.30817 272.42712 221.32926 277.55859 223.03125 C 281.33892 224.2851 284.37824 225.94897 286.75391 227.50977 L 283.5957 252.61523 A 14 14 0 0 0 283.23242 254.7832 C 280.91867 281.31367 265.18338 292.83984 246.49023 292.83984 C 237.95996 292.83984 231.86141 289.46673 227.1543 283.36719 C 222.44718 277.26764 219.55951 268.09703 220.50781 257.21484 C 222.33816 236.21086 240.33082 223.13875 253.80859 221.04492 L 253.83008 221.04102 L 253.85352 221.03711 C 255.95846 220.70333 258.06399 220.51967 260.14648 220.4668 z "
     id="path6" />
</svg>
