<?xml version="1.0" encoding="UTF-8" standalone="no"?>
<svg
   xmlns:dc="http://purl.org/dc/elements/1.1/"
   xmlns:cc="http://creativecommons.org/ns#"
   xmlns:rdf="http://www.w3.org/1999/02/22-rdf-syntax-ns#"
   xmlns:svg="http://www.w3.org/2000/svg"
   xmlns="http://www.w3.org/2000/svg"
   xmlns:sodipodi="http://sodipodi.sourceforge.net/DTD/sodipodi-0.dtd"
   xmlns:inkscape="http://www.inkscape.org/namespaces/inkscape"
   class="ionicon"
   viewBox="0 0 512 512"
   version="1.1"
   id="svg8"
   sodipodi:docname="at-circle-sharp.svg"
   inkscape:version="1.0.2 (e86c8708, 2021-01-15)">
  <metadata
     id="metadata14">
    <rdf:RDF>
      <cc:Work
         rdf:about="">
        <dc:format>image/svg+xml</dc:format>
        <dc:type
           rdf:resource="http://purl.org/dc/dcmitype/StillImage" />
      </cc:Work>
    </rdf:RDF>
  </metadata>
  <defs
     id="defs12" />
  <sodipodi:namedview
     pagecolor="#ffffff"
     bordercolor="#666666"
     borderopacity="1"
     objecttolerance="10"
     gridtolerance="10"
     guidetolerance="10"
     inkscape:pageopacity="0"
     inkscape:pageshadow="2"
     inkscape:window-width="689"
     inkscape:window-height="480"
     id="namedview10"
     showgrid="false"
     inkscape:zoom="1.3027344"
     inkscape:cx="256"
     inkscape:cy="256"
     inkscape:window-x="44"
     inkscape:window-y="25"
     inkscape:window-maximized="0"
     inkscape:current-layer="svg8" />
  <title
     id="title2">At Circle</title>
  <path
     style="color:#000000;font-style:normal;font-variant:normal;font-weight:normal;font-stretch:normal;font-size:medium;line-height:normal;font-family:sans-serif;font-variant-ligatures:normal;font-variant-position:normal;font-variant-caps:normal;font-variant-numeric:normal;font-variant-alternates:normal;font-variant-east-asian:normal;font-feature-settings:normal;font-variation-settings:normal;text-indent:0;text-align:start;text-decoration:none;text-decoration-line:none;text-decoration-style:solid;text-decoration-color:#000000;letter-spacing:normal;word-spacing:normal;text-transform:none;writing-mode:lr-tb;direction:ltr;text-orientation:mixed;dominant-baseline:auto;baseline-shift:baseline;text-anchor:start;white-space:normal;shape-padding:0;shape-margin:0;inline-size:0;clip-rule:nonzero;display:inline;overflow:visible;visibility:visible;isolation:auto;mix-blend-mode:normal;color-interpolation:sRGB;color-interpolation-filters:linearRGB;solid-color:#000000;solid-opacity:1;vector-effect:none;fill:#000000;fill-opacity:1;fill-rule:nonzero;stroke-width:1;stroke-linecap:butt;stroke-linejoin:miter;stroke-miterlimit:4;stroke-dasharray:none;stroke-dashoffset:0;stroke-opacity:1;color-rendering:auto;image-rendering:auto;shape-rendering:auto;text-rendering:auto;enable-background:accumulate;stop-color:#000000;stop-opacity:1;stroke:none;opacity:1"
     d="m 256.41,48.74 c -114.85,0 -208,93.11 -208,208 0,114.89 93.12,208 208,208 114.88,0 208,-93.12 208,-208 0,-114.88 -93.16,-208 -208,-208 z M 381.22,252 c -2.85,32.63 -16.78,49.7 -28,58.26 -11.22,8.56 -24.69,12.34 -36.33,10.26 -10.98491,-1.98394 -20.71288,-8.29631 -27,-17.52 -11.56724,11.61219 -27.33048,18.06603 -43.72,17.9 -14.65584,0.1136 -28.66987,-6.00459 -38.55,-16.83 -11.39,-12.42 -17,-30.36 -15.33,-49.23 3.05,-35 30.92,-57.39 56.87,-61.48 27.21,-4.29 52.24,6.54 62.91,19.46 l 3.84,4.66 -6.34,50.38 c -1.19,14.34 3.29,23.48 12.29,25.1 2.39,0.42 8.11,-0.13 14.38,-4.93 6.72,-5.15 15.14,-16 17.1,-38.47 2.32,-26.55 -4.35,-49.19 -19.28,-65.49 -15.5,-16.9 -39.1,-25.84 -68.24,-25.84 -54,0 -101.81,44.43 -106.57,99 -2.29,26.2 5.66,50.68 22.39,68.93 16.36,17.84 39.36,27.72 64.65,27.72 19,0 30.61,-2.05 49.49,-8.78 l 13.22,-4.69 9.39,26.37 -13.19,4.7 c -21.82,7.77 -36.68,10.4 -58.88,10.4 -33.28,0 -63.57,-13.06 -85.3,-36.77 -22.09,-24.11 -32.62,-56.17 -29.65,-90.29 2.91,-33.33 18.46,-64.63 43.77,-88.12 25.31,-23.49 57.57,-36.49 90.7,-36.49 37.2,0 67.94,12.08 88.88,34.93 20.05,21.91 29.48,52.75 26.5,86.86 z"
     id="path4" />
  <path
     style="color:#000000;font-style:normal;font-variant:normal;font-weight:normal;font-stretch:normal;font-size:medium;line-height:normal;font-family:sans-serif;font-variant-ligatures:normal;font-variant-position:normal;font-variant-caps:normal;font-variant-numeric:normal;font-variant-alternates:normal;font-variant-east-asian:normal;font-feature-settings:normal;font-variation-settings:normal;text-indent:0;text-align:start;text-decoration:none;text-decoration-line:none;text-decoration-style:solid;text-decoration-color:#000000;letter-spacing:normal;word-spacing:normal;text-transform:none;writing-mode:lr-tb;direction:ltr;text-orientation:mixed;dominant-baseline:auto;baseline-shift:baseline;text-anchor:start;white-space:normal;shape-padding:0;shape-margin:0;inline-size:0;clip-rule:nonzero;display:inline;overflow:visible;visibility:visible;isolation:auto;mix-blend-mode:normal;color-interpolation:sRGB;color-interpolation-filters:linearRGB;solid-color:#000000;solid-opacity:1;vector-effect:none;fill:#000000;fill-opacity:1;fill-rule:nonzero;stroke-width:1;stroke-linecap:butt;stroke-linejoin:miter;stroke-miterlimit:4;stroke-dasharray:none;stroke-dashoffset:0;stroke-opacity:1;color-rendering:auto;image-rendering:auto;shape-rendering:auto;text-rendering:auto;enable-background:accumulate;stop-color:#000000;stop-opacity:1;stroke:none;opacity:1"
     d="m 253.51,221 c -14.83,2.33 -31.55,15.84 -33.34,36.26 -1,11.06 2,21.22 8.08,27.87 4.57465,5.04298 11.10226,7.86761 17.91,7.75 19.7,0 33.8,-14.79 36.8,-38.59 l 1.75,-13.89 h 0.09 l 1.65,-13.11 c -9.91634,-5.85859 -21.56161,-8.08583 -32.94,-6.3 z"
     id="path6" />
</svg>
