<?xml version="1.0" encoding="UTF-8"?>
<svg width="512px" height="512px" viewBox="0 0 512 512" version="1.1" xmlns="http://www.w3.org/2000/svg" xmlns:xlink="http://www.w3.org/1999/xlink">
    <!-- Generator: Sketch 62 (91390) - https://sketch.com -->
    <title>Artboard</title>
    <desc>Created with Sketch.</desc>
    <g id="Artboard" stroke="none" stroke-width="1" fill="none" fill-rule="evenodd">
        <g id="at-circle-outline" transform="translate(64.000000, 64.000000)" fill="#000000" fill-rule="nonzero">
            <path d="M192.08,-15.92 C77.243444,-15.92 -15.92,77.243444 -15.92,192.08 C-15.92,306.916556 77.243444,400.08 192.08,400.08 C306.92653,400.08 400.08,306.936583 400.08,192.08 C400.08,77.243444 306.916556,-15.92 192.08,-15.92 Z M192.08,16.08 C289.243444,16.08 368.08,94.916556 368.08,192.08 C368.08,289.262698 289.254191,368.08 192.08,368.08 C94.916556,368.08 16.08,289.243444 16.08,192.08 C16.08,94.916556 94.916556,16.08 192.08,16.08 Z" id="Path"></path>
            <path d="M202.14,66.21 C277.344323,66.21 323.758108,116.874108 317.556306,187.984972 C315.428798,212.206649 306.76871,231.002085 293.196671,243.23444 C281.299139,253.957577 266.159453,258.81607 253.245498,256.539581 C241.962203,254.513355 232.799144,248.505414 226.606886,239.528859 L226.438,239.281 L226.427315,239.292695 C215.199468,250.220747 200.25206,256.582249 183.516824,256.832338 L182.49,256.84 C148.592102,256.84 125.467817,226.875221 128.612856,190.784606 C131.416125,158.615948 156.693126,133.852904 185.467413,129.38276 C209.67392,125.544331 235.81743,134.096875 248.015352,148.395278 L248.380701,148.830315 L252.235955,153.494258 L245.896,203.867 L245.875091,204.12919 C244.649224,219.556529 249.767114,227.320859 257.887406,228.923023 L258.150388,228.972571 C262.193195,229.685219 268.737246,227.585161 274.450829,222.43556 C282.519165,215.163642 288.131083,202.983807 289.662941,185.543634 C294.437308,130.799953 260.916966,94.21 202.14,94.21 C148.283351,94.21 100.327817,138.697544 95.5670033,193.257004 C90.8868691,246.891863 129.709211,289.88 182.62,289.88 C201.542052,289.88 213.157936,287.853553 232.112121,281.10175 C239.395791,278.507183 247.403683,282.308452 249.99825,289.592121 C252.592817,296.875791 248.791548,304.883683 241.507879,307.47825 C219.551905,315.299341 204.759198,317.88 182.62,317.88 C113.188721,317.88 61.5733131,260.726049 67.6729967,190.822996 C73.6897503,121.87033 133.689035,66.21 202.14,66.21 Z M213.557618,159.031902 C206.104092,156.559735 197.817516,155.77424 189.809182,157.044053 C173.257953,159.61536 158.144933,174.421087 156.507144,193.215394 C154.701566,213.935136 166.203881,228.84 182.49,228.84 C202.068506,228.84 217.160328,214.549112 219.232939,190.783662 C219.296484,190.055023 219.414766,189.344308 219.583381,188.655214 L219.597,188.601 L222.778,163.323 C220.44488,161.826552 217.448685,160.366329 214.046394,159.19695 L213.557618,159.031902 Z" id="Path"></path>
        </g>
    </g>
</svg>