<?xml version="1.0" encoding="UTF-8" standalone="no"?>
<svg
   xmlns:dc="http://purl.org/dc/elements/1.1/"
   xmlns:cc="http://creativecommons.org/ns#"
   xmlns:rdf="http://www.w3.org/1999/02/22-rdf-syntax-ns#"
   xmlns:svg="http://www.w3.org/2000/svg"
   xmlns="http://www.w3.org/2000/svg"
   xmlns:sodipodi="http://sodipodi.sourceforge.net/DTD/sodipodi-0.dtd"
   xmlns:inkscape="http://www.inkscape.org/namespaces/inkscape"
   class="ionicon"
   viewBox="0 0 512 512"
   version="1.1"
   id="svg8"
   sodipodi:docname="at-circle.svg"
   inkscape:version="1.0.2 (e86c8708, 2021-01-15)">
  <metadata
     id="metadata14">
    <rdf:RDF>
      <cc:Work
         rdf:about="">
        <dc:format>image/svg+xml</dc:format>
        <dc:type
           rdf:resource="http://purl.org/dc/dcmitype/StillImage" />
      </cc:Work>
    </rdf:RDF>
  </metadata>
  <defs
     id="defs12" />
  <sodipodi:namedview
     pagecolor="#ffffff"
     bordercolor="#666666"
     borderopacity="1"
     objecttolerance="10"
     gridtolerance="10"
     guidetolerance="10"
     inkscape:pageopacity="0"
     inkscape:pageshadow="2"
     inkscape:window-width="689"
     inkscape:window-height="480"
     id="namedview10"
     showgrid="false"
     inkscape:zoom="1.3027344"
     inkscape:cx="256"
     inkscape:cy="256"
     inkscape:window-x="44"
     inkscape:window-y="25"
     inkscape:window-maximized="0"
     inkscape:current-layer="svg8" />
  <title
     id="title2">At Circle</title>
  <path
     style="color:#000000;font-style:normal;font-variant:normal;font-weight:normal;font-stretch:normal;font-size:medium;line-height:normal;font-family:sans-serif;font-variant-ligatures:normal;font-variant-position:normal;font-variant-caps:normal;font-variant-numeric:normal;font-variant-alternates:normal;font-variant-east-asian:normal;font-feature-settings:normal;font-variation-settings:normal;text-indent:0;text-align:start;text-decoration:none;text-decoration-line:none;text-decoration-style:solid;text-decoration-color:#000000;letter-spacing:normal;word-spacing:normal;text-transform:none;writing-mode:lr-tb;direction:ltr;text-orientation:mixed;dominant-baseline:auto;baseline-shift:baseline;text-anchor:start;white-space:normal;shape-padding:0;shape-margin:0;inline-size:0;clip-rule:nonzero;display:inline;overflow:visible;visibility:visible;isolation:auto;mix-blend-mode:normal;color-interpolation:sRGB;color-interpolation-filters:linearRGB;solid-color:#000000;solid-opacity:1;vector-effect:none;fill:#000000;fill-opacity:1;fill-rule:nonzero;stroke-width:1;stroke-linecap:butt;stroke-linejoin:miter;stroke-miterlimit:4;stroke-dasharray:none;stroke-dashoffset:0;stroke-opacity:1;color-rendering:auto;image-rendering:auto;shape-rendering:auto;text-rendering:auto;enable-background:accumulate;stop-color:#000000;stop-opacity:1;stroke:none;opacity:1"
     d="m 255.46,48.74 c -114.84,0 -208,93.11 -208,208 0,114.89 93.12,208 208,208 114.88,0 208,-93.12 208,-208 0,-114.88 -93.15,-208 -208,-208 z M 380.28,252 c -2.85,32.63 -16.79,49.7 -28,58.26 -11.21,8.56 -24.67,12.32 -36.28,10.24 -10.8663,-1.94549 -20.51419,-8.1292 -26.82,-17.19 -11.766,11.44498 -27.58692,17.76256 -44,17.57 -14.65558,0.11233 -28.66911,-6.00564 -38.55,-16.83 -11.38,-12.42 -17,-30.36 -15.32,-49.23 3,-35 30.91,-57.39 56.87,-61.48 27.2,-4.29 52.23,6.54 62.9,19.46 l 3.85,4.66 -6.34,50.38 c -1.19,14.34 3.28,23.48 12.29,25.1 2.39,0.42 8.1,-0.13 14.37,-4.93 6.72,-5.15 15.14,-16 17.1,-38.47 C 354.7,223 348,200.35 333.1,184.05 c -15.49,-16.9 -39.09,-25.84 -68.23,-25.84 -54,0 -101.81,44.43 -106.58,99 -2.28,26.2 5.67,50.68 22.4,68.93 16.36,17.86 39.31,27.74 64.66,27.74 19,0 30.61,-2.05 49.48,-8.78 7.28464,-2.59574 15.29426,1.20537 17.88999,8.49 2.59574,7.28464 -1.20535,15.29426 -8.48999,17.89 -21.82,7.77 -36.68,10.4 -58.88,10.4 -33.28,0 -63.57,-13.06 -85.3,-36.77 C 138,321 127.42,288.94 130.4,254.82 c 2.91,-33.33 18.45,-64.63 43.77,-88.12 25.32,-23.49 57.57,-36.49 90.7,-36.49 37.2,0 67.93,12.08 88.87,34.93 20.09,21.91 29.51,52.75 26.54,86.86 z"
     id="path4" />
  <path
     style="color:#000000;font-style:normal;font-variant:normal;font-weight:normal;font-stretch:normal;font-size:medium;line-height:normal;font-family:sans-serif;font-variant-ligatures:normal;font-variant-position:normal;font-variant-caps:normal;font-variant-numeric:normal;font-variant-alternates:normal;font-variant-east-asian:normal;font-feature-settings:normal;font-variation-settings:normal;text-indent:0;text-align:start;text-decoration:none;text-decoration-line:none;text-decoration-style:solid;text-decoration-color:#000000;letter-spacing:normal;word-spacing:normal;text-transform:none;writing-mode:lr-tb;direction:ltr;text-orientation:mixed;dominant-baseline:auto;baseline-shift:baseline;text-anchor:start;white-space:normal;shape-padding:0;shape-margin:0;inline-size:0;clip-rule:nonzero;display:inline;overflow:visible;visibility:visible;isolation:auto;mix-blend-mode:normal;color-interpolation:sRGB;color-interpolation-filters:linearRGB;solid-color:#000000;solid-opacity:1;vector-effect:none;fill:#000000;fill-opacity:1;fill-rule:nonzero;stroke-width:1;stroke-linecap:butt;stroke-linejoin:miter;stroke-miterlimit:4;stroke-dasharray:none;stroke-dashoffset:0;stroke-opacity:1;color-rendering:auto;image-rendering:auto;shape-rendering:auto;text-rendering:auto;enable-background:accumulate;stop-color:#000000;stop-opacity:1;stroke:none;opacity:1"
     d="m 252.57,221 c -14.83,2.33 -31.56,15.84 -33.34,36.26 -1,11.06 2,21.22 8.07,27.87 4.5762,5.04081 11.10278,7.86499 17.91,7.75 20.31,0 34.73,-14.94 36.75,-38.06 0.0614,-0.69753 0.17506,-1.38947 0.34,-2.07 l 3.2,-25.45 c -9.91295,-5.85786 -21.55483,-8.08513 -32.93,-6.3 z"
     id="path6" />
</svg>
