<?xml version="1.0" encoding="UTF-8"?>
<svg width="512px" height="512px" viewBox="0 0 512 512" version="1.1" xmlns="http://www.w3.org/2000/svg" xmlns:xlink="http://www.w3.org/1999/xlink">
    <!-- Generator: Sketch 62 (91390) - https://sketch.com -->
    <title>Artboard</title>
    <desc>Created with Sketch.</desc>
    <g id="Artboard" stroke="none" stroke-width="1" fill="none" fill-rule="evenodd">
        <g id="at-outline" transform="translate(79.000000, 80.000000)" fill="#000000" fill-rule="nonzero">
            <path d="M174.55,80.27 C125.849352,80.27 85.6943331,122.251895 81.0616626,174.866647 C76.342319,228.465772 110.517332,272.27 160.45,272.27 C211.613457,272.27 251.9293,234.442447 256.938078,177.676301 C261.613402,124.65716 224.745274,80.27 174.55,80.27 Z M174.55,112.27 C205.213002,112.27 228.146764,139.880964 225.061848,174.864545 C221.49605,215.276918 194.858928,240.27 160.45,240.27 C130.558577,240.27 109.772627,213.627362 112.938337,177.673353 C116.190225,140.740608 143.421912,112.27 174.55,112.27 Z" id="Path"></path>
            <path d="M192.51,-15.73 C308.288969,-15.73 379.222587,60.9863373 369.668346,169.403251 C366.437964,206.094457 353.335148,234.273048 332.961486,252.445372 C315.425868,268.086297 293.292319,275.09342 274.846688,271.824282 C241.219155,265.861954 220.53032,235.497385 223.85367,192.473397 L223.961739,191.165777 L232.441739,94.9157771 C233.21727,86.1133187 240.981764,79.6062083 249.784223,80.3817392 C258.480628,81.1479263 264.936661,88.7356827 264.343129,97.4065241 L264.318261,97.7242229 L255.838371,193.972968 C253.374835,221.959889 263.711257,237.350814 280.432183,240.315518 C288.848932,241.807227 301.196993,237.89803 311.661014,228.564628 C325.682088,216.058507 335.248183,195.485901 337.791769,166.595443 C345.691093,76.9577175 289.57789,16.27 192.51,16.27 C103.596088,16.27 24.7246499,88.7392311 16.9390283,177.665485 C9.24446052,265.551734 73.7152058,336.27 161.49,336.27 L164.368962,336.262216 C194.618241,336.094706 210.396842,333.176873 234.572173,323.019172 C242.718831,319.596206 252.097863,323.425515 255.520828,331.572173 C258.943794,339.718831 255.114485,349.097863 246.967827,352.520828 L245.228839,353.245486 C216.995226,364.911332 196.924798,368.27 161.49,368.27 C54.9033028,368.27 -24.2678347,281.426805 -14.9390283,174.874515 C-5.70801868,69.439247 86.9854032,-15.73 192.51,-15.73 Z" id="Path"></path>
        </g>
    </g>
</svg>