<?xml version="1.0" encoding="UTF-8" standalone="no"?>
<svg
   xmlns:dc="http://purl.org/dc/elements/1.1/"
   xmlns:cc="http://creativecommons.org/ns#"
   xmlns:rdf="http://www.w3.org/1999/02/22-rdf-syntax-ns#"
   xmlns:svg="http://www.w3.org/2000/svg"
   xmlns="http://www.w3.org/2000/svg"
   xmlns:sodipodi="http://sodipodi.sourceforge.net/DTD/sodipodi-0.dtd"
   xmlns:inkscape="http://www.inkscape.org/namespaces/inkscape"
   class="ionicon"
   viewBox="0 0 512 512"
   version="1.1"
   id="svg6"
   sodipodi:docname="at-sharp.svg"
   inkscape:version="1.0.2 (e86c8708, 2021-01-15)">
  <metadata
     id="metadata12">
    <rdf:RDF>
      <cc:Work
         rdf:about="">
        <dc:format>image/svg+xml</dc:format>
        <dc:type
           rdf:resource="http://purl.org/dc/dcmitype/StillImage" />
      </cc:Work>
    </rdf:RDF>
  </metadata>
  <defs
     id="defs10" />
  <sodipodi:namedview
     pagecolor="#ffffff"
     bordercolor="#666666"
     borderopacity="1"
     objecttolerance="10"
     gridtolerance="10"
     guidetolerance="10"
     inkscape:pageopacity="0"
     inkscape:pageshadow="2"
     inkscape:window-width="689"
     inkscape:window-height="480"
     id="namedview8"
     showgrid="false"
     inkscape:zoom="1.3027344"
     inkscape:cx="256"
     inkscape:cy="256"
     inkscape:window-x="44"
     inkscape:window-y="25"
     inkscape:window-maximized="0"
     inkscape:current-layer="svg6" />
  <title
     id="title2">At</title>
  <path
     style="color:#000000;font-style:normal;font-variant:normal;font-weight:normal;font-stretch:normal;font-size:medium;line-height:normal;font-family:sans-serif;font-variant-ligatures:normal;font-variant-position:normal;font-variant-caps:normal;font-variant-numeric:normal;font-variant-alternates:normal;font-variant-east-asian:normal;font-feature-settings:normal;font-variation-settings:normal;text-indent:0;text-align:start;text-decoration:none;text-decoration-line:none;text-decoration-style:solid;text-decoration-color:#000000;letter-spacing:normal;word-spacing:normal;text-transform:none;writing-mode:lr-tb;direction:ltr;text-orientation:mixed;dominant-baseline:auto;baseline-shift:baseline;text-anchor:start;white-space:normal;shape-padding:0;shape-margin:0;inline-size:0;clip-rule:nonzero;display:inline;overflow:visible;visibility:visible;isolation:auto;mix-blend-mode:normal;color-interpolation:sRGB;color-interpolation-filters:linearRGB;solid-color:#000000;solid-opacity:1;vector-effect:none;fill:#000000;fill-opacity:1;fill-rule:nonzero;stroke-width:1;stroke-linecap:butt;stroke-linejoin:miter;stroke-miterlimit:4;stroke-dasharray:none;stroke-dashoffset:0;stroke-opacity:1;color-rendering:auto;image-rendering:auto;shape-rendering:auto;text-rendering:auto;enable-background:accumulate;stop-color:#000000;stop-opacity:1;stroke:none;opacity:1"
     d="m 407.6,115.78 c -32.07,-35 -79.47,-53.51 -137.09,-53.51 -51,0 -100.69,19.8 -139.82,55.76 -39.13,35.96 -63.13,83.84 -67.63,134.83 -4.55,51.67 11.41,100.29 44.94,136.9 33.37,36.44 80.07,56.51 131.49,56.51 32.52,0 53.61,-2.36 85.48,-15.75 l 14.75,-6.2 -12.4,-29.5 -14.75,6.18 c -27.15,11.4 -43.78,13.25 -73.08,13.25 -42.34,0 -80.65,-16.38 -107.89,-46.12 -27.4,-29.92 -40.42,-69.86 -36.66,-112.48 7.84,-89 86.6,-161.4 175.57,-161.4 48.4,0 87.65,14.91 113.49,43.13 24.61,26.87 35.6,63.92 31.79,107.15 -3.29,37.35 -17.76,55.74 -29.32,64.6 -11,8.44 -22,10.18 -28,9.11 -17.68,-3.13 -26.87,-20.46 -24.59,-46.29 l 9.93,-109.12 -31.91,-2.83 -2,22.29 c -15.07177,-15.42694 -35.75286,-24.08615 -57.32,-24 -23.8,0 -46.54,10.07 -64,28.37 -16.77,17.53 -27.23,41.05 -29.45,66.22 -2.45,27.87 5.75,54.34 22.51,72.64 14.58399,15.9569 35.26338,24.96233 56.88,24.77 27.42209,0.3021 53.57955,-11.51414 71.48,-32.29 8.52831,16.72896 24.39655,28.50061 42.88,31.81 16.89,3 36.73,-2.69 53.08,-15.21 30.19,-23.13 39.36,-60.19 41.74,-87.2 4.52,-51.7 -9.7,-98.4 -40.1,-131.62 z m -126.34,186 c -11.64093,10.76601 -26.95453,16.67897 -42.81,16.53 -12.64592,0.21977 -24.77327,-5.02035 -33.28,-14.38 -10.71,-11.7 -15.9,-29.27 -14.23,-48.22 3.23,-36.68 30.29,-65.4 61.61,-65.4 13.66257,-0.0549 26.70546,5.69593 35.88,15.82 10.87,11.87 16.2,28.87 14.63,46.73 -1.78,20.28 -9.33,37.14 -21.8,48.88 z"
     id="path4" />
</svg>
