<?xml version="1.0" encoding="UTF-8" standalone="no"?>
<svg
   xmlns:dc="http://purl.org/dc/elements/1.1/"
   xmlns:cc="http://creativecommons.org/ns#"
   xmlns:rdf="http://www.w3.org/1999/02/22-rdf-syntax-ns#"
   xmlns:svg="http://www.w3.org/2000/svg"
   xmlns="http://www.w3.org/2000/svg"
   xmlns:sodipodi="http://sodipodi.sourceforge.net/DTD/sodipodi-0.dtd"
   xmlns:inkscape="http://www.inkscape.org/namespaces/inkscape"
   class="ionicon"
   viewBox="0 0 512 512"
   version="1.1"
   id="svg8"
   sodipodi:docname="at.svg"
   inkscape:version="1.0.2 (e86c8708, 2021-01-15)">
  <metadata
     id="metadata14">
    <rdf:RDF>
      <cc:Work
         rdf:about="">
        <dc:format>image/svg+xml</dc:format>
        <dc:type
           rdf:resource="http://purl.org/dc/dcmitype/StillImage" />
      </cc:Work>
    </rdf:RDF>
  </metadata>
  <defs
     id="defs12" />
  <sodipodi:namedview
     pagecolor="#ffffff"
     bordercolor="#666666"
     borderopacity="1"
     objecttolerance="10"
     gridtolerance="10"
     guidetolerance="10"
     inkscape:pageopacity="0"
     inkscape:pageshadow="2"
     inkscape:window-width="689"
     inkscape:window-height="480"
     id="namedview10"
     showgrid="false"
     inkscape:zoom="1.3027344"
     inkscape:cx="256"
     inkscape:cy="256"
     inkscape:window-x="44"
     inkscape:window-y="25"
     inkscape:window-maximized="0"
     inkscape:current-layer="svg8" />
  <title
     id="title2">At</title>
  <path
     style="color:#000000;font-style:normal;font-variant:normal;font-weight:normal;font-stretch:normal;font-size:medium;line-height:normal;font-family:sans-serif;font-variant-ligatures:normal;font-variant-position:normal;font-variant-caps:normal;font-variant-numeric:normal;font-variant-alternates:normal;font-variant-east-asian:normal;font-feature-settings:normal;font-variation-settings:normal;text-indent:0;text-align:start;text-decoration:none;text-decoration-line:none;text-decoration-style:solid;text-decoration-color:#000000;letter-spacing:normal;word-spacing:normal;text-transform:none;writing-mode:lr-tb;direction:ltr;text-orientation:mixed;dominant-baseline:auto;baseline-shift:baseline;text-anchor:start;white-space:normal;shape-padding:0;shape-margin:0;inline-size:0;clip-rule:nonzero;display:inline;overflow:visible;visibility:visible;isolation:auto;mix-blend-mode:normal;color-interpolation:sRGB;color-interpolation-filters:linearRGB;solid-color:#000000;solid-opacity:1;vector-effect:none;fill:currentColor;fill-opacity:1;fill-rule:nonzero;stroke:none;stroke-linecap:round;stroke-linejoin:round;stroke-miterlimit:4;stroke-dasharray:none;stroke-dashoffset:0;stroke-opacity:1;color-rendering:auto;image-rendering:auto;shape-rendering:auto;text-rendering:auto;enable-background:accumulate;stop-color:#000000;stop-opacity:1;opacity:1"
     d="M 253.55078 158.26953 C 203.67037 158.26953 164.5845 201.50935 160.0625 252.86719 C 157.80163 278.54465 164.42066 302.64584 178.49023 320.67969 C 192.55981 338.71353 214.50901 350.26953 239.44922 350.26953 C 287.5303 350.26953 330.83443 313.51056 335.9375 255.67578 C 340.51638 203.75033 303.47868 158.26953 253.55078 158.26953 z M 253.55078 190.26953 C 284.48288 190.26953 307.24362 216.79068 304.0625 252.86523 C 300.16491 297.0291 272.22764 318.26953 239.44922 318.26953 C 223.95942 318.26953 212.24113 311.91725 203.7207 300.99609 C 195.20028 290.07494 190.30837 274.17636 191.9375 255.67383 C 195.1955 218.67166 222.57119 190.26953 253.55078 190.26953 z "
     id="path4" />
  <path
     style="color:#000000;font-style:normal;font-variant:normal;font-weight:normal;font-stretch:normal;font-size:medium;line-height:normal;font-family:sans-serif;font-variant-ligatures:normal;font-variant-position:normal;font-variant-caps:normal;font-variant-numeric:normal;font-variant-alternates:normal;font-variant-east-asian:normal;font-feature-settings:normal;font-variation-settings:normal;text-indent:0;text-align:start;text-decoration:none;text-decoration-line:none;text-decoration-style:solid;text-decoration-color:#000000;letter-spacing:normal;word-spacing:normal;text-transform:none;writing-mode:lr-tb;direction:ltr;text-orientation:mixed;dominant-baseline:auto;baseline-shift:baseline;text-anchor:start;white-space:normal;shape-padding:0;shape-margin:0;inline-size:0;clip-rule:nonzero;display:inline;overflow:visible;visibility:visible;isolation:auto;mix-blend-mode:normal;color-interpolation:sRGB;color-interpolation-filters:linearRGB;solid-color:#000000;solid-opacity:1;vector-effect:none;fill:currentColor;fill-opacity:1;fill-rule:nonzero;stroke:none;stroke-linecap:round;stroke-linejoin:round;stroke-miterlimit:4;stroke-dasharray:none;stroke-dashoffset:0;stroke-opacity:1;color-rendering:auto;image-rendering:auto;shape-rendering:auto;text-rendering:auto;enable-background:accumulate;stop-color:#000000;stop-opacity:1;opacity:1"
     d="M 271.50977 62.269531 C 165.6623 62.269531 73.319981 147.11507 64.060547 252.875 C 54.80303 358.61303 134.64277 446.26953 240.49023 446.26953 C 273.32357 446.26953 295.83848 443.18126 325.96875 430.52148 A 16 16 0 0 0 334.52148 409.57227 A 16 16 0 0 0 313.57227 401.01953 C 286.58253 412.35975 271.6569 414.26953 240.49023 414.26953 C 151.9377 414.26953 88.17697 344.32799 95.939453 255.66602 C 103.70002 167.02595 182.95723 94.269531 271.50977 94.269531 C 322.76075 94.269531 360.29734 110.71036 384.60352 136.99805 C 408.90969 163.28573 420.69914 200.24814 416.79102 244.5957 A 16.0016 16.0016 0 0 0 416.79102 244.59766 C 411.05094 309.79436 371.19952 320.40016 359.43359 318.31641 L 359.43164 318.31641 C 352.01585 317.00112 345.92699 313.4402 341.30273 306.55469 C 336.67828 299.66888 333.36081 288.75906 334.83789 271.97461 L 334.83789 271.97266 L 343.31836 175.72461 A 16 16 0 0 0 328.78516 158.38086 A 16 16 0 0 0 311.44141 172.91602 L 302.96094 269.16602 A 16.0016 16.0016 0 0 0 302.96094 269.16797 C 300.99849 291.46231 305.27293 310.30063 314.73828 324.39453 C 324.20363 338.48843 338.70431 347.13923 353.84766 349.82422 C 390.04336 356.23922 441.78759 325.54329 448.66797 247.4043 L 448.66797 247.40234 C 453.21931 195.75069 439.14554 148.85032 408.09961 115.27344 C 377.05329 81.696125 329.74878 62.269531 271.50977 62.269531 z "
     id="path6" />
</svg>
