<?xml version="1.0" encoding="utf-8"?>
<!-- Generator: Adobe Illustrator 24.0.0, SVG Export Plug-In . SVG Version: 6.00 Build 0)  -->
<svg version="1.1" id="Layer_1" xmlns="http://www.w3.org/2000/svg" xmlns:xlink="http://www.w3.org/1999/xlink" x="0px" y="0px"
	 viewBox="0 0 512 512" style="enable-background:new 0 0 512 512;" xml:space="preserve">
<title>ionicons-v5-d</title>
<g>
	<path d="M239.5,350.3c-22.1,0-42.3-8.8-56.9-24.8c-16.8-18.3-25-44.8-22.5-72.6c2.2-25.2,12.7-48.7,29.4-66.2
		c17.5-18.3,40.2-28.4,64-28.4c22.9,0,44,9.3,59.5,26.2c16.9,18.5,25.3,44.4,22.9,71.2c0,0,0,0,0,0c-2.5,28.2-13.5,52.2-31.8,69.4
		C286.8,341.3,263.8,350.3,239.5,350.3z M253.5,190.3c-31.3,0-58.4,28.7-61.6,65.4c-1.7,18.9,3.5,36.5,14.2,48.2
		c8.6,9.4,20.1,14.4,33.3,14.4c16.2,0,31.4-5.9,42.8-16.5c12.5-11.7,20-28.6,21.8-48.9v0c1.6-17.8-3.8-34.9-14.6-46.8
		C280.1,195.9,267.3,190.3,253.5,190.3z M320,254.3L320,254.3L320,254.3z"/>
</g>
<g>
	<path d="M240.5,446.3c-51.4,0-98.1-20-131.4-56.5c-33.6-36.6-49.5-85.2-45-136.9c4.5-51,28.5-98.9,67.6-134.8
		c39.1-36,88.8-55.8,139.8-55.8c57.6,0,105,18.5,137.1,53.5c30.4,33.2,44.6,79.9,40.1,131.6c-4.3,48.9-25.1,74.4-41.7,87.2
		c-16.3,12.5-36.2,18.2-53.1,15.2c-26.3-4.7-55.5-28.6-50.9-80.7l8.5-96.3c0.8-8.8,8.5-15.3,17.3-14.5c8.8,0.8,15.3,8.5,14.5,17.3
		l-8.5,96.3c-2.3,25.9,6.9,43.2,24.6,46.3c6,1.1,17-0.7,28-9.1c20.9-16,27.5-44,29.3-64.6c3.8-43.2-7.2-80.3-31.8-107.2
		c-25.8-28.2-65.1-43.1-113.5-43.1c-89,0-167.8,72.4-175.6,161.4c-3.7,42.6,9.3,82.6,36.7,112.5c27.2,29.7,65.5,46.1,107.8,46.1
		c29.3,0,45.9-1.8,73.1-13.3c8.1-3.4,17.5,0.4,20.9,8.6c3.4,8.1-0.4,17.5-8.6,20.9C294.1,443.9,273,446.3,240.5,446.3z"/>
</g>
</svg>
