<?xml version="1.0" encoding="utf-8"?>
<!-- Generator: Adobe Illustrator 24.0.0, SVG Export Plug-In . SVG Version: 6.00 Build 0)  -->
<svg version="1.1" id="Layer_1" xmlns="http://www.w3.org/2000/svg" xmlns:xlink="http://www.w3.org/1999/xlink" x="0px" y="0px"
	 viewBox="0 0 512 512" style="enable-background:new 0 0 512 512;" xml:space="preserve">
<title>ionicons-v5-d</title>
<g>
	<path d="M255.9,446.9c-29.2,0-56.7-11.2-77.7-31.5c-21.4-20.8-33.4-48.6-33.8-78.4l0-0.2V147.1c0-0.6,0-1.3,0-1.9
		c0.3-22.4,9.3-43.4,25.3-59S207,62,229.4,62.2c46.2,0.6,83.4,38.6,82.9,84.9l-0.1,188.7c-0.5,30.5-24.7,54.7-55.2,55.2
		c-15,0.2-29.2-5.4-39.9-15.8c-10.8-10.4-16.8-24.4-17-39.4l0-0.3V176h32v159.4c0.3,13.2,11.2,23.8,24.5,23.6
		c13-0.2,23.4-10.6,23.7-23.6l0.1-188.6c0.3-28.6-22.7-52.2-51.3-52.6c-0.2,0-0.4,0-0.6,0c-28.3,0-51.6,22.9-51.9,51.3
		c0,0.4,0,0.8,0,1.3l0,0.2v189.7c0.3,21.2,8.9,41,24.1,55.8c15.2,14.8,35.3,22.8,56.6,22.5c20.8-0.3,40.4-8.6,55.1-23.3
		c14.7-14.7,22.9-34.2,23.3-55V143.4h32l0,193.6c-0.4,29.2-12,56.6-32.6,77.2c-20.6,20.6-48.1,32.2-77.2,32.6
		C257.1,446.9,256.5,446.9,255.9,446.9z"/>
</g>
</svg>
