<?xml version="1.0" encoding="utf-8"?>
<!-- Generator: Adobe Illustrator 24.0.0, SVG Export Plug-In . SVG Version: 6.00 Build 0)  -->
<svg version="1.1" id="Layer_1" xmlns="http://www.w3.org/2000/svg" xmlns:xlink="http://www.w3.org/1999/xlink" x="0px" y="0px"
	 viewBox="0 0 512 512" style="enable-background:new 0 0 512 512;" xml:space="preserve">
<title>ionicons-v5-d</title>
<g>
	<path d="M256,450c-0.5,0-1.1,0-1.6,0c-61.4-0.9-110.7-51.6-109.9-113V147.4c0-0.6,0-1.3,0-1.9c0.3-22.4,9.3-43.4,25.3-59
		s37.2-24.1,59.6-23.9c46.2,0.6,83.4,38.6,82.9,84.9l-0.1,188.7c-0.5,30.5-24.7,54.7-55.2,55.2c-15,0.2-29.2-5.4-39.9-15.8
		c-10.8-10.4-16.8-24.4-17-39.4l0-0.3V192c0-8.8,7.2-16,16-16s16,7.2,16,16v143.7c0.1,6.4,2.7,12.4,7.3,16.8
		c4.6,4.5,10.7,6.9,17.1,6.8c13-0.2,23.4-10.6,23.7-23.6l0.1-188.6c0.3-28.6-22.7-52.2-51.3-52.6c-13.9-0.2-27,5.1-36.9,14.8
		c-9.9,9.7-15.5,22.7-15.7,36.5c0,0.4,0,0.8,0,1.3l0,0.2l0,190.1c-0.3,21.2,7.7,41.3,22.5,56.6c14.8,15.2,34.6,23.8,55.9,24.1
		c0.4,0,0.8,0,1.2,0c43.3,0,78.9-34.9,79.5-78.4c0-0.8,0-1.5,0-2.3l0-0.2V159.7c0-8.8,7.2-16,16-16s16,7.2,16,16V337
		c0,1,0,2.1,0,3.1C366.6,401,316.8,450,256,450z"/>
</g>
</svg>
