<?xml version="1.0" encoding="UTF-8" standalone="no"?>
<svg
   xmlns:dc="http://purl.org/dc/elements/1.1/"
   xmlns:cc="http://creativecommons.org/ns#"
   xmlns:rdf="http://www.w3.org/1999/02/22-rdf-syntax-ns#"
   xmlns:svg="http://www.w3.org/2000/svg"
   xmlns="http://www.w3.org/2000/svg"
   xmlns:sodipodi="http://sodipodi.sourceforge.net/DTD/sodipodi-0.dtd"
   xmlns:inkscape="http://www.inkscape.org/namespaces/inkscape"
   class="ionicon"
   viewBox="0 0 512 512"
   version="1.1"
   id="svg6"
   sodipodi:docname="attach-sharp.svg"
   inkscape:version="1.0.2 (e86c8708, 2021-01-15)">
  <metadata
     id="metadata12">
    <rdf:RDF>
      <cc:Work
         rdf:about="">
        <dc:format>image/svg+xml</dc:format>
        <dc:type
           rdf:resource="http://purl.org/dc/dcmitype/StillImage" />
      </cc:Work>
    </rdf:RDF>
  </metadata>
  <defs
     id="defs10" />
  <sodipodi:namedview
     pagecolor="#ffffff"
     bordercolor="#666666"
     borderopacity="1"
     objecttolerance="10"
     gridtolerance="10"
     guidetolerance="10"
     inkscape:pageopacity="0"
     inkscape:pageshadow="2"
     inkscape:window-width="689"
     inkscape:window-height="480"
     id="namedview8"
     showgrid="false"
     inkscape:zoom="1.3027344"
     inkscape:cx="256"
     inkscape:cy="256"
     inkscape:window-x="44"
     inkscape:window-y="25"
     inkscape:window-maximized="0"
     inkscape:current-layer="svg6" />
  <title
     id="title2">Attach</title>
  <path
     style="color:#000000;font-style:normal;font-variant:normal;font-weight:normal;font-stretch:normal;font-size:medium;line-height:normal;font-family:sans-serif;font-variant-ligatures:normal;font-variant-position:normal;font-variant-caps:normal;font-variant-numeric:normal;font-variant-alternates:normal;font-variant-east-asian:normal;font-feature-settings:normal;font-variation-settings:normal;text-indent:0;text-align:start;text-decoration:none;text-decoration-line:none;text-decoration-style:solid;text-decoration-color:#000000;letter-spacing:normal;word-spacing:normal;text-transform:none;writing-mode:lr-tb;direction:ltr;text-orientation:mixed;dominant-baseline:auto;baseline-shift:baseline;text-anchor:start;white-space:normal;shape-padding:0;shape-margin:0;inline-size:0;clip-rule:nonzero;display:inline;overflow:visible;visibility:visible;isolation:auto;mix-blend-mode:normal;color-interpolation:sRGB;color-interpolation-filters:linearRGB;solid-color:#000000;solid-opacity:1;vector-effect:none;fill:currentColor;fill-opacity:1;fill-rule:nonzero;stroke:none;stroke-linecap:square;stroke-linejoin:miter;stroke-miterlimit:10;stroke-dasharray:none;stroke-dashoffset:0;stroke-opacity:1;color-rendering:auto;image-rendering:auto;shape-rendering:auto;text-rendering:auto;enable-background:accumulate;stop-color:#000000;stop-opacity:1;opacity:1"
     d="M 228.42578 62.236328 C 181.86561 62.236328 143.92537 100.63658 144.49023 147.19336 L 144.49023 336.93555 L 144.49219 337.05078 C 145.37162 397.81938 195.21531 446.94727 255.99023 446.94727 C 316.76516 446.94727 366.60885 397.81938 367.48828 337.05078 L 367.49023 336.93555 L 367.49023 159.43945 L 367.49023 143.43945 L 335.49023 143.43945 L 335.49023 159.43945 L 335.49023 336.61914 C 334.8421 380.24434 299.6243 414.94727 255.99023 414.94727 C 212.35617 414.94727 177.13837 380.24434 176.49023 336.61914 L 176.49023 146.90234 L 176.48828 146.80664 C 176.13489 117.67988 199.2969 94.236328 228.42578 94.236328 C 257.55466 94.236328 280.71472 117.67988 280.36133 146.80664 L 280.35938 146.89648 L 280.23047 335.3125 C 280.01166 348.63415 269.48 358.99609 256.1543 358.99609 C 242.82926 358.99609 232.2999 348.63515 232.08008 335.31445 L 232.08008 192 L 232.08008 176 L 200.08008 176 L 200.08008 192 L 200.08008 335.67578 L 200.08203 335.80273 C 200.56294 366.24535 225.70791 390.99609 256.1543 390.99609 C 286.60069 390.99609 311.74761 366.24535 312.22852 335.80273 L 312.23047 335.68164 L 312.35938 147.19336 L 312.35938 147.18945 C 312.92205 100.63445 274.98463 62.236328 228.42578 62.236328 z "
     id="path4" />
</svg>
