<?xml version="1.0" encoding="UTF-8" standalone="no"?>
<svg
   xmlns:dc="http://purl.org/dc/elements/1.1/"
   xmlns:cc="http://creativecommons.org/ns#"
   xmlns:rdf="http://www.w3.org/1999/02/22-rdf-syntax-ns#"
   xmlns:svg="http://www.w3.org/2000/svg"
   xmlns="http://www.w3.org/2000/svg"
   xmlns:sodipodi="http://sodipodi.sourceforge.net/DTD/sodipodi-0.dtd"
   xmlns:inkscape="http://www.inkscape.org/namespaces/inkscape"
   class="ionicon"
   viewBox="0 0 512 512"
   version="1.1"
   id="svg6"
   sodipodi:docname="attach.svg"
   inkscape:version="1.0.2 (e86c8708, 2021-01-15)">
  <metadata
     id="metadata12">
    <rdf:RDF>
      <cc:Work
         rdf:about="">
        <dc:format>image/svg+xml</dc:format>
        <dc:type
           rdf:resource="http://purl.org/dc/dcmitype/StillImage" />
      </cc:Work>
    </rdf:RDF>
  </metadata>
  <defs
     id="defs10" />
  <sodipodi:namedview
     pagecolor="#ffffff"
     bordercolor="#666666"
     borderopacity="1"
     objecttolerance="10"
     gridtolerance="10"
     guidetolerance="10"
     inkscape:pageopacity="0"
     inkscape:pageshadow="2"
     inkscape:window-width="689"
     inkscape:window-height="480"
     id="namedview8"
     showgrid="false"
     inkscape:zoom="1.3027344"
     inkscape:cx="256"
     inkscape:cy="256"
     inkscape:window-x="44"
     inkscape:window-y="25"
     inkscape:window-maximized="0"
     inkscape:current-layer="svg6" />
  <title
     id="title2">Attach</title>
  <path
     style="color:#000000;font-style:normal;font-variant:normal;font-weight:normal;font-stretch:normal;font-size:medium;line-height:normal;font-family:sans-serif;font-variant-ligatures:normal;font-variant-position:normal;font-variant-caps:normal;font-variant-numeric:normal;font-variant-alternates:normal;font-variant-east-asian:normal;font-feature-settings:normal;font-variation-settings:normal;text-indent:0;text-align:start;text-decoration:none;text-decoration-line:none;text-decoration-style:solid;text-decoration-color:#000000;letter-spacing:normal;word-spacing:normal;text-transform:none;writing-mode:lr-tb;direction:ltr;text-orientation:mixed;dominant-baseline:auto;baseline-shift:baseline;text-anchor:start;white-space:normal;shape-padding:0;shape-margin:0;inline-size:0;clip-rule:nonzero;display:inline;overflow:visible;visibility:visible;isolation:auto;mix-blend-mode:normal;color-interpolation:sRGB;color-interpolation-filters:linearRGB;solid-color:#000000;solid-opacity:1;vector-effect:none;fill:currentColor;fill-opacity:1;fill-rule:nonzero;stroke:none;stroke-linecap:round;stroke-linejoin:miter;stroke-miterlimit:10;stroke-dasharray:none;stroke-dashoffset:0;stroke-opacity:1;color-rendering:auto;image-rendering:auto;shape-rendering:auto;text-rendering:auto;enable-background:accumulate;stop-color:#000000;stop-opacity:1;opacity:1"
     d="M 228.42578 62.535156 C 181.86561 62.535156 143.92537 100.93736 144.49023 147.49414 L 144.49023 337.11914 L 144.49219 336.88867 C 143.59476 398.90037 193.97209 450.01172 255.99023 450.01172 C 318.00838 450.01172 368.38571 398.90037 367.48828 336.88867 L 367.49023 337.11914 L 367.49023 159.74023 A 16 16 0 0 0 351.49023 143.74023 A 16 16 0 0 0 335.49023 159.74023 L 335.49023 337.23633 L 335.49219 337.35156 C 336.13699 381.90734 300.55064 418.01172 255.99023 418.01172 C 211.42983 418.01172 175.84348 381.90734 176.48828 337.35156 L 176.49023 337.23633 L 176.49023 147.20312 L 176.48828 147.10547 C 176.13489 117.97871 199.2969 94.535156 228.42578 94.535156 C 257.55466 94.535156 280.71472 117.97871 280.36133 147.10547 L 280.35938 147.19727 L 280.23047 335.61328 C 280.01166 348.93494 269.48 359.29687 256.1543 359.29688 C 242.82926 359.29688 232.2999 348.93593 232.08008 335.61523 L 232.08008 192 A 16 16 0 0 0 216.08008 176 A 16 16 0 0 0 200.08008 192 L 200.08008 335.97656 L 200.08203 336.10352 C 200.56294 366.54613 225.70791 391.29688 256.1543 391.29688 C 286.60069 391.29688 311.74761 366.54613 312.22852 336.10352 L 312.23047 335.98242 L 312.35938 147.49414 L 312.35938 147.49023 C 312.92205 100.93523 274.98463 62.535156 228.42578 62.535156 z "
     id="path4" />
</svg>
