<?xml version="1.0" encoding="UTF-8"?>
<svg width="512px" height="512px" viewBox="0 0 512 512" version="1.1" xmlns="http://www.w3.org/2000/svg" xmlns:xlink="http://www.w3.org/1999/xlink">
    <!-- Generator: Sketch 62 (91390) - https://sketch.com -->
    <title>Artboard</title>
    <desc>Created with Sketch.</desc>
    <g id="Artboard" stroke="none" stroke-width="1" fill="none" fill-rule="evenodd">
        <g id="attach-outline" transform="translate(160.000000, 78.000000)" fill="#000000" fill-rule="nonzero">
            <path d="M26.1613637,-4.04809089 C52.2813191,-19.2696258 84.5686809,-19.2696258 110.688636,-4.04809089 C136.547392,11.0212287 152.406229,38.7042362 152.364946,68.5878827 L152.359996,69.3110316 L152.228004,258.102722 C151.744251,288.725656 126.781755,313.296932 96.155,313.296932 C65.8345124,313.296932 41.0655653,289.214625 40.1038334,259.019576 L40.081996,258.102722 L40.08,114 C40.08,105.163444 47.243444,98 56.08,98 C64.8113589,98 71.9092047,104.993901 72.0769636,113.685129 L72.08,114 L72.08,257.684 L72.0873807,257.990963 C72.4961642,270.825349 82.9219746,281.087763 95.7612162,281.293775 L96.155,281.296932 C109.174211,281.296932 119.809665,270.956312 120.222619,257.990963 L120.23,257.635 L120.361178,69.1058894 C120.588124,50.4007233 110.739079,33.0185006 94.5766949,23.5997905 C78.4143112,14.1810804 58.4356888,14.1810804 42.2733051,23.5997905 C26.2725453,32.9243135 16.4594886,50.0538752 16.4850331,68.545138 L16.49,69.3 L16.49,259.235769 L16.4883248,259.351526 C16.0733091,288.028929 31.1348206,314.707336 55.9033205,329.16718 C80.6718204,343.627025 111.30818,343.627025 136.07668,329.16718 C160.597494,314.851934 175.60449,288.561275 175.499488,260.211238 L175.49,259.235769 L175.49,81.74 C175.49,72.903444 182.653444,65.74 191.49,65.74 C200.221359,65.74 207.319205,72.733901 207.486964,81.4251293 L207.49,81.74 L207.489,258.998 L207.50005,260.094191 C207.645056,299.452513 187.022781,335.980682 153.248185,356.188984 L152.210169,356.802493 C117.473212,377.081921 74.5067877,377.081921 39.7698311,356.802493 C5.38024396,336.72586 -15.6665435,299.854129 -15.5200504,260.094191 L-15.509,258.998 L-15.51,69.3 L-15.5149464,68.5878827 C-15.5562289,38.7042362 0.302607808,11.0212287 26.1613637,-4.04809089 Z" id="Path"></path>
        </g>
    </g>
</svg>