<?xml version="1.0" encoding="UTF-8"?>
<svg width="512px" height="512px" viewBox="0 0 512 512" version="1.1" xmlns="http://www.w3.org/2000/svg" xmlns:xlink="http://www.w3.org/1999/xlink">
    <!-- Generator: Sketch 62 (91390) - https://sketch.com -->
    <title>Artboard</title>
    <desc>Created with Sketch.</desc>
    <g id="Artboard" stroke="none" stroke-width="1" fill="none" fill-rule="evenodd">
        <g id="backspace-outline" transform="translate(63.000000, 112.000000)" fill="#000000" fill-rule="nonzero">
            <path d="M357.201564,-15.9999932 L110.855196,-15.9999932 C98.392021,-15.988462 86.5080268,-10.7909136 78.042439,-1.67601224 L77.5612666,-1.14910212 L77.2490606,-0.798376168 C76.7442252,-0.231254118 76.2803984,0.371083426 75.8610966,1.00407017 L-13.0089034,135.16407 L-13.2135462,135.481007 C-16.5560364,140.793307 -16.4874089,147.586072 -13.0078446,152.837528 L75.467,286.365 L75.659756,286.680127 C76.0973628,287.373434 76.5899634,288.035767 77.1350051,288.660318 C85.6367235,298.402245 97.933655,303.994853 110.863633,304.000007 L357.13,304.000007 C381.897071,303.889382 401.889382,283.897071 402,259.201564 L402,28.87 C401.889382,4.10292927 381.897071,-15.8893819 357.201564,-15.9999932 Z M110.884804,15.9999932 L357.13,15.9999932 C364.192693,16.0317501 369.96825,21.8073066 370.00016,28.9415641 L370.00016,259.13 C369.96825,266.192693 364.192693,271.96825 357.058436,272.00016 L110.87,272.00016 L110.50203,271.99455 C107.318578,271.901487 104.28889,270.620287 102.00491,268.418282 L101.879,268.294 L19.522,143.998 L101.822,19.756 L101.875735,19.7027165 C104.267832,17.3406801 107.50192,16.0031231 110.884804,15.9999932 Z" id="Path"></path>
            <path d="M279.356292,69.0162915 C285.60468,62.7679028 295.73532,62.7679028 301.983708,69.0162915 C308.145314,75.177897 308.230892,85.1146621 302.240442,91.3811331 L301.983708,91.6437085 L171.973708,221.653708 C165.72532,227.902097 155.59468,227.902097 149.346292,221.653708 C143.184686,215.492103 143.099108,205.555338 149.089558,199.288867 L149.346292,199.026292 L279.356292,69.0162915 Z" id="Path"></path>
            <path d="M149.346292,69.0162915 C155.507897,62.854686 165.444662,62.7691082 171.711133,68.7595579 L171.973708,69.0162915 L301.983708,199.026292 C308.232097,205.27468 308.232097,215.40532 301.983708,221.653708 C295.822103,227.815314 285.885338,227.900892 279.618867,221.910442 L279.356292,221.653708 L149.346292,91.6437085 C143.097903,85.3953198 143.097903,75.2646802 149.346292,69.0162915 Z" id="Path"></path>
            <path d="M279.356292,69.0162915 C285.60468,62.7679028 295.73532,62.7679028 301.983708,69.0162915 C308.145314,75.177897 308.230892,85.1146621 302.240442,91.3811331 L301.983708,91.6437085 L171.973708,221.653708 C165.72532,227.902097 155.59468,227.902097 149.346292,221.653708 C143.184686,215.492103 143.099108,205.555338 149.089558,199.288867 L149.346292,199.026292 L279.356292,69.0162915 Z" id="Path"></path>
            <path d="M149.346292,69.0162915 C155.507897,62.854686 165.444662,62.7691082 171.711133,68.7595579 L171.973708,69.0162915 L301.983708,199.026292 C308.232097,205.27468 308.232097,215.40532 301.983708,221.653708 C295.822103,227.815314 285.885338,227.900892 279.618867,221.910442 L279.356292,221.653708 L149.346292,91.6437085 C143.097903,85.3953198 143.097903,75.2646802 149.346292,69.0162915 Z" id="Path"></path>
        </g>
    </g>
</svg>