<?xml version="1.0" encoding="UTF-8" standalone="no"?>
<svg
   xmlns:dc="http://purl.org/dc/elements/1.1/"
   xmlns:cc="http://creativecommons.org/ns#"
   xmlns:rdf="http://www.w3.org/1999/02/22-rdf-syntax-ns#"
   xmlns:svg="http://www.w3.org/2000/svg"
   xmlns="http://www.w3.org/2000/svg"
   xmlns:sodipodi="http://sodipodi.sourceforge.net/DTD/sodipodi-0.dtd"
   xmlns:inkscape="http://www.inkscape.org/namespaces/inkscape"
   class="ionicon"
   viewBox="0 0 512 512"
   version="1.1"
   id="svg8"
   sodipodi:docname="backspace-outline.svg"
   inkscape:version="1.0.2 (e86c8708, 2021-01-15)">
  <metadata
     id="metadata14">
    <rdf:RDF>
      <cc:Work
         rdf:about="">
        <dc:format>image/svg+xml</dc:format>
        <dc:type
           rdf:resource="http://purl.org/dc/dcmitype/StillImage" />
      </cc:Work>
    </rdf:RDF>
  </metadata>
  <defs
     id="defs12" />
  <sodipodi:namedview
     pagecolor="#ffffff"
     bordercolor="#666666"
     borderopacity="1"
     objecttolerance="10"
     gridtolerance="10"
     guidetolerance="10"
     inkscape:pageopacity="0"
     inkscape:pageshadow="2"
     inkscape:window-width="689"
     inkscape:window-height="480"
     id="namedview10"
     showgrid="false"
     inkscape:zoom="1.3027344"
     inkscape:cx="256"
     inkscape:cy="256"
     inkscape:window-x="44"
     inkscape:window-y="25"
     inkscape:window-maximized="0"
     inkscape:current-layer="svg8" />
  <title
     id="title2">Backspace</title>
  <path
     style="color:#000000;font-style:normal;font-variant:normal;font-weight:normal;font-stretch:normal;font-size:medium;line-height:normal;font-family:sans-serif;font-variant-ligatures:normal;font-variant-position:normal;font-variant-caps:normal;font-variant-numeric:normal;font-variant-alternates:normal;font-variant-east-asian:normal;font-feature-settings:normal;font-variation-settings:normal;text-indent:0;text-align:start;text-decoration:none;text-decoration-line:none;text-decoration-style:solid;text-decoration-color:#000000;letter-spacing:normal;word-spacing:normal;text-transform:none;writing-mode:lr-tb;direction:ltr;text-orientation:mixed;dominant-baseline:auto;baseline-shift:baseline;text-anchor:start;white-space:normal;shape-padding:0;shape-margin:0;inline-size:0;clip-rule:nonzero;display:inline;overflow:visible;visibility:visible;isolation:auto;mix-blend-mode:normal;color-interpolation:sRGB;color-interpolation-filters:linearRGB;solid-color:#000000;solid-opacity:1;vector-effect:none;fill:currentColor;fill-opacity:1;fill-rule:nonzero;stroke:none;stroke-linecap:butt;stroke-linejoin:round;stroke-miterlimit:4;stroke-dasharray:none;stroke-dashoffset:0;stroke-opacity:1;color-rendering:auto;image-rendering:auto;shape-rendering:auto;text-rendering:auto;enable-background:accumulate;stop-color:#000000;stop-opacity:1;opacity:1"
     d="M 156.85547 96 C 143.95519 96.011936 131.6609 101.59379 123.16211 111.29883 A 16.0016 16.0016 0 0 0 121.86133 113.00391 L 32.990234 247.16406 A 16.0016 16.0016 0 0 0 32.992188 264.83789 L 119.18945 394.92969 L 119.18945 390.14062 A 16.0016 16.0016 0 0 0 123.13477 400.66016 C 131.63039 410.39511 143.94256 415.99486 156.86328 416 A 16.0016 16.0016 0 0 0 156.86914 416 L 403.13086 416 A 16.0016 16.0016 0 0 0 403.20117 416 C 427.7124 415.89037 447.89037 395.7124 448 371.20117 A 16.0016 16.0016 0 0 0 448 371.13086 L 448 140.86914 A 16.0016 16.0016 0 0 0 448 140.79883 C 447.89037 116.2876 427.7124 96.109634 403.20117 96 A 16.0016 16.0016 0 0 0 403.13086 96 L 156.86914 96 A 16.0016 16.0016 0 0 0 156.85547 96 z M 156.88477 128 L 403.05859 128 C 410.37713 128.03273 415.96727 133.62287 416 140.94141 L 416 371.05859 C 415.96727 378.37713 410.37713 383.96727 403.05859 384 L 156.87695 384 L 156.86914 384 C 153.39316 383.9965 150.13131 382.54881 147.72852 380.06641 L 65.523438 255.99805 L 147.68164 131.9707 C 150.09632 129.46263 153.38342 128.00324 156.88477 128 z "
     id="path4" />
  <path
     style="color:#000000;font-style:normal;font-variant:normal;font-weight:normal;font-stretch:normal;font-size:medium;line-height:normal;font-family:sans-serif;font-variant-ligatures:normal;font-variant-position:normal;font-variant-caps:normal;font-variant-numeric:normal;font-variant-alternates:normal;font-variant-east-asian:normal;font-feature-settings:normal;font-variation-settings:normal;text-indent:0;text-align:start;text-decoration:none;text-decoration-line:none;text-decoration-style:solid;text-decoration-color:#000000;letter-spacing:normal;word-spacing:normal;text-transform:none;writing-mode:lr-tb;direction:ltr;text-orientation:mixed;dominant-baseline:auto;baseline-shift:baseline;text-anchor:start;white-space:normal;shape-padding:0;shape-margin:0;inline-size:0;clip-rule:nonzero;display:inline;overflow:visible;visibility:visible;isolation:auto;mix-blend-mode:normal;color-interpolation:sRGB;color-interpolation-filters:linearRGB;solid-color:#000000;solid-opacity:1;vector-effect:none;fill:currentColor;fill-opacity:1;fill-rule:nonzero;stroke:none;stroke-linecap:round;stroke-linejoin:round;stroke-miterlimit:4;stroke-dasharray:none;stroke-dashoffset:0;stroke-opacity:1;color-rendering:auto;image-rendering:auto;shape-rendering:auto;text-rendering:auto;enable-background:accumulate;stop-color:#000000;stop-opacity:1;opacity:1"
     d="M 206.78125 176.33008 A 16 16 0 0 0 206.10938 176.33984 A 16 16 0 0 0 205.77344 176.35547 A 16 16 0 0 0 205.10156 176.40625 A 16 16 0 0 0 204.76758 176.44141 A 16 16 0 0 0 202.7832 176.80664 A 16 16 0 0 0 202.13477 176.98242 A 16 16 0 0 0 201.8125 177.08203 A 16 16 0 0 0 201.49414 177.1875 A 16 16 0 0 0 201.17578 177.29883 A 16 16 0 0 0 199.62891 177.95703 A 16 16 0 0 0 198.16016 178.77344 A 16 16 0 0 0 197.87695 178.95508 A 16 16 0 0 0 197.59766 179.14258 A 16 16 0 0 0 197.32227 179.33594 A 16 16 0 0 0 197.05273 179.53516 A 16 16 0 0 0 196.52344 179.95117 A 16 16 0 0 0 195.3457 181.01562 A 16 16 0 0 0 194.88086 181.50195 A 16 16 0 0 0 194.43555 182.00586 A 16 16 0 0 0 194.22266 182.26562 A 16 16 0 0 0 194.01367 182.5293 A 16 16 0 0 0 193.61133 183.07031 A 16 16 0 0 0 193.41992 183.3457 A 16 16 0 0 0 193.05469 183.91016 A 16 16 0 0 0 192.71289 184.49023 A 16 16 0 0 0 192.55078 184.78516 A 16 16 0 0 0 192.39453 185.08203 A 16 16 0 0 0 192.24609 185.38477 A 16 16 0 0 0 191.9668 185.99609 A 16 16 0 0 0 191.71289 186.61914 A 16 16 0 0 0 191.59766 186.93555 A 16 16 0 0 0 191.48633 187.25195 A 16 16 0 0 0 191.38281 187.57227 A 16 16 0 0 0 191.03711 188.87305 A 16 16 0 0 0 190.85156 189.86328 A 16 16 0 0 0 190.69922 191.20117 A 16 16 0 0 0 190.67969 191.53711 A 16 16 0 0 0 190.66602 191.87305 A 16 16 0 0 0 190.66211 192.54492 A 16 16 0 0 0 190.73633 193.88867 A 16 16 0 0 0 190.81641 194.55664 A 16 16 0 0 0 190.86523 194.88867 A 16 16 0 0 0 191.2207 196.53125 A 16 16 0 0 0 191.41211 197.17773 A 16 16 0 0 0 191.62891 197.81445 A 16 16 0 0 0 191.74805 198.12891 A 16 16 0 0 0 192.00391 198.75 A 16 16 0 0 0 192.4375 199.66016 A 16 16 0 0 0 192.75977 200.25195 A 16 16 0 0 0 192.92773 200.54297 A 16 16 0 0 0 193.28516 201.11328 A 16 16 0 0 0 193.66602 201.66602 A 16 16 0 0 0 194.28125 202.4668 A 16 16 0 0 0 194.71875 202.97852 A 16 16 0 0 0 194.94531 203.22656 A 16 16 0 0 0 195.17578 203.4707 A 16 16 0 0 0 195.3457 203.64453 L 249.03516 257.33594 L 195.3457 311.02539 A 16 16 0 0 0 194.88086 311.51172 A 16 16 0 0 0 194.01367 312.53906 A 16 16 0 0 0 193.61133 313.08008 A 16 16 0 0 0 193.41992 313.35547 A 16 16 0 0 0 193.05469 313.91992 A 16 16 0 0 0 192.71289 314.5 A 16 16 0 0 0 192.55078 314.79492 A 16 16 0 0 0 192.10352 315.69922 A 16 16 0 0 0 191.71289 316.62891 A 16 16 0 0 0 191.59766 316.94531 A 16 16 0 0 0 191.48633 317.26367 A 16 16 0 0 0 191.28711 317.9043 A 16 16 0 0 0 191.19727 318.22852 A 16 16 0 0 0 191.11328 318.55469 A 16 16 0 0 0 190.96875 319.21289 A 16 16 0 0 0 190.90625 319.54297 A 16 16 0 0 0 190.85156 319.875 A 16 16 0 0 0 190.67969 321.54688 A 16 16 0 0 0 190.66211 322.55469 A 16 16 0 0 0 190.68555 323.22656 A 16 16 0 0 0 190.77148 324.23242 A 16 16 0 0 0 190.81641 324.56641 A 16 16 0 0 0 190.98828 325.56055 A 16 16 0 0 0 191.05859 325.88867 A 16 16 0 0 0 191.62891 327.82422 A 16 16 0 0 0 191.74805 328.13867 A 16 16 0 0 0 191.87305 328.45117 A 16 16 0 0 0 192.00391 328.75977 A 16 16 0 0 0 192.14258 329.06641 A 16 16 0 0 0 192.75977 330.26172 A 16 16 0 0 0 193.47266 331.40234 A 16 16 0 0 0 193.66602 331.67773 A 16 16 0 0 0 194.28125 332.47656 A 16 16 0 0 0 195.17578 333.48047 A 16 16 0 0 0 195.3457 333.6543 A 16 16 0 0 0 195.58594 333.88867 A 16 16 0 0 0 196.08203 334.34375 A 16 16 0 0 0 196.33594 334.56445 A 16 16 0 0 0 196.5957 334.77734 A 16 16 0 0 0 197.12695 335.18945 A 16 16 0 0 0 197.40039 335.38867 A 16 16 0 0 0 197.95703 335.76562 A 16 16 0 0 0 198.52734 336.11914 A 16 16 0 0 0 198.82031 336.28711 A 16 16 0 0 0 199.41211 336.60547 A 16 16 0 0 0 200.94922 337.28711 A 16 16 0 0 0 201.90234 337.61719 A 16 16 0 0 0 202.22461 337.71289 A 16 16 0 0 0 203.20312 337.96289 A 16 16 0 0 0 203.86328 338.09375 A 16 16 0 0 0 205.53125 338.30078 A 16 16 0 0 0 206.20312 338.33398 A 16 16 0 0 0 207.21094 338.33008 A 16 16 0 0 0 207.54688 338.31445 A 16 16 0 0 0 207.88281 338.29297 A 16 16 0 0 0 208.55273 338.22852 A 16 16 0 0 0 209.55078 338.07617 A 16 16 0 0 0 209.88086 338.01172 A 16 16 0 0 0 210.86133 337.7793 A 16 16 0 0 0 211.18555 337.6875 A 16 16 0 0 0 211.82617 337.48242 A 16 16 0 0 0 213.38672 336.85742 A 16 16 0 0 0 213.68945 336.71289 A 16 16 0 0 0 213.99023 336.5625 A 16 16 0 0 0 214.28906 336.4043 A 16 16 0 0 0 214.58203 336.24023 A 16 16 0 0 0 214.87305 336.07227 A 16 16 0 0 0 215.16016 335.89648 A 16 16 0 0 0 215.44336 335.71484 A 16 16 0 0 0 217.30859 334.28125 A 16 16 0 0 0 217.55664 334.05469 A 16 16 0 0 0 217.80078 333.82422 A 16 16 0 0 0 217.97461 333.6543 L 271.66406 279.96484 L 325.35547 333.6543 A 16 16 0 0 0 326.60547 334.77734 A 16 16 0 0 0 326.86914 334.98633 A 16 16 0 0 0 327.13672 335.18945 A 16 16 0 0 0 327.68555 335.58008 A 16 16 0 0 0 329.42383 336.60547 A 16 16 0 0 0 330.64648 337.16211 A 16 16 0 0 0 331.27539 337.40234 A 16 16 0 0 0 331.59375 337.51367 A 16 16 0 0 0 331.91211 337.61719 A 16 16 0 0 0 332.23438 337.71289 A 16 16 0 0 0 332.88477 337.88672 A 16 16 0 0 0 333.87305 338.09375 A 16 16 0 0 0 334.20508 338.14844 A 16 16 0 0 0 334.53711 338.19727 A 16 16 0 0 0 335.20508 338.27344 A 16 16 0 0 0 336.21289 338.33398 A 16 16 0 0 0 336.88477 338.33789 A 16 16 0 0 0 337.2207 338.33008 A 16 16 0 0 0 337.55664 338.31445 A 16 16 0 0 0 337.89258 338.29297 A 16 16 0 0 0 338.5625 338.22852 A 16 16 0 0 0 339.22852 338.13477 A 16 16 0 0 0 339.89062 338.01172 A 16 16 0 0 0 340.21875 337.94141 A 16 16 0 0 0 340.54688 337.86328 A 16 16 0 0 0 340.87109 337.7793 A 16 16 0 0 0 341.51758 337.58789 A 16 16 0 0 0 342.1543 337.37109 A 16 16 0 0 0 343.08984 336.99609 A 16 16 0 0 0 343.39648 336.85742 A 16 16 0 0 0 343.70117 336.71289 A 16 16 0 0 0 345.45312 335.71484 A 16 16 0 0 0 346.00781 335.33398 A 16 16 0 0 0 346.27734 335.13477 A 16 16 0 0 0 346.54492 334.92969 A 16 16 0 0 0 347.06445 334.50391 A 16 16 0 0 0 347.81055 333.82422 A 16 16 0 0 0 347.98438 333.6543 A 16 16 0 0 0 348.44922 333.16797 A 16 16 0 0 0 348.67383 332.91797 A 16 16 0 0 0 348.89453 332.66406 A 16 16 0 0 0 349.10742 332.4043 A 16 16 0 0 0 349.91016 331.32422 A 16 16 0 0 0 350.44922 330.47266 A 16 16 0 0 0 350.7793 329.88477 A 16 16 0 0 0 350.93555 329.58789 A 16 16 0 0 0 351.08398 329.28516 A 16 16 0 0 0 351.22656 328.98047 A 16 16 0 0 0 351.49219 328.36328 A 16 16 0 0 0 351.73242 327.73438 A 16 16 0 0 0 351.94727 327.09766 A 16 16 0 0 0 352.29297 325.79688 A 16 16 0 0 0 352.42383 325.13672 A 16 16 0 0 0 352.52734 324.47266 A 16 16 0 0 0 352.65039 323.13281 A 16 16 0 0 0 352.66992 322.46094 A 16 16 0 0 0 352.66797 322.125 A 16 16 0 0 0 352.66016 321.78906 A 16 16 0 0 0 352.64453 321.45312 A 16 16 0 0 0 352.62305 321.11719 A 16 16 0 0 0 352.55859 320.44727 A 16 16 0 0 0 352.46484 319.78125 A 16 16 0 0 0 352.27148 318.79102 A 16 16 0 0 0 352.19336 318.46289 A 16 16 0 0 0 352.10938 318.13867 A 16 16 0 0 0 351.8125 317.17383 A 16 16 0 0 0 351.70117 316.85742 A 16 16 0 0 0 351.04297 315.31055 A 16 16 0 0 0 350.89258 315.00977 A 16 16 0 0 0 350.73438 314.71094 A 16 16 0 0 0 350.57031 314.41797 A 16 16 0 0 0 349.66406 313.00391 A 16 16 0 0 0 349.46484 312.73242 A 16 16 0 0 0 349.25977 312.46484 A 16 16 0 0 0 348.83398 311.94531 A 16 16 0 0 0 348.38477 311.44336 A 16 16 0 0 0 348.1543 311.19922 A 16 16 0 0 0 347.98438 311.02539 L 294.29297 257.33594 L 347.98438 203.64453 A 16 16 0 0 0 348.67383 202.9082 A 16 16 0 0 0 348.89453 202.6543 A 16 16 0 0 0 349.10742 202.39453 A 16 16 0 0 0 349.31641 202.13086 A 16 16 0 0 0 349.51953 201.86328 A 16 16 0 0 0 350.44922 200.46094 A 16 16 0 0 0 350.61719 200.16992 A 16 16 0 0 0 350.7793 199.875 A 16 16 0 0 0 350.93555 199.57617 A 16 16 0 0 0 351.08398 199.27539 A 16 16 0 0 0 351.61719 198.04102 A 16 16 0 0 0 351.73242 197.72461 A 16 16 0 0 0 352.2168 196.11523 A 16 16 0 0 0 352.47852 194.79492 A 16 16 0 0 0 352.56836 194.12891 A 16 16 0 0 0 352.60352 193.79492 A 16 16 0 0 0 352.66797 192.11523 A 16 16 0 0 0 352.64453 191.44336 A 16 16 0 0 0 352.59375 190.77148 A 16 16 0 0 0 352.55859 190.4375 A 16 16 0 0 0 352.27148 188.78125 A 16 16 0 0 0 351.91797 187.48242 A 16 16 0 0 0 351.70117 186.8457 A 16 16 0 0 0 351.32617 185.91016 A 16 16 0 0 0 351.1875 185.60352 A 16 16 0 0 0 351.04297 185.29883 A 16 16 0 0 0 349.66406 182.99219 A 16 16 0 0 0 349.25977 182.45508 A 16 16 0 0 0 348.83398 181.93555 A 16 16 0 0 0 348.38477 181.43359 A 16 16 0 0 0 347.98438 181.01562 A 16 16 0 0 0 347.74414 180.78125 A 16 16 0 0 0 347.49805 180.55078 A 16 16 0 0 0 347.24805 180.32617 A 16 16 0 0 0 346.99414 180.10547 A 16 16 0 0 0 346.73438 179.89258 A 16 16 0 0 0 346.20312 179.48047 A 16 16 0 0 0 345.6543 179.08984 A 16 16 0 0 0 344.80078 178.55078 A 16 16 0 0 0 344.50977 178.38281 A 16 16 0 0 0 342.38086 177.38281 A 16 16 0 0 0 342.06445 177.26758 A 16 16 0 0 0 341.74805 177.15625 A 16 16 0 0 0 341.42773 177.05273 A 16 16 0 0 0 341.10547 176.95703 A 16 16 0 0 0 340.45508 176.7832 A 16 16 0 0 0 339.79883 176.63867 A 16 16 0 0 0 338.80273 176.47266 A 16 16 0 0 0 338.46875 176.43164 A 16 16 0 0 0 338.13477 176.39648 A 16 16 0 0 0 337.79883 176.36914 A 16 16 0 0 0 336.45508 176.33203 A 16 16 0 0 0 335.7832 176.35547 A 16 16 0 0 0 335.11133 176.40625 A 16 16 0 0 0 334.11133 176.53516 A 16 16 0 0 0 333.7793 176.59375 A 16 16 0 0 0 332.14453 176.98242 A 16 16 0 0 0 331.18555 177.29883 A 16 16 0 0 0 330.55859 177.54297 A 16 16 0 0 0 329.64062 177.95703 A 16 16 0 0 0 329.33984 178.10742 A 16 16 0 0 0 329.04102 178.26562 A 16 16 0 0 0 328.45703 178.59766 A 16 16 0 0 0 327.33398 179.33594 A 16 16 0 0 0 326.79492 179.74023 A 16 16 0 0 0 326.5332 179.95117 A 16 16 0 0 0 326.27539 180.16602 A 16 16 0 0 0 326.02148 180.38867 A 16 16 0 0 0 325.77344 180.61523 A 16 16 0 0 0 325.5293 180.8457 A 16 16 0 0 0 325.35547 181.01562 L 271.66406 234.70703 L 217.97461 181.01562 A 16 16 0 0 0 217.73242 180.78125 A 16 16 0 0 0 217.23828 180.32617 A 16 16 0 0 0 216.98438 180.10547 A 16 16 0 0 0 216.72461 179.89258 A 16 16 0 0 0 216.19336 179.48047 A 16 16 0 0 0 215.91992 179.28125 A 16 16 0 0 0 214.79102 178.55078 A 16 16 0 0 0 213.60547 177.91602 A 16 16 0 0 0 213.30078 177.77344 A 16 16 0 0 0 212.05469 177.26758 A 16 16 0 0 0 211.0957 176.95703 A 16 16 0 0 0 210.77148 176.86719 A 16 16 0 0 0 210.44531 176.7832 A 16 16 0 0 0 210.11719 176.70703 A 16 16 0 0 0 209.78711 176.63867 A 16 16 0 0 0 208.45898 176.43164 A 16 16 0 0 0 208.125 176.39648 A 16 16 0 0 0 207.11719 176.33594 A 16 16 0 0 0 206.78125 176.33008 z "
     id="path6" />
</svg>
