<?xml version="1.0" encoding="UTF-8" standalone="no"?>
<svg
   xmlns:dc="http://purl.org/dc/elements/1.1/"
   xmlns:cc="http://creativecommons.org/ns#"
   xmlns:rdf="http://www.w3.org/1999/02/22-rdf-syntax-ns#"
   xmlns:svg="http://www.w3.org/2000/svg"
   xmlns="http://www.w3.org/2000/svg"
   xmlns:sodipodi="http://sodipodi.sourceforge.net/DTD/sodipodi-0.dtd"
   xmlns:inkscape="http://www.inkscape.org/namespaces/inkscape"
   class="ionicon"
   viewBox="0 0 512 512"
   version="1.1"
   id="svg6"
   sodipodi:docname="backspace.svg"
   inkscape:version="1.0.2 (e86c8708, 2021-01-15)">
  <metadata
     id="metadata12">
    <rdf:RDF>
      <cc:Work
         rdf:about="">
        <dc:format>image/svg+xml</dc:format>
        <dc:type
           rdf:resource="http://purl.org/dc/dcmitype/StillImage" />
      </cc:Work>
    </rdf:RDF>
  </metadata>
  <defs
     id="defs10" />
  <sodipodi:namedview
     pagecolor="#ffffff"
     bordercolor="#666666"
     borderopacity="1"
     objecttolerance="10"
     gridtolerance="10"
     guidetolerance="10"
     inkscape:pageopacity="0"
     inkscape:pageshadow="2"
     inkscape:window-width="689"
     inkscape:window-height="480"
     id="namedview8"
     showgrid="false"
     inkscape:zoom="1.3027344"
     inkscape:cx="256"
     inkscape:cy="256"
     inkscape:window-x="44"
     inkscape:window-y="25"
     inkscape:window-maximized="0"
     inkscape:current-layer="svg6" />
  <title
     id="title2">Backspace</title>
  <path
     style="color:#000000;font-style:normal;font-variant:normal;font-weight:normal;font-stretch:normal;font-size:medium;line-height:normal;font-family:sans-serif;font-variant-ligatures:normal;font-variant-position:normal;font-variant-caps:normal;font-variant-numeric:normal;font-variant-alternates:normal;font-variant-east-asian:normal;font-feature-settings:normal;font-variation-settings:normal;text-indent:0;text-align:start;text-decoration:none;text-decoration-line:none;text-decoration-style:solid;text-decoration-color:#000000;letter-spacing:normal;word-spacing:normal;text-transform:none;writing-mode:lr-tb;direction:ltr;text-orientation:mixed;dominant-baseline:auto;baseline-shift:baseline;text-anchor:start;white-space:normal;shape-padding:0;shape-margin:0;inline-size:0;clip-rule:nonzero;display:inline;overflow:visible;visibility:visible;isolation:auto;mix-blend-mode:normal;color-interpolation:sRGB;color-interpolation-filters:linearRGB;solid-color:#000000;solid-opacity:1;vector-effect:none;fill:#000000;fill-opacity:1;fill-rule:nonzero;stroke-width:1;stroke-linecap:butt;stroke-linejoin:miter;stroke-miterlimit:4;stroke-dasharray:none;stroke-dashoffset:0;stroke-opacity:1;color-rendering:auto;image-rendering:auto;shape-rendering:auto;text-rendering:auto;enable-background:accumulate;stop-color:#000000;stop-opacity:1;stroke:none;opacity:1"
     d="M 403.13,96 H 156.87 c -12.89887,0.01591 -25.1679,5.57849 -33.68,15.27 -0.72891,0.83107 -1.36904,1.73597 -1.91,2.7 L 32,247.75 c -3.054627,5.07588 -3.054627,11.42412 0,16.5 l 89.15,133.57 c 0.56077,1.02937 1.23135,1.99499 2,2.88 8.51042,9.70895 20.78913,15.28356 33.7,15.3 h 246.28 c 24.76959,-0.0276 44.84244,-20.10041 44.87,-44.87 V 140.87 C 447.97244,116.10041 427.89959,96.027555 403.13,96 Z M 348,311 c 6.40327,6.22154 6.47596,16.47992 0.16151,22.79158 -6.31446,6.31166 -16.5728,6.23444 -22.79151,-0.17158 L 271.67,280 218,333.65 c -6.25463,6.25463 -16.39537,6.25462 -22.65,0 -6.25462,-6.25463 -6.25463,-16.39537 0,-22.65 L 249,257.33 195.31,203.64 c -6.25187,-6.26567 -6.24067,-16.41313 0.025,-22.66499 6.26567,-6.25187 16.41312,-6.24068 22.66499,0.025 l 53.69,53.7 53.67,-53.7 c 6.25187,-6.25187 16.38813,-6.25186 22.64,0 6.25186,6.25187 6.25187,16.38813 0,22.64 l -53.7,53.69 z"
     id="path4" />
</svg>
