<?xml version="1.0" encoding="UTF-8" standalone="no"?>
<svg
   xmlns:dc="http://purl.org/dc/elements/1.1/"
   xmlns:cc="http://creativecommons.org/ns#"
   xmlns:rdf="http://www.w3.org/1999/02/22-rdf-syntax-ns#"
   xmlns:svg="http://www.w3.org/2000/svg"
   xmlns="http://www.w3.org/2000/svg"
   xmlns:sodipodi="http://sodipodi.sourceforge.net/DTD/sodipodi-0.dtd"
   xmlns:inkscape="http://www.inkscape.org/namespaces/inkscape"
   class="ionicon"
   viewBox="0 0 512 512"
   version="1.1"
   id="svg10"
   sodipodi:docname="balloon-outline.svg"
   inkscape:version="1.0.2 (e86c8708, 2021-01-15)">
  <metadata
     id="metadata16">
    <rdf:RDF>
      <cc:Work
         rdf:about="">
        <dc:format>image/svg+xml</dc:format>
        <dc:type
           rdf:resource="http://purl.org/dc/dcmitype/StillImage" />
      </cc:Work>
    </rdf:RDF>
  </metadata>
  <defs
     id="defs14" />
  <sodipodi:namedview
     pagecolor="#ffffff"
     bordercolor="#666666"
     borderopacity="1"
     objecttolerance="10"
     gridtolerance="10"
     guidetolerance="10"
     inkscape:pageopacity="0"
     inkscape:pageshadow="2"
     inkscape:window-width="689"
     inkscape:window-height="480"
     id="namedview12"
     showgrid="false"
     inkscape:zoom="1.3027344"
     inkscape:cx="256"
     inkscape:cy="256"
     inkscape:window-x="44"
     inkscape:window-y="25"
     inkscape:window-maximized="0"
     inkscape:current-layer="svg10" />
  <title
     id="title2">Balloon</title>
  <path
     style="color:#000000;font-style:normal;font-variant:normal;font-weight:normal;font-stretch:normal;font-size:medium;line-height:normal;font-family:sans-serif;font-variant-ligatures:normal;font-variant-position:normal;font-variant-caps:normal;font-variant-numeric:normal;font-variant-alternates:normal;font-variant-east-asian:normal;font-feature-settings:normal;font-variation-settings:normal;text-indent:0;text-align:start;text-decoration:none;text-decoration-line:none;text-decoration-style:solid;text-decoration-color:#000000;letter-spacing:normal;word-spacing:normal;text-transform:none;writing-mode:lr-tb;direction:ltr;text-orientation:mixed;dominant-baseline:auto;baseline-shift:baseline;text-anchor:start;white-space:normal;shape-padding:0;shape-margin:0;inline-size:0;clip-rule:nonzero;display:inline;overflow:visible;visibility:visible;isolation:auto;mix-blend-mode:normal;color-interpolation:sRGB;color-interpolation-filters:linearRGB;solid-color:#000000;solid-opacity:1;vector-effect:none;fill:currentColor;fill-opacity:1;fill-rule:nonzero;stroke:none;stroke-linecap:butt;stroke-linejoin:miter;stroke-miterlimit:10;stroke-dasharray:none;stroke-dashoffset:0;stroke-opacity:1;color-rendering:auto;image-rendering:auto;shape-rendering:auto;text-rendering:auto;enable-background:accumulate;stop-color:#000000;stop-opacity:1;opacity:1"
     d="M 249.23047 0.36914062 C 243.30263 0.5948248 237.33212 1.1217731 231.33398 1.9648438 C 135.36378 15.453974 68.206172 104.5766 81.695312 200.54688 L 81.695312 200.54883 L 81.697266 200.55078 C 90.098225 260.1911 122.96596 307.83175 162.09375 339.28906 C 201.22154 370.74637 246.46 387.23528 284.76953 381.84375 C 323.04168 376.45748 362.01309 348.24873 390.96484 307.26758 C 419.91659 266.28643 438.36789 211.41745 429.95508 151.5918 L 427.47852 133.98633 L 426.56445 134.21484 C 406.81695 53.435228 332.30619 -2.7937094 249.23047 0.36914062 z M 250.48242 32.335938 C 323.45529 29.496319 387.83716 82.139885 398.22656 156.05664 L 398.43359 157.5332 C 405.05932 207.71205 389.47939 253.91364 364.83008 288.80469 C 339.93683 324.04104 305.3484 346.63252 280.31055 350.15625 C 255.31008 353.67472 215.80924 341.4148 182.14453 314.34961 C 148.48118 287.28551 120.5052 246.63061 113.38477 196.09375 C 102.30274 117.24921 156.94262 44.736315 235.78711 33.654297 C 240.71489 32.961671 245.61756 32.525245 250.48242 32.335938 z "
     id="path4" />
  <path
     style="color:#000000;font-style:normal;font-variant:normal;font-weight:normal;font-stretch:normal;font-size:medium;line-height:normal;font-family:sans-serif;font-variant-ligatures:normal;font-variant-position:normal;font-variant-caps:normal;font-variant-numeric:normal;font-variant-alternates:normal;font-variant-east-asian:normal;font-feature-settings:normal;font-variation-settings:normal;text-indent:0;text-align:start;text-decoration:none;text-decoration-line:none;text-decoration-style:solid;text-decoration-color:#000000;letter-spacing:normal;word-spacing:normal;text-transform:none;writing-mode:lr-tb;direction:ltr;text-orientation:mixed;dominant-baseline:auto;baseline-shift:baseline;text-anchor:start;white-space:normal;shape-padding:0;shape-margin:0;inline-size:0;clip-rule:nonzero;display:inline;overflow:visible;visibility:visible;isolation:auto;mix-blend-mode:normal;color-interpolation:sRGB;color-interpolation-filters:linearRGB;solid-color:#000000;solid-opacity:1;vector-effect:none;fill:currentColor;fill-opacity:1;fill-rule:nonzero;stroke:none;stroke-linecap:round;stroke-linejoin:miter;stroke-miterlimit:10;stroke-dasharray:none;stroke-dashoffset:0;stroke-opacity:1;color-rendering:auto;image-rendering:auto;shape-rendering:auto;text-rendering:auto;enable-background:accumulate;stop-color:#000000;stop-opacity:1;opacity:1"
     d="M 153.9043 206.58984 A 16 16 0 0 0 148.38867 207.5293 A 16 16 0 0 0 138.72852 227.99023 C 155.68509 275.27663 193.02129 308.21569 230.16992 322.92578 A 16 16 0 0 0 250.93555 313.94141 A 16 16 0 0 0 241.95117 293.17383 C 213.4398 281.88392 182.27499 254.62305 168.85156 217.18945 A 16 16 0 0 0 153.9043 206.58984 z M 288.97656 397.37109 A 16 16 0 0 0 283.79883 398.30859 A 16 16 0 0 0 274.13867 418.77148 C 290.89385 465.48524 325.06399 496.10615 361.80859 510.65625 A 16 16 0 0 0 382.57617 501.66992 A 16 16 0 0 0 373.58984 480.9043 C 344.67445 469.4544 317.88458 445.95499 304.25977 407.96875 A 16 16 0 0 0 288.97656 397.37109 z "
     id="path6" />
  <path
     style="color:#000000;font-style:normal;font-variant:normal;font-weight:normal;font-stretch:normal;font-size:medium;line-height:normal;font-family:sans-serif;font-variant-ligatures:normal;font-variant-position:normal;font-variant-caps:normal;font-variant-numeric:normal;font-variant-alternates:normal;font-variant-east-asian:normal;font-feature-settings:normal;font-variation-settings:normal;text-indent:0;text-align:start;text-decoration:none;text-decoration-line:none;text-decoration-style:solid;text-decoration-color:#000000;letter-spacing:normal;word-spacing:normal;text-transform:none;writing-mode:lr-tb;direction:ltr;text-orientation:mixed;dominant-baseline:auto;baseline-shift:baseline;text-anchor:start;white-space:normal;shape-padding:0;shape-margin:0;inline-size:0;clip-rule:nonzero;display:inline;overflow:visible;visibility:visible;isolation:auto;mix-blend-mode:normal;color-interpolation:sRGB;color-interpolation-filters:linearRGB;solid-color:#000000;solid-opacity:1;vector-effect:none;fill:currentColor;fill-opacity:1;fill-rule:nonzero;stroke:none;stroke-linecap:round;stroke-linejoin:round;stroke-miterlimit:4;stroke-dasharray:none;stroke-dashoffset:0;stroke-opacity:1;color-rendering:auto;image-rendering:auto;shape-rendering:auto;text-rendering:auto;enable-background:accumulate;stop-color:#000000;stop-opacity:1;opacity:1"
     d="M 298.27148 347.75977 A 16.0016 16.0016 0 0 0 296.13281 347.91602 L 264.48242 352.36523 A 16.0016 16.0016 0 0 0 250.97656 365.30273 L 241.80664 414.91211 A 16.0016 16.0016 0 0 0 259.76758 433.66406 L 323.07812 424.76367 A 16.0016 16.0016 0 0 0 335.17188 401.78711 L 312.68164 356.62695 A 16.0016 16.0016 0 0 0 298.27148 347.75977 z M 289.17578 381.20898 L 296.625 396.16797 L 277.31055 398.88477 L 280.34961 382.44922 L 289.17578 381.20898 z "
     id="path8" />
</svg>
