<?xml version="1.0" encoding="UTF-8" standalone="no"?>
<svg
   xmlns:dc="http://purl.org/dc/elements/1.1/"
   xmlns:cc="http://creativecommons.org/ns#"
   xmlns:rdf="http://www.w3.org/1999/02/22-rdf-syntax-ns#"
   xmlns:svg="http://www.w3.org/2000/svg"
   xmlns="http://www.w3.org/2000/svg"
   xmlns:sodipodi="http://sodipodi.sourceforge.net/DTD/sodipodi-0.dtd"
   xmlns:inkscape="http://www.inkscape.org/namespaces/inkscape"
   class="ionicon"
   viewBox="0 0 512 512"
   version="1.1"
   id="svg6"
   sodipodi:docname="bandage-sharp.svg"
   inkscape:version="1.0.2 (e86c8708, 2021-01-15)">
  <metadata
     id="metadata12">
    <rdf:RDF>
      <cc:Work
         rdf:about="">
        <dc:format>image/svg+xml</dc:format>
        <dc:type
           rdf:resource="http://purl.org/dc/dcmitype/StillImage" />
      </cc:Work>
    </rdf:RDF>
  </metadata>
  <defs
     id="defs10" />
  <sodipodi:namedview
     pagecolor="#ffffff"
     bordercolor="#666666"
     borderopacity="1"
     objecttolerance="10"
     gridtolerance="10"
     guidetolerance="10"
     inkscape:pageopacity="0"
     inkscape:pageshadow="2"
     inkscape:window-width="689"
     inkscape:window-height="480"
     id="namedview8"
     showgrid="false"
     inkscape:zoom="1.3027344"
     inkscape:cx="256"
     inkscape:cy="256"
     inkscape:window-x="44"
     inkscape:window-y="25"
     inkscape:window-maximized="0"
     inkscape:current-layer="svg6" />
  <title
     id="title2">Bandage</title>
  <path
     style="color:#000000;font-style:normal;font-variant:normal;font-weight:normal;font-stretch:normal;font-size:medium;line-height:normal;font-family:sans-serif;font-variant-ligatures:normal;font-variant-position:normal;font-variant-caps:normal;font-variant-numeric:normal;font-variant-alternates:normal;font-variant-east-asian:normal;font-feature-settings:normal;font-variation-settings:normal;text-indent:0;text-align:start;text-decoration:none;text-decoration-line:none;text-decoration-style:solid;text-decoration-color:#000000;letter-spacing:normal;word-spacing:normal;text-transform:none;writing-mode:lr-tb;direction:ltr;text-orientation:mixed;dominant-baseline:auto;baseline-shift:baseline;text-anchor:start;white-space:normal;shape-padding:0;shape-margin:0;inline-size:0;clip-rule:nonzero;display:inline;overflow:visible;visibility:visible;isolation:auto;mix-blend-mode:normal;color-interpolation:sRGB;color-interpolation-filters:linearRGB;solid-color:#000000;solid-opacity:1;vector-effect:none;fill:#000000;fill-opacity:1;fill-rule:nonzero;stroke-width:1;stroke-linecap:butt;stroke-linejoin:miter;stroke-miterlimit:4;stroke-dasharray:none;stroke-dashoffset:0;stroke-opacity:1;color-rendering:auto;image-rendering:auto;shape-rendering:auto;text-rendering:auto;enable-background:accumulate;stop-color:#000000;stop-opacity:1;stroke:none;opacity:1"
     d="m 27.71,337.1 c -15.601953,15.6177 -15.601953,40.9223 0,56.54 l 90.65,90.65 c 15.6177,15.60195 40.9223,15.60195 56.54,0 L 250,409.19 102.81,262 Z M 496,147.1 c 0.0308,-10.64961 -4.20024,-20.86893 -11.75,-28.38 l -91,-91 c -15.67375,-15.664627 -41.07625,-15.664627 -56.75,0 L 264,100.28 411.72,248 484.25,175.47 c 7.54918,-7.50737 11.78036,-17.72341 11.75,-28.37 z m -222.94,239.09 116,-116 L 241.77,123 l -116,116 z m 19.63,-141.5 c 10.07862,-10.08523 27.3166,-2.94627 27.3166,11.31 0,14.25627 -17.23798,21.39523 -27.3166,11.31 -6.24345,-6.24754 -6.24345,-16.37246 0,-22.62 z m -48,-48 c 10.07862,-10.08523 27.3166,-2.94627 27.3166,11.31 0,14.25627 -17.23798,21.39523 -27.3166,11.31 -6.24345,-6.24754 -6.24345,-16.37246 0,-22.62 z m 0,96 c 10.07862,-10.08523 27.3166,-2.94627 27.3166,11.31 0,14.25627 -17.23798,21.39523 -27.3166,11.31 -6.24345,-6.24754 -6.24345,-16.37246 0,-22.62 z m -25.38,-48 c 10.08523,10.07862 2.94627,27.3166 -11.31,27.3166 -14.25627,0 -21.39523,-17.23798 -11.31,-27.3166 6.24754,-6.24345 16.37246,-6.24345 22.62,0 z"
     id="path4" />
</svg>
