<?xml version="1.0" encoding="UTF-8" standalone="no"?>
<svg
   xmlns:dc="http://purl.org/dc/elements/1.1/"
   xmlns:cc="http://creativecommons.org/ns#"
   xmlns:rdf="http://www.w3.org/1999/02/22-rdf-syntax-ns#"
   xmlns:svg="http://www.w3.org/2000/svg"
   xmlns="http://www.w3.org/2000/svg"
   xmlns:sodipodi="http://sodipodi.sourceforge.net/DTD/sodipodi-0.dtd"
   xmlns:inkscape="http://www.inkscape.org/namespaces/inkscape"
   class="ionicon"
   viewBox="0 0 512 512"
   version="1.1"
   id="svg16"
   sodipodi:docname="bandage-outline.svg"
   inkscape:version="1.0.2 (e86c8708, 2021-01-15)">
  <metadata
     id="metadata22">
    <rdf:RDF>
      <cc:Work
         rdf:about="">
        <dc:format>image/svg+xml</dc:format>
        <dc:type
           rdf:resource="http://purl.org/dc/dcmitype/StillImage" />
      </cc:Work>
    </rdf:RDF>
  </metadata>
  <defs
     id="defs20" />
  <sodipodi:namedview
     pagecolor="#ffffff"
     bordercolor="#666666"
     borderopacity="1"
     objecttolerance="10"
     gridtolerance="10"
     guidetolerance="10"
     inkscape:pageopacity="0"
     inkscape:pageshadow="2"
     inkscape:window-width="776"
     inkscape:window-height="480"
     id="namedview18"
     showgrid="false"
     inkscape:zoom="0.3"
     inkscape:cx="256"
     inkscape:cy="256"
     inkscape:window-x="472"
     inkscape:window-y="1250"
     inkscape:window-maximized="0"
     inkscape:current-layer="svg16"
     inkscape:document-rotation="0" />
  <title
     id="title2">Bandage</title>
  <path
     id="rect4"
     style="color:#000000;font-style:normal;font-variant:normal;font-weight:normal;font-stretch:normal;font-size:medium;line-height:normal;font-family:sans-serif;font-variant-ligatures:normal;font-variant-position:normal;font-variant-caps:normal;font-variant-numeric:normal;font-variant-alternates:normal;font-variant-east-asian:normal;font-feature-settings:normal;font-variation-settings:normal;text-indent:0;text-align:start;text-decoration:none;text-decoration-line:none;text-decoration-style:solid;text-decoration-color:#000000;letter-spacing:normal;word-spacing:normal;text-transform:none;writing-mode:lr-tb;direction:ltr;text-orientation:mixed;dominant-baseline:auto;baseline-shift:baseline;text-anchor:start;white-space:normal;shape-padding:0;shape-margin:0;inline-size:0;clip-rule:nonzero;display:inline;overflow:visible;visibility:visible;isolation:auto;mix-blend-mode:normal;color-interpolation:sRGB;color-interpolation-filters:linearRGB;solid-color:#000000;solid-opacity:1;vector-effect:none;fill:currentColor;fill-opacity:1;fill-rule:nonzero;stroke:none;stroke-linecap:round;stroke-linejoin:round;stroke-miterlimit:4;stroke-dasharray:none;stroke-dashoffset:0;stroke-opacity:1;color-rendering:auto;image-rendering:auto;shape-rendering:auto;text-rendering:auto;enable-background:accumulate;stop-color:#000000;stop-opacity:1;opacity:1"
     d="M 391.99023 15.941406 C 365.32655 15.941406 338.66318 26.090728 318.36719 46.386719 L 46.390625 318.36133 C 5.7986471 358.95331 5.798644 425.01544 46.390625 465.60742 L 46.398438 465.61523 C 86.990411 506.20721 153.05451 506.20917 193.64648 465.61719 L 465.62109 193.64062 C 506.21307 153.04864 506.21111 86.984552 465.61914 46.392578 L 465.61328 46.386719 C 445.31729 26.090728 418.65391 15.941406 391.99023 15.941406 z M 391.99023 47.677734 C 410.37626 47.677734 428.76244 54.789781 442.98633 69.013672 L 442.99219 69.021484 C 471.43996 97.46926 471.44192 142.56589 442.99414 171.01367 L 387.01758 226.99023 C 384.73806 222.1228 381.60784 217.57073 377.61328 213.57617 L 298.41602 134.38086 C 294.4273 130.39214 289.88283 127.26306 285.02344 124.98438 L 340.99414 69.013672 C 355.21803 54.789781 373.60421 47.677734 391.99023 47.677734 z M 264.47461 152.16016 C 268.51559 152.16016 272.55732 153.77607 275.78906 157.00781 L 354.98438 236.20312 C 361.44786 242.66661 361.44786 252.36659 354.98438 258.83008 L 261.64648 352.16992 C 255.18299 358.63342 245.48302 358.63341 239.01953 352.16992 L 159.82422 272.97266 C 153.36073 266.50916 153.36073 256.8092 159.82422 250.3457 L 253.16211 157.00781 C 256.39385 153.77607 260.43363 152.16016 264.47461 152.16016 z M 256 192 C 247.16344 192 240 199.16344 240 208 C 240 216.83656 247.16344 224 256 224 C 264.83656 224 272 216.83656 272 208 C 272 199.16344 264.83656 192 256 192 z M 208 240 C 199.16344 240 192 247.16344 192 256 C 192 264.83656 199.16344 272 208 272 C 216.83656 272 224 264.83656 224 256 C 224 247.16344 216.83656 240 208 240 z M 304 240 C 295.16344 240 288 247.16344 288 256 C 288 264.83656 295.16344 272 304 272 C 312.83656 272 320 264.83656 320 256 C 320 247.16344 312.83656 240 304 240 z M 127.80078 282.20703 C 130.07948 287.06651 133.20653 291.61083 137.19531 295.59961 L 216.39258 374.79688 C 220.38713 378.79143 224.93921 381.92166 229.80664 384.20117 L 171.01953 442.98828 C 142.57175 471.43606 97.473166 471.43606 69.025391 442.98828 L 69.019531 442.98047 C 40.571749 414.53269 40.571751 369.43606 69.019531 340.98828 L 127.80078 282.20703 z M 256 288 C 247.16344 288 240 295.16344 240 304 C 240 312.83656 247.16344 320 256 320 C 264.83656 320 272 312.83656 272 304 C 272 295.16344 264.83656 288 256 288 z " />
</svg>
