<?xml version="1.0" encoding="UTF-8"?>
<svg width="512px" height="512px" viewBox="0 0 512 512" version="1.1" xmlns="http://www.w3.org/2000/svg" xmlns:xlink="http://www.w3.org/1999/xlink">
    <!-- Generator: Sketch 62 (91390) - https://sketch.com -->
    <title>Artboard</title>
    <desc>Created with Sketch.</desc>
    <g id="Artboard" stroke="none" stroke-width="1" fill="none" fill-rule="evenodd">
        <g id="bandage-outline" transform="translate(15.000000, 15.000000)" fill="#000000" fill-rule="nonzero">
            <path d="M303.36549,31.3852658 C344.026879,-9.27612336 409.952017,-9.27612336 450.613406,31.3852658 L450.613406,31.3852658 L451.828121,32.6197073 C491.277801,73.3697026 490.875252,138.385478 450.620477,178.640253 L450.620477,178.640253 L178.645996,450.614734 C137.984607,491.276123 72.059469,491.276123 31.3980799,450.614734 L31.3980799,450.614734 L30.1833652,449.380293 C-9.2663145,408.630297 -8.86376653,343.614522 31.3910088,303.359747 L31.3910088,303.359747 Z M112.760216,267.243938 L54.0184258,325.987164 C25.8538139,354.151776 25.853814,399.815634 54.0184258,427.980246 L54.0184258,427.980246 L54.87565,428.823806 C83.1016362,456.149113 128.135613,455.870283 156.018579,427.987317 L156.018579,427.987317 L214.766093,369.240711 C209.928168,366.947431 205.394492,363.799469 201.391848,359.796825 L201.391848,359.796825 L122.195888,280.600865 C118.19802,276.602998 115.052796,272.075365 112.760216,267.243938 Z M260.788817,142.007936 C254.540429,135.759548 244.409789,135.759548 238.1614,142.007936 L238.1614,142.007936 L144.823305,235.346031 C138.574917,241.59442 138.574917,251.72506 144.823305,257.973448 L144.823305,257.973448 L224.019265,337.169408 C230.267653,343.417796 240.398293,343.417796 246.646682,337.169408 L246.646682,337.169408 L339.984777,243.831313 C346.233165,237.582924 346.233165,227.452284 339.984777,221.203896 L339.984777,221.203896 Z M241,273 C249.836556,273 257,280.163444 257,289 C257,297.836556 249.836556,305 241,305 C232.163444,305 225,297.836556 225,289 C225,280.163444 232.163444,273 241,273 Z M289,225 C297.836556,225 305,232.163444 305,241 C305,249.836556 297.836556,257 289,257 C280.163444,257 273,249.836556 273,241 C273,232.163444 280.163444,225 289,225 Z M193,225 C201.836556,225 209,232.163444 209,241 C209,249.836556 201.836556,257 193,257 C184.163444,257 177,249.836556 177,241 C177,232.163444 184.163444,225 193,225 Z M427.135836,53.1761938 C398.90985,25.8508874 353.875873,26.1297173 325.992907,54.0126828 L325.992907,54.0126828 L270.05998,109.945166 C274.891154,112.237719 279.418552,115.382837 283.416234,119.380519 L283.416234,119.380519 L362.612194,198.576479 C366.615016,202.579301 369.76308,207.113202 372.056386,211.95137 L427.99306,156.012836 C456.157672,127.848224 456.157672,82.1843657 427.99306,54.0197539 L427.99306,54.0197539 Z M241,177 C249.836556,177 257,184.163444 257,193 C257,201.836556 249.836556,209 241,209 C232.163444,209 225,201.836556 225,193 C225,184.163444 232.163444,177 241,177 Z" id="Combined-Shape"></path>
        </g>
    </g>
</svg>