<?xml version="1.0" encoding="UTF-8"?>
<svg width="512px" height="512px" viewBox="0 0 512 512" version="1.1" xmlns="http://www.w3.org/2000/svg" xmlns:xlink="http://www.w3.org/1999/xlink">
    <!-- Generator: Sketch 62 (91390) - https://sketch.com -->
    <title>Artboard</title>
    <desc>Created with Sketch.</desc>
    <g id="Artboard" stroke="none" stroke-width="1" fill="none" fill-rule="evenodd">
        <g id="bar-chart-outline" transform="translate(32.000000, 32.000000)" fill="#000000" fill-rule="nonzero">
            <path d="M0,-16 C8.7313589,-16 15.8292047,-9.00609896 15.9969636,-0.314870665 L16,0 L16,432 L448,432 C456.836556,432 464,439.163444 464,448 C464,456.731359 457.006099,463.829205 448.314871,464 L448,464 L16,464 C-1.49638087,464 -15.7131276,449.958217 -16,432.529179 L-16,432 L-16,0 C-16,-8.836556 -8.836556,-16 0,-16 Z" id="Path"></path>
            <path d="M124,176 L84,176 C64.117749,176 48,192.117749 48,212 L48,364 C48,383.882251 64.117749,400 84,400 L124,400 C143.882251,400 160,383.882251 160,364 L160,212 C160,192.117749 143.882251,176 124,176 Z M84,208 L124,208 C126.209139,208 128,209.790861 128,212 L128,364 C128,366.209139 126.209139,368 124,368 L84,368 C81.790861,368 80,366.209139 80,364 L80,212 C80,209.790861 81.790861,208 84,208 Z" id="Rectangle"></path>
            <path d="M268,128 L228,128 C208.117749,128 192,144.117749 192,164 L192,364 C192,383.882251 208.117749,400 228,400 L268,400 C287.882251,400 304,383.882251 304,364 L304,164 C304,144.117749 287.882251,128 268,128 Z M228,160 L268,160 C270.209139,160 272,161.790861 272,164 L272,364 C272,366.209139 270.209139,368 268,368 L228,368 C225.790861,368 224,366.209139 224,364 L224,164 C224,161.790861 225.790861,160 228,160 Z" id="Rectangle"></path>
            <path d="M411.64,64 L371.64,64 C351.757749,64 335.64,80.117749 335.64,100 L335.64,364 C335.64,383.882251 351.757749,400 371.64,400 L411.64,400 C431.522251,400 447.64,383.882251 447.64,364 L447.64,100 C447.64,80.117749 431.522251,64 411.64,64 Z M371.64,96 L411.64,96 C413.849139,96 415.64,97.790861 415.64,100 L415.64,364 C415.64,366.209139 413.849139,368 411.64,368 L371.64,368 C369.430861,368 367.64,366.209139 367.64,364 L367.64,100 C367.64,97.790861 369.430861,96 371.64,96 Z" id="Rectangle"></path>
        </g>
    </g>
</svg>