<?xml version="1.0" encoding="UTF-8"?>
<svg width="512px" height="512px" viewBox="0 0 512 512" version="1.1" xmlns="http://www.w3.org/2000/svg" xmlns:xlink="http://www.w3.org/1999/xlink">
    <!-- Generator: Sketch 62 (91390) - https://sketch.com -->
    <title>Artboard</title>
    <desc>Created with Sketch.</desc>
    <g id="Artboard" stroke="none" stroke-width="1" fill="none" fill-rule="evenodd">
        <g id="barbell-outline" transform="translate(32.000000, 128.000000)" fill="#000000" fill-rule="nonzero">
            <path d="M432,112 C440.836556,112 448,119.163444 448,128 C448,136.731359 441.006099,143.829205 432.314871,143.996964 L432,144 L16,144 C7.163444,144 0,136.836556 0,128 C0,119.268641 6.99390104,112.170795 15.6851293,112.003036 L16,112 L432,112 Z" id="Path"></path>
            <path d="M368,-16 C350.326888,-16 336,-1.67311199 336,16 L336,240 C336,257.673112 350.326888,272 368,272 C385.673112,272 400,257.673112 400,240 L400,16 C400,-1.67311199 385.673112,-16 368,-16 Z" id="Rectangle"></path>
            <path d="M80,-16 C62.326888,-16 48,-1.67311199 48,16 L48,240 C48,257.673112 62.326888,272 80,272 C97.673112,272 112,257.673112 112,240 L112,16 C112,-1.67311199 97.673112,-16 80,-16 Z" id="Rectangle"></path>
            <path d="M8,48 C-5.254834,48 -16,58.745166 -16,72 L-16,184 C-16,197.254834 -5.254834,208 8,208 C21.254834,208 32,197.254834 32,184 L32,72 C32,58.745166 21.254834,48 8,48 Z" id="Rectangle"></path>
            <path d="M440,48 C426.745166,48 416,58.745166 416,72 L416,184 C416,197.254834 426.745166,208 440,208 C453.254834,208 464,197.254834 464,184 L464,72 C464,58.745166 453.254834,48 440,48 Z" id="Rectangle"></path>
        </g>
    </g>
</svg>