<?xml version="1.0" encoding="UTF-8" standalone="no"?>
<svg
   xmlns:dc="http://purl.org/dc/elements/1.1/"
   xmlns:cc="http://creativecommons.org/ns#"
   xmlns:rdf="http://www.w3.org/1999/02/22-rdf-syntax-ns#"
   xmlns:svg="http://www.w3.org/2000/svg"
   xmlns="http://www.w3.org/2000/svg"
   xmlns:sodipodi="http://sodipodi.sourceforge.net/DTD/sodipodi-0.dtd"
   xmlns:inkscape="http://www.inkscape.org/namespaces/inkscape"
   class="ionicon"
   viewBox="0 0 512 512"
   version="1.1"
   id="svg6"
   sodipodi:docname="barbell.svg"
   inkscape:version="1.0.2 (e86c8708, 2021-01-15)">
  <metadata
     id="metadata12">
    <rdf:RDF>
      <cc:Work
         rdf:about="">
        <dc:format>image/svg+xml</dc:format>
        <dc:type
           rdf:resource="http://purl.org/dc/dcmitype/StillImage" />
      </cc:Work>
    </rdf:RDF>
  </metadata>
  <defs
     id="defs10" />
  <sodipodi:namedview
     pagecolor="#ffffff"
     bordercolor="#666666"
     borderopacity="1"
     objecttolerance="10"
     gridtolerance="10"
     guidetolerance="10"
     inkscape:pageopacity="0"
     inkscape:pageshadow="2"
     inkscape:window-width="689"
     inkscape:window-height="480"
     id="namedview8"
     showgrid="false"
     inkscape:zoom="1.3027344"
     inkscape:cx="256"
     inkscape:cy="256"
     inkscape:window-x="44"
     inkscape:window-y="25"
     inkscape:window-maximized="0"
     inkscape:current-layer="svg6" />
  <title
     id="title2">Barbell</title>
  <path
     style="color:#000000;font-style:normal;font-variant:normal;font-weight:normal;font-stretch:normal;font-size:medium;line-height:normal;font-family:sans-serif;font-variant-ligatures:normal;font-variant-position:normal;font-variant-caps:normal;font-variant-numeric:normal;font-variant-alternates:normal;font-variant-east-asian:normal;font-feature-settings:normal;font-variation-settings:normal;text-indent:0;text-align:start;text-decoration:none;text-decoration-line:none;text-decoration-style:solid;text-decoration-color:#000000;letter-spacing:normal;word-spacing:normal;text-transform:none;writing-mode:lr-tb;direction:ltr;text-orientation:mixed;dominant-baseline:auto;baseline-shift:baseline;text-anchor:start;white-space:normal;shape-padding:0;shape-margin:0;inline-size:0;clip-rule:nonzero;display:inline;overflow:visible;visibility:visible;isolation:auto;mix-blend-mode:normal;color-interpolation:sRGB;color-interpolation-filters:linearRGB;solid-color:#000000;solid-opacity:1;vector-effect:none;fill:#000000;fill-opacity:1;fill-rule:nonzero;stroke-width:1;stroke-linecap:butt;stroke-linejoin:miter;stroke-miterlimit:4;stroke-dasharray:none;stroke-dashoffset:0;stroke-opacity:1;color-rendering:auto;image-rendering:auto;shape-rendering:auto;text-rendering:auto;enable-background:accumulate;stop-color:#000000;stop-opacity:1;stroke:none;opacity:1"
     d="m 467,176 c -9.99826,-0.32493 -19.49824,4.36503 -25.32,12.5 -1.11861,1.6026 -3.63539,0.81438 -3.64,-1.14 v -36.65 c 0,-20.75 -16.34,-38.21 -37.08,-38.7 C 379.60323,111.47029 361.9988,128.63641 362,150 v 82 c 0,1.10457 -0.89543,2 -2,2 H 152 c -1.10457,0 -2,-0.89543 -2,-2 V 150.71 C 150,129.96 133.66,112.5 112.92,112.01 91.578765,111.49317 73.99936,128.65251 74,150 v 37.38 c -0.0046,1.95438 -2.52139,2.7426 -3.64,1.14 C 64.534749,180.36543 55.015941,175.66608 45,176 28.7,176.51 16,190.31 16,206.62 v 98.72 c 0,16.31 12.74,30.11 29,30.62 9.998255,0.32493 19.498237,-4.36503 25.32,-12.5 1.102179,-1.71148 3.75851,-0.87416 3.68,1.16 v 36.67 c 0,20.71 16.34,38.21 37.08,38.71 21.34516,0.51693 38.92626,-16.64858 38.92,-38 v -82 c 0,-1.10457 0.89543,-2 2,-2 h 208 c 1.10457,0 2,0.89543 2,2 v 81.29 c 0,20.75 16.34,38.21 37.08,38.7 21.34124,0.51683 38.92064,-16.64251 38.92,-37.99 v -37.38 c 0.005,-1.95438 2.52139,-2.7426 3.64,-1.14 5.82525,8.15457 15.34406,12.85392 25.36,12.52 16.3,-0.51 29,-14.31 29,-30.62 V 206.64 C 496,190.33 483.26,176.53 467,176 Z"
     id="path4" />
</svg>
