<?xml version="1.0" encoding="UTF-8" standalone="no"?>
<svg
   xmlns:dc="http://purl.org/dc/elements/1.1/"
   xmlns:cc="http://creativecommons.org/ns#"
   xmlns:rdf="http://www.w3.org/1999/02/22-rdf-syntax-ns#"
   xmlns:svg="http://www.w3.org/2000/svg"
   xmlns="http://www.w3.org/2000/svg"
   xmlns:sodipodi="http://sodipodi.sourceforge.net/DTD/sodipodi-0.dtd"
   xmlns:inkscape="http://www.inkscape.org/namespaces/inkscape"
   class="ionicon"
   viewBox="0 0 512 512"
   version="1.1"
   id="svg6"
   sodipodi:docname="barcode-sharp.svg"
   inkscape:version="1.0.2 (e86c8708, 2021-01-15)">
  <metadata
     id="metadata12">
    <rdf:RDF>
      <cc:Work
         rdf:about="">
        <dc:format>image/svg+xml</dc:format>
        <dc:type
           rdf:resource="http://purl.org/dc/dcmitype/StillImage" />
      </cc:Work>
    </rdf:RDF>
  </metadata>
  <defs
     id="defs10" />
  <sodipodi:namedview
     pagecolor="#ffffff"
     bordercolor="#666666"
     borderopacity="1"
     objecttolerance="10"
     gridtolerance="10"
     guidetolerance="10"
     inkscape:pageopacity="0"
     inkscape:pageshadow="2"
     inkscape:window-width="689"
     inkscape:window-height="480"
     id="namedview8"
     showgrid="false"
     inkscape:zoom="1.3027344"
     inkscape:cx="256"
     inkscape:cy="256"
     inkscape:window-x="44"
     inkscape:window-y="25"
     inkscape:window-maximized="0"
     inkscape:current-layer="svg6" />
  <title
     id="title2">Barcode</title>
  <path
     style="color:#000000;font-style:normal;font-variant:normal;font-weight:normal;font-stretch:normal;font-size:medium;line-height:normal;font-family:sans-serif;font-variant-ligatures:normal;font-variant-position:normal;font-variant-caps:normal;font-variant-numeric:normal;font-variant-alternates:normal;font-variant-east-asian:normal;font-feature-settings:normal;font-variation-settings:normal;text-indent:0;text-align:start;text-decoration:none;text-decoration-line:none;text-decoration-style:solid;text-decoration-color:#000000;letter-spacing:normal;word-spacing:normal;text-transform:none;writing-mode:lr-tb;direction:ltr;text-orientation:mixed;dominant-baseline:auto;baseline-shift:baseline;text-anchor:start;white-space:normal;shape-padding:0;shape-margin:0;inline-size:0;clip-rule:nonzero;display:inline;overflow:visible;visibility:visible;isolation:auto;mix-blend-mode:normal;color-interpolation:sRGB;color-interpolation-filters:linearRGB;solid-color:#000000;solid-opacity:1;vector-effect:none;fill:currentColor;fill-opacity:1;fill-rule:nonzero;stroke:none;stroke-linecap:square;stroke-linejoin:round;stroke-miterlimit:4;stroke-dasharray:none;stroke-dashoffset:0;stroke-opacity:1;color-rendering:auto;image-rendering:auto;shape-rendering:auto;text-rendering:auto;enable-background:accumulate;stop-color:#000000;stop-opacity:1;opacity:1"
     d="M 127.88867 95.890625 L 111.89062 96 L 63.890625 96.330078 A 16.0016 16.0016 0 0 0 48 112.33008 L 48 400.33008 A 16.0016 16.0016 0 0 0 64.109375 416.33008 L 112.10938 416 L 128.10938 415.88867 L 127.88867 383.89062 L 111.89062 384 L 80 384.21875 L 80 128.2207 L 112.10938 128 L 128.10938 127.88867 L 127.88867 95.890625 z M 447.89062 96 L 399.89062 96.330078 L 383.89062 96.439453 L 384.11133 128.43945 L 400.10938 128.33008 L 432 128.11133 L 432 384.10938 L 399.89062 384.33008 L 383.89062 384.43945 L 384.11133 416.43945 L 400.10938 416.33008 L 448.10938 416 A 16.0016 16.0016 0 0 0 464 400 L 464 112 A 16.0016 16.0016 0 0 0 447.89062 96 z M 176 144 L 176 160 L 176 352 L 176 368 L 208 368 L 208 352 L 208 160 L 208 144 L 176 144 z M 304 144 L 304 160 L 304 352 L 304 368 L 336 368 L 336 352 L 336 160 L 336 144 L 304 144 z M 240 160 L 240 176 L 240 336 L 240 352 L 272 352 L 272 336 L 272 176 L 272 160 L 240 160 z M 112 176 L 112 192 L 112 320 L 112 336 L 144 336 L 144 320 L 144 192 L 144 176 L 112 176 z M 368 176 L 368 192 L 368 320 L 368 336 L 400 336 L 400 320 L 400 192 L 400 176 L 368 176 z "
     id="path4" />
</svg>
