<?xml version="1.0" encoding="UTF-8" standalone="no"?>
<svg
   xmlns:dc="http://purl.org/dc/elements/1.1/"
   xmlns:cc="http://creativecommons.org/ns#"
   xmlns:rdf="http://www.w3.org/1999/02/22-rdf-syntax-ns#"
   xmlns:svg="http://www.w3.org/2000/svg"
   xmlns="http://www.w3.org/2000/svg"
   xmlns:sodipodi="http://sodipodi.sourceforge.net/DTD/sodipodi-0.dtd"
   xmlns:inkscape="http://www.inkscape.org/namespaces/inkscape"
   class="ionicon"
   viewBox="0 0 512 512"
   version="1.1"
   id="svg6"
   sodipodi:docname="barcode-outline.svg"
   inkscape:version="1.0.2 (e86c8708, 2021-01-15)">
  <metadata
     id="metadata12">
    <rdf:RDF>
      <cc:Work
         rdf:about="">
        <dc:format>image/svg+xml</dc:format>
        <dc:type
           rdf:resource="http://purl.org/dc/dcmitype/StillImage" />
      </cc:Work>
    </rdf:RDF>
  </metadata>
  <defs
     id="defs10" />
  <sodipodi:namedview
     pagecolor="#ffffff"
     bordercolor="#666666"
     borderopacity="1"
     objecttolerance="10"
     gridtolerance="10"
     guidetolerance="10"
     inkscape:pageopacity="0"
     inkscape:pageshadow="2"
     inkscape:window-width="689"
     inkscape:window-height="480"
     id="namedview8"
     showgrid="false"
     inkscape:zoom="1.3027344"
     inkscape:cx="256"
     inkscape:cy="256"
     inkscape:window-x="44"
     inkscape:window-y="25"
     inkscape:window-maximized="0"
     inkscape:current-layer="svg6" />
  <title
     id="title2">Barcode</title>
  <path
     style="color:#000000;font-style:normal;font-variant:normal;font-weight:normal;font-stretch:normal;font-size:medium;line-height:normal;font-family:sans-serif;font-variant-ligatures:normal;font-variant-position:normal;font-variant-caps:normal;font-variant-numeric:normal;font-variant-alternates:normal;font-variant-east-asian:normal;font-feature-settings:normal;font-variation-settings:normal;text-indent:0;text-align:start;text-decoration:none;text-decoration-line:none;text-decoration-style:solid;text-decoration-color:#000000;letter-spacing:normal;word-spacing:normal;text-transform:none;writing-mode:lr-tb;direction:ltr;text-orientation:mixed;dominant-baseline:auto;baseline-shift:baseline;text-anchor:start;white-space:normal;shape-padding:0;shape-margin:0;inline-size:0;clip-rule:nonzero;display:inline;overflow:visible;visibility:visible;isolation:auto;mix-blend-mode:normal;color-interpolation:sRGB;color-interpolation-filters:linearRGB;solid-color:#000000;solid-opacity:1;vector-effect:none;fill:currentColor;fill-opacity:1;fill-rule:nonzero;stroke:none;stroke-linecap:round;stroke-linejoin:round;stroke-miterlimit:4;stroke-dasharray:none;stroke-dashoffset:0;stroke-opacity:1;color-rendering:auto;image-rendering:auto;shape-rendering:auto;text-rendering:auto;enable-background:accumulate;stop-color:#000000;stop-opacity:1;opacity:1"
     d="M 127.85742 96 L 91.056641 96.330078 L 91.199219 96.330078 C 66.587061 96.330078 48 117.72073 48 141.19922 L 48 371.4707 C 48 394.94919 66.593778 416.33008 91.199219 416.33008 A 16.0016 16.0016 0 0 0 91.34375 416.33008 L 128.14258 416 A 16 16 0 0 0 144 399.85742 A 16 16 0 0 0 127.85742 384 L 91.191406 384.32812 C 84.042393 384.32431 80 379.72879 80 371.4707 L 80 141.19922 C 80 132.9377 84.051377 128.33008 91.199219 128.33008 A 16.0016 16.0016 0 0 0 91.34375 128.33008 L 128.14258 128 A 16 16 0 0 0 144 111.85742 A 16 16 0 0 0 127.85742 96 z M 418.98047 96 L 383.84961 96.330078 A 16 16 0 0 0 368 112.48047 A 16 16 0 0 0 384.15039 128.33008 L 419.07812 128.00195 C 426.38676 128.04486 431.9673 133.6296 432 140.94141 L 432 371.05859 C 431.96727 378.37713 426.37713 383.96727 419.05859 384 A 16.0016 16.0016 0 0 0 418.98047 384 L 383.84961 384.33008 A 16 16 0 0 0 368 400.48047 A 16 16 0 0 0 384.15039 416.33008 L 419.20117 416 C 443.7124 415.89037 463.89037 395.7124 464 371.20117 A 16.0016 16.0016 0 0 0 464 371.13086 L 464 140.86914 A 16.0016 16.0016 0 0 0 464 140.79883 C 463.89037 116.2876 443.7124 96.109634 419.20117 96 A 16.0016 16.0016 0 0 0 418.98047 96 z M 192 144 A 16 16 0 0 0 176 160 L 176 352 A 16 16 0 0 0 192 368 A 16 16 0 0 0 208 352 L 208 160 A 16 16 0 0 0 192 144 z M 320 144 A 16 16 0 0 0 304 160 L 304 352 A 16 16 0 0 0 320 368 A 16 16 0 0 0 336 352 L 336 160 A 16 16 0 0 0 320 144 z M 256 160 A 16 16 0 0 0 240 176 L 240 336 A 16 16 0 0 0 256 352 A 16 16 0 0 0 272 336 L 272 176 A 16 16 0 0 0 256 160 z M 128 176 A 16 16 0 0 0 112 192 L 112 320 A 16 16 0 0 0 128 336 A 16 16 0 0 0 144 320 L 144 192 A 16 16 0 0 0 128 176 z M 384 176 A 16 16 0 0 0 368 192 L 368 320 A 16 16 0 0 0 384 336 A 16 16 0 0 0 400 320 L 400 192 A 16 16 0 0 0 384 176 z "
     id="path4" />
</svg>
