<?xml version="1.0" encoding="UTF-8" standalone="no"?>
<svg
   xmlns:dc="http://purl.org/dc/elements/1.1/"
   xmlns:cc="http://creativecommons.org/ns#"
   xmlns:rdf="http://www.w3.org/1999/02/22-rdf-syntax-ns#"
   xmlns:svg="http://www.w3.org/2000/svg"
   xmlns="http://www.w3.org/2000/svg"
   xmlns:sodipodi="http://sodipodi.sourceforge.net/DTD/sodipodi-0.dtd"
   xmlns:inkscape="http://www.inkscape.org/namespaces/inkscape"
   class="ionicon"
   viewBox="0 0 512 512"
   version="1.1"
   id="svg8"
   sodipodi:docname="baseball-sharp.svg"
   inkscape:version="1.0.2 (e86c8708, 2021-01-15)">
  <metadata
     id="metadata14">
    <rdf:RDF>
      <cc:Work
         rdf:about="">
        <dc:format>image/svg+xml</dc:format>
        <dc:type
           rdf:resource="http://purl.org/dc/dcmitype/StillImage" />
      </cc:Work>
    </rdf:RDF>
  </metadata>
  <defs
     id="defs12" />
  <sodipodi:namedview
     pagecolor="#ffffff"
     bordercolor="#666666"
     borderopacity="1"
     objecttolerance="10"
     gridtolerance="10"
     guidetolerance="10"
     inkscape:pageopacity="0"
     inkscape:pageshadow="2"
     inkscape:window-width="689"
     inkscape:window-height="480"
     id="namedview10"
     showgrid="false"
     inkscape:zoom="1.3027344"
     inkscape:cx="256"
     inkscape:cy="256"
     inkscape:window-x="44"
     inkscape:window-y="25"
     inkscape:window-maximized="0"
     inkscape:current-layer="svg8" />
  <title
     id="title2">Baseball</title>
  <path
     style="color:#000000;font-style:normal;font-variant:normal;font-weight:normal;font-stretch:normal;font-size:medium;line-height:normal;font-family:sans-serif;font-variant-ligatures:normal;font-variant-position:normal;font-variant-caps:normal;font-variant-numeric:normal;font-variant-alternates:normal;font-variant-east-asian:normal;font-feature-settings:normal;font-variation-settings:normal;text-indent:0;text-align:start;text-decoration:none;text-decoration-line:none;text-decoration-style:solid;text-decoration-color:#000000;letter-spacing:normal;word-spacing:normal;text-transform:none;writing-mode:lr-tb;direction:ltr;text-orientation:mixed;dominant-baseline:auto;baseline-shift:baseline;text-anchor:start;white-space:normal;shape-padding:0;shape-margin:0;inline-size:0;clip-rule:nonzero;display:inline;overflow:visible;visibility:visible;isolation:auto;mix-blend-mode:normal;color-interpolation:sRGB;color-interpolation-filters:linearRGB;solid-color:#000000;solid-opacity:1;vector-effect:none;fill:#000000;fill-opacity:1;fill-rule:nonzero;stroke-width:1;stroke-linecap:butt;stroke-linejoin:miter;stroke-miterlimit:4;stroke-dasharray:none;stroke-dashoffset:0;stroke-opacity:1;color-rendering:auto;image-rendering:auto;shape-rendering:auto;text-rendering:auto;enable-background:accumulate;stop-color:#000000;stop-opacity:1;stroke:none;opacity:1"
     d="m 302.16,56.2 c -0.051,3.280884 -1.26266,6.437616 -3.42,8.91 l -0.11,5.13 -27.71,-0.57 c 0,1.3 0.09,2.61 0.16,3.91 0.4913,8.843855 1.64453,17.63847 3.45,26.31 l 24.72,-7.18 7.81,26.88 -24.71,7.18 c 3.63632,9.59893 8.09978,18.86377 13.34,27.69 l 21.27,-15 16.16,22.86 -21.29,15.05 c 3.5,4.22 7.20333,8.28333 11.11,12.19 3.91,3.91 8,7.6 12.2,11.1 l 15.71,-22.22 22.86,16.16 -15.71,22.15 c 8.82743,5.22591 18.08827,9.68236 27.68,13.32 l 7.49,-25.8 26.89,7.81 -7.5,25.83 c 10.20575,2.12984 20.57905,3.3579 31,3.67 l -0.41,-24.67 17.41,-0.29 C 444.93251,135.33077 382.5912,71.045472 301.82,52.93 c 0.24466,1.072321 0.35882,2.170283 0.34,3.27 z M 214,441.64 l 27.91,0.49 c -0.35436,-10.06799 -1.56541,-20.08752 -3.62,-29.95 l -24.14,7 -7.81,-26.88 24.11,-7 c -3.63692,-9.59375 -8.09688,-18.85494 -13.33,-27.68 L 196.79,372 180.63,349.14 201,334.73 c -3.49,-4.22 -7.19,-8.3 -11.09,-12.2 -3.9,-3.9 -8,-7.62 -12.19,-11.12 L 163.81,331.09 141,314.93 154.9,295.27 c -8.8299,-5.23708 -18.09808,-9.69719 -27.7,-13.33 l -6.37,21.94 -26.89,-7.81 6.38,-22 c -8.676087,-1.7892 -17.474054,-2.92571 -26.32,-3.4 -1.59,-0.09 -3.18,-0.16 -4.78,-0.2 l 0.4,22.34 -17.71,0.32 c 15.038526,83.24773 79.02372,149.0796 161.81,166.48 z"
     id="path4" />
  <path
     style="color:#000000;font-style:normal;font-variant:normal;font-weight:normal;font-stretch:normal;font-size:medium;line-height:normal;font-family:sans-serif;font-variant-ligatures:normal;font-variant-position:normal;font-variant-caps:normal;font-variant-numeric:normal;font-variant-alternates:normal;font-variant-east-asian:normal;font-feature-settings:normal;font-variation-settings:normal;text-indent:0;text-align:start;text-decoration:none;text-decoration-line:none;text-decoration-style:solid;text-decoration-color:#000000;letter-spacing:normal;word-spacing:normal;text-transform:none;writing-mode:lr-tb;direction:ltr;text-orientation:mixed;dominant-baseline:auto;baseline-shift:baseline;text-anchor:start;white-space:normal;shape-padding:0;shape-margin:0;inline-size:0;clip-rule:nonzero;display:inline;overflow:visible;visibility:visible;isolation:auto;mix-blend-mode:normal;color-interpolation:sRGB;color-interpolation-filters:linearRGB;solid-color:#000000;solid-opacity:1;vector-effect:none;fill:#000000;fill-opacity:1;fill-rule:nonzero;stroke-width:1;stroke-linecap:butt;stroke-linejoin:miter;stroke-miterlimit:4;stroke-dasharray:none;stroke-dashoffset:0;stroke-opacity:1;color-rendering:auto;image-rendering:auto;shape-rendering:auto;text-rendering:auto;enable-background:accumulate;stop-color:#000000;stop-opacity:1;stroke:none;opacity:1"
     d="m 444.65,302.67 -0.55,-33.06 c -13.23183,-0.31285 -26.40271,-1.90019 -39.33,-4.74 L 397,291.8 370.06,284 l 7.83,-27 c -12.55234,-4.60467 -24.6288,-10.41517 -36.06,-17.35 l -16.36,23.15 -22.86,-16.16 16.33,-23.11 c -11.01449,-8.93126 -21.06874,-18.98551 -30,-30 l -22.19,15.67 -16.16,-22.87 22.17,-15.67 c -6.95023,-11.42728 -12.77103,-23.50429 -17.38,-36.06 l -25.75,7.48 -7.81,-26.89 25.73,-7.47 c -1.33333,-6.14 -2.39333,-12.353333 -3.18,-18.64 h -0.47 l -0.78,-14 -0.33,-6 -17.94,-0.32 c -0.59958,-0.01316 -1.19759,-0.06661 -1.79,-0.16 l -6.35,-0.13 0.06,-2.47 c -3.63078,-2.691815 -5.73867,-6.970902 -5.66,-11.49 0.008,-0.558849 0.0515,-1.116626 0.13,-1.67 C 130.07854,70.968911 67.515901,135.69851 52.16,217.43 l 16.1,-0.28 0.45,25.18 6.83,0.38 14,0.77 v 0.48 c 6.28,0.78 12.49333,1.84 18.64,3.18 l 6.68,-23 26.84,7.86 -6.7,23 c 12.55745,4.60486 24.63484,10.42586 36.06,17.38 L 185.59,251.82 208.47,268 194,288.5 c 11.01795,8.92742 21.07258,18.98205 30,30 l 21.3,-15 16.16,22.86 -21.36,15.05 c 6.93165,11.43144 12.73881,23.50792 17.34,36.06 l 25.27,-7.33 7.81,26.86 -25.24,7.33 c 2.76887,12.59075 4.34914,25.41372 4.72,38.3 l 29.42,0.53 -0.29,16.48 c 79.44849,-16.67846 141.92666,-78.06717 160,-157.21 z"
     id="path6" />
</svg>
