<?xml version="1.0" encoding="UTF-8" standalone="no"?>
<svg
   xmlns:dc="http://purl.org/dc/elements/1.1/"
   xmlns:cc="http://creativecommons.org/ns#"
   xmlns:rdf="http://www.w3.org/1999/02/22-rdf-syntax-ns#"
   xmlns:svg="http://www.w3.org/2000/svg"
   xmlns="http://www.w3.org/2000/svg"
   xmlns:sodipodi="http://sodipodi.sourceforge.net/DTD/sodipodi-0.dtd"
   xmlns:inkscape="http://www.inkscape.org/namespaces/inkscape"
   class="ionicon"
   viewBox="0 0 512 512"
   version="1.1"
   id="svg10"
   sodipodi:docname="baseball-outline.svg"
   inkscape:version="1.0.2 (e86c8708, 2021-01-15)">
  <metadata
     id="metadata16">
    <rdf:RDF>
      <cc:Work
         rdf:about="">
        <dc:format>image/svg+xml</dc:format>
        <dc:type
           rdf:resource="http://purl.org/dc/dcmitype/StillImage" />
      </cc:Work>
    </rdf:RDF>
  </metadata>
  <defs
     id="defs14" />
  <sodipodi:namedview
     pagecolor="#ffffff"
     bordercolor="#666666"
     borderopacity="1"
     objecttolerance="10"
     gridtolerance="10"
     guidetolerance="10"
     inkscape:pageopacity="0"
     inkscape:pageshadow="2"
     inkscape:window-width="689"
     inkscape:window-height="480"
     id="namedview12"
     showgrid="false"
     inkscape:zoom="1.3027344"
     inkscape:cx="256"
     inkscape:cy="256"
     inkscape:window-x="44"
     inkscape:window-y="25"
     inkscape:window-maximized="0"
     inkscape:current-layer="svg10" />
  <title
     id="title2">Baseball</title>
  <path
     style="color:#000000;font-style:normal;font-variant:normal;font-weight:normal;font-stretch:normal;font-size:medium;line-height:normal;font-family:sans-serif;font-variant-ligatures:normal;font-variant-position:normal;font-variant-caps:normal;font-variant-numeric:normal;font-variant-alternates:normal;font-variant-east-asian:normal;font-feature-settings:normal;font-variation-settings:normal;text-indent:0;text-align:start;text-decoration:none;text-decoration-line:none;text-decoration-style:solid;text-decoration-color:#000000;letter-spacing:normal;word-spacing:normal;text-transform:none;writing-mode:lr-tb;direction:ltr;text-orientation:mixed;dominant-baseline:auto;baseline-shift:baseline;text-anchor:start;white-space:normal;shape-padding:0;shape-margin:0;inline-size:0;clip-rule:nonzero;display:inline;overflow:visible;visibility:visible;isolation:auto;mix-blend-mode:normal;color-interpolation:sRGB;color-interpolation-filters:linearRGB;solid-color:#000000;solid-opacity:1;vector-effect:none;fill:currentColor;fill-opacity:1;fill-rule:nonzero;stroke:none;stroke-linecap:round;stroke-linejoin:round;stroke-miterlimit:4;stroke-dasharray:none;stroke-dashoffset:0;stroke-opacity:1;color-rendering:auto;image-rendering:auto;shape-rendering:auto;text-rendering:auto;enable-background:accumulate;stop-color:#000000;stop-opacity:1;opacity:1"
     d="M 294.3418 92.599609 A 16 16 0 0 0 289.78711 93.234375 L 229.21875 110.82422 A 16 16 0 0 0 218.31445 130.65234 A 16 16 0 0 0 238.14258 141.55469 L 298.71289 123.96484 A 16 16 0 0 0 309.61523 104.13867 A 16 16 0 0 0 294.3418 92.599609 z M 316.94531 140.11133 A 16 16 0 0 0 307.89453 143.04492 L 256.39453 179.44336 A 16 16 0 0 0 252.56445 201.74414 A 16 16 0 0 0 274.86523 205.57617 L 326.36523 169.17578 A 16 16 0 0 0 330.19531 146.875 A 16 16 0 0 0 316.94531 140.11133 z M 355.64453 178.87109 A 16 16 0 0 0 342.82422 185.63477 L 306.42383 237.13477 A 16 16 0 0 0 310.25586 259.43555 A 16 16 0 0 0 332.55664 255.60547 L 368.95508 204.10547 A 16 16 0 0 0 365.125 181.80469 A 16 16 0 0 0 355.64453 178.87109 z M 403.54883 201.75 A 16 16 0 0 0 388.03516 213.28711 L 370.44531 273.85742 A 16 16 0 0 0 381.34766 293.68555 A 16 16 0 0 0 401.17578 282.78125 L 418.76562 222.21289 A 16 16 0 0 0 407.86133 202.38477 A 16 16 0 0 0 403.54883 201.75 z "
     id="path4" />
  <path
     style="color:#000000;font-style:normal;font-variant:normal;font-weight:normal;font-stretch:normal;font-size:medium;line-height:normal;font-family:sans-serif;font-variant-ligatures:normal;font-variant-position:normal;font-variant-caps:normal;font-variant-numeric:normal;font-variant-alternates:normal;font-variant-east-asian:normal;font-feature-settings:normal;font-variation-settings:normal;text-indent:0;text-align:start;text-decoration:none;text-decoration-line:none;text-decoration-style:solid;text-decoration-color:#000000;letter-spacing:normal;word-spacing:normal;text-transform:none;writing-mode:lr-tb;direction:ltr;text-orientation:mixed;dominant-baseline:auto;baseline-shift:baseline;text-anchor:start;white-space:normal;shape-padding:0;shape-margin:0;inline-size:0;clip-rule:nonzero;display:inline;overflow:visible;visibility:visible;isolation:auto;mix-blend-mode:normal;color-interpolation:sRGB;color-interpolation-filters:linearRGB;solid-color:#000000;solid-opacity:1;vector-effect:none;fill:currentColor;fill-opacity:1;fill-rule:nonzero;stroke:none;stroke-linecap:round;stroke-linejoin:round;stroke-miterlimit:4;stroke-dasharray:none;stroke-dashoffset:0;stroke-opacity:1;color-rendering:auto;image-rendering:auto;shape-rendering:auto;text-rendering:auto;enable-background:accumulate;stop-color:#000000;stop-opacity:1;opacity:1"
     d="M 256 48 C 141.31429 48 48 141.31429 48 256 C 48 370.68571 141.31429 464 256 464 C 370.68571 464 464 370.68571 464 256 C 464 141.31429 370.68571 48 256 48 z M 256 80 C 353.39163 80 432 158.60837 432 256 C 432 353.39163 353.39163 432 256 432 C 158.60837 432 80 353.39163 80 256 C 80 158.60837 158.60837 80 256 80 z "
     id="circle6" />
  <path
     style="color:#000000;font-style:normal;font-variant:normal;font-weight:normal;font-stretch:normal;font-size:medium;line-height:normal;font-family:sans-serif;font-variant-ligatures:normal;font-variant-position:normal;font-variant-caps:normal;font-variant-numeric:normal;font-variant-alternates:normal;font-variant-east-asian:normal;font-feature-settings:normal;font-variation-settings:normal;text-indent:0;text-align:start;text-decoration:none;text-decoration-line:none;text-decoration-style:solid;text-decoration-color:#000000;letter-spacing:normal;word-spacing:normal;text-transform:none;writing-mode:lr-tb;direction:ltr;text-orientation:mixed;dominant-baseline:auto;baseline-shift:baseline;text-anchor:start;white-space:normal;shape-padding:0;shape-margin:0;inline-size:0;clip-rule:nonzero;display:inline;overflow:visible;visibility:visible;isolation:auto;mix-blend-mode:normal;color-interpolation:sRGB;color-interpolation-filters:linearRGB;solid-color:#000000;solid-opacity:1;vector-effect:none;fill:currentColor;fill-opacity:1;fill-rule:nonzero;stroke:none;stroke-linecap:round;stroke-linejoin:round;stroke-miterlimit:4;stroke-dasharray:none;stroke-dashoffset:0;stroke-opacity:1;color-rendering:auto;image-rendering:auto;shape-rendering:auto;text-rendering:auto;enable-background:accumulate;stop-color:#000000;stop-opacity:1;opacity:1"
     d="M 256.6543 58.349609 A 16 16 0 0 0 255.74023 58.375 A 16 16 0 0 0 240.6543 75.240234 C 246.43271 178.94152 328.13036 262.67143 431.6582 270.99805 A 16 16 0 0 0 448.88867 256.33203 A 16 16 0 0 0 434.22266 239.10156 C 346.39856 232.03798 277.50737 161.43021 272.60547 73.458984 A 16 16 0 0 0 256.6543 58.349609 z M 125.94336 217.74023 A 16 16 0 0 0 110.76562 229.27734 L 106.19922 245.00195 C 96.085508 242.88413 85.773911 241.30707 75.183594 240.71484 A 16 16 0 0 0 58.314453 255.79688 A 16 16 0 0 0 73.396484 272.66602 C 81.530438 273.12088 89.45213 274.29747 97.251953 275.81055 L 93.175781 289.84766 A 16 16 0 0 0 104.07812 309.67578 A 16 16 0 0 0 123.9043 298.77148 L 127.98242 284.73242 C 136.11719 287.92857 143.98688 291.62377 151.47461 295.94141 L 142.98438 307.95508 A 16 16 0 0 0 146.81445 330.25586 A 16 16 0 0 0 169.11523 326.42578 L 177.61133 314.4043 C 184.79972 320.5241 191.54467 327.14664 197.66406 334.33984 L 185.57422 342.88477 A 16 16 0 0 0 181.74414 365.18555 A 16 16 0 0 0 204.04492 369.01562 L 216.06836 360.51758 C 220.38128 368.00381 224.09303 375.87179 227.28711 384.01172 L 213.22852 388.0957 A 16 16 0 0 0 202.32422 407.92188 A 16 16 0 0 0 222.15234 418.82422 L 236.20117 414.74414 C 237.47752 421.33192 238.51904 428.0055 239.04688 434.8418 A 16 16 0 0 0 256.23242 449.5625 A 16 16 0 0 0 270.95312 432.37891 C 270.25377 423.32115 268.77798 414.50306 266.96094 405.8125 L 282.72266 401.23438 A 16 16 0 0 0 293.625 381.4082 A 16 16 0 0 0 273.79688 370.50391 L 258.14453 375.05078 C 253.79046 363.51708 248.46323 352.4731 242.22852 342.02734 L 255.54492 332.61523 A 16 16 0 0 0 259.375 310.31445 A 16 16 0 0 0 237.07422 306.48438 L 223.70898 315.93164 C 215.37315 305.86747 206.17846 296.55458 196.11914 288.2207 L 205.51562 274.92578 A 16 16 0 0 0 201.68555 252.625 A 16 16 0 0 0 179.38477 256.45508 L 169.9082 269.86328 C 159.46368 263.62576 148.44415 258.30043 136.92383 253.94531 L 141.49609 238.20312 A 16 16 0 0 0 130.5918 218.375 A 16 16 0 0 0 125.94336 217.74023 z "
     id="path8" />
</svg>
