<?xml version="1.0" encoding="UTF-8" standalone="no"?>
<svg
   xmlns:dc="http://purl.org/dc/elements/1.1/"
   xmlns:cc="http://creativecommons.org/ns#"
   xmlns:rdf="http://www.w3.org/1999/02/22-rdf-syntax-ns#"
   xmlns:svg="http://www.w3.org/2000/svg"
   xmlns="http://www.w3.org/2000/svg"
   xmlns:sodipodi="http://sodipodi.sourceforge.net/DTD/sodipodi-0.dtd"
   xmlns:inkscape="http://www.inkscape.org/namespaces/inkscape"
   class="ionicon"
   viewBox="0 0 512 512"
   version="1.1"
   id="svg8"
   sodipodi:docname="baseball.svg"
   inkscape:version="1.0.2 (e86c8708, 2021-01-15)">
  <metadata
     id="metadata14">
    <rdf:RDF>
      <cc:Work
         rdf:about="">
        <dc:format>image/svg+xml</dc:format>
        <dc:type
           rdf:resource="http://purl.org/dc/dcmitype/StillImage" />
      </cc:Work>
    </rdf:RDF>
  </metadata>
  <defs
     id="defs12" />
  <sodipodi:namedview
     pagecolor="#ffffff"
     bordercolor="#666666"
     borderopacity="1"
     objecttolerance="10"
     gridtolerance="10"
     guidetolerance="10"
     inkscape:pageopacity="0"
     inkscape:pageshadow="2"
     inkscape:window-width="689"
     inkscape:window-height="480"
     id="namedview10"
     showgrid="false"
     inkscape:zoom="1.3027344"
     inkscape:cx="256"
     inkscape:cy="256"
     inkscape:window-x="44"
     inkscape:window-y="25"
     inkscape:window-maximized="0"
     inkscape:current-layer="svg8" />
  <title
     id="title2">Baseball</title>
  <path
     style="color:#000000;font-style:normal;font-variant:normal;font-weight:normal;font-stretch:normal;font-size:medium;line-height:normal;font-family:sans-serif;font-variant-ligatures:normal;font-variant-position:normal;font-variant-caps:normal;font-variant-numeric:normal;font-variant-alternates:normal;font-variant-east-asian:normal;font-feature-settings:normal;font-variation-settings:normal;text-indent:0;text-align:start;text-decoration:none;text-decoration-line:none;text-decoration-style:solid;text-decoration-color:#000000;letter-spacing:normal;word-spacing:normal;text-transform:none;writing-mode:lr-tb;direction:ltr;text-orientation:mixed;dominant-baseline:auto;baseline-shift:baseline;text-anchor:start;white-space:normal;shape-padding:0;shape-margin:0;inline-size:0;clip-rule:nonzero;display:inline;overflow:visible;visibility:visible;isolation:auto;mix-blend-mode:normal;color-interpolation:sRGB;color-interpolation-filters:linearRGB;solid-color:#000000;solid-opacity:1;vector-effect:none;fill:#000000;fill-opacity:1;fill-rule:nonzero;stroke-width:1;stroke-linecap:butt;stroke-linejoin:miter;stroke-miterlimit:4;stroke-dasharray:none;stroke-dashoffset:0;stroke-opacity:1;color-rendering:auto;image-rendering:auto;shape-rendering:auto;text-rendering:auto;enable-background:accumulate;stop-color:#000000;stop-opacity:1;stroke:none;opacity:1"
     d="m 444,295.67 -0.47,-26.07 c -13.21167,-0.30982 -26.36262,-1.89382 -39.27,-4.73 l -5,17.35 c -2.00924,7.6052 -9.88801,12.06276 -17.44176,9.86801 C 374.26449,289.89327 370.00106,281.90779 372.38,274.41 l 5,-17.38 c -12.54998,-4.60271 -24.62331,-10.41332 -36.05,-17.35 l -10.44,14.77 c -4.46246,6.31538 -13.19962,7.81746 -19.515,3.355 -6.31537,-4.46247 -7.81746,-13.19962 -3.355,-19.515 l 10.41,-14.73 c -11.01163,-8.93444 -21.06556,-18.98837 -30,-30 L 273.71,204 c -6.31538,4.46246 -15.05253,2.96037 -19.515,-3.355 -4.46246,-6.31538 -2.96038,-15.05254 3.355,-19.515 l 14.74,-10.42 c -6.95414,-11.42516 -12.77514,-23.50255 -17.38,-36.06 l -17.32,5 c -7.42547,2.15667 -15.19332,-2.11453 -17.34999,-9.54 -2.15668,-7.42547 2.11452,-15.19333 9.53999,-17.35 l 17.3,-5 c -2.34341,-10.727812 -3.8248,-21.625911 -4.43,-32.59 -0.11333,-2 -0.19333,-4 -0.24,-6 l -18.22,-0.33 c -7.63026,-0.141729 -13.74132,-6.368422 -13.74,-14 C 135.32389,71.491872 75.528998,128.25952 55,202.42 c 8.314321,0.5191 14.839166,7.33104 15,15.66 l 0.44,24.43 c 1.58,0.05 3.16,0.11 4.73,0.2 10.964089,0.6052 21.862188,2.08659 32.59,4.43 l 5,-17.3 c 2.15667,-7.42547 9.92453,-11.69667 17.35,-9.53999 7.42547,2.15667 11.69667,9.92452 9.54,17.34999 l -5,17.32 c 12.53703,4.60792 24.59423,10.42886 36,17.38 L 181,257.61 c 4.46246,-6.31538 13.19962,-7.81746 19.515,-3.35499 6.31537,4.46246 7.81746,13.19961 3.355,19.51499 l -10.39,14.73 c 5.50511,4.46797 10.77549,9.21765 15.79,14.23 5.01478,5.01221 9.76457,10.28271 14.23,15.79 l 14.73,-10.41 c 6.3209,-4.46246 15.06253,-2.9559 19.52499,3.365 4.46247,6.3209 2.95591,15.06254 -3.36499,19.525 l -14.76,10.43 c 6.94084,11.4239 12.75804,23.49366 17.37,36.04 l 17.38,-5.05 c 7.42547,-2.15667 15.19332,2.11453 17.34999,9.54 2.15668,7.42547 -2.11452,15.19333 -9.53999,17.35 l -17.35,5 c 2.76095,12.58484 4.33452,25.40105 4.7,38.28 l 18.27,0.33 c 8.83321,0.15875 15.86603,7.44674 15.71,16.28 -0.006,0.39777 -0.0331,0.79495 -0.08,1.19 75.23065,-17.91374 134.31204,-76.08613 153.39,-151.03 -7.15419,-0.59873 -12.69604,-6.51205 -12.83,-13.69 z"
     id="path4" />
  <path
     style="color:#000000;font-style:normal;font-variant:normal;font-weight:normal;font-stretch:normal;font-size:medium;line-height:normal;font-family:sans-serif;font-variant-ligatures:normal;font-variant-position:normal;font-variant-caps:normal;font-variant-numeric:normal;font-variant-alternates:normal;font-variant-east-asian:normal;font-feature-settings:normal;font-variation-settings:normal;text-indent:0;text-align:start;text-decoration:none;text-decoration-line:none;text-decoration-style:solid;text-decoration-color:#000000;letter-spacing:normal;word-spacing:normal;text-transform:none;writing-mode:lr-tb;direction:ltr;text-orientation:mixed;dominant-baseline:auto;baseline-shift:baseline;text-anchor:start;white-space:normal;shape-padding:0;shape-margin:0;inline-size:0;clip-rule:nonzero;display:inline;overflow:visible;visibility:visible;isolation:auto;mix-blend-mode:normal;color-interpolation:sRGB;color-interpolation-filters:linearRGB;solid-color:#000000;solid-opacity:1;vector-effect:none;fill:#000000;fill-opacity:1;fill-rule:nonzero;stroke-width:1;stroke-linecap:butt;stroke-linejoin:miter;stroke-miterlimit:4;stroke-dasharray:none;stroke-dashoffset:0;stroke-opacity:1;color-rendering:auto;image-rendering:auto;shape-rendering:auto;text-rendering:auto;enable-background:accumulate;stop-color:#000000;stop-opacity:1;stroke:none;opacity:1"
     d="m 301.49,56.2 c -0.10929,7.649877 -6.33934,13.795316 -13.99,13.8 h -0.25 l -16.81,-0.3 c 0.05,1.31 0.1,2.62 0.17,3.93 0.49356,8.843085 1.64339,17.637286 3.44,26.31 l 16.29,-4.74 c 7.1549,-1.491643 14.25332,2.771558 16.29816,9.78841 2.04484,7.01685 -1.65205,14.426 -8.48816,17.01159 l -16.27,4.73 c 3.63704,9.59691 8.09698,18.8614 13.33,27.69 l 13.84,-9.78 c 6.31538,-4.46246 15.05253,-2.96037 19.515,3.355 4.46246,6.31538 2.96038,15.05254 -3.355,19.515 l -13.86,9.79 c 3.5,4.22 7.20667,8.28333 11.12,12.19 3.9,3.91 8,7.6 12.2,11.1 l 9.78,-13.84 c 4.48732,-6.31538 13.24462,-7.79731 19.56,-3.31 6.31537,4.48732 7.79732,13.24462 3.31,19.56 l -9.76,13.8 c 8.8272,5.22913 18.08803,9.68892 27.68,13.33 L 390,213.85 c 2.15667,-7.42547 9.92453,-11.69667 17.35,-9.53999 7.42547,2.15667 11.69667,9.92452 9.54,17.34999 l -4.73,16.26 c 10.18988,2.12062 20.54636,3.34198 30.95,3.65 l -0.16,-9 c -0.13372,-7.7286 6.02146,-14.10313 13.75,-14.24 h 0.25 c 0.86903,0.006 1.73578,0.0901 2.59,0.25 -15.58,-81.01396 -77.56747,-145.163149 -158,-163.51 -0.06,0.4 -0.04,0.76 -0.05,1.13 z m -93.05,401.35 c 0.15875,-8.83321 7.44674,-15.86603 16.28,-15.71 l 16.76,0.29 c -0.35931,-10.0676 -1.5703,-20.08671 -3.62,-29.95 l -16.26,4.72 c -7.42823,2.15667 -15.19832,-2.11677 -17.35499,-9.545 -2.15668,-7.42823 2.11676,-15.19833 9.54499,-17.355 L 230,385.3 c -3.63692,-9.59375 -8.09688,-18.85494 -13.33,-27.68 l -13.8,9.76 c -6.31538,4.46246 -15.05253,2.96037 -19.515,-3.355 -4.46246,-6.31538 -2.96038,-15.05254 3.355,-19.515 l 13.84,-9.78 c -3.5,-4.22 -7.19,-8.3 -11.1,-12.2 -3.91,-3.9 -8,-7.62 -12.19,-11.12 l -9.79,13.86 c -4.46246,6.31538 -13.19962,7.81746 -19.515,3.355 -6.31537,-4.46247 -7.81746,-13.19962 -3.355,-19.515 l 9.78,-13.84 c -8.82646,-5.23701 -18.09131,-9.69712 -27.69,-13.33 L 122,298.21 c -2.15667,7.42823 -9.92677,11.70167 -17.355,9.54499 C 97.216772,305.59832 92.943327,297.82823 95.1,290.4 l 4.73,-16.29 c -8.671779,-1.80214 -17.466395,-2.95203 -26.31,-3.44 -0.89,-0.05 -1.79,-0.08 -2.68,-0.12 L 71,281.14 c 0.156032,8.83326 -6.876792,16.12125 -15.71,16.28 H 55 c -1.329421,-0.006 -2.652955,-0.17697 -3.94,-0.51 15.398702,81.05577 77.25045,145.34785 157.65,163.87 -0.20105,-1.06449 -0.29153,-2.14691 -0.27,-3.23 z"
     id="path6" />
</svg>
