<?xml version="1.0" encoding="UTF-8"?>
<svg width="512px" height="512px" viewBox="0 0 512 512" version="1.1" xmlns="http://www.w3.org/2000/svg" xmlns:xlink="http://www.w3.org/1999/xlink">
    <!-- Generator: Sketch 62 (91390) - https://sketch.com -->
    <title>Artboard</title>
    <desc>Created with Sketch.</desc>
    <g id="Artboard" stroke="none" stroke-width="1" fill="none" fill-rule="evenodd">
        <g id="baseball-outline" transform="translate(48.000000, 48.000000)" fill="#000000" fill-rule="nonzero">
            <path d="M208,0 C322.7,0 416,93.3 416,208 C416,322.7 322.7,416 208,416 C93.3,416 0,322.7 0,208 C0,93.3 93.3,0 208,0 Z M193.074313,32.6316892 L190.747576,32.840024 C106.740292,41.0617294 39.8065172,108.670237 32.6362673,192.975531 C41.2749756,193.682895 49.8204793,194.927864 58.2306048,196.688886 L62.7,181.3 C65.2,172.8 74,167.9 82.5,170.4 C91,172.9 95.9,181.7 93.4,190.2 L88.9211677,205.625025 C100.433082,209.960933 111.547391,215.311991 122.12837,221.617199 L131.4,208.5 C136.5,201.3 146.5,199.6 153.7,204.7 C160.9,209.8 162.6,219.8 157.5,227 L148.271319,240.056913 C152.691134,243.713865 156.971834,247.563571 161.1,251.6 C166.348208,256.731581 171.298876,262.118196 175.939301,267.73196 L189,258.5 C196.2,253.4 206.2,255.1 211.3,262.3 C216.4,269.5 214.7,279.5 207.5,284.6 L194.360944,293.88764 C200.65183,304.464947 205.99202,315.580243 210.319095,327.096507 L225.8,322.6 C234.3,320.1 243.2,325 245.6,333.5 C248.1,342 243.2,350.9 234.7,353.3 L219.233198,357.791891 C220.987874,366.196525 222.228336,374.737264 222.933706,383.368276 C308.042133,376.177375 376.154875,308.076855 383.368069,222.973401 L383.7,223 C374.895002,222.297006 366.185755,221.034948 357.62003,219.236625 L353.1,234.8 C351.1,241.8 344.8,246.3 337.8,246.3 C336.3,246.3 334.8,246.1 333.3,245.7 C324.8,243.2 319.9,234.4 322.4,225.9 L326.937408,210.279114 C315.516794,205.96614 304.493315,200.653252 293.998734,194.403338 L284.6,207.7 C281.4,212 276.5,214.4 271.5,214.4 C268.3,214.4 265.1,213.4 262.3,211.5 C255.1,206.4 253.4,196.4 258.5,189.2 L267.852069,175.968754 C262.159353,171.259909 256.69913,166.232441 251.5,160.9 C247.494471,156.791765 243.673865,152.533767 240.043981,148.139084 L226.8,157.5 C224.1,159.6 220.8,160.5 217.6,160.5 C212.6,160.5 207.6,158.1 204.5,153.7 C199.4,146.5 201.1,136.5 208.3,131.4 L221.626148,121.980527 C215.3821,111.481951 210.077921,100.460865 205.771945,89.0488938 L190.1,93.6 C188.7,94 187.1,94.2 185.7,94.2 C178.8,94.2 172.4,89.7 170.3,82.7 C167.8,74.2 172.7,65.3 181.2,62.9 L196.817685,58.364319 C195.04165,49.9085853 193.787045,41.3156682 193.074313,32.6316892 Z M32.8335505,225.176979 L32.840024,225.252424 C40.990185,308.528686 107.498091,375.02729 190.778507,383.163 C190.235466,377.639099 189.432711,372.163961 188.378877,366.75334 L174.1,370.9 C172.7,371.3 171.2,371.5 169.7,371.5 C162.8,371.5 156.4,367 154.3,360 C151.8,351.5 156.7,342.6 165.2,340.2 L179.445901,336.062891 C176.251074,327.9257 172.45369,320.035365 168.084442,312.459596 L156,321 C153.2,323 150,324 146.8,324 C141.8,324 136.8,321.6 133.7,317.2 C128.6,310 130.3,300 137.5,294.9 L149.643832,286.316829 C146.18891,282.261199 142.538706,278.350605 138.7,274.6 C135.778239,271.745295 132.767463,269.000712 129.674089,266.369239 L121.1,278.5 C118,282.8 113.1,285.2 108,285.2 C104.8,285.2 101.6,284.2 98.8,282.3 C91.6,277.2 89.9,267.2 95,260 L103.531501,247.928244 C95.9554176,243.553201 88.069186,239.74998 79.938726,236.549282 L75.8,250.8 C73.9,257.8 67.5,262.3 60.5,262.3 C59,262.3 57.5,262.1 56,261.7 C47.5,259.2 42.6,250.4 45.1,241.9 L49.2561175,227.589797 C43.8410696,226.53091 38.3614479,225.724107 32.8335505,225.176979 Z M225.278484,32.8425764 L225.295512,33.02354 C225.845538,38.5322903 226.651549,43.9941727 227.706869,49.3925002 L241.8,45.3 C250.3,42.8 259.2,47.7 261.6,56.2 C264.1,64.7 259.2,73.6 250.7,76 L236.657184,80.0787169 C239.819718,88.1201503 243.572633,95.9216352 247.889572,103.417278 L259.8,95 C267,89.9 277,91.6 282.1,98.8 C287.2,106 285.5,116 278.3,121.1 L266.327951,129.563097 C268.939804,132.626473 271.664681,135.607594 274.5,138.5 C278.319673,142.42256 282.304747,146.148292 286.439907,149.670176 L294.9,137.7 C300,130.5 310,128.8 317.2,133.9 C324.4,139 326.1,149 321,156.2 L312.588489,168.103316 C320.07928,172.418014 327.878579,176.172171 335.923116,179.336789 L340,165.3 C342.5,156.8 351.3,151.9 359.8,154.4 C368.3,156.9 373.2,165.7 370.7,174.2 L366.609219,188.285776 C372.062023,189.350658 377.582877,190.161373 383.155381,190.710407 C374.991398,107.470034 308.519554,41.0018057 225.278484,32.8425764 Z" id="Combined-Shape"></path>
        </g>
    </g>
</svg>