<?xml version="1.0" encoding="utf-8"?>
<!-- Generator: Adobe Illustrator 24.0.0, SVG Export Plug-In . SVG Version: 6.00 Build 0)  -->
<svg version="1.1" id="Layer_1" xmlns="http://www.w3.org/2000/svg" xmlns:xlink="http://www.w3.org/1999/xlink" x="0px" y="0px"
	 viewBox="0 0 512 512" style="enable-background:new 0 0 512 512;" xml:space="preserve">
<title>ionicons-v5-d</title>
<g>
	<path d="M139.4,445.5c-25.1,0-47.5-16.9-54.3-41.2L33.5,222.2c-1-3.3-1.5-6.7-1.5-10.2c0.2-19.8,16.5-36,36.4-36c0,0,0,0,0,0h375.2
		c0,0,0,0,0,0c19.9,0,36.2,16.2,36.4,36.1c0,0.6,0,1.3-0.1,1.9l-0.6,5.5c-0.1,0.9-0.3,1.8-0.5,2.6l-51.7,182.3
		c-7,24.3-29.5,41.1-54.7,41.1c0,0,0,0,0,0H139.6C139.5,445.5,139.5,445.5,139.4,445.5z M68.4,208c-2.4,0-4.4,1.9-4.4,4.3
		c0,0.2,0,0.4,0.1,0.6c0,0.1,0.1,0.2,0.1,0.4l51.7,182.3c3,10.5,12.6,17.9,23.6,17.9c0,0,0.1,0,0.1,0h232.9c0,0,0,0,0,0
		c11,0,20.8-7.4,23.9-18l51.3-180.9l0.3-2.9c-0.3-2.1-2.1-3.7-4.3-3.7c0,0,0,0,0,0H68.4C68.4,208,68.4,208,68.4,208z M261.7,368.1
		C261.7,368.1,261.7,368.1,261.7,368.1c-32.1-0.2-58-26.3-57.9-58.4c0.2-31.9,26.2-57.8,58.1-57.8c0.1,0,0.2,0,0.3,0
		c31.9,0.2,57.8,26.2,57.8,58.1C319.8,342.1,293.7,368.1,261.7,368.1z M261.9,283.9c-14.3,0-26,11.6-26.1,25.9
		c-0.1,14.4,11.5,26.1,25.9,26.2c14.4,0,26.2-11.7,26.2-26.1c0-14.2-11.6-25.9-25.9-26C262,283.9,262,283.9,261.9,283.9z"/>
</g>
<g>
	<path d="M339.2,201.6L256,90.7l-83.2,110.9l-25.6-19.2l96-128c3-4,7.8-6.4,12.8-6.4s9.8,2.4,12.8,6.4l96,128L339.2,201.6z"/>
</g>
</svg>
