<?xml version="1.0" encoding="UTF-8" standalone="no"?>
<svg
   xmlns:dc="http://purl.org/dc/elements/1.1/"
   xmlns:cc="http://creativecommons.org/ns#"
   xmlns:rdf="http://www.w3.org/1999/02/22-rdf-syntax-ns#"
   xmlns:svg="http://www.w3.org/2000/svg"
   xmlns="http://www.w3.org/2000/svg"
   xmlns:sodipodi="http://sodipodi.sourceforge.net/DTD/sodipodi-0.dtd"
   xmlns:inkscape="http://www.inkscape.org/namespaces/inkscape"
   class="ionicon"
   viewBox="0 0 512 512"
   version="1.1"
   id="svg6"
   sodipodi:docname="basketball-sharp.svg"
   inkscape:version="1.0.2 (e86c8708, 2021-01-15)">
  <metadata
     id="metadata12">
    <rdf:RDF>
      <cc:Work
         rdf:about="">
        <dc:format>image/svg+xml</dc:format>
        <dc:type
           rdf:resource="http://purl.org/dc/dcmitype/StillImage" />
      </cc:Work>
    </rdf:RDF>
  </metadata>
  <defs
     id="defs10" />
  <sodipodi:namedview
     pagecolor="#ffffff"
     bordercolor="#666666"
     borderopacity="1"
     objecttolerance="10"
     gridtolerance="10"
     guidetolerance="10"
     inkscape:pageopacity="0"
     inkscape:pageshadow="2"
     inkscape:window-width="689"
     inkscape:window-height="480"
     id="namedview8"
     showgrid="false"
     inkscape:zoom="1.3027344"
     inkscape:cx="256"
     inkscape:cy="256"
     inkscape:window-x="44"
     inkscape:window-y="25"
     inkscape:window-maximized="0"
     inkscape:current-layer="svg6" />
  <title
     id="title2">Basketball</title>
  <path
     style="color:#000000;font-style:normal;font-variant:normal;font-weight:normal;font-stretch:normal;font-size:medium;line-height:normal;font-family:sans-serif;font-variant-ligatures:normal;font-variant-position:normal;font-variant-caps:normal;font-variant-numeric:normal;font-variant-alternates:normal;font-variant-east-asian:normal;font-feature-settings:normal;font-variation-settings:normal;text-indent:0;text-align:start;text-decoration:none;text-decoration-line:none;text-decoration-style:solid;text-decoration-color:#000000;letter-spacing:normal;word-spacing:normal;text-transform:none;writing-mode:lr-tb;direction:ltr;text-orientation:mixed;dominant-baseline:auto;baseline-shift:baseline;text-anchor:start;white-space:normal;shape-padding:0;shape-margin:0;inline-size:0;clip-rule:nonzero;display:inline;overflow:visible;visibility:visible;isolation:auto;mix-blend-mode:normal;color-interpolation:sRGB;color-interpolation-filters:linearRGB;solid-color:#000000;solid-opacity:1;vector-effect:none;fill:#000000;fill-opacity:1;fill-rule:nonzero;stroke-width:1;stroke-linecap:butt;stroke-linejoin:miter;stroke-miterlimit:4;stroke-dasharray:none;stroke-dashoffset:0;stroke-opacity:1;color-rendering:auto;image-rendering:auto;shape-rendering:auto;text-rendering:auto;enable-background:accumulate;stop-color:#000000;stop-opacity:1;stroke:none;opacity:1"
     d="m 256,233.37 34.45,-34.45 c -32.37517,-37.62015 -50.16154,-85.61709 -50.12,-135.25 0,-5 0.19,-10.05 0.54,-15 C 196.54891,51.793165 154.40738,69.088021 120.67,98 Z M 313.14,176.23 391.33,98 C 358.08143,69.500249 316.65349,52.275078 273,48.8 c -0.41,4.9 -0.64,9.86 -0.64,14.87 -0.0411,41.14374 14.39515,80.99026 40.78,112.56 z m 22.63,22.63 c 31.56557,26.39566 71.41252,40.84265 112.56,40.81 5,0 10,-0.23 14.87,-0.64 C 459.73113,195.36603 442.50558,153.92669 414,120.67 Z M 176.23,313.14 c -31.56471,-26.39716 -71.41222,-40.84436 -112.56,-40.81 -5.013333,0 -9.97,0.21333 -14.87,0.64 3.468874,43.66397 20.694419,85.10331 49.2,118.36 z M 256,278.63 221.55,313.08 c 32.37517,37.62015 50.16154,85.61709 50.12,135.25 0,5 -0.19,10.05 -0.54,15 44.32158,-3.12107 86.46375,-20.41618 120.2,-49.33 z m 192.33,-6.96 c -49.63291,0.0415 -97.62985,-17.74483 -135.25,-50.12 L 278.63,256 414,391.33 c 28.93369,-33.72958 46.24989,-75.87188 49.39,-120.2 -5.01,0.35 -10.02,0.54 -15.06,0.54 z M 233.37,256 98,120.67 c -28.935524,33.72845 -46.251991,75.87139 -49.39,120.2 5,-0.35 10,-0.54 15,-0.54 49.63291,-0.0415 97.62985,17.74483 135.25,50.12 z m -112.7,158 c 33.24857,28.49975 74.67651,45.72492 118.33,49.2 0.42,-4.9 0.63333,-9.85667 0.64,-14.87 0.0344,-41.14778 -14.41284,-80.99529 -40.81,-112.56 z"
     id="path4" />
</svg>
