<?xml version="1.0" encoding="UTF-8"?>
<svg width="512px" height="512px" viewBox="0 0 512 512" version="1.1" xmlns="http://www.w3.org/2000/svg" xmlns:xlink="http://www.w3.org/1999/xlink">
    <!-- Generator: Sketch 62 (91390) - https://sketch.com -->
    <title>Artboard</title>
    <desc>Created with Sketch.</desc>
    <g id="Artboard" stroke="none" stroke-width="1" fill="none" fill-rule="evenodd">
        <g id="basketball-outline" transform="translate(48.000000, 48.000000)" fill="#000000" fill-rule="nonzero">
            <path d="M208,0 C322.7,0 416,93.3 416,208 C416,264.868935 393.06467,316.477248 355.957233,354.061714 C355.653986,354.416039 355.336103,354.763897 355,355.1 C354.652351,355.447649 354.293383,355.776433 353.924225,356.086212 C316.354728,393.119083 264.801435,416 208,416 C151.413155,416 100.034874,393.29164 62.498618,356.508385 C61.9444013,356.077073 61.4087349,355.608735 60.9,355.1 C60.3965133,354.596513 59.9339136,354.066648 59.5122008,353.514688 C22.7152331,315.980677 0,264.595408 0,208 C0,151.187483 22.8898458,99.6251559 59.9323687,62.0501872 C60.2388865,61.6917648 60.5601277,61.3398723 60.9,61 C61.2361029,60.6638971 61.5839609,60.3460143 61.9422993,60.0463517 C99.5227524,22.9353303 151.131065,0 208,0 Z M208.004,230.65 L173.653337,265.01426 C202.022961,298.161202 219.357092,339.604265 222.933706,383.368276 C259.875725,380.24879 293.615902,365.650819 320.563413,343.16801 L208.004,230.65 Z M150.885792,287.791061 L95.4868676,343.209944 C121.86852,365.204151 154.754343,379.64378 190.778507,383.163 C187.31538,347.999807 173.368547,314.778065 150.885792,287.791061 Z M265.037176,173.598097 L230.573,208.073 L343.120183,320.620713 C365.621986,293.673475 380.236017,259.926302 383.368069,222.973401 L383.7,223 C339.789419,219.494165 298.260196,202.084275 265.037176,173.598097 Z M32.8335505,225.176979 L32.840024,225.252424 C36.366861,261.288743 50.8216028,294.183326 72.8345064,320.566429 L128.238743,265.161262 C101.182545,242.634675 67.9840293,228.656024 32.8335505,225.176979 Z M32.840024,190.747576 L32.6396849,192.974467 C76.3806005,196.562912 117.817767,213.917928 151.025836,242.376436 L185.373,208.027 L72.7908943,95.4858618 C50.8025113,121.860133 36.3645313,154.735061 32.840024,190.747576 Z M343.16801,95.4365874 L287.804836,150.820733 C314.761514,173.309809 347.926292,187.239446 383.155381,190.710407 C379.623087,154.689452 365.171744,121.809886 343.16801,95.4365874 Z M193.074313,32.6316892 L190.747576,32.840024 C154.686538,36.3692803 121.771547,50.8414386 95.3792871,72.8798169 L207.95,185.45 L242.428394,150.974129 C213.982946,117.757214 196.662331,76.3483379 193.074313,32.6316892 Z M225.278484,32.8425764 L225.295512,33.02354 C228.796373,68.0861615 242.667635,101.250075 265.188184,128.212493 L320.566429,72.8345064 C294.189685,50.8269092 261.304602,36.3738304 225.278484,32.8425764 Z" id="Combined-Shape"></path>
        </g>
    </g>
</svg>