<?xml version="1.0" encoding="UTF-8" standalone="no"?>
<svg
   xmlns:dc="http://purl.org/dc/elements/1.1/"
   xmlns:cc="http://creativecommons.org/ns#"
   xmlns:rdf="http://www.w3.org/1999/02/22-rdf-syntax-ns#"
   xmlns:svg="http://www.w3.org/2000/svg"
   xmlns="http://www.w3.org/2000/svg"
   xmlns:sodipodi="http://sodipodi.sourceforge.net/DTD/sodipodi-0.dtd"
   xmlns:inkscape="http://www.inkscape.org/namespaces/inkscape"
   class="ionicon"
   viewBox="0 0 512 512"
   version="1.1"
   id="svg8"
   sodipodi:docname="basket-outline.svg"
   inkscape:version="1.0.2 (e86c8708, 2021-01-15)">
  <metadata
     id="metadata14">
    <rdf:RDF>
      <cc:Work
         rdf:about="">
        <dc:format>image/svg+xml</dc:format>
        <dc:type
           rdf:resource="http://purl.org/dc/dcmitype/StillImage" />
      </cc:Work>
    </rdf:RDF>
  </metadata>
  <defs
     id="defs12" />
  <sodipodi:namedview
     pagecolor="#ffffff"
     bordercolor="#666666"
     borderopacity="1"
     objecttolerance="10"
     gridtolerance="10"
     guidetolerance="10"
     inkscape:pageopacity="0"
     inkscape:pageshadow="2"
     inkscape:window-width="689"
     inkscape:window-height="480"
     id="namedview10"
     showgrid="false"
     inkscape:zoom="1.3027344"
     inkscape:cx="256"
     inkscape:cy="256"
     inkscape:window-x="44"
     inkscape:window-y="25"
     inkscape:window-maximized="0"
     inkscape:current-layer="svg8" />
  <title
     id="title2">Basket</title>
  <path
     style="color:#000000;font-style:normal;font-variant:normal;font-weight:normal;font-stretch:normal;font-size:medium;line-height:normal;font-family:sans-serif;font-variant-ligatures:normal;font-variant-position:normal;font-variant-caps:normal;font-variant-numeric:normal;font-variant-alternates:normal;font-variant-east-asian:normal;font-feature-settings:normal;font-variation-settings:normal;text-indent:0;text-align:start;text-decoration:none;text-decoration-line:none;text-decoration-style:solid;text-decoration-color:#000000;letter-spacing:normal;word-spacing:normal;text-transform:none;writing-mode:lr-tb;direction:ltr;text-orientation:mixed;dominant-baseline:auto;baseline-shift:baseline;text-anchor:start;white-space:normal;shape-padding:0;shape-margin:0;inline-size:0;clip-rule:nonzero;display:inline;overflow:visible;visibility:visible;isolation:auto;mix-blend-mode:normal;color-interpolation:sRGB;color-interpolation-filters:linearRGB;solid-color:#000000;solid-opacity:1;vector-effect:none;fill:currentColor;fill-opacity:1;fill-rule:nonzero;stroke:none;stroke-linecap:butt;stroke-linejoin:round;stroke-miterlimit:4;stroke-dasharray:none;stroke-dashoffset:0;stroke-opacity:1;color-rendering:auto;image-rendering:auto;shape-rendering:auto;text-rendering:auto;enable-background:accumulate;stop-color:#000000;stop-opacity:1;opacity:1"
     d="M 68.416016 176 C 48.62912 175.97981 32.194075 192.24845 32.003906 212.03125 C 31.964486 215.55786 32.47334 219.06873 33.517578 222.4375 L 33.40625 222.06445 L 85.097656 404.33398 C 85.098619 404.33741 85.100599 404.34033 85.101562 404.34375 C 91.95714 428.68868 114.36772 445.59542 139.66016 445.5 L 372.38672 445.5 C 397.64904 445.52218 420.03595 428.7169 427.06836 404.45312 A 16.0016 16.0016 0 0 0 427.09375 404.36523 L 478.79297 222.06445 A 16.0016 16.0016 0 0 0 479.30469 219.43555 L 479.90625 213.93555 A 16.0016 16.0016 0 0 0 480 212.05859 C 479.82517 192.26307 463.38027 175.9798 443.58398 176 L 68.416016 176 z M 68.382812 208 A 16.0016 16.0016 0 0 0 68.400391 208 L 443.59961 208 A 16.0016 16.0016 0 0 0 443.61719 208 C 446.07065 207.9975 447.73523 209.59979 447.92969 211.9668 L 447.64062 214.62891 L 396.33008 395.55078 C 393.22396 406.26087 383.56586 413.50979 372.41406 413.5 A 16.0016 16.0016 0 0 0 372.40039 413.5 L 139.59961 413.5 A 16.0016 16.0016 0 0 0 139.53906 413.5 C 128.47295 413.54175 118.89993 406.31848 115.90234 395.66602 A 16.0016 16.0016 0 0 0 115.89258 395.63477 L 64.193359 213.33398 A 16.0016 16.0016 0 0 0 64.082031 212.96289 C 64.024262 212.77652 63.995764 212.58182 63.998047 212.38672 A 16.0016 16.0016 0 0 0 64 212.3418 C 64.022879 209.7513 65.79222 207.99736 68.382812 208 z M 259.08203 252.01758 C 245.01223 252.7198 231.34607 258.516 220.97266 268.83789 C 204.37519 285.35292 199.31806 310.35548 208.19727 332.02148 C 217.07648 353.68751 238.22592 367.95343 261.64062 368.07031 A 16.0016 16.0016 0 0 0 261.7168 368.07031 C 293.60957 368.07821 319.8491 341.96859 320 310.07617 A 16.0016 16.0016 0 0 0 320 310 C 319.99971 286.58501 305.84029 265.36589 284.21875 256.37891 C 276.11068 253.00879 267.52391 251.59624 259.08203 252.01758 z M 260.63867 283.94531 C 264.42087 283.76116 268.27478 284.40533 271.9375 285.92773 C 281.69074 289.98166 287.97787 299.39549 287.99609 309.95508 C 287.91004 324.57753 276.38023 336.05212 261.75781 336.06641 C 251.19764 335.99638 241.81416 329.66063 237.80859 319.88672 C 233.79752 310.09937 236.04401 298.98319 243.54297 291.52148 C 248.22982 286.85792 254.33501 284.25223 260.63867 283.94531 z "
     id="path4" />
  <path
     style="color:#000000;font-style:normal;font-variant:normal;font-weight:normal;font-stretch:normal;font-size:medium;line-height:normal;font-family:sans-serif;font-variant-ligatures:normal;font-variant-position:normal;font-variant-caps:normal;font-variant-numeric:normal;font-variant-alternates:normal;font-variant-east-asian:normal;font-feature-settings:normal;font-variation-settings:normal;text-indent:0;text-align:start;text-decoration:none;text-decoration-line:none;text-decoration-style:solid;text-decoration-color:#000000;letter-spacing:normal;word-spacing:normal;text-transform:none;writing-mode:lr-tb;direction:ltr;text-orientation:mixed;dominant-baseline:auto;baseline-shift:baseline;text-anchor:start;white-space:normal;shape-padding:0;shape-margin:0;inline-size:0;clip-rule:nonzero;display:inline;overflow:visible;visibility:visible;isolation:auto;mix-blend-mode:normal;color-interpolation:sRGB;color-interpolation-filters:linearRGB;solid-color:#000000;solid-opacity:1;vector-effect:none;fill:currentColor;fill-opacity:1;fill-rule:nonzero;stroke:none;stroke-linecap:butt;stroke-linejoin:round;stroke-miterlimit:4;stroke-dasharray:none;stroke-dashoffset:0;stroke-opacity:1;color-rendering:auto;image-rendering:auto;shape-rendering:auto;text-rendering:auto;enable-background:accumulate;stop-color:#000000;stop-opacity:1;opacity:1"
     d="M 256.03516 48.001953 A 16.0016 16.0016 0 0 0 243.19922 54.400391 L 147.19922 182.40039 L 172.80078 201.59961 L 256 90.667969 L 339.19922 201.59961 L 364.80078 182.40039 L 268.80078 54.400391 A 16.0016 16.0016 0 0 0 256.03516 48.001953 z "
     id="path6" />
</svg>
