<?xml version="1.0" encoding="UTF-8" standalone="no"?>
<svg
   xmlns:dc="http://purl.org/dc/elements/1.1/"
   xmlns:cc="http://creativecommons.org/ns#"
   xmlns:rdf="http://www.w3.org/1999/02/22-rdf-syntax-ns#"
   xmlns:svg="http://www.w3.org/2000/svg"
   xmlns="http://www.w3.org/2000/svg"
   xmlns:sodipodi="http://sodipodi.sourceforge.net/DTD/sodipodi-0.dtd"
   xmlns:inkscape="http://www.inkscape.org/namespaces/inkscape"
   class="ionicon"
   viewBox="0 0 512 512"
   version="1.1"
   id="svg8"
   sodipodi:docname="basketball-outline.svg"
   inkscape:version="1.0.2 (e86c8708, 2021-01-15)">
  <metadata
     id="metadata14">
    <rdf:RDF>
      <cc:Work
         rdf:about="">
        <dc:format>image/svg+xml</dc:format>
        <dc:type
           rdf:resource="http://purl.org/dc/dcmitype/StillImage" />
      </cc:Work>
    </rdf:RDF>
  </metadata>
  <defs
     id="defs12" />
  <sodipodi:namedview
     pagecolor="#ffffff"
     bordercolor="#666666"
     borderopacity="1"
     objecttolerance="10"
     gridtolerance="10"
     guidetolerance="10"
     inkscape:pageopacity="0"
     inkscape:pageshadow="2"
     inkscape:window-width="689"
     inkscape:window-height="480"
     id="namedview10"
     showgrid="false"
     inkscape:zoom="1.3027344"
     inkscape:cx="256"
     inkscape:cy="256"
     inkscape:window-x="44"
     inkscape:window-y="25"
     inkscape:window-maximized="0"
     inkscape:current-layer="svg8" />
  <title
     id="title2">Basketball</title>
  <path
     style="color:#000000;font-style:normal;font-variant:normal;font-weight:normal;font-stretch:normal;font-size:medium;line-height:normal;font-family:sans-serif;font-variant-ligatures:normal;font-variant-position:normal;font-variant-caps:normal;font-variant-numeric:normal;font-variant-alternates:normal;font-variant-east-asian:normal;font-feature-settings:normal;font-variation-settings:normal;text-indent:0;text-align:start;text-decoration:none;text-decoration-line:none;text-decoration-style:solid;text-decoration-color:#000000;letter-spacing:normal;word-spacing:normal;text-transform:none;writing-mode:lr-tb;direction:ltr;text-orientation:mixed;dominant-baseline:auto;baseline-shift:baseline;text-anchor:start;white-space:normal;shape-padding:0;shape-margin:0;inline-size:0;clip-rule:nonzero;display:inline;overflow:visible;visibility:visible;isolation:auto;mix-blend-mode:normal;color-interpolation:sRGB;color-interpolation-filters:linearRGB;solid-color:#000000;solid-opacity:1;vector-effect:none;fill:currentColor;fill-opacity:1;fill-rule:nonzero;stroke:none;stroke-linecap:round;stroke-linejoin:round;stroke-miterlimit:4;stroke-dasharray:none;stroke-dashoffset:0;stroke-opacity:1;color-rendering:auto;image-rendering:auto;shape-rendering:auto;text-rendering:auto;enable-background:accumulate;stop-color:#000000;stop-opacity:1;opacity:1"
     d="M 256 48 C 141.31429 48 48 141.31429 48 256 C 48 370.68571 141.31429 464 256 464 C 370.68571 464 464 370.68571 464 256 C 464 141.31429 370.68571 48 256 48 z M 256 80 C 353.39163 80 432 158.60837 432 256 C 432 353.39163 353.39163 432 256 432 C 158.60837 432 80 353.39163 80 256 C 80 158.60837 158.60837 80 256 80 z "
     id="circle4" />
  <path
     style="color:#000000;font-style:normal;font-variant:normal;font-weight:normal;font-stretch:normal;font-size:medium;line-height:normal;font-family:sans-serif;font-variant-ligatures:normal;font-variant-position:normal;font-variant-caps:normal;font-variant-numeric:normal;font-variant-alternates:normal;font-variant-east-asian:normal;font-feature-settings:normal;font-variation-settings:normal;text-indent:0;text-align:start;text-decoration:none;text-decoration-line:none;text-decoration-style:solid;text-decoration-color:#000000;letter-spacing:normal;word-spacing:normal;text-transform:none;writing-mode:lr-tb;direction:ltr;text-orientation:mixed;dominant-baseline:auto;baseline-shift:baseline;text-anchor:start;white-space:normal;shape-padding:0;shape-margin:0;inline-size:0;clip-rule:nonzero;display:inline;overflow:visible;visibility:visible;isolation:auto;mix-blend-mode:normal;color-interpolation:sRGB;color-interpolation-filters:linearRGB;solid-color:#000000;solid-opacity:1;vector-effect:none;fill:currentColor;fill-opacity:1;fill-rule:nonzero;stroke:none;stroke-linecap:round;stroke-linejoin:round;stroke-miterlimit:4;stroke-dasharray:none;stroke-dashoffset:0;stroke-opacity:1;color-rendering:auto;image-rendering:auto;shape-rendering:auto;text-rendering:auto;enable-background:accumulate;stop-color:#000000;stop-opacity:1;opacity:1"
     d="M 256.6543 58.349609 A 16 16 0 0 0 255.74023 58.375 A 16 16 0 0 0 240.6543 75.240234 C 243.27782 122.32294 261.66693 165.18443 290.52734 198.8457 L 256 233.37305 L 131.55273 108.92578 A 16 16 0 0 0 108.92578 108.92578 A 16 16 0 0 0 108.92578 131.55273 L 233.37305 256 L 198.77344 290.59961 C 165.12316 261.73988 122.26735 243.34785 75.183594 240.71484 A 16 16 0 0 0 58.314453 255.79688 A 16 16 0 0 0 73.396484 272.66602 C 112.46093 274.85057 148.05558 289.68919 176.21875 313.1543 L 108.92578 380.44727 A 16 16 0 0 0 108.92578 403.07422 A 16 16 0 0 0 131.55273 403.07422 L 198.81641 335.81055 C 221.47219 363.02103 236.13882 397.17797 239.04688 434.8418 A 16 16 0 0 0 256.23242 449.5625 A 16 16 0 0 0 270.95312 432.37891 C 267.44447 386.93642 249.40032 345.66108 221.50195 313.125 L 256 278.62695 L 380.44727 403.07422 A 16 16 0 0 0 403.07422 403.07422 A 16 16 0 0 0 403.07422 380.44727 L 278.62695 256 L 313.04883 221.57812 C 345.4247 249.34695 386.45802 267.36265 431.6582 270.99805 A 16 16 0 0 0 448.88867 256.33203 A 16 16 0 0 0 434.22266 239.10156 C 396.76326 236.08875 362.81081 221.44043 335.73633 198.89062 L 403.07422 131.55273 A 16 16 0 0 0 403.07422 108.92578 A 16 16 0 0 0 380.44727 108.92578 L 313.08594 176.28711 C 289.62204 148.11551 274.78202 112.52004 272.60547 73.458984 A 16 16 0 0 0 256.6543 58.349609 z "
     id="path6" />
</svg>
