<?xml version="1.0" encoding="UTF-8" standalone="no"?>
<svg
   xmlns:dc="http://purl.org/dc/elements/1.1/"
   xmlns:cc="http://creativecommons.org/ns#"
   xmlns:rdf="http://www.w3.org/1999/02/22-rdf-syntax-ns#"
   xmlns:svg="http://www.w3.org/2000/svg"
   xmlns="http://www.w3.org/2000/svg"
   xmlns:sodipodi="http://sodipodi.sourceforge.net/DTD/sodipodi-0.dtd"
   xmlns:inkscape="http://www.inkscape.org/namespaces/inkscape"
   class="ionicon"
   viewBox="0 0 512 512"
   version="1.1"
   id="svg12"
   sodipodi:docname="battery-charging.svg"
   inkscape:version="1.0.2 (e86c8708, 2021-01-15)">
  <metadata
     id="metadata18">
    <rdf:RDF>
      <cc:Work
         rdf:about="">
        <dc:format>image/svg+xml</dc:format>
        <dc:type
           rdf:resource="http://purl.org/dc/dcmitype/StillImage" />
      </cc:Work>
    </rdf:RDF>
  </metadata>
  <defs
     id="defs16" />
  <sodipodi:namedview
     pagecolor="#ffffff"
     bordercolor="#666666"
     borderopacity="1"
     objecttolerance="10"
     gridtolerance="10"
     guidetolerance="10"
     inkscape:pageopacity="0"
     inkscape:pageshadow="2"
     inkscape:window-width="689"
     inkscape:window-height="480"
     id="namedview14"
     showgrid="false"
     inkscape:zoom="1.3027344"
     inkscape:cx="256"
     inkscape:cy="256"
     inkscape:window-x="44"
     inkscape:window-y="25"
     inkscape:window-maximized="0"
     inkscape:current-layer="svg12" />
  <title
     id="title2">Battery Charging</title>
  <path
     style="color:#000000;font-style:normal;font-variant:normal;font-weight:normal;font-stretch:normal;font-size:medium;line-height:normal;font-family:sans-serif;font-variant-ligatures:normal;font-variant-position:normal;font-variant-caps:normal;font-variant-numeric:normal;font-variant-alternates:normal;font-variant-east-asian:normal;font-feature-settings:normal;font-variation-settings:normal;text-indent:0;text-align:start;text-decoration:none;text-decoration-line:none;text-decoration-style:solid;text-decoration-color:#000000;letter-spacing:normal;word-spacing:normal;text-transform:none;writing-mode:lr-tb;direction:ltr;text-orientation:mixed;dominant-baseline:auto;baseline-shift:baseline;text-anchor:start;white-space:normal;shape-padding:0;shape-margin:0;inline-size:0;clip-rule:nonzero;display:inline;overflow:visible;visibility:visible;isolation:auto;mix-blend-mode:normal;color-interpolation:sRGB;color-interpolation-filters:linearRGB;solid-color:#000000;solid-opacity:1;vector-effect:none;fill:#000000;fill-opacity:1;fill-rule:nonzero;stroke-width:1;stroke-linecap:butt;stroke-linejoin:miter;stroke-miterlimit:4;stroke-dasharray:none;stroke-dashoffset:0;stroke-opacity:1;color-rendering:auto;image-rendering:auto;shape-rendering:auto;text-rendering:auto;enable-background:accumulate;stop-color:#000000;stop-opacity:1;stroke:none;opacity:1"
     d="M 48,322.3 V 189.7 c 0.02204,-16.39372 13.306279,-29.67797 29.7,-29.7 h 137.44 l 24.4,-32 H 77.7 c -34.059977,0.0386 -61.661424,27.64002 -61.7,61.7 v 132.6 c 0.03858,34.05998 27.640023,61.66142 61.7,61.7 h 96.85 c -0.31248,-2.43788 -0.22465,-4.91043 0.26,-7.32 l 0.15,-0.75 0.21,-0.73 6.5,-23.2 H 77.7 C 61.306279,351.97797 48.022035,338.69372 48,322.3 Z M 386.3,128 h -98.64 c 0.29406,2.39906 0.20291,4.8297 -0.27,7.2 l -0.15,0.74 -0.21,0.73 -6.54,23.33 H 386.3 c 16.39372,0.022 29.67797,13.30628 29.7,29.7 v 132.6 c -0.022,16.39372 -13.30628,29.67797 -29.7,29.7 H 247 l -24.42,32 H 386.3 c 34.05998,-0.0386 61.66142,-27.64002 61.7,-61.7 V 189.7 c -0.0386,-34.05998 -27.64002,-61.66142 -61.7,-61.7 z"
     id="path4" />
  <path
     style="color:#000000;font-style:normal;font-variant:normal;font-weight:normal;font-stretch:normal;font-size:medium;line-height:normal;font-family:sans-serif;font-variant-ligatures:normal;font-variant-position:normal;font-variant-caps:normal;font-variant-numeric:normal;font-variant-alternates:normal;font-variant-east-asian:normal;font-feature-settings:normal;font-variation-settings:normal;text-indent:0;text-align:start;text-decoration:none;text-decoration-line:none;text-decoration-style:solid;text-decoration-color:#000000;letter-spacing:normal;word-spacing:normal;text-transform:none;writing-mode:lr-tb;direction:ltr;text-orientation:mixed;dominant-baseline:auto;baseline-shift:baseline;text-anchor:start;white-space:normal;shape-padding:0;shape-margin:0;inline-size:0;clip-rule:nonzero;display:inline;overflow:visible;visibility:visible;isolation:auto;mix-blend-mode:normal;color-interpolation:sRGB;color-interpolation-filters:linearRGB;solid-color:#000000;solid-opacity:1;vector-effect:none;fill:#000000;fill-opacity:1;fill-rule:nonzero;stroke-width:1;stroke-linecap:butt;stroke-linejoin:miter;stroke-miterlimit:4;stroke-dasharray:none;stroke-dashoffset:0;stroke-opacity:1;color-rendering:auto;image-rendering:auto;shape-rendering:auto;text-rendering:auto;enable-background:accumulate;stop-color:#000000;stop-opacity:1;stroke:none;opacity:1"
     d="m 162.65,294.16 c -9.04183,0.002 -17.34147,-5.00258 -21.56,-13 -4.36435,-8.20469 -3.81743,-18.15317 1.42,-25.83 l 0.31,-0.46 0.33,-0.44 L 197.62,183 H 89.69 c -11.045695,0 -20,8.95431 -20,20 v 106 c 0,11.04569 8.954305,20 20,20 h 98.42 l 9.78,-34.86 z"
     id="path6" />
  <path
     style="color:#000000;font-style:normal;font-variant:normal;font-weight:normal;font-stretch:normal;font-size:medium;line-height:normal;font-family:sans-serif;font-variant-ligatures:normal;font-variant-position:normal;font-variant-caps:normal;font-variant-numeric:normal;font-variant-alternates:normal;font-variant-east-asian:normal;font-feature-settings:normal;font-variation-settings:normal;text-indent:0;text-align:start;text-decoration:none;text-decoration-line:none;text-decoration-style:solid;text-decoration-color:#000000;letter-spacing:normal;word-spacing:normal;text-transform:none;writing-mode:lr-tb;direction:ltr;text-orientation:mixed;dominant-baseline:auto;baseline-shift:baseline;text-anchor:start;white-space:normal;shape-padding:0;shape-margin:0;inline-size:0;clip-rule:nonzero;display:inline;overflow:visible;visibility:visible;isolation:auto;mix-blend-mode:normal;color-interpolation:sRGB;color-interpolation-filters:linearRGB;solid-color:#000000;solid-opacity:1;vector-effect:none;fill:#000000;fill-opacity:1;fill-rule:nonzero;stroke-width:1;stroke-linecap:butt;stroke-linejoin:miter;stroke-miterlimit:4;stroke-dasharray:none;stroke-dashoffset:0;stroke-opacity:1;color-rendering:auto;image-rendering:auto;shape-rendering:auto;text-rendering:auto;enable-background:accumulate;stop-color:#000000;stop-opacity:1;stroke:none;opacity:1"
     d="m 276.07,280.89 27.07,-35.49 c 0.38143,-0.57897 0.64323,-1.22837 0.77,-1.91 0.0413,-0.21798 0.068,-0.43847 0.08,-0.66 0.0293,-0.43165 0.002,-0.86527 -0.08,-1.29 -0.11664,-0.62032 -0.3472,-1.21367 -0.68,-1.75 -0.21785,-0.34905 -0.48003,-0.66838 -0.78,-0.95 -0.14853,-0.14052 -0.30915,-0.26768 -0.48,-0.38 -0.33919,-0.23986 -0.71368,-0.42542 -1.11,-0.55 -0.42364,-0.13427 -0.8656,-0.20175 -1.31,-0.2 h -61.62 l 12.12,-43.21 3.23,-11.5 6.21,-22.16 0.51,-1.84 7.79,-27.76 c 0.0311,-0.18174 0.0478,-0.36564 0.05,-0.55 v -0.16 c 0,-0.05 0,-0.26 -0.05,-0.38 -0.05,-0.12 0,-0.09 0,-0.14 -0.0401,-0.15576 -0.0971,-0.30666 -0.17,-0.45 -0.0785,-0.13527 -0.16533,-0.26552 -0.26,-0.39 l -0.09,-0.1 c -0.0785,-0.0818 -0.16197,-0.1586 -0.25,-0.23 l -0.1,-0.08 c -0.12399,-0.0894 -0.25433,-0.1696 -0.39,-0.24 -0.13119,-0.0614 -0.26867,-0.10832 -0.41,-0.14 h -0.59 c -0.14964,-0.0147 -0.30036,-0.0147 -0.45,0 -0.1454,0.0333 -0.28637,0.0837 -0.42,0.15 l -0.13,0.07 -0.3,0.21 -0.11,0.1 c -0.1352,0.12254 -0.25598,0.26009 -0.36,0.41 l -18,23.63 -13.14,17.22 -9.85,12.83 -63.71,83.55 c -0.16775,0.25452 -0.31488,0.52204 -0.44,0.8 -0.15991,0.348 -0.27742,0.71396 -0.35,1.09 -0.0859,0.42426 -0.11287,0.85837 -0.08,1.29 0.0678,1.47645 0.80388,2.84179 2,3.71 0.17301,0.11506 0.3534,0.21861 0.54,0.31 0.58918,0.28497 1.23552,0.43203 1.89,0.43 h 61.62 L 194.42,380.6 c -0.0144,0.18639 -0.0144,0.37361 0,0.56 v 0.15 c 0.009,0.12811 0.0295,0.25521 0.06,0.38 -0.006,0.0465 -0.006,0.0935 0,0.14 0.0401,0.15576 0.0971,0.30666 0.17,0.45 0.0785,0.13206 0.16536,0.25898 0.26,0.38 l 0.09,0.1 0.25,0.24 c 0.0375,0.021 0.0713,0.048 0.1,0.08 0.12182,0.0898 0.2525,0.16683 0.39,0.23 0.13289,0.0571 0.26996,0.10388 0.41,0.14 h 0.13 c 0.10978,0.01 0.22022,0.01 0.33,0 h 0.13 c 0.1516,-0.005 0.30232,-0.0253 0.45,-0.06 0.14201,-0.0385 0.27947,-0.0921 0.41,-0.16 l 0.13,-0.07 0.3,-0.21 0.11,-0.09 c 0.1352,-0.12254 0.25598,-0.26009 0.36,-0.41 L 221.82,352 239.35,329 Z"
     id="path8" />
  <path
     style="color:#000000;font-style:normal;font-variant:normal;font-weight:normal;font-stretch:normal;font-size:medium;line-height:normal;font-family:sans-serif;font-variant-ligatures:normal;font-variant-position:normal;font-variant-caps:normal;font-variant-numeric:normal;font-variant-alternates:normal;font-variant-east-asian:normal;font-feature-settings:normal;font-variation-settings:normal;text-indent:0;text-align:start;text-decoration:none;text-decoration-line:none;text-decoration-style:solid;text-decoration-color:#000000;letter-spacing:normal;word-spacing:normal;text-transform:none;writing-mode:lr-tb;direction:ltr;text-orientation:mixed;dominant-baseline:auto;baseline-shift:baseline;text-anchor:start;white-space:normal;shape-padding:0;shape-margin:0;inline-size:0;clip-rule:nonzero;display:inline;overflow:visible;visibility:visible;isolation:auto;mix-blend-mode:normal;color-interpolation:sRGB;color-interpolation-filters:linearRGB;solid-color:#000000;solid-opacity:1;vector-effect:none;fill:#000000;fill-opacity:1;fill-rule:nonzero;stroke-width:1;stroke-linecap:butt;stroke-linejoin:miter;stroke-miterlimit:4;stroke-dasharray:none;stroke-dashoffset:0;stroke-opacity:1;color-rendering:auto;image-rendering:auto;shape-rendering:auto;text-rendering:auto;enable-background:accumulate;stop-color:#000000;stop-opacity:1;stroke:none;opacity:1"
     d="m 319.5,256.93 -0.46,0.6 -54.53,71.47 h 109.8 c 11.04569,0 20,-8.95431 20,-20 V 203 c 0,-11.04569 -8.95431,-20 -20,-20 H 274.05 l -9.74,34.73 h 35.24 c 8.95408,-0.0109 17.19176,4.89326 21.45,12.77 4.4261,8.12846 4.04222,18.02867 -1,25.79 z M 480,202.67 c -8.83656,0 -16,7.16344 -16,16 v 74.66 c 0,8.83656 7.16344,15.99999 16,15.99999 8.83656,0 16,-7.16343 16,-15.99999 v -74.66 c 0,-8.83656 -7.16344,-16 -16,-16 z"
     id="path10" />
</svg>
