<?xml version="1.0" encoding="utf-8"?>
<!-- Generator: Adobe Illustrator 24.0.0, SVG Export Plug-In . SVG Version: 6.00 Build 0)  -->
<svg version="1.1" id="Layer_1" xmlns="http://www.w3.org/2000/svg" xmlns:xlink="http://www.w3.org/1999/xlink" x="0px" y="0px"
	 viewBox="0 0 512 512" style="enable-background:new 0 0 512 512;" xml:space="preserve">
<title>ionicons-v5-d</title>
<g>
	<path d="M385.3,384H76.7c-34,0-61.7-27.7-61.7-61.7V189.7c0-34,27.7-61.7,61.7-61.7h308.6c34,0,61.7,27.7,61.7,61.7v132.6
		C447,356.3,419.3,384,385.3,384z M76.7,160C60.3,160,47,173.3,47,189.7v132.6c0,16.4,13.3,29.7,29.7,29.7h308.6
		c16.4,0,29.7-13.3,29.7-29.7V189.7c0-16.4-13.3-29.7-29.7-29.7H76.7z"/>
</g>
<g>
	<path d="M479,309.3c-8.8,0-16-7.2-16-16v-74.7c0-8.8,7.2-16,16-16s16,7.2,16,16v74.7C495,302.2,487.8,309.3,479,309.3z"/>
</g>
</svg>
