<?xml version="1.0" encoding="UTF-8" standalone="no"?>
<svg
   xmlns:dc="http://purl.org/dc/elements/1.1/"
   xmlns:cc="http://creativecommons.org/ns#"
   xmlns:rdf="http://www.w3.org/1999/02/22-rdf-syntax-ns#"
   xmlns:svg="http://www.w3.org/2000/svg"
   xmlns="http://www.w3.org/2000/svg"
   xmlns:sodipodi="http://sodipodi.sourceforge.net/DTD/sodipodi-0.dtd"
   xmlns:inkscape="http://www.inkscape.org/namespaces/inkscape"
   class="ionicon"
   viewBox="0 0 512 512"
   version="1.1"
   id="svg10"
   sodipodi:docname="battery-full-outline.svg"
   inkscape:version="1.0.2 (e86c8708, 2021-01-15)">
  <metadata
     id="metadata16">
    <rdf:RDF>
      <cc:Work
         rdf:about="">
        <dc:format>image/svg+xml</dc:format>
        <dc:type
           rdf:resource="http://purl.org/dc/dcmitype/StillImage" />
      </cc:Work>
    </rdf:RDF>
  </metadata>
  <defs
     id="defs14" />
  <sodipodi:namedview
     pagecolor="#ffffff"
     bordercolor="#666666"
     borderopacity="1"
     objecttolerance="10"
     gridtolerance="10"
     guidetolerance="10"
     inkscape:pageopacity="0"
     inkscape:pageshadow="2"
     inkscape:window-width="776"
     inkscape:window-height="480"
     id="namedview12"
     showgrid="false"
     inkscape:zoom="0.3"
     inkscape:cx="256"
     inkscape:cy="256"
     inkscape:window-x="550"
     inkscape:window-y="1287"
     inkscape:window-maximized="0"
     inkscape:current-layer="svg10"
     inkscape:document-rotation="0" />
  <title
     id="title2">Battery Full</title>
  <path
     id="rect4"
     style="color:#000000;font-style:normal;font-variant:normal;font-weight:normal;font-stretch:normal;font-size:medium;line-height:normal;font-family:sans-serif;font-variant-ligatures:normal;font-variant-position:normal;font-variant-caps:normal;font-variant-numeric:normal;font-variant-alternates:normal;font-variant-east-asian:normal;font-feature-settings:normal;font-variation-settings:normal;text-indent:0;text-align:start;text-decoration:none;text-decoration-line:none;text-decoration-style:solid;text-decoration-color:#000000;letter-spacing:normal;word-spacing:normal;text-transform:none;writing-mode:lr-tb;direction:ltr;text-orientation:mixed;dominant-baseline:auto;baseline-shift:baseline;text-anchor:start;white-space:normal;shape-padding:0;shape-margin:0;inline-size:0;clip-rule:nonzero;display:inline;overflow:visible;visibility:visible;isolation:auto;mix-blend-mode:normal;color-interpolation:sRGB;color-interpolation-filters:linearRGB;solid-color:#000000;solid-opacity:1;vector-effect:none;fill:currentColor;fill-opacity:1;fill-rule:nonzero;stroke:none;stroke-linecap:square;stroke-linejoin:miter;stroke-miterlimit:10;stroke-dasharray:none;stroke-dashoffset:0;stroke-opacity:1;color-rendering:auto;image-rendering:auto;shape-rendering:auto;text-rendering:auto;enable-background:accumulate;stop-color:#000000;stop-opacity:1;opacity:1"
     d="M 77.699219 128 C 43.794174 128 16 155.79417 16 189.69922 L 16 322.30078 C 16 356.20583 43.794174 384 77.699219 384 L 386.30078 384 C 420.20583 384 448 356.20583 448 322.30078 L 448 189.69922 C 448 155.79417 420.20583 128 386.30078 128 L 77.699219 128 z M 77.699219 160 L 386.30078 160 C 403.03134 160 416 172.96866 416 189.69922 L 416 322.30078 C 416 339.03134 403.03134 352 386.30078 352 L 77.699219 352 C 60.968663 352 48 339.03134 48 322.30078 L 48 189.69922 C 48 172.96866 60.968663 160 77.699219 160 z M 89.689453 182.92969 C 78.886209 182.92969 69.689453 192.12644 69.689453 202.92969 L 69.689453 309.07031 C 69.689453 319.87356 78.886209 329.07031 89.689453 329.07031 L 374.32031 329.07031 C 385.12356 329.07031 394.32031 319.87356 394.32031 309.07031 L 394.32031 202.92969 C 394.32031 192.12644 385.12356 182.92969 374.32031 182.92969 L 89.689453 182.92969 z M 480 202.66992 A 16 16 0 0 0 464 218.66992 L 464 293.33008 A 16 16 0 0 0 480 309.33008 A 16 16 0 0 0 496 293.33008 L 496 218.66992 A 16 16 0 0 0 480 202.66992 z " />
</svg>
