<?xml version="1.0" encoding="UTF-8" standalone="no"?>
<svg
   xmlns:dc="http://purl.org/dc/elements/1.1/"
   xmlns:cc="http://creativecommons.org/ns#"
   xmlns:rdf="http://www.w3.org/1999/02/22-rdf-syntax-ns#"
   xmlns:svg="http://www.w3.org/2000/svg"
   xmlns="http://www.w3.org/2000/svg"
   xmlns:sodipodi="http://sodipodi.sourceforge.net/DTD/sodipodi-0.dtd"
   xmlns:inkscape="http://www.inkscape.org/namespaces/inkscape"
   class="ionicon"
   viewBox="0 0 512 512"
   version="1.1"
   id="svg6"
   sodipodi:docname="beaker-outline.svg"
   inkscape:version="1.0.2 (e86c8708, 2021-01-15)">
  <metadata
     id="metadata12">
    <rdf:RDF>
      <cc:Work
         rdf:about="">
        <dc:format>image/svg+xml</dc:format>
        <dc:type
           rdf:resource="http://purl.org/dc/dcmitype/StillImage" />
      </cc:Work>
    </rdf:RDF>
  </metadata>
  <defs
     id="defs10" />
  <sodipodi:namedview
     pagecolor="#ffffff"
     bordercolor="#666666"
     borderopacity="1"
     objecttolerance="10"
     gridtolerance="10"
     guidetolerance="10"
     inkscape:pageopacity="0"
     inkscape:pageshadow="2"
     inkscape:window-width="689"
     inkscape:window-height="480"
     id="namedview8"
     showgrid="false"
     inkscape:zoom="1.3027344"
     inkscape:cx="256"
     inkscape:cy="256"
     inkscape:window-x="44"
     inkscape:window-y="25"
     inkscape:window-maximized="0"
     inkscape:current-layer="svg6" />
  <title
     id="title2">Beaker</title>
  <path
     style="color:#000000;font-style:normal;font-variant:normal;font-weight:normal;font-stretch:normal;font-size:medium;line-height:normal;font-family:sans-serif;font-variant-ligatures:normal;font-variant-position:normal;font-variant-caps:normal;font-variant-numeric:normal;font-variant-alternates:normal;font-variant-east-asian:normal;font-feature-settings:normal;font-variation-settings:normal;text-indent:0;text-align:start;text-decoration:none;text-decoration-line:none;text-decoration-style:solid;text-decoration-color:#000000;letter-spacing:normal;word-spacing:normal;text-transform:none;writing-mode:lr-tb;direction:ltr;text-orientation:mixed;dominant-baseline:auto;baseline-shift:baseline;text-anchor:start;white-space:normal;shape-padding:0;shape-margin:0;inline-size:0;clip-rule:nonzero;display:inline;overflow:visible;visibility:visible;isolation:auto;mix-blend-mode:normal;color-interpolation:sRGB;color-interpolation-filters:linearRGB;solid-color:#000000;solid-opacity:1;vector-effect:none;fill:currentColor;fill-opacity:1;fill-rule:nonzero;stroke:none;stroke-linecap:round;stroke-linejoin:round;stroke-miterlimit:4;stroke-dasharray:none;stroke-dashoffset:0;stroke-opacity:1;color-rendering:auto;image-rendering:auto;shape-rendering:auto;text-rendering:auto;enable-background:accumulate;stop-color:#000000;stop-opacity:1;opacity:1"
     d="M 128 32 C 97.343554 32 75.931079 42.843057 63.628906 56.814453 C 51.326733 70.785849 48 85.644038 48 96 A 16.0016 16.0016 0 0 0 61.802734 111.84766 C 76.722391 113.91573 86.762867 116.40636 90.486328 118.88867 C 94.20979 121.37098 96 122.95 96 136 L 96 176 L 96 400 C 96 443.99327 132.00673 480 176 480 L 368 480 C 411.99327 480 448 443.99327 448 400 L 448 176 L 448 96 C 448 89.72807 450.17319 81.768068 452.71289 75.513672 C 455.25259 69.259275 459.09991 63.093297 457.91211 64.875 A 16.0016 16.0016 0 0 0 458.12695 64.542969 C 458.06149 64.646621 458.829 63.59418 459.85742 62.125 C 460.37163 61.39041 460.97157 60.544936 461.73242 59.128906 C 462.49327 57.712877 464 56.108333 464 50.5 C 464 48.495455 463.94251 43.659807 459.93555 38.748047 C 455.92858 33.836287 449.32922 32.050781 445.19922 32.050781 L 398.01758 32 A 16.0016 16.0016 0 0 0 398 32 L 128 32 z M 431.28711 47.125 C 431.25915 47.166932 431.22527 47.235136 431.19727 47.277344 C 431.13718 47.370977 431.13396 47.359355 431.07227 47.457031 L 431.28711 47.125 z M 128 64 L 397.99219 64 L 422.85742 64.027344 C 419.43958 72.541571 416 83.526267 416 96 L 416 160 L 128 160 L 128 136 C 128 117.05 120.93982 100.72941 108.23828 92.261719 C 100.68272 87.22468 92.62254 84.749812 84.142578 83.041016 C 85.105875 81.310917 86.227171 79.57283 87.646484 77.960938 C 93.769312 71.007333 104.35645 64 128 64 z M 128 192 L 416 192 L 416 400 C 416 426.69918 394.69918 448 368 448 L 176 448 C 149.30082 448 128 426.69918 128 400 L 128 192 z "
     id="path4" />
</svg>
