<?xml version="1.0" encoding="UTF-8"?>
<svg width="512px" height="512px" viewBox="0 0 512 512" version="1.1" xmlns="http://www.w3.org/2000/svg" xmlns:xlink="http://www.w3.org/1999/xlink">
    <!-- Generator: Sketch 62 (91390) - https://sketch.com -->
    <title>Artboard</title>
    <desc>Created with Sketch.</desc>
    <g id="Artboard" stroke="none" stroke-width="1" fill="none" fill-rule="evenodd">
        <g id="beaker-outline" transform="translate(48.000000, 32.000000)" fill="#000000" fill-rule="nonzero">
            <path d="M397.2,0 C407.9,0 416,7.9 416,18.5 C416,24.4 412.9,28.7 410.9,31.5 C410.6,31.9 410.3,32.3 410.1,32.6 C410.1,32.7 410,32.8 410,32.8 C407.9,36.2 400,51.2 400,64 L400,368 C400,412.1 364.1,448 320,448 L128,448 C83.9,448 48,412.1 48,368 L48,104 C48,85.8 43.7,84 13.8,79.8 C5.9,78.8 0,72 0,64 C0,38.3 21.3,0 80,0 L397.2,0 Z M368,160 L80,160 L80,368 C80,394.5 101.5,416 128,416 L320,416 C346.5,416 368,394.5 368,368 L368,160 Z M374.8,32 L80,32 C61.4,32 47.8,36.7 39.6,46 C38.2,47.6 37,49.3 36,51.1 C58.6,55.9 80,66.7 80,104 L80,128 L368,128 L368,64 C368,52.2 371.3,40.8 374.8,32 Z" id="Combined-Shape"></path>
        </g>
    </g>
</svg>