<?xml version="1.0" encoding="UTF-8"?>
<svg width="512px" height="512px" viewBox="0 0 512 512" version="1.1" xmlns="http://www.w3.org/2000/svg" xmlns:xlink="http://www.w3.org/1999/xlink">
    <!-- Generator: Sketch 62 (91390) - https://sketch.com -->
    <title>Artboard</title>
    <desc>Created with Sketch.</desc>
    <g id="Artboard" stroke="none" stroke-width="1" fill="none" fill-rule="evenodd">
        <g id="bed-outline" transform="translate(32.000000, 80.000000)" fill="#000000" fill-rule="nonzero">
            <path d="M344,0 C374.8,0.1 399.9,25.2 400,56 L400.001092,150.767553 C428.159336,163.189118 447.925834,191.366795 448,224 L448,336 C448,344.695238 440.970408,351.828345 432.313596,351.996948 L432,352 L432,352 C423.2,352 416,344.8 416,336 L416,328 C416,323.6 412.4,320 408,320 L40,320 C35.6,320 32,323.6 32,328 L32,336 C32,344.695238 24.9704082,351.828345 16.313596,351.996948 L16,352 L16,352 C7.2,352 0,344.8 0,336 L0,224 C0.0741672504,191.36641 19.8411306,163.188452 47.9999049,150.767113 L48,56 C48.1,25.2 73.2,0.1 104,0 L344,0 Z M368,176 L80,176 C53.6,176.1 32.1,197.6 32,224 L32.0004411,288.838553 C34.5857925,288.300778 37.2611236,288.012449 40,288 L408,288 C410.73923,288.012451 413.414897,288.300853 416.000559,288.838761 L416,224 C415.9,197.6 394.4,176.1 368,176 Z M192,128 L112,128 C103.2,128 96,135.2 96,144 L208,144 C208,135.2 200.8,128 192,128 Z M336,128 L256,128 C247.304762,128 240.171655,135.029592 240.003052,143.686404 L240,144 L240,144 L352,144 C352,135.2 344.8,128 336,128 Z M344,32 L104,32 C90.8,32 80,42.8 80,56 L79.9994903,108.371157 C88.4986992,100.723884 99.7191825,96.0465182 112,96 L192,96 C204.281299,96.0465201 215.502181,100.724251 224.00151,108.372057 C232.498699,100.723884 243.719182,96.0465182 256,96 L336,96 C348.281299,96.0465201 359.502181,100.724251 368.00151,108.372057 L368,56 C368,42.8 357.2,32 344,32 Z" id="Combined-Shape"></path>
        </g>
    </g>
</svg>