<?xml version="1.0" encoding="UTF-8" standalone="no"?>
<svg
   xmlns:dc="http://purl.org/dc/elements/1.1/"
   xmlns:cc="http://creativecommons.org/ns#"
   xmlns:rdf="http://www.w3.org/1999/02/22-rdf-syntax-ns#"
   xmlns:svg="http://www.w3.org/2000/svg"
   xmlns="http://www.w3.org/2000/svg"
   xmlns:sodipodi="http://sodipodi.sourceforge.net/DTD/sodipodi-0.dtd"
   xmlns:inkscape="http://www.inkscape.org/namespaces/inkscape"
   class="ionicon"
   viewBox="0 0 512 512"
   version="1.1"
   id="svg12"
   sodipodi:docname="beer-outline.svg"
   inkscape:version="1.0.2 (e86c8708, 2021-01-15)">
  <metadata
     id="metadata18">
    <rdf:RDF>
      <cc:Work
         rdf:about="">
        <dc:format>image/svg+xml</dc:format>
        <dc:type
           rdf:resource="http://purl.org/dc/dcmitype/StillImage" />
      </cc:Work>
    </rdf:RDF>
  </metadata>
  <defs
     id="defs16" />
  <sodipodi:namedview
     pagecolor="#ffffff"
     bordercolor="#666666"
     borderopacity="1"
     objecttolerance="10"
     gridtolerance="10"
     guidetolerance="10"
     inkscape:pageopacity="0"
     inkscape:pageshadow="2"
     inkscape:window-width="689"
     inkscape:window-height="480"
     id="namedview14"
     showgrid="false"
     inkscape:zoom="1.3027344"
     inkscape:cx="256"
     inkscape:cy="256"
     inkscape:window-x="44"
     inkscape:window-y="25"
     inkscape:window-maximized="0"
     inkscape:current-layer="svg12" />
  <title
     id="title2">Beer</title>
  <path
     style="color:#000000;font-style:normal;font-variant:normal;font-weight:normal;font-stretch:normal;font-size:medium;line-height:normal;font-family:sans-serif;font-variant-ligatures:normal;font-variant-position:normal;font-variant-caps:normal;font-variant-numeric:normal;font-variant-alternates:normal;font-variant-east-asian:normal;font-feature-settings:normal;font-variation-settings:normal;text-indent:0;text-align:start;text-decoration:none;text-decoration-line:none;text-decoration-style:solid;text-decoration-color:#000000;letter-spacing:normal;word-spacing:normal;text-transform:none;writing-mode:lr-tb;direction:ltr;text-orientation:mixed;dominant-baseline:auto;baseline-shift:baseline;text-anchor:start;white-space:normal;shape-padding:0;shape-margin:0;inline-size:0;clip-rule:nonzero;display:inline;overflow:visible;visibility:visible;isolation:auto;mix-blend-mode:normal;color-interpolation:sRGB;color-interpolation-filters:linearRGB;solid-color:#000000;solid-opacity:1;vector-effect:none;fill:currentColor;fill-opacity:1;fill-rule:nonzero;stroke:none;stroke-linecap:round;stroke-linejoin:round;stroke-miterlimit:4;stroke-dasharray:none;stroke-dashoffset:0;stroke-opacity:1;color-rendering:auto;image-rendering:auto;shape-rendering:auto;text-rendering:auto;enable-background:accumulate;stop-color:#000000;stop-opacity:1;opacity:1"
     d="M 352 184 A 16 16 0 0 0 336 200 L 336 439.95312 C 335.95983 453.40395 325.40395 463.95983 311.95312 464 L 136.04688 464 C 122.59605 463.95983 112.04017 453.40395 112 439.95312 L 112 224 A 16 16 0 0 0 96 208 A 16 16 0 0 0 80 224 L 80 440 A 16.0016 16.0016 0 0 0 80 440.04688 C 80.09162 470.72412 105.27588 495.90838 135.95312 496 A 16.0016 16.0016 0 0 0 136 496 L 312 496 A 16.0016 16.0016 0 0 0 312.04688 496 C 342.72412 495.90838 367.90838 470.72412 368 440.04688 A 16.0016 16.0016 0 0 0 368 440 L 368 200 A 16 16 0 0 0 352 184 z "
     id="path4" />
  <path
     style="color:#000000;font-style:normal;font-variant:normal;font-weight:normal;font-stretch:normal;font-size:medium;line-height:normal;font-family:sans-serif;font-variant-ligatures:normal;font-variant-position:normal;font-variant-caps:normal;font-variant-numeric:normal;font-variant-alternates:normal;font-variant-east-asian:normal;font-feature-settings:normal;font-variation-settings:normal;text-indent:0;text-align:start;text-decoration:none;text-decoration-line:none;text-decoration-style:solid;text-decoration-color:#000000;letter-spacing:normal;word-spacing:normal;text-transform:none;writing-mode:lr-tb;direction:ltr;text-orientation:mixed;dominant-baseline:auto;baseline-shift:baseline;text-anchor:start;white-space:normal;shape-padding:0;shape-margin:0;inline-size:0;clip-rule:nonzero;display:inline;overflow:visible;visibility:visible;isolation:auto;mix-blend-mode:normal;color-interpolation:sRGB;color-interpolation-filters:linearRGB;solid-color:#000000;solid-opacity:1;vector-effect:none;fill:currentColor;fill-opacity:1;fill-rule:nonzero;stroke:none;stroke-linecap:round;stroke-linejoin:miter;stroke-miterlimit:10;stroke-dasharray:none;stroke-dashoffset:0;stroke-opacity:1;color-rendering:auto;image-rendering:auto;shape-rendering:auto;text-rendering:auto;enable-background:accumulate;stop-color:#000000;stop-opacity:1;opacity:1"
     d="M 352 208 A 16 16 0 0 0 336 224 A 16 16 0 0 0 352 240 L 391.95508 240 C 414.23173 240.06338 431.93662 257.76827 432 280.04492 L 432 359.95508 C 431.93662 382.23173 414.23173 399.93662 391.95508 400 L 352 400 A 16 16 0 0 0 336 416 A 16 16 0 0 0 352 432 L 392.02344 432 L 392.04492 432 C 431.55121 431.88761 463.88761 399.55121 464 360.04492 L 464 360.02344 L 464 279.97656 L 464 279.95508 C 463.88761 240.44879 431.55121 208.11239 392.04492 208 L 392.02344 208 L 352 208 z "
     id="path6" />
  <path
     style="color:#000000;font-style:normal;font-variant:normal;font-weight:normal;font-stretch:normal;font-size:medium;line-height:normal;font-family:sans-serif;font-variant-ligatures:normal;font-variant-position:normal;font-variant-caps:normal;font-variant-numeric:normal;font-variant-alternates:normal;font-variant-east-asian:normal;font-feature-settings:normal;font-variation-settings:normal;text-indent:0;text-align:start;text-decoration:none;text-decoration-line:none;text-decoration-style:solid;text-decoration-color:#000000;letter-spacing:normal;word-spacing:normal;text-transform:none;writing-mode:lr-tb;direction:ltr;text-orientation:mixed;dominant-baseline:auto;baseline-shift:baseline;text-anchor:start;white-space:normal;shape-padding:0;shape-margin:0;inline-size:0;clip-rule:nonzero;display:inline;overflow:visible;visibility:visible;isolation:auto;mix-blend-mode:normal;color-interpolation:sRGB;color-interpolation-filters:linearRGB;solid-color:#000000;solid-opacity:1;vector-effect:none;fill:currentColor;fill-opacity:1;fill-rule:nonzero;stroke:none;stroke-linecap:round;stroke-linejoin:round;stroke-miterlimit:4;stroke-dasharray:none;stroke-dashoffset:0;stroke-opacity:1;color-rendering:auto;image-rendering:auto;shape-rendering:auto;text-rendering:auto;enable-background:accumulate;stop-color:#000000;stop-opacity:1;opacity:1"
     d="M 320 96 A 16 16 0 0 0 304 112 A 16 16 0 0 0 320 128 C 337.86265 128 352 142.13736 352 160 C 352 177.86264 337.86265 192 320 192 C 312.63478 192 298.20718 185.57827 293.31445 180.68555 A 16.0016 16.0016 0 0 0 282 176 L 160 176 A 16.0016 16.0016 0 0 0 144.96289 186.53125 C 139.21124 202.34828 127.92063 208 112 208 C 94.13735 208 80 193.86264 80 176 C 80 158.23994 93.983987 144.1904 111.70117 144.0293 C 117.80221 144.35796 123.68338 146.40498 128.64453 149.98047 A 16 16 0 0 0 150.98047 146.35547 A 16 16 0 0 0 147.35547 124.01953 C 137.21808 116.71353 125.15662 112.53841 112.67188 112.01367 A 16.0016 16.0016 0 0 0 112 112 C 76.843278 112 48 140.84331 48 176 C 48 211.15669 76.843278 240 112 240 C 134.58739 240 157.60461 229.19272 170.0332 208 L 275.88867 208 C 287.86556 217.80494 303.38342 224 320 224 C 355.15672 224 384 195.15669 384 160 C 384 124.84331 355.15672 96 320 96 z M 160 240 A 16 16 0 0 0 144 256 L 144 416 A 16 16 0 0 0 160 432 A 16 16 0 0 0 176 416 L 176 256 A 16 16 0 0 0 160 240 z M 224 240 A 16 16 0 0 0 208 256 L 208 416 A 16 16 0 0 0 224 432 A 16 16 0 0 0 240 416 L 240 256 A 16 16 0 0 0 224 240 z M 288 240 A 16 16 0 0 0 272 256 L 272 416 A 16 16 0 0 0 288 432 A 16 16 0 0 0 304 416 L 304 256 A 16 16 0 0 0 288 240 z "
     id="path8" />
  <path
     style="color:#000000;font-style:normal;font-variant:normal;font-weight:normal;font-stretch:normal;font-size:medium;line-height:normal;font-family:sans-serif;font-variant-ligatures:normal;font-variant-position:normal;font-variant-caps:normal;font-variant-numeric:normal;font-variant-alternates:normal;font-variant-east-asian:normal;font-feature-settings:normal;font-variation-settings:normal;text-indent:0;text-align:start;text-decoration:none;text-decoration-line:none;text-decoration-style:solid;text-decoration-color:#000000;letter-spacing:normal;word-spacing:normal;text-transform:none;writing-mode:lr-tb;direction:ltr;text-orientation:mixed;dominant-baseline:auto;baseline-shift:baseline;text-anchor:start;white-space:normal;shape-padding:0;shape-margin:0;inline-size:0;clip-rule:nonzero;display:inline;overflow:visible;visibility:visible;isolation:auto;mix-blend-mode:normal;color-interpolation:sRGB;color-interpolation-filters:linearRGB;solid-color:#000000;solid-opacity:1;vector-effect:none;fill:currentColor;fill-opacity:1;fill-rule:nonzero;stroke:none;stroke-linecap:round;stroke-linejoin:miter;stroke-miterlimit:10;stroke-dasharray:none;stroke-dashoffset:0;stroke-opacity:1;color-rendering:auto;image-rendering:auto;shape-rendering:auto;text-rendering:auto;enable-background:accumulate;stop-color:#000000;stop-opacity:1;opacity:1"
     d="M 216 16 C 184.43756 16 156.88111 29.914877 137.04492 50.804688 C 119.17094 45.160315 98.753934 48.43574 83.496094 61.558594 C 58.897976 82.714765 57.551695 120.96165 80.599609 143.79688 A 16 16 0 0 0 103.22656 143.69141 A 16 16 0 0 0 103.12109 121.06445 C 92.998293 111.03507 93.559616 95.110297 104.36328 85.818359 C 115.16623 76.527038 130.99203 78.354038 139.39453 89.861328 C 139.39509 89.862092 139.39593 89.862517 139.39648 89.863281 C 139.41578 89.890099 140.90613 91.962176 142.36523 94.445312 C 143.83375 96.944461 144 101.692 144 96 A 16 16 0 0 0 160 112 A 16 16 0 0 0 176 96 C 176 85.308 172.32657 82.270226 169.95508 78.234375 C 167.58359 74.198524 165.26367 71.025391 165.26367 71.025391 L 165.25391 71.009766 L 165.24219 70.996094 C 164.77019 70.349535 164.2367 69.778144 163.74219 69.158203 C 177.73049 55.944166 195.40912 48 216 48 C 259.65606 48 294 83.318055 294 127.21094 L 294 127.21484 L 294 127.21875 C 294.0029 132.1827 293.538 137.13699 292.61133 142.01367 A 16 16 0 0 0 305.34375 160.71875 A 16 16 0 0 0 324.04883 147.98633 C 325.35049 141.13621 326.0037 134.17972 326 127.20703 C 325.99789 66.36168 277.10262 16 216 16 z "
     id="path10" />
</svg>
