<?xml version="1.0" encoding="utf-8"?>
<!-- Generator: Adobe Illustrator 24.0.0, SVG Export Plug-In . SVG Version: 6.00 Build 0)  -->
<svg version="1.1" id="Layer_1" xmlns="http://www.w3.org/2000/svg" xmlns:xlink="http://www.w3.org/1999/xlink" x="0px" y="0px"
	 viewBox="0 0 512 512" style="enable-background:new 0 0 512 512;" xml:space="preserve">
<title>ionicons-v5-g</title>
<g>
	<path d="M136,496c-30.8-0.1-55.9-25.2-56-56V224c0-8.8,7.2-16,16-16s16,7.2,16,16v216c0,13.2,10.8,24,24,24h176
		c13.2,0,24-10.8,24-24V200c0-8.8,7.2-16,16-16s16,7.2,16,16v240c-0.1,30.8-25.2,55.9-56,56H136z"/>
</g>
<g>
	<path d="M352,432c-8.8,0-16-7.2-16-16s7.2-16,16-16h40c22-0.1,39.9-18,40-40v-80c-0.1-22-18-39.9-40-40h-40c-8.8,0-16-7.2-16-16
		s7.2-16,16-16h40c39.6,0.1,71.9,32.4,72,72v80c-0.1,39.6-32.4,71.9-72,72H352z"/>
</g>
<g>
	<path d="M224,432c-8.8,0-16-7.2-16-16V256c0-8.8,7.2-16,16-16s16,7.2,16,16v160C240,424.8,232.8,432,224,432z"/>
</g>
<g>
	<path d="M288,432c-8.8,0-16-7.2-16-16V256c0-8.8,7.2-16,16-16s16,7.2,16,16v160C304,424.8,296.8,432,288,432z"/>
</g>
<g>
	<path d="M160,432c-8.8,0-16-7.2-16-16V256c0-8.8,7.2-16,16-16s16,7.2,16,16v160C176,424.8,168.8,432,160,432z"/>
</g>
<g>
	<path d="M112,240c-35.3,0-64-28.7-64-64s28.7-64,64-64c0.2,0,0.4,0,0.7,0c12.5,0.5,24.5,4.7,34.7,12c7.2,5.2,8.8,15.2,3.6,22.3
		c-5.2,7.2-15.2,8.8-22.3,3.6c-5-3.6-10.9-5.7-17-6C94.2,144.2,80,158.5,80,176c0,17.6,14.4,32,32,32c9.4,0,26.2-2.8,33-21.5
		c2.3-6.3,8.3-10.5,15-10.5h122c4.2,0,8.3,1.7,11.3,4.7c6.1,6.1,18.4,11.3,26.7,11.3c17.6,0,32-14.4,32-32s-14.4-32-32-32
		c-8.8,0-16-7.2-16-16s7.2-16,16-16c35.3,0,64,28.7,64,64s-28.7,64-64,64c-14.6,0-31.8-6.4-44-16H170.2
		C158.6,228.2,137.6,240,112,240z"/>
</g>
<g>
	<path d="M91.9,148.4c-4.1,0-8.1-1.5-11.3-4.6c-21.9-21.7-22.1-57.3-0.4-79.2c21.7-21.9,57.3-22.1,79.2-0.4c2.1,2.1,4.1,4.4,5.8,6.8
		c7.1,9.8,10.8,18.2,10.8,25c0,8.8-7.2,16-16,16c-8.2,0-15-6.2-15.9-14.3c-0.8-1.8-3.1-5.6-4.7-7.9c-0.7-1-1.6-2-2.5-2.9
		c-9.4-9.3-24.6-9.2-33.9,0.2c-9.3,9.4-9.2,24.6,0.2,33.9c6.3,6.2,6.3,16.4,0.1,22.6C100.1,146.8,96,148.4,91.9,148.4z M144.3,98.2
		L144.3,98.2L144.3,98.2z M144,96C144,96,144,96,144,96C144,96,144,96,144,96z"/>
</g>
<g>
	<path d="M308.3,161c-1,0-2-0.1-3-0.3c-8.7-1.6-14.4-10-12.7-18.7c0.9-4.9,1.4-9.8,1.4-14.8c0-21.2-8.1-41.1-22.8-56
		C256.5,56.2,236.9,48,216,48c-22.1,0-42.7,9.7-58.1,27.3c-5.8,6.6-15.9,7.3-22.6,1.5c-6.6-5.8-7.3-15.9-1.5-22.6
		C155.4,29.6,184.6,16,216,16c29.6,0,57.3,11.6,78.1,32.8c20.6,21,31.9,48.8,31.9,78.5c0,6.9-0.7,13.9-2,20.8
		C322.6,155.7,315.9,161,308.3,161z"/>
</g>
</svg>
