<?xml version="1.0" encoding="UTF-8" standalone="no"?>
<svg
   xmlns:dc="http://purl.org/dc/elements/1.1/"
   xmlns:cc="http://creativecommons.org/ns#"
   xmlns:rdf="http://www.w3.org/1999/02/22-rdf-syntax-ns#"
   xmlns:svg="http://www.w3.org/2000/svg"
   xmlns="http://www.w3.org/2000/svg"
   xmlns:sodipodi="http://sodipodi.sourceforge.net/DTD/sodipodi-0.dtd"
   xmlns:inkscape="http://www.inkscape.org/namespaces/inkscape"
   class="ionicon"
   viewBox="0 0 512 512"
   version="1.1"
   id="svg6"
   sodipodi:docname="beer-sharp.svg"
   inkscape:version="1.0.2 (e86c8708, 2021-01-15)">
  <metadata
     id="metadata12">
    <rdf:RDF>
      <cc:Work
         rdf:about="">
        <dc:format>image/svg+xml</dc:format>
        <dc:type
           rdf:resource="http://purl.org/dc/dcmitype/StillImage" />
      </cc:Work>
    </rdf:RDF>
  </metadata>
  <defs
     id="defs10" />
  <sodipodi:namedview
     pagecolor="#ffffff"
     bordercolor="#666666"
     borderopacity="1"
     objecttolerance="10"
     gridtolerance="10"
     guidetolerance="10"
     inkscape:pageopacity="0"
     inkscape:pageshadow="2"
     inkscape:window-width="689"
     inkscape:window-height="480"
     id="namedview8"
     showgrid="false"
     inkscape:zoom="1.3027344"
     inkscape:cx="256"
     inkscape:cy="256"
     inkscape:window-x="44"
     inkscape:window-y="25"
     inkscape:window-maximized="0"
     inkscape:current-layer="svg6" />
  <title
     id="title2">Beer</title>
  <path
     style="color:#000000;font-style:normal;font-variant:normal;font-weight:normal;font-stretch:normal;font-size:medium;line-height:normal;font-family:sans-serif;font-variant-ligatures:normal;font-variant-position:normal;font-variant-caps:normal;font-variant-numeric:normal;font-variant-alternates:normal;font-variant-east-asian:normal;font-feature-settings:normal;font-variation-settings:normal;text-indent:0;text-align:start;text-decoration:none;text-decoration-line:none;text-decoration-style:solid;text-decoration-color:#000000;letter-spacing:normal;word-spacing:normal;text-transform:none;writing-mode:lr-tb;direction:ltr;text-orientation:mixed;dominant-baseline:auto;baseline-shift:baseline;text-anchor:start;white-space:normal;shape-padding:0;shape-margin:0;inline-size:0;clip-rule:nonzero;display:inline;overflow:visible;visibility:visible;isolation:auto;mix-blend-mode:normal;color-interpolation:sRGB;color-interpolation-filters:linearRGB;solid-color:#000000;solid-opacity:1;vector-effect:none;fill:#000000;fill-opacity:1;fill-rule:nonzero;stroke-width:1;stroke-linecap:butt;stroke-linejoin:miter;stroke-miterlimit:4;stroke-dasharray:none;stroke-dashoffset:0;stroke-opacity:1;color-rendering:auto;image-rendering:auto;shape-rendering:auto;text-rendering:auto;enable-background:accumulate;stop-color:#000000;stop-opacity:1;stroke:none;opacity:1"
     d="m 448,208 h -80 v -5.74 c 16.47172,-18.62784 20.64777,-45.1167 10.70603,-67.90871 C 368.76428,111.55928 346.50869,96.599759 321.65,96 316.54615,78.180264 307.06096,61.922394 294.06,48.71 273.53292,27.700827 245.37238,15.900529 216,16 186.09,16 158.22,28.28 137,50.67 115.72183,43.897736 92.453967,50.413897 77.787964,67.252319 63.121961,84.090741 59.861207,108.03278 69.49,128.18 c -1,0.86 -1.91,1.74 -2.83,2.66 -12.053243,12.02905 -18.775517,28.39163 -18.66,45.42 0.01558,17.75564 7.564512,34.67079 20.77,46.54 3.439359,3.12702 7.20423,5.87608 11.23,8.2 v 249 c 0,8.83656 7.163444,16 16,16 h 256 c 8.83656,0 16,-7.16344 16,-16 v -48 h 80 c 8.83656,0 16,-7.16344 16,-16 V 224 c 0,-8.83656 -7.16344,-16 -16,-16 z M 176,432 H 144 V 240 h 32 z m 64,0 H 208 V 240 h 32 z m 64,0 H 272 V 240 h 32 z m 16,-240 c -8.33,0 -20.55,-5.18 -26.69,-11.31 L 288.63,176 H 148.79 L 145,186.53 c -5.81,16 -18.83,20.41 -28.73,21.29 -9.46786,0.85002 -18.860467,-2.29294 -25.91,-8.67 -6.542693,-5.85869 -10.293304,-14.21761 -10.32,-23 -0.05551,-8.51375 3.305282,-16.69421 9.33,-22.71 0.16,-0.17 0.33,-0.32 0.5,-0.49 5.933373,-5.74571 13.87058,-8.95574 22.13,-8.95 0.09,0 9.12,0.34 16.4,5.8 l 12.8,9.6 19.2,-25.6 -12.8,-9.6 C 137.23308,116.64031 124.82463,112.38798 112,112 c -4.70913,0.006 -9.40353,0.52609 -14,1.55 C 93.172492,102.33741 97.531015,89.287451 108.12771,83.226347 118.7244,77.165243 132.18262,80.024375 139.4,89.87 l 0.23,0.35 0.4,0.46 c 2.08681,2.724773 3.77073,5.735619 5,8.94 l 5.62,15 30,-11.24 -5.62,-15 c -2.42672,-6.380476 -5.79762,-12.360459 -10,-17.74 -0.38,-0.52 -0.79,-1 -1.19,-1.51 C 178.38,55.45 196.64,48 216,48 c 20.7871,-0.05987 40.71205,8.302623 55.23,23.18 18.2387,18.713811 26.21655,45.13995 21.38,70.82 l -3,15.72 31.43,6 3,-15.72 c 1.21892,-6.40708 1.87476,-12.90856 1.96,-19.43 16.20685,3.10054 27.3988,18.01608 25.84489,34.44351 C 350.29097,179.44094 336.50076,191.99335 320,192 Z M 432,400 H 368 V 240 h 64 z"
     id="path4" />
</svg>
