<?xml version="1.0" encoding="utf-8"?>
<!-- Generator: Adobe Illustrator 24.0.0, SVG Export Plug-In . SVG Version: 6.00 Build 0)  -->
<svg version="1.1" id="Layer_1" xmlns="http://www.w3.org/2000/svg" xmlns:xlink="http://www.w3.org/1999/xlink" x="0px" y="0px"
	 viewBox="0 0 512 512" style="enable-background:new 0 0 512 512;" xml:space="preserve">
<title>ionicons-v5-h</title>
<g>
	<path d="M388,456c-50.7,0-92-41.3-92-92s41.3-92,92-92h0.1c50.5,0.2,91.8,41.4,91.9,91.9C480,414.7,438.7,456,388,456z M388,304
		c-33.1,0-60,26.9-60,60c0,33.1,26.9,60,60,60s60-26.9,60-60C447.9,331,421,304.1,388,304z"/>
</g>
<g>
	<path d="M124,456c-50.7,0-92-41.3-92-92s41.3-92,92-92h0.1c50.5,0.2,91.8,41.4,91.9,91.9C216,414.7,174.7,456,124,456z M124,304
		c-33.1,0-60,26.9-60,60c0,33.1,26.9,60,60,60s60-26.9,60-60C183.9,331,157,304.1,124,304z"/>
</g>
<g>
	<path d="M256,376c-8.8,0-16-7.2-16-16v-77.4l-56.8-37.3c-3.9-2.6-6.5-6.7-7.1-11.4c-0.6-4.6,0.9-9.3,4-12.8l80-88
		c3.5-3.8,8.5-5.7,13.7-5.1c5.1,0.6,9.6,3.6,12.1,8.1l35.4,63.8H368c8.8,0,16,7.2,16,16s-7.2,16-16,16h-56c-5.8,0-11.2-3.2-14-8.2
		l-29.2-52.5l-52.4,57.6l48.3,31.7c4.5,3,7.2,8,7.2,13.4v86C272,368.8,264.8,376,256,376z"/>
</g>
<g>
	<path d="M320,136c17.6,0.1,31.9-14.2,32-31.8c0-0.1,0-0.2,0-0.3c0.2-17.4-13.8-31.7-31.2-31.9c-0.2,0-0.4,0-0.6,0
		c-17.7-0.1-32,14.2-32.1,31.9S302.3,135.9,320,136z"/>
</g>
</svg>
