<?xml version="1.0" encoding="UTF-8" standalone="no"?>
<svg
   xmlns:dc="http://purl.org/dc/elements/1.1/"
   xmlns:cc="http://creativecommons.org/ns#"
   xmlns:rdf="http://www.w3.org/1999/02/22-rdf-syntax-ns#"
   xmlns:svg="http://www.w3.org/2000/svg"
   xmlns="http://www.w3.org/2000/svg"
   xmlns:sodipodi="http://sodipodi.sourceforge.net/DTD/sodipodi-0.dtd"
   xmlns:inkscape="http://www.inkscape.org/namespaces/inkscape"
   class="ionicon"
   viewBox="0 0 512 512"
   version="1.1"
   id="svg8"
   sodipodi:docname="bicycle-sharp.svg"
   inkscape:version="1.0.2 (e86c8708, 2021-01-15)">
  <metadata
     id="metadata14">
    <rdf:RDF>
      <cc:Work
         rdf:about="">
        <dc:format>image/svg+xml</dc:format>
        <dc:type
           rdf:resource="http://purl.org/dc/dcmitype/StillImage" />
      </cc:Work>
    </rdf:RDF>
  </metadata>
  <defs
     id="defs12" />
  <sodipodi:namedview
     pagecolor="#ffffff"
     bordercolor="#666666"
     borderopacity="1"
     objecttolerance="10"
     gridtolerance="10"
     guidetolerance="10"
     inkscape:pageopacity="0"
     inkscape:pageshadow="2"
     inkscape:window-width="689"
     inkscape:window-height="480"
     id="namedview10"
     showgrid="false"
     inkscape:zoom="1.3027344"
     inkscape:cx="256"
     inkscape:cy="256"
     inkscape:window-x="44"
     inkscape:window-y="25"
     inkscape:window-maximized="0"
     inkscape:current-layer="svg8" />
  <title
     id="title2">Bicycle</title>
  <path
     style="color:#000000;font-style:normal;font-variant:normal;font-weight:normal;font-stretch:normal;font-size:medium;line-height:normal;font-family:sans-serif;font-variant-ligatures:normal;font-variant-position:normal;font-variant-caps:normal;font-variant-numeric:normal;font-variant-alternates:normal;font-variant-east-asian:normal;font-feature-settings:normal;font-variation-settings:normal;text-indent:0;text-align:start;text-decoration:none;text-decoration-line:none;text-decoration-style:solid;text-decoration-color:#000000;letter-spacing:normal;word-spacing:normal;text-transform:none;writing-mode:lr-tb;direction:ltr;text-orientation:mixed;dominant-baseline:auto;baseline-shift:baseline;text-anchor:start;white-space:normal;shape-padding:0;shape-margin:0;inline-size:0;clip-rule:nonzero;display:inline;overflow:visible;visibility:visible;isolation:auto;mix-blend-mode:normal;color-interpolation:sRGB;color-interpolation-filters:linearRGB;solid-color:#000000;solid-opacity:1;vector-effect:none;fill:#000000;fill-opacity:1;fill-rule:nonzero;stroke-width:1;stroke-linecap:butt;stroke-linejoin:miter;stroke-miterlimit:4;stroke-dasharray:none;stroke-dashoffset:0;stroke-opacity:1;color-rendering:auto;image-rendering:auto;shape-rendering:auto;text-rendering:auto;enable-background:accumulate;stop-color:#000000;stop-opacity:1;stroke:none;opacity:1"
     d="M 320,192 290.5,131.9 C 284.32,118 284.32,118 264,118 c -13.26,0 -14.76,0 -23,7.3 l -71.7,69.1 c -8.3,8.45 -9.3,9.45 -9.3,26.6 0,12.67 3.78,14.61 18.51,22.9 L 240,278 v 90 h 32 V 254 c 0,0 -29,-17 -48.3,-30 l 48.9,-51.5 c 18.7,28.5 27.3,51.5 38,51.5 H 384 v -32 z"
     id="path4" />
  <path
     style="color:#000000;font-style:normal;font-variant:normal;font-weight:normal;font-stretch:normal;font-size:medium;line-height:normal;font-family:sans-serif;font-variant-ligatures:normal;font-variant-position:normal;font-variant-caps:normal;font-variant-numeric:normal;font-variant-alternates:normal;font-variant-east-asian:normal;font-feature-settings:normal;font-variation-settings:normal;text-indent:0;text-align:start;text-decoration:none;text-decoration-line:none;text-decoration-style:solid;text-decoration-color:#000000;letter-spacing:normal;word-spacing:normal;text-transform:none;writing-mode:lr-tb;direction:ltr;text-orientation:mixed;dominant-baseline:auto;baseline-shift:baseline;text-anchor:start;white-space:normal;shape-padding:0;shape-margin:0;inline-size:0;clip-rule:nonzero;display:inline;overflow:visible;visibility:visible;isolation:auto;mix-blend-mode:normal;color-interpolation:sRGB;color-interpolation-filters:linearRGB;solid-color:#000000;solid-opacity:1;vector-effect:none;fill:#000000;fill-opacity:1;fill-rule:nonzero;stroke-width:1;stroke-linecap:butt;stroke-linejoin:miter;stroke-miterlimit:4;stroke-dasharray:none;stroke-dashoffset:0;stroke-opacity:1;color-rendering:auto;image-rendering:auto;shape-rendering:auto;text-rendering:auto;enable-background:accumulate;stop-color:#000000;stop-opacity:1;stroke:none;opacity:1"
     d="m 388,448 c -37.21049,0 -70.75725,-22.4152 -84.99628,-56.7926 -14.239,-34.37732 -6.36591,-73.94625 19.94576,-100.25792 26.31167,-26.31167 65.8806,-34.18476 100.25792,-19.94576 C 457.5848,285.24275 480,318.78951 480,356 c -0.0551,50.78735 -41.21265,91.94489 -92,92 z m 0,-152 c -24.26771,0 -46.14603,14.61861 -55.43236,37.03865 -9.2863,22.41999 -4.15168,48.22581 13.00811,65.3856 17.15979,17.15979 42.96561,22.29441 65.3856,13.00811 C 433.38139,402.14603 448,380.26771 448,356 447.96143,322.87891 421.12109,296.03857 388,296 Z M 124,448 C 86.789514,448 53.242751,425.5848 39.003721,391.2074 24.764719,356.83008 32.637807,317.26115 58.949481,290.94948 85.261155,264.63781 124.83008,256.76472 159.2074,271.00372 193.5848,285.24275 216,318.78951 216,356 c -0.0551,50.78735 -41.21265,91.94489 -92,92 z m 0,-152 c -24.267709,0 -46.146032,14.61861 -55.432356,37.03865 -9.286305,22.41999 -4.151683,48.22581 13.008104,65.3856 17.159788,17.15979 42.965612,22.29441 65.385602,13.00811 C 169.38139,402.14603 184,380.26771 184,356 183.96143,322.87891 157.12109,296.03857 124,296 Z M 320,128 c 17.7377,0.0616 32.11691,-14.36258 32,-32.1 C 352.19648,78.240567 337.85996,63.858966 320.2,64 302.52688,63.944771 288.15524,78.226888 288.10001,95.9 288.04478,113.57311 302.32688,127.94477 320,128 Z"
     id="path6" />
</svg>
