<?xml version="1.0" encoding="UTF-8" standalone="no"?>
<svg
   xmlns:dc="http://purl.org/dc/elements/1.1/"
   xmlns:cc="http://creativecommons.org/ns#"
   xmlns:rdf="http://www.w3.org/1999/02/22-rdf-syntax-ns#"
   xmlns:svg="http://www.w3.org/2000/svg"
   xmlns="http://www.w3.org/2000/svg"
   xmlns:sodipodi="http://sodipodi.sourceforge.net/DTD/sodipodi-0.dtd"
   xmlns:inkscape="http://www.inkscape.org/namespaces/inkscape"
   class="ionicon"
   viewBox="0 0 512 512"
   version="1.1"
   id="svg10"
   sodipodi:docname="bicycle-outline.svg"
   inkscape:version="1.0.2 (e86c8708, 2021-01-15)">
  <metadata
     id="metadata16">
    <rdf:RDF>
      <cc:Work
         rdf:about="">
        <dc:format>image/svg+xml</dc:format>
        <dc:type
           rdf:resource="http://purl.org/dc/dcmitype/StillImage" />
      </cc:Work>
    </rdf:RDF>
  </metadata>
  <defs
     id="defs14" />
  <sodipodi:namedview
     pagecolor="#ffffff"
     bordercolor="#666666"
     borderopacity="1"
     objecttolerance="10"
     gridtolerance="10"
     guidetolerance="10"
     inkscape:pageopacity="0"
     inkscape:pageshadow="2"
     inkscape:window-width="689"
     inkscape:window-height="480"
     id="namedview12"
     showgrid="false"
     inkscape:zoom="1.3027344"
     inkscape:cx="256"
     inkscape:cy="256"
     inkscape:window-x="44"
     inkscape:window-y="25"
     inkscape:window-maximized="0"
     inkscape:current-layer="svg10" />
  <title
     id="title2">Bicycle</title>
  <path
     style="color:#000000;font-style:normal;font-variant:normal;font-weight:normal;font-stretch:normal;font-size:medium;line-height:normal;font-family:sans-serif;font-variant-ligatures:normal;font-variant-position:normal;font-variant-caps:normal;font-variant-numeric:normal;font-variant-alternates:normal;font-variant-east-asian:normal;font-feature-settings:normal;font-variation-settings:normal;text-indent:0;text-align:start;text-decoration:none;text-decoration-line:none;text-decoration-style:solid;text-decoration-color:#000000;letter-spacing:normal;word-spacing:normal;text-transform:none;writing-mode:lr-tb;direction:ltr;text-orientation:mixed;dominant-baseline:auto;baseline-shift:baseline;text-anchor:start;white-space:normal;shape-padding:0;shape-margin:0;inline-size:0;clip-rule:nonzero;display:inline;overflow:visible;visibility:visible;isolation:auto;mix-blend-mode:normal;color-interpolation:sRGB;color-interpolation-filters:linearRGB;solid-color:#000000;solid-opacity:1;vector-effect:none;fill:currentColor;fill-opacity:1;fill-rule:nonzero;stroke:none;stroke-linecap:butt;stroke-linejoin:miter;stroke-miterlimit:10;stroke-dasharray:none;stroke-dashoffset:0;stroke-opacity:1;color-rendering:auto;image-rendering:auto;shape-rendering:auto;text-rendering:auto;enable-background:accumulate;stop-color:#000000;stop-opacity:1;opacity:1"
     d="M 124 272 C 86.835415 272 53.225542 294.45757 39.003906 328.79297 C 24.782289 363.12832 32.670542 402.7721 58.949219 429.05078 C 85.227895 455.32946 124.87168 463.21771 159.20703 448.99609 C 193.54243 434.77446 216 401.16458 216 364 L 216 363.97461 L 216 363.94922 C 215.84118 313.41884 174.58116 272.15882 124.05078 272 L 124.02539 272 L 124 272 z M 388 272 C 350.83542 272 317.22554 294.45757 303.00391 328.79297 C 288.78229 363.12832 296.67054 402.7721 322.94922 429.05078 C 349.2279 455.32946 388.87168 463.21771 423.20703 448.99609 C 457.54243 434.77446 480 401.16458 480 364 L 480 363.97461 L 480 363.94922 C 479.84118 313.41884 438.58116 272.15882 388.05078 272 L 388.02539 272 L 388 272 z M 123.97852 304.00195 C 157.26225 304.12235 183.87765 330.73775 183.99805 364.02148 C 183.98932 388.32632 169.41625 410.13071 146.96094 419.43164 C 124.49897 428.73533 98.768957 423.61661 81.576172 406.42383 C 64.383387 389.23104 59.26467 363.50103 68.568359 341.03906 C 77.869293 318.58375 99.673682 304.01068 123.97852 304.00195 z M 387.97852 304.00195 C 421.26225 304.12235 447.87765 330.73775 447.99805 364.02148 C 447.98932 388.32632 433.41625 410.13071 410.96094 419.43164 C 388.49897 428.73533 362.76896 423.61661 345.57617 406.42383 C 328.38339 389.23104 323.26467 363.50103 332.56836 341.03906 C 341.86929 318.58375 363.67368 304.01068 387.97852 304.00195 z "
     id="path4" />
  <path
     style="color:#000000;font-style:normal;font-variant:normal;font-weight:normal;font-stretch:normal;font-size:medium;line-height:normal;font-family:sans-serif;font-variant-ligatures:normal;font-variant-position:normal;font-variant-caps:normal;font-variant-numeric:normal;font-variant-alternates:normal;font-variant-east-asian:normal;font-feature-settings:normal;font-variation-settings:normal;text-indent:0;text-align:start;text-decoration:none;text-decoration-line:none;text-decoration-style:solid;text-decoration-color:#000000;letter-spacing:normal;word-spacing:normal;text-transform:none;writing-mode:lr-tb;direction:ltr;text-orientation:mixed;dominant-baseline:auto;baseline-shift:baseline;text-anchor:start;white-space:normal;shape-padding:0;shape-margin:0;inline-size:0;clip-rule:nonzero;display:inline;overflow:visible;visibility:visible;isolation:auto;mix-blend-mode:normal;color-interpolation:sRGB;color-interpolation-filters:linearRGB;solid-color:#000000;solid-opacity:1;vector-effect:none;fill:currentColor;fill-opacity:1;fill-rule:nonzero;stroke:none;stroke-linecap:round;stroke-linejoin:round;stroke-miterlimit:4;stroke-dasharray:none;stroke-dashoffset:0;stroke-opacity:1;color-rendering:auto;image-rendering:auto;shape-rendering:auto;text-rendering:auto;enable-background:accumulate;stop-color:#000000;stop-opacity:1;opacity:1"
     d="M 271.86328 128.00195 A 16.0016 16.0016 0 0 0 260.16016 133.23633 L 180.16016 221.23633 A 16.0016 16.0016 0 0 0 183.2207 245.37695 L 240 282.63672 L 240 360 A 16 16 0 0 0 256 376 A 16 16 0 0 0 272 360 L 272 274 A 16.0016 16.0016 0 0 0 264.7793 260.62305 L 216.44141 228.90234 L 268.8418 171.26172 L 298.01367 223.76953 A 16.0016 16.0016 0 0 0 312 232 L 368 232 A 16 16 0 0 0 384 216 A 16 16 0 0 0 368 200 L 321.41406 200 L 285.98633 136.23047 A 16.0016 16.0016 0 0 0 271.86328 128.00195 z "
     id="path6" />
  <path
     style="color:#000000;font-style:normal;font-variant:normal;font-weight:normal;font-stretch:normal;font-size:medium;line-height:normal;font-family:sans-serif;font-variant-ligatures:normal;font-variant-position:normal;font-variant-caps:normal;font-variant-numeric:normal;font-variant-alternates:normal;font-variant-east-asian:normal;font-feature-settings:normal;font-variation-settings:normal;text-indent:0;text-align:start;text-decoration:none;text-decoration-line:none;text-decoration-style:solid;text-decoration-color:#000000;letter-spacing:normal;word-spacing:normal;text-transform:none;writing-mode:lr-tb;direction:ltr;text-orientation:mixed;dominant-baseline:auto;baseline-shift:baseline;text-anchor:start;white-space:normal;shape-padding:0;shape-margin:0;inline-size:0;clip-rule:nonzero;display:inline;overflow:visible;visibility:visible;isolation:auto;mix-blend-mode:normal;color-interpolation:sRGB;color-interpolation-filters:linearRGB;solid-color:#000000;solid-opacity:1;vector-effect:none;fill:#000000;fill-opacity:1;fill-rule:nonzero;stroke-width:1;stroke-linecap:butt;stroke-linejoin:miter;stroke-miterlimit:4;stroke-dasharray:none;stroke-dashoffset:0;stroke-opacity:1;color-rendering:auto;image-rendering:auto;shape-rendering:auto;text-rendering:auto;enable-background:accumulate;stop-color:#000000;stop-opacity:1;stroke:none;opacity:1"
     d="m 320,136 c 17.7377,0.0616 32.11691,-14.36258 32,-32.1 0.19648,-17.659433 -14.14004,-32.041034 -31.8,-31.9 -17.67312,-0.05523 -32.04476,14.226888 -32.09999,31.9 -0.0552,17.67311 14.22687,32.04477 31.89999,32.1 z"
     id="path8" />
</svg>
