<?xml version="1.0" encoding="utf-8"?>
<!-- Generator: Adobe Illustrator 24.0.0, SVG Export Plug-In . SVG Version: 6.00 Build 0)  -->
<svg version="1.1" id="Layer_1" xmlns="http://www.w3.org/2000/svg" xmlns:xlink="http://www.w3.org/1999/xlink" x="0px" y="0px"
	 viewBox="0 0 512 512" style="enable-background:new 0 0 512 512;" xml:space="preserve">
<title>ionicons-v5-h</title>
<g>
	<path d="M256,480c-2.1,0-4.1-0.4-6.1-1.2c-6-2.5-9.9-8.3-9.9-14.8V290.8l-85.6,73.4c-6.7,5.8-16.8,5-22.6-1.7
		c-5.8-6.7-5-16.8,1.7-22.6l97.8-83.9l-97.8-83.9c-6.7-5.8-7.5-15.9-1.7-22.6c5.8-6.7,15.9-7.5,22.6-1.7l85.6,73.4V48
		c0-6.5,3.9-12.3,9.9-14.8c6-2.5,12.9-1.1,17.4,3.5l112,112c3.2,3.2,4.8,7.5,4.7,11.9c-0.2,4.5-2.2,8.6-5.6,11.5L280.6,256
		l97.8,83.9c3.4,2.9,5.4,7.1,5.6,11.5c0.2,4.5-1.5,8.8-4.7,11.9l-112,112C264.3,478.4,260.2,480,256,480z M272,290.8v134.6
		l72.5-72.5L272,290.8z M272,86.6v134.6l72.5-62.1L272,86.6z"/>
</g>
</svg>
