<?xml version="1.0" encoding="UTF-8" standalone="no"?>
<svg
   xmlns:dc="http://purl.org/dc/elements/1.1/"
   xmlns:cc="http://creativecommons.org/ns#"
   xmlns:rdf="http://www.w3.org/1999/02/22-rdf-syntax-ns#"
   xmlns:svg="http://www.w3.org/2000/svg"
   xmlns="http://www.w3.org/2000/svg"
   xmlns:sodipodi="http://sodipodi.sourceforge.net/DTD/sodipodi-0.dtd"
   xmlns:inkscape="http://www.inkscape.org/namespaces/inkscape"
   class="ionicon"
   viewBox="0 0 512 512"
   version="1.1"
   id="svg6"
   sodipodi:docname="boat.svg"
   inkscape:version="1.0.2 (e86c8708, 2021-01-15)">
  <metadata
     id="metadata12">
    <rdf:RDF>
      <cc:Work
         rdf:about="">
        <dc:format>image/svg+xml</dc:format>
        <dc:type
           rdf:resource="http://purl.org/dc/dcmitype/StillImage" />
      </cc:Work>
    </rdf:RDF>
  </metadata>
  <defs
     id="defs10" />
  <sodipodi:namedview
     pagecolor="#ffffff"
     bordercolor="#666666"
     borderopacity="1"
     objecttolerance="10"
     gridtolerance="10"
     guidetolerance="10"
     inkscape:pageopacity="0"
     inkscape:pageshadow="2"
     inkscape:window-width="689"
     inkscape:window-height="480"
     id="namedview8"
     showgrid="false"
     inkscape:zoom="1.3027344"
     inkscape:cx="256"
     inkscape:cy="256"
     inkscape:window-x="44"
     inkscape:window-y="25"
     inkscape:window-maximized="0"
     inkscape:current-layer="svg6" />
  <title
     id="title2">Boat</title>
  <path
     style="color:#000000;font-style:normal;font-variant:normal;font-weight:normal;font-stretch:normal;font-size:medium;line-height:normal;font-family:sans-serif;font-variant-ligatures:normal;font-variant-position:normal;font-variant-caps:normal;font-variant-numeric:normal;font-variant-alternates:normal;font-variant-east-asian:normal;font-feature-settings:normal;font-variation-settings:normal;text-indent:0;text-align:start;text-decoration:none;text-decoration-line:none;text-decoration-style:solid;text-decoration-color:#000000;letter-spacing:normal;word-spacing:normal;text-transform:none;writing-mode:lr-tb;direction:ltr;text-orientation:mixed;dominant-baseline:auto;baseline-shift:baseline;text-anchor:start;white-space:normal;shape-padding:0;shape-margin:0;inline-size:0;clip-rule:nonzero;display:inline;overflow:visible;visibility:visible;isolation:auto;mix-blend-mode:normal;color-interpolation:sRGB;color-interpolation-filters:linearRGB;solid-color:#000000;solid-opacity:1;vector-effect:none;fill:#000000;fill-opacity:1;fill-rule:nonzero;stroke-width:1;stroke-linecap:butt;stroke-linejoin:miter;stroke-miterlimit:4;stroke-dasharray:none;stroke-dashoffset:0;stroke-opacity:1;color-rendering:auto;image-rendering:auto;shape-rendering:auto;text-rendering:auto;enable-background:accumulate;stop-color:#000000;stop-opacity:1;stroke:none;opacity:1"
     d="m 416,473.14 c -6.5e-4,-2.50307 -1.37046,-4.80527 -3.57,-6 -27.07,-14.55 -51.76,-36.82 -62.62,-48 -3.32844,-3.49022 -8.66693,-4.12396 -12.72,-1.51 -50.33,32.42 -111.61,32.44 -161.95,0.05 -4.09004,-2.64106 -9.48269,-1.98486 -12.82,1.56 -10.77,11.28 -35.19,33.3 -62.43,47.75 -2.202143,1.1067 -3.674089,3.27488 -3.89,5.73 -0.347921,4.40564 3.572768,7.94515 7.92,7.15 20.85,-4.18 41,-13.68 60.2,-23.83 2.4992,-1.31594 5.48134,-1.3383 8,-0.06 52.72522,26.80578 115.08478,26.80578 167.81,0 2.54736,-1.29088 5.56207,-1.26852 8.09,0.06 19.1,10 39.22,19.59 60,23.8 4.19101,0.80584 8.06409,-2.4427 8,-6.71 z m 60.71,-226.23 c -3.49,-8.39 -10.9,-14.89 -20.9,-18.35 L 432,219.08 V 136 C 432,100.65378 403.34622,72 368,72 H 336 V 64 C 336,41.90861 318.09139,24 296,24 h -80 c -22.09139,0 -40,17.90861 -40,40 v 8 h -32 c -35.34622,0 -64,28.65378 -64,64 v 83.15 l -23.58,9.39 c -9.94,3.3 -17.63,10 -21.15,18.44 -2.45,5.89 -5.25,15 -1.3,26.46 l 0.1,0.3 46.66,119.44 c 3.51877,8.9824 12.203111,14.87265 21.85,14.82 0.5,0 1,0 1.53,-0.05 31.32,-2 56,-17.27 72.6,-31.61 23.71,20.47 51.6,31.66 79.29,31.66 27.69,0 55.43,-11.2 79.14,-31.7 16.59,14.36 41.3,29.67 72.61,31.65 10.17221,0.71412 19.63218,-5.25251 23.37,-14.74 l 46.65,-119 c 3.28,-8.09 2.9,-17.76 -1.06,-27.3 z M 269,154.21 l -1.14,-0.4 c -7.72334,-2.43023 -16.00666,-2.43023 -23.73,0 l -0.58,0.18 -126.07,50.23 c -2.62819,1.04671 -5.48274,-0.89105 -5.48,-3.72 V 136 c 0,-17.67311 14.32689,-32 32,-32 h 224 c 17.67311,0 32,14.32689 32,32 v 64.44 c 0.003,2.82895 -2.85181,4.76671 -5.48,3.72 z"
     id="path4" />
</svg>
