<?xml version="1.0" encoding="UTF-8"?>
<svg width="512px" height="512px" viewBox="0 0 512 512" version="1.1" xmlns="http://www.w3.org/2000/svg" xmlns:xlink="http://www.w3.org/1999/xlink">
    <!-- Generator: Sketch 62 (91390) - https://sketch.com -->
    <title>Artboard</title>
    <desc>Created with Sketch.</desc>
    <g id="Artboard" stroke="none" stroke-width="1" fill="none" fill-rule="evenodd">
        <g id="boat-outline" transform="translate(32.000000, 32.000000)" fill="#000000" fill-rule="nonzero">
            <path d="M305.1,385.6 C309.1,383 314.5,383.6 317.8,387.1 C328.6,398.3 353.3,420.6 380.4,435.1 C382.6,436.3 384,438.6 384,441.1 L384,441.1 L384,442.4 C383.4,446.1 379.8,448.5 376.2,447.8 C355.4,443.6 335.3,434 316.2,424 C313.7,422.6 310.6,422.6 308.1,423.9 C255.3,450.7 192.9,450.7 140.2,423.9 C137.7,422.7 134.7,422.7 132.2,424 C113,434.1 92.8,443.6 72,447.8 C71.5,447.9 70.9,447.9 70.3,447.9 C66.6,447.6 63.8,444.4 64.1,440.7 C64.3,438.3 65.8,436.1 68,435 C95.2,420.5 119.6,398.5 130.4,387.2 C133.7,383.6 139.1,383 143.2,385.6 C193.5,418 254.8,418 305.1,385.6 Z M264,0 C286,0.1 303.9,18 304,40 L303.999317,48 L336,48 C371.2,48.1 399.9,76.8 400,112 L399.999317,195.034 L423.8,204.5 C433.8,208 441.2,214.4 444.7,222.8 L444.7,222.9 C448.7,232.4 449,242.1 445.8,250.2 L399,369.4 C395.4,378.3 386.8,384 377.4,384 C376.8,384 376.3,384 375.7,383.9 C344.4,381.9 319.7,366.6 303.2,352.3 C279.5,372.8 251.6,384 224,384 C196.3,384 168.4,372.8 144.7,352.4 C128.1,366.7 103.4,382 72.2,384 C62,384.7 52.6,378.9 48.8,369.4 L48.7,369.2 L2.1,249.7 L2,249.4 C-1.9,238 0.9,228.9 3.4,223 C6.9,214.5 14.6,207.8 24.6,204.6 L47.9993174,195.264 L48,112 C48.1,76.8 76.8,48.1 112,48 L143.999317,48 L144,40 C144.1,18 162,0.1 184,0 L264,0 Z M207.999317,165.823 L35.3,234.7 L34.7,234.9 C33.7,235.2 33,235.6 32.7,235.9 C32,237.7 32,238.2 32.2,238.9 L76.2,351.5 C98.9,348.2 117,335 128.5,324 L128.6,323.9 C133.1,319.6 138.9,317.4 144.7,317.4 C150.5,317.4 156.4,319.5 160.9,323.8 L161,323.9 C175.273434,337.569268 191.543057,346.618787 207.999822,350.230179 L207.999317,165.823 Z M239.999317,165.81 L240.000316,350.282935 C260.137943,345.937328 276.179176,334.121545 286.8,323.9 L286.9,323.8 C296,315.3 310.2,315.3 319.3,323.8 L319.4,323.9 C330.9,334.9 349,348.1 371.7,351.4 L416,238.4 C416,238 415.9,237.1 415.4,235.7 C415.1,235.5 414.3,235 413.2,234.7 L412.4,234.4 L239.999317,165.81 Z M336,80 L112,80 C94.4,80.1 80.1,94.4 80,112 L79.9993174,182.499 L211.6,130 L212.2,129.8 C220,127.4 228.2,127.4 235.9,129.8 L237,130.2 L367.999317,182.305 L368,112 C367.9,94.4 353.6,80.1 336,80 Z M264,32 L184,32 C179.6,32 176,35.6 176,40 L175.999317,48 L271.999317,48 L272,40 C272,35.6 268.4,32 264,32 Z" id="Combined-Shape"></path>
        </g>
    </g>
</svg>