<?xml version="1.0" encoding="UTF-8" standalone="no"?>
<svg
   xmlns:dc="http://purl.org/dc/elements/1.1/"
   xmlns:cc="http://creativecommons.org/ns#"
   xmlns:rdf="http://www.w3.org/1999/02/22-rdf-syntax-ns#"
   xmlns:svg="http://www.w3.org/2000/svg"
   xmlns="http://www.w3.org/2000/svg"
   xmlns:sodipodi="http://sodipodi.sourceforge.net/DTD/sodipodi-0.dtd"
   xmlns:inkscape="http://www.inkscape.org/namespaces/inkscape"
   class="ionicon"
   viewBox="0 0 512 512"
   version="1.1"
   id="svg8"
   sodipodi:docname="body-outline.svg"
   inkscape:version="1.0.2 (e86c8708, 2021-01-15)">
  <metadata
     id="metadata14">
    <rdf:RDF>
      <cc:Work
         rdf:about="">
        <dc:format>image/svg+xml</dc:format>
        <dc:type
           rdf:resource="http://purl.org/dc/dcmitype/StillImage" />
      </cc:Work>
    </rdf:RDF>
  </metadata>
  <defs
     id="defs12" />
  <sodipodi:namedview
     pagecolor="#ffffff"
     bordercolor="#666666"
     borderopacity="1"
     objecttolerance="10"
     gridtolerance="10"
     guidetolerance="10"
     inkscape:pageopacity="0"
     inkscape:pageshadow="2"
     inkscape:window-width="689"
     inkscape:window-height="480"
     id="namedview10"
     showgrid="false"
     inkscape:zoom="1.3027344"
     inkscape:cx="256"
     inkscape:cy="256"
     inkscape:window-x="44"
     inkscape:window-y="25"
     inkscape:window-maximized="0"
     inkscape:current-layer="svg8" />
  <title
     id="title2">Body</title>
  <path
     style="color:#000000;font-style:normal;font-variant:normal;font-weight:normal;font-stretch:normal;font-size:medium;line-height:normal;font-family:sans-serif;font-variant-ligatures:normal;font-variant-position:normal;font-variant-caps:normal;font-variant-numeric:normal;font-variant-alternates:normal;font-variant-east-asian:normal;font-feature-settings:normal;font-variation-settings:normal;text-indent:0;text-align:start;text-decoration:none;text-decoration-line:none;text-decoration-style:solid;text-decoration-color:#000000;letter-spacing:normal;word-spacing:normal;text-transform:none;writing-mode:lr-tb;direction:ltr;text-orientation:mixed;dominant-baseline:auto;baseline-shift:baseline;text-anchor:start;white-space:normal;shape-padding:0;shape-margin:0;inline-size:0;clip-rule:nonzero;display:inline;overflow:visible;visibility:visible;isolation:auto;mix-blend-mode:normal;color-interpolation:sRGB;color-interpolation-filters:linearRGB;solid-color:#000000;solid-opacity:1;vector-effect:none;fill:currentColor;fill-opacity:1;fill-rule:nonzero;stroke:none;stroke-linecap:butt;stroke-linejoin:miter;stroke-miterlimit:10;stroke-dasharray:none;stroke-dashoffset:0;stroke-opacity:1;color-rendering:auto;image-rendering:auto;shape-rendering:auto;text-rendering:auto;enable-background:accumulate;stop-color:#000000;stop-opacity:1;opacity:1"
     d="M 256 0 C 225.26157 0 200 25.261568 200 56 C 200 86.738432 225.26157 112 256 112 C 286.73843 112 312 86.738432 312 56 C 312 25.261568 286.73843 1.4210855e-14 256 0 z M 256 32 C 269.44435 32 280 42.555652 280 56 C 280 69.444348 269.44435 80 256 80 C 242.55565 80 232 69.444348 232 56 C 232 42.555652 242.55565 32 256 32 z "
     id="circle4" />
  <path
     style="color:#000000;font-style:normal;font-variant:normal;font-weight:normal;font-stretch:normal;font-size:medium;line-height:normal;font-family:sans-serif;font-variant-ligatures:normal;font-variant-position:normal;font-variant-caps:normal;font-variant-numeric:normal;font-variant-alternates:normal;font-variant-east-asian:normal;font-feature-settings:normal;font-variation-settings:normal;text-indent:0;text-align:start;text-decoration:none;text-decoration-line:none;text-decoration-style:solid;text-decoration-color:#000000;letter-spacing:normal;word-spacing:normal;text-transform:none;writing-mode:lr-tb;direction:ltr;text-orientation:mixed;dominant-baseline:auto;baseline-shift:baseline;text-anchor:start;white-space:normal;shape-padding:0;shape-margin:0;inline-size:0;clip-rule:nonzero;display:inline;overflow:visible;visibility:visible;isolation:auto;mix-blend-mode:normal;color-interpolation:sRGB;color-interpolation-filters:linearRGB;solid-color:#000000;solid-opacity:1;vector-effect:none;fill:currentColor;fill-opacity:1;fill-rule:nonzero;stroke:none;stroke-linecap:butt;stroke-linejoin:miter;stroke-miterlimit:10;stroke-dasharray:none;stroke-dashoffset:0;stroke-opacity:1;color-rendering:auto;image-rendering:auto;shape-rendering:auto;text-rendering:auto;enable-background:accumulate;stop-color:#000000;stop-opacity:1;opacity:1"
     d="M 88 128.01953 C 66.098121 128.01953 48 146.11767 48 168.01953 C 48 189.92139 66.098121 208.01953 88 208.01953 L 180.5 208.01953 C 185.33852 208.01953 187.49461 208.65824 188.76562 211.96289 L 188.77539 211.98828 L 188.78516 212.01367 C 189.36591 213.50881 190.89269 223.42806 190.80078 233.67578 C 190.70889 243.9221 189.69636 255.30696 188.40234 263.38477 C 188.40217 263.38587 188.40252 263.38756 188.40234 263.38867 L 183.54297 292.83789 L 153.14258 465.04297 L 153.14258 465.04688 C 149.34581 486.6239 164.04524 507.58677 185.62109 511.375 C 207.21424 515.20241 228.18981 500.37837 231.7832 478.74219 L 252.75977 358.98047 L 247.86328 358.55469 L 252.79883 358.94727 C 252.79883 358.94727 253.97132 352.27 256.08398 346.00977 C 258.15585 352.22581 259.28516 358.85352 259.28516 358.85352 L 281.52344 357.15234 L 259.33984 359.08008 L 280.34375 479.00391 L 280.34766 479.0293 C 284.18545 500.54833 305.13919 515.16005 326.6582 511.32227 C 348.17721 507.48448 362.78896 486.53075 358.95117 465.01172 L 328.57227 292.92773 L 323.69922 263.38867 L 323.69922 263.38477 C 322.40521 255.30696 321.39072 243.9221 321.29883 233.67578 C 321.20692 223.42806 322.7337 213.50881 323.31445 212.01367 L 323.32422 211.98828 L 323.33398 211.96289 C 324.55369 208.79167 326.99855 208.01953 331.59961 208.01953 L 424 208.01953 C 445.90188 208.01953 464 189.92139 464 168.01953 C 464 146.11767 445.90188 128.01953 424 128.01953 L 88 128.01953 z M 88 160.01953 L 424 160.01953 C 428.60781 160.01953 432 163.41172 432 168.01953 C 432 172.62734 428.60781 176.01953 424 176.01953 L 331.59961 176.01953 C 318.0676 176.01953 300.26663 182.84248 293.47852 200.45117 C 289.36812 211.04862 289.19277 221.9195 289.30078 233.96289 C 289.40887 246.01517 290.49583 258.42918 292.10156 268.45117 L 292.10742 268.48828 L 297.02734 298.3125 L 327.44531 470.61523 L 327.44922 470.62891 C 328.25062 475.12251 325.53462 479.01695 321.04102 479.81836 C 316.54742 480.61977 312.65297 477.90376 311.85156 473.41016 L 290.85938 353.56055 L 290.83398 353.5625 C 290.73881 352.929 289.44584 344.43318 286.1582 334.93555 C 284.45235 330.00754 282.32988 324.76474 278.52539 319.55859 C 274.7209 314.35245 267.65794 307.91992 257.59961 307.91992 L 254.5 307.91992 C 244.37893 307.91992 237.40881 314.40303 233.63867 319.58398 C 229.86853 324.76494 227.74658 329.98281 226.03125 334.89453 C 222.72739 344.35492 221.38568 352.82105 221.28516 353.46289 L 221.24023 353.45898 L 200.22852 473.42969 L 200.2168 473.49805 C 199.47676 477.95389 195.64824 480.65822 191.20117 479.86719 L 191.17969 479.86328 L 191.1582 479.85938 C 186.61591 479.06453 183.85906 475.13528 184.6582 470.59375 L 215.07227 298.3125 L 215.08594 298.22461 L 219.99219 268.48828 L 219.99805 268.45117 C 221.60378 258.42918 222.69074 246.01517 222.79883 233.96289 C 222.90681 221.92307 222.73184 211.05541 218.625 200.46094 C 211.89107 182.978 194.11709 176.01953 180.5 176.01953 L 88 176.01953 C 83.392193 176.01953 80 172.62734 80 168.01953 C 80 163.41172 83.392193 160.01953 88 160.01953 z "
     id="path6" />
</svg>
