<?xml version="1.0" encoding="utf-8"?>
<!-- Generator: Adobe Illustrator 24.0.0, SVG Export Plug-In . SVG Version: 6.00 Build 0)  -->
<svg version="1.1" id="Layer_1" xmlns="http://www.w3.org/2000/svg" xmlns:xlink="http://www.w3.org/1999/xlink" x="0px" y="0px"
	 viewBox="0 0 512 512" style="enable-background:new 0 0 512 512;" xml:space="preserve">
<title>ionicons-v5-h</title>
<g>
	<path d="M248,112c-30.9,0-56-25.1-56-56s25.1-56,56-56c30.9,0,56,25.1,56,56S278.9,112,248,112z M248,32c-13.2,0-24,10.8-24,24
		s10.8,24,24,24c13.2,0,24-10.8,24-24S261.2,32,248,32z"/>
</g>
<g>
	<path d="M192.6,512c-2.2,0-4.3-0.2-6.5-0.5l-0.6-0.1c-10.5-1.9-19.6-7.7-25.7-16.4c-6.1-8.8-8.5-19.4-6.6-29.9l30.4-172.1l4.9-29.6
		c3-19,3.2-44,0.4-51.3c-1.3-3.3-5.2-4-8.3-4H88c-22.1,0-40-17.9-40-40s17.9-40,40-40h336c22.1,0,40,17.9,40,40s-17.9,40-40,40
		h-92.4c-2.5,0-6.9,0.5-8.3,3.9c-2.9,7.4-2.7,32.4,0.4,51.4l4.9,29.5L359,465c3.9,21.6-10.6,42.4-32.3,46.3
		c-21.7,3.9-42.4-10.6-46.3-32.3l-21-119.9l2.4-0.4l-2.5,0.2c-0.7-4.3-1.9-9-3.2-13c-1.3,4-2.6,8.8-3.3,13.1l-0.2,0l0.1,0l-21,120.1
		C228.3,498.4,211.5,512,192.6,512z M191.3,479.9c4.2,0.7,8.2-2.1,8.9-6.3l0-0.2l21-119.9l0,0c2.3-14,10.1-45.5,33.2-45.5h3.1
		c23.4,0,31,31.6,33.2,45.6l0,0l21,119.9c0.8,4.3,4.9,7.1,9.2,6.4c4.3-0.8,7.2-4.9,6.4-9.2L297,298.2l-4.9-29.7
		c-2-12.8-5.8-49.7,1.4-68.1c5.8-15,20.4-24.4,38.1-24.4H424c4.4,0,8-3.6,8-8s-3.6-8-8-8H88c-4.4,0-8,3.6-8,8s3.6,8,8,8h92.5
		c17.7,0,32.3,9.4,38.1,24.5c7.1,18.3,3.4,55.3,1.4,68l-4.9,30l-30.4,172.2c-0.5,2.8,0.6,5,1.3,6c0.7,1,2.2,2.7,4.9,3.2L191.3,479.9
		z"/>
</g>
</svg>
