<?xml version="1.0" encoding="UTF-8" standalone="no"?>
<svg
   xmlns:dc="http://purl.org/dc/elements/1.1/"
   xmlns:cc="http://creativecommons.org/ns#"
   xmlns:rdf="http://www.w3.org/1999/02/22-rdf-syntax-ns#"
   xmlns:svg="http://www.w3.org/2000/svg"
   xmlns="http://www.w3.org/2000/svg"
   xmlns:sodipodi="http://sodipodi.sourceforge.net/DTD/sodipodi-0.dtd"
   xmlns:inkscape="http://www.inkscape.org/namespaces/inkscape"
   class="ionicon"
   viewBox="0 0 512 512"
   version="1.1"
   id="svg8"
   sodipodi:docname="bonfire.svg"
   inkscape:version="1.0.2 (e86c8708, 2021-01-15)">
  <metadata
     id="metadata14">
    <rdf:RDF>
      <cc:Work
         rdf:about="">
        <dc:format>image/svg+xml</dc:format>
        <dc:type
           rdf:resource="http://purl.org/dc/dcmitype/StillImage" />
      </cc:Work>
    </rdf:RDF>
  </metadata>
  <defs
     id="defs12" />
  <sodipodi:namedview
     pagecolor="#ffffff"
     bordercolor="#666666"
     borderopacity="1"
     objecttolerance="10"
     gridtolerance="10"
     guidetolerance="10"
     inkscape:pageopacity="0"
     inkscape:pageshadow="2"
     inkscape:window-width="689"
     inkscape:window-height="480"
     id="namedview10"
     showgrid="false"
     inkscape:zoom="1.3027344"
     inkscape:cx="256"
     inkscape:cy="256"
     inkscape:window-x="44"
     inkscape:window-y="25"
     inkscape:window-maximized="0"
     inkscape:current-layer="svg8" />
  <title
     id="title2">Bonfire</title>
  <path
     style="color:#000000;font-style:normal;font-variant:normal;font-weight:normal;font-stretch:normal;font-size:medium;line-height:normal;font-family:sans-serif;font-variant-ligatures:normal;font-variant-position:normal;font-variant-caps:normal;font-variant-numeric:normal;font-variant-alternates:normal;font-variant-east-asian:normal;font-feature-settings:normal;font-variation-settings:normal;text-indent:0;text-align:start;text-decoration:none;text-decoration-line:none;text-decoration-style:solid;text-decoration-color:#000000;letter-spacing:normal;word-spacing:normal;text-transform:none;writing-mode:lr-tb;direction:ltr;text-orientation:mixed;dominant-baseline:auto;baseline-shift:baseline;text-anchor:start;white-space:normal;shape-padding:0;shape-margin:0;inline-size:0;clip-rule:nonzero;display:inline;overflow:visible;visibility:visible;isolation:auto;mix-blend-mode:normal;color-interpolation:sRGB;color-interpolation-filters:linearRGB;solid-color:#000000;solid-opacity:1;vector-effect:none;fill:#000000;fill-opacity:1;fill-rule:nonzero;stroke-width:1;stroke-linecap:butt;stroke-linejoin:miter;stroke-miterlimit:4;stroke-dasharray:none;stroke-dashoffset:0;stroke-opacity:1;color-rendering:auto;image-rendering:auto;shape-rendering:auto;text-rendering:auto;enable-background:accumulate;stop-color:#000000;stop-opacity:1;stroke:none;opacity:1"
     d="m 273.38,368.37 c -0.81,-9.23 -8.86,-16.44 -18.55,-16.44 -8.58362,-0.0629 -16.09919,5.7472 -18.2,14.07 l -18.2,88.36 c -0.60201,2.58053 -0.91394,5.22023 -0.93,7.87 0,19.93 16.68,33.77 37.33,33.77 20.65,0 37.34,-13.84 37.34,-33.77 -0.0109,-3.19314 -0.44464,-6.37077 -1.29,-9.45 z m 137.67,39.52 c -1.85373,-1.6224 -3.8445,-3.08119 -5.95,-4.36 L 335.57,355 c -6.77,-4.24 -14,-4.13 -19.25,1 -4.72699,4.49687 -5.56831,11.728 -2,17.19 l 52.5,69 c 1.20413,1.66907 2.54186,3.23757 4,4.69 9.1,10.16 29.28,10.72 40.37,0 10.94,-10.96 10.81,-30.39 -0.14,-38.99 z m 52.25,-71.96 h -70.42 c -4.55,0 -8.88,3.35 -8.88,8.15 0,4.8 2.95,7.85 6.92,9.16 l 66.43,20.55 C 467,376 480,367.44 480,356.71 c 0,-13.63 -7.6,-20.78 -16.7,-20.78 z m -335.08,8.15 c 0,-4.95 -4.55,-8.15 -9.45,-8.15 H 48.35 c -8.87,0 -16.35,9.58 -16.35,20.31 0,10.73 12.62,19.76 22.3,17.55 l 67.43,-20.55 c 4.39,-1.31 6.49,-4.24 6.49,-9.16 z m 48.33,10.97 -69.55,48.36 c -2.15981,1.21179 -4.17305,2.66803 -6,4.34 -11.197561,10.41456 -11.197561,28.14544 0,38.56 11.33072,10.68761 29.02928,10.68761 40.36,0 1.48653,-1.42226 2.82658,-2.99012 4,-4.68 L 197.9,373 c 3.5,-5.57 2.92,-12.48 -2,-17 -5.35319,-4.99799 -13.53297,-5.39958 -19.35,-0.95 z M 293.46,242.39 c 10,-5.42 19.45,-10.54 28.31,-16.16 42.46,-26.92 62.23,-59 62.23,-101 0,-64.66 -56.07,-104.4 -108.82,-109 -6.49,-0.57 -15,-0.42 -19.91,3.88 -4.91,4.3 -5.88,12.56 -6.15,19.1 -1.38,33.61 -28.38,59 -57,85.86 -28,26.3 -56.93,53.49 -62.71,91 -8.41,54.68 21.74,86.71 40.46,100.93 5.54839,4.22206 12.32788,6.50882 19.3,6.51 2.4953,-0.003 4.98187,-0.29492 7.41,-0.87 9.27354,-2.17353 17.08138,-8.39557 21.27,-16.95 14.91,-30.39 45.77,-47.12 75.61,-63.3 z"
     id="path4" />
  <path
     style="color:#000000;font-style:normal;font-variant:normal;font-weight:normal;font-stretch:normal;font-size:medium;line-height:normal;font-family:sans-serif;font-variant-ligatures:normal;font-variant-position:normal;font-variant-caps:normal;font-variant-numeric:normal;font-variant-alternates:normal;font-variant-east-asian:normal;font-feature-settings:normal;font-variation-settings:normal;text-indent:0;text-align:start;text-decoration:none;text-decoration-line:none;text-decoration-style:solid;text-decoration-color:#000000;letter-spacing:normal;word-spacing:normal;text-transform:none;writing-mode:lr-tb;direction:ltr;text-orientation:mixed;dominant-baseline:auto;baseline-shift:baseline;text-anchor:start;white-space:normal;shape-padding:0;shape-margin:0;inline-size:0;clip-rule:nonzero;display:inline;overflow:visible;visibility:visible;isolation:auto;mix-blend-mode:normal;color-interpolation:sRGB;color-interpolation-filters:linearRGB;solid-color:#000000;solid-opacity:1;vector-effect:none;fill:#000000;fill-opacity:1;fill-rule:nonzero;stroke-width:1;stroke-linecap:butt;stroke-linejoin:miter;stroke-miterlimit:4;stroke-dasharray:none;stroke-dashoffset:0;stroke-opacity:1;color-rendering:auto;image-rendering:auto;shape-rendering:auto;text-rendering:auto;enable-background:accumulate;stop-color:#000000;stop-opacity:1;stroke:none;opacity:1"
     d="m 139.82,156.57 c 12.22,-15.76 27,-29.68 41.37,-43.15 C 201.11,94.7 219,77.84 227.69,59.56 215.45,52.19 200.33,48.2 181.18,48.2 c -17.79,0 -20.39,5.18 -20.39,19.06 0,12.56 -6.53,20.54 -14.34,30.65 -8.65,11.19 -18.45,23.86 -18.45,42.93 0,10.23 1.29,18.77 4.2,26.37 2.33333,-3.54667 4.87333,-7.09333 7.62,-10.64 z m 190.52,83.17 c -9.33,5.92 -19,11.16 -29.25,16.71 -28.91,15.68 -56.21,30.48 -68.88,56.28 -0.58737,1.22339 -1.21437,2.42736 -1.88,3.61 -2.34399,4.172 -0.52536,9.45489 3.89,11.3 12.31,5.1 25.13,8.27 38.91,8.27 29.18177,0.19288 57.27446,-11.07076 78.24,-31.37 21.00085,-20.37377 32.78486,-48.43078 32.63,-77.69 -0.007,-5.02914 -0.45176,-10.04813 -1.33,-15 -1.14811,-6.55206 -9.32595,-8.92245 -13.8,-4 -10.18,11.47 -22.93,22 -38.53,31.89 z"
     id="path6" />
</svg>
