<?xml version="1.0" encoding="UTF-8"?>
<svg width="512px" height="512px" viewBox="0 0 512 512" version="1.1" xmlns="http://www.w3.org/2000/svg" xmlns:xlink="http://www.w3.org/1999/xlink">
    <!-- Generator: Sketch 62 (91390) - https://sketch.com -->
    <title>Artboard</title>
    <desc>Created with Sketch.</desc>
    <g id="Artboard" stroke="none" stroke-width="1" fill="none" fill-rule="evenodd">
        <g id="bonfire-outline" transform="translate(32.000000, 15.000000)" fill="#000000" fill-rule="nonzero">
            <path d="M223.432115,336.898178 L223.8,336.898748 C233.5,336.898748 241.6,344.1 242.4,353.3 L242.4,353.3 L259.8,437.8 C260.7,440.9 261.1,444.1 261.1,447.3 C261.1,467.2 244.4,481.1 223.8,481.1 C203.2,481.1 186.5,467.2 186.5,447.3 C186.5,444.6 186.8,442 187.4,439.4 L187.4,439.4 L205.6,351 L205.693294,350.645766 C207.91451,342.532653 215.322857,336.801411 223.8,336.898748 Z M285.3,340.9 C290.5,335.8 297.7,335.7 304.5,339.9 L304.5,339.9 L374,388.5 C376.2,389.8 378.1,391.3 380,392.9 C391,401.5 391.1,420.9 380.2,431.8 C369.1,442.5 348.9,442 339.8,431.8 C338.3,430.3 337,428.8 335.8,427.1 L335.8,427.1 L283.3,358.1 C279.7,352.6 280.6,345.4 285.3,340.9 Z M145.6,340 C151.4,335.5 159.5,335.9 164.9,340.9 C169.8,345.5 170.4,352.4 166.9,358 L166.9,358 L114.4,426.6 C113.2,428.3 111.9,429.9 110.4,431.3 C99,442 81.3,442 70,431.3 C69.6,430.9 69.1,430.5 68.7,430 C58.7,419.4 59.4,402.7 70,392.8 C71.8,391.1 73.8,389.6 76,388.4 L76,388.4 Z M432.3,320.9 C441.4,320.9 449,328 448.9,341.7 C448.9,352.4 435.9,361 426.3,358.8 L426.3,358.8 L359.9,338.3 C356,337 353,333.9 353,329.1 C353,324.3 357.4,320.9 361.9,320.9 L361.9,320.9 Z M87.8,320.8 C92.6,320.8 97.2,324 97.2,329 C97.2,334 95.1,336.9 90.6,338.2 L90.6,338.2 L23.2,358.7 C13.5,360.9 0.9,351.8 0.9,341.1 C0.9,330.4 8.4,320.8 17.3,320.8 L17.3,320.8 Z M244.3,1 C297,5.6 353.1,45.3 353.1,110 C353.1,129.775762 348.710318,147.356684 339.638666,163.243828 C346.289426,175.624596 353,192.300251 353,211.7 C353,241.3 341.4,268.9 320.4,289.4 C299.6,309.7 271.8,320.9 242.1,320.9 C219.258227,320.9 197.257396,313.913708 178.802947,300.981679 C172.891508,305.88233 165.545754,308.4 158.2,308.4 C151.5,308.4 144.7,306.3 138.9,301.9 C120.2,287.7 90,255.7 98.5,200.9 C100.360134,188.87327 104.596258,177.905965 110.416672,167.688001 C100.949729,156.217698 97.1,143.544781 97.1,125.8 C97.1,106.7 106.9,94 115.5,82.9 C123.3,72.8 129.5,64.8 129.8,52.2 L129.9,51.2 C130.8,40.6 139.8,32.7 150.4,33.1 C176.764848,33.6891586 195.482476,40.2984695 209.548512,54.5655432 C214.586776,45.0608459 217.745056,35.0186591 218.2,24.1 C218.2,23.7 218.2,23.3 218.3,22.8 C219.4,9.6 231.1,-0.2 244.3,1 Z M317.121843,191.121348 L316.603448,191.602228 C309.20846,198.41021 300.652,204.89 290.9,211.1 C282,216.7 272.6,221.8 262.6,227.3 C238.437744,240.435186 213.552327,253.899082 197.058814,274.727877 C209.955522,283.784189 225.302183,288.756723 241.30385,288.89695 L242,288.9 C242,288.9 242,288.9 242.1,288.9 C286.3,288.9 321,255 321,211.8 C321,205.097582 319.762551,198.364983 317.121843,191.121348 Z M249.4,34 C243.9,76.1 211.7,106.4 183.1,133.3 C158,156.9 134.2,179.2 130.1,205.9 C124.5,242.3 142.3,264.3 158.2,276.5 C177.6,237 214.6,217 247.2,199.3 C256.7,194.1 265.7,189.3 273.6,184.2 C315.3,157.7 321,131.9 321,110.2 C321,67.6 285.4,40.3 249.4,34 Z M160.2,65.8 C156.7,81.7 148,93 140.7,102.4 C133.2,112.1 128.9,118 128.9,125.8 C128.9,131.973129 129.461871,136.460646 130.770805,140.157647 C140.211281,129.621988 150.768104,119.698531 161.2,109.9 C171.44798,100.261165 181.49053,90.8277612 190.2235,81.1443254 C183.166127,72.0203797 174.156003,67.4134107 160.2,65.8 Z" id="Combined-Shape"></path>
        </g>
    </g>
</svg>