<?xml version="1.0" encoding="UTF-8" standalone="no"?>
<svg
   xmlns:dc="http://purl.org/dc/elements/1.1/"
   xmlns:cc="http://creativecommons.org/ns#"
   xmlns:rdf="http://www.w3.org/1999/02/22-rdf-syntax-ns#"
   xmlns:svg="http://www.w3.org/2000/svg"
   xmlns="http://www.w3.org/2000/svg"
   xmlns:sodipodi="http://sodipodi.sourceforge.net/DTD/sodipodi-0.dtd"
   xmlns:inkscape="http://www.inkscape.org/namespaces/inkscape"
   class="ionicon"
   viewBox="0 0 512 512"
   version="1.1"
   id="svg8"
   sodipodi:docname="bonfire-sharp.svg"
   inkscape:version="1.0.2 (e86c8708, 2021-01-15)">
  <metadata
     id="metadata14">
    <rdf:RDF>
      <cc:Work
         rdf:about="">
        <dc:format>image/svg+xml</dc:format>
        <dc:type
           rdf:resource="http://purl.org/dc/dcmitype/StillImage" />
      </cc:Work>
    </rdf:RDF>
  </metadata>
  <defs
     id="defs12" />
  <sodipodi:namedview
     pagecolor="#ffffff"
     bordercolor="#666666"
     borderopacity="1"
     objecttolerance="10"
     gridtolerance="10"
     guidetolerance="10"
     inkscape:pageopacity="0"
     inkscape:pageshadow="2"
     inkscape:window-width="689"
     inkscape:window-height="480"
     id="namedview10"
     showgrid="false"
     inkscape:zoom="1.3027344"
     inkscape:cx="256"
     inkscape:cy="256"
     inkscape:window-x="44"
     inkscape:window-y="25"
     inkscape:window-maximized="0"
     inkscape:current-layer="svg8" />
  <title
     id="title2">Bonfire</title>
  <path
     style="color:#000000;font-style:normal;font-variant:normal;font-weight:normal;font-stretch:normal;font-size:medium;line-height:normal;font-family:sans-serif;font-variant-ligatures:normal;font-variant-position:normal;font-variant-caps:normal;font-variant-numeric:normal;font-variant-alternates:normal;font-variant-east-asian:normal;font-feature-settings:normal;font-variation-settings:normal;text-indent:0;text-align:start;text-decoration:none;text-decoration-line:none;text-decoration-style:solid;text-decoration-color:#000000;letter-spacing:normal;word-spacing:normal;text-transform:none;writing-mode:lr-tb;direction:ltr;text-orientation:mixed;dominant-baseline:auto;baseline-shift:baseline;text-anchor:start;white-space:normal;shape-padding:0;shape-margin:0;inline-size:0;clip-rule:nonzero;display:inline;overflow:visible;visibility:visible;isolation:auto;mix-blend-mode:normal;color-interpolation:sRGB;color-interpolation-filters:linearRGB;solid-color:#000000;solid-opacity:1;vector-effect:none;fill:#000000;fill-opacity:1;fill-rule:nonzero;stroke-width:1;stroke-linecap:butt;stroke-linejoin:miter;stroke-miterlimit:4;stroke-dasharray:none;stroke-dashoffset:0;stroke-opacity:1;color-rendering:auto;image-rendering:auto;shape-rendering:auto;text-rendering:auto;enable-background:accumulate;stop-color:#000000;stop-opacity:1;stroke:none;opacity:1"
     d="m 199.89,336 -15.25,-5.62 c -12.08887,-5.49995 -22.96574,-13.34489 -32,-23.08 -13.93,-14.9 -29.29,-40.71 -23.38,-79.11 5.2,-33.73 44.2,-74.21 69.34,-97.87 27.24,-25.62 66,-65.85 64.15,-99.15 L 262,16 h 15.18 C 328.53,16 384,53.62 384,114.41 c 0,45.57 -22,77.61 -68.91,106.9 -8,5 -16.44,9.66 -25.42,14.53 -30.63,16.62 -75.29,49.83 -85.73,85.32 z M 181.19,113.59 C 201,95 218.91,78.15 227.62,59.79 c -1.84,-1.12 -3.74,-2.15 -5.7,-3.09 -11.87,-5.69 -26.1,-8.34 -44.76,-8.34 h -16.94 l 0.56,16.49 c 0.47,14.06 -6.06,22.51 -14.33,33.21 C 137.8,109.26 128,121.94 128,141 c 0,10.23 1.29,18.76 4.2,26.36 2.33333,-3.54 4.87,-7.08333 7.61,-10.63 C 152,141 166.86,127.05 181.19,113.59 Z"
     id="path4" />
  <path
     style="color:#000000;font-style:normal;font-variant:normal;font-weight:normal;font-stretch:normal;font-size:medium;line-height:normal;font-family:sans-serif;font-variant-ligatures:normal;font-variant-position:normal;font-variant-caps:normal;font-variant-numeric:normal;font-variant-alternates:normal;font-variant-east-asian:normal;font-feature-settings:normal;font-variation-settings:normal;text-indent:0;text-align:start;text-decoration:none;text-decoration-line:none;text-decoration-style:solid;text-decoration-color:#000000;letter-spacing:normal;word-spacing:normal;text-transform:none;writing-mode:lr-tb;direction:ltr;text-orientation:mixed;dominant-baseline:auto;baseline-shift:baseline;text-anchor:start;white-space:normal;shape-padding:0;shape-margin:0;inline-size:0;clip-rule:nonzero;display:inline;overflow:visible;visibility:visible;isolation:auto;mix-blend-mode:normal;color-interpolation:sRGB;color-interpolation-filters:linearRGB;solid-color:#000000;solid-opacity:1;vector-effect:none;fill:#000000;fill-opacity:1;fill-rule:nonzero;stroke-width:1;stroke-linecap:butt;stroke-linejoin:miter;stroke-miterlimit:4;stroke-dasharray:none;stroke-dashoffset:0;stroke-opacity:1;color-rendering:auto;image-rendering:auto;shape-rendering:auto;text-rendering:auto;enable-background:accumulate;stop-color:#000000;stop-opacity:1;stroke:none;opacity:1"
     d="m 330.34,239.85 c -9.31,5.9 -19,11.14 -29.25,16.71 C 268.44,274.25 237.61,291 227.86,324 l -0.6,2 c 14.39722,6.58043 30.04022,9.99072 45.87,10 29.66,0 57.45,-11.13 78.24,-31.36 20.99514,-20.35705 32.77936,-48.39649 32.63,-77.64 -0.0751,-10.57714 -1.96586,-21.06284 -5.59,-31 -11.35,16.18 -27.14,30.58 -48.07,43.85 z M 268.72,360 h -25.44 c -1.90723,0.002 -3.54809,1.34938 -3.92,3.22 l -25.36,128 c -0.4916,2.47262 1.39898,4.77798 3.92,4.78 h 76.26 c 2.52102,-0.002 4.4116,-2.30738 3.92,-4.78 l -25.41,-128 c -0.37546,-1.88918 -2.044,-3.2425 -3.97,-3.22 z m 56.96,-5.68 -11.36,11.36 c -1.34981,1.34862 -1.55914,3.46287 -0.5,5.05 l 59.47,89.21 c 1.39996,2.10301 4.37477,2.3976 6.16,0.61 l 41.1,-41.1 c 1.7876,-1.78523 1.49301,-4.76004 -0.61,-6.16 l -89.21,-59.47 c -1.58713,-1.05914 -3.70138,-0.84981 -5.05,0.5 z M 388,336 c -2.20914,0 -4,1.79086 -4,4 v 8.61 c -0.002,1.95626 1.41055,3.62722 3.34,3.95 l 88,14.66 c 2.43679,0.40766 4.6568,-1.46935 4.66,-3.94 V 340 c 0,-2.20914 -1.79086,-4 -4,-4 z m -201.68,18.32 11.36,11.36 c 1.34981,1.34862 1.55914,3.46287 0.5,5.05 l -59.47,89.21 c -1.39996,2.10301 -4.37477,2.3976 -6.16,0.61 l -41.1,-41.1 c -1.787597,-1.78523 -1.493013,-4.76004 0.61,-6.16 l 89.21,-59.47 c 1.58713,-1.05914 3.70138,-0.84981 5.05,0.5 z M 124,336 H 36 c -2.209139,0 -4,1.79086 -4,4 v 23.28 c 0.0032,2.47065 2.223213,4.34766 4.66,3.94 l 88,-14.66 c 1.92945,-0.32278 3.34236,-1.99374 3.34,-3.95 V 340 c 0,-2.20914 -1.79086,-4 -4,-4 z"
     id="path6" />
</svg>
