<?xml version="1.0" encoding="UTF-8"?>
<svg width="512px" height="512px" viewBox="0 0 512 512" version="1.1" xmlns="http://www.w3.org/2000/svg" xmlns:xlink="http://www.w3.org/1999/xlink">
    <!-- Generator: Sketch 62 (91390) - https://sketch.com -->
    <title>Artboard</title>
    <desc>Created with Sketch.</desc>
    <g id="Artboard" stroke="none" stroke-width="1" fill="none" fill-rule="evenodd">
        <g id="book-outline" transform="translate(16.000000, 48.000000)" fill="#000000" fill-rule="nonzero">
            <path d="M32,0 C99.7,0.3 150.1,8.8 186.2,26.1 C209.9,37.4 227.7,52.5 240,71.6 C252.2,52.5 270.1,37.5 293.8,26.1 C329.9,8.8 380.4,0.3 448,0 L448.1,0 L448.1,0 C465.7,0 480,14.2 480,31.8 L480,320 C480,337.6 465.6,352 448,352 C317,352 276.6,379.9 252.5,410 C249.758756,413.472242 245.681616,415.608588 241.260376,415.951285 C241.254668,415.950921 241.248664,415.951391 241.24266,415.951858 C241.179851,415.957446 241.117273,415.961863 241.054631,415.96592 C240.993467,415.96939 240.932112,415.973077 240.870668,415.976414 C240.811877,415.979929 240.7529,415.982758 240.693869,415.985267 C240.6459,415.987106 240.597908,415.988964 240.549865,415.990607 C240.498811,415.992471 240.447731,415.99395 240.396614,415.995191 L240,416 L240,416 C239.816271,416 239.632964,415.996907 239.450147,415.990752 C239.402092,415.988964 239.3541,415.987106 239.306162,415.985035 C239.2471,415.982758 239.188123,415.979929 239.129201,415.976782 C239.067888,415.973077 239.006533,415.96939 238.94527,415.965354 C238.882727,415.961863 238.820149,415.957446 238.757641,415.952671 C238.751336,415.951391 238.745332,415.950921 238.739329,415.950448 C234.318384,415.608588 230.241244,413.472242 227.5,410 C186.8,359 109.5,352 32,352 C13.8,352 0,337.4 0,318.1 L0,32 C0,23.5 3.3,15.5 9.3,9.4 C15.3,3.3 23.3,0 31.8,0 L32,0 Z M32,32 L32,318.1 C32,319 32.2,319.6 32.3,320 C124.488821,320 183.656393,332.670945 224.002117,362.454352 L224,114.023 L223.916499,113.708115 C203.92142,42.00494 111.002,32.396 32,32 Z M448,32 C298.586939,32.6885395 266.340989,75.7546136 255.998669,113.99474 L255.998935,362.452466 C296.433118,332.601639 355.696117,320 448,320 L448,32 Z" id="Combined-Shape"></path>
        </g>
    </g>
</svg>