<?xml version="1.0" encoding="UTF-8" standalone="no"?>
<svg
   xmlns:dc="http://purl.org/dc/elements/1.1/"
   xmlns:cc="http://creativecommons.org/ns#"
   xmlns:rdf="http://www.w3.org/1999/02/22-rdf-syntax-ns#"
   xmlns:svg="http://www.w3.org/2000/svg"
   xmlns="http://www.w3.org/2000/svg"
   xmlns:sodipodi="http://sodipodi.sourceforge.net/DTD/sodipodi-0.dtd"
   xmlns:inkscape="http://www.inkscape.org/namespaces/inkscape"
   class="ionicon"
   viewBox="0 0 512 512"
   version="1.1"
   id="svg6"
   sodipodi:docname="book-outline.svg"
   inkscape:version="1.0.2 (e86c8708, 2021-01-15)">
  <metadata
     id="metadata12">
    <rdf:RDF>
      <cc:Work
         rdf:about="">
        <dc:format>image/svg+xml</dc:format>
        <dc:type
           rdf:resource="http://purl.org/dc/dcmitype/StillImage" />
      </cc:Work>
    </rdf:RDF>
  </metadata>
  <defs
     id="defs10" />
  <sodipodi:namedview
     pagecolor="#ffffff"
     bordercolor="#666666"
     borderopacity="1"
     objecttolerance="10"
     gridtolerance="10"
     guidetolerance="10"
     inkscape:pageopacity="0"
     inkscape:pageshadow="2"
     inkscape:window-width="689"
     inkscape:window-height="480"
     id="namedview8"
     showgrid="false"
     inkscape:zoom="1.3027344"
     inkscape:cx="256"
     inkscape:cy="256"
     inkscape:window-x="44"
     inkscape:window-y="25"
     inkscape:window-maximized="0"
     inkscape:current-layer="svg6" />
  <title
     id="title2">Book</title>
  <path
     style="color:#000000;font-style:normal;font-variant:normal;font-weight:normal;font-stretch:normal;font-size:medium;line-height:normal;font-family:sans-serif;font-variant-ligatures:normal;font-variant-position:normal;font-variant-caps:normal;font-variant-numeric:normal;font-variant-alternates:normal;font-variant-east-asian:normal;font-feature-settings:normal;font-variation-settings:normal;text-indent:0;text-align:start;text-decoration:none;text-decoration-line:none;text-decoration-style:solid;text-decoration-color:#000000;letter-spacing:normal;word-spacing:normal;text-transform:none;writing-mode:lr-tb;direction:ltr;text-orientation:mixed;dominant-baseline:auto;baseline-shift:baseline;text-anchor:start;white-space:normal;shape-padding:0;shape-margin:0;inline-size:0;clip-rule:nonzero;display:inline;overflow:visible;visibility:visible;isolation:auto;mix-blend-mode:normal;color-interpolation:sRGB;color-interpolation-filters:linearRGB;solid-color:#000000;solid-opacity:1;vector-effect:none;fill:currentColor;fill-opacity:1;fill-rule:nonzero;stroke:none;stroke-linecap:round;stroke-linejoin:round;stroke-miterlimit:4;stroke-dasharray:none;stroke-dashoffset:0;stroke-opacity:1;color-rendering:auto;image-rendering:auto;shape-rendering:auto;text-rendering:auto;enable-background:accumulate;stop-color:#000000;stop-opacity:1;opacity:1"
     d="M 48.060547 48 C 30.520561 47.933852 15.933852 62.520561 16 80.060547 L 16 366.07031 C 16 374.31396 18.525717 382.55067 24.113281 389.11328 C 29.700845 395.67589 38.714521 400 48 400 C 110.91667 400 153.64208 406.48295 183.33398 416.85547 C 213.00887 427.22204 229.84032 440.90285 243.47852 457.95898 A 16 16 0 0 0 243.48633 457.9707 C 243.49123 457.97684 243.49705 457.98215 243.50195 457.98828 A 16 16 0 0 0 243.69727 458.23047 A 16.0016 16.0016 0 0 0 243.71484 458.25 A 16 16 0 0 0 243.91602 458.48633 A 16.0016 16.0016 0 0 0 244.11914 458.7168 A 16 16 0 0 0 244.14453 458.74414 A 16.0016 16.0016 0 0 0 244.20898 458.81445 A 16 16 0 0 0 244.36719 458.98633 A 16.0016 16.0016 0 0 0 244.38477 459.00391 A 16 16 0 0 0 244.61523 459.24219 A 16.0016 16.0016 0 0 0 244.61914 459.24609 A 16 16 0 0 0 244.83984 459.46484 A 16.0016 16.0016 0 0 0 244.90234 459.52539 A 16 16 0 0 0 245.33203 459.92383 A 16 16 0 0 0 245.34375 459.93359 A 16.0016 16.0016 0 0 0 245.34961 459.93945 A 16 16 0 0 0 245.58398 460.14453 A 16.0016 16.0016 0 0 0 245.75586 460.28906 A 16 16 0 0 0 245.8418 460.36133 A 16.0016 16.0016 0 0 0 245.86133 460.37695 A 16 16 0 0 0 246.10742 460.57422 A 16.0016 16.0016 0 0 0 246.12305 460.58789 A 16 16 0 0 0 246.37109 460.77734 A 16.0016 16.0016 0 0 0 246.61328 460.95703 A 16 16 0 0 0 246.64648 460.98047 A 16.0016 16.0016 0 0 0 246.7168 461.03125 A 16 16 0 0 0 246.91602 461.17188 A 16.0016 16.0016 0 0 0 246.9375 461.18555 A 16 16 0 0 0 247.19531 461.35938 A 16.0016 16.0016 0 0 0 247.2168 461.37305 A 16 16 0 0 0 247.48242 461.54297 A 16.0016 16.0016 0 0 0 247.5 461.55469 A 16 16 0 0 0 247.76367 461.7168 A 16.0016 16.0016 0 0 0 247.78516 461.73047 A 16 16 0 0 0 248.05469 461.88672 A 16.0016 16.0016 0 0 0 248.23438 461.98828 A 16 16 0 0 0 248.34766 462.05078 A 16.0016 16.0016 0 0 0 248.37109 462.0625 A 16 16 0 0 0 248.64453 462.20898 A 16.0016 16.0016 0 0 0 248.66797 462.2207 A 16 16 0 0 0 248.96875 462.37109 A 16 16 0 0 0 249.24805 462.50586 A 16.0016 16.0016 0 0 0 249.27148 462.51562 A 16 16 0 0 0 249.55469 462.64453 A 16.0016 16.0016 0 0 0 249.57812 462.6543 A 16 16 0 0 0 250.51562 463.0293 A 16 16 0 0 0 250.83203 463.14258 A 16.0016 16.0016 0 0 0 250.83789 463.14453 A 16 16 0 0 0 251.47266 463.3457 A 16 16 0 0 0 251.79688 463.4375 A 16 16 0 0 0 252.7793 463.67188 A 16 16 0 0 0 253.08398 463.73242 A 16.0016 16.0016 0 0 0 253.10938 463.73633 A 16 16 0 0 0 253.74805 463.83984 A 16.0016 16.0016 0 0 0 253.85352 463.85352 A 16 16 0 0 0 254.10547 463.88672 A 16 16 0 0 0 254.41406 463.92188 A 16.0016 16.0016 0 0 0 254.44141 463.92383 A 16 16 0 0 0 255.44727 463.99023 A 16 16 0 0 0 255.75781 463.99805 A 16.0016 16.0016 0 0 0 255.7832 463.99805 A 16 16 0 0 0 256 464 A 16 16 0 0 0 256.11914 463.99805 A 16 16 0 0 0 256.45703 463.99219 A 16 16 0 0 0 257.12891 463.95898 A 16 16 0 0 0 257.46289 463.93164 A 16 16 0 0 0 257.77539 463.90039 A 16 16 0 0 0 257.79883 463.89844 A 16.0016 16.0016 0 0 0 257.83203 463.89453 A 16 16 0 0 0 258.13281 463.85547 A 16.0016 16.0016 0 0 0 258.3457 463.82617 A 16 16 0 0 0 258.38867 463.82031 A 16.0016 16.0016 0 0 0 258.57812 463.78906 A 16 16 0 0 0 258.79688 463.75195 A 16 16 0 0 0 259.11133 463.69336 A 16 16 0 0 0 259.12695 463.69141 A 16.0016 16.0016 0 0 0 259.15234 463.68555 A 16 16 0 0 0 259.45703 463.62109 A 16 16 0 0 0 259.7832 463.54492 A 16 16 0 0 0 260.10938 463.46289 A 16 16 0 0 0 260.41016 463.37891 A 16 16 0 0 0 260.43359 463.37305 A 16.0016 16.0016 0 0 0 260.46094 463.36523 A 16 16 0 0 0 260.75586 463.27539 A 16 16 0 0 0 261.07617 463.17188 A 16 16 0 0 0 261.38281 463.06641 A 16 16 0 0 0 261.39453 463.0625 A 16.0016 16.0016 0 0 0 261.42383 463.05273 A 16 16 0 0 0 261.69727 462.94922 A 16 16 0 0 0 261.70898 462.94531 A 16.0016 16.0016 0 0 0 261.91016 462.86719 A 16 16 0 0 0 262.02344 462.82227 A 16.0016 16.0016 0 0 0 262.22266 462.74023 A 16 16 0 0 0 262.33398 462.69336 A 16.0016 16.0016 0 0 0 262.40039 462.66406 A 16 16 0 0 0 262.64062 462.55664 A 16 16 0 0 0 262.90625 462.43359 A 16 16 0 0 0 262.94531 462.41406 A 16.0016 16.0016 0 0 0 263.13867 462.31836 A 16 16 0 0 0 263.24609 462.26367 A 16.0016 16.0016 0 0 0 263.4375 462.16602 A 16 16 0 0 0 263.54492 462.10938 A 16.0016 16.0016 0 0 0 263.73438 462.00586 A 16 16 0 0 0 263.83984 461.94727 A 16.0016 16.0016 0 0 0 264.02734 461.83984 A 16 16 0 0 0 264.13086 461.7793 A 16.0016 16.0016 0 0 0 264.31641 461.66797 A 16 16 0 0 0 264.32812 461.66016 A 16.0016 16.0016 0 0 0 264.59961 461.49023 A 16.0016 16.0016 0 0 0 264.60156 461.49023 A 16.0016 16.0016 0 0 0 264.83594 461.33789 A 16.0016 16.0016 0 0 0 264.88281 461.30664 A 16 16 0 0 0 264.98438 461.23828 A 16.0016 16.0016 0 0 0 265.01562 461.2168 A 16 16 0 0 0 265.25977 461.04688 A 16 16 0 0 0 265.50781 460.86719 A 16 16 0 0 0 265.5332 460.84961 A 16.0016 16.0016 0 0 0 265.70508 460.7207 A 16 16 0 0 0 265.80078 460.64648 A 16.0016 16.0016 0 0 0 265.83008 460.625 A 16 16 0 0 0 266.06445 460.4375 A 16.0016 16.0016 0 0 0 266.23047 460.30273 A 16 16 0 0 0 266.26758 460.27148 A 16.0016 16.0016 0 0 0 266.4668 460.10156 A 16.0016 16.0016 0 0 0 266.48633 460.08398 A 16 16 0 0 0 266.57812 460.00391 A 16.0016 16.0016 0 0 0 266.64844 459.93945 A 16 16 0 0 0 266.82812 459.7793 A 16.0016 16.0016 0 0 0 266.98633 459.63281 A 16 16 0 0 0 267.07422 459.54883 A 16.0016 16.0016 0 0 0 267.14062 459.48242 A 16 16 0 0 0 267.31445 459.3125 A 16.0016 16.0016 0 0 0 267.46484 459.16016 A 16 16 0 0 0 267.54883 459.07227 A 16 16 0 0 0 267.76367 458.84375 A 16 16 0 0 0 267.7793 458.82812 A 16.0016 16.0016 0 0 0 267.92383 458.66797 A 16 16 0 0 0 268.00391 458.57812 A 16.0016 16.0016 0 0 0 268.14453 458.41602 A 16.0016 16.0016 0 0 0 268.33594 458.18945 A 16.0016 16.0016 0 0 0 268.36133 458.1582 A 16 16 0 0 0 268.4375 458.06445 A 16.0016 16.0016 0 0 0 268.49414 457.99414 C 282.23692 440.81454 299.06282 427.13319 328.72656 416.78516 C 358.3903 406.43713 401.07542 400 464 400 C 481.4836 400 496 385.4836 496 368 L 496 80.060547 C 496.06615 62.520561 481.47944 47.933852 463.93945 48 A 16.0016 16.0016 0 0 0 463.92773 48 C 396.84647 48.300813 346.75579 56.425581 309.76367 74.099609 C 286.21776 85.349333 268.28841 101.09754 256 120.2168 C 243.71159 101.09754 225.78224 85.349333 202.23633 74.099609 C 165.24421 56.425581 115.15353 48.300813 48.072266 48 A 16.0016 16.0016 0 0 0 48.060547 48 z M 48 80.001953 C 112.44936 80.29723 158.33769 88.589759 188.44141 102.97266 C 217.94304 117.0679 232.83945 135.65001 240 162.30859 L 240 410.61133 C 227.33637 401.25415 212.26785 393.06508 193.88867 386.64453 C 159.24728 374.54297 113.26559 368.03366 48.402344 368.00586 C 48.317292 367.84944 48 367.44936 48 366.07031 L 48 80.001953 z M 464 80.001953 L 464 368 C 398.92458 368 352.88431 374.4678 318.18555 386.57227 C 299.77899 392.99329 284.69058 401.19924 272 410.5918 L 272 162.30859 C 279.16055 135.65001 294.05696 117.0679 323.55859 102.97266 C 353.66231 88.589759 399.55064 80.29723 464 80.001953 z "
     id="path4" />
</svg>
