<?xml version="1.0" encoding="utf-8"?>
<!-- Generator: Adobe Illustrator 24.0.0, SVG Export Plug-In . SVG Version: 6.00 Build 0)  -->
<svg version="1.1" id="Layer_1" xmlns="http://www.w3.org/2000/svg" xmlns:xlink="http://www.w3.org/1999/xlink" x="0px" y="0px"
	 viewBox="0 0 512 512" style="enable-background:new 0 0 512 512;" xml:space="preserve">
<title>ionicons-v5-h</title>
<g>
	<path d="M448,448c-3.6,0-7.1-1.2-10-3.5l-80-64l20-25l54,43.2V64c-0.1-17.6-14.4-31.9-32-32H176c-17.6,0.1-31.9,14.4-32,32v16h-32
		V64c0.1-35.2,28.8-63.9,64-64h224c35.2,0.1,63.9,28.8,64,64v368c0,6.2-3.5,11.8-9.1,14.4C452.7,447.5,450.4,448,448,448z"/>
</g>
<g>
	<path d="M368,512c-3.7,0-7.4-1.3-10.3-3.8L216,388.9L74.3,508.2c-4.8,4-11.4,4.9-17.1,2.3c-5.6-2.6-9.3-8.3-9.3-14.5V144
		c0.1-35.2,28.8-63.9,64-64h208c0,0,0,0,0,0c35.2,0.1,63.9,28.8,64,64v352c0,6.2-3.6,11.9-9.3,14.5C372.6,511.5,370.3,512,368,512z
		 M112,112c-17.6,0.1-31.9,14.4-32,32v317.6l125.7-105.8c6-5,14.7-5,20.6,0L352,461.6V144c-0.1-17.6-14.4-31.9-32-32H112z"/>
</g>
</svg>
