<?xml version="1.0" encoding="utf-8"?>
<!-- Generator: Adobe Illustrator 24.0.0, SVG Export Plug-In . SVG Version: 6.00 Build 0)  -->
<svg version="1.1" id="Layer_1" xmlns="http://www.w3.org/2000/svg" xmlns:xlink="http://www.w3.org/1999/xlink" x="0px" y="0px"
	 viewBox="0 0 512 512" style="enable-background:new 0 0 512 512;" xml:space="preserve">
<title>ionicons-v5-h</title>
<g>
	<path d="M400,480c-3.8,0-7.6-1.4-10.6-4L256,357.4L122.6,476c-4.7,4.2-11.4,5.2-17.2,2.6C99.7,476,96,470.3,96,464V96
		c0-35.3,28.7-64,64-64h192c35.3,0,64,28.7,64,64v368c0,6.3-3.7,12-9.4,14.6C404.5,479.5,402.2,480,400,480z M256,320
		c3.8,0,7.6,1.3,10.6,4L384,428.4V96c0-17.6-14.4-32-32-32H160c-17.6,0-32,14.4-32,32v332.4L245.4,324
		C248.4,321.3,252.2,320,256,320z"/>
</g>
</svg>
