<?xml version="1.0" encoding="UTF-8" standalone="no"?>
<svg
   xmlns:dc="http://purl.org/dc/elements/1.1/"
   xmlns:cc="http://creativecommons.org/ns#"
   xmlns:rdf="http://www.w3.org/1999/02/22-rdf-syntax-ns#"
   xmlns:svg="http://www.w3.org/2000/svg"
   xmlns="http://www.w3.org/2000/svg"
   xmlns:sodipodi="http://sodipodi.sourceforge.net/DTD/sodipodi-0.dtd"
   xmlns:inkscape="http://www.inkscape.org/namespaces/inkscape"
   class="ionicon"
   viewBox="0 0 512 512"
   version="1.1"
   id="svg16"
   sodipodi:docname="briefcase.svg"
   inkscape:version="1.0.2 (e86c8708, 2021-01-15)">
  <metadata
     id="metadata22">
    <rdf:RDF>
      <cc:Work
         rdf:about="">
        <dc:format>image/svg+xml</dc:format>
        <dc:type
           rdf:resource="http://purl.org/dc/dcmitype/StillImage" />
      </cc:Work>
    </rdf:RDF>
  </metadata>
  <defs
     id="defs20" />
  <sodipodi:namedview
     pagecolor="#ffffff"
     bordercolor="#666666"
     borderopacity="1"
     objecttolerance="10"
     gridtolerance="10"
     guidetolerance="10"
     inkscape:pageopacity="0"
     inkscape:pageshadow="2"
     inkscape:window-width="705"
     inkscape:window-height="480"
     id="namedview18"
     showgrid="false"
     inkscape:zoom="0.41986485"
     inkscape:cx="256"
     inkscape:cy="256"
     inkscape:window-x="255"
     inkscape:window-y="103"
     inkscape:window-maximized="0"
     inkscape:current-layer="svg16" />
  <title
     id="title10">Briefcase</title>
  <path
     d="M336 80H176a16 16 0 00-16 16v16h192V96a16 16 0 00-16-16z"
     fill="none"
     id="path12" />
  <path
     style="color:#000000;font-style:normal;font-variant:normal;font-weight:normal;font-stretch:normal;font-size:medium;line-height:normal;font-family:sans-serif;font-variant-ligatures:normal;font-variant-position:normal;font-variant-caps:normal;font-variant-numeric:normal;font-variant-alternates:normal;font-variant-east-asian:normal;font-feature-settings:normal;font-variation-settings:normal;text-indent:0;text-align:start;text-decoration:none;text-decoration-line:none;text-decoration-style:solid;text-decoration-color:#000000;letter-spacing:normal;word-spacing:normal;text-transform:none;writing-mode:lr-tb;direction:ltr;text-orientation:mixed;dominant-baseline:auto;baseline-shift:baseline;text-anchor:start;white-space:normal;shape-padding:0;shape-margin:0;inline-size:0;clip-rule:nonzero;display:inline;overflow:visible;visibility:visible;isolation:auto;mix-blend-mode:normal;color-interpolation:sRGB;color-interpolation-filters:linearRGB;solid-color:#000000;solid-opacity:1;vector-effect:none;fill:#000000;fill-opacity:1;fill-rule:nonzero;stroke-width:1;stroke-linecap:butt;stroke-linejoin:miter;stroke-miterlimit:4;stroke-dasharray:none;stroke-dashoffset:0;stroke-opacity:1;color-rendering:auto;image-rendering:auto;shape-rendering:auto;text-rendering:auto;enable-background:accumulate;stop-color:#000000;stop-opacity:1;stroke:none;opacity:1"
     d="m 496,176 c -0.0386,-35.33023 -28.66977,-63.96142 -64,-64 H 384 V 96 C 383.97244,69.501756 362.49824,48.027559 336,48 H 176 c -26.49824,0.02756 -47.97244,21.501756 -48,48 v 16 H 80 c -35.330232,0.0386 -63.961421,28.66977 -64,64 v 48 H 496 Z M 352,112 H 160 V 96 c 0,-8.836556 7.16344,-16 16,-16 h 160 c 8.83656,0 16,7.163444 16,16 z m -16,152 c 0,13.25483 -10.74517,24 -24,24 H 200 c -13.25483,0 -24,-10.74517 -24,-24 v -4 c 0,-2.20914 -1.79086,-4 -4,-4 H 16 v 144 c 0,35.34622 28.653776,64 64,64 h 352 c 35.34622,0 64,-28.65378 64,-64 V 256 H 340 c -2.20914,0 -4,1.79086 -4,4 z"
     id="path14" />
</svg>
