<?xml version="1.0" encoding="UTF-8"?>
<svg width="512px" height="512px" viewBox="0 0 512 512" version="1.1" xmlns="http://www.w3.org/2000/svg" xmlns:xlink="http://www.w3.org/1999/xlink">
    <!-- Generator: Sketch 62 (91390) - https://sketch.com -->
    <title>Artboard</title>
    <desc>Created with Sketch.</desc>
    <g id="Artboard" stroke="none" stroke-width="1" fill="none" fill-rule="evenodd">
        <g id="briefcase-outline" transform="translate(16.000000, 48.000000)" fill="#000000" fill-rule="nonzero">
            <path d="M320,0 C346.5,0 368,21.5 368,48 L368,64 L416,64 C451.3,64 480,92.7 480,128 L480,352 C480,387.3 451.3,416 416,416 L64,416 C28.7,416 0,387.3 0,352 L0,128 C0,92.7 28.7,64 64,64 L112,64 L112,48 C112,21.5 133.5,0 160,0 L320,0 Z M448,208 L320,208 L320,216 C320,229.2 309.2,240 296,240 L184,240 C170.8,240 160,229.2 160,216 L160,208 L32,208 L32,352 C32,369.6 46.4,384 64,384 L416,384 C433.6,384 448,369.6 448,352 L448,208 Z M416,96 L64,96 C46.4,96 32,110.4 32,128 L32,176 L448,176 L448,128 C448,110.4 433.6,96 416,96 Z M320,32 L160,32 C151.2,32 144,39.2 144,48 L144,64 L336,64 L336,48 C336,39.2 328.8,32 320,32 Z" id="Combined-Shape"></path>
        </g>
    </g>
</svg>