<?xml version="1.0" encoding="UTF-8"?>
<svg width="512px" height="512px" viewBox="0 0 512 512" version="1.1" xmlns="http://www.w3.org/2000/svg" xmlns:xlink="http://www.w3.org/1999/xlink">
    <!-- Generator: Sketch 62 (91390) - https://sketch.com -->
    <title>Artboard</title>
    <desc>Created with Sketch.</desc>
    <g id="Artboard" stroke="none" stroke-width="1" fill="none" fill-rule="evenodd">
        <g id="briefcase" transform="translate(16.000000, 48.000000)" fill="#000000" fill-rule="nonzero">
            <path d="M480,128 C479.961421,92.6697684 451.330232,64.0385792 416,64 L368,64 L368,48 C367.972441,21.5017558 346.498244,0.0275592986 320,0 L160,0 C133.501756,0.0275592986 112.027559,21.5017558 112,48 L112,64 L64,64 C28.6697684,64.0385792 0.0385791814,92.6697684 0,128 L0,176 L480,176 L480,128 Z M336,64 L144,64 L144,48 C144,39.163444 151.163444,32 160,32 L320,32 C328.836556,32 336,39.163444 336,48 L336,64 Z" id="Shape"></path>
            <path d="M320,216 C320,229.254834 309.254834,240 296,240 L184,240 C170.745166,240 160,229.254834 160,216 L160,212 C160,209.790861 158.209139,208 156,208 L0,208 L0,352 C0,387.346224 28.653776,416 64,416 L416,416 C451.346224,416 480,387.346224 480,352 L480,208 L324,208 C321.790861,208 320,209.790861 320,212 L320,216 Z" id="Path"></path>
        </g>
    </g>
</svg>