<?xml version="1.0" encoding="UTF-8"?>
<svg width="512px" height="512px" viewBox="0 0 512 512" version="1.1" xmlns="http://www.w3.org/2000/svg" xmlns:xlink="http://www.w3.org/1999/xlink">
    <!-- Generator: Sketch 62 (91390) - https://sketch.com -->
    <title>Artboard</title>
    <desc>Created with Sketch.</desc>
    <g id="Artboard" stroke="none" stroke-width="1" fill="none" fill-rule="evenodd">
        <g id="browsers-outline" transform="translate(32.000000, 48.000000)" fill="#000000" fill-rule="nonzero">
            <path d="M384,0 C419.3,0 448,28.7 448,64 L448,352 C448,387.3 419.3,416 384,416 L64,416 C28.7,416 0,387.3 0,352 L0,64 C0,28.7 28.7,0 64,0 L384,0 Z M384,96 L64,96 C48,96 32,112 32,128 L32,128 L32,352 C32,369.6 46.4,384 64,384 L384,384 C401.6,384 416,369.6 416,352 L416,128 C416,112 400,96 384,96 L384,96 Z" id="Combined-Shape"></path>
        </g>
    </g>
</svg>