<?xml version="1.0" encoding="utf-8"?>
<!-- Generator: Adobe Illustrator 24.0.0, SVG Export Plug-In . SVG Version: 6.00 Build 0)  -->
<svg version="1.1" id="Layer_1" xmlns="http://www.w3.org/2000/svg" xmlns:xlink="http://www.w3.org/1999/xlink" x="0px" y="0px"
	 viewBox="0 0 512 512" style="enable-background:new 0 0 512 512;" xml:space="preserve">
<title>ionicons-v5-h</title>
<g>
	<path d="M233.3,360c-1.6,0-3.3-0.3-4.9-0.8c-5.8-1.9-10.1-6.9-10.9-13c-2.1-15-19.9-32.5-36.6-35.8c-5.6-1.1-10.2-5.2-12-10.7
		s-0.5-11.4,3.3-15.7L383.2,48.9c0.2-0.2,0.4-0.4,0.6-0.6c22-22,57.9-22,79.9,0c0,0,0,0,0,0c22,22,22,57.7,0.1,79.8l-219,227
		C241.7,358.3,237.5,360,233.3,360z M211,288.6c11.1,6.7,20.8,16.1,27.7,26.7l202.2-209.6c0.1-0.1,0.1-0.1,0.2-0.2
		c9.5-9.5,9.5-25.1,0-34.6l0,0c-9.5-9.5-24.8-9.5-34.4-0.3L211,288.6z"/>
</g>
<g>
	<path d="M120,480c-32.1,0-65.4-16.9-84.8-43c-3.6-4.9-4.2-11.3-1.4-16.7c2.7-5.4,8.2-8.8,14.3-8.8c14,0,20-13.6,20-20.6
		c0-39.1,31.4-70.9,70-70.9s70,31.8,70,70.9C208,440,168.5,480,120,480z M77.4,433.9c12.5,8.9,27.8,14.1,42.6,14.1
		c30.9,0,56-25.6,56-57.1c0-21.4-17-38.9-38-38.9s-38,17.4-38,38.9c0,15.4-6.3,29.4-17.9,39.4C80.6,431.5,79,432.8,77.4,433.9z"/>
</g>
</svg>
