<?xml version="1.0" encoding="UTF-8" standalone="no"?>
<svg
   xmlns:dc="http://purl.org/dc/elements/1.1/"
   xmlns:cc="http://creativecommons.org/ns#"
   xmlns:rdf="http://www.w3.org/1999/02/22-rdf-syntax-ns#"
   xmlns:svg="http://www.w3.org/2000/svg"
   xmlns="http://www.w3.org/2000/svg"
   xmlns:sodipodi="http://sodipodi.sourceforge.net/DTD/sodipodi-0.dtd"
   xmlns:inkscape="http://www.inkscape.org/namespaces/inkscape"
   class="ionicon"
   viewBox="0 0 512 512"
   version="1.1"
   id="svg6"
   sodipodi:docname="brush-outline.svg"
   inkscape:version="1.0.2 (e86c8708, 2021-01-15)">
  <metadata
     id="metadata12">
    <rdf:RDF>
      <cc:Work
         rdf:about="">
        <dc:format>image/svg+xml</dc:format>
        <dc:type
           rdf:resource="http://purl.org/dc/dcmitype/StillImage" />
      </cc:Work>
    </rdf:RDF>
  </metadata>
  <defs
     id="defs10" />
  <sodipodi:namedview
     pagecolor="#ffffff"
     bordercolor="#666666"
     borderopacity="1"
     objecttolerance="10"
     gridtolerance="10"
     guidetolerance="10"
     inkscape:pageopacity="0"
     inkscape:pageshadow="2"
     inkscape:window-width="689"
     inkscape:window-height="480"
     id="namedview8"
     showgrid="false"
     inkscape:zoom="1.3027344"
     inkscape:cx="256"
     inkscape:cy="256"
     inkscape:window-x="44"
     inkscape:window-y="25"
     inkscape:window-maximized="0"
     inkscape:current-layer="svg6" />
  <title
     id="title2">Brush</title>
  <path
     style="color:#000000;font-style:normal;font-variant:normal;font-weight:normal;font-stretch:normal;font-size:medium;line-height:normal;font-family:sans-serif;font-variant-ligatures:normal;font-variant-position:normal;font-variant-caps:normal;font-variant-numeric:normal;font-variant-alternates:normal;font-variant-east-asian:normal;font-feature-settings:normal;font-variation-settings:normal;text-indent:0;text-align:start;text-decoration:none;text-decoration-line:none;text-decoration-style:solid;text-decoration-color:#000000;letter-spacing:normal;word-spacing:normal;text-transform:none;writing-mode:lr-tb;direction:ltr;text-orientation:mixed;dominant-baseline:auto;baseline-shift:baseline;text-anchor:start;white-space:normal;shape-padding:0;shape-margin:0;inline-size:0;clip-rule:nonzero;display:inline;overflow:visible;visibility:visible;isolation:auto;mix-blend-mode:normal;color-interpolation:sRGB;color-interpolation-filters:linearRGB;solid-color:#000000;solid-opacity:1;vector-effect:none;fill:currentColor;fill-opacity:1;fill-rule:nonzero;stroke:none;stroke-linecap:round;stroke-linejoin:round;stroke-miterlimit:4;stroke-dasharray:none;stroke-dashoffset:0;stroke-opacity:1;color-rendering:auto;image-rendering:auto;shape-rendering:auto;text-rendering:auto;enable-background:accumulate;stop-color:#000000;stop-opacity:1;opacity:1"
     d="M 423.74023 31.871094 C 409.25015 31.871094 394.76012 37.353739 383.79688 48.316406 A 16.0016 16.0016 0 0 0 383.20508 48.939453 L 172.0957 284.05078 A 16.0016 16.0016 0 0 0 180.80664 310.41797 C 188.45528 311.97553 197.74516 317.20136 204.83008 324.24219 C 211.915 331.28301 216.5187 339.94431 217.42188 346.26367 A 16.0016 16.0016 0 0 0 244.77539 355.10938 L 463.88477 128 L 463.68359 128.20312 C 485.60893 106.27664 485.60893 70.242895 463.68359 48.316406 C 452.72035 37.353739 438.23032 31.871094 423.74023 31.871094 z M 423.74023 63.671875 C 429.97407 63.671875 436.20773 66.094703 441.05664 70.943359 C 450.75395 80.641183 450.75395 95.878348 441.05664 105.57617 A 16.0016 16.0016 0 0 0 440.85547 105.78125 L 238.57617 315.44531 C 235.29947 310.47471 231.62095 305.7528 227.38672 301.54492 C 222.45018 296.6391 216.88115 292.34762 210.92383 288.70312 L 406.54688 70.841797 C 411.37899 66.069979 417.55599 63.671875 423.74023 63.671875 z M 138 320 C 99.373905 320 68 352.02507 68 390.85938 C 68 398.18469 65.3084 402.47318 61.203125 406.02344 C 57.09785 409.57369 51.108501 411.42969 48 411.42969 A 16.0016 16.0016 0 0 0 35.152344 436.9668 C 54.95988 463.65195 87.223728 480 120 480 C 168.55627 480 208 439.7742 208 390.85938 C 208 352.02507 176.6261 320 138 320 z M 138 352 C 159.1339 352 176 368.97368 176 390.85938 C 176 422.76455 151.00373 448 120 448 C 105.63807 448 90.160286 442.53087 77.443359 433.64062 C 79.020538 432.53277 80.636719 431.52572 82.136719 430.22852 C 92.251444 421.48127 100 407.48406 100 390.85938 C 100 368.97368 116.8661 352 138 352 z "
     id="path4" />
</svg>
