<?xml version="1.0" encoding="UTF-8"?>
<svg width="512px" height="512px" viewBox="0 0 512 512" version="1.1" xmlns="http://www.w3.org/2000/svg" xmlns:xlink="http://www.w3.org/1999/xlink">
    <!-- Generator: Sketch 62 (91390) - https://sketch.com -->
    <title>Artboard</title>
    <desc>Created with Sketch.</desc>
    <g id="Artboard" stroke="none" stroke-width="1" fill="none" fill-rule="evenodd">
        <g id="bug-outline" transform="translate(32.000000, 32.000000)" fill="#000000" fill-rule="nonzero">
            <path d="M224.2,0 C276.9,0.1 319.9,43.1 320,95.7 L320,96.4 L320,96.4 C319.919851,98.2167038 319.761189,100.02627 319.522107,101.822978 C336.999578,112.318406 350.009257,126.434843 358.127069,143.843496 C366.166723,128.171913 368,108.027502 368,80 C368,71.2 375.2,64 384,64 C392.8,64 400,71.2 400,80 C400,118.581614 397.419451,155.472522 367.747744,183.453849 C367.914995,186.219235 368,189.035006 368,191.9 L368,240.1 L432,240.1 C440.8,240.1 448,247.3 448,256.1 C448,264.9 440.8,272.1 432,272.1 L368,272.1 L368,288 C368,306.970562 364.312331,325.096272 357.61621,341.697912 C383.438649,364.797304 400,390.317993 400,432 C400,440.8 392.8,448 384,448 C375.2,448 368,440.8 368,432 C368,404.361379 358.898039,387.309436 341.835146,370.678646 C316.182763,407.135133 274.059687,431.204833 226.37751,431.98067 L224,432 L224,432 C175.342387,432 132.242823,407.739871 106.162246,370.680552 C89.1019608,387.309436 80,404.361379 80,432 C80,440.8 72.8,448 64,448 C55.2,448 48,440.8 48,432 C48,390.317993 64.5613507,364.797304 90.3846333,341.697851 C83.6876689,325.096272 80,306.970562 80,288 L80,272.1 L16,272.1 C7.2,272.1 0,264.9 0,256.1 C0,247.3 7.2,240.1 16,240.1 L80,240.1 L80,191.9 C80,188.413673 80.1436292,184.987968 80.4294464,181.625769 C50.5907276,153.717167 48,117.617935 48,80 C48,71.2 55.2,64 64,64 C72.8,64 80,71.2 80,80 C80,108.812467 81.9354363,128.543272 90.8405491,144.016894 C98.3417976,129.192307 109.666094,116.477559 124.6,106.3 C125.939832,105.380195 127.305671,104.483569 128.696946,103.610259 C128.332099,101.265194 128.099735,98.8936496 128,96.5 L128,95.7 L128,95.7 C128.1,43 171.1,0.1 223.7,0 L224.2,0 Z M224,111.9 C197.670491,111.9 173.966879,116.639423 155.451938,125.400691 C154.802137,125.776908 154.11713,126.111399 153.4,126.4 L153.388323,126.404617 C149.546554,128.325813 145.942307,130.426552 142.6,132.7 C122.3,146.6 112,166.5 112,191.9 L112,288 C112,305.492333 116.031334,322.398916 123.649047,337.668036 C124.074,338.360622 124.439186,339.075807 124.746517,339.806732 C129.968027,349.731334 136.728264,358.928264 144.9,367.1 C162.258901,384.458901 184.243975,395.448434 208.000508,398.860836 L208,160 C208,151.2 215.2,144 224,144 C232.8,144 240,151.2 240,160 L240.000492,398.860692 C263.756642,395.448126 285.741343,384.458657 303.1,367.1 C311.215788,358.984212 317.939338,349.85722 323.147226,340.010759 C323.489432,339.165813 323.909599,338.342745 324.407324,337.551555 C331.989041,322.313355 336,305.448072 336,288 L336,191.9 C336,164.2 326.1,144.3 305.6,130.9 C302.177629,128.654635 298.447039,126.599447 294.427825,124.739186 C294.296222,124.681967 294.16651,124.622399 294.037954,124.561337 C275.908307,116.263456 251.970599,111.9 224,111.9 Z M224.2,32 L223.8,32 C191.028283,32.0939018 163.811617,57.1414476 160.365625,89.0926126 C179.212986,83.0242854 200.679507,79.9 224,79.9 C247.912233,79.9 269.160904,82.6864948 287.505063,88.073862 C283.565618,56.6462521 256.682002,32.0928057 224.2,32 Z" id="Combined-Shape"></path>
        </g>
    </g>
</svg>