<?xml version="1.0" encoding="utf-8"?>
<!-- Generator: Adobe Illustrator 24.0.0, SVG Export Plug-In . SVG Version: 6.00 Build 0)  -->
<svg version="1.1" id="Layer_1" xmlns="http://www.w3.org/2000/svg" xmlns:xlink="http://www.w3.org/1999/xlink" x="0px" y="0px"
	 viewBox="0 0 512 512" style="enable-background:new 0 0 512 512;" xml:space="preserve">
<title>ionicons-v5-h</title>
<g>
	<path d="M96,480.2c-1.3,0-2.6,0-3.9-0.1c-17.1-1-32.8-8.7-44.2-21.5c-23.4-26.4-21-67,5.3-90.5l166.5-152c4.4-4.1,6.1-10.2,4.5-16
		c-14.9-52.9-5.7-100.8,25.3-131.5c35.8-35.5,92.8-46.6,138.7-26.9c2.1,0.9,4,2.2,5.5,3.8c3.2,3.3,4.8,7.6,4.8,12.1
		c-0.1,4.5-1.9,8.6-5,11.8l-60.1,60.1c-6.2,6.2-6.2,16.4,0,22.7l26.5,26.5c6.2,6.2,16.4,6.2,22.6,0l60.4-60.5
		c1.3-1.3,2.8-2.4,4.4-3.2c4-2,8.7-2.4,13-0.9c4.3,1.4,7.8,4.5,9.8,8.5l0.1,0.2c9.3,19.1,12,44.7,7.6,70.3
		c-4.7,27.2-17,51.7-34.5,69c-30.4,30-77.8,39.2-130.1,25.2c-5.7-1.5-11.7,0.2-15.7,4.6L143.9,458.7c-1.7,1.9-3.5,3.7-5.3,5.3
		C126.7,474.6,111.7,480.2,96,480.2z M340,64c-6.1,0-12.2,0.6-18.3,1.7c-19.3,3.6-36.4,12.4-49.7,25.6
		c-31.9,31.6-22.5,80.6-17,100.2c4.9,17.4-0.3,35.9-13.6,48.2l-0.1,0.1L74.6,392c-13.3,11.8-14.5,32.1-2.7,45.4
		c5.7,6.4,13.6,10.3,22.1,10.8c8.6,0.5,16.8-2.3,23.3-8c1-0.8,1.9-1.8,2.7-2.7l0.2-0.2l153.9-167c12.1-13.1,30.3-18.3,47.5-13.8
		c19.4,5.2,67.9,13.9,99.4-17.1c20.7-20.4,29.2-53.9,26.5-80.3l-42.3,42.3c-18.7,18.6-49.1,18.6-67.8,0l-26.6-26.6
		c-18.6-18.7-18.6-49.2,0-67.9l42-42C348.5,64.3,344.3,64,340,64z M393.9,190L393.9,190L393.9,190z M465.7,140.8L465.7,140.8
		C465.6,140.8,465.7,140.8,465.7,140.8z"/>
</g>
<g>
	<circle cx="96" cy="416" r="16"/>
</g>
</svg>
