<?xml version="1.0" encoding="UTF-8" standalone="no"?>
<svg
   xmlns:dc="http://purl.org/dc/elements/1.1/"
   xmlns:cc="http://creativecommons.org/ns#"
   xmlns:rdf="http://www.w3.org/1999/02/22-rdf-syntax-ns#"
   xmlns:svg="http://www.w3.org/2000/svg"
   xmlns="http://www.w3.org/2000/svg"
   xmlns:sodipodi="http://sodipodi.sourceforge.net/DTD/sodipodi-0.dtd"
   xmlns:inkscape="http://www.inkscape.org/namespaces/inkscape"
   class="ionicon"
   viewBox="0 0 512 512"
   version="1.1"
   id="svg8"
   sodipodi:docname="build-outline.svg"
   inkscape:version="1.0.2 (e86c8708, 2021-01-15)">
  <metadata
     id="metadata14">
    <rdf:RDF>
      <cc:Work
         rdf:about="">
        <dc:format>image/svg+xml</dc:format>
        <dc:type
           rdf:resource="http://purl.org/dc/dcmitype/StillImage" />
      </cc:Work>
    </rdf:RDF>
  </metadata>
  <defs
     id="defs12" />
  <sodipodi:namedview
     pagecolor="#ffffff"
     bordercolor="#666666"
     borderopacity="1"
     objecttolerance="10"
     gridtolerance="10"
     guidetolerance="10"
     inkscape:pageopacity="0"
     inkscape:pageshadow="2"
     inkscape:window-width="689"
     inkscape:window-height="480"
     id="namedview10"
     showgrid="false"
     inkscape:zoom="1.3027344"
     inkscape:cx="256"
     inkscape:cy="256"
     inkscape:window-x="44"
     inkscape:window-y="25"
     inkscape:window-maximized="0"
     inkscape:current-layer="svg8" />
  <title
     id="title2">Build</title>
  <path
     style="color:#000000;font-style:normal;font-variant:normal;font-weight:normal;font-stretch:normal;font-size:medium;line-height:normal;font-family:sans-serif;font-variant-ligatures:normal;font-variant-position:normal;font-variant-caps:normal;font-variant-numeric:normal;font-variant-alternates:normal;font-variant-east-asian:normal;font-feature-settings:normal;font-variation-settings:normal;text-indent:0;text-align:start;text-decoration:none;text-decoration-line:none;text-decoration-style:solid;text-decoration-color:#000000;letter-spacing:normal;word-spacing:normal;text-transform:none;writing-mode:lr-tb;direction:ltr;text-orientation:mixed;dominant-baseline:auto;baseline-shift:baseline;text-anchor:start;white-space:normal;shape-padding:0;shape-margin:0;inline-size:0;clip-rule:nonzero;display:inline;overflow:visible;visibility:visible;isolation:auto;mix-blend-mode:normal;color-interpolation:sRGB;color-interpolation-filters:linearRGB;solid-color:#000000;solid-opacity:1;vector-effect:none;fill:currentColor;fill-opacity:1;fill-rule:nonzero;stroke:none;stroke-linecap:round;stroke-linejoin:miter;stroke-miterlimit:10;stroke-dasharray:none;stroke-dashoffset:0;stroke-opacity:1;color-rendering:auto;image-rendering:auto;shape-rendering:auto;text-rendering:auto;enable-background:accumulate;stop-color:#000000;stop-opacity:1;opacity:1"
     d="M 343.41797 31.925781 C 309.53847 30.941361 274.88428 43.383453 249.50977 68.574219 C 213.45156 104.36123 212.07919 156.7785 224.25781 200.09961 L 224.25586 200.09766 C 225.88312 205.88849 224.15357 212.01686 219.73828 216.10156 C 219.73759 216.1022 219.73702 216.10288 219.73633 216.10352 L 53.384766 368.02734 C 25.90456 392.39206 24.612842 435.44878 50.582031 461.41797 C 76.551221 487.38716 119.60794 486.09544 143.97266 458.61523 L 143.76758 458.8418 L 297.58398 291.88867 C 301.61186 287.55149 307.6232 285.81353 313.34375 287.33203 C 313.34566 287.33254 313.34769 287.33152 313.34961 287.33203 C 356.29821 298.82812 407.84225 297.18433 443.41992 262.06641 C 462.60474 243.16451 473.58487 218.0435 477.91016 193.08594 C 482.23641 168.12278 480.20407 143.0715 470.31641 122.75 L 470.27539 122.66406 L 470.23242 122.58008 C 465.25 112.64165 450.90615 110.31073 443.0332 118.16016 L 443.02148 118.16992 L 382.5918 178.65039 C 376.18478 185.01632 366.31921 185.01872 359.9082 178.66016 C 359.9045 178.65648 359.90019 178.65407 359.89648 178.65039 L 333.39453 152.14648 C 327.02029 145.73789 327.02029 135.86172 333.39453 129.45312 L 393.50586 69.310547 L 393.2832 69.529297 C 401.64079 61.487933 398.84667 46.212365 388.18359 41.650391 C 374.05134 35.594181 358.81463 32.373154 343.41797 31.925781 z M 335.70703 64.287109 C 341.39256 64.017134 347.0422 64.290343 352.58203 64.990234 L 310.71875 106.87305 L 310.70508 106.88672 C 292.17786 125.51378 292.17786 156.08583 310.70508 174.71289 L 310.7207 174.72852 L 337.32422 201.33203 L 337.3418 201.34961 C 355.96891 219.85728 386.51937 219.85728 405.14648 201.34961 L 405.16797 201.33008 L 405.1875 201.30859 L 447.36328 159.09766 C 448.30314 167.97489 448.08504 177.78768 446.38086 187.62109 C 443.01711 207.03044 434.25033 226.18459 420.95312 239.28125 L 420.94727 239.28711 L 420.93945 239.29297 C 396.16501 263.74727 357.72531 266.08961 321.59961 256.41406 L 321.58594 256.41016 L 321.57031 256.40625 C 304.47016 251.86041 286.17747 257.14597 274.13672 270.11133 L 274.11523 270.13477 L 120.12891 437.27148 L 120.02734 437.38477 C 107.58587 451.41712 86.469765 452.0518 73.208984 438.79102 C 59.948204 425.53024 60.58288 404.41413 74.615234 391.97266 L 74.703125 391.89453 L 241.42578 239.63086 L 241.46289 239.59766 C 254.65652 227.39607 259.92412 208.74213 255.0625 191.44141 L 255.0625 191.43945 C 244.84112 155.08056 246.94899 116.2001 272.05078 91.287109 L 272.05273 91.285156 C 288.93484 74.524545 312.49679 65.38924 335.70703 64.287109 z "
     id="path4" />
  <path
     style="color:#000000;font-style:normal;font-variant:normal;font-weight:normal;font-stretch:normal;font-size:medium;line-height:normal;font-family:sans-serif;font-variant-ligatures:normal;font-variant-position:normal;font-variant-caps:normal;font-variant-numeric:normal;font-variant-alternates:normal;font-variant-east-asian:normal;font-feature-settings:normal;font-variation-settings:normal;text-indent:0;text-align:start;text-decoration:none;text-decoration-line:none;text-decoration-style:solid;text-decoration-color:#000000;letter-spacing:normal;word-spacing:normal;text-transform:none;writing-mode:lr-tb;direction:ltr;text-orientation:mixed;dominant-baseline:auto;baseline-shift:baseline;text-anchor:start;white-space:normal;shape-padding:0;shape-margin:0;inline-size:0;clip-rule:nonzero;display:inline;overflow:visible;visibility:visible;isolation:auto;mix-blend-mode:normal;color-interpolation:sRGB;color-interpolation-filters:linearRGB;solid-color:#000000;solid-opacity:1;vector-effect:none;fill:#000000;fill-opacity:1;fill-rule:nonzero;stroke-width:1;stroke-linecap:butt;stroke-linejoin:miter;stroke-miterlimit:4;stroke-dasharray:none;stroke-dashoffset:0;stroke-opacity:1;color-rendering:auto;image-rendering:auto;shape-rendering:auto;text-rendering:auto;enable-background:accumulate;stop-color:#000000;stop-opacity:1;stroke:none;opacity:1"
     d="m 112,416 c 0,8.83656 -7.16344,16 -16,16 -8.836556,0 -16,-7.16344 -16,-16 0,-8.83656 7.163444,-16 16,-16 8.83656,0 16,7.16344 16,16 z"
     id="circle6" />
</svg>
