<?xml version="1.0" encoding="UTF-8" standalone="no"?>
<svg
   xmlns:dc="http://purl.org/dc/elements/1.1/"
   xmlns:cc="http://creativecommons.org/ns#"
   xmlns:rdf="http://www.w3.org/1999/02/22-rdf-syntax-ns#"
   xmlns:svg="http://www.w3.org/2000/svg"
   xmlns="http://www.w3.org/2000/svg"
   xmlns:sodipodi="http://sodipodi.sourceforge.net/DTD/sodipodi-0.dtd"
   xmlns:inkscape="http://www.inkscape.org/namespaces/inkscape"
   class="ionicon"
   viewBox="0 0 512 512"
   version="1.1"
   id="svg6"
   sodipodi:docname="build.svg"
   inkscape:version="1.0.2 (e86c8708, 2021-01-15)">
  <metadata
     id="metadata12">
    <rdf:RDF>
      <cc:Work
         rdf:about="">
        <dc:format>image/svg+xml</dc:format>
        <dc:type
           rdf:resource="http://purl.org/dc/dcmitype/StillImage" />
      </cc:Work>
    </rdf:RDF>
  </metadata>
  <defs
     id="defs10" />
  <sodipodi:namedview
     pagecolor="#ffffff"
     bordercolor="#666666"
     borderopacity="1"
     objecttolerance="10"
     gridtolerance="10"
     guidetolerance="10"
     inkscape:pageopacity="0"
     inkscape:pageshadow="2"
     inkscape:window-width="689"
     inkscape:window-height="480"
     id="namedview8"
     showgrid="false"
     inkscape:zoom="1.3027344"
     inkscape:cx="256"
     inkscape:cy="256"
     inkscape:window-x="44"
     inkscape:window-y="25"
     inkscape:window-maximized="0"
     inkscape:current-layer="svg6" />
  <title
     id="title2">Build</title>
  <path
     style="color:#000000;font-style:normal;font-variant:normal;font-weight:normal;font-stretch:normal;font-size:medium;line-height:normal;font-family:sans-serif;font-variant-ligatures:normal;font-variant-position:normal;font-variant-caps:normal;font-variant-numeric:normal;font-variant-alternates:normal;font-variant-east-asian:normal;font-feature-settings:normal;font-variation-settings:normal;text-indent:0;text-align:start;text-decoration:none;text-decoration-line:none;text-decoration-style:solid;text-decoration-color:#000000;letter-spacing:normal;word-spacing:normal;text-transform:none;writing-mode:lr-tb;direction:ltr;text-orientation:mixed;dominant-baseline:auto;baseline-shift:baseline;text-anchor:start;white-space:normal;shape-padding:0;shape-margin:0;inline-size:0;clip-rule:nonzero;display:inline;overflow:visible;visibility:visible;isolation:auto;mix-blend-mode:normal;color-interpolation:sRGB;color-interpolation-filters:linearRGB;solid-color:#000000;solid-opacity:1;vector-effect:none;fill:#000000;fill-opacity:1;fill-rule:nonzero;stroke-width:1;stroke-linecap:butt;stroke-linejoin:miter;stroke-miterlimit:4;stroke-dasharray:none;stroke-dashoffset:0;stroke-opacity:1;color-rendering:auto;image-rendering:auto;shape-rendering:auto;text-rendering:auto;enable-background:accumulate;stop-color:#000000;stop-opacity:1;stroke:none;opacity:1"
     d="m 469.54,120.52 c -4.95849,-9.64321 -17.87067,-11.66548 -25.54,-4 L 382.56,178 c -6.27566,6.18465 -16.35434,6.18465 -22.63,0 l -26.56,-26.6 c -6.25011,-6.24868 -6.25011,-16.38132 0,-22.63 l 61.18,-61.19 c 7.92917,-7.928075 5.45551,-21.341739 -4.78,-25.92 C 343.56,21 285.88,31.78 249.51,67.88 c -30.9,30.68 -40.11,78.62 -25.25,131.53 1.63369,5.75332 -0.10151,11.93665 -4.49,16 L 53.29,367.46 C 25.915282,392.03851 24.767366,434.55317 50.775807,460.57309 76.784248,486.59302 119.29941,485.46387 143.89,458.1 L 297.57,291.25 c 4.00268,-4.32954 10.0726,-6.08855 15.77,-4.57 15.06346,4.12736 30.60165,6.26882 46.22,6.37 33.4,0 62.71,-10.81 83.85,-31.64 39.15,-38.57 45.12,-103.99 26.13,-140.89 z M 99.48,447.15 c -13.49744,1.47329 -26.455344,-5.73172 -32.325781,-17.97407 -5.870416,-12.2423 -3.375019,-26.85603 6.224033,-36.45847 9.599053,-9.60244 24.211905,-12.10299 36.456278,-6.2369 12.24442,5.86612 19.454,18.82148 17.98547,32.31944 -1.62424,14.92915 -13.41142,26.7205 -28.34,28.35 z"
     id="path4" />
</svg>
