<?xml version="1.0" encoding="utf-8"?>
<!-- Generator: Adobe Illustrator 24.0.0, SVG Export Plug-In . SVG Version: 6.00 Build 0)  -->
<svg version="1.1" id="Layer_1" xmlns="http://www.w3.org/2000/svg" xmlns:xlink="http://www.w3.org/1999/xlink" x="0px" y="0px"
	 viewBox="0 0 512 512" style="enable-background:new 0 0 512 512;" xml:space="preserve">
<title>ionicons-v5-h</title>
<g>
	<path d="M304,400c-8.8,0-16-7.2-16-16v-24c0-33.6,30.1-62.1,52.1-82.9c1.7-1.6,3.3-3.1,4.9-4.6C370.5,248,384,214.7,384,176
		c0-34.5-13.2-66.7-37.2-90.7C322.8,61.2,290.5,48,256,48c-0.1,0-0.2,0-0.4,0c-70.2,0-127.4,57-127.6,127.2v0.7
		c0,37.9,14.2,73,39,96.4c1.4,1.3,2.8,2.6,4.3,4c22.3,20.8,52.8,49.4,52.8,83.6v24c0,8.8-7.2,16-16,16s-16-7.2-16-16v-24
		c0-20.4-24.6-43.4-42.6-60.3c-1.5-1.4-2.9-2.8-4.4-4.1c-31.2-29.4-49-73-49-119.6v-0.9C96.2,87.3,167.8,16,255.6,16
		c0.2,0,0.3,0,0.5,0c43,0,83.3,16.6,113.4,46.7C399.5,92.8,416,133,416,176c0,47.6-16.9,89-48.9,119.6c-1.6,1.5-3.3,3.1-5,4.7
		C344.3,317.1,320,340.1,320,360v24C320,392.8,312.8,400,304,400z"/>
</g>
<g>
	<path d="M288,496h-64c-8.8,0-16-7.2-16-16s7.2-16,16-16h64c8.8,0,16,7.2,16,16S296.8,496,288,496z"/>
</g>
<g>
	<path d="M304,448h-96c-8.8,0-16-7.2-16-16s7.2-16,16-16h96c8.8,0,16,7.2,16,16S312.8,448,304,448z"/>
</g>
<g>
	<path d="M256,400c-8.8,0-16-7.2-16-16V256c0-8.8,7.2-16,16-16c8.8,0,16,7.2,16,16v128C272,392.8,264.8,400,256,400z"/>
</g>
<g>
	<path d="M256,272c-9.5,0-20.5-3.3-32.8-9.9c-8.2-4.4-14.1-8.8-14.8-9.3c-7.1-5.3-8.6-15.3-3.3-22.4c5.3-7.1,15.3-8.6,22.4-3.3
		c7,5.2,20.9,12.8,28.5,12.8c7.5,0,21.5-7.7,28.5-12.9c7.1-5.2,17.1-3.8,22.4,3.3c5.3,7.1,3.8,17.1-3.3,22.4
		C299.2,256,276.7,272,256,272z"/>
</g>
</svg>
