<?xml version="1.0" encoding="UTF-8" standalone="no"?>
<svg
   xmlns:dc="http://purl.org/dc/elements/1.1/"
   xmlns:cc="http://creativecommons.org/ns#"
   xmlns:rdf="http://www.w3.org/1999/02/22-rdf-syntax-ns#"
   xmlns:svg="http://www.w3.org/2000/svg"
   xmlns="http://www.w3.org/2000/svg"
   xmlns:sodipodi="http://sodipodi.sourceforge.net/DTD/sodipodi-0.dtd"
   xmlns:inkscape="http://www.inkscape.org/namespaces/inkscape"
   class="ionicon"
   viewBox="0 0 512 512"
   version="1.1"
   id="svg6"
   sodipodi:docname="bulb.svg"
   inkscape:version="1.0.2 (e86c8708, 2021-01-15)">
  <metadata
     id="metadata12">
    <rdf:RDF>
      <cc:Work
         rdf:about="">
        <dc:format>image/svg+xml</dc:format>
        <dc:type
           rdf:resource="http://purl.org/dc/dcmitype/StillImage" />
      </cc:Work>
    </rdf:RDF>
  </metadata>
  <defs
     id="defs10" />
  <sodipodi:namedview
     pagecolor="#ffffff"
     bordercolor="#666666"
     borderopacity="1"
     objecttolerance="10"
     gridtolerance="10"
     guidetolerance="10"
     inkscape:pageopacity="0"
     inkscape:pageshadow="2"
     inkscape:window-width="689"
     inkscape:window-height="480"
     id="namedview8"
     showgrid="false"
     inkscape:zoom="1.3027344"
     inkscape:cx="256"
     inkscape:cy="256"
     inkscape:window-x="44"
     inkscape:window-y="25"
     inkscape:window-maximized="0"
     inkscape:current-layer="svg6" />
  <title
     id="title2">Bulb</title>
  <path
     style="color:#000000;font-style:normal;font-variant:normal;font-weight:normal;font-stretch:normal;font-size:medium;line-height:normal;font-family:sans-serif;font-variant-ligatures:normal;font-variant-position:normal;font-variant-caps:normal;font-variant-numeric:normal;font-variant-alternates:normal;font-variant-east-asian:normal;font-feature-settings:normal;font-variation-settings:normal;text-indent:0;text-align:start;text-decoration:none;text-decoration-line:none;text-decoration-style:solid;text-decoration-color:#000000;letter-spacing:normal;word-spacing:normal;text-transform:none;writing-mode:lr-tb;direction:ltr;text-orientation:mixed;dominant-baseline:auto;baseline-shift:baseline;text-anchor:start;white-space:normal;shape-padding:0;shape-margin:0;inline-size:0;clip-rule:nonzero;display:inline;overflow:visible;visibility:visible;isolation:auto;mix-blend-mode:normal;color-interpolation:sRGB;color-interpolation-filters:linearRGB;solid-color:#000000;solid-opacity:1;vector-effect:none;fill:#000000;fill-opacity:1;fill-rule:nonzero;stroke-width:1;stroke-linecap:butt;stroke-linejoin:miter;stroke-miterlimit:4;stroke-dasharray:none;stroke-dashoffset:0;stroke-opacity:1;color-rendering:auto;image-rendering:auto;shape-rendering:auto;text-rendering:auto;enable-background:accumulate;stop-color:#000000;stop-opacity:1;stroke:none;opacity:1"
     d="m 288,464 h -64 c -8.83656,0 -15.99999,7.16344 -15.99999,16 0,8.83656 7.16343,16 15.99999,16 h 64 c 8.83656,0 15.99999,-7.16344 15.99999,-16 0,-8.83656 -7.16343,-16 -15.99999,-16 z m 16,-48 h -96 c -8.83656,0 -15.99999,7.16344 -15.99999,16 0,8.83656 7.16343,16 15.99999,16 h 96 c 8.83656,0 15.99999,-7.16344 15.99999,-16 0,-8.83656 -7.16343,-16 -15.99999,-16 z M 369.42,62.69 C 339.35,32.58 299.07,16 256,16 167.54726,15.789173 95.789173,87.54726 96,176 c 0,46.62 17.87,90.23 49,119.64 l 4.36,4.09 C 167.37,316.57 192,339.64 192,360 v 24 c 0,8.83656 7.16344,16 16,16 h 24 c 4.41828,0 8,-3.58172 8,-8 V 274.82 c 0.001,-3.31182 -2.03864,-6.28189 -5.13,-7.47 -9.23908,-3.76929 -18.01623,-8.58397 -26.16,-14.35 -7.72378,-4.93226 -9.73466,-15.33156 -4.40641,-22.78767 5.32825,-7.45611 15.81824,-8.92209 22.98641,-3.21233 7.4,5.24 21.65,13 28.71,13 7.06,0 21.31,-7.78 28.73,-13 7.17224,-4.50904 16.61608,-2.64576 21.53824,4.2495 4.92216,6.89527 3.6163,16.43218 -2.97824,21.7505 -8.14521,5.75559 -16.9223,10.56018 -26.16,14.32 -3.09136,1.18811 -5.13105,4.15818 -5.13,7.47 V 392 c 0,4.41828 3.58172,8 8,8 h 24 c 8.83656,0 16,-7.16344 16,-16 v -24 c 0,-19.88 24.36,-42.93 42.15,-59.77 l 4.91,-4.66 C 399.08,265 416,223.61 416,176 416.21395,133.52788 399.4434,92.732009 369.42,62.69 Z"
     id="path4" />
</svg>
