<?xml version="1.0" encoding="UTF-8" standalone="no"?>
<svg
   xmlns:dc="http://purl.org/dc/elements/1.1/"
   xmlns:cc="http://creativecommons.org/ns#"
   xmlns:rdf="http://www.w3.org/1999/02/22-rdf-syntax-ns#"
   xmlns:svg="http://www.w3.org/2000/svg"
   xmlns="http://www.w3.org/2000/svg"
   xmlns:sodipodi="http://sodipodi.sourceforge.net/DTD/sodipodi-0.dtd"
   xmlns:inkscape="http://www.inkscape.org/namespaces/inkscape"
   class="ionicon"
   viewBox="0 0 512 512"
   version="1.1"
   id="svg8"
   sodipodi:docname="bulb-outline.svg"
   inkscape:version="1.0.2 (e86c8708, 2021-01-15)">
  <metadata
     id="metadata14">
    <rdf:RDF>
      <cc:Work
         rdf:about="">
        <dc:format>image/svg+xml</dc:format>
        <dc:type
           rdf:resource="http://purl.org/dc/dcmitype/StillImage" />
      </cc:Work>
    </rdf:RDF>
  </metadata>
  <defs
     id="defs12" />
  <sodipodi:namedview
     pagecolor="#ffffff"
     bordercolor="#666666"
     borderopacity="1"
     objecttolerance="10"
     gridtolerance="10"
     guidetolerance="10"
     inkscape:pageopacity="0"
     inkscape:pageshadow="2"
     inkscape:window-width="689"
     inkscape:window-height="480"
     id="namedview10"
     showgrid="false"
     inkscape:zoom="1.3027344"
     inkscape:cx="256"
     inkscape:cy="256"
     inkscape:window-x="44"
     inkscape:window-y="25"
     inkscape:window-maximized="0"
     inkscape:current-layer="svg8" />
  <title
     id="title2">Bulb</title>
  <path
     style="color:#000000;font-style:normal;font-variant:normal;font-weight:normal;font-stretch:normal;font-size:medium;line-height:normal;font-family:sans-serif;font-variant-ligatures:normal;font-variant-position:normal;font-variant-caps:normal;font-variant-numeric:normal;font-variant-alternates:normal;font-variant-east-asian:normal;font-feature-settings:normal;font-variation-settings:normal;text-indent:0;text-align:start;text-decoration:none;text-decoration-line:none;text-decoration-style:solid;text-decoration-color:#000000;letter-spacing:normal;word-spacing:normal;text-transform:none;writing-mode:lr-tb;direction:ltr;text-orientation:mixed;dominant-baseline:auto;baseline-shift:baseline;text-anchor:start;white-space:normal;shape-padding:0;shape-margin:0;inline-size:0;clip-rule:nonzero;display:inline;overflow:visible;visibility:visible;isolation:auto;mix-blend-mode:normal;color-interpolation:sRGB;color-interpolation-filters:linearRGB;solid-color:#000000;solid-opacity:1;vector-effect:none;fill:currentColor;fill-opacity:1;fill-rule:nonzero;stroke:none;stroke-linecap:round;stroke-linejoin:round;stroke-miterlimit:4;stroke-dasharray:none;stroke-dashoffset:0;stroke-opacity:1;color-rendering:auto;image-rendering:auto;shape-rendering:auto;text-rendering:auto;enable-background:accumulate;stop-color:#000000;stop-opacity:1;opacity:1"
     d="M 256.02148 16.001953 C 167.74022 15.768654 95.767578 87.741929 96.001953 176.02344 C 96.007878 221.88543 113.24979 265.64751 145.01758 295.63477 C 155.43313 305.46684 167.84834 316.71923 177.1875 328.27344 C 186.52666 339.82765 192 351.11109 192 360 L 192 384 A 16 16 0 0 0 208 400 A 16 16 0 0 0 224 384 L 224 360 C 224 339.58891 213.64756 322.47649 202.07422 308.1582 C 190.50088 293.83991 176.91687 281.74316 166.98242 272.36523 C 142.37567 249.13765 128 213.80941 128 176 A 16.0016 16.0016 0 0 0 128 175.95508 C 127.80211 105.01282 185.01282 47.802113 255.95508 48 A 16.0016 16.0016 0 0 0 256 48 C 327.76537 48 384 104.49733 384 176 C 384 215.66318 370.63368 247.87457 344.94336 272.43359 A 16.0016 16.0016 0 0 0 344.94141 272.4375 C 334.98075 281.96487 321.42442 294.11819 309.88086 308.41016 C 298.3373 322.70212 288 339.69954 288 360 L 288 384 A 16 16 0 0 0 304 400 A 16 16 0 0 0 320 384 L 320 360 C 320 351.30046 325.43395 340.08311 334.77539 328.51758 C 344.11683 316.95204 356.55925 305.60513 367.05859 295.5625 C 399.0463 264.98178 416 223.11532 416 176 C 416 87.509916 344.78597 16.013666 256.02148 16.001953 z M 256 240 A 16 16 0 0 0 240 256 L 240 384 A 16 16 0 0 0 256 400 A 16 16 0 0 0 272 384 L 272 256 A 16 16 0 0 0 256 240 z M 208 416 A 16 16 0 0 0 192 432 A 16 16 0 0 0 208 448 L 304 448 A 16 16 0 0 0 320 432 A 16 16 0 0 0 304 416 L 208 416 z M 224 464 A 16 16 0 0 0 208 480 A 16 16 0 0 0 224 496 L 288 496 A 16 16 0 0 0 304 480 A 16 16 0 0 0 288 464 L 224 464 z "
     id="path4" />
  <path
     style="color:#000000;font-style:normal;font-variant:normal;font-weight:normal;font-stretch:normal;font-size:medium;line-height:normal;font-family:sans-serif;font-variant-ligatures:normal;font-variant-position:normal;font-variant-caps:normal;font-variant-numeric:normal;font-variant-alternates:normal;font-variant-east-asian:normal;font-feature-settings:normal;font-variation-settings:normal;text-indent:0;text-align:start;text-decoration:none;text-decoration-line:none;text-decoration-style:solid;text-decoration-color:#000000;letter-spacing:normal;word-spacing:normal;text-transform:none;writing-mode:lr-tb;direction:ltr;text-orientation:mixed;dominant-baseline:auto;baseline-shift:baseline;text-anchor:start;white-space:normal;shape-padding:0;shape-margin:0;inline-size:0;clip-rule:nonzero;display:inline;overflow:visible;visibility:visible;isolation:auto;mix-blend-mode:normal;color-interpolation:sRGB;color-interpolation-filters:linearRGB;solid-color:#000000;solid-opacity:1;vector-effect:none;fill:currentColor;fill-opacity:1;fill-rule:nonzero;stroke:none;stroke-linecap:round;stroke-linejoin:round;stroke-miterlimit:4;stroke-dasharray:none;stroke-dashoffset:0;stroke-opacity:1;color-rendering:auto;image-rendering:auto;shape-rendering:auto;text-rendering:auto;enable-background:accumulate;stop-color:#000000;stop-opacity:1;opacity:1"
     d="M 218.14258 224 A 16 16 0 0 0 205.16211 230.45117 A 16 16 0 0 0 208.45117 252.83789 C 208.45117 252.83789 214.71369 257.50791 223.23828 262.0918 C 231.76287 266.67568 242.58015 272 256 272 C 269.41985 272 280.23713 266.67568 288.76172 262.0918 C 297.28631 257.50791 303.54883 252.83789 303.54883 252.83789 A 16 16 0 0 0 306.83789 230.45117 A 16 16 0 0 0 284.45117 227.16211 C 284.45117 227.16211 279.95838 230.49209 273.60547 233.9082 C 267.25256 237.32432 259.07015 240 256 240 C 252.92985 240 244.74744 237.32432 238.39453 233.9082 C 232.04162 230.49209 227.54883 227.16211 227.54883 227.16211 A 16 16 0 0 0 218.14258 224 z "
     id="path6" />
</svg>
