<?xml version="1.0" encoding="UTF-8" standalone="no"?>
<svg
   xmlns:dc="http://purl.org/dc/elements/1.1/"
   xmlns:cc="http://creativecommons.org/ns#"
   xmlns:rdf="http://www.w3.org/1999/02/22-rdf-syntax-ns#"
   xmlns:svg="http://www.w3.org/2000/svg"
   xmlns="http://www.w3.org/2000/svg"
   xmlns:sodipodi="http://sodipodi.sourceforge.net/DTD/sodipodi-0.dtd"
   xmlns:inkscape="http://www.inkscape.org/namespaces/inkscape"
   class="ionicon"
   viewBox="0 0 512 512"
   version="1.1"
   id="svg16"
   sodipodi:docname="bus-sharp.svg"
   inkscape:version="1.0.2 (e86c8708, 2021-01-15)">
  <metadata
     id="metadata22">
    <rdf:RDF>
      <cc:Work
         rdf:about="">
        <dc:format>image/svg+xml</dc:format>
        <dc:type
           rdf:resource="http://purl.org/dc/dcmitype/StillImage" />
      </cc:Work>
    </rdf:RDF>
  </metadata>
  <defs
     id="defs20" />
  <sodipodi:namedview
     pagecolor="#ffffff"
     bordercolor="#666666"
     borderopacity="1"
     objecttolerance="10"
     gridtolerance="10"
     guidetolerance="10"
     inkscape:pageopacity="0"
     inkscape:pageshadow="2"
     inkscape:window-width="1179"
     inkscape:window-height="699"
     id="namedview18"
     showgrid="false"
     inkscape:zoom="0.59714111"
     inkscape:cx="256"
     inkscape:cy="256"
     inkscape:window-x="260"
     inkscape:window-y="126"
     inkscape:window-maximized="0"
     inkscape:current-layer="svg16" />
  <title
     id="title10">Bus</title>
  <path
     d="M400 64H112a16 16 0 000 32h288a16 16 0 000-32z"
     fill="none"
     id="path12" />
  <path
     style="color:#000000;font-style:normal;font-variant:normal;font-weight:normal;font-stretch:normal;font-size:medium;line-height:normal;font-family:sans-serif;font-variant-ligatures:normal;font-variant-position:normal;font-variant-caps:normal;font-variant-numeric:normal;font-variant-alternates:normal;font-variant-east-asian:normal;font-feature-settings:normal;font-variation-settings:normal;text-indent:0;text-align:start;text-decoration:none;text-decoration-line:none;text-decoration-style:solid;text-decoration-color:#000000;letter-spacing:normal;word-spacing:normal;text-transform:none;writing-mode:lr-tb;direction:ltr;text-orientation:mixed;dominant-baseline:auto;baseline-shift:baseline;text-anchor:start;white-space:normal;shape-padding:0;shape-margin:0;inline-size:0;clip-rule:nonzero;display:inline;overflow:visible;visibility:visible;isolation:auto;mix-blend-mode:normal;color-interpolation:sRGB;color-interpolation-filters:linearRGB;solid-color:#000000;solid-opacity:1;vector-effect:none;fill:#000000;fill-opacity:1;fill-rule:nonzero;stroke-width:1;stroke-linecap:butt;stroke-linejoin:miter;stroke-miterlimit:4;stroke-dasharray:none;stroke-dashoffset:0;stroke-opacity:1;color-rendering:auto;image-rendering:auto;shape-rendering:auto;text-rendering:auto;enable-background:accumulate;stop-color:#000000;stop-opacity:1;stroke:none;opacity:1"
     d="M 424,32 H 88 C 74.745166,32 64,42.745166 64,56 v 360 c 0.001,11.43149 6.100036,21.99425 16,27.71 V 480 h 72 v -32 h 208 v 32 h 72 v -36.29 c 9.89996,-5.71575 15.999,-16.27851 16,-27.71 V 56 C 448,42.745166 437.25483,32 424,32 Z M 175.82,371.47 c -2.92131,26.69655 -35.4422,38.13517 -54.43367,19.14909 -18.99146,-18.98608 -7.56205,-51.51022 19.13367,-54.43909 20.31833,-2.15751 37.45175,14.97106 35.3,35.29 z M 240,288 H 96 V 128 H 240 Z M 256,96 H 96.46 L 96,64 h 320 l -0.46,32 z m 16,32 H 416 V 288 H 272 Z m 64.18,236.53 c 2.92131,-26.69655 35.4422,-38.13517 54.43367,-19.14909 18.99146,18.98608 7.56205,51.51022 -19.13367,54.43909 -20.31833,2.15751 -37.45175,-14.97106 -35.3,-35.29 z"
     id="path14" />
</svg>
