<?xml version="1.0" encoding="UTF-8"?>
<svg width="512px" height="512px" viewBox="0 0 512 512" version="1.1" xmlns="http://www.w3.org/2000/svg" xmlns:xlink="http://www.w3.org/1999/xlink">
    <!-- Generator: Sketch 62 (91390) - https://sketch.com -->
    <title>Artboard</title>
    <desc>Created with Sketch.</desc>
    <g id="Artboard" stroke="none" stroke-width="1" fill="none" fill-rule="evenodd">
        <g id="bus-sharp" transform="translate(64.000000, 32.000000)" fill="#000000" fill-rule="nonzero">
            <path d="M360,0 L24,0 C10.745166,0 0,10.745166 0,24 L0,384 C0,395.431494 6.10003581,405.994253 16,411.71 L16,448 L88,448 L88,416 L296,416 L296,448 L368,448 L368,411.71 C377.899964,405.994253 384,395.431494 384,384 L384,24 C384,10.745166 373.254834,0 360,0 Z M111.82,339.47 C109.995742,356.141078 95.6101511,368.575697 78.8505683,367.968122 C62.0909855,367.360548 48.6435431,353.916915 48.0312199,337.157505 C47.4188966,320.398095 59.8494394,306.008981 76.52,304.18 C86.1578812,303.156598 95.7419851,306.543979 102.59628,313.396332 C109.450575,320.248685 112.840671,329.831829 111.82,339.47 Z M176,256 L32,256 L32,96 L176,96 L176,256 Z M192,64 L32.46,64 L32,32 L352,32 L351.54,64 L192,64 Z M208,96 L352,96 L352,256 L208,256 L208,96 Z M272.18,332.53 C274.004258,315.858922 288.389849,303.424303 305.149432,304.031878 C321.909014,304.639452 335.356457,318.083085 335.96878,334.842495 C336.581103,351.601905 324.150561,365.991019 307.48,367.82 C297.842119,368.843402 288.258015,365.456021 281.40372,358.603668 C274.549425,351.751315 271.159329,342.168171 272.18,332.53 Z" id="Shape"></path>
        </g>
    </g>
</svg>