<?xml version="1.0" encoding="utf-8"?>
<!-- Generator: Adobe Illustrator 24.0.0, SVG Export Plug-In . SVG Version: 6.00 Build 0)  -->
<svg version="1.1" id="Layer_1" xmlns="http://www.w3.org/2000/svg" xmlns:xlink="http://www.w3.org/1999/xlink" x="0px" y="0px"
	 viewBox="0 0 512 512" style="enable-background:new 0 0 512 512;" xml:space="preserve">
<title>ionicons-v5-h</title>
<g>
	<path d="M400,320H112c-26.5,0-48-21.5-48-48V144c0-26.5,21.5-48,48-48h288c26.5,0,48,21.5,48,48v128C448,298.5,426.5,320,400,320z
		 M112,128c-8.8,0-16,7.2-16,16v128c0,8.8,7.2,16,16,16h288c8.8,0,16-7.2,16-16V144c0-8.8-7.2-16-16-16H112z"/>
</g>
<g>
	<path d="M400,448H112c-26.5,0-48-21.5-48-48v-64c0-26.5,21.5-48,48-48h288c26.5,0,48,21.5,48,48v64C448,426.5,426.5,448,400,448z
		 M112,320c-8.8,0-16,7.2-16,16v64c0,8.8,7.2,16,16,16h288c8.8,0,16-7.2,16-16v-64c0-8.8-7.2-16-16-16H112z"/>
</g>
<g>
	<path d="M400,128H112c-26.4-0.1-47.9-21.6-48-48c0.1-26.5,21.6-48,48-48h288c26.4,0.1,47.9,21.6,48,48
		C447.9,106.4,426.4,127.9,400,128C400,128,400,128,400,128z M400,64H112c-8.8,0-16,7.2-16,16c0,8.7,7.2,15.9,16,16H400
		c8.8,0,16-7.2,16-16C416,71.2,408.8,64,400,64z"/>
</g>
<g>
	<path d="M134,480h-28c-14.3,0-26-11.7-26-26v-22c0-8.8,7.2-16,16-16h48c8.8,0,16,7.2,16,16v22C160,468.3,148.3,480,134,480z
		 M112,448h16H112z"/>
</g>
<g>
	<path d="M406,480h-28c-14.3,0-26-11.7-26-26v-22c0-8.8,7.2-16,16-16h48c8.8,0,16,7.2,16,16v22C432,468.3,420.3,480,406,480z
		 M384,448h16H384z"/>
</g>
<g>
	<path d="M368,400c-17.6,0-32-14.4-32-32s14.4-32,32-32s32,14.4,32,32S385.6,400,368,400z M368,368C368,368,368,368,368,368L368,368
		z"/>
</g>
<g>
	<path d="M144,400c-17.6,0-32-14.4-32-32s14.4-32,32-32s32,14.4,32,32S161.6,400,144,400z M144,368C144,368,144,368,144,368L144,368
		z"/>
</g>
<g>
	<path d="M256,320c-8.8,0-16-7.2-16-16V112c0-8.8,7.2-16,16-16c8.8,0,16,7.2,16,16v192C272,312.8,264.8,320,256,320z"/>
</g>
<g>
	<path d="M80,384c-8.8,0-16-7.2-16-16V80c0-8.8,7.2-16,16-16s16,7.2,16,16v288C96,376.8,88.8,384,80,384z"/>
</g>
<g>
	<path d="M432,384c-8.8,0-16-7.2-16-16V80c0-8.8,7.2-16,16-16s16,7.2,16,16v288C448,376.8,440.8,384,432,384z"/>
</g>
</svg>
