<?xml version="1.0" encoding="UTF-8" standalone="no"?>
<svg
   xmlns:dc="http://purl.org/dc/elements/1.1/"
   xmlns:cc="http://creativecommons.org/ns#"
   xmlns:rdf="http://www.w3.org/1999/02/22-rdf-syntax-ns#"
   xmlns:svg="http://www.w3.org/2000/svg"
   xmlns="http://www.w3.org/2000/svg"
   xmlns:sodipodi="http://sodipodi.sourceforge.net/DTD/sodipodi-0.dtd"
   xmlns:inkscape="http://www.inkscape.org/namespaces/inkscape"
   class="ionicon"
   viewBox="0 0 512 512"
   version="1.1"
   id="svg8"
   sodipodi:docname="business.svg"
   inkscape:version="1.0.2 (e86c8708, 2021-01-15)">
  <metadata
     id="metadata14">
    <rdf:RDF>
      <cc:Work
         rdf:about="">
        <dc:format>image/svg+xml</dc:format>
        <dc:type
           rdf:resource="http://purl.org/dc/dcmitype/StillImage" />
      </cc:Work>
    </rdf:RDF>
  </metadata>
  <defs
     id="defs12" />
  <sodipodi:namedview
     pagecolor="#ffffff"
     bordercolor="#666666"
     borderopacity="1"
     objecttolerance="10"
     gridtolerance="10"
     guidetolerance="10"
     inkscape:pageopacity="0"
     inkscape:pageshadow="2"
     inkscape:window-width="689"
     inkscape:window-height="480"
     id="namedview10"
     showgrid="false"
     inkscape:zoom="1.3027344"
     inkscape:cx="256"
     inkscape:cy="256"
     inkscape:window-x="44"
     inkscape:window-y="25"
     inkscape:window-maximized="0"
     inkscape:current-layer="svg8" />
  <title
     id="title2">Business</title>
  <path
     style="color:#000000;font-style:normal;font-variant:normal;font-weight:normal;font-stretch:normal;font-size:medium;line-height:normal;font-family:sans-serif;font-variant-ligatures:normal;font-variant-position:normal;font-variant-caps:normal;font-variant-numeric:normal;font-variant-alternates:normal;font-variant-east-asian:normal;font-feature-settings:normal;font-variation-settings:normal;text-indent:0;text-align:start;text-decoration:none;text-decoration-line:none;text-decoration-style:solid;text-decoration-color:#000000;letter-spacing:normal;word-spacing:normal;text-transform:none;writing-mode:lr-tb;direction:ltr;text-orientation:mixed;dominant-baseline:auto;baseline-shift:baseline;text-anchor:start;white-space:normal;shape-padding:0;shape-margin:0;inline-size:0;clip-rule:nonzero;display:inline;overflow:visible;visibility:visible;isolation:auto;mix-blend-mode:normal;color-interpolation:sRGB;color-interpolation-filters:linearRGB;solid-color:#000000;solid-opacity:1;vector-effect:none;fill:#000000;fill-opacity:1;fill-rule:nonzero;stroke-width:1;stroke-linecap:butt;stroke-linejoin:miter;stroke-miterlimit:4;stroke-dasharray:none;stroke-dashoffset:0;stroke-opacity:1;color-rendering:auto;image-rendering:auto;shape-rendering:auto;text-rendering:auto;enable-background:accumulate;stop-color:#000000;stop-opacity:1;stroke:none;opacity:1"
     d="M 432,176 H 320 V 64 C 320,37.490332 298.50967,16 272,16 H 80 C 53.490332,16 32,37.490332 32,64 v 416 c 0,8.83656 7.163444,16 16,16 h 104 c 4.41828,0 8,-3.58172 8,-8 v -71.55 c 0,-8.61 6.62,-16 15.23,-16.43 9.12773,-0.43978 16.76917,6.84168 16.77,15.98 v 72 c 0,4.41828 3.58172,8 8,8 h 264 c 8.83656,0 16,-7.16344 16,-16 V 224 c 0,-26.50967 -21.49033,-48 -48,-48 z M 98.08,431.87 C 82.926533,433.85185 73.888872,415.49607 84.692471,404.69247 95.49607,393.88887 113.85185,402.92653 111.87,418.08 c -0.94042,7.1906 -6.5994,12.84958 -13.79,13.79 z m 0,-80 C 82.926533,353.85185 73.888872,335.49607 84.692471,324.69247 95.49607,313.88887 113.85185,322.92653 111.87,338.08 c -0.94042,7.1906 -6.5994,12.84958 -13.79,13.79 z m 0,-80 C 82.926533,273.85185 73.888872,255.49607 84.692471,244.69247 95.49607,233.88887 113.85185,242.92653 111.87,258.08 c -0.94042,7.1906 -6.5994,12.84958 -13.79,13.79 z m 0,-80 C 82.926533,193.85185 73.888872,175.49607 84.692471,164.69247 95.49607,153.88887 113.85185,162.92653 111.87,178.08 c -0.94042,7.1906 -6.5994,12.84958 -13.79,13.79 z m 0,-80 C 82.926533,113.85185 73.888872,95.49607 84.692471,84.692471 95.49607,73.888872 113.85185,82.926533 111.87,98.08 c -0.94042,7.1906 -6.5994,12.84958 -13.79,13.79 z m 80,240 c -15.15347,1.98185 -24.19113,-16.37393 -13.38753,-27.17753 10.8036,-10.8036 29.15938,-1.76594 27.17753,13.38753 -0.94042,7.1906 -6.5994,12.84958 -13.79,13.79 z m 0,-80 c -15.15347,1.98185 -24.19113,-16.37393 -13.38753,-27.17753 10.8036,-10.8036 29.15938,-1.76594 27.17753,13.38753 -0.94042,7.1906 -6.5994,12.84958 -13.79,13.79 z m 0,-80 c -15.15347,1.98185 -24.19113,-16.37393 -13.38753,-27.17753 10.8036,-10.8036 29.15938,-1.76594 27.17753,13.38753 -0.94042,7.1906 -6.5994,12.84958 -13.79,13.79 z m 0,-80 C 162.92653,113.85185 153.88887,95.49607 164.69247,84.692471 175.49607,73.888872 193.85185,82.926533 191.87,98.08 c -0.94042,7.1906 -6.5994,12.84958 -13.79,13.79 z m 80,320 c -15.15347,1.98185 -24.19113,-16.37393 -13.38753,-27.17753 10.8036,-10.8036 29.15938,-1.76594 27.17753,13.38753 -0.94042,7.1906 -6.5994,12.84958 -13.79,13.79 z m 0,-80 c -15.15347,1.98185 -24.19113,-16.37393 -13.38753,-27.17753 10.8036,-10.8036 29.15938,-1.76594 27.17753,13.38753 -0.94042,7.1906 -6.5994,12.84958 -13.79,13.79 z m 0,-80 c -15.15347,1.98185 -24.19113,-16.37393 -13.38753,-27.17753 10.8036,-10.8036 29.15938,-1.76594 27.17753,13.38753 -0.94042,7.1906 -6.5994,12.84958 -13.79,13.79 z m 0,-80 c -15.15347,1.98185 -24.19113,-16.37393 -13.38753,-27.17753 10.8036,-10.8036 29.15938,-1.76594 27.17753,13.38753 -0.94042,7.1906 -6.5994,12.84958 -13.79,13.79 z m 0,-80 C 242.92653,113.85185 233.88887,95.49607 244.69247,84.692471 255.49607,73.888872 273.85185,82.926533 271.87,98.08 c -0.94042,7.1906 -6.5994,12.84958 -13.79,13.79 z M 444,464 H 320 V 208 h 112 c 8.83656,0 16,7.16344 16,16 v 236 c 0,2.20914 -1.79086,4 -4,4 z"
     id="path4" />
  <path
     style="color:#000000;font-style:normal;font-variant:normal;font-weight:normal;font-stretch:normal;font-size:medium;line-height:normal;font-family:sans-serif;font-variant-ligatures:normal;font-variant-position:normal;font-variant-caps:normal;font-variant-numeric:normal;font-variant-alternates:normal;font-variant-east-asian:normal;font-feature-settings:normal;font-variation-settings:normal;text-indent:0;text-align:start;text-decoration:none;text-decoration-line:none;text-decoration-style:solid;text-decoration-color:#000000;letter-spacing:normal;word-spacing:normal;text-transform:none;writing-mode:lr-tb;direction:ltr;text-orientation:mixed;dominant-baseline:auto;baseline-shift:baseline;text-anchor:start;white-space:normal;shape-padding:0;shape-margin:0;inline-size:0;clip-rule:nonzero;display:inline;overflow:visible;visibility:visible;isolation:auto;mix-blend-mode:normal;color-interpolation:sRGB;color-interpolation-filters:linearRGB;solid-color:#000000;solid-opacity:1;vector-effect:none;fill:#000000;fill-opacity:1;fill-rule:nonzero;stroke-width:1;stroke-linecap:butt;stroke-linejoin:miter;stroke-miterlimit:4;stroke-dasharray:none;stroke-dashoffset:0;stroke-opacity:1;color-rendering:auto;image-rendering:auto;shape-rendering:auto;text-rendering:auto;enable-background:accumulate;stop-color:#000000;stop-opacity:1;stroke:none;opacity:1"
     d="m 400,400 c -14.25547,0 -21.39205,17.23422 -11.31313,27.31313 C 398.76578,437.39205 416,430.25547 416,416 c 0,-8.83656 -7.16344,-16 -16,-16 z m 0,-80 c -14.25547,0 -21.39205,17.23422 -11.31313,27.31313 C 398.76578,357.39205 416,350.25547 416,336 c 0,-8.83656 -7.16344,-16 -16,-16 z m 0,-80 c -14.25547,0 -21.39205,17.23422 -11.31313,27.31313 C 398.76578,277.39205 416,270.25547 416,256 c 0,-8.83656 -7.16344,-16 -16,-16 z m -64,160 c -14.25547,0 -21.39205,17.23422 -11.31313,27.31313 C 334.76578,437.39205 352,430.25547 352,416 c 0,-8.83656 -7.16344,-16 -16,-16 z m 0,-80 c -14.25547,0 -21.39205,17.23422 -11.31313,27.31313 C 334.76578,357.39205 352,350.25547 352,336 c 0,-8.83656 -7.16344,-16 -16,-16 z m 0,-80 c -14.25547,0 -21.39205,17.23422 -11.31313,27.31313 C 334.76578,277.39205 352,270.25547 352,256 c 0,-8.83656 -7.16344,-16 -16,-16 z"
     id="path6" />
</svg>
