<?xml version="1.0" encoding="utf-8"?>
<!-- Generator: Adobe Illustrator 24.0.0, SVG Export Plug-In . SVG Version: 6.00 Build 0)  -->
<svg version="1.1" id="Layer_1" xmlns="http://www.w3.org/2000/svg" xmlns:xlink="http://www.w3.org/1999/xlink" x="0px" y="0px"
	 viewBox="0 0 512 512" style="enable-background:new 0 0 512 512;" xml:space="preserve">
<title>ionicons-v5-d</title>
<g>
	<path d="M368,480H144c-26.5,0-48-21.5-48-48V80c0-26.5,21.5-48,48-48h224c26.5,0,48,21.5,48,48v352C416,458.5,394.5,480,368,480z
		 M144,64c-8.8,0-16,7.2-16,16v352c0,8.8,7.2,16,16,16h224c8.8,0,16-7.2,16-16V80c0-8.8-7.2-16-16-16H144z"/>
</g>
<g>
	<path d="M352,192H160c-8.8,0-16-7.2-16-16v-64c0-8.8,7.2-16,16-16h192c8.8,0,16,7.2,16,16v64C368,184.8,360.8,192,352,192z
		 M176,160h160v-32H176V160z"/>
</g>
<g>
	<circle cx="168" cy="248" r="24"/>
</g>
<g>
	<circle cx="256" cy="248" r="24"/>
</g>
<g>
	<circle cx="344" cy="248" r="24"/>
</g>
<g>
	<circle cx="168" cy="328" r="24"/>
</g>
<g>
	<circle cx="256" cy="328" r="24"/>
</g>
<g>
	<circle cx="168" cy="408" r="24"/>
</g>
<g>
	<circle cx="256" cy="408" r="24"/>
</g>
<g>
	<path d="M344,304L344,304c13.3,0,24,10.7,24,24v80c0,13.3-10.7,24-24,24l0,0c-13.3,0-24-10.7-24-24v-80
		C320,314.7,330.7,304,344,304z"/>
</g>
</svg>
