<?xml version="1.0" encoding="UTF-8" standalone="no"?>
<svg
   xmlns:dc="http://purl.org/dc/elements/1.1/"
   xmlns:cc="http://creativecommons.org/ns#"
   xmlns:rdf="http://www.w3.org/1999/02/22-rdf-syntax-ns#"
   xmlns:svg="http://www.w3.org/2000/svg"
   xmlns="http://www.w3.org/2000/svg"
   xmlns:sodipodi="http://sodipodi.sourceforge.net/DTD/sodipodi-0.dtd"
   xmlns:inkscape="http://www.inkscape.org/namespaces/inkscape"
   class="ionicon"
   viewBox="0 0 512 512"
   version="1.1"
   id="svg6"
   sodipodi:docname="calendar-number-sharp.svg"
   inkscape:version="1.0.2 (e86c8708, 2021-01-15)">
  <metadata
     id="metadata12">
    <rdf:RDF>
      <cc:Work
         rdf:about="">
        <dc:format>image/svg+xml</dc:format>
        <dc:type
           rdf:resource="http://purl.org/dc/dcmitype/StillImage" />
      </cc:Work>
    </rdf:RDF>
  </metadata>
  <defs
     id="defs10" />
  <sodipodi:namedview
     pagecolor="#ffffff"
     bordercolor="#666666"
     borderopacity="1"
     objecttolerance="10"
     gridtolerance="10"
     guidetolerance="10"
     inkscape:pageopacity="0"
     inkscape:pageshadow="2"
     inkscape:window-width="689"
     inkscape:window-height="480"
     id="namedview8"
     showgrid="false"
     inkscape:zoom="1.3027344"
     inkscape:cx="256"
     inkscape:cy="256"
     inkscape:window-x="44"
     inkscape:window-y="25"
     inkscape:window-maximized="0"
     inkscape:current-layer="svg6" />
  <title
     id="title2">Calendar Number</title>
  <path
     style="color:#000000;font-style:normal;font-variant:normal;font-weight:normal;font-stretch:normal;font-size:medium;line-height:normal;font-family:sans-serif;font-variant-ligatures:normal;font-variant-position:normal;font-variant-caps:normal;font-variant-numeric:normal;font-variant-alternates:normal;font-variant-east-asian:normal;font-feature-settings:normal;font-variation-settings:normal;text-indent:0;text-align:start;text-decoration:none;text-decoration-line:none;text-decoration-style:solid;text-decoration-color:#000000;letter-spacing:normal;word-spacing:normal;text-transform:none;writing-mode:lr-tb;direction:ltr;text-orientation:mixed;dominant-baseline:auto;baseline-shift:baseline;text-anchor:start;white-space:normal;shape-padding:0;shape-margin:0;inline-size:0;clip-rule:nonzero;display:inline;overflow:visible;visibility:visible;isolation:auto;mix-blend-mode:normal;color-interpolation:sRGB;color-interpolation-filters:linearRGB;solid-color:#000000;solid-opacity:1;vector-effect:none;fill:#000000;fill-opacity:1;fill-rule:nonzero;stroke-width:1;stroke-linecap:butt;stroke-linejoin:miter;stroke-miterlimit:4;stroke-dasharray:none;stroke-dashoffset:0;stroke-opacity:1;color-rendering:auto;image-rendering:auto;shape-rendering:auto;text-rendering:auto;enable-background:accumulate;stop-color:#000000;stop-opacity:1;stroke:none;opacity:1"
     d="m 32,456 c 0,13.25483 10.745166,24 24,24 h 400 c 13.25483,0 24,-10.74517 24,-24 V 176 H 32 Z M 342.17,212 H 368 V 412 H 336 V 256.29 l -35.39,26.08 -19,-25.76 z M 222,335.3 c -8.54,-8.74 -22.75,-12.67 -30.11,-12.67 h -16 v -32 h 16 c 4.85,0 17.41,-2.6 25.28,-10.65 4.3029,-4.23193 6.67831,-10.04573 6.57,-16.08 0,-23.23 -28.63,-23.9 -31.89,-23.9 -17.34,0 -23.8,10.61 -24.07,11.06 l -8.13,13.78 -27.56,-16.27 8.14,-13.77 c 7.64,-13 25.22,-26.8 51.62,-26.8 16.44,0 31.76,4.77 43.13,13.42 13.39,10.2 20.76,25.28 20.76,42.48 0.0911,14.4029 -5.57549,28.24536 -15.74,38.45 -1.15,1.18 -2.36,2.28 -3.59,3.35 3.00415,2.17 5.82071,4.5885 8.42,7.23 10.56,10.8 16.14,25.75 16.14,43.25 0,18.06 -7.61,34 -21.42,44.92 -12.17,9.61 -28.75,14.9 -46.7,14.9 -27.87,0 -48.48,-18.16 -57.66,-33.7 l -8.13,-13.78 27.56,-16.27 8.16,13.75 c 1.08,1.84 11.15,18 30.1,18 16.66,0 36.12,-7.29 36.12,-27.82 0,-6.25 -1.22,-14.95 -7,-20.88 z M 456,64 H 400.08 V 32 h -48 V 64 H 159.92 V 32 h -48 V 64 H 56 C 42.789315,63.888972 32.016186,74.558858 32,87.77 V 144 H 480 V 87.77 C 479.98381,74.558858 469.21069,63.888972 456,64 Z"
     id="path4" />
</svg>
