<?xml version="1.0" encoding="UTF-8" standalone="no"?>
<svg
   xmlns:dc="http://purl.org/dc/elements/1.1/"
   xmlns:cc="http://creativecommons.org/ns#"
   xmlns:rdf="http://www.w3.org/1999/02/22-rdf-syntax-ns#"
   xmlns:svg="http://www.w3.org/2000/svg"
   xmlns="http://www.w3.org/2000/svg"
   xmlns:sodipodi="http://sodipodi.sourceforge.net/DTD/sodipodi-0.dtd"
   xmlns:inkscape="http://www.inkscape.org/namespaces/inkscape"
   class="ionicon"
   viewBox="0 0 512 512"
   version="1.1"
   id="svg6"
   sodipodi:docname="calendar-number.svg"
   inkscape:version="1.0.2 (e86c8708, 2021-01-15)">
  <metadata
     id="metadata12">
    <rdf:RDF>
      <cc:Work
         rdf:about="">
        <dc:format>image/svg+xml</dc:format>
        <dc:type
           rdf:resource="http://purl.org/dc/dcmitype/StillImage" />
      </cc:Work>
    </rdf:RDF>
  </metadata>
  <defs
     id="defs10" />
  <sodipodi:namedview
     pagecolor="#ffffff"
     bordercolor="#666666"
     borderopacity="1"
     objecttolerance="10"
     gridtolerance="10"
     guidetolerance="10"
     inkscape:pageopacity="0"
     inkscape:pageshadow="2"
     inkscape:window-width="689"
     inkscape:window-height="480"
     id="namedview8"
     showgrid="false"
     inkscape:zoom="1.3027344"
     inkscape:cx="256"
     inkscape:cy="256"
     inkscape:window-x="44"
     inkscape:window-y="25"
     inkscape:window-maximized="0"
     inkscape:current-layer="svg6" />
  <title
     id="title2">Calendar Number</title>
  <path
     style="color:#000000;font-style:normal;font-variant:normal;font-weight:normal;font-stretch:normal;font-size:medium;line-height:normal;font-family:sans-serif;font-variant-ligatures:normal;font-variant-position:normal;font-variant-caps:normal;font-variant-numeric:normal;font-variant-alternates:normal;font-variant-east-asian:normal;font-feature-settings:normal;font-variation-settings:normal;text-indent:0;text-align:start;text-decoration:none;text-decoration-line:none;text-decoration-style:solid;text-decoration-color:#000000;letter-spacing:normal;word-spacing:normal;text-transform:none;writing-mode:lr-tb;direction:ltr;text-orientation:mixed;dominant-baseline:auto;baseline-shift:baseline;text-anchor:start;white-space:normal;shape-padding:0;shape-margin:0;inline-size:0;clip-rule:nonzero;display:inline;overflow:visible;visibility:visible;isolation:auto;mix-blend-mode:normal;color-interpolation:sRGB;color-interpolation-filters:linearRGB;solid-color:#000000;solid-opacity:1;vector-effect:none;fill:#000000;fill-opacity:1;fill-rule:nonzero;stroke-width:1;stroke-linecap:butt;stroke-linejoin:miter;stroke-miterlimit:4;stroke-dasharray:none;stroke-dashoffset:0;stroke-opacity:1;color-rendering:auto;image-rendering:auto;shape-rendering:auto;text-rendering:auto;enable-background:accumulate;stop-color:#000000;stop-opacity:1;stroke:none;opacity:1"
     d="M 416,64 H 400 V 48.45 c 0,-8.61 -6.62,-16 -15.23,-16.43 C 375.64227,31.580218 368.00083,38.861679 368,48 V 64 H 144 V 48.45 c 0,-8.61 -6.62,-16 -15.23,-16.43 C 119.64227,31.580218 112.00083,38.861679 112,48 V 64 H 96 C 60.653776,64 32,92.653776 32,128 v 12 c 0,2.20914 1.790861,4 4,4 h 440 c 2.20914,0 4,-1.79086 4,-4 V 128 C 480,92.653776 451.34622,64 416,64 Z m 60,112 H 36 c -2.209139,0 -4,1.79086 -4,4 v 236 c 0,35.34622 28.653776,64 64,64 h 320 c 35.34622,0 64,-28.65378 64,-64 V 180 c 0,-2.20914 -1.79086,-4 -4,-4 z M 239.58,401.1 c -12.17,9.61 -28.75,14.9 -46.7,14.9 -27.87,0 -48.48,-18.16 -57.66,-33.7 -4.50112,-7.61049 -1.98048,-17.42887 5.63,-21.92999 7.61049,-4.50112 17.42888,-1.9805 21.93,5.62999 1.08,1.84 11.15,18 30.1,18 16.66,0 36.12,-7.29 36.12,-27.82 0,-6.25 -1.22,-14.95 -7,-20.88 -8.54,-8.74 -22.75,-12.67 -30.11,-12.67 -8.83656,0 -15.99999,-7.16344 -15.99999,-16 0,-8.83656 7.16343,-16 15.99999,-16 4.85,0 17.41,-2.6 25.28,-10.65 4.3029,-4.23193 6.67831,-10.04573 6.57,-16.08 0,-23.23 -28.63,-23.9 -31.89,-23.9 -17.34,0 -23.8,10.61 -24.07,11.06 -4.37883,7.85087 -14.36423,10.5545 -22.10589,5.98538 C 137.93245,252.47625 135.4733,242.42785 140.23,234.8 c 7.64,-13 25.22,-26.8 51.62,-26.8 16.44,0 31.76,4.77 43.13,13.42 13.39,10.2 20.76,25.28 20.76,42.48 0.0911,14.4029 -5.57549,28.24536 -15.74,38.45 -1.15,1.18 -2.36,2.28 -3.59,3.35 3.00415,2.17 5.82071,4.5885 8.42,7.23 10.56,10.8 16.14,25.75 16.14,43.25 0.03,18.06 -7.58,34.01 -21.39,44.92 z M 368,396 c 0,8.83656 -7.16344,15.99999 -16,15.99999 -8.83656,0 -16,-7.16343 -16,-15.99999 V 256.29 l -22.51,16.59 c -7.11343,5.24671 -17.13329,3.73342 -22.37999,-3.38 -5.24671,-7.11343 -3.73344,-17.13329 3.37999,-22.38 l 43.42,-32 c 2.74927,-2.02618 6.07475,-3.11949 9.49,-3.12 h 4.6 c 8.83656,0 16,7.16344 16,16 z"
     id="path4" />
</svg>
