<?xml version="1.0" encoding="UTF-8"?>
<svg width="512px" height="512px" viewBox="0 0 512 512" version="1.1" xmlns="http://www.w3.org/2000/svg" xmlns:xlink="http://www.w3.org/1999/xlink">
    <!-- Generator: Sketch 62 (91390) - https://sketch.com -->
    <title>Artboard</title>
    <desc>Created with Sketch.</desc>
    <g id="Artboard" stroke="none" stroke-width="1" fill="none" fill-rule="evenodd">
        <g id="calendar-outline" transform="translate(32.000000, 32.000000)" fill="#000000" fill-rule="nonzero">
            <path d="M384,32 C419.3,32 448,60.7 448,96 L448,384 C448,419.3 419.3,448 384,448 L64,448 C28.7,448 0,419.3 0,384 L0,96 C0,60.7 28.7,32 64,32 L384,32 Z M384,144 L64,144 C48,144 32,160 32,176 L32,176 L32,384 C32,401.6 46.4,416 64,416 L384,416 C401.6,416 416,401.6 416,384 L416,176 C416,160 400,144 384,144 L384,144 Z" id="Combined-Shape"></path>
            <circle id="Oval" cx="264" cy="200" r="24"></circle>
            <circle id="Oval" cx="344" cy="200" r="24"></circle>
            <circle id="Oval" cx="264" cy="280" r="24"></circle>
            <circle id="Oval" cx="344" cy="280" r="24"></circle>
            <circle id="Oval" cx="104" cy="280" r="24"></circle>
            <circle id="Oval" cx="184" cy="280" r="24"></circle>
            <circle id="Oval" cx="104" cy="360" r="24"></circle>
            <circle id="Oval" cx="184" cy="360" r="24"></circle>
            <circle id="Oval" cx="264" cy="360" r="24"></circle>
            <path d="M96,64 C87.2,64 80,56.8 80,48 L80,16 C80,7.2 87.2,0 96,0 C104.8,0 112,7.2 112,16 L112,48 C112,56.8 104.8,64 96,64 Z" id="Path"></path>
            <path d="M352,64 C343.2,64 336,56.8 336,48 L336,16 C336,7.2 343.2,0 352,0 C360.8,0 368,7.2 368,16 L368,48 C368,56.8 360.8,64 352,64 Z" id="Path"></path>
        </g>
    </g>
</svg>