<?xml version="1.0" encoding="UTF-8" standalone="no"?>
<svg
   xmlns:dc="http://purl.org/dc/elements/1.1/"
   xmlns:cc="http://creativecommons.org/ns#"
   xmlns:rdf="http://www.w3.org/1999/02/22-rdf-syntax-ns#"
   xmlns:svg="http://www.w3.org/2000/svg"
   xmlns="http://www.w3.org/2000/svg"
   xmlns:sodipodi="http://sodipodi.sourceforge.net/DTD/sodipodi-0.dtd"
   xmlns:inkscape="http://www.inkscape.org/namespaces/inkscape"
   class="ionicon"
   viewBox="0 0 512 512"
   version="1.1"
   id="svg8"
   sodipodi:docname="calendar-number-outline.svg"
   inkscape:version="1.0.2 (e86c8708, 2021-01-15)">
  <metadata
     id="metadata14">
    <rdf:RDF>
      <cc:Work
         rdf:about="">
        <dc:format>image/svg+xml</dc:format>
        <dc:type
           rdf:resource="http://purl.org/dc/dcmitype/StillImage" />
      </cc:Work>
    </rdf:RDF>
  </metadata>
  <defs
     id="defs12" />
  <sodipodi:namedview
     pagecolor="#ffffff"
     bordercolor="#666666"
     borderopacity="1"
     objecttolerance="10"
     gridtolerance="10"
     guidetolerance="10"
     inkscape:pageopacity="0"
     inkscape:pageshadow="2"
     inkscape:window-width="689"
     inkscape:window-height="480"
     id="namedview10"
     showgrid="false"
     inkscape:zoom="1.3027344"
     inkscape:cx="256"
     inkscape:cy="256"
     inkscape:window-x="44"
     inkscape:window-y="25"
     inkscape:window-maximized="0"
     inkscape:current-layer="svg8" />
  <title
     id="title2">Calendar Number</title>
  <path
     style="color:#000000;font-style:normal;font-variant:normal;font-weight:normal;font-stretch:normal;font-size:medium;line-height:normal;font-family:sans-serif;font-variant-ligatures:normal;font-variant-position:normal;font-variant-caps:normal;font-variant-numeric:normal;font-variant-alternates:normal;font-variant-east-asian:normal;font-feature-settings:normal;font-variation-settings:normal;text-indent:0;text-align:start;text-decoration:none;text-decoration-line:none;text-decoration-style:solid;text-decoration-color:#000000;letter-spacing:normal;word-spacing:normal;text-transform:none;writing-mode:lr-tb;direction:ltr;text-orientation:mixed;dominant-baseline:auto;baseline-shift:baseline;text-anchor:start;white-space:normal;shape-padding:0;shape-margin:0;inline-size:0;clip-rule:nonzero;display:inline;overflow:visible;visibility:visible;isolation:auto;mix-blend-mode:normal;color-interpolation:sRGB;color-interpolation-filters:linearRGB;solid-color:#000000;solid-opacity:1;vector-effect:none;fill:currentColor;fill-opacity:1;fill-rule:nonzero;stroke:none;stroke-linecap:butt;stroke-linejoin:round;stroke-miterlimit:4;stroke-dasharray:none;stroke-dashoffset:0;stroke-opacity:1;color-rendering:auto;image-rendering:auto;shape-rendering:auto;text-rendering:auto;enable-background:accumulate;stop-color:#000000;stop-opacity:1;opacity:1"
     d="M 96 64 C 60.820756 64 32 92.820756 32 128 L 32 416 C 32 451.17924 60.820756 480 96 480 L 416 480 C 451.17924 480 480 451.17924 480 416 L 480 128 C 480 92.820756 451.17924 64 416 64 L 96 64 z M 96 96 L 416 96 C 434.00476 96 448 109.99524 448 128 L 448 416 C 448 434.00476 434.00476 448 416 448 L 96 448 C 77.995244 448 64 434.00476 64 416 L 64 128 C 64 109.99524 77.995244 96 96 96 z "
     id="rect4" />
  <path
     style="color:#000000;font-style:normal;font-variant:normal;font-weight:normal;font-stretch:normal;font-size:medium;line-height:normal;font-family:sans-serif;font-variant-ligatures:normal;font-variant-position:normal;font-variant-caps:normal;font-variant-numeric:normal;font-variant-alternates:normal;font-variant-east-asian:normal;font-feature-settings:normal;font-variation-settings:normal;text-indent:0;text-align:start;text-decoration:none;text-decoration-line:none;text-decoration-style:solid;text-decoration-color:#000000;letter-spacing:normal;word-spacing:normal;text-transform:none;writing-mode:lr-tb;direction:ltr;text-orientation:mixed;dominant-baseline:auto;baseline-shift:baseline;text-anchor:start;white-space:normal;shape-padding:0;shape-margin:0;inline-size:0;clip-rule:nonzero;display:inline;overflow:visible;visibility:visible;isolation:auto;mix-blend-mode:normal;color-interpolation:sRGB;color-interpolation-filters:linearRGB;solid-color:#000000;solid-opacity:1;vector-effect:none;fill:currentColor;fill-opacity:1;fill-rule:nonzero;stroke:none;stroke-linecap:round;stroke-linejoin:round;stroke-miterlimit:4;stroke-dasharray:none;stroke-dashoffset:0;stroke-opacity:1;color-rendering:auto;image-rendering:auto;shape-rendering:auto;text-rendering:auto;enable-background:accumulate;stop-color:#000000;stop-opacity:1;opacity:1"
     d="M 128 32 A 16 16 0 0 0 112 48 L 112 80 A 16 16 0 0 0 128 96 A 16 16 0 0 0 144 80 L 144 48 A 16 16 0 0 0 128 32 z M 384 32 A 16 16 0 0 0 368 48 L 368 80 A 16 16 0 0 0 384 96 A 16 16 0 0 0 400 80 L 400 48 A 16 16 0 0 0 384 32 z M 48 144 A 16 16 0 0 0 32 160 A 16 16 0 0 0 48 176 L 464 176 A 16 16 0 0 0 480 160 A 16 16 0 0 0 464 144 L 48 144 z M 191.83008 208 C 164.64316 208 147.42561 222.58327 140.20898 234.7832 A 16 16 0 0 0 145.83398 256.70117 A 16 16 0 0 0 167.75195 251.07617 C 169.19533 248.63611 176.21699 240 191.83008 240 C 201.5752 240 210.21692 242.80697 215.56836 246.88281 C 220.9198 250.95865 223.7207 255.45295 223.7207 263.90039 A 16.0016 16.0016 0 0 0 223.7207 264.08203 C 223.78758 269.99148 221.47289 275.65811 217.28906 279.83203 A 16.0016 16.0016 0 0 0 217.14453 279.98047 C 210.47512 286.80853 195.9678 290.63086 191.86914 290.63086 A 16 16 0 0 0 190.86133 290.66211 A 16 16 0 0 0 190.19141 290.71875 A 16 16 0 0 0 189.19141 290.85547 A 16 16 0 0 0 188.53125 290.98242 A 16 16 0 0 0 188.20312 291.05664 A 16 16 0 0 0 187.87695 291.13672 A 16 16 0 0 0 187.55078 291.22461 A 16 16 0 0 0 186.58984 291.52734 A 16 16 0 0 0 185.64844 291.88867 A 16 16 0 0 0 185.33984 292.02344 A 16 16 0 0 0 185.0332 292.16406 A 16 16 0 0 0 184.73047 292.31055 A 16 16 0 0 0 184.43164 292.46484 A 16 16 0 0 0 184.13477 292.62305 A 16 16 0 0 0 183.84375 292.78906 A 16 16 0 0 0 183.55273 292.96094 A 16 16 0 0 0 182.70898 293.51172 A 16 16 0 0 0 182.43555 293.70703 A 16 16 0 0 0 182.16602 293.9082 A 16 16 0 0 0 181.63867 294.32812 A 16 16 0 0 0 180.88477 294.99805 A 16 16 0 0 0 180.4043 295.46875 A 16 16 0 0 0 179.94531 295.96094 A 16 16 0 0 0 179.50781 296.47266 A 16 16 0 0 0 179.29688 296.73438 A 16 16 0 0 0 178.50977 297.82422 A 16 16 0 0 0 177.98242 298.68359 A 16 16 0 0 0 177.66016 299.27539 A 16 16 0 0 0 177.50977 299.57617 A 16 16 0 0 0 176.9668 300.80664 A 16 16 0 0 0 176.84766 301.12109 A 16 16 0 0 0 176.53125 302.07812 A 16 16 0 0 0 176.27539 303.05469 A 16 16 0 0 0 176.20312 303.38281 A 16 16 0 0 0 176.08008 304.04492 A 16 16 0 0 0 175.89648 305.71484 A 16 16 0 0 0 175.87109 306.38867 A 16 16 0 0 0 175.86914 306.63086 A 16 16 0 0 0 175.88477 307.30273 A 16 16 0 0 0 175.99805 308.64258 A 16 16 0 0 0 176.04297 308.97656 A 16 16 0 0 0 176.0957 309.30859 A 16 16 0 0 0 176.15625 309.63867 A 16 16 0 0 0 176.29492 310.29688 A 16 16 0 0 0 176.37695 310.62305 A 16 16 0 0 0 176.46289 310.94922 A 16 16 0 0 0 176.88086 312.22656 A 16 16 0 0 0 177.00195 312.54102 A 16 16 0 0 0 177.86328 314.36523 A 16 16 0 0 0 178.0293 314.65625 A 16 16 0 0 0 178.37891 315.23242 A 16 16 0 0 0 179.35547 316.59961 A 16 16 0 0 0 180.00977 317.36914 A 16 16 0 0 0 180.4707 317.85742 A 16 16 0 0 0 180.70898 318.0957 A 16 16 0 0 0 180.95312 318.32617 A 16 16 0 0 0 181.20117 318.55469 A 16 16 0 0 0 181.71094 318.99219 A 16 16 0 0 0 182.51172 319.60742 A 16 16 0 0 0 182.78516 319.80078 A 16 16 0 0 0 183.06445 319.99023 A 16 16 0 0 0 183.34766 320.17188 A 16 16 0 0 0 183.92383 320.51758 A 16 16 0 0 0 184.21875 320.68164 A 16 16 0 0 0 184.51562 320.83984 A 16 16 0 0 0 184.81641 320.99023 A 16 16 0 0 0 185.11914 321.13672 A 16 16 0 0 0 185.42578 321.27539 A 16 16 0 0 0 185.73438 321.40625 A 16 16 0 0 0 186.99805 321.86914 A 16 16 0 0 0 189.61719 322.4707 A 16 16 0 0 0 189.95117 322.51367 A 16 16 0 0 0 190.61914 322.58203 A 16 16 0 0 0 191.29102 322.61914 A 16 16 0 0 0 191.62695 322.62891 A 16 16 0 0 0 191.86914 322.63086 C 197.15684 322.63086 213.89035 327.02348 221.98047 335.29688 A 16.0016 16.0016 0 0 0 222 335.31641 C 226.37904 339.77838 229 346.65319 229 356.17969 C 229 365.61849 225.76229 371.23617 219.74414 375.99023 C 213.72599 380.7443 204.20233 384 192.88086 384 C 176.46482 384 165.48981 370.62273 162.7793 366.0293 A 16 16 0 0 0 140.86914 360.38086 A 16 16 0 0 0 135.2207 382.29102 C 142.27019 394.23758 160.95689 416 192.88086 416 C 210.14939 416 226.68573 411.28555 239.58008 401.09961 C 252.47443 390.91367 261 374.62088 261 356.17969 C 261 340.47559 256.30539 324.5999 244.85938 312.92383 L 244.85547 312.91992 C 242.15435 310.15803 239.31057 307.80983 236.41992 305.63867 C 237.6101 304.58404 238.8149 303.57842 239.9668 302.40234 C 250.17566 292.17448 255.85416 278.25952 255.71484 263.80859 C 255.68499 246.17497 247.20398 230.75348 234.95703 221.42578 C 222.68847 212.08162 207.38495 208 191.83008 208 z M 347.41992 212 A 16.0016 16.0016 0 0 0 337.92773 215.11914 L 294.50781 247.11914 A 16 16 0 0 0 291.11914 269.49219 A 16 16 0 0 0 313.49219 272.88086 L 336 256.29297 L 336 396 A 16 16 0 0 0 352 412 A 16 16 0 0 0 368 396 L 368 228 A 16.0016 16.0016 0 0 0 352 212 L 347.41992 212 z "
     id="path6" />
</svg>
