<?xml version="1.0" encoding="utf-8"?>
<!-- Generator: Adobe Illustrator 24.0.0, SVG Export Plug-In . SVG Version: 6.00 Build 0)  -->
<svg version="1.1" id="Layer_1" xmlns="http://www.w3.org/2000/svg" xmlns:xlink="http://www.w3.org/1999/xlink" x="0px" y="0px"
	 viewBox="0 0 512 512" style="enable-background:new 0 0 512 512;" xml:space="preserve">
<title>ionicons-v5-g</title>
<g>
	<path d="M391,480c-19.5,0-46.9-7.1-88-30c-50-28-88.6-53.9-138.2-103.4C117,298.8,93.7,267.8,61,208.5
		C24.1,141.5,30.4,106.3,37.4,91.3C45.8,73.4,58.2,62.7,74.1,52c9-5.9,18.6-11,28.5-15.2c1.1-0.5,2-0.9,2.9-1.3c5-2.2,12.4-5.6,22-2
		c6.3,2.4,12,7.3,20.8,16c18.1,17.8,43,57.8,52.2,77.4c6.2,13.2,10.2,22,10.2,31.7c0,11.5-5.8,20.3-12.8,29.8
		c-1.3,1.8-2.6,3.5-3.8,5.1c-7.6,10-9.3,12.9-8.2,18.1c2.1,9.7,18.2,40.6,46.2,68.5c26.7,26.6,56.2,42.6,67.7,45.1
		c5.4,1.1,8.3-0.6,18.7-8.5c1.5-1.1,3-2.3,4.6-3.5c10.7-7.9,19.1-13.5,30.3-13.5c0,0,0,0,0,0c9.7,0,18,4.2,31.8,11.1
		c18,9.1,59.1,33.6,77.2,51.8l0,0c8.8,8.9,13.6,14.5,16,20.8c3.6,9.5,0.2,17-2,22c-0.4,0.8-0.8,1.8-1.2,2.8
		c-4.2,9.9-9.3,19.5-15.2,28.4c-10.6,16-21.4,28.3-39.4,36.7C413,477,403.6,480,391,480z M118,65c-0.9,0.4-2,0.9-3.1,1.3
		c-8,3.4-15.8,7.5-23.2,12.4c-14.1,9.4-20.7,16.2-25.4,26.1c-2,4.3-10.2,28.5,22.6,88.1c31.4,57,52.5,85.1,98.4,130.9
		C234.7,371,270,394.7,318.7,422c62,34.7,81.1,25.8,88.3,22.5c10-4.7,16.9-11.3,26.3-25.4c4.8-7.3,9-15.1,12.4-23.2
		c0.4-1,0.9-2,1.3-3c-1.3-1.5-3.5-4-7.3-7.8l0,0c-13.6-13.7-49.2-35.9-68.8-45.7c-7.5-3.8-15.3-7.7-17.5-7.7
		c-1.9,0.4-8.9,5.5-11.2,7.2c-1.5,1.1-2.9,2.2-4.2,3.2c-11.5,8.8-24.4,18.7-44.8,14.3c-18.8-4-53.6-23.8-83.6-53.7
		c-30.4-30.3-50.9-66.1-54.9-84.5c-4.3-20.1,5.4-32.9,14-44.2c1.1-1.5,2.3-3,3.5-4.7c4.3-5.9,6.6-9.6,6.5-10.8
		c0-2.7-3.9-11-7.2-18.3c-7.9-16.9-31-53.8-45.6-68.1C122,68.6,119.6,66.4,118,65z"/>
</g>
</svg>
