<?xml version="1.0" encoding="UTF-8" standalone="no"?>
<svg
   xmlns:dc="http://purl.org/dc/elements/1.1/"
   xmlns:cc="http://creativecommons.org/ns#"
   xmlns:rdf="http://www.w3.org/1999/02/22-rdf-syntax-ns#"
   xmlns:svg="http://www.w3.org/2000/svg"
   xmlns="http://www.w3.org/2000/svg"
   xmlns:sodipodi="http://sodipodi.sourceforge.net/DTD/sodipodi-0.dtd"
   xmlns:inkscape="http://www.inkscape.org/namespaces/inkscape"
   class="ionicon"
   viewBox="0 0 512 512"
   version="1.1"
   id="svg6"
   sodipodi:docname="call.svg"
   inkscape:version="1.0.2 (e86c8708, 2021-01-15)">
  <metadata
     id="metadata12">
    <rdf:RDF>
      <cc:Work
         rdf:about="">
        <dc:format>image/svg+xml</dc:format>
        <dc:type
           rdf:resource="http://purl.org/dc/dcmitype/StillImage" />
      </cc:Work>
    </rdf:RDF>
  </metadata>
  <defs
     id="defs10" />
  <sodipodi:namedview
     pagecolor="#ffffff"
     bordercolor="#666666"
     borderopacity="1"
     objecttolerance="10"
     gridtolerance="10"
     guidetolerance="10"
     inkscape:pageopacity="0"
     inkscape:pageshadow="2"
     inkscape:window-width="689"
     inkscape:window-height="480"
     id="namedview8"
     showgrid="false"
     inkscape:zoom="1.3027344"
     inkscape:cx="256"
     inkscape:cy="256"
     inkscape:window-x="44"
     inkscape:window-y="25"
     inkscape:window-maximized="0"
     inkscape:current-layer="svg6" />
  <title
     id="title2">Call</title>
  <path
     style="color:#000000;font-style:normal;font-variant:normal;font-weight:normal;font-stretch:normal;font-size:medium;line-height:normal;font-family:sans-serif;font-variant-ligatures:normal;font-variant-position:normal;font-variant-caps:normal;font-variant-numeric:normal;font-variant-alternates:normal;font-variant-east-asian:normal;font-feature-settings:normal;font-variation-settings:normal;text-indent:0;text-align:start;text-decoration:none;text-decoration-line:none;text-decoration-style:solid;text-decoration-color:#000000;letter-spacing:normal;word-spacing:normal;text-transform:none;writing-mode:lr-tb;direction:ltr;text-orientation:mixed;dominant-baseline:auto;baseline-shift:baseline;text-anchor:start;white-space:normal;shape-padding:0;shape-margin:0;inline-size:0;clip-rule:nonzero;display:inline;overflow:visible;visibility:visible;isolation:auto;mix-blend-mode:normal;color-interpolation:sRGB;color-interpolation-filters:linearRGB;solid-color:#000000;solid-opacity:1;vector-effect:none;fill:#000000;fill-opacity:1;fill-rule:nonzero;stroke-width:1;stroke-linecap:butt;stroke-linejoin:miter;stroke-miterlimit:4;stroke-dasharray:none;stroke-dashoffset:0;stroke-opacity:1;color-rendering:auto;image-rendering:auto;shape-rendering:auto;text-rendering:auto;enable-background:accumulate;stop-color:#000000;stop-opacity:1;stroke:none;opacity:1"
     d="m 391,480 c -19.52,0 -46.94,-7.06 -88,-30 C 253.07,422 214.45,396.15 164.79,346.62 116.91,298.77 93.61,267.79 61,208.45 24.16,141.45 30.44,106.33 37.46,91.32 45.82,73.38 58.16,62.65 74.11,52 c 9.059501,-5.935645 18.646702,-11.023824 28.64,-15.2 1,-0.43 1.93,-0.84 2.76,-1.21 4.95,-2.23 12.45,-5.6 21.95,-2 6.34,2.38 12,7.25 20.86,16 18.17,17.92 43,57.83 52.16,77.43 6.15,13.21 10.22,21.93 10.23,31.71 0,11.45 -5.76,20.28 -12.75,29.81 -1.31,1.79 -2.61,3.5 -3.87,5.16 -7.61,10 -9.28,12.89 -8.18,18.05 2.23,10.37 18.86,41.24 46.19,68.51 27.33,27.27 57.31,42.85 67.72,45.07 5.38,1.15 8.33,-0.59 18.65,-8.47 1.48,-1.13 3,-2.3 4.59,-3.47 10.66,-7.93 19.08,-13.54 30.26,-13.54 h 0.06 c 9.73,0 18.06,4.22 31.86,11.18 18,9.08 59.11,33.59 77.14,51.78 8.77,8.84 13.66,14.48 16.05,20.81 3.6,9.53 0.21,17 -2,22 -0.37,0.83 -0.78,1.74 -1.21,2.75 -4.20922,9.9755 -9.32747,19.5425 -15.29,28.58 -10.63,15.9 -21.4,28.21 -39.38,36.58 -9.23277,4.3671 -19.33708,6.57945 -29.55,6.47 z"
     id="path4" />
</svg>
