<?xml version="1.0" encoding="UTF-8" standalone="no"?>
<svg
   xmlns:dc="http://purl.org/dc/elements/1.1/"
   xmlns:cc="http://creativecommons.org/ns#"
   xmlns:rdf="http://www.w3.org/1999/02/22-rdf-syntax-ns#"
   xmlns:svg="http://www.w3.org/2000/svg"
   xmlns="http://www.w3.org/2000/svg"
   xmlns:sodipodi="http://sodipodi.sourceforge.net/DTD/sodipodi-0.dtd"
   xmlns:inkscape="http://www.inkscape.org/namespaces/inkscape"
   class="ionicon"
   viewBox="0 0 512 512"
   version="1.1"
   id="svg6"
   sodipodi:docname="call-outline.svg"
   inkscape:version="1.0.2 (e86c8708, 2021-01-15)">
  <metadata
     id="metadata12">
    <rdf:RDF>
      <cc:Work
         rdf:about="">
        <dc:format>image/svg+xml</dc:format>
        <dc:type
           rdf:resource="http://purl.org/dc/dcmitype/StillImage" />
      </cc:Work>
    </rdf:RDF>
  </metadata>
  <defs
     id="defs10" />
  <sodipodi:namedview
     pagecolor="#ffffff"
     bordercolor="#666666"
     borderopacity="1"
     objecttolerance="10"
     gridtolerance="10"
     guidetolerance="10"
     inkscape:pageopacity="0"
     inkscape:pageshadow="2"
     inkscape:window-width="689"
     inkscape:window-height="480"
     id="namedview8"
     showgrid="false"
     inkscape:zoom="1.3027344"
     inkscape:cx="256"
     inkscape:cy="256"
     inkscape:window-x="44"
     inkscape:window-y="25"
     inkscape:window-maximized="0"
     inkscape:current-layer="svg6" />
  <title
     id="title2">Call</title>
  <path
     style="color:#000000;font-style:normal;font-variant:normal;font-weight:normal;font-stretch:normal;font-size:medium;line-height:normal;font-family:sans-serif;font-variant-ligatures:normal;font-variant-position:normal;font-variant-caps:normal;font-variant-numeric:normal;font-variant-alternates:normal;font-variant-east-asian:normal;font-feature-settings:normal;font-variation-settings:normal;text-indent:0;text-align:start;text-decoration:none;text-decoration-line:none;text-decoration-style:solid;text-decoration-color:#000000;letter-spacing:normal;word-spacing:normal;text-transform:none;writing-mode:lr-tb;direction:ltr;text-orientation:mixed;dominant-baseline:auto;baseline-shift:baseline;text-anchor:start;white-space:normal;shape-padding:0;shape-margin:0;inline-size:0;clip-rule:nonzero;display:inline;overflow:visible;visibility:visible;isolation:auto;mix-blend-mode:normal;color-interpolation:sRGB;color-interpolation-filters:linearRGB;solid-color:#000000;solid-opacity:1;vector-effect:none;fill:currentColor;fill-opacity:1;fill-rule:nonzero;stroke:none;stroke-linecap:butt;stroke-linejoin:miter;stroke-miterlimit:10;stroke-dasharray:none;stroke-dashoffset:0;stroke-opacity:1;color-rendering:auto;image-rendering:auto;shape-rendering:auto;text-rendering:auto;enable-background:accumulate;stop-color:#000000;stop-opacity:1;opacity:1"
     d="M 120.19336 32.089844 C 116.23293 31.956223 112.48153 32.810599 110.03516 33.699219 C 106.77332 34.884045 104.88787 35.910695 102.68945 36.824219 L 102.6582 36.837891 L 102.625 36.851562 C 92.712326 41.022281 83.202838 46.092799 74.214844 51.998047 L 74.179688 52.019531 L 74.146484 52.042969 C 57.017588 63.422979 44.954954 75.212757 37.417969 91.318359 C 27.918697 111.61713 27.543482 147.74367 60.962891 208.45508 C 93.446334 267.46616 117.65434 299.52233 164.82227 346.55859 C 212.26564 393.86953 250.01285 420.22459 303.02344 449.95508 L 303.02734 449.95703 L 303.03125 449.95898 C 336.5589 468.73674 360.70886 476.94468 379.61914 479.30273 C 398.52943 481.66078 412.51728 477.22966 420.51562 473.50391 C 436.61223 466.00587 448.489 454.02377 459.91016 436.86523 L 459.92773 436.83789 L 459.94531 436.8125 C 465.86941 427.83421 470.95314 418.32932 475.13281 408.41797 L 475.14258 408.39453 L 475.15234 408.36914 C 476.06674 406.18132 477.09805 404.30293 478.28906 401.03906 C 479.48008 397.77519 480.6055 392.17688 479.40234 386.86719 C 476.99604 376.2478 471.20022 371.66158 462.36914 362.74219 L 462.36328 362.73633 L 462.35547 362.72852 C 442.8593 343.08502 405.4745 321.17474 385.20508 310.95312 L 385.20117 310.95117 L 385.19727 310.95117 C 373.04611 304.83059 365.23862 299.81721 353.36719 299.80469 C 341.49575 299.79216 332.96762 305.98397 323.05859 313.3457 L 323.05664 313.34766 L 323.05469 313.34961 C 316.21639 318.43271 311.23997 322.41344 307.9668 324.11719 C 304.69363 325.82094 303.83807 326.14834 299.81836 325.29102 C 296.0507 324.48745 284.64758 319.86275 272.14648 312.07617 C 259.64539 304.28959 245.32123 293.40232 232.0957 280.21875 C 218.87438 267.03937 207.6819 252.47029 199.61328 239.7207 C 191.54466 226.97112 186.6584 215.17828 185.91406 211.71094 C 185.06775 207.76856 185.38111 207.01909 187.10547 203.74805 C 188.82983 200.477 192.87131 195.4621 197.95508 188.54102 C 204.93005 179.04408 210.73381 170.20608 210.71484 158.75586 C 210.69588 147.30564 206.16834 139.23808 200.48828 127.02344 L 200.48438 127.01758 L 200.48242 127.00977 C 190.44803 105.48309 167.85787 68.816282 148.32422 49.587891 L 148.30078 49.564453 C 139.39243 40.762603 134.78219 34.977733 124.18359 32.587891 C 122.85748 32.28887 121.5135 32.134384 120.19336 32.089844 z M 117.66797 65.203125 C 119.34678 66.497828 122.0715 68.635089 125.83594 72.353516 L 125.84766 72.365234 L 125.85938 72.375 C 138.44062 84.752568 163.89672 124.26416 171.47852 140.5293 C 177.09153 152.60189 178.71381 158.18413 178.71484 158.80859 C 178.71588 159.43338 178.40909 161.09654 172.16406 169.59961 C 167.86804 175.44808 162.91973 181.00331 158.79688 188.82422 C 154.67373 196.64567 152.28326 207.51011 154.62695 218.42773 C 157.07262 229.82039 163.26589 242.12857 172.57227 256.83398 C 181.87864 271.5394 194.35523 287.78024 209.50391 302.88086 C 224.64838 317.97729 240.70961 330.19486 255.22852 339.23828 C 269.74742 348.2817 282.00023 354.21146 293.14258 356.58789 C 304.03287 358.91057 314.8659 356.6007 322.74023 352.50195 C 330.61361 348.4037 336.24166 343.41971 342.14258 339.0332 L 342.14453 339.03125 C 351.33259 332.20542 353.35542 331.80471 353.33398 331.80469 C 353.31255 331.80466 358.65389 333.40988 370.80273 339.5293 C 387.85659 348.13048 427.38214 372.91643 439.64453 385.27148 C 443.34474 389.01038 445.47656 391.72013 446.77539 393.40039 C 446.34639 394.36477 446.24701 394.54767 445.64648 395.98242 C 442.23127 404.08101 438.07669 411.84727 433.23633 419.18359 C 433.23553 419.18481 433.23518 419.18629 433.23438 419.1875 C 423.38015 433.98318 417.51282 439.60088 407.00391 444.49609 C 401.69225 446.97034 396.60534 449.17328 383.57812 447.54883 C 370.55209 445.92452 349.90341 439.53358 318.67578 422.04492 L 318.66797 422.04102 C 266.98299 393.05352 233.11227 369.46714 187.41797 323.90039 C 141.4459 278.05665 120.65265 250.53236 88.996094 193.02344 C 58.275503 137.21484 63.481616 111.12209 66.402344 104.88086 C 71.280562 94.456713 76.977909 88.587031 91.816406 78.724609 C 99.162782 73.900548 106.93427 69.756073 115.03516 66.347656 L 114.96875 66.375 C 116.47191 65.75038 116.67311 65.643714 117.66797 65.203125 z "
     id="path4" />
</svg>
