<?xml version="1.0" encoding="UTF-8" standalone="no"?>
<svg
   xmlns:dc="http://purl.org/dc/elements/1.1/"
   xmlns:cc="http://creativecommons.org/ns#"
   xmlns:rdf="http://www.w3.org/1999/02/22-rdf-syntax-ns#"
   xmlns:svg="http://www.w3.org/2000/svg"
   xmlns="http://www.w3.org/2000/svg"
   xmlns:sodipodi="http://sodipodi.sourceforge.net/DTD/sodipodi-0.dtd"
   xmlns:inkscape="http://www.inkscape.org/namespaces/inkscape"
   class="ionicon"
   viewBox="0 0 512 512"
   version="1.1"
   id="svg6"
   sodipodi:docname="call-sharp.svg"
   inkscape:version="1.0.2 (e86c8708, 2021-01-15)">
  <metadata
     id="metadata12">
    <rdf:RDF>
      <cc:Work
         rdf:about="">
        <dc:format>image/svg+xml</dc:format>
        <dc:type
           rdf:resource="http://purl.org/dc/dcmitype/StillImage" />
      </cc:Work>
    </rdf:RDF>
  </metadata>
  <defs
     id="defs10" />
  <sodipodi:namedview
     pagecolor="#ffffff"
     bordercolor="#666666"
     borderopacity="1"
     objecttolerance="10"
     gridtolerance="10"
     guidetolerance="10"
     inkscape:pageopacity="0"
     inkscape:pageshadow="2"
     inkscape:window-width="689"
     inkscape:window-height="480"
     id="namedview8"
     showgrid="false"
     inkscape:zoom="1.3027344"
     inkscape:cx="256"
     inkscape:cy="256"
     inkscape:window-x="44"
     inkscape:window-y="25"
     inkscape:window-maximized="0"
     inkscape:current-layer="svg6" />
  <title
     id="title2">Call</title>
  <path
     style="color:#000000;font-style:normal;font-variant:normal;font-weight:normal;font-stretch:normal;font-size:medium;line-height:normal;font-family:sans-serif;font-variant-ligatures:normal;font-variant-position:normal;font-variant-caps:normal;font-variant-numeric:normal;font-variant-alternates:normal;font-variant-east-asian:normal;font-feature-settings:normal;font-variation-settings:normal;text-indent:0;text-align:start;text-decoration:none;text-decoration-line:none;text-decoration-style:solid;text-decoration-color:#000000;letter-spacing:normal;word-spacing:normal;text-transform:none;writing-mode:lr-tb;direction:ltr;text-orientation:mixed;dominant-baseline:auto;baseline-shift:baseline;text-anchor:start;white-space:normal;shape-padding:0;shape-margin:0;inline-size:0;clip-rule:nonzero;display:inline;overflow:visible;visibility:visible;isolation:auto;mix-blend-mode:normal;color-interpolation:sRGB;color-interpolation-filters:linearRGB;solid-color:#000000;solid-opacity:1;vector-effect:none;fill:#000000;fill-opacity:1;fill-rule:nonzero;stroke-width:1;stroke-linecap:butt;stroke-linejoin:miter;stroke-miterlimit:4;stroke-dasharray:none;stroke-dashoffset:0;stroke-opacity:1;color-rendering:auto;image-rendering:auto;shape-rendering:auto;text-rendering:auto;enable-background:accumulate;stop-color:#000000;stop-opacity:1;stroke:none;opacity:1"
     d="m 478.94,370.14 c -5.22,-5.56 -23.65,-22 -57.53,-43.75 -34.13,-21.94 -59.3,-35.62 -66.52,-38.81 -1.29659,-0.57515 -2.80488,-0.38661 -3.92,0.49 -11.63,9.07 -31.21,25.73 -32.26,26.63 -6.78,5.81 -6.78,5.81 -12.33,4 -9.76,-3.2 -40.08,-19.3 -66.5,-45.78 -26.42,-26.48 -43.35,-57.55 -46.55,-67.3 -1.83,-5.56 -1.83,-5.56 4,-12.34 0.9,-1.05 17.57,-20.63 26.64,-32.25 0.87661,-1.11512 1.06515,-2.62341 0.49,-3.92 -3.19,-7.23 -16.87,-32.39 -38.81,-66.52 C 163.87,56.72 147.45,38.29 141.89,33.07 140.85066,32.089209 139.35813,31.755405 138,32.2 118.56475,38.878851 99.812732,47.400975 82,57.65 64.80423,67.64625 48.524386,79.140857 33.35,92 c -1.079411,0.917665 -1.564066,2.356244 -1.26,3.74 2.09,9.74 12.08,50.4 43.08,106.72 31.63,57.48 53.55,86.93 100,133.22 46.45,46.29 76.83,69.53 134.37,101.16 56.32,31 97,41 106.72,43.07 1.38657,0.30116 2.82659,-0.18269 3.75,-1.26 12.85679,-15.17392 24.34812,-31.45386 34.34,-48.65 10.24712,-17.81371 18.76916,-36.56554 25.45,-56 0.43531,-1.34738 0.10613,-2.82485 -0.86,-3.86 z"
     id="path4" />
</svg>
