<?xml version="1.0" encoding="UTF-8"?>
<svg width="512px" height="512px" viewBox="0 0 512 512" version="1.1" xmlns="http://www.w3.org/2000/svg" xmlns:xlink="http://www.w3.org/1999/xlink">
    <!-- Generator: Sketch 62 (91390) - https://sketch.com -->
    <title>Artboard</title>
    <desc>Created with Sketch.</desc>
    <g id="Artboard" stroke="none" stroke-width="1" fill="none" fill-rule="evenodd">
        <g id="camera-reverse-outline" transform="translate(32.000000, 80.000000)" fill="#000000" fill-rule="nonzero">
            <path d="M270,0 C283,0 295.1,5.8 304.1,16.2 C304.6,16.8 305.1,17.4 305.5,18.1 L331.4,59 C334.3,62.1 338,64 341,64 L400,64 C426.5,64 448,85.5 448,112 L448,304 C448,330.5 426.5,352 400,352 L48,352 C21.5,352 0,330.5 0,304 L0,112 C0,85.5 21.5,64 48,64 L52,64 L52,56 C52,47.2 59.2,40 68,40 L92,40 C100.8,40 108,47.2 108,56 L108,64 C111.3,64 114.4,61.5 116.6,59 L142.5,18 C142.9,17.3 143.4,16.7 143.9,16.1 C152.9,5.8 165,0 178,0 L270,0 Z M270,32 L178,32 C174,32 170.9,34.2 168.9,36.3 L143,77.2 C142.6,77.8 142.1,78.5 141.6,79.1 C132.1,90.2 120.5,96 108,96 L48,96 C39.2,96 32,103.2 32,112 L32,304 C32,312.8 39.2,320 48,320 L400,320 C408.8,320 416,312.8 416,304 L416,112 C416,103.2 408.8,96 400,96 L341,96 C328.2,96 315.6,89.8 306.4,79.1 C305.9,78.5 305.4,77.9 305,77.2 L279.1,36.3 C277.1,34.2 274,32 270,32 Z M155.3,160.7 L175.3,180.7 C181.5,186.9 181.5,197.1 175.3,203.3 C172.2,206.4 168.1,208 164,208 C163.320919,208 162.641837,207.956107 161.9673,207.868775 C168.923543,235.212069 193.550711,255.515183 222.943002,255.991442 L224,256 L224,256 C238.7,256 253.1,250.8 264.5,241.5 C271.3,235.9 281.4,236.9 287,243.7 C292.6,250.5 291.6,260.6 284.8,266.2 C267.8,280.3 246.2,288 224,288 C176.202537,288 136.405709,252.895176 129.173099,207.101584 C123.584788,208.991298 117.124062,207.724062 112.7,203.3 C106.5,197.1 106.5,186.9 112.7,180.7 L132.7,160.7 C138.9,154.5 149.1,154.5 155.3,160.7 Z M223.8,96.1 C249.4,96.1 273.5,106.1 291.7,124.2 C306.194538,138.694538 315.494661,157.036791 318.624637,176.967166 C324.260662,174.978895 330.823122,176.223122 335.3,180.7 C341.5,186.9 341.5,197.1 335.3,203.3 L315.3,223.3 C312.2,226.4 308.1,228 304,228 C299.9,228 295.8,226.4 292.7,223.3 L272.7,203.3 C266.5,197.1 266.5,186.9 272.7,180.7 C276.267335,177.132665 281.158904,175.617891 285.85084,176.155679 C283.050297,165.076362 277.293623,154.92508 269,146.7 C257.057143,134.757143 241.217507,128.172356 224.461875,128.003337 L223.8,128 L223.8,128 C208.9,128 194.5,133.2 183,142.7 C176.2,148.3 166.1,147.4 160.5,140.6 C154.9,133.8 155.8,123.7 162.6,118.1 C179.602299,104.063218 201.001744,96.2801559 223.031278,96.1030894 L223.8,96.1 L223.8,96.1 Z" id="Combined-Shape"></path>
        </g>
    </g>
</svg>