<?xml version="1.0" encoding="UTF-8"?>
<svg width="512px" height="512px" viewBox="0 0 512 512" version="1.1" xmlns="http://www.w3.org/2000/svg" xmlns:xlink="http://www.w3.org/1999/xlink">
    <!-- Generator: Sketch 62 (91390) - https://sketch.com -->
    <title>Artboard</title>
    <desc>Created with Sketch.</desc>
    <g id="Artboard" stroke="none" stroke-width="1" fill="none" fill-rule="evenodd">
        <g id="camera-outline" transform="translate(32.000000, 80.000000)" fill="#000000" fill-rule="nonzero">
            <path d="M270,0 C283,0 295.1,5.8 304.1,16.2 C304.6,16.8 305.1,17.4 305.5,18.1 L331.4,59 C334.3,62.1 338,64 341,64 L400,64 C426.5,64 448,85.5 448,112 L448,304 C448,330.5 426.5,352 400,352 L48,352 C21.5,352 0,330.5 0,304 L0,112 C0,85.5 21.5,64 48,64 L52,64 L52,56 C52,47.2 59.2,40 68,40 L92,40 C100.8,40 108,47.2 108,56 L108,64 C111.3,64 114.4,61.5 116.6,59 L142.5,18 C142.9,17.3 143.4,16.7 143.9,16.1 C152.9,5.8 165,0 178,0 L270,0 Z M270,32 L178,32 C174,32 170.9,34.2 168.9,36.3 L143,77.2 C142.6,77.8 142.1,78.5 141.6,79.1 C132.1,90.2 120.5,96 108,96 L48,96 C39.2,96 32,103.2 32,112 L32,304 C32,312.8 39.2,320 48,320 L400,320 C408.8,320 416,312.8 416,304 L416,112 C416,103.2 408.8,96 400,96 L341,96 C328.2,96 315.6,89.8 306.4,79.1 C305.9,78.5 305.4,77.9 305,77.2 L279.1,36.3 C277.1,34.2 274,32 270,32 Z M224,96 C276.9,96 320,139.1 320,192 C320,244.9 276.9,288 224,288 C171.1,288 128,244.9 128,192 C128,139.1 171.1,96 224,96 Z M224,128 C188.7,128 160,156.7 160,192 C160,227.3 188.7,256 224,256 C259.3,256 288,227.3 288,192 C288,156.7 259.3,128 224,128 Z" id="Combined-Shape"></path>
        </g>
    </g>
</svg>