<?xml version="1.0" encoding="UTF-8" standalone="no"?>
<svg
   xmlns:dc="http://purl.org/dc/elements/1.1/"
   xmlns:cc="http://creativecommons.org/ns#"
   xmlns:rdf="http://www.w3.org/1999/02/22-rdf-syntax-ns#"
   xmlns:svg="http://www.w3.org/2000/svg"
   xmlns="http://www.w3.org/2000/svg"
   xmlns:sodipodi="http://sodipodi.sourceforge.net/DTD/sodipodi-0.dtd"
   xmlns:inkscape="http://www.inkscape.org/namespaces/inkscape"
   class="ionicon"
   viewBox="0 0 512 512"
   version="1.1"
   id="svg10"
   sodipodi:docname="camera-reverse-outline.svg"
   inkscape:version="1.0.2 (e86c8708, 2021-01-15)">
  <metadata
     id="metadata16">
    <rdf:RDF>
      <cc:Work
         rdf:about="">
        <dc:format>image/svg+xml</dc:format>
        <dc:type
           rdf:resource="http://purl.org/dc/dcmitype/StillImage" />
      </cc:Work>
    </rdf:RDF>
  </metadata>
  <defs
     id="defs14" />
  <sodipodi:namedview
     pagecolor="#ffffff"
     bordercolor="#666666"
     borderopacity="1"
     objecttolerance="10"
     gridtolerance="10"
     guidetolerance="10"
     inkscape:pageopacity="0"
     inkscape:pageshadow="2"
     inkscape:window-width="689"
     inkscape:window-height="480"
     id="namedview12"
     showgrid="false"
     inkscape:zoom="1.3027344"
     inkscape:cx="256"
     inkscape:cy="256"
     inkscape:window-x="44"
     inkscape:window-y="25"
     inkscape:window-maximized="0"
     inkscape:current-layer="svg10" />
  <title
     id="title2">Camera Reverse</title>
  <path
     style="color:#000000;font-style:normal;font-variant:normal;font-weight:normal;font-stretch:normal;font-size:medium;line-height:normal;font-family:sans-serif;font-variant-ligatures:normal;font-variant-position:normal;font-variant-caps:normal;font-variant-numeric:normal;font-variant-alternates:normal;font-variant-east-asian:normal;font-feature-settings:normal;font-variation-settings:normal;text-indent:0;text-align:start;text-decoration:none;text-decoration-line:none;text-decoration-style:solid;text-decoration-color:#000000;letter-spacing:normal;word-spacing:normal;text-transform:none;writing-mode:lr-tb;direction:ltr;text-orientation:mixed;dominant-baseline:auto;baseline-shift:baseline;text-anchor:start;white-space:normal;shape-padding:0;shape-margin:0;inline-size:0;clip-rule:nonzero;display:inline;overflow:visible;visibility:visible;isolation:auto;mix-blend-mode:normal;color-interpolation:sRGB;color-interpolation-filters:linearRGB;solid-color:#000000;solid-opacity:1;vector-effect:none;fill:currentColor;fill-opacity:1;fill-rule:nonzero;stroke:none;stroke-linecap:round;stroke-linejoin:round;stroke-miterlimit:4;stroke-dasharray:none;stroke-dashoffset:0;stroke-opacity:1;color-rendering:auto;image-rendering:auto;shape-rendering:auto;text-rendering:auto;enable-background:accumulate;stop-color:#000000;stop-opacity:1;opacity:1"
     d="M 210 80 C 196.33128 80 184.10893 86.6748 175.93555 96.203125 A 16.0016 16.0016 0 0 0 174.56055 98.0625 L 148.74023 138.85742 C 145.32976 142.64043 142.57065 144 140 144 L 80 144 C 53.679846 144 32 165.67985 32 192 L 32 384 C 32 410.32015 53.679846 432 80 432 L 432 432 C 458.32015 432 480 410.32015 480 384 L 480 192 C 480 165.67985 458.32015 144 432 144 L 373 144 C 370.36895 144 366.25378 142.04318 363.19141 138.75 L 337.43945 98.0625 A 16.0016 16.0016 0 0 0 336.06445 96.203125 C 327.89107 86.6748 315.66872 80 302 80 L 210 80 z M 210 112 L 302 112 C 305.36752 112 308.36235 113.38712 311.24805 116.51562 L 337.01953 157.23633 A 16.0016 16.0016 0 0 0 338.38867 159.08789 C 346.51298 168.57349 358.46792 176 373 176 L 432 176 C 441.02607 176 448 182.97393 448 192 L 448 384 C 448 393.02607 441.02607 400 432 400 L 80 400 C 70.97393 400 64 393.02607 64 384 L 64 192 C 64 182.97393 70.97393 176 80 176 L 140 176 C 154.52255 176 166.07977 167.88143 173.61133 159.08789 A 16.0016 16.0016 0 0 0 174.98047 157.23633 L 200.75195 116.51562 C 203.63765 113.38712 206.63248 112 210 112 z "
     id="path4" />
  <path
     style="color:#000000;font-style:normal;font-variant:normal;font-weight:normal;font-stretch:normal;font-size:medium;line-height:normal;font-family:sans-serif;font-variant-ligatures:normal;font-variant-position:normal;font-variant-caps:normal;font-variant-numeric:normal;font-variant-alternates:normal;font-variant-east-asian:normal;font-feature-settings:normal;font-variation-settings:normal;text-indent:0;text-align:start;text-decoration:none;text-decoration-line:none;text-decoration-style:solid;text-decoration-color:#000000;letter-spacing:normal;word-spacing:normal;text-transform:none;writing-mode:lr-tb;direction:ltr;text-orientation:mixed;dominant-baseline:auto;baseline-shift:baseline;text-anchor:start;white-space:normal;shape-padding:0;shape-margin:0;inline-size:0;clip-rule:nonzero;display:inline;overflow:visible;visibility:visible;isolation:auto;mix-blend-mode:normal;color-interpolation:sRGB;color-interpolation-filters:linearRGB;solid-color:#000000;solid-opacity:1;vector-effect:none;fill:currentColor;fill-opacity:1;fill-rule:nonzero;stroke:none;stroke-linecap:round;stroke-linejoin:round;stroke-miterlimit:4;stroke-dasharray:none;stroke-dashoffset:0;stroke-opacity:1;color-rendering:auto;image-rendering:auto;shape-rendering:auto;text-rendering:auto;enable-background:accumulate;stop-color:#000000;stop-opacity:1;opacity:1"
     d="M 100 120 A 16.0016 16.0016 0 0 0 84 136 L 84 158 A 16 16 0 0 0 100 174 A 16 16 0 0 0 112 168.58203 A 16 16 0 0 0 124 174 A 16 16 0 0 0 140 158 L 140 136 A 16.0016 16.0016 0 0 0 124 120 L 100 120 z M 257.0957 175.9668 C 234.70804 175.66512 212.44646 183.18293 194.56055 197.98242 A 16 16 0 0 0 192.43359 220.50977 A 16 16 0 0 0 214.96094 222.63672 C 234.08743 206.81073 260.52883 203.46546 282.99414 214.0293 C 305.45945 224.59314 319.74859 247.09289 319.75977 271.91797 L 319.75977 285.2207 A 16 16 0 0 0 335.75977 301.2207 A 16 16 0 0 0 351.75977 285.2207 L 351.75977 271.91016 A 16.0016 16.0016 0 0 0 351.75977 271.90234 C 351.74304 234.75853 330.2244 200.87811 296.61133 185.07227 C 284.00643 179.14508 270.5283 176.14781 257.0957 175.9668 z M 176 242.7793 A 16 16 0 0 0 160 258.7793 L 160 272.08984 A 16.0016 16.0016 0 0 0 160 272.10156 C 160.02707 309.16504 181.46266 342.98201 214.9707 358.82227 C 248.47874 374.66252 288.21834 369.76462 316.87695 346.26172 A 16 16 0 0 0 319.10156 323.74414 A 16 16 0 0 0 296.58398 321.51758 C 277.43038 337.22543 251.04309 340.4792 228.64844 329.89258 C 206.25734 319.30764 192.02261 296.85606 192 272.08984 L 192 258.7793 A 16 16 0 0 0 176 242.7793 z "
     id="path6" />
  <path
     style="color:#000000;font-style:normal;font-variant:normal;font-weight:normal;font-stretch:normal;font-size:medium;line-height:normal;font-family:sans-serif;font-variant-ligatures:normal;font-variant-position:normal;font-variant-caps:normal;font-variant-numeric:normal;font-variant-alternates:normal;font-variant-east-asian:normal;font-feature-settings:normal;font-variation-settings:normal;text-indent:0;text-align:start;text-decoration:none;text-decoration-line:none;text-decoration-style:solid;text-decoration-color:#000000;letter-spacing:normal;word-spacing:normal;text-transform:none;writing-mode:lr-tb;direction:ltr;text-orientation:mixed;dominant-baseline:auto;baseline-shift:baseline;text-anchor:start;white-space:normal;shape-padding:0;shape-margin:0;inline-size:0;clip-rule:nonzero;display:inline;overflow:visible;visibility:visible;isolation:auto;mix-blend-mode:normal;color-interpolation:sRGB;color-interpolation-filters:linearRGB;solid-color:#000000;solid-opacity:1;vector-effect:none;fill:currentColor;fill-opacity:1;fill-rule:nonzero;stroke:none;stroke-linecap:round;stroke-linejoin:round;stroke-miterlimit:4;stroke-dasharray:none;stroke-dashoffset:0;stroke-opacity:1;color-rendering:auto;image-rendering:auto;shape-rendering:auto;text-rendering:auto;enable-background:accumulate;stop-color:#000000;stop-opacity:1;opacity:1"
     d="M 175.7832 236.00195 A 16.0016 16.0016 0 0 0 164.68555 240.68555 L 144.68555 260.68555 A 16 16 0 0 0 144.68555 283.31445 A 16 16 0 0 0 167.31445 283.31445 L 176 274.62891 L 184.68555 283.31445 A 16 16 0 0 0 207.31445 283.31445 A 16 16 0 0 0 207.31445 260.68555 L 187.31445 240.68555 A 16.0016 16.0016 0 0 0 175.7832 236.00195 z M 316.12109 256 A 16 16 0 0 0 304.68555 260.68555 A 16 16 0 0 0 304.68555 283.31445 L 324.68555 303.31445 A 16.0016 16.0016 0 0 0 347.31445 303.31445 L 367.31445 283.31445 A 16 16 0 0 0 367.31445 260.68555 A 16 16 0 0 0 344.68555 260.68555 L 336 269.37109 L 327.31445 260.68555 A 16 16 0 0 0 316.12109 256 z "
     id="path8" />
</svg>
