<?xml version="1.0" encoding="UTF-8" standalone="no"?>
<svg
   xmlns:dc="http://purl.org/dc/elements/1.1/"
   xmlns:cc="http://creativecommons.org/ns#"
   xmlns:rdf="http://www.w3.org/1999/02/22-rdf-syntax-ns#"
   xmlns:svg="http://www.w3.org/2000/svg"
   xmlns="http://www.w3.org/2000/svg"
   xmlns:sodipodi="http://sodipodi.sourceforge.net/DTD/sodipodi-0.dtd"
   xmlns:inkscape="http://www.inkscape.org/namespaces/inkscape"
   class="ionicon"
   viewBox="0 0 512 512"
   version="1.1"
   id="svg6"
   sodipodi:docname="camera-reverse.svg"
   inkscape:version="1.0.2 (e86c8708, 2021-01-15)">
  <metadata
     id="metadata12">
    <rdf:RDF>
      <cc:Work
         rdf:about="">
        <dc:format>image/svg+xml</dc:format>
        <dc:type
           rdf:resource="http://purl.org/dc/dcmitype/StillImage" />
      </cc:Work>
    </rdf:RDF>
  </metadata>
  <defs
     id="defs10" />
  <sodipodi:namedview
     pagecolor="#ffffff"
     bordercolor="#666666"
     borderopacity="1"
     objecttolerance="10"
     gridtolerance="10"
     guidetolerance="10"
     inkscape:pageopacity="0"
     inkscape:pageshadow="2"
     inkscape:window-width="689"
     inkscape:window-height="480"
     id="namedview8"
     showgrid="false"
     inkscape:zoom="1.3027344"
     inkscape:cx="256"
     inkscape:cy="256"
     inkscape:window-x="44"
     inkscape:window-y="25"
     inkscape:window-maximized="0"
     inkscape:current-layer="svg6" />
  <title
     id="title2">Camera Reverse</title>
  <path
     style="color:#000000;font-style:normal;font-variant:normal;font-weight:normal;font-stretch:normal;font-size:medium;line-height:normal;font-family:sans-serif;font-variant-ligatures:normal;font-variant-position:normal;font-variant-caps:normal;font-variant-numeric:normal;font-variant-alternates:normal;font-variant-east-asian:normal;font-feature-settings:normal;font-variation-settings:normal;text-indent:0;text-align:start;text-decoration:none;text-decoration-line:none;text-decoration-style:solid;text-decoration-color:#000000;letter-spacing:normal;word-spacing:normal;text-transform:none;writing-mode:lr-tb;direction:ltr;text-orientation:mixed;dominant-baseline:auto;baseline-shift:baseline;text-anchor:start;white-space:normal;shape-padding:0;shape-margin:0;inline-size:0;clip-rule:nonzero;display:inline;overflow:visible;visibility:visible;isolation:auto;mix-blend-mode:normal;color-interpolation:sRGB;color-interpolation-filters:linearRGB;solid-color:#000000;solid-opacity:1;vector-effect:none;fill:#000000;fill-opacity:1;fill-rule:nonzero;stroke-width:1;stroke-linecap:butt;stroke-linejoin:miter;stroke-miterlimit:4;stroke-dasharray:none;stroke-dashoffset:0;stroke-opacity:1;color-rendering:auto;image-rendering:auto;shape-rendering:auto;text-rendering:auto;enable-background:accumulate;stop-color:#000000;stop-opacity:1;stroke:none;opacity:1"
     d="m 432,144 h -59 c -3,0 -6.72,-1.94 -9.62,-5 L 337.44,98.06 c -0.41024,-0.649731 -0.86817,-1.268098 -1.37,-1.85 C 327.11,85.76 315,80 302,80 h -92 c -13,0 -25.11,5.76 -34.07,16.21 -0.50183,0.581902 -0.95976,1.200269 -1.37,1.85 l -25.94,41 c -2.22,2.42 -5.34,5 -8.62,5 v -8 c 0,-8.83656 -7.16344,-16 -16,-16 h -24 c -8.836556,0 -16,7.16344 -16,16 v 8 h -4 c -26.498244,0.0276 -47.972441,21.50176 -48,48 V 384 c 0.02756,26.49824 21.501756,47.97244 48,48 h 352 c 26.49824,-0.0276 47.97244,-21.50176 48,-48 V 192 c -0.0276,-26.49824 -21.50176,-47.97244 -48,-48 z M 316.84,346.3 c -26.60897,21.7583 -62.81579,27.64096 -94.94453,15.42602 C 189.76673,349.51107 166.61306,321.06028 161.18,287.12 c -7.03335,2.38654 -14.7843,-0.3808 -18.71579,-6.68215 -3.93149,-6.30135 -3.0097,-14.47971 2.22579,-19.74785 l 20,-20 c 6.24754,-6.24345 16.37246,-6.24345 22.62,0 l 20,20 c 10.07182,10.07842 2.93837,27.3034 -11.31,27.31 -0.66881,-0.008 -1.3366,-0.0547 -2,-0.14 11.64534,45.36004 66.43329,63.30782 102.66,33.63 6.84779,-5.62842 16.96641,-4.617 22.56466,2.25547 5.59826,6.87247 4.54237,16.98655 -2.35466,22.55453 z m 50.47,-63 -20,20 c -6.24754,6.24345 -16.37246,6.24345 -22.62,0 l -20,-20 c -10.66796,-10.69939 -1.92736,-28.86168 13.09,-27.2 -11.63366,-45.45984 -66.61345,-63.3585 -102.78,-33.46 -6.77319,5.99285 -17.16334,5.18519 -22.92908,-1.78234 -5.76575,-6.96753 -4.61519,-17.32532 2.53908,-22.85766 26.5719,-21.97232 62.8862,-28.00706 95.13642,-15.80987 32.25023,12.1972 55.48232,40.7527 60.86358,74.80987 7.03911,-2.5086 14.87722,0.18939 18.88094,6.49909 4.00373,6.3097 3.10665,14.55047 -2.16094,19.85091 z"
     id="path4" />
</svg>
