<?xml version="1.0" encoding="UTF-8" standalone="no"?>
<svg
   xmlns:dc="http://purl.org/dc/elements/1.1/"
   xmlns:cc="http://creativecommons.org/ns#"
   xmlns:rdf="http://www.w3.org/1999/02/22-rdf-syntax-ns#"
   xmlns:svg="http://www.w3.org/2000/svg"
   xmlns="http://www.w3.org/2000/svg"
   xmlns:sodipodi="http://sodipodi.sourceforge.net/DTD/sodipodi-0.dtd"
   xmlns:inkscape="http://www.inkscape.org/namespaces/inkscape"
   class="ionicon"
   viewBox="0 0 512 512"
   version="1.1"
   id="svg6"
   sodipodi:docname="car-sport.svg"
   inkscape:version="1.0.2 (e86c8708, 2021-01-15)">
  <metadata
     id="metadata12">
    <rdf:RDF>
      <cc:Work
         rdf:about="">
        <dc:format>image/svg+xml</dc:format>
        <dc:type
           rdf:resource="http://purl.org/dc/dcmitype/StillImage" />
      </cc:Work>
    </rdf:RDF>
  </metadata>
  <defs
     id="defs10" />
  <sodipodi:namedview
     pagecolor="#ffffff"
     bordercolor="#666666"
     borderopacity="1"
     objecttolerance="10"
     gridtolerance="10"
     guidetolerance="10"
     inkscape:pageopacity="0"
     inkscape:pageshadow="2"
     inkscape:window-width="689"
     inkscape:window-height="480"
     id="namedview8"
     showgrid="false"
     inkscape:zoom="1.3027344"
     inkscape:cx="256"
     inkscape:cy="256"
     inkscape:window-x="44"
     inkscape:window-y="25"
     inkscape:window-maximized="0"
     inkscape:current-layer="svg6" />
  <title
     id="title2">Car Sport</title>
  <path
     style="color:#000000;font-style:normal;font-variant:normal;font-weight:normal;font-stretch:normal;font-size:medium;line-height:normal;font-family:sans-serif;font-variant-ligatures:normal;font-variant-position:normal;font-variant-caps:normal;font-variant-numeric:normal;font-variant-alternates:normal;font-variant-east-asian:normal;font-feature-settings:normal;font-variation-settings:normal;text-indent:0;text-align:start;text-decoration:none;text-decoration-line:none;text-decoration-style:solid;text-decoration-color:#000000;letter-spacing:normal;word-spacing:normal;text-transform:none;writing-mode:lr-tb;direction:ltr;text-orientation:mixed;dominant-baseline:auto;baseline-shift:baseline;text-anchor:start;white-space:normal;shape-padding:0;shape-margin:0;inline-size:0;clip-rule:nonzero;display:inline;overflow:visible;visibility:visible;isolation:auto;mix-blend-mode:normal;color-interpolation:sRGB;color-interpolation-filters:linearRGB;solid-color:#000000;solid-opacity:1;vector-effect:none;fill:#000000;fill-opacity:1;fill-rule:nonzero;stroke-width:1;stroke-linecap:butt;stroke-linejoin:miter;stroke-miterlimit:4;stroke-dasharray:none;stroke-dashoffset:0;stroke-opacity:1;color-rendering:auto;image-rendering:auto;shape-rendering:auto;text-rendering:auto;enable-background:accumulate;stop-color:#000000;stop-opacity:1;stroke:none;opacity:1"
     d="m 494.26,276.22 c -3.6,-40.41 -9.53,-48.28 -11.77,-51.24 -5.15,-6.84 -13.39,-11.31 -22.11,-16 -2.11703,-1.1194 -2.57136,-3.95526 -0.91,-5.68 3.26803,-3.31429 4.92306,-7.8921 4.53,-12.53 -0.77979,-8.42603 -7.88832,-14.84761 -16.35,-14.77 h -15.6 c -0.66864,0.004 -1.33647,0.0474 -2,0.13 -0.45538,-0.19754 -0.92718,-0.3548 -1.41,-0.47 C 419.4,156.13 406.75,129.39 380.53,116.34 341.64,97 270,96 256,96 242,96 170.36,97 131.52,116.31 105.3,129.36 92.65,156.1 83.41,175.63 l -0.08,0.16 c -0.460845,0.0648 -0.913424,0.17881 -1.35,0.34 -0.66353,-0.0826 -1.331357,-0.12604 -2,-0.13 H 64.35 c -8.461676,-0.0776 -15.570206,6.34397 -16.35,14.77 -0.359432,4.62682 1.316648,9.18035 4.59,12.47 1.661364,1.72474 1.207026,4.5606 -0.91,5.68 -8.72,4.72 -17,9.19 -22.11,16 -2.24,3 -8.16,10.83 -11.77,51.24 -2,22.74 -2.3,46.28 -0.73,61.44 3.29,31.5 9.46,50.54 9.72,51.33 1.932467,5.86785 7.070443,10.09889 13.2,10.87 v 0.2 c 0,8.83656 7.163444,16 16,16 h 56 c 8.83656,0 16,-7.16344 16,-16 8.61,0 14.6,-1.54 20.95,-3.18 9.16781,-2.47029 18.53867,-4.11354 28,-4.91 C 207.45,389 237.79,388 256,388 c 17.84,0 49.52,1 80.08,3.91 9.49873,0.79825 18.90654,2.44822 28.11,4.93 6.08,1.56 11.85,3 19.84,3.15 0,8.83656 7.16344,16 16,16 h 56 c 8.83656,0 16,-7.16344 16,-16 v -0.12 c 6.14468,-0.75662 11.30139,-4.99026 13.24,-10.87 0.26,-0.79 6.43,-19.83 9.72,-51.33 1.57,-15.17 1.29,-38.67 -0.73,-61.45 z M 112.33,189.31 c 8,-17 17.15,-36.24 33.44,-44.35 23.54,-11.72 72.33,-17 110.23,-17 37.9,0 86.69,5.24 110.23,17 16.29,8.11 25.4,27.36 33.44,44.35 l 1,2.17 c 2.55129,5.38983 -1.47887,11.57592 -7.44,11.42 C 360,202 290,199.12 256,199.12 c -34,0 -104,2.95 -137.28,3.85 -5.96113,0.15592 -9.99129,-6.03017 -7.44,-11.42 0.35,-0.74 0.72,-1.49 1.05,-2.24 z m 11.93,79.63 c -17.20195,2.07038 -34.513934,3.09226 -51.84,3.06 -10.6,0 -21.53,-3 -23.56,-12.44 -1.39,-6.35 -1.24,-9.92 -0.49,-13.51 C 49,243 50,240.78 55,240 c 13,-2 20.27,0.51 41.55,6.78 14.11,4.15 24.29,9.68 30.09,14.06 2.91,2.16 1.36,7.8 -2.38,8.1 z m 221.38,82 c -13.16,1.5 -39.48,0.95 -89.34,0.95 -49.86,0 -76.17,0.55 -89.33,-0.95 -13.58,-1.51 -30.89,-14.35 -19.07,-25.79 7.87,-7.54 26.23,-13.18 50.68,-16.35 24.45,-3.17 34.8,-4.8 57.62,-4.8 22.82,0 32.12,1 57.62,4.81 25.5,3.81 44.77,9.52 50.68,16.35 10.78,12.24 -5.29,24.19 -18.86,25.84 z m 117.5,-91.39 c -2,9.48 -13,12.44 -23.56,12.44 -17.65773,0.004 -35.30079,-1.01759 -52.84,-3.06 -3.06,-0.29 -4.48,-5.66 -1.38,-8.1 5.71,-4.49 16,-9.91 30.09,-14.06 21.28,-6.27 33.55,-8.78 44.09,-6.69 2.57,0.51 3.93,3.27 4.09,5 0.70529,4.81705 0.53932,9.72164 -0.49,14.48 z"
     id="path4" />
</svg>
