<?xml version="1.0" encoding="UTF-8"?>
<svg width="512px" height="512px" viewBox="0 0 512 512" version="1.1" xmlns="http://www.w3.org/2000/svg" xmlns:xlink="http://www.w3.org/1999/xlink">
    <!-- Generator: Sketch 62 (91390) - https://sketch.com -->
    <title>Artboard</title>
    <desc>Created with Sketch.</desc>
    <g id="Artboard" stroke="none" stroke-width="1" fill="none" fill-rule="evenodd">
        <g id="car-outline" transform="translate(64.000000, 96.000000)" fill="#000000" fill-rule="nonzero">
            <path d="M290.9,0.1 C315,0.1 336.2,13.3 344.9,33.6 L382.7,121.7 C383.624254,123.838988 384.039447,126.06863 384.000825,128.25634 L384,304 C384,312.8 376.8,320 368,320 L336,320 C327.2,320 320,312.8 320,304 L319.999714,288 L63.9997139,288 L64,304 C64,312.8 56.8,320 48,320 L16,320 C7.2,320 -3.83911652e-14,312.8 -3.83911652e-14,304 L-8.6817533e-05,128.29542 C-0.0426949492,126.178628 0.339455059,124.021821 1.19644233,121.945187 C1.21815219,121.892673 1.24018943,121.840016 1.2625,121.7875 L1.3,121.7 L1.3,121.7 L39.1,33.6 C47.8,13.2 69,0.1 93.1,0.1 L290.9,0.1 Z M352,144 L32,144 L32,256 L352,256 L352,144 Z M80,160 C97.6,160 112,174.4 112,192 C112,209.6 97.6,224 80,224 C62.4,224 48,209.6 48,192 C48,174.4 62.4,160 80,160 Z M304,160 C321.6,160 336,174.4 336,192 C336,209.6 321.6,224 304,224 C286.4,224 272,209.6 272,192 C272,174.4 286.4,160 304,160 Z M290.9,32 L93.1,32 C82,32 72.1,37.7 68.5,46.2 L40.2677139,111.999 L343.731714,111.999 L315.5,46.2 C311.9,37.7 302,32 290.9,32 Z" id="Combined-Shape"></path>
        </g>
    </g>
</svg>