<?xml version="1.0" encoding="UTF-8"?>
<svg width="512px" height="512px" viewBox="0 0 512 512" version="1.1" xmlns="http://www.w3.org/2000/svg" xmlns:xlink="http://www.w3.org/1999/xlink">
    <!-- Generator: Sketch 62 (91390) - https://sketch.com -->
    <title>Artboard</title>
    <desc>Created with Sketch.</desc>
    <g id="Artboard" stroke="none" stroke-width="1" fill="none" fill-rule="evenodd">
        <g id="car-sport-outline" transform="translate(16.000000, 96.000000)" fill="#000000" fill-rule="nonzero">
            <path d="M241,0 C260.9,0 283.4,1.5 302.8,4 C329.7,7.5 350.8,13 365.5,20.3 C391.7,33.3 404.4,60.1 413.6,79.6 C413.709277,79.8331237 413.818288,80.0657167 413.927034,80.2976919 C414.922606,80.1025224 415.949912,80 417,80 L433,80 C441.8,80 449,87.2 449,96 C449,102.134793 445.500814,107.491989 440.39976,110.174272 C442.076201,111.107159 443.756848,112.013806 445.4,112.9 C453.897674,117.490698 462.013737,121.89059 467.139029,128.429282 L467.5,128.9 L467.5,128.9 C469.7,131.9 475.6,139.7 479.2,180.1 C481.2,202.9 481.5,226.4 479.9,241.5 C476.6,273 470.4,292 470.2,292.8 C468.302794,298.943333 463.140835,303.127815 456.999971,303.878705 L457,304 C457,312.8 449.8,320 441,320 L385,320 C376.2,320 369,312.8 369,304 C361.022246,303.880403 355.245535,302.432408 349.1,300.8 C342.5,299.1 335.1,297.2 321,295.9 C290.827957,293.031183 259.481582,292.021725 241.482187,292.000348 L240.9,292 C222.7,292 192.3,293 161.8,295.9 C147.7,297.2 140.3,299.1 133.8,300.8 C127.524633,302.393744 121.546925,303.987488 113.000761,303.999927 L113,304 C113,312.8 105.8,320 97,320 L41,320 C32.2,320 25,312.8 25,304 L24.9997048,303.887787 C18.9000148,303.163281 13.6955694,298.986708 11.7,293 C11.4,292.2 5.3,273.2 2,241.7 C0.4,226.5 0.7,203 2.7,180.3 C6.3,139.9 12.2,132 14.5,129.1 C19.6,122.3 27.9,117.8 36.6,113 C38.2580369,112.095616 39.9622232,111.166383 41.6664077,110.208286 C36.5294714,107.538242 33,102.161284 33,96 C33,87.2 40.2,80 49,80 L65,80 C66.0638448,80 67.104306,80.1052262 68.1114896,80.3057844 L68.4,79.7 L68.4,79.7 C77.6,60.2 90.3,33.5 116.5,20.4 C155.3,1 227,0 241,0 Z M240.9,119 C146.46311,119 90.8182293,125.479734 70.833454,129.605626 C64.5094551,134.192179 57.8204212,137.808121 51.9,141 C48,143.1 42.3,146.2 40.3,147.9 C35.9,158.3 30.9,210 33.8,238.3 C35.3,252.8 37.5,264.3 39.2,272 L112.9,272 C117.5,272 120.5,271.2 125.9,269.8 C132.8,268 142.3,265.6 158.9,264 C190.148889,261.132222 221.299988,260.024667 240.362054,260.000408 L241,260 C260.4,260 292.5,261.1 324.1,264.1 C340.7,265.7 350.2,268.1 357.1,269.9 C362.5,271.3 365.5,272.1 370,272.1 L383.214649,272.099696 C383.801045,272.033833 384.396763,272 385,272 L441,272 C441.574479,272 442.142139,272.030684 442.701422,272.090495 L442.7,272.1 C444.4,264.4 446.6,252.9 448.1,238.4 C451,210.2 446,158.5 441.6,148 C439.6,146.3 433.9,143.2 430.1,141.1 C424.150071,137.868573 417.489793,134.242508 411.198738,129.655029 C391.420294,125.530971 335.709519,119 240.9,119 Z M241.2,192 C264,192 273.3,192.9 298.8,196.8 C324.3,200.7 343.6,206.4 349.5,213.2 C360.2,225.4 344.2,237.4 330.6,239 C317.4,240.5 291.1,240 241.3,240 C191.5,240 165.2,240.5 152,239 C138.4,237.5 121.1,224.6 132.9,213.2 C140.8,205.6 159.2,200 183.6,196.8 C208,193.6 218.4,192 241.2,192 Z M368.4,150.8 C389.7,144.5 401.7,143.7 413.5,144.1 C415.1,144.2 416.5,145.5 416.6,147.1 C417.3,152.5 417.1,158.1 416,163.7 C414,173.1 403.1,176.1 392.5,176.1 C374.9,176.1 357.2,175.1 339.7,173 C336.8,172.5 336,167.7 338.3,165.9 C347.4,159.1 357.5,154 368.4,150.8 Z M113.6,150.8 C124.5,154 134.6,159.1 143.7,165.9 C146,167.7 145.2,172.5 142.3,173 C124.8,175.1 107.1,176.1 89.5,176.1 C78.9,176.1 68,173.1 65.9,163.7 C64.9,158.1 64.7,152.5 65.4,147.1 C65.5,145.5 66.9,144.2 68.5,144.1 L69.3534877,144.073235 C80.8837132,143.741748 92.813253,144.651807 113.6,150.8 Z M241,32.1 C203.1,32.1 154.3,37.3 130.8,49.1 C114.5,57.2 105.4,76.5 97.4,93.4 L97.3645199,93.4683092 C125.866973,90.2707943 171.881193,87 240.9,87 C310.090358,87 356.161628,90.2870741 384.64769,93.4921507 L384.6,93.4 L384.6,93.4 C376.6,76.4 367.4,57.2 351.2,49.1 C334.2,40.6 293.5,32.1 241,32.1 Z" id="Combined-Shape"></path>
        </g>
    </g>
</svg>