<?xml version="1.0" encoding="UTF-8" standalone="no"?>
<svg
   xmlns:dc="http://purl.org/dc/elements/1.1/"
   xmlns:cc="http://creativecommons.org/ns#"
   xmlns:rdf="http://www.w3.org/1999/02/22-rdf-syntax-ns#"
   xmlns:svg="http://www.w3.org/2000/svg"
   xmlns="http://www.w3.org/2000/svg"
   xmlns:sodipodi="http://sodipodi.sourceforge.net/DTD/sodipodi-0.dtd"
   xmlns:inkscape="http://www.inkscape.org/namespaces/inkscape"
   class="ionicon"
   viewBox="0 0 512 512"
   version="1.1"
   id="svg10"
   sodipodi:docname="car-sport-outline.svg"
   inkscape:version="1.0.2 (e86c8708, 2021-01-15)">
  <metadata
     id="metadata16">
    <rdf:RDF>
      <cc:Work
         rdf:about="">
        <dc:format>image/svg+xml</dc:format>
        <dc:type
           rdf:resource="http://purl.org/dc/dcmitype/StillImage" />
      </cc:Work>
    </rdf:RDF>
  </metadata>
  <defs
     id="defs14" />
  <sodipodi:namedview
     pagecolor="#ffffff"
     bordercolor="#666666"
     borderopacity="1"
     objecttolerance="10"
     gridtolerance="10"
     guidetolerance="10"
     inkscape:pageopacity="0"
     inkscape:pageshadow="2"
     inkscape:window-width="689"
     inkscape:window-height="480"
     id="namedview12"
     showgrid="false"
     inkscape:zoom="1.3027344"
     inkscape:cx="256"
     inkscape:cy="256"
     inkscape:window-x="44"
     inkscape:window-y="25"
     inkscape:window-maximized="0"
     inkscape:current-layer="svg10" />
  <title
     id="title2">Car Sport</title>
  <path
     style="color:#000000;font-style:normal;font-variant:normal;font-weight:normal;font-stretch:normal;font-size:medium;line-height:normal;font-family:sans-serif;font-variant-ligatures:normal;font-variant-position:normal;font-variant-caps:normal;font-variant-numeric:normal;font-variant-alternates:normal;font-variant-east-asian:normal;font-feature-settings:normal;font-variation-settings:normal;text-indent:0;text-align:start;text-decoration:none;text-decoration-line:none;text-decoration-style:solid;text-decoration-color:#000000;letter-spacing:normal;word-spacing:normal;text-transform:none;writing-mode:lr-tb;direction:ltr;text-orientation:mixed;dominant-baseline:auto;baseline-shift:baseline;text-anchor:start;white-space:normal;shape-padding:0;shape-margin:0;inline-size:0;clip-rule:nonzero;display:inline;overflow:visible;visibility:visible;isolation:auto;mix-blend-mode:normal;color-interpolation:sRGB;color-interpolation-filters:linearRGB;solid-color:#000000;solid-opacity:1;vector-effect:none;fill:currentColor;fill-opacity:1;fill-rule:nonzero;stroke:none;stroke-linecap:round;stroke-linejoin:round;stroke-miterlimit:4;stroke-dasharray:none;stroke-dashoffset:0;stroke-opacity:1;color-rendering:auto;image-rendering:auto;shape-rendering:auto;text-rendering:auto;enable-background:accumulate;stop-color:#000000;stop-opacity:1;opacity:1"
     d="M 256 96 C 222.66667 96 167.09087 98.575716 131.50391 116.30859 C 112.49831 125.77903 100.98139 142.04563 92.8125 156.81836 C 84.643614 171.59109 78.945918 185.85361 75.009766 191.82617 C 71.915704 196.52098 64.625063 201.73668 55.988281 206.53516 C 47.3515 211.33363 37.832597 213.92475 29.509766 224.97266 C 23.345235 233.15559 23.204142 238.87229 21.583984 247.28125 C 19.963827 255.69021 18.694241 265.63928 17.751953 276.21875 C 15.867377 297.37769 15.245909 320.56416 17.025391 337.65625 C 20.310408 369.20916 26.738281 388.99219 26.738281 388.99219 A 16.0016 16.0016 0 0 0 40 399.88086 L 40 400 A 16.0016 16.0016 0 0 0 56 416 L 112 416 A 16.0016 16.0016 0 0 0 128 400 L 128 399.99609 C 137.01183 399.98726 143.81494 398.12701 150.10938 396.51953 C 156.41876 394.90824 163.38644 393.20113 176.89844 391.92969 A 16.0016 16.0016 0 0 0 176.91211 391.92773 C 207.865 388.98917 238.59259 388 256 388 C 273.40741 388 305.16619 388.99231 336.06641 391.92773 A 16.0016 16.0016 0 0 0 336.07031 391.92773 C 349.58932 393.20922 356.61513 394.92221 362.94336 396.53125 C 369.01277 398.07448 375.55427 399.80468 384 399.94727 L 384 400 A 16.0016 16.0016 0 0 0 400 416 L 456 416 A 16.0016 16.0016 0 0 0 472 400 L 472 399.87891 A 16.0016 16.0016 0 0 0 485.24023 388.99219 C 485.24023 388.99219 491.66811 369.20916 494.95312 337.65625 C 496.73297 320.56068 496.107 297.37511 494.22266 276.21875 C 493.28048 265.64057 492.01166 255.6917 490.39648 247.28711 C 488.78131 238.88252 488.64339 233.18462 482.51562 225.00586 A 16.0016 16.0016 0 0 0 482.49023 224.97266 C 474.15789 213.91213 464.63058 211.3402 455.99805 206.55469 C 447.36551 201.76917 440.08964 196.56732 436.99609 191.86523 C 433.04916 185.86603 427.34407 171.58896 419.16992 156.8125 C 410.99577 142.03604 399.48205 125.7745 380.48047 116.33203 C 344.95312 98.677412 289.36333 96 256 96 z M 256 128 C 286.63667 128 343.12758 133.5029 366.24023 144.98828 C 376.55865 150.11582 384.41907 160.09919 391.16992 172.30273 C 397.92077 184.50628 402.6906 197.94233 410.26367 209.45312 C 418.69012 222.26104 430.78941 229.16653 440.48438 234.54102 C 448.04007 238.72958 454.26642 242.9682 456.23828 244.05469 C 456.67074 245.44817 458.14334 249.01079 458.97266 253.32617 C 460.28092 260.13377 461.47803 269.27302 462.34961 279.05859 C 464.09276 298.62974 464.48711 321.27932 463.12695 334.34375 C 461.55979 349.39651 459.45648 360.42879 457.71875 368 L 456 368 L 400 368 L 385.03906 368 C 380.09177 368 377.54739 367.22604 370.82812 365.51758 C 364.10953 363.80929 354.3721 361.5208 339.09375 360.07227 C 306.83396 357.00769 274.59259 356 256 356 C 237.40741 356 206.13578 357.01083 173.88867 360.07227 C 158.60882 361.51091 148.88995 363.80299 142.19141 365.51367 C 135.4908 367.22488 132.97567 368 127.93945 368 L 112 368 L 56 368 L 54.261719 368 C 52.523986 360.42879 50.42068 349.39651 48.853516 334.34375 C 47.492998 321.27584 47.882076 298.62715 49.625 279.05859 C 50.496462 269.27432 51.69508 260.13721 53.005859 253.33398 C 53.842644 248.9909 55.336269 245.41052 55.753906 244.04883 C 57.696258 242.98158 63.937485 238.72572 71.529297 234.50781 C 81.220015 229.12379 93.30453 222.21879 101.73047 209.43359 C 109.31432 197.92616 114.07029 184.50446 120.81641 172.30469 C 127.56252 160.10492 135.42099 150.11074 145.77539 144.95117 C 168.90843 133.42405 225.33333 128 256 128 z "
     id="path4" />
  <path
     style="color:#000000;font-style:normal;font-variant:normal;font-weight:normal;font-stretch:normal;font-size:medium;line-height:normal;font-family:sans-serif;font-variant-ligatures:normal;font-variant-position:normal;font-variant-caps:normal;font-variant-numeric:normal;font-variant-alternates:normal;font-variant-east-asian:normal;font-feature-settings:normal;font-variation-settings:normal;text-indent:0;text-align:start;text-decoration:none;text-decoration-line:none;text-decoration-style:solid;text-decoration-color:#000000;letter-spacing:normal;word-spacing:normal;text-transform:none;writing-mode:lr-tb;direction:ltr;text-orientation:mixed;dominant-baseline:auto;baseline-shift:baseline;text-anchor:start;white-space:normal;shape-padding:0;shape-margin:0;inline-size:0;clip-rule:nonzero;display:inline;overflow:visible;visibility:visible;isolation:auto;mix-blend-mode:normal;color-interpolation:sRGB;color-interpolation-filters:linearRGB;solid-color:#000000;solid-opacity:1;vector-effect:none;fill:#000000;fill-opacity:1;fill-rule:nonzero;stroke-width:1;stroke-linecap:butt;stroke-linejoin:miter;stroke-miterlimit:4;stroke-dasharray:none;stroke-dashoffset:0;stroke-opacity:1;color-rendering:auto;image-rendering:auto;shape-rendering:auto;text-rendering:auto;enable-background:accumulate;stop-color:#000000;stop-opacity:1;stroke:none;opacity:1"
     d="M 364.47,309.16 C 358.56,302.33 339.3,296.63 313.8,292.81 288.3,288.99 279,288 256.2,288 c -22.8,0 -33.17,1.64 -57.61,4.81 -24.44,3.17 -42.79,8.81 -50.66,16.35 -11.81,11.44 5.49,24.28 19.07,25.84 13.16,1.5 39.47,0.95 89.31,0.95 49.84,0 76.15,0.55 89.31,-0.95 13.56,-1.65 29.62,-13.6 18.85,-25.84 z m 67.1,-66.11 c -0.11623,-1.64462 -1.45245,-2.93774 -3.1,-3 -11.81,-0.42 -23.8,0.42 -45.07,6.69 -10.85162,3.16801 -21.04184,8.2699 -30.08,15.06 -2.28,1.78 -1.47,6.59 1.39,7.1 17.53169,2.05632 35.16813,3.0914 52.82,3.1 10.59,0 21.52,-3 23.55,-12.44 1.03496,-5.44284 1.20035,-11.01536 0.49,-16.51 z m -351.14,0 c 0.116226,-1.64462 1.452449,-2.93774 3.1,-3 11.81,-0.42 23.8,0.42 45.07,6.69 10.85162,3.16801 21.04184,8.2699 30.08,15.06 2.28,1.78 1.47,6.59 -1.39,7.1 -17.53169,2.05632 -35.16813,3.0914 -52.82,3.1 -10.59,0 -21.52,-3 -23.55,-12.44 -1.034959,-5.44284 -1.200346,-11.01536 -0.49,-16.51 z"
     id="path6" />
  <path
     style="color:#000000;font-style:normal;font-variant:normal;font-weight:normal;font-stretch:normal;font-size:medium;line-height:normal;font-family:sans-serif;font-variant-ligatures:normal;font-variant-position:normal;font-variant-caps:normal;font-variant-numeric:normal;font-variant-alternates:normal;font-variant-east-asian:normal;font-feature-settings:normal;font-variation-settings:normal;text-indent:0;text-align:start;text-decoration:none;text-decoration-line:none;text-decoration-style:solid;text-decoration-color:#000000;letter-spacing:normal;word-spacing:normal;text-transform:none;writing-mode:lr-tb;direction:ltr;text-orientation:mixed;dominant-baseline:auto;baseline-shift:baseline;text-anchor:start;white-space:normal;shape-padding:0;shape-margin:0;inline-size:0;clip-rule:nonzero;display:inline;overflow:visible;visibility:visible;isolation:auto;mix-blend-mode:normal;color-interpolation:sRGB;color-interpolation-filters:linearRGB;solid-color:#000000;solid-opacity:1;vector-effect:none;fill:currentColor;fill-opacity:1;fill-rule:nonzero;stroke:none;stroke-linecap:round;stroke-linejoin:round;stroke-miterlimit:4;stroke-dasharray:none;stroke-dashoffset:0;stroke-opacity:1;color-rendering:auto;image-rendering:auto;shape-rendering:auto;text-rendering:auto;enable-background:accumulate;stop-color:#000000;stop-opacity:1;opacity:1"
     d="M 64 176 A 16 16 0 0 0 48 192 A 16 16 0 0 0 62.302734 207.91016 A 16 16 0 0 0 62.509766 215.00977 A 16 16 0 0 0 82.009766 226.49023 C 82.009766 226.49023 125.32227 215 256 215 C 386.67773 215 429.99023 226.49023 429.99023 226.49023 A 16 16 0 0 0 449.49023 215.00977 A 16 16 0 0 0 449.69727 207.91016 A 16 16 0 0 0 464 192 A 16 16 0 0 0 448 176 L 432 176 A 16 16 0 0 0 416.00391 191.64844 C 390.09611 187.9723 339.68133 183 256 183 C 172.31867 183 121.90389 187.9723 95.996094 191.64844 A 16 16 0 0 0 80 176 L 64 176 z "
     id="path8" />
</svg>
