<?xml version="1.0" encoding="UTF-8" standalone="no"?>
<svg
   xmlns:dc="http://purl.org/dc/elements/1.1/"
   xmlns:cc="http://creativecommons.org/ns#"
   xmlns:rdf="http://www.w3.org/1999/02/22-rdf-syntax-ns#"
   xmlns:svg="http://www.w3.org/2000/svg"
   xmlns="http://www.w3.org/2000/svg"
   xmlns:sodipodi="http://sodipodi.sourceforge.net/DTD/sodipodi-0.dtd"
   xmlns:inkscape="http://www.inkscape.org/namespaces/inkscape"
   class="ionicon"
   viewBox="0 0 512 512"
   version="1.1"
   id="svg6"
   sodipodi:docname="car-sport-sharp.svg"
   inkscape:version="1.0.2 (e86c8708, 2021-01-15)">
  <metadata
     id="metadata12">
    <rdf:RDF>
      <cc:Work
         rdf:about="">
        <dc:format>image/svg+xml</dc:format>
        <dc:type
           rdf:resource="http://purl.org/dc/dcmitype/StillImage" />
      </cc:Work>
    </rdf:RDF>
  </metadata>
  <defs
     id="defs10" />
  <sodipodi:namedview
     pagecolor="#ffffff"
     bordercolor="#666666"
     borderopacity="1"
     objecttolerance="10"
     gridtolerance="10"
     guidetolerance="10"
     inkscape:pageopacity="0"
     inkscape:pageshadow="2"
     inkscape:window-width="689"
     inkscape:window-height="480"
     id="namedview8"
     showgrid="false"
     inkscape:zoom="1.3027344"
     inkscape:cx="256"
     inkscape:cy="256"
     inkscape:window-x="44"
     inkscape:window-y="25"
     inkscape:window-maximized="0"
     inkscape:current-layer="svg6" />
  <title
     id="title2">Car Sport</title>
  <path
     style="color:#000000;font-style:normal;font-variant:normal;font-weight:normal;font-stretch:normal;font-size:medium;line-height:normal;font-family:sans-serif;font-variant-ligatures:normal;font-variant-position:normal;font-variant-caps:normal;font-variant-numeric:normal;font-variant-alternates:normal;font-variant-east-asian:normal;font-feature-settings:normal;font-variation-settings:normal;text-indent:0;text-align:start;text-decoration:none;text-decoration-line:none;text-decoration-style:solid;text-decoration-color:#000000;letter-spacing:normal;word-spacing:normal;text-transform:none;writing-mode:lr-tb;direction:ltr;text-orientation:mixed;dominant-baseline:auto;baseline-shift:baseline;text-anchor:start;white-space:normal;shape-padding:0;shape-margin:0;inline-size:0;clip-rule:nonzero;display:inline;overflow:visible;visibility:visible;isolation:auto;mix-blend-mode:normal;color-interpolation:sRGB;color-interpolation-filters:linearRGB;solid-color:#000000;solid-opacity:1;vector-effect:none;fill:#000000;fill-opacity:1;fill-rule:nonzero;stroke-width:1;stroke-linecap:butt;stroke-linejoin:miter;stroke-miterlimit:4;stroke-dasharray:none;stroke-dashoffset:0;stroke-opacity:1;color-rendering:auto;image-rendering:auto;shape-rendering:auto;text-rendering:auto;enable-background:accumulate;stop-color:#000000;stop-opacity:1;stroke:none;opacity:1"
     d="m 488,224 c -3,-5 -32.61,-17.79 -32.61,-17.79 5.15,-2.66 8.67,-3.21 8.67,-14.21 0,-12 -0.06,-16 -8.06,-16 h -27.14 c -0.11,-0.24 -0.23,-0.49 -0.34,-0.74 C 411,137 408.65,127.33 382.52,114.31 347.47,96.88 281.76,96 256,96 c -25.76,0 -91.47,0.88 -126.49,18.31 -26.16,13 -25.51,19.69 -46,60.95 0,0.11 -0.21,0.4 -0.4,0.74 H 55.94 c -7.94,0 -8,4 -8,16 0,11 3.52,11.55 8.67,14.21 0,0 -28.61,13.79 -32.61,17.79 -4,4 -8,32 -8,80 0,48 4,96 4,96 h 11.94 c 0,14 2.06,16 8.06,16 h 80 c 6,0 8,-2 8,-16 h 256 c 0,14 2,16 8,16 h 82 c 4,0 6,-3 6,-16 h 12 c 0,0 4,-49 4,-96 0,-47 -5,-75 -8,-80 z M 125.26,268.94 C 107.04714,270.9311 88.74131,271.95254 70.42,272 50,272 49.3,273.31 47.86,260.56 47.318291,254.72428 47.489553,248.8443 48.37,243.05 L 49,240 h 3 c 12,0 23.27,0.51 44.55,6.78 10.82324,3.24768 21.00327,8.34276 30.09,15.06 C 131,265 132,268 132,268 Z m 247.16,72 L 368,352 H 144 c 0,0 0.39,-0.61 -5,-11.18 C 135,333 140,328 147.91,325.16 163.23,319.64 208,304 256,304 c 48,0 93.66,13.48 108.5,21.16 5.5,2.84 12.33,4.84 7.92,15.84 z m -257,-136.53 c -3.2301,0.18639 -6.46755,0.20975 -9.7,0.07 2.61,-4.64 4.06,-9.81 6.61,-15.21 8,-17 17.15,-36.24 33.44,-44.35 23.54,-11.72 72.33,-17 110.23,-17 37.9,0 86.69,5.24 110.23,17 16.29,8.11 25.4,27.36 33.44,44.35 2.57,5.45 4,10.66 6.68,15.33 -2,0.11 -4.3,0 -9.79,-0.19 z m 347.72,56.11 C 461,273 463,272 441.58,272 c -18.32131,-0.0475 -36.62714,-1.0689 -54.84,-3.06 -2.85,-0.51 -3.66,-5.32 -1.38,-7.1 9.04071,-6.79192 19.23456,-11.89393 30.09,-15.06 21.28,-6.27 33.26,-7.11 45.09,-6.69 1.6456,0.0627 2.97868,1.35697 3.09,3 0.56523,5.821 0.40062,11.68983 -0.49,17.47 z"
     id="path4" />
</svg>
