<?xml version="1.0" encoding="UTF-8" standalone="no"?>
<svg
   xmlns:dc="http://purl.org/dc/elements/1.1/"
   xmlns:cc="http://creativecommons.org/ns#"
   xmlns:rdf="http://www.w3.org/1999/02/22-rdf-syntax-ns#"
   xmlns:svg="http://www.w3.org/2000/svg"
   xmlns="http://www.w3.org/2000/svg"
   xmlns:sodipodi="http://sodipodi.sourceforge.net/DTD/sodipodi-0.dtd"
   xmlns:inkscape="http://www.inkscape.org/namespaces/inkscape"
   class="ionicon"
   viewBox="0 0 512 512"
   version="1.1"
   id="svg10"
   sodipodi:docname="car-outline.svg"
   inkscape:version="1.0.2 (e86c8708, 2021-01-15)">
  <metadata
     id="metadata16">
    <rdf:RDF>
      <cc:Work
         rdf:about="">
        <dc:format>image/svg+xml</dc:format>
        <dc:type
           rdf:resource="http://purl.org/dc/dcmitype/StillImage" />
      </cc:Work>
    </rdf:RDF>
  </metadata>
  <defs
     id="defs14" />
  <sodipodi:namedview
     pagecolor="#ffffff"
     bordercolor="#666666"
     borderopacity="1"
     objecttolerance="10"
     gridtolerance="10"
     guidetolerance="10"
     inkscape:pageopacity="0"
     inkscape:pageshadow="2"
     inkscape:window-width="689"
     inkscape:window-height="480"
     id="namedview12"
     showgrid="false"
     inkscape:zoom="1.3027344"
     inkscape:cx="256"
     inkscape:cy="256"
     inkscape:window-x="44"
     inkscape:window-y="25"
     inkscape:window-maximized="0"
     inkscape:current-layer="svg10" />
  <title
     id="title2">Car</title>
  <path
     style="color:#000000;font-style:normal;font-variant:normal;font-weight:normal;font-stretch:normal;font-size:medium;line-height:normal;font-family:sans-serif;font-variant-ligatures:normal;font-variant-position:normal;font-variant-caps:normal;font-variant-numeric:normal;font-variant-alternates:normal;font-variant-east-asian:normal;font-feature-settings:normal;font-variation-settings:normal;text-indent:0;text-align:start;text-decoration:none;text-decoration-line:none;text-decoration-style:solid;text-decoration-color:#000000;letter-spacing:normal;word-spacing:normal;text-transform:none;writing-mode:lr-tb;direction:ltr;text-orientation:mixed;dominant-baseline:auto;baseline-shift:baseline;text-anchor:start;white-space:normal;shape-padding:0;shape-margin:0;inline-size:0;clip-rule:nonzero;display:inline;overflow:visible;visibility:visible;isolation:auto;mix-blend-mode:normal;color-interpolation:sRGB;color-interpolation-filters:linearRGB;solid-color:#000000;solid-opacity:1;vector-effect:none;fill:currentColor;fill-opacity:1;fill-rule:nonzero;stroke:none;stroke-linecap:round;stroke-linejoin:round;stroke-miterlimit:4;stroke-dasharray:none;stroke-dashoffset:0;stroke-opacity:1;color-rendering:auto;image-rendering:auto;shape-rendering:auto;text-rendering:auto;enable-background:accumulate;stop-color:#000000;stop-opacity:1;opacity:1"
     d="M 157.10938 96 C 133.81221 96 112.09339 108.50214 103.07422 129.54688 L 65.292969 217.69727 A 16 16 0 0 0 65.222656 217.86719 A 16 16 0 0 0 65.097656 218.17773 A 16 16 0 0 0 64.978516 218.49219 A 16 16 0 0 0 64.888672 218.74219 A 16.0016 16.0016 0 0 0 64.84375 218.87891 A 16 16 0 0 0 64.779297 219.07227 A 16.0016 16.0016 0 0 0 64.75 219.16211 A 16 16 0 0 0 64.673828 219.40625 A 16.0016 16.0016 0 0 0 64.648438 219.49609 A 16 16 0 0 0 64.591797 219.6875 A 16.0016 16.0016 0 0 0 64.568359 219.77344 A 16 16 0 0 0 64.529297 219.92188 A 16.0016 16.0016 0 0 0 64.466797 220.16211 A 16 16 0 0 0 64.417969 220.36523 A 16.0016 16.0016 0 0 0 64.378906 220.53711 A 16 16 0 0 0 64.365234 220.60156 A 16.0016 16.0016 0 0 0 64.308594 220.88086 A 16 16 0 0 0 64.294922 220.94922 A 16.0016 16.0016 0 0 0 64.257812 221.14453 A 16 16 0 0 0 64.210938 221.41602 A 16 16 0 0 0 64.160156 221.74805 A 16 16 0 0 0 64.128906 221.98438 A 16.0016 16.0016 0 0 0 64.105469 222.17969 A 16 16 0 0 0 64.091797 222.28906 A 16.0016 16.0016 0 0 0 64.068359 222.53711 A 16 16 0 0 0 64.058594 222.63477 A 16.0016 16.0016 0 0 0 64.044922 222.81055 A 16 16 0 0 0 64.03125 222.99805 A 16.0016 16.0016 0 0 0 64.021484 223.17773 A 16 16 0 0 0 64.015625 223.30273 A 16.0016 16.0016 0 0 0 64.007812 223.54492 A 16 16 0 0 0 64.003906 223.63867 A 16.0016 16.0016 0 0 0 64.001953 223.83594 A 16 16 0 0 0 64 223.96289 A 16.0016 16.0016 0 0 0 64 224 L 64 368 L 64 400 A 16.0016 16.0016 0 0 0 80 416 L 112 416 A 16.0016 16.0016 0 0 0 128 400 L 128 384 L 384 384 L 384 400 A 16.0016 16.0016 0 0 0 400 416 L 432 416 A 16.0016 16.0016 0 0 0 448 400 L 448 368 L 448 224.1543 A 16 16 0 0 0 447.99805 223.8457 A 16.0016 16.0016 0 0 0 447.99805 223.81836 A 16 16 0 0 0 447.99609 223.66406 A 16.0016 16.0016 0 0 0 447.99414 223.60156 A 16 16 0 0 0 447.98828 223.4043 A 16.0016 16.0016 0 0 0 447.97656 223.14648 A 16.0016 16.0016 0 0 0 447.95508 222.81641 A 16.0016 16.0016 0 0 0 447.95508 222.81055 A 16 16 0 0 0 447.94336 222.65625 A 16.0016 16.0016 0 0 0 447.9375 222.58398 A 16 16 0 0 0 447.91992 222.4043 A 16.0016 16.0016 0 0 0 447.89062 222.14062 A 16.0016 16.0016 0 0 0 447.86328 221.91211 A 16 16 0 0 0 447.82617 221.6543 A 16 16 0 0 0 447.78125 221.37305 A 16 16 0 0 0 447.77344 221.32227 A 16.0016 16.0016 0 0 0 447.74219 221.14258 A 16 16 0 0 0 447.73633 221.10742 A 16.0016 16.0016 0 0 0 447.69727 220.90625 A 16 16 0 0 0 447.64648 220.66016 A 16 16 0 0 0 447.58789 220.39453 A 16 16 0 0 0 447.57422 220.33203 A 16.0016 16.0016 0 0 0 447.53125 220.15625 A 16 16 0 0 0 447.52734 220.14062 A 16.0016 16.0016 0 0 0 447.46289 219.88672 A 16.0016 16.0016 0 0 0 447.44727 219.83008 A 16 16 0 0 0 447.40625 219.68164 A 16.0016 16.0016 0 0 0 447.35547 219.50586 A 16 16 0 0 0 447.34766 219.48047 A 16.0016 16.0016 0 0 0 447.25977 219.19531 A 16.0016 16.0016 0 0 0 447.25781 219.18555 A 16 16 0 0 0 447.21094 219.03711 A 16.0016 16.0016 0 0 0 447.18555 218.96094 A 16 16 0 0 0 447.12109 218.77148 A 16 16 0 0 0 447.10352 218.71875 A 16.0016 16.0016 0 0 0 447.08203 218.65625 A 16 16 0 0 0 447.00195 218.44141 A 16 16 0 0 0 446.98828 218.40234 A 16.0016 16.0016 0 0 0 446.92383 218.23242 A 16 16 0 0 0 446.86719 218.08789 A 16.0016 16.0016 0 0 0 446.85938 218.07031 A 16 16 0 0 0 446.74023 217.77734 A 16 16 0 0 0 446.70703 217.69727 L 408.92578 129.54688 C 399.90661 108.50214 378.18779 96 354.89062 96 L 157.10938 96 z M 157.10938 128 L 354.89062 128 C 366.61346 128 376.23284 134.49708 379.51367 142.15234 L 407.73438 208 L 104.26562 208 L 132.48633 142.15234 C 135.76716 134.49708 145.38654 128 157.10938 128 z M 96 240 L 416 240 L 416 352 L 400 352 L 112 352 L 96 352 L 96 240 z "
     id="path4" />
  <path
     style="color:#000000;font-style:normal;font-variant:normal;font-weight:normal;font-stretch:normal;font-size:medium;line-height:normal;font-family:sans-serif;font-variant-ligatures:normal;font-variant-position:normal;font-variant-caps:normal;font-variant-numeric:normal;font-variant-alternates:normal;font-variant-east-asian:normal;font-feature-settings:normal;font-variation-settings:normal;text-indent:0;text-align:start;text-decoration:none;text-decoration-line:none;text-decoration-style:solid;text-decoration-color:#000000;letter-spacing:normal;word-spacing:normal;text-transform:none;writing-mode:lr-tb;direction:ltr;text-orientation:mixed;dominant-baseline:auto;baseline-shift:baseline;text-anchor:start;white-space:normal;shape-padding:0;shape-margin:0;inline-size:0;clip-rule:nonzero;display:inline;overflow:visible;visibility:visible;isolation:auto;mix-blend-mode:normal;color-interpolation:sRGB;color-interpolation-filters:linearRGB;solid-color:#000000;solid-opacity:1;vector-effect:none;fill:currentColor;fill-opacity:1;fill-rule:nonzero;stroke:none;stroke-linecap:round;stroke-linejoin:round;stroke-miterlimit:4;stroke-dasharray:none;stroke-dashoffset:0;stroke-opacity:1;color-rendering:auto;image-rendering:auto;shape-rendering:auto;text-rendering:auto;enable-background:accumulate;stop-color:#000000;stop-opacity:1;opacity:1"
     d="M 144 256 C 126.5164 256 112 270.5164 112 288 C 112 305.4836 126.5164 320 144 320 C 161.4836 320 176 305.4836 176 288 C 176 270.5164 161.4836 256 144 256 z "
     id="circle6" />
  <path
     style="color:#000000;font-style:normal;font-variant:normal;font-weight:normal;font-stretch:normal;font-size:medium;line-height:normal;font-family:sans-serif;font-variant-ligatures:normal;font-variant-position:normal;font-variant-caps:normal;font-variant-numeric:normal;font-variant-alternates:normal;font-variant-east-asian:normal;font-feature-settings:normal;font-variation-settings:normal;text-indent:0;text-align:start;text-decoration:none;text-decoration-line:none;text-decoration-style:solid;text-decoration-color:#000000;letter-spacing:normal;word-spacing:normal;text-transform:none;writing-mode:lr-tb;direction:ltr;text-orientation:mixed;dominant-baseline:auto;baseline-shift:baseline;text-anchor:start;white-space:normal;shape-padding:0;shape-margin:0;inline-size:0;clip-rule:nonzero;display:inline;overflow:visible;visibility:visible;isolation:auto;mix-blend-mode:normal;color-interpolation:sRGB;color-interpolation-filters:linearRGB;solid-color:#000000;solid-opacity:1;vector-effect:none;fill:currentColor;fill-opacity:1;fill-rule:nonzero;stroke:none;stroke-linecap:round;stroke-linejoin:round;stroke-miterlimit:4;stroke-dasharray:none;stroke-dashoffset:0;stroke-opacity:1;color-rendering:auto;image-rendering:auto;shape-rendering:auto;text-rendering:auto;enable-background:accumulate;stop-color:#000000;stop-opacity:1;opacity:1"
     d="M 368 256 C 350.5164 256 336 270.5164 336 288 C 336 305.4836 350.5164 320 368 320 C 385.4836 320 400 305.4836 400 288 C 400 270.5164 385.4836 256 368 256 z "
     id="circle8" />
</svg>
