<?xml version="1.0" encoding="UTF-8"?>
<svg width="512px" height="512px" viewBox="0 0 512 512" version="1.1" xmlns="http://www.w3.org/2000/svg" xmlns:xlink="http://www.w3.org/1999/xlink">
    <!-- Generator: Sketch 62 (91390) - https://sketch.com -->
    <title>Artboard</title>
    <desc>Created with Sketch.</desc>
    <g id="Artboard" stroke="none" stroke-width="1" fill="none" fill-rule="evenodd">
        <g id="card-outline" transform="translate(32.000000, 80.000000)" fill="#000000" fill-rule="nonzero">
            <path d="M376,0 C415.7,0 448,32.3 448,72 L448,280 C448,319.7 415.7,352 376,352 L72,352 C32.3,352 0,319.7 0,280 L0,72 C0,32.3 32.3,0 72,0 L376,0 Z M416,142 L32,142 L32,280 C32,302.1 49.9,320 72,320 L376,320 C398.1,320 416,302.1 416,280 L416,142 Z M144,190 C160.6,190 174,203.4 174,220 L174,240 C174,256.6 160.6,270 144,270 L96,270 C79.4,270 66,256.6 66,240 L66,220 C66,203.4 79.4,190 96,190 L144,190 Z M376,32 L72,32 C49.9,32 32,49.9 32,72 L32,82 L416,82 L416,72 C416,49.9 398.1,32 376,32 Z" id="Combined-Shape"></path>
        </g>
    </g>
</svg>