<?xml version="1.0" encoding="utf-8"?>
<!-- Generator: Adobe Illustrator 24.0.0, SVG Export Plug-In . SVG Version: 6.00 Build 0)  -->
<svg version="1.1" id="Layer_1" xmlns="http://www.w3.org/2000/svg" xmlns:xlink="http://www.w3.org/1999/xlink" x="0px" y="0px"
	 viewBox="0 0 512 512" style="enable-background:new 0 0 512 512;" xml:space="preserve">
<title>ionicons-v5-b</title>
<g>
	<path d="M342.4,273.8l-74.1-89.1c-5.7-6.8-15.7-7.7-22.5-2.1c-0.8,0.6-1.4,1.3-2.1,2.1l-74.1,89.1c-5.6,6.8-4.7,16.9,2.1,22.5
		c2.9,2.4,6.5,3.7,10.2,3.7h148.3c8.8,0,16-7.2,16-16C346.1,280.3,344.8,276.6,342.4,273.8z"/>
</g>
<g>
	<path d="M256,464c-114.7,0-208-93.3-208-208S141.3,48,256,48s208,93.3,208,208S370.7,464,256,464z M256,80c-97,0-176,79-176,176
		s79,176,176,176s176-79,176-176S353,80,256,80z"/>
</g>
</svg>
