<?xml version="1.0" encoding="utf-8"?>
<!-- Generator: Adobe Illustrator 24.0.0, SVG Export Plug-In . SVG Version: 6.00 Build 0)  -->
<svg version="1.1" id="Layer_1" xmlns="http://www.w3.org/2000/svg" xmlns:xlink="http://www.w3.org/1999/xlink" x="0px" y="0px"
	 viewBox="0 0 512 512" style="enable-background:new 0 0 512 512;" xml:space="preserve">
<title>ionicons-v5-b</title>
<g>
	<path d="M238.2,342.4l89.1-74.1c6.8-5.7,7.7-15.7,2.1-22.5c-0.6-0.8-1.3-1.4-2.1-2.1l-89.1-74.1c-6.8-5.6-16.9-4.7-22.5,2.1
		c-2.4,2.9-3.7,6.5-3.7,10.2v148.3c0,8.8,7.2,16,16,16C231.7,346.1,235.4,344.8,238.2,342.4z"/>
</g>
<g>
	<path d="M256,464c-114.7,0-208-93.3-208-208S141.3,48,256,48s208,93.3,208,208S370.7,464,256,464z M256,80c-97,0-176,79-176,176
		s79,176,176,176s176-79,176-176S353,80,256,80z"/>
</g>
</svg>
