<?xml version="1.0" encoding="utf-8"?>
<!-- Generator: Adobe Illustrator 24.0.0, SVG Export Plug-In . SVG Version: 6.00 Build 0)  -->
<svg version="1.1" id="Layer_1" xmlns="http://www.w3.org/2000/svg" xmlns:xlink="http://www.w3.org/1999/xlink" x="0px" y="0px"
	 viewBox="0 0 512 512" style="enable-background:new 0 0 512 512;" xml:space="preserve">
<title>ionicons-v5-d</title>
<g>
	<path d="M176,448c-17.6,0-32-14.4-32-32s14.4-32,32-32s32,14.4,32,32S193.6,448,176,448z M176,416C176,416,176,416,176,416L176,416
		z"/>
</g>
<g>
	<path d="M400,448c-17.6,0-32-14.4-32-32s14.4-32,32-32s32,14.4,32,32S417.6,448,400,448z M400,416C400,416,400,416,400,416L400,416
		z"/>
</g>
<g>
	<path d="M416,368H160c-7.8,0-14.4-5.6-15.8-13.2L98.6,96H48c-8.8,0-16-7.2-16-16s7.2-16,16-16h64c7.8,0,14.4,5.6,15.8,13.2
		L173.4,336H416c8.8,0,16,7.2,16,16S424.8,368,416,368z"/>
</g>
<g>
	<path d="M409.4,304C409.4,304,409.4,304,409.4,304H160c-8.8,0-16-7.2-16-16s7.2-16,16-16h242.9l25.6-128H128c-8.8,0-16-7.2-16-16
		s7.2-16,16-16h310.2c0,0,0,0,0,0c1.6,0,3.2,0.2,4.7,0.5c6.3,1.3,11.7,4.9,15.3,10.2c3.6,5.3,4.8,11.7,3.6,18l-28.8,144
		C430.7,295.9,420.8,304,409.4,304z M409.4,272L409.4,272C409.4,272,409.4,272,409.4,272z M438.2,144C438.2,144,438.3,144,438.2,144
		L438.2,144z"/>
</g>
</svg>
