<?xml version="1.0" encoding="UTF-8"?>
<svg width="512px" height="512px" viewBox="0 0 512 512" version="1.1" xmlns="http://www.w3.org/2000/svg" xmlns:xlink="http://www.w3.org/1999/xlink">
    <!-- Generator: Sketch 62 (91390) - https://sketch.com -->
    <title>Artboard</title>
    <desc>Created with Sketch.</desc>
    <g id="Artboard" stroke="none" stroke-width="1" fill="none" fill-rule="evenodd">
        <g id="cash-outline" transform="translate(16.000000, 64.000000)" fill="#000000" fill-rule="nonzero">
            <path d="M400,352 C408.8,352 416,359.2 416,368 C416,376.8 408.8,384 400,384 L80,384 C71.2,384 64,376.8 64,368 C64,359.2 71.2,352 80,352 L400,352 Z M432,304 C440.8,304 448,311.2 448,320 C448,328.8 440.8,336 432,336 L48,336 C39.2,336 32,328.8 32,320 C32,311.2 39.2,304 48,304 L432,304 Z M32,288 C14.4,288 0,273.6 0,256 L0,32 C0,14.4 14.4,0 32,0 L448,0 C465.6,0 480,14.4 480,32 L480,256 C480,273.6 465.6,288 448,288 L32,288 Z M32.0013962,210.023479 L32,256 L77.9767784,255.999603 C72.1779313,233.537237 54.4636211,215.82268 32.0013962,210.023479 Z M402.023222,255.999603 L448,256 L448,256 L447.999603,210.023222 C425.536904,215.822155 407.822155,233.536904 402.023222,255.999603 Z M369.335998,32.0016122 L110.664002,32.0016122 C103.893745,72.1177172 72.1177172,103.893745 32.0016122,110.664002 L32.0016122,177.335998 C72.1180509,184.106312 103.894273,215.882812 110.664171,255.999389 L369.335829,255.999389 C376.105783,215.882478 407.882478,184.105783 447.999389,177.335829 L447.999389,110.664171 C407.882812,103.894273 376.106312,72.1180509 369.335998,32.0016122 Z M240,48 C292.9,48 336,91.1 336,144 C336,196.9 292.9,240 240,240 C187.1,240 144,196.9 144,144 C144,91.1 187.1,48 240,48 Z M240,80 C204.7,80 176,108.7 176,144 C176,179.3 204.7,208 240,208 C275.3,208 304,179.3 304,144 C304,108.7 275.3,80 240,80 Z M448,32 L402.023479,32.0013962 C407.82268,54.4636211 425.537237,72.1779313 447.999603,77.9767784 L448,32 Z M77.9765205,32.0013962 L32,32 L32.0013962,77.9765205 C54.4632882,72.1774062 72.1774062,54.4632882 77.9765205,32.0013962 Z" id="Combined-Shape"></path>
        </g>
    </g>
</svg>