<?xml version="1.0" encoding="utf-8"?>
<!-- Generator: Adobe Illustrator 24.0.0, SVG Export Plug-In . SVG Version: 6.00 Build 0)  -->
<svg version="1.1" id="Layer_1" xmlns="http://www.w3.org/2000/svg" xmlns:xlink="http://www.w3.org/1999/xlink" x="0px" y="0px"
	 viewBox="0 0 512 512" style="enable-background:new 0 0 512 512;" xml:space="preserve">
<title>ionicons-v5-l</title>
<g>
	<path d="M472,432h-48c-13.2,0-24-10.8-24-24V104c0-13.2,10.8-24,24-24h48c13.2,0,24,10.8,24,24v304C496,421.2,485.2,432,472,432z
		 M432,400h32V112h-32V400z"/>
</g>
<g>
	<path d="M344,432h-48c-13.2,0-24-10.8-24-24V184c0-13.2,10.8-24,24-24h48c13.2,0,24,10.8,24,24v224C368,421.2,357.2,432,344,432z
		 M304,400h32V192h-32V400z"/>
</g>
<g>
	<path d="M216,432h-48c-13.2,0-24-10.8-24-24V248c0-13.2,10.8-24,24-24h48c13.2,0,24,10.8,24,24v160C240,421.2,229.2,432,216,432z
		 M176,400h32V256h-32V400z"/>
</g>
<g>
	<path d="M88,432H40c-13.2,0-24-10.8-24-24v-96c0-13.2,10.8-24,24-24h48c13.2,0,24,10.8,24,24v96C112,421.2,101.2,432,88,432z
		 M48,400h32v-80H48V400z"/>
</g>
</svg>
