<?xml version="1.0" encoding="UTF-8" standalone="no"?>
<svg
   xmlns:dc="http://purl.org/dc/elements/1.1/"
   xmlns:cc="http://creativecommons.org/ns#"
   xmlns:rdf="http://www.w3.org/1999/02/22-rdf-syntax-ns#"
   xmlns:svg="http://www.w3.org/2000/svg"
   xmlns="http://www.w3.org/2000/svg"
   xmlns:sodipodi="http://sodipodi.sourceforge.net/DTD/sodipodi-0.dtd"
   xmlns:inkscape="http://www.inkscape.org/namespaces/inkscape"
   class="ionicon"
   viewBox="0 0 512 512"
   version="1.1"
   id="svg8"
   sodipodi:docname="chatbubbles.svg"
   inkscape:version="1.0.2 (e86c8708, 2021-01-15)">
  <metadata
     id="metadata14">
    <rdf:RDF>
      <cc:Work
         rdf:about="">
        <dc:format>image/svg+xml</dc:format>
        <dc:type
           rdf:resource="http://purl.org/dc/dcmitype/StillImage" />
      </cc:Work>
    </rdf:RDF>
  </metadata>
  <defs
     id="defs12" />
  <sodipodi:namedview
     pagecolor="#ffffff"
     bordercolor="#666666"
     borderopacity="1"
     objecttolerance="10"
     gridtolerance="10"
     guidetolerance="10"
     inkscape:pageopacity="0"
     inkscape:pageshadow="2"
     inkscape:window-width="689"
     inkscape:window-height="480"
     id="namedview10"
     showgrid="false"
     inkscape:zoom="1.3027344"
     inkscape:cx="256"
     inkscape:cy="256"
     inkscape:window-x="44"
     inkscape:window-y="25"
     inkscape:window-maximized="0"
     inkscape:current-layer="svg8" />
  <title
     id="title2">Chatbubbles</title>
  <path
     style="color:#000000;font-style:normal;font-variant:normal;font-weight:normal;font-stretch:normal;font-size:medium;line-height:normal;font-family:sans-serif;font-variant-ligatures:normal;font-variant-position:normal;font-variant-caps:normal;font-variant-numeric:normal;font-variant-alternates:normal;font-variant-east-asian:normal;font-feature-settings:normal;font-variation-settings:normal;text-indent:0;text-align:start;text-decoration:none;text-decoration-line:none;text-decoration-style:solid;text-decoration-color:#000000;letter-spacing:normal;word-spacing:normal;text-transform:none;writing-mode:lr-tb;direction:ltr;text-orientation:mixed;dominant-baseline:auto;baseline-shift:baseline;text-anchor:start;white-space:normal;shape-padding:0;shape-margin:0;inline-size:0;clip-rule:nonzero;display:inline;overflow:visible;visibility:visible;isolation:auto;mix-blend-mode:normal;color-interpolation:sRGB;color-interpolation-filters:linearRGB;solid-color:#000000;solid-opacity:1;vector-effect:none;fill:#000000;fill-opacity:1;fill-rule:nonzero;stroke-width:1;stroke-linecap:butt;stroke-linejoin:miter;stroke-miterlimit:4;stroke-dasharray:none;stroke-dashoffset:0;stroke-opacity:1;color-rendering:auto;image-rendering:auto;shape-rendering:auto;text-rendering:auto;enable-background:accumulate;stop-color:#000000;stop-opacity:1;stroke:none;opacity:1"
     d="m 60.44,389.17 c 0,0.07 0,0.2 -0.08,0.38 0.03,-0.12 0.05,-0.25 0.08,-0.38 z M 439.9,405.6 c -3.29247,-0.0711 -6.54357,-0.74913 -9.59,-2 l -56.78,-20.13 -0.42,-0.17 c -1.23822,-0.51615 -2.56859,-0.77474 -3.91,-0.76 -1.23646,0.001 -2.46261,0.22492 -3.62,0.66 -1.38,0.52 -13.81,5.19 -26.85,8.77 -7.07,1.94 -31.68,8.27 -51.43,8.27 -50.48,0 -97.68,-19.4 -132.89,-54.63 -34.74362,-34.53037 -54.22812,-81.5258 -54.11,-130.51 -4.1e-4,-12.63613 1.36078,-25.23553 4.06,-37.58 8.79,-40.62 32.07,-77.57 65.55,-104 C 204.25354,46.580352 246.65115,31.958301 290.3,32 c 52.21,0 100.86,20 137,56.18 34.16,34.27 52.88,79.33 52.73,126.87 -0.0295,35.32566 -10.57777,69.84238 -30.3,99.15 l -0.19,0.28 -0.74,1 c -0.17,0.23 -0.34,0.45 -0.5,0.68 l -0.15,0.27 c -0.39765,0.67656 -0.75818,1.37426 -1.08,2.09 l 15.74,55.94 c 0.69593,2.30781 1.07276,4.7 1.12,7.11 0.0166,13.27828 -10.75172,24.04661 -24.03,24.03 z"
     id="path4" />
  <path
     style="color:#000000;font-style:normal;font-variant:normal;font-weight:normal;font-stretch:normal;font-size:medium;line-height:normal;font-family:sans-serif;font-variant-ligatures:normal;font-variant-position:normal;font-variant-caps:normal;font-variant-numeric:normal;font-variant-alternates:normal;font-variant-east-asian:normal;font-feature-settings:normal;font-variation-settings:normal;text-indent:0;text-align:start;text-decoration:none;text-decoration-line:none;text-decoration-style:solid;text-decoration-color:#000000;letter-spacing:normal;word-spacing:normal;text-transform:none;writing-mode:lr-tb;direction:ltr;text-orientation:mixed;dominant-baseline:auto;baseline-shift:baseline;text-anchor:start;white-space:normal;shape-padding:0;shape-margin:0;inline-size:0;clip-rule:nonzero;display:inline;overflow:visible;visibility:visible;isolation:auto;mix-blend-mode:normal;color-interpolation:sRGB;color-interpolation-filters:linearRGB;solid-color:#000000;solid-opacity:1;vector-effect:none;fill:#000000;fill-opacity:1;fill-rule:nonzero;stroke-width:1;stroke-linecap:butt;stroke-linejoin:miter;stroke-miterlimit:4;stroke-dasharray:none;stroke-dashoffset:0;stroke-opacity:1;color-rendering:auto;image-rendering:auto;shape-rendering:auto;text-rendering:auto;enable-background:accumulate;stop-color:#000000;stop-opacity:1;stroke:none;opacity:1"
     d="m 299.87,425.39 c -2.09068,-4.06644 -5.84631,-7.02276 -10.29,-8.1 -5.78,-1.53 -12.52,-1.27 -17.67,-1.65 C 223.2834,412.25902 177.52436,391.39003 143.09,356.89 112.47743,326.4488 92.582341,286.88674 86.4,244.16 85,234.42 85,232 85,232 c -0.0028,-14.74157 -18.249368,-21.63618 -28,-10.58 0,0 -7.88,8.58 -11.6,17.19 -21.177739,48.79484 -17.066839,104.87499 11,150.06 2.6,4.33 2.6,6.33 2.02,10.83 -2.73,14.11 -7.51,39 -10,51.91 -1.67872,8.52486 1.381131,17.29133 8,22.92 l 0.46,0.39 c 4.300095,3.41521 9.628693,5.27599 15.12,5.28 3.088684,0.003 6.147385,-0.6057 9,-1.79 l 53.51,-20.65 c 1.84237,-0.70024 3.87763,-0.70024 5.72,0 21.07,7.84 43,12 63.78,12 25.89146,0.0243 51.4694,-5.66424 74.91,-16.66 5.46,-2.56 14,-5.34 19,-11.12 3.86763,-4.58245 4.63449,-11.02802 1.95,-16.39 z"
     id="path6" />
</svg>
