<?xml version="1.0" encoding="UTF-8" standalone="no"?>
<svg
   xmlns:dc="http://purl.org/dc/elements/1.1/"
   xmlns:cc="http://creativecommons.org/ns#"
   xmlns:rdf="http://www.w3.org/1999/02/22-rdf-syntax-ns#"
   xmlns:svg="http://www.w3.org/2000/svg"
   xmlns="http://www.w3.org/2000/svg"
   xmlns:sodipodi="http://sodipodi.sourceforge.net/DTD/sodipodi-0.dtd"
   xmlns:inkscape="http://www.inkscape.org/namespaces/inkscape"
   class="ionicon"
   viewBox="0 0 512 512"
   version="1.1"
   id="svg6"
   sodipodi:docname="chatbubble.svg"
   inkscape:version="1.0.2 (e86c8708, 2021-01-15)">
  <metadata
     id="metadata12">
    <rdf:RDF>
      <cc:Work
         rdf:about="">
        <dc:format>image/svg+xml</dc:format>
        <dc:type
           rdf:resource="http://purl.org/dc/dcmitype/StillImage" />
      </cc:Work>
    </rdf:RDF>
  </metadata>
  <defs
     id="defs10" />
  <sodipodi:namedview
     pagecolor="#ffffff"
     bordercolor="#666666"
     borderopacity="1"
     objecttolerance="10"
     gridtolerance="10"
     guidetolerance="10"
     inkscape:pageopacity="0"
     inkscape:pageshadow="2"
     inkscape:window-width="689"
     inkscape:window-height="480"
     id="namedview8"
     showgrid="false"
     inkscape:zoom="1.3027344"
     inkscape:cx="256"
     inkscape:cy="256"
     inkscape:window-x="44"
     inkscape:window-y="25"
     inkscape:window-maximized="0"
     inkscape:current-layer="svg6" />
  <title
     id="title2">Chatbubble</title>
  <path
     style="color:#000000;font-style:normal;font-variant:normal;font-weight:normal;font-stretch:normal;font-size:medium;line-height:normal;font-family:sans-serif;font-variant-ligatures:normal;font-variant-position:normal;font-variant-caps:normal;font-variant-numeric:normal;font-variant-alternates:normal;font-variant-east-asian:normal;font-feature-settings:normal;font-variation-settings:normal;text-indent:0;text-align:start;text-decoration:none;text-decoration-line:none;text-decoration-style:solid;text-decoration-color:#000000;letter-spacing:normal;word-spacing:normal;text-transform:none;writing-mode:lr-tb;direction:ltr;text-orientation:mixed;dominant-baseline:auto;baseline-shift:baseline;text-anchor:start;white-space:normal;shape-padding:0;shape-margin:0;inline-size:0;clip-rule:nonzero;display:inline;overflow:visible;visibility:visible;isolation:auto;mix-blend-mode:normal;color-interpolation:sRGB;color-interpolation-filters:linearRGB;solid-color:#000000;solid-opacity:1;vector-effect:none;fill:#000000;fill-opacity:1;fill-rule:nonzero;stroke-width:1;stroke-linecap:butt;stroke-linejoin:miter;stroke-miterlimit:4;stroke-dasharray:none;stroke-dashoffset:0;stroke-opacity:1;color-rendering:auto;image-rendering:auto;shape-rendering:auto;text-rendering:auto;enable-background:accumulate;stop-color:#000000;stop-opacity:1;stroke:none;opacity:1"
     d="m 76.83,480 c -14.16084,-0.0661 -25.597716,-11.57903 -25.57,-25.74 0.05955,-2.58532 0.463097,-5.15121 1.2,-7.63 L 70.88,380 c 0.77,-2.46 -0.1,-4.94 -1.23,-6.9 l -0.22,-0.4 c -0.08,-0.13 -0.46,-0.66 -0.73,-1.05 -0.27,-0.39 -0.58,-0.81 -0.86,-1.22 l -0.19,-0.27 C 44.391554,334.90823 31.995525,293.6032 32,251.37 31.82,193.78 54.35,139.37 95.46,98.09 138,55.47 194.9,32 255.82,32 307.49986,31.974466 357.64699,49.553119 398,81.84 c 39.45,31.75 66.87,76 77.21,124.68 3.18301,14.78831 4.78534,29.87302 4.78,45 0,58.93 -22.64,114.28 -63.76,155.87 -41.48,42 -97.18,65.06 -156.83,65.06 -21,0 -47.87,-5.36 -60.77,-9 -15.52,-4.34 -30.23,-10 -31.85,-10.6 -1.71445,-0.65658 -3.53413,-0.99544 -5.37,-1 -1.99114,-0.0121 -3.96411,0.37911 -5.8,1.15 l -0.85,0.33 -67.48,24.38 c -3.314246,1.39513 -6.856044,2.17127 -10.45,2.29 z m -2,-31.8 z M 87.48,380 Z"
     id="path4" />
</svg>
