<?xml version="1.0" encoding="utf-8"?>
<!-- Generator: Adobe Illustrator 24.0.0, SVG Export Plug-In . SVG Version: 6.00 Build 0)  -->
<svg version="1.1" id="Layer_1" xmlns="http://www.w3.org/2000/svg" xmlns:xlink="http://www.w3.org/1999/xlink" x="0px" y="0px"
	 viewBox="0 0 512 512" style="enable-background:new 0 0 512 512;" xml:space="preserve">
<title>ionicons-v5-s</title>
<g>
	<path d="M77.6,480l-0.9,0c-6.8,0-13.3-2.7-18.1-7.6c-4.8-4.8-7.5-11.3-7.4-18.1l0-1.3c0.2-2.2,0.6-4.4,1.2-6.5l19.2-69.3
		c-0.3-0.8-0.8-2.2-1.9-4.1c-0.5-0.8-1-1.6-1.6-2.3l-0.5-0.8C44.3,334.8,32,293.7,32,251.3c-0.2-57.6,22.4-112,63.5-153.3
		C138,55.5,194.9,32,255.8,32c51.8,0,102.3,17.7,142.2,49.8c39.5,31.8,66.9,76,77.2,124.7c3.2,14.7,4.8,29.9,4.8,45
		c0,58.9-22.6,114.3-63.8,155.9c-41.5,42-97.2,65.1-156.8,65.1c-21.1,0-47.9-5.4-60.8-9c-15.8-4.4-31.2-10.3-31.8-10.6
		c-1.7-0.7-3.5-1-5.4-1c-2,0-4,0.4-5.8,1.2l-0.8,0.3l-67.5,24.3c-2.8,1.2-5.8,1.9-8.8,2.2L77.6,480z M94.1,352.2
		c1.1,1.5,2.2,3.1,3.1,4.7l0.2,0.3c5.8,10.1,7.6,19.2,5.5,27l0,0.1L86.4,444l57.1-20.6c5.7-2.4,11.7-3.6,17.9-3.5
		c5.7,0,11.4,1.1,16.8,3.1c0.6,0.2,14.6,5.6,29,9.6c13.5,3.8,36.3,7.8,52.2,7.8c51,0,98.7-19.7,134.1-55.6
		c35.2-35.6,54.5-82.9,54.5-133.4c0-12.8-1.4-25.7-4.1-38.3c-8.8-41.5-32.2-79.3-66-106.4C343.7,79.2,300.3,64,255.8,64
		c-52.4,0-101.3,20.1-137.7,56.7C83.1,155.8,63.8,202.2,64,251.3C64,287.3,74.4,322.1,94.1,352.2z M87.5,380L87.5,380L87.5,380z"/>
</g>
</svg>
