<?xml version="1.0" encoding="utf-8"?>
<!-- Generator: Adobe Illustrator 24.0.0, SVG Export Plug-In . SVG Version: 6.00 Build 0)  -->
<svg version="1.1" id="Layer_1" xmlns="http://www.w3.org/2000/svg" xmlns:xlink="http://www.w3.org/1999/xlink" x="0px" y="0px"
	 viewBox="0 0 512 512" style="enable-background:new 0 0 512 512;" xml:space="preserve">
<title>ionicons-v5-l</title>
<g>
	<path d="M439.9,405.6h-0.8l-0.8-0.1c-2.7-0.3-5.4-0.9-8-2l-56.7-20.1l-0.4-0.2c-1.2-0.5-2.5-0.8-3.9-0.8c-1.3,0-2.5,0.2-3.7,0.7
		c-1.3,0.5-13.8,5.2-26.8,8.8c-7.1,1.9-31.7,8.3-51.4,8.3c-50.5,0-97.7-19.4-132.9-54.6c-34.9-34.9-54.1-81.2-54.1-130.5
		c0-12.6,1.4-25.3,4.1-37.6c8.8-40.6,32.1-77.5,65.5-104C203.7,46.7,246.5,32,290.3,32c52.2,0,100.9,20,137,56.2
		c34.2,34.3,52.9,79.3,52.7,126.9c0,35.4-10.5,69.7-30.3,99.2l-0.5,0.8c-0.4,0.5-0.7,1-1.1,1.5c-0.5,0.8-0.8,1.5-1,2l15.7,55.9
		c0.6,1.9,0.9,3.9,1.1,5.9l0,1.2C463.9,394.8,453.1,405.6,439.9,405.6z M432.1,383.5L432.1,383.5L432.1,383.5z M385,353.5l42.9,15.2
		l-12.3-43.9c-2-7.3-0.4-15.5,4.9-24.5l0.1-0.2c0.9-1.4,1.8-2.8,2.8-4.2c16.1-24.1,24.6-52.1,24.6-81c0.1-39-15.3-76-43.4-104.2
		C374.5,80.6,333.9,64,290.3,64c-36.6,0-72.3,12.3-100.5,34.6c-27.7,21.9-46.9,52.3-54.1,85.7c-2.2,10.1-3.3,20.5-3.3,30.8
		c0,40.7,15.9,79,44.7,107.8c29.2,29.2,68.3,45.2,110.3,45.2c12.5,0,31-3.8,43-7.1c11.8-3.2,23.5-7.6,24-7.8c4.8-1.8,9.8-2.7,15-2.7
		C374.6,350.5,379.9,351.5,385,353.5z"/>
</g>
<g>
	<path d="M71.9,480c-5.5,0-10.8-1.9-15.1-5.3l-0.3-0.2c-6.7-5.6-9.8-14.5-8.1-23c2.9-14.9,8.9-46.2,11.1-57.8c0,0,0,0,0-0.1
		c-16.7-24.8-26.1-53.8-27.4-83.6c-1.3-29.9,5.8-59.5,20.3-85.7c4.3-7.7,14-10.5,21.8-6.2c7.7,4.3,10.5,14,6.2,21.8
		c-23.9,43-21.8,95.1,5.7,136l0.1,0.1c3.7,5.6,7.2,12.3,5.5,20.2c-0.4,2-5,25.7-9.1,47.2l42.7-16.7c7.7-3,16.2-2.9,23.9,0.3
		c18.2,7.1,37.2,10.8,54.8,10.8c0.1,0,0.1,0,0.2,0c25.2,0,50.1-6.7,71.9-19.3c7.6-4.4,17.4-1.8,21.9,5.8c4.4,7.6,1.8,17.4-5.8,21.9
		c-26.7,15.5-57.1,23.6-87.9,23.6c-0.1,0-0.1,0-0.2,0c-21.6,0-44.6-4.5-66.6-13.1l-0.4-0.2l-55.9,21.9c-2.8,1.2-5.8,1.8-8.9,1.8
		C72,480,72,480,71.9,480z M79.9,457.5C79.9,457.5,79.8,457.5,79.9,457.5C79.8,457.5,79.9,457.5,79.9,457.5z M60.4,389.2
		c0,0.1,0,0.2-0.1,0.3C60.4,389.4,60.4,389.3,60.4,389.2z"/>
</g>
</svg>
