<?xml version="1.0" encoding="UTF-8" standalone="no"?>
<svg
   xmlns:dc="http://purl.org/dc/elements/1.1/"
   xmlns:cc="http://creativecommons.org/ns#"
   xmlns:rdf="http://www.w3.org/1999/02/22-rdf-syntax-ns#"
   xmlns:svg="http://www.w3.org/2000/svg"
   xmlns="http://www.w3.org/2000/svg"
   xmlns:sodipodi="http://sodipodi.sourceforge.net/DTD/sodipodi-0.dtd"
   xmlns:inkscape="http://www.inkscape.org/namespaces/inkscape"
   class="ionicon"
   viewBox="0 0 512 512"
   version="1.1"
   id="svg12"
   sodipodi:docname="chatbox-ellipses-outline.svg"
   inkscape:version="1.0.2 (e86c8708, 2021-01-15)">
  <metadata
     id="metadata18">
    <rdf:RDF>
      <cc:Work
         rdf:about="">
        <dc:format>image/svg+xml</dc:format>
        <dc:type
           rdf:resource="http://purl.org/dc/dcmitype/StillImage" />
      </cc:Work>
    </rdf:RDF>
  </metadata>
  <defs
     id="defs16" />
  <sodipodi:namedview
     pagecolor="#ffffff"
     bordercolor="#666666"
     borderopacity="1"
     objecttolerance="10"
     gridtolerance="10"
     guidetolerance="10"
     inkscape:pageopacity="0"
     inkscape:pageshadow="2"
     inkscape:window-width="689"
     inkscape:window-height="480"
     id="namedview14"
     showgrid="false"
     inkscape:zoom="1.3027344"
     inkscape:cx="256"
     inkscape:cy="256"
     inkscape:window-x="44"
     inkscape:window-y="25"
     inkscape:window-maximized="0"
     inkscape:current-layer="svg12" />
  <title
     id="title2">Chatbox Ellipses</title>
  <path
     style="color:#000000;font-style:normal;font-variant:normal;font-weight:normal;font-stretch:normal;font-size:medium;line-height:normal;font-family:sans-serif;font-variant-ligatures:normal;font-variant-position:normal;font-variant-caps:normal;font-variant-numeric:normal;font-variant-alternates:normal;font-variant-east-asian:normal;font-feature-settings:normal;font-variation-settings:normal;text-indent:0;text-align:start;text-decoration:none;text-decoration-line:none;text-decoration-style:solid;text-decoration-color:#000000;letter-spacing:normal;word-spacing:normal;text-transform:none;writing-mode:lr-tb;direction:ltr;text-orientation:mixed;dominant-baseline:auto;baseline-shift:baseline;text-anchor:start;white-space:normal;shape-padding:0;shape-margin:0;inline-size:0;clip-rule:nonzero;display:inline;overflow:visible;visibility:visible;isolation:auto;mix-blend-mode:normal;color-interpolation:sRGB;color-interpolation-filters:linearRGB;solid-color:#000000;solid-opacity:1;vector-effect:none;fill:currentColor;fill-opacity:1;fill-rule:nonzero;stroke:none;stroke-linecap:butt;stroke-linejoin:round;stroke-miterlimit:4;stroke-dasharray:none;stroke-dashoffset:0;stroke-opacity:1;color-rendering:auto;image-rendering:auto;shape-rendering:auto;text-rendering:auto;enable-background:accumulate;stop-color:#000000;stop-opacity:1;opacity:1"
     d="M 103.95508 48 C 64.448791 48.112394 32.112394 80.448791 32 119.95508 A 16.0016 16.0016 0 0 0 32 120 L 32 312 A 16.0016 16.0016 0 0 0 32 312.04492 C 32.112394 351.55121 64.448791 383.88761 103.95508 384 A 16.0016 16.0016 0 0 0 104 384 L 128 384 L 128 448 A 16.0016 16.0016 0 0 0 154.24609 460.28906 L 245.74609 384 L 408 384 A 16.0016 16.0016 0 0 0 408.04492 384 C 447.55121 383.88761 479.88761 351.55121 480 312.04492 A 16.0016 16.0016 0 0 0 480 312 L 480 120 A 16.0016 16.0016 0 0 0 480 119.95508 C 479.88761 80.448791 447.55121 48.112394 408.04492 48 A 16.0016 16.0016 0 0 0 408 48 L 104 48 A 16.0016 16.0016 0 0 0 103.95508 48 z M 104.04492 80 L 407.95508 80 C 430.23173 80.063376 447.93662 97.76827 448 120.04492 L 448 311.95508 C 447.93662 334.23173 430.23173 351.93662 407.95508 352 L 242.85352 352 L 242.84961 352 C 237.23405 351.99979 231.78668 353.97336 227.47461 357.57031 L 160 413.82812 L 160 368 A 16.0016 16.0016 0 0 0 144 352 L 104.04492 352 C 81.76827 351.93662 64.063376 334.23173 64 311.95508 L 64 120.04492 C 64.063376 97.76827 81.76827 80.063376 104.04492 80 z "
     id="path4" />
  <path
     style="color:#000000;font-style:normal;font-variant:normal;font-weight:normal;font-stretch:normal;font-size:medium;line-height:normal;font-family:sans-serif;font-variant-ligatures:normal;font-variant-position:normal;font-variant-caps:normal;font-variant-numeric:normal;font-variant-alternates:normal;font-variant-east-asian:normal;font-feature-settings:normal;font-variation-settings:normal;text-indent:0;text-align:start;text-decoration:none;text-decoration-line:none;text-decoration-style:solid;text-decoration-color:#000000;letter-spacing:normal;word-spacing:normal;text-transform:none;writing-mode:lr-tb;direction:ltr;text-orientation:mixed;dominant-baseline:auto;baseline-shift:baseline;text-anchor:start;white-space:normal;shape-padding:0;shape-margin:0;inline-size:0;clip-rule:nonzero;display:inline;overflow:visible;visibility:visible;isolation:auto;mix-blend-mode:normal;color-interpolation:sRGB;color-interpolation-filters:linearRGB;solid-color:#000000;solid-opacity:1;vector-effect:none;fill:#000000;fill-opacity:1;fill-rule:nonzero;stroke-width:1;stroke-linecap:butt;stroke-linejoin:miter;stroke-miterlimit:4;stroke-dasharray:none;stroke-dashoffset:0;stroke-opacity:1;color-rendering:auto;image-rendering:auto;shape-rendering:auto;text-rendering:auto;enable-background:accumulate;stop-color:#000000;stop-opacity:1;stroke:none;opacity:1"
     d="m 192,216 c 0,17.67311 -14.32689,32 -32,32 -17.67311,0 -32,-14.32689 -32,-32 0,-17.67311 14.32689,-32 32,-32 17.67311,0 32,14.32689 32,32 z"
     id="circle6" />
  <path
     style="color:#000000;font-style:normal;font-variant:normal;font-weight:normal;font-stretch:normal;font-size:medium;line-height:normal;font-family:sans-serif;font-variant-ligatures:normal;font-variant-position:normal;font-variant-caps:normal;font-variant-numeric:normal;font-variant-alternates:normal;font-variant-east-asian:normal;font-feature-settings:normal;font-variation-settings:normal;text-indent:0;text-align:start;text-decoration:none;text-decoration-line:none;text-decoration-style:solid;text-decoration-color:#000000;letter-spacing:normal;word-spacing:normal;text-transform:none;writing-mode:lr-tb;direction:ltr;text-orientation:mixed;dominant-baseline:auto;baseline-shift:baseline;text-anchor:start;white-space:normal;shape-padding:0;shape-margin:0;inline-size:0;clip-rule:nonzero;display:inline;overflow:visible;visibility:visible;isolation:auto;mix-blend-mode:normal;color-interpolation:sRGB;color-interpolation-filters:linearRGB;solid-color:#000000;solid-opacity:1;vector-effect:none;fill:#000000;fill-opacity:1;fill-rule:nonzero;stroke-width:1;stroke-linecap:butt;stroke-linejoin:miter;stroke-miterlimit:4;stroke-dasharray:none;stroke-dashoffset:0;stroke-opacity:1;color-rendering:auto;image-rendering:auto;shape-rendering:auto;text-rendering:auto;enable-background:accumulate;stop-color:#000000;stop-opacity:1;stroke:none;opacity:1"
     d="m 288,216 c 0,17.67311 -14.32689,32 -32,32 -17.67311,0 -32,-14.32689 -32,-32 0,-17.67311 14.32689,-32 32,-32 17.67311,0 32,14.32689 32,32 z"
     id="circle8" />
  <path
     style="color:#000000;font-style:normal;font-variant:normal;font-weight:normal;font-stretch:normal;font-size:medium;line-height:normal;font-family:sans-serif;font-variant-ligatures:normal;font-variant-position:normal;font-variant-caps:normal;font-variant-numeric:normal;font-variant-alternates:normal;font-variant-east-asian:normal;font-feature-settings:normal;font-variation-settings:normal;text-indent:0;text-align:start;text-decoration:none;text-decoration-line:none;text-decoration-style:solid;text-decoration-color:#000000;letter-spacing:normal;word-spacing:normal;text-transform:none;writing-mode:lr-tb;direction:ltr;text-orientation:mixed;dominant-baseline:auto;baseline-shift:baseline;text-anchor:start;white-space:normal;shape-padding:0;shape-margin:0;inline-size:0;clip-rule:nonzero;display:inline;overflow:visible;visibility:visible;isolation:auto;mix-blend-mode:normal;color-interpolation:sRGB;color-interpolation-filters:linearRGB;solid-color:#000000;solid-opacity:1;vector-effect:none;fill:#000000;fill-opacity:1;fill-rule:nonzero;stroke-width:1;stroke-linecap:butt;stroke-linejoin:miter;stroke-miterlimit:4;stroke-dasharray:none;stroke-dashoffset:0;stroke-opacity:1;color-rendering:auto;image-rendering:auto;shape-rendering:auto;text-rendering:auto;enable-background:accumulate;stop-color:#000000;stop-opacity:1;stroke:none;opacity:1"
     d="m 384,216 c 0,17.67311 -14.32689,32 -32,32 -17.67311,0 -32,-14.32689 -32,-32 0,-17.67311 14.32689,-32 32,-32 17.67311,0 32,14.32689 32,32 z"
     id="circle10" />
</svg>
