<?xml version="1.0" encoding="utf-8"?>
<!-- Generator: Adobe Illustrator 24.0.0, SVG Export Plug-In . SVG Version: 6.00 Build 0)  -->
<svg version="1.1" id="Layer_1" xmlns="http://www.w3.org/2000/svg" xmlns:xlink="http://www.w3.org/1999/xlink" x="0px" y="0px"
	 viewBox="0 0 512 512" style="enable-background:new 0 0 512 512;" xml:space="preserve">
<title>ionicons-v5-q</title>
<g>
	<path d="M144,464c-2.3,0-4.6-0.5-6.8-1.5c-5.6-2.6-9.2-8.3-9.2-14.5v-64h-24c-39.6-0.1-71.9-32.4-72-72V120
		c0.1-39.6,32.4-71.9,72-72h304c0,0,0,0,0,0c39.6,0.1,71.8,32.4,72,72v192c-0.1,39.6-32.4,71.9-72,72H245.7l-91.5,76.3
		C151.3,462.7,147.7,464,144,464z M144,352c8.8,0,16,7.2,16,16v45.8l67.5-56.3c4.3-3.6,9.8-5.6,15.4-5.6H408c22-0.1,39.9-18,40-40
		V120c-0.1-22-18-39.9-40-40H104c-22,0.1-39.9,18-40,40v192c0.1,22,18,39.9,40,40H144z"/>
</g>
<g>
	<circle cx="160" cy="216" r="32"/>
</g>
<g>
	<circle cx="256" cy="216" r="32"/>
</g>
<g>
	<circle cx="352" cy="216" r="32"/>
</g>
</svg>
