<?xml version="1.0" encoding="UTF-8" standalone="no"?>
<svg
   xmlns:dc="http://purl.org/dc/elements/1.1/"
   xmlns:cc="http://creativecommons.org/ns#"
   xmlns:rdf="http://www.w3.org/1999/02/22-rdf-syntax-ns#"
   xmlns:svg="http://www.w3.org/2000/svg"
   xmlns="http://www.w3.org/2000/svg"
   xmlns:sodipodi="http://sodipodi.sourceforge.net/DTD/sodipodi-0.dtd"
   xmlns:inkscape="http://www.inkscape.org/namespaces/inkscape"
   class="ionicon"
   viewBox="0 0 512 512"
   version="1.1"
   id="svg6"
   sodipodi:docname="chatbubble-outline.svg"
   inkscape:version="1.0.2 (e86c8708, 2021-01-15)">
  <metadata
     id="metadata12">
    <rdf:RDF>
      <cc:Work
         rdf:about="">
        <dc:format>image/svg+xml</dc:format>
        <dc:type
           rdf:resource="http://purl.org/dc/dcmitype/StillImage" />
      </cc:Work>
    </rdf:RDF>
  </metadata>
  <defs
     id="defs10" />
  <sodipodi:namedview
     pagecolor="#ffffff"
     bordercolor="#666666"
     borderopacity="1"
     objecttolerance="10"
     gridtolerance="10"
     guidetolerance="10"
     inkscape:pageopacity="0"
     inkscape:pageshadow="2"
     inkscape:window-width="689"
     inkscape:window-height="480"
     id="namedview8"
     showgrid="false"
     inkscape:zoom="1.3027344"
     inkscape:cx="256"
     inkscape:cy="256"
     inkscape:window-x="44"
     inkscape:window-y="25"
     inkscape:window-maximized="0"
     inkscape:current-layer="svg6" />
  <title
     id="title2">Chatbubble</title>
  <path
     style="color:#000000;font-style:normal;font-variant:normal;font-weight:normal;font-stretch:normal;font-size:medium;line-height:normal;font-family:sans-serif;font-variant-ligatures:normal;font-variant-position:normal;font-variant-caps:normal;font-variant-numeric:normal;font-variant-alternates:normal;font-variant-east-asian:normal;font-feature-settings:normal;font-variation-settings:normal;text-indent:0;text-align:start;text-decoration:none;text-decoration-line:none;text-decoration-style:solid;text-decoration-color:#000000;letter-spacing:normal;word-spacing:normal;text-transform:none;writing-mode:lr-tb;direction:ltr;text-orientation:mixed;dominant-baseline:auto;baseline-shift:baseline;text-anchor:start;white-space:normal;shape-padding:0;shape-margin:0;inline-size:0;clip-rule:nonzero;display:inline;overflow:visible;visibility:visible;isolation:auto;mix-blend-mode:normal;color-interpolation:sRGB;color-interpolation-filters:linearRGB;solid-color:#000000;solid-opacity:1;vector-effect:none;fill:currentColor;fill-opacity:1;fill-rule:nonzero;stroke:none;stroke-linecap:round;stroke-linejoin:miter;stroke-miterlimit:10;stroke-dasharray:none;stroke-dashoffset:0;stroke-opacity:1;color-rendering:auto;image-rendering:auto;shape-rendering:auto;text-rendering:auto;enable-background:accumulate;stop-color:#000000;stop-opacity:1;opacity:1"
     d="M 255.83008 32 C 132.29917 32 31.639843 130.25192 32 251.35938 C 32.002349 293.58857 44.39576 334.89345 67.642578 370.14844 L 67.894531 370.5293 L 68.167969 370.89844 C 68.70926 371.62517 69.207223 372.38191 69.677734 373.15625 C 71.363313 376.19305 70.701582 380.76346 72.048828 375.80469 L 52.519531 446.45508 C 51.885629 448.6101 51.482085 450.82635 51.314453 453.06641 L 51.279297 453.54492 L 51.271484 454.02734 C 51.06641 468.08369 62.733239 479.95757 76.791016 480 L 77.650391 480.00195 L 78.501953 479.91406 C 81.720707 479.57772 84.871763 478.75359 87.84375 477.47266 L 86.941406 477.83008 L 155.17969 453.20312 L 155.57812 453.0332 C 157.41013 452.25756 159.37971 451.86158 161.36914 451.86914 L 161.39062 451.86914 L 161.41211 451.86914 C 163.25763 451.8712 165.08595 452.21285 166.80859 452.875 L 166.78711 452.86523 C 170.7411 454.39213 184.28316 459.44247 198.62695 463.45703 C 213.73271 467.68485 238.42892 472.41992 259.41016 472.41992 C 383.08427 472.41992 480 372.39201 480 251.49023 L 480 251.48633 L 480 251.48438 C 479.99477 236.36616 478.3944 221.29039 475.22656 206.50781 C 454.0539 106.74068 363.59171 32 255.83008 32 z M 255.83008 64 C 348.82056 64 425.9318 128.32803 443.92773 213.16992 L 443.93164 213.1875 L 443.93555 213.20312 C 446.6333 225.78869 447.99555 238.62464 448 251.49609 C 447.99688 355.41163 365.93402 440.41992 259.41016 440.41992 C 243.79139 440.41992 219.08619 435.95476 207.25195 432.64258 C 194.65575 429.11714 181.30047 424.16677 178.31445 423.01367 L 178.30273 423.00977 L 178.29102 423.00586 C 172.92257 420.94233 167.22 419.88017 161.46875 419.87109 C 155.15984 419.85003 148.91138 421.10662 143.10156 423.56641 L 143.9082 423.25 L 86.394531 444.00781 L 102.92188 384.22852 L 102.92969 384.19531 C 106.66735 370.43819 100.71405 362.94358 97.429688 357.19922 L 97.355469 357.06836 L 97.277344 356.9375 C 96.217049 355.16162 95.06753 353.44197 93.832031 351.7832 L 94.357422 352.53125 C 74.55313 322.49703 63.99874 287.31573 64 251.33984 L 64 251.31445 L 64 251.29102 C 63.677663 147.91289 149.17167 64 255.83008 64 z "
     id="path4" />
</svg>
