<?xml version="1.0" encoding="UTF-8" standalone="no"?>
<svg
   xmlns:dc="http://purl.org/dc/elements/1.1/"
   xmlns:cc="http://creativecommons.org/ns#"
   xmlns:rdf="http://www.w3.org/1999/02/22-rdf-syntax-ns#"
   xmlns:svg="http://www.w3.org/2000/svg"
   xmlns="http://www.w3.org/2000/svg"
   xmlns:sodipodi="http://sodipodi.sourceforge.net/DTD/sodipodi-0.dtd"
   xmlns:inkscape="http://www.inkscape.org/namespaces/inkscape"
   class="ionicon"
   viewBox="0 0 512 512"
   version="1.1"
   id="svg8"
   sodipodi:docname="chatbubbles-outline.svg"
   inkscape:version="1.0.2 (e86c8708, 2021-01-15)">
  <metadata
     id="metadata14">
    <rdf:RDF>
      <cc:Work
         rdf:about="">
        <dc:format>image/svg+xml</dc:format>
        <dc:type
           rdf:resource="http://purl.org/dc/dcmitype/StillImage" />
      </cc:Work>
    </rdf:RDF>
  </metadata>
  <defs
     id="defs12" />
  <sodipodi:namedview
     pagecolor="#ffffff"
     bordercolor="#666666"
     borderopacity="1"
     objecttolerance="10"
     gridtolerance="10"
     guidetolerance="10"
     inkscape:pageopacity="0"
     inkscape:pageshadow="2"
     inkscape:window-width="689"
     inkscape:window-height="480"
     id="namedview10"
     showgrid="false"
     inkscape:zoom="1.3027344"
     inkscape:cx="256"
     inkscape:cy="256"
     inkscape:window-x="44"
     inkscape:window-y="25"
     inkscape:window-maximized="0"
     inkscape:current-layer="svg8" />
  <title
     id="title2">Chatbubbles</title>
  <path
     style="color:#000000;font-style:normal;font-variant:normal;font-weight:normal;font-stretch:normal;font-size:medium;line-height:normal;font-family:sans-serif;font-variant-ligatures:normal;font-variant-position:normal;font-variant-caps:normal;font-variant-numeric:normal;font-variant-alternates:normal;font-variant-east-asian:normal;font-feature-settings:normal;font-variation-settings:normal;text-indent:0;text-align:start;text-decoration:none;text-decoration-line:none;text-decoration-style:solid;text-decoration-color:#000000;letter-spacing:normal;word-spacing:normal;text-transform:none;writing-mode:lr-tb;direction:ltr;text-orientation:mixed;dominant-baseline:auto;baseline-shift:baseline;text-anchor:start;white-space:normal;shape-padding:0;shape-margin:0;inline-size:0;clip-rule:nonzero;display:inline;overflow:visible;visibility:visible;isolation:auto;mix-blend-mode:normal;color-interpolation:sRGB;color-interpolation-filters:linearRGB;solid-color:#000000;solid-opacity:1;vector-effect:none;fill:currentColor;fill-opacity:1;fill-rule:nonzero;stroke:none;stroke-linecap:round;stroke-linejoin:miter;stroke-miterlimit:10;stroke-dasharray:none;stroke-dashoffset:0;stroke-opacity:1;color-rendering:auto;image-rendering:auto;shape-rendering:auto;text-rendering:auto;enable-background:accumulate;stop-color:#000000;stop-opacity:1;opacity:1"
     d="M 290.30078 32 C 199.15221 32 122.41968 94.127322 104.36914 177.48633 C 101.67143 189.83968 100.30751 202.44731 100.30078 215.0918 L 100.30078 215.0957 L 100.30078 215.09961 C 100.30078 316.04389 182.58519 400.19922 287.30078 400.19922 C 305.80775 400.19922 326.54236 395.27386 338.73242 391.92969 C 350.88438 388.59596 362.18066 384.44758 365.54492 383.17188 C 366.71882 382.72928 367.96223 382.50132 369.2168 382.5 L 369.23828 382.5 L 369.26172 382.5 C 370.59513 382.49489 371.91564 382.75665 373.14648 383.26953 L 373.54492 383.43555 L 430.6543 403.67969 L 429.76172 403.33398 C 432.47525 404.4827 435.34586 405.21886 438.27734 405.51758 L 439.08594 405.59961 L 439.90039 405.59961 C 452.96571 405.59961 463.90039 394.66493 463.90039 381.59961 L 463.90039 380.99219 L 463.85352 380.38477 C 463.69691 378.32986 463.32009 376.29698 462.73047 374.32227 L 462.80273 374.56641 L 446.42188 316.33789 C 448.03255 322.14197 446.84501 318.72611 448.10938 316.5 C 448.42516 315.98289 448.75973 315.47812 449.12695 314.99609 L 449.41211 314.62305 L 449.67383 314.23242 C 469.40675 284.91023 479.96482 250.37277 480 215.0293 C 480.31602 113.81143 394.7865 32 290.30078 32 z M 290.30078 64 C 378.20695 64 448.27062 131.776 448 214.94727 L 448 214.9668 L 448 214.98633 C 447.97369 243.98312 439.31434 272.31059 423.125 296.36719 L 423.67188 295.60352 C 422.55534 297.06912 421.52117 298.59529 420.57422 300.17578 L 420.52734 300.25781 L 420.48047 300.33789 C 417.58217 305.30641 411.9418 311.77095 415.58398 324.88281 L 415.58984 324.9082 L 415.59766 324.93359 L 427.92773 368.76367 L 384.64648 353.41992 L 385.45508 353.73047 C 380.29322 351.57958 374.75204 350.48343 369.16016 350.50195 C 364.06881 350.51013 359.01997 351.4323 354.25586 353.22852 L 354.24023 353.23438 L 354.22461 353.24023 C 351.7704 354.17114 340.69775 358.20894 330.26758 361.07031 C 319.85764 363.92614 299.39381 368.19922 287.30078 368.19922 C 199.61982 368.19922 132.30607 298.7607 132.30078 215.10938 L 132.30078 215.10547 C 132.30078 215.1035 132.30078 215.10158 132.30078 215.09961 C 132.30699 204.74827 133.42239 194.42748 135.63086 184.31445 L 135.63477 184.29883 L 135.63867 184.2832 C 150.39997 116.05721 213.66022 64 290.30078 64 z "
     id="path4" />
  <path
     style="color:#000000;font-style:normal;font-variant:normal;font-weight:normal;font-stretch:normal;font-size:medium;line-height:normal;font-family:sans-serif;font-variant-ligatures:normal;font-variant-position:normal;font-variant-caps:normal;font-variant-numeric:normal;font-variant-alternates:normal;font-variant-east-asian:normal;font-feature-settings:normal;font-variation-settings:normal;text-indent:0;text-align:start;text-decoration:none;text-decoration-line:none;text-decoration-style:solid;text-decoration-color:#000000;letter-spacing:normal;word-spacing:normal;text-transform:none;writing-mode:lr-tb;direction:ltr;text-orientation:mixed;dominant-baseline:auto;baseline-shift:baseline;text-anchor:start;white-space:normal;shape-padding:0;shape-margin:0;inline-size:0;clip-rule:nonzero;display:inline;overflow:visible;visibility:visible;isolation:auto;mix-blend-mode:normal;color-interpolation:sRGB;color-interpolation-filters:linearRGB;solid-color:#000000;solid-opacity:1;vector-effect:none;fill:currentColor;fill-opacity:1;fill-rule:nonzero;stroke:none;stroke-linecap:round;stroke-linejoin:miter;stroke-miterlimit:10;stroke-dasharray:none;stroke-dashoffset:0;stroke-opacity:1;color-rendering:auto;image-rendering:auto;shape-rendering:auto;text-rendering:auto;enable-background:accumulate;stop-color:#000000;stop-opacity:1;opacity:1"
     d="M 66.513672 216 A 16 16 0 0 0 52.480469 224.21875 C 22.827272 277.49099 25.567258 342.98576 59.568359 393.59375 L 59.507812 393.50195 C 59.557704 393.57733 59.531053 393.54452 59.578125 393.61719 C 59.233921 395.39563 58.995176 396.5618 58.318359 400.06445 C 57.17961 405.95769 55.699084 413.637 54.232422 421.25977 C 51.299097 436.5053 48.416016 451.52344 48.416016 451.52344 L 48.433594 451.44336 C 46.744596 460.00356 49.875274 468.8779 56.5625 474.48242 L 56.714844 474.60938 L 56.869141 474.73438 C 61.17428 478.16464 66.530568 480.01514 72.033203 479.99219 C 75.213146 479.99014 78.361668 479.34421 81.279297 478.07812 L 80.742188 478.29883 L 136.87305 456.33008 L 137.0332 456.40039 L 137.31055 456.50781 C 157.86299 464.5161 180.64695 469.59961 203.94922 469.59961 C 234.88086 469.62959 265.27067 461.47081 292.02734 445.95117 A 16 16 0 0 0 297.83984 424.08203 A 16 16 0 0 0 275.97266 418.26953 C 254.09776 430.9576 229.25508 437.62638 203.9668 437.59961 L 203.95898 437.59961 L 203.94922 437.59961 C 185.35149 437.59961 166.25724 433.44311 148.92969 426.69141 L 149.48047 426.91797 C 141.78183 423.58232 133.05747 423.43838 125.25195 426.51562 L 82.601562 443.20898 C 83.703814 437.47138 84.115093 435.31658 85.65625 427.30664 C 87.122088 419.68816 88.600702 412.01379 89.736328 406.13672 C 90.871954 400.25964 92.111903 394.18495 91.683594 396.12305 C 93.033424 390.01506 91.43678 385.98499 90.214844 383.08594 C 88.992908 380.18689 87.632099 378.01648 86.191406 375.83984 L 86.162109 375.79297 L 86.130859 375.74805 C 58.803673 335.07366 56.606742 282.59693 80.439453 239.78125 A 16 16 0 0 0 74.242188 218.01953 A 16 16 0 0 0 66.513672 216 z "
     id="path6" />
</svg>
