<?xml version="1.0" encoding="utf-8"?>
<!-- Generator: Adobe Illustrator 24.0.0, SVG Export Plug-In . SVG Version: 6.00 Build 0)  -->
<svg version="1.1" id="Layer_1" xmlns="http://www.w3.org/2000/svg" xmlns:xlink="http://www.w3.org/1999/xlink" x="0px" y="0px"
	 viewBox="0 0 512 512" style="enable-background:new 0 0 512 512;" xml:space="preserve">
<title>ionicons-v5-e</title>
<g>
	<path d="M256,464c-114.7,0-208-93.3-208-208S141.3,48,256,48s208,93.3,208,208S370.7,464,256,464z M256,80c-97,0-176,79-176,176
		s79,176,176,176s176-79,176-176S353,80,256,80z"/>
</g>
<g>
	<path d="M256.1,336c-4.2,0-8.3-1.7-11.3-4.7l-47.9-48c-6.2-6.3-6.2-16.4,0-22.6c6.3-6.2,16.4-6.2,22.6,0l35.8,35.9L356,181.5
		c5.8-6.7,15.9-7.3,22.6-1.5c6.7,5.8,7.3,15.9,1.5,22.6l-111.9,128c-2.9,3.3-7.1,5.3-11.5,5.5C256.5,336,256.3,336,256.1,336z"/>
</g>
<g>
	<path d="M192,336c-4.1,0-8.2-1.6-11.3-4.7l-48-48c-6.2-6.3-6.2-16.4,0-22.6c6.3-6.2,16.4-6.2,22.6,0l48,48c6.2,6.3,6.2,16.4,0,22.6
		C200.1,334.4,196,336,192,336z"/>
</g>
<g>
	<path d="M254.2,267c-3.7,0-7.5-1.3-10.5-4c-6.7-5.8-7.3-15.9-1.5-22.6l51.5-59c5.8-6.7,15.9-7.3,22.6-1.5s7.3,15.9,1.5,22.6
		l-51.5,59C263,265.1,258.6,267,254.2,267z"/>
</g>
</svg>
