<?xml version="1.0" encoding="utf-8"?>
<!-- Generator: Adobe Illustrator 24.0.0, SVG Export Plug-In . SVG Version: 6.00 Build 0)  -->
<svg version="1.1" id="Layer_1" xmlns="http://www.w3.org/2000/svg" xmlns:xlink="http://www.w3.org/1999/xlink" x="0px" y="0px"
	 viewBox="0 0 512 512" style="enable-background:new 0 0 512 512;" xml:space="preserve">
<title>ionicons-v5-l</title>
<g>
	<path d="M217.6,352c-4.5,0-8.9-1.9-11.9-5.3l-57.6-64c-5.9-6.6-5.4-16.7,1.2-22.6c6.6-5.9,16.7-5.4,22.6,1.2l45.3,50.3l122.6-145.9
		c5.7-6.8,15.8-7.6,22.5-2c6.8,5.7,7.6,15.8,2,22.5l-134.4,160c-3,3.5-7.3,5.6-12,5.7C217.8,352,217.7,352,217.6,352z"/>
</g>
<g>
	<path d="M400,464H112c-35.3,0-64-28.7-64-64V112c0-35.3,28.7-64,64-64h288c35.3,0,64,28.7,64,64v288C464,435.3,435.3,464,400,464z
		 M112,80c-17.6,0-32,14.4-32,32v288c0,17.6,14.4,32,32,32h288c17.6,0,32-14.4,32-32V112c0-17.6-14.4-32-32-32H112z"/>
</g>
</svg>
