<?xml version="1.0" encoding="utf-8"?>
<!-- Generator: Adobe Illustrator 24.0.0, SVG Export Plug-In . SVG Version: 6.00 Build 0)  -->
<svg version="1.1" id="Layer_1" xmlns="http://www.w3.org/2000/svg" xmlns:xlink="http://www.w3.org/1999/xlink" x="0px" y="0px"
	 viewBox="0 0 512 512" style="enable-background:new 0 0 512 512;" xml:space="preserve">
<title>ionicons-v5-e</title>
<g>
	<path d="M240,400c-4.2,0-8.3-1.7-11.3-4.7l-96-96c-6.2-6.2-6.2-16.4,0-22.6c6.2-6.2,16.4-6.2,22.6,0l83.9,83.9L452,117.5
		c5.8-6.6,15.9-7.3,22.6-1.5c6.7,5.8,7.3,15.9,1.5,22.6l-224,256c-2.9,3.3-7.1,5.3-11.5,5.5C240.4,400,240.2,400,240,400z"/>
</g>
<g>
	<path d="M144,400c-4.1,0-8.2-1.6-11.3-4.7l-96-96c-6.2-6.2-6.2-16.4,0-22.6c6.2-6.2,16.4-6.2,22.6,0l96,96c6.2,6.2,6.2,16.4,0,22.6
		C152.2,398.4,148.1,400,144,400z"/>
</g>
<g>
	<path d="M232,300c-3.7,0-7.5-1.3-10.5-3.9c-6.7-5.8-7.4-15.9-1.5-22.6l136-156c5.8-6.7,15.9-7.4,22.6-1.5
		c6.7,5.8,7.4,15.9,1.5,22.6l-136,156C240.9,298.1,236.5,300,232,300z"/>
</g>
</svg>
