<?xml version="1.0" encoding="utf-8"?>
<!-- Generator: Adobe Illustrator 24.0.0, SVG Export Plug-In . SVG Version: 6.00 Build 0)  -->
<svg version="1.1" id="Layer_1" xmlns="http://www.w3.org/2000/svg" xmlns:xlink="http://www.w3.org/1999/xlink" x="0px" y="0px"
	 viewBox="0 0 512 512" style="enable-background:new 0 0 512 512;" xml:space="preserve">
<title>ionicons-v5-l</title>
<g>
	<path d="M368,496H144c-35.3,0-64-28.7-64-64V112c0-35.3,28.7-64,64-64h32v32h-32c-17.6,0-32,14.4-32,32v320c0,17.6,14.4,32,32,32
		h224c17.6,0,32-14.4,32-32V112c0-17.6-14.4-32-32-32h-32V48h32c35.3,0,64,28.7,64,64v320C432,467.3,403.3,496,368,496z"/>
</g>
<g>
	<path d="M309.9,112H202.1c-23.2,0-42.1-18.9-42.1-42.1V58.1c0-23.2,18.9-42.1,42.1-42.1h107.7c23.2,0,42.1,18.9,42.1,42.1v11.7
		C352,93.1,333.1,112,309.9,112z M202.1,48c-5.6,0-10.1,4.5-10.1,10.1v11.7c0,5.6,4.5,10.1,10.1,10.1h107.7
		c5.6,0,10.1-4.5,10.1-10.1V58.1c0-5.6-4.5-10.1-10.1-10.1H202.1z"/>
</g>
</svg>
