<?xml version="1.0" encoding="utf-8"?>
<!-- Generator: Adobe Illustrator 24.0.0, SVG Export Plug-In . SVG Version: 6.00 Build 0)  -->
<svg version="1.1" id="Layer_1" xmlns="http://www.w3.org/2000/svg" xmlns:xlink="http://www.w3.org/1999/xlink" x="0px" y="0px"
	 viewBox="0 0 512 512" style="enable-background:new 0 0 512 512;" xml:space="preserve">
<title>ionicons-v5-m</title>
<g>
	<path d="M376,432H116c-32.4,0-60.2-8.6-80.6-24.8C12.2,388.8,0,361.4,0,328c0-29.4,11.2-54.8,32.4-73.6c17-15,40.2-25.3,65.4-29.1
		h0c6.8-43.2,25.9-80,55-106.2C181,93.9,217.6,80,256,80c33.4,0,64.5,10.4,90.1,30.1c22,16.9,39.7,40.8,49.8,67.2
		c0,0.1,0.1,0.1,0.1,0.1c32.6,5.2,60.6,18.6,81,38.9c22.9,22.7,35,53.1,35,87.7c0,36-14.4,68.9-40.5,92.6
		C446.4,419.4,412.4,432,376,432z M256,112c-30.9,0-59.2,10.7-81.8,31c-23.7,21.2-39.2,51.5-44.9,87.5c-2.2,13.8-13,24.5-26.8,26.6
		c0,0,0,0,0,0c-19.2,2.9-36.6,10.5-49,21.4C39.3,291.1,32,307.8,32,328c0,21.6,8.2,72,84,72h260c28.5,0,54.8-9.6,74-27.1
		c19.3-17.6,30-42,30-68.9c0-26.3-8.6-48.2-25.6-65c-15.6-15.5-37.6-25.9-63.5-30c-11.3-1.8-20.9-9.6-25-20.3
		C351.7,151.6,315.4,112,256,112z"/>
</g>
</svg>
