<?xml version="1.0" encoding="utf-8"?>
<!-- Generator: Adobe Illustrator 24.0.0, SVG Export Plug-In . SVG Version: 6.00 Build 0)  -->
<svg version="1.1" id="Layer_1" xmlns="http://www.w3.org/2000/svg" xmlns:xlink="http://www.w3.org/1999/xlink" x="0px" y="0px"
	 viewBox="0 0 512 512" style="enable-background:new 0 0 512 512;" xml:space="preserve">
<title>ionicons-v5-f</title>
<g>
	<path d="M396,432H136c-36.4,0-70.4-12.6-95.5-35.4C14.4,372.9,0,340,0,304c0-36.6,13.4-68.1,38.7-91.2
		c19.9-18.2,47.1-30.6,77.4-35.4c9.4-24.6,25.2-46.9,45.2-63.6C187.8,91.7,220.5,80,256,80c40.4,0,78.4,15.2,107.1,42.9
		c27.1,26.1,44.6,61.3,51.1,102.5c49.3,7.3,97.8,40.8,97.8,102.6c0,33.4-12.2,60.8-35.4,79.2C456.2,423.4,428.4,432,396,432z
		 M256,112c-27.9,0-53.5,9.1-74.2,26.3c-18,15-31.7,35.7-38.5,58.3c-1.9,6.2-7.3,10.6-13.7,11.3C57.6,215.1,32,262.3,32,304
		c0,26.9,10.7,51.3,30,68.9c19.2,17.5,45.5,27.1,74,27.1h260c75.8,0,84-50.4,84-72c0-22.1-8.6-39.9-25.6-52.9
		c-14.5-11.1-34.6-18.1-55.2-19.1c-7.9-0.4-14.3-6.5-15.1-14.4c-3.9-39.1-18.8-72.2-43.1-95.6C318.2,124.1,288,112,256,112z"/>
</g>
</svg>
