<?xml version="1.0" encoding="utf-8"?>
<!-- Generator: Adobe Illustrator 24.0.0, SVG Export Plug-In . SVG Version: 6.00 Build 0)  -->
<svg version="1.1" id="Layer_1" xmlns="http://www.w3.org/2000/svg" xmlns:xlink="http://www.w3.org/1999/xlink" x="0px" y="0px"
	 viewBox="0 0 512 512" style="enable-background:new 0 0 512 512;" xml:space="preserve">
<title>ionicons-v5-m</title>
<g>
	<path d="M388.3,288c-8.8,0-16-7.2-16-16s7.2-16,16-16c27.6,0,53.2-10.6,71.8-28.7c-3.7,0.2-7.6,0.4-11.5,0.4
		c-73,0-132.3-59.4-132.3-132.3c0-3.9,0.1-7.7,0.4-11.5c-18,18.6-28.7,44.2-28.7,71.8c0,8.2,1,16.4,3,24.3
		c2.1,8.6-3.1,17.3-11.7,19.4c-8.6,2.1-17.3-3.1-19.4-11.7c-2.6-10.5-3.9-21.3-3.9-32.1c0-53.5,30.8-101.6,78.5-122.3
		c6-2.6,13-1.3,17.7,3.4c4.7,4.6,6,11.7,3.4,17.7c-4.8,11-7.3,25.1-7.3,41c0,55.3,45,100.3,100.3,100.3c15.9,0,30-2.5,41-7.3
		c6-2.6,13-1.3,17.7,3.4c4.6,4.7,6,11.7,3.4,17.7C489.9,257.2,441.9,288,388.3,288z"/>
</g>
<g>
	<path d="M340,480H106c-29.5,0-54.9-7.8-73.5-22.6C11.2,440.4,0,415.4,0,384.8c0-26.7,10.1-49.8,29.1-66.9
		c15.2-13.7,36.2-23.2,59-26.8c0,0,0,0,0.1,0c0,0,0.1,0,0.1-0.1c6.4-39,23.8-72.1,50.3-95.7c25.6-22.8,58.8-35.3,93.5-35.3
		c30.2,0,58.5,9.4,81.7,27.2c19.9,15.3,36,36.8,45.4,60.7c29.4,4.8,54.7,17.1,73.2,35.5c20.8,20.7,31.7,48.3,31.7,79.8
		c0,32.9-13.1,62.9-37,84.5C404.1,468.5,373.2,480,340,480z M93.1,322.7c-16.8,2.7-31.9,9.4-42.6,19c-12.3,11-18.5,25.5-18.5,43.1
		c0,57,51.8,63.2,74,63.2h234c25.2,0,48.5-8.5,65.5-24c17.1-15.5,26.5-37.1,26.5-60.8c0-16.7-5.6-72-78.2-83.8
		c-11.1-1.8-20.5-9.4-24.5-19.8c-12.7-32.7-45-67.6-97.3-67.6c-27.3,0-52.2,9.4-72.2,27.2c-21,18.7-34.8,45.3-40,77
		C117.5,309.9,106.8,320.5,93.1,322.7z"/>
</g>
</svg>
