<?xml version="1.0" encoding="UTF-8" standalone="no"?>
<svg
   xmlns:dc="http://purl.org/dc/elements/1.1/"
   xmlns:cc="http://creativecommons.org/ns#"
   xmlns:rdf="http://www.w3.org/1999/02/22-rdf-syntax-ns#"
   xmlns:svg="http://www.w3.org/2000/svg"
   xmlns="http://www.w3.org/2000/svg"
   xmlns:sodipodi="http://sodipodi.sourceforge.net/DTD/sodipodi-0.dtd"
   xmlns:inkscape="http://www.inkscape.org/namespaces/inkscape"
   class="ionicon"
   viewBox="0 0 512 512"
   version="1.1"
   id="svg8"
   sodipodi:docname="cloudy-night-outline.svg"
   inkscape:version="1.0.2 (e86c8708, 2021-01-15)">
  <metadata
     id="metadata14">
    <rdf:RDF>
      <cc:Work
         rdf:about="">
        <dc:format>image/svg+xml</dc:format>
        <dc:type
           rdf:resource="http://purl.org/dc/dcmitype/StillImage" />
      </cc:Work>
    </rdf:RDF>
  </metadata>
  <defs
     id="defs12" />
  <sodipodi:namedview
     pagecolor="#ffffff"
     bordercolor="#666666"
     borderopacity="1"
     objecttolerance="10"
     gridtolerance="10"
     guidetolerance="10"
     inkscape:pageopacity="0"
     inkscape:pageshadow="2"
     inkscape:window-width="689"
     inkscape:window-height="480"
     id="namedview10"
     showgrid="false"
     inkscape:zoom="1.3027344"
     inkscape:cx="256"
     inkscape:cy="256"
     inkscape:window-x="44"
     inkscape:window-y="25"
     inkscape:window-maximized="0"
     inkscape:current-layer="svg8" />
  <title
     id="title2">Cloudy Night</title>
  <path
     style="color:#000000;font-style:normal;font-variant:normal;font-weight:normal;font-stretch:normal;font-size:medium;line-height:normal;font-family:sans-serif;font-variant-ligatures:normal;font-variant-position:normal;font-variant-caps:normal;font-variant-numeric:normal;font-variant-alternates:normal;font-variant-east-asian:normal;font-feature-settings:normal;font-variation-settings:normal;text-indent:0;text-align:start;text-decoration:none;text-decoration-line:none;text-decoration-style:solid;text-decoration-color:#000000;letter-spacing:normal;word-spacing:normal;text-transform:none;writing-mode:lr-tb;direction:ltr;text-orientation:mixed;dominant-baseline:auto;baseline-shift:baseline;text-anchor:start;white-space:normal;shape-padding:0;shape-margin:0;inline-size:0;clip-rule:nonzero;display:inline;overflow:visible;visibility:visible;isolation:auto;mix-blend-mode:normal;color-interpolation:sRGB;color-interpolation-filters:linearRGB;solid-color:#000000;solid-opacity:1;vector-effect:none;fill:currentColor;fill-opacity:1;fill-rule:nonzero;stroke:none;stroke-linecap:round;stroke-linejoin:round;stroke-miterlimit:4;stroke-dasharray:none;stroke-dashoffset:0;stroke-opacity:1;color-rendering:auto;image-rendering:auto;shape-rendering:auto;text-rendering:auto;enable-background:accumulate;stop-color:#000000;stop-opacity:1;opacity:1"
     d="M 340.99219 32.001953 A 16.0016 16.0016 0 0 0 334.53125 33.330078 C 287.40674 53.851856 256.00534 101.72798 256 155.67578 C 256 155.67773 256 155.67969 256 155.68164 C 256 155.68426 256 155.68683 256 155.68945 C 255.99167 166.49006 257.30669 177.25122 259.91406 187.73242 A 16 16 0 0 0 279.30273 199.39648 A 16 16 0 0 0 290.9668 180.00781 C 288.98919 172.05817 287.99283 163.89505 288 155.70312 A 16.0016 16.0016 0 0 0 288 155.68945 C 288 127.77974 298.92562 102.33615 316.73828 83.974609 C 316.49441 87.788303 316.31055 91.602612 316.31055 95.380859 C 316.31055 168.26414 375.73586 227.68945 448.61914 227.68945 C 452.39739 227.68945 456.2117 227.50559 460.02539 227.26172 C 441.66385 245.07438 416.22026 256 388.31055 256 A 16 16 0 0 0 372.31055 272 A 16 16 0 0 0 388.31055 288 C 442.26397 288 490.1464 256.59726 510.66992 209.46875 A 16.0016 16.0016 0 0 0 489.61914 188.4082 C 478.20427 193.37259 463.52633 195.68945 448.61914 195.68945 C 393.02994 195.68945 348.31055 150.97006 348.31055 95.380859 C 348.31055 80.473675 350.62741 65.79573 355.5918 54.380859 A 16.0016 16.0016 0 0 0 340.99219 32.001953 z "
     id="path4" />
  <path
     style="color:#000000;font-style:normal;font-variant:normal;font-weight:normal;font-stretch:normal;font-size:medium;line-height:normal;font-family:sans-serif;font-variant-ligatures:normal;font-variant-position:normal;font-variant-caps:normal;font-variant-numeric:normal;font-variant-alternates:normal;font-variant-east-asian:normal;font-feature-settings:normal;font-variation-settings:normal;text-indent:0;text-align:start;text-decoration:none;text-decoration-line:none;text-decoration-style:solid;text-decoration-color:#000000;letter-spacing:normal;word-spacing:normal;text-transform:none;writing-mode:lr-tb;direction:ltr;text-orientation:mixed;dominant-baseline:auto;baseline-shift:baseline;text-anchor:start;white-space:normal;shape-padding:0;shape-margin:0;inline-size:0;clip-rule:nonzero;display:inline;overflow:visible;visibility:visible;isolation:auto;mix-blend-mode:normal;color-interpolation:sRGB;color-interpolation-filters:linearRGB;solid-color:#000000;solid-opacity:1;vector-effect:none;fill:currentColor;fill-opacity:1;fill-rule:nonzero;stroke:none;stroke-linecap:butt;stroke-linejoin:round;stroke-miterlimit:4;stroke-dasharray:none;stroke-dashoffset:0;stroke-opacity:1;color-rendering:auto;image-rendering:auto;shape-rendering:auto;text-rendering:auto;enable-background:accumulate;stop-color:#000000;stop-opacity:1;opacity:1"
     d="M 232 160 C 162.07594 160 101.36596 211.11335 88.212891 291 L 88.214844 290.98047 C 88.19972 291.07163 88.249516 291.0249 88.158203 291.03906 A 16.0016 16.0016 0 0 0 88.091797 291.04883 C 67.608724 294.31449 46.208685 302.56754 29.138672 317.89258 C 12.068659 333.21762 4.7369516e-15 356.31078 0 384.80078 C 0 416.01408 12.482845 441.44176 32.470703 457.35547 C 52.458561 473.26917 78.588721 480 106 480 L 340 480 C 406.83434 480 464 431.32649 464 363.19922 C 464 330.35223 451.73701 302.82006 432.25391 283.36914 C 412.79291 263.94029 386.76197 252.36662 359.06836 247.83594 C 341.44631 202.70632 296.83489 160 232 160 z M 232 192 C 282.97908 192 315.72722 224.73391 329.29102 259.54883 A 16.0016 16.0016 0 0 0 329.29688 259.56055 C 333.38202 270.02008 342.73832 277.58945 353.82031 279.40039 A 16.0016 16.0016 0 0 0 353.82617 279.40234 C 376.09733 283.03254 395.82958 292.22154 409.64648 306.01562 C 423.46339 319.80971 432 337.99621 432 363.19922 C 432 413.87195 391.96566 448 340 448 L 106 448 C 83.911279 448 65.041439 442.38161 52.404297 432.32031 C 39.767155 422.25902 32 408.08748 32 384.80078 C 32 364.82078 39.265638 351.80309 50.515625 341.70312 C 61.765612 331.60316 77.671979 325.11473 93.128906 322.65039 L 93.0625 322.66016 C 106.68211 320.54749 117.52946 309.8154 119.78516 296.21875 A 16.0016 16.0016 0 0 0 119.78711 296.19922 C 130.81404 229.22587 177.18406 192 232 192 z "
     id="path6" />
</svg>
