<?xml version="1.0" encoding="UTF-8" standalone="no"?>
<svg
   xmlns:dc="http://purl.org/dc/elements/1.1/"
   xmlns:cc="http://creativecommons.org/ns#"
   xmlns:rdf="http://www.w3.org/1999/02/22-rdf-syntax-ns#"
   xmlns:svg="http://www.w3.org/2000/svg"
   xmlns="http://www.w3.org/2000/svg"
   xmlns:sodipodi="http://sodipodi.sourceforge.net/DTD/sodipodi-0.dtd"
   xmlns:inkscape="http://www.inkscape.org/namespaces/inkscape"
   class="ionicon"
   viewBox="0 0 512 512"
   version="1.1"
   id="svg6"
   sodipodi:docname="cloud-done.svg"
   inkscape:version="1.0.2 (e86c8708, 2021-01-15)">
  <metadata
     id="metadata12">
    <rdf:RDF>
      <cc:Work
         rdf:about="">
        <dc:format>image/svg+xml</dc:format>
        <dc:type
           rdf:resource="http://purl.org/dc/dcmitype/StillImage" />
      </cc:Work>
    </rdf:RDF>
  </metadata>
  <defs
     id="defs10" />
  <sodipodi:namedview
     pagecolor="#ffffff"
     bordercolor="#666666"
     borderopacity="1"
     objecttolerance="10"
     gridtolerance="10"
     guidetolerance="10"
     inkscape:pageopacity="0"
     inkscape:pageshadow="2"
     inkscape:window-width="689"
     inkscape:window-height="480"
     id="namedview8"
     showgrid="false"
     inkscape:zoom="1.3027344"
     inkscape:cx="256"
     inkscape:cy="256"
     inkscape:window-x="44"
     inkscape:window-y="25"
     inkscape:window-maximized="0"
     inkscape:current-layer="svg6" />
  <title
     id="title2">Cloud Done</title>
  <path
     style="color:#000000;font-style:normal;font-variant:normal;font-weight:normal;font-stretch:normal;font-size:medium;line-height:normal;font-family:sans-serif;font-variant-ligatures:normal;font-variant-position:normal;font-variant-caps:normal;font-variant-numeric:normal;font-variant-alternates:normal;font-variant-east-asian:normal;font-feature-settings:normal;font-variation-settings:normal;text-indent:0;text-align:start;text-decoration:none;text-decoration-line:none;text-decoration-style:solid;text-decoration-color:#000000;letter-spacing:normal;word-spacing:normal;text-transform:none;writing-mode:lr-tb;direction:ltr;text-orientation:mixed;dominant-baseline:auto;baseline-shift:baseline;text-anchor:start;white-space:normal;shape-padding:0;shape-margin:0;inline-size:0;clip-rule:nonzero;display:inline;overflow:visible;visibility:visible;isolation:auto;mix-blend-mode:normal;color-interpolation:sRGB;color-interpolation-filters:linearRGB;solid-color:#000000;solid-opacity:1;vector-effect:none;fill:#000000;fill-opacity:1;fill-rule:nonzero;stroke-width:1;stroke-linecap:butt;stroke-linejoin:miter;stroke-miterlimit:4;stroke-dasharray:none;stroke-dashoffset:0;stroke-opacity:1;color-rendering:auto;image-rendering:auto;shape-rendering:auto;text-rendering:auto;enable-background:accumulate;stop-color:#000000;stop-opacity:1;stroke:none;opacity:1"
     d="m 424.44,227.25 c -6.12081,-1.39469 -10.86048,-6.23995 -12.12,-12.39 -7.68,-36.68 -24.45,-68.15 -49.18,-92 C 334.35632,95.188605 295.92708,79.815475 256,80 c -35.5,0 -68.24,11.69 -94.68,33.8 -18.05523,15.24985 -32.41561,34.39702 -42,56 -2.09725,4.70158 -6.32866,8.10681 -11.37,9.15 -27,5.62 -51.07,17.34 -69.18,33.87 C 13.39,235.88 0,267.42 0,304 0,340 14.38,372.88 40.49,396.59 65.64,419.43 99.56,432 136,432 h 260 c 32.37,0 60.23,-8.57 80.59,-24.77 C 499.76,388.78 512,361.39 512,328 512,270.43 470,237.42 424.44,227.25 Z m -95.2,-8.94 -107.8,128 c -2.98678,3.54558 -7.36457,5.62138 -12,5.69 h -0.27 c -4.52879,6.3e-4 -8.84571,-1.918 -11.88,-5.28 l -45.9,-50.87 c -5.77,-6.39 -5.82,-16.33 0.3,-22.4 6.48268,-6.4441 17.03723,-6.157 23.16,0.63 l 33.9,37.58 96,-114 c 5.69406,-6.75997 15.79003,-7.62405 22.55,-1.92999 6.75996,5.69405 7.62406,15.79002 1.93,22.54999 z"
     id="path4" />
</svg>
