<?xml version="1.0" encoding="utf-8"?>
<!-- Generator: Adobe Illustrator 24.0.0, SVG Export Plug-In . SVG Version: 6.00 Build 0)  -->
<svg version="1.1" id="Layer_1" xmlns="http://www.w3.org/2000/svg" xmlns:xlink="http://www.w3.org/1999/xlink" x="0px" y="0px"
	 viewBox="0 0 512 512" style="enable-background:new 0 0 512 512;" xml:space="preserve">
<title>ionicons-v5-f</title>
<g>
	<path d="M333.9,240.6c-3.4-0.5-6.1-3.2-6.7-6.7c-6.5-41.1-36.4-65.9-71.2-65.9c-32.4,0-53.9,21.2-62.5,43.6c-1,2.6-3.4,4.6-6.2,5
		c-27.7,4.4-50.8,22.6-51.3,54.3c-0.5,31.5,25.5,57.1,57,57.1h133c27.5,0,50-13.7,50-44C376,256.8,354,243.6,333.9,240.6z"/>
</g>
<g>
	<path d="M256,464c-114.7,0-208-93.3-208-208S141.3,48,256,48s208,93.3,208,208S370.7,464,256,464z M256,80c-97,0-176,79-176,176
		s79,176,176,176s176-79,176-176S353,80,256,80z"/>
</g>
</svg>
