<?xml version="1.0" encoding="utf-8"?>
<!-- Generator: Adobe Illustrator 24.0.0, SVG Export Plug-In . SVG Version: 6.00 Build 0)  -->
<svg version="1.1" id="Layer_1" xmlns="http://www.w3.org/2000/svg" xmlns:xlink="http://www.w3.org/1999/xlink" x="0px" y="0px"
	 viewBox="0 0 512 512" style="enable-background:new 0 0 512 512;" xml:space="preserve">
<title>ionicons-v5-s</title>
<g>
	<path d="M320.4,416H136c-36.4,0-70.4-12.6-95.5-35.4C14.4,356.9,0,324,0,288c0-29.9,8.7-55.9,25.8-77.4
		c15.3-19.2,37-33.9,62.9-42.6c8.4-2.8,17.4,1.7,20.3,10.1c2.8,8.4-1.7,17.4-10.1,20.3c-20,6.7-36.6,17.8-48,32.1
		C38.3,246.2,32,265.6,32,288c0,26.9,10.7,51.3,30,68.9c19.2,17.5,45.5,27.1,74,27.1h184.4c8.8,0,16,7.2,16,16S329.2,416,320.4,416z
		"/>
</g>
<g>
	<path d="M467.8,393.7c-4.6,0-9.2-2-12.3-5.8c-5.6-6.8-4.7-16.9,2.1-22.5c14.9-12.3,22.4-30.3,22.4-53.4c0-25.2-17-68.7-80.8-72
		c-7.9-0.4-14.3-6.5-15.1-14.4c-3.9-39.1-18.8-72.2-43.1-95.6C318.2,108.1,288,96,256,96c-21.7,0-41.7,5.3-59.4,15.9
		c-7.6,4.5-17.4,2-21.9-5.6c-4.5-7.6-2-17.4,5.6-21.9C202.9,70.9,228.4,64,256,64c40.4,0,78.4,15.2,107.1,42.9
		c27.1,26.1,44.6,61.3,51.1,102.5c49.3,7.3,97.8,40.8,97.8,102.6c0,32.6-11.7,59.6-34,78.1C475,392.5,471.4,393.7,467.8,393.7z"/>
</g>
<g>
	<path d="M448,464c-4.1,0-8.2-1.6-11.3-4.7l-384-384c-6.2-6.2-6.2-16.4,0-22.6c6.2-6.2,16.4-6.2,22.6,0l384,384
		c6.2,6.2,6.2,16.4,0,22.6C456.2,462.4,452.1,464,448,464z"/>
</g>
</svg>
