<?xml version="1.0" encoding="utf-8"?>
<!-- Generator: Adobe Illustrator 24.0.0, SVG Export Plug-In . SVG Version: 6.00 Build 0)  -->
<svg version="1.1" id="Layer_1" xmlns="http://www.w3.org/2000/svg" xmlns:xlink="http://www.w3.org/1999/xlink" x="0px" y="0px"
	 viewBox="0 0 512 512" style="enable-background:new 0 0 512 512;" xml:space="preserve">
<title>ionicons-v5-f</title>
<g>
	<path d="M396,352h-76c-8.8,0-16-7.2-16-16s7.2-16,16-16h76c26,0,47.3-5.1,61.7-14.7c15-10,22.3-24.7,22.3-44.9
		c0-19.1-8-33.4-24.5-43.9c-14.2-9-34.2-14.6-56.3-15.7c-7.9-0.4-14.3-6.5-15.1-14.3c-3.9-36.9-18.7-68-42.8-90.2
		C318.5,75.5,288.2,64,256,64c-28,0-53.8,8.7-74.5,25.1c-17.9,14.2-31.5,33.7-38.3,55c-2,6.1-7.4,10.4-13.7,11
		c-29.3,2.8-97.5,16.4-97.5,82.5c0,56.9,52.2,82.4,104,82.4h56c8.8,0,16,7.2,16,16s-7.2,16-16,16h-56C55.9,352,0,305,0,237.6
		c0-34,13.7-62.8,39.6-83.1c19.7-15.4,46-25.7,76.7-30c9.5-23.3,25.3-44.5,45.3-60.4c26.4-21,59-32,94.4-32
		c40.2,0,78.2,14.5,106.8,40.7c27,24.7,44.6,58.2,51.3,97.3c22.4,2.7,42.8,9.5,58.6,19.5c25.7,16.3,39.3,40.9,39.3,70.9
		C512,317.8,468.6,352,396,352z"/>
</g>
<g>
	<path d="M256,480c-4.1,0-8.2-1.6-11.3-4.7l-64-63.9c-6.3-6.2-6.3-16.4,0-22.6c6.2-6.3,16.4-6.3,22.6,0l52.7,52.6l52.7-52.6
		c6.3-6.2,16.4-6.2,22.6,0c6.2,6.3,6.2,16.4,0,22.6l-64,63.9C264.2,478.4,260.1,480,256,480z"/>
</g>
<g>
	<path d="M256,464c-8.8,0-16-7.2-16-16V224c0-8.8,7.2-16,16-16c8.8,0,16,7.2,16,16v224C272,456.9,264.8,464,256,464z"/>
</g>
</svg>
