<?xml version="1.0" encoding="UTF-8" standalone="no"?>
<svg
   xmlns:dc="http://purl.org/dc/elements/1.1/"
   xmlns:cc="http://creativecommons.org/ns#"
   xmlns:rdf="http://www.w3.org/1999/02/22-rdf-syntax-ns#"
   xmlns:svg="http://www.w3.org/2000/svg"
   xmlns="http://www.w3.org/2000/svg"
   xmlns:sodipodi="http://sodipodi.sourceforge.net/DTD/sodipodi-0.dtd"
   xmlns:inkscape="http://www.inkscape.org/namespaces/inkscape"
   class="ionicon"
   viewBox="0 0 512 512"
   version="1.1"
   id="svg6"
   sodipodi:docname="cloud-offline.svg"
   inkscape:version="1.0.2 (e86c8708, 2021-01-15)">
  <metadata
     id="metadata12">
    <rdf:RDF>
      <cc:Work
         rdf:about="">
        <dc:format>image/svg+xml</dc:format>
        <dc:type
           rdf:resource="http://purl.org/dc/dcmitype/StillImage" />
      </cc:Work>
    </rdf:RDF>
  </metadata>
  <defs
     id="defs10" />
  <sodipodi:namedview
     pagecolor="#ffffff"
     bordercolor="#666666"
     borderopacity="1"
     objecttolerance="10"
     gridtolerance="10"
     guidetolerance="10"
     inkscape:pageopacity="0"
     inkscape:pageshadow="2"
     inkscape:window-width="689"
     inkscape:window-height="480"
     id="namedview8"
     showgrid="false"
     inkscape:zoom="1.3027344"
     inkscape:cx="256"
     inkscape:cy="256"
     inkscape:window-x="44"
     inkscape:window-y="25"
     inkscape:window-maximized="0"
     inkscape:current-layer="svg6" />
  <title
     id="title2">Cloud Offline</title>
  <path
     style="color:#000000;font-style:normal;font-variant:normal;font-weight:normal;font-stretch:normal;font-size:medium;line-height:normal;font-family:sans-serif;font-variant-ligatures:normal;font-variant-position:normal;font-variant-caps:normal;font-variant-numeric:normal;font-variant-alternates:normal;font-variant-east-asian:normal;font-feature-settings:normal;font-variation-settings:normal;text-indent:0;text-align:start;text-decoration:none;text-decoration-line:none;text-decoration-style:solid;text-decoration-color:#000000;letter-spacing:normal;word-spacing:normal;text-transform:none;writing-mode:lr-tb;direction:ltr;text-orientation:mixed;dominant-baseline:auto;baseline-shift:baseline;text-anchor:start;white-space:normal;shape-padding:0;shape-margin:0;inline-size:0;clip-rule:nonzero;display:inline;overflow:visible;visibility:visible;isolation:auto;mix-blend-mode:normal;color-interpolation:sRGB;color-interpolation-filters:linearRGB;solid-color:#000000;solid-opacity:1;vector-effect:none;fill:#000000;fill-opacity:1;fill-rule:nonzero;stroke-width:1;stroke-linecap:butt;stroke-linejoin:miter;stroke-miterlimit:4;stroke-dasharray:none;stroke-dashoffset:0;stroke-opacity:1;color-rendering:auto;image-rendering:auto;shape-rendering:auto;text-rendering:auto;enable-background:accumulate;stop-color:#000000;stop-opacity:1;stroke:none;opacity:1"
     d="m 448,464 c -4.24447,0.007 -8.31595,-1.68148 -11.31,-4.69 l -384,-384 C 46.713534,69.019368 46.840394,59.111507 52.975951,52.975951 59.111507,46.840394 69.019368,46.713534 75.31,52.69 l 384,384 C 469.38182,446.76842 462.24837,463.9934 448,464 Z M 38.72,196.78 C 13.39,219.88 0,251.42 0,288 0,324 14.38,356.88 40.49,380.59 65.64,403.43 99.56,416 136,416 h 192.8 c 7.13242,0.006 10.70619,-8.61942 5.66,-13.66 L 100.88,168.76 c -2.091191,-2.09555 -5.16869,-2.86492 -8,-2 C 72,173.15 53.4,183.38 38.72,196.78 Z M 476.59,391.23 C 499.76,372.78 512,345.39 512,312 c 0,-57.57 -42,-90.58 -87.56,-100.75 -6.12081,-1.39469 -10.86048,-6.23995 -12.12,-12.39 -7.68,-36.68 -24.45,-68.15 -49.18,-92 C 334.35632,79.188605 295.92708,63.815475 256,64 c -31.12,0 -60.12,9 -84.62,26.1 -4.13477,2.828342 -4.6824,8.717793 -1.14,12.26 L 461.68,393.8 c 2.72995,2.73111 7.02115,3.12237 10.2,0.93 1.62,-1.12 3.19,-2.28667 4.71,-3.5 z"
     id="path4" />
</svg>
