<?xml version="1.0" encoding="UTF-8" standalone="no"?>
<svg
   xmlns:dc="http://purl.org/dc/elements/1.1/"
   xmlns:cc="http://creativecommons.org/ns#"
   xmlns:rdf="http://www.w3.org/1999/02/22-rdf-syntax-ns#"
   xmlns:svg="http://www.w3.org/2000/svg"
   xmlns="http://www.w3.org/2000/svg"
   xmlns:sodipodi="http://sodipodi.sourceforge.net/DTD/sodipodi-0.dtd"
   xmlns:inkscape="http://www.inkscape.org/namespaces/inkscape"
   class="ionicon"
   viewBox="0 0 512 512"
   version="1.1"
   id="svg6"
   sodipodi:docname="cloud-download-outline.svg"
   inkscape:version="1.0.2 (e86c8708, 2021-01-15)">
  <metadata
     id="metadata12">
    <rdf:RDF>
      <cc:Work
         rdf:about="">
        <dc:format>image/svg+xml</dc:format>
        <dc:type
           rdf:resource="http://purl.org/dc/dcmitype/StillImage" />
      </cc:Work>
    </rdf:RDF>
  </metadata>
  <defs
     id="defs10" />
  <sodipodi:namedview
     pagecolor="#ffffff"
     bordercolor="#666666"
     borderopacity="1"
     objecttolerance="10"
     gridtolerance="10"
     guidetolerance="10"
     inkscape:pageopacity="0"
     inkscape:pageshadow="2"
     inkscape:window-width="689"
     inkscape:window-height="480"
     id="namedview8"
     showgrid="false"
     inkscape:zoom="1.3027344"
     inkscape:cx="256"
     inkscape:cy="256"
     inkscape:window-x="44"
     inkscape:window-y="25"
     inkscape:window-maximized="0"
     inkscape:current-layer="svg6" />
  <title
     id="title2">Cloud Download</title>
  <path
     style="color:#000000;font-style:normal;font-variant:normal;font-weight:normal;font-stretch:normal;font-size:medium;line-height:normal;font-family:sans-serif;font-variant-ligatures:normal;font-variant-position:normal;font-variant-caps:normal;font-variant-numeric:normal;font-variant-alternates:normal;font-variant-east-asian:normal;font-feature-settings:normal;font-variation-settings:normal;text-indent:0;text-align:start;text-decoration:none;text-decoration-line:none;text-decoration-style:solid;text-decoration-color:#000000;letter-spacing:normal;word-spacing:normal;text-transform:none;writing-mode:lr-tb;direction:ltr;text-orientation:mixed;dominant-baseline:auto;baseline-shift:baseline;text-anchor:start;white-space:normal;shape-padding:0;shape-margin:0;inline-size:0;clip-rule:nonzero;display:inline;overflow:visible;visibility:visible;isolation:auto;mix-blend-mode:normal;color-interpolation:sRGB;color-interpolation-filters:linearRGB;solid-color:#000000;solid-opacity:1;vector-effect:none;fill:currentColor;fill-opacity:1;fill-rule:nonzero;stroke:none;stroke-linecap:round;stroke-linejoin:round;stroke-miterlimit:4;stroke-dasharray:none;stroke-dashoffset:0;stroke-opacity:1;color-rendering:auto;image-rendering:auto;shape-rendering:auto;text-rendering:auto;enable-background:accumulate;stop-color:#000000;stop-opacity:1;opacity:1"
     d="M 256 32 C 184.7689 32 135.82744 76.594147 116.33984 124.50195 C 87.844011 128.48562 60.90737 137.81912 39.628906 154.50195 C 15.836572 173.15572 4.7369516e-15 201.9037 0 237.59961 C 0 273.46614 16.273732 303.46398 41.474609 322.91211 C 66.675487 342.36023 100.10061 352 136 352 L 192 352 A 16 16 0 0 0 208 336 A 16 16 0 0 0 192 320 L 136 320 C 105.89939 320 79.324513 311.7 61.025391 297.57812 C 42.726268 283.45625 32 264.25308 32 237.59961 C 32 210.77552 42.163428 193.17482 59.371094 179.68359 C 76.57876 166.19236 101.72719 157.76862 129.51367 155.12891 A 16.0016 16.0016 0 0 0 143.23633 144.08594 C 155.86105 104.71173 194.07865 64 256 64 C 321.43982 64 375.92708 108.39853 384.08594 186.46289 A 16.0016 16.0016 0 0 0 399.20898 200.78125 C 418.67559 201.74553 440.34343 206.84752 455.54297 216.50586 C 470.74251 226.1642 480 238.40242 480 260.40039 C 480 283.18281 472.00969 295.76199 457.74023 305.28906 C 443.47078 314.81614 421.44327 320 396 320 L 320 320 A 16 16 0 0 0 304 336 A 16 16 0 0 0 320 352 L 396 352 C 425.55673 352 453.52922 346.57777 475.50977 331.90234 C 497.49031 317.22692 512 292.00797 512 260.40039 C 512 228.00836 494.75749 203.50971 472.70703 189.49805 C 454.68211 178.04436 433.86162 172.46026 413.98242 170.09961 C 399.40836 85.580991 332.66845 32 256 32 z M 256 208 A 16 16 0 0 0 240 224 L 240 425.41602 L 203.30469 388.77734 A 16 16 0 0 0 180.67773 388.79492 A 16 16 0 0 0 180.69531 411.42188 L 244.69531 475.32227 A 16.0016 16.0016 0 0 0 267.30469 475.32227 L 331.30469 411.42188 A 16 16 0 0 0 331.32227 388.79492 A 16 16 0 0 0 308.69531 388.77734 L 272 425.41602 L 272 224 A 16 16 0 0 0 256 208 z "
     id="path4" />
</svg>
