<?xml version="1.0" encoding="UTF-8" standalone="no"?>
<svg
   xmlns:dc="http://purl.org/dc/elements/1.1/"
   xmlns:cc="http://creativecommons.org/ns#"
   xmlns:rdf="http://www.w3.org/1999/02/22-rdf-syntax-ns#"
   xmlns:svg="http://www.w3.org/2000/svg"
   xmlns="http://www.w3.org/2000/svg"
   xmlns:sodipodi="http://sodipodi.sourceforge.net/DTD/sodipodi-0.dtd"
   xmlns:inkscape="http://www.inkscape.org/namespaces/inkscape"
   class="ionicon"
   viewBox="0 0 512 512"
   version="1.1"
   id="svg6"
   sodipodi:docname="cloudy-outline.svg"
   inkscape:version="1.0.2 (e86c8708, 2021-01-15)">
  <metadata
     id="metadata12">
    <rdf:RDF>
      <cc:Work
         rdf:about="">
        <dc:format>image/svg+xml</dc:format>
        <dc:type
           rdf:resource="http://purl.org/dc/dcmitype/StillImage" />
      </cc:Work>
    </rdf:RDF>
  </metadata>
  <defs
     id="defs10" />
  <sodipodi:namedview
     pagecolor="#ffffff"
     bordercolor="#666666"
     borderopacity="1"
     objecttolerance="10"
     gridtolerance="10"
     guidetolerance="10"
     inkscape:pageopacity="0"
     inkscape:pageshadow="2"
     inkscape:window-width="689"
     inkscape:window-height="480"
     id="namedview8"
     showgrid="false"
     inkscape:zoom="1.3027344"
     inkscape:cx="256"
     inkscape:cy="256"
     inkscape:window-x="44"
     inkscape:window-y="25"
     inkscape:window-maximized="0"
     inkscape:current-layer="svg6" />
  <title
     id="title2">Cloudy</title>
  <path
     style="color:#000000;font-style:normal;font-variant:normal;font-weight:normal;font-stretch:normal;font-size:medium;line-height:normal;font-family:sans-serif;font-variant-ligatures:normal;font-variant-position:normal;font-variant-caps:normal;font-variant-numeric:normal;font-variant-alternates:normal;font-variant-east-asian:normal;font-feature-settings:normal;font-variation-settings:normal;text-indent:0;text-align:start;text-decoration:none;text-decoration-line:none;text-decoration-style:solid;text-decoration-color:#000000;letter-spacing:normal;word-spacing:normal;text-transform:none;writing-mode:lr-tb;direction:ltr;text-orientation:mixed;dominant-baseline:auto;baseline-shift:baseline;text-anchor:start;white-space:normal;shape-padding:0;shape-margin:0;inline-size:0;clip-rule:nonzero;display:inline;overflow:visible;visibility:visible;isolation:auto;mix-blend-mode:normal;color-interpolation:sRGB;color-interpolation-filters:linearRGB;solid-color:#000000;solid-opacity:1;vector-effect:none;fill:currentColor;fill-opacity:1;fill-rule:nonzero;stroke:none;stroke-linecap:butt;stroke-linejoin:round;stroke-miterlimit:4;stroke-dasharray:none;stroke-dashoffset:0;stroke-opacity:1;color-rendering:auto;image-rendering:auto;shape-rendering:auto;text-rendering:auto;enable-background:accumulate;stop-color:#000000;stop-opacity:1;opacity:1"
     d="M 256 80 C 178.76393 80 111.85643 136.58674 97.759766 225.37695 C 75.092283 228.76279 51.320198 237.70992 32.384766 254.44531 C 13.431463 271.1965 4.7369516e-15 296.48443 0 328 C 0 362.24301 13.609536 389.87026 35.410156 407.22656 C 57.210776 424.58286 85.839152 432 116 432 L 376 432 C 449.43434 432 512 378.72727 512 304 C 512 267.76572 498.45751 237.5864 476.95898 216.26367 C 455.46045 194.94095 426.64708 182.25299 395.95898 177.37891 C 395.89445 177.36866 395.89629 177.36966 395.87305 177.30859 A 16.0016 16.0016 0 0 0 395.85742 177.26758 C 376.72429 127.4075 327.6747 80 256 80 z M 256 112 C 313.7053 112 350.85556 149.3125 365.98242 188.73242 L 365.9668 188.69141 C 370.04811 199.41425 379.6083 207.18258 390.93945 208.98242 C 416.16136 212.98833 438.62486 223.3146 454.42383 238.98438 C 470.2228 254.65415 480 275.44428 480 304 C 480 361.27273 434.56566 400 376 400 L 116 400 C 91.160848 400 69.789224 393.69706 55.339844 382.19336 C 40.890464 370.68966 32 354.31699 32 328 C 32 305.08557 40.511974 289.96819 53.576172 278.42188 C 66.640369 266.87556 84.933895 259.6371 102.53711 257.01562 A 16.0016 16.0016 0 0 0 102.55273 257.01367 C 116.25571 254.95919 127.17362 244.13898 129.35156 230.45508 A 16.0016 16.0016 0 0 0 129.35352 230.44336 C 141.37747 154.56806 193.93345 112 256 112 z M 97.75 225.42383 C 97.74937 225.4278 97.748676 225.43157 97.748047 225.43555 L 97.748047 225.42578 C 97.747869 225.4269 97.749963 225.42298 97.75 225.42383 z "
     id="path4" />
</svg>
