<?xml version="1.0" encoding="UTF-8" standalone="no"?>
<svg
   xmlns:dc="http://purl.org/dc/elements/1.1/"
   xmlns:cc="http://creativecommons.org/ns#"
   xmlns:rdf="http://www.w3.org/1999/02/22-rdf-syntax-ns#"
   xmlns:svg="http://www.w3.org/2000/svg"
   xmlns="http://www.w3.org/2000/svg"
   xmlns:sodipodi="http://sodipodi.sourceforge.net/DTD/sodipodi-0.dtd"
   xmlns:inkscape="http://www.inkscape.org/namespaces/inkscape"
   class="ionicon"
   viewBox="0 0 512 512"
   version="1.1"
   id="svg8"
   sodipodi:docname="cloud-upload-outline.svg"
   inkscape:version="1.0.2 (e86c8708, 2021-01-15)">
  <metadata
     id="metadata14">
    <rdf:RDF>
      <cc:Work
         rdf:about="">
        <dc:format>image/svg+xml</dc:format>
        <dc:type
           rdf:resource="http://purl.org/dc/dcmitype/StillImage" />
      </cc:Work>
    </rdf:RDF>
  </metadata>
  <defs
     id="defs12" />
  <sodipodi:namedview
     pagecolor="#ffffff"
     bordercolor="#666666"
     borderopacity="1"
     objecttolerance="10"
     gridtolerance="10"
     guidetolerance="10"
     inkscape:pageopacity="0"
     inkscape:pageshadow="2"
     inkscape:window-width="689"
     inkscape:window-height="480"
     id="namedview10"
     showgrid="false"
     inkscape:zoom="1.3027344"
     inkscape:cx="256"
     inkscape:cy="256"
     inkscape:window-x="44"
     inkscape:window-y="25"
     inkscape:window-maximized="0"
     inkscape:current-layer="svg8" />
  <title
     id="title2">Cloud Upload</title>
  <path
     style="color:#000000;font-style:normal;font-variant:normal;font-weight:normal;font-stretch:normal;font-size:medium;line-height:normal;font-family:sans-serif;font-variant-ligatures:normal;font-variant-position:normal;font-variant-caps:normal;font-variant-numeric:normal;font-variant-alternates:normal;font-variant-east-asian:normal;font-feature-settings:normal;font-variation-settings:normal;text-indent:0;text-align:start;text-decoration:none;text-decoration-line:none;text-decoration-style:solid;text-decoration-color:#000000;letter-spacing:normal;word-spacing:normal;text-transform:none;writing-mode:lr-tb;direction:ltr;text-orientation:mixed;dominant-baseline:auto;baseline-shift:baseline;text-anchor:start;white-space:normal;shape-padding:0;shape-margin:0;inline-size:0;clip-rule:nonzero;display:inline;overflow:visible;visibility:visible;isolation:auto;mix-blend-mode:normal;color-interpolation:sRGB;color-interpolation-filters:linearRGB;solid-color:#000000;solid-opacity:1;vector-effect:none;fill:currentColor;fill-opacity:1;fill-rule:nonzero;stroke:none;stroke-linecap:round;stroke-linejoin:round;stroke-miterlimit:4;stroke-dasharray:none;stroke-dashoffset:0;stroke-opacity:1;color-rendering:auto;image-rendering:auto;shape-rendering:auto;text-rendering:auto;enable-background:accumulate;stop-color:#000000;stop-opacity:1;opacity:1"
     d="M 256 47.789062 C 184.72478 47.789062 135.76198 92.439291 116.29883 140.38086 C 87.193233 144.82851 59.987354 156.30812 38.919922 174.88086 C 15.407959 195.60866 0 225.69471 0 261.39062 C 0 333.12368 62.908283 383.78906 136 383.78906 L 192 383.78906 A 16 16 0 0 0 208 367.78906 A 16 16 0 0 0 192 351.78906 L 136 351.78906 C 77.091717 351.78906 32 314.69757 32 261.39062 C 32 234.56654 42.592041 214.30196 60.080078 198.88477 C 77.568116 183.46757 102.42879 173.49103 129.51367 170.91797 A 16.0016 16.0016 0 0 0 143.23633 159.875 C 155.86105 120.50079 194.07865 79.789062 256 79.789062 C 321.43982 79.789062 375.92708 124.18955 384.08594 202.25391 A 16.0016 16.0016 0 0 0 399.20898 216.57031 C 417.68698 217.48562 439.07727 224.11804 454.58398 235.63672 C 470.0907 247.1554 480 262.19149 480 284.18945 C 480 306.97188 471.41091 322.39113 456.80078 333.75781 C 442.19066 345.12449 420.66752 351.78906 396 351.78906 L 320 351.78906 A 16 16 0 0 0 304 367.78906 A 16 16 0 0 0 320 383.78906 L 396 383.78906 C 426.33248 383.78906 454.80934 375.84949 476.44922 359.01367 C 498.08909 342.17785 512 315.79703 512 284.18945 C 512 251.79742 495.4093 226.10054 473.66602 209.94922 C 455.77608 196.66023 434.60127 188.98743 413.99609 185.98047 C 399.45406 101.40972 332.69572 47.789063 256 47.789062 z "
     id="path4" />
  <path
     style="color:#000000;font-style:normal;font-variant:normal;font-weight:normal;font-stretch:normal;font-size:medium;line-height:normal;font-family:sans-serif;font-variant-ligatures:normal;font-variant-position:normal;font-variant-caps:normal;font-variant-numeric:normal;font-variant-alternates:normal;font-variant-east-asian:normal;font-feature-settings:normal;font-variation-settings:normal;text-indent:0;text-align:start;text-decoration:none;text-decoration-line:none;text-decoration-style:solid;text-decoration-color:#000000;letter-spacing:normal;word-spacing:normal;text-transform:none;writing-mode:lr-tb;direction:ltr;text-orientation:mixed;dominant-baseline:auto;baseline-shift:baseline;text-anchor:start;white-space:normal;shape-padding:0;shape-margin:0;inline-size:0;clip-rule:nonzero;display:inline;overflow:visible;visibility:visible;isolation:auto;mix-blend-mode:normal;color-interpolation:sRGB;color-interpolation-filters:linearRGB;solid-color:#000000;solid-opacity:1;vector-effect:none;fill:currentColor;fill-opacity:1;fill-rule:nonzero;stroke:none;stroke-linecap:round;stroke-linejoin:round;stroke-miterlimit:4;stroke-dasharray:none;stroke-dashoffset:0;stroke-opacity:1;color-rendering:auto;image-rendering:auto;shape-rendering:auto;text-rendering:auto;enable-background:accumulate;stop-color:#000000;stop-opacity:1;opacity:1"
     d="M 256.12109 175.79102 A 16.0016 16.0016 0 0 0 244.68555 180.47656 L 180.68555 244.47656 A 16 16 0 0 0 180.68555 267.10352 A 16 16 0 0 0 203.31445 267.10352 L 240 230.41797 L 240 448.21094 A 16 16 0 0 0 256 464.21094 A 16 16 0 0 0 272 448.21094 L 272 230.41797 L 308.68555 267.10352 A 16 16 0 0 0 331.31445 267.10352 A 16 16 0 0 0 331.31445 244.47656 L 267.31445 180.47656 A 16.0016 16.0016 0 0 0 256.12109 175.79102 z "
     id="path6" />
</svg>
