<?xml version="1.0" encoding="UTF-8" standalone="no"?>
<svg
   xmlns:dc="http://purl.org/dc/elements/1.1/"
   xmlns:cc="http://creativecommons.org/ns#"
   xmlns:rdf="http://www.w3.org/1999/02/22-rdf-syntax-ns#"
   xmlns:svg="http://www.w3.org/2000/svg"
   xmlns="http://www.w3.org/2000/svg"
   xmlns:sodipodi="http://sodipodi.sourceforge.net/DTD/sodipodi-0.dtd"
   xmlns:inkscape="http://www.inkscape.org/namespaces/inkscape"
   class="ionicon"
   viewBox="0 0 512 512"
   version="1.1"
   id="svg6"
   sodipodi:docname="cloud-upload.svg"
   inkscape:version="1.0.2 (e86c8708, 2021-01-15)">
  <metadata
     id="metadata12">
    <rdf:RDF>
      <cc:Work
         rdf:about="">
        <dc:format>image/svg+xml</dc:format>
        <dc:type
           rdf:resource="http://purl.org/dc/dcmitype/StillImage" />
      </cc:Work>
    </rdf:RDF>
  </metadata>
  <defs
     id="defs10" />
  <sodipodi:namedview
     pagecolor="#ffffff"
     bordercolor="#666666"
     borderopacity="1"
     objecttolerance="10"
     gridtolerance="10"
     guidetolerance="10"
     inkscape:pageopacity="0"
     inkscape:pageshadow="2"
     inkscape:window-width="689"
     inkscape:window-height="480"
     id="namedview8"
     showgrid="false"
     inkscape:zoom="1.3027344"
     inkscape:cx="256"
     inkscape:cy="256"
     inkscape:window-x="44"
     inkscape:window-y="25"
     inkscape:window-maximized="0"
     inkscape:current-layer="svg6" />
  <title
     id="title2">Cloud Upload</title>
  <path
     style="color:#000000;font-style:normal;font-variant:normal;font-weight:normal;font-stretch:normal;font-size:medium;line-height:normal;font-family:sans-serif;font-variant-ligatures:normal;font-variant-position:normal;font-variant-caps:normal;font-variant-numeric:normal;font-variant-alternates:normal;font-variant-east-asian:normal;font-feature-settings:normal;font-variation-settings:normal;text-indent:0;text-align:start;text-decoration:none;text-decoration-line:none;text-decoration-style:solid;text-decoration-color:#000000;letter-spacing:normal;word-spacing:normal;text-transform:none;writing-mode:lr-tb;direction:ltr;text-orientation:mixed;dominant-baseline:auto;baseline-shift:baseline;text-anchor:start;white-space:normal;shape-padding:0;shape-margin:0;inline-size:0;clip-rule:nonzero;display:inline;overflow:visible;visibility:visible;isolation:auto;mix-blend-mode:normal;color-interpolation:sRGB;color-interpolation-filters:linearRGB;solid-color:#000000;solid-opacity:1;vector-effect:none;fill:#000000;fill-opacity:1;fill-rule:nonzero;stroke-width:1;stroke-linecap:butt;stroke-linejoin:miter;stroke-miterlimit:4;stroke-dasharray:none;stroke-dashoffset:0;stroke-opacity:1;color-rendering:auto;image-rendering:auto;shape-rendering:auto;text-rendering:auto;enable-background:accumulate;stop-color:#000000;stop-opacity:1;stroke:none;opacity:1"
     d="m 473.66,210 c -14,-10.38 -31.2,-18 -49.36,-22.11 -6.08675,-1.36931 -10.83566,-6.12991 -12.19,-12.22 -7.8,-34.75 -24.59,-64.55 -49.27,-87.13 C 334.15,62.25 296.21,47.79 256,47.79 c -35.35,0 -68,11.08 -94.37,32.05 -17.87177,14.234553 -32.25736,32.36191 -42.06,53 -2.15508,4.57893 -6.34938,7.86837 -11.31,8.87 -26.75,5.4 -50.9,16.87 -69.34,33.12 C 13.46,197.33 0,227.24 0,261.39 c 0,34.52 14.49,66 40.79,88.76 25.12,21.69 58.94,33.64 95.21,33.64 H 240 V 230.42 l -36.69,36.69 c -6.46299,6.4624 -17.0169,6.20721 -23.16,-0.56 -5.8,-6.37 -5.24,-16.3 0.85,-22.39 l 63.69,-63.68 c 6.24754,-6.24345 16.37246,-6.24345 22.62,0 L 331,244.14 c 6.28,6.29 6.64,16.6 0.39,22.91 -6.23772,6.3001 -16.40903,6.32701 -22.68,0.06 L 272,230.42 v 153.37 h 124 c 31.34,0 59.91,-8.8 80.45,-24.77 23.26,-18.1 35.55,-44 35.55,-74.83 0,-29.94 -13.26,-55.61 -38.34,-74.19 z M 240,448.21 c 0,8.83656 7.16344,15.99999 16,15.99999 8.83656,0 16,-7.16343 16,-15.99999 v -64.42 h -32 z"
     id="path4" />
</svg>
