<?xml version="1.0" encoding="utf-8"?>
<!-- Generator: Adobe Illustrator 24.0.0, SVG Export Plug-In . SVG Version: 6.00 Build 0)  -->
<svg version="1.1" id="Layer_1" xmlns="http://www.w3.org/2000/svg" xmlns:xlink="http://www.w3.org/1999/xlink" x="0px" y="0px"
	 viewBox="0 0 512 512" style="enable-background:new 0 0 512 512;" xml:space="preserve">
<title>ionicons-v5-m</title>
<g>
	<path d="M160,384c-3.7,0-7.5-1.3-10.5-4l-128-112c-3.5-3-5.5-7.4-5.5-12c0-4.6,2-9,5.5-12l128-112c6.7-5.8,16.8-5.1,22.6,1.5
		c5.8,6.7,5.1,16.8-1.5,22.6L56.3,256l114.2,100c6.6,5.8,7.3,15.9,1.5,22.6C168.9,382.2,164.4,384,160,384z"/>
</g>
<g>
	<path d="M352,384c-4.5,0-8.9-1.8-12-5.5c-5.8-6.7-5.1-16.8,1.5-22.6l114.2-100L341.5,156c-6.7-5.8-7.3-15.9-1.5-22.6
		c5.8-6.6,15.9-7.3,22.6-1.5l128,112c3.5,3,5.5,7.4,5.5,12c0,4.6-2,9-5.5,12l-128,112C359.5,382.7,355.7,384,352,384z"/>
</g>
<g>
	<path d="M256,368c-4.1,0-8.2-1.6-11.3-4.7l-64-63.9c-6.3-6.2-6.3-16.4,0-22.6c6.2-6.3,16.4-6.3,22.6,0l52.7,52.6l52.7-52.6
		c6.3-6.2,16.4-6.2,22.6,0c6.2,6.3,6.2,16.4,0,22.6l-64,63.9C264.2,366.4,260.1,368,256,368z"/>
</g>
<g>
	<path d="M256,352c-8.8,0-16-7.2-16-16V160c0-8.8,7.2-16,16-16c8.8,0,16,7.2,16,16v176C272,344.9,264.8,352,256,352z"/>
</g>
</svg>
