<?xml version="1.0" encoding="UTF-8" standalone="no"?>
<svg
   xmlns:dc="http://purl.org/dc/elements/1.1/"
   xmlns:cc="http://creativecommons.org/ns#"
   xmlns:rdf="http://www.w3.org/1999/02/22-rdf-syntax-ns#"
   xmlns:svg="http://www.w3.org/2000/svg"
   xmlns="http://www.w3.org/2000/svg"
   xmlns:sodipodi="http://sodipodi.sourceforge.net/DTD/sodipodi-0.dtd"
   xmlns:inkscape="http://www.inkscape.org/namespaces/inkscape"
   class="ionicon"
   viewBox="0 0 512 512"
   version="1.1"
   id="svg6"
   sodipodi:docname="code-download.svg"
   inkscape:version="1.0.2 (e86c8708, 2021-01-15)">
  <metadata
     id="metadata12">
    <rdf:RDF>
      <cc:Work
         rdf:about="">
        <dc:format>image/svg+xml</dc:format>
        <dc:type
           rdf:resource="http://purl.org/dc/dcmitype/StillImage" />
      </cc:Work>
    </rdf:RDF>
  </metadata>
  <defs
     id="defs10" />
  <sodipodi:namedview
     pagecolor="#ffffff"
     bordercolor="#666666"
     borderopacity="1"
     objecttolerance="10"
     gridtolerance="10"
     guidetolerance="10"
     inkscape:pageopacity="0"
     inkscape:pageshadow="2"
     inkscape:window-width="689"
     inkscape:window-height="480"
     id="namedview8"
     showgrid="false"
     inkscape:zoom="1.3027344"
     inkscape:cx="256"
     inkscape:cy="256"
     inkscape:window-x="44"
     inkscape:window-y="25"
     inkscape:window-maximized="0"
     inkscape:current-layer="svg6" />
  <title
     id="title2">Code Download</title>
  <path
     style="color:#000000;font-style:normal;font-variant:normal;font-weight:normal;font-stretch:normal;font-size:medium;line-height:normal;font-family:sans-serif;font-variant-ligatures:normal;font-variant-position:normal;font-variant-caps:normal;font-variant-numeric:normal;font-variant-alternates:normal;font-variant-east-asian:normal;font-feature-settings:normal;font-variation-settings:normal;text-indent:0;text-align:start;text-decoration:none;text-decoration-line:none;text-decoration-style:solid;text-decoration-color:#000000;letter-spacing:normal;word-spacing:normal;text-transform:none;writing-mode:lr-tb;direction:ltr;text-orientation:mixed;dominant-baseline:auto;baseline-shift:baseline;text-anchor:start;white-space:normal;shape-padding:0;shape-margin:0;inline-size:0;clip-rule:nonzero;display:inline;overflow:visible;visibility:visible;isolation:auto;mix-blend-mode:normal;color-interpolation:sRGB;color-interpolation-filters:linearRGB;solid-color:#000000;solid-opacity:1;vector-effect:none;fill:currentColor;fill-opacity:1;fill-rule:nonzero;stroke:none;stroke-linecap:round;stroke-linejoin:round;stroke-miterlimit:4;stroke-dasharray:none;stroke-dashoffset:0;stroke-opacity:1;color-rendering:auto;image-rendering:auto;shape-rendering:auto;text-rendering:auto;enable-background:accumulate;stop-color:#000000;stop-opacity:1;opacity:1"
     d="M 160.16602 123 A 21 21 0 0 0 146.17188 128.19531 L 18.171875 240.19531 A 21.0021 21.0021 0 0 0 18.171875 271.80469 L 146.17188 383.80469 A 21 21 0 0 0 175.80469 381.82812 A 21 21 0 0 0 173.82812 352.19531 L 63.890625 256 L 173.82812 159.80469 A 21 21 0 0 0 175.80469 130.17188 A 21 21 0 0 0 160.16602 123 z M 352.06641 123 A 21 21 0 0 0 336.19531 130.17188 A 21 21 0 0 0 338.17188 159.80469 L 448.10938 256 L 338.17188 352.19531 A 21 21 0 0 0 336.19531 381.82812 A 21 21 0 0 0 365.82812 383.80469 L 493.82812 271.80469 A 21.0021 21.0021 0 0 0 493.82812 240.19531 L 365.82812 128.19531 A 21 21 0 0 0 352.06641 123 z M 256 139 A 21 21 0 0 0 235 160 L 235 301.35742 L 206.83789 273.23828 A 21 21 0 0 0 177.13867 273.26172 A 21 21 0 0 0 177.16211 302.96094 L 241.16211 366.86133 A 21.0021 21.0021 0 0 0 270.83789 366.86133 L 334.83789 302.96094 A 21 21 0 0 0 334.86133 273.26172 A 21 21 0 0 0 305.16211 273.23828 L 277 301.35742 L 277 160 A 21 21 0 0 0 256 139 z "
     id="path4" />
</svg>
