<?xml version="1.0" encoding="utf-8"?>
<!-- Generator: Adobe Illustrator 24.0.0, SVG Export Plug-In . SVG Version: 6.00 Build 0)  -->
<svg version="1.1" id="Layer_1" xmlns="http://www.w3.org/2000/svg" xmlns:xlink="http://www.w3.org/1999/xlink" x="0px" y="0px"
	 viewBox="0 0 512 512" style="enable-background:new 0 0 512 512;" xml:space="preserve">
<title>ionicons-v5-m</title>
<g>
	<circle cx="256" cy="256" r="26"/>
	<path d="M256,287c-17.1,0-31-13.9-31-31c0-17.1,13.9-31,31-31c17.1,0,31,13.9,31,31C287,273.1,273.1,287,256,287z M256,235
		c-11.6,0-21,9.4-21,21c0,11.6,9.4,21,21,21c11.6,0,21-9.4,21-21C277,244.4,267.6,235,256,235z"/>
</g>
<g>
	<circle cx="346" cy="256" r="26"/>
	<path d="M346,287c-17.1,0-31-13.9-31-31c0-17.1,13.9-31,31-31s31,13.9,31,31C377,273.1,363.1,287,346,287z M346,235
		c-11.6,0-21,9.4-21,21c0,11.6,9.4,21,21,21s21-9.4,21-21C367,244.4,357.6,235,346,235z"/>
</g>
<g>
	<circle cx="166" cy="256" r="26"/>
	<path d="M166,287c-17.1,0-31-13.9-31-31c0-17.1,13.9-31,31-31s31,13.9,31,31C197,273.1,183.1,287,166,287z M166,235
		c-11.6,0-21,9.4-21,21c0,11.6,9.4,21,21,21s21-9.4,21-21C187,244.4,177.6,235,166,235z"/>
</g>
<g>
	<polygon points="162,397.6 0.1,256 162,114.4 189.6,146 63.9,256 189.6,366 	"/>
</g>
<g>
	<polygon points="350,397.6 322.4,366 448.1,256 322.4,146 350,114.4 511.9,256 	"/>
</g>
</svg>
