<?xml version="1.0" encoding="utf-8"?>
<!-- Generator: Adobe Illustrator 24.0.0, SVG Export Plug-In . SVG Version: 6.00 Build 0)  -->
<svg version="1.1" id="Layer_1" xmlns="http://www.w3.org/2000/svg" xmlns:xlink="http://www.w3.org/1999/xlink" x="0px" y="0px"
	 viewBox="0 0 512 512" style="enable-background:new 0 0 512 512;" xml:space="preserve">
<title>ionicons-v5-m</title>
<g>
	<circle cx="256" cy="256" r="26"/>
	<path d="M256,287c-17.1,0-31-13.9-31-31c0-17.1,13.9-31,31-31c17.1,0,31,13.9,31,31C287,273.1,273.1,287,256,287z M256,235
		c-11.6,0-21,9.4-21,21c0,11.6,9.4,21,21,21c11.6,0,21-9.4,21-21C277,244.4,267.6,235,256,235z"/>
</g>
<g>
	<circle cx="346" cy="256" r="26"/>
	<path d="M346,287c-17.1,0-31-13.9-31-31c0-17.1,13.9-31,31-31s31,13.9,31,31C377,273.1,363.1,287,346,287z M346,235
		c-11.6,0-21,9.4-21,21c0,11.6,9.4,21,21,21s21-9.4,21-21C367,244.4,357.6,235,346,235z"/>
</g>
<g>
	<circle cx="166" cy="256" r="26"/>
	<path d="M166,287c-17.1,0-31-13.9-31-31c0-17.1,13.9-31,31-31s31,13.9,31,31C197,273.1,183.1,287,166,287z M166,235
		c-11.6,0-21,9.4-21,21c0,11.6,9.4,21,21,21s21-9.4,21-21C187,244.4,177.6,235,166,235z"/>
</g>
<g>
	<path d="M160,389c-4.9,0-9.8-1.7-13.8-5.2l-128-112c-4.6-4-7.2-9.7-7.2-15.8s2.6-11.8,7.2-15.8l128-112c8.7-7.6,22-6.8,29.6,2
		c7.6,8.7,6.8,22-2,29.6L63.9,256l109.9,96.2c8.7,7.6,9.6,20.9,2,29.6C171.7,386.6,165.8,389,160,389z"/>
</g>
<g>
	<path d="M352,389c-5.8,0-11.7-2.4-15.8-7.2c-7.6-8.7-6.8-22,2-29.6L448.1,256l-109.9-96.2c-8.7-7.6-9.6-20.9-2-29.6
		c7.6-8.7,20.9-9.6,29.6-2l128,112c4.6,4,7.2,9.7,7.2,15.8s-2.6,11.8-7.2,15.8l-128,112C361.8,387.3,356.9,389,352,389z"/>
</g>
</svg>
