<?xml version="1.0" encoding="utf-8"?>
<!-- Generator: Adobe Illustrator 24.0.0, SVG Export Plug-In . SVG Version: 6.00 Build 0)  -->
<svg version="1.1" id="Layer_1" xmlns="http://www.w3.org/2000/svg" xmlns:xlink="http://www.w3.org/1999/xlink" x="0px" y="0px"
	 viewBox="0 0 512 512" style="enable-background:new 0 0 512 512;" xml:space="preserve">
<title>ionicons-v5-m</title>
<g>
	<path d="M160,389c-4.9,0-9.8-1.7-13.8-5.2l-128-112c-4.6-4-7.2-9.7-7.2-15.8s2.6-11.8,7.2-15.8l128-112c8.7-7.6,22-6.8,29.6,2
		c7.6,8.7,6.8,22-2,29.6L63.9,256l109.9,96.2c8.7,7.6,9.6,20.9,2,29.6C171.7,386.6,165.8,389,160,389z"/>
</g>
<g>
	<path d="M352,389c-5.8,0-11.7-2.4-15.8-7.2c-7.6-8.7-6.8-22,2-29.6L448.1,256l-109.9-96.2c-8.7-7.6-9.6-20.9-2-29.6
		c7.6-8.7,20.9-9.6,29.6-2l128,112c4.6,4,7.2,9.7,7.2,15.8s-2.6,11.8-7.2,15.8l-128,112C361.8,387.3,356.9,389,352,389z"/>
</g>
<g>
	<path d="M256,373c-5.4,0-10.7-2-14.8-6.1l-64-63.9c-8.2-8.2-8.2-21.5,0-29.7s21.5-8.2,29.7,0l49.2,49.1l49.2-49.1
		c8.2-8.2,21.5-8.2,29.7,0c8.2,8.2,8.2,21.5,0,29.7l-64,63.9C266.7,371,261.4,373,256,373z"/>
</g>
<g>
	<path d="M256,357c-11.6,0-21-9.4-21-21V160c0-11.6,9.4-21,21-21c11.6,0,21,9.4,21,21v176C277,347.6,267.6,357,256,357z"/>
</g>
</svg>
