<?xml version="1.0" encoding="UTF-8" standalone="no"?>
<svg
   xmlns:dc="http://purl.org/dc/elements/1.1/"
   xmlns:cc="http://creativecommons.org/ns#"
   xmlns:rdf="http://www.w3.org/1999/02/22-rdf-syntax-ns#"
   xmlns:svg="http://www.w3.org/2000/svg"
   xmlns="http://www.w3.org/2000/svg"
   xmlns:sodipodi="http://sodipodi.sourceforge.net/DTD/sodipodi-0.dtd"
   xmlns:inkscape="http://www.inkscape.org/namespaces/inkscape"
   class="ionicon"
   viewBox="0 0 512 512"
   version="1.1"
   id="svg6"
   sodipodi:docname="code-download-outline.svg"
   inkscape:version="1.0.2 (e86c8708, 2021-01-15)">
  <metadata
     id="metadata12">
    <rdf:RDF>
      <cc:Work
         rdf:about="">
        <dc:format>image/svg+xml</dc:format>
        <dc:type
           rdf:resource="http://purl.org/dc/dcmitype/StillImage" />
      </cc:Work>
    </rdf:RDF>
  </metadata>
  <defs
     id="defs10" />
  <sodipodi:namedview
     pagecolor="#ffffff"
     bordercolor="#666666"
     borderopacity="1"
     objecttolerance="10"
     gridtolerance="10"
     guidetolerance="10"
     inkscape:pageopacity="0"
     inkscape:pageshadow="2"
     inkscape:window-width="689"
     inkscape:window-height="480"
     id="namedview8"
     showgrid="false"
     inkscape:zoom="1.3027344"
     inkscape:cx="256"
     inkscape:cy="256"
     inkscape:window-x="44"
     inkscape:window-y="25"
     inkscape:window-maximized="0"
     inkscape:current-layer="svg6" />
  <title
     id="title2">Code Download</title>
  <path
     style="color:#000000;font-style:normal;font-variant:normal;font-weight:normal;font-stretch:normal;font-size:medium;line-height:normal;font-family:sans-serif;font-variant-ligatures:normal;font-variant-position:normal;font-variant-caps:normal;font-variant-numeric:normal;font-variant-alternates:normal;font-variant-east-asian:normal;font-feature-settings:normal;font-variation-settings:normal;text-indent:0;text-align:start;text-decoration:none;text-decoration-line:none;text-decoration-style:solid;text-decoration-color:#000000;letter-spacing:normal;word-spacing:normal;text-transform:none;writing-mode:lr-tb;direction:ltr;text-orientation:mixed;dominant-baseline:auto;baseline-shift:baseline;text-anchor:start;white-space:normal;shape-padding:0;shape-margin:0;inline-size:0;clip-rule:nonzero;display:inline;overflow:visible;visibility:visible;isolation:auto;mix-blend-mode:normal;color-interpolation:sRGB;color-interpolation-filters:linearRGB;solid-color:#000000;solid-opacity:1;vector-effect:none;fill:currentColor;fill-opacity:1;fill-rule:nonzero;stroke:none;stroke-linecap:round;stroke-linejoin:round;stroke-miterlimit:4;stroke-dasharray:none;stroke-dashoffset:0;stroke-opacity:1;color-rendering:auto;image-rendering:auto;shape-rendering:auto;text-rendering:auto;enable-background:accumulate;stop-color:#000000;stop-opacity:1;opacity:1"
     d="M 159.83984 128 A 16 16 0 0 0 149.46484 131.95898 L 21.464844 243.95898 A 16.0016 16.0016 0 0 0 21.464844 268.04102 L 149.46484 380.04102 A 16 16 0 0 0 172.04102 378.53516 A 16 16 0 0 0 170.53516 355.95898 L 56.296875 256 L 170.53516 156.04102 A 16 16 0 0 0 172.04102 133.46484 A 16 16 0 0 0 159.83984 128 z M 352.06445 128 A 16 16 0 0 0 339.95898 133.46484 A 16 16 0 0 0 341.46484 156.04102 L 455.70312 256 L 341.46484 355.95898 A 16 16 0 0 0 339.95898 378.53516 A 16 16 0 0 0 362.53516 380.04102 L 490.53516 268.04102 A 16.0016 16.0016 0 0 0 490.53516 243.95898 L 362.53516 131.95898 A 16 16 0 0 0 352.06445 128 z M 256 144 A 16 16 0 0 0 240 160 L 240 313.41602 L 203.30469 276.77734 A 16 16 0 0 0 180.67773 276.79492 A 16 16 0 0 0 180.69531 299.42188 L 244.69531 363.32227 A 16.0016 16.0016 0 0 0 267.30469 363.32227 L 331.30469 299.42188 A 16 16 0 0 0 331.32227 276.79492 A 16 16 0 0 0 308.69531 276.77734 L 272 313.41602 L 272 160 A 16 16 0 0 0 256 144 z "
     id="path4" />
</svg>
