<?xml version="1.0" encoding="UTF-8" standalone="no"?>
<svg
   xmlns:dc="http://purl.org/dc/elements/1.1/"
   xmlns:cc="http://creativecommons.org/ns#"
   xmlns:rdf="http://www.w3.org/1999/02/22-rdf-syntax-ns#"
   xmlns:svg="http://www.w3.org/2000/svg"
   xmlns="http://www.w3.org/2000/svg"
   xmlns:sodipodi="http://sodipodi.sourceforge.net/DTD/sodipodi-0.dtd"
   xmlns:inkscape="http://www.inkscape.org/namespaces/inkscape"
   class="ionicon"
   viewBox="0 0 512 512"
   version="1.1"
   id="svg6"
   sodipodi:docname="cog-outline.svg"
   inkscape:version="1.0.2 (e86c8708, 2021-01-15)">
  <metadata
     id="metadata12">
    <rdf:RDF>
      <cc:Work
         rdf:about="">
        <dc:format>image/svg+xml</dc:format>
        <dc:type
           rdf:resource="http://purl.org/dc/dcmitype/StillImage" />
      </cc:Work>
    </rdf:RDF>
  </metadata>
  <defs
     id="defs10" />
  <sodipodi:namedview
     pagecolor="#ffffff"
     bordercolor="#666666"
     borderopacity="1"
     objecttolerance="10"
     gridtolerance="10"
     guidetolerance="10"
     inkscape:pageopacity="0"
     inkscape:pageshadow="2"
     inkscape:window-width="689"
     inkscape:window-height="480"
     id="namedview8"
     showgrid="false"
     inkscape:zoom="1.3027344"
     inkscape:cx="256"
     inkscape:cy="256"
     inkscape:window-x="44"
     inkscape:window-y="25"
     inkscape:window-maximized="0"
     inkscape:current-layer="svg6" />
  <title
     id="title2">Cog</title>
  <path
     style="color:#000000;font-style:normal;font-variant:normal;font-weight:normal;font-stretch:normal;font-size:medium;line-height:normal;font-family:sans-serif;font-variant-ligatures:normal;font-variant-position:normal;font-variant-caps:normal;font-variant-numeric:normal;font-variant-alternates:normal;font-variant-east-asian:normal;font-feature-settings:normal;font-variation-settings:normal;text-indent:0;text-align:start;text-decoration:none;text-decoration-line:none;text-decoration-style:solid;text-decoration-color:#000000;letter-spacing:normal;word-spacing:normal;text-transform:none;writing-mode:lr-tb;direction:ltr;text-orientation:mixed;dominant-baseline:auto;baseline-shift:baseline;text-anchor:start;white-space:normal;shape-padding:0;shape-margin:0;inline-size:0;clip-rule:nonzero;display:inline;overflow:visible;visibility:visible;isolation:auto;mix-blend-mode:normal;color-interpolation:sRGB;color-interpolation-filters:linearRGB;solid-color:#000000;solid-opacity:1;vector-effect:none;fill:#000000;fill-opacity:1;fill-rule:nonzero;stroke-width:1;stroke-linecap:butt;stroke-linejoin:miter;stroke-miterlimit:4;stroke-dasharray:none;stroke-dashoffset:0;stroke-opacity:1;color-rendering:auto;image-rendering:auto;shape-rendering:auto;text-rendering:auto;enable-background:accumulate;stop-color:#000000;stop-opacity:1;stroke:none;opacity:1"
     d="m 456.7,242.27 -26.08,-4.2 c -3.45651,-0.58197 -6.13164,-3.34627 -6.6,-6.82 -0.5,-3.2 -1,-6.41 -1.7,-9.51 -0.69404,-3.41361 0.87778,-6.88776 3.9,-8.62 l 23.09,-12.82 c 3.61654,-1.84917 5.2889,-6.10296 3.9,-9.92 l -4,-11 c -1.38614,-3.83179 -5.44786,-5.99228 -9.4,-5 l -25.89,5 c -3.4557,0.6689 -6.94262,-0.99946 -8.59,-4.11 -1.5,-2.8 -3.1,-5.60333 -4.8,-8.41 -1.84071,-2.99306 -1.5587,-6.82836 0.7,-9.52 l 17.29,-19.94 c 2.77548,-2.95302 2.90435,-7.51501 0.3,-10.62 l -7.49,-9 c -2.58646,-3.13653 -7.1345,-3.79059 -10.5,-1.51 l -22.69,13.63 c -2.99276,1.77353 -6.78861,1.40971 -9.39,-0.9 -2.4,-2.11 -4.9,-4.21 -7.4,-6.22 -2.72869,-2.16796 -3.73995,-5.85295 -2.5,-9.11 l 9.4,-24.75 c 1.65606,-3.717485 0.25734,-8.085819 -3.25,-10.15 l -10.2,-5.91 c -3.52327,-2.00069 -7.98601,-1.051446 -10.39,2.21 l -16.64,20.84 c -1.91341,2.699926 -5.42953,3.734078 -8.5,2.5 0,0 -5.6,-2.3 -9.8,-3.71 -3.30561,-1.101588 -5.51806,-4.216002 -5.47,-7.7 l 0.4,-26.45 c 0.24378,-4.071212 -2.58839,-7.684367 -6.6,-8.42 l -11.59,-2 c -4.01459,-0.695314 -7.91777,1.710934 -9.1,5.61 l -8.6,25.05 c -1.13253,3.314086 -4.28907,5.506236 -7.79,5.41 h -9.8 c -3.4942,0.07378 -6.63878,-2.110066 -7.79,-5.41 l -8.6,-25.05 c -1.18223,-3.899066 -5.08541,-6.305314 -9.1,-5.61 l -11.59,2 c -4.01161,0.735633 -6.84378,4.348788 -6.6,8.42 l 0.4,26.45 c 0.0496,3.493006 -2.17292,6.614311 -5.49,7.71 -2.3,0.9 -7.3,2.81 -9.7,3.71 -2.8,1 -6.1,0.2 -8.8,-2.91 L 167.14,75.17 C 164.72427,71.922478 160.26361,70.990849 156.75,73 l -10.2,5.91 c -3.51722,2.02553 -4.94059,6.377576 -3.3,10.09 l 9.4,24.75 c 1.22007,3.25797 0.21207,6.9311 -2.5,9.11 -2.5,2 -5,4.11 -7.4,6.22 -2.60139,2.30971 -6.39724,2.67353 -9.39,0.9 L 111,116.14 c -3.37852,-2.22313 -7.88485,-1.57507 -10.5,1.51 l -7.49,9 c -2.604354,3.10499 -2.475485,7.66698 0.3,10.62 l 17.29,19.94 c 2.3084,2.67124 2.59286,6.53984 0.7,9.52 -1.7,2.66667 -3.3,5.47 -4.8,8.41 -1.67294,3.08378 -5.13909,4.7422 -8.59,4.11 l -25.89,-5 c -3.948519,-0.96306 -7.991649,1.18754 -9.4,5 l -4,11 c -1.388898,3.81704 0.283457,8.07083 3.9,9.92 L 85.58,213 c 3.056886,1.70054 4.640748,5.20128 3.9,8.62 -0.6,3.2 -1.2,6.31 -1.7,9.51 -0.492449,3.46199 -3.156008,6.21434 -6.6,6.82 l -26.08,4.2 c -4.01347,0.49449 -7.045372,3.87655 -7.1,7.92 v 11.72 c -0.05028,4.08362 3.035175,7.52543 7.1,7.92 l 26.08,4.2 c 3.456511,0.58197 6.131639,3.34627 6.6,6.82 0.5,3.2 1,6.41 1.7,9.51 0.694044,3.41361 -0.877784,6.88776 -3.9,8.62 L 62.49,311.7 c -3.616543,1.84917 -5.288898,6.10296 -3.9,9.92 l 4,11 c 1.38614,3.83179 5.447864,5.99228 9.4,5 l 25.89,-5 c 3.4557,-0.6689 6.94262,0.99946 8.59,4.11 1.5,2.8 3.1,5.60333 4.8,8.41 1.84071,2.99306 1.5587,6.82836 -0.7,9.52 l -17.29,19.96 c -2.775485,2.95302 -2.904354,7.51501 -0.3,10.62 l 7.49,9 c 2.58646,3.13653 7.1345,3.79059 10.5,1.51 l 22.69,-13.63 c 2.99276,-1.77353 6.78861,-1.40971 9.39,0.9 2.4,2.11 4.9,4.21 7.4,6.22 2.72869,2.16796 3.73995,5.85295 2.5,9.11 l -9.4,24.75 c -1.6294,3.72189 -0.21021,8.07407 3.3,10.12 l 10.2,5.91 c 3.52327,2.00069 7.98601,1.05145 10.39,-2.21 l 16.79,-20.64 c 2.1,-2.6 5.5,-3.7 8.2,-2.6 3.4,1.4 5.7,2.2 9.9,3.61 3.31708,1.09569 5.53964,4.21699 5.49,7.71 l -0.4,26.45 c -0.24378,4.07121 2.58839,7.68437 6.6,8.42 l 11.59,2 c 4.01459,0.69531 7.91777,-1.71093 9.1,-5.61 l 8.6,-25 c 1.13253,-3.31409 4.28907,-5.50624 7.79,-5.41 h 9.8 c 3.4942,-0.0738 6.63878,2.11007 7.79,5.41 l 8.6,25 c 1.18223,3.89907 5.08541,6.30531 9.1,5.61 l 11.59,-2 c 4.01161,-0.73563 6.84378,-4.34879 6.6,-8.42 L 304.18,425 c -0.0496,-3.49301 2.17292,-6.61431 5.49,-7.71 4.2,-1.41 7,-2.51 9.6,-3.51 2.6,-1 5.8,-1 8.3,2.1 l 17,20.94 c 2.41653,3.27312 6.9048,4.21122 10.43,2.18 l 10.2,-5.91 c 3.53693,-2.02427 4.96375,-6.39985 3.3,-10.12 l -9.4,-24.75 c -1.21837,-3.26113 -0.21101,-6.936 2.5,-9.12 2.5,-2 5,-4.1 7.4,-6.21 2.60139,-2.30971 6.39724,-2.67353 9.39,-0.9 L 401,395.66 c 3.37852,2.22313 7.88485,1.57507 10.5,-1.51 l 7.49,-9 c 2.60435,-3.10499 2.47548,-7.66698 -0.3,-10.62 L 401.4,354.59 c -2.3084,-2.67124 -2.59286,-6.53984 -0.7,-9.52 1.7,-2.7 3.3,-5.50333 4.8,-8.41 1.67294,-3.08378 5.13909,-4.7422 8.59,-4.11 l 25.89,5 c 3.94852,0.96306 7.99165,-1.18754 9.4,-5 l 4,-11 c 1.3889,-3.81704 -0.28346,-8.07083 -3.9,-9.92 l -23.09,-12.82 c -3.05689,-1.70054 -4.64075,-5.20128 -3.9,-8.62 0.6,-3.2 1.2,-6.31 1.7,-9.51 0.49245,-3.46199 3.15601,-6.21434 6.6,-6.82 l 26.08,-4.2 c 4.01347,-0.49449 7.04537,-3.87655 7.1,-7.92 V 250 c -0.22491,-4.00011 -3.29119,-7.2604 -7.27,-7.73 z M 256,112 c 65.70255,-0.028 123.07086,44.47381 139.38,108.12 2.52492,10.10124 -5.11798,19.88493 -15.53,19.88 H 274.61 c -5.75405,7.3e-4 -11.06534,-3.0883 -13.91,-8.09 L 208.6,140.2 c -5.20019,-9.13918 -0.32152,-20.72416 9.85,-23.39 12.25691,-3.21573 24.87829,-4.83248 37.55,-4.81 z M 112,256 c -0.0363,-38.95519 15.7116,-76.26311 43.65,-103.41 7.48647,-7.41149 19.96822,-5.69072 25.17,3.47 L 233.06,248 c 2.80836,4.91727 2.80836,10.95273 0,15.87 l -52.67,91.7 c -5.24216,9.13385 -17.72628,10.79972 -25.18,3.36 C 127.54693,331.82956 111.97073,294.72568 112,256 Z m 144,144 c -12.89206,0.033 -25.73236,-1.63135 -38.19,-4.95 -10.16974,-2.70289 -15.00615,-14.31821 -9.76,-23.44 l 52.58,-91.55 c 2.86234,-4.95772 8.15532,-8.00844 13.88,-8 H 379.9 c 10.4079,0.002 18.04391,9.78276 15.52,19.88 C 379.07781,355.57269 321.69768,400.0462 256,400 Z"
     id="path4" />
</svg>
