<?xml version="1.0" encoding="UTF-8" standalone="no"?>
<svg
   xmlns:dc="http://purl.org/dc/elements/1.1/"
   xmlns:cc="http://creativecommons.org/ns#"
   xmlns:rdf="http://www.w3.org/1999/02/22-rdf-syntax-ns#"
   xmlns:svg="http://www.w3.org/2000/svg"
   xmlns="http://www.w3.org/2000/svg"
   xmlns:sodipodi="http://sodipodi.sourceforge.net/DTD/sodipodi-0.dtd"
   xmlns:inkscape="http://www.inkscape.org/namespaces/inkscape"
   class="ionicon"
   viewBox="0 0 512 512"
   version="1.1"
   id="svg6"
   sodipodi:docname="cog-sharp.svg"
   inkscape:version="1.0.2 (e86c8708, 2021-01-15)">
  <metadata
     id="metadata12">
    <rdf:RDF>
      <cc:Work
         rdf:about="">
        <dc:format>image/svg+xml</dc:format>
        <dc:type
           rdf:resource="http://purl.org/dc/dcmitype/StillImage" />
      </cc:Work>
    </rdf:RDF>
  </metadata>
  <defs
     id="defs10" />
  <sodipodi:namedview
     pagecolor="#ffffff"
     bordercolor="#666666"
     borderopacity="1"
     objecttolerance="10"
     gridtolerance="10"
     guidetolerance="10"
     inkscape:pageopacity="0"
     inkscape:pageshadow="2"
     inkscape:window-width="689"
     inkscape:window-height="480"
     id="namedview8"
     showgrid="false"
     inkscape:zoom="1.3027344"
     inkscape:cx="256"
     inkscape:cy="256"
     inkscape:window-x="44"
     inkscape:window-y="25"
     inkscape:window-maximized="0"
     inkscape:current-layer="svg6" />
  <title
     id="title2">Cog</title>
  <path
     style="color:#000000;font-style:normal;font-variant:normal;font-weight:normal;font-stretch:normal;font-size:medium;line-height:normal;font-family:sans-serif;font-variant-ligatures:normal;font-variant-position:normal;font-variant-caps:normal;font-variant-numeric:normal;font-variant-alternates:normal;font-variant-east-asian:normal;font-feature-settings:normal;font-variation-settings:normal;text-indent:0;text-align:start;text-decoration:none;text-decoration-line:none;text-decoration-style:solid;text-decoration-color:#000000;letter-spacing:normal;word-spacing:normal;text-transform:none;writing-mode:lr-tb;direction:ltr;text-orientation:mixed;dominant-baseline:auto;baseline-shift:baseline;text-anchor:start;white-space:normal;shape-padding:0;shape-margin:0;inline-size:0;clip-rule:nonzero;display:inline;overflow:visible;visibility:visible;isolation:auto;mix-blend-mode:normal;color-interpolation:sRGB;color-interpolation-filters:linearRGB;solid-color:#000000;solid-opacity:1;vector-effect:none;fill:#000000;fill-opacity:1;fill-rule:nonzero;stroke-width:1;stroke-linecap:butt;stroke-linejoin:miter;stroke-miterlimit:4;stroke-dasharray:none;stroke-dashoffset:0;stroke-opacity:1;color-rendering:auto;image-rendering:auto;shape-rendering:auto;text-rendering:auto;enable-background:accumulate;stop-color:#000000;stop-opacity:1;stroke:none;opacity:1"
     d="m 464,249.93 c -0.27859,-5.15252 -4.2335,-9.35251 -9.36,-9.94 L 429,235.84 c -2.36858,-0.38854 -4.19952,-2.28865 -4.5,-4.67 -0.49,-3.15 -1,-6.42 -1.7,-9.52 -0.46239,-2.31153 0.59414,-4.66161 2.63,-5.85 l 22.78,-12.65 c 4.68244,-2.38686 6.83259,-7.90415 5,-12.83 l -3.95,-10.9 c -1.79388,-4.94379 -7.01855,-7.7478 -12.13,-6.51 l -25.55,5 c -2.34377,0.42213 -4.69295,-0.7121 -5.82,-2.81 -1.49,-2.79 -3.11,-5.63 -4.8,-8.42 -1.25842,-2.03783 -1.08157,-4.65036 0.44,-6.5 l 17,-19.63 c 3.56946,-3.8408 3.73635,-9.73332 0.39,-13.77 l -7.42,-8.91 c -3.34372,-4.05099 -9.21036,-4.91501 -13.58,-2 l -22.37,13.43 c -2.03633,1.22005 -4.63113,0.96422 -6.39,-0.63 -2.47,-2.17 -4.95,-4.26 -7.37,-6.19 -1.86671,-1.4731 -2.56284,-3.98643 -1.72,-6.21 l 9.26,-24.4 c 2.08743,-4.81918 0.23461,-10.437819 -4.31,-13.07 l -10.08,-5.85 c -4.55227,-2.624561 -10.35008,-1.405557 -13.46,2.83 L 325,96.28 c -1.20802,1.848262 -3.56277,2.571507 -5.6,1.72 -0.62,-0.25 -5.77,-2.36 -9.78,-3.7 -2.25775,-0.735809 -3.77363,-2.855609 -3.74,-5.23 L 306.27,63 c 0.28819,-5.266512 -3.38249,-9.926612 -8.57,-10.88 l -11.45,-2 c -5.15988,-0.89141 -10.18288,2.173691 -11.75,7.17 L 266,82.1 c -0.7815,2.26919 -2.96227,3.754234 -5.36,3.65 h -9.75 c -2.37076,0.03941 -4.50282,-1.436936 -5.3,-3.67 l -8.46,-24.67 c -1.53988,-5.034219 -6.58124,-8.139561 -11.77,-7.25 l -11.46,2 c -5.15678,0.941169 -8.82056,5.554031 -8.57,10.79 l 0.4,26.16 c 0.0164,2.411208 -1.55362,4.546586 -3.86,5.25 -2.28,0.89 -7.26,2.78 -9.51,3.63 -2,0.72 -4.19,-0.07 -6,-2.1 l -16.26,-20 C 167.01501,71.657167 161.24461,70.413585 156.69,73 l -10.06,5.83 c -4.59701,2.638521 -6.46105,8.321273 -4.32,13.17 l 9.25,24.34 c 0.82741,2.22638 0.14357,4.73246 -1.7,6.23 -2.43,2 -4.92,4 -7.4,6.22 -1.74793,1.58133 -4.32167,1.84073 -6.35,0.64 L 114,115.74 c -4.39164,-2.86201 -10.22739,-2.00444 -13.61,2 l -7.4,8.9 c -3.400279,4.0111 -3.240923,9.93743 0.37,13.76 l 17.09,19.6 c 1.55638,1.81534 1.73922,4.43613 0.45,6.45 -1.71,2.72 -3.34,5.58 -4.82,8.44 -1.13581,2.11059 -3.50195,3.24924 -5.86,2.82 l -25.51,-4.93 c -5.113472,-1.23387 -10.338337,1.56793 -12.14,6.51 l -4,10.88 c -1.834775,4.93153 0.314628,10.45549 5,12.85 l 22.78,12.65 c 2.104649,1.16159 3.185653,3.57651 2.65,5.92 l -0.23,1.24 c -0.53,2.8 -1,5.45 -1.47,8.27 -0.326197,2.34872 -2.126022,4.22118 -4.46,4.64 l -25.7,4.15 c -5.193218,0.64268 -9.104288,5.03729 -9.14,10.27 v 11.58 c -0.03033,5.26326 3.92698,9.69579 9.16,10.26 l 25.68,4.14 c 2.3702,0.38544 4.202672,2.28714 4.5,4.67 0.49,3.16 1,6.42 1.7,9.52 0.462393,2.31153 -0.594139,4.66161 -2.63,5.85 l -22.77,12.67 c -4.682444,2.38686 -6.832595,7.90415 -5,12.83 l 4,10.9 c 1.79757,4.9406 7.019166,7.74296 12.13,6.51 l 25.55,-4.95 c 2.34377,-0.42213 4.69295,0.7121 5.82,2.81 1.5,2.8 3.12,5.64 4.8,8.42 1.26469,2.03627 1.08757,4.65275 -0.44,6.5 l -17,19.64 c -3.609371,3.80573 -3.823638,9.70235 -0.5,13.76 l 7.41,8.91 c 3.34372,4.05099 9.21036,4.91501 13.58,2 l 22.37,-13.43 c 2.03633,-1.22005 4.63113,-0.96422 6.39,0.63 2.48,2.17 5,4.26 7.37,6.19 1.86671,1.4731 2.56284,3.98643 1.72,6.21 l -9.26,24.4 c -2.08743,4.81918 -0.23461,10.43782 4.31,13.07 l 10.11,5.84 c 4.54679,2.6254 10.34068,1.41062 13.45,-2.82 L 187,415.92 c 1.39,-1.73 3.6,-2.5 5.24,-1.84 3.47,1.44 5.8,2.25 9.93,3.63 2.25771,0.73774 3.77579,2.85495 3.75,5.23 l -0.4,26.05 c -0.27919,5.26366 3.38737,9.91853 8.57,10.88 l 11.45,2 c 5.16076,0.89602 10.18658,-2.1708 11.75,-7.17 l 8.5,-24.77 c 0.79781,-2.25667 2.96794,-3.73446 5.36,-3.65 h 9.75 c 2.3717,-0.0425 4.50539,1.43497 5.3,3.67 l 8.47,24.67 c 1.34691,4.39623 5.40207,7.40111 10,7.41 0.59698,0.001 1.19282,-0.0522 1.78,-0.16 l 11.47,-2 c 5.15278,-0.94557 8.81132,-5.55721 8.56,-10.79 l -0.4,-26.16 c -0.0159,-2.36504 1.50094,-4.46831 3.75,-5.2 3.84,-1.29 6.53,-2.33 8.91,-3.24 l 0.6,-0.24 c 3.06,-1.06 4.53,0.14 5.47,1.31 l 16.75,20.63 c 3.10841,4.22506 8.89549,5.43932 13.44,2.82 l 10.07,-5.83 c 4.56029,-2.63418 6.41542,-8.27275 4.31,-13.1 l -9.24,-24.34 c -0.83615,-2.22396 -0.15541,-4.73346 1.69,-6.23 2.43,-2 4.92,-4 7.4,-6.22 1.75937,-1.58617 4.34815,-1.83774 6.38,-0.62 l 22.39,13.4 c 4.39164,2.86201 10.22739,2.00444 13.61,-2 l 7.4,-8.9 c 3.39889,-4.00784 3.23951,-9.93075 -0.37,-13.75 l -17.06,-19.67 c -1.55638,-1.81534 -1.73922,-4.43613 -0.45,-6.45 1.71,-2.71 3.34,-5.57 4.82,-8.44 1.14262,-2.10345 3.50328,-3.23947 5.86,-2.82 l 25.48,4.97 c 5.11347,1.23387 10.33834,-1.56793 12.14,-6.51 l 3.95,-10.88 c 1.83368,-4.92869 -0.31609,-10.44931 -5,-12.84 l -22.8,-12.67 c -2.07414,-1.17253 -3.13468,-3.56587 -2.61,-5.89 l 0.23,-1.25 c 0.53,-2.8 1,-5.44 1.47,-8.26 0.3262,-2.34872 2.12602,-4.22118 4.46,-4.64 l 25.7,-4.14 c 5.20667,-0.6335 9.13297,-5.03506 9.17,-10.28 z M 171.59,361.27 c -67.41874,-54.25109 -67.17517,-157.00913 0.5,-210.94 l 60,105.61 z M 256,391.11 c -16.58463,0.0157 -33.02754,-3.05311 -48.49,-9.05 L 268,276.79 H 389.22 C 379.21,341.45 323.29,391.11 256,391.11 Z m 12.06,-155.9 -59.95,-105.5 c 15.28988,-5.84304 31.5217,-8.83248 47.89,-8.82 67.29,0 123.21,49.66 133.22,114.32 z"
     id="path4" />
</svg>
