<?xml version="1.0" encoding="UTF-8" standalone="no"?>
<svg
   xmlns:dc="http://purl.org/dc/elements/1.1/"
   xmlns:cc="http://creativecommons.org/ns#"
   xmlns:rdf="http://www.w3.org/1999/02/22-rdf-syntax-ns#"
   xmlns:svg="http://www.w3.org/2000/svg"
   xmlns="http://www.w3.org/2000/svg"
   xmlns:sodipodi="http://sodipodi.sourceforge.net/DTD/sodipodi-0.dtd"
   xmlns:inkscape="http://www.inkscape.org/namespaces/inkscape"
   class="ionicon"
   viewBox="0 0 512 512"
   version="1.1"
   id="svg6"
   sodipodi:docname="cog.svg"
   inkscape:version="1.0.2 (e86c8708, 2021-01-15)">
  <metadata
     id="metadata12">
    <rdf:RDF>
      <cc:Work
         rdf:about="">
        <dc:format>image/svg+xml</dc:format>
        <dc:type
           rdf:resource="http://purl.org/dc/dcmitype/StillImage" />
      </cc:Work>
    </rdf:RDF>
  </metadata>
  <defs
     id="defs10" />
  <sodipodi:namedview
     pagecolor="#ffffff"
     bordercolor="#666666"
     borderopacity="1"
     objecttolerance="10"
     gridtolerance="10"
     guidetolerance="10"
     inkscape:pageopacity="0"
     inkscape:pageshadow="2"
     inkscape:window-width="689"
     inkscape:window-height="480"
     id="namedview8"
     showgrid="false"
     inkscape:zoom="1.3027344"
     inkscape:cx="256"
     inkscape:cy="256"
     inkscape:window-x="44"
     inkscape:window-y="25"
     inkscape:window-maximized="0"
     inkscape:current-layer="svg6" />
  <title
     id="title2">Cog</title>
  <path
     style="color:#000000;font-style:normal;font-variant:normal;font-weight:normal;font-stretch:normal;font-size:medium;line-height:normal;font-family:sans-serif;font-variant-ligatures:normal;font-variant-position:normal;font-variant-caps:normal;font-variant-numeric:normal;font-variant-alternates:normal;font-variant-east-asian:normal;font-feature-settings:normal;font-variation-settings:normal;text-indent:0;text-align:start;text-decoration:none;text-decoration-line:none;text-decoration-style:solid;text-decoration-color:#000000;letter-spacing:normal;word-spacing:normal;text-transform:none;writing-mode:lr-tb;direction:ltr;text-orientation:mixed;dominant-baseline:auto;baseline-shift:baseline;text-anchor:start;white-space:normal;shape-padding:0;shape-margin:0;inline-size:0;clip-rule:nonzero;display:inline;overflow:visible;visibility:visible;isolation:auto;mix-blend-mode:normal;color-interpolation:sRGB;color-interpolation-filters:linearRGB;solid-color:#000000;solid-opacity:1;vector-effect:none;fill:#000000;fill-opacity:1;fill-rule:nonzero;stroke-width:1;stroke-linecap:butt;stroke-linejoin:miter;stroke-miterlimit:4;stroke-dasharray:none;stroke-dashoffset:0;stroke-opacity:1;color-rendering:auto;image-rendering:auto;shape-rendering:auto;text-rendering:auto;enable-background:accumulate;stop-color:#000000;stop-opacity:1;stroke:none;opacity:1"
     d="m 464,249.93 c -0.27859,-5.15252 -4.2335,-9.35251 -9.36,-9.94 L 429,235.84 c -2.36858,-0.38854 -4.19952,-2.28865 -4.5,-4.67 -0.49,-3.15 -1,-6.42 -1.7,-9.52 -0.46239,-2.31153 0.59414,-4.66161 2.63,-5.85 l 22.78,-12.65 c 4.68244,-2.38686 6.83259,-7.90415 5,-12.83 l -3.95,-10.9 c -1.79388,-4.94379 -7.01855,-7.7478 -12.13,-6.51 l -25.55,5 c -2.34332,0.41887 -4.69067,-0.71448 -5.82,-2.81 -1.49,-2.79 -3.11,-5.63 -4.8,-8.42 -1.25842,-2.03783 -1.08157,-4.65036 0.44,-6.5 l 17,-19.64 c 3.57238,-3.83572 3.73938,-9.7281 0.39,-13.76 l -7.42,-8.91 c -3.34372,-4.05099 -9.21036,-4.91501 -13.58,-2 l -22.37,13.43 c -2.03633,1.22005 -4.63113,0.96422 -6.39,-0.63 -2.47,-2.17 -5,-4.26 -7.37,-6.19 -1.86671,-1.4731 -2.56284,-3.98643 -1.72,-6.21 l 9.26,-24.4 c 2.08743,-4.81918 0.23461,-10.437819 -4.31,-13.07 L 354.8,72.91 c -4.54922,-2.623299 -10.34363,-1.404104 -13.45,2.83 L 325,96.28 c -1.2131,1.841487 -3.56236,2.563045 -5.6,1.72 -0.61,-0.25 -5.77,-2.36 -9.78,-3.7 -2.25775,-0.735809 -3.77363,-2.855609 -3.74,-5.23 L 306.27,63 c 0.28819,-5.266512 -3.38249,-9.926612 -8.57,-10.88 l -11.45,-2 c -5.15988,-0.89141 -10.18288,2.173691 -11.75,7.17 L 266,82.1 c -0.79244,2.260808 -2.96606,3.740981 -5.36,3.65 h -9.75 c -2.37359,0.04876 -4.51058,-1.431001 -5.3,-3.67 l -8.46,-24.67 c -1.53988,-5.034219 -6.58124,-8.139561 -11.77,-7.25 l -11.47,2 c -5.15278,0.94557 -8.81132,5.557213 -8.56,10.79 l 0.4,26.16 c 0.0164,2.411208 -1.55362,4.546586 -3.86,5.25 -2.29,0.89 -7.26,2.79 -9.52,3.63 -2,0.72 -4.18,-0.07 -5.94,-2.1 l -16.26,-20 C 167.06055,71.629419 161.25611,70.383147 156.69,73 l -10.06,5.83 c -4.59701,2.638521 -6.46105,8.321273 -4.32,13.17 l 9.25,24.34 c 0.82741,2.22638 0.14357,4.73246 -1.7,6.23 -2.43,2 -4.92,4 -7.4,6.22 -1.74793,1.58133 -4.32167,1.84073 -6.35,0.64 L 114,115.74 c -4.39266,-2.85736 -10.22508,-2.00028 -13.61,2 L 93,126.63 c -3.398886,4.00784 -3.239506,9.93075 0.37,13.75 L 110.45,160 c 1.55638,1.81534 1.73922,4.43613 0.45,6.45 -1.71,2.72 -3.34,5.58 -4.82,8.44 -1.13581,2.11059 -3.50195,3.24924 -5.86,2.82 l -25.51,-4.93 c -5.113472,-1.23387 -10.338337,1.56793 -12.14,6.51 l -4,10.88 c -1.829951,4.93149 0.318208,10.45226 5,12.85 l 22.78,12.65 c 2.104649,1.16159 3.185653,3.57651 2.65,5.92 l -0.24,1.27 c -0.52,2.79 -1,5.43 -1.46,8.24 -0.326197,2.34872 -2.126022,4.22118 -4.46,4.64 l -25.69,4.15 c -5.197182,0.63807 -9.113645,5.03392 -9.15,10.27 v 11.58 c -0.03033,5.26326 3.92698,9.69579 9.16,10.26 l 25.68,4.14 c 2.3702,0.38544 4.202672,2.28714 4.5,4.67 0.49,3.16 1,6.42 1.7,9.52 0.462393,2.31153 -0.594139,4.66161 -2.63,5.85 l -22.77,12.67 c -4.682444,2.38686 -6.832595,7.90415 -5,12.83 l 4,10.9 c 1.79757,4.9406 7.019166,7.74296 12.13,6.51 l 25.55,-4.95 c 2.34421,-0.42542 4.69525,0.7097 5.82,2.81 1.5,2.8 3.11,5.63 4.8,8.42 1.26469,2.03627 1.08757,4.65275 -0.44,6.5 l -17,19.63 c -3.615202,3.80719 -3.829561,9.71064 -0.5,13.77 l 7.41,8.91 c 3.34127,4.05532 9.21145,4.91986 13.58,2 l 22.37,-13.43 c 2.03633,-1.22005 4.63113,-0.96422 6.39,0.63 2.48,2.17 5,4.26 7.37,6.19 1.86474,1.47421 2.56393,3.98399 1.73,6.21 l -9.27,24.4 c -2.08743,4.81918 -0.23461,10.43782 4.31,13.07 l 10.11,5.84 c 4.54679,2.6254 10.34068,1.41062 13.45,-2.82 L 187,415.92 c 1.4,-1.73 3.6,-2.5 5.23,-1.84 3.48,1.44 5.81,2.25 9.94,3.63 2.25771,0.73774 3.77579,2.85495 3.75,5.23 l -0.4,26.05 c -0.27919,5.26366 3.38737,9.91853 8.57,10.88 l 11.45,2 c 5.16164,0.90064 10.19029,-2.16791 11.75,-7.17 l 8.5,-24.77 c 0.78973,-2.26289 2.96512,-3.74427 5.36,-3.65 h 9.75 c 2.37454,-0.0519 4.51319,1.42901 5.3,3.67 l 8.47,24.67 c 1.34691,4.39623 5.40207,7.40111 10,7.41 0.59698,0.001 1.19282,-0.0522 1.78,-0.16 l 11.47,-2 c 5.15278,-0.94557 8.81132,-5.55721 8.56,-10.79 l -0.4,-26.16 c -0.0159,-2.36504 1.50094,-4.46831 3.75,-5.2 3.84,-1.29 6.54,-2.33 8.91,-3.25 l 0.6,-0.23 c 3.1,-1.07 4.6,0.23 5.47,1.31 l 16.75,20.63 c 3.10841,4.22506 8.89549,5.43932 13.44,2.82 l 10.07,-5.83 c 4.56029,-2.63418 6.41542,-8.27275 4.31,-13.1 l -9.24,-24.34 c -0.83615,-2.22396 -0.15541,-4.73346 1.69,-6.23 2.43,-2 4.92,-4 7.4,-6.22 1.75937,-1.58617 4.34815,-1.83774 6.38,-0.62 l 22.39,13.4 c 4.39164,2.86201 10.22739,2.00444 13.61,-2 l 7.4,-8.9 c 3.39889,-4.00784 3.23951,-9.93075 -0.37,-13.75 l -17.06,-19.67 c -1.55638,-1.81534 -1.73922,-4.43613 -0.45,-6.45 1.71,-2.71 3.34,-5.57 4.82,-8.44 1.14036,-2.10582 3.50284,-3.24271 5.86,-2.82 l 25.48,4.97 c 5.11347,1.23387 10.33834,-1.56793 12.14,-6.51 l 3.95,-10.88 c 1.82886,-4.92865 -0.31967,-10.44608 -5,-12.84 l -22.8,-12.67 c -2.07414,-1.17253 -3.13468,-3.56587 -2.61,-5.89 l 0.24,-1.27 c 0.52,-2.79 1,-5.43 1.46,-8.24 0.3262,-2.34872 2.12602,-4.22118 4.46,-4.64 l 25.69,-4.14 c 5.21063,-0.62887 9.14233,-5.03169 9.18,-10.28 z m -282.45,94 c -5.36684,9.33203 -18.29079,10.68176 -25.47,2.66 -46.68094,-51.61509 -46.49912,-130.25132 0.42,-181.65 7.21817,-8.02035 20.17233,-6.61317 25.5,2.77 l 45.65,80.35 c 2.78919,4.87598 2.78919,10.86402 0,15.74 z M 256,391.11 c -9.51612,0.002 -19.00574,-1.00317 -28.31,-3 -10.42731,-2.3296 -15.58934,-14.11699 -10.23,-23.36 l 46,-80 c 2.81624,-4.9068 8.04245,-7.9319 13.7,-7.93 h 92.14 c 10.6772,-0.0166 18.29642,10.34247 15.1,20.53 C 366.91,351.67 316,391.11 256,391.11 Z M 263.51,227.21 218,147.07 c -5.30477,-9.25594 -0.10767,-21.00107 10.31,-23.3 9.10497,-1.91879 18.38504,-2.884 27.69,-2.88 60,0 110.91,39.44 128.37,93.79 3.19642,10.18753 -4.4228,20.54664 -15.1,20.53 h -92 c -5.6941,0.0112 -10.95265,-3.04604 -13.76,-8 z"
     id="path4" />
</svg>
