<?xml version="1.0" encoding="utf-8"?>
<!-- Generator: Adobe Illustrator 24.0.0, SVG Export Plug-In . SVG Version: 6.00 Build 0)  -->
<svg version="1.1" id="Layer_1" xmlns="http://www.w3.org/2000/svg" xmlns:xlink="http://www.w3.org/1999/xlink" x="0px" y="0px"
	 viewBox="0 0 512 512" style="enable-background:new 0 0 512 512;" xml:space="preserve">
<title>ionicons-v5-m</title>
<g>
	<path d="M416,480c-35.3,0-64-29.1-64-64.9c0-33.3,28.7-65.4,44.1-82.7c1.9-2.1,3.5-3.9,4.7-5.3c0.8-1,1.7-1.9,2.7-2.7
		c4.1-3.4,9.3-4.9,14.6-4.4c5.2,0.5,9.9,3,13.3,7c1.1,1.3,2.6,3,4.3,4.9c15.5,17.3,44.3,49.5,44.3,83.1C480,450.9,451.3,480,416,480
		z M416.1,358.1c-12.4,14.1-32.1,38-32.1,57c0,18.1,14.4,32.9,32,32.9s32-14.8,32-32.9C448,396.1,428.6,372.4,416.1,358.1z"/>
</g>
<g>
	<path d="M207.2,453c-11,0-21.9-4.1-30.5-12.3l-131.2-126c-0.3-0.2-0.5-0.5-0.7-0.7c-8.3-8.3-12.8-19.4-12.8-31.1s4.6-22.8,13-31.1
		l84.6-84.5L88,125.7c-20.2-20.3-20.2-53.3,0.1-73.5l5.2-5.2c20.3-20.2,53.3-20.2,73.5,0.1l231.3,229.4c4.3,4.2,6.7,10.1,6.7,16.1
		c0,6-2.4,11.7-6.6,15.9c-4.3,4.2-9.9,6.6-15.9,6.6c0,0,0,0,0,0h-0.3c-12.9,0-17,2.2-17.5,2.6c-8.2,8.2-71,69-112.7,109.3
		l-14.1,13.6C229.3,448.9,218.3,453,207.2,453z M152.3,190l-84.7,84.5c-2.3,2.3-3.6,5.3-3.6,8.5c0,3.2,1.2,6.2,3.5,8.5l0.2,0.2
		l131.2,126c4.7,4.5,12,4.5,16.7-0.1l14.1-13.6c39.3-38,105.1-101.7,112.4-109.1c4.6-4.6,11-7.9,19.4-9.8L208.8,133.6L152.3,190
		L152.3,190z M364.5,317.7C364.5,317.7,364.5,317.7,364.5,317.7L364.5,317.7z M382.4,283.1L382.4,283.1
		C382.4,283.1,382.4,283.1,382.4,283.1z M110.7,103.2l41.6,41.6l33.7-33.7l-41.7-41.4c-7.8-7.9-20.5-7.9-28.3-0.1l-5.2,5.2
		C102.9,82.6,102.9,95.3,110.7,103.2L110.7,103.2z"/>
</g>
</svg>
