<?xml version="1.0" encoding="UTF-8" standalone="no"?>
<svg
   xmlns:dc="http://purl.org/dc/elements/1.1/"
   xmlns:cc="http://creativecommons.org/ns#"
   xmlns:rdf="http://www.w3.org/1999/02/22-rdf-syntax-ns#"
   xmlns:svg="http://www.w3.org/2000/svg"
   xmlns="http://www.w3.org/2000/svg"
   xmlns:sodipodi="http://sodipodi.sourceforge.net/DTD/sodipodi-0.dtd"
   xmlns:inkscape="http://www.inkscape.org/namespaces/inkscape"
   class="ionicon"
   viewBox="0 0 512 512"
   version="1.1"
   id="svg10"
   sodipodi:docname="color-wand-outline.svg"
   inkscape:version="1.0.2 (e86c8708, 2021-01-15)">
  <metadata
     id="metadata16">
    <rdf:RDF>
      <cc:Work
         rdf:about="">
        <dc:format>image/svg+xml</dc:format>
        <dc:type
           rdf:resource="http://purl.org/dc/dcmitype/StillImage" />
      </cc:Work>
    </rdf:RDF>
  </metadata>
  <defs
     id="defs14" />
  <sodipodi:namedview
     pagecolor="#ffffff"
     bordercolor="#666666"
     borderopacity="1"
     objecttolerance="10"
     gridtolerance="10"
     guidetolerance="10"
     inkscape:pageopacity="0"
     inkscape:pageshadow="2"
     inkscape:window-width="776"
     inkscape:window-height="480"
     id="namedview12"
     showgrid="false"
     inkscape:zoom="0.3"
     inkscape:cx="256"
     inkscape:cy="256"
     inkscape:window-x="533"
     inkscape:window-y="1197"
     inkscape:window-maximized="0"
     inkscape:current-layer="svg10"
     inkscape:document-rotation="0" />
  <title
     id="title2">Color Wand</title>
  <path
     id="rect4"
     style="color:#000000;font-style:normal;font-variant:normal;font-weight:normal;font-stretch:normal;font-size:medium;line-height:normal;font-family:sans-serif;font-variant-ligatures:normal;font-variant-position:normal;font-variant-caps:normal;font-variant-numeric:normal;font-variant-alternates:normal;font-variant-east-asian:normal;font-feature-settings:normal;font-variation-settings:normal;text-indent:0;text-align:start;text-decoration:none;text-decoration-line:none;text-decoration-style:solid;text-decoration-color:#000000;letter-spacing:normal;word-spacing:normal;text-transform:none;writing-mode:lr-tb;direction:ltr;text-orientation:mixed;dominant-baseline:auto;baseline-shift:baseline;text-anchor:start;white-space:normal;shape-padding:0;shape-margin:0;inline-size:0;clip-rule:nonzero;display:inline;overflow:visible;visibility:visible;isolation:auto;mix-blend-mode:normal;color-interpolation:sRGB;color-interpolation-filters:linearRGB;solid-color:#000000;solid-opacity:1;vector-effect:none;fill:currentColor;fill-opacity:1;fill-rule:nonzero;stroke:none;stroke-linecap:butt;stroke-linejoin:miter;stroke-miterlimit:10;stroke-dasharray:none;stroke-dashoffset:0;stroke-opacity:1;color-rendering:auto;image-rendering:auto;shape-rendering:auto;text-rendering:auto;enable-background:accumulate;stop-color:#000000;stop-opacity:1;opacity:1"
     d="M 192 32 A 16 16 0 0 0 176 48 L 176 96 A 16 16 0 0 0 192 112 A 16 16 0 0 0 208 96 L 208 48 A 16 16 0 0 0 192 32 z M 90.300781 74.179688 A 16 16 0 0 0 78.867188 78.867188 A 16 16 0 0 0 78.867188 101.49414 L 112.80664 135.43359 A 16 16 0 0 0 135.43359 135.43359 A 16 16 0 0 0 135.43359 112.80664 L 101.49414 78.867188 A 16 16 0 0 0 90.300781 74.179688 z M 293.94141 74.179688 A 16 16 0 0 0 282.50586 78.867188 L 248.56641 112.80664 A 16 16 0 0 0 248.56641 135.43359 A 16 16 0 0 0 271.19336 135.43359 L 305.13281 101.49414 A 16 16 0 0 0 305.13281 78.867188 A 16 16 0 0 0 293.94141 74.179688 z M 200.57422 153.16406 C 188.37889 153.16338 176.18199 157.76723 166.97266 166.97656 C 148.554 185.39522 148.55787 215.75709 166.97656 234.17578 L 389.83008 457.02734 C 408.24877 475.44603 438.60868 475.44991 457.02734 457.03125 C 475.446 438.61259 475.44408 408.25072 457.02539 389.83203 L 234.17383 166.97852 C 224.96448 157.76917 212.76955 153.16475 200.57422 153.16406 z M 48 176 A 16 16 0 0 0 32 192 A 16 16 0 0 0 48 208 L 96 208 A 16 16 0 0 0 112 192 A 16 16 0 0 0 96 176 L 48 176 z M 256.59375 234.65625 L 434.39844 412.45898 C 440.67486 418.73541 440.67292 428.13176 434.40039 434.4043 C 428.12786 440.67683 418.73345 440.67681 412.45703 434.40039 L 234.6543 256.5957 L 256.59375 234.65625 z M 123.9043 243.88086 A 16 16 0 0 0 112.80664 248.56641 L 78.867188 282.50586 A 16 16 0 0 0 78.867188 305.13281 A 16 16 0 0 0 101.49414 305.13281 L 135.43359 271.19336 A 16 16 0 0 0 135.43359 248.56641 A 16 16 0 0 0 123.9043 243.88086 z " />
</svg>
