<?xml version="1.0" encoding="UTF-8"?>
<svg width="512px" height="512px" viewBox="0 0 512 512" version="1.1" xmlns="http://www.w3.org/2000/svg" xmlns:xlink="http://www.w3.org/1999/xlink">
    <!-- Generator: Sketch 62 (91390) - https://sketch.com -->
    <title>Artboard</title>
    <desc>Created with Sketch.</desc>
    <g id="Artboard" stroke="none" stroke-width="1" fill="none" fill-rule="evenodd">
        <g id="color-wand-outline" transform="translate(32.000000, 32.000000)" fill="#000000" fill-rule="nonzero">
            <path d="M187,119.8 L440.2,373 C450.3,383.1 450.3,399.6 440.2,409.8 L409.8,440.2 C404.7,445.3 398.1,447.8 391.4,447.8 C384.7,447.8 378.1,445.3 373,440.2 L119.8,187 C109.7,176.9 109.7,160.4 119.8,150.2 L150.2,119.8 C160.3,109.7 176.8,109.7 187,119.8 Z M224.632,202.678 L202.655,224.655 L391.4,413.4 L413.3,391.5 L224.632,202.678 Z M103.4,216.6 C109.6,222.8 109.6,233 103.4,239.2 L69.5,273.1 C66.4,276.3 62.3,277.8 58.2,277.8 C54.1,277.8 50,276.2 46.9,273.1 C40.7,266.9 40.7,256.7 46.9,250.5 L80.8,216.6 C87,210.4 97.2,210.4 103.4,216.6 Z M64,144 C72.8,144 80,151.2 80,160 C80,168.8 72.8,176 64,176 L16,176 C7.2,176 0,168.8 0,160 C0,151.2 7.2,144 16,144 L64,144 Z M69.5,46.9 L103.4,80.8 C109.6,87 109.6,97.2 103.4,103.4 C100.3,106.6 96.2,108.1 92.1,108.1 C88,108.1 83.9,106.5 80.8,103.4 L46.9,69.5 C40.7,63.3 40.7,53.1 46.9,46.9 C53.1,40.7 63.3,40.7 69.5,46.9 Z M273.1,46.9 C279.3,53.1 279.3,63.3 273.1,69.5 L239.2,103.4 C236.1,106.6 232,108.1 227.9,108.1 C223.8,108.1 219.7,106.5 216.6,103.4 C210.4,97.2 210.4,87 216.6,80.8 L250.5,46.9 C256.7,40.7 266.9,40.7 273.1,46.9 Z M160,0 C168.8,0 176,7.2 176,16 L176,64 C176,72.8 168.8,80 160,80 C151.2,80 144,72.8 144,64 L144,16 C144,7.2 151.2,0 160,0 Z" id="Combined-Shape"></path>
        </g>
    </g>
</svg>