<?xml version="1.0" encoding="utf-8"?>
<!-- Generator: Adobe Illustrator 24.0.0, SVG Export Plug-In . SVG Version: 6.00 Build 0)  -->
<svg version="1.1" id="Layer_1" xmlns="http://www.w3.org/2000/svg" xmlns:xlink="http://www.w3.org/1999/xlink" x="0px" y="0px"
	 viewBox="0 0 512 512" style="enable-background:new 0 0 512 512;" xml:space="preserve">
<title>ionicons-v5-m</title>
<g>
	<path d="M281.2,464h-1.8c-30-0.2-59.3-5.3-86.9-15c-29-10.2-54.8-25.2-76.5-44.4c-43.9-38.8-68-90.7-68-146.2s24.2-107.5,68-146.2
		C162,71.4,223.7,48,285.4,48c53.3,0,102.5,17.4,138.4,49c26,22.9,40.2,53.7,40.2,86.6s-14.3,63.7-40.2,86.6l-30.3,26.9
		c-2.4,2.2-5.3,5.6-5.3,9.9s2.9,7.8,5.3,9.9c4.1,3.7,5.5,4.7,14.6,6.2l0.7,0.1c9.4,1.6,22.2,3.7,32.2,12.9l0.1,0.1
		c9.5,8.9,15.1,22.7,14.9,36.9c-0.2,13.7-5.6,26-15.3,34.5C400.3,443.4,342.2,464,281.2,464z M279.6,432h1.6
		c53.2,0,103.6-17.6,138.2-48.4c3.9-3.4,4.5-8.4,4.6-11c0.1-5-1.8-10.3-4.7-13c-2.9-2.7-9.7-3.8-15.7-4.8l-0.6-0.1
		c-14.2-2.3-21.4-5.6-30.6-13.9c-10.3-9.2-16.1-21.2-16.1-33.8s5.7-24.6,16.1-33.9l30.3-26.9c19-16.8,29.4-39,29.4-62.6
		s-10.4-45.9-29.4-62.6c-30-26.4-71.7-41-117.2-41c-54,0-108,20.4-148.2,56.1c-36.9,32.6-57.2,76-57.2,122.3
		c0,46.2,20.3,89.6,57.2,122.3C173.7,412.9,225.6,431.6,279.6,432z"/>
</g>
<g>
	<circle cx="144" cy="208" r="32"/>
</g>
<g>
	<circle cx="152" cy="311" r="32"/>
</g>
<g>
	<circle cx="224" cy="144" r="32"/>
</g>
<g>
	<circle cx="256" cy="367" r="48"/>
</g>
<g>
	<circle cx="328" cy="144" r="32"/>
</g>
</svg>
