<?xml version="1.0" encoding="UTF-8" standalone="no"?>
<svg
   xmlns:dc="http://purl.org/dc/elements/1.1/"
   xmlns:cc="http://creativecommons.org/ns#"
   xmlns:rdf="http://www.w3.org/1999/02/22-rdf-syntax-ns#"
   xmlns:svg="http://www.w3.org/2000/svg"
   xmlns="http://www.w3.org/2000/svg"
   xmlns:sodipodi="http://sodipodi.sourceforge.net/DTD/sodipodi-0.dtd"
   xmlns:inkscape="http://www.inkscape.org/namespaces/inkscape"
   class="ionicon"
   viewBox="0 0 512 512"
   version="1.1"
   id="svg6"
   sodipodi:docname="color-fill-outline.svg"
   inkscape:version="1.0.2 (e86c8708, 2021-01-15)">
  <metadata
     id="metadata12">
    <rdf:RDF>
      <cc:Work
         rdf:about="">
        <dc:format>image/svg+xml</dc:format>
        <dc:type
           rdf:resource="http://purl.org/dc/dcmitype/StillImage" />
      </cc:Work>
    </rdf:RDF>
  </metadata>
  <defs
     id="defs10" />
  <sodipodi:namedview
     pagecolor="#ffffff"
     bordercolor="#666666"
     borderopacity="1"
     objecttolerance="10"
     gridtolerance="10"
     guidetolerance="10"
     inkscape:pageopacity="0"
     inkscape:pageshadow="2"
     inkscape:window-width="689"
     inkscape:window-height="480"
     id="namedview8"
     showgrid="false"
     inkscape:zoom="1.3027344"
     inkscape:cx="256"
     inkscape:cy="256"
     inkscape:window-x="44"
     inkscape:window-y="25"
     inkscape:window-maximized="0"
     inkscape:current-layer="svg6" />
  <title
     id="title2">Color Fill</title>
  <path
     style="color:#000000;font-style:normal;font-variant:normal;font-weight:normal;font-stretch:normal;font-size:medium;line-height:normal;font-family:sans-serif;font-variant-ligatures:normal;font-variant-position:normal;font-variant-caps:normal;font-variant-numeric:normal;font-variant-alternates:normal;font-variant-east-asian:normal;font-feature-settings:normal;font-variation-settings:normal;text-indent:0;text-align:start;text-decoration:none;text-decoration-line:none;text-decoration-style:solid;text-decoration-color:#000000;letter-spacing:normal;word-spacing:normal;text-transform:none;writing-mode:lr-tb;direction:ltr;text-orientation:mixed;dominant-baseline:auto;baseline-shift:baseline;text-anchor:start;white-space:normal;shape-padding:0;shape-margin:0;inline-size:0;clip-rule:nonzero;display:inline;overflow:visible;visibility:visible;isolation:auto;mix-blend-mode:normal;color-interpolation:sRGB;color-interpolation-filters:linearRGB;solid-color:#000000;solid-opacity:1;vector-effect:none;fill:currentColor;fill-opacity:1;fill-rule:nonzero;stroke:none;stroke-linecap:butt;stroke-linejoin:miter;stroke-miterlimit:10;stroke-dasharray:none;stroke-dashoffset:0;stroke-opacity:1;color-rendering:auto;image-rendering:auto;shape-rendering:auto;text-rendering:auto;enable-background:accumulate;stop-color:#000000;stop-opacity:1;opacity:1"
     d="M 130.10938 31.873047 C 116.73934 31.873047 103.37061 36.93803 93.277344 47.066406 L 88.166016 52.175781 C 67.909264 72.362319 67.909264 105.65721 88.166016 125.84375 L 129.67383 167.35156 L 45.039062 251.86523 C 27.7115 269.10836 27.929236 297.73566 45.519531 314.71289 L 45.533203 314.72656 L 176.75586 440.74805 L 176.76562 440.75781 C 193.74217 457.01108 220.96076 456.93995 237.85352 440.59961 L 237.85742 440.59766 L 237.85938 440.59375 C 275.65472 403.99825 355.17685 327.08096 364.74414 317.51367 C 363.32677 318.93104 372.95149 315.09961 382.13086 315.09961 L 382.41602 315.09961 C 391.82298 315.10796 400.15233 308.78858 403.29688 301.08203 C 406.4408 293.37701 404.91161 283.03622 398.1875 276.46094 L 166.87891 47 L 166.94336 47.066406 C 156.85009 36.93803 143.47941 31.873047 130.10938 31.873047 z M 130.10938 63.669922 C 135.20488 63.669922 140.3017 65.664821 144.27734 69.654297 L 144.30859 69.6875 L 186.03125 111.07617 L 152.31641 144.74023 L 110.76367 103.18555 L 110.75391 103.17578 C 102.77496 95.224487 102.77496 82.795044 110.75391 74.84375 L 110.76367 74.833984 L 115.93359 69.664062 L 115.94336 69.654297 C 119.91901 65.664821 125.01387 63.669922 130.10938 63.669922 z M 208.75586 133.62109 L 360.89258 284.53906 C 354.53377 286.00531 348.09945 288.90446 342.11719 294.88672 C 334.88481 302.11909 253.41245 380.99285 215.60547 417.59961 C 210.83076 422.21818 203.69293 422.23654 198.89453 417.64258 L 67.742188 291.6875 C 62.759077 286.87806 62.702869 279.42856 67.613281 274.54492 L 67.625 274.5332 L 152.30078 189.97852 L 152.34961 190.02734 L 208.75586 133.62109 z M 416.05078 320.20117 C 410.27357 320.20117 404.49464 322.57407 400.61328 327.32031 L 400.78906 327.11133 C 396.44275 332.24411 384.33496 344.78669 373.52344 359.99219 C 362.71191 375.19768 352 393.63988 352 415.10938 C 352 450.6032 380.68893 480 416 480 C 451.35535 480 480 450.52795 480 415.10938 C 480 393.67416 469.3579 375.22838 458.58203 360.01562 C 447.80616 344.80287 435.73702 332.28799 431.26172 327.05273 L 431.48633 327.32031 C 427.60497 322.57407 421.828 320.20117 416.05078 320.20117 z M 416.0625 358.19141 C 421.29912 364.11891 426.97002 370.74893 432.46875 378.51172 C 441.49288 391.25146 448 405.43459 448 415.10938 C 448 433.4708 433.64465 448 416 448 C 398.31107 448 384 433.61555 384 415.10938 C 384 405.46887 390.53809 391.28216 399.60156 378.53516 C 405.1255 370.76621 410.81217 364.13507 416.0625 358.19141 z "
     id="path4" />
</svg>
