<?xml version="1.0" encoding="utf-8"?>
<!-- Generator: Adobe Illustrator 24.0.0, SVG Export Plug-In . SVG Version: 6.00 Build 0)  -->
<svg version="1.1" id="Layer_1" xmlns="http://www.w3.org/2000/svg" xmlns:xlink="http://www.w3.org/1999/xlink" x="0px" y="0px"
	 viewBox="0 0 512 512" style="enable-background:new 0 0 512 512;" xml:space="preserve">
<title>ionicons-v5-m</title>
<g>
	<path d="M256,320c-75,0-136-61-136-136c0-75,61-136,136-136c75,0,136,61,136,136C392,259,331,320,256,320z M256,80
		c-57.3,0-104,46.7-104,104s46.7,104,104,104s104-46.7,104-104S313.3,80,256,80z"/>
</g>
<g>
	<path d="M344,464c-75,0-136-61-136-136c0-75,61-136,136-136s136,61,136,136C480,403,419,464,344,464z M344,224
		c-57.3,0-104,46.7-104,104s46.7,104,104,104s104-46.7,104-104S401.3,224,344,224z"/>
</g>
<g>
	<path d="M168,464c-75,0-136-61-136-136c0-75,61-136,136-136s136,61,136,136C304,403,243,464,168,464z M168,224
		c-57.3,0-104,46.7-104,104s46.7,104,104,104s104-46.7,104-104S225.3,224,168,224z"/>
</g>
</svg>
