<?xml version="1.0" encoding="UTF-8" standalone="no"?>
<svg
   xmlns:dc="http://purl.org/dc/elements/1.1/"
   xmlns:cc="http://creativecommons.org/ns#"
   xmlns:rdf="http://www.w3.org/1999/02/22-rdf-syntax-ns#"
   xmlns:svg="http://www.w3.org/2000/svg"
   xmlns="http://www.w3.org/2000/svg"
   xmlns:sodipodi="http://sodipodi.sourceforge.net/DTD/sodipodi-0.dtd"
   xmlns:inkscape="http://www.inkscape.org/namespaces/inkscape"
   class="ionicon"
   viewBox="0 0 512 512"
   version="1.1"
   id="svg6"
   sodipodi:docname="color-palette.svg"
   inkscape:version="1.0.2 (e86c8708, 2021-01-15)">
  <metadata
     id="metadata12">
    <rdf:RDF>
      <cc:Work
         rdf:about="">
        <dc:format>image/svg+xml</dc:format>
        <dc:type
           rdf:resource="http://purl.org/dc/dcmitype/StillImage" />
      </cc:Work>
    </rdf:RDF>
  </metadata>
  <defs
     id="defs10" />
  <sodipodi:namedview
     pagecolor="#ffffff"
     bordercolor="#666666"
     borderopacity="1"
     objecttolerance="10"
     gridtolerance="10"
     guidetolerance="10"
     inkscape:pageopacity="0"
     inkscape:pageshadow="2"
     inkscape:window-width="689"
     inkscape:window-height="480"
     id="namedview8"
     showgrid="false"
     inkscape:zoom="1.3027344"
     inkscape:cx="256"
     inkscape:cy="256"
     inkscape:window-x="44"
     inkscape:window-y="25"
     inkscape:window-maximized="0"
     inkscape:current-layer="svg6" />
  <title
     id="title2">Color Palette</title>
  <path
     style="color:#000000;font-style:normal;font-variant:normal;font-weight:normal;font-stretch:normal;font-size:medium;line-height:normal;font-family:sans-serif;font-variant-ligatures:normal;font-variant-position:normal;font-variant-caps:normal;font-variant-numeric:normal;font-variant-alternates:normal;font-variant-east-asian:normal;font-feature-settings:normal;font-variation-settings:normal;text-indent:0;text-align:start;text-decoration:none;text-decoration-line:none;text-decoration-style:solid;text-decoration-color:#000000;letter-spacing:normal;word-spacing:normal;text-transform:none;writing-mode:lr-tb;direction:ltr;text-orientation:mixed;dominant-baseline:auto;baseline-shift:baseline;text-anchor:start;white-space:normal;shape-padding:0;shape-margin:0;inline-size:0;clip-rule:nonzero;display:inline;overflow:visible;visibility:visible;isolation:auto;mix-blend-mode:normal;color-interpolation:sRGB;color-interpolation-filters:linearRGB;solid-color:#000000;solid-opacity:1;vector-effect:none;fill:#000000;fill-opacity:1;fill-rule:nonzero;stroke-width:1;stroke-linecap:butt;stroke-linejoin:miter;stroke-miterlimit:4;stroke-dasharray:none;stroke-dashoffset:0;stroke-opacity:1;color-rendering:auto;image-rendering:auto;shape-rendering:auto;text-rendering:auto;enable-background:accumulate;stop-color:#000000;stop-opacity:1;stroke:none;opacity:1"
     d="m 441,336.2 -0.06,-0.05 c -9.93,-9.18 -22.78,-11.34 -32.16,-12.92 l -0.69,-0.12 c -9.05,-1.49 -10.48,-2.5 -14.58,-6.17 -2.44,-2.17 -5.35,-5.65 -5.35,-9.94 0,-4.29 2.91,-7.77 5.34,-9.94 l 30.28,-26.87 c 25.92,-22.91 40.2,-53.66 40.2,-86.59 0,-32.93 -14.25,-63.68 -40.2,-86.6 C 387.89,65.41 338.78,48 285.41,48 223.72,48 162,71.37 116,112.11 72.13,150.88 48,202.82 48,258.35 c 0,55.53 24.16,107.47 68,146.23 21.75,19.24 47.49,34.18 76.52,44.42 27.92162,9.7938 57.28087,14.86332 86.87,15 h 1.81 c 61,0 119.09,-20.57 159.39,-56.4 9.7,-8.56 15.15,-20.83 15.34,-34.56 0.21,-14.17 -5.37,-27.95 -14.93,-36.84 z M 112,208 c 0,-12.94278 7.79659,-24.61122 19.75395,-29.56392 11.95732,-4.9527 25.72043,-2.21423 34.87232,6.93765 9.15188,9.15189 11.89035,22.915 6.93765,34.87232 C 168.61122,232.20341 156.94278,240 144,240 c -17.67311,0 -32,-14.32689 -32,-32 z m 40,135 c -12.94278,0 -24.61122,-7.79659 -29.56392,-19.75395 -4.9527,-11.95732 -2.21423,-25.72043 6.93765,-34.87232 9.15189,-9.15188 22.915,-11.89035 34.87232,-6.93765 C 176.20341,286.38878 184,298.05722 184,311 c 0,17.67311 -14.32689,32 -32,32 z m 40,-199 c 0,-12.94278 7.79659,-24.61122 19.75395,-29.56392 11.95732,-4.9527 25.72043,-2.21423 34.87232,6.93765 9.15188,9.15189 11.89035,22.915 6.93765,34.87232 C 248.61122,168.20341 236.94278,176 224,176 c -17.67311,0 -32,-14.32689 -32,-32 z m 64,271 c -19.41417,0 -36.91683,-11.69489 -44.34588,-29.63092 -7.42905,-17.93599 -3.32135,-38.58065 10.40648,-52.30848 13.72783,-13.72783 34.37249,-17.83553 52.30848,-10.40648 C 292.30511,330.08317 304,347.58583 304,367 c 0,26.50967 -21.49033,48 -48,48 z m 72,-239 c -12.94278,0 -24.61122,-7.79659 -29.56392,-19.75395 -4.9527,-11.95732 -2.21423,-25.72043 6.93765,-34.87232 9.15189,-9.15188 22.915,-11.89035 34.87232,-6.93765 C 352.20341,119.38878 360,131.05722 360,144 c 0,17.67311 -14.32689,32 -32,32 z"
     id="path4" />
</svg>
