<?xml version="1.0" encoding="UTF-8" standalone="no"?>
<svg
   xmlns:dc="http://purl.org/dc/elements/1.1/"
   xmlns:cc="http://creativecommons.org/ns#"
   xmlns:rdf="http://www.w3.org/1999/02/22-rdf-syntax-ns#"
   xmlns:svg="http://www.w3.org/2000/svg"
   xmlns="http://www.w3.org/2000/svg"
   xmlns:sodipodi="http://sodipodi.sourceforge.net/DTD/sodipodi-0.dtd"
   xmlns:inkscape="http://www.inkscape.org/namespaces/inkscape"
   class="ionicon"
   viewBox="0 0 512 512"
   version="1.1"
   id="svg6"
   sodipodi:docname="color-filter-sharp.svg"
   inkscape:version="1.0.2 (e86c8708, 2021-01-15)">
  <metadata
     id="metadata12">
    <rdf:RDF>
      <cc:Work
         rdf:about="">
        <dc:format>image/svg+xml</dc:format>
        <dc:type
           rdf:resource="http://purl.org/dc/dcmitype/StillImage" />
      </cc:Work>
    </rdf:RDF>
  </metadata>
  <defs
     id="defs10" />
  <sodipodi:namedview
     pagecolor="#ffffff"
     bordercolor="#666666"
     borderopacity="1"
     objecttolerance="10"
     gridtolerance="10"
     guidetolerance="10"
     inkscape:pageopacity="0"
     inkscape:pageshadow="2"
     inkscape:window-width="689"
     inkscape:window-height="480"
     id="namedview8"
     showgrid="false"
     inkscape:zoom="1.3027344"
     inkscape:cx="256"
     inkscape:cy="256"
     inkscape:window-x="44"
     inkscape:window-y="25"
     inkscape:window-maximized="0"
     inkscape:current-layer="svg6" />
  <title
     id="title2">Color Filter</title>
  <path
     style="color:#000000;font-style:normal;font-variant:normal;font-weight:normal;font-stretch:normal;font-size:medium;line-height:normal;font-family:sans-serif;font-variant-ligatures:normal;font-variant-position:normal;font-variant-caps:normal;font-variant-numeric:normal;font-variant-alternates:normal;font-variant-east-asian:normal;font-feature-settings:normal;font-variation-settings:normal;text-indent:0;text-align:start;text-decoration:none;text-decoration-line:none;text-decoration-style:solid;text-decoration-color:#000000;letter-spacing:normal;word-spacing:normal;text-transform:none;writing-mode:lr-tb;direction:ltr;text-orientation:mixed;dominant-baseline:auto;baseline-shift:baseline;text-anchor:start;white-space:normal;shape-padding:0;shape-margin:0;inline-size:0;clip-rule:nonzero;display:inline;overflow:visible;visibility:visible;isolation:auto;mix-blend-mode:normal;color-interpolation:sRGB;color-interpolation-filters:linearRGB;solid-color:#000000;solid-opacity:1;vector-effect:none;fill:#000000;fill-opacity:1;fill-rule:nonzero;stroke-width:1;stroke-linecap:butt;stroke-linejoin:miter;stroke-miterlimit:4;stroke-dasharray:none;stroke-dashoffset:0;stroke-opacity:1;color-rendering:auto;image-rendering:auto;shape-rendering:auto;text-rendering:auto;enable-background:accumulate;stop-color:#000000;stop-opacity:1;stroke:none;opacity:1"
     d="M 256,185 C 296.36647,160.12683 345.36978,153.4865 390.9,166.72 382.36,99.83 325.12,48 256,48 186.88,48 129.64,99.83 121.1,166.67 166.6372,153.45136 215.64095,160.10992 256,185 Z m 80,146.73 c -0.96848,44.77853 -19.82917,87.30422 -52.37,118.08 18.74955,9.35059 39.41818,14.20876 60.37,14.19 75,0 136,-61 136,-136 -0.021,-44.80808 -22.11184,-86.73049 -59.06,-112.08 -9.62439,49.33937 -40.77169,91.80662 -84.94,115.81 z M 283.58,206.19 c 25.42679,24.08118 42.68569,55.51154 49.36,89.89 32.17895,-22.10044 53.32246,-56.95119 58.06,-95.7 -35.084,-12.92763 -73.94485,-10.82597 -107.43,5.81 z M 176.05,331.73 C 131.85875,307.74009 100.6879,265.27072 91.05,215.92 54.105634,241.27175 32.018768,283.19378 32,328 c 0,75 61,136 136,136 20.96871,0.0265 41.65534,-4.83185 60.42,-14.19 -32.54083,-30.77578 -51.40152,-73.30147 -52.37,-118.08 z m 3.01,-35.65 c 6.67431,-34.37846 23.93321,-65.80882 49.36,-89.89 -33.48235,-16.63311 -72.33896,-18.73474 -107.42,-5.81 4.73754,38.74881 25.88105,73.59956 58.06,95.7 z m 123.84,49.25 c -30.63425,8.89352 -63.16575,8.89352 -93.8,0 4.3348,33.59692 21.06092,64.36371 46.9,86.27 25.83908,-21.90629 42.5652,-52.67308 46.9,-86.27 z M 209,311.62 c 30.33737,11.17262 63.66263,11.17262 94,0 -4.13586,-33.95091 -20.91836,-65.09495 -47,-87.22 -26.08164,22.12505 -42.86414,53.26909 -47,87.22 z"
     id="path4" />
</svg>
