<?xml version="1.0" encoding="UTF-8" standalone="no"?>
<svg
   xmlns:dc="http://purl.org/dc/elements/1.1/"
   xmlns:cc="http://creativecommons.org/ns#"
   xmlns:rdf="http://www.w3.org/1999/02/22-rdf-syntax-ns#"
   xmlns:svg="http://www.w3.org/2000/svg"
   xmlns="http://www.w3.org/2000/svg"
   xmlns:sodipodi="http://sodipodi.sourceforge.net/DTD/sodipodi-0.dtd"
   xmlns:inkscape="http://www.inkscape.org/namespaces/inkscape"
   class="ionicon"
   viewBox="0 0 512 512"
   version="1.1"
   id="svg10"
   sodipodi:docname="color-filter.svg"
   inkscape:version="1.0.2 (e86c8708, 2021-01-15)">
  <metadata
     id="metadata16">
    <rdf:RDF>
      <cc:Work
         rdf:about="">
        <dc:format>image/svg+xml</dc:format>
        <dc:type
           rdf:resource="http://purl.org/dc/dcmitype/StillImage" />
      </cc:Work>
    </rdf:RDF>
  </metadata>
  <defs
     id="defs14" />
  <sodipodi:namedview
     pagecolor="#ffffff"
     bordercolor="#666666"
     borderopacity="1"
     objecttolerance="10"
     gridtolerance="10"
     guidetolerance="10"
     inkscape:pageopacity="0"
     inkscape:pageshadow="2"
     inkscape:window-width="689"
     inkscape:window-height="480"
     id="namedview12"
     showgrid="false"
     inkscape:zoom="1.3027344"
     inkscape:cx="256"
     inkscape:cy="256"
     inkscape:window-x="44"
     inkscape:window-y="25"
     inkscape:window-maximized="0"
     inkscape:current-layer="svg10" />
  <title
     id="title2">Color Filter</title>
  <path
     style="color:#000000;font-style:normal;font-variant:normal;font-weight:normal;font-stretch:normal;font-size:medium;line-height:normal;font-family:sans-serif;font-variant-ligatures:normal;font-variant-position:normal;font-variant-caps:normal;font-variant-numeric:normal;font-variant-alternates:normal;font-variant-east-asian:normal;font-feature-settings:normal;font-variation-settings:normal;text-indent:0;text-align:start;text-decoration:none;text-decoration-line:none;text-decoration-style:solid;text-decoration-color:#000000;letter-spacing:normal;word-spacing:normal;text-transform:none;writing-mode:lr-tb;direction:ltr;text-orientation:mixed;dominant-baseline:auto;baseline-shift:baseline;text-anchor:start;white-space:normal;shape-padding:0;shape-margin:0;inline-size:0;clip-rule:nonzero;display:inline;overflow:visible;visibility:visible;isolation:auto;mix-blend-mode:normal;color-interpolation:sRGB;color-interpolation-filters:linearRGB;solid-color:#000000;solid-opacity:1;vector-effect:none;fill:#000000;fill-opacity:1;fill-rule:nonzero;stroke-width:1;stroke-linecap:butt;stroke-linejoin:miter;stroke-miterlimit:4;stroke-dasharray:none;stroke-dashoffset:0;stroke-opacity:1;color-rendering:auto;image-rendering:auto;shape-rendering:auto;text-rendering:auto;enable-background:accumulate;stop-color:#000000;stop-opacity:1;stroke:none;opacity:1"
     d="m 253.72,202.53 c 1.37118,0.95123 3.18882,0.95123 4.56,0 37.5878,-25.7164 84.73201,-33.20794 128.44,-20.41 2.63571,0.79388 5.26696,-1.24982 5.15,-4 C 388.8,105.86 329,48 256,48 c -73,0 -132.8,57.86 -135.87,130.15 -0.11696,2.75018 2.51429,4.79388 5.15,4 43.70799,-12.79794 90.8522,-5.3064 128.44,20.41 z m 151.59,10.03 c -9.11471,47.14221 -39.89532,87.24073 -83.08,108.23 -1.41882,0.67539 -2.31077,2.11893 -2.28,3.69 0,1.17 0.05,2.34 0.05,3.52 0.0199,41.56088 -17.02602,81.30692 -47.15,109.94 -1.91054,1.80316 -1.59368,4.92717 0.64,6.31 21.24003,12.94191 45.6377,19.77575 70.51,19.75 72.07,0 134.1,-60.28 136,-132.34 1.32393,-50.19905 -25.10792,-97.04676 -68.76,-121.87 -2.40256,-1.37931 -5.4459,0.0423 -5.93,2.77 z"
     id="path4" />
  <path
     style="color:#000000;font-style:normal;font-variant:normal;font-weight:normal;font-stretch:normal;font-size:medium;line-height:normal;font-family:sans-serif;font-variant-ligatures:normal;font-variant-position:normal;font-variant-caps:normal;font-variant-numeric:normal;font-variant-alternates:normal;font-variant-east-asian:normal;font-feature-settings:normal;font-variation-settings:normal;text-indent:0;text-align:start;text-decoration:none;text-decoration-line:none;text-decoration-style:solid;text-decoration-color:#000000;letter-spacing:normal;word-spacing:normal;text-transform:none;writing-mode:lr-tb;direction:ltr;text-orientation:mixed;dominant-baseline:auto;baseline-shift:baseline;text-anchor:start;white-space:normal;shape-padding:0;shape-margin:0;inline-size:0;clip-rule:nonzero;display:inline;overflow:visible;visibility:visible;isolation:auto;mix-blend-mode:normal;color-interpolation:sRGB;color-interpolation-filters:linearRGB;solid-color:#000000;solid-opacity:1;vector-effect:none;fill:#000000;fill-opacity:1;fill-rule:nonzero;stroke-width:1;stroke-linecap:butt;stroke-linejoin:miter;stroke-miterlimit:4;stroke-dasharray:none;stroke-dashoffset:0;stroke-opacity:1;color-rendering:auto;image-rendering:auto;shape-rendering:auto;text-rendering:auto;enable-background:accumulate;stop-color:#000000;stop-opacity:1;stroke:none;opacity:1"
     d="m 390.57,203.67 c 0.29469,-1.92608 -0.84134,-3.78428 -2.69,-4.4 -38.10029,-12.99296 -80.00099,-8.41832 -114.4,12.49 -2.21705,1.38406 -2.53285,4.48776 -0.64,6.29 22.94659,21.83401 38.49484,50.29426 44.47,81.4 0.51019,2.71406 3.55193,4.10691 5.94,2.72 36.38243,-20.74567 61.20635,-57.06707 67.32,-98.5 z M 192,328 c 0,-1.18 0,-2.35 0.05,-3.52 0.0308,-1.57107 -0.86118,-3.01461 -2.28,-3.69 -43.18468,-20.98927 -73.96529,-61.08779 -83.08,-108.23 -0.49588,-2.69204 -3.48851,-4.10184 -5.88,-2.77 C 57.157919,234.61324 30.726074,281.46095 32.05,331.66 34,403.72 96,464 168.05,464 c 24.85532,0.0166 49.23447,-6.81694 70.46,-19.75 2.23368,-1.38283 2.55054,-4.50684 0.64,-6.31 C 209.02602,409.30692 191.98013,369.56088 192,328 Z"
     id="path6" />
  <path
     style="color:#000000;font-style:normal;font-variant:normal;font-weight:normal;font-stretch:normal;font-size:medium;line-height:normal;font-family:sans-serif;font-variant-ligatures:normal;font-variant-position:normal;font-variant-caps:normal;font-variant-numeric:normal;font-variant-alternates:normal;font-variant-east-asian:normal;font-feature-settings:normal;font-variation-settings:normal;text-indent:0;text-align:start;text-decoration:none;text-decoration-line:none;text-decoration-style:solid;text-decoration-color:#000000;letter-spacing:normal;word-spacing:normal;text-transform:none;writing-mode:lr-tb;direction:ltr;text-orientation:mixed;dominant-baseline:auto;baseline-shift:baseline;text-anchor:start;white-space:normal;shape-padding:0;shape-margin:0;inline-size:0;clip-rule:nonzero;display:inline;overflow:visible;visibility:visible;isolation:auto;mix-blend-mode:normal;color-interpolation:sRGB;color-interpolation-filters:linearRGB;solid-color:#000000;solid-opacity:1;vector-effect:none;fill:#000000;fill-opacity:1;fill-rule:nonzero;stroke-width:1;stroke-linecap:butt;stroke-linejoin:miter;stroke-miterlimit:4;stroke-dasharray:none;stroke-dashoffset:0;stroke-opacity:1;color-rendering:auto;image-rendering:auto;shape-rendering:auto;text-rendering:auto;enable-background:accumulate;stop-color:#000000;stop-opacity:1;stroke:none;opacity:1"
     d="m 168,192 c -14.9275,-0.0131 -29.75435,2.44335 -43.88,7.27 -1.84866,0.61572 -2.98469,2.47392 -2.69,4.4 6.11365,41.43293 30.93757,77.75433 67.32,98.5 2.38807,1.38691 5.42981,-0.006 5.94,-2.72 5.97516,-31.10574 21.52341,-59.56599 44.47,-81.4 1.89285,-1.80224 1.57705,-4.90594 -0.64,-6.29 C 217.27935,198.80993 192.87707,191.97232 168,192 Z m 88,144 c -14.45914,0.01 -28.84518,-2.05106 -42.72,-6.12 -2.63571,-0.79388 -5.26696,1.24982 -5.15,4 1.56663,36.59451 17.86118,71.00133 45.18,95.4 1.52548,1.38615 3.85452,1.38615 5.38,0 27.31882,-24.39867 43.61337,-58.80549 45.18,-95.4 0.11696,-2.75018 -2.51429,-4.79388 -5.15,-4 -13.87482,4.06894 -28.26086,6.12986 -42.72,6.12 z m 46.57,-27.67 c -4.62217,-31.49051 -20.14733,-60.36086 -43.87,-81.58 -1.53911,-1.37054 -3.86089,-1.37054 -5.4,0 -23.72267,21.21914 -39.24783,50.08949 -43.87,81.58 -0.29469,1.92608 0.84134,3.78428 2.69,4.4 28.45035,9.69331 59.30965,9.69331 87.76,0 1.84866,-0.61572 2.98469,-2.47392 2.69,-4.4 z"
     id="path8" />
</svg>
