<?xml version="1.0" encoding="UTF-8" standalone="no"?>
<svg
   xmlns:dc="http://purl.org/dc/elements/1.1/"
   xmlns:cc="http://creativecommons.org/ns#"
   xmlns:rdf="http://www.w3.org/1999/02/22-rdf-syntax-ns#"
   xmlns:svg="http://www.w3.org/2000/svg"
   xmlns="http://www.w3.org/2000/svg"
   xmlns:sodipodi="http://sodipodi.sourceforge.net/DTD/sodipodi-0.dtd"
   xmlns:inkscape="http://www.inkscape.org/namespaces/inkscape"
   class="ionicon"
   viewBox="0 0 512 512"
   version="1.1"
   id="svg6"
   sodipodi:docname="color-fill.svg"
   inkscape:version="1.0.2 (e86c8708, 2021-01-15)">
  <metadata
     id="metadata12">
    <rdf:RDF>
      <cc:Work
         rdf:about="">
        <dc:format>image/svg+xml</dc:format>
        <dc:type
           rdf:resource="http://purl.org/dc/dcmitype/StillImage" />
      </cc:Work>
    </rdf:RDF>
  </metadata>
  <defs
     id="defs10" />
  <sodipodi:namedview
     pagecolor="#ffffff"
     bordercolor="#666666"
     borderopacity="1"
     objecttolerance="10"
     gridtolerance="10"
     guidetolerance="10"
     inkscape:pageopacity="0"
     inkscape:pageshadow="2"
     inkscape:window-width="689"
     inkscape:window-height="480"
     id="namedview8"
     showgrid="false"
     inkscape:zoom="1.3027344"
     inkscape:cx="256"
     inkscape:cy="256"
     inkscape:window-x="44"
     inkscape:window-y="25"
     inkscape:window-maximized="0"
     inkscape:current-layer="svg6" />
  <title
     id="title2">Color Fill</title>
  <path
     style="color:#000000;font-style:normal;font-variant:normal;font-weight:normal;font-stretch:normal;font-size:medium;line-height:normal;font-family:sans-serif;font-variant-ligatures:normal;font-variant-position:normal;font-variant-caps:normal;font-variant-numeric:normal;font-variant-alternates:normal;font-variant-east-asian:normal;font-feature-settings:normal;font-variation-settings:normal;text-indent:0;text-align:start;text-decoration:none;text-decoration-line:none;text-decoration-style:solid;text-decoration-color:#000000;letter-spacing:normal;word-spacing:normal;text-transform:none;writing-mode:lr-tb;direction:ltr;text-orientation:mixed;dominant-baseline:auto;baseline-shift:baseline;text-anchor:start;white-space:normal;shape-padding:0;shape-margin:0;inline-size:0;clip-rule:nonzero;display:inline;overflow:visible;visibility:visible;isolation:auto;mix-blend-mode:normal;color-interpolation:sRGB;color-interpolation-filters:linearRGB;solid-color:#000000;solid-opacity:1;vector-effect:none;fill:#000000;fill-opacity:1;fill-rule:nonzero;stroke-width:1;stroke-linecap:butt;stroke-linejoin:miter;stroke-miterlimit:4;stroke-dasharray:none;stroke-dashoffset:0;stroke-opacity:1;color-rendering:auto;image-rendering:auto;shape-rendering:auto;text-rendering:auto;enable-background:accumulate;stop-color:#000000;stop-opacity:1;stroke:none;opacity:1"
     d="m 416,480 c -35.29,0 -64,-29.11 -64,-64.88 0,-33.29 28.67,-65.4 44.08,-82.64 1.87,-2.1 3.49,-3.91 4.68,-5.31 7.96901,-9.4972 22.58099,-9.4972 30.55,0 1.13,1.31 2.63,3 4.36,4.93 15.5,17.3 44.33,49.51 44.33,83.05 0,35.74 -28.71,64.85 -64,64.85 z M 398.23,276.64 166.89,47.22 c -20.33707,-20.29269 -53.26293,-20.29269 -73.6,0 l -4.51,4.51 C 78.760257,61.585868 73.047706,75.006228 72.89,89.06 72.811842,102.92057 78.306863,116.23113 88.14,126 L 129.65,167.5 45,252 c -8.463109,8.48257 -13.149588,20.01852 -13,32 0.09951,11.69225 4.977173,22.835 13.5,30.84 l 131.24,126 c 17.09242,16.38315 44.08444,16.3036 61.08,-0.18 L 361.93,320.38 c 2.24457,-2.23184 5.11497,-3.72807 8.23,-4.29 3.9444,-0.6304 7.93597,-0.91814 11.93,-0.86 h 0.3 c 20.17923,0.0348 30.22436,-24.43752 15.84,-38.59 z M 152.29,144.85 110.76,103.33 c -7.84771,-7.816817 -7.84771,-20.523183 0,-28.34 l 5.16,-5.15 c 7.83859,-7.842313 20.55141,-7.842313 28.39,0 L 186,111.21 Z"
     id="path4" />
</svg>
