<?xml version="1.0" encoding="utf-8"?>
<!-- Generator: Adobe Illustrator 24.0.0, SVG Export Plug-In . SVG Version: 6.00 Build 0)  -->
<svg version="1.1" id="Layer_1" xmlns="http://www.w3.org/2000/svg" xmlns:xlink="http://www.w3.org/1999/xlink" x="0px" y="0px"
	 viewBox="0 0 512 512" style="enable-background:new 0 0 512 512;" xml:space="preserve">
<title>ionicons-v5-l</title>
<g>
	<path d="M256,464c-114.7,0-208-93.3-208-208S141.3,48,256,48s208,93.3,208,208S370.7,464,256,464z M256,80c-97,0-176,79-176,176
		s79,176,176,176s176-79,176-176S353,80,256,80z"/>
</g>
<g>
	<path d="M350.7,150.9l-117.2,46.9c-16.3,6.5-29.2,19.4-35.7,35.7l-46.9,117.2c-1.6,4.1,0.4,8.8,4.5,10.4c1.9,0.8,4,0.8,5.9,0
		l117.2-46.9c16.3-6.5,29.2-19.4,35.7-35.7l46.9-117.2c1.6-4.1-0.4-8.8-4.5-10.4C354.7,150.2,352.6,150.2,350.7,150.9z M256,280
		c-13.3,0-24-10.7-24-24c0-13.3,10.7-24,24-24c13.3,0,24,10.7,24,24C280,269.3,269.3,280,256,280z"/>
</g>
</svg>
