<?xml version="1.0" encoding="UTF-8" standalone="no"?>
<svg
   xmlns:dc="http://purl.org/dc/elements/1.1/"
   xmlns:cc="http://creativecommons.org/ns#"
   xmlns:rdf="http://www.w3.org/1999/02/22-rdf-syntax-ns#"
   xmlns:svg="http://www.w3.org/2000/svg"
   xmlns="http://www.w3.org/2000/svg"
   xmlns:sodipodi="http://sodipodi.sourceforge.net/DTD/sodipodi-0.dtd"
   xmlns:inkscape="http://www.inkscape.org/namespaces/inkscape"
   class="ionicon"
   viewBox="0 0 512 512"
   version="1.1"
   id="svg8"
   sodipodi:docname="construct.svg"
   inkscape:version="1.0.2 (e86c8708, 2021-01-15)">
  <metadata
     id="metadata14">
    <rdf:RDF>
      <cc:Work
         rdf:about="">
        <dc:format>image/svg+xml</dc:format>
        <dc:type
           rdf:resource="http://purl.org/dc/dcmitype/StillImage" />
      </cc:Work>
    </rdf:RDF>
  </metadata>
  <defs
     id="defs12" />
  <sodipodi:namedview
     pagecolor="#ffffff"
     bordercolor="#666666"
     borderopacity="1"
     objecttolerance="10"
     gridtolerance="10"
     guidetolerance="10"
     inkscape:pageopacity="0"
     inkscape:pageshadow="2"
     inkscape:window-width="689"
     inkscape:window-height="480"
     id="namedview10"
     showgrid="false"
     inkscape:zoom="1.3027344"
     inkscape:cx="256"
     inkscape:cy="256"
     inkscape:window-x="44"
     inkscape:window-y="25"
     inkscape:window-maximized="0"
     inkscape:current-layer="svg8" />
  <title
     id="title2">Construct</title>
  <path
     style="color:#000000;font-style:normal;font-variant:normal;font-weight:normal;font-stretch:normal;font-size:medium;line-height:normal;font-family:sans-serif;font-variant-ligatures:normal;font-variant-position:normal;font-variant-caps:normal;font-variant-numeric:normal;font-variant-alternates:normal;font-variant-east-asian:normal;font-feature-settings:normal;font-variation-settings:normal;text-indent:0;text-align:start;text-decoration:none;text-decoration-line:none;text-decoration-style:solid;text-decoration-color:#000000;letter-spacing:normal;word-spacing:normal;text-transform:none;writing-mode:lr-tb;direction:ltr;text-orientation:mixed;dominant-baseline:auto;baseline-shift:baseline;text-anchor:start;white-space:normal;shape-padding:0;shape-margin:0;inline-size:0;clip-rule:nonzero;display:inline;overflow:visible;visibility:visible;isolation:auto;mix-blend-mode:normal;color-interpolation:sRGB;color-interpolation-filters:linearRGB;solid-color:#000000;solid-opacity:1;vector-effect:none;fill:#000000;fill-opacity:1;fill-rule:nonzero;stroke-width:1;stroke-linecap:butt;stroke-linejoin:miter;stroke-miterlimit:4;stroke-dasharray:none;stroke-dashoffset:0;stroke-opacity:1;color-rendering:auto;image-rendering:auto;shape-rendering:auto;text-rendering:auto;enable-background:accumulate;stop-color:#000000;stop-opacity:1;stroke:none;opacity:1"
     d="m 503.58,126.2 c -5.06194,-10.41648 -18.88077,-12.73919 -27.07,-4.55 l -51.15,51.15 c -4.34165,4.28252 -11.31835,4.28252 -15.66,0 l -22.48,-22.48 c -4.27832,-4.34726 -4.27832,-11.32274 0,-15.67 L 438.1,83.76 c 8.42766,-8.426919 5.68233,-22.700546 -5.27,-27.4 -39.71,-17 -89.08,-7.45 -120,23.29 -26.81,26.61 -34.83,68 -22,113.7 1.12808,3.99986 -0.0944,8.29401 -3.16,11.1 L 114.77,365.1 c -24.175432,21.74893 -25.172019,59.32257 -2.18357,82.32249 22.98845,22.99992 60.56258,22.02209 82.32357,-2.14249 L 357,272.08 c 2.76537,-2.99459 6.95997,-4.21448 10.9,-3.17 45,12 86,4 112.43,-22 15.2,-15 25.81,-36.17 29.89,-59.71 3.83,-22.2 1.41,-44.44 -6.64,-61 z"
     id="path4" />
  <path
     style="color:#000000;font-style:normal;font-variant:normal;font-weight:normal;font-stretch:normal;font-size:medium;line-height:normal;font-family:sans-serif;font-variant-ligatures:normal;font-variant-position:normal;font-variant-caps:normal;font-variant-numeric:normal;font-variant-alternates:normal;font-variant-east-asian:normal;font-feature-settings:normal;font-variation-settings:normal;text-indent:0;text-align:start;text-decoration:none;text-decoration-line:none;text-decoration-style:solid;text-decoration-color:#000000;letter-spacing:normal;word-spacing:normal;text-transform:none;writing-mode:lr-tb;direction:ltr;text-orientation:mixed;dominant-baseline:auto;baseline-shift:baseline;text-anchor:start;white-space:normal;shape-padding:0;shape-margin:0;inline-size:0;clip-rule:nonzero;display:inline;overflow:visible;visibility:visible;isolation:auto;mix-blend-mode:normal;color-interpolation:sRGB;color-interpolation-filters:linearRGB;solid-color:#000000;solid-opacity:1;vector-effect:none;fill:#000000;fill-opacity:1;fill-rule:nonzero;stroke-width:1;stroke-linecap:butt;stroke-linejoin:miter;stroke-miterlimit:4;stroke-dasharray:none;stroke-dashoffset:0;stroke-opacity:1;color-rendering:auto;image-rendering:auto;shape-rendering:auto;text-rendering:auto;enable-background:accumulate;stop-color:#000000;stop-opacity:1;stroke:none;opacity:1"
     d="m 437.33,378.41 c -13.94,-11.59 -43.72,-38.4 -74.07,-66.22 l -66.07,70.61 c 28.24,30 53.8,57.85 65,70.88 l 0.07,0.08 c 5.43754,6.2235 13.20158,9.92824 21.46,10.24 h 1.1 c 7.85652,-0.0235 15.39268,-3.11696 21,-8.62 l 0.07,-0.07 33.43,-33.37 c 12.29184,-12.26405 11.36463,-32.44474 -2,-43.53 z M 118.54,214.55 c 0.0163,-3.79536 -1.02229,-7.52061 -3,-10.76 -1.2322,-1.94883 0.32681,-4.45991 2.62,-4.22 h 0.06 c 0.84,0.09 5.33,0.74 11.7,4.61 4.73,2.87 18.23,12.08 41.73,35.54 -0.25014,7.99021 2.3042,15.81596 7.22,22.12 l 66.23,-61.55 c -5.86598,-5.55434 -13.5306,-8.8189 -21.6,-9.2 -0.0754,-0.0822 -0.14554,-0.169 -0.21,-0.26 l -0.65,-0.69 -24.54,-33.84 c -5.53773,-7.51938 -7.03268,-17.27765 -4,-26.11 2.25095,-6.48074 6.34513,-12.16324 11.78,-16.35 5.69,-4.41 18.53,-9.72 29.44,-10.62 5.08218,-0.42018 10.1984,-0.10357 15.19,0.94 2.39143,0.577 4.74849,1.28812 7.06,2.13 0.70049,0.26172 1.41904,0.47227 2.15,0.63 14.40108,3.19031 25.08146,-13.149767 16.38,-25.06 -0.26,-0.35 -1.32,-1.79 -2.89,-3.73 -2.92935,-3.694617 -6.13883,-7.158187 -9.6,-10.36 -8.15,-7.36 -29.27,-19.77 -57,-19.77 -15.8691,-0.01162 -31.59083,3.044437 -46.3,9 -38.37,15.45 -63.47,36.58 -75.01,47.79 l -0.09,0.09 c -7.764985,7.6672 -14.95445,15.89614 -21.51,24.62 -2.478319,3.49486 -4.089365,7.52933 -4.7,11.77 -0.591269,3.73896 -3.932363,6.41271 -7.71,6.17 H 50.2 c -5.451471,-0.0363 -10.696127,2.08456 -14.59,5.9 l -29.45,28.71 -0.32,0.32 c -7.6919912,7.99145 -7.7973645,20.60112 -0.24,28.72 0.19,0.2 0.37,0.39 0.57,0.58 L 53.67,258 c 3.913618,3.83457 9.170929,5.98774 14.65,6 5.451471,0.0363 10.696127,-2.08456 14.59,-5.9 l 29.46,-28.79 c 3.96977,-3.88202 6.19601,-9.20766 6.17,-14.76 z"
     id="path6" />
</svg>
