<?xml version="1.0" encoding="UTF-8" standalone="no"?>
<svg
   xmlns:dc="http://purl.org/dc/elements/1.1/"
   xmlns:cc="http://creativecommons.org/ns#"
   xmlns:rdf="http://www.w3.org/1999/02/22-rdf-syntax-ns#"
   xmlns:svg="http://www.w3.org/2000/svg"
   xmlns="http://www.w3.org/2000/svg"
   xmlns:sodipodi="http://sodipodi.sourceforge.net/DTD/sodipodi-0.dtd"
   xmlns:inkscape="http://www.inkscape.org/namespaces/inkscape"
   class="ionicon"
   viewBox="0 0 512 512"
   version="1.1"
   id="svg10"
   sodipodi:docname="construct-outline.svg"
   inkscape:version="1.0.2 (e86c8708, 2021-01-15)">
  <metadata
     id="metadata16">
    <rdf:RDF>
      <cc:Work
         rdf:about="">
        <dc:format>image/svg+xml</dc:format>
        <dc:type
           rdf:resource="http://purl.org/dc/dcmitype/StillImage" />
      </cc:Work>
    </rdf:RDF>
  </metadata>
  <defs
     id="defs14" />
  <sodipodi:namedview
     pagecolor="#ffffff"
     bordercolor="#666666"
     borderopacity="1"
     objecttolerance="10"
     gridtolerance="10"
     guidetolerance="10"
     inkscape:pageopacity="0"
     inkscape:pageshadow="2"
     inkscape:window-width="689"
     inkscape:window-height="480"
     id="namedview12"
     showgrid="false"
     inkscape:zoom="1.3027344"
     inkscape:cx="256"
     inkscape:cy="256"
     inkscape:window-x="44"
     inkscape:window-y="25"
     inkscape:window-maximized="0"
     inkscape:current-layer="svg10" />
  <title
     id="title2">Construct</title>
  <path
     style="color:#000000;font-style:normal;font-variant:normal;font-weight:normal;font-stretch:normal;font-size:medium;line-height:normal;font-family:sans-serif;font-variant-ligatures:normal;font-variant-position:normal;font-variant-caps:normal;font-variant-numeric:normal;font-variant-alternates:normal;font-variant-east-asian:normal;font-feature-settings:normal;font-variation-settings:normal;text-indent:0;text-align:start;text-decoration:none;text-decoration-line:none;text-decoration-style:solid;text-decoration-color:#000000;letter-spacing:normal;word-spacing:normal;text-transform:none;writing-mode:lr-tb;direction:ltr;text-orientation:mixed;dominant-baseline:auto;baseline-shift:baseline;text-anchor:start;white-space:normal;shape-padding:0;shape-margin:0;inline-size:0;clip-rule:nonzero;display:inline;overflow:visible;visibility:visible;isolation:auto;mix-blend-mode:normal;color-interpolation:sRGB;color-interpolation-filters:linearRGB;solid-color:#000000;solid-opacity:1;vector-effect:none;fill:currentColor;fill-opacity:1;fill-rule:nonzero;stroke:none;stroke-linecap:round;stroke-linejoin:miter;stroke-miterlimit:10;stroke-dasharray:none;stroke-dashoffset:0;stroke-opacity:1;color-rendering:auto;image-rendering:auto;shape-rendering:auto;text-rendering:auto;enable-background:accumulate;stop-color:#000000;stop-opacity:1;opacity:1"
     d="M 394.0293 47.910156 C 364.71256 47.043668 334.77233 57.805233 312.77734 79.644531 C 281.4282 110.76352 280.3209 156.12589 290.77734 193.33008 C 291.90523 197.34149 290.71302 201.56098 287.65234 204.38867 L 287.63477 204.4043 L 114.61914 365.17969 L 114.83594 364.98047 C 90.730065 386.56574 89.68993 424.53779 112.57617 447.41211 C 135.46241 470.28643 173.43316 469.22454 195.00586 445.10742 L 194.76367 445.37109 L 356.93164 272.05078 L 356.95117 272.03125 C 359.74567 269.02394 363.89217 267.83156 367.85742 268.89453 L 367.86328 268.89648 L 367.86914 268.89844 C 404.73301 278.7479 449.3242 277.41293 480.29883 246.89844 C 496.9912 230.45503 506.45455 208.73351 510.18945 187.18359 C 513.92435 165.63367 512.22992 144.00278 503.55859 126.17188 L 503.51367 126.08008 L 503.4668 125.98633 C 498.5224 116.14531 484.30271 113.84475 476.50781 121.625 L 476.5 121.63281 L 425.39258 172.75977 C 420.90457 177.2189 414.13449 177.2189 409.64648 172.75977 L 387.23438 150.33789 L 387.23047 150.33203 C 382.77893 145.8506 382.77934 139.09293 387.23438 134.61328 L 438.08789 83.757812 C 446.10466 75.748025 443.31741 60.945723 432.93555 56.402344 L 432.87695 56.376953 L 432.81641 56.351562 C 420.55221 51.100813 407.35549 48.304026 394.0293 47.910156 z M 387.56641 80.259766 C 390.44871 80.121534 393.30192 80.280253 396.14844 80.443359 L 364.56055 112.03125 L 364.54492 112.04688 C 347.93705 128.74649 347.93705 156.20273 364.54492 172.90234 L 364.55859 172.91602 L 387.07422 195.44141 L 387.09375 195.46094 C 403.79812 212.05785 431.2429 212.05785 447.94727 195.46094 L 447.9668 195.44141 L 447.98633 195.42188 L 479.67578 163.71875 C 479.90266 169.51145 479.72598 175.55781 478.6582 181.71875 C 475.8856 197.71633 468.63943 213.46497 457.8418 224.10156 C 437.65643 243.98707 406.18699 246.01296 376.13086 237.98242 L 376.14258 237.98633 C 360.78815 233.87024 344.33595 238.6007 333.51367 250.24414 C 333.51241 250.2455 333.51103 250.24669 333.50977 250.24805 L 171.27344 423.63867 L 171.1543 423.77344 C 161.52874 434.53429 145.40891 434.98367 135.19727 424.77734 C 124.98562 414.57102 125.42776 398.45147 136.18359 388.82031 L 136.29297 388.7207 L 309.36719 227.89258 C 321.21416 216.94744 325.94775 200.1969 321.58203 184.66992 L 321.58398 184.66992 C 313.08042 154.41411 314.91141 122.61648 335.32227 102.35547 L 335.32227 102.35352 L 335.32422 102.35352 C 349.12862 88.646117 368.51399 81.173497 387.56641 80.259766 z "
     id="path4" />
  <path
     style="color:#000000;font-style:normal;font-variant:normal;font-weight:normal;font-stretch:normal;font-size:medium;line-height:normal;font-family:sans-serif;font-variant-ligatures:normal;font-variant-position:normal;font-variant-caps:normal;font-variant-numeric:normal;font-variant-alternates:normal;font-variant-east-asian:normal;font-feature-settings:normal;font-variation-settings:normal;text-indent:0;text-align:start;text-decoration:none;text-decoration-line:none;text-decoration-style:solid;text-decoration-color:#000000;letter-spacing:normal;word-spacing:normal;text-transform:none;writing-mode:lr-tb;direction:ltr;text-orientation:mixed;dominant-baseline:auto;baseline-shift:baseline;text-anchor:start;white-space:normal;shape-padding:0;shape-margin:0;inline-size:0;clip-rule:nonzero;display:inline;overflow:visible;visibility:visible;isolation:auto;mix-blend-mode:normal;color-interpolation:sRGB;color-interpolation-filters:linearRGB;solid-color:#000000;solid-opacity:1;vector-effect:none;fill:currentColor;fill-opacity:1;fill-rule:nonzero;stroke:none;stroke-linecap:round;stroke-linejoin:round;stroke-miterlimit:4;stroke-dasharray:none;stroke-dashoffset:0;stroke-opacity:1;color-rendering:auto;image-rendering:auto;shape-rendering:auto;text-rendering:auto;enable-background:accumulate;stop-color:#000000;stop-opacity:1;opacity:1"
     d="M 222.89258 191.06445 C 217.86712 190.89878 212.77544 191.83714 208.00391 193.94922 A 16.0016 16.0016 0 0 0 207.98438 193.95898 C 204.08602 195.69107 200.53903 198.12734 197.52539 201.14648 L 182 216.28516 A 16.0016 16.0016 0 0 0 181.89062 216.39258 C 179.45244 218.81623 177.36647 221.56901 175.69336 224.57227 A 16.0016 16.0016 0 0 0 175.47266 224.98242 C 168.59796 238.21266 171.14542 254.55232 181.72266 265.06055 A 16.0016 16.0016 0 0 0 181.82227 265.1582 C 187.26917 270.47659 195.33874 278.44448 212.8457 295.4707 A 16 16 0 0 0 235.4707 295.1543 A 16 16 0 0 0 235.1543 272.5293 C 217.75748 255.6102 209.84783 247.79901 204.27734 242.35938 C 203.57695 241.66355 203.44923 240.77097 203.83789 239.89258 C 204.02132 239.60975 204.20788 239.32808 204.44727 239.08984 C 204.44792 239.0892 204.44857 239.08854 204.44922 239.08789 L 220.01953 223.9043 A 16.0016 16.0016 0 0 0 220.17383 223.75391 C 220.40123 223.52609 220.66966 223.34346 220.96289 223.21094 C 221.79528 222.84494 222.63671 222.99601 223.28711 223.63281 A 16.0016 16.0016 0 0 0 223.33594 223.68164 C 228.76931 228.9555 238.74781 238.6628 256.72461 256.17969 A 16 16 0 0 0 279.34961 255.88672 A 16 16 0 0 0 279.05664 233.25977 C 261.1006 215.76311 251.14582 206.079 245.67383 200.76758 L 245.66992 200.76367 C 239.45625 194.68184 231.26655 191.34052 222.89258 191.06445 z M 316.95117 275.30078 A 16 16 0 0 0 305.35547 280.40039 A 16 16 0 0 0 306.17188 303.01367 C 346.18197 340.23919 393.55514 383.36528 414.78125 401.23047 L 384.92773 431.07617 C 366.95084 410.37838 324.09649 364.32146 286.62891 325.17578 A 16 16 0 0 0 264.00586 324.68164 A 16 16 0 0 0 263.51172 347.30273 C 301.56479 387.06012 346.36824 435.2917 362.2207 453.68555 A 16.0016 16.0016 0 0 0 362.33398 453.81641 C 373.54101 466.54015 393.68503 467.29307 405.8125 455.44336 A 16.0016 16.0016 0 0 0 405.94141 455.31445 L 439.30469 421.96289 C 451.45251 409.85628 450.48255 389.27518 437.25 378.36523 C 418.78565 362.98202 368.78083 317.55762 327.96875 279.58594 A 16 16 0 0 0 316.95117 275.30078 z M 386.33984 432.66211 C 386.34108 432.6635 386.34448 432.66267 386.3457 432.66406 L 386.45898 432.79492 C 386.42976 432.76101 386.36922 432.69618 386.33984 432.66211 z "
     id="path6" />
  <path
     style="color:#000000;font-style:normal;font-variant:normal;font-weight:normal;font-stretch:normal;font-size:medium;line-height:normal;font-family:sans-serif;font-variant-ligatures:normal;font-variant-position:normal;font-variant-caps:normal;font-variant-numeric:normal;font-variant-alternates:normal;font-variant-east-asian:normal;font-feature-settings:normal;font-variation-settings:normal;text-indent:0;text-align:start;text-decoration:none;text-decoration-line:none;text-decoration-style:solid;text-decoration-color:#000000;letter-spacing:normal;word-spacing:normal;text-transform:none;writing-mode:lr-tb;direction:ltr;text-orientation:mixed;dominant-baseline:auto;baseline-shift:baseline;text-anchor:start;white-space:normal;shape-padding:0;shape-margin:0;inline-size:0;clip-rule:nonzero;display:inline;overflow:visible;visibility:visible;isolation:auto;mix-blend-mode:normal;color-interpolation:sRGB;color-interpolation-filters:linearRGB;solid-color:#000000;solid-opacity:1;vector-effect:none;fill:currentColor;fill-opacity:1;fill-rule:nonzero;stroke:none;stroke-linecap:round;stroke-linejoin:round;stroke-miterlimit:4;stroke-dasharray:none;stroke-dashoffset:0;stroke-opacity:1;color-rendering:auto;image-rendering:auto;shape-rendering:auto;text-rendering:auto;enable-background:accumulate;stop-color:#000000;stop-opacity:1;opacity:1"
     d="M 206.66992 48 C 190.80401 47.986378 175.08375 51.035312 160.37305 56.978516 C 160.36967 56.979874 160.36665 56.981063 160.36328 56.982422 C 160.36003 56.983737 160.35677 56.985012 160.35352 56.986328 C 117.57644 74.214701 91.848851 98.376837 85.251953 104.8418 A 16.0016 16.0016 0 0 0 85.207031 104.88672 C 77.523918 112.47567 70.400556 120.6135 63.896484 129.23438 A 16.0016 16.0016 0 0 0 63.699219 129.50195 C 58.326804 136.9399 58.169258 144.24816 58.509766 149.19531 C 55.922531 148.06929 53.132233 147.4414 50.265625 147.43359 C 44.774255 147.37801 39.461402 149.49087 35.539062 153.34375 C 35.537085 153.34569 35.53518 153.34767 35.533203 153.34961 L 6.1582031 182.05664 A 16.0016 16.0016 0 0 0 5.7363281 182.48438 C -1.8030829 190.42553 -1.8030829 203.29518 5.7363281 211.23633 A 16.0016 16.0016 0 0 0 6.1640625 211.66992 L 53.734375 258.09961 A 16.0016 16.0016 0 0 0 53.841797 258.20508 C 57.725784 261.92524 62.913555 263.98572 68.287109 263.98242 C 73.846805 264.00653 79.20348 261.80264 83.113281 257.84375 L 82.908203 258.04688 L 112.26172 229.38281 C 120.28684 221.58212 120.39343 208.32117 112.68359 200.30469 C 114.48942 199.77136 116.34984 199.46724 118.24609 199.64648 C 119.26179 199.76171 123.71554 200.49904 129.88672 204.24609 C 136.46697 208.24153 150.54888 218.71489 171.87695 240.04297 A 16.0016 16.0016 0 0 0 172.20508 240.36328 C 181.02161 248.68754 195.27372 248.55357 203.93164 240.06445 A 16.0016 16.0016 0 0 0 203.97461 240.02148 L 222.19531 222.02148 L 222.04297 222.16992 C 230.69011 213.85049 231.21362 199.74227 223.20703 190.80469 A 16.0016 16.0016 0 0 0 222.60547 190.16797 C 206.17402 173.73159 197.5758 163.71882 194.05078 158.05469 C 190.52698 152.39252 190.9005 152.39338 191.17188 146.76367 C 191.17197 146.76172 191.17178 146.76172 191.17188 146.75977 C 191.96823 130.73835 195.72712 121.91824 205.89453 113.85742 C 210.59983 110.17501 225.82894 104.0014 235.30469 103.22656 A 16.0016 16.0016 0 0 0 235.33008 103.22461 C 240.40949 102.80104 245.52085 103.12664 250.50977 104.16797 C 252.93859 104.74718 255.33282 105.45871 257.67578 106.32227 A 16.0016 16.0016 0 0 0 276.07617 81.798828 C 272.44216 76.883224 268.38768 72.291897 263.95898 68.078125 A 16.0016 16.0016 0 0 0 263.67188 67.810547 C 253.41151 58.517215 233.98889 48.004152 206.68555 48 L 206.66992 48 z M 200.06445 80.3125 C 195.06922 82.729248 190.28877 85.422842 186.12305 88.691406 A 16.0016 16.0016 0 0 0 186.07031 88.734375 C 168.47174 102.66131 160.29418 123.27594 159.20898 145.19922 A 16.0016 16.0016 0 0 0 159.20898 145.2207 C 158.80039 153.70513 160.53283 164.75952 166.88281 174.96289 C 172.18234 183.47836 180.93178 193.14986 193.18555 205.69727 L 187.82227 210.99609 C 169.04616 192.86061 155.5297 182.38079 146.49414 176.89453 C 136.02975 170.5407 127.12075 168.40928 121.61328 167.8125 A 16.0016 16.0016 0 0 0 121.4668 167.79883 C 111.86825 166.84772 102.20983 168.89036 93.8125 173.63281 C 91.515432 174.90843 89.408119 176.50237 87.566406 178.37695 A 16.0016 16.0016 0 0 0 87.480469 178.46484 C 78.271547 187.9834 76.823031 202.30924 82.703125 213.52148 L 68.292969 227.5918 L 36.798828 196.85547 L 51.902344 182.0957 C 55.65558 183.42199 59.6968 183.90989 63.738281 183.40039 C 69.529712 182.75117 76.642014 181.38802 83.355469 175.00391 A 16.0016 16.0016 0 0 0 83.451172 174.91406 C 87.947494 170.56762 90.054673 164.63718 90.646484 160.33984 C 91.238295 156.0425 90.897511 152.89073 90.728516 150.55273 C 90.568401 148.33761 90.682154 147.34417 90.671875 146.99609 C 95.912826 140.19481 101.55935 133.7158 107.66797 127.67969 C 113.08881 122.36835 135.02072 101.683 172.32617 86.662109 A 16.0016 16.0016 0 0 0 172.3457 86.654297 C 181.2035 83.073938 190.56185 80.991309 200.06445 80.3125 z M 42.318359 176.13477 C 42.442195 176.25727 42.598596 176.33342 42.724609 176.45312 C 42.655696 176.39027 42.559634 176.3694 42.492188 176.30469 L 42.318359 176.13477 z M 194.16406 217.08984 C 194.16689 217.09251 194.171 217.09303 194.17383 217.0957 L 194.50391 217.41602 C 194.38108 217.29319 194.28646 217.21203 194.16406 217.08984 z "
     id="path8" />
</svg>
