<?xml version="1.0" encoding="UTF-8" standalone="no"?>
<svg
   xmlns:dc="http://purl.org/dc/elements/1.1/"
   xmlns:cc="http://creativecommons.org/ns#"
   xmlns:rdf="http://www.w3.org/1999/02/22-rdf-syntax-ns#"
   xmlns:svg="http://www.w3.org/2000/svg"
   xmlns="http://www.w3.org/2000/svg"
   xmlns:sodipodi="http://sodipodi.sourceforge.net/DTD/sodipodi-0.dtd"
   xmlns:inkscape="http://www.inkscape.org/namespaces/inkscape"
   class="ionicon"
   viewBox="0 0 512 512"
   version="1.1"
   id="svg8"
   sodipodi:docname="construct-sharp.svg"
   inkscape:version="1.0.2 (e86c8708, 2021-01-15)">
  <metadata
     id="metadata14">
    <rdf:RDF>
      <cc:Work
         rdf:about="">
        <dc:format>image/svg+xml</dc:format>
        <dc:type
           rdf:resource="http://purl.org/dc/dcmitype/StillImage" />
      </cc:Work>
    </rdf:RDF>
  </metadata>
  <defs
     id="defs12" />
  <sodipodi:namedview
     pagecolor="#ffffff"
     bordercolor="#666666"
     borderopacity="1"
     objecttolerance="10"
     gridtolerance="10"
     guidetolerance="10"
     inkscape:pageopacity="0"
     inkscape:pageshadow="2"
     inkscape:window-width="689"
     inkscape:window-height="480"
     id="namedview10"
     showgrid="false"
     inkscape:zoom="1.3027344"
     inkscape:cx="256"
     inkscape:cy="256"
     inkscape:window-x="44"
     inkscape:window-y="25"
     inkscape:window-maximized="0"
     inkscape:current-layer="svg8" />
  <title
     id="title2">Construct</title>
  <path
     style="color:#000000;font-style:normal;font-variant:normal;font-weight:normal;font-stretch:normal;font-size:medium;line-height:normal;font-family:sans-serif;font-variant-ligatures:normal;font-variant-position:normal;font-variant-caps:normal;font-variant-numeric:normal;font-variant-alternates:normal;font-variant-east-asian:normal;font-feature-settings:normal;font-variation-settings:normal;text-indent:0;text-align:start;text-decoration:none;text-decoration-line:none;text-decoration-style:solid;text-decoration-color:#000000;letter-spacing:normal;word-spacing:normal;text-transform:none;writing-mode:lr-tb;direction:ltr;text-orientation:mixed;dominant-baseline:auto;baseline-shift:baseline;text-anchor:start;white-space:normal;shape-padding:0;shape-margin:0;inline-size:0;clip-rule:nonzero;display:inline;overflow:visible;visibility:visible;isolation:auto;mix-blend-mode:normal;color-interpolation:sRGB;color-interpolation-filters:linearRGB;solid-color:#000000;solid-opacity:1;vector-effect:none;fill:#000000;fill-opacity:1;fill-rule:nonzero;stroke-width:1;stroke-linecap:butt;stroke-linejoin:miter;stroke-miterlimit:4;stroke-dasharray:none;stroke-dashoffset:0;stroke-opacity:1;color-rendering:auto;image-rendering:auto;shape-rendering:auto;text-rendering:auto;enable-background:accumulate;stop-color:#000000;stop-opacity:1;stroke:none;opacity:1"
     d="M 497.14,111.38 416.05,192.22 367.47,143.81 448.56,63 C 403.34,41 339.91,40.91 302.36,78.35 c -35.32,35.2 -39.73,90.61 -22.54,134.2 L 99.57,391.37 c -4.70595,4.68964 -4.70595,12.31036 0,17 l 52.27,52.11 c 4.68964,4.70595 12.31036,4.70595 17,0 l 180,-180.5 c 43.16,16.21 98,11.64 132.74,-23 37.5,-37.45 37.42,-100.34 15.56,-145.6 z"
     id="path4" />
  <path
     style="color:#000000;font-style:normal;font-variant:normal;font-weight:normal;font-stretch:normal;font-size:medium;line-height:normal;font-family:sans-serif;font-variant-ligatures:normal;font-variant-position:normal;font-variant-caps:normal;font-variant-numeric:normal;font-variant-alternates:normal;font-variant-east-asian:normal;font-feature-settings:normal;font-variation-settings:normal;text-indent:0;text-align:start;text-decoration:none;text-decoration-line:none;text-decoration-style:solid;text-decoration-color:#000000;letter-spacing:normal;word-spacing:normal;text-transform:none;writing-mode:lr-tb;direction:ltr;text-orientation:mixed;dominant-baseline:auto;baseline-shift:baseline;text-anchor:start;white-space:normal;shape-padding:0;shape-margin:0;inline-size:0;clip-rule:nonzero;display:inline;overflow:visible;visibility:visible;isolation:auto;mix-blend-mode:normal;color-interpolation:sRGB;color-interpolation-filters:linearRGB;solid-color:#000000;solid-opacity:1;vector-effect:none;fill:#000000;fill-opacity:1;fill-rule:nonzero;stroke-width:1;stroke-linecap:butt;stroke-linejoin:miter;stroke-miterlimit:4;stroke-dasharray:none;stroke-dashoffset:0;stroke-opacity:1;color-rendering:auto;image-rendering:auto;shape-rendering:auto;text-rendering:auto;enable-background:accumulate;stop-color:#000000;stop-opacity:1;stroke:none;opacity:1"
     d="m 365.45,308.62 -71.83,72 75.53,79.92 c 4.21756,4.4855 11.3136,4.58072 15.65,0.21 l 60,-60.46 c 4.32044,-4.37739 4.2123,-11.4468 -0.24,-15.69 z M 119,212 c 0,-4.87 -4,-9.33 -7.45,-12.78 l -0.25,-0.24 -1.54,-1.47 c -0.1933,-0.21939 -0.28738,-0.50889 -0.26,-0.8 2.89259,-1.62864 6.21657,-2.32695 9.52,-2 1.27,0.13 5.91,0.9 12.4,4.91 3.38,2.09 32.63,30.23 43.93,40.7 -4.12129,4.30896 -4.0592,11.11693 0.14,15.35 l 7.43,7.86 65.66,-65.17 -8.25,-7.84 c -4.22126,-4.22015 -11.05579,-4.24694 -15.31,-0.06 -23,-24.68 -29,-35.45 -31,-42.45 -4.42,-15.47 4.14,-28 14,-36 5.84,-4.62 17.88,-8.08 29,-9 3.88029,-0.22861 7.77395,-0.0274 11.61,0.6 3.47,0.5 6.3,1.14 7.39,1.4 3.77406,1.0171 7.45415,2.35532 11,4 l 12,-19 c -3.70495,-6.43977 -8.20713,-12.386675 -13.4,-17.7 -1.6758,-1.754296 -3.40666,-3.455146 -5.19,-5.1 -7.78,-7.15 -28,-19.2 -54.59,-19.2 -15.35661,-0.01689 -30.5673,2.979716 -44.77,8.82 -37.44,15.34 -61.88,36.25 -73.11,47.35 l -0.07,0.07 c -7.546334,7.58353 -14.528269,15.70851 -20.89,24.31 -5.35,7.53 -4.77,15.84 -4.38,21.34 0,0.32 0,0.67 0.07,1 -3.135865,-2.27126 -6.908016,-3.49599 -10.78,-3.5 -4.845319,-0.0334 -9.499468,1.88813 -12.91,5.33 L 2,189.62 c -2.64998698,2.65137 -2.64998698,6.94863 0,9.6 L 65,262 c 2.623921,2.62198 6.876079,2.62198 9.5,0 l 37.06,-37 C 115,221.56 119,216.86 119,212 Z"
     id="path6" />
</svg>
