<?xml version="1.0" encoding="utf-8"?>
<!-- Generator: Adobe Illustrator 24.0.0, SVG Export Plug-In . SVG Version: 6.00 Build 0)  -->
<svg version="1.1" id="Layer_1" xmlns="http://www.w3.org/2000/svg" xmlns:xlink="http://www.w3.org/1999/xlink" x="0px" y="0px"
	 viewBox="0 0 512 512" style="enable-background:new 0 0 512 512;" xml:space="preserve">
<title>ionicons-v5-m</title>
<g>
	<path d="M152.7,464c-15.6,0-31.1-6.4-42.3-18.9c-20.8-23.3-18.9-59.1,4.3-80l172.9-160.7c3.1-2.9,4.3-7.1,3.2-11.1
		c-12.8-45.6-4.8-87.1,22-113.7c30.9-30.7,80.3-40.3,120-23.3c2,0.9,3.7,2.1,5.2,3.5c3.2,3.2,5,7.5,5,12c0,4.5-1.8,8.7-4.9,11.9
		l-50.9,50.9c-4.3,4.3-4.3,11.4,0,15.7l22.5,22.5c4.3,4.3,11.4,4.3,15.7,0l51.1-51.1c1.3-1.3,2.8-2.4,4.4-3.2
		c8.3-4.2,18.4-0.8,22.6,7.5l0.1,0.2c8.1,16.6,10.5,38.8,6.6,61c-4.1,23.5-14.7,44.7-29.9,59.7c-26.4,26-67.4,34-112.4,22
		c-4-1.1-8.1,0.1-10.9,3.1L194.9,445.3c-1.4,1.5-2.8,3-4.3,4.3C179.8,459.2,166.2,464,152.7,464z M391.4,80
		c-20.5,0-41.5,7.9-56,22.3c-8.7,8.6-27.4,33.9-13.7,82.3c4.4,15.6-0.3,32.2-12.2,43.2L136.2,388.8c-10.2,9.1-11,24.8-1.9,35
		c9.1,10.2,24.8,11,35,1.9c0.7-0.6,1.3-1.3,1.9-1.9l0.2-0.3l162.1-173.3c10.8-11.7,27.2-16.4,42.6-12.2c48,12.8,73.1-5.4,81.7-13.9
		c15.7-15.5,22.8-40,22.1-60.7l-32,32c-16.8,16.7-44.1,16.7-60.9,0l-22.5-22.5c-16.7-16.8-16.7-44.1,0-60.9l31.8-31.8
		C394.7,80.1,393,80,391.4,80z M436.7,184.1L436.7,184.1L436.7,184.1z"/>
</g>
<g>
	<path d="M224,300c-4,0-8-1.5-11.2-4.5c-12.5-12.1-20-19.5-25.5-24.9c-2.1-2.1-3.9-3.8-5.5-5.4c0,0-0.1-0.1-0.1-0.1
		c-10.7-10.6-13.2-26.7-6.3-40.1c0.1-0.1,0.1-0.3,0.2-0.4c1.7-3,3.8-5.8,6.2-8.2c0,0,0.1-0.1,0.1-0.1l15.6-15.2
		c3-3,6.5-5.4,10.4-7.1c12.9-5.7,27.7-3,37.7,6.8c5.4,5.2,15.4,15,33.4,32.5c6.3,6.2,6.5,16.3,0.3,22.6c-6.2,6.3-16.3,6.5-22.6,0.3
		c-18-17.5-27.9-27.2-33.4-32.5c-0.7-0.7-1.6-0.8-2.4-0.5c-0.3,0.1-0.6,0.3-0.8,0.5c-0.1,0.1-0.1,0.1-0.2,0.2l-15.6,15.2
		c-0.2,0.2-0.4,0.5-0.6,0.8c-0.3,0.8-0.2,1.8,0.5,2.4c1.6,1.5,3.3,3.3,5.5,5.4c5.5,5.4,13,12.7,25.4,24.8c6.3,6.2,6.5,16.3,0.3,22.6
		C232.3,298.4,228.2,300,224,300z"/>
</g>
<g>
	<path d="M384.8,464c-7.8,0-15.6-3-21.5-9c-0.4-0.4-0.7-0.7-1-1.1c0-0.1-0.1-0.1-0.1-0.2c-15.8-18.3-59.1-65-98.7-106.4
		c-6.1-6.4-5.9-16.5,0.5-22.6c6.4-6.1,16.5-5.9,22.6,0.5c38.7,40.4,81.1,86.1,98.3,105.9l29.8-29.8c-21.3-18-70.1-62.4-108.6-98.2
		c-6.5-6-6.8-16.1-0.8-22.6c6-6.5,16.1-6.8,22.6-0.8c39.5,36.8,89.8,82.6,109.3,98.8c6,5,9.8,12,10.5,19.9s-1.6,15.5-6.6,21.6
		c-0.6,0.7-1.2,1.4-1.9,2.1l-33.4,33.4c0,0-0.1,0.1-0.1,0.1C400,461.1,392.4,464,384.8,464z M416.9,403
		C416.9,403,416.9,403.1,416.9,403C416.9,403.1,416.9,403,416.9,403z M416.7,399.3C416.7,399.3,416.7,399.3,416.7,399.3L416.7,399.3
		z"/>
</g>
<g>
	<path d="M68.4,264c0,0-0.1,0-0.1,0c-5.4,0-10.5-2.1-14.4-5.8c0,0-0.1-0.1-0.1-0.1L6.2,211.7c-0.1-0.1-0.3-0.3-0.4-0.4
		c-7.7-8.1-7.7-20.7,0-28.8c0.1-0.1,0.3-0.3,0.4-0.4l29.4-28.7c3.9-3.8,9.3-6,14.7-5.9c2.9,0,5.7,0.6,8.3,1.7
		c-0.2-5.5,0.2-12.9,5.1-19.7c0.1-0.1,0.1-0.2,0.2-0.3c6.5-8.6,13.7-16.8,21.3-24.3c9.2-9,34.9-31.7,75.2-47.9c14.7-6,30.3-9,46.2-9
		c0,0,0.1,0,0.1,0c27.7,0,48.9,12.5,57,19.8c0.1,0.1,0.2,0.2,0.3,0.3c4.4,4.2,8.5,8.8,12.1,13.7c4.2,5.7,4.2,13.5-0.1,19.1
		c-4.2,5.7-11.7,7.9-18.3,5.4c-2.3-0.9-4.7-1.6-7.2-2.2c-5-1-10.1-1.4-15.2-0.9c-11,0.9-23.8,6.2-29.5,10.6
		c-9.5,7.5-13.9,17.4-14.7,32.9c-0.3,7.1-0.5,11.4,31.4,43.4c0.2,0.2,0.4,0.4,0.6,0.6c8.1,9.1,7.7,22.8-1.1,31.3L204,240
		c-8.9,8.7-22.8,8.8-31.8,0.3c-0.1-0.1-0.2-0.2-0.3-0.3c-22.8-22.8-36.1-32.2-42-35.8c-6.2-3.8-10.7-4.5-11.7-4.6
		c-1.9-0.2-3.8,0-5.6,0.5c3.7,3.8,5.8,8.8,5.9,14.1c0.1,5.5-2,10.7-5.8,14.7c-0.1,0.1-0.3,0.3-0.4,0.4L83,258
		C79.1,261.8,73.8,264,68.4,264z M36.8,196.9l31.5,30.7l14.3-13.9c-2.2-4.2-3.5-8.9-3.6-13.7c-0.1-8,2.9-15.7,8.5-21.5
		c0,0,0.1-0.1,0.1-0.1c1.8-1.9,3.9-3.5,6.2-4.7c8.4-4.8,18-6.8,27.7-5.8c0,0,0.1,0,0.1,0c4.5,0.5,13.7,2.3,24.9,9.1
		c7.9,4.8,21.2,14.5,41.4,34l5.2-5.1c-27-27.5-34.8-40-33.9-60.6c1.2-24.7,10-43.1,26.9-56.5c4-3.1,8.9-6,14.3-8.5
		c-9.6,0.6-19,2.8-28,6.4c-35,14.1-56.9,33.4-64.7,41c-6.1,6-11.9,12.5-17.1,19.4c0,0.9,0.1,2.2,0.2,3.1c0.4,5.8,1.2,16.5-7.3,24.7
		c0,0-0.1,0.1-0.1,0.1c-4.8,4.6-11.7,7.5-19.7,8.4c-4.1,0.5-8.1,0-11.8-1.3L36.8,196.9z M89.9,206.5
		C89.9,206.5,89.9,206.5,89.9,206.5L89.9,206.5z M199.9,199.1C199.9,199.1,199.8,199.1,199.9,199.1
		C199.8,199.1,199.9,199.1,199.9,199.1z M58,176.2L58,176.2C57.9,176.2,58,176.2,58,176.2z M64.8,153.4
		C64.8,153.4,64.8,153.4,64.8,153.4C64.8,153.4,64.8,153.4,64.8,153.4z"/>
</g>
</svg>
