<?xml version="1.0" encoding="UTF-8"?>
<svg width="512px" height="512px" viewBox="0 0 512 512" version="1.1" xmlns="http://www.w3.org/2000/svg" xmlns:xlink="http://www.w3.org/1999/xlink">
    <!-- Generator: Sketch 62 (91390) - https://sketch.com -->
    <title>Artboard</title>
    <desc>Created with Sketch.</desc>
    <g id="Artboard" stroke="none" stroke-width="1" fill="none" fill-rule="evenodd">
        <g id="contrast-outline" transform="translate(32.000000, 32.000000)" fill="#000000" fill-rule="nonzero">
            <path d="M224,0 C283.8,0 340.1,23.3 382.4,65.6 C424.7,107.9 448,164.2 448,224 C448,283.8 424.7,340.1 382.4,382.4 C340.1,424.7 283.8,448 224,448 C164.2,448 107.9,424.7 65.6,382.4 C23.3,340.1 0,283.8 0,224 C0,164.2 23.3,107.9 65.6,65.6 C107.9,23.3 164.2,0 224,0 Z M224,32 L224,416 L224,416 C329.9,416 416,329.9 416,224 C416,118.1 329.9,32 224,32 Z" id="Combined-Shape"></path>
        </g>
    </g>
</svg>