<?xml version="1.0" encoding="UTF-8"?>
<svg width="512px" height="512px" viewBox="0 0 512 512" version="1.1" xmlns="http://www.w3.org/2000/svg" xmlns:xlink="http://www.w3.org/1999/xlink">
    <!-- Generator: Sketch 62 (91390) - https://sketch.com -->
    <title>Artboard</title>
    <desc>Created with Sketch.</desc>
    <g id="Artboard" stroke="none" stroke-width="1" fill="none" fill-rule="evenodd">
        <g id="contract-sharp" transform="translate(57.000000, 57.000000)" fill="#000000" fill-rule="nonzero">
            <path d="M375,231 L375,263 L285.60072,262.99912 L397.62118,374.98788 L374.99718,397.61828 L262.99972,285.65212 L263,375 L231,375 L231,231 L375,231 Z M167,231 L167,375 L135,375 L134.99972,285.59012 L23.00572,397.61668 L0.37532,374.99268 L112.33572,262.99912 L23,263 L23,231 L167,231 Z M22.99572,0.37242 L134.99972,112.34512 L135,23 L167,23 L167,167 L23,167 L23,135 L112.39972,134.99912 L0.37172,23.00282 L22.99572,0.37242 Z M374.98718,0.36712 L397.61758,22.99112 L285.63972,134.99912 L375,135 L375,167 L231,167 L231,23 L263,23 L262.99972,112.38512 L374.98718,0.36712 Z" id="Combined-Shape"></path>
        </g>
    </g>
</svg>