<?xml version="1.0" encoding="UTF-8" standalone="no"?>
<svg
   xmlns:dc="http://purl.org/dc/elements/1.1/"
   xmlns:cc="http://creativecommons.org/ns#"
   xmlns:rdf="http://www.w3.org/1999/02/22-rdf-syntax-ns#"
   xmlns:svg="http://www.w3.org/2000/svg"
   xmlns="http://www.w3.org/2000/svg"
   xmlns:sodipodi="http://sodipodi.sourceforge.net/DTD/sodipodi-0.dtd"
   xmlns:inkscape="http://www.inkscape.org/namespaces/inkscape"
   class="ionicon"
   viewBox="0 0 512 512"
   version="1.1"
   id="svg6"
   sodipodi:docname="contract-outline.svg"
   inkscape:version="1.0.2 (e86c8708, 2021-01-15)">
  <metadata
     id="metadata12">
    <rdf:RDF>
      <cc:Work
         rdf:about="">
        <dc:format>image/svg+xml</dc:format>
        <dc:type
           rdf:resource="http://purl.org/dc/dcmitype/StillImage" />
      </cc:Work>
    </rdf:RDF>
  </metadata>
  <defs
     id="defs10" />
  <sodipodi:namedview
     pagecolor="#ffffff"
     bordercolor="#666666"
     borderopacity="1"
     objecttolerance="10"
     gridtolerance="10"
     guidetolerance="10"
     inkscape:pageopacity="0"
     inkscape:pageshadow="2"
     inkscape:window-width="689"
     inkscape:window-height="480"
     id="namedview8"
     showgrid="false"
     inkscape:zoom="1.3027344"
     inkscape:cx="256"
     inkscape:cy="256"
     inkscape:window-x="44"
     inkscape:window-y="25"
     inkscape:window-maximized="0"
     inkscape:current-layer="svg6" />
  <title
     id="title2">Contract</title>
  <path
     style="color:#000000;font-style:normal;font-variant:normal;font-weight:normal;font-stretch:normal;font-size:medium;line-height:normal;font-family:sans-serif;font-variant-ligatures:normal;font-variant-position:normal;font-variant-caps:normal;font-variant-numeric:normal;font-variant-alternates:normal;font-variant-east-asian:normal;font-feature-settings:normal;font-variation-settings:normal;text-indent:0;text-align:start;text-decoration:none;text-decoration-line:none;text-decoration-style:solid;text-decoration-color:#000000;letter-spacing:normal;word-spacing:normal;text-transform:none;writing-mode:lr-tb;direction:ltr;text-orientation:mixed;dominant-baseline:auto;baseline-shift:baseline;text-anchor:start;white-space:normal;shape-padding:0;shape-margin:0;inline-size:0;clip-rule:nonzero;display:inline;overflow:visible;visibility:visible;isolation:auto;mix-blend-mode:normal;color-interpolation:sRGB;color-interpolation-filters:linearRGB;solid-color:#000000;solid-opacity:1;vector-effect:none;fill:currentColor;fill-opacity:1;fill-rule:nonzero;stroke:none;stroke-linecap:round;stroke-linejoin:round;stroke-miterlimit:4;stroke-dasharray:none;stroke-dashoffset:0;stroke-opacity:1;color-rendering:auto;image-rendering:auto;shape-rendering:auto;text-rendering:auto;enable-background:accumulate;stop-color:#000000;stop-opacity:1;opacity:1"
     d="M 80.119141 64 A 16 16 0 0 0 68.685547 68.6875 A 16 16 0 0 0 68.6875 91.314453 L 169.39844 192 L 96 192 A 16 16 0 0 0 80 208 A 16 16 0 0 0 96 224 L 208 224 A 16.0016 16.0016 0 0 0 224 208 L 224 96 A 16 16 0 0 0 208 80 A 16 16 0 0 0 192 96 L 192 169.34766 L 91.3125 68.685547 A 16 16 0 0 0 80.119141 64 z M 432.11914 64 A 16 16 0 0 0 420.68555 68.6875 L 320 169.39844 L 320 96 A 16 16 0 0 0 304 80 A 16 16 0 0 0 288 96 L 288 208 A 16.0016 16.0016 0 0 0 304 224 L 416 224 A 16 16 0 0 0 432 208 A 16 16 0 0 0 416 192 L 342.65234 192 L 443.31445 91.3125 A 16 16 0 0 0 443.3125 68.685547 A 16 16 0 0 0 432.11914 64 z M 96 288 A 16 16 0 0 0 80 304 A 16 16 0 0 0 96 320 L 169.34766 320 L 68.685547 420.6875 A 16 16 0 0 0 68.6875 443.31445 A 16 16 0 0 0 91.314453 443.3125 L 192 342.60156 L 192 416 A 16 16 0 0 0 208 432 A 16 16 0 0 0 224 416 L 224 304 A 16.0016 16.0016 0 0 0 208 288 L 96 288 z M 304 288 A 16.0016 16.0016 0 0 0 288 304 L 288 416 A 16 16 0 0 0 304 432 A 16 16 0 0 0 320 416 L 320 342.65234 L 420.6875 443.31445 A 16 16 0 0 0 443.31445 443.3125 A 16 16 0 0 0 443.3125 420.68555 L 342.60156 320 L 416 320 A 16 16 0 0 0 432 304 A 16 16 0 0 0 416 288 L 304 288 z "
     id="path4" />
</svg>
