<?xml version="1.0" encoding="utf-8"?>
<!-- Generator: Adobe Illustrator 24.0.0, SVG Export Plug-In . SVG Version: 6.00 Build 0)  -->
<svg version="1.1" id="Layer_1" xmlns="http://www.w3.org/2000/svg" xmlns:xlink="http://www.w3.org/1999/xlink" x="0px" y="0px"
	 viewBox="0 0 512 512" style="enable-background:new 0 0 512 512;" xml:space="preserve">
<title>ionicons-v5-b</title>
<g>
	<path d="M304,432c-8.8,0-16-7.2-16-16V304c0-8.8,7.2-16,16-16h112c8.8,0,16,7.2,16,16s-7.2,16-16,16h-96v96
		C320,424.8,312.8,432,304,432z"/>
</g>
<g>
	<path d="M432,448c-4.1,0-8.2-1.6-11.3-4.7L302.9,325.5c-6.2-6.2-6.2-16.4,0-22.6c6.2-6.2,16.4-6.2,22.6,0l117.8,117.8
		c6.2,6.2,6.2,16.4,0,22.6C440.2,446.4,436.1,448,432,448z"/>
</g>
<g>
	<path d="M208,224H96c-8.8,0-16-7.2-16-16s7.2-16,16-16h96V96c0-8.8,7.2-16,16-16s16,7.2,16,16v112C224,216.8,216.8,224,208,224z"/>
</g>
<g>
	<path d="M197.8,213.8c-4.1,0-8.2-1.6-11.3-4.7L68.7,91.3c-6.2-6.2-6.2-16.4,0-22.6c6.2-6.2,16.4-6.2,22.6,0l117.8,117.8
		c6.2,6.2,6.2,16.4,0,22.6C206,212.2,201.9,213.8,197.8,213.8z"/>
</g>
<g>
	<path d="M416,224H304c-8.8,0-16-7.2-16-16V96c0-8.8,7.2-16,16-16s16,7.2,16,16v96h96c8.8,0,16,7.2,16,16S424.8,224,416,224z"/>
</g>
<g>
	<path d="M314.2,213.8c-4.1,0-8.2-1.6-11.3-4.7c-6.2-6.2-6.2-16.4,0-22.6L420.7,68.7c6.2-6.2,16.4-6.3,22.6,0s6.2,16.4,0,22.6
		L325.5,209.1C322.4,212.2,318.3,213.8,314.2,213.8z"/>
</g>
<g>
	<path d="M208,432c-8.8,0-16-7.2-16-16v-96H96c-8.8,0-16-7.2-16-16s7.2-16,16-16h112c8.8,0,16,7.2,16,16v112
		C224,424.8,216.8,432,208,432z"/>
</g>
<g>
	<path d="M80,448c-4.1,0-8.2-1.6-11.3-4.7c-6.2-6.2-6.2-16.4,0-22.6l117.8-117.8c6.2-6.2,16.4-6.2,22.6,0c6.2,6.2,6.3,16.4,0,22.6
		L91.3,443.3C88.2,446.4,84.1,448,80,448z"/>
</g>
</svg>
