<?xml version="1.0" encoding="utf-8"?>
<!-- Generator: Adobe Illustrator 24.0.0, SVG Export Plug-In . SVG Version: 6.00 Build 0)  -->
<svg version="1.1" id="Layer_1" xmlns="http://www.w3.org/2000/svg" xmlns:xlink="http://www.w3.org/1999/xlink" x="0px" y="0px"
	 viewBox="0 0 512 512" style="enable-background:new 0 0 512 512;" xml:space="preserve">
<title>ionicons-v5-e</title>
<g>
	<path d="M407,480H185c-40.3,0-73-32.7-73-73V185c0-40.3,32.7-73,73-73h222c40.3,0,73,32.7,73,73v222C480,447.3,447.3,480,407,480z
		 M185,144c-22.6,0-41,18.4-41,41v222c0,22.6,18.4,41,41,41h222c22.6,0,41-18.4,41-41V185c0-22.6-18.4-41-41-41H185z"/>
</g>
<g>
	<path d="M128,400h-24c-39.6-0.1-71.9-32.4-72-72V112c0.1-44,36-79.9,80-80h216c39.6,0.1,71.9,32.4,72,72c0,0.1,0,0.3,0,0.4l-0.5,24
		c-0.2,8.8-7.5,15.8-16.3,15.7c-8.8-0.2-15.8-7.5-15.7-16.3l0.5-23.8c-0.2-21.9-18.1-39.8-40-39.9H112c-26.4,0.1-47.9,21.6-48,48
		v216c0.1,22,18,39.9,40,40h24c8.8,0,16,7.2,16,16S136.8,400,128,400z"/>
</g>
</svg>
