<?xml version="1.0" encoding="utf-8"?>
<!-- Generator: Adobe Illustrator 24.0.0, SVG Export Plug-In . SVG Version: 6.00 Build 0)  -->
<svg version="1.1" id="Layer_1" xmlns="http://www.w3.org/2000/svg" xmlns:xlink="http://www.w3.org/1999/xlink" x="0px" y="0px"
	 viewBox="0 0 512 512" style="enable-background:new 0 0 512 512;" xml:space="preserve">
<title>ionicons-v5-n</title>
<g>
	<path d="M344,464H104c-30.9,0-56-25.1-56-56V168c0-30.9,25.1-56,56-56h167.5c8.8,0,16,7.2,16,16s-7.2,16-16,16H104
		c-13.2,0-24,10.8-24,24v240c0,13.2,10.8,24,24,24h240c13.2,0,24-10.8,24-24V224c0-8.8,7.2-16,16-16s16,7.2,16,16v184
		C400,438.9,374.9,464,344,464z"/>
</g>
<g>
	<path d="M459.9,53.2c-6-6.6-16.1-7-22.7-1.1c-0.2,0.2-0.4,0.3-0.5,0.5L424.4,65c-3.1,3.1-3.1,8.2,0,11.3l11.3,11.3
		c3.1,3.1,8.2,3.1,11.3,0c0,0,0,0,0,0l12.1-12C465.2,69.5,465.8,59.6,459.9,53.2z"/>
</g>
<g>
	<path d="M399.3,90L218.8,270.2c-1.1,1.1-1.9,2.4-2.3,3.9l-8.4,24.9c-0.6,2.1,0.6,4.2,2.6,4.9c0.7,0.2,1.5,0.2,2.2,0l24.9-8.4
		c1.5-0.4,2.8-1.2,3.9-2.3L422,112.7c3.5-3.5,3.5-9.2,0-12.7l-10-10C408.5,86.5,402.9,86.5,399.3,90z"/>
</g>
</svg>
