<?xml version="1.0" encoding="utf-8"?>
<!-- Generator: Adobe Illustrator 24.0.0, SVG Export Plug-In . SVG Version: 6.00 Build 0)  -->
<svg version="1.1" id="Layer_1" xmlns="http://www.w3.org/2000/svg" xmlns:xlink="http://www.w3.org/1999/xlink" x="0px" y="0px"
	 viewBox="0 0 512 512" style="enable-background:new 0 0 512 512;" xml:space="preserve">
<title>ionicons-v5-h</title>
<g>
	<path d="M464,384H192c-35.3,0-64-28.7-64-64V48c0-8.8,7.2-16,16-16s16,7.2,16,16v272c0,17.6,14.4,32,32,32h272c8.8,0,16,7.2,16,16
		S472.8,384,464,384z"/>
</g>
<g>
	<path d="M368,320c-8.8,0-16-7.2-16-16V192c0-17.6-14.4-32-32-32H208c-8.8,0-16-7.2-16-16s7.2-16,16-16h112c35.3,0,64,28.7,64,64
		v112C384,312.8,376.8,320,368,320z"/>
</g>
<g>
	<path d="M368,480c-8.8,0-16-7.2-16-16v-96c0-8.8,7.2-16,16-16s16,7.2,16,16v96C384,472.8,376.8,480,368,480z"/>
</g>
<g>
	<path d="M144,160H48c-8.8,0-16-7.2-16-16s7.2-16,16-16h96c8.8,0,16,7.2,16,16S152.8,160,144,160z"/>
</g>
</svg>
