<?xml version="1.0" encoding="UTF-8"?>
<svg width="512px" height="512px" viewBox="0 0 512 512" version="1.1" xmlns="http://www.w3.org/2000/svg" xmlns:xlink="http://www.w3.org/1999/xlink">
    <!-- Generator: Sketch 62 (91390) - https://sketch.com -->
    <title>Artboard</title>
    <desc>Created with Sketch.</desc>
    <g id="Artboard" stroke="none" stroke-width="1" fill="none" fill-rule="evenodd">
        <g id="cube-outline" transform="translate(48.000000, 32.000000)" fill="#000000" fill-rule="nonzero">
            <path d="M240.1,8.7 L392.1,97.2 C406.8,105.8 415.9,121.6 415.9,138.6 L415.9,309.4 L415.9,309.4 C415.9,326.4 406.8,342.3 392.1,350.8 L240.1,439.3 C230.902348,444.743508 220.471507,447.544468 210.047539,447.86822 C209.376784,447.955303 208.693358,448 208,448 C207.300783,448 206.611668,447.954544 205.935463,447.866441 C195.527563,447.529563 185.17988,444.646532 175.8,439.3 L23.8,350.8 C9.1,342.3 0,326.4 0,309.4 L0,138.6 C0,121.6 9.2,105.7 23.8,97.2 L175.8,8.7 C195.6,-2.9 220.3,-2.9 240.1,8.7 Z M32,147.035 L32,309.3 C32,315 35,320.3 39.9,323.1 L191.9,411.6 L192,411.657 L192,241.153 L32,147.035 Z M384,147.034 L224,241.152 L224.000422,411.65752 C224.03364,411.63841 224.066833,411.619237 224.1,411.6 L376.1,323.1 C381,320.3 384,315 384,309.3 L384,147.034 Z M208,32 C202.4,32 196.9,33.4 191.9,36.3 L48.658,119.701 L208,213.4 L367.342,119.7 L224.1,36.3 C219.1,33.5 213.5,32 208,32 Z" id="Combined-Shape"></path>
        </g>
    </g>
</svg>