<?xml version="1.0" encoding="UTF-8"?>
<svg width="512px" height="512px" viewBox="0 0 512 512" version="1.1" xmlns="http://www.w3.org/2000/svg" xmlns:xlink="http://www.w3.org/1999/xlink">
    <!-- Generator: Sketch 62 (91390) - https://sketch.com -->
    <title>Artboard</title>
    <desc>Created with Sketch.</desc>
    <g id="Artboard" stroke="none" stroke-width="1" fill="none" fill-rule="evenodd">
        <g id="cut-outline" transform="translate(32.000000, 80.000000)" fill="#000000" fill-rule="nonzero">
            <path d="M410.2,58.6 C428.2,60.5 439.3,66.5 443,76.4 L447.8,89.2 L141.665168,261.78091 C143.188681,267.601982 144,273.708053 144,280 C144,319.7 111.7,352 72,352 C32.3,352 0,319.7 0,280 C0,240.3 32.3,208 72,208 C88.973925,208 104.595107,213.90454 116.917404,223.767477 C123.258798,221.532289 135.509652,216.279548 150.4,205.2 C163.4,195.5 165.6,184.4 168.4,170.2 C171.4,154.7 175.2,135.4 195.5,121 C238.3,90.6 340.4,66.8 360.5,62.4 C383.2,57.3 400.1,57.5 410.2,58.6 Z M72,240 C49.9,240 32,257.9 32,280 C32,302.1 49.9,320 72,320 C94.1,320 112,302.1 112,280 C112,257.9 94.1,240 72,240 Z M312.3,179.8 L449,255.3 L428.3,270 C417.7,277.5 403.5,279.3 390.3,279.3 C386.4,279.3 382.6,279.1 379,278.9 C328.2,275.9 278.4,251.8 259.7,242.8 L258.884,242.3928 C257.828,241.868 256.9,241.42 256.1,241.1 L228.5,228 L312.3,179.8 Z M312.6,216.6 L297.8,225.1 C315.8,232.7 339.8,241.4 364.5,245.2 L312.6,216.6 Z M224,144 C215.2,144 208,151.2 208,160 C208,168.8 215.2,176 224,176 C232.8,176 240,168.8 240,160 C240,151.2 232.8,144 224,144 Z M378.5,91.6 C375,92.1 371.4,92.8 367.5,93.7 C333.354031,101.259031 291.055061,112.809636 257.593067,125.723072 C264.68558,132.673655 269.630751,141.806105 271.340869,152.031119 L378.5,91.6 Z M72,0 C111.7,0 144,32.3 144,72 C144,77.0794101 143.471253,82.0376832 142.46591,86.8226674 L183.7,111.8 L169.4,126.2 C168.2,127.4 166.1,130.7 165.1,132.5 L158.3,145.2 L116.760659,128.357628 C104.462761,138.14537 88.9020346,144 72,144 C32.3,144 0,111.7 0,72 C0,32.3 32.3,0 72,0 Z M72,32 C49.9,32 32,49.9 32,72 C32,94.1 49.9,112 72,112 C94.1,112 112,94.1 112,72 C112,49.9 94.1,32 72,32 Z" id="Combined-Shape"></path>
        </g>
    </g>
</svg>