<?xml version="1.0" encoding="UTF-8" standalone="no"?>
<svg
   xmlns:dc="http://purl.org/dc/elements/1.1/"
   xmlns:cc="http://creativecommons.org/ns#"
   xmlns:rdf="http://www.w3.org/1999/02/22-rdf-syntax-ns#"
   xmlns:svg="http://www.w3.org/2000/svg"
   xmlns="http://www.w3.org/2000/svg"
   xmlns:sodipodi="http://sodipodi.sourceforge.net/DTD/sodipodi-0.dtd"
   xmlns:inkscape="http://www.inkscape.org/namespaces/inkscape"
   class="ionicon"
   viewBox="0 0 512 512"
   version="1.1"
   id="svg8"
   sodipodi:docname="diamond-outline.svg"
   inkscape:version="1.0.2 (e86c8708, 2021-01-15)">
  <metadata
     id="metadata14">
    <rdf:RDF>
      <cc:Work
         rdf:about="">
        <dc:format>image/svg+xml</dc:format>
        <dc:type
           rdf:resource="http://purl.org/dc/dcmitype/StillImage" />
      </cc:Work>
    </rdf:RDF>
  </metadata>
  <defs
     id="defs12" />
  <sodipodi:namedview
     pagecolor="#ffffff"
     bordercolor="#666666"
     borderopacity="1"
     objecttolerance="10"
     gridtolerance="10"
     guidetolerance="10"
     inkscape:pageopacity="0"
     inkscape:pageshadow="2"
     inkscape:window-width="689"
     inkscape:window-height="480"
     id="namedview10"
     showgrid="false"
     inkscape:zoom="1.3027344"
     inkscape:cx="256"
     inkscape:cy="256"
     inkscape:window-x="44"
     inkscape:window-y="25"
     inkscape:window-maximized="0"
     inkscape:current-layer="svg8" />
  <title
     id="title2">Diamond</title>
  <path
     style="color:#000000;font-style:normal;font-variant:normal;font-weight:normal;font-stretch:normal;font-size:medium;line-height:normal;font-family:sans-serif;font-variant-ligatures:normal;font-variant-position:normal;font-variant-caps:normal;font-variant-numeric:normal;font-variant-alternates:normal;font-variant-east-asian:normal;font-feature-settings:normal;font-variation-settings:normal;text-indent:0;text-align:start;text-decoration:none;text-decoration-line:none;text-decoration-style:solid;text-decoration-color:#000000;letter-spacing:normal;word-spacing:normal;text-transform:none;writing-mode:lr-tb;direction:ltr;text-orientation:mixed;dominant-baseline:auto;baseline-shift:baseline;text-anchor:start;white-space:normal;shape-padding:0;shape-margin:0;inline-size:0;clip-rule:nonzero;display:inline;overflow:visible;visibility:visible;isolation:auto;mix-blend-mode:normal;color-interpolation:sRGB;color-interpolation-filters:linearRGB;solid-color:#000000;solid-opacity:1;vector-effect:none;fill:currentColor;fill-opacity:1;fill-rule:nonzero;stroke:none;stroke-linecap:round;stroke-linejoin:round;stroke-miterlimit:4;stroke-dasharray:none;stroke-dashoffset:0;stroke-opacity:1;color-rendering:auto;image-rendering:auto;shape-rendering:auto;text-rendering:auto;enable-background:accumulate;stop-color:#000000;stop-opacity:1;opacity:1"
     d="M 118.71289 32 C 107.56688 32.012559 97.16623 37.827674 91.318359 47.316406 L 20.869141 161.0332 A 16.0016 16.0016 0 0 0 20.861328 161.04688 C 13.781265 172.49893 14.52916 187.27924 22.730469 197.95703 A 16.0016 16.0016 0 0 0 22.748047 197.97852 L 230.47461 467.4082 C 243.10622 483.87515 268.89378 483.87515 281.52539 467.4082 L 489.25195 197.97852 A 16.0016 16.0016 0 0 0 489.26953 197.95703 C 497.47084 187.27924 498.21873 172.49893 491.13867 161.04688 A 16.0016 16.0016 0 0 0 491.13086 161.0332 L 420.68164 47.316406 C 414.83377 37.827674 404.43312 32.012559 393.28711 32 A 16.0016 16.0016 0 0 0 393.26953 32 L 118.73047 32 A 16.0016 16.0016 0 0 0 118.71289 32 z M 118.74805 64 L 393.25195 64 C 393.35044 64.000111 393.38778 64.021629 393.43945 64.105469 A 16.0016 16.0016 0 0 0 393.45898 64.136719 L 452.84766 160 L 59.152344 160 L 118.54102 64.136719 A 16.0016 16.0016 0 0 0 118.56055 64.105469 C 118.61222 64.021629 118.64956 64.000111 118.74805 64 z M 58.544922 192 L 453.45508 192 L 256.1582 447.90039 A 16.0016 16.0016 0 0 0 256.13477 447.93164 C 255.82149 448.34003 256.17851 448.34003 255.86523 447.93164 A 16.0016 16.0016 0 0 0 255.8418 447.90039 L 58.544922 192 z "
     id="path4" />
  <path
     style="color:#000000;font-style:normal;font-variant:normal;font-weight:normal;font-stretch:normal;font-size:medium;line-height:normal;font-family:sans-serif;font-variant-ligatures:normal;font-variant-position:normal;font-variant-caps:normal;font-variant-numeric:normal;font-variant-alternates:normal;font-variant-east-asian:normal;font-feature-settings:normal;font-variation-settings:normal;text-indent:0;text-align:start;text-decoration:none;text-decoration-line:none;text-decoration-style:solid;text-decoration-color:#000000;letter-spacing:normal;word-spacing:normal;text-transform:none;writing-mode:lr-tb;direction:ltr;text-orientation:mixed;dominant-baseline:auto;baseline-shift:baseline;text-anchor:start;white-space:normal;shape-padding:0;shape-margin:0;inline-size:0;clip-rule:nonzero;display:inline;overflow:visible;visibility:visible;isolation:auto;mix-blend-mode:normal;color-interpolation:sRGB;color-interpolation-filters:linearRGB;solid-color:#000000;solid-opacity:1;vector-effect:none;fill:currentColor;fill-opacity:1;fill-rule:nonzero;stroke:none;stroke-linecap:round;stroke-linejoin:round;stroke-miterlimit:4;stroke-dasharray:none;stroke-dashoffset:0;stroke-opacity:1;color-rendering:auto;image-rendering:auto;shape-rendering:auto;text-rendering:auto;enable-background:accumulate;stop-color:#000000;stop-opacity:1;opacity:1"
     d="M 255.86914 32 A 16 16 0 0 0 255.70117 32.001953 A 16 16 0 0 0 255.61719 32.003906 A 16 16 0 0 0 255.44922 32.009766 A 16 16 0 0 0 255.19727 32.019531 A 16 16 0 0 0 255.11328 32.025391 A 16 16 0 0 0 255.0293 32.029297 A 16 16 0 0 0 254.86133 32.041016 A 16 16 0 0 0 254.52539 32.068359 A 16 16 0 0 0 254.19141 32.103516 A 16 16 0 0 0 253.93555 32.134766 A 16 16 0 0 0 253.76758 32.158203 A 16 16 0 0 0 253.54883 32.189453 A 16 16 0 0 0 253.51172 32.195312 A 16 16 0 0 0 253.23828 32.240234 A 16 16 0 0 0 253.19336 32.248047 A 16 16 0 0 0 253.02734 32.279297 A 16 16 0 0 0 252.80078 32.324219 A 16 16 0 0 0 252.5332 32.380859 A 16 16 0 0 0 252.29688 32.435547 A 16 16 0 0 0 252.20508 32.457031 A 16 16 0 0 0 252.04297 32.498047 A 16 16 0 0 0 251.7168 32.583984 A 16 16 0 0 0 251.39453 32.677734 A 16 16 0 0 0 251.15234 32.751953 A 16 16 0 0 0 250.9668 32.8125 A 16 16 0 0 0 250.80859 32.867188 A 16 16 0 0 0 250.73047 32.892578 A 16 16 0 0 0 250.4375 32.998047 A 16 16 0 0 0 250.12305 33.119141 A 16 16 0 0 0 249.9668 33.181641 A 16 16 0 0 0 249.8125 33.246094 A 16 16 0 0 0 249.50391 33.378906 A 16 16 0 0 0 249.25977 33.490234 A 16 16 0 0 0 249.13672 33.546875 A 16 16 0 0 0 248.95508 33.634766 A 16 16 0 0 0 248.89453 33.664062 A 16 16 0 0 0 248.74414 33.740234 A 16 16 0 0 0 248.4707 33.882812 A 16 16 0 0 0 248.44531 33.896484 A 16 16 0 0 0 248.29883 33.976562 A 16 16 0 0 0 248.03125 34.125 A 16 16 0 0 0 247.9707 34.160156 A 16 16 0 0 0 247.74805 34.292969 A 16 16 0 0 0 247.71484 34.3125 A 16 16 0 0 0 247.57227 34.400391 A 16 16 0 0 0 247.32227 34.558594 A 16 16 0 0 0 247.24805 34.605469 A 16 16 0 0 0 247.06055 34.730469 A 16 16 0 0 0 246.92578 34.822266 A 16 16 0 0 0 246.83398 34.886719 A 16 16 0 0 0 246.5957 35.056641 A 16 16 0 0 0 246.45312 35.162109 A 16 16 0 0 0 246.40039 35.199219 A 16 16 0 0 0 246.19336 35.357422 A 16 16 0 0 0 246.19141 35.359375 A 16 16 0 0 0 246.01953 35.496094 A 16 16 0 0 0 245.92773 35.568359 A 16 16 0 0 0 245.87109 35.615234 A 16 16 0 0 0 245.62109 35.822266 A 16 16 0 0 0 245.58203 35.857422 A 16 16 0 0 0 245.36914 36.041016 A 16 16 0 0 0 245.32031 36.085938 A 16 16 0 0 0 245.13086 36.257812 A 16 16 0 0 0 245.00391 36.376953 A 16 16 0 0 0 244.89844 36.478516 A 16 16 0 0 0 244.73242 36.640625 A 16 16 0 0 0 244.66211 36.710938 A 16 16 0 0 0 244.57422 36.798828 A 16 16 0 0 0 244.39258 36.988281 A 16 16 0 0 0 244.21484 37.179688 A 16 16 0 0 0 244.02344 37.390625 A 16 16 0 0 0 243.98047 37.4375 A 16 16 0 0 0 243.83789 37.605469 A 16 16 0 0 0 243.72461 37.738281 A 16 16 0 0 0 243.7207 37.742188 A 16 16 0 0 0 243.50977 38.001953 A 16 16 0 0 0 243.34766 38.207031 A 16 16 0 0 0 243.23438 38.355469 A 16 16 0 0 0 243.19922 38.400391 A 16 16 0 0 0 243.09961 38.535156 L 163.80469 144.25977 L 126.70703 57.697266 A 16 16 0 0 0 105.69727 49.292969 A 16 16 0 0 0 97.292969 70.302734 L 145.0918 181.83398 L 240.87695 453.22656 A 16 16 0 0 0 240.89648 453.28125 L 240.91211 453.32422 A 16 16 0 0 0 240.92578 453.35938 A 16 16 0 0 0 241.01562 453.60938 A 16 16 0 0 0 241.02734 453.64062 A 16 16 0 0 0 241.11523 453.86719 A 16 16 0 0 0 241.24219 454.17969 A 16 16 0 0 0 241.375 454.48828 A 16 16 0 0 0 241.48438 454.73047 A 16 16 0 0 0 241.54297 454.85547 A 16 16 0 0 0 241.60156 454.97656 A 16 16 0 0 0 241.66797 455.11133 A 16 16 0 0 0 241.8125 455.39648 A 16 16 0 0 0 241.95117 455.65625 A 16 16 0 0 0 241.98047 455.70898 A 16 16 0 0 0 242.13672 455.98633 A 16 16 0 0 0 242.25781 456.19336 A 16 16 0 0 0 242.33398 456.31836 A 16 16 0 0 0 242.39844 456.42188 A 16 16 0 0 0 242.48438 456.5625 A 16 16 0 0 0 242.53516 456.64062 A 16 16 0 0 0 242.71289 456.91211 A 16 16 0 0 0 242.73438 456.94336 A 16 16 0 0 0 242.91016 457.19922 A 16 16 0 0 0 243.06055 457.41016 A 16 16 0 0 0 243.17773 457.56836 A 16 16 0 0 0 243.2793 457.70508 A 16 16 0 0 0 243.37891 457.83398 A 16 16 0 0 0 243.45703 457.93359 A 16 16 0 0 0 243.51562 458.00586 A 16 16 0 0 0 243.71289 458.24805 A 16 16 0 0 0 243.76953 458.31641 A 16 16 0 0 0 243.94727 458.52148 A 16 16 0 0 0 244.11719 458.71289 A 16 16 0 0 0 244.31055 458.92188 A 16 16 0 0 0 244.35352 458.9707 A 16 16 0 0 0 244.53906 459.16211 A 16 16 0 0 0 244.57617 459.20117 A 16 16 0 0 0 244.63477 459.26172 A 16 16 0 0 0 244.80664 459.43164 A 16 16 0 0 0 245.04297 459.66016 A 16 16 0 0 0 245.05273 459.66797 A 16 16 0 0 0 245.21484 459.81836 A 16 16 0 0 0 245.35156 459.94141 A 16 16 0 0 0 245.41406 459.99609 A 16 16 0 0 0 245.57812 460.14062 A 16 16 0 0 0 245.72266 460.25977 A 16 16 0 0 0 245.80664 460.33203 A 16 16 0 0 0 245.87891 460.39062 A 16 16 0 0 0 246.10352 460.57227 A 16 16 0 0 0 246.30078 460.72461 A 16 16 0 0 0 246.34375 460.75586 A 16 16 0 0 0 246.55078 460.91016 A 16 16 0 0 0 246.65625 460.98828 A 16 16 0 0 0 246.70312 461.01953 A 16 16 0 0 0 246.95508 461.19727 A 16 16 0 0 0 247.2207 461.37695 A 16 16 0 0 0 247.30664 461.43164 A 16 16 0 0 0 247.46289 461.53125 A 16 16 0 0 0 247.69531 461.67578 A 16 16 0 0 0 247.80469 461.74219 A 16 16 0 0 0 247.875 461.7832 A 16 16 0 0 0 248.0957 461.91016 A 16 16 0 0 0 248.30664 462.0293 A 16 16 0 0 0 248.50977 462.13672 A 16 16 0 0 0 248.66211 462.2168 A 16 16 0 0 0 248.75391 462.26367 A 16 16 0 0 0 248.96484 462.36914 A 16 16 0 0 0 249.04688 462.4082 A 16 16 0 0 0 249.25391 462.50781 A 16 16 0 0 0 249.29102 462.52539 A 16 16 0 0 0 249.51172 462.625 A 16 16 0 0 0 249.69727 462.70703 A 16 16 0 0 0 249.9082 462.79492 A 16 16 0 0 0 250.13281 462.88477 A 16 16 0 0 0 250.32617 462.95898 A 16 16 0 0 0 250.53516 463.03711 A 16 16 0 0 0 250.67578 463.08789 A 16 16 0 0 0 250.85352 463.14844 A 16 16 0 0 0 251.15234 463.24805 A 16 16 0 0 0 251.19141 463.25977 A 16 16 0 0 0 251.45703 463.33984 A 16 16 0 0 0 251.55273 463.36914 A 16 16 0 0 0 251.74414 463.42188 A 16 16 0 0 0 251.84375 463.44922 A 16 16 0 0 0 252.11914 463.52148 A 16 16 0 0 0 252.14258 463.52734 A 16 16 0 0 0 252.1875 463.53711 A 16 16 0 0 0 252.41211 463.5918 A 16 16 0 0 0 252.49023 463.60938 A 16 16 0 0 0 252.78516 463.67383 A 16 16 0 0 0 252.79883 463.67578 A 16 16 0 0 0 252.82812 463.68164 A 16 16 0 0 0 253.00391 463.7168 A 16 16 0 0 0 253.24414 463.75977 A 16 16 0 0 0 253.34375 463.77734 A 16 16 0 0 0 253.51953 463.80664 A 16 16 0 0 0 253.68945 463.83203 A 16 16 0 0 0 253.9043 463.86133 A 16 16 0 0 0 253.97852 463.87109 A 16 16 0 0 0 254.27539 463.90625 A 16 16 0 0 0 254.55078 463.93359 A 16 16 0 0 0 254.67188 463.94336 A 16 16 0 0 0 254.92188 463.96289 A 16 16 0 0 0 254.99219 463.9668 A 16 16 0 0 0 255.13281 463.97656 A 16 16 0 0 0 255.17969 463.97852 A 16 16 0 0 0 255.46875 463.99023 A 16 16 0 0 0 255.80469 463.99805 A 16 16 0 0 0 256.04688 464 A 16 16 0 0 0 256.20312 463.99805 A 16 16 0 0 0 256.47656 463.99219 A 16 16 0 0 0 256.80859 463.97852 A 16 16 0 0 0 256.8125 463.97852 A 16 16 0 0 0 256.96094 463.9707 A 16 16 0 0 0 257.03125 463.96484 A 16 16 0 0 0 257.26562 463.94922 A 16 16 0 0 0 257.29688 463.94727 A 16 16 0 0 0 257.32812 463.94531 A 16 16 0 0 0 257.63281 463.91602 A 16 16 0 0 0 257.81836 463.89648 A 16 16 0 0 0 257.9668 463.87891 A 16 16 0 0 0 258.01953 463.87109 A 16 16 0 0 0 258.29883 463.83398 A 16 16 0 0 0 258.63281 463.78125 A 16 16 0 0 0 258.94141 463.72656 A 16 16 0 0 0 258.96289 463.72266 A 16 16 0 0 0 259.14844 463.6875 A 16 16 0 0 0 259.20508 463.67578 A 16 16 0 0 0 259.43359 463.62695 A 16 16 0 0 0 259.47656 463.61719 A 16 16 0 0 0 259.62109 463.58398 A 16 16 0 0 0 259.80469 463.54102 A 16 16 0 0 0 259.86133 463.52734 A 16 16 0 0 0 260.07812 463.4707 A 16 16 0 0 0 260.13086 463.45703 A 16 16 0 0 0 260.27344 463.41797 A 16 16 0 0 0 260.45508 463.36719 A 16 16 0 0 0 260.50391 463.35352 A 16 16 0 0 0 260.77539 463.26953 A 16 16 0 0 0 260.91797 463.22461 A 16 16 0 0 0 261.0957 463.16602 A 16 16 0 0 0 261.23633 463.11914 A 16 16 0 0 0 261.32422 463.08789 A 16 16 0 0 0 261.55273 463.00586 A 16 16 0 0 0 261.64062 462.97266 A 16 16 0 0 0 261.86719 462.88477 A 16 16 0 0 0 262.17969 462.75781 A 16 16 0 0 0 262.48828 462.625 A 16 16 0 0 0 262.73047 462.51562 A 16 16 0 0 0 262.85547 462.45703 A 16 16 0 0 0 262.87891 462.44531 A 16 16 0 0 0 263.11133 462.33203 A 16 16 0 0 0 263.39648 462.1875 A 16 16 0 0 0 263.65625 462.04883 A 16 16 0 0 0 263.70898 462.01953 A 16 16 0 0 0 263.98633 461.86328 A 16 16 0 0 0 264.06836 461.81641 A 16 16 0 0 0 264.31836 461.66602 A 16 16 0 0 0 264.35547 461.64453 A 16 16 0 0 0 264.64062 461.46484 A 16 16 0 0 0 264.91211 461.28711 A 16 16 0 0 0 264.92188 461.28125 A 16 16 0 0 0 264.94336 461.26562 A 16 16 0 0 0 265.19922 461.08984 A 16 16 0 0 0 265.41016 460.93945 A 16 16 0 0 0 265.47266 460.89453 A 16 16 0 0 0 265.70508 460.7207 A 16 16 0 0 0 265.74219 460.69336 A 16 16 0 0 0 266.24805 460.28711 A 16 16 0 0 0 266.26758 460.27148 A 16 16 0 0 0 266.31641 460.23047 A 16 16 0 0 0 266.52148 460.05273 A 16 16 0 0 0 266.71289 459.88281 A 16 16 0 0 0 266.92188 459.68945 A 16 16 0 0 0 266.9707 459.64648 A 16 16 0 0 0 267.01953 459.59961 A 16 16 0 0 0 267.20117 459.42383 A 16 16 0 0 0 267.26172 459.36523 A 16 16 0 0 0 267.43164 459.19336 A 16 16 0 0 0 267.66016 458.95703 A 16 16 0 0 0 267.66797 458.94727 A 16 16 0 0 0 267.72852 458.88281 A 16 16 0 0 0 267.94141 458.64844 A 16 16 0 0 0 267.95508 458.63281 A 16 16 0 0 0 268.11523 458.45117 A 16 16 0 0 0 268.17578 458.38086 A 16 16 0 0 0 268.33203 458.19336 A 16 16 0 0 0 268.39062 458.12109 A 16 16 0 0 0 268.57227 457.89648 A 16 16 0 0 0 268.60156 457.85938 A 16 16 0 0 0 268.75 457.66602 A 16 16 0 0 0 268.75586 457.65625 A 16 16 0 0 0 268.91016 457.44922 A 16 16 0 0 0 268.98828 457.34375 A 16 16 0 0 0 269.00391 457.32031 A 16 16 0 0 0 269.01953 457.29688 A 16 16 0 0 0 269.19727 457.04492 A 16 16 0 0 0 269.37695 456.7793 A 16 16 0 0 0 269.38477 456.76562 A 16 16 0 0 0 269.53125 456.53711 A 16 16 0 0 0 269.56641 456.48242 A 16 16 0 0 0 269.69922 456.26367 A 16 16 0 0 0 269.74219 456.19531 A 16 16 0 0 0 269.7832 456.125 A 16 16 0 0 0 269.91016 455.9043 A 16 16 0 0 0 270.04883 455.65625 A 16 16 0 0 0 270.07422 455.61133 A 16 16 0 0 0 270.2168 455.33789 A 16 16 0 0 0 270.23047 455.3125 A 16 16 0 0 0 270.33984 455.0957 A 16 16 0 0 0 270.38086 455.01172 A 16 16 0 0 0 270.50781 454.74609 A 16 16 0 0 0 270.52539 454.70898 A 16 16 0 0 0 270.625 454.48828 A 16 16 0 0 0 270.70703 454.30273 A 16 16 0 0 0 270.79492 454.0918 A 16 16 0 0 0 270.88477 453.86719 A 16 16 0 0 0 270.91992 453.7793 A 16 16 0 0 0 270.95898 453.67383 A 16 16 0 0 0 271.03711 453.46484 A 16 16 0 0 0 271.08789 453.32422 L 366.9082 181.83398 L 414.70703 70.302734 A 16 16 0 0 0 406.30273 49.292969 A 16 16 0 0 0 385.29297 57.697266 L 348.19531 144.25977 L 268.84375 38.458984 A 16 16 0 0 0 268.64258 38.193359 A 16 16 0 0 0 268.64062 38.191406 A 16 16 0 0 0 268.5957 38.132812 A 16 16 0 0 0 268.43164 37.927734 A 16 16 0 0 0 268.38477 37.871094 A 16 16 0 0 0 268.2168 37.667969 A 16 16 0 0 0 268.16992 37.613281 A 16 16 0 0 0 267.99805 37.414062 A 16 16 0 0 0 267.94922 37.359375 A 16 16 0 0 0 267.77344 37.164062 A 16 16 0 0 0 267.72266 37.109375 A 16 16 0 0 0 267.54297 36.919922 A 16 16 0 0 0 267.49023 36.865234 A 16 16 0 0 0 267.30664 36.679688 A 16 16 0 0 0 267.25391 36.626953 A 16 16 0 0 0 267.20117 36.574219 A 16 16 0 0 0 267.01172 36.392578 A 16 16 0 0 0 266.82031 36.214844 A 16 16 0 0 0 266.76562 36.164062 A 16 16 0 0 0 266.57031 35.988281 A 16 16 0 0 0 266.51562 35.939453 A 16 16 0 0 0 266.31641 35.769531 A 16 16 0 0 0 266.25977 35.722656 A 16 16 0 0 0 266.25781 35.720703 A 16 16 0 0 0 265.99805 35.509766 A 16 16 0 0 0 265.85156 35.394531 A 16 16 0 0 0 265.79297 35.347656 A 16 16 0 0 0 265.64453 35.234375 A 16 16 0 0 0 265.55078 35.164062 A 16 16 0 0 0 265.46484 35.099609 A 16 16 0 0 0 265.32812 35.001953 A 16 16 0 0 0 265.19141 34.904297 A 16 16 0 0 0 265.05273 34.808594 A 16 16 0 0 0 264.77344 34.621094 A 16 16 0 0 0 264.63281 34.529297 A 16 16 0 0 0 264.49023 34.439453 A 16 16 0 0 0 264.20312 34.263672 A 16 16 0 0 0 264.05859 34.177734 A 16 16 0 0 0 263.91406 34.09375 A 16 16 0 0 0 263.76758 34.011719 A 16 16 0 0 0 263.61914 33.931641 A 16 16 0 0 0 263.4707 33.851562 A 16 16 0 0 0 263.32227 33.773438 A 16 16 0 0 0 263.17188 33.697266 A 16 16 0 0 0 263.02148 33.623047 A 16 16 0 0 0 262.86914 33.550781 A 16 16 0 0 0 262.7168 33.478516 A 16 16 0 0 0 262.56445 33.408203 A 16 16 0 0 0 262.41016 33.339844 A 16 16 0 0 0 262.25586 33.273438 A 16 16 0 0 0 262.10156 33.208984 A 16 16 0 0 0 261.94531 33.146484 A 16 16 0 0 0 261.78906 33.083984 A 16 16 0 0 0 261.63086 33.023438 A 16 16 0 0 0 261.47461 32.964844 A 16 16 0 0 0 261.31641 32.908203 A 16 16 0 0 0 261.15625 32.853516 A 16 16 0 0 0 260.99805 32.800781 A 16 16 0 0 0 260.97852 32.794922 A 16 16 0 0 0 260.67578 32.699219 A 16 16 0 0 0 260.51562 32.650391 A 16 16 0 0 0 260.35352 32.603516 A 16 16 0 0 0 260.19141 32.558594 A 16 16 0 0 0 260.0293 32.515625 A 16 16 0 0 0 259.86719 32.474609 A 16 16 0 0 0 259.84961 32.470703 A 16 16 0 0 0 259.53906 32.396484 A 16 16 0 0 0 259.22656 32.330078 A 16 16 0 0 0 259.21094 32.326172 A 16 16 0 0 0 259.04492 32.292969 A 16 16 0 0 0 258.88086 32.261719 A 16 16 0 0 0 258.71484 32.232422 A 16 16 0 0 0 258.54883 32.205078 A 16 16 0 0 0 258.22852 32.15625 A 16 16 0 0 0 258.2168 32.154297 A 16 16 0 0 0 258.20508 32.152344 A 16 16 0 0 0 257.89258 32.113281 A 16 16 0 0 0 257.88281 32.111328 A 16 16 0 0 0 257.71484 32.091797 A 16 16 0 0 0 257.66602 32.087891 A 16 16 0 0 0 257.38086 32.060547 A 16 16 0 0 0 257.21289 32.046875 A 16 16 0 0 0 257.04492 32.035156 A 16 16 0 0 0 256.76562 32.019531 A 16 16 0 0 0 256.70898 32.015625 A 16 16 0 0 0 256.54102 32.009766 A 16 16 0 0 0 256.20508 32.001953 A 16 16 0 0 0 255.86914 32 z M 256 74.667969 L 334.0625 178.75 L 256 399.92578 L 177.9375 178.75 L 256 74.667969 z "
     id="path6" />
</svg>
