<?xml version="1.0" encoding="UTF-8" standalone="no"?>
<svg
   xmlns:dc="http://purl.org/dc/elements/1.1/"
   xmlns:cc="http://creativecommons.org/ns#"
   xmlns:rdf="http://www.w3.org/1999/02/22-rdf-syntax-ns#"
   xmlns:svg="http://www.w3.org/2000/svg"
   xmlns="http://www.w3.org/2000/svg"
   xmlns:sodipodi="http://sodipodi.sourceforge.net/DTD/sodipodi-0.dtd"
   xmlns:inkscape="http://www.inkscape.org/namespaces/inkscape"
   class="ionicon"
   viewBox="0 0 512 512"
   version="1.1"
   id="svg6"
   sodipodi:docname="diamond.svg"
   inkscape:version="1.0.2 (e86c8708, 2021-01-15)">
  <metadata
     id="metadata12">
    <rdf:RDF>
      <cc:Work
         rdf:about="">
        <dc:format>image/svg+xml</dc:format>
        <dc:type
           rdf:resource="http://purl.org/dc/dcmitype/StillImage" />
      </cc:Work>
    </rdf:RDF>
  </metadata>
  <defs
     id="defs10" />
  <sodipodi:namedview
     pagecolor="#ffffff"
     bordercolor="#666666"
     borderopacity="1"
     objecttolerance="10"
     gridtolerance="10"
     guidetolerance="10"
     inkscape:pageopacity="0"
     inkscape:pageshadow="2"
     inkscape:window-width="689"
     inkscape:window-height="480"
     id="namedview8"
     showgrid="false"
     inkscape:zoom="1.3027344"
     inkscape:cx="256"
     inkscape:cy="256"
     inkscape:window-x="44"
     inkscape:window-y="25"
     inkscape:window-maximized="0"
     inkscape:current-layer="svg6" />
  <title
     id="title2">Diamond</title>
  <path
     style="color:#000000;font-style:normal;font-variant:normal;font-weight:normal;font-stretch:normal;font-size:medium;line-height:normal;font-family:sans-serif;font-variant-ligatures:normal;font-variant-position:normal;font-variant-caps:normal;font-variant-numeric:normal;font-variant-alternates:normal;font-variant-east-asian:normal;font-feature-settings:normal;font-variation-settings:normal;text-indent:0;text-align:start;text-decoration:none;text-decoration-line:none;text-decoration-style:solid;text-decoration-color:#000000;letter-spacing:normal;word-spacing:normal;text-transform:none;writing-mode:lr-tb;direction:ltr;text-orientation:mixed;dominant-baseline:auto;baseline-shift:baseline;text-anchor:start;white-space:normal;shape-padding:0;shape-margin:0;inline-size:0;clip-rule:nonzero;display:inline;overflow:visible;visibility:visible;isolation:auto;mix-blend-mode:normal;color-interpolation:sRGB;color-interpolation-filters:linearRGB;solid-color:#000000;solid-opacity:1;vector-effect:none;fill:#000000;fill-opacity:1;fill-rule:nonzero;stroke-width:1;stroke-linecap:butt;stroke-linejoin:miter;stroke-miterlimit:4;stroke-dasharray:none;stroke-dashoffset:0;stroke-opacity:1;color-rendering:auto;image-rendering:auto;shape-rendering:auto;text-rendering:auto;enable-background:accumulate;stop-color:#000000;stop-opacity:1;stroke:none;opacity:1"
     d="m 121.72,32 c -2.88013,-0.02651 -4.84342,2.907876 -3.72,5.56 l 2.3,5.43 40.7,94.9 c 1.21301,2.83068 5.03566,3.28629 6.88,0.82 L 243,38.4 c 1.97771,-2.636945 0.0962,-6.4 -3.2,-6.4 z m 298.21,26.06 -41.28,96.37 c -1.12625,2.63917 0.81057,5.57071 3.68,5.57 h 101 c 3.13726,0.001 5.0549,-3.44473 3.4,-6.11 L 427,57.53 c -1.70618,-2.742817 -5.79182,-2.436539 -7.07,0.53 z M 85,57.57 25.29,153.89 c -1.654903,2.66527 0.262745,6.1114 3.4,6.11 h 101 c 2.87165,-0.003 4.80431,-2.94187 3.67,-5.58 L 92,58.1 C 90.696962,55.217762 86.722149,54.916812 85,57.57 Z M 393.27,32 H 267.82 c -1.60789,-0.0104 -2.52976,1.827429 -1.56,3.11 l 79.92,106.46 c 0.89489,1.1997 2.75371,0.97709 3.34,-0.4 L 391.6,43 395,34.66 c 0.51778,-1.237043 -0.35989,-2.610329 -1.7,-2.66 z M 239,448 149.57,194.51 C 149.03191,193.00152 147.60158,191.99588 146,192 H 25.7 c -3.098246,-0.009 -4.848945,3.5519 -2.95,6 l 216,279.81 c 1.50995,1.95537 4.21116,2.5345 6.39,1.37 2.19356,-1.15412 3.21048,-3.74109 2.39,-6.08 z M 486.3,192 H 366 c -1.59343,-4e-4 -3.01311,1.00621 -3.54,2.51 l -98.2,278.16 c -0.85191,2.41222 0.17356,5.08606 2.42,6.31 2.2466,1.21673 5.04374,0.62853 6.61,-1.39 L 489.25,198 c 1.89895,-2.4481 0.14825,-6.00885 -2.95,-6 z M 259.2,78.93 l 56,74.67 c 1.97771,2.63694 0.0962,6.4 -3.2,6.4 H 200 c -3.29618,0 -5.17771,-3.76306 -3.2,-6.4 l 56,-74.67 c 1.6,-2.133333 4.8,-2.133333 6.4,0 z m -7,310.31 -67.7,-191.91 c -0.91711,-2.60129 1.01178,-5.32834 3.77,-5.33 h 135.46 c 2.75822,0.002 4.68711,2.72871 3.77,5.33 l -67.73,191.91 c -1.25913,3.5509 -6.28087,3.5509 -7.54,0 z"
     id="path4" />
</svg>
