<?xml version="1.0" encoding="UTF-8" standalone="no"?>
<svg
   xmlns:dc="http://purl.org/dc/elements/1.1/"
   xmlns:cc="http://creativecommons.org/ns#"
   xmlns:rdf="http://www.w3.org/1999/02/22-rdf-syntax-ns#"
   xmlns:svg="http://www.w3.org/2000/svg"
   xmlns="http://www.w3.org/2000/svg"
   xmlns:sodipodi="http://sodipodi.sourceforge.net/DTD/sodipodi-0.dtd"
   xmlns:inkscape="http://www.inkscape.org/namespaces/inkscape"
   class="ionicon"
   viewBox="0 0 512 512"
   version="1.1"
   id="svg6"
   sodipodi:docname="dice.svg"
   inkscape:version="1.0.2 (e86c8708, 2021-01-15)">
  <metadata
     id="metadata12">
    <rdf:RDF>
      <cc:Work
         rdf:about="">
        <dc:format>image/svg+xml</dc:format>
        <dc:type
           rdf:resource="http://purl.org/dc/dcmitype/StillImage" />
      </cc:Work>
    </rdf:RDF>
  </metadata>
  <defs
     id="defs10" />
  <sodipodi:namedview
     pagecolor="#ffffff"
     bordercolor="#666666"
     borderopacity="1"
     objecttolerance="10"
     gridtolerance="10"
     guidetolerance="10"
     inkscape:pageopacity="0"
     inkscape:pageshadow="2"
     inkscape:window-width="689"
     inkscape:window-height="480"
     id="namedview8"
     showgrid="false"
     inkscape:zoom="1.3027344"
     inkscape:cx="256"
     inkscape:cy="256"
     inkscape:window-x="44"
     inkscape:window-y="25"
     inkscape:window-maximized="0"
     inkscape:current-layer="svg6" />
  <title
     id="title2">Dice</title>
  <path
     style="color:#000000;font-style:normal;font-variant:normal;font-weight:normal;font-stretch:normal;font-size:medium;line-height:normal;font-family:sans-serif;font-variant-ligatures:normal;font-variant-position:normal;font-variant-caps:normal;font-variant-numeric:normal;font-variant-alternates:normal;font-variant-east-asian:normal;font-feature-settings:normal;font-variation-settings:normal;text-indent:0;text-align:start;text-decoration:none;text-decoration-line:none;text-decoration-style:solid;text-decoration-color:#000000;letter-spacing:normal;word-spacing:normal;text-transform:none;writing-mode:lr-tb;direction:ltr;text-orientation:mixed;dominant-baseline:auto;baseline-shift:baseline;text-anchor:start;white-space:normal;shape-padding:0;shape-margin:0;inline-size:0;clip-rule:nonzero;display:inline;overflow:visible;visibility:visible;isolation:auto;mix-blend-mode:normal;color-interpolation:sRGB;color-interpolation-filters:linearRGB;solid-color:#000000;solid-opacity:1;vector-effect:none;fill:#000000;fill-opacity:1;fill-rule:nonzero;stroke-width:1;stroke-linecap:butt;stroke-linejoin:miter;stroke-miterlimit:4;stroke-dasharray:none;stroke-dashoffset:0;stroke-opacity:1;color-rendering:auto;image-rendering:auto;shape-rendering:auto;text-rendering:auto;enable-background:accumulate;stop-color:#000000;stop-opacity:1;stroke:none;opacity:1"
     d="M 440.88,129.37 288.16,40.62 c -19.89321,-11.530783 -44.43679,-11.530783 -64.33,0 L 71.12,129.37 c -2.634362,1.54567 -2.634362,5.35433 0,6.9 L 254,243.85 c 1.25276,0.73786 2.80724,0.73786 4.06,0 L 440.9,136.27 c 2.6299,-1.55329 2.61886,-5.36198 -0.02,-6.9 z M 256,152 c -13.25,0 -24,-7.16 -24,-16 0,-8.84 10.75,-16 24,-16 13.25,0 24,7.16 24,16 0,8.84 -10.75,16 -24,16 z M 238,270.81 54,163.48 c -2.665089,-1.53869 -5.996845,0.38262 -6,3.46 v 173.92 c 0.03072,17.05181 9.105617,32.80727 23.84,41.39 L 234,479.48 c 2.66509,1.53869 5.99685,-0.38262 6,-3.46 V 274.27 c -0.001,-1.4276 -0.76366,-2.7462 -2,-3.46 z M 96,368 c -8.84,0 -16,-10.75 -16,-24 0,-13.25 7.16,-24 16,-24 8.84,0 16,10.75 16,24 0,13.25 -7.16,24 -16,24 z m 96,-32 c -8.84,0 -16,-10.75 -16,-24 0,-13.25 7.16,-24 16,-24 8.84,0 16,10.75 16,24 0,13.25 -7.16,24 -16,24 z M 458,163.51 274,271.56 c -1.23325,0.71201 -1.99497,2.02598 -2,3.45 V 476 c 0.003,3.07738 3.33491,4.99869 6,3.46 l 162.15,-97.23 c 14.73208,-8.57661 23.81011,-24.32328 23.85,-41.37 V 167 c 0.0201,-3.09072 -3.32334,-5.03546 -6,-3.49 z M 320,424 c -8.84,0 -16,-10.75 -16,-24 0,-13.25 7.16,-24 16,-24 8.84,0 16,10.75 16,24 0,13.25 -7.16,24 -16,24 z m 0,-88 c -8.84,0 -16,-10.75 -16,-24 0,-13.25 7.16,-24 16,-24 8.84,0 16,10.75 16,24 0,13.25 -7.16,24 -16,24 z m 96,32 c -8.84,0 -16,-10.75 -16,-24 0,-13.25 7.16,-24 16,-24 8.84,0 16,10.75 16,24 0,13.25 -7.16,24 -16,24 z m 0,-88 c -8.84,0 -16,-10.75 -16,-24 0,-13.25 7.16,-24 16,-24 8.84,0 16,10.75 16,24 0,13.25 -7.16,24 -16,24 z"
     id="path4" />
</svg>
