<?xml version="1.0" encoding="utf-8"?>
<!-- Generator: Adobe Illustrator 24.0.0, SVG Export Plug-In . SVG Version: 6.00 Build 0)  -->
<svg version="1.1" id="Layer_1" xmlns="http://www.w3.org/2000/svg" xmlns:xlink="http://www.w3.org/1999/xlink" x="0px" y="0px"
	 viewBox="0 0 512 512" style="enable-background:new 0 0 512 512;" xml:space="preserve">
<title>ionicons-v5-i</title>
<g>
	<path d="M256,480c-59.8,0-116.1-23.3-158.4-65.6C55.3,372.1,32,315.8,32,256c0-59.8,23.3-116.1,65.6-158.4S196.2,32,256,32
		c59.8,0,116.1,23.3,158.4,65.6C456.7,139.9,480,196.2,480,256c0,59.8-23.3,116.1-65.6,158.4C372.1,456.7,315.8,480,256,480z
		 M256,64C150.1,64,64,150.1,64,256s86.1,192,192,192s192-86.1,192-192S361.9,64,256,64z"/>
</g>
<g>
	<path d="M256,368c-61.8,0-112-50.2-112-112s50.2-112,112-112s112,50.2,112,112S317.8,368,256,368z M256,176c-44.1,0-80,35.9-80,80
		s35.9,80,80,80s80-35.9,80-80S300.1,176,256,176z"/>
</g>
<g>
	<circle cx="256" cy="256" r="32"/>
</g>
</svg>
