<?xml version="1.0" encoding="UTF-8"?>
<svg width="512px" height="512px" viewBox="0 0 512 512" version="1.1" xmlns="http://www.w3.org/2000/svg" xmlns:xlink="http://www.w3.org/1999/xlink">
    <!-- Generator: Sketch 62 (91390) - https://sketch.com -->
    <title>Artboard</title>
    <desc>Created with Sketch.</desc>
    <g id="Artboard" stroke="none" stroke-width="1" fill="none" fill-rule="evenodd">
        <g id="document-attach-outline" transform="translate(48.000000, 16.000000)" fill="#000000" fill-rule="nonzero">
            <path d="M112,0 C131.6,0 148.7,7.9 160.2,22.2 C162.668494,25.2381469 164.855301,28.5129114 166.755072,32.0002238 L226.8,32 C239.396825,32 251.315697,36.8425296 260.269095,45.6697693 L402,187.4 C411.1,196.5 416.1,208.5 416.1,221.3 L416.1,416 C416,451.3 387.3,480 352,480 L144,480 C108.7,480 80,451.3 80,416 L79.9996807,303.669736 C33.1759239,299.764236 0,261.612135 0,210.1 L0,128 C0,119.2 7.2,112 16,112 C24.8,112 32,119.2 32,128 L32,210.1 C32,227.5 37.5,243.3 47.4,254.6 C57.5,266 71.5,272 88,272 C104.5,272 118.5,266 128.6,254.6 C138.5,243.4 144,227.6 144,210.1 L144,71.4 C144,62.2 141.7,32 112,32 C88.4,32 80,52.7 80,72 L80,216 C80,222.6 85.8,224 88,224 L88.4,224 C92.7,223.9 96.1,220.4 96,216.2 L96,64 C96,55.2 103.2,48 112,48 C120.8,48 128,55.2 128,64 L128,215.9 C128.2,237.7 110.7,255.7 88.8,256 L87.9,256 L87.9,256 C68.3,255.9 48,241 48,216 L48,72 C48,29.6 74.3,0 112,0 Z M176,71.4 L176,210.2 C176,255.539116 150.20425,290.559932 112.00173,300.883847 L112,416 C112,433.6 126.4,448 144,448 L352,448 C369.6,448 384,433.6 384,416 L384,224 L272,224 C245.5,224 224,202.5 224,176 L224,64 L175.730084,63.999802 C175.90974,66.4238259 176,68.8918552 176,71.4 Z M256,86.6 L256,176 C256,184.8 263.2,192 272,192 L361.401,192 L256,86.6 Z" id="Combined-Shape"></path>
        </g>
    </g>
</svg>