<?xml version="1.0" encoding="UTF-8" standalone="no"?>
<svg
   xmlns:dc="http://purl.org/dc/elements/1.1/"
   xmlns:cc="http://creativecommons.org/ns#"
   xmlns:rdf="http://www.w3.org/1999/02/22-rdf-syntax-ns#"
   xmlns:svg="http://www.w3.org/2000/svg"
   xmlns="http://www.w3.org/2000/svg"
   xmlns:sodipodi="http://sodipodi.sourceforge.net/DTD/sodipodi-0.dtd"
   xmlns:inkscape="http://www.inkscape.org/namespaces/inkscape"
   class="ionicon"
   viewBox="0 0 512 512"
   version="1.1"
   id="svg12"
   sodipodi:docname="document-lock-outline.svg"
   inkscape:version="1.0.2 (e86c8708, 2021-01-15)">
  <metadata
     id="metadata18">
    <rdf:RDF>
      <cc:Work
         rdf:about="">
        <dc:format>image/svg+xml</dc:format>
        <dc:type
           rdf:resource="http://purl.org/dc/dcmitype/StillImage" />
      </cc:Work>
    </rdf:RDF>
  </metadata>
  <defs
     id="defs16" />
  <sodipodi:namedview
     pagecolor="#ffffff"
     bordercolor="#666666"
     borderopacity="1"
     objecttolerance="10"
     gridtolerance="10"
     guidetolerance="10"
     inkscape:pageopacity="0"
     inkscape:pageshadow="2"
     inkscape:window-width="776"
     inkscape:window-height="480"
     id="namedview14"
     showgrid="false"
     inkscape:zoom="0.3"
     inkscape:cx="256"
     inkscape:cy="256"
     inkscape:window-x="382"
     inkscape:window-y="1236"
     inkscape:window-maximized="0"
     inkscape:current-layer="svg12"
     inkscape:document-rotation="0" />
  <title
     id="title2">Document Lock</title>
  <path
     id="path4"
     style="color:#000000;font-style:normal;font-variant:normal;font-weight:normal;font-stretch:normal;font-size:medium;line-height:normal;font-family:sans-serif;font-variant-ligatures:normal;font-variant-position:normal;font-variant-caps:normal;font-variant-numeric:normal;font-variant-alternates:normal;font-variant-east-asian:normal;font-feature-settings:normal;font-variation-settings:normal;text-indent:0;text-align:start;text-decoration:none;text-decoration-line:none;text-decoration-style:solid;text-decoration-color:#000000;letter-spacing:normal;word-spacing:normal;text-transform:none;writing-mode:lr-tb;direction:ltr;text-orientation:mixed;dominant-baseline:auto;baseline-shift:baseline;text-anchor:start;white-space:normal;shape-padding:0;shape-margin:0;inline-size:0;clip-rule:nonzero;display:inline;overflow:visible;visibility:visible;isolation:auto;mix-blend-mode:normal;color-interpolation:sRGB;color-interpolation-filters:linearRGB;solid-color:#000000;solid-opacity:1;vector-effect:none;fill:currentColor;fill-opacity:1;fill-rule:nonzero;stroke:none;stroke-linecap:round;stroke-linejoin:round;stroke-miterlimit:4;stroke-dasharray:none;stroke-dashoffset:0;stroke-opacity:1;color-rendering:auto;image-rendering:auto;shape-rendering:auto;text-rendering:auto;enable-background:accumulate;stop-color:#000000;stop-opacity:1;opacity:1"
     d="M 144 32 C 108.84329 32 80 60.84329 80 96 L 80 416 C 80 451.15671 108.84329 480 144 480 L 368 480 C 403.15671 480 432 451.15671 432 416 L 432 221.25 A 16.0016 16.0016 0 0 0 432 221.24805 C 431.99899 214.54302 430.58067 207.98372 427.93359 201.95703 A 16 16 0 0 0 427.53906 201.07031 C 425.1915 196.00591 421.96491 191.33887 417.94531 187.31836 A 16.0016 16.0016 0 0 0 417.94336 187.31641 L 276.68359 46.056641 A 16.0016 16.0016 0 0 0 276.68164 46.054688 C 272.6626 42.036566 267.99779 38.810237 262.93555 36.462891 A 16 16 0 0 0 262.01562 36.054688 C 255.9964 33.415337 249.44687 32.001012 242.75195 32 A 16.0016 16.0016 0 0 0 242.75 32 L 144 32 z M 144 64 L 240 64 L 240 176 C 240 202.32015 261.67985 224 288 224 L 400 224 L 400 416 C 400 433.86263 385.86263 448 368 448 L 144 448 C 126.13737 448 112 433.86263 112 416 L 112 96 C 112 78.137374 126.13737 64 144 64 z M 272 86.628906 L 377.37109 192 L 288 192 C 278.97393 192 272 185.02607 272 176 L 272 86.628906 z M 256 240 C 230.22092 240 208 260.22348 208 286 L 208 304 C 190.32689 304 176 318.32689 176 336 L 176 384 C 176 401.67311 190.32689 416 208 416 L 304 416 C 321.67311 416 336 401.67311 336 384 L 336 336 C 336 318.32689 321.67311 304 304 304 L 304 286 C 304 260.22348 281.77908 240 256 240 z M 256 272 C 265.70092 272 272 278.51652 272 286 L 272 304 L 240 304 L 240 286 C 240 278.51652 246.29908 272 256 272 z " />
</svg>
