<?xml version="1.0" encoding="UTF-8" standalone="no"?>
<svg
   xmlns:dc="http://purl.org/dc/elements/1.1/"
   xmlns:cc="http://creativecommons.org/ns#"
   xmlns:rdf="http://www.w3.org/1999/02/22-rdf-syntax-ns#"
   xmlns:svg="http://www.w3.org/2000/svg"
   xmlns="http://www.w3.org/2000/svg"
   xmlns:sodipodi="http://sodipodi.sourceforge.net/DTD/sodipodi-0.dtd"
   xmlns:inkscape="http://www.inkscape.org/namespaces/inkscape"
   class="ionicon"
   viewBox="0 0 512 512"
   version="1.1"
   id="svg10"
   sodipodi:docname="document-attach-outline.svg"
   inkscape:version="1.0.2 (e86c8708, 2021-01-15)">
  <metadata
     id="metadata16">
    <rdf:RDF>
      <cc:Work
         rdf:about="">
        <dc:format>image/svg+xml</dc:format>
        <dc:type
           rdf:resource="http://purl.org/dc/dcmitype/StillImage" />
      </cc:Work>
    </rdf:RDF>
  </metadata>
  <defs
     id="defs14" />
  <sodipodi:namedview
     pagecolor="#ffffff"
     bordercolor="#666666"
     borderopacity="1"
     objecttolerance="10"
     gridtolerance="10"
     guidetolerance="10"
     inkscape:pageopacity="0"
     inkscape:pageshadow="2"
     inkscape:window-width="689"
     inkscape:window-height="480"
     id="namedview12"
     showgrid="false"
     inkscape:zoom="1.3027344"
     inkscape:cx="256"
     inkscape:cy="256"
     inkscape:window-x="44"
     inkscape:window-y="25"
     inkscape:window-maximized="0"
     inkscape:current-layer="svg10" />
  <title
     id="title2">Document Attach</title>
  <path
     style="color:#000000;font-style:normal;font-variant:normal;font-weight:normal;font-stretch:normal;font-size:medium;line-height:normal;font-family:sans-serif;font-variant-ligatures:normal;font-variant-position:normal;font-variant-caps:normal;font-variant-numeric:normal;font-variant-alternates:normal;font-variant-east-asian:normal;font-feature-settings:normal;font-variation-settings:normal;text-indent:0;text-align:start;text-decoration:none;text-decoration-line:none;text-decoration-style:solid;text-decoration-color:#000000;letter-spacing:normal;word-spacing:normal;text-transform:none;writing-mode:lr-tb;direction:ltr;text-orientation:mixed;dominant-baseline:auto;baseline-shift:baseline;text-anchor:start;white-space:normal;shape-padding:0;shape-margin:0;inline-size:0;clip-rule:nonzero;display:inline;overflow:visible;visibility:visible;isolation:auto;mix-blend-mode:normal;color-interpolation:sRGB;color-interpolation-filters:linearRGB;solid-color:#000000;solid-opacity:1;vector-effect:none;fill:currentColor;fill-opacity:1;fill-rule:nonzero;stroke:none;stroke-linecap:round;stroke-linejoin:round;stroke-miterlimit:4;stroke-dasharray:none;stroke-dashoffset:0;stroke-opacity:1;color-rendering:auto;image-rendering:auto;shape-rendering:auto;text-rendering:auto;enable-background:accumulate;stop-color:#000000;stop-opacity:1;opacity:1"
     d="M 208 48 A 16 16 0 0 0 192 64 A 16 16 0 0 0 208 80 L 274.75 80 C 278.99742 80.00116 283.05288 81.682471 286.05664 84.685547 L 427.31445 225.94336 C 430.31799 228.94758 431.99936 233.00382 432 237.25195 L 432 432 C 432 449.86263 417.86263 464 400 464 L 192 464 C 174.13737 464 160 449.86263 160 432 L 160 304 A 16 16 0 0 0 144 288 A 16 16 0 0 0 128 304 L 128 432 C 128 467.15671 156.84329 496 192 496 L 400 496 C 435.15671 496 464 467.15671 464 432 L 464 237.25 A 16.0016 16.0016 0 0 0 464 237.24805 C 463.99808 224.5282 458.93857 212.31367 449.94531 203.31836 A 16.0016 16.0016 0 0 0 449.94336 203.31641 L 308.68359 62.056641 A 16.0016 16.0016 0 0 0 308.68164 62.054688 C 299.68633 53.061426 287.4718 48.001922 274.75195 48 A 16.0016 16.0016 0 0 0 274.75 48 L 208 48 z "
     id="path4" />
  <path
     style="color:#000000;font-style:normal;font-variant:normal;font-weight:normal;font-stretch:normal;font-size:medium;line-height:normal;font-family:sans-serif;font-variant-ligatures:normal;font-variant-position:normal;font-variant-caps:normal;font-variant-numeric:normal;font-variant-alternates:normal;font-variant-east-asian:normal;font-feature-settings:normal;font-variation-settings:normal;text-indent:0;text-align:start;text-decoration:none;text-decoration-line:none;text-decoration-style:solid;text-decoration-color:#000000;letter-spacing:normal;word-spacing:normal;text-transform:none;writing-mode:lr-tb;direction:ltr;text-orientation:mixed;dominant-baseline:auto;baseline-shift:baseline;text-anchor:start;white-space:normal;shape-padding:0;shape-margin:0;inline-size:0;clip-rule:nonzero;display:inline;overflow:visible;visibility:visible;isolation:auto;mix-blend-mode:normal;color-interpolation:sRGB;color-interpolation-filters:linearRGB;solid-color:#000000;solid-opacity:1;vector-effect:none;fill:currentColor;fill-opacity:1;fill-rule:nonzero;stroke:none;stroke-linecap:round;stroke-linejoin:round;stroke-miterlimit:4;stroke-dasharray:none;stroke-dashoffset:0;stroke-opacity:1;color-rendering:auto;image-rendering:auto;shape-rendering:auto;text-rendering:auto;enable-background:accumulate;stop-color:#000000;stop-opacity:1;opacity:1"
     d="M 288 56 A 16 16 0 0 0 272 72 L 272 192 C 272 218.32015 293.67985 240 320 240 L 440 240 A 16 16 0 0 0 456 224 A 16 16 0 0 0 440 208 L 320 208 C 310.97393 208 304 201.02607 304 192 L 304 72 A 16 16 0 0 0 288 56 z "
     id="path6" />
  <path
     style="color:#000000;font-style:normal;font-variant:normal;font-weight:normal;font-stretch:normal;font-size:medium;line-height:normal;font-family:sans-serif;font-variant-ligatures:normal;font-variant-position:normal;font-variant-caps:normal;font-variant-numeric:normal;font-variant-alternates:normal;font-variant-east-asian:normal;font-feature-settings:normal;font-variation-settings:normal;text-indent:0;text-align:start;text-decoration:none;text-decoration-line:none;text-decoration-style:solid;text-decoration-color:#000000;letter-spacing:normal;word-spacing:normal;text-transform:none;writing-mode:lr-tb;direction:ltr;text-orientation:mixed;dominant-baseline:auto;baseline-shift:baseline;text-anchor:start;white-space:normal;shape-padding:0;shape-margin:0;inline-size:0;clip-rule:nonzero;display:inline;overflow:visible;visibility:visible;isolation:auto;mix-blend-mode:normal;color-interpolation:sRGB;color-interpolation-filters:linearRGB;solid-color:#000000;solid-opacity:1;vector-effect:none;fill:currentColor;fill-opacity:1;fill-rule:nonzero;stroke:none;stroke-linecap:round;stroke-linejoin:miter;stroke-miterlimit:10;stroke-dasharray:none;stroke-dashoffset:0;stroke-opacity:1;color-rendering:auto;image-rendering:auto;shape-rendering:auto;text-rendering:auto;enable-background:accumulate;stop-color:#000000;stop-opacity:1;opacity:1"
     d="M 160 16 C 139.9732 16 122.53245 24.900289 111.67773 38.585938 C 100.82302 52.271586 96 69.816038 96 88 L 96 232 C 96 255.44768 115.83916 271.92809 135.89062 271.98828 C 157.96626 272.22077 176.28902 253.87647 175.99805 231.78906 L 176 232 L 176 80 A 16 16 0 0 0 160 64 A 16 16 0 0 0 144 80 L 144 232.10547 L 144.00195 232.21094 C 144.06165 236.74256 140.74256 240.06165 136.21094 240.00195 L 136.10547 240 L 136 240 C 132.08889 240 128 238.3094 128 232 L 128 88 C 128 75.593962 131.46221 65.137555 136.75 58.470703 C 142.03779 51.803851 148.5968 48 160 48 C 171.50671 48 178.09029 51.758563 183.32422 58.257812 C 188.55815 64.757062 192 74.980766 192 87.380859 L 192 226.13086 C 192 244.18032 186.17358 259.75759 176.58789 270.58398 C 167.0022 281.41038 153.88055 288 136 288 C 118.11824 288 104.99719 281.41069 95.412109 270.58594 C 85.827025 259.76119 80 244.18612 80 226.13086 L 80 144 A 16 16 0 0 0 64 128 A 16 16 0 0 0 48 144 L 48 226.13086 C 48 251.0856 56.083209 274.44303 71.453125 291.80078 C 86.823041 309.15853 109.70176 320 136 320 C 162.29945 320 185.17756 309.15548 200.54688 291.79688 C 215.91619 274.43827 224 251.0814 224 226.13086 L 224 87.380859 C 224 69.200953 219.15662 51.73325 208.24805 38.1875 C 197.33948 24.64175 179.92329 16 160 16 z "
     id="path8" />
</svg>
