<?xml version="1.0" encoding="UTF-8" standalone="no"?>
<svg
   xmlns:dc="http://purl.org/dc/elements/1.1/"
   xmlns:cc="http://creativecommons.org/ns#"
   xmlns:rdf="http://www.w3.org/1999/02/22-rdf-syntax-ns#"
   xmlns:svg="http://www.w3.org/2000/svg"
   xmlns="http://www.w3.org/2000/svg"
   xmlns:sodipodi="http://sodipodi.sourceforge.net/DTD/sodipodi-0.dtd"
   xmlns:inkscape="http://www.inkscape.org/namespaces/inkscape"
   class="ionicon"
   viewBox="0 0 512 512"
   version="1.1"
   id="svg12"
   sodipodi:docname="documents-outline.svg"
   inkscape:version="1.0.2 (e86c8708, 2021-01-15)">
  <metadata
     id="metadata18">
    <rdf:RDF>
      <cc:Work
         rdf:about="">
        <dc:format>image/svg+xml</dc:format>
        <dc:type
           rdf:resource="http://purl.org/dc/dcmitype/StillImage" />
      </cc:Work>
    </rdf:RDF>
  </metadata>
  <defs
     id="defs16" />
  <sodipodi:namedview
     pagecolor="#ffffff"
     bordercolor="#666666"
     borderopacity="1"
     objecttolerance="10"
     gridtolerance="10"
     guidetolerance="10"
     inkscape:pageopacity="0"
     inkscape:pageshadow="2"
     inkscape:window-width="689"
     inkscape:window-height="480"
     id="namedview14"
     showgrid="false"
     inkscape:zoom="1.3027344"
     inkscape:cx="256"
     inkscape:cy="256"
     inkscape:window-x="44"
     inkscape:window-y="25"
     inkscape:window-maximized="0"
     inkscape:current-layer="svg12" />
  <title
     id="title2">Documents</title>
  <path
     style="color:#000000;font-style:normal;font-variant:normal;font-weight:normal;font-stretch:normal;font-size:medium;line-height:normal;font-family:sans-serif;font-variant-ligatures:normal;font-variant-position:normal;font-variant-caps:normal;font-variant-numeric:normal;font-variant-alternates:normal;font-variant-east-asian:normal;font-feature-settings:normal;font-variation-settings:normal;text-indent:0;text-align:start;text-decoration:none;text-decoration-line:none;text-decoration-style:solid;text-decoration-color:#000000;letter-spacing:normal;word-spacing:normal;text-transform:none;writing-mode:lr-tb;direction:ltr;text-orientation:mixed;dominant-baseline:auto;baseline-shift:baseline;text-anchor:start;white-space:normal;shape-padding:0;shape-margin:0;inline-size:0;clip-rule:nonzero;display:inline;overflow:visible;visibility:visible;isolation:auto;mix-blend-mode:normal;color-interpolation:sRGB;color-interpolation-filters:linearRGB;solid-color:#000000;solid-opacity:1;vector-effect:none;fill:currentColor;fill-opacity:1;fill-rule:nonzero;stroke:none;stroke-linecap:butt;stroke-linejoin:round;stroke-miterlimit:4;stroke-dasharray:none;stroke-dashoffset:0;stroke-opacity:1;color-rendering:auto;image-rendering:auto;shape-rendering:auto;text-rendering:auto;enable-background:accumulate;stop-color:#000000;stop-opacity:1;opacity:1"
     d="M 107.90625 112 C 75.084162 112.19225 48.19225 139.08416 48 171.90625 A 16.0016 16.0016 0 0 0 48 172 L 48 436 C 48 468.66214 74.276166 496 107 496 L 293.05078 496 C 325.74297 496 352 468.66214 352 436 L 352 264.13672 C 352.00478 253.31632 347.76446 242.90999 340.19922 235.17383 A 16.0016 16.0016 0 0 0 340.16797 235.14258 L 231.02148 124.14648 C 223.41593 116.39756 213.00266 112.01651 202.14453 112 A 16.0016 16.0016 0 0 0 202.11914 112 L 108 112 A 16.0016 16.0016 0 0 0 107.90625 112 z M 108.09375 144 L 202.0957 144 C 204.39407 144.0035 206.57818 144.92159 208.1875 146.5625 A 16.0016 16.0016 0 0 0 208.20117 146.57812 L 317.32031 257.54688 C 319.04295 259.30843 320.00109 261.6592 320 264.12305 A 16.0016 16.0016 0 0 0 320 264.13086 L 320 436 C 320 451.93786 308.15859 464 293.05078 464 L 107 464 C 91.823834 464 80 451.93786 80 436 L 80 172.09375 C 80.091731 156.4329 92.432895 144.09173 108.09375 144 z "
     id="path4" />
  <path
     style="color:#000000;font-style:normal;font-variant:normal;font-weight:normal;font-stretch:normal;font-size:medium;line-height:normal;font-family:sans-serif;font-variant-ligatures:normal;font-variant-position:normal;font-variant-caps:normal;font-variant-numeric:normal;font-variant-alternates:normal;font-variant-east-asian:normal;font-feature-settings:normal;font-variation-settings:normal;text-indent:0;text-align:start;text-decoration:none;text-decoration-line:none;text-decoration-style:solid;text-decoration-color:#000000;letter-spacing:normal;word-spacing:normal;text-transform:none;writing-mode:lr-tb;direction:ltr;text-orientation:mixed;dominant-baseline:auto;baseline-shift:baseline;text-anchor:start;white-space:normal;shape-padding:0;shape-margin:0;inline-size:0;clip-rule:nonzero;display:inline;overflow:visible;visibility:visible;isolation:auto;mix-blend-mode:normal;color-interpolation:sRGB;color-interpolation-filters:linearRGB;solid-color:#000000;solid-opacity:1;vector-effect:none;fill:currentColor;fill-opacity:1;fill-rule:nonzero;stroke:none;stroke-linecap:round;stroke-linejoin:round;stroke-miterlimit:4;stroke-dasharray:none;stroke-dashoffset:0;stroke-opacity:1;color-rendering:auto;image-rendering:auto;shape-rendering:auto;text-rendering:auto;enable-background:accumulate;stop-color:#000000;stop-opacity:1;opacity:1"
     d="M 200 112 A 16 16 0 0 0 184 128 L 184 236 A 16.0016 16.0016 0 0 0 184.00195 236.19141 C 184.28699 260.09018 203.90982 279.71301 227.80859 279.99805 A 16.0016 16.0016 0 0 0 228 280 L 336 280 A 16 16 0 0 0 352 264 A 16 16 0 0 0 336 248 L 228.18164 248 C 221.31446 247.91284 216.08716 242.68554 216 235.81836 L 216 128 A 16 16 0 0 0 200 112 z "
     id="path6" />
  <path
     style="color:#000000;font-style:normal;font-variant:normal;font-weight:normal;font-stretch:normal;font-size:medium;line-height:normal;font-family:sans-serif;font-variant-ligatures:normal;font-variant-position:normal;font-variant-caps:normal;font-variant-numeric:normal;font-variant-alternates:normal;font-variant-east-asian:normal;font-feature-settings:normal;font-variation-settings:normal;text-indent:0;text-align:start;text-decoration:none;text-decoration-line:none;text-decoration-style:solid;text-decoration-color:#000000;letter-spacing:normal;word-spacing:normal;text-transform:none;writing-mode:lr-tb;direction:ltr;text-orientation:mixed;dominant-baseline:auto;baseline-shift:baseline;text-anchor:start;white-space:normal;shape-padding:0;shape-margin:0;inline-size:0;clip-rule:nonzero;display:inline;overflow:visible;visibility:visible;isolation:auto;mix-blend-mode:normal;color-interpolation:sRGB;color-interpolation-filters:linearRGB;solid-color:#000000;solid-opacity:1;vector-effect:none;fill:currentColor;fill-opacity:1;fill-rule:nonzero;stroke:none;stroke-linecap:butt;stroke-linejoin:round;stroke-miterlimit:4;stroke-dasharray:none;stroke-dashoffset:0;stroke-opacity:1;color-rendering:auto;image-rendering:auto;shape-rendering:auto;text-rendering:auto;enable-background:accumulate;stop-color:#000000;stop-opacity:1;opacity:1"
     d="M 219.90625 16 C 187.08416 16.19225 160.19225 43.084162 160 75.90625 A 16.0016 16.0016 0 0 0 160 76 L 160 128 L 192 128 L 192 76.09375 C 192.09173 60.432895 204.4329 48.091731 220.09375 48 L 313.97852 48 C 316.3367 48.003278 318.57865 48.940058 320.23828 50.615234 C 320.23893 50.615891 320.23958 50.616531 320.24023 50.617188 L 429.35156 161.57812 A 16.0016 16.0016 0 0 0 429.37695 161.60352 C 431.06242 163.30983 432.00077 165.59574 432 167.99414 A 16.0016 16.0016 0 0 0 432 168 L 432 340 C 432 355.93786 420.15859 368 405.05078 368 L 344 368 L 344 400 L 405.05078 400 C 437.74297 400 464 372.66214 464 340 L 464 168.00586 L 464 168 C 464.00192 157.1969 459.74008 146.81075 452.15039 139.12305 L 343.01758 28.142578 A 16.0016 16.0016 0 0 0 342.98047 28.103516 C 335.33029 20.376904 324.89464 16.015113 314.02148 16 A 16.0016 16.0016 0 0 0 314 16 L 220 16 A 16.0016 16.0016 0 0 0 219.90625 16 z "
     id="path8" />
  <path
     style="color:#000000;font-style:normal;font-variant:normal;font-weight:normal;font-stretch:normal;font-size:medium;line-height:normal;font-family:sans-serif;font-variant-ligatures:normal;font-variant-position:normal;font-variant-caps:normal;font-variant-numeric:normal;font-variant-alternates:normal;font-variant-east-asian:normal;font-feature-settings:normal;font-variation-settings:normal;text-indent:0;text-align:start;text-decoration:none;text-decoration-line:none;text-decoration-style:solid;text-decoration-color:#000000;letter-spacing:normal;word-spacing:normal;text-transform:none;writing-mode:lr-tb;direction:ltr;text-orientation:mixed;dominant-baseline:auto;baseline-shift:baseline;text-anchor:start;white-space:normal;shape-padding:0;shape-margin:0;inline-size:0;clip-rule:nonzero;display:inline;overflow:visible;visibility:visible;isolation:auto;mix-blend-mode:normal;color-interpolation:sRGB;color-interpolation-filters:linearRGB;solid-color:#000000;solid-opacity:1;vector-effect:none;fill:currentColor;fill-opacity:1;fill-rule:nonzero;stroke:none;stroke-linecap:round;stroke-linejoin:round;stroke-miterlimit:4;stroke-dasharray:none;stroke-dashoffset:0;stroke-opacity:1;color-rendering:auto;image-rendering:auto;shape-rendering:auto;text-rendering:auto;enable-background:accumulate;stop-color:#000000;stop-opacity:1;opacity:1"
     d="M 312 16 A 16 16 0 0 0 296 32 L 296 140 A 16.0016 16.0016 0 0 0 296.00195 140.19141 C 296.28699 164.09018 315.90982 183.71301 339.80859 183.99805 A 16.0016 16.0016 0 0 0 340 184 L 448 184 A 16 16 0 0 0 464 168 A 16 16 0 0 0 448 152 L 340.18164 152 C 333.31446 151.91284 328.08716 146.68554 328 139.81836 L 328 32 A 16 16 0 0 0 312 16 z "
     id="path10" />
</svg>
