<?xml version="1.0" encoding="UTF-8"?>
<svg width="512px" height="512px" viewBox="0 0 512 512" version="1.1" xmlns="http://www.w3.org/2000/svg" xmlns:xlink="http://www.w3.org/1999/xlink">
    <!-- Generator: Sketch 62 (91390) - https://sketch.com -->
    <title>Artboard</title>
    <desc>Created with Sketch.</desc>
    <g id="Artboard" stroke="none" stroke-width="1" fill="none" fill-rule="evenodd">
        <g id="documents-outline" transform="translate(48.000000, 16.000000)" fill="#000000" fill-rule="nonzero">
            <path d="M266,0 C276.8,0 287.4,4.4 295,12.1 L404.2,123.1 C411.8,130.8 416,141.1 416,152 L416,324 C416,357.1 389.6,384 357,384 L303.9,384 L303.900283,420 C304,453.1 277.6,480 245,480 L59,480 C26.5,480 0,453.1 0,420 L0,156 C0.2,123.1 27.1,96.2 59.9,96 L112,96 L112,60 C112.2,27.1 139.1,0.2 171.9,0 L266,0 Z M136,127.9 L60,127.9 L60,128 C44.7,128.1 32.1,140.7 32,156.1 L32,420 C32,435.4 44.1,448 59,448 L245,448 C259.9,448 272,435.4 272,420 L272,264 L179.8,264 L179.8,264 C168.2,263.9 157.2,259.2 149,251 C140.8,242.8 136.2,231.8 136,220.2 L136,127.9 Z M248,32 L172,32 C156.7,32.1 144.1,44.7 144,60.1 L144,96 L154.1,96 C164.9,96 175.5,100.4 183,108.2 L292.1,219.2 C299.09507,226.379151 303.210093,235.676161 303.820854,245.609573 C303.938686,246.389469 304,247.187922 304,248 C304,248.600156 303.966512,249.192869 303.901311,249.776365 L303.9,352 L357,352 C371.9,352 384,339.4 384,324 L384,168 L291.8,168 L291.8,168 C280.2,167.9 269.2,163.2 261,155 C252.8,146.8 248.2,135.8 248,124.2 L248,32 Z M168,138.436 L168,219.9 C168.1,226.6 173.4,231.9 180.1,232 L259.963,232 L168,138.436 Z M371.956,136 L280,42.528 L280,123.9 C280.1,130.6 285.4,135.9 292.1,136 L371.956,136 Z" id="Combined-Shape"></path>
        </g>
    </g>
</svg>