<?xml version="1.0" encoding="UTF-8"?>
<svg width="512px" height="512px" viewBox="0 0 512 512" version="1.1" xmlns="http://www.w3.org/2000/svg" xmlns:xlink="http://www.w3.org/1999/xlink">
    <!-- Generator: Sketch 62 (91390) - https://sketch.com -->
    <title>Artboard</title>
    <desc>Created with Sketch.</desc>
    <g id="Artboard" stroke="none" stroke-width="1" fill="none" fill-rule="evenodd">
        <g id="document-outline" transform="translate(80.000000, 32.000000)" fill="#000000" fill-rule="nonzero">
            <path d="M162.8,0 C175.396825,0 187.315697,4.8425296 196.269095,13.6697693 L338,155.4 C346.955556,164.355556 351.940237,176.119778 352.096224,188.691089 L352.1,189.3 L352.1,189.3 L352.1,384 C352,419.3 323.3,448 288,448 L64,448 C28.7,448 0,419.3 0,384 L0,64 C0,28.7 28.7,0 64,0 L162.8,0 Z M160,32 L64,32 C46.4,32 32,46.4 32,64 L32,384 C32,401.6 46.4,416 64,416 L288,416 C305.6,416 320,401.6 320,384 L320,192 L208,192 C181.5,192 160,170.5 160,144 L160,32 Z M297.401,160 L192,54.6 L192,144 C192,152.8 199.2,160 208,160 L297.401,160 Z" id="Combined-Shape"></path>
        </g>
    </g>
</svg>