<?xml version="1.0" encoding="UTF-8" standalone="no"?>
<svg
   xmlns:dc="http://purl.org/dc/elements/1.1/"
   xmlns:cc="http://creativecommons.org/ns#"
   xmlns:rdf="http://www.w3.org/1999/02/22-rdf-syntax-ns#"
   xmlns:svg="http://www.w3.org/2000/svg"
   xmlns="http://www.w3.org/2000/svg"
   xmlns:sodipodi="http://sodipodi.sourceforge.net/DTD/sodipodi-0.dtd"
   xmlns:inkscape="http://www.inkscape.org/namespaces/inkscape"
   class="ionicon"
   viewBox="0 0 512 512"
   version="1.1"
   id="svg8"
   sodipodi:docname="duplicate-outline.svg"
   inkscape:version="1.0.2 (e86c8708, 2021-01-15)">
  <metadata
     id="metadata14">
    <rdf:RDF>
      <cc:Work
         rdf:about="">
        <dc:format>image/svg+xml</dc:format>
        <dc:type
           rdf:resource="http://purl.org/dc/dcmitype/StillImage" />
      </cc:Work>
    </rdf:RDF>
  </metadata>
  <defs
     id="defs12" />
  <sodipodi:namedview
     pagecolor="#ffffff"
     bordercolor="#666666"
     borderopacity="1"
     objecttolerance="10"
     gridtolerance="10"
     guidetolerance="10"
     inkscape:pageopacity="0"
     inkscape:pageshadow="2"
     inkscape:window-width="689"
     inkscape:window-height="480"
     id="namedview10"
     showgrid="false"
     inkscape:zoom="1.3027344"
     inkscape:cx="256"
     inkscape:cy="256"
     inkscape:window-x="44"
     inkscape:window-y="25"
     inkscape:window-maximized="0"
     inkscape:current-layer="svg8" />
  <title
     id="title2">Duplicate</title>
  <path
     style="color:#000000;font-style:normal;font-variant:normal;font-weight:normal;font-stretch:normal;font-size:medium;line-height:normal;font-family:sans-serif;font-variant-ligatures:normal;font-variant-position:normal;font-variant-caps:normal;font-variant-numeric:normal;font-variant-alternates:normal;font-variant-east-asian:normal;font-feature-settings:normal;font-variation-settings:normal;text-indent:0;text-align:start;text-decoration:none;text-decoration-line:none;text-decoration-style:solid;text-decoration-color:#000000;letter-spacing:normal;word-spacing:normal;text-transform:none;writing-mode:lr-tb;direction:ltr;text-orientation:mixed;dominant-baseline:auto;baseline-shift:baseline;text-anchor:start;white-space:normal;shape-padding:0;shape-margin:0;inline-size:0;clip-rule:nonzero;display:inline;overflow:visible;visibility:visible;isolation:auto;mix-blend-mode:normal;color-interpolation:sRGB;color-interpolation-filters:linearRGB;solid-color:#000000;solid-opacity:1;vector-effect:none;fill:currentColor;fill-opacity:1;fill-rule:nonzero;stroke:none;stroke-linecap:butt;stroke-linejoin:round;stroke-miterlimit:4;stroke-dasharray:none;stroke-dashoffset:0;stroke-opacity:1;color-rendering:auto;image-rendering:auto;shape-rendering:auto;text-rendering:auto;enable-background:accumulate;stop-color:#000000;stop-opacity:1;opacity:1"
     d="M 185 112 C 144.83476 112 112 144.83476 112 185 L 112 407 C 112 447.16524 144.83476 480 185 480 L 407 480 C 447.16524 480 480 447.16524 480 407 L 480 185 C 480 144.83476 447.16524 112 407 112 L 185 112 z M 185 144 L 407 144 C 429.99076 144 448 162.00924 448 185 L 448 407 C 448 429.99076 429.99076 448 407 448 L 185 448 C 162.00924 448 144 429.99076 144 407 L 144 185 C 144 162.00924 162.00924 144 185 144 z "
     id="rect4" />
  <path
     style="color:#000000;font-style:normal;font-variant:normal;font-weight:normal;font-stretch:normal;font-size:medium;line-height:normal;font-family:sans-serif;font-variant-ligatures:normal;font-variant-position:normal;font-variant-caps:normal;font-variant-numeric:normal;font-variant-alternates:normal;font-variant-east-asian:normal;font-feature-settings:normal;font-variation-settings:normal;text-indent:0;text-align:start;text-decoration:none;text-decoration-line:none;text-decoration-style:solid;text-decoration-color:#000000;letter-spacing:normal;word-spacing:normal;text-transform:none;writing-mode:lr-tb;direction:ltr;text-orientation:mixed;dominant-baseline:auto;baseline-shift:baseline;text-anchor:start;white-space:normal;shape-padding:0;shape-margin:0;inline-size:0;clip-rule:nonzero;display:inline;overflow:visible;visibility:visible;isolation:auto;mix-blend-mode:normal;color-interpolation:sRGB;color-interpolation-filters:linearRGB;solid-color:#000000;solid-opacity:1;vector-effect:none;fill:currentColor;fill-opacity:1;fill-rule:nonzero;stroke:none;stroke-linecap:round;stroke-linejoin:round;stroke-miterlimit:4;stroke-dasharray:none;stroke-dashoffset:0;stroke-opacity:1;color-rendering:auto;image-rendering:auto;shape-rendering:auto;text-rendering:auto;enable-background:accumulate;stop-color:#000000;stop-opacity:1;opacity:1"
     d="M 111.95312 32 C 68.036648 32.1298 32.1298 68.036648 32 111.95312 A 16.0016 16.0016 0 0 0 32 112 L 32 328 A 16.0016 16.0016 0 0 0 32 328.04492 C 32.112394 367.55121 64.448791 399.88761 103.95508 400 A 16.0016 16.0016 0 0 0 104 400 L 128 400 A 16 16 0 0 0 144 384 A 16 16 0 0 0 128 368 L 104.04492 368 C 81.76827 367.93662 64.063376 350.23173 64 327.95508 L 64 112.04688 C 64.078883 85.357524 85.357524 64.078883 112.04688 64 L 327.95508 64 C 350.22032 64.063344 367.91468 81.751166 367.99609 104.01172 L 367.50391 127.66602 A 16 16 0 0 0 383.16602 143.99609 A 16 16 0 0 0 399.49609 128.33398 L 399.99609 104.33398 A 16.0016 16.0016 0 0 0 400 103.95508 C 399.88761 64.448791 367.55121 32.112394 328.04492 32 A 16.0016 16.0016 0 0 0 328 32 L 112 32 A 16.0016 16.0016 0 0 0 111.95312 32 z M 296 200 A 16 16 0 0 0 280 216 L 280 280 L 216 280 A 16 16 0 0 0 200 296 A 16 16 0 0 0 216 312 L 280 312 L 280 376 A 16 16 0 0 0 296 392 A 16 16 0 0 0 312 376 L 312 312 L 376 312 A 16 16 0 0 0 392 296 A 16 16 0 0 0 376 280 L 312 280 L 312 216 A 16 16 0 0 0 296 200 z "
     id="path6" />
</svg>
