<?xml version="1.0" encoding="utf-8"?>
<!-- Generator: Adobe Illustrator 24.0.0, SVG Export Plug-In . SVG Version: 6.00 Build 0)  -->
<svg version="1.1" id="Layer_1" xmlns="http://www.w3.org/2000/svg" xmlns:xlink="http://www.w3.org/1999/xlink" x="0px" y="0px"
	 viewBox="0 0 512 512" style="enable-background:new 0 0 512 512;" xml:space="preserve">
<title>ionicons-v5-k</title>
<g>
	<path d="M176,496c-25.7,0-49.8-10.3-68-28.9c-18-18.5-28-42.8-28-68.5V192c0-97,79-176,176-176s176,79,176,176
		c0,31.2-8.5,60.9-25.2,88.3c-14.8,24.2-36.3,46.2-62,63.7c-26.9,18.3-47.8,54.3-63.1,80.7c-5.9,10.1-11,18.9-15.4,24.9
		C243.2,480.4,212.9,496,176,496z M256,48c-79.4,0-144,64.6-144,144v206.6c0,17.3,6.7,33.7,18.9,46.1C143,457.1,159,464,176,464
		c35.4,0,53.7-19.1,64.5-33.6c3.4-4.6,8.1-12.6,13.4-21.8c15.9-27.4,40-68.7,72.8-91.1c0,0,0,0,0,0C354.1,298.9,400,257.9,400,192
		C400,112.6,335.4,48,256,48z"/>
</g>
<g>
	<path d="M160,320c-8.8,0-16-7.2-16-16V184c0-57.3,50.2-104,112-104s112,46.7,112,104c0,8.8-7.2,16-16,16s-16-7.2-16-16
		c0-39.7-35.9-72-80-72s-80,32.3-80,72v120C176,312.8,168.8,320,160,320z"/>
</g>
<g>
	<path d="M224,352c-1.3,0-2.7-0.2-4.1-0.5c-8.5-2.2-13.7-11-11.4-19.5c2.6-10.1,11-24.3,25.5-43.4c8.7-11.5,16.9-21.1,19.1-23.7
		c3.2-4.9,3.6-10.8,0.9-16.1c-2.8-5.4-8.1-8.7-14.2-8.7c-0.3,0-0.6,0-0.9,0c-19-1-54.8,1.4-69.6,12c-7.2,5.2-17.2,3.5-22.3-3.6
		c-5.2-7.2-3.5-17.2,3.6-22.3c28.2-20.3,81.7-18.4,89.6-18c17.9,0.2,34,10.1,42.2,26.1c8.3,16.1,6.8,35.2-3.7,49.9
		c-0.3,0.4-0.6,0.8-0.9,1.2c-16.6,19.1-36,45.5-38.5,55C237.5,347.3,231.1,352,224,352z"/>
</g>
</svg>
