<?xml version="1.0" encoding="UTF-8" standalone="no"?>
<svg
   xmlns:dc="http://purl.org/dc/elements/1.1/"
   xmlns:cc="http://creativecommons.org/ns#"
   xmlns:rdf="http://www.w3.org/1999/02/22-rdf-syntax-ns#"
   xmlns:svg="http://www.w3.org/2000/svg"
   xmlns="http://www.w3.org/2000/svg"
   xmlns:sodipodi="http://sodipodi.sourceforge.net/DTD/sodipodi-0.dtd"
   xmlns:inkscape="http://www.inkscape.org/namespaces/inkscape"
   class="ionicon"
   viewBox="0 0 512 512"
   version="1.1"
   id="svg6"
   sodipodi:docname="ear.svg"
   inkscape:version="1.0.2 (e86c8708, 2021-01-15)">
  <metadata
     id="metadata12">
    <rdf:RDF>
      <cc:Work
         rdf:about="">
        <dc:format>image/svg+xml</dc:format>
        <dc:type
           rdf:resource="http://purl.org/dc/dcmitype/StillImage" />
      </cc:Work>
    </rdf:RDF>
  </metadata>
  <defs
     id="defs10" />
  <sodipodi:namedview
     pagecolor="#ffffff"
     bordercolor="#666666"
     borderopacity="1"
     objecttolerance="10"
     gridtolerance="10"
     guidetolerance="10"
     inkscape:pageopacity="0"
     inkscape:pageshadow="2"
     inkscape:window-width="689"
     inkscape:window-height="480"
     id="namedview8"
     showgrid="false"
     inkscape:zoom="1.3027344"
     inkscape:cx="256"
     inkscape:cy="256"
     inkscape:window-x="44"
     inkscape:window-y="25"
     inkscape:window-maximized="0"
     inkscape:current-layer="svg6" />
  <title
     id="title2">Ear</title>
  <path
     style="color:#000000;font-style:normal;font-variant:normal;font-weight:normal;font-stretch:normal;font-size:medium;line-height:normal;font-family:sans-serif;font-variant-ligatures:normal;font-variant-position:normal;font-variant-caps:normal;font-variant-numeric:normal;font-variant-alternates:normal;font-variant-east-asian:normal;font-feature-settings:normal;font-variation-settings:normal;text-indent:0;text-align:start;text-decoration:none;text-decoration-line:none;text-decoration-style:solid;text-decoration-color:#000000;letter-spacing:normal;word-spacing:normal;text-transform:none;writing-mode:lr-tb;direction:ltr;text-orientation:mixed;dominant-baseline:auto;baseline-shift:baseline;text-anchor:start;white-space:normal;shape-padding:0;shape-margin:0;inline-size:0;clip-rule:nonzero;display:inline;overflow:visible;visibility:visible;isolation:auto;mix-blend-mode:normal;color-interpolation:sRGB;color-interpolation-filters:linearRGB;solid-color:#000000;solid-opacity:1;vector-effect:none;fill:#000000;fill-opacity:1;fill-rule:nonzero;stroke-width:1;stroke-linecap:butt;stroke-linejoin:miter;stroke-miterlimit:4;stroke-dasharray:none;stroke-dashoffset:0;stroke-opacity:1;color-rendering:auto;image-rendering:auto;shape-rendering:auto;text-rendering:auto;enable-background:accumulate;stop-color:#000000;stop-opacity:1;stroke:none;opacity:1"
     d="M 256,16 C 159,16 80,95 80,192 v 206.57 c -0.01886,25.62034 10.038155,50.22052 28,68.49 17.79922,18.47625 42.34491,28.92261 68,28.94 36.86,0 67.18,-15.62 90.12,-46.42 4.48,-6 9.55,-14.74 15.42,-24.85 15.32,-26.37 36.29,-62.47 63.17,-80.74 25.77,-17.51 47.23,-39.54 62,-63.72 C 423.51,252.94 432,223.24 432,192 432,95 353.05,16 256,16 Z m 96,184 c -8.83656,0 -16,-7.16344 -16,-16 0,-39.7 -35.89,-72 -80,-72 -44.11,0 -80,32.3 -80,72 v 30.42 c 27.19,-7.84 58.4,-6.72 64.28,-6.42 17.8978,0.1705 34.21408,10.28497 42.3277,26.23895 8.11361,15.95397 6.67668,35.09708 -3.7277,49.66105 -0.3,0.41 -0.61,0.81 -0.95,1.2 -16.55,19 -36,45.48 -38.46,55 -2.3921,8.36974 -11.03653,13.29143 -19.45493,11.07663 C 211.59668,348.96184 206.4935,340.4233 208.53,331.96 c 5.51,-20.94 36.93,-58.2 44.66,-67.15 7.02049,-10.64312 -0.61997,-24.82112 -13.37,-24.81 h -0.88 c -16.6,-0.89 -45.89,0.8 -62.94,8.31 V 304 c 0,8.83656 -7.16344,15.99999 -16,15.99999 -8.83656,0 -16,-7.16343 -16,-15.99999 V 184 c 0,-57.35 50.24,-104 112,-104 61.76,0 112,46.65 112,104 0,8.83656 -7.16344,16 -16,16 z"
     id="path4" />
</svg>
