<?xml version="1.0" encoding="UTF-8" standalone="no"?>
<svg
   xmlns:dc="http://purl.org/dc/elements/1.1/"
   xmlns:cc="http://creativecommons.org/ns#"
   xmlns:rdf="http://www.w3.org/1999/02/22-rdf-syntax-ns#"
   xmlns:svg="http://www.w3.org/2000/svg"
   xmlns="http://www.w3.org/2000/svg"
   xmlns:sodipodi="http://sodipodi.sourceforge.net/DTD/sodipodi-0.dtd"
   xmlns:inkscape="http://www.inkscape.org/namespaces/inkscape"
   class="ionicon"
   viewBox="0 0 512 512"
   version="1.1"
   id="svg6"
   sodipodi:docname="earth.svg"
   inkscape:version="1.0.2 (e86c8708, 2021-01-15)">
  <metadata
     id="metadata12">
    <rdf:RDF>
      <cc:Work
         rdf:about="">
        <dc:format>image/svg+xml</dc:format>
        <dc:type
           rdf:resource="http://purl.org/dc/dcmitype/StillImage" />
      </cc:Work>
    </rdf:RDF>
  </metadata>
  <defs
     id="defs10" />
  <sodipodi:namedview
     pagecolor="#ffffff"
     bordercolor="#666666"
     borderopacity="1"
     objecttolerance="10"
     gridtolerance="10"
     guidetolerance="10"
     inkscape:pageopacity="0"
     inkscape:pageshadow="2"
     inkscape:window-width="689"
     inkscape:window-height="480"
     id="namedview8"
     showgrid="false"
     inkscape:zoom="1.3027344"
     inkscape:cx="256"
     inkscape:cy="256"
     inkscape:window-x="44"
     inkscape:window-y="25"
     inkscape:window-maximized="0"
     inkscape:current-layer="svg6" />
  <title
     id="title2">Earth</title>
  <path
     style="color:#000000;font-style:normal;font-variant:normal;font-weight:normal;font-stretch:normal;font-size:medium;line-height:normal;font-family:sans-serif;font-variant-ligatures:normal;font-variant-position:normal;font-variant-caps:normal;font-variant-numeric:normal;font-variant-alternates:normal;font-variant-east-asian:normal;font-feature-settings:normal;font-variation-settings:normal;text-indent:0;text-align:start;text-decoration:none;text-decoration-line:none;text-decoration-style:solid;text-decoration-color:#000000;letter-spacing:normal;word-spacing:normal;text-transform:none;writing-mode:lr-tb;direction:ltr;text-orientation:mixed;dominant-baseline:auto;baseline-shift:baseline;text-anchor:start;white-space:normal;shape-padding:0;shape-margin:0;inline-size:0;clip-rule:nonzero;display:inline;overflow:visible;visibility:visible;isolation:auto;mix-blend-mode:normal;color-interpolation:sRGB;color-interpolation-filters:linearRGB;solid-color:#000000;solid-opacity:1;vector-effect:none;fill:#000000;fill-opacity:1;fill-rule:nonzero;stroke-width:1;stroke-linecap:butt;stroke-linejoin:miter;stroke-miterlimit:4;stroke-dasharray:none;stroke-dashoffset:0;stroke-opacity:1;color-rendering:auto;image-rendering:auto;shape-rendering:auto;text-rendering:auto;enable-background:accumulate;stop-color:#000000;stop-opacity:1;stroke:none;opacity:1"
     d="M 414.39,97.74 C 327.04103,9.5268154 184.61055,9.1763935 96.828473,96.958473 9.0463935,184.74055 9.3968154,327.17103 97.61,414.52 c 87.34897,88.21318 229.77945,88.56361 317.56153,0.78153 C 502.95361,327.51945 502.60318,185.08897 414.39,97.74 Z M 64,256.13 c -0.0072,-16.99289 2.245912,-33.91124 6.7,-50.31 7.34,15.8 18,29.45 25.25,45.66 9.37,20.84 34.53,15.06 45.64,33.32 9.86,16.21 -0.67,36.71 6.71,53.67 5.36,12.31 18,15 26.72,24 8.91,9.08 8.72,21.52 10.08,33.36 1.53464,13.91114 4.02384,27.70032 7.45,41.27 0,0.1 0,0.21 0.08,0.31 C 117.8,411.13 64,339.8 64,256.13 Z m 192,192 c -10.72257,-0.003 -21.42623,-0.89985 -32,-2.68 0.11,-2.71 0.16,-5.24 0.43,-7 2.43,-15.9 10.39,-31.45 21.13,-43.35 10.61,-11.74 25.15,-19.68 34.11,-33 8.78,-13 11.41,-30.5 7.79,-45.69 -5.33,-22.44 -35.82,-29.93 -52.26,-42.1 -9.45,-7 -17.86,-17.82 -30.27,-18.7 -5.72,-0.4 -10.51,0.83 -16.18,-0.63 -5.2,-1.35 -9.28,-4.15 -14.82,-3.42 -10.35,1.36 -16.88,12.42 -28,10.92 -10.55,-1.41 -21.42,-13.76 -23.82,-23.81 -3.08,-12.92 7.14,-17.11 18.09,-18.26 4.57,-0.48 9.7,-1 14.09,0.68 5.78,2.14 8.51,7.8 13.7,10.66 9.73,5.34 11.7,-3.19 10.21,-11.83 -2.23,-12.94 -4.83,-18.21 6.71,-27.12 8,-6.14 14.84,-10.58 13.56,-21.61 -0.76,-6.48 -4.31,-9.41 -1,-15.86 2.51,-4.91 9.4,-9.34 13.89,-12.27 11.59,-7.56 49.65,-7 34.1,-28.16 -4.57,-6.21 -13,-17.31 -21,-18.83 -10,-1.89 -14.44,9.27 -21.41,14.19 -7.2,5.09 -21.22,10.87 -28.43,3 -9.7,-10.59 6.43,-14.06 10,-21.46 1.65,-3.45 0,-8.24 -2.78,-12.75 3.60667,-1.52 7.27333,-2.93 11,-4.23 2.33552,1.725001 5.10611,2.763972 8,3 6.69,0.44 13,-3.18 18.84,1.38 6.48,5 11.15,11.32 19.75,12.88 8.32,1.51 17.13,-3.34 19.19,-11.86 1.25,-5.18 0,-10.65 -1.2,-16 37.40018,0.215198 73.91266,11.415835 105,32.21 -2,-0.76 -4.39,-0.67 -7.34,0.7 -6.07,2.82 -14.67,10 -15.38,17.12 -0.81,8.08 11.11,9.22 16.77,9.22 8.5,0 17.11,-3.8 14.37,-13.62 -1.19,-4.26 -2.81,-8.69 -5.42,-11.37 6.27409,4.35358 12.28462,9.07519 18,14.14 -0.09,0.09 -0.18,0.17 -0.27,0.27 -5.76,6 -12.45,10.75 -16.39,18.05 -2.78,5.14 -5.91,7.58 -11.54,8.91 -3.1,0.73 -6.64,1 -9.24,3.08 -7.24,5.7 -3.12,19.4 3.74,23.51 8.67,5.19 21.53,2.75 28.07,-4.66 5.11,-5.8 8.12,-15.87 17.31,-15.86 4.04594,-0.008 7.93267,1.57574 10.82,4.41 3.8,3.94 3.05,7.62 3.86,12.54 1.43,8.74 9.14,4 13.83,-0.41 3.41863,6.0842 6.5032,12.35015 9.24,18.77 -5.16,7.43 -9.26,15.53 -21.67,6.87 -7.43,-5.19 -12,-12.72 -21.33,-15.06 -8.15,-2 -16.5,0.08 -24.55,1.47 -9.15,1.59 -20,2.29 -26.94,9.22 -6.71,6.68 -10.26,15.62 -17.4,22.33 -13.81,13 -19.64,27.19 -10.7,45.57 8.6,17.67 26.59,27.26 46,26 19.07,-1.27 38.88,-12.33 38.33,15.38 -0.2,9.81 1.85,16.6 4.86,25.71 2.79,8.4 2.6,16.54 3.24,25.21 0.60849,10.15253 2.19585,20.22259 4.74,30.07 -36.32272,46.76634 -92.21488,74.1274 -151.43,74.13 z"
     id="path4" />
</svg>
