<?xml version="1.0" encoding="UTF-8"?>
<svg width="512px" height="512px" viewBox="0 0 512 512" version="1.1" xmlns="http://www.w3.org/2000/svg" xmlns:xlink="http://www.w3.org/1999/xlink">
    <!-- Generator: Sketch 62 (91390) - https://sketch.com -->
    <title>Artboard</title>
    <desc>Created with Sketch.</desc>
    <g id="Artboard" stroke="none" stroke-width="1" fill="none" fill-rule="evenodd">
        <g id="earth-outline" transform="translate(32.000000, 32.000000)" fill="#000000" fill-rule="nonzero">
            <path d="M224,0 C283.8,0 340.1,23.3 382.4,65.6 C424.7,107.9 448,164.2 448,224 C448,283.8 424.7,340.1 382.4,382.4 C340.1,424.7 283.8,448 224,448 C164.2,448 107.9,424.7 65.6,382.4 C23.3,340.1 0,283.8 0,224 C0,164.2 23.3,107.9 65.6,65.6 C107.9,23.3 164.2,0 224,0 Z M225.396924,32.0049965 L225.497269,32.4801328 C226.649778,37.7489877 227.844444,43.06 226.6,48.1 C224.5,56.7 215.7,61.5 207.4,60 C198.7,58.4 194.1,52.1 187.6,47.1 C181.8,42.5 175.5,46.1 168.8,45.7 C165.708533,45.482291 163.109996,44.3166381 160.773249,42.6900883 C157.074815,43.9798133 153.42823,45.3824397 149.836895,46.891218 C152.715862,51.4473466 154.364289,56.2789613 152.7,59.7 C149.1,67.1 133,70.6 142.7,81.2 C149.9,89.1 163.9,83.3 171.1,78.2 C178.1,73.3 182.5,62.1 192.5,64 C200.5,65.5 208.9,76.6 213.5,82.8 C229.1,104 191,103.4 179.4,111 C174.9,114 168,118.4 165.5,123.3 C162.2,129.8 165.7,132.7 166.5,139.2 C167.7,150.2 160.9,154.7 152.9,160.8 C141.4,169.7 144,175 146.2,187.9 C147.7,196.5 145.7,205 136,199.7 C130.8,196.8 128.1,191.1 122.3,189 C117.9,187.3 112.8,187.8 108.2,188.3 C97.2,189.5 87,193.7 90.1,206.6 C92.5,216.6 103.3,229 113.9,230.4 C125,231.9 131.5,220.9 141.9,219.5 C147.4,218.8 151.5,221.6 156.7,222.9 C162.4,224.3 167.2,223.1 172.9,223.5 C185.3,224.4 193.8,235.2 203.2,242.2 C219.7,254.4 250.2,261.9 255.5,284.3 C259.1,299.5 256.4,317 247.6,330.1 C238.6,343.4 224.1,351.4 213.5,363.1 C202.8,375 194.8,390.6 192.4,406.5 C192.137445,408.239425 192.101083,410.689743 192.004579,413.331308 C202.410626,415.087928 213.100441,416 224,416 C285.50976,416 340.339753,386.953133 375.498524,341.850853 C372.788351,331.962679 371.420092,321.521247 370.7,311.8 C370.1,303.1 370.3,295 367.5,286.6 C364.5,277.5 362.4,270.7 362.6,260.9 C363.2,233.2 343.4,244.2 324.3,245.5 C304.9,246.8 286.9,237.2 278.3,219.5 C269.4,201.1 275.2,186.9 289,173.9 C296.1,167.2 299.7,158.3 306.4,151.6 C313.3,144.7 324.2,144 333.3,142.4 C341.3,141 349.7,138.9 357.8,140.9 C367.1,143.2 371.7,150.7 379.1,155.9 C391.495,164.514525 395.593655,156.421132 400.750929,148.996728 C398.002604,142.535708 394.908275,136.256715 391.492986,130.181463 C386.774751,134.601539 379.1153,139.227683 377.7,130.5 C376.8,125.6 377.6,121.9 373.8,118 C370.9,115.2 367,113.6 363,113.6 C353.8,113.6 350.8,123.7 345.7,129.5 C339.1,137 326.3,139.4 317.6,134.2 C310.8,130.1 306.6,116.4 314,110.6 C316.6,108.5 320.1,108.2 323.2,107.5 C328.8,106.2 331.9,103.7 334.7,98.6 C338.6,91.4 345.3,86.6 351.1,80.6 C351.171514,80.5254211 351.243247,80.4515206 351.315196,80.3782999 C345.584602,75.2908796 339.54669,70.5413374 333.2344,66.1603884 C335.932015,68.8366104 337.588113,73.3793579 338.8,77.7 C341.5,87.5 332.9,91.3 324.4,91.3 C318.7,91.3 306.8,90.1 307.6,82.1 C308.3,75 316.9,67.8 323,65 C326.055322,63.5678179 328.533284,63.5030662 330.566059,64.344753 C300.423737,44.1607583 264.268324,32.2831383 225.396924,32.0049965 Z M38.7208116,173.566983 L38.3409152,174.960205 C34.20416,190.61888 32,207.056 32,224 C32,307.707447 85.7946924,379.04399 160.641117,405.266667 L160.6,405.1 C157.2,391.5 154.7,377.7 153.2,363.8 C151.8,351.9 152,339.5 143.1,330.4 C134.4,321.4 121.8,318.7 116.4,306.4 C109,289.4 119.6,268.9 109.7,252.7 C98.6,234.5 73.5,240.2 64.1,219.4 C56.7479666,203.126398 46.0522047,189.445892 38.7208116,173.566983 Z M166.3,255.8 C162.8,255.1 151.4,253.1 148.6,253.7 C143.3,254.9 146.4,251.3 144.8,257.2 C143.5,262.3 146,271.6 145.9,277.2 C145.8,281 144,289.4 146,292.9 C147.8,296.1 155.6,299.2 158.7,301.6 C168.8,309.2 176.4,319.6 180.4,331.6 C181.2,334 181.9,344.4 184,345.6 C186.9,347.3 191.9,339.3 194.2,337 C202.7,328.5 216.1,321.3 222.1,310.6 C228.4,299.4 225.5,292.5 215.7,286.9 C203,280 190.5,272.9 179.1,263.8 C174.8,260.3 171.8,256.9 166.3,255.8 Z M349.1,172.8 C345.1,171.5 331.2,174.3 328.1,176.7 C325,179.1 322.8,184.8 320.2,187.9 C317.2,191.4 312.5,194.5 309.9,198.2 C296.5,217.1 329.9,211.8 338.2,210.5 C354.7,207.9 371.9,210.9 383.7,223.7 C395.9,236.9 393,249.5 394.3,265.3 C395,273.8 400.1,281.8 401.4,290.4 C401.675428,292.297394 401.847836,294.194787 401.965947,296.089315 C411.013859,273.822426 416,249.484533 416,224 C416,210.881757 414.678818,198.067339 412.162478,185.682771 C402.802568,190.883831 390.270607,192.934395 382.5,191.8 C374.6,190.4 367.1,187.2 360.7,182.4 C357.3,179.8 353.1,174.1 349.1,172.8 Z M107.966236,71.1056263 L105.956194,72.6520856 C85.3811205,88.7329993 68.1579513,108.912092 55.5238054,131.952246 C62.1169866,143.660924 64.3398814,167.641111 80.1,163.3 C90.1,160.5 98.9,157.9 109.3,156.1 C114.8,155.2 113.5,156.2 117,152.8 C119.9,150 121.9,145.7 124.7,142.7 C131.3,135.7 132.8,130.6 132.4,120.6 C132,110.2 122.5,107.7 116.6,100.1 C110.19941,91.7792336 107.14311,81.4518935 107.966236,71.1056263 Z" id="Combined-Shape"></path>
        </g>
    </g>
</svg>