<?xml version="1.0" encoding="UTF-8" standalone="no"?>
<svg
   xmlns:dc="http://purl.org/dc/elements/1.1/"
   xmlns:cc="http://creativecommons.org/ns#"
   xmlns:rdf="http://www.w3.org/1999/02/22-rdf-syntax-ns#"
   xmlns:svg="http://www.w3.org/2000/svg"
   xmlns="http://www.w3.org/2000/svg"
   xmlns:sodipodi="http://sodipodi.sourceforge.net/DTD/sodipodi-0.dtd"
   xmlns:inkscape="http://www.inkscape.org/namespaces/inkscape"
   class="ionicon"
   viewBox="0 0 512 512"
   version="1.1"
   id="svg8"
   sodipodi:docname="earth-outline.svg"
   inkscape:version="1.0.2 (e86c8708, 2021-01-15)">
  <metadata
     id="metadata14">
    <rdf:RDF>
      <cc:Work
         rdf:about="">
        <dc:format>image/svg+xml</dc:format>
        <dc:type
           rdf:resource="http://purl.org/dc/dcmitype/StillImage" />
      </cc:Work>
    </rdf:RDF>
  </metadata>
  <defs
     id="defs12" />
  <sodipodi:namedview
     pagecolor="#ffffff"
     bordercolor="#666666"
     borderopacity="1"
     objecttolerance="10"
     gridtolerance="10"
     guidetolerance="10"
     inkscape:pageopacity="0"
     inkscape:pageshadow="2"
     inkscape:window-width="689"
     inkscape:window-height="480"
     id="namedview10"
     showgrid="false"
     inkscape:zoom="1.3027344"
     inkscape:cx="256"
     inkscape:cy="256"
     inkscape:window-x="44"
     inkscape:window-y="25"
     inkscape:window-maximized="0"
     inkscape:current-layer="svg8" />
  <title
     id="title2">Earth</title>
  <path
     style="color:#000000;font-style:normal;font-variant:normal;font-weight:normal;font-stretch:normal;font-size:medium;line-height:normal;font-family:sans-serif;font-variant-ligatures:normal;font-variant-position:normal;font-variant-caps:normal;font-variant-numeric:normal;font-variant-alternates:normal;font-variant-east-asian:normal;font-feature-settings:normal;font-variation-settings:normal;text-indent:0;text-align:start;text-decoration:none;text-decoration-line:none;text-decoration-style:solid;text-decoration-color:#000000;letter-spacing:normal;word-spacing:normal;text-transform:none;writing-mode:lr-tb;direction:ltr;text-orientation:mixed;dominant-baseline:auto;baseline-shift:baseline;text-anchor:start;white-space:normal;shape-padding:0;shape-margin:0;inline-size:0;clip-rule:nonzero;display:inline;overflow:visible;visibility:visible;isolation:auto;mix-blend-mode:normal;color-interpolation:sRGB;color-interpolation-filters:linearRGB;solid-color:#000000;solid-opacity:1;vector-effect:none;fill:currentColor;fill-opacity:1;fill-rule:nonzero;stroke:none;stroke-linecap:butt;stroke-linejoin:miter;stroke-miterlimit:10;stroke-dasharray:none;stroke-dashoffset:0;stroke-opacity:1;color-rendering:auto;image-rendering:auto;shape-rendering:auto;text-rendering:auto;enable-background:accumulate;stop-color:#000000;stop-opacity:1;opacity:1"
     d="M 256 32 C 132.48208 32 32 132.48208 32 256 C 32 379.51792 132.48208 480 256 480 C 379.51792 480 480 379.51792 480 256 C 480 132.48208 379.51792 32 256 32 z M 256 64 C 362.22208 64 448 149.77792 448 256 C 448 362.22208 362.22208 448 256 448 C 149.77792 448 64 362.22208 64 256 C 64 149.77792 149.77792 64 256 64 z "
     id="path4" />
  <path
     style="color:#000000;font-style:normal;font-variant:normal;font-weight:normal;font-stretch:normal;font-size:medium;line-height:normal;font-family:sans-serif;font-variant-ligatures:normal;font-variant-position:normal;font-variant-caps:normal;font-variant-numeric:normal;font-variant-alternates:normal;font-variant-east-asian:normal;font-feature-settings:normal;font-variation-settings:normal;text-indent:0;text-align:start;text-decoration:none;text-decoration-line:none;text-decoration-style:solid;text-decoration-color:#000000;letter-spacing:normal;word-spacing:normal;text-transform:none;writing-mode:lr-tb;direction:ltr;text-orientation:mixed;dominant-baseline:auto;baseline-shift:baseline;text-anchor:start;white-space:normal;shape-padding:0;shape-margin:0;inline-size:0;clip-rule:nonzero;display:inline;overflow:visible;visibility:visible;isolation:auto;mix-blend-mode:normal;color-interpolation:sRGB;color-interpolation-filters:linearRGB;solid-color:#000000;solid-opacity:1;vector-effect:none;fill:#000000;fill-opacity:1;fill-rule:nonzero;stroke-width:1;stroke-linecap:butt;stroke-linejoin:miter;stroke-miterlimit:4;stroke-dasharray:none;stroke-dashoffset:0;stroke-opacity:1;color-rendering:auto;image-rendering:auto;shape-rendering:auto;text-rendering:auto;enable-background:accumulate;stop-color:#000000;stop-opacity:1;stroke:none;opacity:1"
     d="m 445.57,172.14 c -16.06,0.1 -14.48,29.73 -34.49,15.75 -7.43,-5.18 -12,-12.71 -21.33,-15 -8.15,-2 -16.5,0.08 -24.55,1.47 -9.15,1.58 -20,2.29 -26.94,9.22 -6.71,6.67 -10.26,15.62 -17.4,22.33 -13.81,13 -19.64,27.19 -10.7,45.57 8.6,17.67 26.59,27.26 46,26 19.07,-1.27 38.88,-12.33 38.33,15.38 -0.2,9.8 1.85,16.6 4.86,25.71 2.79,8.4 2.6,16.54 3.24,25.21 1.18,16.2 4.16,34.36 12.2,48.67 l 15,-21.16 c 1.85,-2.62 5.72,-6.29 6.64,-9.38 1.63,-5.47 -1.58,-14.87 -1.95,-21 -0.37,-6.13 -0.19,-12.34 -1.13,-18.47 -1.32,-8.59 -6.4,-16.64 -7.1,-25.13 -1.29,-15.81 1.6,-28.43 -10.58,-41.65 -11.76,-12.75 -29,-15.81 -45.47,-13.22 -8.3,1.3 -41.71,6.64 -28.3,-12.33 2.65,-3.73 7.28,-6.79 10.26,-10.34 2.59,-3.09 4.84,-8.77 7.88,-11.18 3.04,-2.41 17,-5.18 21,-3.95 4,1.23 8.17,7 11.64,9.56 6.41123,4.82899 13.89292,8.03984 21.81,9.36 13.66,2 42.22,-5.94 42,-23.46 -0.04,-8.4 -7.84,-20.1 -10.92,-27.96 z M 287.45,316.3 c -5.33,-22.44 -35.82,-29.94 -52.26,-42.11 -9.45,-7 -17.86,-17.81 -30.27,-18.69 -5.72,-0.41 -10.51,0.83 -16.18,-0.64 -5.2,-1.34 -9.28,-4.14 -14.82,-3.41 -10.35,1.36 -16.88,12.42 -28,10.92 -10.55,-1.42 -21.42,-13.76 -23.82,-23.81 -3.08,-12.92 7.14,-17.11 18.09,-18.26 4.57,-0.48 9.7,-1 14.09,0.67 5.78,2.15 8.51,7.81 13.7,10.67 9.73,5.33 11.7,-3.19 10.21,-11.83 -2.23,-12.94 -4.83,-18.22 6.71,-27.12 8,-6.14 14.84,-10.58 13.56,-21.61 -0.76,-6.48 -4.31,-9.41 -1,-15.86 2.51,-4.91 9.4,-9.34 13.89,-12.27 11.59,-7.56 49.65,-7 34.1,-28.16 -4.57,-6.21 -13,-17.31 -21,-18.83 -10,-1.89 -14.44,9.27 -21.41,14.19 -7.2,5.09 -21.22,10.87 -28.43,3 -9.7,-10.59 6.43,-14.07 10,-21.46 3.57,-7.39 -8.27,-21.36 -14.61,-24.9 l -29.81,33.43 c -1.73082,11.3156 1.28691,22.84376 8.34,31.86 5.93,7.63 15.37,10.08 15.8,20.5 0.42,10 -1.14,15.12 -7.68,22.15 -2.83,3 -4.83,7.26 -7.71,10.07 -3.53,3.43 -2.22,2.38 -7.73,3.32 -10.36,1.75 -19.18,4.45 -29.19,7.21 C 95.34,199.94 93.8,172.69 86.2,162 l -25,20.19 c -0.27,3.31 4.1,9.4 5.29,13 6.83,20.57 20.61,36.48 29.51,56.16 9.37,20.84 34.53,15.06 45.64,33.32 9.86,16.2 -0.67,36.71 6.71,53.67 5.36,12.31 18,15 26.72,24 8.91,9.09 8.72,21.53 10.08,33.36 1.53375,13.91456 4.02296,27.70713 7.45,41.28 1.21,4.69 2.32,10.89 5.53,14.76 2.2,2.66 9.75,4.95 6.7,5.83 4.26,0.7 11.85,4.68 15.4,1.76 4.68,-3.84 3.43,-15.66 4.24,-21 2.43,-15.9 10.39,-31.45 21.13,-43.35 10.61,-11.74 25.15,-19.69 34.11,-33 8.73,-12.98 11.36,-30.49 7.74,-45.68 z m -33.39,26.32 c -6,10.71 -19.36,17.88 -27.95,26.39 -2.33,2.31 -7.29,10.31 -10.21,8.58 -2.09,-1.24 -2.8,-11.62 -3.57,-14 -3.97233,-11.98462 -11.55584,-22.44643 -21.71,-29.95 -3.13,-2.37 -10.89,-5.45 -12.68,-8.7 -2,-3.53 -0.2,-11.86 -0.13,-15.7 0.11,-5.6 -2.44,-14.91 -1.06,-20 1.6,-5.87 -1.48,-2.33 3.77,-3.49 2.77,-0.62 14.21,1.39 17.66,2.11 5.48,1.14 8.5,4.55 12.82,8 11.36,9.11 23.87,16.16 36.6,23.14 9.86,5.46 12.76,12.37 6.46,23.62 z M 184.46,67.09 c 4.74,4.63 9.2,10.11 16.27,10.57 6.69,0.45 13,-3.17 18.84,1.38 6.48,5 11.15,11.33 19.75,12.89 8.32,1.51 17.13,-3.35 19.19,-11.86 2,-8.11 -2.31,-16.93 -2.57,-25.07 0,-1.13 0.61,-6.15 -0.17,-7 -0.58,-0.64 -5.42,0.08 -6.16,0.1 -5.42,0.16 -10.82667,0.533333 -16.22,1.12 -19.66172,2.128146 -38.91725,7.061576 -57.18,14.65 2.43,1.68 5.48,2.35 8.25,3.22 z m 171.94,56.18 c 8.49,0 17.11,-3.8 14.37,-13.62 -2.3,-8.23 -6.22,-17.16 -15.76,-12.72 -6.07,2.82 -14.67,10 -15.38,17.12 -0.81,8.08 11.11,9.22 16.77,9.22 z m -6.78,42.97 c 8.67,5.19 21.53,2.75 28.07,-4.66 5.11,-5.8 8.12,-15.87 17.31,-15.86 4.04594,-0.008 7.93267,1.57574 10.82,4.41 3.8,3.93 3.05,7.62 3.86,12.54 1.81,11.05 13.66,0.63 16.75,-3.65 2,-2.79 4.71,-6.93 3.8,-10.56 -0.84,-3.39 -4.8,-7 -6.56,-10.11 -5.14,-9 -9.37,-19.47 -17.07,-26.74 -7.41,-7 -16.52,-6.19 -23.55,1.08 -5.76,6 -12.45,10.75 -16.39,18.05 -2.78,5.13 -5.91,7.58 -11.54,8.91 -3.1,0.73 -6.64,1 -9.24,3.08 -7.24,5.7 -3.12,19.39 3.74,23.51 z"
     id="path6" />
</svg>
