<?xml version="1.0" encoding="utf-8"?>
<!-- Generator: Adobe Illustrator 24.0.0, SVG Export Plug-In . SVG Version: 6.00 Build 0)  -->
<svg version="1.1" id="Layer_1" xmlns="http://www.w3.org/2000/svg" xmlns:xlink="http://www.w3.org/1999/xlink" x="0px" y="0px"
	 viewBox="0 0 512 512" style="enable-background:new 0 0 512 512;" xml:space="preserve">
<title>ionicons-v5-i</title>
<g>
	<path d="M432,368H80c-26.5,0-48-21.5-48-48V112c0-26.5,21.5-48,48-48h352c26.5,0,48,21.5,48,48v208C480,346.5,458.5,368,432,368z
		 M80,96c-8.8,0-16,7.2-16,16v208c0,8.8,7.2,16,16,16h352c8.8,0,16-7.2,16-16V112c0-8.8-7.2-16-16-16H80z"/>
</g>
<g>
	<path d="M256,432c-8.8,0-16-7.2-16-16v-64c0-8.8,7.2-16,16-16c8.8,0,16,7.2,16,16v64C272,424.8,264.8,432,256,432z"/>
</g>
<g>
	<path d="M256,96c-8.8,0-16-7.2-16-16V48c0-8.8,7.2-16,16-16c8.8,0,16,7.2,16,16v32C272,88.8,264.8,96,256,96z"/>
</g>
<g>
	<path d="M400,480c-7,0-13.4-4.6-15.4-11.6l-32-112c-2.4-8.5,2.5-17.4,11-19.8c8.5-2.4,17.4,2.5,19.8,11l32,112
		c2.4,8.5-2.5,17.4-11,19.8C402.9,479.8,401.4,480,400,480z"/>
</g>
<g>
	<path d="M112,480c-1.5,0-2.9-0.2-4.4-0.6c-8.5-2.4-13.4-11.3-11-19.8l32-112c2.4-8.5,11.3-13.4,19.8-11c8.5,2.4,13.4,11.3,11,19.8
		l-32,112C125.4,475.4,119,480,112,480z"/>
</g>
</svg>
