<?xml version="1.0" encoding="utf-8"?>
<!-- Generator: Adobe Illustrator 24.0.0, SVG Export Plug-In . SVG Version: 6.00 Build 0)  -->
<svg version="1.1" id="Layer_1" xmlns="http://www.w3.org/2000/svg" xmlns:xlink="http://www.w3.org/1999/xlink" x="0px" y="0px"
	 viewBox="0 0 512 512" style="enable-background:new 0 0 512 512;" xml:space="preserve">
<title>ionicons-v5-i</title>
<g>
	<path d="M256,480c-52.6,0-96.7-17.5-127.7-50.7C96.7,395.4,80,346.1,80,286.5c0-56,21.5-118.6,58.9-171.6c36.7-52,80.5-83,117.1-83
		s80.4,31,117.1,83c37.5,53,58.9,115.5,58.9,171.6c0,59.5-16.7,108.9-48.3,142.7C352.7,462.5,308.6,480,256,480z M256,64
		c-25.4,0-61.1,27.3-90.9,69.4C131.3,181.2,112,237,112,286.5c0,51.3,13.7,93.1,39.7,120.9C176.5,434,212.5,448,256,448
		c43.5,0,79.5-14,104.3-40.6c26-27.8,39.7-69.6,39.7-120.9c0-49.6-19.3-105.4-53.1-153.1C317.1,91.3,281.4,64,256,64z"/>
</g>
</svg>
