<?xml version="1.0" encoding="utf-8"?>
<!-- Generator: Adobe Illustrator 24.0.0, SVG Export Plug-In . SVG Version: 6.00 Build 0)  -->
<svg version="1.1" id="Layer_1" xmlns="http://www.w3.org/2000/svg" xmlns:xlink="http://www.w3.org/1999/xlink" x="0px" y="0px"
	 viewBox="0 0 512 512" style="enable-background:new 0 0 512 512;" xml:space="preserve">
<title>ionicons-v5-f</title>
<g>
	<path d="M256,304c-26.5,0-48-21.5-48-48c0-26.5,21.5-48,48-48c26.5,0,48,21.5,48,48C304,282.5,282.5,304,256,304z M256,240
		c-8.8,0-16,7.2-16,16s7.2,16,16,16s16-7.2,16-16S264.8,240,256,240z"/>
</g>
<g>
	<path d="M416,304c-26.5,0-48-21.5-48-48c0-26.5,21.5-48,48-48s48,21.5,48,48C464,282.5,442.5,304,416,304z M416,240
		c-8.8,0-16,7.2-16,16s7.2,16,16,16s16-7.2,16-16S424.8,240,416,240z"/>
</g>
<g>
	<path d="M96,304c-26.5,0-48-21.5-48-48c0-26.5,21.5-48,48-48s48,21.5,48,48C144,282.5,122.5,304,96,304z M96,240
		c-8.8,0-16,7.2-16,16s7.2,16,16,16s16-7.2,16-16S104.8,240,96,240z"/>
</g>
</svg>
