<?xml version="1.0" encoding="UTF-8" standalone="no"?>
<svg
   xmlns:dc="http://purl.org/dc/elements/1.1/"
   xmlns:cc="http://creativecommons.org/ns#"
   xmlns:rdf="http://www.w3.org/1999/02/22-rdf-syntax-ns#"
   xmlns:svg="http://www.w3.org/2000/svg"
   xmlns="http://www.w3.org/2000/svg"
   xmlns:sodipodi="http://sodipodi.sourceforge.net/DTD/sodipodi-0.dtd"
   xmlns:inkscape="http://www.inkscape.org/namespaces/inkscape"
   class="ionicon"
   viewBox="0 0 512 512"
   version="1.1"
   id="svg6"
   sodipodi:docname="exit-outline.svg"
   inkscape:version="1.0.2 (e86c8708, 2021-01-15)">
  <metadata
     id="metadata12">
    <rdf:RDF>
      <cc:Work
         rdf:about="">
        <dc:format>image/svg+xml</dc:format>
        <dc:type
           rdf:resource="http://purl.org/dc/dcmitype/StillImage" />
      </cc:Work>
    </rdf:RDF>
  </metadata>
  <defs
     id="defs10" />
  <sodipodi:namedview
     pagecolor="#ffffff"
     bordercolor="#666666"
     borderopacity="1"
     objecttolerance="10"
     gridtolerance="10"
     guidetolerance="10"
     inkscape:pageopacity="0"
     inkscape:pageshadow="2"
     inkscape:window-width="689"
     inkscape:window-height="480"
     id="namedview8"
     showgrid="false"
     inkscape:zoom="1.3027344"
     inkscape:cx="256"
     inkscape:cy="256"
     inkscape:window-x="44"
     inkscape:window-y="25"
     inkscape:window-maximized="0"
     inkscape:current-layer="svg6" />
  <title
     id="title2">Exit</title>
  <path
     style="color:#000000;font-style:normal;font-variant:normal;font-weight:normal;font-stretch:normal;font-size:medium;line-height:normal;font-family:sans-serif;font-variant-ligatures:normal;font-variant-position:normal;font-variant-caps:normal;font-variant-numeric:normal;font-variant-alternates:normal;font-variant-east-asian:normal;font-feature-settings:normal;font-variation-settings:normal;text-indent:0;text-align:start;text-decoration:none;text-decoration-line:none;text-decoration-style:solid;text-decoration-color:#000000;letter-spacing:normal;word-spacing:normal;text-transform:none;writing-mode:lr-tb;direction:ltr;text-orientation:mixed;dominant-baseline:auto;baseline-shift:baseline;text-anchor:start;white-space:normal;shape-padding:0;shape-margin:0;inline-size:0;clip-rule:nonzero;display:inline;overflow:visible;visibility:visible;isolation:auto;mix-blend-mode:normal;color-interpolation:sRGB;color-interpolation-filters:linearRGB;solid-color:#000000;solid-opacity:1;vector-effect:none;fill:currentColor;fill-opacity:1;fill-rule:nonzero;stroke:none;stroke-linecap:round;stroke-linejoin:round;stroke-miterlimit:4;stroke-dasharray:none;stroke-dashoffset:0;stroke-opacity:1;color-rendering:auto;image-rendering:auto;shape-rendering:auto;text-rendering:auto;enable-background:accumulate;stop-color:#000000;stop-opacity:1;opacity:1"
     d="M 88 80 C 57.261568 80 32 105.26157 32 136 L 32 376 C 32 406.73843 57.261568 432 88 432 L 280 432 C 310.73843 432 336 406.73843 336 376 L 336 336 A 16 16 0 0 0 320 320 A 16 16 0 0 0 304 336 L 304 376 C 304 389.44435 293.44435 400 280 400 L 88 400 C 74.555652 400 64 389.44435 64 376 L 64 136 C 64 122.55565 74.555652 112 88 112 L 280 112 C 293.44435 112 304 122.55565 304 136 L 304 176 A 16 16 0 0 0 320 192 A 16 16 0 0 0 336 176 L 336 136 C 336 105.26157 310.73843 80 280 80 L 88 80 z M 384.12109 160 A 16 16 0 0 0 372.68555 164.68555 A 16 16 0 0 0 372.68555 187.31445 L 425.37109 240 L 191 240 A 16 16 0 0 0 175 256 A 16 16 0 0 0 191 272 L 425.37109 272 L 372.68555 324.68555 A 16 16 0 0 0 372.68555 347.31445 A 16 16 0 0 0 395.31445 347.31445 L 475.22852 267.39844 L 475.31445 267.31445 A 16.0016 16.0016 0 0 0 475.46484 267.16016 A 16 16 0 0 0 475.54883 267.07422 A 16.0016 16.0016 0 0 0 475.60938 267.00977 A 16 16 0 0 0 475.75977 266.84766 A 16 16 0 0 0 475.7793 266.82812 A 16.0016 16.0016 0 0 0 475.92383 266.66797 A 16 16 0 0 0 476.00391 266.57812 A 16.0016 16.0016 0 0 0 476.14453 266.41602 A 16.0016 16.0016 0 0 0 476.33594 266.18945 A 16.0016 16.0016 0 0 0 476.36133 266.1582 A 16 16 0 0 0 476.4375 266.06445 A 16.0016 16.0016 0 0 0 476.57227 265.89648 A 16 16 0 0 0 476.64648 265.80078 A 16.0016 16.0016 0 0 0 476.77734 265.62891 A 16 16 0 0 0 476.84961 265.5332 A 16.0016 16.0016 0 0 0 476.97656 265.35938 A 16 16 0 0 0 477.04688 265.25977 A 16.0016 16.0016 0 0 0 477.17188 265.08398 A 16 16 0 0 0 477.24023 264.98438 A 16.0016 16.0016 0 0 0 477.35938 264.80469 A 16 16 0 0 0 477.42578 264.70312 A 16.0016 16.0016 0 0 0 477.54102 264.52148 A 16.0016 16.0016 0 0 0 477.67969 264.29688 A 16.0016 16.0016 0 0 0 477.7168 264.23633 A 16 16 0 0 0 477.7793 264.13086 A 16.0016 16.0016 0 0 0 477.88672 263.94531 A 16 16 0 0 0 477.94727 263.83984 A 16.0016 16.0016 0 0 0 478.05078 263.65234 A 16 16 0 0 0 478.10938 263.54492 A 16.0016 16.0016 0 0 0 478.15234 263.46289 A 16 16 0 0 0 478.26367 263.24609 A 16 16 0 0 0 478.40234 262.96875 A 16 16 0 0 0 478.41406 262.94531 A 16.0016 16.0016 0 0 0 478.50586 262.75195 A 16 16 0 0 0 478.55664 262.64062 A 16.0016 16.0016 0 0 0 478.64453 262.44531 A 16 16 0 0 0 478.69336 262.33398 A 16.0016 16.0016 0 0 0 478.77734 262.13477 A 16 16 0 0 0 478.82227 262.02344 A 16.0016 16.0016 0 0 0 478.82617 262.01367 A 16 16 0 0 0 478.94531 261.70898 A 16 16 0 0 0 479.0625 261.39453 A 16 16 0 0 0 479.17188 261.07617 A 16 16 0 0 0 479.27539 260.75586 A 16 16 0 0 0 479.37305 260.43359 A 16 16 0 0 0 479.46289 260.10938 A 16 16 0 0 0 479.54492 259.7832 A 16 16 0 0 0 479.62109 259.45703 A 16 16 0 0 0 479.68945 259.13672 A 16 16 0 0 0 479.69141 259.12695 A 16.0016 16.0016 0 0 0 479.73242 258.91602 A 16 16 0 0 0 479.75391 258.79688 A 16.0016 16.0016 0 0 0 479.78906 258.58594 A 16 16 0 0 0 479.80859 258.46484 A 16.0016 16.0016 0 0 0 479.83984 258.25195 A 16.0016 16.0016 0 0 0 479.87109 258.01562 A 16 16 0 0 0 479.89648 257.81641 A 16 16 0 0 0 479.89844 257.79883 A 16.0016 16.0016 0 0 0 479.90039 257.78125 A 16 16 0 0 0 479.93164 257.46289 A 16 16 0 0 0 479.95898 257.12891 A 16 16 0 0 0 479.98047 256.80664 A 16 16 0 0 0 479.98047 256.79297 A 16.0016 16.0016 0 0 0 479.98047 256.77344 A 16 16 0 0 0 479.99219 256.45703 A 16 16 0 0 0 479.99805 256.12109 A 16 16 0 0 0 480 256 A 16 16 0 0 0 479.99805 255.83203 A 16 16 0 0 0 479.99805 255.7832 A 16.0016 16.0016 0 0 0 479.99609 255.66406 A 16 16 0 0 0 479.99023 255.44727 A 16.0016 16.0016 0 0 0 479.98828 255.42188 A 16 16 0 0 0 479.97461 255.11133 A 16 16 0 0 0 479.95703 254.83984 A 16 16 0 0 0 479.95312 254.77539 A 16.0016 16.0016 0 0 0 479.94336 254.65625 A 16 16 0 0 0 479.92383 254.44141 A 16.0016 16.0016 0 0 0 479.91992 254.4082 A 16 16 0 0 0 479.88672 254.10547 A 16 16 0 0 0 479.85156 253.83789 A 16 16 0 0 0 479.84375 253.77344 A 16.0016 16.0016 0 0 0 479.82617 253.6543 A 16 16 0 0 0 479.79297 253.43945 A 16.0016 16.0016 0 0 0 479.77344 253.32227 A 16 16 0 0 0 479.73633 253.10938 A 16.0016 16.0016 0 0 0 479.73242 253.08398 A 16 16 0 0 0 479.67188 252.7793 A 16 16 0 0 0 479.59961 252.44922 A 16 16 0 0 0 479.5332 252.16797 A 16 16 0 0 0 479.52344 252.12305 A 16.0016 16.0016 0 0 0 479.51562 252.09375 A 16 16 0 0 0 479.4375 251.79883 A 16 16 0 0 0 479.4375 251.79688 A 16 16 0 0 0 479.35547 251.50391 A 16 16 0 0 0 479.3457 251.47266 A 16.0016 16.0016 0 0 0 479.33984 251.45508 A 16 16 0 0 0 479.27148 251.23047 A 16 16 0 0 0 479.24805 251.15234 A 16.0016 16.0016 0 0 0 479.21094 251.03711 A 16 16 0 0 0 479.14258 250.83203 A 16.0016 16.0016 0 0 0 479.12891 250.79102 A 16 16 0 0 0 479.0293 250.51562 A 16.0016 16.0016 0 0 0 478.98828 250.40234 A 16 16 0 0 0 478.95703 250.32227 A 16.0016 16.0016 0 0 0 478.86719 250.08984 A 16.0016 16.0016 0 0 0 478.75391 249.8125 A 16.0016 16.0016 0 0 0 478.74023 249.77734 A 16 16 0 0 0 478.6543 249.57812 A 16 16 0 0 0 478.51562 249.27148 A 16 16 0 0 0 478.37305 248.97266 A 16 16 0 0 0 478.37109 248.96875 A 16.0016 16.0016 0 0 0 478.31836 248.86133 A 16 16 0 0 0 478.2207 248.66797 A 16.0016 16.0016 0 0 0 478.19922 248.62891 A 16 16 0 0 0 478.0625 248.37109 A 16.0016 16.0016 0 0 0 478.00586 248.26562 A 16 16 0 0 0 477.96094 248.1875 A 16.0016 16.0016 0 0 0 477.83984 247.97266 A 16.0016 16.0016 0 0 0 477.66992 247.68945 A 16.0016 16.0016 0 0 0 477.66797 247.68359 A 16 16 0 0 0 477.55469 247.5 A 16.0016 16.0016 0 0 0 477.49023 247.39844 A 16 16 0 0 0 477.37305 247.2168 A 16.0016 16.0016 0 0 0 477.30664 247.11719 A 16 16 0 0 0 477.18555 246.9375 A 16.0016 16.0016 0 0 0 477.11719 246.83789 A 16 16 0 0 0 476.99219 246.66211 A 16.0016 16.0016 0 0 0 476.92188 246.56445 A 16 16 0 0 0 476.79297 246.39062 A 16.0016 16.0016 0 0 0 476.7207 246.29492 A 16 16 0 0 0 476.58789 246.12305 A 16.0016 16.0016 0 0 0 476.51367 246.0293 A 16 16 0 0 0 476.37695 245.86133 A 16 16 0 0 0 476.21289 245.66406 A 16 16 0 0 0 476.16211 245.60352 A 16.0016 16.0016 0 0 0 476.08398 245.51367 A 16.0016 16.0016 0 0 0 475.86719 245.26758 A 16.0016 16.0016 0 0 0 475.86133 245.26172 A 16 16 0 0 0 475.71484 245.10156 A 16.0016 16.0016 0 0 0 475.63281 245.01367 A 16 16 0 0 0 475.48242 244.85742 A 16.0016 16.0016 0 0 0 475.39844 244.77148 A 16.0016 16.0016 0 0 0 475.31445 244.68555 L 395.31445 164.68555 A 16 16 0 0 0 384.12109 160 z "
     id="path4" />
</svg>
