<?xml version="1.0" encoding="utf-8"?>
<!-- Generator: Adobe Illustrator 24.0.0, SVG Export Plug-In . SVG Version: 6.00 Build 0)  -->
<svg version="1.1" id="Layer_1" xmlns="http://www.w3.org/2000/svg" xmlns:xlink="http://www.w3.org/1999/xlink" x="0px" y="0px"
	 viewBox="0 0 512 512" style="enable-background:new 0 0 512 512;" xml:space="preserve">
<title>ionicons-v5-i</title>
<g>
	<path d="M280,432H88c-30.9,0-56-25.1-56-56V136c0-30.9,25.1-56,56-56h192c30.9,0,56,25.1,56,56v40c0,8.8-7.2,16-16,16
		s-16-7.2-16-16v-40c0-13.2-10.8-24-24-24H88c-13.2,0-24,10.8-24,24v240c0,13.2,10.8,24,24,24h192c13.2,0,24-10.8,24-24v-40
		c0-8.8,7.2-16,16-16s16,7.2,16,16v40C336,406.9,310.9,432,280,432z"/>
</g>
<g>
	<path d="M384,352c-4.1,0-8.2-1.6-11.3-4.7c-6.2-6.2-6.2-16.4,0-22.6l68.7-68.7l-68.7-68.7c-6.2-6.2-6.2-16.4,0-22.6
		c6.2-6.2,16.4-6.2,22.6,0l80,80c6.2,6.2,6.2,16.4,0,22.6l-80,80C392.2,350.4,388.1,352,384,352z"/>
</g>
<g>
	<path d="M464,272H191c-8.8,0-16-7.2-16-16c0-8.8,7.2-16,16-16h273c8.8,0,16,7.2,16,16C480,264.8,472.8,272,464,272z"/>
</g>
</svg>
