<?xml version="1.0" encoding="utf-8"?>
<!-- Generator: Adobe Illustrator 24.0.0, SVG Export Plug-In . SVG Version: 6.00 Build 0)  -->
<svg version="1.1" id="Layer_1" xmlns="http://www.w3.org/2000/svg" xmlns:xlink="http://www.w3.org/1999/xlink" x="0px" y="0px"
	 viewBox="0 0 512 512" style="enable-background:new 0 0 512 512;" xml:space="preserve">
<title>ionicons-v5-b</title>
<g>
	<path d="M432,448H320c-8.8,0-16-7.2-16-16s7.2-16,16-16h96v-96c0-8.8,7.2-16,16-16s16,7.2,16,16v112C448,440.8,440.8,448,432,448z"
		/>
</g>
<g>
	<path d="M421.8,437.8c-4.1,0-8.2-1.6-11.3-4.7L292.7,315.3c-6.2-6.2-6.2-16.4,0-22.6c6.2-6.2,16.4-6.2,22.6,0l117.8,117.8
		c6.2,6.2,6.2,16.4,0,22.6C430,436.2,425.9,437.8,421.8,437.8z"/>
</g>
<g>
	<path d="M80,208c-8.8,0-16-7.2-16-16V80c0-8.8,7.2-16,16-16h112c8.8,0,16,7.2,16,16s-7.2,16-16,16H96v96C96,200.8,88.8,208,80,208z
		"/>
</g>
<g>
	<path d="M208,224c-4.1,0-8.2-1.6-11.3-4.7L78.9,101.5c-6.2-6.2-6.2-16.4,0-22.6c6.2-6.2,16.4-6.2,22.6,0l117.8,117.8
		c6.2,6.2,6.2,16.4,0,22.6C216.2,222.4,212.1,224,208,224z"/>
</g>
<g>
	<path d="M432,208c-8.8,0-16-7.2-16-16V96h-96c-8.8,0-16-7.2-16-16s7.2-16,16-16h112c8.8,0,16,7.2,16,16v112
		C448,200.8,440.8,208,432,208z"/>
</g>
<g>
	<path d="M304,224c-4.1,0-8.2-1.6-11.3-4.7c-6.2-6.2-6.2-16.4,0-22.6L410.5,78.9c6.2-6.2,16.4-6.3,22.6,0c6.2,6.2,6.2,16.4,0,22.6
		L315.3,219.3C312.2,222.4,308.1,224,304,224z"/>
</g>
<g>
	<path d="M192,448H80c-8.8,0-16-7.2-16-16V320c0-8.8,7.2-16,16-16s16,7.2,16,16v96h96c8.8,0,16,7.2,16,16S200.8,448,192,448z"/>
</g>
<g>
	<path d="M90.2,437.8c-4.1,0-8.2-1.6-11.3-4.7c-6.2-6.2-6.3-16.4,0-22.6l117.8-117.8c6.2-6.2,16.4-6.2,22.6,0
		c6.2,6.2,6.2,16.4,0,22.6L101.5,433.1C98.4,436.2,94.3,437.8,90.2,437.8z"/>
</g>
</svg>
