<?xml version="1.0" encoding="UTF-8"?>
<svg width="512px" height="512px" viewBox="0 0 512 512" version="1.1" xmlns="http://www.w3.org/2000/svg" xmlns:xlink="http://www.w3.org/1999/xlink">
    <!-- Generator: Sketch 62 (91390) - https://sketch.com -->
    <title>Artboard</title>
    <desc>Created with Sketch.</desc>
    <g id="Artboard" stroke="none" stroke-width="1" fill="none" fill-rule="evenodd">
        <g id="expand-sharp" transform="translate(64.000000, 64.000000)" fill="#000000" fill-rule="nonzero">
            <path d="M239.99282,217.37022 L352,329.346 L352,240 L384,240 L384,384 L240,384 L240,352 L329.4,352 L217.36882,240.00062 L239.99282,217.37022 Z M143.99128,217.37172 L166.62168,239.99572 L54.648,352 L144,352 L144,384 L0,384 L0,240 L32,240 L32,329.394 L143.99128,217.37172 Z M144,0 L144,32 L54.601,32 L166.62438,143.99128 L144.00038,166.62168 L32,54.653 L32,144 L0,144 L0,0 L144,0 Z M384,0 L384,144 L352,144 L352,54.585 L239.99862,166.61938 L217.36822,143.99538 L329.331,32 L240,32 L240,0 L384,0 Z" id="Combined-Shape"></path>
        </g>
    </g>
</svg>