<?xml version="1.0" encoding="UTF-8" standalone="no"?>
<svg
   xmlns:dc="http://purl.org/dc/elements/1.1/"
   xmlns:cc="http://creativecommons.org/ns#"
   xmlns:rdf="http://www.w3.org/1999/02/22-rdf-syntax-ns#"
   xmlns:svg="http://www.w3.org/2000/svg"
   xmlns="http://www.w3.org/2000/svg"
   xmlns:sodipodi="http://sodipodi.sourceforge.net/DTD/sodipodi-0.dtd"
   xmlns:inkscape="http://www.inkscape.org/namespaces/inkscape"
   class="ionicon"
   viewBox="0 0 512 512"
   version="1.1"
   id="svg6"
   sodipodi:docname="extension-puzzle.svg"
   inkscape:version="1.0.2 (e86c8708, 2021-01-15)">
  <metadata
     id="metadata12">
    <rdf:RDF>
      <cc:Work
         rdf:about="">
        <dc:format>image/svg+xml</dc:format>
        <dc:type
           rdf:resource="http://purl.org/dc/dcmitype/StillImage" />
      </cc:Work>
    </rdf:RDF>
  </metadata>
  <defs
     id="defs10" />
  <sodipodi:namedview
     pagecolor="#ffffff"
     bordercolor="#666666"
     borderopacity="1"
     objecttolerance="10"
     gridtolerance="10"
     guidetolerance="10"
     inkscape:pageopacity="0"
     inkscape:pageshadow="2"
     inkscape:window-width="689"
     inkscape:window-height="480"
     id="namedview8"
     showgrid="false"
     inkscape:zoom="1.3027344"
     inkscape:cx="256"
     inkscape:cy="256"
     inkscape:window-x="44"
     inkscape:window-y="25"
     inkscape:window-maximized="0"
     inkscape:current-layer="svg6" />
  <title
     id="title2">Extension Puzzle</title>
  <path
     style="color:#000000;font-style:normal;font-variant:normal;font-weight:normal;font-stretch:normal;font-size:medium;line-height:normal;font-family:sans-serif;font-variant-ligatures:normal;font-variant-position:normal;font-variant-caps:normal;font-variant-numeric:normal;font-variant-alternates:normal;font-variant-east-asian:normal;font-feature-settings:normal;font-variation-settings:normal;text-indent:0;text-align:start;text-decoration:none;text-decoration-line:none;text-decoration-style:solid;text-decoration-color:#000000;letter-spacing:normal;word-spacing:normal;text-transform:none;writing-mode:lr-tb;direction:ltr;text-orientation:mixed;dominant-baseline:auto;baseline-shift:baseline;text-anchor:start;white-space:normal;shape-padding:0;shape-margin:0;inline-size:0;clip-rule:nonzero;display:inline;overflow:visible;visibility:visible;isolation:auto;mix-blend-mode:normal;color-interpolation:sRGB;color-interpolation-filters:linearRGB;solid-color:#000000;solid-opacity:1;vector-effect:none;fill:#000000;fill-opacity:1;fill-rule:nonzero;stroke-width:1;stroke-linecap:butt;stroke-linejoin:miter;stroke-miterlimit:4;stroke-dasharray:none;stroke-dashoffset:0;stroke-opacity:1;color-rendering:auto;image-rendering:auto;shape-rendering:auto;text-rendering:auto;enable-background:accumulate;stop-color:#000000;stop-opacity:1;stroke:none;opacity:1"
     d="M 345.14,480 H 274 c -9.94113,0 -18,-8.05887 -18,-18 v -27.71 c 0.0273,-8.60132 -3.484,-16.83532 -9.71,-22.77 -7.78,-7.59 -19.08,-11.8 -30.89,-11.51 -21.36,0.5 -39.4,19.3 -39.4,41.06 V 462 c 0,9.94113 -8.05887,18 -18,18 H 87.62 C 56.901922,480 32,455.09808 32,424.38 V 354 c 0,-9.94113 8.058875,-18 18,-18 h 27.71 c 9.16,0 18.07,-3.92 25.09,-11 7.88816,-7.95115 12.27925,-18.7201 12.2,-29.92 C 114.7,273.89 97.26,256 76.91,256 H 50 c -9.941125,0 -18,-8.05887 -18,-18 V 167.62 C 32,136.90192 56.901922,112 87.62,112 h 55.24 c 4.41828,0 8,-3.58172 8,-8 v -6.48 c -5e-5,-36.641202 30.04444,-66.163024 66.68,-65.52 35.49,0.62 64.36,30.38 64.36,66.33 V 104 c 0,4.41828 3.58172,8 8,8 h 55.24 c 30.29834,0 54.86,24.56166 54.86,54.86 v 55.24 c 0,4.41828 3.58172,8 8,8 h 5.66 c 36.58,0 66.34,29 66.34,64.64 0,36.61 -29.39,66.4 -65.52,66.4 H 408 c -4.41828,0 -8,3.58172 -8,8 v 56 C 400,455.43834 375.43834,480 345.14,480 Z"
     id="path4" />
</svg>
