<?xml version="1.0" encoding="UTF-8" standalone="no"?>
<svg
   xmlns:dc="http://purl.org/dc/elements/1.1/"
   xmlns:cc="http://creativecommons.org/ns#"
   xmlns:rdf="http://www.w3.org/1999/02/22-rdf-syntax-ns#"
   xmlns:svg="http://www.w3.org/2000/svg"
   xmlns="http://www.w3.org/2000/svg"
   xmlns:sodipodi="http://sodipodi.sourceforge.net/DTD/sodipodi-0.dtd"
   xmlns:inkscape="http://www.inkscape.org/namespaces/inkscape"
   class="ionicon"
   viewBox="0 0 512 512"
   version="1.1"
   id="svg6"
   sodipodi:docname="extension-puzzle-outline.svg"
   inkscape:version="1.0.2 (e86c8708, 2021-01-15)">
  <metadata
     id="metadata12">
    <rdf:RDF>
      <cc:Work
         rdf:about="">
        <dc:format>image/svg+xml</dc:format>
        <dc:type
           rdf:resource="http://purl.org/dc/dcmitype/StillImage" />
      </cc:Work>
    </rdf:RDF>
  </metadata>
  <defs
     id="defs10" />
  <sodipodi:namedview
     pagecolor="#ffffff"
     bordercolor="#666666"
     borderopacity="1"
     objecttolerance="10"
     gridtolerance="10"
     guidetolerance="10"
     inkscape:pageopacity="0"
     inkscape:pageshadow="2"
     inkscape:window-width="689"
     inkscape:window-height="480"
     id="namedview8"
     showgrid="false"
     inkscape:zoom="1.3027344"
     inkscape:cx="256"
     inkscape:cy="256"
     inkscape:window-x="44"
     inkscape:window-y="25"
     inkscape:window-maximized="0"
     inkscape:current-layer="svg6" />
  <title
     id="title2">Extension Puzzle</title>
  <path
     style="color:#000000;font-style:normal;font-variant:normal;font-weight:normal;font-stretch:normal;font-size:medium;line-height:normal;font-family:sans-serif;font-variant-ligatures:normal;font-variant-position:normal;font-variant-caps:normal;font-variant-numeric:normal;font-variant-alternates:normal;font-variant-east-asian:normal;font-feature-settings:normal;font-variation-settings:normal;text-indent:0;text-align:start;text-decoration:none;text-decoration-line:none;text-decoration-style:solid;text-decoration-color:#000000;letter-spacing:normal;word-spacing:normal;text-transform:none;writing-mode:lr-tb;direction:ltr;text-orientation:mixed;dominant-baseline:auto;baseline-shift:baseline;text-anchor:start;white-space:normal;shape-padding:0;shape-margin:0;inline-size:0;clip-rule:nonzero;display:inline;overflow:visible;visibility:visible;isolation:auto;mix-blend-mode:normal;color-interpolation:sRGB;color-interpolation-filters:linearRGB;solid-color:#000000;solid-opacity:1;vector-effect:none;fill:currentColor;fill-opacity:1;fill-rule:nonzero;stroke:none;stroke-linecap:round;stroke-linejoin:round;stroke-miterlimit:4;stroke-dasharray:none;stroke-dashoffset:0;stroke-opacity:1;color-rendering:auto;image-rendering:auto;shape-rendering:auto;text-rendering:auto;enable-background:accumulate;stop-color:#000000;stop-opacity:1;opacity:1"
     d="M 217.53711 32.011719 C 181.1093 31.373945 150.86847 61.081753 150.85938 97.515625 A 16.0016 16.0016 0 0 0 150.85938 97.519531 L 150.85938 112 L 87.619141 112 A 16.0016 16.0016 0 0 0 87.572266 112 C 57.105208 112.09186 32.091861 137.10521 32 167.57227 A 16.0016 16.0016 0 0 0 32 167.61914 L 32 238 C 32 247.75161 40.248389 256 50 256 L 76.910156 256 C 97.026269 256 114.71337 274.40146 115.00195 295.07422 C 115.29991 316.26434 97.719726 336 77.710938 336 L 50 336 C 40.248389 336 32 344.24839 32 354 L 32 424.38086 A 16.0016 16.0016 0 0 0 32 424.42773 C 32.091861 454.89479 57.105208 479.90814 87.572266 480 A 16.0016 16.0016 0 0 0 87.619141 480 L 158 480 C 167.75161 480 176 471.75161 176 462 L 176 441.07031 C 176 419.51027 194.10326 400.50733 215.37109 400.00586 C 237.81022 399.48402 256 413.89308 256 434.28906 L 256 462 C 256 471.75161 264.24839 480 274 480 L 345.14062 480 C 375.24945 480 400 455.24945 400 425.14062 L 400 361.14062 L 414.48047 361.14062 C 450.86231 361.14062 480 330.89048 480 294.74023 C 480 258.08608 449.01828 230.09961 413.66016 230.09961 L 400 230.09961 L 400 166.85938 C 400 136.75055 375.24945 112 345.14062 112 L 281.90039 112 L 281.90039 98.339844 C 281.90039 62.751133 253.45837 32.635889 217.54102 32.011719 L 217.53711 32.011719 z M 216.97852 64.007812 A 16.0016 16.0016 0 0 0 216.98242 64.007812 C 235.3432 64.325777 249.90039 79.649856 249.90039 98.339844 L 249.90039 126 C 249.90039 135.75161 258.14878 144 267.90039 144 L 345.14062 144 C 357.95537 144 368 154.04463 368 166.85938 L 368 244.09961 C 368 253.85122 376.24839 262.09961 386 262.09961 L 413.66016 262.09961 C 432.58203 262.09961 448 275.93438 448 294.74023 C 448 314.04999 433.35863 329.14062 414.48047 329.14062 L 386 329.14062 C 376.24839 329.14063 368 337.38901 368 347.14062 L 368 425.14062 C 368 437.95537 357.95537 448 345.14062 448 L 288 448 L 288 434.28906 C 288 394.74504 252.38978 367.13551 214.62891 368.01367 A 16.0016 16.0016 0 0 0 214.625 368.01367 C 175.39453 368.93445 144 402.07169 144 441.07031 L 144 448 L 87.667969 448 C 74.426687 447.96008 64.039924 437.57331 64 424.33203 L 64 368 L 77.710938 368 C 117.26148 368 147.53904 333.17605 146.99805 294.62695 C 146.46663 256.55971 115.53404 224 76.910156 224 L 64 224 L 64 167.66797 C 64.039924 154.42669 74.426687 144.03992 87.667969 144 L 164.85938 144 C 174.61099 144 182.85937 135.75161 182.85938 126 L 182.85938 97.523438 L 182.85938 97.519531 C 182.86623 78.576186 198.03753 63.67506 216.97852 64.007812 z "
     id="path4" />
</svg>
