<?xml version="1.0" encoding="UTF-8"?>
<svg width="512px" height="512px" viewBox="0 0 512 512" version="1.1" xmlns="http://www.w3.org/2000/svg" xmlns:xlink="http://www.w3.org/1999/xlink">
    <!-- Generator: Sketch 62 (91390) - https://sketch.com -->
    <title>Artboard</title>
    <desc>Created with Sketch.</desc>
    <g id="Artboard" stroke="none" stroke-width="1" fill="none" fill-rule="evenodd">
        <g id="eye-off-sharp" transform="translate(16.000000, 64.000000)" fill="#000000" fill-rule="nonzero">
            <path d="M69.9960596,0.00636677223 L431.999376,362.009683 L410.001284,384.007775 L47.9979677,22.0044587 L69.9960596,0.00636677223 Z M78.33,97.58 L147.4,166.66 C139.498122,195.534371 145.518247,226.442137 163.679473,250.240011 C181.840699,274.037886 210.063919,288.001474 240,288 C248.577347,288.007932 257.116942,286.864386 265.39,284.6 L265.39,284.6 L319,338.2 C293.5839,347.349448 266.772778,352.018724 239.76,352.000056 C190.33,352.000056 143.38,336.92 100.2,307.18 C62.56,281.24 26.42,236 0,192 C23.24,157.14 50.12,123.42 78.33,97.58 L78.33,97.58 Z M239.76,32 C288.31,32 335.1,47.2 378.82,77.18 C417.1,103.44 453.62,148.57 480,192 C459.33,226.44 432.41,261.75 403.26,288 L403.26,288 L332.6,217.34 C340.501878,188.465629 334.481753,157.557863 316.320527,133.759989 C298.159301,109.962114 269.936081,95.9985256 240,96 C231.439394,95.9965391 222.916912,97.1400449 214.66,99.4 L214.66,99.4 L161.55,46.29 C186.553093,36.8786375 213.044332,32.0383383 239.76,32 Z M176.09,195.34 L236.66,255.91 C203.957109,254.167376 177.832624,228.042891 176.09,195.34 L176.09,195.34 Z M243.34,128.09 C276.042891,129.832624 302.167376,155.957109 303.91,188.66 L303.91,188.66 Z" id="Combined-Shape"></path>
        </g>
    </g>
</svg>