<?xml version="1.0" encoding="UTF-8" standalone="no"?>
<svg
   xmlns:dc="http://purl.org/dc/elements/1.1/"
   xmlns:cc="http://creativecommons.org/ns#"
   xmlns:rdf="http://www.w3.org/1999/02/22-rdf-syntax-ns#"
   xmlns:svg="http://www.w3.org/2000/svg"
   xmlns="http://www.w3.org/2000/svg"
   xmlns:sodipodi="http://sodipodi.sourceforge.net/DTD/sodipodi-0.dtd"
   xmlns:inkscape="http://www.inkscape.org/namespaces/inkscape"
   class="ionicon"
   viewBox="0 0 512 512"
   version="1.1"
   id="svg8"
   sodipodi:docname="eye-off-outline.svg"
   inkscape:version="1.0.2 (e86c8708, 2021-01-15)">
  <metadata
     id="metadata14">
    <rdf:RDF>
      <cc:Work
         rdf:about="">
        <dc:format>image/svg+xml</dc:format>
        <dc:type
           rdf:resource="http://purl.org/dc/dcmitype/StillImage" />
      </cc:Work>
    </rdf:RDF>
  </metadata>
  <defs
     id="defs12" />
  <sodipodi:namedview
     pagecolor="#ffffff"
     bordercolor="#666666"
     borderopacity="1"
     objecttolerance="10"
     gridtolerance="10"
     guidetolerance="10"
     inkscape:pageopacity="0"
     inkscape:pageshadow="2"
     inkscape:window-width="689"
     inkscape:window-height="480"
     id="namedview10"
     showgrid="false"
     inkscape:zoom="1.3027344"
     inkscape:cx="256"
     inkscape:cy="256"
     inkscape:window-x="44"
     inkscape:window-y="25"
     inkscape:window-maximized="0"
     inkscape:current-layer="svg8" />
  <title
     id="title2">Eye Off</title>
  <path
     style="color:#000000;font-style:normal;font-variant:normal;font-weight:normal;font-stretch:normal;font-size:medium;line-height:normal;font-family:sans-serif;font-variant-ligatures:normal;font-variant-position:normal;font-variant-caps:normal;font-variant-numeric:normal;font-variant-alternates:normal;font-variant-east-asian:normal;font-feature-settings:normal;font-variation-settings:normal;text-indent:0;text-align:start;text-decoration:none;text-decoration-line:none;text-decoration-style:solid;text-decoration-color:#000000;letter-spacing:normal;word-spacing:normal;text-transform:none;writing-mode:lr-tb;direction:ltr;text-orientation:mixed;dominant-baseline:auto;baseline-shift:baseline;text-anchor:start;white-space:normal;shape-padding:0;shape-margin:0;inline-size:0;clip-rule:nonzero;display:inline;overflow:visible;visibility:visible;isolation:auto;mix-blend-mode:normal;color-interpolation:sRGB;color-interpolation-filters:linearRGB;solid-color:#000000;solid-opacity:1;vector-effect:none;fill:#000000;fill-opacity:1;fill-rule:nonzero;stroke-width:1;stroke-linecap:butt;stroke-linejoin:miter;stroke-miterlimit:4;stroke-dasharray:none;stroke-dashoffset:0;stroke-opacity:1;color-rendering:auto;image-rendering:auto;shape-rendering:auto;text-rendering:auto;enable-background:accumulate;stop-color:#000000;stop-opacity:1;stroke:none;opacity:1"
     d="m 432,448 c -4.24447,0.007 -8.31595,-1.68148 -11.31,-4.69 l -352,-352 C 62.713534,85.019368 62.840394,75.111507 68.975951,68.975951 75.111507,62.840394 85.019368,62.713534 91.31,68.69 l 352,352 C 453.38182,430.76842 446.24837,447.9934 432,448 Z M 255.66,384 c -41.49,0 -81.5,-12.28 -118.92,-36.5 -34.07,-22 -64.74,-53.51 -88.7,-91 v -0.08 c 19.94,-28.57 41.78,-52.73 65.24,-72.21 0.89761,-0.75041 0.96224,-2.10769 0.14,-2.94 L 93.5,161.38 c -0.734035,-0.7401 -1.913422,-0.79232 -2.71,-0.12 -24.92,21 -48.05,46.76 -69.08,76.92 -7.399955,10.62098 -7.652758,24.65947 -0.64,35.54 26.41,41.33 60.4,76.14 98.28,100.65 C 162,402 207.9,416 255.66,416 c 25.77959,-0.0801 51.37662,-4.32822 75.8,-12.58 1.40466,-0.47645 1.82014,-2.26249 0.77,-3.31 l -21.58,-21.58 c -1.0107,-0.98594 -2.46632,-1.366 -3.83,-1 -16.71262,4.30359 -33.90218,6.47749 -51.16,6.47 z M 490.84,238.6 C 464.38,197.68 430.05,162.92 391.57,138.07 349,110.55 302,96 255.66,96 c -25.50631,0.04525 -50.82315,4.38248 -74.89,12.83 -1.39738,0.48626 -1.8013,2.2689 -0.75,3.31 l 21.55,21.55 c 1.02113,1.00376 2.50091,1.38515 3.88,1 16.36966,-4.42822 33.25197,-6.67762 50.21,-6.69 40.69,0 80.58,12.43 118.55,37 34.71,22.4 65.74,53.88 89.76,91 0.0367,0.047 0.0367,0.11298 0,0.16 -17.43583,27.44925 -39.07253,51.99131 -64.12,72.73 -0.90767,0.74795 -0.97713,2.11384 -0.15,2.95 l 19.9,19.89 c 0.73008,0.73703 1.90249,0.79348 2.7,0.13 26.7401,-22.5149 49.88669,-48.97971 68.64,-78.48 6.76913,-10.61588 6.73006,-24.20322 -0.1,-34.78 z"
     id="path4" />
  <path
     style="color:#000000;font-style:normal;font-variant:normal;font-weight:normal;font-stretch:normal;font-size:medium;line-height:normal;font-family:sans-serif;font-variant-ligatures:normal;font-variant-position:normal;font-variant-caps:normal;font-variant-numeric:normal;font-variant-alternates:normal;font-variant-east-asian:normal;font-feature-settings:normal;font-variation-settings:normal;text-indent:0;text-align:start;text-decoration:none;text-decoration-line:none;text-decoration-style:solid;text-decoration-color:#000000;letter-spacing:normal;word-spacing:normal;text-transform:none;writing-mode:lr-tb;direction:ltr;text-orientation:mixed;dominant-baseline:auto;baseline-shift:baseline;text-anchor:start;white-space:normal;shape-padding:0;shape-margin:0;inline-size:0;clip-rule:nonzero;display:inline;overflow:visible;visibility:visible;isolation:auto;mix-blend-mode:normal;color-interpolation:sRGB;color-interpolation-filters:linearRGB;solid-color:#000000;solid-opacity:1;vector-effect:none;fill:#000000;fill-opacity:1;fill-rule:nonzero;stroke-width:1;stroke-linecap:butt;stroke-linejoin:miter;stroke-miterlimit:4;stroke-dasharray:none;stroke-dashoffset:0;stroke-opacity:1;color-rendering:auto;image-rendering:auto;shape-rendering:auto;text-rendering:auto;enable-background:accumulate;stop-color:#000000;stop-opacity:1;stroke:none;opacity:1"
     d="m 256,160 c -7.19079,-0.004 -14.3592,0.80118 -21.37,2.4 -1.56227,0.3244 -2.13429,2.2578 -1,3.38 l 112.59,112.56 c 1.1222,1.13429 3.0556,0.56227 3.38,-1 C 363.30052,217.24898 317.63306,159.99878 256,160 Z m -90.22,73.66 c -1.1222,-1.13429 -3.0556,-0.56227 -3.38,1 -7.37194,32.20623 2.3353,65.94025 25.69752,89.30248 23.36223,23.36222 57.09625,33.06946 89.30248,25.69752 1.56227,-0.3244 2.13429,-2.2578 1,-3.38 z"
     id="path6" />
</svg>
