<?xml version="1.0" encoding="utf-8"?>
<!-- Generator: Adobe Illustrator 24.0.0, SVG Export Plug-In . SVG Version: 6.00 Build 0)  -->
<svg version="1.1" id="Layer_1" xmlns="http://www.w3.org/2000/svg" xmlns:xlink="http://www.w3.org/1999/xlink" x="0px" y="0px"
	 viewBox="0 0 512 512" style="enable-background:new 0 0 512 512;" xml:space="preserve">
<title>ionicons-v5-i</title>
<g>
	<path d="M255.7,416c-47.8,0-93.6-14-136.3-41.6C81.5,349.9,47.5,315,21.1,273.7c-7-10.8-6.8-24.8,0.6-35.5
		c32.1-46,69-81.7,109.7-106.1c39.9-24,81.8-36.1,124.3-36.1c46.3,0,93.3,14.5,135.9,42.1c38.5,24.8,72.8,59.6,99.3,100.5
		c6.8,10.6,6.8,24.3,0,34.8c-26.3,41.2-60.6,76.1-99,100.9C349.5,401.6,302.4,416,255.7,416z M255.7,128
		c-36.6,0-72.9,10.6-107.8,31.6C111,181.6,77.4,214.3,48,256.5c24,37.5,54.7,69,88.8,91c37.4,24.2,77.4,36.5,118.9,36.5
		c41.1,0,81.1-12.3,118.9-36.6c34.6-22.3,65.5-53.8,89.4-91.2c0.1-0.1,0.1-0.2,0-0.2c-24-37.1-55.1-68.6-89.8-91
		C336.2,140.4,296.3,128,255.7,128z"/>
</g>
<g>
	<path d="M256,352c-52.9,0-96-43.1-96-96s43.1-96,96-96s96,43.1,96,96S308.9,352,256,352z M256,192c-35.3,0-64,28.7-64,64
		c0,35.3,28.7,64,64,64c35.3,0,64-28.7,64-64C320,220.7,291.3,192,256,192z"/>
</g>
</svg>
