<?xml version="1.0" encoding="UTF-8" standalone="no"?>
<svg
   xmlns:dc="http://purl.org/dc/elements/1.1/"
   xmlns:cc="http://creativecommons.org/ns#"
   xmlns:rdf="http://www.w3.org/1999/02/22-rdf-syntax-ns#"
   xmlns:svg="http://www.w3.org/2000/svg"
   xmlns="http://www.w3.org/2000/svg"
   xmlns:sodipodi="http://sodipodi.sourceforge.net/DTD/sodipodi-0.dtd"
   xmlns:inkscape="http://www.inkscape.org/namespaces/inkscape"
   class="ionicon"
   viewBox="0 0 512 512"
   version="1.1"
   id="svg8"
   sodipodi:docname="eye-off.svg"
   inkscape:version="1.0.2 (e86c8708, 2021-01-15)">
  <metadata
     id="metadata14">
    <rdf:RDF>
      <cc:Work
         rdf:about="">
        <dc:format>image/svg+xml</dc:format>
        <dc:type
           rdf:resource="http://purl.org/dc/dcmitype/StillImage" />
      </cc:Work>
    </rdf:RDF>
  </metadata>
  <defs
     id="defs12" />
  <sodipodi:namedview
     pagecolor="#ffffff"
     bordercolor="#666666"
     borderopacity="1"
     objecttolerance="10"
     gridtolerance="10"
     guidetolerance="10"
     inkscape:pageopacity="0"
     inkscape:pageshadow="2"
     inkscape:window-width="689"
     inkscape:window-height="480"
     id="namedview10"
     showgrid="false"
     inkscape:zoom="1.3027344"
     inkscape:cx="256"
     inkscape:cy="256"
     inkscape:window-x="44"
     inkscape:window-y="25"
     inkscape:window-maximized="0"
     inkscape:current-layer="svg8" />
  <title
     id="title2">Eye Off</title>
  <path
     style="color:#000000;font-style:normal;font-variant:normal;font-weight:normal;font-stretch:normal;font-size:medium;line-height:normal;font-family:sans-serif;font-variant-ligatures:normal;font-variant-position:normal;font-variant-caps:normal;font-variant-numeric:normal;font-variant-alternates:normal;font-variant-east-asian:normal;font-feature-settings:normal;font-variation-settings:normal;text-indent:0;text-align:start;text-decoration:none;text-decoration-line:none;text-decoration-style:solid;text-decoration-color:#000000;letter-spacing:normal;word-spacing:normal;text-transform:none;writing-mode:lr-tb;direction:ltr;text-orientation:mixed;dominant-baseline:auto;baseline-shift:baseline;text-anchor:start;white-space:normal;shape-padding:0;shape-margin:0;inline-size:0;clip-rule:nonzero;display:inline;overflow:visible;visibility:visible;isolation:auto;mix-blend-mode:normal;color-interpolation:sRGB;color-interpolation-filters:linearRGB;solid-color:#000000;solid-opacity:1;vector-effect:none;fill:#000000;fill-opacity:1;fill-rule:nonzero;stroke-width:1;stroke-linecap:butt;stroke-linejoin:miter;stroke-miterlimit:4;stroke-dasharray:none;stroke-dashoffset:0;stroke-opacity:1;color-rendering:auto;image-rendering:auto;shape-rendering:auto;text-rendering:auto;enable-background:accumulate;stop-color:#000000;stop-opacity:1;stroke:none;opacity:1"
     d="m 432,448 c -4.24447,0.007 -8.31595,-1.68148 -11.31,-4.69 l -352,-352 C 62.713534,85.019368 62.840394,75.111507 68.975951,68.975951 75.111507,62.840394 85.019368,62.713534 91.31,68.69 l 352,352 C 453.38182,430.76842 446.24837,447.9934 432,448 Z M 248,315.85 196.21,264.06 c -1.35705,-1.34576 -3.64791,-0.20371 -3.39,1.69 4.29025,27.57026 25.91974,49.19975 53.49,53.49 1.89371,0.25791 3.03576,-2.03295 1.69,-3.39 z m 16,-119.7 51.87,51.85 c 1.35598,1.36697 3.67101,0.21626 3.4,-1.69 -4.27956,-27.60906 -25.94094,-49.27044 -53.55,-53.55 -1.91018,-0.29471 -3.08588,2.02252 -1.72,3.39 z"
     id="path4" />
  <path
     style="color:#000000;font-style:normal;font-variant:normal;font-weight:normal;font-stretch:normal;font-size:medium;line-height:normal;font-family:sans-serif;font-variant-ligatures:normal;font-variant-position:normal;font-variant-caps:normal;font-variant-numeric:normal;font-variant-alternates:normal;font-variant-east-asian:normal;font-feature-settings:normal;font-variation-settings:normal;text-indent:0;text-align:start;text-decoration:none;text-decoration-line:none;text-decoration-style:solid;text-decoration-color:#000000;letter-spacing:normal;word-spacing:normal;text-transform:none;writing-mode:lr-tb;direction:ltr;text-orientation:mixed;dominant-baseline:auto;baseline-shift:baseline;text-anchor:start;white-space:normal;shape-padding:0;shape-margin:0;inline-size:0;clip-rule:nonzero;display:inline;overflow:visible;visibility:visible;isolation:auto;mix-blend-mode:normal;color-interpolation:sRGB;color-interpolation-filters:linearRGB;solid-color:#000000;solid-opacity:1;vector-effect:none;fill:#000000;fill-opacity:1;fill-rule:nonzero;stroke-width:1;stroke-linecap:butt;stroke-linejoin:miter;stroke-miterlimit:4;stroke-dasharray:none;stroke-dashoffset:0;stroke-opacity:1;color-rendering:auto;image-rendering:auto;shape-rendering:auto;text-rendering:auto;enable-background:accumulate;stop-color:#000000;stop-opacity:1;stroke:none;opacity:1"
     d="m 491,273.36 c 6.76057,-10.61113 6.72151,-24.18794 -0.1,-34.76 C 464.44,197.68 430.11,162.92 391.63,138.07 349,110.55 302,96 255.68,96 c -24.41897,0.03354 -48.67189,4.01491 -71.82,11.79 -2.82618,0.93999 -3.67052,4.52844 -1.56,6.63 l 47.24,47.24 c 0.99842,1.00027 2.45059,1.39942 3.82,1.05 32.56494,-7.93594 66.91108,1.68735 90.61187,25.38813 23.70078,23.70079 33.32407,58.04693 25.38813,90.61187 -0.34563,1.36629 0.0532,2.81366 1.05,3.81 l 67.95,68 c 1.46548,1.46808 3.81006,1.57228 5.4,0.24 26.1559,-22.29425 48.82119,-48.38428 67.24,-77.4 z M 256,352 c -62.17957,0.003 -107.95754,-58.20272 -93.3,-118.63 0.34563,-1.36629 -0.0532,-2.81366 -1.05,-3.81 L 94.81,162.69 c -1.469446,-1.47115 -3.820993,-1.57112 -5.41,-0.23 -24.39,20.81 -47,46.13 -67.67,75.72 -7.399955,10.62098 -7.652758,24.65947 -0.64,35.54 26.41,41.33 60.39,76.14 98.28,100.65 42.69,27.63 88.55,41.63 136.31,41.63 24.66526,-0.0662 49.17063,-3.96264 72.64,-11.55 2.8542,-0.91175 3.72964,-4.52225 1.61,-6.64 l -47.47,-47.46 c -0.99634,-0.99676 -2.44371,-1.39563 -3.81,-1.05 -7.41587,1.79696 -15.01953,2.70336 -22.65,2.7 z"
     id="path6" />
</svg>
