<?xml version="1.0" encoding="UTF-8" standalone="no"?>
<svg
   xmlns:dc="http://purl.org/dc/elements/1.1/"
   xmlns:cc="http://creativecommons.org/ns#"
   xmlns:rdf="http://www.w3.org/1999/02/22-rdf-syntax-ns#"
   xmlns:svg="http://www.w3.org/2000/svg"
   xmlns="http://www.w3.org/2000/svg"
   xmlns:sodipodi="http://sodipodi.sourceforge.net/DTD/sodipodi-0.dtd"
   xmlns:inkscape="http://www.inkscape.org/namespaces/inkscape"
   class="ionicon"
   viewBox="0 0 512 512"
   version="1.1"
   id="svg6"
   sodipodi:docname="eyedrop.svg"
   inkscape:version="1.0.2 (e86c8708, 2021-01-15)">
  <metadata
     id="metadata12">
    <rdf:RDF>
      <cc:Work
         rdf:about="">
        <dc:format>image/svg+xml</dc:format>
        <dc:type
           rdf:resource="http://purl.org/dc/dcmitype/StillImage" />
      </cc:Work>
    </rdf:RDF>
  </metadata>
  <defs
     id="defs10" />
  <sodipodi:namedview
     pagecolor="#ffffff"
     bordercolor="#666666"
     borderopacity="1"
     objecttolerance="10"
     gridtolerance="10"
     guidetolerance="10"
     inkscape:pageopacity="0"
     inkscape:pageshadow="2"
     inkscape:window-width="689"
     inkscape:window-height="480"
     id="namedview8"
     showgrid="false"
     inkscape:zoom="1.3027344"
     inkscape:cx="256"
     inkscape:cy="256"
     inkscape:window-x="44"
     inkscape:window-y="25"
     inkscape:window-maximized="0"
     inkscape:current-layer="svg6" />
  <title
     id="title2">Eyedrop</title>
  <path
     style="color:#000000;font-style:normal;font-variant:normal;font-weight:normal;font-stretch:normal;font-size:medium;line-height:normal;font-family:sans-serif;font-variant-ligatures:normal;font-variant-position:normal;font-variant-caps:normal;font-variant-numeric:normal;font-variant-alternates:normal;font-variant-east-asian:normal;font-feature-settings:normal;font-variation-settings:normal;text-indent:0;text-align:start;text-decoration:none;text-decoration-line:none;text-decoration-style:solid;text-decoration-color:#000000;letter-spacing:normal;word-spacing:normal;text-transform:none;writing-mode:lr-tb;direction:ltr;text-orientation:mixed;dominant-baseline:auto;baseline-shift:baseline;text-anchor:start;white-space:normal;shape-padding:0;shape-margin:0;inline-size:0;clip-rule:nonzero;display:inline;overflow:visible;visibility:visible;isolation:auto;mix-blend-mode:normal;color-interpolation:sRGB;color-interpolation-filters:linearRGB;solid-color:#000000;solid-opacity:1;vector-effect:none;fill:#000000;fill-opacity:1;fill-rule:nonzero;stroke-width:1;stroke-linecap:butt;stroke-linejoin:miter;stroke-miterlimit:4;stroke-dasharray:none;stroke-dashoffset:0;stroke-opacity:1;color-rendering:auto;image-rendering:auto;shape-rendering:auto;text-rendering:auto;enable-background:accumulate;stop-color:#000000;stop-opacity:1;stroke:none;opacity:1"
     d="M 461.05,51 C 448.91573,38.885634 432.48629,32.056505 415.34,32 h -0.76 c -16.78728,0.126267 -32.80107,7.075446 -44.36,19.25 -0.38309,0.393306 -0.74049,0.810834 -1.07,1.25 l -54,69.76 c -5.62,7.1 -12.74,8.68 -16.78,4.64 l -1.9,-1.9 c -18.7556,-18.7556 -49.1644,-18.75557 -67.91999,1e-5 C 209.79443,143.7556 209.7944,174.1644 228.55,192.92 l 9.91,9.91 c 0.7821,0.78123 0.7821,2.04877 0,2.83 L 58.7,385.38 C 54,390.05 46.9,399.85 38.85,431 c -4.06,15.71 -6.51,29.66 -6.61,30.24 -1.714696,9.79126 5.819733,18.75991 15.76,18.76 0.88463,0.001 1.767782,-0.0723 2.64,-0.22 0.58,-0.1 14.44,-2.43 30.13,-6.44 31.07,-7.94 41.05,-15.24 45.85,-20 L 306.39,273.55 c 0.78007,-0.77545 2.03993,-0.77545 2.82,0 l 9.92,9.92 c 18.75836,18.7556 49.1694,18.75334 67.92499,-0.005 C 405.81057,264.70663 405.80836,234.2956 387.05,215.54 L 385.46,214 c -5,-5 -2.52,-12.11 4.32,-17.14 l 69.75,-53.94 c 0.51403,-0.41248 1.00479,-0.85315 1.47,-1.32 12.10833,-11.8474 18.95357,-28.05981 19,-45 0.0512,-17.125656 -6.77621,-33.554692 -18.95,-45.6 z M 250.78,283.9 c -2.92,2.92 -16.18,7.92 -23.39,0.71 -7.21,-7.21 -2.24,-20.42 0.69,-23.35 l 33,-33 c 0.78123,-0.7821 2.04877,-0.7821 2.83,0 l 19.84,19.83 c 0.7821,0.78123 0.7821,2.04877 0,2.83 z"
     id="path4" />
</svg>
