<?xml version="1.0" encoding="UTF-8"?>
<svg width="512px" height="512px" viewBox="0 0 512 512" version="1.1" xmlns="http://www.w3.org/2000/svg" xmlns:xlink="http://www.w3.org/1999/xlink">
    <!-- Generator: Sketch 62 (91390) - https://sketch.com -->
    <title>Artboard</title>
    <desc>Created with Sketch.</desc>
    <g id="Artboard" stroke="none" stroke-width="1" fill="none" fill-rule="evenodd">
        <g id="eyedrop-outline" transform="translate(31.000000, 32.000000)" fill="#000000" fill-rule="nonzero">
            <path d="M430.2,19.2 C442.5,31.5 449.2,47.7 449.101103,64.8 C449.101103,81.8 442.3,97.7 430.1,109.8 C429.6,110.3 429.2,110.7 428.6,111.1 L358.9,165 C353.661661,170.797095 353.935752,178.204015 354.577409,182.178111 L356,183.6 C374.7,202.3 374.7,232.8 356,251.5 C346.7,260.8 334.4,265.5 322.1,265.5 C309.8,265.5 297.5,260.8 288.1,251.5 L276.749615,240.14977 L95.6,421.3 C90.8,426.1 80.8,433.4 49.7,441.3 C34,445.3 20.2,447.6 19.6,447.7 C18.8,447.9 17.9,448 17,448 C12.8,448 8.7,446.3 5.6,443.3 C1.9,439.6 0.3,434.4 1.2,429.3 C1.3,428.7 3.7,414.8 7.8,399.1 C15.72,368.212 22.85592,358.29814 27.4612218,353.639576 L208.849615,172.24977 L197.5,160.9 C178.8,142.2 178.8,111.7 197.5,93 C216.2,74.3 246.7,74.3 265.4,93 L267.314589,94.9155794 C271.075955,95.6943924 277.982884,95.9863866 284.2,90.3 L338.2,20.6 C338.5,20.2 338.9,19.8 339.3,19.4 C350.9,7.2 366.7,0.4 383.7,0.2 C401,-9.99755834e-14 417.9,6.9 430.2,19.2 Z M231.449615,194.84977 L51.8337357,374.466862 C49.7398943,378.299489 43.8548209,390.654821 51.1,397.9 C58.3475704,405.14757 70.7086668,399.25622 74.5369296,397.164192 L254.149615,217.54977 L231.449615,194.84977 Z M231.5,110.9 C227.4,110.9 223.3,112.5 220.2,115.6 C214,121.8 214,132 220.2,138.3 L310.8,228.9 C317.1,235.1 327.2,235.2 333.5,228.9 C339.7,222.7 339.7,212.5 333.5,206.2 L329.379603,202.081214 C328.889692,201.648596 328.424759,201.18431 327.988336,200.689969 L242.9,115.6 C239.7,112.5 235.6,110.9 231.5,110.9 Z M383.9,32.1 C375.9,32.2 368.4,35.3 362.8,40.9 L308.7,110.8 C308.3,111.3 307.8,111.8 307.4,112.3 C303.216976,116.483024 298.784539,119.610844 294.293871,121.895648 L327.281787,154.883293 C329.522001,150.2669 332.618693,145.758077 336.8,141.6 C337.3,141.1 337.8,140.7 338.3,140.3 L408.1,86.3 C413.8,80.3 417,72.7 417,64.6 C417,56 413.6,47.9 407.4,41.7 C401.2,35.5 392.6,32 383.9,32.1 Z" id="Combined-Shape"></path>
        </g>
    </g>
</svg>