<?xml version="1.0" encoding="utf-8"?>
<!-- Generator: Adobe Illustrator 24.0.0, SVG Export Plug-In . SVG Version: 6.00 Build 0)  -->
<svg version="1.1" id="Layer_1" xmlns="http://www.w3.org/2000/svg" xmlns:xlink="http://www.w3.org/1999/xlink" x="0px" y="0px"
	 viewBox="0 0 512 512" style="enable-background:new 0 0 512 512;" xml:space="preserve">
<title>ionicons-v5-l</title>
<g>
	<path d="M266,496H134c-21.5,0-40.5-8.7-53.6-24.5C68.5,457.1,62,437.4,62,416c0-8.8,7.2-16,16-16s16,7.2,16,16
		c0,35.4,21.5,48,40,48h132c18.5,0,40-12.6,40-48c0-8.8,7.2-16,16-16s16,7.2,16,16c0,21.4-6.5,41.1-18.4,55.5
		C306.5,487.3,287.5,496,266,496z"/>
</g>
<g>
	<path d="M336,432H64c-26.5,0-48-25.1-48-56s21.5-56,48-56c8.8,0,16,7.2,16,16s-7.2,16-16,16c-8.5,0-16,11.2-16,24s7.5,24,16,24h272
		c8.5,0,16-11.2,16-24s-7.5-24-16-24c-8.8,0-16-7.2-16-16s7.2-16,16-16c26.5,0,48,25.1,48,56S362.5,432,336,432z"/>
</g>
<g>
	<path d="M144,382.3c-4.6,0-9-1.6-12.5-4.4l-0.5-0.3L105.4,352H56c-22.1,0-40-17.9-40-40s17.9-40,40-40h288c22.1,0,40,17.9,40,40
		s-17.9,40-40,40H182.6l-24.5,24.5C154.4,380.3,149.4,382.3,144,382.3C144,382.3,144,382.3,144,382.3z M56,304c-4.4,0-8,3.6-8,8
		s3.6,8,8,8h52.7c6.4,0,12.4,2.5,17,7l18.4,18.4l18.3-18.3c4.5-4.5,10.6-7,17-7H344c4.4,0,8-3.6,8-8s-3.6-8-8-8H56z"/>
</g>
<g>
	<path d="M64,292c-8.8,0-16-7.2-16-16v-0.2c0-59.7,46.6-99.8,116-99.8h72c31.9,0,59.7,8.6,80.5,24.8c23.2,18.1,35.4,43.9,35.5,74.9
		c0,0,0,0.1,0,0.1v0.2h-32c0-21.2-7.8-38-23.2-50c-14.9-11.6-36.5-18-60.8-18h-72c-24.3,0-45.9,6.4-60.8,17.9
		C87.8,237.8,80,254.6,80,275.8v0.2C80,284.8,72.8,292,64,292z"/>
</g>
<g>
	<path d="M248.4,192c-8,0-14.9-6-15.9-14.2l-7.4-64c-1-8.8,5.3-16.7,14-17.7c8.8-1,16.7,5.3,17.7,14l7.4,64c1,8.8-5.3,16.7-14,17.7
		C249.7,191.9,249,192,248.4,192z"/>
</g>
<g>
	<path d="M395.3,496H256c-8.8,0-16-7.2-16-16s7.2-16,16-16h139.3c8.3,0,15.3-6.5,16-14.8l0-0.5l35.8-338.4
		c0.9-8.8,8.8-15.2,17.6-14.2c8.8,0.9,15.2,8.8,14.2,17.6l-35.8,338.2C441.2,476.6,420.2,496,395.3,496z"/>
</g>
<g>
	<path d="M368,128c-1.3,0-2.6-0.2-3.9-0.5c-8.6-2.1-13.8-10.8-11.6-19.4l16-64c1.3-5.3,5.2-9.5,10.4-11.3l47-16
		c8.4-2.8,17.5,1.6,20.3,10c2.8,8.4-1.6,17.5-10,20.3l-38.7,13.2l-13.9,55.5C381.7,123.2,375.2,128,368,128z"/>
</g>
<g>
	<path d="M480,128H224c-8.8,0-16-7.2-16-16s7.2-16,16-16h256c8.8,0,16,7.2,16,16S488.8,128,480,128z"/>
</g>
</svg>
