<?xml version="1.0" encoding="UTF-8" standalone="no"?>
<svg
   xmlns:dc="http://purl.org/dc/elements/1.1/"
   xmlns:cc="http://creativecommons.org/ns#"
   xmlns:rdf="http://www.w3.org/1999/02/22-rdf-syntax-ns#"
   xmlns:svg="http://www.w3.org/2000/svg"
   xmlns="http://www.w3.org/2000/svg"
   xmlns:sodipodi="http://sodipodi.sourceforge.net/DTD/sodipodi-0.dtd"
   xmlns:inkscape="http://www.inkscape.org/namespaces/inkscape"
   class="ionicon"
   viewBox="0 0 512 512"
   version="1.1"
   id="svg8"
   sodipodi:docname="fast-food.svg"
   inkscape:version="1.0.2 (e86c8708, 2021-01-15)">
  <metadata
     id="metadata14">
    <rdf:RDF>
      <cc:Work
         rdf:about="">
        <dc:format>image/svg+xml</dc:format>
        <dc:type
           rdf:resource="http://purl.org/dc/dcmitype/StillImage" />
      </cc:Work>
    </rdf:RDF>
  </metadata>
  <defs
     id="defs12" />
  <sodipodi:namedview
     pagecolor="#ffffff"
     bordercolor="#666666"
     borderopacity="1"
     objecttolerance="10"
     gridtolerance="10"
     guidetolerance="10"
     inkscape:pageopacity="0"
     inkscape:pageshadow="2"
     inkscape:window-width="689"
     inkscape:window-height="480"
     id="namedview10"
     showgrid="false"
     inkscape:zoom="1.3027344"
     inkscape:cx="256"
     inkscape:cy="256"
     inkscape:window-x="44"
     inkscape:window-y="25"
     inkscape:window-maximized="0"
     inkscape:current-layer="svg8" />
  <title
     id="title2">Fast Food</title>
  <path
     style="color:#000000;font-style:normal;font-variant:normal;font-weight:normal;font-stretch:normal;font-size:medium;line-height:normal;font-family:sans-serif;font-variant-ligatures:normal;font-variant-position:normal;font-variant-caps:normal;font-variant-numeric:normal;font-variant-alternates:normal;font-variant-east-asian:normal;font-feature-settings:normal;font-variation-settings:normal;text-indent:0;text-align:start;text-decoration:none;text-decoration-line:none;text-decoration-style:solid;text-decoration-color:#000000;letter-spacing:normal;word-spacing:normal;text-transform:none;writing-mode:lr-tb;direction:ltr;text-orientation:mixed;dominant-baseline:auto;baseline-shift:baseline;text-anchor:start;white-space:normal;shape-padding:0;shape-margin:0;inline-size:0;clip-rule:nonzero;display:inline;overflow:visible;visibility:visible;isolation:auto;mix-blend-mode:normal;color-interpolation:sRGB;color-interpolation-filters:linearRGB;solid-color:#000000;solid-opacity:1;vector-effect:none;fill:#000000;fill-opacity:1;fill-rule:nonzero;stroke-width:1;stroke-linecap:butt;stroke-linejoin:miter;stroke-miterlimit:4;stroke-dasharray:none;stroke-dashoffset:0;stroke-opacity:1;color-rendering:auto;image-rendering:auto;shape-rendering:auto;text-rendering:auto;enable-background:accumulate;stop-color:#000000;stop-opacity:1;stroke:none;opacity:1"
     d="m 368,128 h 0.09 M 479.55,96 h -91.06 l 8.92,-35.66 38.32,-13.05 c 8.15,-2.77 13,-11.43 10.65,-19.71 -2.52292,-8.788691 -11.88512,-13.679462 -20.54,-10.73 l -47,16 c -5.14301,1.753753 -9.04442,5.997861 -10.36,11.27 L 355.51,96 H 224.45 c -8.61,0 -16,6.62 -16.43,15.23 -0.43978,9.12773 6.84168,16.76917 15.98,16.77 h 2.75 l 1,8.66 c 0.48749,4.18646 4.03525,7.3429 8.25,7.34 39,0 73.66,10.9 100.12,31.52 14.71737,11.33988 26.64789,25.89388 34.88,42.55 4.60817,9.36893 8.00867,19.28482 10.12,29.51 0.42033,1.99261 1.60045,3.74307 3.29,4.88 28.0289,19.01824 39.01162,55.00143 26.38,86.43 -0.71308,1.76538 -0.76633,3.72856 -0.15,5.53 3.54263,10.15221 5.35451,20.82744 5.36,31.58 0,22.34 -7.6,43.63 -21.4,59.95 -7.82389,9.31447 -17.66601,16.72512 -28.78,21.67 -1.92276,0.84728 -3.435,2.41699 -4.21,4.37 -4.15334,10.81942 -10.01808,20.90124 -17.37,29.86 -1.36503,1.6215 -0.21954,4.09937 1.9,4.11 h 49.21 c 24.97386,-0.10209 45.7371,-19.25547 47.85,-44.14 L 477.4,128 h 2.6 c 9.14621,0.0106 16.44017,-7.63438 16,-16.77 C 495.58,102.62 488.16,96 479.55,96 Z"
     id="path4" />
  <path
     style="color:#000000;font-style:normal;font-variant:normal;font-weight:normal;font-stretch:normal;font-size:medium;line-height:normal;font-family:sans-serif;font-variant-ligatures:normal;font-variant-position:normal;font-variant-caps:normal;font-variant-numeric:normal;font-variant-alternates:normal;font-variant-east-asian:normal;font-feature-settings:normal;font-variation-settings:normal;text-indent:0;text-align:start;text-decoration:none;text-decoration-line:none;text-decoration-style:solid;text-decoration-color:#000000;letter-spacing:normal;word-spacing:normal;text-transform:none;writing-mode:lr-tb;direction:ltr;text-orientation:mixed;dominant-baseline:auto;baseline-shift:baseline;text-anchor:start;white-space:normal;shape-padding:0;shape-margin:0;inline-size:0;clip-rule:nonzero;display:inline;overflow:visible;visibility:visible;isolation:auto;mix-blend-mode:normal;color-interpolation:sRGB;color-interpolation-filters:linearRGB;solid-color:#000000;solid-opacity:1;vector-effect:none;fill:#000000;fill-opacity:1;fill-rule:nonzero;stroke-width:1;stroke-linecap:butt;stroke-linejoin:miter;stroke-miterlimit:4;stroke-dasharray:none;stroke-dashoffset:0;stroke-opacity:1;color-rendering:auto;image-rendering:auto;shape-rendering:auto;text-rendering:auto;enable-background:accumulate;stop-color:#000000;stop-opacity:1;stroke:none;opacity:1"
     d="m 108.69,320 c 6.37399,-0.03 12.49524,2.49048 17,7 l 15.51,15.51 c 1.56246,1.5642 4.09754,1.5642 5.66,0 L 162.34,327 c 4.50476,-4.50952 10.62601,-7.03003 17,-7 h 196.58 c 4.41837,0.0444 8.03604,-3.50163 8.08,-7.92 V 312 c -0.0232,-19.00108 -13.38824,-35.37324 -32,-39.2 -0.82,-29.69 -13,-54.54 -35.51,-72 C 295.67,184.56 267.85,176 236,176 h -72 c -68.22,0 -114.43,38.77 -116,96.8 -18.611759,3.82676 -31.976786,20.19892 -32,39.2 0,4.41828 3.581722,8 8,8 z m 77.25,32 c -2.12237,-0.002 -4.15842,0.84009 -5.66,2.34 l -22.14,22.15 c -7.81,7.80764 -20.47,7.80764 -28.28,0 l -22.14,-22.15 c -1.50158,-1.49991 -3.53763,-2.34167 -5.66,-2.34 h -69.4 c -7.759867,-0.0345 -14.415604,5.5274 -15.76,13.17 -0.600761,3.57868 -0.901806,7.20125 -0.9,10.83 0,30.59 21.13,55.51 47.26,56 2.43,15.12 8.31,28.78 17.16,39.47 C 93.51,487.28 112.54,496 134,496 h 132 c 21.46,0 40.49,-8.72 53.58,-24.55 8.85,-10.69 14.73,-24.35 17.16,-39.47 26.13,-0.47 47.26,-25.39 47.26,-56 0.002,-3.62875 -0.29924,-7.25132 -0.9,-10.83 -1.35303,-7.63464 -8.00647,-13.18622 -15.76,-13.15 z"
     id="path6" />
</svg>
