<?xml version="1.0" encoding="utf-8"?>
<!-- Generator: Adobe Illustrator 24.0.0, SVG Export Plug-In . SVG Version: 6.00 Build 0)  -->
<svg version="1.1" id="Layer_1" xmlns="http://www.w3.org/2000/svg" xmlns:xlink="http://www.w3.org/1999/xlink" x="0px" y="0px"
	 viewBox="0 0 512 512" style="enable-background:new 0 0 512 512;" xml:space="preserve">
<title>female-outline</title>
<g>
	<path d="M256,352c-92.6,0-168-75.4-168-168S163.4,16,256,16s168,75.4,168,168S348.6,352,256,352z M256,48c-75,0-136,61-136,136
		c0,75,61,136,136,136c75,0,136-61,136-136C392,109,331,48,256,48z"/>
</g>
<g>
	<path d="M256,496c-8.8,0-16-7.2-16-16V336c0-8.8,7.2-16,16-16c8.8,0,16,7.2,16,16v144C272,488.8,264.8,496,256,496z"/>
</g>
<g>
	<path d="M314,432H198c-8.8,0-16-7.2-16-16s7.2-16,16-16h116c8.8,0,16,7.2,16,16S322.8,432,314,432z"/>
</g>
</svg>
