<?xml version="1.0" encoding="UTF-8"?>
<svg width="512px" height="512px" viewBox="0 0 512 512" version="1.1" xmlns="http://www.w3.org/2000/svg" xmlns:xlink="http://www.w3.org/1999/xlink">
    <!-- Generator: Sketch 62 (91390) - https://sketch.com -->
    <title>Artboard</title>
    <desc>Created with Sketch.</desc>
    <g id="Artboard" stroke="none" stroke-width="1" fill="none" fill-rule="evenodd">
        <g id="file-tray-stacked-outline" transform="translate(32.000000, 16.000000)" fill="#000000" fill-rule="nonzero">
            <path d="M352,0 C385.5,0 409.3,19.6 415.6,52.4 L447.158662,170.891131 C447.703994,172.497187 448,174.215704 448,176 C448,176.600156 447.966512,177.192869 447.901311,177.776365 L447.9,271.9 C447.865236,284.136808 444.374129,295.588082 438.355149,305.325353 C443.926219,307.754983 447.872064,313.27432 447.996948,319.686404 L448,320 L448,416 C447.9,451.2 419.2,479.9 384,480 L64,480 C28.8,479.9 0.1,451.2 0,416 L0,320 C0,313.503606 3.92384466,307.879178 9.51855578,305.379694 C3.51538358,295.653654 0.0347114014,284.218413 0,272 L0,176 C0,175.199716 0.0595463612,174.412665 0.174427241,173.643058 C0.25820253,173.048456 0.369663743,172.46479 0.5,171.9 L32.4,52.4 C35.7,36 42.9,23.1 53.9,13.9 C65,4.7 79.2,0 96,0 L352,0 Z M145.608766,336.00154 L32,336 L32,416 C32.1,433.6 46.4,447.9 64,448 L384,448 C401.6,447.9 415.9,433.6 416,416 L416,336 L302.391234,336.00154 C294.954519,372.464998 262.621926,400 224,400 C185.378074,400 153.045481,372.464998 145.608766,336.00154 Z M269.301316,335.900753 L178.698684,335.900753 C185.263241,354.591444 203.072486,368 224,368 C244.927514,368 262.736759,354.591444 269.301316,335.900753 Z M224,256 C185.378074,256 153.045481,228.464998 145.608766,192.00154 L32,192 L32,272 C32.1,289.6 46.4,303.9 64,304 L384,304 C401.6,303.9 415.9,289.6 416,272 L416,192 L302.391234,192.00154 C294.954519,228.464998 262.621926,256 224,256 Z M352,32 L96,32 C77.5,32 67.3,40.6 63.7,59 C63.6,59.4 63.5,59.7 63.4,60.1 L36.816,160 L160,160 L160,160 C168.8,160 176,167.2 176,176 C176,202.5 197.5,224 224,224 C250.5,224 272,202.5 272,176 C272,167.2 279.2,160 288,160 L411.168,160 L384.5,60.1 L384.2,58.9 L384.2,58.9 C380.9,40.6 370.6,32 352,32 Z" id="Combined-Shape"></path>
        </g>
    </g>
</svg>