<?xml version="1.0" encoding="UTF-8" standalone="no"?>
<svg
   xmlns:dc="http://purl.org/dc/elements/1.1/"
   xmlns:cc="http://creativecommons.org/ns#"
   xmlns:rdf="http://www.w3.org/1999/02/22-rdf-syntax-ns#"
   xmlns:svg="http://www.w3.org/2000/svg"
   xmlns="http://www.w3.org/2000/svg"
   xmlns:sodipodi="http://sodipodi.sourceforge.net/DTD/sodipodi-0.dtd"
   xmlns:inkscape="http://www.inkscape.org/namespaces/inkscape"
   class="ionicon"
   viewBox="0 0 512 512"
   version="1.1"
   id="svg8"
   sodipodi:docname="file-tray-full-outline.svg"
   inkscape:version="1.0.2 (e86c8708, 2021-01-15)">
  <metadata
     id="metadata14">
    <rdf:RDF>
      <cc:Work
         rdf:about="">
        <dc:format>image/svg+xml</dc:format>
        <dc:type
           rdf:resource="http://purl.org/dc/dcmitype/StillImage" />
      </cc:Work>
    </rdf:RDF>
  </metadata>
  <defs
     id="defs12" />
  <sodipodi:namedview
     pagecolor="#ffffff"
     bordercolor="#666666"
     borderopacity="1"
     objecttolerance="10"
     gridtolerance="10"
     guidetolerance="10"
     inkscape:pageopacity="0"
     inkscape:pageshadow="2"
     inkscape:window-width="689"
     inkscape:window-height="480"
     id="namedview10"
     showgrid="false"
     inkscape:zoom="1.3027344"
     inkscape:cx="256"
     inkscape:cy="256"
     inkscape:window-x="44"
     inkscape:window-y="25"
     inkscape:window-maximized="0"
     inkscape:current-layer="svg8" />
  <title
     id="title2">File Tray Full</title>
  <path
     style="color:#000000;font-style:normal;font-variant:normal;font-weight:normal;font-stretch:normal;font-size:medium;line-height:normal;font-family:sans-serif;font-variant-ligatures:normal;font-variant-position:normal;font-variant-caps:normal;font-variant-numeric:normal;font-variant-alternates:normal;font-variant-east-asian:normal;font-feature-settings:normal;font-variation-settings:normal;text-indent:0;text-align:start;text-decoration:none;text-decoration-line:none;text-decoration-style:solid;text-decoration-color:#000000;letter-spacing:normal;word-spacing:normal;text-transform:none;writing-mode:lr-tb;direction:ltr;text-orientation:mixed;dominant-baseline:auto;baseline-shift:baseline;text-anchor:start;white-space:normal;shape-padding:0;shape-margin:0;inline-size:0;clip-rule:nonzero;display:inline;overflow:visible;visibility:visible;isolation:auto;mix-blend-mode:normal;color-interpolation:sRGB;color-interpolation-filters:linearRGB;solid-color:#000000;solid-opacity:1;vector-effect:none;fill:currentColor;fill-opacity:1;fill-rule:nonzero;stroke:none;stroke-linecap:butt;stroke-linejoin:round;stroke-miterlimit:4;stroke-dasharray:none;stroke-dashoffset:0;stroke-opacity:1;color-rendering:auto;image-rendering:auto;shape-rendering:auto;text-rendering:auto;enable-background:accumulate;stop-color:#000000;stop-opacity:1;opacity:1"
     d="M 128 64 C 112.12821 64 97.270043 68.497802 85.900391 77.943359 C 74.530738 87.388917 67.321593 101.1992 64.287109 116.97852 L 64.34375 116.70312 L 32.34375 268.70312 A 16.0016 16.0016 0 0 0 32 272 L 32 384 A 16.0016 16.0016 0 0 0 32 384.04688 C 32.101906 419.13878 60.861224 447.89809 95.953125 448 A 16.0016 16.0016 0 0 0 96 448 L 416 448 A 16.0016 16.0016 0 0 0 416.04688 448 C 451.13878 447.89809 479.89809 419.13878 480 384.04688 A 16.0016 16.0016 0 0 0 480 384 L 480 272 A 16.0016 16.0016 0 0 0 479.65625 268.70312 L 447.65625 116.70312 L 447.73242 117.08594 C 444.69018 100.65783 437.0665 86.674527 425.51758 77.400391 C 413.96865 68.126254 399.27333 64 384 64 L 128 64 z M 128 96 L 384 96 C 393.72667 96 400.53135 98.373746 405.48242 102.34961 C 410.4335 106.32547 414.30982 112.34217 416.26758 122.91406 A 16.0016 16.0016 0 0 0 416.34375 123.29688 L 448 273.66602 L 448 383.95312 C 447.94812 401.81673 433.81673 415.94812 415.95312 416 L 96.046875 416 C 78.18327 415.94812 64.051876 401.81673 64 383.95312 L 64 273.66602 L 95.65625 123.29688 A 16.0016 16.0016 0 0 0 95.712891 123.02148 C 97.678407 112.8008 101.46926 106.61108 106.34961 102.55664 C 111.22996 98.502198 117.87179 96 128 96 z "
     id="path4" />
  <path
     style="color:#000000;font-style:normal;font-variant:normal;font-weight:normal;font-stretch:normal;font-size:medium;line-height:normal;font-family:sans-serif;font-variant-ligatures:normal;font-variant-position:normal;font-variant-caps:normal;font-variant-numeric:normal;font-variant-alternates:normal;font-variant-east-asian:normal;font-feature-settings:normal;font-variation-settings:normal;text-indent:0;text-align:start;text-decoration:none;text-decoration-line:none;text-decoration-style:solid;text-decoration-color:#000000;letter-spacing:normal;word-spacing:normal;text-transform:none;writing-mode:lr-tb;direction:ltr;text-orientation:mixed;dominant-baseline:auto;baseline-shift:baseline;text-anchor:start;white-space:normal;shape-padding:0;shape-margin:0;inline-size:0;clip-rule:nonzero;display:inline;overflow:visible;visibility:visible;isolation:auto;mix-blend-mode:normal;color-interpolation:sRGB;color-interpolation-filters:linearRGB;solid-color:#000000;solid-opacity:1;vector-effect:none;fill:currentColor;fill-opacity:1;fill-rule:nonzero;stroke:none;stroke-linecap:round;stroke-linejoin:round;stroke-miterlimit:4;stroke-dasharray:none;stroke-dashoffset:0;stroke-opacity:1;color-rendering:auto;image-rendering:auto;shape-rendering:auto;text-rendering:auto;enable-background:accumulate;stop-color:#000000;stop-opacity:1;opacity:1"
     d="M 144 128 A 16 16 0 0 0 128 144 A 16 16 0 0 0 144 160 L 368 160 A 16 16 0 0 0 384 144 A 16 16 0 0 0 368 128 L 144 128 z M 128 192 A 16 16 0 0 0 112 208 A 16 16 0 0 0 128 224 L 384 224 A 16 16 0 0 0 400 208 A 16 16 0 0 0 384 192 L 128 192 z M 48 256 A 16 16 0 0 0 32 272 A 16 16 0 0 0 48 288 L 177.62305 288 C 185.09038 324.39718 217.48221 352 256 352 C 294.51779 352 326.90962 324.39718 334.37695 288 L 464 288 A 16 16 0 0 0 480 272 A 16 16 0 0 0 464 256 L 320 256 A 16 16 0 0 0 319.66406 256.00391 A 16 16 0 0 0 319.32812 256.01367 A 16 16 0 0 0 318.65625 256.05664 A 16 16 0 0 0 316.99023 256.28516 A 16 16 0 0 0 316.66211 256.35156 A 16 16 0 0 0 316.00586 256.50586 A 16 16 0 0 0 315.68164 256.59375 A 16 16 0 0 0 315.35938 256.6875 A 16 16 0 0 0 314.71875 256.89648 A 16 16 0 0 0 314.08984 257.13281 A 16 16 0 0 0 313.46875 257.39258 A 16 16 0 0 0 310.83789 258.88281 A 16 16 0 0 0 310.0293 259.48633 A 16 16 0 0 0 309.26172 260.13867 A 16 16 0 0 0 307.85547 261.58398 A 16 16 0 0 0 307.63867 261.8418 A 16 16 0 0 0 307.22266 262.37109 A 16 16 0 0 0 307.02344 262.64062 A 16 16 0 0 0 306.82812 262.91602 A 16 16 0 0 0 306.64062 263.19531 A 16 16 0 0 0 306.45898 263.47852 A 16 16 0 0 0 306.11328 264.05469 A 16 16 0 0 0 305.94922 264.34766 A 16 16 0 0 0 305.35547 265.55469 A 16 16 0 0 0 305.22266 265.86523 A 16 16 0 0 0 305.09766 266.17578 A 16 16 0 0 0 304.97852 266.49023 A 16 16 0 0 0 304.86523 266.80859 A 16 16 0 0 0 304.75977 267.12695 A 16 16 0 0 0 304.56836 267.77148 A 16 16 0 0 0 304.48242 268.09766 A 16 16 0 0 0 304.4043 268.42383 A 16 16 0 0 0 304.26758 269.08398 A 16 16 0 0 0 304.16016 269.74805 A 16 16 0 0 0 304.07812 270.41406 A 16 16 0 0 0 304.02539 271.08594 A 16 16 0 0 0 304.00977 271.42188 A 16 16 0 0 0 304.00195 271.75781 A 16 16 0 0 0 304 272 C 304 298.69921 282.6992 320 256 320 C 229.3008 320 208 298.69921 208 272 A 16 16 0 0 0 207.98633 271.32812 A 16 16 0 0 0 207.96875 270.99219 A 16 16 0 0 0 207.91211 270.32227 A 16 16 0 0 0 207.87305 269.98633 A 16 16 0 0 0 207.77344 269.32227 A 16 16 0 0 0 207.71484 268.99023 A 16 16 0 0 0 207.57422 268.33203 A 16 16 0 0 0 206.86719 266.08984 A 16 16 0 0 0 206.74023 265.77734 A 16 16 0 0 0 206.4668 265.16406 A 16 16 0 0 0 206.31836 264.86133 A 16 16 0 0 0 206.00586 264.26562 A 16 16 0 0 0 205.83984 263.97266 A 16 16 0 0 0 205.66797 263.68359 A 16 16 0 0 0 205.11719 262.83789 A 16 16 0 0 0 204.7207 262.29492 A 16 16 0 0 0 204.51367 262.0293 A 16 16 0 0 0 203.86133 261.26172 A 16 16 0 0 0 203.63281 261.01367 A 16 16 0 0 0 203.39844 260.77148 A 16 16 0 0 0 203.16016 260.53516 A 16 16 0 0 0 202.91797 260.30273 A 16 16 0 0 0 202.66797 260.07617 A 16 16 0 0 0 202.41602 259.85547 A 16 16 0 0 0 202.1582 259.63867 A 16 16 0 0 0 201.62891 259.22266 A 16 16 0 0 0 201.08398 258.82812 A 16 16 0 0 0 200.52148 258.45898 A 16 16 0 0 0 200.23633 258.2832 A 16 16 0 0 0 199.05469 257.63867 A 16 16 0 0 0 198.44531 257.35547 A 16 16 0 0 0 197.50977 256.97852 A 16 16 0 0 0 197.19141 256.86523 A 16 16 0 0 0 196.87305 256.75977 A 16 16 0 0 0 196.55078 256.66016 A 16 16 0 0 0 195.90234 256.48242 A 16 16 0 0 0 195.57617 256.4043 A 16 16 0 0 0 195.24609 256.33203 A 16 16 0 0 0 194.91602 256.26758 A 16 16 0 0 0 194.58594 256.21094 A 16 16 0 0 0 194.25195 256.16016 A 16 16 0 0 0 193.25 256.04883 A 16 16 0 0 0 192.91406 256.02539 A 16 16 0 0 0 192.57812 256.00977 A 16 16 0 0 0 192 256 L 48 256 z "
     id="path6" />
</svg>
