<?xml version="1.0" encoding="UTF-8"?>
<svg width="512px" height="512px" viewBox="0 0 512 512" version="1.1" xmlns="http://www.w3.org/2000/svg" xmlns:xlink="http://www.w3.org/1999/xlink">
    <!-- Generator: Sketch 62 (91390) - https://sketch.com -->
    <title>Artboard</title>
    <desc>Created with Sketch.</desc>
    <g id="Artboard" stroke="none" stroke-width="1" fill="none" fill-rule="evenodd">
        <g id="file-tray-outline" transform="translate(32.000000, 64.000000)" fill="#000000" fill-rule="nonzero">
            <path d="M352,0 C385.7,0 409.5,19.8 415.7,52.9 L447.7,204.7 C447.874303,205.658667 447.972652,206.617333 447.995047,207.576 C447.99539,207.612889 447.996232,207.649632 447.996948,207.686404 L448,208 L448,208 L448,320 C447.9,355.2 419.2,383.9 384,384 L64,384 C28.8,383.9 0.1,355.2 0,320 L0,208 C0,207.858303 0.00186676495,207.71702 0.00557691597,207.576176 L0,208 C0,206.9 0.1,205.8 0.3,204.7 L32.3,52.8 C35.5,36.2 42.8,23.1 53.9,13.9 C65,4.7 79.2,0 96,0 L352,0 Z M224,288 C185.378074,288 153.045481,260.464998 145.608766,224.00154 L32,224 L32,320 C32.1,337.6 46.4,351.9 64,352 L384,352 C401.6,351.9 415.9,337.6 416,320 L416,224 L302.391234,224.00154 C294.954519,260.464998 262.621926,288 224,288 Z M352,32 L96,32 C77.5,32 67.3,40.6 63.7,59 C63.7,59.1 63.7,59.2 63.6,59.3 L35.719,192 L160,192 L160,192 C168.8,192 176,199.2 176,208 C176,234.5 197.5,256 224,256 C250.5,256 272,234.5 272,208 C272,199.2 279.2,192 288,192 L412.269,192 L384.3,59.3 C384.3,59.2 384.2,59 384.2,58.9 C380.9,40.6 370.6,32 352,32 Z" id="Combined-Shape"></path>
        </g>
    </g>
</svg>