<?xml version="1.0" encoding="UTF-8" standalone="no"?>
<svg
   xmlns:dc="http://purl.org/dc/elements/1.1/"
   xmlns:cc="http://creativecommons.org/ns#"
   xmlns:rdf="http://www.w3.org/1999/02/22-rdf-syntax-ns#"
   xmlns:svg="http://www.w3.org/2000/svg"
   xmlns="http://www.w3.org/2000/svg"
   xmlns:sodipodi="http://sodipodi.sourceforge.net/DTD/sodipodi-0.dtd"
   xmlns:inkscape="http://www.inkscape.org/namespaces/inkscape"
   class="ionicon"
   viewBox="0 0 512 512"
   version="1.1"
   id="svg12"
   sodipodi:docname="file-tray-stacked-outline.svg"
   inkscape:version="1.0.2 (e86c8708, 2021-01-15)">
  <metadata
     id="metadata18">
    <rdf:RDF>
      <cc:Work
         rdf:about="">
        <dc:format>image/svg+xml</dc:format>
        <dc:type
           rdf:resource="http://purl.org/dc/dcmitype/StillImage" />
      </cc:Work>
    </rdf:RDF>
  </metadata>
  <defs
     id="defs16" />
  <sodipodi:namedview
     pagecolor="#ffffff"
     bordercolor="#666666"
     borderopacity="1"
     objecttolerance="10"
     gridtolerance="10"
     guidetolerance="10"
     inkscape:pageopacity="0"
     inkscape:pageshadow="2"
     inkscape:window-width="689"
     inkscape:window-height="480"
     id="namedview14"
     showgrid="false"
     inkscape:zoom="1.3027344"
     inkscape:cx="256"
     inkscape:cy="256"
     inkscape:window-x="44"
     inkscape:window-y="25"
     inkscape:window-maximized="0"
     inkscape:current-layer="svg12" />
  <title
     id="title2">File Tray Stacked</title>
  <path
     style="color:#000000;font-style:normal;font-variant:normal;font-weight:normal;font-stretch:normal;font-size:medium;line-height:normal;font-family:sans-serif;font-variant-ligatures:normal;font-variant-position:normal;font-variant-caps:normal;font-variant-numeric:normal;font-variant-alternates:normal;font-variant-east-asian:normal;font-feature-settings:normal;font-variation-settings:normal;text-indent:0;text-align:start;text-decoration:none;text-decoration-line:none;text-decoration-style:solid;text-decoration-color:#000000;letter-spacing:normal;word-spacing:normal;text-transform:none;writing-mode:lr-tb;direction:ltr;text-orientation:mixed;dominant-baseline:auto;baseline-shift:baseline;text-anchor:start;white-space:normal;shape-padding:0;shape-margin:0;inline-size:0;clip-rule:nonzero;display:inline;overflow:visible;visibility:visible;isolation:auto;mix-blend-mode:normal;color-interpolation:sRGB;color-interpolation-filters:linearRGB;solid-color:#000000;solid-opacity:1;vector-effect:none;fill:currentColor;fill-opacity:1;fill-rule:nonzero;stroke:none;stroke-linecap:butt;stroke-linejoin:round;stroke-miterlimit:4;stroke-dasharray:none;stroke-dashoffset:0;stroke-opacity:1;color-rendering:auto;image-rendering:auto;shape-rendering:auto;text-rendering:auto;enable-background:accumulate;stop-color:#000000;stop-opacity:1;opacity:1"
     d="M 32 336 L 32 432 A 16.0016 16.0016 0 0 0 32 432.04688 C 32.101906 467.13878 60.861224 495.89809 95.953125 496 A 16.0016 16.0016 0 0 0 96 496 L 416 496 A 16.0016 16.0016 0 0 0 416.04688 496 C 451.13878 495.89809 479.89809 467.13878 480 432.04688 A 16.0016 16.0016 0 0 0 480 432 L 480 336 L 448 336 L 448 431.95312 C 447.94812 449.81673 433.81673 463.94812 415.95312 464 L 96.046875 464 C 78.18327 463.94812 64.051876 449.81673 64 431.95312 L 64 336 L 32 336 z "
     id="path4" />
  <path
     style="color:#000000;font-style:normal;font-variant:normal;font-weight:normal;font-stretch:normal;font-size:medium;line-height:normal;font-family:sans-serif;font-variant-ligatures:normal;font-variant-position:normal;font-variant-caps:normal;font-variant-numeric:normal;font-variant-alternates:normal;font-variant-east-asian:normal;font-feature-settings:normal;font-variation-settings:normal;text-indent:0;text-align:start;text-decoration:none;text-decoration-line:none;text-decoration-style:solid;text-decoration-color:#000000;letter-spacing:normal;word-spacing:normal;text-transform:none;writing-mode:lr-tb;direction:ltr;text-orientation:mixed;dominant-baseline:auto;baseline-shift:baseline;text-anchor:start;white-space:normal;shape-padding:0;shape-margin:0;inline-size:0;clip-rule:nonzero;display:inline;overflow:visible;visibility:visible;isolation:auto;mix-blend-mode:normal;color-interpolation:sRGB;color-interpolation-filters:linearRGB;solid-color:#000000;solid-opacity:1;vector-effect:none;fill:currentColor;fill-opacity:1;fill-rule:nonzero;stroke:none;stroke-linecap:round;stroke-linejoin:round;stroke-miterlimit:4;stroke-dasharray:none;stroke-dashoffset:0;stroke-opacity:1;color-rendering:auto;image-rendering:auto;shape-rendering:auto;text-rendering:auto;enable-background:accumulate;stop-color:#000000;stop-opacity:1;opacity:1"
     d="M 48 320 A 16 16 0 0 0 32 336 A 16 16 0 0 0 48 352 L 177.62305 352 C 185.09038 388.39718 217.48221 416 256 416 C 294.51779 416 326.90962 388.39718 334.37695 352 L 464 352 A 16 16 0 0 0 480 336 A 16 16 0 0 0 464 320 L 320 320 A 16 16 0 0 0 319.66406 320.00391 A 16 16 0 0 0 319.32812 320.01367 A 16 16 0 0 0 318.65625 320.05664 A 16 16 0 0 0 317.98633 320.12695 A 16 16 0 0 0 317.6543 320.17383 A 16 16 0 0 0 316.99023 320.28516 A 16 16 0 0 0 316.66211 320.35156 A 16 16 0 0 0 316.33203 320.42578 A 16 16 0 0 0 314.08984 321.13281 A 16 16 0 0 0 313.46875 321.39258 A 16 16 0 0 0 312.86133 321.68164 A 16 16 0 0 0 312.5625 321.83398 A 16 16 0 0 0 311.68359 322.33203 A 16 16 0 0 0 310.83789 322.88281 A 16 16 0 0 0 310.0293 323.48633 A 16 16 0 0 0 309.76953 323.69727 A 16 16 0 0 0 309.51367 323.91602 A 16 16 0 0 0 309.01367 324.36719 A 16 16 0 0 0 308.53516 324.83984 A 16 16 0 0 0 308.30273 325.08203 A 16 16 0 0 0 307.42773 326.10352 A 16 16 0 0 0 307.22266 326.37109 A 16 16 0 0 0 306.82812 326.91602 A 16 16 0 0 0 306.2832 327.76367 A 16 16 0 0 0 306.11328 328.05469 A 16 16 0 0 0 305.35547 329.55469 A 16 16 0 0 0 305.22266 329.86523 A 16 16 0 0 0 304.97852 330.49023 A 16 16 0 0 0 304.48242 332.09766 A 16 16 0 0 0 304.16016 333.74805 A 16 16 0 0 0 304.07812 334.41406 A 16 16 0 0 0 304.04883 334.75 A 16 16 0 0 0 304.00977 335.42188 A 16 16 0 0 0 304.00195 335.75781 A 16 16 0 0 0 304 336 C 304 362.69921 282.6992 384 256 384 C 229.3008 384 208 362.69921 208 336 A 16 16 0 0 0 207.96875 334.99219 A 16 16 0 0 0 207.87305 333.98633 A 16 16 0 0 0 207.77344 333.32227 A 16 16 0 0 0 207.64844 332.66211 A 16 16 0 0 0 207.57422 332.33203 A 16 16 0 0 0 207.49414 332.00586 A 16 16 0 0 0 207.40625 331.68164 A 16 16 0 0 0 207.3125 331.35938 A 16 16 0 0 0 207.10352 330.71875 A 16 16 0 0 0 206.98828 330.40234 A 16 16 0 0 0 206.74023 329.77734 A 16 16 0 0 0 206.60742 329.46875 A 16 16 0 0 0 206.31836 328.86133 A 16 16 0 0 0 206.00586 328.26562 A 16 16 0 0 0 205.83984 327.97266 A 16 16 0 0 0 204.7207 326.29492 A 16 16 0 0 0 204.51367 326.0293 A 16 16 0 0 0 203.86133 325.26172 A 16 16 0 0 0 203.63281 325.01367 A 16 16 0 0 0 202.66797 324.07617 A 16 16 0 0 0 202.1582 323.63867 A 16 16 0 0 0 201.62891 323.22266 A 16 16 0 0 0 201.08398 322.82812 A 16 16 0 0 0 200.52148 322.45898 A 16 16 0 0 0 200.23633 322.2832 A 16 16 0 0 0 199.94531 322.11328 A 16 16 0 0 0 199.65234 321.94922 A 16 16 0 0 0 199.05469 321.63867 A 16 16 0 0 0 198.75195 321.49414 A 16 16 0 0 0 198.13477 321.22266 A 16 16 0 0 0 197.82422 321.09766 A 16 16 0 0 0 197.50977 320.97852 A 16 16 0 0 0 196.55078 320.66016 A 16 16 0 0 0 196.22852 320.56836 A 16 16 0 0 0 195.57617 320.4043 A 16 16 0 0 0 193.91992 320.11523 A 16 16 0 0 0 193.58594 320.07812 A 16 16 0 0 0 193.25 320.04883 A 16 16 0 0 0 192.57812 320.00977 A 16 16 0 0 0 192.24219 320.00195 A 16 16 0 0 0 192 320 L 48 320 z "
     id="path6" />
  <path
     style="color:#000000;font-style:normal;font-variant:normal;font-weight:normal;font-stretch:normal;font-size:medium;line-height:normal;font-family:sans-serif;font-variant-ligatures:normal;font-variant-position:normal;font-variant-caps:normal;font-variant-numeric:normal;font-variant-alternates:normal;font-variant-east-asian:normal;font-feature-settings:normal;font-variation-settings:normal;text-indent:0;text-align:start;text-decoration:none;text-decoration-line:none;text-decoration-style:solid;text-decoration-color:#000000;letter-spacing:normal;word-spacing:normal;text-transform:none;writing-mode:lr-tb;direction:ltr;text-orientation:mixed;dominant-baseline:auto;baseline-shift:baseline;text-anchor:start;white-space:normal;shape-padding:0;shape-margin:0;inline-size:0;clip-rule:nonzero;display:inline;overflow:visible;visibility:visible;isolation:auto;mix-blend-mode:normal;color-interpolation:sRGB;color-interpolation-filters:linearRGB;solid-color:#000000;solid-opacity:1;vector-effect:none;fill:currentColor;fill-opacity:1;fill-rule:nonzero;stroke:none;stroke-linecap:butt;stroke-linejoin:round;stroke-miterlimit:4;stroke-dasharray:none;stroke-dashoffset:0;stroke-opacity:1;color-rendering:auto;image-rendering:auto;shape-rendering:auto;text-rendering:auto;enable-background:accumulate;stop-color:#000000;stop-opacity:1;opacity:1"
     d="M 128 16 C 112.12821 16 97.270043 20.497802 85.900391 29.943359 C 74.530738 39.388917 67.321593 53.199199 64.287109 68.978516 L 64.541016 67.876953 L 32.541016 187.87695 A 16.0016 16.0016 0 0 0 32 192 L 32 288 A 16.0016 16.0016 0 0 0 32 288.04688 C 32.101906 323.13878 60.861224 351.89809 95.953125 352 A 16.0016 16.0016 0 0 0 96 352 L 416 352 A 16.0016 16.0016 0 0 0 416.04688 352 C 451.13878 351.89809 479.89809 323.13878 480 288.04688 A 16.0016 16.0016 0 0 0 480 288 L 480 192 A 16.0016 16.0016 0 0 0 479.45898 187.87695 L 447.45898 67.876953 L 447.73242 69.085938 C 444.69018 52.657826 437.0665 38.674527 425.51758 29.400391 C 413.96865 20.126254 399.27333 16 384 16 L 128 16 z M 128 48 L 384 48 C 393.72667 48 400.53135 50.373746 405.48242 54.349609 C 410.4335 58.325473 414.30982 64.342174 416.26758 74.914062 A 16.0016 16.0016 0 0 0 416.54102 76.123047 L 448 194.09766 L 448 287.95312 C 447.94812 305.81673 433.81673 319.94812 415.95312 320 L 96.046875 320 C 78.18327 319.94812 64.051876 305.81673 64 287.95312 L 64 194.09766 L 95.458984 76.123047 A 16.0016 16.0016 0 0 0 95.712891 75.021484 C 97.678407 64.800801 101.46926 58.611083 106.34961 54.556641 C 111.22996 50.502198 117.87179 48 128 48 z "
     id="path8" />
  <path
     style="color:#000000;font-style:normal;font-variant:normal;font-weight:normal;font-stretch:normal;font-size:medium;line-height:normal;font-family:sans-serif;font-variant-ligatures:normal;font-variant-position:normal;font-variant-caps:normal;font-variant-numeric:normal;font-variant-alternates:normal;font-variant-east-asian:normal;font-feature-settings:normal;font-variation-settings:normal;text-indent:0;text-align:start;text-decoration:none;text-decoration-line:none;text-decoration-style:solid;text-decoration-color:#000000;letter-spacing:normal;word-spacing:normal;text-transform:none;writing-mode:lr-tb;direction:ltr;text-orientation:mixed;dominant-baseline:auto;baseline-shift:baseline;text-anchor:start;white-space:normal;shape-padding:0;shape-margin:0;inline-size:0;clip-rule:nonzero;display:inline;overflow:visible;visibility:visible;isolation:auto;mix-blend-mode:normal;color-interpolation:sRGB;color-interpolation-filters:linearRGB;solid-color:#000000;solid-opacity:1;vector-effect:none;fill:currentColor;fill-opacity:1;fill-rule:nonzero;stroke:none;stroke-linecap:round;stroke-linejoin:round;stroke-miterlimit:4;stroke-dasharray:none;stroke-dashoffset:0;stroke-opacity:1;color-rendering:auto;image-rendering:auto;shape-rendering:auto;text-rendering:auto;enable-background:accumulate;stop-color:#000000;stop-opacity:1;opacity:1"
     d="M 48 176 A 16 16 0 0 0 32 192 A 16 16 0 0 0 48 208 L 177.62305 208 C 185.09038 244.39718 217.48221 272 256 272 C 294.51779 272 326.90962 244.39718 334.37695 208 L 464 208 A 16 16 0 0 0 480 192 A 16 16 0 0 0 464 176 L 320 176 A 16 16 0 0 0 319.66406 176.00391 A 16 16 0 0 0 319.32812 176.01367 A 16 16 0 0 0 318.65625 176.05664 A 16 16 0 0 0 317.98633 176.12695 A 16 16 0 0 0 317.6543 176.17383 A 16 16 0 0 0 316.99023 176.28516 A 16 16 0 0 0 316.66211 176.35156 A 16 16 0 0 0 316.33203 176.42578 A 16 16 0 0 0 314.08984 177.13281 A 16 16 0 0 0 313.46875 177.39258 A 16 16 0 0 0 312.86133 177.68164 A 16 16 0 0 0 312.5625 177.83398 A 16 16 0 0 0 311.68359 178.33203 A 16 16 0 0 0 310.83789 178.88281 A 16 16 0 0 0 310.0293 179.48633 A 16 16 0 0 0 309.76953 179.69727 A 16 16 0 0 0 309.51367 179.91602 A 16 16 0 0 0 309.01367 180.36719 A 16 16 0 0 0 308.53516 180.83984 A 16 16 0 0 0 308.30273 181.08203 A 16 16 0 0 0 307.42773 182.10352 A 16 16 0 0 0 307.22266 182.37109 A 16 16 0 0 0 306.82812 182.91602 A 16 16 0 0 0 306.2832 183.76367 A 16 16 0 0 0 306.11328 184.05469 A 16 16 0 0 0 305.35547 185.55469 A 16 16 0 0 0 305.22266 185.86523 A 16 16 0 0 0 304.97852 186.49023 A 16 16 0 0 0 304.48242 188.09766 A 16 16 0 0 0 304.16016 189.74805 A 16 16 0 0 0 304.07812 190.41406 A 16 16 0 0 0 304.04883 190.75 A 16 16 0 0 0 304.00977 191.42188 A 16 16 0 0 0 304.00195 191.75781 A 16 16 0 0 0 304 192 C 304 218.69921 282.6992 240 256 240 C 229.3008 240 208 218.69921 208 192 A 16 16 0 0 0 207.96875 190.99219 A 16 16 0 0 0 207.87305 189.98633 A 16 16 0 0 0 207.77344 189.32227 A 16 16 0 0 0 207.64844 188.66211 A 16 16 0 0 0 207.57422 188.33203 A 16 16 0 0 0 207.49414 188.00586 A 16 16 0 0 0 207.40625 187.68164 A 16 16 0 0 0 207.3125 187.35938 A 16 16 0 0 0 207.10352 186.71875 A 16 16 0 0 0 206.98828 186.40234 A 16 16 0 0 0 206.74023 185.77734 A 16 16 0 0 0 206.60742 185.46875 A 16 16 0 0 0 206.31836 184.86133 A 16 16 0 0 0 206.00586 184.26562 A 16 16 0 0 0 205.83984 183.97266 A 16 16 0 0 0 204.7207 182.29492 A 16 16 0 0 0 204.51367 182.0293 A 16 16 0 0 0 203.86133 181.26172 A 16 16 0 0 0 203.63281 181.01367 A 16 16 0 0 0 202.66797 180.07617 A 16 16 0 0 0 202.1582 179.63867 A 16 16 0 0 0 201.62891 179.22266 A 16 16 0 0 0 201.08398 178.82812 A 16 16 0 0 0 200.52148 178.45898 A 16 16 0 0 0 200.23633 178.2832 A 16 16 0 0 0 199.94531 178.11328 A 16 16 0 0 0 199.65234 177.94922 A 16 16 0 0 0 199.05469 177.63867 A 16 16 0 0 0 198.75195 177.49414 A 16 16 0 0 0 198.13477 177.22266 A 16 16 0 0 0 197.82422 177.09766 A 16 16 0 0 0 197.50977 176.97852 A 16 16 0 0 0 196.55078 176.66016 A 16 16 0 0 0 196.22852 176.56836 A 16 16 0 0 0 195.57617 176.4043 A 16 16 0 0 0 193.91992 176.11523 A 16 16 0 0 0 193.58594 176.07812 A 16 16 0 0 0 193.25 176.04883 A 16 16 0 0 0 192.57812 176.00977 A 16 16 0 0 0 192.24219 176.00195 A 16 16 0 0 0 192 176 L 48 176 z "
     id="path10" />
</svg>
