<?xml version="1.0" encoding="UTF-8"?>
<svg width="512px" height="512px" viewBox="0 0 512 512" version="1.1" xmlns="http://www.w3.org/2000/svg" xmlns:xlink="http://www.w3.org/1999/xlink">
    <!-- Generator: Sketch 62 (91390) - https://sketch.com -->
    <title>Artboard</title>
    <desc>Created with Sketch.</desc>
    <g id="Artboard" stroke="none" stroke-width="1" fill="none" fill-rule="evenodd">
        <g id="film-outline" transform="translate(32.000000, 80.000000)" fill="#000000" fill-rule="nonzero">
            <path d="M44,352 C19.7,352 0,332.3 0,308 L0,44 C0,19.7 19.7,0 44,0 L404,0 C428.3,0 448,19.7 448,44 L448,308 C448,332.057 428.69203,351.60554 404.727605,351.994105 L404,352 L404,352 L44,352 Z M404,272 L380,272 C373.4,272 368,277.4 368,284 L368,308 C368,314.6 373.4,320 380,320 L404,320 C410.6,320 416,314.6 416,308 L416,284 C416,277.4 410.6,272 404,272 Z M68,272 L44,272 C37.4,272 32,277.4 32,284 L32,308 C32,314.6 37.4,320 44,320 L68,320 C74.6,320 80,314.6 80,308 L80,284 C80,277.4 74.6,272 68,272 Z M324,192 L124,192 C117.4,192 112,197.4 112,204 L112,308 C112,314.6 117.4,320 124,320 L324,320 C330.6,320 336,314.6 336,308 L336,204 C336,197.4 330.6,192 324,192 Z M404,192 L380,192 C373.4,192 368,197.4 368,204 L368,228 C368,234.6 373.4,240 380,240 L404,240 C410.6,240 416,234.6 416,228 L416,204 C416,197.4 410.6,192 404,192 Z M68,192 L44,192 C37.4,192 32,197.4 32,204 L32,228 C32,234.6 37.4,240 44,240 L68,240 C74.6,240 80,234.6 80,228 L80,204 C80,197.4 74.6,192 68,192 Z M404,112 L380,112 C373.4,112 368,117.4 368,124 L368,148 C368,154.6 373.4,160 380,160 L404,160 C410.6,160 416,154.6 416,148 L416,124 C416,117.4 410.6,112 404,112 Z M68,112 L44,112 C37.4,112 32,117.4 32,124 L32,148 C32,154.6 37.4,160 44,160 L68,160 C74.6,160 80,154.6 80,148 L80,124 C80,117.4 74.6,112 68,112 Z M324,32 L124,32 C117.4,32 112,37.4 112,44 L112,148 C112,154.6 117.4,160 124,160 L324,160 C330.6,160 336,154.6 336,148 L336,44 C336,37.4 330.6,32 324,32 Z M404,32 L380,32 C373.4,32 368,37.4 368,44 L368,68 C368,74.6 373.4,80 380,80 L404,80 C410.6,80 416,74.6 416,68 L416,44 C416,37.4 410.6,32 404,32 Z M68,32 L44,32 C37.4,32 32,37.4 32,44 L32,68 C32,74.6 37.4,80 44,80 L68,80 C74.6,80 80,74.6 80,68 L80,44 C80,37.4 74.6,32 68,32 Z" id="Combined-Shape"></path>
        </g>
    </g>
</svg>