<?xml version="1.0" encoding="utf-8"?>
<!-- Generator: Adobe Illustrator 24.0.0, SVG Export Plug-In . SVG Version: 6.00 Build 0)  -->
<svg version="1.1" id="Layer_1" xmlns="http://www.w3.org/2000/svg" xmlns:xlink="http://www.w3.org/1999/xlink" x="0px" y="0px"
	 viewBox="0 0 512 512" style="enable-background:new 0 0 512 512;" xml:space="preserve">
<title>ionicons-v5-n</title>
<g>
	<path d="M480,160H32c-8.8,0-16-7.2-16-16s7.2-16,16-16h448c8.8,0,16,7.2,16,16S488.8,160,480,160z"/>
</g>
<g>
	<path d="M400,272H112c-8.8,0-16-7.2-16-16c0-8.8,7.2-16,16-16h288c8.8,0,16,7.2,16,16C416,264.8,408.8,272,400,272z"/>
</g>
<g>
	<path d="M304,384h-96c-8.8,0-16-7.2-16-16s7.2-16,16-16h96c8.8,0,16,7.2,16,16S312.8,384,304,384z"/>
</g>
</svg>
