<?xml version="1.0" encoding="UTF-8" standalone="no"?>
<svg
   xmlns:dc="http://purl.org/dc/elements/1.1/"
   xmlns:cc="http://creativecommons.org/ns#"
   xmlns:rdf="http://www.w3.org/1999/02/22-rdf-syntax-ns#"
   xmlns:svg="http://www.w3.org/2000/svg"
   xmlns="http://www.w3.org/2000/svg"
   xmlns:sodipodi="http://sodipodi.sourceforge.net/DTD/sodipodi-0.dtd"
   xmlns:inkscape="http://www.inkscape.org/namespaces/inkscape"
   class="ionicon"
   viewBox="0 0 512 512"
   version="1.1"
   id="svg12"
   sodipodi:docname="finger-print-sharp.svg"
   inkscape:version="1.0.2 (e86c8708, 2021-01-15)">
  <metadata
     id="metadata18">
    <rdf:RDF>
      <cc:Work
         rdf:about="">
        <dc:format>image/svg+xml</dc:format>
        <dc:type
           rdf:resource="http://purl.org/dc/dcmitype/StillImage" />
      </cc:Work>
    </rdf:RDF>
  </metadata>
  <defs
     id="defs16" />
  <sodipodi:namedview
     pagecolor="#ffffff"
     bordercolor="#666666"
     borderopacity="1"
     objecttolerance="10"
     gridtolerance="10"
     guidetolerance="10"
     inkscape:pageopacity="0"
     inkscape:pageshadow="2"
     inkscape:window-width="689"
     inkscape:window-height="480"
     id="namedview14"
     showgrid="false"
     inkscape:zoom="1.3027344"
     inkscape:cx="256"
     inkscape:cy="256"
     inkscape:window-x="44"
     inkscape:window-y="25"
     inkscape:window-maximized="0"
     inkscape:current-layer="svg12" />
  <title
     id="title2">Finger Print</title>
  <path
     style="color:#000000;font-style:normal;font-variant:normal;font-weight:normal;font-stretch:normal;font-size:medium;line-height:normal;font-family:sans-serif;font-variant-ligatures:normal;font-variant-position:normal;font-variant-caps:normal;font-variant-numeric:normal;font-variant-alternates:normal;font-variant-east-asian:normal;font-feature-settings:normal;font-variation-settings:normal;text-indent:0;text-align:start;text-decoration:none;text-decoration-line:none;text-decoration-style:solid;text-decoration-color:#000000;letter-spacing:normal;word-spacing:normal;text-transform:none;writing-mode:lr-tb;direction:ltr;text-orientation:mixed;dominant-baseline:auto;baseline-shift:baseline;text-anchor:start;white-space:normal;shape-padding:0;shape-margin:0;inline-size:0;clip-rule:nonzero;display:inline;overflow:visible;visibility:visible;isolation:auto;mix-blend-mode:normal;color-interpolation:sRGB;color-interpolation-filters:linearRGB;solid-color:#000000;solid-opacity:1;vector-effect:none;fill:#000000;fill-opacity:1;fill-rule:nonzero;stroke-width:1;stroke-linecap:butt;stroke-linejoin:miter;stroke-miterlimit:4;stroke-dasharray:none;stroke-dashoffset:0;stroke-opacity:1;color-rendering:auto;image-rendering:auto;shape-rendering:auto;text-rendering:auto;enable-background:accumulate;stop-color:#000000;stop-opacity:1;stroke:none;opacity:1"
     d="m 56.79,200.58 12.36,7.5 7.35,-13.58 C 93.07,166.75 143.78,102 256,102 c 115,0 164,70.32 180.1,93.46 l 8.16,12.7 25.62,-16.16 -8.54,-13.36 C 452.46,165.79 433.82,139.11 400.56,115.54 360.15,86.82 311.5,72.25 256,72.25 127.93,72.25 69.31,147.36 50,179.5 L 42.63,192 54,198.86 c 0.517052,0.40418 1.061712,0.77174 1.63,1.1 0.375582,0.22677 0.762778,0.43372 1.16,0.62 z"
     id="path4" />
  <path
     style="color:#000000;font-style:normal;font-variant:normal;font-weight:normal;font-stretch:normal;font-size:medium;line-height:normal;font-family:sans-serif;font-variant-ligatures:normal;font-variant-position:normal;font-variant-caps:normal;font-variant-numeric:normal;font-variant-alternates:normal;font-variant-east-asian:normal;font-feature-settings:normal;font-variation-settings:normal;text-indent:0;text-align:start;text-decoration:none;text-decoration-line:none;text-decoration-style:solid;text-decoration-color:#000000;letter-spacing:normal;word-spacing:normal;text-transform:none;writing-mode:lr-tb;direction:ltr;text-orientation:mixed;dominant-baseline:auto;baseline-shift:baseline;text-anchor:start;white-space:normal;shape-padding:0;shape-margin:0;inline-size:0;clip-rule:nonzero;display:inline;overflow:visible;visibility:visible;isolation:auto;mix-blend-mode:normal;color-interpolation:sRGB;color-interpolation-filters:linearRGB;solid-color:#000000;solid-opacity:1;vector-effect:none;fill:#000000;fill-opacity:1;fill-rule:nonzero;stroke-width:1;stroke-linecap:butt;stroke-linejoin:miter;stroke-miterlimit:4;stroke-dasharray:none;stroke-dashoffset:0;stroke-opacity:1;color-rendering:auto;image-rendering:auto;shape-rendering:auto;text-rendering:auto;enable-background:accumulate;stop-color:#000000;stop-opacity:1;stroke:none;opacity:1"
     d="M 379.22,172.32 C 343.68,143.39 301.1,128.07 256,128.07 c -97.52,0 -162.31,66 -183.33,131.47 -19.25,60.46 4.15,148.07 5.13,151.82 l 4.38,13.81 29.93,-6.43 -4.74,-15 c -0.21,-0.75 -22.1,-82.93 -5.41,-135.21 9,-28.08 27.73,-55.4 51.35,-74.79 C 181.81,170.39 217.35,158 256,158 c 90.58,0 141.93,70.61 156.45,108.11 11.27,28.93 8.67,61.82 -6.28,82 -5.53,7.39 -15.28,16.07 -30.12,15.32 -33.81,-1.72 -39.66,-18.43 -47.79,-50.25 -3.9,-15.32 -7.9,-31.18 -17.87,-44 -12.14,-15.75 -29.8,-23.36 -54.28,-23.36 -26.33,0 -46.27,8.68 -59.38,25.72 -28.6,37.28 -10,100.93 -9.21,103.61 l 0.22,0.85 c 1.41,3.86 36.08,96.65 128.93,119.68 l 14.77,3.21 8.09,-28.71 -15.27,-3.43 C 250.04,448.32 219.05,372.36 216.67,366.36 c -2.68262,-9.73654 -4.39101,-19.71558 -5.1,-29.79 -1.08,-14.46 -0.32,-34.39 9.43,-47.14 7.15,-9.32 18.64,-13.82 35,-13.82 29.79,0 34.78,14.57 42.58,44.79 7.58,29.46 18,69.85 75.84,72.75 22.21,1.07 42.26,-8.79 56.34,-27.65 21.13,-28.28 25.14,-71.57 10.19,-110.14 C 429.27,225 406.74,194.82 379.22,172.32 Z"
     id="path6" />
  <path
     style="color:#000000;font-style:normal;font-variant:normal;font-weight:normal;font-stretch:normal;font-size:medium;line-height:normal;font-family:sans-serif;font-variant-ligatures:normal;font-variant-position:normal;font-variant-caps:normal;font-variant-numeric:normal;font-variant-alternates:normal;font-variant-east-asian:normal;font-feature-settings:normal;font-variation-settings:normal;text-indent:0;text-align:start;text-decoration:none;text-decoration-line:none;text-decoration-style:solid;text-decoration-color:#000000;letter-spacing:normal;word-spacing:normal;text-transform:none;writing-mode:lr-tb;direction:ltr;text-orientation:mixed;dominant-baseline:auto;baseline-shift:baseline;text-anchor:start;white-space:normal;shape-padding:0;shape-margin:0;inline-size:0;clip-rule:nonzero;display:inline;overflow:visible;visibility:visible;isolation:auto;mix-blend-mode:normal;color-interpolation:sRGB;color-interpolation-filters:linearRGB;solid-color:#000000;solid-opacity:1;vector-effect:none;fill:#000000;fill-opacity:1;fill-rule:nonzero;stroke-width:1;stroke-linecap:butt;stroke-linejoin:miter;stroke-miterlimit:4;stroke-dasharray:none;stroke-dashoffset:0;stroke-opacity:1;color-rendering:auto;image-rendering:auto;shape-rendering:auto;text-rendering:auto;enable-background:accumulate;stop-color:#000000;stop-opacity:1;stroke:none;opacity:1"
     d="m 154.18,343.21 c -3.47,-28.28 1.41,-71 26.55,-98.78 17.44,-19.29 42.79,-29 75.19,-29 37.49,0 65.87,16.72 84.51,49.61 9.17414,16.50375 15.23494,34.55395 17.88,53.25 l 1.43,14.69 30,-2.2 c 0.0284,-5.21688 -0.30578,-10.42944 -1,-15.6 -0.11,-1.28 -3.57,-32.46 -21,-63.75 C 343.68,208.32 305.11,185.5 256,185.5 c -41.5,0 -74.55,13.18 -98.06,39.11 -31.85,35.14 -38.35,86.25 -33.91,122.35 v 0.33 c 7.97,54.53 28.97,98.14 66.12,137.14 l 11.6,11.22 20.95,-21.79 -10.34,-9.79 C 179.64,429.79 161.11,391.43 154.18,343.21 Z M 132.47,72.66 C 143.55,65.94 182.74,45.89 256,45.89 c 87.54,0 126.44,28.72 126.87,28.93 l 13.9,8.86 L 413,58.47 399.78,49.91 c -0.52,-0.38 -1.06,-0.76 -1.6,-1.12 C 385.5,40.54 340.54,16 256,16 168.29,16 123.25,42.48 112.59,49.71 L 99,58.52 115.2,83.73 Z"
     id="path8" />
  <path
     style="color:#000000;font-style:normal;font-variant:normal;font-weight:normal;font-stretch:normal;font-size:medium;line-height:normal;font-family:sans-serif;font-variant-ligatures:normal;font-variant-position:normal;font-variant-caps:normal;font-variant-numeric:normal;font-variant-alternates:normal;font-variant-east-asian:normal;font-feature-settings:normal;font-variation-settings:normal;text-indent:0;text-align:start;text-decoration:none;text-decoration-line:none;text-decoration-style:solid;text-decoration-color:#000000;letter-spacing:normal;word-spacing:normal;text-transform:none;writing-mode:lr-tb;direction:ltr;text-orientation:mixed;dominant-baseline:auto;baseline-shift:baseline;text-anchor:start;white-space:normal;shape-padding:0;shape-margin:0;inline-size:0;clip-rule:nonzero;display:inline;overflow:visible;visibility:visible;isolation:auto;mix-blend-mode:normal;color-interpolation:sRGB;color-interpolation-filters:linearRGB;solid-color:#000000;solid-opacity:1;vector-effect:none;fill:#000000;fill-opacity:1;fill-rule:nonzero;stroke-width:1;stroke-linecap:butt;stroke-linejoin:miter;stroke-miterlimit:4;stroke-dasharray:none;stroke-dashoffset:0;stroke-opacity:1;color-rendering:auto;image-rendering:auto;shape-rendering:auto;text-rendering:auto;enable-background:accumulate;stop-color:#000000;stop-opacity:1;stroke:none;opacity:1"
     d="m 390.59,415.21 c -33.37,3.75 -60.45,-2.67 -80.71,-18.85 -34.24,-27.43 -38.68,-75.11 -38.79,-76 l -1.23,-14.88 -30.53,2.23 1.31,15 c 0.22,2.46 5.2,60.75 49.62,96.54 22.11,17.89 49.74,26.89 82.24,26.89 7.20552,-0.0143 14.40419,-0.44498 21.56,-1.29 l 16.59,-2.09 -6.1,-29.71 z"
     id="path10" />
</svg>
