<?xml version="1.0" encoding="UTF-8" standalone="no"?>
<svg
   xmlns:dc="http://purl.org/dc/elements/1.1/"
   xmlns:cc="http://creativecommons.org/ns#"
   xmlns:rdf="http://www.w3.org/1999/02/22-rdf-syntax-ns#"
   xmlns:svg="http://www.w3.org/2000/svg"
   xmlns="http://www.w3.org/2000/svg"
   xmlns:sodipodi="http://sodipodi.sourceforge.net/DTD/sodipodi-0.dtd"
   xmlns:inkscape="http://www.inkscape.org/namespaces/inkscape"
   class="ionicon"
   viewBox="0 0 512 512"
   version="1.1"
   id="svg6"
   sodipodi:docname="finger-print-outline.svg"
   inkscape:version="1.0.2 (e86c8708, 2021-01-15)">
  <metadata
     id="metadata12">
    <rdf:RDF>
      <cc:Work
         rdf:about="">
        <dc:format>image/svg+xml</dc:format>
        <dc:type
           rdf:resource="http://purl.org/dc/dcmitype/StillImage" />
      </cc:Work>
    </rdf:RDF>
  </metadata>
  <defs
     id="defs10" />
  <sodipodi:namedview
     pagecolor="#ffffff"
     bordercolor="#666666"
     borderopacity="1"
     objecttolerance="10"
     gridtolerance="10"
     guidetolerance="10"
     inkscape:pageopacity="0"
     inkscape:pageshadow="2"
     inkscape:window-width="689"
     inkscape:window-height="480"
     id="namedview8"
     showgrid="false"
     inkscape:zoom="1.3027344"
     inkscape:cx="256"
     inkscape:cy="256"
     inkscape:window-x="44"
     inkscape:window-y="25"
     inkscape:window-maximized="0"
     inkscape:current-layer="svg6" />
  <title
     id="title2">Finger Print</title>
  <path
     style="color:#000000;font-style:normal;font-variant:normal;font-weight:normal;font-stretch:normal;font-size:medium;line-height:normal;font-family:sans-serif;font-variant-ligatures:normal;font-variant-position:normal;font-variant-caps:normal;font-variant-numeric:normal;font-variant-alternates:normal;font-variant-east-asian:normal;font-feature-settings:normal;font-variation-settings:normal;text-indent:0;text-align:start;text-decoration:none;text-decoration-line:none;text-decoration-style:solid;text-decoration-color:#000000;letter-spacing:normal;word-spacing:normal;text-transform:none;writing-mode:lr-tb;direction:ltr;text-orientation:mixed;dominant-baseline:auto;baseline-shift:baseline;text-anchor:start;white-space:normal;shape-padding:0;shape-margin:0;inline-size:0;clip-rule:nonzero;display:inline;overflow:visible;visibility:visible;isolation:auto;mix-blend-mode:normal;color-interpolation:sRGB;color-interpolation-filters:linearRGB;solid-color:#000000;solid-opacity:1;vector-effect:none;fill:#000000;fill-opacity:1;fill-rule:nonzero;stroke-width:1;stroke-linecap:butt;stroke-linejoin:miter;stroke-miterlimit:4;stroke-dasharray:none;stroke-dashoffset:0;stroke-opacity:1;color-rendering:auto;image-rendering:auto;shape-rendering:auto;text-rendering:auto;enable-background:accumulate;stop-color:#000000;stop-opacity:1;stroke:none;opacity:1"
     d="m 390.42,75.28 c -1.87024,0.0047 -3.70748,-0.492585 -5.32,-1.44 C 340.72,50.08 302.35,40 256.35,40 210.58,40 167.12,51.28 127.59,73.84 122,77 115.11,74.8 111.87,69 108.86862,63.190176 110.89483,56.048138 116.5,52.68 159.13371,28.499759 207.33677,15.857011 256.35,16 c 49.23,0 92.23,11.28 139.39,36.48 5.72332,3.146922 7.87879,10.293292 4.85,16.08 -1.7876,4.033162 -5.75888,6.657249 -10.17,6.72 z m -330.79,126 c -2.401805,-0.0171 -4.740482,-0.77103 -6.7,-2.16 -5.298921,-3.93804 -6.527895,-11.36493 -2.78,-16.8 22.89,-33.6 52,-60 86.69,-78.48 72.58,-38.84 165.51,-39.12 238.32,-0.24 34.68,18.48 63.8,44.64 86.69,78 3.73155,5.43871 2.50462,12.85325 -2.78,16.8 -5.21232,3.89561 -12.63205,2.57492 -16.18,-2.88 -20.8,-30.24 -47.15,-54 -78.36,-70.56 C 298.19,89.68 213.35,89.68 147.24,125.2 115.8,142 89.45,166 68.65,196.2 c -1.828046,3.23894 -5.302597,5.19578 -9.02,5.08 z M 204.1,491 c -3.09108,0.0297 -6.04286,-1.28378 -8.09,-3.6 C 175.9,466.48 165,453 149.55,424 c -16,-29.52 -24.27,-65.52 -24.27,-104.16 0,-71.28 58.71,-129.36 130.84,-129.36 72.13,0 130.88,58.08 130.88,129.36 0.19167,6.51479 -5.0374,11.89996 -11.555,11.89996 -6.5176,0 -11.74667,-5.38517 -11.555,-11.89996 0,-58.08 -48.32,-105.36 -107.72,-105.36 -59.4,0 -107.77,47.28 -107.77,105.36 0,34.56 7.39,66.48 21.49,92.4 14.8,27.6 25,39.36 42.77,58.08 4.36575,4.82579 4.36575,12.17421 0,17 -2.26886,2.28926 -5.33768,3.60857 -8.56,3.68 z m 165.75,-44.4 c -27.51,0 -51.78,-7.2 -71.66,-21.36 -34.37051,-24.09111 -54.88395,-63.38739 -55,-105.36 -0.27346,-6.57295 4.98138,-12.05093 11.56,-12.05093 6.57862,0 11.83346,5.47798 11.56,12.05093 0.0788,34.09819 16.82336,66.00394 44.84,85.44 16.41,11.52 35.6,17 58.72,17 8.05213,-0.14307 16.07899,-0.94575 24,-2.4 6.24,-1.2 12.25,3.12 13.4,9.84 1.21994,6.45712 -3.01601,12.68358 -9.47,13.92 -9.208,1.81932 -18.56449,2.78342 -27.95,2.88 z M 323.38,496 c -1.01532,-0.0422 -2.0222,-0.2033 -3,-0.48 -36.76,-10.56 -60.8,-24.72 -86,-50.4 -32.37,-33.36 -50.16,-77.76 -50.16,-125.28 0,-38.88 31.9,-70.56 71.19,-70.56 39.29,0 71.2,31.68 71.2,70.56 0,25.68 21.5,46.56 48.08,46.56 26.58,0 48.08,-20.88 48.08,-46.56 0,-90.48 -75.13,-163.92 -167.59,-163.92 -65.65,0 -125.75,37.92 -152.79,96.72 -9,19.44 -13.64,42.24 -13.64,67.2 0,18.72 1.61,48.24 15.48,86.64 2.32,6.24 -0.69,13.2 -6.7,15.36 -6.023456,2.29386 -12.745217,-0.8875 -14.79,-7 -11.15333,-30.43198 -16.867044,-62.58855 -16.88,-95 0,-28.8 5.32,-55 15.72,-77.76 30.75,-67 98.94,-110.4 173.6,-110.4 105.18,0 190.71,84.24 190.71,187.92 0,38.88 -31.9,70.56 -71.2,70.56 -39.3,0 -71.2,-31.68 -71.2,-70.56 C 303.5,293.92 282,273 255.42,273 c -26.58,0 -48.08,20.88 -48.08,46.56 0,41 15.26,79.44 43.23,108.24 22,22.56 43,35 75.59,44.4 6.24,1.68 9.71,8.4 8.09,14.64 -1.03967,5.2171 -5.55217,9.01972 -10.87,9.16 z"
     id="path4" />
</svg>
