<?xml version="1.0" encoding="UTF-8" standalone="no"?>
<svg
   xmlns:dc="http://purl.org/dc/elements/1.1/"
   xmlns:cc="http://creativecommons.org/ns#"
   xmlns:rdf="http://www.w3.org/1999/02/22-rdf-syntax-ns#"
   xmlns:svg="http://www.w3.org/2000/svg"
   xmlns="http://www.w3.org/2000/svg"
   xmlns:sodipodi="http://sodipodi.sourceforge.net/DTD/sodipodi-0.dtd"
   xmlns:inkscape="http://www.inkscape.org/namespaces/inkscape"
   class="ionicon"
   viewBox="0 0 512 512"
   version="1.1"
   id="svg12"
   sodipodi:docname="finger-print.svg"
   inkscape:version="1.0.2 (e86c8708, 2021-01-15)">
  <metadata
     id="metadata18">
    <rdf:RDF>
      <cc:Work
         rdf:about="">
        <dc:format>image/svg+xml</dc:format>
        <dc:type
           rdf:resource="http://purl.org/dc/dcmitype/StillImage" />
      </cc:Work>
    </rdf:RDF>
  </metadata>
  <defs
     id="defs16" />
  <sodipodi:namedview
     pagecolor="#ffffff"
     bordercolor="#666666"
     borderopacity="1"
     objecttolerance="10"
     gridtolerance="10"
     guidetolerance="10"
     inkscape:pageopacity="0"
     inkscape:pageshadow="2"
     inkscape:window-width="689"
     inkscape:window-height="480"
     id="namedview14"
     showgrid="false"
     inkscape:zoom="1.3027344"
     inkscape:cx="256"
     inkscape:cy="256"
     inkscape:window-x="44"
     inkscape:window-y="25"
     inkscape:window-maximized="0"
     inkscape:current-layer="svg12" />
  <title
     id="title2">Finger Print</title>
  <path
     style="color:#000000;font-style:normal;font-variant:normal;font-weight:normal;font-stretch:normal;font-size:medium;line-height:normal;font-family:sans-serif;font-variant-ligatures:normal;font-variant-position:normal;font-variant-caps:normal;font-variant-numeric:normal;font-variant-alternates:normal;font-variant-east-asian:normal;font-feature-settings:normal;font-variation-settings:normal;text-indent:0;text-align:start;text-decoration:none;text-decoration-line:none;text-decoration-style:solid;text-decoration-color:#000000;letter-spacing:normal;word-spacing:normal;text-transform:none;writing-mode:lr-tb;direction:ltr;text-orientation:mixed;dominant-baseline:auto;baseline-shift:baseline;text-anchor:start;white-space:normal;shape-padding:0;shape-margin:0;inline-size:0;clip-rule:nonzero;display:inline;overflow:visible;visibility:visible;isolation:auto;mix-blend-mode:normal;color-interpolation:sRGB;color-interpolation-filters:linearRGB;solid-color:#000000;solid-opacity:1;vector-effect:none;fill:#000000;fill-opacity:1;fill-rule:nonzero;stroke-width:1;stroke-linecap:butt;stroke-linejoin:miter;stroke-miterlimit:4;stroke-dasharray:none;stroke-dashoffset:0;stroke-opacity:1;color-rendering:auto;image-rendering:auto;shape-rendering:auto;text-rendering:auto;enable-background:accumulate;stop-color:#000000;stop-opacity:1;stroke:none;opacity:1"
     d="m 63.28,202 c -2.698178,0.0244 -5.35477,-0.66559 -7.7,-2 -7.243801,-4.07168 -9.732844,-13.29738 -5.52,-20.46 C 69.34,147.36 128,72.25 256,72.25 c 55.47,0 104.12,14.57 144.53,43.29 33.26,23.57 51.9,50.25 60.78,63.1 4.74434,6.82305 2.93742,16.21452 -4,20.79 -6.99759,4.62567 -16.40433,2.85416 -21.24,-4 C 420,172.32 371,102 256,102 143.75,102 93,166.71 76.47,194.46 c -2.704553,4.71875 -7.751513,7.60382 -13.19,7.54 z"
     id="path4" />
  <path
     style="color:#000000;font-style:normal;font-variant:normal;font-weight:normal;font-stretch:normal;font-size:medium;line-height:normal;font-family:sans-serif;font-variant-ligatures:normal;font-variant-position:normal;font-variant-caps:normal;font-variant-numeric:normal;font-variant-alternates:normal;font-variant-east-asian:normal;font-feature-settings:normal;font-variation-settings:normal;text-indent:0;text-align:start;text-decoration:none;text-decoration-line:none;text-decoration-style:solid;text-decoration-color:#000000;letter-spacing:normal;word-spacing:normal;text-transform:none;writing-mode:lr-tb;direction:ltr;text-orientation:mixed;dominant-baseline:auto;baseline-shift:baseline;text-anchor:start;white-space:normal;shape-padding:0;shape-margin:0;inline-size:0;clip-rule:nonzero;display:inline;overflow:visible;visibility:visible;isolation:auto;mix-blend-mode:normal;color-interpolation:sRGB;color-interpolation-filters:linearRGB;solid-color:#000000;solid-opacity:1;vector-effect:none;fill:#000000;fill-opacity:1;fill-rule:nonzero;stroke-width:1;stroke-linecap:butt;stroke-linejoin:miter;stroke-miterlimit:4;stroke-dasharray:none;stroke-dashoffset:0;stroke-opacity:1;color-rendering:auto;image-rendering:auto;shape-rendering:auto;text-rendering:auto;enable-background:accumulate;stop-color:#000000;stop-opacity:1;stroke:none;opacity:1"
     d="m 320.49,496 c -1.27632,0.0152 -2.54953,-0.12924 -3.79,-0.43 -92.85,-23 -127.52,-115.82 -128.93,-119.68 l -0.22,-0.85 c -0.76,-2.68 -19.39,-66.33 9.21,-103.61 13.11,-17 33.05,-25.72 59.38,-25.72 24.48,0 42.14,7.61 54.28,23.36 10,12.86 14,28.72 17.87,44 8.13,31.82 14,48.53 47.79,50.25 14.84,0.75 24.59,-7.93 30.12,-15.32 14.95,-20.15 17.55,-53 6.28,-82 C 398,228.57 346.61,158 256,158 c -38.68,0 -74.22,12.43 -102.72,35.79 -23.59,19.35 -42.28,46.67 -51.28,74.75 -16.69,52.28 5.2,134.46 5.41,135.21 2.15322,8.05766 -2.75941,16.30563 -10.87,18.25 -8.089917,2.15131 -16.415735,-2.55807 -18.74,-10.6 -1,-3.75 -24.38,-91.4 -5.1,-151.82 21,-65.47 85.81,-131.47 183.33,-131.47 45.07,0 87.65,15.32 123.19,44.25 27.52,22.5 50,52.72 61.76,82.93 14.95,38.57 10.94,81.86 -10.19,110.14 -14.08,18.86 -34.13,28.72 -56.34,27.65 -57.86,-2.9 -68.26,-43.29 -75.84,-72.75 -7.8,-30.22 -12.79,-44.79 -42.58,-44.79 -16.36,0 -27.85,4.5 -35,13.82 -9.75,12.75 -10.51,32.68 -9.43,47.14 0.70899,10.07442 2.41738,20.05346 5.1,29.79 2.38,6 33.37,82 107.59,100.39 8.07521,1.91308 13.02492,10.0621 11,18.11 -1.86128,6.63278 -7.91102,11.21505 -14.8,11.21 z"
     id="path6" />
  <path
     style="color:#000000;font-style:normal;font-variant:normal;font-weight:normal;font-stretch:normal;font-size:medium;line-height:normal;font-family:sans-serif;font-variant-ligatures:normal;font-variant-position:normal;font-variant-caps:normal;font-variant-numeric:normal;font-variant-alternates:normal;font-variant-east-asian:normal;font-feature-settings:normal;font-variation-settings:normal;text-indent:0;text-align:start;text-decoration:none;text-decoration-line:none;text-decoration-style:solid;text-decoration-color:#000000;letter-spacing:normal;word-spacing:normal;text-transform:none;writing-mode:lr-tb;direction:ltr;text-orientation:mixed;dominant-baseline:auto;baseline-shift:baseline;text-anchor:start;white-space:normal;shape-padding:0;shape-margin:0;inline-size:0;clip-rule:nonzero;display:inline;overflow:visible;visibility:visible;isolation:auto;mix-blend-mode:normal;color-interpolation:sRGB;color-interpolation-filters:linearRGB;solid-color:#000000;solid-opacity:1;vector-effect:none;fill:#000000;fill-opacity:1;fill-rule:nonzero;stroke-width:1;stroke-linecap:butt;stroke-linejoin:miter;stroke-miterlimit:4;stroke-dasharray:none;stroke-dashoffset:0;stroke-opacity:1;color-rendering:auto;image-rendering:auto;shape-rendering:auto;text-rendering:auto;enable-background:accumulate;stop-color:#000000;stop-opacity:1;stroke:none;opacity:1"
     d="m 201.31,489.14 c -4.20487,0.009 -8.23287,-1.69123 -11.16,-4.71 -37.16,-39 -58.18,-82.61 -66.09,-137.14 V 347 c -4.44,-36.1 2.06,-87.21 33.91,-122.35 23.51,-25.93 56.56,-39.11 98.06,-39.11 49.08,0 87.65,22.82 111.7,65.89 17.45,31.29 20.91,62.47 21,63.75 0.76957,8.30124 -5.34697,15.65004 -13.65,16.4 -8.28714,0.89933 -15.76254,-5.01777 -16.79,-13.29 -2.63407,-18.7085 -8.68821,-36.7726 -17.86,-53.29 -18.64,-32.89 -47,-49.61 -84.51,-49.61 -32.4,0 -57.75,9.75 -75.19,29 -25.14,27.75 -30,70.5 -26.55,98.78 6.93,48.22 25.46,86.58 58.18,120.86 5.75581,5.9878 5.4115,15.5516 -0.76,21.11 -2.8198,2.55596 -6.48424,3.98043 -10.29,4 z"
     id="path8" />
  <path
     style="color:#000000;font-style:normal;font-variant:normal;font-weight:normal;font-stretch:normal;font-size:medium;line-height:normal;font-family:sans-serif;font-variant-ligatures:normal;font-variant-position:normal;font-variant-caps:normal;font-variant-numeric:normal;font-variant-alternates:normal;font-variant-east-asian:normal;font-feature-settings:normal;font-variation-settings:normal;text-indent:0;text-align:start;text-decoration:none;text-decoration-line:none;text-decoration-style:solid;text-decoration-color:#000000;letter-spacing:normal;word-spacing:normal;text-transform:none;writing-mode:lr-tb;direction:ltr;text-orientation:mixed;dominant-baseline:auto;baseline-shift:baseline;text-anchor:start;white-space:normal;shape-padding:0;shape-margin:0;inline-size:0;clip-rule:nonzero;display:inline;overflow:visible;visibility:visible;isolation:auto;mix-blend-mode:normal;color-interpolation:sRGB;color-interpolation-filters:linearRGB;solid-color:#000000;solid-opacity:1;vector-effect:none;fill:#000000;fill-opacity:1;fill-rule:nonzero;stroke-width:1;stroke-linecap:butt;stroke-linejoin:miter;stroke-miterlimit:4;stroke-dasharray:none;stroke-dashoffset:0;stroke-opacity:1;color-rendering:auto;image-rendering:auto;shape-rendering:auto;text-rendering:auto;enable-background:accumulate;stop-color:#000000;stop-opacity:1;stroke:none;opacity:1"
     d="m 372.5,446.18 c -32.5,0 -60.13,-9 -82.24,-26.89 -44.42,-35.79 -49.4,-94.08 -49.62,-96.54 -0.6517,-8.40854 5.63647,-15.7533 14.045,-16.40499 8.40854,-0.6517 15.7533,5.63645 16.405,14.04499 0.11,0.86 4.55,48.54 38.79,76 20.26,16.18 47.34,22.6 80.71,18.85 8.3028,-1.00716 15.85938,4.88259 16.91,13.18 0.91949,8.28983 -5.13556,15.72348 -13.44,16.5 -7.15639,0.83499 -14.35506,1.25569 -21.56,1.26 z M 398.18,48.79 C 385.5,40.54 340.54,16 256,16 167.26,16 122.19,43.11 112.22,50 c -0.65846,0.404171 -1.27486,0.873171 -1.84,1.4 -0.0596,0.05769 -0.13734,0.09301 -0.22,0.1 -3.22076,2.812051 -5.07524,6.874404 -5.09,11.15 0.11506,8.333622 6.97675,14.989148 15.31,14.85 3.17534,-0.0021 6.27402,-0.975711 8.88,-2.79 0.43,-0.32 39.22,-28.82 126.77,-28.82 87.55,0 126.55,28.4 126.97,28.61 2.6624,1.974315 5.89556,3.02746 9.21,3 8.34093,0.12792 15.19682,-6.548609 15.29,-14.89 0.002,-6.07606 -3.6861,-11.544536 -9.32,-13.82 z"
     id="path10" />
</svg>
