<?xml version="1.0" encoding="UTF-8" standalone="no"?>
<svg
   xmlns:dc="http://purl.org/dc/elements/1.1/"
   xmlns:cc="http://creativecommons.org/ns#"
   xmlns:rdf="http://www.w3.org/1999/02/22-rdf-syntax-ns#"
   xmlns:svg="http://www.w3.org/2000/svg"
   xmlns="http://www.w3.org/2000/svg"
   xmlns:sodipodi="http://sodipodi.sourceforge.net/DTD/sodipodi-0.dtd"
   xmlns:inkscape="http://www.inkscape.org/namespaces/inkscape"
   class="ionicon"
   viewBox="0 0 512 512"
   version="1.1"
   id="svg8"
   sodipodi:docname="fish.svg"
   inkscape:version="1.0.2 (e86c8708, 2021-01-15)">
  <metadata
     id="metadata14">
    <rdf:RDF>
      <cc:Work
         rdf:about="">
        <dc:format>image/svg+xml</dc:format>
        <dc:type
           rdf:resource="http://purl.org/dc/dcmitype/StillImage" />
      </cc:Work>
    </rdf:RDF>
  </metadata>
  <defs
     id="defs12" />
  <sodipodi:namedview
     pagecolor="#ffffff"
     bordercolor="#666666"
     borderopacity="1"
     objecttolerance="10"
     gridtolerance="10"
     guidetolerance="10"
     inkscape:pageopacity="0"
     inkscape:pageshadow="2"
     inkscape:window-width="689"
     inkscape:window-height="480"
     id="namedview10"
     showgrid="false"
     inkscape:zoom="1.3027344"
     inkscape:cx="256"
     inkscape:cy="256"
     inkscape:window-x="44"
     inkscape:window-y="25"
     inkscape:window-maximized="0"
     inkscape:current-layer="svg8" />
  <title
     id="title2">Fish</title>
  <path
     style="color:#000000;font-style:normal;font-variant:normal;font-weight:normal;font-stretch:normal;font-size:medium;line-height:normal;font-family:sans-serif;font-variant-ligatures:normal;font-variant-position:normal;font-variant-caps:normal;font-variant-numeric:normal;font-variant-alternates:normal;font-variant-east-asian:normal;font-feature-settings:normal;font-variation-settings:normal;text-indent:0;text-align:start;text-decoration:none;text-decoration-line:none;text-decoration-style:solid;text-decoration-color:#000000;letter-spacing:normal;word-spacing:normal;text-transform:none;writing-mode:lr-tb;direction:ltr;text-orientation:mixed;dominant-baseline:auto;baseline-shift:baseline;text-anchor:start;white-space:normal;shape-padding:0;shape-margin:0;inline-size:0;clip-rule:nonzero;display:inline;overflow:visible;visibility:visible;isolation:auto;mix-blend-mode:normal;color-interpolation:sRGB;color-interpolation-filters:linearRGB;solid-color:#000000;solid-opacity:1;vector-effect:none;fill:#000000;fill-opacity:1;fill-rule:nonzero;stroke-width:1;stroke-linecap:butt;stroke-linejoin:miter;stroke-miterlimit:4;stroke-dasharray:none;stroke-dashoffset:0;stroke-opacity:1;color-rendering:auto;image-rendering:auto;shape-rendering:auto;text-rendering:auto;enable-background:accumulate;stop-color:#000000;stop-opacity:1;stroke:none;opacity:1"
     d="m 512,256 c 0,-16.54 -14.27,-46.76 -45.61,-74 -17.88853,-15.38666 -38.27541,-27.60255 -60.28,-36.12 -1.51624,-0.56708 -3.21546,0.10742 -3.93,1.56 -0.15,0.29 -0.3,0.57 -0.47,0.86 l -9.59,15.9 c -32.91928,56.84427 -32.89258,126.96082 0.07,183.78 l 0.23,0.39 8.74,16 c 0.9591,1.75752 3.0699,2.53518 4.94,1.82 C 479.63,337.42 512,281.49 512,256 Z m -93.92,-0.14 c -15.15347,1.98185 -24.19113,-16.37393 -13.38753,-27.17753 10.8036,-10.8036 29.15938,-1.76594 27.17753,13.38753 -0.94042,7.1906 -6.5994,12.84958 -13.79,13.79 z"
     id="path4" />
  <path
     style="color:#000000;font-style:normal;font-variant:normal;font-weight:normal;font-stretch:normal;font-size:medium;line-height:normal;font-family:sans-serif;font-variant-ligatures:normal;font-variant-position:normal;font-variant-caps:normal;font-variant-numeric:normal;font-variant-alternates:normal;font-variant-east-asian:normal;font-feature-settings:normal;font-variation-settings:normal;text-indent:0;text-align:start;text-decoration:none;text-decoration-line:none;text-decoration-style:solid;text-decoration-color:#000000;letter-spacing:normal;word-spacing:normal;text-transform:none;writing-mode:lr-tb;direction:ltr;text-orientation:mixed;dominant-baseline:auto;baseline-shift:baseline;text-anchor:start;white-space:normal;shape-padding:0;shape-margin:0;inline-size:0;clip-rule:nonzero;display:inline;overflow:visible;visibility:visible;isolation:auto;mix-blend-mode:normal;color-interpolation:sRGB;color-interpolation-filters:linearRGB;solid-color:#000000;solid-opacity:1;vector-effect:none;fill:#000000;fill-opacity:1;fill-rule:nonzero;stroke-width:1;stroke-linecap:butt;stroke-linejoin:miter;stroke-miterlimit:4;stroke-dasharray:none;stroke-dashoffset:0;stroke-opacity:1;color-rendering:auto;image-rendering:auto;shape-rendering:auto;text-rendering:auto;enable-background:accumulate;stop-color:#000000;stop-opacity:1;stroke:none;opacity:1"
     d="m 335.45,256 c -0.0138,-37.93631 10.01968,-75.19958 29.08,-108 l 0.12,-0.21 4.62,-7.67 c 1.44068,-2.35774 0.11391,-5.43134 -2.59,-6 -12.94536,-2.70769 -26.06389,-4.50873 -39.26,-5.39 -1.55609,-0.10051 -3.04814,-0.65698 -4.29,-1.6 -19.28,-14.66 -57.5,-40.3 -96.46,-46.89 -11.5886,-1.920224 -21.22681,8.88529 -18,20.18 l 10.62,37.17 c 0.57258,1.99697 -0.47888,4.09988 -2.42,4.84 -36.85,13.69 -68.59,38.75 -91.74,57.85 -2.91964,2.38974 -7.11207,2.41474 -10.06,0.06 -3.14667,-2.5 -6.37667,-4.96333 -9.69,-7.39 C 65.74,164 19.17,160.19 17.21,160.05 c -10.6939553,-0.80794 -19.1394187,8.92718 -16.83,19.4 0.42,1.93 9.19,40.69 31.7,71.61 2.079329,2.84378 2.079329,6.70622 0,9.55 -22.51,30.91 -31.28,69.68 -31.7,71.61 -2.3094187,10.47282 6.1360447,20.20794 16.83,19.4 2,-0.14 48.53,-4 88.12,-32.88 3.23333,-2.37333 6.39,-4.78 9.47,-7.22 2.95029,-2.35185 7.14273,-2.32267 10.06,0.07 23.25,19.19 55.05,44.28 92,58 1.93626,0.7398 2.98662,2.83617 2.42,4.83 l -10.66,37.18 c -3.22681,11.29471 6.4114,22.10022 18,20.18 17.16,-2.9 51.88,-12.86 96.05,-46.83 1.26168,-0.96278 2.77701,-1.53625 4.36,-1.65 13.1796,-0.86324 26.284,-2.6341 39.22,-5.3 2.62391,-0.55072 3.97376,-3.47625 2.69,-5.83 l -4.51,-8.29 C 345.42554,331.10484 335.42748,293.88641 335.45,256 Z"
     id="path6" />
</svg>
