<?xml version="1.0" encoding="UTF-8" standalone="no"?>
<svg
   xmlns:dc="http://purl.org/dc/elements/1.1/"
   xmlns:cc="http://creativecommons.org/ns#"
   xmlns:rdf="http://www.w3.org/1999/02/22-rdf-syntax-ns#"
   xmlns:svg="http://www.w3.org/2000/svg"
   xmlns="http://www.w3.org/2000/svg"
   xmlns:sodipodi="http://sodipodi.sourceforge.net/DTD/sodipodi-0.dtd"
   xmlns:inkscape="http://www.inkscape.org/namespaces/inkscape"
   class="ionicon"
   viewBox="0 0 512 512"
   version="1.1"
   id="svg10"
   sodipodi:docname="fish-outline.svg"
   inkscape:version="1.0.2 (e86c8708, 2021-01-15)">
  <metadata
     id="metadata16">
    <rdf:RDF>
      <cc:Work
         rdf:about="">
        <dc:format>image/svg+xml</dc:format>
        <dc:type
           rdf:resource="http://purl.org/dc/dcmitype/StillImage" />
      </cc:Work>
    </rdf:RDF>
  </metadata>
  <defs
     id="defs14" />
  <sodipodi:namedview
     pagecolor="#ffffff"
     bordercolor="#666666"
     borderopacity="1"
     objecttolerance="10"
     gridtolerance="10"
     guidetolerance="10"
     inkscape:pageopacity="0"
     inkscape:pageshadow="2"
     inkscape:window-width="689"
     inkscape:window-height="480"
     id="namedview12"
     showgrid="false"
     inkscape:zoom="1.3027344"
     inkscape:cx="256"
     inkscape:cy="256"
     inkscape:window-x="44"
     inkscape:window-y="25"
     inkscape:window-maximized="0"
     inkscape:current-layer="svg10" />
  <title
     id="title2">Fish</title>
  <path
     style="color:#000000;font-style:normal;font-variant:normal;font-weight:normal;font-stretch:normal;font-size:medium;line-height:normal;font-family:sans-serif;font-variant-ligatures:normal;font-variant-position:normal;font-variant-caps:normal;font-variant-numeric:normal;font-variant-alternates:normal;font-variant-east-asian:normal;font-feature-settings:normal;font-variation-settings:normal;text-indent:0;text-align:start;text-decoration:none;text-decoration-line:none;text-decoration-style:solid;text-decoration-color:#000000;letter-spacing:normal;word-spacing:normal;text-transform:none;writing-mode:lr-tb;direction:ltr;text-orientation:mixed;dominant-baseline:auto;baseline-shift:baseline;text-anchor:start;white-space:normal;shape-padding:0;shape-margin:0;inline-size:0;clip-rule:nonzero;display:inline;overflow:visible;visibility:visible;isolation:auto;mix-blend-mode:normal;color-interpolation:sRGB;color-interpolation-filters:linearRGB;solid-color:#000000;solid-opacity:1;vector-effect:none;fill:currentColor;fill-opacity:1;fill-rule:nonzero;stroke:none;stroke-linecap:butt;stroke-linejoin:round;stroke-miterlimit:4;stroke-dasharray:none;stroke-dashoffset:0;stroke-opacity:1;color-rendering:auto;image-rendering:auto;shape-rendering:auto;text-rendering:auto;enable-background:accumulate;stop-color:#000000;stop-opacity:1;opacity:1"
     d="M 223.98828 80 A 16.0016 16.0016 0 0 0 208.61523 100.39648 L 220.27734 141.21484 C 177.56861 155.97366 143.32728 184.8874 119.96484 204.42969 C 115.19685 200.44252 110.33213 196.57318 105.30469 192.91406 C 64.546371 163.15308 17.205078 160.04492 17.205078 160.04492 A 16.0016 16.0016 0 0 0 0.375 179.44727 C 0.375 179.44727 8.712786 222.65971 35.691406 255.83008 C 8.712784 289.00695 0.375 332.22266 0.375 332.22266 A 16.0016 16.0016 0 0 0 17.205078 351.625 C 17.205078 351.625 64.546575 348.51819 105.30469 318.75781 L 105.32227 318.74414 C 110.2704 315.14274 115.06077 311.33557 119.75586 307.41406 C 143.1419 327.00209 177.50244 355.98625 220.2793 370.78125 L 208.61523 411.60352 A 16.0016 16.0016 0 0 0 226.66797 431.77539 C 269.00964 424.61285 306.15965 397.87559 324.55273 383.4043 C 389.79151 379.4424 436.28807 356.39602 466.30469 330.44727 C 481.70701 317.13227 492.82525 303.15013 500.27734 290.45703 C 507.72944 277.76393 512 267.31522 512 256 C 512 244.68182 507.70216 234.55994 500.27148 221.94531 C 492.84081 209.33069 481.75563 195.33587 466.39258 181.96484 C 436.45259 155.90698 390.03337 132.58411 324.93164 128.61523 C 306.71336 114.32086 269.30003 87.430359 226.66602 80.224609 A 16.0016 16.0016 0 0 0 223.98828 80 z M 247.38281 119.59961 C 273.3929 130.30416 298.10149 147.94193 309.10547 156.75781 A 16.0016 16.0016 0 0 0 318.39844 160.25391 C 379.46592 162.96875 419.88837 183.91307 445.38477 206.10352 C 458.13296 217.19874 467.10208 228.68556 472.69922 238.1875 C 478.29636 247.68944 480 256.31818 480 256 C 480 256.18478 478.26955 264.73607 472.68164 274.25391 C 467.09373 283.77175 458.13463 295.21148 445.37695 306.24023 C 419.86161 328.29774 379.32362 349.03856 318.00977 351.76562 A 16.0016 16.0016 0 0 0 308.69922 355.27539 C 297.52727 364.24958 273.08814 381.70399 247.40039 392.34375 L 255.38477 364.39648 A 16.0016 16.0016 0 0 0 243.75391 344.44727 C 198.72085 333.57936 156.60103 295.87041 129.57031 273.97656 A 16.0016 16.0016 0 0 0 108.62891 274.67188 C 101.60943 281.17295 94.210596 287.25329 86.474609 292.88281 A 16.0016 16.0016 0 0 0 86.453125 292.90039 C 70.883349 304.27369 53.532782 310.87507 39.773438 314.71094 C 45.877184 299.1371 55.337704 279.74231 68.34375 267.46484 A 16.0016 16.0016 0 0 0 68.341797 244.19336 C 55.338191 231.92253 45.879128 212.53093 39.775391 196.95898 C 53.534468 200.79493 70.883991 207.3967 86.453125 218.76953 A 16.0016 16.0016 0 0 0 86.474609 218.78711 C 94.280438 224.46841 101.74422 230.60445 108.82617 237.16602 A 16.0016 16.0016 0 0 0 129.75391 237.87695 C 156.86721 215.97894 198.76546 178.38516 243.74609 167.55469 A 16.0016 16.0016 0 0 0 255.38477 147.60352 L 247.38281 119.59961 z "
     id="path4" />
  <path
     style="color:#000000;font-style:normal;font-variant:normal;font-weight:normal;font-stretch:normal;font-size:medium;line-height:normal;font-family:sans-serif;font-variant-ligatures:normal;font-variant-position:normal;font-variant-caps:normal;font-variant-numeric:normal;font-variant-alternates:normal;font-variant-east-asian:normal;font-feature-settings:normal;font-variation-settings:normal;text-indent:0;text-align:start;text-decoration:none;text-decoration-line:none;text-decoration-style:solid;text-decoration-color:#000000;letter-spacing:normal;word-spacing:normal;text-transform:none;writing-mode:lr-tb;direction:ltr;text-orientation:mixed;dominant-baseline:auto;baseline-shift:baseline;text-anchor:start;white-space:normal;shape-padding:0;shape-margin:0;inline-size:0;clip-rule:nonzero;display:inline;overflow:visible;visibility:visible;isolation:auto;mix-blend-mode:normal;color-interpolation:sRGB;color-interpolation-filters:linearRGB;solid-color:#000000;solid-opacity:1;vector-effect:none;fill:#000000;fill-opacity:1;fill-rule:nonzero;stroke-width:1;stroke-linecap:butt;stroke-linejoin:miter;stroke-miterlimit:4;stroke-dasharray:none;stroke-dashoffset:0;stroke-opacity:1;color-rendering:auto;image-rendering:auto;shape-rendering:auto;text-rendering:auto;enable-background:accumulate;stop-color:#000000;stop-opacity:1;stroke:none;opacity:1"
     d="m 432,239.99001 c 0,8.83655 -7.16344,16 -16,16 -8.83656,0 -16,-7.16345 -16,-16 0,-8.83656 7.16344,-16 16,-16 8.83656,0 16,7.16344 16,16 z"
     id="circle6" />
  <path
     style="color:#000000;font-style:normal;font-variant:normal;font-weight:normal;font-stretch:normal;font-size:medium;line-height:normal;font-family:sans-serif;font-variant-ligatures:normal;font-variant-position:normal;font-variant-caps:normal;font-variant-numeric:normal;font-variant-alternates:normal;font-variant-east-asian:normal;font-feature-settings:normal;font-variation-settings:normal;text-indent:0;text-align:start;text-decoration:none;text-decoration-line:none;text-decoration-style:solid;text-decoration-color:#000000;letter-spacing:normal;word-spacing:normal;text-transform:none;writing-mode:lr-tb;direction:ltr;text-orientation:mixed;dominant-baseline:auto;baseline-shift:baseline;text-anchor:start;white-space:normal;shape-padding:0;shape-margin:0;inline-size:0;clip-rule:nonzero;display:inline;overflow:visible;visibility:visible;isolation:auto;mix-blend-mode:normal;color-interpolation:sRGB;color-interpolation-filters:linearRGB;solid-color:#000000;solid-opacity:1;vector-effect:none;fill:currentColor;fill-opacity:1;fill-rule:nonzero;stroke:none;stroke-linecap:round;stroke-linejoin:miter;stroke-miterlimit:20;stroke-dasharray:none;stroke-dashoffset:0;stroke-opacity:1;color-rendering:auto;image-rendering:auto;shape-rendering:auto;text-rendering:auto;enable-background:accumulate;stop-color:#000000;stop-opacity:1;opacity:1"
     d="M 378.375 140 A 16 16 0 0 0 364.53125 147.96875 C 325.77387 214.7492 325.77387 297.2508 364.53125 364.03125 A 16 16 0 0 0 386.40039 369.83789 A 16 16 0 0 0 392.20898 347.96875 C 359.1899 291.0756 359.1899 220.9244 392.20898 164.03125 A 16 16 0 0 0 386.40039 142.16211 A 16 16 0 0 0 378.375 140 z "
     id="path8" />
</svg>
