<?xml version="1.0" encoding="utf-8"?>
<!-- Generator: Adobe Illustrator 24.0.0, SVG Export Plug-In . SVG Version: 6.00 Build 0)  -->
<svg version="1.1" id="Layer_1" xmlns="http://www.w3.org/2000/svg" xmlns:xlink="http://www.w3.org/1999/xlink" x="0px" y="0px"
	 viewBox="0 0 512 512" style="enable-background:new 0 0 512 512;" xml:space="preserve">
<title>ionicons-v5-m</title>
<g>
	<path d="M256,448c-6.3,0-12.5-1.9-18-5.6c-78.6-53.3-112.6-89.9-131.4-112.8c-40-48.7-59.2-98.8-58.6-153
		C48.6,114.5,98.5,64,159.1,64c48.1,0,80,29.5,96.9,51c16.9-21.5,48.8-51,96.9-51c60.6,0,110.4,50.5,111.1,112.6
		c0.5,54.2-18.6,104.3-58.6,153c-18.8,22.9-52.8,59.5-131.4,112.8C268.5,446.2,262.3,448,256,448z M159.1,96
		c-43.1,0-78.6,36.3-79.1,81c-1.1,104.6,88.4,179.6,176,239c87.6-59.5,177.1-134.4,176-239c-0.5-44.6-35.9-81-79.1-81
		c-22.3,0-42.7,9-60.9,26.7c-14.3,14-21.7,28.4-21.8,28.5c-2.7,5.4-8.2,8.8-14.3,8.8c-6.1,0-11.6-3.4-14.3-8.9
		c0-0.1-7.4-14.5-21.8-28.5C201.8,105,181.3,96,159.1,96z"/>
</g>
<g>
	<path d="M256,336c-0.5,0-0.9,0-1.4-0.1c-6.5-0.6-12.1-5.1-13.9-11.3l-36.4-121.4l-30,59.9c-2.7,5.4-8.3,8.8-14.3,8.8H48
		c-8.8,0-16-7.2-16-16c0-8.8,7.2-16,16-16h102.1l43.6-87.2c2.9-5.9,9.2-9.3,15.7-8.8c6.5,0.6,12.1,5.1,13.9,11.3l36.4,121.4l30-59.9
		c2.7-5.4,8.2-8.8,14.3-8.8s11.6,3.4,14.3,8.8l27.6,55.2H464c8.8,0,16,7.2,16,16s-7.2,16-16,16H336c-6.1,0-11.6-3.4-14.3-8.8
		L304,259.8l-33.7,67.4C267.6,332.6,262,336,256,336z"/>
</g>
</svg>
