<?xml version="1.0" encoding="UTF-8" standalone="no"?>
<svg
   xmlns:dc="http://purl.org/dc/elements/1.1/"
   xmlns:cc="http://creativecommons.org/ns#"
   xmlns:rdf="http://www.w3.org/1999/02/22-rdf-syntax-ns#"
   xmlns:svg="http://www.w3.org/2000/svg"
   xmlns="http://www.w3.org/2000/svg"
   xmlns:sodipodi="http://sodipodi.sourceforge.net/DTD/sodipodi-0.dtd"
   xmlns:inkscape="http://www.inkscape.org/namespaces/inkscape"
   class="ionicon"
   viewBox="0 0 512 512"
   version="1.1"
   id="svg6"
   sodipodi:docname="flag-outline.svg"
   inkscape:version="1.0.2 (e86c8708, 2021-01-15)">
  <metadata
     id="metadata12">
    <rdf:RDF>
      <cc:Work
         rdf:about="">
        <dc:format>image/svg+xml</dc:format>
        <dc:type
           rdf:resource="http://purl.org/dc/dcmitype/StillImage" />
      </cc:Work>
    </rdf:RDF>
  </metadata>
  <defs
     id="defs10" />
  <sodipodi:namedview
     pagecolor="#ffffff"
     bordercolor="#666666"
     borderopacity="1"
     objecttolerance="10"
     gridtolerance="10"
     guidetolerance="10"
     inkscape:pageopacity="0"
     inkscape:pageshadow="2"
     inkscape:window-width="689"
     inkscape:window-height="480"
     id="namedview8"
     showgrid="false"
     inkscape:zoom="1.3027344"
     inkscape:cx="256"
     inkscape:cy="256"
     inkscape:window-x="44"
     inkscape:window-y="25"
     inkscape:window-maximized="0"
     inkscape:current-layer="svg6" />
  <title
     id="title2">Flag</title>
  <path
     style="color:#000000;font-style:normal;font-variant:normal;font-weight:normal;font-stretch:normal;font-size:medium;line-height:normal;font-family:sans-serif;font-variant-ligatures:normal;font-variant-position:normal;font-variant-caps:normal;font-variant-numeric:normal;font-variant-alternates:normal;font-variant-east-asian:normal;font-feature-settings:normal;font-variation-settings:normal;text-indent:0;text-align:start;text-decoration:none;text-decoration-line:none;text-decoration-style:solid;text-decoration-color:#000000;letter-spacing:normal;word-spacing:normal;text-transform:none;writing-mode:lr-tb;direction:ltr;text-orientation:mixed;dominant-baseline:auto;baseline-shift:baseline;text-anchor:start;white-space:normal;shape-padding:0;shape-margin:0;inline-size:0;clip-rule:nonzero;display:inline;overflow:visible;visibility:visible;isolation:auto;mix-blend-mode:normal;color-interpolation:sRGB;color-interpolation-filters:linearRGB;solid-color:#000000;solid-opacity:1;vector-effect:none;fill:currentColor;fill-opacity:1;fill-rule:nonzero;stroke:none;stroke-linecap:round;stroke-linejoin:miter;stroke-miterlimit:10;stroke-dasharray:none;stroke-dashoffset:0;stroke-opacity:1;color-rendering:auto;image-rendering:auto;shape-rendering:auto;text-rendering:auto;enable-background:accumulate;stop-color:#000000;stop-opacity:1;opacity:1"
     d="M 160 32 C 111.05106 32 87.077177 40.909336 75.978516 47.398438 C 68.61452 51.661089 64.030032 59.574075 64 68.083984 L 64 68.111328 L 64 303.87891 L 64 464 A 16 16 0 0 0 80 480 A 16 16 0 0 0 96 464 L 96 313.13867 C 97.409772 312.52679 98.957566 311.88068 101.06055 311.17969 C 111.03669 307.85431 129.33333 304 160 304 C 189.33333 304 224.47211 311.60626 258.33594 319.57422 C 292.19977 327.54218 324.44444 336 352 336 C 395.31868 336 426.37607 323.97609 436.03125 319.74609 L 436.04102 319.74023 L 436.05078 319.73633 C 443.25519 316.56867 447.977 309.35634 448 301.48633 L 448 301.46289 L 448 82.113281 C 448.02563 69.819063 434.41686 60.72958 423.07031 65.462891 L 423.0332 65.478516 L 422.99609 65.494141 C 400.52426 75.001888 376.3826 79.931585 351.98242 79.998047 C 333.92634 79.991482 301.99447 68.971613 267.68359 56.90625 C 233.3625 44.837292 196 32 160 32 z M 160 64 C 188 64 223.1375 75.162708 257.06641 87.09375 C 290.99531 99.024792 323.05319 112 352 112 L 352.02148 112 L 352.04102 112 C 373.77719 111.94359 395.33572 108.58309 416 102.09961 L 416 293.21289 C 404.31546 297.45591 381.67262 304 352 304 C 331.55556 304 299.80023 296.45782 265.66406 288.42578 C 231.52789 280.39374 194.66667 272 160 272 C 130.1752 272 110.03324 275.36292 96 279.41016 L 96 73.242188 C 103.74787 69.773813 122.00468 64 160 64 z M 435.46484 94.964844 L 435.39062 94.996094 C 435.38554 94.998215 435.38009 94.997886 435.375 95 C 435.40466 94.987467 435.43519 94.97739 435.46484 94.964844 z "
     id="path4" />
</svg>
