<?xml version="1.0" encoding="utf-8"?>
<!-- Generator: Adobe Illustrator 24.0.0, SVG Export Plug-In . SVG Version: 6.00 Build 0)  -->
<svg version="1.1" id="Layer_1" xmlns="http://www.w3.org/2000/svg" xmlns:xlink="http://www.w3.org/1999/xlink" x="0px" y="0px"
	 viewBox="0 0 512 512" style="enable-background:new 0 0 512 512;" xml:space="preserve">
<title>ionicons-v5-m</title>
<g>
	<path d="M80,480c-8.8,0-16-7.2-16-16V68.1c0-8.5,4.6-16.5,11.9-20.7C88,40.4,112.3,32,160,32c37.2,0,78.8,14.7,115.6,27.7
		C305.1,70.1,333.1,80,352,80c24.5-0.1,48.4-4.9,71-14.5c4.5-1.9,9.4-1.9,13.9-0.1c4.4,1.8,7.9,5.3,9.8,9.7c0.9,2.2,1.4,4.6,1.4,7
		v219.3c0,8-4.7,15.1-12,18.3c-8.7,3.8-40.5,16.3-84,16.3c-24.1,0-54.4-7.1-86.4-14.7c-36-8.5-73.2-17.3-105.6-17.3
		c-36.9,0-55.7,5.6-64,9.1V464C96,472.8,88.8,480,80,480z M160,272c36.2,0,77,9.6,113,18.1c30.1,7.1,58.6,13.9,79,13.9
		c29.4,0,52.1-6.4,64-10.7V102.1c-20.6,6.5-42.1,9.8-64,9.9c-24.5,0-54.9-10.8-87.2-22.1C228.9,77.1,191.7,64,160,64
		c-37.1,0-55.9,5.6-64,9.1v206.2C110,275.3,130.5,272,160,272z M416,82.1C416,82.1,416,82.1,416,82.1L416,82.1z"/>
</g>
</svg>
