<?xml version="1.0" encoding="UTF-8"?>
<svg width="512px" height="512px" viewBox="0 0 512 512" version="1.1" xmlns="http://www.w3.org/2000/svg" xmlns:xlink="http://www.w3.org/1999/xlink">
    <!-- Generator: Sketch 62 (91390) - https://sketch.com -->
    <title>Artboard</title>
    <desc>Created with Sketch.</desc>
    <g id="Artboard" stroke="none" stroke-width="1" fill="none" fill-rule="evenodd">
        <g id="flask-outline" transform="translate(47.000000, 32.000000)" fill="#000000" fill-rule="nonzero">
            <path d="M289,0 C297.8,0 305,7.2 305,16 C305,24.8 297.8,32 289,32 L272.999967,32 L273,109.5 C273,118.6 275.6,127.5 280.4,135.1 L405.3,332.9 C420.1,356.4 421,384.9 407.6,409.2 C394.2,433.5 369.6,448 341.9,448 L76.1,448 C48.4,448 23.8,433.5 10.4,409.2 C-3,384.9 -2.1,356.4 12.7,332.9 L137.6,135.1 C142.4,127.4 145,118.5 145,109.5 L144.999967,32 L129,32 C120.2,32 113,24.8 113,16 C113,7.2 120.2,0 129,0 L289,0 Z M338.981967,288 L78.8809666,288 L39.7,350 C31.2,363.5 30.7,379.8 38.4,393.7 C46.1,407.6 60.1,415.9 76,415.9 L341.8,415.9 C357.7,415.9 371.8,407.6 379.4,393.7 C387.1,379.8 386.6,363.4 378.1,350 L338.981967,288 Z M240.999967,32 L176.999967,32 L177,109.5 C177,124.6 172.7,139.4 164.7,152.2 L99.1029666,256 L318.791967,256 L253.3,152.2 C245.2,139.4 241,124.6 241,109.5 L240.999967,32 Z" id="Combined-Shape"></path>
        </g>
    </g>
</svg>