<?xml version="1.0" encoding="utf-8"?>
<!-- Generator: Adobe Illustrator 24.0.0, SVG Export Plug-In . SVG Version: 6.00 Build 0)  -->
<svg version="1.1" id="Layer_1" xmlns="http://www.w3.org/2000/svg" xmlns:xlink="http://www.w3.org/1999/xlink" x="0px" y="0px"
	 viewBox="0 0 512 512" style="enable-background:new 0 0 512 512;" xml:space="preserve">
<title>ionicons-v5-m</title>
<g>
	<path d="M194.8,496c-1.1,0-2.2-0.1-3.2-0.3c-4.8-0.8-9-3.5-11.8-7.5c-2.8-4-3.9-8.9-3-13.7L204.8,320H96c-6.2,0-11.8-3.5-14.4-9.1
		c-2.7-5.6-1.9-12.2,2-17L302.7,23.1c3.5-4.4,8.8-7.1,14.5-7.1c0.7,0,1.6,0,2.3,0.1c4.9,0.6,9.2,3.1,12.3,7c3,3.9,4.4,8.7,3.8,13.6
		c0,0.3-0.1,0.6-0.1,0.9L307.2,192H416c6.2,0,11.8,3.5,14.4,9.1c2.7,5.6,1.9,12.2-2,17L209.3,489C205.8,493.4,200.4,496,194.8,496z
		 M129.5,288H224c4.7,0,9.2,2.1,12.3,5.7c3,3.6,4.3,8.4,3.5,13.1l-22,120.7L382.5,224H288c-4.7,0-9.2-2.1-12.3-5.8
		c-3-3.6-4.3-8.5-3.5-13.1l22.1-120.8L129.5,288z M315.3,33L315.3,33L315.3,33z"/>
</g>
</svg>
