<?xml version="1.0" encoding="UTF-8" standalone="no"?>
<svg
   xmlns:dc="http://purl.org/dc/elements/1.1/"
   xmlns:cc="http://creativecommons.org/ns#"
   xmlns:rdf="http://www.w3.org/1999/02/22-rdf-syntax-ns#"
   xmlns:svg="http://www.w3.org/2000/svg"
   xmlns="http://www.w3.org/2000/svg"
   xmlns:sodipodi="http://sodipodi.sourceforge.net/DTD/sodipodi-0.dtd"
   xmlns:inkscape="http://www.inkscape.org/namespaces/inkscape"
   class="ionicon"
   viewBox="0 0 512 512"
   version="1.1"
   id="svg6"
   sodipodi:docname="flash-off-outline.svg"
   inkscape:version="1.0.2 (e86c8708, 2021-01-15)">
  <metadata
     id="metadata12">
    <rdf:RDF>
      <cc:Work
         rdf:about="">
        <dc:format>image/svg+xml</dc:format>
        <dc:type
           rdf:resource="http://purl.org/dc/dcmitype/StillImage" />
      </cc:Work>
    </rdf:RDF>
  </metadata>
  <defs
     id="defs10" />
  <sodipodi:namedview
     pagecolor="#ffffff"
     bordercolor="#666666"
     borderopacity="1"
     objecttolerance="10"
     gridtolerance="10"
     guidetolerance="10"
     inkscape:pageopacity="0"
     inkscape:pageshadow="2"
     inkscape:window-width="689"
     inkscape:window-height="480"
     id="namedview8"
     showgrid="false"
     inkscape:zoom="1.3027344"
     inkscape:cx="256"
     inkscape:cy="256"
     inkscape:window-x="44"
     inkscape:window-y="25"
     inkscape:window-maximized="0"
     inkscape:current-layer="svg6" />
  <title
     id="title2">Flash Off</title>
  <path
     style="color:#000000;font-style:normal;font-variant:normal;font-weight:normal;font-stretch:normal;font-size:medium;line-height:normal;font-family:sans-serif;font-variant-ligatures:normal;font-variant-position:normal;font-variant-caps:normal;font-variant-numeric:normal;font-variant-alternates:normal;font-variant-east-asian:normal;font-feature-settings:normal;font-variation-settings:normal;text-indent:0;text-align:start;text-decoration:none;text-decoration-line:none;text-decoration-style:solid;text-decoration-color:#000000;letter-spacing:normal;word-spacing:normal;text-transform:none;writing-mode:lr-tb;direction:ltr;text-orientation:mixed;dominant-baseline:auto;baseline-shift:baseline;text-anchor:start;white-space:normal;shape-padding:0;shape-margin:0;inline-size:0;clip-rule:nonzero;display:inline;overflow:visible;visibility:visible;isolation:auto;mix-blend-mode:normal;color-interpolation:sRGB;color-interpolation-filters:linearRGB;solid-color:#000000;solid-opacity:1;vector-effect:none;fill:#000000;fill-opacity:1;fill-rule:nonzero;stroke-width:1;stroke-linecap:butt;stroke-linejoin:miter;stroke-miterlimit:4;stroke-dasharray:none;stroke-dashoffset:0;stroke-opacity:1;color-rendering:auto;image-rendering:auto;shape-rendering:auto;text-rendering:auto;enable-background:accumulate;stop-color:#000000;stop-opacity:1;stroke:none;opacity:1"
     d="m 432,448 c -4.24447,0.007 -8.31595,-1.68148 -11.31,-4.69 l -352,-352 C 62.713534,85.019368 62.840394,75.111507 68.975951,68.975951 75.111507,62.840394 85.019368,62.713534 91.31,68.69 l 352,352 C 453.38182,430.76842 446.24837,447.9934 432,448 Z M 294.34,84.28 272.26,205.12 c -1.09724,5.98381 1.29393,12.07217 6.17,15.71 2.88017,2.10255 6.36431,3.21481 9.93,3.17 h 94.12 l -38.37,47.42 c -1.28498,1.59002 -1.16422,3.89309 0.28,5.34 l 17.07,17.07 c 1.67901,1.68158 4.44515,1.53722 5.94,-0.31 l 60.8,-75.16 c 3.31377,-3.9931 4.53811,-9.32085 3.3,-14.36 -1.82474,-7.0672 -8.20102,-12.00368 -15.5,-12 H 307.19 L 335.4,37.63 c 0.05,-0.3 0.1,-0.59 0.13,-0.89 1.04662,-8.226989 -3.52466,-16.141334 -11.17393,-19.345629 C 316.70681,14.190076 307.85953,16.483352 302.73,23 l -92.58,114.46 c -1.29104,1.59172 -1.17014,3.90174 0.28,5.35 l 17.07,17.06 c 1.67901,1.68158 4.44515,1.53722 5.94,-0.31 z m -76.56,343.29 22,-120.71 c 1.08875,-5.9845 -1.31007,-12.06876 -6.19,-15.7 -2.8803,-2.0937 -6.35939,-3.20196 -9.92,-3.16 h -94.1 l 38.36,-47.42 c 1.28498,-1.59002 1.16422,-3.89309 -0.28,-5.34 l -17.07,-17.07 c -1.67807,-1.67409 -4.43563,-1.52994 -5.93,0.31 L 83.8,293.64 c -3.313772,3.9931 -4.538115,9.32085 -3.3,14.36 1.824743,7.0672 8.201024,12.00368 15.5,12 h 108.83 l -28.09,154.36 v 0.11 c -1.42617,8.27476 2.93993,16.4633 10.60548,19.89039 7.66555,3.42709 16.67915,1.22031 21.89452,-5.36039 l 92.61,-114.46 c 1.29104,-1.59172 1.17014,-3.90174 -0.28,-5.35 L 284.5,352.13 c -1.67901,-1.68158 -4.44515,-1.53722 -5.94,0.31 z"
     id="path4" />
</svg>
