<?xml version="1.0" encoding="UTF-8"?>
<svg width="512px" height="512px" viewBox="0 0 512 512" version="1.1" xmlns="http://www.w3.org/2000/svg" xmlns:xlink="http://www.w3.org/1999/xlink">
    <!-- Generator: Sketch 62 (91390) - https://sketch.com -->
    <title>Artboard</title>
    <desc>Created with Sketch.</desc>
    <g id="Artboard" stroke="none" stroke-width="1" fill="none" fill-rule="evenodd">
        <g id="flashlight-outline" transform="translate(32.000000, 32.000000)" fill="#000000" fill-rule="nonzero">
            <path d="M328.42044,12.0227101 L436.02044,119.52271 C445.92044,129.42271 449.92044,142.02271 447.22044,155.02271 C445.12044,164.92271 439.42044,174.62271 430.02044,184.02271 L418.02044,195.92271 C388.72044,225.22271 348.62044,228.22271 324.62044,230.02271 C317.42044,230.62271 305.42044,236.92271 298.42044,243.92271 L109.72044,432.72271 C99.5204403,442.92271 86.7204403,448.02271 73.7204403,448.02271 C59.0204403,448.02271 43.8204403,441.62271 31.2204403,429.02271 L19.0204403,416.82271 C8.22044033,406.02271 1.52044033,392.62271 0.220440332,379.02271 C-1.17955967,363.92271 4.12044033,349.42271 15.2204403,338.32271 L204.02044,149.62271 C211.02044,142.62271 217.32044,130.62271 217.92044,123.52271 L218.12044,121.12271 C219.92044,95.1227101 222.52044,59.6227101 252.02044,30.0227101 L263.92044,18.0227101 C273.32044,8.62271014 283.02044,2.82271014 292.92044,0.822710142 C305.82044,-1.87728986 318.52044,2.12271014 328.42044,12.0227101 Z M250.22044,123.42271 L250.02044,125.82271 C248.72044,143.12271 237.12044,162.02271 226.82044,172.22271 L37.9204403,361.02271 C33.5204403,365.42271 31.6204403,370.42271 32.1204403,376.12271 C32.7204403,382.22271 36.1204403,388.72271 41.6204403,394.22271 L53.8204403,406.42271 C62.3204403,414.92271 76.2204403,421.02271 87.0204403,410.12271 L275.82044,221.32271 C286.32044,210.82271 304.82044,199.52271 322.12044,198.12271 C337.27851,196.956705 356.247134,195.55548 373.411904,188.014226 L259.806582,74.409312 C252.531039,90.4490078 251.306612,107.673215 250.22044,123.42271 Z M192.72044,235.32271 C203.766135,235.32271 212.72044,244.277015 212.72044,255.32271 C212.72044,266.368405 203.766135,275.32271 192.72044,275.32271 C181.674745,275.32271 172.72044,266.368405 172.72044,255.32271 C172.72044,244.277015 181.674745,235.32271 192.72044,235.32271 Z M300.92044,32.0227101 C300.42044,32.0227101 299.92044,32.1227101 299.52044,32.2227101 C296.02044,32.9227101 291.32044,36.0227101 286.72044,40.7227101 L279.052,48.454 L399.57,168.972 L407.22044,161.32271 C411.92044,156.62271 415.02044,151.92271 415.72044,148.42271 C416.02044,147.12271 416.42044,145.22271 413.22044,142.12271 L305.82044,34.7227101 C303.62044,32.5227101 302.02044,32.0227101 300.92044,32.0227101 Z" id="Combined-Shape"></path>
        </g>
    </g>
</svg>