<?xml version="1.0" encoding="UTF-8" standalone="no"?>
<svg
   xmlns:dc="http://purl.org/dc/elements/1.1/"
   xmlns:cc="http://creativecommons.org/ns#"
   xmlns:rdf="http://www.w3.org/1999/02/22-rdf-syntax-ns#"
   xmlns:svg="http://www.w3.org/2000/svg"
   xmlns="http://www.w3.org/2000/svg"
   xmlns:sodipodi="http://sodipodi.sourceforge.net/DTD/sodipodi-0.dtd"
   xmlns:inkscape="http://www.inkscape.org/namespaces/inkscape"
   class="ionicon"
   viewBox="0 0 512 512"
   version="1.1"
   id="svg6"
   sodipodi:docname="flashlight.svg"
   inkscape:version="1.0.2 (e86c8708, 2021-01-15)">
  <metadata
     id="metadata12">
    <rdf:RDF>
      <cc:Work
         rdf:about="">
        <dc:format>image/svg+xml</dc:format>
        <dc:type
           rdf:resource="http://purl.org/dc/dcmitype/StillImage" />
      </cc:Work>
    </rdf:RDF>
  </metadata>
  <defs
     id="defs10" />
  <sodipodi:namedview
     pagecolor="#ffffff"
     bordercolor="#666666"
     borderopacity="1"
     objecttolerance="10"
     gridtolerance="10"
     guidetolerance="10"
     inkscape:pageopacity="0"
     inkscape:pageshadow="2"
     inkscape:window-width="689"
     inkscape:window-height="480"
     id="namedview8"
     showgrid="false"
     inkscape:zoom="1.3027344"
     inkscape:cx="256"
     inkscape:cy="256"
     inkscape:window-x="44"
     inkscape:window-y="25"
     inkscape:window-maximized="0"
     inkscape:current-layer="svg6" />
  <title
     id="title2">Flashlight</title>
  <path
     style="color:#000000;font-style:normal;font-variant:normal;font-weight:normal;font-stretch:normal;font-size:medium;line-height:normal;font-family:sans-serif;font-variant-ligatures:normal;font-variant-position:normal;font-variant-caps:normal;font-variant-numeric:normal;font-variant-alternates:normal;font-variant-east-asian:normal;font-feature-settings:normal;font-variation-settings:normal;text-indent:0;text-align:start;text-decoration:none;text-decoration-line:none;text-decoration-style:solid;text-decoration-color:#000000;letter-spacing:normal;word-spacing:normal;text-transform:none;writing-mode:lr-tb;direction:ltr;text-orientation:mixed;dominant-baseline:auto;baseline-shift:baseline;text-anchor:start;white-space:normal;shape-padding:0;shape-margin:0;inline-size:0;clip-rule:nonzero;display:inline;overflow:visible;visibility:visible;isolation:auto;mix-blend-mode:normal;color-interpolation:sRGB;color-interpolation-filters:linearRGB;solid-color:#000000;solid-opacity:1;vector-effect:none;fill:#000000;fill-opacity:1;fill-rule:nonzero;stroke-width:1;stroke-linecap:butt;stroke-linejoin:miter;stroke-miterlimit:4;stroke-dasharray:none;stroke-dashoffset:0;stroke-opacity:1;color-rendering:auto;image-rendering:auto;shape-rendering:auto;text-rendering:auto;enable-background:accumulate;stop-color:#000000;stop-opacity:1;stroke:none;opacity:1"
     d="m 462,216 c 9.35,-9.35 15.14,-19.09 17.19,-28.95 2.7,-12.95 -1.29,-25.55 -11.22,-35.48 L 360.43,44.05 C 346.29,29.92 322,24.07 296,50 l -2,2 c -3.12839,3.124913 -3.12839,8.195087 0,11.32 L 448.64,218 c 3.12941,3.15518 8.23059,3.15518 11.36,0 z m -211.86,-62.92 -0.16,2.34 c -0.53,7.18 -6.88,19.15 -13.88,26.14 L 47.27,370.36 C 36.15,381.47 30.81,395.93 32.22,411.06 33.49,424.58 40.16,438 51,448.83 L 63.17,461 c 12.61,12.6 27.78,19 42.49,19 13.56167,-0.0296 26.53913,-5.52343 36,-15.24 L 330.5,275.96 c 7.07,-7.07 18.84,-13.3 26.17,-13.87 17.48,-1.32 43.57,-3.28 67.79,-15.65 2.39801,-1.24148 2.90225,-4.45344 1,-6.37 L 271.69,86.31 c -1.91758,-1.921099 -5.15101,-1.415085 -6.39,1 -12.12,22.99 -13.82,46.91 -15.16,65.77 z m -9.95,146.83 c -5.34217,6.56361 -14.2373,9.0544 -22.21086,6.21949 -7.97352,-2.8349 -13.29906,-10.38171 -13.29906,-18.84449 0,-18.81946 23.62754,-27.22418 35.50992,-12.625 5.98455,7.35286 5.98455,17.89714 0,25.25 z"
     id="path4" />
</svg>
