<?xml version="1.0" encoding="utf-8"?>
<!-- Generator: Adobe Illustrator 24.0.0, SVG Export Plug-In . SVG Version: 6.00 Build 0)  -->
<svg version="1.1" id="Layer_1" xmlns="http://www.w3.org/2000/svg" xmlns:xlink="http://www.w3.org/1999/xlink" x="0px" y="0px"
	 viewBox="0 0 512 512" style="enable-background:new 0 0 512 512;" xml:space="preserve">
<title>ionicons-v5-n</title>
<g>
	<path d="M215.1,172.9c-7.4,0-14.1-5.2-15.7-12.8c-7.4-36.1-11.1-61.8-11.1-76.4c-0.1-18,6.8-34.9,19.4-47.7
		c12.6-12.8,29.5-19.9,47.5-20c0.3,0,0.5,0,0.8,0c18,0,35,7.1,47.9,20.1c12.8,12.9,19.8,29.8,19.8,47.6c0,14.4-3.7,40.1-11.1,76.4
		c-1.8,8.7-10.2,14.3-18.9,12.5c-8.7-1.8-14.3-10.2-12.5-18.9c6.7-33.3,10.5-58.1,10.5-70.1c0-9.4-3.7-18.3-10.5-25.1
		C274.4,51.8,265.5,48,256,48l-0.6,0c-9.4,0.1-18.3,3.8-24.9,10.5c-6.6,6.7-10.3,15.6-10.2,25.1l0,0.1c0,12.1,3.7,37,10.4,70
		c1.8,8.7-3.8,17.1-12.5,18.9C217.2,172.8,216.1,172.9,215.1,172.9z"/>
</g>
<g>
	<path d="M256,496h-0.7c-18-0.1-34.9-7.2-47.5-20c-12.6-12.8-19.5-29.7-19.4-47.7c0-14.7,3.7-40.4,11.1-76.4
		c1.8-8.7,10.2-14.2,18.9-12.5c8.7,1.8,14.2,10.2,12.5,18.9c-8.6,42.3-10.4,61.4-10.4,70l0,0.1c-0.1,9.4,3.6,18.3,10.2,25.1
		s15.5,10.5,24.9,10.5h0.5c19.4,0,35.8-16.3,35.8-35.7c0-11.9-3.7-36.8-10.5-70.1c-1.8-8.7,3.8-17.1,12.5-18.9
		c8.7-1.8,17.1,3.8,18.9,12.5c7.4,36.3,11.1,62,11.1,76.4c0,17.9-7,34.8-19.8,47.6C291.1,488.9,274,496,256,496z"/>
</g>
<g>
	<path d="M428.3,323.7c-14.4,0-40.1-3.7-76.4-11.1c-8.7-1.8-14.3-10.2-12.5-18.9s10.2-14.3,18.9-12.5c33.3,6.7,58.1,10.5,70.1,10.5
		c19.3,0,35.7-16.3,35.7-35.7v-0.6c-0.1-9.4-3.8-18.3-10.5-24.9c-6.7-6.6-15.6-10.2-25.1-10.2l-0.1,0c-8.6,0-27.7,1.8-70,10.4
		c-8.7,1.8-17.1-3.8-18.9-12.5c-1.8-8.7,3.8-17.1,12.5-18.9c36-7.4,61.7-11.1,76.4-11.1c0.1,0,0.3,0,0.4,0
		c17.8,0,34.6,6.9,47.3,19.4c12.8,12.6,19.9,29.5,20,47.5v0.8c0,18-7.1,35-20.1,47.8C463.1,316.7,446.2,323.7,428.3,323.7z"/>
</g>
<g>
	<path d="M83.7,323.7c-17.9,0-34.8-7-47.6-19.8C23.1,291.1,16,274.1,16,256c0-0.3,0-0.5,0-0.8c0.1-18,7.2-34.9,20-47.5
		c12.8-12.6,29.7-19.5,47.7-19.4c14.6,0,40.3,3.7,76.4,11.1c8.7,1.8,14.2,10.2,12.5,18.9c-1.8,8.7-10.2,14.2-18.9,12.5
		c-33-6.7-57.9-10.4-70-10.4l-0.1,0c-9.4,0-18.3,3.6-25.1,10.2c-6.7,6.6-10.5,15.5-10.5,24.9l0,0.6c0,9.5,3.8,18.4,10.6,25.2
		c6.8,6.8,15.7,10.5,25.1,10.5c11.9,0,36.8-3.7,70.1-10.5c8.7-1.7,17.1,3.8,18.9,12.5s-3.8,17.1-12.5,18.9
		C123.8,320,98.1,323.7,83.7,323.7z"/>
</g>
<g>
	<path d="M355.1,231.1c-5.2,0-10.3-2.5-13.3-7.2c-4.9-7.4-2.9-17.3,4.5-22.2c27-17.9,48.3-33.8,56.8-42.3
		c6.6-6.6,10.3-15.5,10.3-25.2c0-9.6-3.6-18.6-10.3-25.3l-0.4-0.4c-6.7-6.7-15.6-10.2-25.1-10.2c-9.4,0.1-18.3,3.8-24.9,10.5
		l-0.1,0.1c-8.9,8.9-24.3,29.6-42.3,56.8c-4.9,7.4-14.8,9.4-22.2,4.5c-7.4-4.9-9.4-14.8-4.5-22.2c11.2-17,32.2-47.6,46.4-61.8
		c12.6-12.8,29.5-19.9,47.5-20c0.2,0,0.3,0,0.5,0c17.8,0,34.6,6.9,47.3,19.4c0.2,0.2,0.4,0.4,0.6,0.6c12.7,12.8,19.7,29.8,19.6,48
		c-0.1,18.1-7.1,35-19.7,47.7c-13.9,13.9-44.7,35-61.8,46.4C361.2,230.2,358.1,231.1,355.1,231.1z"/>
</g>
<g>
	<path d="M134.1,445.4c-18.1,0-35.1-7-47.8-19.6c-0.2-0.2-0.4-0.4-0.6-0.6c-12.6-12.8-19.5-29.7-19.4-47.7c0.1-18,7.2-34.8,20-47.5
		c14.2-14.2,44.8-35.1,61.8-46.4c7.4-4.9,17.3-2.9,22.2,4.5c4.9,7.4,2.9,17.3-4.5,22.2c-27.2,18-47.9,33.4-56.8,42.3l-0.1,0.1
		c-6.7,6.6-10.5,15.5-10.5,24.9s3.6,18.3,10.2,25.1l0.4,0.4c6.7,6.7,15.6,10.3,25.2,10.3c0,0,0.1,0,0.1,0c9.6,0,18.5-3.7,25.1-10.3
		c8.6-8.6,24.4-29.8,42.4-56.8c4.9-7.4,14.8-9.4,22.2-4.5c7.4,4.9,9.4,14.8,4.5,22.2c-11.4,17.1-32.5,47.9-46.4,61.8
		c-12.6,12.6-29.5,19.6-47.7,19.7C134.3,445.4,134.2,445.4,134.1,445.4z"/>
</g>
<g>
	<path d="M377.9,445.4c-0.1,0-0.2,0-0.3,0c-18.1-0.1-35-7.1-47.7-19.7c-13.9-13.9-35-44.7-46.4-61.8c-4.9-7.4-2.9-17.3,4.5-22.2
		c7.4-4.9,17.3-2.9,22.2,4.5c17.9,27,33.7,48.2,42.4,56.8c6.6,6.6,15.5,10.3,25.1,10.3c0,0,0.1,0,0.1,0c9.6,0,18.5-3.7,25.2-10.3
		l0.4-0.4c6.6-6.7,10.2-15.6,10.2-25.1c-0.1-9.4-3.8-18.3-10.5-24.9l-0.1-0.1c-8.9-8.9-29.6-24.3-56.8-42.3
		c-7.4-4.9-9.4-14.8-4.5-22.2c4.9-7.4,14.8-9.4,22.2-4.5c17,11.2,47.6,32.2,61.8,46.4c12.8,12.6,19.9,29.5,20,47.5
		c0.1,18-6.8,34.9-19.4,47.8c-0.2,0.2-0.4,0.4-0.6,0.6C413,438.4,396,445.4,377.9,445.4z"/>
</g>
<g>
	<path d="M156.9,231.1c-3,0-6.1-0.9-8.8-2.7C131,217,100.2,195.9,86.3,182c-12.6-12.6-19.6-29.6-19.7-47.7
		c-0.1-18.2,6.9-35.3,19.7-48.1c0.1-0.1,0.4-0.4,0.6-0.6c12.7-12.5,29.5-19.4,47.3-19.4c0.2,0,0.3,0,0.5,0c18,0.1,34.8,7.2,47.5,20
		c14.1,14.1,35.1,44.7,46.4,61.8c4.9,7.4,2.9,17.3-4.5,22.2c-7.4,4.9-17.3,2.9-22.2-4.5c-17.8-26.9-33.6-48.1-42.3-56.8l-0.1-0.1
		c-6.6-6.7-15.5-10.5-24.9-10.5c-9.5-0.1-18.3,3.6-25.1,10.2l-0.3,0.3c-13.7,13.7-13.7,36.9-0.1,50.5c8.6,8.6,29.8,24.4,56.8,42.4
		c7.4,4.9,9.4,14.8,4.5,22.2C167.2,228.6,162.1,231.1,156.9,231.1z"/>
</g>
<g>
	<path d="M256,336c-44.1,0-80-35.9-80-80s35.9-80,80-80s80,35.9,80,80S300.1,336,256,336z M256,208c-26.5,0-48,21.5-48,48
		c0,26.5,21.5,48,48,48c26.5,0,48-21.5,48-48C304,229.5,282.5,208,256,208z"/>
</g>
</svg>
