<?xml version="1.0" encoding="UTF-8" standalone="no"?>
<svg
   xmlns:dc="http://purl.org/dc/elements/1.1/"
   xmlns:cc="http://creativecommons.org/ns#"
   xmlns:rdf="http://www.w3.org/1999/02/22-rdf-syntax-ns#"
   xmlns:svg="http://www.w3.org/2000/svg"
   xmlns="http://www.w3.org/2000/svg"
   xmlns:sodipodi="http://sodipodi.sourceforge.net/DTD/sodipodi-0.dtd"
   xmlns:inkscape="http://www.inkscape.org/namespaces/inkscape"
   class="ionicon"
   viewBox="0 0 512 512"
   version="1.1"
   id="svg8"
   sodipodi:docname="flower-sharp.svg"
   inkscape:version="1.0.2 (e86c8708, 2021-01-15)">
  <metadata
     id="metadata14">
    <rdf:RDF>
      <cc:Work
         rdf:about="">
        <dc:format>image/svg+xml</dc:format>
        <dc:type
           rdf:resource="http://purl.org/dc/dcmitype/StillImage" />
      </cc:Work>
    </rdf:RDF>
  </metadata>
  <defs
     id="defs12" />
  <sodipodi:namedview
     pagecolor="#ffffff"
     bordercolor="#666666"
     borderopacity="1"
     objecttolerance="10"
     gridtolerance="10"
     guidetolerance="10"
     inkscape:pageopacity="0"
     inkscape:pageshadow="2"
     inkscape:window-width="689"
     inkscape:window-height="480"
     id="namedview10"
     showgrid="false"
     inkscape:zoom="1.3027344"
     inkscape:cx="256"
     inkscape:cy="256"
     inkscape:window-x="44"
     inkscape:window-y="25"
     inkscape:window-maximized="0"
     inkscape:current-layer="svg8" />
  <title
     id="title2">Flower</title>
  <path
     style="color:#000000;font-style:normal;font-variant:normal;font-weight:normal;font-stretch:normal;font-size:medium;line-height:normal;font-family:sans-serif;font-variant-ligatures:normal;font-variant-position:normal;font-variant-caps:normal;font-variant-numeric:normal;font-variant-alternates:normal;font-variant-east-asian:normal;font-feature-settings:normal;font-variation-settings:normal;text-indent:0;text-align:start;text-decoration:none;text-decoration-line:none;text-decoration-style:solid;text-decoration-color:#000000;letter-spacing:normal;word-spacing:normal;text-transform:none;writing-mode:lr-tb;direction:ltr;text-orientation:mixed;dominant-baseline:auto;baseline-shift:baseline;text-anchor:start;white-space:normal;shape-padding:0;shape-margin:0;inline-size:0;clip-rule:nonzero;display:inline;overflow:visible;visibility:visible;isolation:auto;mix-blend-mode:normal;color-interpolation:sRGB;color-interpolation-filters:linearRGB;solid-color:#000000;solid-opacity:1;vector-effect:none;fill:#000000;fill-opacity:1;fill-rule:nonzero;stroke-width:1;stroke-linecap:butt;stroke-linejoin:miter;stroke-miterlimit:4;stroke-dasharray:none;stroke-dashoffset:0;stroke-opacity:1;color-rendering:auto;image-rendering:auto;shape-rendering:auto;text-rendering:auto;enable-background:accumulate;stop-color:#000000;stop-opacity:1;stroke:none;opacity:1"
     d="m 299,256 c 0,23.74824 -19.25176,43 -43,43 -23.74824,0 -43,-19.25176 -43,-43 0,-23.74824 19.25176,-43 43,-43 23.74824,0 43,19.25176 43,43 z"
     id="circle4" />
  <path
     style="color:#000000;font-style:normal;font-variant:normal;font-weight:normal;font-stretch:normal;font-size:medium;line-height:normal;font-family:sans-serif;font-variant-ligatures:normal;font-variant-position:normal;font-variant-caps:normal;font-variant-numeric:normal;font-variant-alternates:normal;font-variant-east-asian:normal;font-feature-settings:normal;font-variation-settings:normal;text-indent:0;text-align:start;text-decoration:none;text-decoration-line:none;text-decoration-style:solid;text-decoration-color:#000000;letter-spacing:normal;word-spacing:normal;text-transform:none;writing-mode:lr-tb;direction:ltr;text-orientation:mixed;dominant-baseline:auto;baseline-shift:baseline;text-anchor:start;white-space:normal;shape-padding:0;shape-margin:0;inline-size:0;clip-rule:nonzero;display:inline;overflow:visible;visibility:visible;isolation:auto;mix-blend-mode:normal;color-interpolation:sRGB;color-interpolation-filters:linearRGB;solid-color:#000000;solid-opacity:1;vector-effect:none;fill:#000000;fill-opacity:1;fill-rule:nonzero;stroke-width:1;stroke-linecap:butt;stroke-linejoin:miter;stroke-miterlimit:4;stroke-dasharray:none;stroke-dashoffset:0;stroke-opacity:1;color-rendering:auto;image-rendering:auto;shape-rendering:auto;text-rendering:auto;enable-background:accumulate;stop-color:#000000;stop-opacity:1;stroke:none;opacity:1"
     d="m 475.93,303.91 c 19.56789,-19.251 25.52659,-48.43577 15.07125,-73.81665 C 480.5459,204.71247 455.75976,188.19265 428.31,188.31 c -2.88,0 -6.2,0.14 -9.93,0.43 2.75,-2.36 5.23,-4.62 7.33,-6.71 19.30093,-19.37519 25.0784,-48.44605 14.65272,-73.72903 C 429.93704,83.017995 405.34784,66.46912 378,66.33 h -0.25 c -17.97162,0.01131 -35.19151,7.213266 -47.82,20 -2.11,2.11 -4.37,4.59 -6.72,7.33 0.29,-3.75 0.44,-7.07 0.44,-9.93 0,-37.38418 -30.30585,-67.689971 -67.69,-67.689971 -37.38415,0 -67.69,30.305791 -67.69,67.689971 0,2.87 0.15,6.19 0.44,9.93 -2.36,-2.74 -4.62,-5.22 -6.72,-7.33 -12.62849,-12.786734 -29.84838,-19.988695 -47.82,-20 H 134 C 106.69812,66.547836 82.182279,83.097257 71.771621,108.33727 61.360962,133.57728 67.080704,162.59786 86.29,182 c 2.1,2.09 4.58,4.35 7.34,6.72 -3.74,-0.29 -7.06,-0.44 -9.94,-0.44 -37.384179,0 -67.689969,30.30585 -67.689969,67.69 0,37.38415 30.30579,67.69 67.689969,67.69 2.86,0 6.18,-0.15 9.93,-0.44 -2.74,2.35 -5.22,4.61 -7.33,6.72 C 66.888436,349.25625 61.064699,378.37294 71.543836,403.66575 82.022972,428.95856 106.73238,445.42497 134.11,445.36 h 0.25 c 17.85769,0.0279 34.99479,-7.04062 47.64,-19.65 2.09,-2.1 4.35,-4.58 6.71,-7.33 -0.28,3.73 -0.43,7.05 -0.43,9.93 0,37.38418 30.30585,67.68997 67.69,67.68997 37.38415,0 67.69,-30.30579 67.69,-67.68997 0,-2.87 -0.15,-6.19 -0.44,-9.94 2.36,2.75 4.62,5.24 6.72,7.34 12.64766,12.62774 29.79761,19.7079 47.67,19.68 h 0.25 c 27.39374,0.11433 52.13997,-16.33887 62.63328,-41.64342 C 450.98659,378.44202 445.14576,349.30496 425.71,330 c -2.11,-2.11 -4.59,-4.37 -7.33,-6.72 3.75,0.29 7.07,0.44 9.93,0.44 17.87485,-0.0143 35.00903,-7.14218 47.62,-19.81 z M 256,341 c -34.37925,0 -65.37354,-20.7097 -78.52917,-52.47142 -13.1556,-31.76165 -5.88155,-68.3199 18.42815,-92.6296 24.3097,-24.3097 60.86795,-31.58375 92.6296,-18.42815 C 320.2903,190.62646 341,221.62075 341,256 c -0.0551,46.92136 -38.07864,84.9449 -85,85 z"
     id="path6" />
</svg>
