<?xml version="1.0" encoding="utf-8"?>
<!-- Generator: Adobe Illustrator 24.0.0, SVG Export Plug-In . SVG Version: 6.00 Build 0)  -->
<svg version="1.1" id="Layer_1" xmlns="http://www.w3.org/2000/svg" xmlns:xlink="http://www.w3.org/1999/xlink" x="0px" y="0px"
	 viewBox="0 0 512 512" style="enable-background:new 0 0 512 512;" xml:space="preserve">
<title>ionicons-v5-n</title>
<g>
	<path d="M448,208c-8.8,0-16-7.2-16-16v-40c0-13.2-10.8-24-24-24H252.1c-11.1,0-21.8-3.3-31.1-9.4L193.2,100c-4-2.6-8.6-4-13.3-4
		H104c-13.2,0-24,10.8-24,24v72c0,8.8-7.2,16-16,16s-16-7.2-16-16v-72c0-30.9,25.1-56,56-56h75.9c11.1,0,21.8,3.3,31.1,9.4L238.8,92
		c4,2.6,8.6,4,13.3,4H408c30.9,0,56,25.1,56,56v40C464,200.8,456.8,208,448,208z"/>
</g>
<g>
	<path d="M423.8,448H88.2c-30.6-0.1-55.5-24.7-55.9-55.2L16.2,228.1c0-0.1,0-0.2,0-0.3c-2.1-26.4,17.6-49.6,44-51.7
		c1.3-0.1,2.6-0.2,3.8-0.2h384.1c26.5,0.1,48,21.7,47.9,48.1c0,1.2-0.1,2.4-0.2,3.7c0,0.1,0,0.2,0,0.3l-16.2,164.7
		C479.2,423.3,454.3,447.9,423.8,448z M48,225.2l16.2,165.3c0.1,0.5,0.1,1,0.1,1.6c0,13.2,10.7,24,24,24h335.5
		c13.2,0,23.9-10.8,23.9-24c0-0.5,0-1,0.1-1.6L464,225.2c0-0.4,0-0.8,0-1.1c0-8.8-7.1-16-16-16H64c-0.4,0-0.9,0-1.3,0.1
		C54,208.8,47.4,216.4,48,225.2z M479.9,226.5L479.9,226.5L479.9,226.5z"/>
</g>
</svg>
