<?xml version="1.0" encoding="UTF-8" standalone="no"?>
<svg
   xmlns:dc="http://purl.org/dc/elements/1.1/"
   xmlns:cc="http://creativecommons.org/ns#"
   xmlns:rdf="http://www.w3.org/1999/02/22-rdf-syntax-ns#"
   xmlns:svg="http://www.w3.org/2000/svg"
   xmlns="http://www.w3.org/2000/svg"
   xmlns:sodipodi="http://sodipodi.sourceforge.net/DTD/sodipodi-0.dtd"
   xmlns:inkscape="http://www.inkscape.org/namespaces/inkscape"
   class="ionicon"
   viewBox="0 0 512 512"
   version="1.1"
   id="svg6"
   sodipodi:docname="footsteps-outline.svg"
   inkscape:version="1.0.2 (e86c8708, 2021-01-15)">
  <metadata
     id="metadata12">
    <rdf:RDF>
      <cc:Work
         rdf:about="">
        <dc:format>image/svg+xml</dc:format>
        <dc:type
           rdf:resource="http://purl.org/dc/dcmitype/StillImage" />
      </cc:Work>
    </rdf:RDF>
  </metadata>
  <defs
     id="defs10" />
  <sodipodi:namedview
     pagecolor="#ffffff"
     bordercolor="#666666"
     borderopacity="1"
     objecttolerance="10"
     gridtolerance="10"
     guidetolerance="10"
     inkscape:pageopacity="0"
     inkscape:pageshadow="2"
     inkscape:window-width="689"
     inkscape:window-height="480"
     id="namedview8"
     showgrid="false"
     inkscape:zoom="1.3027344"
     inkscape:cx="256"
     inkscape:cy="256"
     inkscape:window-x="44"
     inkscape:window-y="25"
     inkscape:window-maximized="0"
     inkscape:current-layer="svg6" />
  <title
     id="title2">Footsteps</title>
  <path
     style="color:#000000;font-style:normal;font-variant:normal;font-weight:normal;font-stretch:normal;font-size:medium;line-height:normal;font-family:sans-serif;font-variant-ligatures:normal;font-variant-position:normal;font-variant-caps:normal;font-variant-numeric:normal;font-variant-alternates:normal;font-variant-east-asian:normal;font-feature-settings:normal;font-variation-settings:normal;text-indent:0;text-align:start;text-decoration:none;text-decoration-line:none;text-decoration-style:solid;text-decoration-color:#000000;letter-spacing:normal;word-spacing:normal;text-transform:none;writing-mode:lr-tb;direction:ltr;text-orientation:mixed;dominant-baseline:auto;baseline-shift:baseline;text-anchor:start;white-space:normal;shape-padding:0;shape-margin:0;inline-size:0;clip-rule:nonzero;display:inline;overflow:visible;visibility:visible;isolation:auto;mix-blend-mode:normal;color-interpolation:sRGB;color-interpolation-filters:linearRGB;solid-color:#000000;solid-opacity:1;vector-effect:none;fill:currentColor;fill-opacity:1;fill-rule:nonzero;stroke:none;stroke-linecap:butt;stroke-linejoin:miter;stroke-miterlimit:10;stroke-dasharray:none;stroke-dashoffset:0;stroke-opacity:1;color-rendering:auto;image-rendering:auto;shape-rendering:auto;text-rendering:auto;enable-background:accumulate;stop-color:#000000;stop-opacity:1;opacity:1"
     d="M 385.54688 16.039062 C 373.66827 16.510959 362.65008 21.530495 353.49219 28.636719 C 343.02603 36.758117 334.31919 47.664664 326.73438 60.199219 C 311.56475 85.268328 300.89041 117.12757 296.17773 148.44922 L 296.17773 148.45117 C 291.49562 179.60503 292.83276 205.69288 303.93945 226.51953 C 315.04614 247.34618 336.41285 260.20129 362.55859 264.06836 L 362.56055 264.06836 C 391.66292 268.3711 416.99343 259.62741 432.94727 240.86719 C 448.9011 222.10697 456.43933 196.25528 461.05273 165.55859 C 467.32944 123.80739 463.45419 88.788426 451.23438 62.402344 C 439.01456 36.016262 416.84318 18.018534 390.6875 16.121094 C 388.9584 15.995686 387.24382 15.971649 385.54688 16.039062 z M 388.37305 48.037109 C 401.91737 49.01967 413.52708 57.128191 422.19727 75.849609 C 430.86745 94.571027 434.9915 123.66199 429.4082 160.80078 L 429.4082 160.80273 C 425.21161 188.72605 417.91398 209.14944 408.57031 220.13672 C 399.22665 231.124 388.79786 235.59937 367.24023 232.41211 C 347.81598 229.53918 338.32909 222.99929 332.17578 211.46094 C 326.02277 199.92315 323.6952 180.67495 327.82227 153.21094 C 331.92959 125.91259 341.82096 97.076515 354.11133 76.765625 C 360.25651 66.61018 367.00428 58.65532 373.10938 53.917969 C 379.21447 49.180617 384.00586 47.720369 388.37305 48.037109 z M 126.34375 112.02539 C 124.64686 111.96716 122.93184 112.00334 121.20312 112.14062 L 121.20117 112.14062 C 95.114012 114.21656 72.987673 132.16226 60.765625 158.51367 C 48.543577 184.86509 44.666532 219.82345 50.9375 261.56641 L 50.9375 261.56836 C 55.551037 292.26592 63.092024 318.11739 79.046875 336.87695 C 95.001726 355.63652 120.33141 364.38111 149.42969 360.07812 C 175.5798 356.21126 196.95011 343.35629 208.05859 322.5293 C 219.16708 301.7023 220.50438 275.61675 215.82227 244.46289 L 215.82227 244.46094 L 215.82227 244.45898 C 211.10655 213.12246 200.36458 181.21184 185.16602 156.12109 C 177.56673 143.57572 168.85731 132.66584 158.39844 124.55078 C 149.24692 117.45011 138.22199 112.43298 126.34375 112.02539 z M 123.73633 144.03906 C 127.97658 143.70233 132.69325 145.10834 138.78125 149.83203 C 144.86925 154.55572 151.6317 162.52459 157.79492 172.69922 C 170.12136 193.04848 180.07345 221.94723 184.17773 249.2207 C 188.30521 276.68578 185.97809 295.93298 179.82422 307.4707 C 173.6702 319.00871 164.17989 325.54874 144.75 328.42188 C 123.19828 331.60889 112.76898 327.13247 103.42383 316.14453 C 94.078679 305.15659 86.778495 284.73494 82.582031 256.8125 C 77.003 219.67545 81.12697 190.66515 89.794922 171.97656 C 98.462461 153.28887 110.11432 145.12375 123.73633 144.03906 z M 313.73047 270.44727 C 311.7399 270.37026 309.70965 270.3833 307.63477 270.50391 C 299.33523 270.98634 289.31427 274.66868 282.82031 282.48242 C 276.32635 290.29617 273.53652 300.17111 272.41992 312.03125 C 268.66742 351.91812 289.90145 391.56533 327.27148 398.89062 L 327.27539 398.89258 L 327.27734 398.89258 C 364.92715 406.25765 403.14784 378.19935 411.14648 337.05273 C 413.10704 326.96725 413.07867 317.57697 409.875 309.04297 C 406.67133 300.50897 400.13921 293.88746 393.36328 289.9082 C 379.81143 281.94969 365.42197 280.80029 351.12891 278.06445 C 339.63988 275.86534 327.66444 270.9863 313.73047 270.44727 z M 309.49219 302.44922 C 314.44063 302.16158 328.67165 306.34742 345.11133 309.49414 C 360.38826 312.4183 372.84755 314.97046 377.1582 317.50195 C 379.31353 318.7677 379.46563 319.08931 379.91602 320.28906 C 380.3664 321.48881 380.96382 324.62275 379.73438 330.94727 C 374.97353 355.43799 350.57764 370.83877 333.42773 367.48828 C 316.51777 364.17358 301.7718 341.68243 304.2793 315.0293 C 305.0527 306.81443 306.98271 303.47532 307.42969 302.9375 C 307.87666 302.39968 307.01797 302.59304 309.49219 302.44922 z M 198.26562 366.46094 C 184.33413 367.00218 172.36288 371.87958 160.87695 374.07422 C 146.58259 376.80547 132.19184 377.95081 118.63867 385.9082 C 111.86209 389.8869 105.3288 396.50892 102.125 405.04297 C 98.921203 413.57702 98.892962 422.96725 100.85352 433.05273 C 108.85216 474.19935 147.07285 502.25765 184.72266 494.89258 L 184.72461 494.89258 L 184.72852 494.89062 C 222.09484 487.56605 243.33216 447.92561 239.58008 408.03125 L 239.58008 408.0293 C 238.46339 396.17113 235.67369 386.29839 229.17773 378.48633 C 222.68177 370.67427 212.65938 366.99604 204.36133 366.51562 C 202.28682 366.39552 200.25584 366.38362 198.26562 366.46094 z M 202.51172 398.46289 C 204.98742 398.60622 204.12729 398.41214 204.57227 398.94727 C 205.01724 399.4824 206.94739 402.81746 207.7207 411.0293 C 210.2277 437.69407 195.48552 460.17293 178.57227 463.48828 C 161.42236 466.83877 137.02647 451.43799 132.26562 426.94727 C 131.03618 420.62275 131.63372 417.48845 132.08398 416.28906 C 132.53425 415.08968 132.68518 414.76896 134.83984 413.50391 C 139.14917 410.9738 151.60718 408.42461 166.88281 405.50586 C 183.32604 402.36402 197.56032 398.17623 202.51172 398.46289 z "
     id="path4" />
</svg>
