<?xml version="1.0" encoding="UTF-8" standalone="no"?>
<svg
   xmlns:dc="http://purl.org/dc/elements/1.1/"
   xmlns:cc="http://creativecommons.org/ns#"
   xmlns:rdf="http://www.w3.org/1999/02/22-rdf-syntax-ns#"
   xmlns:svg="http://www.w3.org/2000/svg"
   xmlns="http://www.w3.org/2000/svg"
   xmlns:sodipodi="http://sodipodi.sourceforge.net/DTD/sodipodi-0.dtd"
   xmlns:inkscape="http://www.inkscape.org/namespaces/inkscape"
   class="ionicon"
   viewBox="0 0 512 512"
   version="1.1"
   id="svg8"
   sodipodi:docname="football-outline.svg"
   inkscape:version="1.0.2 (e86c8708, 2021-01-15)">
  <metadata
     id="metadata14">
    <rdf:RDF>
      <cc:Work
         rdf:about="">
        <dc:format>image/svg+xml</dc:format>
        <dc:type
           rdf:resource="http://purl.org/dc/dcmitype/StillImage" />
      </cc:Work>
    </rdf:RDF>
  </metadata>
  <defs
     id="defs12" />
  <sodipodi:namedview
     pagecolor="#ffffff"
     bordercolor="#666666"
     borderopacity="1"
     objecttolerance="10"
     gridtolerance="10"
     guidetolerance="10"
     inkscape:pageopacity="0"
     inkscape:pageshadow="2"
     inkscape:window-width="689"
     inkscape:window-height="480"
     id="namedview10"
     showgrid="false"
     inkscape:zoom="1.3027344"
     inkscape:cx="256"
     inkscape:cy="256"
     inkscape:window-x="44"
     inkscape:window-y="25"
     inkscape:window-maximized="0"
     inkscape:current-layer="svg8" />
  <title
     id="title2">Football</title>
  <path
     style="color:#000000;font-style:normal;font-variant:normal;font-weight:normal;font-stretch:normal;font-size:medium;line-height:normal;font-family:sans-serif;font-variant-ligatures:normal;font-variant-position:normal;font-variant-caps:normal;font-variant-numeric:normal;font-variant-alternates:normal;font-variant-east-asian:normal;font-feature-settings:normal;font-variation-settings:normal;text-indent:0;text-align:start;text-decoration:none;text-decoration-line:none;text-decoration-style:solid;text-decoration-color:#000000;letter-spacing:normal;word-spacing:normal;text-transform:none;writing-mode:lr-tb;direction:ltr;text-orientation:mixed;dominant-baseline:auto;baseline-shift:baseline;text-anchor:start;white-space:normal;shape-padding:0;shape-margin:0;inline-size:0;clip-rule:nonzero;display:inline;overflow:visible;visibility:visible;isolation:auto;mix-blend-mode:normal;color-interpolation:sRGB;color-interpolation-filters:linearRGB;solid-color:#000000;solid-opacity:1;vector-effect:none;fill:currentColor;fill-opacity:1;fill-rule:nonzero;stroke:none;stroke-linecap:round;stroke-linejoin:miter;stroke-miterlimit:10;stroke-dasharray:none;stroke-dashoffset:0;stroke-opacity:1;color-rendering:auto;image-rendering:auto;shape-rendering:auto;text-rendering:auto;enable-background:accumulate;stop-color:#000000;stop-opacity:1;opacity:1"
     d="M 256 48 C 141.31429 48 48 141.31429 48 256 C 48 370.68571 141.31429 464 256 464 C 370.68571 464 464 370.68571 464 256 C 464 141.31429 370.68571 48 256 48 z M 256 80 C 353.39163 80 432 158.60837 432 256 C 432 353.39163 353.39163 432 256 432 C 158.60837 432 80 353.39163 80 256 C 80 158.60837 158.60837 80 256 80 z "
     id="circle4" />
  <path
     style="color:#000000;font-style:normal;font-variant:normal;font-weight:normal;font-stretch:normal;font-size:medium;line-height:normal;font-family:sans-serif;font-variant-ligatures:normal;font-variant-position:normal;font-variant-caps:normal;font-variant-numeric:normal;font-variant-alternates:normal;font-variant-east-asian:normal;font-feature-settings:normal;font-variation-settings:normal;text-indent:0;text-align:start;text-decoration:none;text-decoration-line:none;text-decoration-style:solid;text-decoration-color:#000000;letter-spacing:normal;word-spacing:normal;text-transform:none;writing-mode:lr-tb;direction:ltr;text-orientation:mixed;dominant-baseline:auto;baseline-shift:baseline;text-anchor:start;white-space:normal;shape-padding:0;shape-margin:0;inline-size:0;clip-rule:nonzero;display:inline;overflow:visible;visibility:visible;isolation:auto;mix-blend-mode:normal;color-interpolation:sRGB;color-interpolation-filters:linearRGB;solid-color:#000000;solid-opacity:1;vector-effect:none;fill:currentColor;fill-opacity:1;fill-rule:nonzero;stroke:none;stroke-linecap:round;stroke-linejoin:round;stroke-miterlimit:4;stroke-dasharray:none;stroke-dashoffset:0;stroke-opacity:1;color-rendering:auto;image-rendering:auto;shape-rendering:auto;text-rendering:auto;enable-background:accumulate;stop-color:#000000;stop-opacity:1;opacity:1"
     d="M 191.98633 58.929688 A 16 16 0 0 0 178.68555 66.056641 A 16 16 0 0 0 183.12695 88.244141 L 240 126.14453 L 240 167.6875 L 177.13281 220.42578 L 139.78711 204.60352 L 116.35352 138.00977 A 16 16 0 0 0 95.949219 128.22656 A 16 16 0 0 0 86.167969 148.63086 L 108.32031 211.58203 L 54.5625 257.8418 A 16 16 0 0 0 52.873047 280.40625 A 16 16 0 0 0 75.4375 282.09766 L 129.94531 235.1875 L 166.30664 250.59375 L 182.9082 317.54688 L 162.81055 352 L 101.63086 352 A 16 16 0 0 0 85.630859 368 A 16 16 0 0 0 101.63086 384 L 161.13672 384 L 185.49805 445.40039 A 16 16 0 0 0 206.27148 454.37109 A 16 16 0 0 0 215.24219 433.59961 L 189.74414 369.33594 L 209.18945 336 L 302.81055 336 L 322.26758 369.35352 L 297.11523 433.13086 A 16 16 0 0 0 306.13086 453.88477 A 16 16 0 0 0 326.88477 444.86914 L 350.88867 384 L 410.74023 384 A 16 16 0 0 0 426.74023 368 A 16 16 0 0 0 410.74023 352 L 349.18945 352 L 329.0918 317.54688 L 345.69336 250.59375 L 382.05469 235.1875 L 436.5625 282.09766 A 16 16 0 0 0 459.12695 280.40625 A 16 16 0 0 0 457.4375 257.8418 L 403.67969 211.58203 L 425.83203 148.63086 A 16 16 0 0 0 416.05078 128.22656 A 16 16 0 0 0 395.64648 138.00977 L 372.21289 204.60352 L 334.86719 220.42578 L 272 167.6875 L 272 126.14648 L 328.87109 88.255859 A 16 16 0 0 0 333.31445 66.068359 A 16 16 0 0 0 311.12891 61.625 L 256 98.353516 L 200.87305 61.615234 A 16 16 0 0 0 191.98633 58.929688 z M 256 196.03516 L 314.15625 244.82031 L 299.48242 304 L 212.51758 304 L 197.84375 244.82031 L 256 196.03516 z "
     id="path6" />
</svg>
