<?xml version="1.0" encoding="UTF-8" standalone="no"?>
<svg
   xmlns:dc="http://purl.org/dc/elements/1.1/"
   xmlns:cc="http://creativecommons.org/ns#"
   xmlns:rdf="http://www.w3.org/1999/02/22-rdf-syntax-ns#"
   xmlns:svg="http://www.w3.org/2000/svg"
   xmlns="http://www.w3.org/2000/svg"
   xmlns:sodipodi="http://sodipodi.sourceforge.net/DTD/sodipodi-0.dtd"
   xmlns:inkscape="http://www.inkscape.org/namespaces/inkscape"
   class="ionicon"
   viewBox="0 0 512 512"
   version="1.1"
   id="svg6"
   sodipodi:docname="footsteps.svg"
   inkscape:version="1.0.2 (e86c8708, 2021-01-15)">
  <metadata
     id="metadata12">
    <rdf:RDF>
      <cc:Work
         rdf:about="">
        <dc:format>image/svg+xml</dc:format>
        <dc:type
           rdf:resource="http://purl.org/dc/dcmitype/StillImage" />
      </cc:Work>
    </rdf:RDF>
  </metadata>
  <defs
     id="defs10" />
  <sodipodi:namedview
     pagecolor="#ffffff"
     bordercolor="#666666"
     borderopacity="1"
     objecttolerance="10"
     gridtolerance="10"
     guidetolerance="10"
     inkscape:pageopacity="0"
     inkscape:pageshadow="2"
     inkscape:window-width="689"
     inkscape:window-height="480"
     id="namedview8"
     showgrid="false"
     inkscape:zoom="1.3027344"
     inkscape:cx="256"
     inkscape:cy="256"
     inkscape:window-x="44"
     inkscape:window-y="25"
     inkscape:window-maximized="0"
     inkscape:current-layer="svg6" />
  <title
     id="title2">Footsteps</title>
  <path
     style="color:#000000;font-style:normal;font-variant:normal;font-weight:normal;font-stretch:normal;font-size:medium;line-height:normal;font-family:sans-serif;font-variant-ligatures:normal;font-variant-position:normal;font-variant-caps:normal;font-variant-numeric:normal;font-variant-alternates:normal;font-variant-east-asian:normal;font-feature-settings:normal;font-variation-settings:normal;text-indent:0;text-align:start;text-decoration:none;text-decoration-line:none;text-decoration-style:solid;text-decoration-color:#000000;letter-spacing:normal;word-spacing:normal;text-transform:none;writing-mode:lr-tb;direction:ltr;text-orientation:mixed;dominant-baseline:auto;baseline-shift:baseline;text-anchor:start;white-space:normal;shape-padding:0;shape-margin:0;inline-size:0;clip-rule:nonzero;display:inline;overflow:visible;visibility:visible;isolation:auto;mix-blend-mode:normal;color-interpolation:sRGB;color-interpolation-filters:linearRGB;solid-color:#000000;solid-opacity:1;vector-effect:none;fill:#000000;fill-opacity:1;fill-rule:nonzero;stroke-width:1;stroke-linecap:butt;stroke-linejoin:miter;stroke-miterlimit:4;stroke-dasharray:none;stroke-dashoffset:0;stroke-opacity:1;color-rendering:auto;image-rendering:auto;shape-rendering:auto;text-rendering:auto;enable-background:accumulate;stop-color:#000000;stop-opacity:1;stroke:none;opacity:1"
     d="m 133.83,361.27 c -22.61,0 -41,-8.17 -54.79,-24.39 C 65.25,320.66 56.2,296.59 50.93,261.57 43.17,209.96 50.87,166.46 72.61,139.09 c 12.8,-16.12 29.6,-25.44 48.58,-26.94 16.25,-1.3 40.54,5.29 64,44 14.69,24.24 25.86,56.44 30.65,88.34 5.79,38.51 1.48,66.86 -13.18,86.65 -11.64,15.72 -29.54,25.46 -53.21,29 -5.17186,0.75964 -10.39265,1.13733 -15.62,1.13 z M 173,496 c -13.21,0 -26.6,-4.23 -38.66,-12.36 -17.40271,-11.79245 -29.44857,-29.97623 -33.52,-50.6 -2.85,-14.66 -1.14,-26.31 5.22,-35.64 10.33,-15.15 28.87,-18.56 48.49,-22.18 2.07,-0.38 4.17,-0.76 6.3,-1.17 4.52,-0.86 9.14,-2 13.62,-3.11 16.78,-4.14 34.14,-8.43 48.47,1.75 9.59,6.8 15,18.36 16.62,35.32 1.84,19.57 -2.36,39.1 -11.83,55 -10.19,17.11 -25.47,28.42 -43,31.86 -3.85781,0.75306 -7.77938,1.13149 -11.71,1.13 z M 378.17,265.27 c -5.22236,-0.0177 -10.43638,-0.41874 -15.6,-1.2 -23.66,-3.5 -41.56,-13.25 -53.2,-29 -14.66,-19.79 -19,-48.13 -13.18,-86.65 4.79,-31.93 15.93,-64.1 30.55,-88.25 23.34,-38.57 47.66,-45.26 64,-44.08 18.92,1.38 35.69,10.57 48.51,26.6 21.89,27.37 29.65,71 21.86,122.84 -5.27,35 -14.2,58.95 -28.11,75.31 -13.91,16.36 -32.22,24.43 -54.83,24.43 z M 339,400 c -3.9206,-4.4e-4 -7.83203,-0.37886 -11.68,-1.13 -17.56,-3.44 -32.84,-14.75 -43,-31.86 -9.47,-15.9 -13.67,-35.43 -11.83,-55 1.6,-17 7,-28.52 16.62,-35.33 14.33,-10.17 31.69,-5.89 48.47,-1.74 4.48,1.1 9.1,2.24 13.62,3.11 l 6.29,1.17 c 19.63,3.61 38.17,7 48.5,22.17 6.36,9.33 8.07,21 5.22,35.64 -4.06797,20.62785 -16.11432,38.81598 -33.52,50.61 C 365.56,395.78 352.17,400 339,400 Z"
     id="path4" />
</svg>
