<?xml version="1.0" encoding="UTF-8"?>
<svg width="512px" height="512px" viewBox="0 0 512 512" version="1.1" xmlns="http://www.w3.org/2000/svg" xmlns:xlink="http://www.w3.org/1999/xlink">
    <!-- Generator: Sketch 62 (91390) - https://sketch.com -->
    <title>Artboard</title>
    <desc>Created with Sketch.</desc>
    <g id="Artboard" stroke="none" stroke-width="1" fill="none" fill-rule="evenodd">
        <g id="football-outline" transform="translate(48.000000, 48.000000)" fill="#000000" fill-rule="nonzero">
            <path d="M208,0 C231.827652,0 254.731778,4.02640374 276.067789,11.4346229 C276.948,11.669546 277.811301,11.9754091 278.645068,12.3540761 C358.672348,41.3304836 416,118.090688 416,208 C416,322.7 322.7,416 208,416 C93.3,416 0,322.7 0,208 C0,93.3 93.3,0 208,0 Z M254.869,288 L161.231,288 L141.8,321.3 L164.502534,378.554461 C178.420416,382.109552 192.994841,384 208,384 C223.082098,384 237.729032,382.090115 251.711505,378.499644 L274.3,321.3 L254.869,288 Z M113.112,336 L87.3587363,336.000977 C98.2278097,346.251449 110.396328,355.138016 123.586758,362.383143 L113.112,336 Z M328.641264,336.000977 L302.977,336 L292.623165,362.267653 C305.732795,355.043653 317.829873,346.197049 328.641264,336.000977 Z M81.971,187.183 L33.2632489,229.131941 C36.5566018,256.496414 46.1618173,281.955024 60.5747157,304.003589 L114.808,304 L134.918,269.526 L118.303,202.568 L81.971,187.183 Z M334.094,187.155 L297.697,202.568 L281.112,269.406 L301.292,304 L355.425284,304.003589 C369.851708,281.934332 379.461422,256.448629 382.746006,229.054896 L334.094,187.155 Z M208,148 L149.8,196.8 L164.5,256 L251.5,256 L266.2,196.8 L208,148 Z M33.2685525,186.824038 L60.266,163.576 L49.2087415,132.161377 C41.0933215,149.073805 35.602551,167.472066 33.2685525,186.824038 Z M366.791258,132.161377 L355.756,163.511 L382.719838,186.728004 C380.379275,167.411197 374.893253,149.045826 366.791258,132.161377 Z M273.946576,44.8323774 L224,78.1 L224,119.779 L286.81,172.436 L324.3,156.6 L345.004271,97.6743401 C326.322653,74.5256433 301.908557,56.1834578 273.946576,44.8323774 Z M70.9965411,97.673334 L91.7,156.6 L129.19,172.435 L192,119.779 L192,78.174 L141.964087,44.868672 C114.039847,56.2223718 89.6581563,74.5497678 70.9965411,97.673334 Z M208,32 C199.532816,32 191.202786,32.6019516 183.050482,33.7652823 L207.925,50.326 L232.825646,33.7476511 C224.712838,32.5958701 216.424303,32 208,32 Z" id="Combined-Shape"></path>
        </g>
    </g>
</svg>