<?xml version="1.0" encoding="UTF-8" standalone="no"?>
<svg
   xmlns:dc="http://purl.org/dc/elements/1.1/"
   xmlns:cc="http://creativecommons.org/ns#"
   xmlns:rdf="http://www.w3.org/1999/02/22-rdf-syntax-ns#"
   xmlns:svg="http://www.w3.org/2000/svg"
   xmlns="http://www.w3.org/2000/svg"
   xmlns:sodipodi="http://sodipodi.sourceforge.net/DTD/sodipodi-0.dtd"
   xmlns:inkscape="http://www.inkscape.org/namespaces/inkscape"
   class="ionicon"
   viewBox="0 0 512 512"
   version="1.1"
   id="svg6"
   sodipodi:docname="footsteps-sharp.svg"
   inkscape:version="1.0.2 (e86c8708, 2021-01-15)">
  <metadata
     id="metadata12">
    <rdf:RDF>
      <cc:Work
         rdf:about="">
        <dc:format>image/svg+xml</dc:format>
        <dc:type
           rdf:resource="http://purl.org/dc/dcmitype/StillImage" />
      </cc:Work>
    </rdf:RDF>
  </metadata>
  <defs
     id="defs10" />
  <sodipodi:namedview
     pagecolor="#ffffff"
     bordercolor="#666666"
     borderopacity="1"
     objecttolerance="10"
     gridtolerance="10"
     guidetolerance="10"
     inkscape:pageopacity="0"
     inkscape:pageshadow="2"
     inkscape:window-width="689"
     inkscape:window-height="480"
     id="namedview8"
     showgrid="false"
     inkscape:zoom="1.3027344"
     inkscape:cx="256"
     inkscape:cy="256"
     inkscape:window-x="44"
     inkscape:window-y="25"
     inkscape:window-maximized="0"
     inkscape:current-layer="svg6" />
  <title
     id="title2">Footsteps</title>
  <path
     style="color:#000000;font-style:normal;font-variant:normal;font-weight:normal;font-stretch:normal;font-size:medium;line-height:normal;font-family:sans-serif;font-variant-ligatures:normal;font-variant-position:normal;font-variant-caps:normal;font-variant-numeric:normal;font-variant-alternates:normal;font-variant-east-asian:normal;font-feature-settings:normal;font-variation-settings:normal;text-indent:0;text-align:start;text-decoration:none;text-decoration-line:none;text-decoration-style:solid;text-decoration-color:#000000;letter-spacing:normal;word-spacing:normal;text-transform:none;writing-mode:lr-tb;direction:ltr;text-orientation:mixed;dominant-baseline:auto;baseline-shift:baseline;text-anchor:start;white-space:normal;shape-padding:0;shape-margin:0;inline-size:0;clip-rule:nonzero;display:inline;overflow:visible;visibility:visible;isolation:auto;mix-blend-mode:normal;color-interpolation:sRGB;color-interpolation-filters:linearRGB;solid-color:#000000;solid-opacity:1;vector-effect:none;fill:#000000;fill-opacity:1;fill-rule:nonzero;stroke-width:1;stroke-linecap:butt;stroke-linejoin:miter;stroke-miterlimit:4;stroke-dasharray:none;stroke-dashoffset:0;stroke-opacity:1;color-rendering:auto;image-rendering:auto;shape-rendering:auto;text-rendering:auto;enable-background:accumulate;stop-color:#000000;stop-opacity:1;stroke:none;opacity:1"
     d="m 130.54,358.31 c -12.83,1.88 -33.95,5.38 -48,-10.56 C 68.49,331.81 56.34,293.32 51,258.92 c -7.88,-50.7 -0.06,-93.43 22,-120.31 13,-15.83 30.06,-25 49.34,-26.46 16.51,-1.27 41.18,5.19 65,43.19 14.92,23.81 26.27,55.44 31.14,86.77 5.88,37.82 11.61,78.18 -8.44,92.65 -11.31,8.17 -19.43,11 -38.62,15.57 -15.78,3.75 -28.04,6.09 -40.88,7.98 z m -22.82,32.53 108.89,-22.46 c 9.2,-1.9 16.58,3.16 20,18.32 11.22,49.76 -4.86,109.3 -55.22,109.3 -47.69,0 -79.47,-54.36 -84.66,-83.58 -2.37,-13.25 1.01,-19.53 10.99,-21.58 z m 232.87,-136.5 c -19.19,-4.55 -27.31,-7.4 -38.62,-15.57 -20.05,-14.47 -14.32,-54.83 -8.44,-92.65 4.87,-31.33 16.22,-63 31.14,-86.77 23.8,-38 48.47,-44.46 65,-43.19 19.26,1.47 36.33,10.62 49.33,26.45 22.08,26.88 29.9,69.61 22,120.31 -5.35,34.4 -17.46,72.76 -31.59,88.83 -14.13,16.07 -35.13,12.44 -48,10.56 -12.87,-1.88 -25.05,-4.23 -40.82,-7.97 z m 63.69,40.5 -108.89,-22.46 c -9.2,-1.9 -16.58,3.16 -20,18.32 -11.21,49.76 4.87,109.3 55.23,109.3 47.69,0 79.47,-54.36 84.66,-83.58 2.36,-13.25 -1.02,-19.53 -11,-21.58 z"
     id="path4" />
</svg>
