<?xml version="1.0" encoding="utf-8"?>
<!-- Generator: Adobe Illustrator 24.0.0, SVG Export Plug-In . SVG Version: 6.00 Build 0)  -->
<svg version="1.1" id="Layer_1" xmlns="http://www.w3.org/2000/svg" xmlns:xlink="http://www.w3.org/1999/xlink" x="0px" y="0px"
	 viewBox="0 0 512 512" style="enable-background:new 0 0 512 512;" xml:space="preserve">
<title>ionicons-v5-n</title>
<g>
	<path d="M296,464c-2.5,0-5.1-0.4-7.6-1.2l-80.1-26.7c-9.9-3.3-16.4-12.5-16.3-22.8V294.1c0,0-0.1-0.1-0.1-0.1L23.3,97.5l0,0
		C18.6,92.1,16,85.1,16,77.9C16.1,61.4,29.6,48,46.1,48H466c7.2,0,14.1,2.6,19.5,7.2c6.1,5.2,9.8,12.5,10.4,20.5
		c0.6,8-1.9,15.7-7.2,21.8L320.1,294c0,0-0.1,0.1-0.1,0.1h0V440c0,2.6-0.4,5.2-1.2,7.7C315.4,457.7,306.1,464,296,464z M298.6,432.4
		L298.6,432.4C298.6,432.4,298.6,432.4,298.6,432.4z M224,407.6l64,21.3V294c0-0.1,0-0.1,0-0.2c0.1-7.6,2.9-15,7.9-20.7L461.6,80
		H50.4l165.8,193.1c5,5.8,7.8,13.1,7.8,20.8c0,0,0,0.1,0,0.1V407.6z M46,80C46.1,80,46.1,80,46,80L46,80z M47.5,76.7
		C47.5,76.7,47.5,76.7,47.5,76.7C47.5,76.7,47.5,76.7,47.5,76.7z"/>
</g>
</svg>
