<?xml version="1.0" encoding="UTF-8" standalone="no"?>
<svg
   xmlns:dc="http://purl.org/dc/elements/1.1/"
   xmlns:cc="http://creativecommons.org/ns#"
   xmlns:rdf="http://www.w3.org/1999/02/22-rdf-syntax-ns#"
   xmlns:svg="http://www.w3.org/2000/svg"
   xmlns="http://www.w3.org/2000/svg"
   xmlns:sodipodi="http://sodipodi.sourceforge.net/DTD/sodipodi-0.dtd"
   xmlns:inkscape="http://www.inkscape.org/namespaces/inkscape"
   class="ionicon"
   viewBox="0 0 512 512"
   version="1.1"
   id="svg6"
   sodipodi:docname="game-controller.svg"
   inkscape:version="1.0.2 (e86c8708, 2021-01-15)">
  <metadata
     id="metadata12">
    <rdf:RDF>
      <cc:Work
         rdf:about="">
        <dc:format>image/svg+xml</dc:format>
        <dc:type
           rdf:resource="http://purl.org/dc/dcmitype/StillImage" />
      </cc:Work>
    </rdf:RDF>
  </metadata>
  <defs
     id="defs10" />
  <sodipodi:namedview
     pagecolor="#ffffff"
     bordercolor="#666666"
     borderopacity="1"
     objecttolerance="10"
     gridtolerance="10"
     guidetolerance="10"
     inkscape:pageopacity="0"
     inkscape:pageshadow="2"
     inkscape:window-width="689"
     inkscape:window-height="480"
     id="namedview8"
     showgrid="false"
     inkscape:zoom="1.3027344"
     inkscape:cx="256"
     inkscape:cy="256"
     inkscape:window-x="44"
     inkscape:window-y="25"
     inkscape:window-maximized="0"
     inkscape:current-layer="svg6" />
  <title
     id="title2">Game Controller</title>
  <path
     style="color:#000000;font-style:normal;font-variant:normal;font-weight:normal;font-stretch:normal;font-size:medium;line-height:normal;font-family:sans-serif;font-variant-ligatures:normal;font-variant-position:normal;font-variant-caps:normal;font-variant-numeric:normal;font-variant-alternates:normal;font-variant-east-asian:normal;font-feature-settings:normal;font-variation-settings:normal;text-indent:0;text-align:start;text-decoration:none;text-decoration-line:none;text-decoration-style:solid;text-decoration-color:#000000;letter-spacing:normal;word-spacing:normal;text-transform:none;writing-mode:lr-tb;direction:ltr;text-orientation:mixed;dominant-baseline:auto;baseline-shift:baseline;text-anchor:start;white-space:normal;shape-padding:0;shape-margin:0;inline-size:0;clip-rule:nonzero;display:inline;overflow:visible;visibility:visible;isolation:auto;mix-blend-mode:normal;color-interpolation:sRGB;color-interpolation-filters:linearRGB;solid-color:#000000;solid-opacity:1;vector-effect:none;fill:#000000;fill-opacity:1;fill-rule:nonzero;stroke-width:1;stroke-linecap:butt;stroke-linejoin:miter;stroke-miterlimit:4;stroke-dasharray:none;stroke-dashoffset:0;stroke-opacity:1;color-rendering:auto;image-rendering:auto;shape-rendering:auto;text-rendering:auto;enable-background:accumulate;stop-color:#000000;stop-opacity:1;stroke:none;opacity:1"
     d="M 483.13,245.38 C 461.92,149.49 430,98.31 382.65,84.33 372.69683,81.410483 362.37241,79.951928 352,80 338.29,80 326.35,83.34 313.72,86.88 298.5,91.15 281.21,96 256,96 230.79,96 213.49,91.16 198.24,86.89 185.6,83.34 173.67,80 160,80 c -10.72574,-0.03719 -21.4046,1.416722 -31.73,4.32 -47.1,13.92 -79,65.08 -100.52,161 C 4.61,348.54 16,413.71 59.69,428.83 c 5.988811,2.11098 12.290063,3.1995 18.64,3.22 29.93,0 53.93,-24.93 70.33,-45.34 18.53,-23.1 40.22,-34.82 107.34,-34.82 59.95,0 84.76,8.13 106.19,34.82 13.47,16.78 26.2,28.52 38.9,35.91 16.89,9.82 33.77,12 50.16,6.37 25.82,-8.81 40.62,-32.1 44,-69.24 2.57,-28.48 -1.39,-65.89 -12.12,-114.37 z M 208,240 h -32 v 32 c 0,8.83656 -7.16344,15.99999 -16,15.99999 -8.83656,0 -16,-7.16343 -16,-15.99999 v -32 h -32 c -8.83656,0 -15.999993,-7.16344 -15.999993,-16 0,-8.83656 7.163433,-16 15.999993,-16 h 32 v -32 c 0,-8.83656 7.16344,-15.99999 16,-15.99999 8.83656,0 16,7.16343 16,15.99999 v 32 h 32 c 8.83656,0 15.99999,7.16344 15.99999,16 0,8.83656 -7.16343,16 -15.99999,16 z m 84,4 C 274.18066,244 265.25994,222.45723 277.85858,209.85858 290.45723,197.25994 312,206.18066 312,224 c 0,11.04569 -8.95431,20 -20,20 z m 44,44 c -17.83139,-6e-5 -26.74656,-21.56773 -14.12364,-34.1591 12.62292,-12.59137 34.16822,-3.62223 34.12364,14.2091 -0.0276,11.02616 -8.9738,19.95003 -20,19.95 z m 0,-88 C 318.18066,200 309.25994,178.45723 321.85858,165.85858 334.45723,153.25994 356,162.18066 356,180 c 0,11.04569 -8.95431,20 -20,20 z m 44,44 C 362.18066,244 353.25994,222.45723 365.85858,209.85858 378.45723,197.25994 400,206.18066 400,224 c 0,11.04569 -8.95431,20 -20,20 z"
     id="path4" />
</svg>
