<?xml version="1.0" encoding="utf-8"?>
<!-- Generator: Adobe Illustrator 24.0.0, SVG Export Plug-In . SVG Version: 6.00 Build 0)  -->
<svg version="1.1" id="Layer_1" xmlns="http://www.w3.org/2000/svg" xmlns:xlink="http://www.w3.org/1999/xlink" x="0px" y="0px"
	 viewBox="0 0 512 512" style="enable-background:new 0 0 512 512;" xml:space="preserve">
<title>ionicons-v5-g</title>
<g>
	<path d="M78.3,432.1c-6,0-12.2-1-18.7-3.2c-43.7-15.2-55-80.3-32-183.5c21.5-95.9,53.4-147.1,100.6-161l0.2-0.1
		c10.3-2.9,20.9-4.3,31.6-4.3c13.6,0,25.5,3.3,38.2,6.9c15.3,4.3,32.6,9.1,57.7,9.1c25.2,0,42.5-4.8,57.7-9.1
		c12.6-3.5,24.6-6.9,38.3-6.9c10.3,0,20.6,1.4,30.6,4.3c47.4,14,79.4,65.2,100.6,161.1c10.7,48.5,14.7,85.9,12.1,114.4
		c-3.4,37.1-18.2,60.4-44,69.3c-16.4,5.6-33.3,3.4-50.2-6.4c-12.7-7.4-25.4-19.1-38.9-35.9C340.8,360,316,351.9,256,351.9
		c-60.1,0-86.2,8.5-107.3,34.8C132.3,407.1,108.2,432.1,78.3,432.1z M256,319.9c60.7,0,99.6,7.5,131.1,46.8
		c21.4,26.6,38.9,37.1,53.8,32c33.3-11.4,24.4-85.9,11-146.4v0c-18.2-82.2-43.8-127.1-78.3-137.3c-6.8-2-13.9-3-21.1-3
		c-0.1,0-0.3,0-0.4,0c-9.4,0-18.4,2.5-29.7,5.7C306,122.3,285.6,128,256,128c-29.6,0-50-5.7-66.4-10.3c-11.4-3.2-20.3-5.7-29.6-5.7
		c-7.7,0-15.4,1-22.8,3c-34.3,10.2-59.9,55.1-78.3,137.3c-9.4,41.8-12.8,77.9-10,104.2c1.8,16.4,6.9,37.1,21.2,42
		c19.4,6.7,38.8-13.5,53.6-31.9c14.7-18.3,31.4-30.1,52.7-37.2C196.1,322.8,220.6,319.9,256,319.9z"/>
</g>
<g>
	<circle cx="292" cy="224" r="20"/>
</g>
<g>
	<path d="M336,288c-11,0-20-9-20-20s9-20,20-20s20,9,20,20c0,0,0,0,0,0C356,279.1,347,288,336,288z"/>
</g>
<g>
	<circle cx="336" cy="180" r="20"/>
</g>
<g>
	<circle cx="380" cy="224" r="20"/>
</g>
<g>
	<path d="M160,288c-8.8,0-16-7.2-16-16v-96c0-8.8,7.2-16,16-16s16,7.2,16,16v96C176,280.8,168.8,288,160,288z"/>
</g>
<g>
	<path d="M208,240h-96c-8.8,0-16-7.2-16-16s7.2-16,16-16h96c8.8,0,16,7.2,16,16S216.8,240,208,240z"/>
</g>
</svg>
