<?xml version="1.0" encoding="UTF-8" standalone="no"?>
<svg
   xmlns:dc="http://purl.org/dc/elements/1.1/"
   xmlns:cc="http://creativecommons.org/ns#"
   xmlns:rdf="http://www.w3.org/1999/02/22-rdf-syntax-ns#"
   xmlns:svg="http://www.w3.org/2000/svg"
   xmlns="http://www.w3.org/2000/svg"
   xmlns:sodipodi="http://sodipodi.sourceforge.net/DTD/sodipodi-0.dtd"
   xmlns:inkscape="http://www.inkscape.org/namespaces/inkscape"
   class="ionicon"
   viewBox="0 0 512 512"
   version="1.1"
   id="svg10"
   sodipodi:docname="gift-outline.svg"
   inkscape:version="1.0.2 (e86c8708, 2021-01-15)">
  <metadata
     id="metadata16">
    <rdf:RDF>
      <cc:Work
         rdf:about="">
        <dc:format>image/svg+xml</dc:format>
        <dc:type
           rdf:resource="http://purl.org/dc/dcmitype/StillImage" />
      </cc:Work>
    </rdf:RDF>
  </metadata>
  <defs
     id="defs14" />
  <sodipodi:namedview
     pagecolor="#ffffff"
     bordercolor="#666666"
     borderopacity="1"
     objecttolerance="10"
     gridtolerance="10"
     guidetolerance="10"
     inkscape:pageopacity="0"
     inkscape:pageshadow="2"
     inkscape:window-width="689"
     inkscape:window-height="480"
     id="namedview12"
     showgrid="false"
     inkscape:zoom="1.3027344"
     inkscape:cx="256"
     inkscape:cy="256"
     inkscape:window-x="44"
     inkscape:window-y="25"
     inkscape:window-maximized="0"
     inkscape:current-layer="svg10" />
  <title
     id="title2">Gift</title>
  <path
     style="color:#000000;font-style:normal;font-variant:normal;font-weight:normal;font-stretch:normal;font-size:medium;line-height:normal;font-family:sans-serif;font-variant-ligatures:normal;font-variant-position:normal;font-variant-caps:normal;font-variant-numeric:normal;font-variant-alternates:normal;font-variant-east-asian:normal;font-feature-settings:normal;font-variation-settings:normal;text-indent:0;text-align:start;text-decoration:none;text-decoration-line:none;text-decoration-style:solid;text-decoration-color:#000000;letter-spacing:normal;word-spacing:normal;text-transform:none;writing-mode:lr-tb;direction:ltr;text-orientation:mixed;dominant-baseline:auto;baseline-shift:baseline;text-anchor:start;white-space:normal;shape-padding:0;shape-margin:0;inline-size:0;clip-rule:nonzero;display:inline;overflow:visible;visibility:visible;isolation:auto;mix-blend-mode:normal;color-interpolation:sRGB;color-interpolation-filters:linearRGB;solid-color:#000000;solid-opacity:1;vector-effect:none;fill:currentColor;fill-opacity:1;fill-rule:nonzero;stroke:none;stroke-linecap:round;stroke-linejoin:miter;stroke-miterlimit:10;stroke-dasharray:none;stroke-dashoffset:0;stroke-opacity:1;color-rendering:auto;image-rendering:auto;shape-rendering:auto;text-rendering:auto;enable-background:accumulate;stop-color:#000000;stop-opacity:1;opacity:1"
     d="M 196.34375 32.109375 C 178.88431 33.009547 161.93906 40.240627 149.08984 53.089844 C 128.5311 73.648591 122.35429 104.69072 133.48047 131.55273 C 144.60666 158.41478 170.92465 176 200 176 L 240 176 L 272 176 L 312 176 C 341.07535 176 367.39334 158.41478 378.51953 131.55273 C 389.64571 104.69072 383.4689 73.648591 362.91016 53.089844 C 342.35141 32.531097 311.30928 26.354287 284.44727 37.480469 C 273.02714 42.210659 263.42812 49.798199 256 59.064453 C 248.57188 49.798199 238.97286 42.210659 227.55273 37.480469 C 217.47948 33.30815 206.81941 31.569272 196.34375 32.109375 z M 197.95312 64.035156 C 203.76463 63.740519 209.68786 64.716826 215.30859 67.044922 C 230.29728 73.253199 240 87.775626 240 104 L 240 144 L 200 144 C 183.77563 144 169.2532 134.29728 163.04492 119.30859 C 156.83667 104.31996 160.24394 87.189653 171.7168 75.716797 C 178.88733 68.546262 188.26728 64.526219 197.95312 64.035156 z M 314.04688 64.035156 C 323.73272 64.526219 333.11267 68.546262 340.2832 75.716797 C 351.75606 87.189653 355.16333 104.31996 348.95508 119.30859 C 342.7468 134.29728 328.22437 144 312 144 L 272 144 L 272 104 C 272 87.775626 281.70272 73.253199 296.69141 67.044922 C 302.31214 64.716826 308.23537 63.740519 314.04688 64.035156 z "
     id="path4" />
  <path
     style="color:#000000;font-style:normal;font-variant:normal;font-weight:normal;font-stretch:normal;font-size:medium;line-height:normal;font-family:sans-serif;font-variant-ligatures:normal;font-variant-position:normal;font-variant-caps:normal;font-variant-numeric:normal;font-variant-alternates:normal;font-variant-east-asian:normal;font-feature-settings:normal;font-variation-settings:normal;text-indent:0;text-align:start;text-decoration:none;text-decoration-line:none;text-decoration-style:solid;text-decoration-color:#000000;letter-spacing:normal;word-spacing:normal;text-transform:none;writing-mode:lr-tb;direction:ltr;text-orientation:mixed;dominant-baseline:auto;baseline-shift:baseline;text-anchor:start;white-space:normal;shape-padding:0;shape-margin:0;inline-size:0;clip-rule:nonzero;display:inline;overflow:visible;visibility:visible;isolation:auto;mix-blend-mode:normal;color-interpolation:sRGB;color-interpolation-filters:linearRGB;solid-color:#000000;solid-opacity:1;vector-effect:none;fill:currentColor;fill-opacity:1;fill-rule:nonzero;stroke:none;stroke-linecap:round;stroke-linejoin:round;stroke-miterlimit:4;stroke-dasharray:none;stroke-dashoffset:0;stroke-opacity:1;color-rendering:auto;image-rendering:auto;shape-rendering:auto;text-rendering:auto;enable-background:accumulate;stop-color:#000000;stop-opacity:1;opacity:1"
     d="M 96 144 C 69.684756 144 48 165.68476 48 192 L 48 240 C 48 266.31524 69.684756 288 96 288 L 416 288 C 442.31524 288 464 266.31524 464 240 L 464 192 C 464 165.68476 442.31524 144 416 144 L 96 144 z M 96 176 L 416 176 C 425.14076 176 432 182.85924 432 192 L 432 240 C 432 249.14076 425.14076 256 416 256 L 96 256 C 86.859244 256 80 249.14076 80 240 L 80 192 C 80 182.85924 86.859244 176 96 176 z "
     id="rect6" />
  <path
     style="color:#000000;font-style:normal;font-variant:normal;font-weight:normal;font-stretch:normal;font-size:medium;line-height:normal;font-family:sans-serif;font-variant-ligatures:normal;font-variant-position:normal;font-variant-caps:normal;font-variant-numeric:normal;font-variant-alternates:normal;font-variant-east-asian:normal;font-feature-settings:normal;font-variation-settings:normal;text-indent:0;text-align:start;text-decoration:none;text-decoration-line:none;text-decoration-style:solid;text-decoration-color:#000000;letter-spacing:normal;word-spacing:normal;text-transform:none;writing-mode:lr-tb;direction:ltr;text-orientation:mixed;dominant-baseline:auto;baseline-shift:baseline;text-anchor:start;white-space:normal;shape-padding:0;shape-margin:0;inline-size:0;clip-rule:nonzero;display:inline;overflow:visible;visibility:visible;isolation:auto;mix-blend-mode:normal;color-interpolation:sRGB;color-interpolation-filters:linearRGB;solid-color:#000000;solid-opacity:1;vector-effect:none;fill:currentColor;fill-opacity:1;fill-rule:nonzero;stroke:none;stroke-linecap:round;stroke-linejoin:round;stroke-miterlimit:4;stroke-dasharray:none;stroke-dashoffset:0;stroke-opacity:1;color-rendering:auto;image-rendering:auto;shape-rendering:auto;text-rendering:auto;enable-background:accumulate;stop-color:#000000;stop-opacity:1;opacity:1"
     d="M 256 144 A 16 16 0 0 0 240 160 L 240 448 L 144 448 C 126.13737 448 112 433.86263 112 416 L 112 272 A 16 16 0 0 0 96 256 A 16 16 0 0 0 80 272 L 80 416 C 80 451.15671 108.84329 480 144 480 L 256 480 L 368 480 C 403.15671 480 432 451.15671 432 416 L 432 272 A 16 16 0 0 0 416 256 A 16 16 0 0 0 400 272 L 400 416 C 400 433.86263 385.86263 448 368 448 L 272 448 L 272 160 A 16 16 0 0 0 256 144 z "
     id="path8" />
</svg>
