<?xml version="1.0" encoding="utf-8"?>
<!-- Generator: Adobe Illustrator 24.0.0, SVG Export Plug-In . SVG Version: 6.00 Build 0)  -->
<svg version="1.1" id="Layer_1" xmlns="http://www.w3.org/2000/svg" xmlns:xlink="http://www.w3.org/1999/xlink" x="0px" y="0px"
	 viewBox="0 0 512 512" style="enable-background:new 0 0 512 512;" xml:space="preserve">
<title>ionicons-v5-n</title>
<g>
	<path d="M312,176h-72v-72c0-39.7,32.3-72,72-72s72,32.3,72,72S351.7,176,312,176z M272,144h40c22.1,0,40-17.9,40-40s-17.9-40-40-40
		s-40,17.9-40,40V144z"/>
</g>
<g>
	<path d="M272,176h-72c-39.7,0-72-32.3-72-72s32.3-72,72-72s72,32.3,72,72V176z M200,64c-22.1,0-40,17.9-40,40s17.9,40,40,40h40v-40
		C240,81.9,222.1,64,200,64z"/>
</g>
<g>
	<path d="M416,288H96c-26.5,0-48-21.5-48-48v-48c0-26.5,21.5-48,48-48h320c26.5,0,48,21.5,48,48v48C464,266.5,442.5,288,416,288z
		 M96,176c-8.8,0-16,7.2-16,16v48c0,8.8,7.2,16,16,16h320c8.8,0,16-7.2,16-16v-48c0-8.8-7.2-16-16-16H96z"/>
</g>
<g>
	<path d="M368,480H144c-35.3,0-64-28.7-64-64V272c0-8.8,7.2-16,16-16s16,7.2,16,16v144c0,17.6,14.4,32,32,32h224
		c17.6,0,32-14.4,32-32V272c0-8.8,7.2-16,16-16s16,7.2,16,16v144C432,451.3,403.3,480,368,480z"/>
</g>
<g>
	<path d="M256,480c-8.8,0-16-7.2-16-16V160c0-8.8,7.2-16,16-16c8.8,0,16,7.2,16,16v304C272,472.8,264.8,480,256,480z"/>
</g>
</svg>
