<?xml version="1.0" encoding="UTF-8" standalone="no"?>
<svg
   xmlns:dc="http://purl.org/dc/elements/1.1/"
   xmlns:cc="http://creativecommons.org/ns#"
   xmlns:rdf="http://www.w3.org/1999/02/22-rdf-syntax-ns#"
   xmlns:svg="http://www.w3.org/2000/svg"
   xmlns="http://www.w3.org/2000/svg"
   xmlns:sodipodi="http://sodipodi.sourceforge.net/DTD/sodipodi-0.dtd"
   xmlns:inkscape="http://www.inkscape.org/namespaces/inkscape"
   class="ionicon"
   viewBox="0 0 512 512"
   version="1.1"
   id="svg16"
   sodipodi:docname="gift.svg"
   inkscape:version="1.0.2 (e86c8708, 2021-01-15)">
  <metadata
     id="metadata22">
    <rdf:RDF>
      <cc:Work
         rdf:about="">
        <dc:format>image/svg+xml</dc:format>
        <dc:type
           rdf:resource="http://purl.org/dc/dcmitype/StillImage" />
      </cc:Work>
    </rdf:RDF>
  </metadata>
  <defs
     id="defs20" />
  <sodipodi:namedview
     pagecolor="#ffffff"
     bordercolor="#666666"
     borderopacity="1"
     objecttolerance="10"
     gridtolerance="10"
     guidetolerance="10"
     inkscape:pageopacity="0"
     inkscape:pageshadow="2"
     inkscape:window-width="705"
     inkscape:window-height="480"
     id="namedview18"
     showgrid="false"
     inkscape:zoom="0.3"
     inkscape:cx="256"
     inkscape:cy="256"
     inkscape:window-x="158"
     inkscape:window-y="141"
     inkscape:window-maximized="0"
     inkscape:current-layer="svg16" />
  <title
     id="title10">Gift</title>
  <path
     d="M200 144h40v-40a40 40 0 10-40 40zM352 104a40 40 0 00-80 0v40h40a40 40 0 0040-40z"
     fill="none"
     id="path12" />
  <path
     style="color:#000000;font-style:normal;font-variant:normal;font-weight:normal;font-stretch:normal;font-size:medium;line-height:normal;font-family:sans-serif;font-variant-ligatures:normal;font-variant-position:normal;font-variant-caps:normal;font-variant-numeric:normal;font-variant-alternates:normal;font-variant-east-asian:normal;font-feature-settings:normal;font-variation-settings:normal;text-indent:0;text-align:start;text-decoration:none;text-decoration-line:none;text-decoration-style:solid;text-decoration-color:#000000;letter-spacing:normal;word-spacing:normal;text-transform:none;writing-mode:lr-tb;direction:ltr;text-orientation:mixed;dominant-baseline:auto;baseline-shift:baseline;text-anchor:start;white-space:normal;shape-padding:0;shape-margin:0;inline-size:0;clip-rule:nonzero;display:inline;overflow:visible;visibility:visible;isolation:auto;mix-blend-mode:normal;color-interpolation:sRGB;color-interpolation-filters:linearRGB;solid-color:#000000;solid-opacity:1;vector-effect:none;fill:#000000;fill-opacity:1;fill-rule:nonzero;stroke-width:1;stroke-linecap:butt;stroke-linejoin:miter;stroke-miterlimit:4;stroke-dasharray:none;stroke-dashoffset:0;stroke-opacity:1;color-rendering:auto;image-rendering:auto;shape-rendering:auto;text-rendering:auto;enable-background:accumulate;stop-color:#000000;stop-opacity:1;stroke:none;opacity:1"
     d="m 80,416 c 0,35.34622 28.65378,64 64,64 h 92 c 2.20914,0 4,-1.79086 4,-4 V 292 c 0,-2.20914 -1.79086,-4 -4,-4 H 88 c -4.418278,0 -8,3.58172 -8,8 z M 240,252 V 144 h 32 v 108 c 0,2.20914 1.79086,4 4,4 h 140 c 5.45091,-1.9e-4 10.86184,-0.93019 16,-2.75 19.15953,-6.80244 31.97106,-24.91875 32,-45.25 v -16 c 0,-26.50967 -21.49033,-48 -48,-48 h -40.54 c -1.52539,-0.0243 -2.46299,-1.67892 -1.7,-3 C 392.96446,108.57647 383.9186,66.829687 353.01551,45.263649 322.11241,23.697611 279.80783,29.608976 256,58.82 232.19217,29.608976 189.88759,23.697611 158.98449,45.263649 128.0814,66.829687 119.03554,108.57647 138.24,141 c 0.76299,1.32108 -0.17461,2.97566 -1.7,3 H 96 c -26.509668,0 -48,21.49033 -48,48 v 16 c 0.02894,20.33125 12.840473,38.44756 32,45.25 5.138158,1.81981 10.549094,2.74981 16,2.75 h 140 c 2.20914,0 4,-1.79086 4,-4 z m 32,-148 c 0,-16.178472 9.74574,-30.764021 24.69243,-36.954904 14.94666,-6.19087 32.15055,-2.767789 43.5904,8.67207 11.43986,11.439858 14.86294,28.643744 8.67207,43.590404 C 342.76402,134.25426 328.17847,144 312,144 H 272 Z M 197.14,64.1 C 220.29923,62.439866 240.00138,80.781348 240,104 v 40 H 200 C 178.50539,143.94483 160.89729,126.91209 160.12829,105.43118 159.35929,83.950276 175.70436,65.702039 197.14,64.11 Z M 276,480 h 92 c 35.34622,0 64,-28.65378 64,-64 V 296 c 0,-4.41828 -3.58172,-8 -8,-8 H 276 c -2.20914,0 -4,1.79086 -4,4 v 184 c 0,2.20914 1.79086,4 4,4 z"
     id="path14" />
</svg>
