<?xml version="1.0" encoding="UTF-8" standalone="no"?>
<svg
   xmlns:dc="http://purl.org/dc/elements/1.1/"
   xmlns:cc="http://creativecommons.org/ns#"
   xmlns:rdf="http://www.w3.org/1999/02/22-rdf-syntax-ns#"
   xmlns:svg="http://www.w3.org/2000/svg"
   xmlns="http://www.w3.org/2000/svg"
   xmlns:sodipodi="http://sodipodi.sourceforge.net/DTD/sodipodi-0.dtd"
   xmlns:inkscape="http://www.inkscape.org/namespaces/inkscape"
   class="ionicon"
   viewBox="0 0 512 512"
   version="1.1"
   id="svg16"
   sodipodi:docname="gift-sharp.svg"
   inkscape:version="1.0.2 (e86c8708, 2021-01-15)">
  <metadata
     id="metadata22">
    <rdf:RDF>
      <cc:Work
         rdf:about="">
        <dc:format>image/svg+xml</dc:format>
        <dc:type
           rdf:resource="http://purl.org/dc/dcmitype/StillImage" />
      </cc:Work>
    </rdf:RDF>
  </metadata>
  <defs
     id="defs20" />
  <sodipodi:namedview
     pagecolor="#ffffff"
     bordercolor="#666666"
     borderopacity="1"
     objecttolerance="10"
     gridtolerance="10"
     guidetolerance="10"
     inkscape:pageopacity="0"
     inkscape:pageshadow="2"
     inkscape:window-width="705"
     inkscape:window-height="480"
     id="namedview18"
     showgrid="false"
     inkscape:zoom="0.3"
     inkscape:cx="256"
     inkscape:cy="256"
     inkscape:window-x="253"
     inkscape:window-y="44"
     inkscape:window-maximized="0"
     inkscape:current-layer="svg16" />
  <title
     id="title10">Gift</title>
  <path
     d="M346 110a34 34 0 00-68 0v34h34a34 34 0 0034-34zM234 110a34 34 0 10-34 34h34z"
     fill="none"
     id="path12" />
  <path
     style="color:#000000;font-style:normal;font-variant:normal;font-weight:normal;font-stretch:normal;font-size:medium;line-height:normal;font-family:sans-serif;font-variant-ligatures:normal;font-variant-position:normal;font-variant-caps:normal;font-variant-numeric:normal;font-variant-alternates:normal;font-variant-east-asian:normal;font-feature-settings:normal;font-variation-settings:normal;text-indent:0;text-align:start;text-decoration:none;text-decoration-line:none;text-decoration-style:solid;text-decoration-color:#000000;letter-spacing:normal;word-spacing:normal;text-transform:none;writing-mode:lr-tb;direction:ltr;text-orientation:mixed;dominant-baseline:auto;baseline-shift:baseline;text-anchor:start;white-space:normal;shape-padding:0;shape-margin:0;inline-size:0;clip-rule:nonzero;display:inline;overflow:visible;visibility:visible;isolation:auto;mix-blend-mode:normal;color-interpolation:sRGB;color-interpolation-filters:linearRGB;solid-color:#000000;solid-opacity:1;vector-effect:none;fill:#000000;fill-opacity:1;fill-rule:nonzero;stroke-width:1;stroke-linecap:butt;stroke-linejoin:miter;stroke-miterlimit:4;stroke-dasharray:none;stroke-dashoffset:0;stroke-opacity:1;color-rendering:auto;image-rendering:auto;shape-rendering:auto;text-rendering:auto;enable-background:accumulate;stop-color:#000000;stop-opacity:1;stroke:none;opacity:1"
     d="m 234,144 h 44 v 112 h 164 c 12.15026,0 22,-9.84974 22,-22 v -68 c 0,-12.15026 -9.84974,-22 -22,-22 H 382.18 C 398.91441,109.53471 388.1215,68.018061 356.7206,46.066302 325.31971,24.114543 282.62161,28.236664 256,55.79 229.33707,28.392422 186.74674,24.357448 155.4131,46.260455 124.07946,68.163462 113.23863,109.54816 129.81,144 H 70 c -12.150264,0 -22,9.84974 -22,22 v 68 c 0,12.15026 9.849736,22 22,22 h 164 z m 44,-34 c 0,-13.751701 8.28388,-26.149418 20.98857,-31.411668 12.70466,-5.26224 27.32796,-2.352621 37.05184,7.371259 9.72388,9.723879 12.6335,24.347179 7.37126,37.051839 C 338.14942,135.71612 325.7517,144 312,144 h -34 z m -112,0 c 0,-18.777694 15.22232,-33.999985 34,-33.999985 18.77768,0 34,15.222291 34,33.999985 v 34 h -34 c -18.77768,0 -34,-15.22232 -34,-34 z m 112,370 h 132 c 12.15026,0 22,-9.84974 22,-22 V 288 H 278 Z M 80,458 c 0,12.15026 9.849736,22 22,22 H 234 V 288 H 80 Z"
     id="path14" />
</svg>
