<?xml version="1.0" encoding="UTF-8"?>
<svg width="512px" height="512px" viewBox="0 0 512 512" version="1.1" xmlns="http://www.w3.org/2000/svg" xmlns:xlink="http://www.w3.org/1999/xlink">
    <!-- Generator: Sketch 62 (91390) - https://sketch.com -->
    <title>Artboard</title>
    <desc>Created with Sketch.</desc>
    <g id="Artboard" stroke="none" stroke-width="1" fill="none" fill-rule="evenodd">
        <g id="gift" transform="translate(48.000000, 32.000000)" fill="#000000" fill-rule="nonzero">
            <path d="M188,256 C190.209139,256 192,257.790861 192,260 L192,260 L192,444 C192,446.209139 190.209139,448 188,448 L188,448 L96,448 C60.653776,448 32,419.346224 32,384 L32,384 L32,264 C32,259.581722 35.581722,256 40,256 L40,256 Z M376,256 C380.418278,256 384,259.581722 384,264 L384,264 L384,384 C384,419.346224 355.346224,448 320,448 L320,448 L228,448 C225.790861,448 224,446.209139 224,444 L224,444 L224,260 C224,257.790861 225.790861,256 228,256 L228,256 Z M208,26.82 C231.807818,-2.39101241 274.112418,-8.30240312 305.015516,13.2636345 C335.918614,34.8296721 344.964456,76.5764855 325.76,109 C325.405466,109.613862 325.402369,110.369532 325.751859,110.98628 C326.10135,111.603027 326.751203,111.988692 327.46,112 L327.46,112 L368,112 C394.509668,112 416,133.490332 416,160 L416,160 L416,176 C415.971063,196.331251 403.159527,214.447563 384,221.25 L384,221.25 L383.297673,221.492638 C378.369856,223.15245 373.203138,224 368,224 L368,224 L228,224 C225.790861,224 224,222.209139 224,220 L224,220 L224,112 L192,112 L192,220 C192,222.209139 190.209139,224 188,224 L188,224 L48,224 C42.549094,224 37.1381585,223.069809 32,221.25 L32,221.25 L31.427125,221.042542 C12.5855207,214.085016 0.0286480067,196.127939 0,176 L0,176 L0,160 C0,133.490332 21.490332,112 48,112 L48,112 L88.54,112 C89.2487971,111.988692 89.8986501,111.603027 90.2481405,110.98628 C90.5976309,110.369532 90.5945339,109.613862 90.24,109 C71.0355436,76.5764855 80.0813865,34.8296721 110.984484,13.2636345 C141.887582,-8.30240312 184.192182,-2.39101241 208,26.82 Z M264,32 C241.90861,32 224,49.90861 224,72 L224,72 L224,112 L264,112 C286.09139,112 304,94.09139 304,72 C304,49.90861 286.09139,32 264,32 Z M179.255227,42.7204554 C171.12648,35.1530963 160.217495,31.3059267 149.14,32.1 L149.14,32.1 L149.14,32.11 C127.704372,33.7020379 111.359273,51.9502764 112.128273,73.431184 C112.897273,94.9120916 130.505403,111.944831 152,112 L152,112 L192,112 L192,72 C192,60.8940802 187.383974,50.2878145 179.255227,42.7204554 Z" id="Combined-Shape"></path>
        </g>
    </g>
</svg>