<?xml version="1.0" encoding="UTF-8"?>
<svg width="512px" height="512px" viewBox="0 0 512 512" version="1.1" xmlns="http://www.w3.org/2000/svg" xmlns:xlink="http://www.w3.org/1999/xlink">
    <!-- Generator: Sketch 62 (91390) - https://sketch.com -->
    <title>Artboard</title>
    <desc>Created with Sketch.</desc>
    <g id="Artboard" stroke="none" stroke-width="1" fill="none" fill-rule="evenodd">
        <g id="gift-sharp" transform="translate(48.000000, 32.000000)" fill="#000000" fill-rule="nonzero">
            <path d="M384,256 L384,426 C384,438.150264 374.150264,448 362,448 L362,448 L230,448 L230,256 L384,256 Z M186,256 L186,448 L54,448 C41.8497355,448 32,438.150264 32,426 L32,426 L32,256 L186,256 Z M208,23.79 C234.621605,-3.76332966 277.319715,-7.88546383 308.720608,14.0662942 C340.121502,36.0180522 350.914406,77.5347212 334.18,112 L334.18,112 L394,112 C406.150264,112 416,121.849736 416,134 L416,134 L416,202 C416,214.150264 406.150264,224 394,224 L394,224 L230,224 L230,112 L186,112 L186,224 L22,224 C16.1652372,224 10.5694511,221.68215 6.44365081,217.556349 C2.31785049,213.430549 0,207.834763 0,202 L0,202 L0,134 C0,121.849736 9.8497355,112 22,112 L22,112 L81.81,112 C65.2386334,77.5481707 76.0794514,36.1634541 107.413092,14.2604473 C138.746732,-7.64255944 181.337071,-3.60757231 208,23.79 Z M264,44 C245.222319,44 230,59.2223185 230,78 L230,78 L230,112 L264,112 C282.777681,112 298,96.7776815 298,78 C298,59.2223185 282.777681,44 264,44 Z M152,44 C133.222319,44 118,59.2223185 118,78 C118,96.7776815 133.222319,112 152,112 L152,112 L186,112 L186,78 C186,59.2223185 170.777681,44 152,44 Z" id="Combined-Shape"></path>
        </g>
    </g>
</svg>