<?xml version="1.0" encoding="utf-8"?>
<!-- Generator: Adobe Illustrator 24.0.0, SVG Export Plug-In . SVG Version: 6.00 Build 0)  -->
<svg version="1.1" id="Layer_1" xmlns="http://www.w3.org/2000/svg" xmlns:xlink="http://www.w3.org/1999/xlink" x="0px" y="0px"
	 viewBox="0 0 512 512" style="enable-background:new 0 0 512 512;" xml:space="preserve">
<title>ionicons-v5-d</title>
<g>
	<path d="M128,480c-35.3,0-64-28.7-64-64s28.7-64,64-64s64,28.7,64,64S163.3,480,128,480z M128,384c-17.6,0-32,14.4-32,32
		s14.4,32,32,32s32-14.4,32-32S145.6,384,128,384z"/>
</g>
<g>
	<path d="M128,384c-8.8,0-16-7.2-16-16V144c0-8.8,7.2-16,16-16s16,7.2,16,16v224C144,376.8,136.8,384,128,384z"/>
</g>
<g>
	<path d="M288,176c-4.1,0-8.2-1.6-11.3-4.7l-64-64c-6.2-6.2-6.2-16.4,0-22.6l64-64c6.2-6.2,16.4-6.2,22.6,0c6.2,6.2,6.2,16.4,0,22.6
		L246.6,96l52.7,52.7c6.2,6.2,6.2,16.4,0,22.6C296.2,174.4,292.1,176,288,176z"/>
</g>
<g>
	<path d="M128,160c-35.3,0-64-28.7-64-64s28.7-64,64-64s64,28.7,64,64S163.3,160,128,160z M128,64c-17.6,0-32,14.4-32,32
		s14.4,32,32,32s32-14.4,32-32S145.6,64,128,64z"/>
</g>
<g>
	<path d="M384,480c-35.3,0-64-28.7-64-64s28.7-64,64-64s64,28.7,64,64S419.3,480,384,480z M384,384c-17.6,0-32,14.4-32,32
		s14.4,32,32,32s32-14.4,32-32S401.6,384,384,384z"/>
</g>
<g>
	<path d="M384,384c-8.8,0-16-7.2-16-16V156c0-24.3-19.7-44-44-44h-84c-8.8,0-16-7.2-16-16s7.2-16,16-16h84c41.9,0,76,34.1,76,76v212
		C400,376.8,392.8,384,384,384z"/>
</g>
</svg>
