<?xml version="1.0" encoding="UTF-8" standalone="no"?>
<svg
   xmlns:dc="http://purl.org/dc/elements/1.1/"
   xmlns:cc="http://creativecommons.org/ns#"
   xmlns:rdf="http://www.w3.org/1999/02/22-rdf-syntax-ns#"
   xmlns:svg="http://www.w3.org/2000/svg"
   xmlns="http://www.w3.org/2000/svg"
   xmlns:sodipodi="http://sodipodi.sourceforge.net/DTD/sodipodi-0.dtd"
   xmlns:inkscape="http://www.inkscape.org/namespaces/inkscape"
   class="ionicon"
   viewBox="0 0 512 512"
   version="1.1"
   id="svg6"
   sodipodi:docname="git-merge-sharp.svg"
   inkscape:version="1.0.2 (e86c8708, 2021-01-15)">
  <metadata
     id="metadata12">
    <rdf:RDF>
      <cc:Work
         rdf:about="">
        <dc:format>image/svg+xml</dc:format>
        <dc:type
           rdf:resource="http://purl.org/dc/dcmitype/StillImage" />
      </cc:Work>
    </rdf:RDF>
  </metadata>
  <defs
     id="defs10" />
  <sodipodi:namedview
     pagecolor="#ffffff"
     bordercolor="#666666"
     borderopacity="1"
     objecttolerance="10"
     gridtolerance="10"
     guidetolerance="10"
     inkscape:pageopacity="0"
     inkscape:pageshadow="2"
     inkscape:window-width="689"
     inkscape:window-height="480"
     id="namedview8"
     showgrid="false"
     inkscape:zoom="1.3027344"
     inkscape:cx="256"
     inkscape:cy="256"
     inkscape:window-x="44"
     inkscape:window-y="25"
     inkscape:window-maximized="0"
     inkscape:current-layer="svg6" />
  <title
     id="title2">Git Merge</title>
  <path
     style="color:#000000;font-style:normal;font-variant:normal;font-weight:normal;font-stretch:normal;font-size:medium;line-height:normal;font-family:sans-serif;font-variant-ligatures:normal;font-variant-position:normal;font-variant-caps:normal;font-variant-numeric:normal;font-variant-alternates:normal;font-variant-east-asian:normal;font-feature-settings:normal;font-variation-settings:normal;text-indent:0;text-align:start;text-decoration:none;text-decoration-line:none;text-decoration-style:solid;text-decoration-color:#000000;letter-spacing:normal;word-spacing:normal;text-transform:none;writing-mode:lr-tb;direction:ltr;text-orientation:mixed;dominant-baseline:auto;baseline-shift:baseline;text-anchor:start;white-space:normal;shape-padding:0;shape-margin:0;inline-size:0;clip-rule:nonzero;display:inline;overflow:visible;visibility:visible;isolation:auto;mix-blend-mode:normal;color-interpolation:sRGB;color-interpolation-filters:linearRGB;solid-color:#000000;solid-opacity:1;vector-effect:none;fill:#000000;fill-opacity:1;fill-rule:nonzero;stroke-width:1;stroke-linecap:butt;stroke-linejoin:miter;stroke-miterlimit:4;stroke-dasharray:none;stroke-dashoffset:0;stroke-opacity:1;color-rendering:auto;image-rendering:auto;shape-rendering:auto;text-rendering:auto;enable-background:accumulate;stop-color:#000000;stop-opacity:1;stroke:none;opacity:1"
     d="m 384,224 c -13.66367,-0.014 -26.96927,4.3686 -37.95,12.5 L 160,153.36 v -2 C 185.0859,136.87665 197.31649,107.34923 189.81905,79.371896 182.32167,51.39477 156.96623,31.94539 128,31.94539 99.033769,31.94539 73.678331,51.39477 66.180949,79.371896 58.683512,107.34923 70.914096,136.87665 96,151.36 v 209.25 c -25.085904,14.48335 -37.316488,44.01077 -29.819051,71.9881 7.497382,27.97713 32.85282,47.42651 61.819051,47.42651 28.96623,0 54.32167,-19.44938 61.81905,-47.42651 C 197.31649,404.62077 185.0859,375.09335 160,360.61 V 223.46 l 160.41,71.69 c 2.81931,25.07778 20.11215,46.15771 44.15466,53.82439 24.04248,7.66668 50.34514,0.4885 67.1618,-18.32743 16.81666,-18.81594 21.00746,-45.7565 10.69942,-68.79044 C 432.11782,238.82253 409.23576,223.99631 384,224 Z M 128,64 c 12.94278,0 24.61122,7.796593 29.56392,19.753946 4.9527,11.957329 2.21423,25.720434 -6.93765,34.872324 -9.15189,9.15188 -22.915,11.89035 -34.87232,6.93765 C 103.79659,120.61122 96,108.94278 96,96 96,78.326888 110.32689,64 128,64 Z m 0,384 c -12.94278,0 -24.61122,-7.79659 -29.563923,-19.75395 -4.952696,-11.95732 -2.214231,-25.72043 6.937653,-34.87232 9.15189,-9.15188 22.915,-11.89035 34.87232,-6.93765 C 152.20341,391.38878 160,403.05722 160,416 c 0,17.67311 -14.32689,32 -32,32 z M 384,320 c -12.94278,0 -24.61122,-7.79659 -29.56392,-19.75395 -4.9527,-11.95732 -2.21423,-25.72043 6.93765,-34.87232 9.15189,-9.15188 22.915,-11.89035 34.87232,-6.93765 C 408.20341,263.38878 416,275.05722 416,288 c 0,17.67311 -14.32689,32 -32,32 z"
     id="path4" />
</svg>
