<?xml version="1.0" encoding="utf-8"?>
<!-- Generator: Adobe Illustrator 24.0.0, SVG Export Plug-In . SVG Version: 6.00 Build 0)  -->
<svg version="1.1" id="Layer_1" xmlns="http://www.w3.org/2000/svg" xmlns:xlink="http://www.w3.org/1999/xlink" x="0px" y="0px"
	 viewBox="0 0 512 512" style="enable-background:new 0 0 512 512;" xml:space="preserve">
<title>ionicons-v5-d</title>
<g>
	<path d="M160,160c-35.3,0-64-28.7-64-64s28.7-64,64-64s64,28.7,64,64S195.3,160,160,160z M160,64c-17.6,0-32,14.4-32,32
		s14.4,32,32,32s32-14.4,32-32S177.6,64,160,64z"/>
</g>
<g>
	<path d="M160,480c-35.3,0-64-28.7-64-64s28.7-64,64-64s64,28.7,64,64S195.3,480,160,480z M160,384c-17.6,0-32,14.4-32,32
		s14.4,32,32,32s32-14.4,32-32S177.6,384,160,384z"/>
</g>
<g>
	<path d="M160,384c-8.8,0-16-7.2-16-16V144c0-8.8,7.2-16,16-16s16,7.2,16,16v224C176,376.8,168.8,384,160,384z"/>
</g>
<g>
	<path d="M352,224c-35.3,0-64-28.7-64-64s28.7-64,64-64s64,28.7,64,64S387.3,224,352,224z M352,128c-17.6,0-32,14.4-32,32
		s14.4,32,32,32s32-14.4,32-32S369.6,128,352,128z"/>
</g>
<g>
	<path d="M160,384c-8.8,0-16-7.2-16-16c0-30,12.1-52.5,35.9-66.9c19.4-11.7,44.1-16.8,68-21.8c54.6-11.3,88-20.8,88-71.3
		c0-8.8,7.2-16,16-16s16,7.2,16,16c0,35-13.2,61.2-39.2,77.9c-21.5,13.8-48.4,19.4-74.4,24.7C204.3,321,176,328.8,176,368
		C176,376.8,168.8,384,160,384z"/>
</g>
</svg>
