<?xml version="1.0" encoding="UTF-8" standalone="no"?>
<svg
   xmlns:dc="http://purl.org/dc/elements/1.1/"
   xmlns:cc="http://creativecommons.org/ns#"
   xmlns:rdf="http://www.w3.org/1999/02/22-rdf-syntax-ns#"
   xmlns:svg="http://www.w3.org/2000/svg"
   xmlns="http://www.w3.org/2000/svg"
   xmlns:sodipodi="http://sodipodi.sourceforge.net/DTD/sodipodi-0.dtd"
   xmlns:inkscape="http://www.inkscape.org/namespaces/inkscape"
   class="ionicon"
   viewBox="0 0 512 512"
   version="1.1"
   id="svg6"
   sodipodi:docname="git-compare.svg"
   inkscape:version="1.0.2 (e86c8708, 2021-01-15)">
  <metadata
     id="metadata12">
    <rdf:RDF>
      <cc:Work
         rdf:about="">
        <dc:format>image/svg+xml</dc:format>
        <dc:type
           rdf:resource="http://purl.org/dc/dcmitype/StillImage" />
      </cc:Work>
    </rdf:RDF>
  </metadata>
  <defs
     id="defs10" />
  <sodipodi:namedview
     pagecolor="#ffffff"
     bordercolor="#666666"
     borderopacity="1"
     objecttolerance="10"
     gridtolerance="10"
     guidetolerance="10"
     inkscape:pageopacity="0"
     inkscape:pageshadow="2"
     inkscape:window-width="689"
     inkscape:window-height="480"
     id="namedview8"
     showgrid="false"
     inkscape:zoom="1.3027344"
     inkscape:cx="256"
     inkscape:cy="256"
     inkscape:window-x="44"
     inkscape:window-y="25"
     inkscape:window-maximized="0"
     inkscape:current-layer="svg6" />
  <title
     id="title2">Git Compare</title>
  <path
     style="color:#000000;font-style:normal;font-variant:normal;font-weight:normal;font-stretch:normal;font-size:medium;line-height:normal;font-family:sans-serif;font-variant-ligatures:normal;font-variant-position:normal;font-variant-caps:normal;font-variant-numeric:normal;font-variant-alternates:normal;font-variant-east-asian:normal;font-feature-settings:normal;font-variation-settings:normal;text-indent:0;text-align:start;text-decoration:none;text-decoration-line:none;text-decoration-style:solid;text-decoration-color:#000000;letter-spacing:normal;word-spacing:normal;text-transform:none;writing-mode:lr-tb;direction:ltr;text-orientation:mixed;dominant-baseline:auto;baseline-shift:baseline;text-anchor:start;white-space:normal;shape-padding:0;shape-margin:0;inline-size:0;clip-rule:nonzero;display:inline;overflow:visible;visibility:visible;isolation:auto;mix-blend-mode:normal;color-interpolation:sRGB;color-interpolation-filters:linearRGB;solid-color:#000000;solid-opacity:1;vector-effect:none;fill:#000000;fill-opacity:1;fill-rule:nonzero;stroke-width:1;stroke-linecap:butt;stroke-linejoin:miter;stroke-miterlimit:4;stroke-dasharray:none;stroke-dashoffset:0;stroke-opacity:1;color-rendering:auto;image-rendering:auto;shape-rendering:auto;text-rendering:auto;enable-background:accumulate;stop-color:#000000;stop-opacity:1;stroke:none;opacity:1"
     d="M 218.31,340.69 C 208.23158,330.61818 191.0066,337.75163 191,352 v 32 h -20 c -15.46397,0 -28,-12.53603 -28,-28 V 152 C 168.34194,137.97178 181.10294,108.67127 174.11268,80.564093 167.12247,52.457118 142.12433,32.552936 113.16398,32.02803 84.203633,31.503123 58.500615,50.488347 50.496454,78.323549 42.492235,106.15895 54.183066,135.90265 79,150.84 V 356 c 0.05511,50.78735 41.21265,91.94489 92,92 h 20 v 32 c 0.007,14.24837 17.23158,21.38182 27.31,11.31 l 64,-64 c 6.24345,-6.24754 6.24345,-16.37246 0,-22.62 z M 112,64 c 12.94278,0 24.61122,7.796593 29.56392,19.753946 4.9527,11.957329 2.21423,25.720434 -6.93765,34.872324 -9.15189,9.15188 -22.915,11.89035 -34.872324,6.93765 C 87.796593,120.61122 80,108.94278 80,96 80,78.326888 94.326888,64 112,64 Z M 432,360.61 V 156 C 431.94489,105.21265 390.78735,64.055114 340,64 H 320 V 32 C 319.9934,17.751625 302.76842,10.618178 292.69,20.69 l -64,64 c -6.24345,6.247539 -6.24345,16.37246 0,22.62 l 64,64 c 10.07842,10.07182 27.3034,2.93837 27.31,-11.31 v -32 h 20 c 15.46397,0 28,12.53603 28,28 v 204.61 c -25.0859,14.48335 -37.31649,44.01077 -29.81905,71.9881 7.49738,27.97713 32.85282,47.42651 61.81905,47.42651 28.96623,0 54.32167,-19.44938 61.81905,-47.42651 C 469.31649,404.62077 457.0859,375.09335 432,360.61 Z M 400,448 c -12.94278,0 -24.61122,-7.79659 -29.56392,-19.75395 -4.9527,-11.95732 -2.21423,-25.72043 6.93765,-34.87232 9.15189,-9.15188 22.915,-11.89035 34.87232,-6.93765 C 424.20341,391.38878 432,403.05722 432,416 c 0,17.67311 -14.32689,32 -32,32 z"
     id="path4" />
</svg>
