<?xml version="1.0" encoding="UTF-8" standalone="no"?>
<svg
   xmlns:dc="http://purl.org/dc/elements/1.1/"
   xmlns:cc="http://creativecommons.org/ns#"
   xmlns:rdf="http://www.w3.org/1999/02/22-rdf-syntax-ns#"
   xmlns:svg="http://www.w3.org/2000/svg"
   xmlns="http://www.w3.org/2000/svg"
   xmlns:sodipodi="http://sodipodi.sourceforge.net/DTD/sodipodi-0.dtd"
   xmlns:inkscape="http://www.inkscape.org/namespaces/inkscape"
   class="ionicon"
   viewBox="0 0 512 512"
   version="1.1"
   id="svg6"
   sodipodi:docname="git-compare-sharp.svg"
   inkscape:version="1.0.2 (e86c8708, 2021-01-15)">
  <metadata
     id="metadata12">
    <rdf:RDF>
      <cc:Work
         rdf:about="">
        <dc:format>image/svg+xml</dc:format>
        <dc:type
           rdf:resource="http://purl.org/dc/dcmitype/StillImage" />
      </cc:Work>
    </rdf:RDF>
  </metadata>
  <defs
     id="defs10" />
  <sodipodi:namedview
     pagecolor="#ffffff"
     bordercolor="#666666"
     borderopacity="1"
     objecttolerance="10"
     gridtolerance="10"
     guidetolerance="10"
     inkscape:pageopacity="0"
     inkscape:pageshadow="2"
     inkscape:window-width="689"
     inkscape:window-height="480"
     id="namedview8"
     showgrid="false"
     inkscape:zoom="1.3027344"
     inkscape:cx="256"
     inkscape:cy="256"
     inkscape:window-x="44"
     inkscape:window-y="25"
     inkscape:window-maximized="0"
     inkscape:current-layer="svg6" />
  <title
     id="title2">Git Compare</title>
  <path
     style="color:#000000;font-style:normal;font-variant:normal;font-weight:normal;font-stretch:normal;font-size:medium;line-height:normal;font-family:sans-serif;font-variant-ligatures:normal;font-variant-position:normal;font-variant-caps:normal;font-variant-numeric:normal;font-variant-alternates:normal;font-variant-east-asian:normal;font-feature-settings:normal;font-variation-settings:normal;text-indent:0;text-align:start;text-decoration:none;text-decoration-line:none;text-decoration-style:solid;text-decoration-color:#000000;letter-spacing:normal;word-spacing:normal;text-transform:none;writing-mode:lr-tb;direction:ltr;text-orientation:mixed;dominant-baseline:auto;baseline-shift:baseline;text-anchor:start;white-space:normal;shape-padding:0;shape-margin:0;inline-size:0;clip-rule:nonzero;display:inline;overflow:visible;visibility:visible;isolation:auto;mix-blend-mode:normal;color-interpolation:sRGB;color-interpolation-filters:linearRGB;solid-color:#000000;solid-opacity:1;vector-effect:none;fill:#000000;fill-opacity:1;fill-rule:nonzero;stroke-width:1;stroke-linecap:butt;stroke-linejoin:miter;stroke-miterlimit:4;stroke-dasharray:none;stroke-dashoffset:0;stroke-opacity:1;color-rendering:auto;image-rendering:auto;shape-rendering:auto;text-rendering:auto;enable-background:accumulate;stop-color:#000000;stop-opacity:1;stroke:none;opacity:1"
     d="m 209,384 h -37 c -15.46397,0 -28,-12.53603 -28,-28 V 152 C 169.34194,137.97178 182.10294,108.67127 175.11268,80.564093 168.12247,52.457118 143.12433,32.552936 114.16398,32.02803 85.203633,31.503123 59.500615,50.488347 51.496454,78.323549 43.492235,106.15895 55.183066,135.90265 80,150.84 V 356 c 0.05511,50.78735 41.21265,91.94489 92,92 h 37 v 55.21 L 294.39,416 209,328.79 Z M 113,64 c 12.94278,0 24.61122,7.796593 29.56392,19.753946 4.9527,11.957329 2.21423,25.720434 -6.93765,34.872324 -9.15189,9.15188 -22.915,11.89035 -34.87232,6.93765 C 88.796593,120.61122 81,108.94278 81,96 81,78.326888 95.326888,64 113,64 Z M 432,360.61 V 156 C 431.94489,105.21265 390.78735,64.055114 340,64 H 305 V 9.93 L 217.14,96 305,182.07 V 128 h 35 c 15.46397,0 28,12.53603 28,28 v 204.61 c -25.0859,14.48335 -37.31649,44.01077 -29.81905,71.9881 7.49738,27.97713 32.85282,47.42651 61.81905,47.42651 28.96623,0 54.32167,-19.44938 61.81905,-47.42651 C 469.31649,404.62077 457.0859,375.09335 432,360.61 Z M 400,448 c -12.94278,0 -24.61122,-7.79659 -29.56392,-19.75395 -4.9527,-11.95732 -2.21423,-25.72043 6.93765,-34.87232 9.15189,-9.15188 22.915,-11.89035 34.87232,-6.93765 C 424.20341,391.38878 432,403.05722 432,416 c 0,17.67311 -14.32689,32 -32,32 z"
     id="path4" />
</svg>
