<?xml version="1.0" encoding="UTF-8" standalone="no"?>
<svg
   xmlns:dc="http://purl.org/dc/elements/1.1/"
   xmlns:cc="http://creativecommons.org/ns#"
   xmlns:rdf="http://www.w3.org/1999/02/22-rdf-syntax-ns#"
   xmlns:svg="http://www.w3.org/2000/svg"
   xmlns="http://www.w3.org/2000/svg"
   xmlns:sodipodi="http://sodipodi.sourceforge.net/DTD/sodipodi-0.dtd"
   xmlns:inkscape="http://www.inkscape.org/namespaces/inkscape"
   class="ionicon"
   viewBox="0 0 512 512"
   version="1.1"
   id="svg6"
   sodipodi:docname="git-merge.svg"
   inkscape:version="1.0.2 (e86c8708, 2021-01-15)">
  <metadata
     id="metadata12">
    <rdf:RDF>
      <cc:Work
         rdf:about="">
        <dc:format>image/svg+xml</dc:format>
        <dc:type
           rdf:resource="http://purl.org/dc/dcmitype/StillImage" />
      </cc:Work>
    </rdf:RDF>
  </metadata>
  <defs
     id="defs10" />
  <sodipodi:namedview
     pagecolor="#ffffff"
     bordercolor="#666666"
     borderopacity="1"
     objecttolerance="10"
     gridtolerance="10"
     guidetolerance="10"
     inkscape:pageopacity="0"
     inkscape:pageshadow="2"
     inkscape:window-width="689"
     inkscape:window-height="480"
     id="namedview8"
     showgrid="false"
     inkscape:zoom="1.3027344"
     inkscape:cx="256"
     inkscape:cy="256"
     inkscape:window-x="44"
     inkscape:window-y="25"
     inkscape:window-maximized="0"
     inkscape:current-layer="svg6" />
  <title
     id="title2">Git Merge</title>
  <path
     style="color:#000000;font-style:normal;font-variant:normal;font-weight:normal;font-stretch:normal;font-size:medium;line-height:normal;font-family:sans-serif;font-variant-ligatures:normal;font-variant-position:normal;font-variant-caps:normal;font-variant-numeric:normal;font-variant-alternates:normal;font-variant-east-asian:normal;font-feature-settings:normal;font-variation-settings:normal;text-indent:0;text-align:start;text-decoration:none;text-decoration-line:none;text-decoration-style:solid;text-decoration-color:#000000;letter-spacing:normal;word-spacing:normal;text-transform:none;writing-mode:lr-tb;direction:ltr;text-orientation:mixed;dominant-baseline:auto;baseline-shift:baseline;text-anchor:start;white-space:normal;shape-padding:0;shape-margin:0;inline-size:0;clip-rule:nonzero;display:inline;overflow:visible;visibility:visible;isolation:auto;mix-blend-mode:normal;color-interpolation:sRGB;color-interpolation-filters:linearRGB;solid-color:#000000;solid-opacity:1;vector-effect:none;fill:#000000;fill-opacity:1;fill-rule:nonzero;stroke-width:1;stroke-linecap:butt;stroke-linejoin:miter;stroke-miterlimit:4;stroke-dasharray:none;stroke-dashoffset:0;stroke-opacity:1;color-rendering:auto;image-rendering:auto;shape-rendering:auto;text-rendering:auto;enable-background:accumulate;stop-color:#000000;stop-opacity:1;stroke:none;opacity:1"
     d="m 385,224 c -22.80818,0.0114 -43.88671,12.16022 -55.33,31.89 -42.23,-1.21 -85.19,-12.72 -116.21,-31.33 -32.2,-19.32 -49.71,-44 -52.15,-73.35 24.97564,-14.60679 37.04517,-44.15404 29.43907,-72.06752 C 183.14302,51.229198 157.75383,31.894593 128.82102,31.975574 99.88821,32.056555 74.607642,51.532983 67.157968,79.488405 59.70824,107.44403 71.94298,136.92325 97,151.39 v 209.22 c -25.085904,14.48335 -37.316488,44.01077 -29.819051,71.9881 7.497382,27.97713 32.852821,47.42651 61.819051,47.42651 28.96623,0 54.32167,-19.44938 61.81905,-47.42651 C 198.31649,404.62077 186.0859,375.09335 161,360.61 v -94.46 c 44.76,34 107.28,52.38 168.56,53.76 11.40664,19.83113 32.53138,32.06548 55.40884,32.08987 22.87744,0.0244 44.02788,-12.16492 55.47695,-31.97156 11.44907,-19.80664 11.45541,-44.21811 0.0161,-64.03024 C 429.0226,236.18593 407.87761,223.9866 385,224 Z M 129,64 c 12.94278,0 24.61122,7.796593 29.56392,19.753946 4.9527,11.957329 2.21423,25.720434 -6.93765,34.872324 -9.15189,9.15188 -22.915,11.89035 -34.87232,6.93765 C 104.79659,120.61122 97,108.94278 97,96 97,78.326888 111.32689,64 129,64 Z m 0,384 c -12.94278,0 -24.61122,-7.79659 -29.563923,-19.75395 -4.952696,-11.95732 -2.214231,-25.72043 6.937653,-34.87232 9.15189,-9.15188 22.915,-11.89035 34.87232,-6.93765 C 153.20341,391.38878 161,403.05722 161,416 c 0,17.67311 -14.32689,32 -32,32 z M 385,320 c -12.94278,0 -24.61122,-7.79659 -29.56392,-19.75395 -4.9527,-11.95732 -2.21423,-25.72043 6.93765,-34.87232 9.15189,-9.15188 22.915,-11.89035 34.87232,-6.93765 C 409.20341,263.38878 417,275.05722 417,288 c 0,17.67311 -14.32689,32 -32,32 z"
     id="path4" />
</svg>
