<?xml version="1.0" encoding="UTF-8" standalone="no"?>
<svg
   xmlns:dc="http://purl.org/dc/elements/1.1/"
   xmlns:cc="http://creativecommons.org/ns#"
   xmlns:rdf="http://www.w3.org/1999/02/22-rdf-syntax-ns#"
   xmlns:svg="http://www.w3.org/2000/svg"
   xmlns="http://www.w3.org/2000/svg"
   xmlns:sodipodi="http://sodipodi.sourceforge.net/DTD/sodipodi-0.dtd"
   xmlns:inkscape="http://www.inkscape.org/namespaces/inkscape"
   class="ionicon"
   viewBox="0 0 512 512"
   version="1.1"
   id="svg6"
   sodipodi:docname="git-pull-request-sharp.svg"
   inkscape:version="1.0.2 (e86c8708, 2021-01-15)">
  <metadata
     id="metadata12">
    <rdf:RDF>
      <cc:Work
         rdf:about="">
        <dc:format>image/svg+xml</dc:format>
        <dc:type
           rdf:resource="http://purl.org/dc/dcmitype/StillImage" />
      </cc:Work>
    </rdf:RDF>
  </metadata>
  <defs
     id="defs10" />
  <sodipodi:namedview
     pagecolor="#ffffff"
     bordercolor="#666666"
     borderopacity="1"
     objecttolerance="10"
     gridtolerance="10"
     guidetolerance="10"
     inkscape:pageopacity="0"
     inkscape:pageshadow="2"
     inkscape:window-width="689"
     inkscape:window-height="480"
     id="namedview8"
     showgrid="false"
     inkscape:zoom="1.3027344"
     inkscape:cx="256"
     inkscape:cy="256"
     inkscape:window-x="44"
     inkscape:window-y="25"
     inkscape:window-maximized="0"
     inkscape:current-layer="svg6" />
  <title
     id="title2">Git Pull Request</title>
  <path
     style="color:#000000;font-style:normal;font-variant:normal;font-weight:normal;font-stretch:normal;font-size:medium;line-height:normal;font-family:sans-serif;font-variant-ligatures:normal;font-variant-position:normal;font-variant-caps:normal;font-variant-numeric:normal;font-variant-alternates:normal;font-variant-east-asian:normal;font-feature-settings:normal;font-variation-settings:normal;text-indent:0;text-align:start;text-decoration:none;text-decoration-line:none;text-decoration-style:solid;text-decoration-color:#000000;letter-spacing:normal;word-spacing:normal;text-transform:none;writing-mode:lr-tb;direction:ltr;text-orientation:mixed;dominant-baseline:auto;baseline-shift:baseline;text-anchor:start;white-space:normal;shape-padding:0;shape-margin:0;inline-size:0;clip-rule:nonzero;display:inline;overflow:visible;visibility:visible;isolation:auto;mix-blend-mode:normal;color-interpolation:sRGB;color-interpolation-filters:linearRGB;solid-color:#000000;solid-opacity:1;vector-effect:none;fill:#000000;fill-opacity:1;fill-rule:nonzero;stroke-width:1;stroke-linecap:butt;stroke-linejoin:miter;stroke-miterlimit:4;stroke-dasharray:none;stroke-dashoffset:0;stroke-opacity:1;color-rendering:auto;image-rendering:auto;shape-rendering:auto;text-rendering:auto;enable-background:accumulate;stop-color:#000000;stop-opacity:1;stroke:none;opacity:1"
     d="M 192,96 C 192.02,46.983847 139.18937,16.141778 96.51573,40.254586 76.697136,51.453113 64.31818,72.335477 64.006094,95.096861 63.694008,117.85825 75.495763,139.07248 95,150.81 v 209.8 c -25.085904,14.48335 -37.316488,44.01077 -29.819051,71.9881 7.497382,27.97713 32.85282,47.42651 61.819051,47.42651 28.96623,0 54.32167,-19.44938 61.81905,-47.42651 C 196.31649,404.62077 184.0859,375.09335 159,360.61 V 152 c 20.35669,-11.28537 32.9904,-32.72438 33,-56 z M 128,64 c 12.94278,0 24.61122,7.796593 29.56392,19.753946 4.9527,11.957329 2.21423,25.720434 -6.93765,34.872324 -9.15189,9.15188 -22.915,11.89035 -34.87232,6.93765 C 103.79659,120.61122 96,108.94278 96,96 96,78.326888 110.32689,64 128,64 Z m -1,384 c -12.94278,0 -24.61122,-7.79659 -29.563923,-19.75395 -4.952696,-11.95732 -2.214231,-25.72043 6.937653,-34.87232 9.15189,-9.15188 22.915,-11.89035 34.87232,-6.93765 C 151.20341,391.38878 159,403.05722 159,416 c 0,17.67311 -14.32689,32 -32,32 z M 416,360.61 V 156 C 415.94489,105.21265 374.78735,64.055114 324,64 H 289 V 9.93 L 201.14,96 289,182.07 V 128 h 35 c 15.46397,0 28,12.53603 28,28 v 204.61 c -25.0859,14.48335 -37.31649,44.01077 -29.81905,71.9881 7.49738,27.97713 32.85282,47.42651 61.81905,47.42651 28.96623,0 54.32167,-19.44938 61.81905,-47.42651 C 453.31649,404.62077 441.0859,375.09335 416,360.61 Z M 384,448 c -12.94278,0 -24.61122,-7.79659 -29.56392,-19.75395 -4.9527,-11.95732 -2.21423,-25.72043 6.93765,-34.87232 9.15189,-9.15188 22.915,-11.89035 34.87232,-6.93765 C 408.20341,391.38878 416,403.05722 416,416 c 0,17.67311 -14.32689,32 -32,32 z"
     id="path4" />
</svg>
