<?xml version="1.0" encoding="UTF-8" standalone="no"?>
<svg
   xmlns:dc="http://purl.org/dc/elements/1.1/"
   xmlns:cc="http://creativecommons.org/ns#"
   xmlns:rdf="http://www.w3.org/1999/02/22-rdf-syntax-ns#"
   xmlns:svg="http://www.w3.org/2000/svg"
   xmlns="http://www.w3.org/2000/svg"
   xmlns:sodipodi="http://sodipodi.sourceforge.net/DTD/sodipodi-0.dtd"
   xmlns:inkscape="http://www.inkscape.org/namespaces/inkscape"
   class="ionicon"
   viewBox="0 0 512 512"
   version="1.1"
   id="svg6"
   sodipodi:docname="git-network-sharp.svg"
   inkscape:version="1.0.2 (e86c8708, 2021-01-15)">
  <metadata
     id="metadata12">
    <rdf:RDF>
      <cc:Work
         rdf:about="">
        <dc:format>image/svg+xml</dc:format>
        <dc:type
           rdf:resource="http://purl.org/dc/dcmitype/StillImage" />
      </cc:Work>
    </rdf:RDF>
  </metadata>
  <defs
     id="defs10" />
  <sodipodi:namedview
     pagecolor="#ffffff"
     bordercolor="#666666"
     borderopacity="1"
     objecttolerance="10"
     gridtolerance="10"
     guidetolerance="10"
     inkscape:pageopacity="0"
     inkscape:pageshadow="2"
     inkscape:window-width="689"
     inkscape:window-height="480"
     id="namedview8"
     showgrid="false"
     inkscape:zoom="1.3027344"
     inkscape:cx="256"
     inkscape:cy="256"
     inkscape:window-x="44"
     inkscape:window-y="25"
     inkscape:window-maximized="0"
     inkscape:current-layer="svg6" />
  <title
     id="title2">Git Network</title>
  <path
     style="color:#000000;font-style:normal;font-variant:normal;font-weight:normal;font-stretch:normal;font-size:medium;line-height:normal;font-family:sans-serif;font-variant-ligatures:normal;font-variant-position:normal;font-variant-caps:normal;font-variant-numeric:normal;font-variant-alternates:normal;font-variant-east-asian:normal;font-feature-settings:normal;font-variation-settings:normal;text-indent:0;text-align:start;text-decoration:none;text-decoration-line:none;text-decoration-style:solid;text-decoration-color:#000000;letter-spacing:normal;word-spacing:normal;text-transform:none;writing-mode:lr-tb;direction:ltr;text-orientation:mixed;dominant-baseline:auto;baseline-shift:baseline;text-anchor:start;white-space:normal;shape-padding:0;shape-margin:0;inline-size:0;clip-rule:nonzero;display:inline;overflow:visible;visibility:visible;isolation:auto;mix-blend-mode:normal;color-interpolation:sRGB;color-interpolation-filters:linearRGB;solid-color:#000000;solid-opacity:1;vector-effect:none;fill:#000000;fill-opacity:1;fill-rule:nonzero;stroke-width:1;stroke-linecap:butt;stroke-linejoin:miter;stroke-miterlimit:4;stroke-dasharray:none;stroke-dashoffset:0;stroke-opacity:1;color-rendering:auto;image-rendering:auto;shape-rendering:auto;text-rendering:auto;enable-background:accumulate;stop-color:#000000;stop-opacity:1;stroke:none;opacity:1"
     d="m 384,32 c -47.13885,0.0078 -78.09438,49.245696 -57.67,91.73 l -70.83,80.82 -70.19,-80.1 C 198.02117,98.836051 192.19873,67.897423 171.04708,48.658219 149.89556,29.419136 118.54872,26.549104 94.249859,41.621944 69.950999,56.694784 58.595866,86.053305 66.435124,113.55012 74.274431,141.04712 99.405453,160.00842 128,160 c 1.1,0 2.2,0 3.29,-0.08 L 224,265.7 v 94.91 c -25.0859,14.48335 -37.31649,44.01077 -29.81905,71.9881 7.49738,27.97713 32.85282,47.42651 61.81905,47.42651 28.96623,0 54.32167,-19.44938 61.81905,-47.42651 C 325.31649,404.62077 313.0859,375.09335 288,360.61 v -96.05 l 91.78,-104.71 c 1.39,0.09 2.8,0.15 4.22,0.15 35.34625,0 63.99997,-28.65378 63.99997,-64 0,-35.346223 -28.65372,-64 -63.99997,-64 z M 96,96 c 0,-12.942778 7.79659,-24.611217 19.75395,-29.563923 11.95732,-4.952696 25.72043,-2.214231 34.87232,6.937655 9.15188,9.151887 11.89035,22.914993 6.93765,34.872318 C 152.61122,120.20341 140.94278,128 128,128 110.32689,128 96,113.67311 96,96 Z m 160,352 c -12.94278,0 -24.61122,-7.79659 -29.56392,-19.75395 -4.9527,-11.95732 -2.21423,-25.72043 6.93765,-34.87232 9.15189,-9.15188 22.915,-11.89035 34.87232,-6.93765 C 280.20341,391.38878 288,403.05722 288,416 c 0,17.67311 -14.32689,32 -32,32 z M 384,128 c -12.94278,0 -24.61122,-7.79659 -29.56392,-19.75395 -4.9527,-11.957325 -2.21423,-25.720431 6.93765,-34.872318 9.15189,-9.151886 22.915,-11.890351 34.87232,-6.937655 C 408.20341,71.388783 416,83.057222 416,96 c 0,17.67311 -14.32689,32 -32,32 z"
     id="path4" />
</svg>
