<?xml version="1.0" encoding="UTF-8" standalone="no"?>
<svg
   xmlns:dc="http://purl.org/dc/elements/1.1/"
   xmlns:cc="http://creativecommons.org/ns#"
   xmlns:rdf="http://www.w3.org/1999/02/22-rdf-syntax-ns#"
   xmlns:svg="http://www.w3.org/2000/svg"
   xmlns="http://www.w3.org/2000/svg"
   xmlns:sodipodi="http://sodipodi.sourceforge.net/DTD/sodipodi-0.dtd"
   xmlns:inkscape="http://www.inkscape.org/namespaces/inkscape"
   class="ionicon"
   viewBox="0 0 512 512"
   version="1.1"
   id="svg6"
   sodipodi:docname="git-pull-request.svg"
   inkscape:version="1.0.2 (e86c8708, 2021-01-15)">
  <metadata
     id="metadata12">
    <rdf:RDF>
      <cc:Work
         rdf:about="">
        <dc:format>image/svg+xml</dc:format>
        <dc:type
           rdf:resource="http://purl.org/dc/dcmitype/StillImage" />
      </cc:Work>
    </rdf:RDF>
  </metadata>
  <defs
     id="defs10" />
  <sodipodi:namedview
     pagecolor="#ffffff"
     bordercolor="#666666"
     borderopacity="1"
     objecttolerance="10"
     gridtolerance="10"
     guidetolerance="10"
     inkscape:pageopacity="0"
     inkscape:pageshadow="2"
     inkscape:window-width="689"
     inkscape:window-height="480"
     id="namedview8"
     showgrid="false"
     inkscape:zoom="1.3027344"
     inkscape:cx="256"
     inkscape:cy="256"
     inkscape:window-x="44"
     inkscape:window-y="25"
     inkscape:window-maximized="0"
     inkscape:current-layer="svg6" />
  <title
     id="title2">Git Pull Request</title>
  <path
     style="color:#000000;font-style:normal;font-variant:normal;font-weight:normal;font-stretch:normal;font-size:medium;line-height:normal;font-family:sans-serif;font-variant-ligatures:normal;font-variant-position:normal;font-variant-caps:normal;font-variant-numeric:normal;font-variant-alternates:normal;font-variant-east-asian:normal;font-feature-settings:normal;font-variation-settings:normal;text-indent:0;text-align:start;text-decoration:none;text-decoration-line:none;text-decoration-style:solid;text-decoration-color:#000000;letter-spacing:normal;word-spacing:normal;text-transform:none;writing-mode:lr-tb;direction:ltr;text-orientation:mixed;dominant-baseline:auto;baseline-shift:baseline;text-anchor:start;white-space:normal;shape-padding:0;shape-margin:0;inline-size:0;clip-rule:nonzero;display:inline;overflow:visible;visibility:visible;isolation:auto;mix-blend-mode:normal;color-interpolation:sRGB;color-interpolation-filters:linearRGB;solid-color:#000000;solid-opacity:1;vector-effect:none;fill:#000000;fill-opacity:1;fill-rule:nonzero;stroke-width:1;stroke-linecap:butt;stroke-linejoin:miter;stroke-miterlimit:4;stroke-dasharray:none;stroke-dashoffset:0;stroke-opacity:1;color-rendering:auto;image-rendering:auto;shape-rendering:auto;text-rendering:auto;enable-background:accumulate;stop-color:#000000;stop-opacity:1;stroke:none;opacity:1"
     d="M 192,96 C 192.01273,73.131835 179.82278,51.994434 160.02321,40.55225 140.22365,29.110071 115.82343,29.102002 96.015852,40.530562 76.208273,51.959122 64.003389,73.087572 64.000094,95.955587 63.996798,118.82361 76.195587,139.95591 96,151.39 v 209.22 c -25.085904,14.48335 -37.316488,44.01077 -29.819051,71.9881 7.497382,27.97713 32.85282,47.42651 61.819051,47.42651 28.96623,0 54.32167,-19.44938 61.81905,-47.42651 C 197.31649,404.62077 185.0859,375.09335 160,360.61 V 151.39 C 179.79065,139.96387 191.98728,118.85227 192,96 Z M 128,64 c 12.94278,0 24.61122,7.796593 29.56392,19.753946 4.9527,11.957329 2.21423,25.720434 -6.93765,34.872324 -9.15189,9.15188 -22.915,11.89035 -34.87232,6.93765 C 103.79659,120.61122 96,108.94278 96,96 96,78.326888 110.32689,64 128,64 Z m 0,384 c -12.94278,0 -24.61122,-7.79659 -29.563923,-19.75395 -4.952696,-11.95732 -2.214231,-25.72043 6.937653,-34.87232 9.15189,-9.15188 22.915,-11.89035 34.87232,-6.93765 C 152.20341,391.38878 160,403.05722 160,416 c 0,17.67311 -14.32689,32 -32,32 z M 416,360.61 V 156 C 415.94489,105.21265 374.78735,64.055114 324,64 H 304 V 32 C 303.9934,17.751625 286.76842,10.618178 276.69,20.69 l -64,64 c -6.24345,6.247539 -6.24345,16.37246 0,22.62 l 64,64 c 10.07842,10.07182 27.3034,2.93837 27.31,-11.31 v -32 h 20 c 15.46397,0 28,12.53603 28,28 v 204.61 c -25.0859,14.48335 -37.31649,44.01077 -29.81905,71.9881 7.49738,27.97713 32.85282,47.42651 61.81905,47.42651 28.96623,0 54.32167,-19.44938 61.81905,-47.42651 C 453.31649,404.62077 441.0859,375.09335 416,360.61 Z M 384,448 c -12.94278,0 -24.61122,-7.79659 -29.56392,-19.75395 -4.9527,-11.95732 -2.21423,-25.72043 6.93765,-34.87232 9.15189,-9.15188 22.915,-11.89035 34.87232,-6.93765 C 408.20341,391.38878 416,403.05722 416,416 c 0,17.67311 -14.32689,32 -32,32 z"
     id="path4" />
</svg>
