<?xml version="1.0" encoding="utf-8"?>
<!-- Generator: Adobe Illustrator 24.0.0, SVG Export Plug-In . SVG Version: 6.00 Build 0)  -->
<svg version="1.1" id="Layer_1" xmlns="http://www.w3.org/2000/svg" xmlns:xlink="http://www.w3.org/1999/xlink" x="0px" y="0px"
	 viewBox="0 0 512 512" style="enable-background:new 0 0 512 512;" xml:space="preserve">
<title>ionicons-v5-d</title>
<g>
	<path d="M256,368c-61.8,0-112-50.2-112-112s50.2-112,112-112s112,50.2,112,112S317.8,368,256,368z M256,176c-44.1,0-80,35.9-80,80
		s35.9,80,80,80s80-35.9,80-80S300.1,176,256,176z"/>
</g>
<g>
	<path d="M160,272H48c-8.8,0-16-7.2-16-16c0-8.8,7.2-16,16-16h112c8.8,0,16,7.2,16,16C176,264.8,168.8,272,160,272z"/>
</g>
<g>
	<path d="M464,272H352c-8.8,0-16-7.2-16-16c0-8.8,7.2-16,16-16h112c8.8,0,16,7.2,16,16C480,264.8,472.8,272,464,272z"/>
</g>
</svg>
