<?xml version="1.0" encoding="utf-8"?>
<!-- Generator: Adobe Illustrator 24.0.0, SVG Export Plug-In . SVG Version: 6.00 Build 0)  -->
<svg version="1.1" id="Layer_1" xmlns="http://www.w3.org/2000/svg" xmlns:xlink="http://www.w3.org/1999/xlink" x="0px" y="0px"
	 viewBox="0 0 512 512" style="enable-background:new 0 0 512 512;" xml:space="preserve">
<title>ionicons-v5-d</title>
<g>
	<path d="M129,160c-35.3,0-64-28.7-64-64s28.7-64,64-64s64,28.7,64,64S164.3,160,129,160z M129,64c-17.6,0-32,14.4-32,32
		s14.4,32,32,32s32-14.4,32-32S146.6,64,129,64z"/>
</g>
<g>
	<path d="M129,480c-35.3,0-64-28.7-64-64s28.7-64,64-64s64,28.7,64,64S164.3,480,129,480z M129,384c-17.6,0-32,14.4-32,32
		s14.4,32,32,32s32-14.4,32-32S146.6,384,129,384z"/>
</g>
<g>
	<path d="M129,384c-8.8,0-16-7.2-16-16V144c0-8.8,7.2-16,16-16s16,7.2,16,16v224C145,376.8,137.8,384,129,384z"/>
</g>
<g>
	<path d="M385,352c-35.3,0-64-28.7-64-64c0-35.3,28.7-64,64-64s64,28.7,64,64C449,323.3,420.3,352,385,352z M385,256
		c-17.6,0-32,14.4-32,32s14.4,32,32,32s32-14.4,32-32S402.6,256,385,256z"/>
</g>
<g>
	<path d="M337,304c-108.6,0-224-56.1-224-160c0-8.8,7.2-16,16-16s16,7.2,16,16c0,48.1,32.8,77.8,60.2,94.3
		C240.9,259.7,289,272,337,272c8.8,0,16,7.2,16,16S345.8,304,337,304z"/>
</g>
</svg>
