<?xml version="1.0" encoding="utf-8"?>
<!-- Generator: Adobe Illustrator 24.0.0, SVG Export Plug-In . SVG Version: 6.00 Build 0)  -->
<svg version="1.1" id="Layer_1" xmlns="http://www.w3.org/2000/svg" xmlns:xlink="http://www.w3.org/1999/xlink" x="0px" y="0px"
	 viewBox="0 0 512 512" style="enable-background:new 0 0 512 512;" xml:space="preserve">
<title>ionicons-v5-d</title>
<g>
	<path d="M288,248c-8.8,0-16-7.2-16-16c0-8.8-7.2-16-16-16s-16,7.2-16,16c0,8.8-7.2,16-16,16s-16-7.2-16-16c0-26.5,21.5-48,48-48
		c26.5,0,48,21.5,48,48C304,240.8,296.8,248,288,248z"/>
</g>
<g>
	<path d="M464,216h-16c-8.8,0-16-7.2-16-16s7.2-16,16-16h16c8.8,0,16,7.2,16,16S472.8,216,464,216z"/>
</g>
<g>
	<path d="M64,216H48c-8.8,0-16-7.2-16-16s7.2-16,16-16h16c8.8,0,16,7.2,16,16S72.8,216,64,216z"/>
</g>
<g>
	<path d="M144,344c-18.6,0-33.6-2.5-45.8-7.8c-13.7-5.9-24.1-15-31.9-28C53.3,286.6,48,255.2,48,200c0-4.2,1.7-8.3,4.7-11.3
		c2-2,8.2-7.2,22.3-11.9c17.6-5.9,40.8-8.8,69.1-8.8s51.5,3,69.1,8.8c14.1,4.7,20.2,9.9,22.3,11.9c3,3,4.7,7.1,4.7,11.3
		c0,55.2-5.3,86.6-18.3,108.2C202.5,340.3,168.2,344,144,344z M80.1,209.1c0.5,42.2,4.8,67.9,13.7,82.7
		c10.7,17.8,30.5,20.2,50.3,20.2c33.5,0,44-9.7,50.3-20.2c8.9-14.8,13.1-40.5,13.7-82.7c-8.3-3.5-27.2-9.1-63.9-9.1
		S88.3,205.6,80.1,209.1z"/>
</g>
<g>
	<path d="M368,344c-18.6,0-33.6-2.5-45.8-7.8c-13.7-5.9-24.1-15-31.9-28c-13-21.6-18.3-53-18.3-108.2c0-4.2,1.7-8.3,4.7-11.3
		c2-2,8.2-7.2,22.3-11.9c17.6-5.9,40.8-8.8,69.1-8.8s51.5,3,69.1,8.8c14.1,4.7,20.2,9.9,22.3,11.9c3,3,4.7,7.1,4.7,11.3
		c0,55.2-5.3,86.6-18.3,108.2C426.5,340.3,392.2,344,368,344z M304.1,209.1c0.5,42.2,4.8,67.9,13.7,82.7
		c10.7,17.8,30.5,20.2,50.3,20.2c33.5,0,44-9.7,50.3-20.2c8.9-14.8,13.1-40.5,13.7-82.7c-8.3-3.5-27.2-9.1-63.9-9.1
		S312.3,205.6,304.1,209.1z M437.4,211.9L437.4,211.9L437.4,211.9z"/>
</g>
</svg>
