<?xml version="1.0" encoding="UTF-8" standalone="no"?>
<svg
   xmlns:dc="http://purl.org/dc/elements/1.1/"
   xmlns:cc="http://creativecommons.org/ns#"
   xmlns:rdf="http://www.w3.org/1999/02/22-rdf-syntax-ns#"
   xmlns:svg="http://www.w3.org/2000/svg"
   xmlns="http://www.w3.org/2000/svg"
   xmlns:sodipodi="http://sodipodi.sourceforge.net/DTD/sodipodi-0.dtd"
   xmlns:inkscape="http://www.inkscape.org/namespaces/inkscape"
   class="ionicon"
   viewBox="0 0 512 512"
   version="1.1"
   id="svg6"
   sodipodi:docname="glasses-outline.svg"
   inkscape:version="1.0.2 (e86c8708, 2021-01-15)">
  <metadata
     id="metadata12">
    <rdf:RDF>
      <cc:Work
         rdf:about="">
        <dc:format>image/svg+xml</dc:format>
        <dc:type
           rdf:resource="http://purl.org/dc/dcmitype/StillImage" />
      </cc:Work>
    </rdf:RDF>
  </metadata>
  <defs
     id="defs10" />
  <sodipodi:namedview
     pagecolor="#ffffff"
     bordercolor="#666666"
     borderopacity="1"
     objecttolerance="10"
     gridtolerance="10"
     guidetolerance="10"
     inkscape:pageopacity="0"
     inkscape:pageshadow="2"
     inkscape:window-width="689"
     inkscape:window-height="480"
     id="namedview8"
     showgrid="false"
     inkscape:zoom="1.3027344"
     inkscape:cx="256"
     inkscape:cy="256"
     inkscape:window-x="44"
     inkscape:window-y="25"
     inkscape:window-maximized="0"
     inkscape:current-layer="svg6" />
  <title
     id="title2">Glasses</title>
  <path
     style="color:#000000;font-style:normal;font-variant:normal;font-weight:normal;font-stretch:normal;font-size:medium;line-height:normal;font-family:sans-serif;font-variant-ligatures:normal;font-variant-position:normal;font-variant-caps:normal;font-variant-numeric:normal;font-variant-alternates:normal;font-variant-east-asian:normal;font-feature-settings:normal;font-variation-settings:normal;text-indent:0;text-align:start;text-decoration:none;text-decoration-line:none;text-decoration-style:solid;text-decoration-color:#000000;letter-spacing:normal;word-spacing:normal;text-transform:none;writing-mode:lr-tb;direction:ltr;text-orientation:mixed;dominant-baseline:auto;baseline-shift:baseline;text-anchor:start;white-space:normal;shape-padding:0;shape-margin:0;inline-size:0;clip-rule:nonzero;display:inline;overflow:visible;visibility:visible;isolation:auto;mix-blend-mode:normal;color-interpolation:sRGB;color-interpolation-filters:linearRGB;solid-color:#000000;solid-opacity:1;vector-effect:none;fill:currentColor;fill-opacity:1;fill-rule:nonzero;stroke:none;stroke-linecap:round;stroke-linejoin:round;stroke-miterlimit:4;stroke-dasharray:none;stroke-dashoffset:0;stroke-opacity:1;color-rendering:auto;image-rendering:auto;shape-rendering:auto;text-rendering:auto;enable-background:accumulate;stop-color:#000000;stop-opacity:1;opacity:1"
     d="M 144 168 C 110.66667 168 88.963311 172.14569 74.939453 176.82031 C 67.927524 179.15762 62.843648 181.63366 59.267578 183.7793 C 59.146257 183.85209 59.073038 183.92592 58.953125 184 L 48 184 A 16 16 0 0 0 32 200 A 16 16 0 0 0 48 216 L 48.347656 216 C 49.120165 256.16328 52.984758 286.07486 66.279297 308.23242 C 81.346095 333.34375 109.33333 344 144 344 C 178.66667 344 206.6539 333.34375 221.7207 308.23242 C 232.58047 290.1328 237.23276 267.18639 239.01172 237.53711 A 16 16 0 0 0 240 232 C 240 222.97391 246.97391 216 256 216 C 265.02609 216 272 222.97391 272 232 A 16 16 0 0 0 272.98828 237.53516 C 274.76715 267.1854 279.41928 290.1324 290.2793 308.23242 C 305.3461 333.34375 333.33333 344 368 344 C 402.66667 344 430.6539 333.34375 445.7207 308.23242 C 459.01524 286.07486 462.87983 256.16328 463.65234 216 L 464 216 A 16 16 0 0 0 480 200 A 16 16 0 0 0 464 184 L 453.04688 184 C 452.92696 183.92592 452.85374 183.85209 452.73242 183.7793 C 449.15635 181.63366 444.07248 179.15762 437.06055 176.82031 C 423.03669 172.14569 401.33333 168 368 168 C 334.66667 168 312.96331 172.14569 298.93945 176.82031 C 291.92752 179.15762 286.84365 181.63366 283.26758 183.7793 C 279.69151 185.92494 276.68555 188.68555 276.68555 188.68555 A 16.0016 16.0016 0 0 0 276.52734 188.84766 C 270.26798 185.83251 263.35638 184 256 184 C 248.64329 184 241.73224 185.83421 235.47266 188.84961 A 16.0016 16.0016 0 0 0 235.31445 188.68555 C 235.31445 188.68555 232.30849 185.92494 228.73242 183.7793 C 225.15635 181.63366 220.07248 179.15762 213.06055 176.82031 C 199.03669 172.14569 177.33333 168 144 168 z M 144 200 C 174.66667 200 192.96331 203.85431 202.93945 207.17969 C 204.93842 207.84601 206.37931 208.45343 207.75 209.04102 C 207.12667 250.57911 202.58386 277.92664 194.2793 291.76758 C 185.3461 306.65625 173.33333 312 144 312 C 114.66667 312 102.6539 306.65625 93.720703 291.76758 C 85.41614 277.92664 80.873333 250.57911 80.25 209.04102 C 81.620691 208.45343 83.06158 207.84601 85.060547 207.17969 C 95.036689 203.85431 113.33333 200 144 200 z M 368 200 C 398.66667 200 416.96331 203.85431 426.93945 207.17969 C 428.93842 207.84601 430.37931 208.45343 431.75 209.04102 C 431.12667 250.57911 426.58386 277.92664 418.2793 291.76758 C 409.3461 306.65625 397.33333 312 368 312 C 338.66667 312 326.6539 306.65625 317.7207 291.76758 C 309.41614 277.92664 304.87333 250.57911 304.25 209.04102 C 305.62069 208.45343 307.06158 207.84601 309.06055 207.17969 C 319.03669 203.85431 337.33333 200 368 200 z "
     id="path4" />
</svg>
