<?xml version="1.0" encoding="UTF-8"?>
<svg width="512px" height="512px" viewBox="0 0 512 512" version="1.1" xmlns="http://www.w3.org/2000/svg" xmlns:xlink="http://www.w3.org/1999/xlink">
    <!-- Generator: Sketch 62 (91390) - https://sketch.com -->
    <title>Artboard</title>
    <desc>Created with Sketch.</desc>
    <g id="Artboard" stroke="none" stroke-width="1" fill="none" fill-rule="evenodd">
        <g id="globe-outline" transform="translate(32.000000, 32.000000)" fill="#000000" fill-rule="nonzero">
            <path d="M224,0 C283.8,0 340.1,23.3 382.4,65.6 C424.7,107.9 448,164.2 448,224 C448,283.8 424.7,340.1 382.4,382.4 C340.1,424.7 283.8,448 224,448 C164.2,448 107.9,424.7 65.6,382.4 C23.3,340.1 0,283.8 0,224 C0,164.2 23.3,107.9 65.6,65.6 C107.9,23.3 164.2,0 224,0 Z M151.669405,346.859597 L151.623524,346.874601 C154.1649,352.55826 156.892456,358.04138 159.8,363.3 C169.2,380.2 180.3,394 191.8,403.1 C197.208551,407.40681 202.617103,410.635212 208.000535,412.785206 L208.000175,335.843312 C188.554638,337.162404 169.657715,340.872898 151.669405,346.859597 Z M240.000909,335.829904 L240.000466,412.784806 C245.383568,410.634811 250.791784,407.406542 256.2,403.1 C267.7,394 278.8,380.2 288.2,363.3 C291.12902,358.027765 293.873227,352.527919 296.427197,346.825426 C278.408207,340.838244 259.479065,337.134621 240.000909,335.829904 Z M122.193661,359.129346 L121.513285,359.471347 C114.484724,363.0544 107.651082,367.023301 101.038624,371.369644 C114.196687,382.368995 128.846161,391.639128 144.635086,398.831828 C136.276908,387.220093 128.728975,373.868858 122.193661,359.129346 Z M325.841209,359.042656 L325.05565,360.806466 C318.695228,374.882766 311.404924,387.662121 303.364537,398.832584 C319.188805,391.623199 333.868193,382.327926 347.049728,371.299356 C340.205598,366.803889 333.127105,362.716699 325.841209,359.042656 Z M95.6425616,240.002106 L32.6598447,240.000827 C36.0702205,281.180573 52.5225273,318.707073 77.8666888,348.430252 C88.3972797,341.084132 99.4270105,334.604143 110.878317,329.011173 C102.38699,301.981708 97.0057575,271.787183 95.6425616,240.002106 Z M415.340155,240.000827 L352.357438,240.002106 C350.995987,271.746507 345.626776,301.904424 337.153588,328.907803 C348.629606,334.501874 359.675836,340.986515 370.207158,348.33679 C395.51055,318.631593 411.933209,281.139161 415.340155,240.000827 Z M208,240 L127.666547,240.000341 C128.909619,267.045441 133.292573,293.091215 140.481326,316.844921 C162.013772,309.56537 184.669932,305.162618 208.000387,303.776219 L208,240 Z M320.335151,240.000774 L240,240 L240.000441,303.764303 C263.342606,305.133339 286.025166,309.519262 307.573999,316.780669 C314.749819,293.029147 319.100291,266.990692 320.335151,240.000774 Z M77.8308873,99.6199553 L76.3591808,101.359539 C51.8705024,130.793246 36.0018612,167.642293 32.6597617,208.000175 L95.6419571,207.998895 C97.0019967,176.234224 102.368797,146.058044 110.842469,119.04141 C99.3810422,113.44789 88.3489757,106.965794 77.8308873,99.6199553 Z M140.435011,131.188651 L140.085144,132.355618 C133.112066,155.802262 128.879901,181.440568 127.664803,208.000226 L208,208 L208.000612,144.229875 C184.660439,142.852321 161.980535,138.458112 140.435011,131.188651 Z M307.524372,131.199932 L306.726571,131.469891 C285.431689,138.571422 263.037663,142.870053 240.000387,144.229816 L240,208 L320.332335,208.000226 C319.088082,181.003518 314.707589,154.958735 307.524372,131.199932 Z M370.172384,99.6155869 L369.333726,100.200826 C359.067337,107.307952 348.315906,113.595777 337.157325,119.041068 C345.631203,146.058044 350.998003,176.234224 352.358043,207.998895 L415.340238,208.000175 C411.931799,166.841202 395.494587,129.331746 370.172384,99.6155869 Z M191.8,44.9 C180.3,54 169.2,67.8 159.8,84.7 C156.875784,89.9635882 154.135775,95.4540407 151.585371,101.146517 C169.600425,107.139691 188.52551,110.850716 208.000128,112.163447 L208.000535,35.2147938 C202.617103,37.3647884 197.208551,40.5931905 191.8,44.9 Z M240.000466,35.2151938 L240.000871,112.163379 C259.465421,110.851244 278.380999,107.143291 296.386655,101.155022 C293.842816,95.4591949 291.111657,89.9660588 288.2,84.7 C278.8,67.8 267.7,54 256.2,44.9 C250.791784,40.5934575 245.383568,37.3651888 240.000466,35.2151938 Z M144.57316,49.1954231 L143.856243,49.5250871 C128.346993,56.6745046 113.948043,65.8323931 100.994471,76.6636754 C107.822075,81.1517076 114.884074,85.2334608 122.15275,88.9038342 C128.678644,74.1605271 136.219689,60.8089997 144.57316,49.1954231 Z M303.426811,49.1963829 L304.179434,50.2495334 C312.233659,61.6145447 319.517976,74.6044653 325.849321,88.8996936 C333.115926,85.2334608 340.177925,81.1517076 347.004363,76.6678175 C333.852574,65.6656772 319.209405,56.3929833 303.426811,49.1963829 Z" id="Combined-Shape"></path>
        </g>
    </g>
</svg>