<?xml version="1.0" encoding="UTF-8" standalone="no"?>
<svg
   xmlns:dc="http://purl.org/dc/elements/1.1/"
   xmlns:cc="http://creativecommons.org/ns#"
   xmlns:rdf="http://www.w3.org/1999/02/22-rdf-syntax-ns#"
   xmlns:svg="http://www.w3.org/2000/svg"
   xmlns="http://www.w3.org/2000/svg"
   xmlns:sodipodi="http://sodipodi.sourceforge.net/DTD/sodipodi-0.dtd"
   xmlns:inkscape="http://www.inkscape.org/namespaces/inkscape"
   class="ionicon"
   viewBox="0 0 512 512"
   version="1.1"
   id="svg8"
   sodipodi:docname="globe.svg"
   inkscape:version="1.0.2 (e86c8708, 2021-01-15)">
  <metadata
     id="metadata14">
    <rdf:RDF>
      <cc:Work
         rdf:about="">
        <dc:format>image/svg+xml</dc:format>
        <dc:type
           rdf:resource="http://purl.org/dc/dcmitype/StillImage" />
      </cc:Work>
    </rdf:RDF>
  </metadata>
  <defs
     id="defs12" />
  <sodipodi:namedview
     pagecolor="#ffffff"
     bordercolor="#666666"
     borderopacity="1"
     objecttolerance="10"
     gridtolerance="10"
     guidetolerance="10"
     inkscape:pageopacity="0"
     inkscape:pageshadow="2"
     inkscape:window-width="689"
     inkscape:window-height="480"
     id="namedview10"
     showgrid="false"
     inkscape:zoom="1.3027344"
     inkscape:cx="256"
     inkscape:cy="256"
     inkscape:window-x="44"
     inkscape:window-y="25"
     inkscape:window-maximized="0"
     inkscape:current-layer="svg8" />
  <title
     id="title2">Globe</title>
  <path
     style="color:#000000;font-style:normal;font-variant:normal;font-weight:normal;font-stretch:normal;font-size:medium;line-height:normal;font-family:sans-serif;font-variant-ligatures:normal;font-variant-position:normal;font-variant-caps:normal;font-variant-numeric:normal;font-variant-alternates:normal;font-variant-east-asian:normal;font-feature-settings:normal;font-variation-settings:normal;text-indent:0;text-align:start;text-decoration:none;text-decoration-line:none;text-decoration-style:solid;text-decoration-color:#000000;letter-spacing:normal;word-spacing:normal;text-transform:none;writing-mode:lr-tb;direction:ltr;text-orientation:mixed;dominant-baseline:auto;baseline-shift:baseline;text-anchor:start;white-space:normal;shape-padding:0;shape-margin:0;inline-size:0;clip-rule:nonzero;display:inline;overflow:visible;visibility:visible;isolation:auto;mix-blend-mode:normal;color-interpolation:sRGB;color-interpolation-filters:linearRGB;solid-color:#000000;solid-opacity:1;vector-effect:none;fill:#000000;fill-opacity:1;fill-rule:nonzero;stroke-width:1;stroke-linecap:butt;stroke-linejoin:miter;stroke-miterlimit:4;stroke-dasharray:none;stroke-dashoffset:0;stroke-opacity:1;color-rendering:auto;image-rendering:auto;shape-rendering:auto;text-rendering:auto;enable-background:accumulate;stop-color:#000000;stop-opacity:1;stroke:none;opacity:1"
     d="m 340.75,344.49 c 5.91,-20.7 9.82,-44.75 11.31,-67.84 0.13912,-2.54861 -1.90781,-4.68273 -4.46,-4.65 h -71.06 c -2.44666,-0.0222 -4.44801,1.94334 -4.47,4.39 v 55.3 c 0.026,2.31647 1.82867,4.22362 4.14,4.38 20.0253,1.61823 39.81135,5.43794 59,11.39 2.34966,0.7066 4.82791,-0.62199 5.54,-2.97 z m -17.17,32.82 c -15.22366,-4.44462 -30.82199,-7.48729 -46.6,-9.09 -2.57859,-0.28834 -4.84976,1.69604 -4.91,4.29 v 65.24 c 0.10494,3.40774 3.83299,5.44824 6.76,3.7 15.9,-9.27 29,-24.84 40.84,-45.43 1.94,-3.36 4.89,-9.15 6.67,-12.69 1.17854,-2.4281 -0.15113,-5.32832 -2.76,-6.02 z m -88.29,-8.91 c -15.75863,1.49896 -31.34495,4.45153 -46.56,8.82 -2.64,0.76 -3.75,4.4 -2.55,6.79 1.79,3.56 4,8.11 5.89,11.51 13,23 26.84,37.5 41.24,45.93 2.92701,1.74824 6.65506,-0.29226 6.76,-3.7 v -65.27 c -0.0204,-2.53094 -2.27726,-4.4573 -4.78,-4.08 z M 235.6,272 h -71.06 c -2.54802,-0.0324 -4.59311,2.09526 -4.46,4.64 1.48,23.06 5.37,47.16 11.26,67.84 0.70304,2.38198 3.21639,3.73083 5.59,3 19.18721,-5.95226 38.97439,-9.76213 59,-11.36 2.31527,-0.1514 4.12359,-2.05993 4.15,-4.38 V 276.4 c -0.0165,-2.45453 -2.02557,-4.42776 -4.48,-4.4 z M 277,143.78 c 15.7676,-1.47743 31.34626,-4.53956 46.5,-9.14 2.59086,-0.7004 3.91407,-3.57693 2.76,-6 -1.79,-3.57 -4.27,-8.68 -6.17,-12.09 -12.29,-22 -26.14,-37.35 -41.24,-46 -2.92727,-1.73341 -6.64242,0.300028 -6.76,3.7 v 65.23 c 0.0608,2.59501 2.32963,4.58196 4.91,4.3 z M 276.54,240 h 71.06 c 2.52825,0.0427 4.5698,-2.05377 4.46,-4.58 -1.48,-22.77 -5.27,-47.8 -11.16,-68.22 -0.72468,-2.36184 -3.23123,-3.68462 -5.59,-2.95 -19,5.74 -38.79,10.43 -59.09,12 -2.30135,0.13065 -4.1118,2.01526 -4.15,4.32 v 55.11 c 0.0438,2.42625 2.04366,4.359 4.47,4.32 z M 233.31,70.56 c -15.42,8.57 -29.17,24.43 -41.47,46.37 -1.91,3.41 -4.19,8.11 -6,11.67 -1.14584,2.42312 0.17445,5.29332 2.76,6 15.14766,4.68493 30.74734,7.75861 46.54,9.17 2.5765,0.28169 4.84344,-1.699 4.91,-4.29 V 74.26 c -0.13805,-3.37697 -3.81683,-5.396479 -6.74,-3.7 z m 2.61,105.7 c -20.3,-1.55 -40.11,-6.24 -59.09,-12 -2.35877,-0.73462 -4.86532,0.58816 -5.59,2.95 -5.89,20.42 -9.68,45.45 -11.16,68.22 -0.1098,2.52623 1.93175,4.6227 4.46,4.58 h 71.06 c 2.43402,0.0389 4.43712,-1.90589 4.47,-4.34 v -55.09 c -0.0382,-2.30474 -1.84865,-4.18935 -4.15,-4.32 z"
     id="path4" />
  <path
     style="color:#000000;font-style:normal;font-variant:normal;font-weight:normal;font-stretch:normal;font-size:medium;line-height:normal;font-family:sans-serif;font-variant-ligatures:normal;font-variant-position:normal;font-variant-caps:normal;font-variant-numeric:normal;font-variant-alternates:normal;font-variant-east-asian:normal;font-feature-settings:normal;font-variation-settings:normal;text-indent:0;text-align:start;text-decoration:none;text-decoration-line:none;text-decoration-style:solid;text-decoration-color:#000000;letter-spacing:normal;word-spacing:normal;text-transform:none;writing-mode:lr-tb;direction:ltr;text-orientation:mixed;dominant-baseline:auto;baseline-shift:baseline;text-anchor:start;white-space:normal;shape-padding:0;shape-margin:0;inline-size:0;clip-rule:nonzero;display:inline;overflow:visible;visibility:visible;isolation:auto;mix-blend-mode:normal;color-interpolation:sRGB;color-interpolation-filters:linearRGB;solid-color:#000000;solid-opacity:1;vector-effect:none;fill:#000000;fill-opacity:1;fill-rule:nonzero;stroke-width:1;stroke-linecap:butt;stroke-linejoin:miter;stroke-miterlimit:4;stroke-dasharray:none;stroke-dashoffset:0;stroke-opacity:1;color-rendering:auto;image-rendering:auto;shape-rendering:auto;text-rendering:auto;enable-background:accumulate;stop-color:#000000;stop-opacity:1;stroke:none;opacity:1"
     d="M 414.39,97.61 C 327.04103,9.3968154 184.61055,9.0463935 96.828473,96.828473 9.0463935,184.61055 9.3968154,327.04103 97.61,414.39 c 87.34897,88.21318 229.77945,88.56361 317.56153,0.78153 C 502.95361,327.38945 502.60318,184.95897 414.39,97.61 Z M 176.6,430.85 c -4.50559,-6.32745 -8.67147,-12.89006 -12.48,-19.66 -2,-3.69 -4.84,-9.26 -6.73,-13.13 -1.83376,-3.88598 -6.61365,-5.35101 -10.31,-3.16 -4.3,2.41 -10,5.72 -14.13,8.43 -8.6609,-6.58328 -16.56579,-14.10583 -23.57,-22.43 9.68632,-6.83666 19.84888,-12.97229 30.41,-18.36 1.86,-1 2.77,-2.14 2.18,-4.18 -7.7378,-26.78079 -12.4637,-54.34125 -14.09,-82.17 -0.10059,-2.31042 -1.98758,-4.14036 -4.3,-4.17 H 66.84 c -0.997287,0.0113 -1.850461,-0.71392 -2,-1.7 -0.628441,-4.7465 -0.909189,-9.53258 -0.84,-14.32 -0.06839,-4.77808 0.219073,-9.55461 0.86,-14.29 0.149539,-0.98608 1.002713,-1.71127 2,-1.7 h 56.74 c 2.29,0 4.17,-1.32 4.29,-3.63 1.60477,-27.71291 6.30056,-55.1598 14,-81.83 0.59148,-2.00821 -0.32786,-4.15334 -2.19,-5.11 -10.33431,-5.29527 -20.30319,-11.27526 -29.84,-17.9 6.96703,-8.32199 14.71581,-15.95691 23.14,-22.8 4.08,2.68 9.4,5.71 13.66,8.11 3.96588,2.25434 9.01149,0.68562 11,-3.42 1.88,-3.87 4,-8.18 6.06,-11.88 3.82499,-6.853744 8.01087,-13.499749 12.54,-19.91 C 201.19407,69.893323 228.43781,63.86649 256,64 c 28.94,0 55.9,7 80.53,18.46 4.34907,6.106022 8.35525,12.449146 12,19 2.59,4.66 5.34,10.37 7.66,15.32 1.05161,2.22498 3.7555,3.11106 5.92,1.94 5.38,-2.91 11.21,-6.26 16.34,-9.63 8.44815,6.91034 16.21678,14.61199 23.2,23 -9.27613,6.43288 -18.98595,12.21667 -29.06,17.31 -1.86603,0.95787 -2.78278,3.11095 -2.18,5.12 7.82439,26.489 12.47365,53.81388 13.85,81.4 0.11152,2.29745 1.99988,4.10677 4.3,4.12 l 56.62,-0.07 c 0.99729,-0.0113 1.85046,0.71392 2,1.7 1.16659,9.50434 1.16659,19.11566 0,28.62 -0.1405,0.99403 -0.99614,1.72988 -2,1.72 h -56.67 c -2.31448,0.0246 -4.20435,1.85736 -4.3,4.17 -1.55731,27.53468 -6.20995,54.80647 -13.87,81.3 -0.59724,2.03068 0.31857,4.20102 2.19,5.19 5,2.59 10.57,5.48 15.37,8.42 4.8,2.94 9.55,6.08 14.13,9.34 -6.92949,8.34873 -14.63019,16.02599 -23,22.93 -2.44,-1.61 -5.34,-3.44 -7.84,-4.94 -1.72,-1 -4.89,-2.77 -6.65,-3.76 -3.82,-2.14 -7.88,-0.54 -9.79,3.4 -1.91,3.94 -4.83,9.59 -6.87,13.25 -3.75927,6.72925 -7.88204,13.24889 -12.35,19.53 C 310.91,442.37 284.94,448 256,448 c -28.94,0 -54.77,-5.63 -79.4,-17.15 z"
     id="path6" />
</svg>
