<?xml version="1.0" encoding="utf-8"?>
<!-- Generator: Adobe Illustrator 24.0.0, SVG Export Plug-In . SVG Version: 6.00 Build 0)  -->
<svg version="1.1" id="Layer_1" xmlns="http://www.w3.org/2000/svg" xmlns:xlink="http://www.w3.org/1999/xlink" x="0px" y="0px"
	 viewBox="0 0 512 512" style="enable-background:new 0 0 512 512;" xml:space="preserve">
<title>ionicons-v5-l</title>
<g>
	<path d="M256,416c-8.8,0-16-7.2-16-16V192.4c0-0.2,0-0.5,0-0.7V32c0-5.4,2.8-10.5,7.3-13.5c4.6-2.9,10.3-3.4,15.3-1.1l176,80
		c5.7,2.6,9.4,8.3,9.4,14.6s-3.7,12-9.4,14.6L272,202.3V400C272,408.8,264.8,416,256,416z M272,56.8v110.3L393.3,112L272,56.8z"/>
</g>
<g>
	<path d="M432,496H80c-10,0-18.9-4-24.9-11.4c-6.1-7.4-8.4-17.2-6.4-27c8.6-42.7,35.1-78.5,76.8-103.5c36.6-22,83-34.1,130.5-34.1
		s93.9,12.1,130.5,34.1c41.7,25,68.2,60.8,76.8,103.5c2,9.8-0.4,19.6-6.4,27C450.9,492,442,496,432,496z M80,464h352
		c0,0,0-0.1,0-0.1C416.5,387,329.9,352,256,352c-73.9,0-160.5,35-176,111.9C80,463.9,80,464,80,464z"/>
</g>
</svg>
