<?xml version="1.0" encoding="utf-8"?>
<!-- Generator: Adobe Illustrator 24.0.0, SVG Export Plug-In . SVG Version: 6.00 Build 0)  -->
<svg version="1.1" id="Layer_1" xmlns="http://www.w3.org/2000/svg" xmlns:xlink="http://www.w3.org/1999/xlink" x="0px" y="0px"
	 viewBox="0 0 512 512" style="enable-background:new 0 0 512 512;" xml:space="preserve">
<title>ionicons-v5-i</title>
<g>
	<path d="M204,240H68c-19.9,0-36-16.1-36-36V68c0-19.9,16.1-36,36-36h136c19.9,0,36,16.1,36,36v136C240,223.9,223.9,240,204,240z
		 M68,64c-2.2,0-4,1.8-4,4v136c0,2.2,1.8,4,4,4h136c2.2,0,4-1.8,4-4V68c0-2.2-1.8-4-4-4H68z"/>
</g>
<g>
	<path d="M444,240H308c-19.9,0-36-16.1-36-36V68c0-19.9,16.1-36,36-36h136c19.9,0,36,16.1,36,36v136C480,223.9,463.9,240,444,240z
		 M308,64c-2.2,0-4,1.8-4,4v136c0,2.2,1.8,4,4,4h136c2.2,0,4-1.8,4-4V68c0-2.2-1.8-4-4-4H308z"/>
</g>
<g>
	<path d="M204,480H68c-19.9,0-36-16.1-36-36V308c0-19.9,16.1-36,36-36h136c19.9,0,36,16.1,36,36v136C240,463.9,223.9,480,204,480z
		 M68,304c-2.2,0-4,1.8-4,4v136c0,2.2,1.8,4,4,4h136c2.2,0,4-1.8,4-4V308c0-2.2-1.8-4-4-4H68z"/>
</g>
<g>
	<path d="M444,480H308c-19.9,0-36-16.1-36-36V308c0-19.9,16.1-36,36-36h136c19.9,0,36,16.1,36,36v136C480,463.9,463.9,480,444,480z
		 M308,304c-2.2,0-4,1.8-4,4v136c0,2.2,1.8,4,4,4h136c2.2,0,4-1.8,4-4V308c0-2.2-1.8-4-4-4H308z"/>
</g>
</svg>
