<?xml version="1.0" encoding="utf-8"?>
<!-- Generator: Adobe Illustrator 24.0.0, SVG Export Plug-In . SVG Version: 6.00 Build 0)  -->
<svg version="1.1" id="Layer_1" xmlns="http://www.w3.org/2000/svg" xmlns:xlink="http://www.w3.org/1999/xlink" x="0px" y="0px"
	 viewBox="0 0 512 512" style="enable-background:new 0 0 512 512;" xml:space="preserve">
<title>ionicons-v5-i</title>
<g>
	<path d="M87,480C87,480,87,480,87,480c-8.6,0-16.7-3.4-22.8-9.4l-39-39.5c-0.6-0.6-1.2-1.3-1.8-2c-11.3-13.5-9.5-33.8,4-45.1
		c33.4-28.1,107.5-94.3,147.5-133.8c16.9-16.7,27.8-27.4,34.7-34.2l4.3-4.3c10.7-10.6,27.2-13.6,41-7.5c4.3,1.9,8.1,4.6,11.4,7.9
		l18.3,18c0,0,0.1,0.1,0.1,0.1c2.7,2.7,4.9,5.7,6.7,9c0.1,0.1,0.1,0.3,0.2,0.4c7.5,14.5,4.8,32.1-6.7,43.7c-0.1,0.1-0.1,0.1-0.2,0.2
		c-2.4,2.3-5.4,5.3-9.3,9.2c-6.8,6.8-16.1,16-29,28.7c-38.1,37.7-104.4,111.1-135,147.2c-0.6,0.7-1.2,1.3-1.8,1.9
		C103.7,476.7,95.6,480,87,480z M239.9,233.1c-1.3,0-2.6,0.5-3.5,1.4l-4.4,4.3c-6.9,6.8-17.7,17.4-34.6,34.1
		C156.9,313,81.9,380,48,408.5L87,448c0,0,0.1,0,0.1,0c31-36.5,98.1-110.9,136.9-149.2c12.9-12.7,22.1-21.9,28.9-28.6
		c3.9-3.9,6.9-6.9,9.3-9.2c1.6-1.7,2.1-4.3,1-6.4c-0.4-0.6-0.8-1.2-1.3-1.7l-18.2-18c-0.1-0.1-0.1-0.1-0.2-0.2
		c-0.5-0.5-1.1-0.9-1.7-1.2C241.3,233.2,240.6,233.1,239.9,233.1z"/>
</g>
<g>
	<path d="M418.8,281.4c-5.6,0-11.1-2.2-15.1-6.2l-34.3-34c0,0-0.1-0.1-0.1-0.1c0,0-0.1-0.1-0.1-0.1c-8.3-8.4-8.2-22.1,0.2-30.4
		c0.1-0.1,0.2-0.2,0.2-0.2l1.8-1.7c0.3-0.3,0.3-0.8,0.3-1c-3.5-1.9-7.4-2.8-11.4-2.4c-1.3,0.1-6.9,1-14.6,5.8
		c-7.6,4.7-23.3,18-38.1,32.3c0,0-0.1,0.1-0.1,0.1c-9.5,9-24.1,8.9-33.4-0.3L253,222c-9-8.9-9.5-23.3-1.1-32.8
		c10.1-11.4,27-32.3,26.4-43.6c-0.9-19-6.5-31.7-18.2-41.1c-7-5.5-22.6-12-35.7-13.1c-6.2-0.5-12.4-0.1-18.5,1.2
		c-3,0.7-5.9,1.6-8.8,2.6c-6.6,2.4-14,0.2-18.2-5.4c-4.2-5.6-4.3-13.3-0.2-19c0.7-1,7.3-10,14.2-16.2c9.2-8.4,33.2-22.6,64.7-22.6
		c0,0,0.1,0,0.1,0c18.3,0,36.1,3.5,53,10.4c44.8,18.3,73.6,42.9,86.8,56c8.9,8.9,17.2,18.5,24.7,28.5c0.1,0.1,0.1,0.2,0.2,0.3
		c6.3,8.9,5.6,18.7,5.2,25.2c0,0.4-0.1,0.8-0.1,1.3c3.7-2.7,8.2-4.2,12.7-4.2c0.1,0,0.2,0,0.2,0c5.7,0,11.2,2.3,15.2,6.3l34.3,34
		c0.1,0.1,0.2,0.2,0.4,0.4c8,8.4,8,21.6,0,30c-0.1,0.1-0.2,0.3-0.4,0.4l-55.5,54.8c0,0-0.1,0.1-0.1,0.1c-4.1,3.9-9.4,6.1-15,6.1
		C419,281.4,418.9,281.4,418.8,281.4z M398.8,225.3l20.1,20l40.8-40.3l-21-20.8c-4.4,1.9-9.2,2.6-14,2c-8.9-1-16.4-4.2-21.6-9.3
		c0,0,0,0-0.1-0.1c-8.9-8.7-8.1-20-7.6-26.8c0.1-1.6,0.3-3.8,0.2-5c-6.4-8.5-13.4-16.6-20.9-24c-9.2-9.1-35.1-32.3-76.3-49
		c-13.1-5.3-26.8-8.1-40.9-8.1c-2.7,0-5.3,0.1-7.7,0.4c11.4,3.7,22.3,9,30,15.1c0,0,0.1,0.1,0.1,0.1c19,15.2,28.9,36.3,30.2,64.5
		c1,20.8-14.2,42.7-29.4,60.5l10.4,10.4c12.5-11.8,27.7-24.9,37.8-31.1c12.6-7.7,22.9-9.8,28-10.4c0.1,0,0.1,0,0.2,0
		c10.8-1,21.4,1.3,30.8,6.7c2.4,1.4,4.6,3.1,6.6,5.1c6.2,6.3,9.4,14.6,9.2,23.5C403.6,214.7,401.9,220.4,398.8,225.3z M275.4,199.1
		C275.4,199.1,275.4,199.1,275.4,199.1C275.4,199.1,275.4,199.1,275.4,199.1z M432.9,178.4C432.9,178.4,432.9,178.4,432.9,178.4
		L432.9,178.4z"/>
</g>
</svg>
