<?xml version="1.0" encoding="UTF-8" standalone="no"?>
<svg
   xmlns:dc="http://purl.org/dc/elements/1.1/"
   xmlns:cc="http://creativecommons.org/ns#"
   xmlns:rdf="http://www.w3.org/1999/02/22-rdf-syntax-ns#"
   xmlns:svg="http://www.w3.org/2000/svg"
   xmlns="http://www.w3.org/2000/svg"
   xmlns:sodipodi="http://sodipodi.sourceforge.net/DTD/sodipodi-0.dtd"
   xmlns:inkscape="http://www.inkscape.org/namespaces/inkscape"
   class="ionicon"
   viewBox="0 0 512 512"
   version="1.1"
   id="svg6"
   sodipodi:docname="hammer-sharp.svg"
   inkscape:version="1.0.2 (e86c8708, 2021-01-15)">
  <metadata
     id="metadata12">
    <rdf:RDF>
      <cc:Work
         rdf:about="">
        <dc:format>image/svg+xml</dc:format>
        <dc:type
           rdf:resource="http://purl.org/dc/dcmitype/StillImage" />
      </cc:Work>
    </rdf:RDF>
  </metadata>
  <defs
     id="defs10" />
  <sodipodi:namedview
     pagecolor="#ffffff"
     bordercolor="#666666"
     borderopacity="1"
     objecttolerance="10"
     gridtolerance="10"
     guidetolerance="10"
     inkscape:pageopacity="0"
     inkscape:pageshadow="2"
     inkscape:window-width="689"
     inkscape:window-height="480"
     id="namedview8"
     showgrid="false"
     inkscape:zoom="1.3027344"
     inkscape:cx="256"
     inkscape:cy="256"
     inkscape:window-x="44"
     inkscape:window-y="25"
     inkscape:window-maximized="0"
     inkscape:current-layer="svg6" />
  <title
     id="title2">Hammer</title>
  <path
     style="color:#000000;font-style:normal;font-variant:normal;font-weight:normal;font-stretch:normal;font-size:medium;line-height:normal;font-family:sans-serif;font-variant-ligatures:normal;font-variant-position:normal;font-variant-caps:normal;font-variant-numeric:normal;font-variant-alternates:normal;font-variant-east-asian:normal;font-feature-settings:normal;font-variation-settings:normal;text-indent:0;text-align:start;text-decoration:none;text-decoration-line:none;text-decoration-style:solid;text-decoration-color:#000000;letter-spacing:normal;word-spacing:normal;text-transform:none;writing-mode:lr-tb;direction:ltr;text-orientation:mixed;dominant-baseline:auto;baseline-shift:baseline;text-anchor:start;white-space:normal;shape-padding:0;shape-margin:0;inline-size:0;clip-rule:nonzero;display:inline;overflow:visible;visibility:visible;isolation:auto;mix-blend-mode:normal;color-interpolation:sRGB;color-interpolation-filters:linearRGB;solid-color:#000000;solid-opacity:1;vector-effect:none;fill:#000000;fill-opacity:1;fill-rule:nonzero;stroke-width:1;stroke-linecap:butt;stroke-linejoin:miter;stroke-miterlimit:4;stroke-dasharray:none;stroke-dashoffset:0;stroke-opacity:1;color-rendering:auto;image-rendering:auto;shape-rendering:auto;text-rendering:auto;enable-background:accumulate;stop-color:#000000;stop-opacity:1;stroke:none;opacity:1"
     d="m 294.28,256.9 -54.42,-54.41 c -4.68964,-4.70595 -12.31036,-4.70595 -17,0 L 12.45,401 c -4.9161523,4.63493 -5.0382507,12.41305 -0.27,17.2 l 66.05,66.28 c 4.777953,4.79273 12.571758,4.68864 17.22,-0.23 L 294.26,273.89 c 4.70479,-4.68297 4.71375,-12.29596 0.02,-16.99 z m 205.05,-57.57 -43.89,-43.58 c -4.05453,-4.04114 -9.5556,-6.29484 -15.28,-6.26 -4.59204,0.004 -9.06644,1.45263 -12.79,4.14 0,-0.43 0.06,-0.85 0.09,-1.22 0.45,-6.5 1.15,-16.32 -5.2,-25.22 -7.54972,-10.17599 -15.83882,-19.78198 -24.8,-28.74 -0.0241,-0.02913 -0.0509,-0.05591 -0.08,-0.08 C 384.06,85.25 355.07,60.54 310.66,42.43 293.8101,35.521913 275.771,31.978639 257.56,32 226,32 202,46.24 192.81,54.68 183.76038,62.937651 177.82526,74.05584 176,86.17 L 192,96 c 0,0 8.06,-2 13.86,-3.39 6.05946,-1.292369 12.27696,-1.679909 18.45,-1.15 13.19,1.09 28.79,7.64 35.69,13.09 11.7,9.41 17.33,22.09 18.26,41.09 0.2,4.23 -9.52,21.35 -24.16,39.84 -2.52053,3.18206 -2.2583,7.74747 0.61,10.62 l 45.37,45.37 c 3.01823,2.99184 7.84897,3.10163 11,0.25 12.07,-11 30.49,-28 34.67,-30.59 7.69,-4.73 13.19,-5.64 14.7,-5.8 3.91841,-0.38426 7.86015,0.44668 11.29,2.38 0.0345,0.34613 -0.078,0.69083 -0.31,0.95 l -1.82,1.73 -0.3,0.28 c -8.46132,8.42994 -8.43887,22.13781 0.05,30.54 l 43.95,43.68 c 3.1203,3.10179 8.1597,3.10179 11.28,0 l 74.68,-74.2 c 3.17177,-3.11272 3.19872,-8.21395 0.06,-11.36 z"
     id="path4" />
</svg>
