<?xml version="1.0" encoding="UTF-8" standalone="no"?>
<svg
   xmlns:dc="http://purl.org/dc/elements/1.1/"
   xmlns:cc="http://creativecommons.org/ns#"
   xmlns:rdf="http://www.w3.org/1999/02/22-rdf-syntax-ns#"
   xmlns:svg="http://www.w3.org/2000/svg"
   xmlns="http://www.w3.org/2000/svg"
   xmlns:sodipodi="http://sodipodi.sourceforge.net/DTD/sodipodi-0.dtd"
   xmlns:inkscape="http://www.inkscape.org/namespaces/inkscape"
   class="ionicon"
   viewBox="0 0 512 512"
   version="1.1"
   id="svg6"
   sodipodi:docname="hammer-outline.svg"
   inkscape:version="1.0.2 (e86c8708, 2021-01-15)">
  <metadata
     id="metadata12">
    <rdf:RDF>
      <cc:Work
         rdf:about="">
        <dc:format>image/svg+xml</dc:format>
        <dc:type
           rdf:resource="http://purl.org/dc/dcmitype/StillImage" />
      </cc:Work>
    </rdf:RDF>
  </metadata>
  <defs
     id="defs10" />
  <sodipodi:namedview
     pagecolor="#ffffff"
     bordercolor="#666666"
     borderopacity="1"
     objecttolerance="10"
     gridtolerance="10"
     guidetolerance="10"
     inkscape:pageopacity="0"
     inkscape:pageshadow="2"
     inkscape:window-width="689"
     inkscape:window-height="480"
     id="namedview8"
     showgrid="false"
     inkscape:zoom="1.3027344"
     inkscape:cx="256"
     inkscape:cy="256"
     inkscape:window-x="44"
     inkscape:window-y="25"
     inkscape:window-maximized="0"
     inkscape:current-layer="svg6" />
  <title
     id="title2">Hammer</title>
  <path
     style="color:#000000;font-style:normal;font-variant:normal;font-weight:normal;font-stretch:normal;font-size:medium;line-height:normal;font-family:sans-serif;font-variant-ligatures:normal;font-variant-position:normal;font-variant-caps:normal;font-variant-numeric:normal;font-variant-alternates:normal;font-variant-east-asian:normal;font-feature-settings:normal;font-variation-settings:normal;text-indent:0;text-align:start;text-decoration:none;text-decoration-line:none;text-decoration-style:solid;text-decoration-color:#000000;letter-spacing:normal;word-spacing:normal;text-transform:none;writing-mode:lr-tb;direction:ltr;text-orientation:mixed;dominant-baseline:auto;baseline-shift:baseline;text-anchor:start;white-space:normal;shape-padding:0;shape-margin:0;inline-size:0;clip-rule:nonzero;display:inline;overflow:visible;visibility:visible;isolation:auto;mix-blend-mode:normal;color-interpolation:sRGB;color-interpolation-filters:linearRGB;solid-color:#000000;solid-opacity:1;vector-effect:none;fill:currentColor;fill-opacity:1;fill-rule:nonzero;stroke:none;stroke-linecap:round;stroke-linejoin:round;stroke-miterlimit:4;stroke-dasharray:none;stroke-dashoffset:0;stroke-opacity:1;color-rendering:auto;image-rendering:auto;shape-rendering:auto;text-rendering:auto;enable-background:accumulate;stop-color:#000000;stop-opacity:1;opacity:1"
     d="M 257.53125 31.919922 C 226.43453 31.922062 204.07321 44.28053 192.76172 54.607422 C 192.75822 54.610612 192.75349 54.613998 192.75 54.617188 C 184.74347 61.877296 178.58203 70.814453 178.58203 70.814453 A 16.0016 16.0016 0 0 0 197.01953 95.232422 C 199.89577 94.183853 202.83601 93.319797 205.81836 92.628906 C 211.88899 91.339622 218.11388 90.938839 224.29883 91.455078 A 16.0016 16.0016 0 0 0 224.30859 91.455078 C 235.95026 92.420229 253.81455 99.664185 260.07422 104.55664 C 272.5295 114.58243 277.34179 126.11265 278.28906 145.60156 C 278.28913 145.60298 278.28899 145.60405 278.28906 145.60547 C 278.42523 148.52854 276.3699 155.64421 271.40234 163.76953 C 266.43069 171.90155 259.15191 180.91597 251.84961 189.16406 C 248.6547 192.77229 246.79189 197.16296 246.18359 201.69727 C 234.58735 199.71361 222.46112 203.26304 213.88086 211.79102 C 207.53722 218.03481 195.89928 229.45406 174.91406 250.18945 A 16.0016 16.0016 0 0 0 174.9082 250.19531 C 135.44566 289.23532 60.641096 356.0554 27.441406 384.01953 C 13.256397 395.88934 12.234298 417.96975 25.261719 431.09961 L 64.244141 470.51172 A 16.0016 16.0016 0 0 0 64.289062 470.55664 C 77.346532 483.65524 99.400532 482.82536 111.4375 468.7832 A 16.0016 16.0016 0 0 0 111.47656 468.73828 C 140.30018 434.85772 207.64586 359.95231 246.53711 321.52148 C 266.95473 301.43396 278.50092 289.79829 284.79688 283.60938 A 16.0016 16.0016 0 0 0 284.98828 283.41797 C 293.83824 274.41803 297.35882 261.70412 295.03125 249.70117 C 299.64692 248.95468 304.0767 246.91489 307.64648 243.51367 A 16.0016 16.0016 0 0 0 307.75 243.41602 C 321.2034 230.36825 339.0643 215.25365 345.81836 211.0957 C 353.34856 206.45995 358.90368 205.48183 360.41406 205.31055 C 364.36704 204.9466 368.31494 205.81318 371.78125 207.74023 C 371.85245 207.9346 371.84601 208.30247 371.44727 208.70117 L 369.66992 210.38086 A 16.0016 16.0016 0 0 0 369.4375 210.60547 C 361.02142 218.88828 361.02079 232.96822 369.43555 241.25195 C 369.43621 241.25261 369.43683 241.25325 369.4375 241.25391 L 403.70703 275.21484 A 16.0016 16.0016 0 0 0 403.74219 275.24805 C 407.8204 279.26541 413.3521 281.46241 419.06836 281.40039 C 424.65242 281.39462 430.04267 279.25423 434.07031 275.375 A 16.0016 16.0016 0 0 0 434.2207 275.22656 L 489.68164 220.37695 A 16.0016 16.0016 0 0 0 490.05273 219.99609 C 497.90378 211.69837 497.90378 198.30163 490.05273 190.00391 A 16.0016 16.0016 0 0 0 489.69141 189.63477 L 455.38281 155.63477 L 455.42969 155.68359 C 451.35037 151.60671 445.78097 149.37729 440.02344 149.44336 C 435.42202 149.44515 430.99976 150.95988 427.32031 153.65234 C 427.34196 153.18646 427.30995 153.26911 427.34961 152.71094 C 427.71448 147.57617 429.48603 137.34429 422.19727 127.12109 A 16.0016 16.0016 0 0 0 422.00586 126.85938 C 414.50753 116.78172 406.28648 107.26291 397.40625 98.378906 A 16.0016 16.0016 0 0 0 397.35547 98.328125 C 389.73181 90.769252 360.07653 62.532513 310.60547 42.353516 L 310.59766 42.351562 C 293.75883 35.454238 275.73574 31.910402 257.53906 31.919922 L 257.53125 31.919922 z M 257.53906 63.919922 A 16.0016 16.0016 0 0 0 257.54883 63.919922 C 271.58446 63.911794 285.48663 66.643988 298.47461 71.964844 A 16.0016 16.0016 0 0 0 298.49805 71.974609 C 342.45948 89.901542 368.27972 114.56698 374.79883 121.0293 C 382.29447 128.53059 389.22596 136.5708 395.59961 145.04492 C 395.3846 144.99267 395.71185 146.47251 395.42969 150.44336 C 395.23462 153.18847 394.87684 156.72714 395.50781 161.35938 C 396.13879 165.99161 398.31703 172.20838 403.04102 176.83789 A 16.0016 16.0016 0 0 0 403.11523 176.9082 C 410.25577 183.8169 418.12009 185.41446 424.58789 186.13867 C 429.42631 186.75121 434.22324 185.92014 438.61523 184.07031 L 459.72852 204.99219 L 418.97852 245.29492 L 398.74414 225.24414 C 406.35974 212.84295 405.40302 196.20647 394.5918 185.19336 C 392.65028 183.20076 390.43948 181.49119 388.02148 180.11523 C 378.70377 174.75051 367.94108 172.41877 357.23828 173.45508 A 16.0016 16.0016 0 0 0 357.05078 173.47461 C 350.956 174.13744 340.90046 176.54597 329.04297 183.8457 C 317.9887 190.65095 304.15487 202.74906 291.24219 214.97852 L 280.74609 204.48438 C 287.08666 197.02865 293.43516 189.08279 298.70508 180.46289 C 305.35093 169.59241 310.91206 157.8359 310.25195 144.06445 A 16.0016 16.0016 0 0 0 310.25195 144.05469 C 309.02102 118.71335 299.90628 95.474066 280.00977 79.517578 A 16.0016 16.0016 0 0 0 279.88086 79.416016 C 271.5891 72.904597 261.17624 67.885687 250.06445 64.378906 C 252.49945 64.099356 254.98961 63.919922 257.53906 63.919922 z M 447.46484 178.2832 L 447.29883 178.44727 C 447.23611 178.50852 447.14615 178.52838 447.08203 178.58789 C 447.20037 178.47314 447.34837 178.40031 447.46484 178.2832 z M 285.58203 220.33984 C 285.54588 220.37489 285.50683 220.41027 285.4707 220.44531 L 285.57227 220.3457 C 285.57507 220.34303 285.57922 220.34251 285.58203 220.33984 z M 239.02148 233.11523 C 239.96326 232.94249 240.95627 233.0616 241.9043 233.48047 C 242.53134 233.76662 243.10281 234.16049 243.58594 234.65234 A 16.0016 16.0016 0 0 0 243.76367 234.83203 L 261.97266 252.79297 C 262.47741 253.30597 262.89295 253.89479 263.25586 254.51562 C 264.294 256.72654 263.90439 259.20713 262.18164 260.96875 C 255.52888 267.51107 244.30986 278.82047 224.06836 298.73438 A 16.0016 16.0016 0 0 0 224.04297 298.75977 C 183.54825 338.77507 116.81439 413.08232 87.142578 447.95703 C 86.938809 448.19474 87.164951 448.18224 86.953125 447.96484 L 47.996094 408.57812 A 16.0016 16.0016 0 0 0 47.978516 408.56055 A 16.0016 16.0016 0 0 0 48.017578 408.52734 C 82.271877 379.67734 156.55985 313.35962 197.40625 272.95117 L 197.41211 272.94531 C 218.39121 252.21599 230.00133 240.82412 236.38281 234.54297 A 16.0016 16.0016 0 0 0 236.43945 234.48828 C 237.17974 233.75251 238.07398 233.28903 239.02148 233.11523 z "
     id="path4" />
</svg>
