<?xml version="1.0" encoding="UTF-8" standalone="no"?>
<svg
   xmlns:dc="http://purl.org/dc/elements/1.1/"
   xmlns:cc="http://creativecommons.org/ns#"
   xmlns:rdf="http://www.w3.org/1999/02/22-rdf-syntax-ns#"
   xmlns:svg="http://www.w3.org/2000/svg"
   xmlns="http://www.w3.org/2000/svg"
   xmlns:sodipodi="http://sodipodi.sourceforge.net/DTD/sodipodi-0.dtd"
   xmlns:inkscape="http://www.inkscape.org/namespaces/inkscape"
   class="ionicon"
   viewBox="0 0 512 512"
   version="1.1"
   id="svg6"
   sodipodi:docname="hammer.svg"
   inkscape:version="1.0.2 (e86c8708, 2021-01-15)">
  <metadata
     id="metadata12">
    <rdf:RDF>
      <cc:Work
         rdf:about="">
        <dc:format>image/svg+xml</dc:format>
        <dc:type
           rdf:resource="http://purl.org/dc/dcmitype/StillImage" />
      </cc:Work>
    </rdf:RDF>
  </metadata>
  <defs
     id="defs10" />
  <sodipodi:namedview
     pagecolor="#ffffff"
     bordercolor="#666666"
     borderopacity="1"
     objecttolerance="10"
     gridtolerance="10"
     guidetolerance="10"
     inkscape:pageopacity="0"
     inkscape:pageshadow="2"
     inkscape:window-width="689"
     inkscape:window-height="480"
     id="namedview8"
     showgrid="false"
     inkscape:zoom="1.3027344"
     inkscape:cx="256"
     inkscape:cy="256"
     inkscape:window-x="44"
     inkscape:window-y="25"
     inkscape:window-maximized="0"
     inkscape:current-layer="svg6" />
  <title
     id="title2">Hammer</title>
  <path
     style="color:#000000;font-style:normal;font-variant:normal;font-weight:normal;font-stretch:normal;font-size:medium;line-height:normal;font-family:sans-serif;font-variant-ligatures:normal;font-variant-position:normal;font-variant-caps:normal;font-variant-numeric:normal;font-variant-alternates:normal;font-variant-east-asian:normal;font-feature-settings:normal;font-variation-settings:normal;text-indent:0;text-align:start;text-decoration:none;text-decoration-line:none;text-decoration-style:solid;text-decoration-color:#000000;letter-spacing:normal;word-spacing:normal;text-transform:none;writing-mode:lr-tb;direction:ltr;text-orientation:mixed;dominant-baseline:auto;baseline-shift:baseline;text-anchor:start;white-space:normal;shape-padding:0;shape-margin:0;inline-size:0;clip-rule:nonzero;display:inline;overflow:visible;visibility:visible;isolation:auto;mix-blend-mode:normal;color-interpolation:sRGB;color-interpolation-filters:linearRGB;solid-color:#000000;solid-opacity:1;vector-effect:none;fill:#000000;fill-opacity:1;fill-rule:nonzero;stroke-width:1;stroke-linecap:butt;stroke-linejoin:miter;stroke-miterlimit:4;stroke-dasharray:none;stroke-dashoffset:0;stroke-opacity:1;color-rendering:auto;image-rendering:auto;shape-rendering:auto;text-rendering:auto;enable-background:accumulate;stop-color:#000000;stop-opacity:1;stroke:none;opacity:1"
     d="m 280.16,242.79 -26.11,-26.12 c -12.45048,-12.45366 -32.62348,-12.50729 -45.14,-0.12 L 27.38,384.08 c -6.61,6.23 -10.95,14.17 -11.35,23.06 -0.389046,8.91294 2.947566,17.58596 9.21,23.94 l 39,39.43 c 0.02075,0.0258 0.04422,0.0493 0.07,0.07 6.026704,6.007 14.180918,9.39231 22.69,9.42 h 1.18 c 8.89,-0.33 16.85,-4.5 23.17,-11.17 l 168.7,-180.7 c 12.58406,-12.47598 12.63337,-32.80311 0.11,-45.34 z M 490,190 l -0.31,-0.31 -34.27,-33.92 c -4.05453,-4.04114 -9.5556,-6.29484 -15.28,-6.26 -4.59204,0.004 -9.06644,1.45263 -12.79,4.14 0,-0.43 0.06,-0.85 0.09,-1.22 0.45,-6.5 1.15,-16.32 -5.2,-25.22 -7.54972,-10.17599 -15.83882,-19.78198 -24.8,-28.74 -0.0241,-0.02913 -0.0509,-0.05591 -0.08,-0.08 C 384.04,85.27 355.05,60.56 310.64,42.45 293.7977,35.537624 275.7656,31.987595 257.56,32 226,32 202,46.24 192.81,54.68 c -5.20375,4.970268 -9.94956,10.398836 -14.18,16.22 -9.32638,12.873114 3.79384,29.99623 18.65,24.34 2.80451,-1.048395 5.66972,-1.926657 8.58,-2.63 6.0609,-1.281823 12.27684,-1.669266 18.45,-1.15 13.19,1.09 28.79,7.64 35.69,13.09 11.7,9.41 17.33,22.09 18.26,41.09 0.18,3.82 -7.72,18.14 -20,34.48 -4.83766,6.37722 -4.21824,15.34819 1.45,21 l 34.41,34.41 c 6.0041,6.01844 15.66648,6.29075 22,0.62 9.73,-8.69 24.55,-21.79 29.73,-25 7.69,-4.73 13.19,-5.64 14.7,-5.8 3.91841,-0.38426 7.86015,0.44668 11.29,2.38 0.0345,0.34613 -0.078,0.69083 -0.31,0.95 l -1.82,1.73 -0.3,0.28 c -8.46132,8.42994 -8.43887,22.13781 0.05,30.54 l 34.26,33.91 c 4.05555,4.03842 9.55682,6.28861 15.28,6.25 5.68998,0.009 11.15573,-2.21783 15.22,-6.2 l 55.5,-54.82 c 0.19,-0.19 0.38,-0.39 0.56,-0.59 7.72387,-8.4667 7.6017,-21.46003 -0.28,-29.78 z"
     id="path4" />
</svg>
