<?xml version="1.0" encoding="UTF-8" standalone="no"?>
<svg
   xmlns:dc="http://purl.org/dc/elements/1.1/"
   xmlns:cc="http://creativecommons.org/ns#"
   xmlns:rdf="http://www.w3.org/1999/02/22-rdf-syntax-ns#"
   xmlns:svg="http://www.w3.org/2000/svg"
   xmlns="http://www.w3.org/2000/svg"
   xmlns:sodipodi="http://sodipodi.sourceforge.net/DTD/sodipodi-0.dtd"
   xmlns:inkscape="http://www.inkscape.org/namespaces/inkscape"
   class="ionicon"
   viewBox="0 0 512 512"
   version="1.1"
   id="svg8"
   sodipodi:docname="hand-right-outline.svg"
   inkscape:version="1.0.2 (e86c8708, 2021-01-15)">
  <metadata
     id="metadata14">
    <rdf:RDF>
      <cc:Work
         rdf:about="">
        <dc:format>image/svg+xml</dc:format>
        <dc:type
           rdf:resource="http://purl.org/dc/dcmitype/StillImage" />
      </cc:Work>
    </rdf:RDF>
  </metadata>
  <defs
     id="defs12" />
  <sodipodi:namedview
     pagecolor="#ffffff"
     bordercolor="#666666"
     borderopacity="1"
     objecttolerance="10"
     gridtolerance="10"
     guidetolerance="10"
     inkscape:pageopacity="0"
     inkscape:pageshadow="2"
     inkscape:window-width="689"
     inkscape:window-height="480"
     id="namedview10"
     showgrid="false"
     inkscape:zoom="1.3027344"
     inkscape:cx="256"
     inkscape:cy="256"
     inkscape:window-x="44"
     inkscape:window-y="25"
     inkscape:window-maximized="0"
     inkscape:current-layer="svg8" />
  <title
     id="title2">Hand Right</title>
  <path
     style="color:#000000;font-style:normal;font-variant:normal;font-weight:normal;font-stretch:normal;font-size:medium;line-height:normal;font-family:sans-serif;font-variant-ligatures:normal;font-variant-position:normal;font-variant-caps:normal;font-variant-numeric:normal;font-variant-alternates:normal;font-variant-east-asian:normal;font-feature-settings:normal;font-variation-settings:normal;text-indent:0;text-align:start;text-decoration:none;text-decoration-line:none;text-decoration-style:solid;text-decoration-color:#000000;letter-spacing:normal;word-spacing:normal;text-transform:none;writing-mode:lr-tb;direction:ltr;text-orientation:mixed;dominant-baseline:auto;baseline-shift:baseline;text-anchor:start;white-space:normal;shape-padding:0;shape-margin:0;inline-size:0;clip-rule:nonzero;display:inline;overflow:visible;visibility:visible;isolation:auto;mix-blend-mode:normal;color-interpolation:sRGB;color-interpolation-filters:linearRGB;solid-color:#000000;solid-opacity:1;vector-effect:none;fill:currentColor;fill-opacity:1;fill-rule:nonzero;stroke:none;stroke-linecap:round;stroke-linejoin:round;stroke-miterlimit:4;stroke-dasharray:none;stroke-dashoffset:0;stroke-opacity:1;color-rendering:auto;image-rendering:auto;shape-rendering:auto;text-rendering:auto;enable-background:accumulate;stop-color:#000000;stop-opacity:1;opacity:1"
     d="M 272 0 C 245.67985 0 224 21.679846 224 48 L 224 50.982422 C 218.96398 49.167343 213.62662 48 208 48 C 181.67985 48 160 69.679846 160 96 L 160 320 A 16 16 0 0 0 176 336 A 16 16 0 0 0 192 320 L 192 96 C 192 86.97393 198.97393 80 208 80 C 217.02607 80 224 86.97393 224 96 L 224 240 L 224 241 A 16 16 0 0 0 240 257 A 16 16 0 0 0 256 241 L 256 240 L 256 96 L 256 48 C 256 38.97393 262.97393 32 272 32 C 281.02607 32 288 38.97393 288 48 L 288 80 L 288 240 A 16 16 0 0 0 288.00391 240.33594 A 16 16 0 0 0 288.01367 240.67188 A 16 16 0 0 0 288.28516 243.00977 A 16 16 0 0 0 288.50586 243.99414 A 16 16 0 0 0 288.6875 244.64062 A 16 16 0 0 0 288.89648 245.28125 A 16 16 0 0 0 289.01172 245.59766 A 16 16 0 0 0 289.13281 245.91016 A 16 16 0 0 0 289.25977 246.22266 A 16 16 0 0 0 289.39258 246.53125 A 16 16 0 0 0 290.16016 248.02734 A 16 16 0 0 0 290.33203 248.31641 A 16 16 0 0 0 290.88281 249.16211 A 16 16 0 0 0 291.2793 249.70508 A 16 16 0 0 0 291.48633 249.9707 A 16 16 0 0 0 291.91602 250.48633 A 16 16 0 0 0 292.60156 251.22852 A 16 16 0 0 0 293.08203 251.69727 A 16 16 0 0 0 293.33203 251.92383 A 16 16 0 0 0 293.58398 252.14453 A 16 16 0 0 0 294.91602 253.17188 A 16 16 0 0 0 295.19531 253.35938 A 16 16 0 0 0 296.05469 253.88672 A 16 16 0 0 0 296.64453 254.20898 A 16 16 0 0 0 298.17578 254.90234 A 16 16 0 0 0 298.49023 255.02148 A 16 16 0 0 0 299.44922 255.33984 A 16 16 0 0 0 299.77148 255.43164 A 16 16 0 0 0 300.09766 255.51758 A 16 16 0 0 0 300.42383 255.5957 A 16 16 0 0 0 300.75391 255.66797 A 16 16 0 0 0 301.08398 255.73242 A 16 16 0 0 0 301.74805 255.83984 A 16 16 0 0 0 302.08008 255.88477 A 16 16 0 0 0 302.41406 255.92188 A 16 16 0 0 0 302.75 255.95117 A 16 16 0 0 0 303.08594 255.97461 A 16 16 0 0 0 304 256 A 16 16 0 0 0 305.00781 255.96875 A 16 16 0 0 0 306.01367 255.87305 A 16 16 0 0 0 306.3457 255.82617 A 16 16 0 0 0 307.33789 255.64844 A 16 16 0 0 0 307.66797 255.57422 A 16 16 0 0 0 307.99414 255.49414 A 16 16 0 0 0 309.28125 255.10352 A 16 16 0 0 0 309.91016 254.86719 A 16 16 0 0 0 310.22266 254.74023 A 16 16 0 0 0 310.53125 254.60742 A 16 16 0 0 0 310.83594 254.4668 A 16 16 0 0 0 311.13867 254.31836 A 16 16 0 0 0 311.4375 254.16602 A 16 16 0 0 0 312.31641 253.66797 A 16 16 0 0 0 313.9707 252.51367 A 16 16 0 0 0 314.48633 252.08398 A 16 16 0 0 0 314.73828 251.86133 A 16 16 0 0 0 315.46484 251.16016 A 16 16 0 0 0 315.69727 250.91797 A 16 16 0 0 0 315.92383 250.66797 A 16 16 0 0 0 316.77734 249.62891 A 16 16 0 0 0 317.54102 248.52148 A 16 16 0 0 0 317.7168 248.23633 A 16 16 0 0 0 317.88672 247.94531 A 16 16 0 0 0 318.50586 246.75195 A 16 16 0 0 0 318.64453 246.44531 A 16 16 0 0 0 318.77734 246.13477 A 16 16 0 0 0 318.90234 245.82422 A 16 16 0 0 0 319.02148 245.50977 A 16 16 0 0 0 319.24023 244.87305 A 16 16 0 0 0 319.33984 244.55078 A 16 16 0 0 0 319.5957 243.57617 A 16 16 0 0 0 319.66797 243.24609 A 16 16 0 0 0 319.73242 242.91602 A 16 16 0 0 0 319.78906 242.58594 A 16 16 0 0 0 319.92188 241.58594 A 16 16 0 0 0 319.95117 241.25 A 16 16 0 0 0 319.97461 240.91406 A 16 16 0 0 0 319.99023 240.57812 A 16 16 0 0 0 320 240 L 320 80 C 320 70.97393 326.97393 64 336 64 C 345.02607 64 352 70.97393 352 80 L 352 144 L 352 256 A 16 16 0 0 0 352.05664 257.34375 A 16 16 0 0 0 352.22656 258.67773 A 16 16 0 0 0 353.5332 262.83594 A 16 16 0 0 0 353.99414 263.73438 A 16 16 0 0 0 354.16016 264.02734 A 16 16 0 0 0 354.33203 264.31641 A 16 16 0 0 0 354.50977 264.60156 A 16 16 0 0 0 355.2793 265.70508 A 16 16 0 0 0 355.48633 265.9707 A 16 16 0 0 0 355.69727 266.23047 A 16 16 0 0 0 356.13867 266.73828 A 16 16 0 0 0 356.36719 266.98633 A 16 16 0 0 0 356.60156 267.22852 A 16 16 0 0 0 356.83984 267.46484 A 16 16 0 0 0 357.33203 267.92383 A 16 16 0 0 0 357.8418 268.36133 A 16 16 0 0 0 358.10352 268.57227 A 16 16 0 0 0 358.64062 268.97656 A 16 16 0 0 0 359.19531 269.35938 A 16 16 0 0 0 360.05469 269.88672 A 16 16 0 0 0 360.34766 270.05078 A 16 16 0 0 0 360.64453 270.20898 A 16 16 0 0 0 360.94531 270.36133 A 16 16 0 0 0 361.55469 270.64453 A 16 16 0 0 0 362.49023 271.02148 A 16 16 0 0 0 363.12695 271.24023 A 16 16 0 0 0 363.44922 271.33984 A 16 16 0 0 0 363.77148 271.43164 A 16 16 0 0 0 364.42383 271.5957 A 16 16 0 0 0 364.75391 271.66797 A 16 16 0 0 0 365.08398 271.73242 A 16 16 0 0 0 365.74805 271.83984 A 16 16 0 0 0 366.08008 271.88477 A 16 16 0 0 0 366.41406 271.92188 A 16 16 0 0 0 367.42188 271.99023 A 16 16 0 0 0 367.75781 271.99805 A 16 16 0 0 0 368 272 A 16 16 0 0 0 368.33594 271.99609 A 16 16 0 0 0 368.67188 271.98633 A 16 16 0 0 0 369.34375 271.94336 A 16 16 0 0 0 370.01367 271.87305 A 16 16 0 0 0 370.3457 271.82617 A 16 16 0 0 0 370.67773 271.77344 A 16 16 0 0 0 371.33789 271.64844 A 16 16 0 0 0 371.66797 271.57422 A 16 16 0 0 0 372.31836 271.40625 A 16 16 0 0 0 372.64062 271.3125 A 16 16 0 0 0 372.96289 271.21094 A 16 16 0 0 0 374.22266 270.74023 A 16 16 0 0 0 374.53125 270.60742 A 16 16 0 0 0 374.83594 270.4668 A 16 16 0 0 0 375.4375 270.16602 A 16 16 0 0 0 376.31641 269.66797 A 16 16 0 0 0 376.88281 269.30664 A 16 16 0 0 0 377.43555 268.92188 A 16 16 0 0 0 377.9707 268.51367 A 16 16 0 0 0 378.23047 268.30273 A 16 16 0 0 0 379.46484 267.16016 A 16 16 0 0 0 379.69727 266.91797 A 16 16 0 0 0 380.36133 266.1582 A 16 16 0 0 0 380.57227 265.89648 A 16 16 0 0 0 380.97656 265.35938 A 16 16 0 0 0 381.35938 264.80469 A 16 16 0 0 0 381.7168 264.23633 A 16 16 0 0 0 381.88672 263.94531 A 16 16 0 0 0 382.77734 262.13477 A 16 16 0 0 0 382.90234 261.82422 A 16 16 0 0 0 383.02148 261.50977 A 16 16 0 0 0 383.24023 260.87305 A 16 16 0 0 0 383.33984 260.55078 A 16 16 0 0 0 383.5957 259.57617 A 16 16 0 0 0 383.73242 258.91602 A 16 16 0 0 0 383.78906 258.58594 A 16 16 0 0 0 383.83984 258.25195 A 16 16 0 0 0 383.88477 257.91992 A 16 16 0 0 0 383.97461 256.91406 A 16 16 0 0 0 383.99023 256.57812 A 16 16 0 0 0 384 256 L 384 144 C 384 134.97393 390.97393 128 400 128 C 409.02607 128 416 134.97393 416 144 L 416 320 A 16 16 0 0 0 432 336 A 16 16 0 0 0 448 320 L 448 144 C 448 117.67985 426.32015 96 400 96 C 394.37338 96 389.03602 97.167343 384 98.982422 L 384 80 C 384 53.679846 362.32015 32 336 32 C 329.69042 32 323.67627 33.309366 318.13477 35.566406 C 312.56913 15.224177 293.99944 0 272 0 z "
     id="path4" />
  <path
     style="color:#000000;font-style:normal;font-variant:normal;font-weight:normal;font-stretch:normal;font-size:medium;line-height:normal;font-family:sans-serif;font-variant-ligatures:normal;font-variant-position:normal;font-variant-caps:normal;font-variant-numeric:normal;font-variant-alternates:normal;font-variant-east-asian:normal;font-feature-settings:normal;font-variation-settings:normal;text-indent:0;text-align:start;text-decoration:none;text-decoration-line:none;text-decoration-style:solid;text-decoration-color:#000000;letter-spacing:normal;word-spacing:normal;text-transform:none;writing-mode:lr-tb;direction:ltr;text-orientation:mixed;dominant-baseline:auto;baseline-shift:baseline;text-anchor:start;white-space:normal;shape-padding:0;shape-margin:0;inline-size:0;clip-rule:nonzero;display:inline;overflow:visible;visibility:visible;isolation:auto;mix-blend-mode:normal;color-interpolation:sRGB;color-interpolation-filters:linearRGB;solid-color:#000000;solid-opacity:1;vector-effect:none;fill:currentColor;fill-opacity:1;fill-rule:nonzero;stroke:none;stroke-linecap:round;stroke-linejoin:round;stroke-miterlimit:4;stroke-dasharray:none;stroke-dashoffset:0;stroke-opacity:1;color-rendering:auto;image-rendering:auto;shape-rendering:auto;text-rendering:auto;enable-background:accumulate;stop-color:#000000;stop-opacity:1;opacity:1"
     d="M 114.94531 200.12695 C 105.51957 199.54846 95.846518 201.63037 87.294922 206.49023 C 76.144758 212.82463 68.255096 223.40522 65.417969 234.90234 C 62.580786 246.3997 64.160907 258.26875 68.318359 269.53711 C 68.318577 269.5377 68.318142 269.53847 68.318359 269.53906 L 120.97266 413.49609 A 16.0016 16.0016 0 0 0 121.24414 414.18555 C 132.08155 440.03723 147.77781 465.04127 173.3457 483.19531 C 198.9136 501.34936 233.6 512 280 512 C 327.55152 512 370.5031 495.73811 400.77148 462.86328 C 431.03987 429.98845 448 381.60744 448 320 A 16 16 0 0 0 432 304 A 16 16 0 0 0 416 320 C 416 375.79256 400.96013 415.41233 377.22852 441.1875 C 353.4969 466.96267 320.44848 480 280 480 C 238.4 480 211.2307 470.84947 191.87109 457.10352 C 172.56449 443.3952 160.28216 424.45936 150.83984 401.99219 L 98.355469 258.50391 A 16.0016 16.0016 0 0 0 98.339844 258.46094 C 95.837783 251.67983 95.599206 246.1554 96.484375 242.56836 C 97.369544 238.98131 98.742996 236.78826 103.10156 234.3125 A 16.0016 16.0016 0 0 0 103.10547 234.31055 C 111.23367 229.6913 121.05314 231.87397 125.16602 239.25977 L 161.22266 326.13281 A 16 16 0 0 0 182.13281 334.77734 A 16 16 0 0 0 190.77734 313.86719 L 154.28711 225.94727 A 16.0016 16.0016 0 0 0 153.66797 224.62891 C 145.67566 209.44351 130.65488 201.0911 114.94531 200.12695 z "
     id="path6" />
</svg>
