<?xml version="1.0" encoding="utf-8"?>
<!-- Generator: Adobe Illustrator 24.0.0, SVG Export Plug-In . SVG Version: 6.00 Build 0)  -->
<svg version="1.1" id="Layer_1" xmlns="http://www.w3.org/2000/svg" xmlns:xlink="http://www.w3.org/1999/xlink" x="0px" y="0px"
	 viewBox="0 0 512 512" style="enable-background:new 0 0 512 512;" xml:space="preserve">
<title>ionicons-v5-i</title>
<g>
	<path d="M432,336c-8.8,0-16-7.2-16-16V144c0-8.8-7.2-16-16-16s-16,7.2-16,16v112c0,8.8-7.2,16-16,16s-16-7.2-16-16V144
		c0-26.5,21.5-48,48-48s48,21.5,48,48v176C448,328.8,440.8,336,432,336z"/>
</g>
<g>
	<path d="M368,272c-8.8,0-16-7.2-16-16V80c0-8.8-7.2-16-16-16s-16,7.2-16,16v160c0,8.8-7.2,16-16,16s-16-7.2-16-16V80
		c0-26.5,21.5-48,48-48s48,21.5,48,48v176C384,264.8,376.8,272,368,272z"/>
</g>
<g>
	<path d="M176,336c-8.8,0-16-7.2-16-16V96c0-26.5,21.5-48,48-48s48,21.5,48,48v145c0,8.8-7.2,16-16,16s-16-7.2-16-16V96
		c0-8.8-7.2-16-16-16s-16,7.2-16,16v224C192,328.8,184.8,336,176,336z"/>
</g>
<g>
	<path d="M304,256c-8.8,0-16-7.2-16-16V48c0-8.8-7.2-16-16-16s-16,7.2-16,16v192c0,8.8-7.2,16-16,16s-16-7.2-16-16V48
		c0-26.5,21.5-48,48-48c26.5,0,48,21.5,48,48v192C320,248.8,312.8,256,304,256z"/>
</g>
<g>
	<path d="M280,512c-44.5,0-79.4-9.4-106.7-28.8c-22.2-15.8-39.2-38.3-52.1-69c-0.1-0.2-0.2-0.5-0.3-0.7l-52.7-144
		c-9.8-26.6-2.5-50.8,19-63c11.7-6.6,25.7-8.3,38.4-4.6c12.2,3.6,22.1,11.6,27.9,22.7c0.2,0.4,0.4,0.9,0.6,1.3l36.5,87.9
		c3.4,8.2-0.5,17.5-8.6,20.9c-8.2,3.4-17.5-0.5-20.9-8.6L125.1,239c-2.3-3.9-5.7-5.6-8.3-6.4c-4.5-1.3-9.5-0.7-13.6,1.7
		c-7.5,4.3-9.1,12.4-4.8,24.2l52.6,143.7C167.1,440.7,195.2,480,280,480c40.2,0,73.9-13.4,97.2-38.8C402.6,413.6,416,371.7,416,320
		c0-8.8,7.2-16,16-16s16,7.2,16,16c0,59.9-16.3,109.3-47.2,142.9C371.2,495,329.4,512,280,512z"/>
</g>
</svg>
