<?xml version="1.0" encoding="utf-8"?>
<!-- Generator: Adobe Illustrator 24.0.0, SVG Export Plug-In . SVG Version: 6.00 Build 0)  -->
<svg version="1.1" id="Layer_1" xmlns="http://www.w3.org/2000/svg" xmlns:xlink="http://www.w3.org/1999/xlink" x="0px" y="0px"
	 viewBox="0 0 512 512" style="enable-background:new 0 0 512 512;" xml:space="preserve">
<title>ionicons-v5-l</title>
<g>
	<path d="M384,448H128c-35.3,0-64-28.7-64-64V128c0-35.3,28.7-64,64-64h256c35.3,0,64,28.7,64,64v256C448,419.3,419.3,448,384,448z
		 M128,96c-17.6,0-32,14.4-32,32v256c0,17.6,14.4,32,32,32h256c17.6,0,32-14.4,32-32V128c0-17.6-14.4-32-32-32H128z"/>
</g>
<g>
	<path d="M352,384H160c-17.6,0-32-14.4-32-32V160c0-17.6,14.4-32,32-32h192c17.6,0,32,14.4,32,32v192C384,369.6,369.6,384,352,384z
		 M160,160C160,160,160,160,160,160v192h192V160H160z"/>
</g>
<g>
	<path d="M256,96c-8.8,0-16-7.2-16-16V48c0-8.8,7.2-16,16-16c8.8,0,16,7.2,16,16v32C272,88.8,264.8,96,256,96z"/>
</g>
<g>
	<path d="M336,96c-8.8,0-16-7.2-16-16V48c0-8.8,7.2-16,16-16s16,7.2,16,16v32C352,88.8,344.8,96,336,96z"/>
</g>
<g>
	<path d="M176,96c-8.8,0-16-7.2-16-16V48c0-8.8,7.2-16,16-16s16,7.2,16,16v32C192,88.8,184.8,96,176,96z"/>
</g>
<g>
	<path d="M256,480c-8.8,0-16-7.2-16-16v-32c0-8.8,7.2-16,16-16c8.8,0,16,7.2,16,16v32C272,472.8,264.8,480,256,480z"/>
</g>
<g>
	<path d="M336,480c-8.8,0-16-7.2-16-16v-32c0-8.8,7.2-16,16-16s16,7.2,16,16v32C352,472.8,344.8,480,336,480z"/>
</g>
<g>
	<path d="M176,480c-8.8,0-16-7.2-16-16v-32c0-8.8,7.2-16,16-16s16,7.2,16,16v32C192,472.8,184.8,480,176,480z"/>
</g>
<g>
	<path d="M464,272h-32c-8.8,0-16-7.2-16-16c0-8.8,7.2-16,16-16h32c8.8,0,16,7.2,16,16C480,264.8,472.8,272,464,272z"/>
</g>
<g>
	<path d="M464,352h-32c-8.8,0-16-7.2-16-16s7.2-16,16-16h32c8.8,0,16,7.2,16,16S472.8,352,464,352z"/>
</g>
<g>
	<path d="M464,192h-32c-8.8,0-16-7.2-16-16s7.2-16,16-16h32c8.8,0,16,7.2,16,16S472.8,192,464,192z"/>
</g>
<g>
	<path d="M80,272H48c-8.8,0-16-7.2-16-16c0-8.8,7.2-16,16-16h32c8.8,0,16,7.2,16,16C96,264.8,88.8,272,80,272z"/>
</g>
<g>
	<path d="M80,352H48c-8.8,0-16-7.2-16-16s7.2-16,16-16h32c8.8,0,16,7.2,16,16S88.8,352,80,352z"/>
</g>
<g>
	<path d="M80,192H48c-8.8,0-16-7.2-16-16s7.2-16,16-16h32c8.8,0,16,7.2,16,16S88.8,192,80,192z"/>
</g>
</svg>
