<?xml version="1.0" encoding="UTF-8"?>
<svg width="512px" height="512px" viewBox="0 0 512 512" version="1.1" xmlns="http://www.w3.org/2000/svg" xmlns:xlink="http://www.w3.org/1999/xlink">
    <!-- Generator: Sketch 62 (91390) - https://sketch.com -->
    <title>Artboard</title>
    <desc>Created with Sketch.</desc>
    <g id="Artboard" stroke="none" stroke-width="1" fill="none" fill-rule="evenodd">
        <g id="hardware-chip" transform="translate(32.000000, 32.000000)" fill="#000000" fill-rule="nonzero">
            <path d="M304,0 C312.836556,0 320,7.163444 320,16 L320,16 L320,32 L352,32 C387.330232,32.0385792 415.961421,60.6697684 416,96 L416,96 L416,128 L432,128 C440.836556,128 448,135.163444 448,144 C448,152.836556 440.836556,160 432,160 L432,160 L416,160 L416,208 L432,208 C440.836556,208 448,215.163444 448,224 C448,232.836556 440.836556,240 432,240 L432,240 L416,240 L416,288 L432,288 C440.836556,288 448,295.163444 448,304 C448,312.836556 440.836556,320 432,320 L432,320 L416,320 L416,352 C415.961421,387.330232 387.330232,415.961421 352,416 L352,416 L320,416 L320,432 C320,440.836556 312.836556,448 304,448 C295.163444,448 288,440.836556 288,432 L288,432 L288,416 L240,416 L240,432 C240,440.836556 232.836556,448 224,448 C215.163444,448 208,440.836556 208,432 L208,432 L208,416 L160,416 L160,432 C160,440.836556 152.836556,448 144,448 C135.163444,448 128,440.836556 128,432 L128,432 L128,416 L96,416 C60.6697684,415.961421 32.0385792,387.330232 32,352 L32,352 L32,320 L16,320 C7.163444,320 0,312.836556 0,304 C0,295.163444 7.163444,288 16,288 L16,288 L32,288 L32,240 L16,240 C7.163444,240 0,232.836556 0,224 C0,215.163444 7.163444,208 16,208 L16,208 L32,208 L32,160 L16,160 C7.163444,160 0,152.836556 0,144 C0,135.163444 7.163444,128 16,128 L16,128 L32,128 L32,96 C32.0385792,60.6697684 60.6697684,32.0385792 96,32 L96,32 L128,32 L128,16 C128,7.163444 135.163444,0 144,0 C152.836556,0 160,7.163444 160,16 L160,16 L160,32 L208,32 L208,16 C208,7.163444 215.163444,0 224,0 C232.836556,0 240,7.163444 240,16 L240,16 L240,32 L288,32 L288,16 C288,7.163444 295.163444,0 304,0 Z M320,96 L128,96 C110.326888,96 96,110.326888 96,128 L96,128 L96,320 C96,337.673112 110.326888,352 128,352 L128,352 L320,352 C337.673112,352 352,337.673112 352,320 L352,320 L352,128 C352,110.326888 337.673112,96 320,96 L320,96 Z M312,128 C316.418278,128 320,131.581722 320,136 L320,312 C320,316.418278 316.418278,320 312,320 L136,320 C131.581722,320 128,316.418278 128,312 L128,136 C128,131.581722 131.581722,128 136,128 L312,128 Z" id="Combined-Shape"></path>
        </g>
    </g>
</svg>