<?xml version="1.0" encoding="UTF-8" standalone="no"?>
<svg
   xmlns:dc="http://purl.org/dc/elements/1.1/"
   xmlns:cc="http://creativecommons.org/ns#"
   xmlns:rdf="http://www.w3.org/1999/02/22-rdf-syntax-ns#"
   xmlns:svg="http://www.w3.org/2000/svg"
   xmlns="http://www.w3.org/2000/svg"
   xmlns:sodipodi="http://sodipodi.sourceforge.net/DTD/sodipodi-0.dtd"
   xmlns:inkscape="http://www.inkscape.org/namespaces/inkscape"
   class="ionicon"
   viewBox="0 0 512 512"
   version="1.1"
   id="svg10"
   sodipodi:docname="hardware-chip-outline.svg"
   inkscape:version="1.0.2 (e86c8708, 2021-01-15)">
  <metadata
     id="metadata16">
    <rdf:RDF>
      <cc:Work
         rdf:about="">
        <dc:format>image/svg+xml</dc:format>
        <dc:type
           rdf:resource="http://purl.org/dc/dcmitype/StillImage" />
      </cc:Work>
    </rdf:RDF>
  </metadata>
  <defs
     id="defs14" />
  <sodipodi:namedview
     pagecolor="#ffffff"
     bordercolor="#666666"
     borderopacity="1"
     objecttolerance="10"
     gridtolerance="10"
     guidetolerance="10"
     inkscape:pageopacity="0"
     inkscape:pageshadow="2"
     inkscape:window-width="689"
     inkscape:window-height="480"
     id="namedview12"
     showgrid="false"
     inkscape:zoom="1.3027344"
     inkscape:cx="256"
     inkscape:cy="256"
     inkscape:window-x="44"
     inkscape:window-y="25"
     inkscape:window-maximized="0"
     inkscape:current-layer="svg10" />
  <title
     id="title2">Hardware Chip</title>
  <path
     style="color:#000000;font-style:normal;font-variant:normal;font-weight:normal;font-stretch:normal;font-size:medium;line-height:normal;font-family:sans-serif;font-variant-ligatures:normal;font-variant-position:normal;font-variant-caps:normal;font-variant-numeric:normal;font-variant-alternates:normal;font-variant-east-asian:normal;font-feature-settings:normal;font-variation-settings:normal;text-indent:0;text-align:start;text-decoration:none;text-decoration-line:none;text-decoration-style:solid;text-decoration-color:#000000;letter-spacing:normal;word-spacing:normal;text-transform:none;writing-mode:lr-tb;direction:ltr;text-orientation:mixed;dominant-baseline:auto;baseline-shift:baseline;text-anchor:start;white-space:normal;shape-padding:0;shape-margin:0;inline-size:0;clip-rule:nonzero;display:inline;overflow:visible;visibility:visible;isolation:auto;mix-blend-mode:normal;color-interpolation:sRGB;color-interpolation-filters:linearRGB;solid-color:#000000;solid-opacity:1;vector-effect:none;fill:currentColor;fill-opacity:1;fill-rule:nonzero;stroke:none;stroke-linecap:butt;stroke-linejoin:round;stroke-miterlimit:4;stroke-dasharray:none;stroke-dashoffset:0;stroke-opacity:1;color-rendering:auto;image-rendering:auto;shape-rendering:auto;text-rendering:auto;enable-background:accumulate;stop-color:#000000;stop-opacity:1;opacity:1"
     d="M 128 64 C 92.820756 64 64 92.820756 64 128 L 64 384 C 64 419.17924 92.820756 448 128 448 L 384 448 C 419.17924 448 448 419.17924 448 384 L 448 128 C 448 92.820756 419.17924 64 384 64 L 128 64 z M 128 96 L 384 96 C 402.00476 96 416 109.99524 416 128 L 416 384 C 416 402.00476 402.00476 416 384 416 L 128 416 C 109.99524 416 96 402.00476 96 384 L 96 128 C 96 109.99524 109.99524 96 128 96 z "
     id="rect4" />
  <path
     style="color:#000000;font-style:normal;font-variant:normal;font-weight:normal;font-stretch:normal;font-size:medium;line-height:normal;font-family:sans-serif;font-variant-ligatures:normal;font-variant-position:normal;font-variant-caps:normal;font-variant-numeric:normal;font-variant-alternates:normal;font-variant-east-asian:normal;font-feature-settings:normal;font-variation-settings:normal;text-indent:0;text-align:start;text-decoration:none;text-decoration-line:none;text-decoration-style:solid;text-decoration-color:#000000;letter-spacing:normal;word-spacing:normal;text-transform:none;writing-mode:lr-tb;direction:ltr;text-orientation:mixed;dominant-baseline:auto;baseline-shift:baseline;text-anchor:start;white-space:normal;shape-padding:0;shape-margin:0;inline-size:0;clip-rule:nonzero;display:inline;overflow:visible;visibility:visible;isolation:auto;mix-blend-mode:normal;color-interpolation:sRGB;color-interpolation-filters:linearRGB;solid-color:#000000;solid-opacity:1;vector-effect:none;fill:currentColor;fill-opacity:1;fill-rule:nonzero;stroke:none;stroke-linecap:butt;stroke-linejoin:round;stroke-miterlimit:4;stroke-dasharray:none;stroke-dashoffset:0;stroke-opacity:1;color-rendering:auto;image-rendering:auto;shape-rendering:auto;text-rendering:auto;enable-background:accumulate;stop-color:#000000;stop-opacity:1;opacity:1"
     d="M 160 128 C 142.54876 128 128 142.54876 128 160 L 128 352 C 128 369.45124 142.54876 384 160 384 L 352 384 C 369.45124 384 384 369.45124 384 352 L 384 160 C 384 142.54876 369.45124 128 352 128 L 160 128 z M 160 160 L 352 160 L 352 352 L 160 352 L 160 160 z "
     id="rect6" />
  <path
     style="color:#000000;font-style:normal;font-variant:normal;font-weight:normal;font-stretch:normal;font-size:medium;line-height:normal;font-family:sans-serif;font-variant-ligatures:normal;font-variant-position:normal;font-variant-caps:normal;font-variant-numeric:normal;font-variant-alternates:normal;font-variant-east-asian:normal;font-feature-settings:normal;font-variation-settings:normal;text-indent:0;text-align:start;text-decoration:none;text-decoration-line:none;text-decoration-style:solid;text-decoration-color:#000000;letter-spacing:normal;word-spacing:normal;text-transform:none;writing-mode:lr-tb;direction:ltr;text-orientation:mixed;dominant-baseline:auto;baseline-shift:baseline;text-anchor:start;white-space:normal;shape-padding:0;shape-margin:0;inline-size:0;clip-rule:nonzero;display:inline;overflow:visible;visibility:visible;isolation:auto;mix-blend-mode:normal;color-interpolation:sRGB;color-interpolation-filters:linearRGB;solid-color:#000000;solid-opacity:1;vector-effect:none;fill:currentColor;fill-opacity:1;fill-rule:nonzero;stroke:none;stroke-linecap:round;stroke-linejoin:round;stroke-miterlimit:4;stroke-dasharray:none;stroke-dashoffset:0;stroke-opacity:1;color-rendering:auto;image-rendering:auto;shape-rendering:auto;text-rendering:auto;enable-background:accumulate;stop-color:#000000;stop-opacity:1;opacity:1"
     d="M 176 32 A 16 16 0 0 0 160 48 L 160 80 A 16 16 0 0 0 176 96 A 16 16 0 0 0 192 80 L 192 48 A 16 16 0 0 0 176 32 z M 256 32 A 16 16 0 0 0 240 48 L 240 80 A 16 16 0 0 0 256 96 A 16 16 0 0 0 272 80 L 272 48 A 16 16 0 0 0 256 32 z M 336 32 A 16 16 0 0 0 320 48 L 320 80 A 16 16 0 0 0 336 96 A 16 16 0 0 0 352 80 L 352 48 A 16 16 0 0 0 336 32 z M 48 160 A 16 16 0 0 0 32 176 A 16 16 0 0 0 48 192 L 80 192 A 16 16 0 0 0 96 176 A 16 16 0 0 0 80 160 L 48 160 z M 432 160 A 16 16 0 0 0 416 176 A 16 16 0 0 0 432 192 L 464 192 A 16 16 0 0 0 480 176 A 16 16 0 0 0 464 160 L 432 160 z M 48 240 A 16 16 0 0 0 32 256 A 16 16 0 0 0 48 272 L 80 272 A 16 16 0 0 0 96 256 A 16 16 0 0 0 80 240 L 48 240 z M 432 240 A 16 16 0 0 0 416 256 A 16 16 0 0 0 432 272 L 464 272 A 16 16 0 0 0 480 256 A 16 16 0 0 0 464 240 L 432 240 z M 48 320 A 16 16 0 0 0 32 336 A 16 16 0 0 0 48 352 L 80 352 A 16 16 0 0 0 96 336 A 16 16 0 0 0 80 320 L 48 320 z M 432 320 A 16 16 0 0 0 416 336 A 16 16 0 0 0 432 352 L 464 352 A 16 16 0 0 0 480 336 A 16 16 0 0 0 464 320 L 432 320 z M 176 416 A 16 16 0 0 0 160 432 L 160 464 A 16 16 0 0 0 176 480 A 16 16 0 0 0 192 464 L 192 432 A 16 16 0 0 0 176 416 z M 256 416 A 16 16 0 0 0 240 432 L 240 464 A 16 16 0 0 0 256 480 A 16 16 0 0 0 272 464 L 272 432 A 16 16 0 0 0 256 416 z M 336 416 A 16 16 0 0 0 320 432 L 320 464 A 16 16 0 0 0 336 480 A 16 16 0 0 0 352 464 L 352 432 A 16 16 0 0 0 336 416 z "
     id="path8" />
</svg>
