<?xml version="1.0" encoding="UTF-8" standalone="no"?>
<svg
   xmlns:dc="http://purl.org/dc/elements/1.1/"
   xmlns:cc="http://creativecommons.org/ns#"
   xmlns:rdf="http://www.w3.org/1999/02/22-rdf-syntax-ns#"
   xmlns:svg="http://www.w3.org/2000/svg"
   xmlns="http://www.w3.org/2000/svg"
   xmlns:sodipodi="http://sodipodi.sourceforge.net/DTD/sodipodi-0.dtd"
   xmlns:inkscape="http://www.inkscape.org/namespaces/inkscape"
   class="ionicon"
   viewBox="0 0 512 512"
   version="1.1"
   id="svg6"
   sodipodi:docname="headset.svg"
   inkscape:version="1.0.2 (e86c8708, 2021-01-15)">
  <metadata
     id="metadata12">
    <rdf:RDF>
      <cc:Work
         rdf:about="">
        <dc:format>image/svg+xml</dc:format>
        <dc:type
           rdf:resource="http://purl.org/dc/dcmitype/StillImage" />
      </cc:Work>
    </rdf:RDF>
  </metadata>
  <defs
     id="defs10" />
  <sodipodi:namedview
     pagecolor="#ffffff"
     bordercolor="#666666"
     borderopacity="1"
     objecttolerance="10"
     gridtolerance="10"
     guidetolerance="10"
     inkscape:pageopacity="0"
     inkscape:pageshadow="2"
     inkscape:window-width="689"
     inkscape:window-height="480"
     id="namedview8"
     showgrid="false"
     inkscape:zoom="1.3027344"
     inkscape:cx="256"
     inkscape:cy="256"
     inkscape:window-x="44"
     inkscape:window-y="25"
     inkscape:window-maximized="0"
     inkscape:current-layer="svg6" />
  <title
     id="title2">Headset</title>
  <path
     style="color:#000000;font-style:normal;font-variant:normal;font-weight:normal;font-stretch:normal;font-size:medium;line-height:normal;font-family:sans-serif;font-variant-ligatures:normal;font-variant-position:normal;font-variant-caps:normal;font-variant-numeric:normal;font-variant-alternates:normal;font-variant-east-asian:normal;font-feature-settings:normal;font-variation-settings:normal;text-indent:0;text-align:start;text-decoration:none;text-decoration-line:none;text-decoration-style:solid;text-decoration-color:#000000;letter-spacing:normal;word-spacing:normal;text-transform:none;writing-mode:lr-tb;direction:ltr;text-orientation:mixed;dominant-baseline:auto;baseline-shift:baseline;text-anchor:start;white-space:normal;shape-padding:0;shape-margin:0;inline-size:0;clip-rule:nonzero;display:inline;overflow:visible;visibility:visible;isolation:auto;mix-blend-mode:normal;color-interpolation:sRGB;color-interpolation-filters:linearRGB;solid-color:#000000;solid-opacity:1;vector-effect:none;fill:#000000;fill-opacity:1;fill-rule:nonzero;stroke-width:1;stroke-linecap:butt;stroke-linejoin:miter;stroke-miterlimit:4;stroke-dasharray:none;stroke-dashoffset:0;stroke-opacity:1;color-rendering:auto;image-rendering:auto;shape-rendering:auto;text-rendering:auto;enable-background:accumulate;stop-color:#000000;stop-opacity:1;stroke:none;opacity:1"
     d="M 411.16,97.46 C 368.43,55.86 311.88,32 256,32 200.12,32 143.57,55.86 100.84,97.46 56.45,140.67 32,197 32,256 c 0,26.67 8.75,61.09 32.88,125.55 24.13,64.46 72.12,91.45 92.39,95.86 5.81,1.27 12.62,2.59 18.73,2.59 10.52834,0.009 20.87404,-2.74997 30,-8 l 14,-8 c 15.07,-8.82 19.47,-28.13 10.8,-43.35 L 143.88,268.08 c -8.7172,-15.36554 -28.30528,-20.65257 -43.57,-11.76 l -13.69,8 c -5.26164,3.08237 -9.989485,6.99635 -14,11.59 -2.225433,2.61135 -6.490063,1.39289 -7,-2 C 64.612029,267.99161 64.070364,262.0032 64,256 64,205.69 85,157.52 123.16,120.39 160,84.55 208.39,64 256,64 303.61,64 352,84.55 388.84,120.39 427,157.52 448,205.69 448,256 c -0.0902,6.00478 -0.65192,11.9932 -1.68,17.91 -0.50994,3.39289 -4.77457,4.61135 -7,2 -4.01052,-4.59365 -8.73836,-8.50763 -14,-11.59 l -13.69,-8 c -15.26472,-8.89257 -34.8528,-3.60554 -43.57,11.76 L 281.2,420.65 c -8.67,15.22 -4.27,34.53 10.8,43.35 l 14,8 c 9.12596,5.25003 19.47166,8.00888 30,8 6.11,0 12.92,-1.32 18.73,-2.59 C 375,473 423,446 447.12,381.55 471.24,317.1 480,282.67 480,256 480,197 455.55,140.67 411.16,97.46 Z"
     id="path4" />
</svg>
