<?xml version="1.0" encoding="utf-8"?>
<!-- Generator: Adobe Illustrator 24.0.0, SVG Export Plug-In . SVG Version: 6.00 Build 0)  -->
<svg version="1.1" id="Layer_1" xmlns="http://www.w3.org/2000/svg" xmlns:xlink="http://www.w3.org/1999/xlink" x="0px" y="0px"
	 viewBox="0 0 512 512" style="enable-background:new 0 0 512 512;" xml:space="preserve">
<title>ionicons-v5-i</title>
<g>
	<path d="M429,400c-1.9,0-3.9-0.3-5.8-1.1c-8.2-3.2-12.3-12.5-9.1-20.7c28-72.4,33.9-106.4,33.9-122.2c0-50.3-21-98.5-59.2-135.6
		C352,84.6,303.6,64,256,64c-47.6,0-96,20.6-132.8,56.4C85,157.5,64,205.7,64,256c0,23.3,12,66.7,33.9,122.1
		c3.2,8.2-0.8,17.5-9,20.8c-8.2,3.2-17.5-0.8-20.8-9C51.6,348,32,290.9,32,256c0-59,24.4-115.3,68.8-158.5
		C143.6,55.9,200.1,32,256,32c55.9,0,112.4,23.9,155.2,65.5C455.6,140.7,480,197,480,256c0,27.3-11.8,71.1-36.1,133.8
		C441.5,396.1,435.4,400,429,400z"/>
</g>
<g>
	<path d="M176.2,480c-6.1,0-12.5-0.9-18.9-2.6c-29.9-8-59.7-33.9-79.8-69.2C44.3,350,48.3,286.8,86.6,264.3l14.1-8.2
		c7.4-4.2,16-5.2,24.1-3c8.2,2.3,15,7.6,19.1,15l86.9,152.5c8.6,15.1,3.4,34.6-11.5,43.5l-0.1,0.1l-13.7,8
		C196.7,477.4,186.8,480,176.2,480z M116.2,284.1l-13.4,7.8c-5.6,3.3-15.1,12.3-15.7,35.7c-0.5,19.9,6.1,43.5,18.2,64.8
		c15.7,27.6,38.8,48.3,60.3,54.1c9.4,2.5,17.4,1.9,23.8-1.9l13.6-7.9c0.1,0,0.1-0.1,0-0.2L116.2,284.1z M116.4,284L116.4,284
		C116.4,284,116.4,284,116.4,284L116.4,284z"/>
</g>
<g>
	<path d="M335.8,480c-10.6,0-20.5-2.6-29.3-7.7l-13.8-8.1c-14.9-8.9-20.1-28.4-11.5-43.5l86.9-152.6c8.6-15.2,28-20.6,43.2-12
		l0.4,0.2l13.7,8c38.4,22.4,42.4,85.7,9.2,143.9c-20.1,35.3-50,61.2-79.8,69.2C348.3,479.1,341.9,480,335.8,480z M309.1,436.7
		l13.6,7.9c6.4,3.8,14.4,4.4,23.8,1.9c21.5-5.8,44.6-26.5,60.3-54.1c12.1-21.3,18.7-44.9,18.2-64.8c-0.6-23.4-10.1-32.4-15.7-35.7
		l-13.4-7.8L309,436.5C309,436.5,309,436.6,309.1,436.7z"/>
</g>
</svg>
