<?xml version="1.0" encoding="utf-8"?>
<!-- Generator: Adobe Illustrator 24.0.0, SVG Export Plug-In . SVG Version: 6.00 Build 0)  -->
<svg version="1.1" id="Layer_1" xmlns="http://www.w3.org/2000/svg" xmlns:xlink="http://www.w3.org/1999/xlink" x="0px" y="0px"
	 viewBox="0 0 512 512" style="enable-background:new 0 0 512 512;" xml:space="preserve">
<title>ionicons-v5-f</title>
<g>
	<path d="M256,464c-114.7,0-208-93.3-208-208S141.3,48,256,48s208,93.3,208,208S370.7,464,256,464z M256,80c-97,0-176,79-176,176
		s79,176,176,176s176-79,176-176S353,80,256,80z"/>
</g>
<g>
	<path d="M256,360c-3.2,0-6.3-1-9-2.8c-39.3-26.7-56.3-45-65.7-56.4c-20-24.4-29.6-49.4-29.3-76.5c0.3-31.1,25.2-56.3,55.5-56.3
		c20.4,0,35,10.6,44.1,20.4c2.3,2.4,6.1,2.5,8.5,0.2c0.1-0.1,0.2-0.2,0.2-0.2c9.1-9.8,23.7-20.4,44.1-20.4
		c30.3,0,55.2,25.3,55.5,56.3c0.3,27.1-9.3,52.1-29.3,76.5c-9.4,11.4-26.4,29.7-65.7,56.4C262.3,359,259.2,360,256,360z"/>
</g>
</svg>
