<?xml version="1.0" encoding="UTF-8" standalone="no"?>
<svg
   xmlns:dc="http://purl.org/dc/elements/1.1/"
   xmlns:cc="http://creativecommons.org/ns#"
   xmlns:rdf="http://www.w3.org/1999/02/22-rdf-syntax-ns#"
   xmlns:svg="http://www.w3.org/2000/svg"
   xmlns="http://www.w3.org/2000/svg"
   xmlns:sodipodi="http://sodipodi.sourceforge.net/DTD/sodipodi-0.dtd"
   xmlns:inkscape="http://www.inkscape.org/namespaces/inkscape"
   class="ionicon"
   viewBox="0 0 512 512"
   version="1.1"
   id="svg6"
   sodipodi:docname="heart-dislike-outline.svg"
   inkscape:version="1.0.2 (e86c8708, 2021-01-15)">
  <metadata
     id="metadata12">
    <rdf:RDF>
      <cc:Work
         rdf:about="">
        <dc:format>image/svg+xml</dc:format>
        <dc:type
           rdf:resource="http://purl.org/dc/dcmitype/StillImage" />
      </cc:Work>
    </rdf:RDF>
  </metadata>
  <defs
     id="defs10" />
  <sodipodi:namedview
     pagecolor="#ffffff"
     bordercolor="#666666"
     borderopacity="1"
     objecttolerance="10"
     gridtolerance="10"
     guidetolerance="10"
     inkscape:pageopacity="0"
     inkscape:pageshadow="2"
     inkscape:window-width="689"
     inkscape:window-height="480"
     id="namedview8"
     showgrid="false"
     inkscape:zoom="1.3027344"
     inkscape:cx="256"
     inkscape:cy="256"
     inkscape:window-x="44"
     inkscape:window-y="25"
     inkscape:window-maximized="0"
     inkscape:current-layer="svg6" />
  <title
     id="title2">Heart Dislike</title>
  <path
     style="color:#000000;font-style:normal;font-variant:normal;font-weight:normal;font-stretch:normal;font-size:medium;line-height:normal;font-family:sans-serif;font-variant-ligatures:normal;font-variant-position:normal;font-variant-caps:normal;font-variant-numeric:normal;font-variant-alternates:normal;font-variant-east-asian:normal;font-feature-settings:normal;font-variation-settings:normal;text-indent:0;text-align:start;text-decoration:none;text-decoration-line:none;text-decoration-style:solid;text-decoration-color:#000000;letter-spacing:normal;word-spacing:normal;text-transform:none;writing-mode:lr-tb;direction:ltr;text-orientation:mixed;dominant-baseline:auto;baseline-shift:baseline;text-anchor:start;white-space:normal;shape-padding:0;shape-margin:0;inline-size:0;clip-rule:nonzero;display:inline;overflow:visible;visibility:visible;isolation:auto;mix-blend-mode:normal;color-interpolation:sRGB;color-interpolation-filters:linearRGB;solid-color:#000000;solid-opacity:1;vector-effect:none;fill:#000000;fill-opacity:1;fill-rule:nonzero;stroke-width:1;stroke-linecap:butt;stroke-linejoin:miter;stroke-miterlimit:4;stroke-dasharray:none;stroke-dashoffset:0;stroke-opacity:1;color-rendering:auto;image-rendering:auto;shape-rendering:auto;text-rendering:auto;enable-background:accumulate;stop-color:#000000;stop-opacity:1;stroke:none;opacity:1"
     d="m 417.84,448 c -4.26222,0.007 -8.34987,-1.69249 -11.35,-4.72 L 40.65,75.26 C 34.420224,68.991564 34.451573,58.859777 40.720005,52.630005 46.988437,46.400233 57.120224,46.431564 63.35,52.7 l 365.83,368 c 10.06493,10.08932 2.91121,27.31123 -11.34,27.3 z M 364.92,80 c -48.09,0 -80,29.55 -96.92,51 -16.88,-21.48 -48.83,-51 -96.92,-51 -10.50023,-0.0073 -20.94474,1.525673 -31,4.55 L 168,112 c 22.26,0 45.81,9 63.94,26.67 8.60067,8.37759 15.92839,17.96932 21.75,28.47 5.90422,11.76394 22.69578,11.76394 28.6,0 5.82447,-10.51611 13.15912,-20.12157 21.77,-28.51 C 322.19,121 342.66,112 364.92,112 c 43.15,0 78.62,36.33 79.07,81 0.54,53.69 -22.75,99.55 -57.38,139.52 l 22.63,22.77 c 3,-3.44 5.7,-6.64 8.14,-9.6 40,-48.75 59.15,-98.8 58.61,-153 C 475.37,130.52 425.54,80 364.92,80 Z M 268,432 C 180.38,372.51 91,297.6 92,193 c 0.0638,-6.19401 0.815064,-12.36179 2.24,-18.39 L 69,149.14 c -5.794852,13.77494 -8.851746,28.54653 -9,43.49 -0.54,54.22 18.63,104.27 58.61,153 18.77,22.87 52.8,59.45 131.39,112.8 10.84836,7.43497 25.15164,7.43497 36,0 20.35,-13.81 37.7,-26.5 52.58,-38.11 L 315.92,397.51 C 300.25,409.6 284.09,421.05 268,432 Z"
     id="path4" />
</svg>
