<?xml version="1.0" encoding="utf-8"?>
<!-- Generator: Adobe Illustrator 24.0.0, SVG Export Plug-In . SVG Version: 6.00 Build 0)  -->
<svg version="1.1" id="Layer_1" xmlns="http://www.w3.org/2000/svg" xmlns:xlink="http://www.w3.org/1999/xlink" x="0px" y="0px"
	 viewBox="0 0 512 512" style="enable-background:new 0 0 512 512;" xml:space="preserve">
<title>ionicons-v5-f</title>
<g>
	<path d="M256,464c-114.7,0-208-93.3-208-208S141.3,48,256,48s208,93.3,208,208S370.7,464,256,464z M256,80c-97,0-176,79-176,176
		s79,176,176,176s176-79,176-176S353,80,256,80z"/>
</g>
<g>
	<path d="M333.2,297.7c18.3-23.4,27.1-47.4,26.8-73.4c-0.3-31.1-25.2-56.3-55.5-56.3c-20.4,0-35,10.6-44.1,20.4
		c-2.2,2.4-6,2.5-8.4,0.3c-0.1-0.1-0.2-0.2-0.3-0.3c-9.1-9.8-23.7-20.4-44.1-20.4l-1.5,0c-2.2,0-4,1.9-3.9,4.1c0,1,0.4,2,1.2,2.8
		l124,123.2c1.5,1.6,4,1.6,5.5,0.1C332.9,298,333.1,297.9,333.2,297.7z"/>
</g>
<g>
	<path d="M158.8,221c-1.6-1.6-4.1-1.6-5.7,0c-0.7,0.7-1.1,1.7-1.2,2.7c0,0.2,0,0.4,0,0.6c-0.3,27.1,9.3,52.1,29.3,76.5
		c9.4,11.4,26.4,29.7,65.7,56.4c5.4,3.7,12.6,3.7,18,0c5.1-3.5,9.9-6.8,14.3-10c1.8-1.3,2.2-3.8,0.9-5.6c-0.1-0.2-0.3-0.3-0.4-0.5
		L158.8,221z"/>
</g>
<g>
	<path d="M336,368c-4.2,0-8.3-1.7-11.3-4.7l-176-176c-6.1-6.4-5.8-16.5,0.6-22.6c6.2-5.9,15.9-5.9,22,0l176,176
		c6.2,6.3,6.2,16.4,0,22.6C344.3,366.3,340.2,368,336,368z"/>
</g>
</svg>
