<?xml version="1.0" encoding="UTF-8" standalone="no"?>
<svg
   xmlns:dc="http://purl.org/dc/elements/1.1/"
   xmlns:cc="http://creativecommons.org/ns#"
   xmlns:rdf="http://www.w3.org/1999/02/22-rdf-syntax-ns#"
   xmlns:svg="http://www.w3.org/2000/svg"
   xmlns="http://www.w3.org/2000/svg"
   xmlns:sodipodi="http://sodipodi.sourceforge.net/DTD/sodipodi-0.dtd"
   xmlns:inkscape="http://www.inkscape.org/namespaces/inkscape"
   class="ionicon"
   viewBox="0 0 512 512"
   version="1.1"
   id="svg6"
   sodipodi:docname="help-buoy.svg"
   inkscape:version="1.0.2 (e86c8708, 2021-01-15)">
  <metadata
     id="metadata12">
    <rdf:RDF>
      <cc:Work
         rdf:about="">
        <dc:format>image/svg+xml</dc:format>
        <dc:type
           rdf:resource="http://purl.org/dc/dcmitype/StillImage" />
      </cc:Work>
    </rdf:RDF>
  </metadata>
  <defs
     id="defs10" />
  <sodipodi:namedview
     pagecolor="#ffffff"
     bordercolor="#666666"
     borderopacity="1"
     objecttolerance="10"
     gridtolerance="10"
     guidetolerance="10"
     inkscape:pageopacity="0"
     inkscape:pageshadow="2"
     inkscape:window-width="689"
     inkscape:window-height="480"
     id="namedview8"
     showgrid="false"
     inkscape:zoom="1.3027344"
     inkscape:cx="256"
     inkscape:cy="256"
     inkscape:window-x="44"
     inkscape:window-y="25"
     inkscape:window-maximized="0"
     inkscape:current-layer="svg6" />
  <title
     id="title2">Help Buoy</title>
  <path
     style="color:#000000;font-style:normal;font-variant:normal;font-weight:normal;font-stretch:normal;font-size:medium;line-height:normal;font-family:sans-serif;font-variant-ligatures:normal;font-variant-position:normal;font-variant-caps:normal;font-variant-numeric:normal;font-variant-alternates:normal;font-variant-east-asian:normal;font-feature-settings:normal;font-variation-settings:normal;text-indent:0;text-align:start;text-decoration:none;text-decoration-line:none;text-decoration-style:solid;text-decoration-color:#000000;letter-spacing:normal;word-spacing:normal;text-transform:none;writing-mode:lr-tb;direction:ltr;text-orientation:mixed;dominant-baseline:auto;baseline-shift:baseline;text-anchor:start;white-space:normal;shape-padding:0;shape-margin:0;inline-size:0;clip-rule:nonzero;display:inline;overflow:visible;visibility:visible;isolation:auto;mix-blend-mode:normal;color-interpolation:sRGB;color-interpolation-filters:linearRGB;solid-color:#000000;solid-opacity:1;vector-effect:none;fill:#000000;fill-opacity:1;fill-rule:nonzero;stroke-width:1;stroke-linecap:butt;stroke-linejoin:miter;stroke-miterlimit:4;stroke-dasharray:none;stroke-dashoffset:0;stroke-opacity:1;color-rendering:auto;image-rendering:auto;shape-rendering:auto;text-rendering:auto;enable-background:accumulate;stop-color:#000000;stop-opacity:1;stroke:none;opacity:1"
     d="M 414.39,97.61 C 327.04103,9.3968154 184.61055,9.0463935 96.828473,96.828473 9.0463935,184.61055 9.3968154,327.04103 97.61,414.39 c 87.34897,88.21318 229.77945,88.56361 317.56153,0.78153 C 502.95361,327.38945 502.60318,184.95897 414.39,97.61 Z M 192.13,260.18 c -1.73782,-26.5909 13.18269,-51.47632 37.4555,-62.47092 24.27274,-10.99458 52.81733,-5.79712 71.65994,13.04548 18.8426,18.84261 24.04006,47.3872 13.04548,71.65994 -10.9946,24.27281 -35.88002,39.19332 -62.47092,37.4555 -32.04441,-2.12507 -57.56493,-27.64559 -59.69,-59.69 z m 240,-66.64 -96.37,5.84 c -1.33886,0.0705 -2.6262,-0.52452 -3.44,-1.59 -5.19114,-6.8017 -11.2683,-12.87886 -18.07,-18.07 -1.06548,-0.8138 -1.6605,-2.10114 -1.59,-3.44 l 5.84,-96.37 c 0.15362,-2.702528 2.89108,-4.475309 5.42,-3.51 51.46005,19.602321 92.09611,60.25293 111.68,111.72 0.96531,2.52892 -0.80747,5.26638 -3.51,5.42 z M 193.54,79.91 l 5.84,96.37 c 0.0705,1.33886 -0.52452,2.6262 -1.59,3.44 -6.8017,5.19114 -12.87886,11.2683 -18.07,18.07 -0.8138,1.06548 -2.10114,1.6605 -3.44,1.59 l -96.37,-5.84 c -2.702528,-0.15362 -4.475309,-2.89108 -3.51,-5.42 19.592818,-51.47523 60.24477,-92.127182 111.72,-111.72 2.52892,-0.965309 5.26638,0.807472 5.42,3.51 z m -113.63,238.55 96.37,-5.84 c 1.33886,-0.0705 2.6262,0.52452 3.44,1.59 5.19114,6.8017 11.2683,12.87886 18.07,18.07 1.06548,0.8138 1.6605,2.10114 1.59,3.44 l -5.84,96.37 c -0.15362,2.70253 -2.89108,4.47531 -5.42,3.51 C 136.64477,416.00718 95.992818,375.35523 76.4,323.88 c -0.965309,-2.52892 0.807472,-5.26638 3.51,-5.42 z m 238.55,113.63 -5.84,-96.37 c -0.0705,-1.33886 0.52452,-2.6262 1.59,-3.44 6.8017,-5.19114 12.87886,-11.2683 18.07,-18.07 0.8138,-1.06548 2.10114,-1.6605 3.44,-1.59 l 96.37,5.84 c 2.70253,0.15362 4.47531,2.89108 3.51,5.42 -19.59282,51.47523 -60.24477,92.12718 -111.72,111.72 -2.52892,0.96531 -5.26638,-0.80747 -5.42,-3.51 z"
     id="path4" />
</svg>
