<?xml version="1.0" encoding="utf-8"?>
<!-- Generator: Adobe Illustrator 24.0.0, SVG Export Plug-In . SVG Version: 6.00 Build 0)  -->
<svg version="1.1" id="Layer_1" xmlns="http://www.w3.org/2000/svg" xmlns:xlink="http://www.w3.org/1999/xlink" x="0px" y="0px"
	 viewBox="0 0 512 512" style="enable-background:new 0 0 512 512;" xml:space="preserve">
<title>ionicons-v5-e</title>
<g>
	<path d="M268,336h-40v-20c0-33.4,12.7-53.4,50.3-79.3c34.3-23.6,53.7-38.6,53.7-72.7c0-23.5-12.9-41.3-39.3-54.2
		c-5.7-2.8-18.7-6-36.4-5.8c-20.9,0.3-37.3,5.5-50,16C180,141.6,180,158.5,180,164v20h-40v-20c0-27.4,13.7-52.6,40.8-74.9
		c19.7-16.2,44.9-24.7,74.9-25.1c21.3-0.3,41.2,3.3,54.5,9.8c15.3,7.5,28,16.7,37.7,27.5c15.9,17.6,24,38.7,24,62.7
		c0,56.8-37.7,82.8-71,105.7c-31.5,21.7-33,30.8-33,46.3V336z"/>
</g>
<g>
	<path d="M223.5,368h49c1.9,0,3.5,1.6,3.5,3.5v49c0,1.9-1.6,3.5-3.5,3.5h-49c-1.9,0-3.5-1.6-3.5-3.5v-49
		C220,369.6,221.6,368,223.5,368z"/>
</g>
</svg>
