<?xml version="1.0" encoding="UTF-8"?>
<svg width="512px" height="512px" viewBox="0 0 512 512" version="1.1" xmlns="http://www.w3.org/2000/svg" xmlns:xlink="http://www.w3.org/1999/xlink">
    <!-- Generator: Sketch 62 (91390) - https://sketch.com -->
    <title>Artboard</title>
    <desc>Created with Sketch.</desc>
    <g id="Artboard" stroke="none" stroke-width="1" fill="none" fill-rule="evenodd">
        <g id="help-circle-sharp" transform="translate(64.000000, 64.000000)" fill="#000000" fill-rule="nonzero">
            <path d="M192,0 C86,0 0,86 0,192 C0,298 86,384 192,384 C298,384 384,298 384,192 C384,86 298,0 192,0 Z M202.44,302 L172.23,302 C170.814535,301.994492 169.67,300.845476 169.67,299.43 L169.67,269.23 C169.67,267.814524 170.814535,266.665508 172.23,266.66 L202.44,266.66 C203.855465,266.665508 205,267.814524 205,269.23 L205,299.43 C205,300.845476 203.855465,301.994492 202.44,302 Z M219.44,203 C203.23,213.88 201,223.85 201,233 L201,244 C201,245.656854 199.656854,247 198,247 L176,247 C174.343146,247 173,245.656854 173,244 L173,233 C173,211.09 183.08,193.67 203.82,179.74 C223.1,166.8 234,158.6 234,140.57 C234,128.31 227,119 212.51,112.11 C209.1,110.49 201.51,108.91 192.17,109.02 C180.45,109.17 171.35,111.97 164.34,117.61 C151.12,128.25 150,139.84 150,140 C149.45104,143.399359 149.170175,146.836615 149.16,150.28 C149.16,151.936854 147.816854,153.28 146.16,153.28 L124.91,153.28 C123.367026,153.288258 122.069421,152.124739 121.91,150.59 C121.549951,146.59658 121.580094,142.57757 122,138.59 C122.22,136.16 123.8,114.27 146.77,95.79 C158.68,86.21 173.83,81.23 191.77,81.01 C204.47,80.86 216.4,83.01 224.49,86.83 C248.7,98.34 262,117.43 262,140.57 C262,174.4 239.39,189.59 219.44,203 Z" id="Shape"></path>
        </g>
    </g>
</svg>