<?xml version="1.0" encoding="utf-8"?>
<!-- Generator: Adobe Illustrator 24.0.0, SVG Export Plug-In . SVG Version: 6.00 Build 0)  -->
<svg version="1.1" id="Layer_1" xmlns="http://www.w3.org/2000/svg" xmlns:xlink="http://www.w3.org/1999/xlink" x="0px" y="0px"
	 viewBox="0 0 512 512" style="enable-background:new 0 0 512 512;" xml:space="preserve">
<title>ionicons-v5-e</title>
<g>
	<path d="M248,344c-11,0-20-9-20-20c0-36.4,15.5-63.4,50.3-87.3c34.3-23.6,53.7-38.6,53.7-72.7c0-23.5-12.9-41.3-39.3-54.2
		c-5.7-2.8-18.7-6-36.4-5.8c-20.9,0.3-37.3,5.5-50,16C182,140,180,164.1,180,165.1l0-0.2l-40-1.7c0.1-1.7,2.3-42.3,40.8-74
		c19.7-16.2,44.9-24.7,74.9-25.1c21.3-0.3,41.2,3.3,54.5,9.8c15.3,7.5,28,16.7,37.7,27.5c15.9,17.6,24,38.7,24,62.7
		c0,56.8-37.7,82.8-71,105.7c-27.5,18.9-33,34.8-33,54.3C268,335,259,344,248,344z"/>
</g>
<g>
	<circle cx="248" cy="400" r="32"/>
</g>
</svg>
