<?xml version="1.0" encoding="UTF-8" standalone="no"?>
<svg
   xmlns:dc="http://purl.org/dc/elements/1.1/"
   xmlns:cc="http://creativecommons.org/ns#"
   xmlns:rdf="http://www.w3.org/1999/02/22-rdf-syntax-ns#"
   xmlns:svg="http://www.w3.org/2000/svg"
   xmlns="http://www.w3.org/2000/svg"
   xmlns:sodipodi="http://sodipodi.sourceforge.net/DTD/sodipodi-0.dtd"
   xmlns:inkscape="http://www.inkscape.org/namespaces/inkscape"
   class="ionicon"
   viewBox="0 0 512 512"
   version="1.1"
   id="svg16"
   sodipodi:docname="help-circle-sharp.svg"
   inkscape:version="1.0.2 (e86c8708, 2021-01-15)">
  <metadata
     id="metadata22">
    <rdf:RDF>
      <cc:Work
         rdf:about="">
        <dc:format>image/svg+xml</dc:format>
        <dc:type
           rdf:resource="http://purl.org/dc/dcmitype/StillImage" />
      </cc:Work>
    </rdf:RDF>
  </metadata>
  <defs
     id="defs20" />
  <sodipodi:namedview
     pagecolor="#ffffff"
     bordercolor="#666666"
     borderopacity="1"
     objecttolerance="10"
     gridtolerance="10"
     guidetolerance="10"
     inkscape:pageopacity="0"
     inkscape:pageshadow="2"
     inkscape:window-width="709"
     inkscape:window-height="480"
     id="namedview18"
     showgrid="false"
     inkscape:zoom="0.3"
     inkscape:cx="256"
     inkscape:cy="256"
     inkscape:window-x="85"
     inkscape:window-y="51"
     inkscape:window-maximized="0"
     inkscape:current-layer="svg16" />
  <title
     id="title10">Help Circle</title>
  <path
     d="M288.55 150.84c-8.09-3.86-20-6-32.72-5.82-18 .22-33.13 5.2-45 14.78-23 18.48-24.55 40.37-24.77 42.8a61.69 61.69 0 00-.09 12 3 3 0 003 2.69h21.23a3 3 0 003-3A65.7 65.7 0 01214 204c0-.11 1.14-11.7 14.36-22.34 7-5.64 16.11-8.44 27.83-8.59 9.32-.11 16.93 1.47 20.34 3.09C291 183 298 192.31 298 204.57c0 18-10.9 26.23-30.18 39.18C247.08 257.68 237 275.1 237 297v11a3 3 0 003 3h22a3 3 0 003-3v-11c0-9.16 2.23-19.13 18.44-30 19.95-13.41 42.56-28.6 42.56-62.43 0-23.14-13.3-42.23-37.45-53.73z"
     fill="none"
     id="path12" />
  <path
     style="color:#000000;font-style:normal;font-variant:normal;font-weight:normal;font-stretch:normal;font-size:medium;line-height:normal;font-family:sans-serif;font-variant-ligatures:normal;font-variant-position:normal;font-variant-caps:normal;font-variant-numeric:normal;font-variant-alternates:normal;font-variant-east-asian:normal;font-feature-settings:normal;font-variation-settings:normal;text-indent:0;text-align:start;text-decoration:none;text-decoration-line:none;text-decoration-style:solid;text-decoration-color:#000000;letter-spacing:normal;word-spacing:normal;text-transform:none;writing-mode:lr-tb;direction:ltr;text-orientation:mixed;dominant-baseline:auto;baseline-shift:baseline;text-anchor:start;white-space:normal;shape-padding:0;shape-margin:0;inline-size:0;clip-rule:nonzero;display:inline;overflow:visible;visibility:visible;isolation:auto;mix-blend-mode:normal;color-interpolation:sRGB;color-interpolation-filters:linearRGB;solid-color:#000000;solid-opacity:1;vector-effect:none;fill:#000000;fill-opacity:1;fill-rule:nonzero;stroke-width:1;stroke-linecap:butt;stroke-linejoin:miter;stroke-miterlimit:4;stroke-dasharray:none;stroke-dashoffset:0;stroke-opacity:1;color-rendering:auto;image-rendering:auto;shape-rendering:auto;text-rendering:auto;enable-background:accumulate;stop-color:#000000;stop-opacity:1;stroke:none;opacity:1"
     d="M 256,64 C 150,64 64,150 64,256 64,362 150,448 256,448 362,448 448,362 448,256 448,150 362,64 256,64 Z m 10.44,302 h -30.21 c -1.41547,-0.006 -2.56001,-1.15452 -2.56,-2.57 v -30.2 c -10e-6,-1.41548 1.14453,-2.56449 2.56,-2.57 h 30.21 c 1.41547,0.006 2.56001,1.15452 2.56,2.57 v 30.2 c 10e-6,1.41548 -1.14453,2.56449 -2.56,2.57 z m 17,-99 C 267.23,277.88 265,287.85 265,297 v 11 c 0,1.65685 -1.34315,3 -3,3 h -22 c -1.65685,0 -3,-1.34315 -3,-3 v -11 c 0,-21.91 10.08,-39.33 30.82,-53.26 C 287.1,230.8 298,222.6 298,204.57 c 0,-12.26 -7,-21.57 -21.49,-28.46 -3.41,-1.62 -11,-3.2 -20.34,-3.09 -11.72,0.15 -20.82,2.95 -27.83,8.59 C 215.12,192.25 214,203.84 214,204 c -0.54896,3.39936 -0.82982,6.83662 -0.84,10.28 0,1.65685 -1.34315,3 -3,3 h -21.25 c -1.54297,0.008 -2.84058,-1.15526 -3,-2.69 -0.36005,-3.99342 -0.32991,-8.01243 0.09,-12 0.22,-2.43 1.8,-24.32 24.77,-42.8 11.91,-9.58 27.06,-14.56 45,-14.78 12.7,-0.15 24.63,2 32.72,5.82 24.21,11.51 37.51,30.6 37.51,53.74 0,33.83 -22.61,49.02 -42.56,62.43 z"
     id="path14" />
</svg>
