<?xml version="1.0" encoding="UTF-8" standalone="no"?>
<svg
   xmlns:dc="http://purl.org/dc/elements/1.1/"
   xmlns:cc="http://creativecommons.org/ns#"
   xmlns:rdf="http://www.w3.org/1999/02/22-rdf-syntax-ns#"
   xmlns:svg="http://www.w3.org/2000/svg"
   xmlns="http://www.w3.org/2000/svg"
   xmlns:sodipodi="http://sodipodi.sourceforge.net/DTD/sodipodi-0.dtd"
   xmlns:inkscape="http://www.inkscape.org/namespaces/inkscape"
   class="ionicon"
   viewBox="0 0 512 512"
   version="1.1"
   id="svg10"
   sodipodi:docname="help-buoy-outline.svg"
   inkscape:version="1.0.2 (e86c8708, 2021-01-15)">
  <metadata
     id="metadata16">
    <rdf:RDF>
      <cc:Work
         rdf:about="">
        <dc:format>image/svg+xml</dc:format>
        <dc:type
           rdf:resource="http://purl.org/dc/dcmitype/StillImage" />
      </cc:Work>
    </rdf:RDF>
  </metadata>
  <defs
     id="defs14" />
  <sodipodi:namedview
     pagecolor="#ffffff"
     bordercolor="#666666"
     borderopacity="1"
     objecttolerance="10"
     gridtolerance="10"
     guidetolerance="10"
     inkscape:pageopacity="0"
     inkscape:pageshadow="2"
     inkscape:window-width="689"
     inkscape:window-height="480"
     id="namedview12"
     showgrid="false"
     inkscape:zoom="1.3027344"
     inkscape:cx="256"
     inkscape:cy="256"
     inkscape:window-x="44"
     inkscape:window-y="25"
     inkscape:window-maximized="0"
     inkscape:current-layer="svg10" />
  <title
     id="title2">Help Buoy</title>
  <path
     style="color:#000000;font-style:normal;font-variant:normal;font-weight:normal;font-stretch:normal;font-size:medium;line-height:normal;font-family:sans-serif;font-variant-ligatures:normal;font-variant-position:normal;font-variant-caps:normal;font-variant-numeric:normal;font-variant-alternates:normal;font-variant-east-asian:normal;font-feature-settings:normal;font-variation-settings:normal;text-indent:0;text-align:start;text-decoration:none;text-decoration-line:none;text-decoration-style:solid;text-decoration-color:#000000;letter-spacing:normal;word-spacing:normal;text-transform:none;writing-mode:lr-tb;direction:ltr;text-orientation:mixed;dominant-baseline:auto;baseline-shift:baseline;text-anchor:start;white-space:normal;shape-padding:0;shape-margin:0;inline-size:0;clip-rule:nonzero;display:inline;overflow:visible;visibility:visible;isolation:auto;mix-blend-mode:normal;color-interpolation:sRGB;color-interpolation-filters:linearRGB;solid-color:#000000;solid-opacity:1;vector-effect:none;fill:currentColor;fill-opacity:1;fill-rule:nonzero;stroke:none;stroke-linecap:round;stroke-linejoin:round;stroke-miterlimit:4;stroke-dasharray:none;stroke-dashoffset:0;stroke-opacity:1;color-rendering:auto;image-rendering:auto;shape-rendering:auto;text-rendering:auto;enable-background:accumulate;stop-color:#000000;stop-opacity:1;opacity:1"
     d="M 256 32 C 132.47773 32 32 132.47773 32 256 C 32 379.52227 132.47773 480 256 480 C 379.52227 480 480 379.52227 480 256 C 480 132.47773 379.52227 32 256 32 z M 256 64 C 362.22819 64 448 149.77181 448 256 C 448 362.22819 362.22819 448 256 448 C 149.77181 448 64 362.22819 64 256 C 64 149.77181 149.77181 64 256 64 z "
     id="circle4" />
  <path
     style="color:#000000;font-style:normal;font-variant:normal;font-weight:normal;font-stretch:normal;font-size:medium;line-height:normal;font-family:sans-serif;font-variant-ligatures:normal;font-variant-position:normal;font-variant-caps:normal;font-variant-numeric:normal;font-variant-alternates:normal;font-variant-east-asian:normal;font-feature-settings:normal;font-variation-settings:normal;text-indent:0;text-align:start;text-decoration:none;text-decoration-line:none;text-decoration-style:solid;text-decoration-color:#000000;letter-spacing:normal;word-spacing:normal;text-transform:none;writing-mode:lr-tb;direction:ltr;text-orientation:mixed;dominant-baseline:auto;baseline-shift:baseline;text-anchor:start;white-space:normal;shape-padding:0;shape-margin:0;inline-size:0;clip-rule:nonzero;display:inline;overflow:visible;visibility:visible;isolation:auto;mix-blend-mode:normal;color-interpolation:sRGB;color-interpolation-filters:linearRGB;solid-color:#000000;solid-opacity:1;vector-effect:none;fill:currentColor;fill-opacity:1;fill-rule:nonzero;stroke:none;stroke-linecap:round;stroke-linejoin:round;stroke-miterlimit:4;stroke-dasharray:none;stroke-dashoffset:0;stroke-opacity:1;color-rendering:auto;image-rendering:auto;shape-rendering:auto;text-rendering:auto;enable-background:accumulate;stop-color:#000000;stop-opacity:1;opacity:1"
     d="M 256 160 C 203.17018 160 160 203.17018 160 256 C 160 308.82982 203.17018 352 256 352 C 308.82982 352 352 308.82982 352 256 C 352 203.17018 308.82982 160 256 160 z M 256 192 C 291.53574 192 320 220.46426 320 256 C 320 291.53574 291.53574 320 256 320 C 220.46426 320 192 291.53574 192 256 C 192 220.46426 220.46426 192 256 192 z "
     id="circle6" />
  <path
     style="color:#000000;font-style:normal;font-variant:normal;font-weight:normal;font-stretch:normal;font-size:medium;line-height:normal;font-family:sans-serif;font-variant-ligatures:normal;font-variant-position:normal;font-variant-caps:normal;font-variant-numeric:normal;font-variant-alternates:normal;font-variant-east-asian:normal;font-feature-settings:normal;font-variation-settings:normal;text-indent:0;text-align:start;text-decoration:none;text-decoration-line:none;text-decoration-style:solid;text-decoration-color:#000000;letter-spacing:normal;word-spacing:normal;text-transform:none;writing-mode:lr-tb;direction:ltr;text-orientation:mixed;dominant-baseline:auto;baseline-shift:baseline;text-anchor:start;white-space:normal;shape-padding:0;shape-margin:0;inline-size:0;clip-rule:nonzero;display:inline;overflow:visible;visibility:visible;isolation:auto;mix-blend-mode:normal;color-interpolation:sRGB;color-interpolation-filters:linearRGB;solid-color:#000000;solid-opacity:1;vector-effect:none;fill:currentColor;fill-opacity:1;fill-rule:nonzero;stroke:none;stroke-linecap:round;stroke-linejoin:round;stroke-miterlimit:4;stroke-dasharray:none;stroke-dashoffset:0;stroke-opacity:1;color-rendering:auto;image-rendering:auto;shape-rendering:auto;text-rendering:auto;enable-background:accumulate;stop-color:#000000;stop-opacity:1;opacity:1"
     d="M 207.94727 38 A 16 16 0 0 0 207.03125 38.029297 A 16 16 0 0 0 192.0293 54.96875 L 200.0293 186.96875 A 16 16 0 0 0 216.96875 201.9707 A 16 16 0 0 0 231.9707 185.03125 L 223.9707 53.03125 A 16 16 0 0 0 207.94727 38 z M 303.95898 38 A 16 16 0 0 0 288.0293 53.03125 L 280.0293 185.03125 A 16 16 0 0 0 295.03125 201.9707 A 16 16 0 0 0 311.9707 186.96875 L 319.9707 54.96875 A 16 16 0 0 0 304.96875 38.029297 A 16 16 0 0 0 303.95898 38 z M 53.958984 192 A 16 16 0 0 0 38.029297 207.03125 A 16 16 0 0 0 53.03125 223.9707 L 185.03125 231.9707 A 16 16 0 0 0 201.9707 216.96875 A 16 16 0 0 0 186.96875 200.0293 L 54.96875 192.0293 A 16 16 0 0 0 53.958984 192 z M 457.94727 192 A 16 16 0 0 0 457.03125 192.0293 L 325.03125 200.0293 A 16 16 0 0 0 310.0293 216.96875 A 16 16 0 0 0 326.96875 231.9707 L 458.96875 223.9707 A 16 16 0 0 0 473.9707 207.03125 A 16 16 0 0 0 457.94727 192 z M 185.94727 280 A 16 16 0 0 0 185.03125 280.0293 L 53.03125 288.0293 A 16 16 0 0 0 38.029297 304.96875 A 16 16 0 0 0 54.96875 319.9707 L 186.96875 311.9707 A 16 16 0 0 0 201.9707 295.03125 A 16 16 0 0 0 185.94727 280 z M 325.95898 280 A 16 16 0 0 0 310.0293 295.03125 A 16 16 0 0 0 325.03125 311.9707 L 457.03125 319.9707 A 16 16 0 0 0 473.9707 304.96875 A 16 16 0 0 0 458.96875 288.0293 L 326.96875 280.0293 A 16 16 0 0 0 325.95898 280 z M 215.95898 310 A 16 16 0 0 0 200.0293 325.03125 L 192.0293 457.03125 A 16 16 0 0 0 207.03125 473.9707 A 16 16 0 0 0 223.9707 458.96875 L 231.9707 326.96875 A 16 16 0 0 0 216.96875 310.0293 A 16 16 0 0 0 215.95898 310 z M 295.94727 310 A 16 16 0 0 0 295.03125 310.0293 A 16 16 0 0 0 280.0293 326.96875 L 288.0293 458.96875 A 16 16 0 0 0 304.96875 473.9707 A 16 16 0 0 0 319.9707 457.03125 L 311.9707 325.03125 A 16 16 0 0 0 295.94727 310 z "
     id="path8" />
</svg>
