<?xml version="1.0" encoding="utf-8"?>
<!-- Generator: Adobe Illustrator 24.0.0, SVG Export Plug-In . SVG Version: 6.00 Build 0)  -->
<svg version="1.1" id="Layer_1" xmlns="http://www.w3.org/2000/svg" xmlns:xlink="http://www.w3.org/1999/xlink" x="0px" y="0px"
	 viewBox="0 0 512 512" style="enable-background:new 0 0 512 512;" xml:space="preserve">
<title>ionicons-v5-e</title>
<g>
	<path d="M256,448c-105.9,0-192-86.1-192-192S150.1,64,256,64s192,86.1,192,192S361.9,448,256,448z M256,96
		c-88.2,0-160,71.8-160,160c0,88.2,71.8,160,160,160c88.2,0,160-71.8,160-160C416,167.8,344.2,96,256,96z"/>
</g>
<g>
	<path d="M251,310c-7.7,0-14-6.3-14-14c0-21.9,10.1-39.4,30.8-53.3c19.3-12.9,30.2-21.1,30.2-39.2c0-12.3-7-21.6-21.5-28.4
		c-3.4-1.6-11-3.2-20.3-3.1c-11.7,0.2-20.8,3-27.8,8.6c-13.2,10.6-14.3,22.1-14.4,22.6c0-0.2,0-0.3,0-0.3l-28-1.3
		c0.1-2.4,1.8-24.3,24.8-42.8c11.9-9.6,27-14.5,45-14.8c12.7-0.2,24.7,2,32.8,5.8c24.2,11.5,37.5,30.6,37.5,53.7
		c0,33.9-23.6,49.7-42.6,62.4c-16.2,10.9-18.4,20.9-18.4,30C265,303.7,258.7,310,251,310z"/>
</g>
<g>
	<circle cx="250" cy="348" r="20"/>
</g>
</svg>
