<?xml version="1.0" encoding="UTF-8"?>
<svg width="512px" height="512px" viewBox="0 0 512 512" version="1.1" xmlns="http://www.w3.org/2000/svg" xmlns:xlink="http://www.w3.org/1999/xlink">
    <!-- Generator: Sketch 62 (91390) - https://sketch.com -->
    <title>Artboard</title>
    <desc>Created with Sketch.</desc>
    <g id="Artboard" stroke="none" stroke-width="1" fill="none" fill-rule="evenodd">
        <g id="help-buoy-outline" transform="translate(32.000000, 32.000000)" fill="#000000" fill-rule="nonzero">
            <path d="M224,0 C283.8,0 340.1,23.3 382.4,65.6 C424.7,107.9 448,164.2 448,224 C448,283.8 424.7,340.1 382.4,382.4 C340.1,424.7 283.8,448 224,448 C164.2,448 107.9,424.7 65.6,382.4 C23.3,340.1 0,283.8 0,224 C0,164.2 23.3,107.9 65.6,65.6 C107.9,23.3 164.2,0 224,0 Z M198.591093,316.58186 L192.720917,413.455531 C202.90212,415.129372 213.350953,416 224,416 C234.614807,416 245.030685,415.134962 255.180867,413.471652 L249.310974,316.608749 C241.243123,318.819251 232.7558,320 224,320 C215.208765,320 206.688184,318.809675 198.591093,316.58186 Z M280.417888,301.609182 L286.713476,405.491488 C342.20126,386.274462 386.207585,342.290746 405.455501,286.81729 L301.535735,280.518468 C295.631833,288.59244 288.499748,295.71548 280.417888,301.609182 Z M146.459899,280.512496 L42.5424215,286.811302 C61.7780517,342.255309 105.745551,386.222591 161.189696,405.457925 L167.487504,301.540101 C159.442594,295.658395 152.341605,288.557406 146.459899,280.512496 Z M224,160 C188.7,160 160,188.7 160,224 C160,259.3 188.7,288 224,288 C259.3,288 288,259.3 288,224 C288,188.7 259.3,160 224,160 Z M413.470666,192.813119 L316.607106,198.683029 C318.818666,206.752671 320,215.242031 320,224 C320,232.793766 318.808989,241.316723 316.579936,249.4159 L413.454377,255.286098 C415.128972,245.102679 416,234.651493 416,224 C416,213.383097 415.13462,202.965201 413.470666,192.813119 Z M32,224 C32,234.649396 32.8706853,245.098565 34.544634,255.280085 L131.418415,249.409906 C129.190423,241.312517 128,232.791597 128,224 C128,215.2442 129.180749,206.756877 131.391251,198.689026 L34.5283483,192.819133 C32.8650384,202.969315 32,213.385193 32,224 Z M42.5085119,161.286524 L146.390818,167.582112 C152.284762,159.499919 159.408146,152.367581 167.482527,146.463538 L161.183708,42.544153 C105.709781,61.7918872 61.7256529,105.798407 42.5085119,161.286524 Z M286.719466,42.5105866 L280.42287,146.394451 C288.53456,152.310699 295.689301,159.46544 301.605549,167.57713 L405.489413,161.280534 C386.260001,105.762961 342.237039,61.7399988 286.719466,42.5105866 Z M224,32 C213.348857,32 202.898007,32.870971 192.714904,34.5454579 L198.585099,131.419789 C206.683978,129.190913 215.206595,128 224,128 C232.757969,128 241.247329,129.181334 249.316971,131.392894 L255.186881,34.5293339 C245.034799,32.8653802 234.616903,32 224,32 Z" id="Combined-Shape"></path>
        </g>
    </g>
</svg>