<?xml version="1.0" encoding="UTF-8"?>
<svg width="512px" height="512px" viewBox="0 0 512 512" version="1.1" xmlns="http://www.w3.org/2000/svg" xmlns:xlink="http://www.w3.org/1999/xlink">
    <!-- Generator: Sketch 62 (91390) - https://sketch.com -->
    <title>Artboard</title>
    <desc>Created with Sketch.</desc>
    <g id="Artboard" stroke="none" stroke-width="1" fill="none" fill-rule="evenodd">
        <g id="home-outline" transform="translate(15.000000, 32.000000)" fill="#000000" fill-rule="nonzero">
            <path d="M241.1,0 C249.8,0 257.8,3.2 263.2,8.6 L320.999825,63.929 L321,32 C321,23.2 328.2,16 337,16 L385,16 C393.8,16 401,23.2 401,32 L400.999825,140.51 L476.1,212.4 C482.5,218.5 482.7,228.6 476.6,235 C470.5,241.4 460.4,241.6 454,235.5 L432.999825,215.408 L433,416 C433,433.6 418.6,448 401,448 L305,448 C296.2,448 289,440.8 289,432 L289,296 C289,291.6 285.4,288 281,288 L201,288 C196.6,288 193,291.6 193,296 L193,432 C193,440.8 185.8,448 177,448 L81,448 C63.4,448 49,433.6 49,416 L48.9998253,215.585 L28.1,235.6 C25,238.5 21,240 17,240 C12.8,240 8.6,238.3 5.4,235.1 C-0.7,228.7 -0.5,218.6 5.9,212.5 L218.8,8.6 C224.092,3.21 231.97708,0.12496 240.478737,0.0037144 L241,0 C241,0 241,0 241.1,0 Z M241.3,32 L240.7,32 L240.7,32 L80.9998253,184.939 L81,416 L161,416 L161,296 C161,273.9 178.9,256 201,256 L281,256 C303.1,256 321,273.9 321,296 L321,416 L401,416 L400.999825,184.792 L241.3,32 Z M369,48 L353,48 L352.999825,94.562 L368.999825,109.878 L369,48 Z" id="Combined-Shape"></path>
        </g>
    </g>
</svg>