<?xml version="1.0" encoding="UTF-8" standalone="no"?>
<svg
   xmlns:dc="http://purl.org/dc/elements/1.1/"
   xmlns:cc="http://creativecommons.org/ns#"
   xmlns:rdf="http://www.w3.org/1999/02/22-rdf-syntax-ns#"
   xmlns:svg="http://www.w3.org/2000/svg"
   xmlns="http://www.w3.org/2000/svg"
   xmlns:sodipodi="http://sodipodi.sourceforge.net/DTD/sodipodi-0.dtd"
   xmlns:inkscape="http://www.inkscape.org/namespaces/inkscape"
   class="ionicon"
   viewBox="0 0 512 512"
   version="1.1"
   id="svg8"
   sodipodi:docname="hourglass-outline.svg"
   inkscape:version="1.0.2 (e86c8708, 2021-01-15)">
  <metadata
     id="metadata14">
    <rdf:RDF>
      <cc:Work
         rdf:about="">
        <dc:format>image/svg+xml</dc:format>
        <dc:type
           rdf:resource="http://purl.org/dc/dcmitype/StillImage" />
      </cc:Work>
    </rdf:RDF>
  </metadata>
  <defs
     id="defs12" />
  <sodipodi:namedview
     pagecolor="#ffffff"
     bordercolor="#666666"
     borderopacity="1"
     objecttolerance="10"
     gridtolerance="10"
     guidetolerance="10"
     inkscape:pageopacity="0"
     inkscape:pageshadow="2"
     inkscape:window-width="689"
     inkscape:window-height="480"
     id="namedview10"
     showgrid="false"
     inkscape:zoom="1.3027344"
     inkscape:cx="256"
     inkscape:cy="256"
     inkscape:window-x="44"
     inkscape:window-y="25"
     inkscape:window-maximized="0"
     inkscape:current-layer="svg8" />
  <title
     id="title2">Hourglass</title>
  <path
     style="color:#000000;font-style:normal;font-variant:normal;font-weight:normal;font-stretch:normal;font-size:medium;line-height:normal;font-family:sans-serif;font-variant-ligatures:normal;font-variant-position:normal;font-variant-caps:normal;font-variant-numeric:normal;font-variant-alternates:normal;font-variant-east-asian:normal;font-feature-settings:normal;font-variation-settings:normal;text-indent:0;text-align:start;text-decoration:none;text-decoration-line:none;text-decoration-style:solid;text-decoration-color:#000000;letter-spacing:normal;word-spacing:normal;text-transform:none;writing-mode:lr-tb;direction:ltr;text-orientation:mixed;dominant-baseline:auto;baseline-shift:baseline;text-anchor:start;white-space:normal;shape-padding:0;shape-margin:0;inline-size:0;clip-rule:nonzero;display:inline;overflow:visible;visibility:visible;isolation:auto;mix-blend-mode:normal;color-interpolation:sRGB;color-interpolation-filters:linearRGB;solid-color:#000000;solid-opacity:1;vector-effect:none;fill:currentColor;fill-opacity:1;fill-rule:nonzero;stroke:none;stroke-linecap:round;stroke-linejoin:round;stroke-miterlimit:4;stroke-dasharray:none;stroke-dashoffset:0;stroke-opacity:1;color-rendering:auto;image-rendering:auto;shape-rendering:auto;text-rendering:auto;enable-background:accumulate;stop-color:#000000;stop-opacity:1;opacity:1"
     d="M 145.60938 32 C 117.039 32 93.319933 56.290308 96.287109 84.720703 L 96.285156 84.716797 C 103.00424 149.28146 130.24992 183.95893 153.87305 206.26562 C 165.68461 217.41897 176.21149 225.85015 182.69922 233.37305 C 189.18695 240.89595 192 246.27958 192 256 C 192 265.77133 189.17905 271.28516 182.75 278.88086 C 176.32095 286.47656 165.91403 294.98068 154.19922 306.17383 C 130.76961 328.56013 103.5777 363.10021 96.302734 427.13477 C 93.049131 455.71528 117.03624 480 145.60938 480 L 366.39062 480 C 394.96638 480 418.95036 455.71757 415.70703 427.13672 A 16.0016 16.0016 0 0 0 415.70703 427.13281 C 408.42734 363.10326 381.27733 328.36012 357.83594 305.83203 C 346.11524 294.56799 335.67348 286.01077 329.22266 278.42773 C 322.77184 270.8447 320 265.44765 320 256 C 320 246.6042 322.76534 241.33481 329.27539 233.82422 C 335.78544 226.31363 346.34329 217.83183 358.16016 206.60742 C 381.78925 184.16302 408.98558 149.28973 415.71094 84.753906 L 415.71094 84.744141 C 418.7359 56.282715 394.9577 32 366.39062 32 L 145.60938 32 z M 145.60938 64 L 366.39062 64 C 377.42025 64 384.85914 72.270904 383.89062 81.365234 A 16.0016 16.0016 0 0 0 383.88672 81.404297 C 377.91534 138.78411 357.2168 163.37007 336.12305 183.40625 C 325.57617 193.42434 314.56339 201.9402 305.09375 212.86523 C 295.62411 223.79027 288 238.3958 288 256 C 288 273.55235 295.48449 288.15522 304.84961 299.16406 C 314.21473 310.1729 325.14905 318.80084 335.66211 328.9043 C 356.68822 349.11121 377.4418 373.8376 383.91211 430.74805 C 384.92612 439.70568 377.41324 448 366.39062 448 L 145.60938 448 C 134.58513 448 127.07656 439.70803 128.09766 430.75195 A 16.0016 16.0016 0 0 0 128.09766 430.74609 C 134.56269 373.84065 155.27125 349.40924 176.30664 329.31055 C 186.82433 319.2612 197.7892 310.64461 207.17578 299.55469 C 216.56236 288.46476 224 273.72867 224 256 C 224 238.22042 216.4236 223.47913 206.93164 212.47266 C 197.43968 201.46618 186.39594 192.96415 175.84375 183 C 154.73938 163.0717 134.08419 138.77963 128.11328 81.404297 A 16.0016 16.0016 0 0 0 128.11328 81.398438 C 127.16046 72.268832 134.57975 64 145.60938 64 z "
     id="path4" />
  <path
     style="color:#000000;font-style:normal;font-variant:normal;font-weight:normal;font-stretch:normal;font-size:medium;line-height:normal;font-family:sans-serif;font-variant-ligatures:normal;font-variant-position:normal;font-variant-caps:normal;font-variant-numeric:normal;font-variant-alternates:normal;font-variant-east-asian:normal;font-feature-settings:normal;font-variation-settings:normal;text-indent:0;text-align:start;text-decoration:none;text-decoration-line:none;text-decoration-style:solid;text-decoration-color:#000000;letter-spacing:normal;word-spacing:normal;text-transform:none;writing-mode:lr-tb;direction:ltr;text-orientation:mixed;dominant-baseline:auto;baseline-shift:baseline;text-anchor:start;white-space:normal;shape-padding:0;shape-margin:0;inline-size:0;clip-rule:nonzero;display:inline;overflow:visible;visibility:visible;isolation:auto;mix-blend-mode:normal;color-interpolation:sRGB;color-interpolation-filters:linearRGB;solid-color:#000000;solid-opacity:1;vector-effect:none;fill:#000000;fill-opacity:1;fill-rule:nonzero;stroke-width:1;stroke-linecap:butt;stroke-linejoin:miter;stroke-miterlimit:4;stroke-dasharray:none;stroke-dashoffset:0;stroke-opacity:1;color-rendering:auto;image-rendering:auto;shape-rendering:auto;text-rendering:auto;enable-background:accumulate;stop-color:#000000;stop-opacity:1;stroke:none;opacity:1"
     d="M 343.3,432 H 169.13 c -15.6,0 -20,-18 -9.06,-29.16 C 186.55,376 240,356.78 240,326 V 224 c 0,-19.85 -38,-35 -61.51,-67.2 -3.88,-5.31 -3.49,-12.8 6.37,-12.8 h 142.73 c 8.41,0 10.23,7.43 6.4,12.75 C 310.82,189 272,204.05 272,224 v 102 c 0,30.53 55.71,47 80.4,76.87 9.95,12.04 6.47,29.13 -9.1,29.13 z"
     id="path6" />
</svg>
