<?xml version="1.0" encoding="utf-8"?>
<!-- Generator: Adobe Illustrator 24.0.0, SVG Export Plug-In . SVG Version: 6.00 Build 0)  -->
<svg version="1.1" id="Layer_1" xmlns="http://www.w3.org/2000/svg" xmlns:xlink="http://www.w3.org/1999/xlink" x="0px" y="0px"
	 viewBox="0 0 512 512" style="enable-background:new 0 0 512 512;" xml:space="preserve">
<title>ionicons-v5-i</title>
<g>
	<path d="M366.4,480H145.6c-14.5,0-28.2-6.1-37.6-16.7c-8.9-10-13.1-23.2-11.7-36.2c8.7-76.6,43.7-108.3,69.2-131.4
		c17.9-16.2,26.5-24.6,26.5-39.7c0-14.9-8.6-23.2-26.4-39.1c-25.8-23-61.2-54.5-69.3-132.2c-1.4-13.1,3-26.3,11.9-36.3
		C117.7,38,131.3,32,145.6,32h220.8c14.4,0,28,6,37.4,16.5c8.9,9.9,13.3,23.2,11.9,36.2c-8.1,77.9-43.6,109.6-69.5,132.8
		c-17.7,15.8-26.2,24-26.2,38.4c0,14.6,8.5,23,26.2,39.1c25.6,23.3,60.7,55.1,69.5,132c1.5,13-2.8,26.2-11.7,36.2
		C394.6,473.9,380.9,480,366.4,480z M145.6,64c-5.3,0-10.2,2.1-13.6,5.9c-2.9,3.3-4.3,7.4-3.9,11.5c6.8,65.4,34.4,89.9,58.7,111.6
		c18.3,16.3,37.1,33.1,37.1,63c0,30-18.8,47-37,63.5c-24.2,21.9-51.5,46.6-58.9,111.3c-0.6,5.5,2.1,9.4,3.7,11.3
		c3.4,3.8,8.4,6,13.8,6h220.8c5.4,0,10.4-2.2,13.8-6c1.7-1.9,4.4-5.8,3.7-11.3c-7.4-64.9-34.9-89.9-59.2-112
		C306.7,302.4,288,285.4,288,256c0-29.4,18.7-46.1,36.8-62.3c24.5-21.9,52.2-46.7,59-112.3c0.4-4.2-0.9-8.2-3.8-11.5
		c-3.4-3.8-8.3-5.9-13.6-5.9H145.6z"/>
</g>
<g>
	<path d="M343.3,432H169.1c-15.6,0-20-18-9.1-29.2C186.6,376,240,356.8,240,326V224c0-19.9-38-35-61.5-67.2
		c-3.9-5.3-3.5-12.8,6.4-12.8h142.7c8.4,0,10.2,7.4,6.4,12.8c-23.2,32.2-62,47.3-62,67.2v102c0,30.5,55.7,47,80.4,76.9
		C362.4,414.9,358.9,432,343.3,432z"/>
</g>
</svg>
