<?xml version="1.0" encoding="UTF-8"?>
<svg width="512px" height="512px" viewBox="0 0 512 512" version="1.1" xmlns="http://www.w3.org/2000/svg" xmlns:xlink="http://www.w3.org/1999/xlink">
    <!-- Generator: Sketch 62 (91390) - https://sketch.com -->
    <title>Artboard</title>
    <desc>Created with Sketch.</desc>
    <g id="Artboard" stroke="none" stroke-width="1" fill="none" fill-rule="evenodd">
        <g id="ice-cream-outline" transform="translate(80.000000, 16.000000)" fill="#000000" fill-rule="nonzero">
            <path d="M176,0 C230.8,0 275.8,42.6 279.7,96.4 C320.2,100.3 352,134.5 352,176 C352,216.417391 321.845383,249.947097 282.860157,255.265113 L190.7,470.3 C188.245455,476.092727 182.609818,479.861124 176.34848,479.996242 L176,480 L176,480 C169.6,480 163.8,476.2 161.3,470.3 L103.875,335.998 L103.338274,335.991674 C81.54379,335.54159 64,317.78 64,296 L64,254.7 C27.2,248.1 0,215.9 0,175.9 C0,134.4 31.8,100.2 72.3,96.3 C76.2,42.6 121.2,0 176,0 Z M219.6,234.1 C207.9,245.4 192.3,252 176,252 C164.4,252 152.9,249 144,245.2 L144,296 C143.952293,306.495467 139.853438,316.057804 133.190938,323.199508 L176,423.3 L249.305564,252.346186 C238.272351,248.715134 228.100273,242.479702 219.6,234.1 Z M175.9,32 C136.2,32 103.9,64.3 103.9,104 L103.9,112 C103.9,120.8 96.7,128 87.9,128 L80,128 C53.5,128 32,149.5 32,176 C32,202.9 52.2,224 78,224 L80,224 C88.8,224 96,231.2 96,240 L96,296 C96,300.4 99.6,304 104,304 C108.3,304 111.9,300.4 112,296 L112,234 C112,223.6 116.9,214.9 125.2,210.7 C133.5,206.5 143.6,207.4 151.7,213.2 C155.7,216 166.3,220 176,220 C187.9,220 199.2,212.5 204.8,201 C205.5,199.4 206.5,197.8 207.8,196.5 C213.2,190.8 222,189.9 228.4,194.3 C230.7,195.9 232.5,197.9 233.6,200.3 C241.57425,214.653649 256.503509,223.940078 271.752267,223.999711 C271.896801,223.996556 272.041103,223.996064 272.185549,223.997557 L271.9,224 C298.4,224 319.9,202.5 319.9,176 C319.9,149.5 298.4,128 271.9,128 L263.9,128 C255.1,128 247.9,120.8 247.9,112 L247.9,104 C247.9,64.3 215.6,32 175.9,32 Z" id="Combined-Shape"></path>
        </g>
    </g>
</svg>