<?xml version="1.0" encoding="UTF-8"?>
<svg width="512px" height="512px" viewBox="0 0 512 512" version="1.1" xmlns="http://www.w3.org/2000/svg" xmlns:xlink="http://www.w3.org/1999/xlink">
    <!-- Generator: Sketch 62 (91390) - https://sketch.com -->
    <title>Artboard</title>
    <desc>Created with Sketch.</desc>
    <g id="Artboard" stroke="none" stroke-width="1" fill="none" fill-rule="evenodd">
        <g id="images-outline" transform="translate(0.000000, 32.000000)" fill="#000000" fill-rule="nonzero">
            <path d="M142,448 C107.8,448 80,420.2 80,386 L80,384 L64,384 C28.8,383.9 0.1,355.2 0,320 L0,64 C0.1,28.8 28.8,0.1 64,0 L384,0 C419.2,0.1 447.9,28.8 448,64 L448,80 L450,80 C484.2,80 512,107.8 512,142 L512.000936,370.395355 C512.012004,370.7361 512.012179,371.077336 512.001397,371.4185 L512,386 C512,420.2 484.2,448 450,448 L142,448 Z M223.4,264.4 L112,362.829 L112,386 C112,402.5 125.5,416 142,416 L258.635,416 L327.312,347.845 L243.7,265 C238.2,259.5 229.2,259.3 223.4,264.4 Z M395.1,325.6 L304.086,416 L450,416 C466.5,416 480,402.5 480,386 L480,378.401 L415.1,324.7 C409.2,319.8 400.6,320.2 395.1,325.6 Z M384,32 L64,32 C46.4,32.1 32.1,46.4 32,64 L32,320 C32.1,337.6 46.4,351.9 64,352 L80,352 L80,142 C80,107.8 107.8,80 142,80 L416,80 L416,64 C415.9,46.4 401.6,32.1 384,32 Z M450,112 L142,112 C125.5,112 112,125.5 112,142 L112,320.12 L202.2,240.5 C220.6,224.3 248.7,225.1 266.2,242.3 L349.999,325.33 L372.5,303 C389.7,286 416.7,284.8 435.4,300.1 L480,336.952 L480,142 C480,125.5 466.5,112 450,112 Z M372.9,141 C398.7,141 419.7,161.9 419.7,187.6 C419.7,213.3 398.7,234.2 372.9,234.2 C347.1,234.2 326.1,213.3 326.1,187.6 C326.1,161.9 347.1,141 372.9,141 Z M372.9,173.1 C364.8,173.1 358.1,179.6 358.1,187.7 C358.1,195.8 364.7,202.2 372.9,202.2 C381,202.2 387.7,195.7 387.7,187.7 C387.7,179.7 381.1,173.1 372.9,173.1 Z" id="Combined-Shape"></path>
        </g>
    </g>
</svg>