<?xml version="1.0" encoding="UTF-8"?>
<svg width="512px" height="512px" viewBox="0 0 512 512" version="1.1" xmlns="http://www.w3.org/2000/svg" xmlns:xlink="http://www.w3.org/1999/xlink">
    <!-- Generator: Sketch 62 (91390) - https://sketch.com -->
    <title>Artboard</title>
    <desc>Created with Sketch.</desc>
    <g id="Artboard" stroke="none" stroke-width="1" fill="none" fill-rule="evenodd">
        <g id="images-sharp" transform="translate(0.000000, 32.000000)" fill="#000000" fill-rule="nonzero">
            <path d="M492,80 C503.045695,80 512,88.954305 512,100 L512,100 L512,428 C512,439.045695 503.045695,448 492,448 L492,448 L100,448 C88.954305,448 80,439.045695 80,428 L80,428 L80,100 C80,88.954305 88.954305,80 100,80 L100,80 Z M234.49,211.65 L111.73,321.85 L111.73,417.33 L215.27,417.33 L328.27,305 L234.49,211.65 Z M403.58,273.33 L259,417.33 L480,417.33 L480,338.59 L403.58,273.33 Z M428,0 C439.045695,0 448,8.954305 448,20 L448,20 L448,48 L68,48 C56.954305,48 48,56.954305 48,68 L48,68 L48,384 L20,384 C8.954305,384 0,375.045695 0,364 L0,364 L0,20 C0,8.954305 8.954305,0 20,0 L20,0 Z M373.14,141.32991 C347.668873,141.280155 326.964725,161.85904 326.86,187.33 C326.86,212.698546 347.39874,233.277895 372.767234,233.32915 C398.135729,233.380214 418.756834,212.883869 418.86,187.515531 C418.962411,162.147193 398.508076,141.484417 373.14,141.32991 Z" id="Combined-Shape"></path>
        </g>
    </g>
</svg>