<?xml version="1.0" encoding="UTF-8"?>
<svg width="512px" height="512px" viewBox="0 0 512 512" version="1.1" xmlns="http://www.w3.org/2000/svg" xmlns:xlink="http://www.w3.org/1999/xlink">
    <!-- Generator: Sketch 62 (91390) - https://sketch.com -->
    <title>Artboard</title>
    <desc>Created with Sketch.</desc>
    <g id="Artboard" stroke="none" stroke-width="1" fill="none" fill-rule="evenodd">
        <g id="image-outline" transform="translate(31.000000, 64.000000)" fill="#000000" fill-rule="nonzero">
            <path d="M65,384 C29.7,384 1,355.3 1,320 L0.998747399,289.392579 C0.913908891,288.440959 0.914487364,287.484069 0.999693073,286.534072 L1,64 C1,28.7 29.7,0 65,0 L385,0 C420.3,0 449,28.7 449,64 L449.000311,302.689282 C449.067122,303.528744 449.067277,304.373569 449.000006,305.215508 L449,320 C449,355.3 420.3,384 385,384 L65,384 Z M149.1,191.9 L32.9994524,295.196 L33,320 C33,337.6 47.4,352 65,352 L186.395452,352 L258.513452,279.824 L171,192.6 C165,186.6 155.4,186.3 149.1,191.9 Z M327.8,255.9 L231.621452,352 L385,352 C402.6,352 417,337.6 417,320 L416.999452,311.363 L349.3,254.9 C342.9,249.6 333.6,250 327.8,255.9 Z M385,32 L65,32 C47.4,32 33,46.4 33,64 L32.9994524,252.267 L127.8,168 C146.8,151.2 175.7,152 193.6,169.9 L281.106452,257.213 L305,233.3 C322.6,215.6 350.4,214.3 369.7,230.3 L416.999452,269.76 L417,64 C417,46.4 402.6,32 385,32 Z M305,64 C331.5,64 353,85.5 353,112 C353,138.5 331.5,160 305,160 C278.5,160 257,138.5 257,112 C257,85.5 278.5,64 305,64 Z M305,96 C296.2,96 289,103.2 289,112 C289,120.8 296.2,128 305,128 C313.8,128 321,120.8 321,112 C321,103.2 313.8,96 305,96 Z" id="Combined-Shape"></path>
        </g>
    </g>
</svg>