<?xml version="1.0" encoding="UTF-8" standalone="no"?>
<svg
   xmlns:dc="http://purl.org/dc/elements/1.1/"
   xmlns:cc="http://creativecommons.org/ns#"
   xmlns:rdf="http://www.w3.org/1999/02/22-rdf-syntax-ns#"
   xmlns:svg="http://www.w3.org/2000/svg"
   xmlns="http://www.w3.org/2000/svg"
   xmlns:sodipodi="http://sodipodi.sourceforge.net/DTD/sodipodi-0.dtd"
   xmlns:inkscape="http://www.inkscape.org/namespaces/inkscape"
   class="ionicon"
   viewBox="0 0 512 512"
   version="1.1"
   id="svg6"
   sodipodi:docname="infinite-outline.svg"
   inkscape:version="1.0.2 (e86c8708, 2021-01-15)">
  <metadata
     id="metadata12">
    <rdf:RDF>
      <cc:Work
         rdf:about="">
        <dc:format>image/svg+xml</dc:format>
        <dc:type
           rdf:resource="http://purl.org/dc/dcmitype/StillImage" />
      </cc:Work>
    </rdf:RDF>
  </metadata>
  <defs
     id="defs10" />
  <sodipodi:namedview
     pagecolor="#ffffff"
     bordercolor="#666666"
     borderopacity="1"
     objecttolerance="10"
     gridtolerance="10"
     guidetolerance="10"
     inkscape:pageopacity="0"
     inkscape:pageshadow="2"
     inkscape:window-width="689"
     inkscape:window-height="480"
     id="namedview8"
     showgrid="false"
     inkscape:zoom="1.3027344"
     inkscape:cx="256"
     inkscape:cy="256"
     inkscape:window-x="44"
     inkscape:window-y="25"
     inkscape:window-maximized="0"
     inkscape:current-layer="svg6" />
  <title
     id="title2">Infinite</title>
  <path
     style="color:#000000;font-style:normal;font-variant:normal;font-weight:normal;font-stretch:normal;font-size:medium;line-height:normal;font-family:sans-serif;font-variant-ligatures:normal;font-variant-position:normal;font-variant-caps:normal;font-variant-numeric:normal;font-variant-alternates:normal;font-variant-east-asian:normal;font-feature-settings:normal;font-variation-settings:normal;text-indent:0;text-align:start;text-decoration:none;text-decoration-line:none;text-decoration-style:solid;text-decoration-color:#000000;letter-spacing:normal;word-spacing:normal;text-transform:none;writing-mode:lr-tb;direction:ltr;text-orientation:mixed;dominant-baseline:auto;baseline-shift:baseline;text-anchor:start;white-space:normal;shape-padding:0;shape-margin:0;inline-size:0;clip-rule:nonzero;display:inline;overflow:visible;visibility:visible;isolation:auto;mix-blend-mode:normal;color-interpolation:sRGB;color-interpolation-filters:linearRGB;solid-color:#000000;solid-opacity:1;vector-effect:none;fill:currentColor;fill-opacity:1;fill-rule:nonzero;stroke:none;stroke-linecap:round;stroke-linejoin:miter;stroke-miterlimit:10;stroke-dasharray:none;stroke-dashoffset:0;stroke-opacity:1;color-rendering:auto;image-rendering:auto;shape-rendering:auto;text-rendering:auto;enable-background:accumulate;stop-color:#000000;stop-opacity:1;opacity:1"
     d="M 130 144 C 67.405006 144 16 194.16881 16 256 C 16 317.83119 67.405006 368 130 368 C 173.8827 368 210.84306 342.57432 235.90039 314.69531 A 16 16 0 0 0 234.69531 292.09961 A 16 16 0 0 0 212.09961 293.30469 C 191.15694 316.60568 161.1373 336 130 336 C 84.354994 336 48 300.16881 48 256 C 48 211.83119 84.354994 176 130 176 C 162.4359 176 190.24226 196.50715 210.39453 218.74414 C 230.54681 240.98113 241.68945 263.15625 241.68945 263.15625 A 16 16 0 0 0 242.0918 263.9082 C 243.13106 265.9594 255.53602 290.07268 277.89453 314.74414 C 301.24226 340.50715 336.4359 368 382 368 C 444.59499 368 496 317.83119 496 256 C 496 194.16881 444.59499 144 382 144 C 338.1173 144 301.15694 169.42568 276.09961 197.30469 A 16 16 0 0 0 277.30469 219.90039 A 16 16 0 0 0 299.90039 218.69531 C 320.84306 195.39432 350.8627 176 382 176 C 427.64501 176 464 211.83119 464 256 C 464 300.16881 427.64501 336 382 336 C 349.5641 336 321.75774 315.49285 301.60547 293.25586 C 281.45319 271.01887 270.31055 248.84375 270.31055 248.84375 A 16 16 0 0 0 269.9082 248.0918 C 268.86894 246.0406 256.46398 221.92732 234.10547 197.25586 C 210.75774 171.49285 175.5641 144 130 144 z "
     id="path4" />
</svg>
