<?xml version="1.0" encoding="UTF-8" standalone="no"?>
<svg
   xmlns:dc="http://purl.org/dc/elements/1.1/"
   xmlns:cc="http://creativecommons.org/ns#"
   xmlns:rdf="http://www.w3.org/1999/02/22-rdf-syntax-ns#"
   xmlns:svg="http://www.w3.org/2000/svg"
   xmlns="http://www.w3.org/2000/svg"
   xmlns:sodipodi="http://sodipodi.sourceforge.net/DTD/sodipodi-0.dtd"
   xmlns:inkscape="http://www.inkscape.org/namespaces/inkscape"
   class="ionicon"
   viewBox="0 0 512 512"
   version="1.1"
   id="svg6"
   sodipodi:docname="infinite.svg"
   inkscape:version="1.0.2 (e86c8708, 2021-01-15)">
  <metadata
     id="metadata12">
    <rdf:RDF>
      <cc:Work
         rdf:about="">
        <dc:format>image/svg+xml</dc:format>
        <dc:type
           rdf:resource="http://purl.org/dc/dcmitype/StillImage" />
      </cc:Work>
    </rdf:RDF>
  </metadata>
  <defs
     id="defs10" />
  <sodipodi:namedview
     pagecolor="#ffffff"
     bordercolor="#666666"
     borderopacity="1"
     objecttolerance="10"
     gridtolerance="10"
     guidetolerance="10"
     inkscape:pageopacity="0"
     inkscape:pageshadow="2"
     inkscape:window-width="689"
     inkscape:window-height="480"
     id="namedview8"
     showgrid="false"
     inkscape:zoom="1.3027344"
     inkscape:cx="256"
     inkscape:cy="256"
     inkscape:window-x="44"
     inkscape:window-y="25"
     inkscape:window-maximized="0"
     inkscape:current-layer="svg6" />
  <title
     id="title2">Infinite</title>
  <path
     style="color:#000000;font-style:normal;font-variant:normal;font-weight:normal;font-stretch:normal;font-size:medium;line-height:normal;font-family:sans-serif;font-variant-ligatures:normal;font-variant-position:normal;font-variant-caps:normal;font-variant-numeric:normal;font-variant-alternates:normal;font-variant-east-asian:normal;font-feature-settings:normal;font-variation-settings:normal;text-indent:0;text-align:start;text-decoration:none;text-decoration-line:none;text-decoration-style:solid;text-decoration-color:#000000;letter-spacing:normal;word-spacing:normal;text-transform:none;writing-mode:lr-tb;direction:ltr;text-orientation:mixed;dominant-baseline:auto;baseline-shift:baseline;text-anchor:start;white-space:normal;shape-padding:0;shape-margin:0;inline-size:0;clip-rule:nonzero;display:inline;overflow:visible;visibility:visible;isolation:auto;mix-blend-mode:normal;color-interpolation:sRGB;color-interpolation-filters:linearRGB;solid-color:#000000;solid-opacity:1;vector-effect:none;fill:currentColor;fill-opacity:1;fill-rule:nonzero;stroke:none;stroke-linecap:round;stroke-linejoin:miter;stroke-miterlimit:10;stroke-dasharray:none;stroke-dashoffset:0;stroke-opacity:1;color-rendering:auto;image-rendering:auto;shape-rendering:auto;text-rendering:auto;enable-background:accumulate;stop-color:#000000;stop-opacity:1;opacity:1"
     d="M 130 136 C 63.167509 136 8 189.75321 8 256 C 8 322.24679 63.167509 376 130 376 C 167.02933 376 199.09016 359.64446 223.78711 338.07617 A 24 24 0 0 0 226.07617 304.21289 A 24 24 0 0 0 192.21289 301.92383 C 173.80984 317.99554 152.97067 328 130 328 C 88.592491 328 56 295.75321 56 256 C 56 216.24679 88.592491 184 130 184 C 159.15385 184 185.11338 202.7617 204.4668 224.11719 C 223.82021 245.47268 234.5332 266.73242 234.5332 266.73242 A 24 24 0 0 0 235.11523 267.82422 A 24 24 0 0 0 235.125 267.8418 C 236.62331 270.78213 249.27722 295.08041 271.9668 320.11719 C 296.11338 346.7617 333.15385 376 382 376 C 448.83249 376 504 322.24679 504 256 C 504 189.75321 448.83249 136 382 136 C 345.13936 136 312.898 152.81105 288.40234 173.75977 A 24 24 0 0 0 285.75977 207.59766 A 24 24 0 0 0 319.59766 210.24023 C 337.782 194.68895 360.12064 184 382 184 C 423.40751 184 456 216.24679 456 256 C 456 295.75321 423.40751 328 382 328 C 352.84615 328 326.88662 309.2383 307.5332 287.88281 C 288.17979 266.52732 277.4668 245.26758 277.4668 245.26758 A 24 24 0 0 0 276.88477 244.17578 A 24 24 0 0 0 276.875 244.1582 C 275.37669 241.21787 262.72278 216.91959 240.0332 191.88281 C 215.88662 165.2383 178.84615 136 130 136 z "
     id="path4" />
</svg>
