<?xml version="1.0" encoding="utf-8"?>
<!-- Generator: Adobe Illustrator 24.0.0, SVG Export Plug-In . SVG Version: 6.00 Build 0)  -->
<svg version="1.1" id="Layer_1" xmlns="http://www.w3.org/2000/svg" xmlns:xlink="http://www.w3.org/1999/xlink" x="0px" y="0px"
	 viewBox="0 0 512 512" style="enable-background:new 0 0 512 512;" xml:space="preserve">
<title>ionicons-v5-j</title>
<g>
	<path d="M130,376C62.7,376,8,322.2,8,256s54.7-120,122-120c91.8,0,145.2,104.8,147.5,109.3c5.9,11.9,1.1,26.3-10.7,32.2
		c-11.8,5.9-26.2,1.1-32.2-10.7c-0.6-1.2-42.7-82.8-104.6-82.8c-40.8,0-74,32.3-74,72c0,39.7,33.2,72,74,72
		c21.5,0,42.4-8.8,62.2-26.1c10-8.7,25.1-7.7,33.9,2.3c8.7,10,7.7,25.1-2.3,33.9C195.4,362.9,162.9,376,130,376z"/>
</g>
<g>
	<path d="M382,376c-91.8,0-145.2-104.8-147.5-109.3c-5.9-11.9-1.1-26.3,10.7-32.2c11.8-5.9,26.2-1.1,32.2,10.7
		c0.6,1.2,42.7,82.8,104.6,82.8c40.8,0,74-32.3,74-72c0-39.7-33.2-72-74-72c-20.5,0-42.6,9.3-62.4,26.2c-10.1,8.6-25.2,7.4-33.8-2.6
		c-8.6-10.1-7.4-25.2,2.6-33.8c20.1-17.2,52.7-37.8,93.6-37.8c67.3,0,122,53.8,122,120S449.3,376,382,376z"/>
</g>
</svg>
