<?xml version="1.0" encoding="utf-8"?>
<!-- Generator: Adobe Illustrator 24.0.0, SVG Export Plug-In . SVG Version: 6.00 Build 0)  -->
<svg version="1.1" id="Layer_1" xmlns="http://www.w3.org/2000/svg" xmlns:xlink="http://www.w3.org/1999/xlink" x="0px" y="0px"
	 viewBox="0 0 512 512" style="enable-background:new 0 0 512 512;" xml:space="preserve">
<title>ionicons-v5-e</title>
<g>
	<path d="M248,448c-110.3,0-200-89.7-200-200S137.7,48,248,48s200,89.7,200,200S358.3,448,248,448z M248,80
		c-92.6,0-168,75.4-168,168s75.4,168,168,168s168-75.4,168-168S340.6,80,248,80z"/>
</g>
<g>
	<path d="M252,352c-8.8,0-16-7.2-16-16V236h-16c-8.8,0-16-7.2-16-16s7.2-16,16-16h32c8.8,0,16,7.2,16,16v116
		C268,344.8,260.8,352,252,352z"/>
</g>
<g>
	<path d="M296,356h-88c-8.8,0-16-7.2-16-16s7.2-16,16-16h88c8.8,0,16,7.2,16,16S304.8,356,296,356z"/>
</g>
<g>
	<path d="M248,130c-14.4,0-26,11.6-26,26s11.6,26,26,26s26-11.6,26-26S262.4,130,248,130z"/>
</g>
</svg>
