<?xml version="1.0" encoding="UTF-8"?>
<svg width="512px" height="512px" viewBox="0 0 512 512" version="1.1" xmlns="http://www.w3.org/2000/svg" xmlns:xlink="http://www.w3.org/1999/xlink">
    <!-- Generator: Sketch 62 (91390) - https://sketch.com -->
    <title>Artboard</title>
    <desc>Created with Sketch.</desc>
    <g id="Artboard" stroke="none" stroke-width="1" fill="none" fill-rule="evenodd">
        <g id="journal-outline" transform="translate(80.000000, 32.000000)" fill="#000000" fill-rule="nonzero">
            <path d="M288,0 C323.3,0 352,28.7 352,64 L352,384 C352,419.3 323.3,448 288,448 L64,448 C28.7,448 0,419.3 0,384 L0,64 C0,28.7 28.7,0 64,0 L288,0 Z M210,32 L64,32 C46.4,32 32,46.4 32,64 L32,384 C32,401.6 46.4,416 64,416 L210,416 L210,32 Z M288,32 L270,32 L270,416 L288,416 C305.6,416 320,401.6 320,384 L320,64 C320,46.4 305.6,32 288,32 Z" id="Combined-Shape"></path>
        </g>
    </g>
</svg>