<?xml version="1.0" encoding="UTF-8" standalone="no"?>
<svg
   xmlns:dc="http://purl.org/dc/elements/1.1/"
   xmlns:cc="http://creativecommons.org/ns#"
   xmlns:rdf="http://www.w3.org/1999/02/22-rdf-syntax-ns#"
   xmlns:svg="http://www.w3.org/2000/svg"
   xmlns="http://www.w3.org/2000/svg"
   xmlns:sodipodi="http://sodipodi.sourceforge.net/DTD/sodipodi-0.dtd"
   xmlns:inkscape="http://www.inkscape.org/namespaces/inkscape"
   class="ionicon"
   viewBox="0 0 512 512"
   version="1.1"
   id="svg6"
   sodipodi:docname="key-outline.svg"
   inkscape:version="1.0.2 (e86c8708, 2021-01-15)">
  <metadata
     id="metadata12">
    <rdf:RDF>
      <cc:Work
         rdf:about="">
        <dc:format>image/svg+xml</dc:format>
        <dc:type
           rdf:resource="http://purl.org/dc/dcmitype/StillImage" />
      </cc:Work>
    </rdf:RDF>
  </metadata>
  <defs
     id="defs10" />
  <sodipodi:namedview
     pagecolor="#ffffff"
     bordercolor="#666666"
     borderopacity="1"
     objecttolerance="10"
     gridtolerance="10"
     guidetolerance="10"
     inkscape:pageopacity="0"
     inkscape:pageshadow="2"
     inkscape:window-width="689"
     inkscape:window-height="480"
     id="namedview8"
     showgrid="false"
     inkscape:zoom="1.3027344"
     inkscape:cx="256"
     inkscape:cy="256"
     inkscape:window-x="44"
     inkscape:window-y="25"
     inkscape:window-maximized="0"
     inkscape:current-layer="svg6" />
  <title
     id="title2">Key</title>
  <path
     style="color:#000000;font-style:normal;font-variant:normal;font-weight:normal;font-stretch:normal;font-size:medium;line-height:normal;font-family:sans-serif;font-variant-ligatures:normal;font-variant-position:normal;font-variant-caps:normal;font-variant-numeric:normal;font-variant-alternates:normal;font-variant-east-asian:normal;font-feature-settings:normal;font-variation-settings:normal;text-indent:0;text-align:start;text-decoration:none;text-decoration-line:none;text-decoration-style:solid;text-decoration-color:#000000;letter-spacing:normal;word-spacing:normal;text-transform:none;writing-mode:lr-tb;direction:ltr;text-orientation:mixed;dominant-baseline:auto;baseline-shift:baseline;text-anchor:start;white-space:normal;shape-padding:0;shape-margin:0;inline-size:0;clip-rule:nonzero;display:inline;overflow:visible;visibility:visible;isolation:auto;mix-blend-mode:normal;color-interpolation:sRGB;color-interpolation-filters:linearRGB;solid-color:#000000;solid-opacity:1;vector-effect:none;fill:currentColor;fill-opacity:1;fill-rule:nonzero;stroke:none;stroke-linecap:butt;stroke-linejoin:round;stroke-miterlimit:4;stroke-dasharray:none;stroke-dashoffset:0;stroke-opacity:1;color-rendering:auto;image-rendering:auto;shape-rendering:auto;text-rendering:auto;enable-background:accumulate;stop-color:#000000;stop-opacity:1;opacity:1"
     d="M 340 32 C 263.18934 32 202.09961 92.713387 202.09961 167.16992 C 202.09961 177.48101 202.0523 188.76594 204.60547 200.53711 C 182.45276 226.54636 147.26657 267.8778 114.11328 306.55859 C 96.544997 327.05597 79.995445 346.28808 67.208984 360.99414 C 54.422524 375.70021 43.978231 387.18232 43.605469 387.54102 L 44.015625 387.16016 C 36.381555 394.00964 32.006576 403.80411 32 414.06055 A 16.0016 16.0016 0 0 0 32 414.07031 C 32 429.0958 39.424469 439.51647 46.037109 446.42969 C 50.239634 450.82324 58.845193 458.961 68.181641 466.36719 C 72.849864 470.07028 77.477712 473.48832 82.566406 476.19727 C 85.110753 477.55174 87.692863 478.83163 91.611328 479.5918 C 95.529793 480.35196 102.9288 480.44339 108.68945 474.9043 A 16.0016 16.0016 0 0 0 108.76367 474.83203 C 124.41333 459.58886 127.90494 455.20156 133.62305 449.57422 L 133.5918 449.60352 C 144.3397 439.08189 142.90435 425.29412 141.69922 417.21094 C 141.09914 413.18604 140.42119 409.82817 140.16992 407.8125 C 141.06476 407.89397 142.84126 408.00148 144.93555 408.44141 C 148.91271 409.27685 154.06629 410.68559 160.69727 410.76953 A 16.0016 16.0016 0 0 0 160.70703 410.76953 C 173.54733 410.92423 184.10541 403.52978 190.7832 397.29297 C 196.60729 391.92254 204.38048 382.53519 204.5918 370.27539 C 204.7138 364.42908 203.59215 360.21593 202.26953 356.97266 C 206.6516 359.24991 212.46935 361.49771 221.35156 360.46289 C 233.01887 359.10359 240.09823 352.94463 246.12891 347.0293 C 252.15958 341.11396 256.95029 337.08646 259.24805 326.30469 C 260.99776 318.09451 258.59021 314.30548 257.17188 310.82031 C 255.75354 307.33514 254.19376 304.36624 252.85938 301.63867 C 252.32941 300.55539 251.99421 299.53711 251.66992 298.55273 C 253.0873 298.92586 254.23223 299.1978 255.84375 299.64258 C 258.96875 300.50508 262.24511 301.42296 265.51172 302.14844 C 268.77436 302.87304 270.47765 304.49891 278.27539 302.80859 C 286.61411 301.01692 291.47998 297.79994 295.12695 294.87305 C 309.37459 299.82141 323.78939 302.16992 340 302.16992 C 416.81533 302.16992 480 241.76766 480 166.9707 C 480 92.173743 416.77951 32 340 32 z M 340 64 C 400.22049 64 448 110.16766 448 166.9707 C 448 223.77374 400.18467 270.16992 340 270.16992 C 323.49116 270.16992 312.34158 268.00296 298.64844 262.08398 A 16.0016 16.0016 0 0 0 283.84375 263.1875 C 278.52479 266.49931 273.60839 269.42908 271.875 270.75977 C 269.89584 270.30137 267.26062 269.59816 264.35742 268.79688 C 261.23242 267.93438 257.95411 267.0165 254.6875 266.29102 C 251.42089 265.56553 249.72247 263.93431 241.90039 265.63477 C 233.46217 267.46916 230.09463 271.34061 226.66602 274.86719 C 223.2374 278.39377 220.37957 279.80103 218.31836 288.63477 A 16.0016 16.0016 0 0 0 218.28906 288.76172 C 215.22188 302.41067 221.10901 309.5563 224.11523 315.70117 C 225.13272 317.78096 225.74667 319.10843 226.42773 320.5625 C 225.67761 321.78692 224.79875 323.12811 223.7207 324.18555 C 221.79746 326.07201 219.56171 327.3232 218.33984 328.02734 C 217.35487 327.43116 213.58528 326.41064 208.61133 324.26562 C 204.91955 322.67355 200.3715 320.78369 194.11719 320.52539 C 187.86288 320.26709 179.67816 322.87599 174.30469 328.13867 C 169.41034 332.9321 166.29775 340.02795 165.94727 346.14844 C 165.59679 352.26893 167.14733 357.0073 168.5332 360.64844 C 171.30494 367.93071 172.52897 372.96983 172.60352 369.61523 A 16.0016 16.0016 0 0 0 172.60156 369.73047 C 172.58555 370.80318 173.22631 369.96781 169.06641 373.79492 A 16.0016 16.0016 0 0 0 168.96875 373.88477 C 163.25123 379.23341 164.81741 378.81733 161.10156 378.77148 C 159.83254 378.75542 155.98651 378.06456 151.51367 377.125 C 147.04084 376.18544 142.21318 374.36404 133.9043 376.11328 C 130.3852 376.85414 125.35544 378.08358 120.50195 381.69336 C 115.64847 385.30314 112.30273 390.48048 109.99414 395.86719 C 107.02049 402.80571 107.90926 407.69124 108.4043 411.69727 C 108.89933 415.70329 109.62835 419.09628 110.05078 421.92969 C 110.88488 427.52427 110.00006 427.93122 111.17773 426.76562 C 105.82955 432.02891 101.43762 436.81068 93.332031 444.9707 C 91.55031 443.75459 90.197497 442.98582 88.068359 441.29688 C 80.354807 435.17806 71.559585 426.817 69.162109 424.31055 C 66.975643 422.0247 64.004382 416.05119 64.001953 414.07422 C 64.004467 412.88464 64.499129 411.77313 65.384766 410.97852 A 16.0016 16.0016 0 0 0 65.794922 410.59961 C 70.72216 405.85831 78.478257 396.80292 91.357422 381.99023 C 104.23659 367.17755 120.81594 347.91044 138.41016 327.38281 C 173.59859 286.32756 212.83414 240.24146 234.38086 214.94531 A 16.0016 16.0016 0 0 0 237.31445 199.31836 C 234.37342 190.85392 234.09961 180.16992 234.09961 167.16992 C 234.09961 110.02646 279.81066 64 340 64 z M 368 96 C 348.63173 96 331.06596 107.73683 323.6543 125.63086 C 316.24264 143.52488 320.36571 164.24462 334.06055 177.93945 C 347.75538 191.63429 368.47512 195.75736 386.36914 188.3457 C 404.26317 180.93404 416 163.36827 416 144 C 416 117.67985 394.32015 96 368 96 z M 368 128 C 377.02607 128 384 134.97393 384 144 C 384 150.51729 380.14372 156.2875 374.12305 158.78125 C 368.10241 161.27498 361.29644 159.92144 356.6875 155.3125 C 352.07856 150.70356 350.72502 143.89759 353.21875 137.87695 C 355.7125 131.85628 361.48271 128 368 128 z M 140.49609 407.42773 C 140.27479 407.47432 140.31044 407.48488 140.16797 407.51953 C 140.16754 407.51194 140.16836 407.51338 140.16797 407.50586 C 140.34007 407.4661 140.27059 407.47521 140.49609 407.42773 z "
     id="path4" />
</svg>
