<?xml version="1.0" encoding="utf-8"?>
<!-- Generator: Adobe Illustrator 24.0.0, SVG Export Plug-In . SVG Version: 6.00 Build 0)  -->
<svg version="1.1" id="Layer_1" xmlns="http://www.w3.org/2000/svg" xmlns:xlink="http://www.w3.org/1999/xlink" x="0px" y="0px"
	 viewBox="0 0 512 512" style="enable-background:new 0 0 512 512;" xml:space="preserve">
<title>ionicons-v5-o</title>
<g>
	<path d="M95.8,480c-0.1,0-0.3,0-0.4,0c-7.7-0.2-16.3-4.7-29.7-15.6c-8.5-7-16.4-14.5-19.6-17.9c-3.3-3.4-14-16-14-32.4
		c0-10.1,4.3-19.8,11.7-26.7c10.5-10.3,119.3-138,160.8-186.8c-2.4-11.3-2.4-22.5-2.4-33.5c0-36.3,14.2-70.2,40-95.7
		C268,46,302.8,32,340,32c77.2,0,140,60.5,140,135c0,74.5-62.8,135.2-140,135.2c-17.2,0-31.3-2.2-45.6-7.4c-4.7,3.3-10,6.7-16.2,8
		c-5.8,1.3-11.7-0.2-22.4-3.2c-1.3-0.4-2.9-0.8-4.5-1.2c0.8,1.7,1.7,3.5,2.3,4.9c3.6,7.3,7.3,14.8,5.6,23c-2.6,12-20,32.1-37.9,34.2
		c-7.6,0.9-14.3-1.7-19.9-4.3c1.7,4,3.3,8.8,3.2,14.1c-0.2,14.5-9.4,23-13.8,27.1c-7.4,6.9-15.8,13.6-30.1,13.5
		c-5.1-0.1-10.1-1.1-14.5-2.1c-1.9-0.4-4.7-1-6.1-1.1c0.2,1.4,0.5,3.4,0.8,4.9c1.7,9.6,4.5,25.6-7.3,37.2c-2.1,2.1-3.9,4-6.1,6.3
		c-3.9,4.1-8.8,9.3-18.7,18.9c0,0,0,0-0.1,0.1C105.3,478.2,100.7,480,95.8,480z M340,64c-28.8,0-55.6,10.8-75.4,30.3
		c-19.7,19.4-30.5,45.2-30.5,72.9c0,11.8,0,22.9,3.2,32.1c1.9,5.4,0.7,11.3-2.9,15.6l-5.2,6.1C149.9,314.1,75.3,401.5,65.8,410.6
		c-0.1,0.1-0.3,0.3-0.4,0.4c-0.9,0.8-1.4,1.9-1.4,3.1c0,2.8,2.2,7.2,5.2,10.2c5.6,5.9,16.8,15.7,24.1,20.9c5.1-5.1,8.3-8.5,11-11.3
		c2.1-2.2,4-4.2,6.2-6.4c0.2-2.1-0.6-6.7-1.1-9.5c-1.2-6.9-2.6-14.7,0.6-22.1c6.1-14.2,15.1-17.9,23.9-19.8c6.5-1.4,12.8,0,19,1.3
		c2.9,0.6,6.3,1.3,8.2,1.4c2,0,2.6,0,7.9-4.9c0,0,0.1-0.1,0.1-0.1c2.5-2.3,3.2-3.3,3.5-3.7c-0.4-1-1.1-2.8-1.7-4
		c-3.2-7.2-10.7-24,3.5-37.9c13.8-13.5,30.5-5.7,38.5-2c1.6,0.8,3.9,1.8,5.3,2.3c2.4-1.1,6.3-4.6,8.6-7.5c-0.6-1.2-1.2-2.5-1.7-3.5
		c-4-8.1-9-18.3-6.7-28.7c0,0,0-0.1,0-0.1c2-8.7,12.8-20.6,23.6-23c5.9-1.3,11.7,0.2,22.5,3.2c2.3,0.6,5.9,1.6,8.2,2.1
		c1.6-1,3.9-2.6,5.4-3.7c1.9-1.4,3.9-2.8,5.9-4.1c4.5-2.8,10-3.2,14.8-1.1c13.3,5.7,25.3,8.1,41.4,8.1c59.6,0,108-46.3,108-103.2
		C448,110.2,399.6,64,340,64z M111.2,426.8C111.2,426.8,111.2,426.8,111.2,426.8C111.2,426.8,111.2,426.8,111.2,426.8z M140,406.1
		L140,406.1z M172.6,369.6C172.6,369.6,172.6,369.6,172.6,369.6C172.6,369.6,172.6,369.6,172.6,369.6z M218.8,328.7L218.8,328.7
		L218.8,328.7z M228.3,318.4L228.3,318.4L228.3,318.4z M248.5,298.5L248.5,298.5L248.5,298.5z M249.7,293.9L249.7,293.9z
		 M271.2,271.6C271.2,271.6,271.2,271.6,271.2,271.6C271.2,271.6,271.2,271.6,271.2,271.6z M274.4,271.3L274.4,271.3L274.4,271.3z
		 M368,192c-26.5,0-48-21.5-48-48s21.5-48,48-48s48,21.5,48,48S394.5,192,368,192z M368,128c-8.8,0-16,7.2-16,16s7.2,16,16,16
		s16-7.2,16-16S376.8,128,368,128z"/>
</g>
</svg>
