<?xml version="1.0" encoding="UTF-8" standalone="no"?>
<svg
   xmlns:dc="http://purl.org/dc/elements/1.1/"
   xmlns:cc="http://creativecommons.org/ns#"
   xmlns:rdf="http://www.w3.org/1999/02/22-rdf-syntax-ns#"
   xmlns:svg="http://www.w3.org/2000/svg"
   xmlns="http://www.w3.org/2000/svg"
   xmlns:sodipodi="http://sodipodi.sourceforge.net/DTD/sodipodi-0.dtd"
   xmlns:inkscape="http://www.inkscape.org/namespaces/inkscape"
   class="ionicon"
   viewBox="0 0 512 512"
   version="1.1"
   id="svg6"
   sodipodi:docname="key.svg"
   inkscape:version="1.0.2 (e86c8708, 2021-01-15)">
  <metadata
     id="metadata12">
    <rdf:RDF>
      <cc:Work
         rdf:about="">
        <dc:format>image/svg+xml</dc:format>
        <dc:type
           rdf:resource="http://purl.org/dc/dcmitype/StillImage" />
      </cc:Work>
    </rdf:RDF>
  </metadata>
  <defs
     id="defs10" />
  <sodipodi:namedview
     pagecolor="#ffffff"
     bordercolor="#666666"
     borderopacity="1"
     objecttolerance="10"
     gridtolerance="10"
     guidetolerance="10"
     inkscape:pageopacity="0"
     inkscape:pageshadow="2"
     inkscape:window-width="689"
     inkscape:window-height="480"
     id="namedview8"
     showgrid="false"
     inkscape:zoom="1.3027344"
     inkscape:cx="256"
     inkscape:cy="256"
     inkscape:window-x="44"
     inkscape:window-y="25"
     inkscape:window-maximized="0"
     inkscape:current-layer="svg6" />
  <title
     id="title2">Key</title>
  <path
     style="color:#000000;font-style:normal;font-variant:normal;font-weight:normal;font-stretch:normal;font-size:medium;line-height:normal;font-family:sans-serif;font-variant-ligatures:normal;font-variant-position:normal;font-variant-caps:normal;font-variant-numeric:normal;font-variant-alternates:normal;font-variant-east-asian:normal;font-feature-settings:normal;font-variation-settings:normal;text-indent:0;text-align:start;text-decoration:none;text-decoration-line:none;text-decoration-style:solid;text-decoration-color:#000000;letter-spacing:normal;word-spacing:normal;text-transform:none;writing-mode:lr-tb;direction:ltr;text-orientation:mixed;dominant-baseline:auto;baseline-shift:baseline;text-anchor:start;white-space:normal;shape-padding:0;shape-margin:0;inline-size:0;clip-rule:nonzero;display:inline;overflow:visible;visibility:visible;isolation:auto;mix-blend-mode:normal;color-interpolation:sRGB;color-interpolation-filters:linearRGB;solid-color:#000000;solid-opacity:1;vector-effect:none;fill:#000000;fill-opacity:1;fill-rule:nonzero;stroke-width:1;stroke-linecap:butt;stroke-linejoin:miter;stroke-miterlimit:4;stroke-dasharray:none;stroke-dashoffset:0;stroke-opacity:1;color-rendering:auto;image-rendering:auto;shape-rendering:auto;text-rendering:auto;enable-background:accumulate;stop-color:#000000;stop-opacity:1;stroke:none;opacity:1"
     d="m 218.1,167.17 c 0,13 0,25.6 4.1,37.4 -43.1,50.6 -156.9,184.3 -167.5,194.5 -4.260637,3.82276 -6.69633,9.2758 -6.7,15 0,8.5 5.2,16.7 9.6,21.3 6.6,6.9 34.8,33 40,28 15.4,-15 18.5,-19 24.8,-25.2 9.5,-9.3 -1,-28.3 2.3,-36 3.3,-7.7 6.8,-9.2 12.5,-10.4 5.7,-1.2 15.8,2.9 23.7,3 8.3,0.1 12.8,-3.4 19,-9.2 5,-4.6 8.6,-8.9 8.7,-15.6 0.2,-9 -12.8,-20.9 -3.1,-30.4 9.7,-9.5 23.7,6.2 34,5 10.3,-1.2 22.8,-15.5 24.1,-21.6 1.3,-6.1 -11.7,-21.8 -9.7,-30.7 0.7,-3 6.8,-10 11.4,-11 4.6,-1 25,6.9 29.6,5.9 5.6,-1.2 12.1,-7.1 17.4,-10.4 15.5,6.7 29.6,9.4 47.7,9.4 68.5,0 124,-53.4 124,-119.2 C 464,101.17 408.5,48 340,48 271.5,48 218.1,101.37 218.1,167.17 Z M 400,144 c 0,12.94278 -7.79659,24.61122 -19.75395,29.56392 -11.95732,4.9527 -25.72043,2.21423 -34.87232,-6.93765 -9.15188,-9.15189 -11.89035,-22.915 -6.93765,-34.87232 C 343.38878,119.79659 355.05722,112 368,112 c 17.67311,0 32,14.32689 32,32 z"
     id="path4" />
</svg>
