<?xml version="1.0" encoding="utf-8"?>
<!-- Generator: Adobe Illustrator 24.0.0, SVG Export Plug-In . SVG Version: 6.00 Build 0)  -->
<svg version="1.1" id="Layer_1" xmlns="http://www.w3.org/2000/svg" xmlns:xlink="http://www.w3.org/1999/xlink" x="0px" y="0px"
	 viewBox="0 0 512 512" style="enable-background:new 0 0 512 512;" xml:space="preserve">
<title>ionicons-v5-g</title>
<g>
	<path d="M256,496c-26.5,0-48-21.5-48-48s21.5-48,48-48c26.5,0,48,21.5,48,48S282.5,496,256,496z M256,432c-8.8,0-16,7.2-16,16
		s7.2,16,16,16s16-7.2,16-16S264.8,432,256,432z"/>
</g>
<g>
	<path d="M256,368c-26.5,0-48-21.5-48-48s21.5-48,48-48c26.5,0,48,21.5,48,48S282.5,368,256,368z M256,304c-8.8,0-16,7.2-16,16
		s7.2,16,16,16s16-7.2,16-16S264.8,304,256,304z"/>
</g>
<g>
	<path d="M256,240c-26.5,0-48-21.5-48-48s21.5-48,48-48c26.5,0,48,21.5,48,48S282.5,240,256,240z M256,176c-8.8,0-16,7.2-16,16
		s7.2,16,16,16s16-7.2,16-16S264.8,176,256,176z"/>
</g>
<g>
	<path d="M256,112c-26.5,0-48-21.5-48-48s21.5-48,48-48c26.5,0,48,21.5,48,48S282.5,112,256,112z M256,48c-8.8,0-16,7.2-16,16
		s7.2,16,16,16s16-7.2,16-16S264.8,48,256,48z"/>
</g>
<g>
	<path d="M384,368c-26.5,0-48-21.5-48-48s21.5-48,48-48s48,21.5,48,48S410.5,368,384,368z M384,304c-8.8,0-16,7.2-16,16
		s7.2,16,16,16s16-7.2,16-16S392.8,304,384,304z"/>
</g>
<g>
	<path d="M384,240c-26.5,0-48-21.5-48-48s21.5-48,48-48s48,21.5,48,48S410.5,240,384,240z M384,176c-8.8,0-16,7.2-16,16
		s7.2,16,16,16s16-7.2,16-16S392.8,176,384,176z"/>
</g>
<g>
	<path d="M384,112c-26.5,0-48-21.5-48-48s21.5-48,48-48s48,21.5,48,48S410.5,112,384,112z M384,48c-8.8,0-16,7.2-16,16s7.2,16,16,16
		s16-7.2,16-16S392.8,48,384,48z"/>
</g>
<g>
	<path d="M128,368c-26.5,0-48-21.5-48-48s21.5-48,48-48s48,21.5,48,48S154.5,368,128,368z M128,304c-8.8,0-16,7.2-16,16
		s7.2,16,16,16s16-7.2,16-16S136.8,304,128,304z"/>
</g>
<g>
	<path d="M128,240c-26.5,0-48-21.5-48-48s21.5-48,48-48s48,21.5,48,48S154.5,240,128,240z M128,176c-8.8,0-16,7.2-16,16
		s7.2,16,16,16s16-7.2,16-16S136.8,176,128,176z"/>
</g>
<g>
	<path d="M128,112c-26.5,0-48-21.5-48-48s21.5-48,48-48s48,21.5,48,48S154.5,112,128,112z M128,48c-8.8,0-16,7.2-16,16s7.2,16,16,16
		s16-7.2,16-16S136.8,48,128,48z"/>
</g>
</svg>
