<?xml version="1.0" encoding="UTF-8"?>
<svg width="512px" height="512px" viewBox="0 0 512 512" version="1.1" xmlns="http://www.w3.org/2000/svg" xmlns:xlink="http://www.w3.org/1999/xlink">
    <!-- Generator: Sketch 62 (91390) - https://sketch.com -->
    <title>Artboard</title>
    <desc>Created with Sketch.</desc>
    <g id="Artboard" stroke="none" stroke-width="1" fill="none" fill-rule="evenodd">
        <g id="language-outline" transform="translate(32.000000, 48.000000)" fill="#000000" fill-rule="nonzero">
            <path d="M336,160 C342.4,160 348.2,163.8 350.7,169.7 L446.7,393.7 C450.2,401.8 446.4,411.2 438.3,414.7 C436.2,415.6 434.1,416 432,416 C425.8,416 419.9,412.4 417.3,406.3 L394.029,352 L277.971,352 L254.7,406.3 C251.2,414.4 241.8,418.2 233.7,414.7 C225.6,411.2 221.8,401.8 225.3,393.7 L321.3,169.7 C323.8,163.8 329.6,160 336,160 Z M160,0 C168.8,0 176,7.2 176,16 L176,48 L248.791241,48.0005929 C249.057703,47.9935798 249.325196,47.9932413 249.593512,47.9997063 L304,48 C312.8,48 320,55.2 320,64 C320,72.8 312.8,80 304,80 L261.249946,79.9958407 C253.010853,106.783119 229.70163,173.12183 186.602238,229.826525 C212.532722,258.857598 233.364419,275.064419 233.6,275.3 C240.6,280.7 241.9,290.8 236.5,297.7 C233.5,301.9 228.8,304 224,304 C220.6,304 217.2,302.9 214.2,300.7 C213.064952,299.791962 192.40449,283.767474 166.040252,254.74961 C111.412632,316.795195 58.5054719,348.31971 56.1,349.8 C53.6,351.3 50.8,352 48,352 C42.5,352 37.2,349.2 34.2,344.1 C29.7,336.5 32.2,326.7 39.8,322.2 L39.9053464,322.140021 C42.5855906,320.5716 93.8142046,289.2193 145.04853,230.12868 C143.140678,227.74056 141.223186,225.298107 139.3,222.8 C101.8,174.2 82.5,136.9 81.7,135.3 C77.7,127.4 80.8,117.8 88.6,113.8 C96.5,109.8 106.1,112.9 110.1,120.7 C110.3,121.1 129,157.1 164.5,203.2 L165.537982,204.54302 C198.284838,159.341172 218.317673,107.669612 227.574397,79.9965534 L16,80 C7.2,80 0,72.8 0,64 C0,55.2 7.2,48 16,48 L144,48 L144,16 C144,7.2 151.2,0 160,0 Z M336,216.6 L291.686,320 L380.314,320 L336,216.6 Z" id="Combined-Shape"></path>
        </g>
    </g>
</svg>