<?xml version="1.0" encoding="utf-8"?>
<!-- Generator: Adobe Illustrator 24.0.0, SVG Export Plug-In . SVG Version: 6.00 Build 0)  -->
<svg version="1.1" id="Layer_1" xmlns="http://www.w3.org/2000/svg" xmlns:xlink="http://www.w3.org/1999/xlink" x="0px" y="0px"
	 viewBox="0 0 512 512" style="enable-background:new 0 0 512 512;" xml:space="preserve">
<title>ionicons-v5-n</title>
<g>
	<path d="M431.9,416H80.1C53.6,416,32,394.4,32,367.9V128.1C32,101.6,53.6,80,80.1,80h351.7c26.5,0,48.1,21.6,48.1,48.1v239.7
		C480,394.4,458.4,416,431.9,416z M80.1,112c-8.9,0-16.1,7.2-16.1,16.1v239.7c0,8.9,7.2,16.1,16.1,16.1h351.7
		c8.9,0,16.1-7.2,16.1-16.1V128.1c0-8.9-7.2-16.1-16.1-16.1H80.1z"/>
</g>
<g>
	<path d="M496,432H16c-8.8,0-16-7.2-16-16s7.2-16,16-16h480c8.8,0,16,7.2,16,16S504.8,432,496,432z"/>
</g>
</svg>
