<?xml version="1.0" encoding="UTF-8" standalone="no"?>
<svg
   xmlns:dc="http://purl.org/dc/elements/1.1/"
   xmlns:cc="http://creativecommons.org/ns#"
   xmlns:rdf="http://www.w3.org/1999/02/22-rdf-syntax-ns#"
   xmlns:svg="http://www.w3.org/2000/svg"
   xmlns="http://www.w3.org/2000/svg"
   xmlns:sodipodi="http://sodipodi.sourceforge.net/DTD/sodipodi-0.dtd"
   xmlns:inkscape="http://www.inkscape.org/namespaces/inkscape"
   class="ionicon"
   viewBox="0 0 512 512"
   version="1.1"
   id="svg8"
   sodipodi:docname="layers-outline.svg"
   inkscape:version="1.0.2 (e86c8708, 2021-01-15)">
  <metadata
     id="metadata14">
    <rdf:RDF>
      <cc:Work
         rdf:about="">
        <dc:format>image/svg+xml</dc:format>
        <dc:type
           rdf:resource="http://purl.org/dc/dcmitype/StillImage" />
      </cc:Work>
    </rdf:RDF>
  </metadata>
  <defs
     id="defs12" />
  <sodipodi:namedview
     pagecolor="#ffffff"
     bordercolor="#666666"
     borderopacity="1"
     objecttolerance="10"
     gridtolerance="10"
     guidetolerance="10"
     inkscape:pageopacity="0"
     inkscape:pageshadow="2"
     inkscape:window-width="689"
     inkscape:window-height="480"
     id="namedview10"
     showgrid="false"
     inkscape:zoom="1.3027344"
     inkscape:cx="256"
     inkscape:cy="256"
     inkscape:window-x="44"
     inkscape:window-y="25"
     inkscape:window-maximized="0"
     inkscape:current-layer="svg8" />
  <title
     id="title2">Layers</title>
  <path
     style="color:#000000;font-style:normal;font-variant:normal;font-weight:normal;font-stretch:normal;font-size:medium;line-height:normal;font-family:sans-serif;font-variant-ligatures:normal;font-variant-position:normal;font-variant-caps:normal;font-variant-numeric:normal;font-variant-alternates:normal;font-variant-east-asian:normal;font-feature-settings:normal;font-variation-settings:normal;text-indent:0;text-align:start;text-decoration:none;text-decoration-line:none;text-decoration-style:solid;text-decoration-color:#000000;letter-spacing:normal;word-spacing:normal;text-transform:none;writing-mode:lr-tb;direction:ltr;text-orientation:mixed;dominant-baseline:auto;baseline-shift:baseline;text-anchor:start;white-space:normal;shape-padding:0;shape-margin:0;inline-size:0;clip-rule:nonzero;display:inline;overflow:visible;visibility:visible;isolation:auto;mix-blend-mode:normal;color-interpolation:sRGB;color-interpolation-filters:linearRGB;solid-color:#000000;solid-opacity:1;vector-effect:none;fill:currentColor;fill-opacity:1;fill-rule:nonzero;stroke:none;stroke-linecap:round;stroke-linejoin:round;stroke-miterlimit:4;stroke-dasharray:none;stroke-dashoffset:0;stroke-opacity:1;color-rendering:auto;image-rendering:auto;shape-rendering:auto;text-rendering:auto;enable-background:accumulate;stop-color:#000000;stop-opacity:1;opacity:1"
     d="M 256 47.390625 C 243.50635 47.390625 231.01244 49.924981 219.91797 54.994141 L 219.91602 54.994141 C 219.91339 54.995341 219.91083 54.996847 219.9082 54.998047 L 70.679688 123.08398 C 58.88691 128.44434 48.099609 138.02128 48.099609 152.19531 C 48.099609 166.36144 58.875081 175.93481 70.660156 181.29688 L 70.671875 181.30273 C 70.674506 181.30393 70.677056 181.30544 70.679688 181.30664 L 218.66016 248.79688 A 16.0016 16.0016 0 0 0 218.66211 248.79883 C 241.58177 259.2477 270.59792 259.2477 293.51758 248.79883 A 16.0016 16.0016 0 0 0 293.51953 248.79688 L 441.51953 181.29688 A 16.0016 16.0016 0 0 0 441.52539 181.29492 C 453.28707 175.92429 464.0366 166.31306 464.00977 152.16016 C 463.98294 138.01137 453.21678 128.4424 441.42383 123.08594 L 292.08594 54.996094 C 280.99048 49.925734 268.49513 47.390625 256 47.390625 z M 256 80.609375 C 264.84777 80.609375 273.69591 81.773625 278.78906 84.101562 A 16.0016 16.0016 0 0 0 278.80273 84.107422 L 428.16211 152.20898 A 16.0016 16.0016 0 0 0 428.17188 152.21289 L 280.24023 219.68164 C 269.37944 224.63186 242.80024 224.63186 231.93945 219.68164 L 231.9375 219.68164 L 83.96875 152.19531 L 233.20117 84.107422 A 16.0016 16.0016 0 0 0 233.21094 84.101562 C 238.30409 81.773625 247.15223 80.609375 256 80.609375 z M 355.05273 291.16016 A 16 16 0 0 0 340.52344 300.22266 A 16 16 0 0 0 348.00195 321.57812 L 427.94141 360.04688 A 16.0016 16.0016 0 0 0 428.22461 360.17969 L 280.24609 427.66992 C 269.38258 432.61346 242.8078 432.61389 231.93945 427.67188 L 231.93359 427.66992 C 231.93242 427.66939 231.93086 427.6685 231.92969 427.66797 L 83.957031 360.17969 L 166.55078 323.11719 A 16 16 0 0 0 174.59766 301.96875 A 16 16 0 0 0 153.44922 293.92188 L 70.75 331.0332 A 16.0016 16.0016 0 0 0 70.679688 331.06445 C 58.884623 336.42585 48.099609 346.00737 48.099609 360.17969 C 48.099609 374.352 58.884623 383.93353 70.679688 389.29492 L 218.66016 456.78711 A 16.0016 16.0016 0 0 0 218.66992 456.79102 C 241.58579 467.22459 270.5939 467.22459 293.50977 456.79102 A 16.0016 16.0016 0 0 0 293.51953 456.78711 L 441.5 389.29492 C 453.29506 383.93353 464.08008 374.352 464.08008 360.17969 C 464.08008 346.00737 453.29506 336.42585 441.5 331.06445 L 441.81836 331.21289 L 361.87891 292.74219 A 16 16 0 0 0 355.05273 291.16016 z "
     id="path4" />
  <path
     style="color:#000000;font-style:normal;font-variant:normal;font-weight:normal;font-stretch:normal;font-size:medium;line-height:normal;font-family:sans-serif;font-variant-ligatures:normal;font-variant-position:normal;font-variant-caps:normal;font-variant-numeric:normal;font-variant-alternates:normal;font-variant-east-asian:normal;font-feature-settings:normal;font-variation-settings:normal;text-indent:0;text-align:start;text-decoration:none;text-decoration-line:none;text-decoration-style:solid;text-decoration-color:#000000;letter-spacing:normal;word-spacing:normal;text-transform:none;writing-mode:lr-tb;direction:ltr;text-orientation:mixed;dominant-baseline:auto;baseline-shift:baseline;text-anchor:start;white-space:normal;shape-padding:0;shape-margin:0;inline-size:0;clip-rule:nonzero;display:inline;overflow:visible;visibility:visible;isolation:auto;mix-blend-mode:normal;color-interpolation:sRGB;color-interpolation-filters:linearRGB;solid-color:#000000;solid-opacity:1;vector-effect:none;fill:currentColor;fill-opacity:1;fill-rule:nonzero;stroke:none;stroke-linecap:round;stroke-linejoin:round;stroke-miterlimit:4;stroke-dasharray:none;stroke-dashoffset:0;stroke-opacity:1;color-rendering:auto;image-rendering:auto;shape-rendering:auto;text-rendering:auto;enable-background:accumulate;stop-color:#000000;stop-opacity:1;opacity:1"
     d="M 159.88281 188.48047 A 16 16 0 0 0 153.44922 189.88281 L 70.648438 227.04297 A 16.0016 16.0016 0 0 0 70.580078 227.07422 C 58.785014 232.43561 48 242.01714 48 256.18945 C 48 270.35386 58.773191 279.93377 70.560547 285.29688 L 70.572266 285.30273 C 70.574897 285.30393 70.577447 285.30544 70.580078 285.30664 L 218.56055 352.78711 A 16.0016 16.0016 0 0 0 218.5625 352.78906 C 241.48216 363.23793 270.49831 363.23793 293.41797 352.78906 A 16.0016 16.0016 0 0 0 293.41797 352.78711 L 441.36914 285.32031 L 441.38086 285.31445 C 453.21301 279.96348 464.03473 270.42129 464.06836 256.22852 C 464.102 242.031 453.29506 232.43561 441.5 227.07422 A 16.0016 16.0016 0 0 0 441.42578 227.04102 L 358.54688 189.88086 A 16 16 0 0 0 337.40039 197.93359 A 16 16 0 0 0 345.45312 219.08008 L 428.17188 256.16797 A 16.0016 16.0016 0 0 0 428.14062 256.18164 L 280.14062 323.67188 C 269.27933 328.62232 242.69773 328.62278 231.83789 323.67188 L 83.857422 256.19141 L 166.55078 219.07812 A 16 16 0 0 0 174.59766 197.92969 A 16 16 0 0 0 159.88281 188.48047 z "
     id="path6" />
</svg>
