<?xml version="1.0" encoding="utf-8"?>
<!-- Generator: Adobe Illustrator 24.0.0, SVG Export Plug-In . SVG Version: 6.00 Build 0)  -->
<svg version="1.1" id="Layer_1" xmlns="http://www.w3.org/2000/svg" xmlns:xlink="http://www.w3.org/1999/xlink" x="0px" y="0px"
	 viewBox="0 0 512 512" style="enable-background:new 0 0 512 512;" xml:space="preserve">
<title>ionicons-v5-a</title>
<g>
	<path d="M256.1,256c-13.5,0-26.9-2.4-37.4-7.2l-148-67.5c-6.8-3.1-22.6-12.1-22.6-29.1c0-17,15.8-26,22.6-29.1L219.9,55
		c20.6-9.4,51.6-9.4,72.2,0l149.3,68.1c6.8,3.1,22.6,12.1,22.6,29.1c0,17-15.7,26-22.5,29.1l-148,67.5
		C283,253.6,269.6,256,256.1,256z M84,152.2l148,67.5c12.6,5.8,35.7,5.8,48.3,0l147.9-67.5c0,0,0,0,0,0L278.8,84.1
		c-11.9-5.5-33.7-5.5-45.6,0L84,152.2z M432.8,155.1L432.8,155.1L432.8,155.1z"/>
</g>
<g>
	<path d="M256.1,464c-13.5,0-26.9-2.4-37.4-7.2l-148-67.5c-6.8-3.1-22.6-12.1-22.6-29.1c0-17,15.8-26,22.6-29.1l82.8-37.1
		c8.1-3.6,17.5,0,21.1,8c3.6,8.1,0,17.5-8,21.1L84,360.2l148,67.5c12.6,5.8,35.7,5.8,48.3,0l148-67.5c-0.1,0-0.2-0.1-0.3-0.1
		L348,321.6c-8-3.8-11.3-13.4-7.5-21.4c3.8-8,13.4-11.3,21.4-7.5l79.8,38.4c6.9,3.2,22.4,12.2,22.4,29c0,17-15.8,26-22.6,29.1
		l-148,67.5C283,461.6,269.6,464,256.1,464z"/>
</g>
<g>
	<path d="M256,360c-13.5,0-26.9-2.4-37.4-7.2l-148-67.5c-6.8-3.1-22.6-12.1-22.6-29.1c0-17,15.8-26,22.6-29.1l82.9-37.2
		c8.1-3.6,17.5,0,21.1,8c3.6,8.1,0,17.5-8,21.1l-82.7,37.1l148,67.5c12.6,5.8,35.7,5.8,48.3,0l148-67.5c0,0,0,0,0,0l-82.7-37.1
		c-8.1-3.6-11.7-13.1-8.1-21.1c3.6-8.1,13.1-11.7,21.1-8.1l82.9,37.2c6.9,3.1,22.7,12.1,22.6,29.2c0,17-15.9,26-22.7,29.1l-148,67.5
		C282.9,357.6,269.5,360,256,360z"/>
</g>
</svg>
