<?xml version="1.0" encoding="utf-8"?>
<!-- Generator: Adobe Illustrator 24.0.0, SVG Export Plug-In . SVG Version: 6.00 Build 0)  -->
<svg version="1.1" id="Layer_1" xmlns="http://www.w3.org/2000/svg" xmlns:xlink="http://www.w3.org/1999/xlink" x="0px" y="0px"
	 viewBox="0 0 512 512" style="enable-background:new 0 0 512 512;" xml:space="preserve">
<title>ionicons-v5-o</title>
<g>
	<path d="M280.2,463.6c-49.3,0-98.9-19.2-136.9-53.9c-29.4-26.9-69.8-81.6-95.1-189.7C32.5,152.7,28.9,88.9,34.5,66.2
		c2.4-9.7,7.4-15.6,14.8-17.6c6.5-1.7,13.4,0.4,18.3,5.7c44.9,47.5,92,55.5,141.8,63.8c39.5,6.6,80.3,13.5,121.1,39.9l0,0
		c45.8,29.6,77,69.3,90.5,114.9c12.9,43.8,7.7,89-14.8,127.3c-19.1,32.5-54.9,54.9-98.3,61.5C298.8,462.9,289.5,463.6,280.2,463.6z
		 M64,94.8c0,23.7,3.2,64,14.2,112.8c18.1,80.6,48.9,144,86.6,178.5c19.3,17.6,42.7,30.9,67.7,38.3c23.5,7,47.9,8.9,70.6,5.5
		c34.3-5.2,61.1-21.5,75.5-46c17.9-30.5,22.1-66.8,11.7-102c-11.2-38.1-37.9-71.7-77.2-97l0,0c-35.3-22.8-71.1-28.8-109.1-35.2
		C157.9,141.9,110.2,133.9,64,94.8z M44.4,76.2C44.4,76.2,44.4,76.2,44.4,76.2C44.4,76.2,44.4,76.2,44.4,76.2z"/>
</g>
<g>
	<path d="M465,416c-0.8,0-1.6-0.1-2.5-0.2C346.8,398,254.1,351.4,162,264.6c-6.4-6.1-6.7-16.2-0.7-22.6c6.1-6.4,16.2-6.7,22.6-0.7
		c87.1,82,174.5,126.1,283.5,142.8c8.7,1.3,14.7,9.5,13.4,18.2C479.6,410.3,472.8,416,465,416z"/>
</g>
</svg>
