<?xml version="1.0" encoding="UTF-8"?>
<svg width="512px" height="512px" viewBox="0 0 512 512" version="1.1" xmlns="http://www.w3.org/2000/svg" xmlns:xlink="http://www.w3.org/1999/xlink">
    <!-- Generator: Sketch 62 (91390) - https://sketch.com -->
    <title>Artboard</title>
    <desc>Created with Sketch.</desc>
    <g id="Artboard" stroke="none" stroke-width="1" fill="none" fill-rule="evenodd">
        <g id="library-outline" transform="translate(16.000000, 32.000000)" fill="#000000" fill-rule="nonzero">
            <path d="M320,0 C337.6,0 352,14.4 352,32 L352.000255,56.1212568 C355.800102,54.194411 359.944975,52.9584237 364.3,52.5 L404.7,48.3 C424.5,46.2 442.5,61 444.8,81.3 L479.7,402.9 C480.8,412.9 477.9,422.7 471.7,430.4 C465.6,437.9 457.1,442.6 447.6,443.6 L407.2,447.8 C406,447.9 404.7,448 403.5,448 C385.1,448 369.2,433.8 367.1,414.8 L352,275.66 L352,416 C352,433.6 337.6,448 320,448 L256,448 C246.468485,448 237.875501,443.776612 232.000006,437.108794 C226.124499,443.776612 217.531515,448 208,448 L112,448 C102.468485,448 93.8755011,443.776612 88.0000062,437.108794 C82.1244989,443.776612 73.5315148,448 64,448 L32,448 C14.4,448 0,433.6 0,416 L0,80 C0,62.4 14.4,48 32,48 L64,48 C81.6,48 96,62.4 96,80 L96.0008298,116.315413 C100.714617,113.573295 106.182498,112 112,112 L208,112 C213.817915,112 219.28616,113.573519 224.000175,116.315997 L224,32 C224,14.4 238.4,0 256,0 L320,0 Z M408.1,80 L367.7,84.2 C366.5,84.3 365.6,85.1 365.1,85.7 C364.6,86.3 363.8,87.7 364,89.7 L399,411.3 C399.3,414 401.6,416.2 403.9,416 L444.3,411.8 C445.5,411.7 446.4,410.9 446.9,410.3 C447.4,409.7 448.2,408.3 448,406.3 L413.1,84.8 C412.8,82 410.5,79.8 408.1,80 Z M64,80 L32,80 L32,80 L32,416 L64,416 L64,80 Z M208,384 L112,384 L112,416 L208,416 L208,384 Z M320,32 L256,32 L256,32 L256,416 L320,416 L320,32 Z M208,208 L112,208 L112,352 L208,352 L208,208 Z M208,144 L112,144 L112,144 L112,176 L208,176 L208,144 Z" id="Combined-Shape"></path>
        </g>
    </g>
</svg>