<?xml version="1.0" encoding="utf-8"?>
<!-- Generator: Adobe Illustrator 24.0.0, SVG Export Plug-In . SVG Version: 6.00 Build 0)  -->
<svg version="1.1" id="Layer_1" xmlns="http://www.w3.org/2000/svg" xmlns:xlink="http://www.w3.org/1999/xlink" x="0px" y="0px"
	 viewBox="0 0 512 512" style="enable-background:new 0 0 512 512;" xml:space="preserve">
<title>ionicons-v5-o</title>
<g>
	<path d="M200.7,376H144c-66.2,0-120-53.8-120-120s53.8-120,120-120h55.4c13.3,0,24,10.7,24,24s-10.7,24-24,24H144
		c-39.7,0-72,32.3-72,72s32.3,72,72,72h56.7c13.3,0,24,10.7,24,24S213.9,376,200.7,376z"/>
</g>
<g>
	<path d="M368,376h-56.7c-13.3,0-24-10.7-24-24s10.7-24,24-24H368c39.7,0,72-32.3,72-72s-32.3-72-72-72h-55.4c-13.3,0-24-10.7-24-24
		s10.7-24,24-24H368c66.2,0,120,53.8,120,120S434.2,376,368,376z"/>
</g>
<g>
	<path d="M344.9,280H169.1c-13.3,0-24-10.7-24-24s10.7-24,24-24h175.9c13.3,0,24,10.7,24,24S358.2,280,344.9,280z"/>
</g>
</svg>
