<?xml version="1.0" encoding="utf-8"?>
<!-- Generator: Adobe Illustrator 24.0.0, SVG Export Plug-In . SVG Version: 6.00 Build 0)  -->
<svg version="1.1" id="Layer_1" xmlns="http://www.w3.org/2000/svg" xmlns:xlink="http://www.w3.org/1999/xlink" x="0px" y="0px"
	 viewBox="0 0 512 512" style="enable-background:new 0 0 512 512;" xml:space="preserve">
<title>ionicons-v5-o</title>
<g>
	<path d="M448,160H160c-8.8,0-16-7.2-16-16s7.2-16,16-16h288c8.8,0,16,7.2,16,16S456.8,160,448,160z"/>
</g>
<g>
	<path d="M448,272H160c-8.8,0-16-7.2-16-16c0-8.8,7.2-16,16-16h288c8.8,0,16,7.2,16,16C464,264.8,456.8,272,448,272z"/>
</g>
<g>
	<path d="M448,384H160c-8.8,0-16-7.2-16-16s7.2-16,16-16h288c8.8,0,16,7.2,16,16S456.8,384,448,384z"/>
</g>
<g>
	<path d="M80,176c-17.6,0-32-14.4-32-32s14.4-32,32-32s32,14.4,32,32S97.6,176,80,176z M80,144C80,144,80,144,80,144L80,144z"/>
</g>
<g>
	<path d="M80,288c-17.6,0-32-14.4-32-32c0-17.6,14.4-32,32-32s32,14.4,32,32C112,273.6,97.6,288,80,288z M80,256
		C80,256,80,256,80,256L80,256z"/>
</g>
<g>
	<path d="M80,400c-17.6,0-32-14.4-32-32s14.4-32,32-32s32,14.4,32,32S97.6,400,80,400z M80,368C80,368,80,368,80,368L80,368z"/>
</g>
</svg>
