<?xml version="1.0" encoding="utf-8"?>
<!-- Generator: Adobe Illustrator 24.0.0, SVG Export Plug-In . SVG Version: 6.00 Build 0)  -->
<svg version="1.1" id="Layer_1" xmlns="http://www.w3.org/2000/svg" xmlns:xlink="http://www.w3.org/1999/xlink" x="0px" y="0px"
	 viewBox="0 0 512 512" style="enable-background:new 0 0 512 512;" xml:space="preserve">
<title>ionicons-v5-o</title>
<g>
	<path d="M352,200H224c-8.8,0-16-7.2-16-16s7.2-16,16-16h128c8.8,0,16,7.2,16,16S360.8,200,352,200z"/>
</g>
<g>
	<path d="M352,272H224c-8.8,0-16-7.2-16-16c0-8.8,7.2-16,16-16h128c8.8,0,16,7.2,16,16C368,264.8,360.8,272,352,272z"/>
</g>
<g>
	<path d="M352,343H224c-8.8,0-16-7.2-16-16s7.2-16,16-16h128c8.8,0,16,7.2,16,16S360.8,343,352,343z"/>
</g>
<g>
	<path d="M256,466c-114.7,0-208-93.3-208-208S141.3,50,256,50s208,93.3,208,208S370.7,466,256,466z M256,82c-97,0-176,79-176,176
		s79,176,176,176s176-79,176-176S353,82,256,82z"/>
</g>
<g>
	<path d="M168,208c-13.2,0-24-10.8-24-24s10.8-24,24-24s24,10.8,24,24S181.2,208,168,208z M168,176c-4.4,0-8,3.6-8,8s3.6,8,8,8
		s8-3.6,8-8S172.4,176,168,176z"/>
</g>
<g>
	<path d="M168,281c-13.2,0-24-10.8-24-24s10.8-24,24-24s24,10.8,24,24S181.2,281,168,281z M168,249c-4.4,0-8,3.6-8,8s3.6,8,8,8
		s8-3.6,8-8S172.4,249,168,249z"/>
</g>
<g>
	<path d="M168,352c-13.2,0-24-10.8-24-24s10.8-24,24-24s24,10.8,24,24S181.2,352,168,352z M168,320c-4.4,0-8,3.6-8,8s3.6,8,8,8
		s8-3.6,8-8S172.4,320,168,320z"/>
</g>
</svg>
