<?xml version="1.0" encoding="utf-8"?>
<!-- Generator: Adobe Illustrator 24.0.0, SVG Export Plug-In . SVG Version: 6.00 Build 0)  -->
<svg version="1.1" id="Layer_1" xmlns="http://www.w3.org/2000/svg" xmlns:xlink="http://www.w3.org/1999/xlink" x="0px" y="0px"
	 viewBox="0 0 512 512" style="enable-background:new 0 0 512 512;" xml:space="preserve">
<title>ionicons-v5-o</title>
<g>
	<rect x="144" y="120" width="320" height="48"/>
</g>
<g>
	<rect x="144" y="232" width="320" height="48"/>
</g>
<g>
	<rect x="144" y="344" width="320" height="48"/>
</g>
<g>
	<path d="M96,176H64c-8.8,0-16-7.2-16-16v-32c0-8.8,7.2-16,16-16h32c8.8,0,16,7.2,16,16v32C112,168.8,104.8,176,96,176z"/>
</g>
<g>
	<path d="M96,288H64c-8.8,0-16-7.2-16-16v-32c0-8.8,7.2-16,16-16h32c8.8,0,16,7.2,16,16v32C112,280.8,104.8,288,96,288z"/>
</g>
<g>
	<path d="M96,400H64c-8.8,0-16-7.2-16-16v-32c0-8.8,7.2-16,16-16h32c8.8,0,16,7.2,16,16v32C112,392.8,104.8,400,96,400z"/>
</g>
</svg>
