<?xml version="1.0" encoding="utf-8"?>
<!-- Generator: Adobe Illustrator 24.0.0, SVG Export Plug-In . SVG Version: 6.00 Build 0)  -->
<svg version="1.1" id="Layer_1" xmlns="http://www.w3.org/2000/svg" xmlns:xlink="http://www.w3.org/1999/xlink" x="0px" y="0px"
	 viewBox="0 0 512 512" style="enable-background:new 0 0 512 512;" xml:space="preserve">
<title>ionicons-v5-o</title>
<g>
	<path d="M256,120c-13.3,0-24-10.7-24-24V56c0-13.3,10.7-24,24-24s24,10.7,24,24v40C280,109.3,269.3,120,256,120z"/>
</g>
<g>
	<path d="M256,480c-13.3,0-24-10.7-24-24v-40c0-13.3,10.7-24,24-24s24,10.7,24,24v40C280,469.3,269.3,480,256,480z"/>
</g>
<g>
	<path d="M256,416c-88.2,0-160-71.8-160-160c0-88.2,71.8-160,160-160c88.2,0,160,71.8,160,160C416,344.2,344.2,416,256,416z
		 M256,128c-70.6,0-128,57.4-128,128c0,70.6,57.4,128,128,128c70.6,0,128-57.4,128-128C384,185.4,326.6,128,256,128z"/>
</g>
<g>
	<path d="M456,280h-40c-13.3,0-24-10.7-24-24s10.7-24,24-24h40c13.3,0,24,10.7,24,24S469.3,280,456,280z"/>
</g>
<g>
	<path d="M96,280H56c-13.3,0-24-10.7-24-24s10.7-24,24-24h40c13.3,0,24,10.7,24,24S109.3,280,96,280z"/>
</g>
</svg>
