<?xml version="1.0" encoding="utf-8"?>
<!-- Generator: Adobe Illustrator 24.0.0, SVG Export Plug-In . SVG Version: 6.00 Build 0)  -->
<svg version="1.1" id="Layer_1" xmlns="http://www.w3.org/2000/svg" xmlns:xlink="http://www.w3.org/1999/xlink" x="0px" y="0px"
	 viewBox="0 0 512 512" style="enable-background:new 0 0 512 512;" xml:space="preserve">
<title>ionicons-v5-o</title>
<g>
	<rect x="232" y="32" width="48" height="88"/>
</g>
<g>
	<rect x="232" y="392" width="48" height="88"/>
</g>
<g>
	<path d="M256,424c-92.6,0-168-75.4-168-168S163.4,88,256,88s168,75.4,168,168S348.6,424,256,424z M256,136
		c-66.2,0-120,53.8-120,120c0,66.2,53.8,120,120,120c66.2,0,120-53.8,120-120C376,189.8,322.2,136,256,136z"/>
</g>
<g>
	<rect x="392" y="232" width="88" height="48"/>
</g>
<g>
	<rect x="32" y="232" width="88" height="48"/>
</g>
</svg>
