<?xml version="1.0" encoding="utf-8"?>
<!-- Generator: Adobe Illustrator 24.0.0, SVG Export Plug-In . SVG Version: 6.00 Build 0)  -->
<svg version="1.1" id="Layer_1" xmlns="http://www.w3.org/2000/svg" xmlns:xlink="http://www.w3.org/1999/xlink" x="0px" y="0px"
	 viewBox="0 0 512 512" style="enable-background:new 0 0 512 512;" xml:space="preserve">
<title>ionicons-v5-n</title>
<g>
	<path d="M256.1,480c-1.7,0-3.3-0.1-5-0.4c-8.4-1.3-15.7-5.8-20.7-12.6C189.9,412.4,96,275.6,96,185c0-84.4,71.8-153,160-153
		c88.2,0,160,68.6,160,153c0,90.7-93.9,227.4-134.4,282c-1.9,2.7-4.3,5-6.9,6.9C269.2,477.9,262.7,480,256.1,480z M256,64
		c-70.6,0-128,54.3-128,121c0,34.2,17.4,83.7,50.4,143.3c28.1,50.8,60.6,96.7,77.6,119.6c17-23,49.5-68.8,77.6-119.5
		c33-59.5,50.4-109.1,50.4-143.3C384,118.3,326.6,64,256,64z"/>
</g>
<g>
	<path d="M256,256c-35.3,0-64-28.7-64-64s28.7-64,64-64c35.3,0,64,28.7,64,64S291.3,256,256,256z M256,160c-17.6,0-32,14.4-32,32
		s14.4,32,32,32c17.6,0,32-14.4,32-32S273.6,160,256,160z"/>
</g>
</svg>
