<?xml version="1.0" encoding="utf-8"?>
<!-- Generator: Adobe Illustrator 24.0.0, SVG Export Plug-In . SVG Version: 6.00 Build 0)  -->
<svg version="1.1" id="Layer_1" xmlns="http://www.w3.org/2000/svg" xmlns:xlink="http://www.w3.org/1999/xlink" x="0px" y="0px"
	 viewBox="0 0 512 512" style="enable-background:new 0 0 512 512;" xml:space="preserve">
<title>ionicons-v5-g</title>
<g>
	<path d="M176,224c-8.8,0-16-7.2-16-16v-96c0-52.9,43.1-96,96-96s96,43.1,96,96c0,8.8-7.2,16-16,16s-16-7.2-16-16
		c0-35.3-28.7-64-64-64c-35.3,0-64,28.7-64,64v96C192,216.8,184.8,224,176,224z"/>
</g>
<g>
	<path d="M368,496H144c-35.3,0-64-28.7-64-64V256c0-35.3,28.7-64,64-64h224c35.3,0,64,28.7,64,64v176C432,467.3,403.3,496,368,496z
		 M144,224c-17.6,0-32,14.4-32,32v176c0,17.6,14.4,32,32,32h224c17.6,0,32-14.4,32-32V256c0-17.6-14.4-32-32-32H144z"/>
</g>
</svg>
