<?xml version="1.0" encoding="utf-8"?>
<!-- Generator: Adobe Illustrator 24.0.0, SVG Export Plug-In . SVG Version: 6.00 Build 0)  -->
<svg version="1.1" id="Layer_1" xmlns="http://www.w3.org/2000/svg" xmlns:xlink="http://www.w3.org/1999/xlink" x="0px" y="0px"
	 viewBox="0 0 512 512" style="enable-background:new 0 0 512 512;" xml:space="preserve">
<title>ionicons-v5-o</title>
<g>
	<path d="M392,432H240c-14.5,0-29.9-5.5-42.2-15.1C184,406,176,391.1,176,376v-40c0-8.8,7.2-16,16-16s16,7.2,16,16v40
		c0,11.4,16.7,24,32,24h152c13.2,0,24-10.8,24-24V136c0-13.2-10.8-24-24-24H232c-13.2,0-24,10.8-24,24v40c0,8.8-7.2,16-16,16
		s-16-7.2-16-16v-40c0-30.9,25.1-56,56-56h160c30.9,0,56,25.1,56,56v240C448,406.9,422.9,432,392,432z"/>
</g>
<g>
	<path d="M288,352c-4.1,0-8.2-1.6-11.3-4.7c-6.2-6.2-6.2-16.4,0-22.6l68.7-68.7l-68.7-68.7c-6.2-6.2-6.2-16.4,0-22.6
		c6.2-6.2,16.4-6.2,22.6,0l80,80c6.2,6.2,6.2,16.4,0,22.6l-80,80C296.2,350.4,292.1,352,288,352z"/>
</g>
<g>
	<path d="M352,272H80c-8.8,0-16-7.2-16-16c0-8.8,7.2-16,16-16h272c8.8,0,16,7.2,16,16C368,264.8,360.8,272,352,272z"/>
</g>
</svg>
