<?xml version="1.0" encoding="UTF-8" standalone="no"?>
<svg
   xmlns:dc="http://purl.org/dc/elements/1.1/"
   xmlns:cc="http://creativecommons.org/ns#"
   xmlns:rdf="http://www.w3.org/1999/02/22-rdf-syntax-ns#"
   xmlns:svg="http://www.w3.org/2000/svg"
   xmlns="http://www.w3.org/2000/svg"
   xmlns:sodipodi="http://sodipodi.sourceforge.net/DTD/sodipodi-0.dtd"
   xmlns:inkscape="http://www.inkscape.org/namespaces/inkscape"
   class="ionicon"
   viewBox="0 0 512 512"
   version="1.1"
   id="svg6"
   sodipodi:docname="logo-dribbble.svg"
   inkscape:version="1.0.2 (e86c8708, 2021-01-15)">
  <metadata
     id="metadata12">
    <rdf:RDF>
      <cc:Work
         rdf:about="">
        <dc:format>image/svg+xml</dc:format>
        <dc:type
           rdf:resource="http://purl.org/dc/dcmitype/StillImage" />
      </cc:Work>
    </rdf:RDF>
  </metadata>
  <defs
     id="defs10" />
  <sodipodi:namedview
     pagecolor="#ffffff"
     bordercolor="#666666"
     borderopacity="1"
     objecttolerance="10"
     gridtolerance="10"
     guidetolerance="10"
     inkscape:pageopacity="0"
     inkscape:pageshadow="2"
     inkscape:window-width="689"
     inkscape:window-height="480"
     id="namedview8"
     showgrid="false"
     inkscape:zoom="1.3027344"
     inkscape:cx="256"
     inkscape:cy="256"
     inkscape:window-x="44"
     inkscape:window-y="25"
     inkscape:window-maximized="0"
     inkscape:current-layer="svg6" />
  <title
     id="title2">Logo Dribbble</title>
  <path
     style="color:#000000;font-style:normal;font-variant:normal;font-weight:normal;font-stretch:normal;font-size:medium;line-height:normal;font-family:sans-serif;font-variant-ligatures:normal;font-variant-position:normal;font-variant-caps:normal;font-variant-numeric:normal;font-variant-alternates:normal;font-variant-east-asian:normal;font-feature-settings:normal;font-variation-settings:normal;text-indent:0;text-align:start;text-decoration:none;text-decoration-line:none;text-decoration-style:solid;text-decoration-color:#000000;letter-spacing:normal;word-spacing:normal;text-transform:none;writing-mode:lr-tb;direction:ltr;text-orientation:mixed;dominant-baseline:auto;baseline-shift:baseline;text-anchor:start;white-space:normal;shape-padding:0;shape-margin:0;inline-size:0;clip-rule:nonzero;display:inline;overflow:visible;visibility:visible;isolation:auto;mix-blend-mode:normal;color-interpolation:sRGB;color-interpolation-filters:linearRGB;solid-color:#000000;solid-opacity:1;vector-effect:none;fill:#000000;fill-opacity:1;fill-rule:nonzero;stroke-width:1;stroke-linecap:butt;stroke-linejoin:miter;stroke-miterlimit:4;stroke-dasharray:none;stroke-dashoffset:0;stroke-opacity:1;color-rendering:auto;image-rendering:auto;shape-rendering:auto;text-rendering:auto;enable-background:accumulate;stop-color:#000000;stop-opacity:1;stroke:none;opacity:1"
     d="M 256,32 C 132.33,32 32,132.33 32,256 32,379.67 132.33,480 256,480 379.67,480 480,379.78 480,256 480,132.22 379.67,32 256,32 Z m 142.22,103.25 c 25.91806,30.4683 41.3449,68.46743 44,108.38 -40.37,-2.1 -88.67,-2.1 -127.4,1.52 -4.9,-12.37 -9.92,-24.5 -15.4,-36.17 44.66,-19.36 79.08,-44.8 98.8,-73.73 z M 256,69.33 c 43.50945,-0.07478 85.66544,15.121482 119.12,42.94 -20.3,25.66 -52.15,48 -91.82,64.86 C 261.6,137 236.63,102.47 210,75.28 c 15.02799,-3.879455 30.47951,-5.878076 46,-5.95 z m -84.47,20.42 c 26.95,26.83 52.27,61 74.44,101 C 203.85,203.62 155.55,211 104,211 94.2,211 84.64,210.65 75.19,210.06 88.488347,157.95872 123.5959,114.11619 171.53,89.75 Z M 69.68,247.13 c 10.62,0.47 21.35,0.7 32.2,0.59 58.8,-0.7 113.52,-9.92 160.54,-25 4.43333,9.22 8.63333,18.67 12.6,28.35 -5.68135,1.24383 -11.26057,2.91525 -16.69,5 C 194.05,283.07 143.42,326.58 116,379.2 85.93354,345.20258 69.334863,301.3852 69.33,256 c 0,-3 0.12,-5.95 0.35,-8.87 z M 256,442.67 c -41.47191,0.0504 -81.76549,-13.79268 -114.45,-39.32 24.85,-49.23 69.18,-90 125.07,-115.27 5.25,-2.45 12.25,-4.43 20.3,-6.18 6.66667,18.42667 12.61667,37.56 17.85,57.4 7.81622,29.9445 13.57302,60.38903 17.23,91.12 -21.06928,8.07261 -43.43718,12.22423 -66,12.25 z m 100.92,-29.75 c -3.6503,-31.0502 -9.46106,-61.80811 -17.39,-92.05 -4,-15.17 -8.51,-29.87 -13.41,-44.22 36.63,-3 80.5,-2.57 115.38,0 -6.22496,55.84565 -37.29757,105.90788 -84.58,136.27 z"
     id="path4" />
</svg>
