<?xml version="1.0" encoding="UTF-8" standalone="no"?>
<svg
   xmlns:dc="http://purl.org/dc/elements/1.1/"
   xmlns:cc="http://creativecommons.org/ns#"
   xmlns:rdf="http://www.w3.org/1999/02/22-rdf-syntax-ns#"
   xmlns:svg="http://www.w3.org/2000/svg"
   xmlns="http://www.w3.org/2000/svg"
   xmlns:sodipodi="http://sodipodi.sourceforge.net/DTD/sodipodi-0.dtd"
   xmlns:inkscape="http://www.inkscape.org/namespaces/inkscape"
   class="ionicon"
   viewBox="0 0 512 512"
   version="1.1"
   id="svg10"
   sodipodi:docname="logo-wordpress.svg"
   inkscape:version="1.0.2 (e86c8708, 2021-01-15)">
  <metadata
     id="metadata16">
    <rdf:RDF>
      <cc:Work
         rdf:about="">
        <dc:format>image/svg+xml</dc:format>
        <dc:type
           rdf:resource="http://purl.org/dc/dcmitype/StillImage" />
      </cc:Work>
    </rdf:RDF>
  </metadata>
  <defs
     id="defs14" />
  <sodipodi:namedview
     pagecolor="#ffffff"
     bordercolor="#666666"
     borderopacity="1"
     objecttolerance="10"
     gridtolerance="10"
     guidetolerance="10"
     inkscape:pageopacity="0"
     inkscape:pageshadow="2"
     inkscape:window-width="689"
     inkscape:window-height="480"
     id="namedview12"
     showgrid="false"
     inkscape:zoom="1.3027344"
     inkscape:cx="256"
     inkscape:cy="256"
     inkscape:window-x="44"
     inkscape:window-y="25"
     inkscape:window-maximized="0"
     inkscape:current-layer="svg10" />
  <title
     id="title2">Logo Wordpress</title>
  <path
     style="color:#000000;font-style:normal;font-variant:normal;font-weight:normal;font-stretch:normal;font-size:medium;line-height:normal;font-family:sans-serif;font-variant-ligatures:normal;font-variant-position:normal;font-variant-caps:normal;font-variant-numeric:normal;font-variant-alternates:normal;font-variant-east-asian:normal;font-feature-settings:normal;font-variation-settings:normal;text-indent:0;text-align:start;text-decoration:none;text-decoration-line:none;text-decoration-style:solid;text-decoration-color:#000000;letter-spacing:normal;word-spacing:normal;text-transform:none;writing-mode:lr-tb;direction:ltr;text-orientation:mixed;dominant-baseline:auto;baseline-shift:baseline;text-anchor:start;white-space:normal;shape-padding:0;shape-margin:0;inline-size:0;clip-rule:nonzero;display:inline;overflow:visible;visibility:visible;isolation:auto;mix-blend-mode:normal;color-interpolation:sRGB;color-interpolation-filters:linearRGB;solid-color:#000000;solid-opacity:1;vector-effect:none;fill:#000000;fill-opacity:1;fill-rule:nonzero;stroke-width:1;stroke-linecap:butt;stroke-linejoin:miter;stroke-miterlimit:4;stroke-dasharray:none;stroke-dashoffset:0;stroke-opacity:1;color-rendering:auto;image-rendering:auto;shape-rendering:auto;text-rendering:auto;enable-background:accumulate;stop-color:#000000;stop-opacity:1;stroke:none;opacity:1"
     d="M 259,271.3 226.2,367 h -0.1 l -25.4,73.1 c 1.8,0.5 3.5,0.9 5.3,1.4 h 0.3 c 16.14791,4.30608 32.78781,6.49112 49.5,6.5 8.33462,0.0619 16.66094,-0.54 24.9,-1.8 11.02521,-1.38211 21.90285,-3.75845 32.5,-7.1 2.6,-0.8 5.2,-1.7 7.8,-2.6 -2.8,-6 -8.8,-19.3 -9.1,-19.9 z M 80.8,180.5 C 70.8,203.1 64,230.9 64,256 c 0,6.3 0.3,12.6 0.9,18.8 6.9,71.2 52.9,131 116.1,157.9 2.6,1.1 5.3,2.2 8,3.2 L 96,180.6 c -8,-0.3 -9.5,0.2 -15.2,-0.1 z"
     id="path4" />
  <path
     style="color:#000000;font-style:normal;font-variant:normal;font-weight:normal;font-stretch:normal;font-size:medium;line-height:normal;font-family:sans-serif;font-variant-ligatures:normal;font-variant-position:normal;font-variant-caps:normal;font-variant-numeric:normal;font-variant-alternates:normal;font-variant-east-asian:normal;font-feature-settings:normal;font-variation-settings:normal;text-indent:0;text-align:start;text-decoration:none;text-decoration-line:none;text-decoration-style:solid;text-decoration-color:#000000;letter-spacing:normal;word-spacing:normal;text-transform:none;writing-mode:lr-tb;direction:ltr;text-orientation:mixed;dominant-baseline:auto;baseline-shift:baseline;text-anchor:start;white-space:normal;shape-padding:0;shape-margin:0;inline-size:0;clip-rule:nonzero;display:inline;overflow:visible;visibility:visible;isolation:auto;mix-blend-mode:normal;color-interpolation:sRGB;color-interpolation-filters:linearRGB;solid-color:#000000;solid-opacity:1;vector-effect:none;fill:#000000;fill-opacity:1;fill-rule:nonzero;stroke-width:1;stroke-linecap:butt;stroke-linejoin:miter;stroke-miterlimit:4;stroke-dasharray:none;stroke-dashoffset:0;stroke-opacity:1;color-rendering:auto;image-rendering:auto;shape-rendering:auto;text-rendering:auto;enable-background:accumulate;stop-color:#000000;stop-opacity:1;stroke:none;opacity:1"
     d="m 430.2,175.4 c -4.30249,-9.26208 -9.35253,-18.15819 -15.1,-26.6 -1.6,-2.4 -3.4,-4.8 -5.1,-7.2 C 388.3317,112.51747 358.90748,90.128724 325.1,77 303.04995,68.374916 279.5769,63.965237 255.9,64 c -58.09766,0.0013 -113.0537,26.375788 -149.4,71.7 -6.500282,8.05776 -12.351925,16.61788 -17.5,25.6 14.2,0.1 31.8,0.1 33.8,0.1 18.1,0 46,-2.2 46,-2.2 9.4,-0.6 10.4,13.1 1.1,14.2 0,0 -9.4,1.1 -19.8,1.6 L 213,362 250.8,248.7 224,175.1 c -9.4,-0.5 -18.1,-1.6 -18.1,-1.6 -9.4,-0.5 -8.2,-14.8 1,-14.2 0,0 28.5,2.2 45.5,2.2 18.1,0 46,-2.2 46,-2.2 9.3,-0.6 10.5,13.1 1.1,14.2 0,0 -9.3,1.1 -19.7,1.6 l 62.3,185.6 17.3,-57.6 c 8.7,-22.4 13.1,-40.9 13.1,-55.7 0,-21.3 -7.7,-36.1 -14.3,-47.6 -8.7,-14.3 -16.9,-26.3 -16.9,-40.4 0,-15.9 12,-30.7 29,-30.7 h 2.2 c 26.2,-0.7 34.8,25.3 35.9,43 v 0.6 c 0.4,7.2 0.1,12.5 0.1,18.8 0,17.4 -3.3,37.1 -13.1,61.8 l -39,112.8 -22.3,65.7 c 1.8,-0.8 3.5,-1.6 5.3,-2.5 56.7,-27.4 98,-82 106.7,-146.7 1.28988,-8.60615 1.92504,-17.29776 1.9,-26 0.0379,-27.90998 -6.03777,-55.48956 -17.8,-80.8 z"
     id="path6" />
  <path
     style="color:#000000;font-style:normal;font-variant:normal;font-weight:normal;font-stretch:normal;font-size:medium;line-height:normal;font-family:sans-serif;font-variant-ligatures:normal;font-variant-position:normal;font-variant-caps:normal;font-variant-numeric:normal;font-variant-alternates:normal;font-variant-east-asian:normal;font-feature-settings:normal;font-variation-settings:normal;text-indent:0;text-align:start;text-decoration:none;text-decoration-line:none;text-decoration-style:solid;text-decoration-color:#000000;letter-spacing:normal;word-spacing:normal;text-transform:none;writing-mode:lr-tb;direction:ltr;text-orientation:mixed;dominant-baseline:auto;baseline-shift:baseline;text-anchor:start;white-space:normal;shape-padding:0;shape-margin:0;inline-size:0;clip-rule:nonzero;display:inline;overflow:visible;visibility:visible;isolation:auto;mix-blend-mode:normal;color-interpolation:sRGB;color-interpolation-filters:linearRGB;solid-color:#000000;solid-opacity:1;vector-effect:none;fill:#000000;fill-opacity:1;fill-rule:nonzero;stroke-width:1;stroke-linecap:butt;stroke-linejoin:miter;stroke-miterlimit:4;stroke-dasharray:none;stroke-dashoffset:0;stroke-opacity:1;color-rendering:auto;image-rendering:auto;shape-rendering:auto;text-rendering:auto;enable-background:accumulate;stop-color:#000000;stop-opacity:1;stroke:none;opacity:1"
     d="m 256,48 c 98.93711,0.05102 184.15459,69.76656 203.80684,166.73223 C 479.45909,311.6979 428.11004,409.09169 337,447.66 231.14903,492.39509 109.07515,442.85086 64.340083,336.99996 19.605019,231.14907 69.149033,109.07509 175,64.34 200.625,53.496997 228.17542,47.939294 256,48 m 0,-16 C 132.29,32 32,132.29 32,256 32,379.71 132.29,480 256,480 379.71,480 480,379.71 480,256 480,132.29 379.71,32 256,32 Z"
     id="path8" />
</svg>
