<?xml version="1.0" encoding="UTF-8" standalone="no"?>
<svg
   xmlns:dc="http://purl.org/dc/elements/1.1/"
   xmlns:cc="http://creativecommons.org/ns#"
   xmlns:rdf="http://www.w3.org/1999/02/22-rdf-syntax-ns#"
   xmlns:svg="http://www.w3.org/2000/svg"
   xmlns="http://www.w3.org/2000/svg"
   xmlns:sodipodi="http://sodipodi.sourceforge.net/DTD/sodipodi-0.dtd"
   xmlns:inkscape="http://www.inkscape.org/namespaces/inkscape"
   class="ionicon"
   viewBox="0 0 512 512"
   version="1.1"
   id="svg10"
   sodipodi:docname="logo-electron.svg"
   inkscape:version="1.0.2 (e86c8708, 2021-01-15)">
  <metadata
     id="metadata16">
    <rdf:RDF>
      <cc:Work
         rdf:about="">
        <dc:format>image/svg+xml</dc:format>
        <dc:type
           rdf:resource="http://purl.org/dc/dcmitype/StillImage" />
      </cc:Work>
    </rdf:RDF>
  </metadata>
  <defs
     id="defs14" />
  <sodipodi:namedview
     pagecolor="#ffffff"
     bordercolor="#666666"
     borderopacity="1"
     objecttolerance="10"
     gridtolerance="10"
     guidetolerance="10"
     inkscape:pageopacity="0"
     inkscape:pageshadow="2"
     inkscape:window-width="689"
     inkscape:window-height="480"
     id="namedview12"
     showgrid="false"
     inkscape:zoom="1.3027344"
     inkscape:cx="256"
     inkscape:cy="256"
     inkscape:window-x="44"
     inkscape:window-y="25"
     inkscape:window-maximized="0"
     inkscape:current-layer="svg10" />
  <title
     id="title2">Logo Electron</title>
  <path
     style="color:#000000;font-style:normal;font-variant:normal;font-weight:normal;font-stretch:normal;font-size:medium;line-height:normal;font-family:sans-serif;font-variant-ligatures:normal;font-variant-position:normal;font-variant-caps:normal;font-variant-numeric:normal;font-variant-alternates:normal;font-variant-east-asian:normal;font-feature-settings:normal;font-variation-settings:normal;text-indent:0;text-align:start;text-decoration:none;text-decoration-line:none;text-decoration-style:solid;text-decoration-color:#000000;letter-spacing:normal;word-spacing:normal;text-transform:none;writing-mode:lr-tb;direction:ltr;text-orientation:mixed;dominant-baseline:auto;baseline-shift:baseline;text-anchor:start;white-space:normal;shape-padding:0;shape-margin:0;inline-size:0;clip-rule:nonzero;display:inline;overflow:visible;visibility:visible;isolation:auto;mix-blend-mode:normal;color-interpolation:sRGB;color-interpolation-filters:linearRGB;solid-color:#000000;solid-opacity:1;vector-effect:none;fill:#000000;fill-opacity:1;fill-rule:nonzero;stroke-width:1;stroke-linecap:butt;stroke-linejoin:miter;stroke-miterlimit:4;stroke-dasharray:none;stroke-dashoffset:0;stroke-opacity:1;color-rendering:auto;image-rendering:auto;shape-rendering:auto;text-rendering:auto;enable-background:accumulate;stop-color:#000000;stop-opacity:1;stroke:none;opacity:1"
     d="m 86.76,255 c 1.707473,-0.002 3.385241,-0.44682 4.87,-1.29 4.72644,-2.69299 6.363124,-8.71509 3.65,-13.43 -16.46,-28.56 -17.81,-52.12 -7.45,-70 14.26,-24.57 53.61,-33.65 105.27,-24.29 5.34041,0.96662 10.45794,-2.56426 11.45,-7.9 0.97085,-5.34922 -2.58024,-10.47211 -7.93,-11.44 -29.19,-5.28 -56,-5.18 -77.39,0.3 -22.3,5.71 -39,17.28 -48.45,33.48 -14,24.19 -12.7,54.73 7.42,89.62 1.75844,3.06642 5.025173,4.95548 8.56,4.95 z M 361.61,143.73 c 32.24,0.42 52.61,9.31 62.79,26.86 14.21,24.48 2.52,62.81 -31.27,102.52 -5.4299,6.38789 -0.87382,16.20379 7.51,16.18 2.89227,0.003 5.64061,-1.26156 7.52,-3.46 19.12,-22.47 32.35,-45.54 38.25,-66.71 6.14,-22 4.43,-42.21 -5,-58.38 -13.8,-23.78 -40.13,-36.15 -79.59,-36.67 h -0.14 c -5.42896,-0.0331 -9.85686,4.34104 -9.89,9.77 -0.0331,5.42896 4.34104,9.85686 9.77,9.89 z m -35.14,271.16 c -4.6569,-2.77673 -10.68149,-1.28173 -13.5,3.35 -16.41,27.15 -36.57,42.1 -56.77,42.1 -28.49,0 -56,-29.31 -73.73,-78.42 -1.85612,-5.0984 -7.47952,-7.7426 -12.59,-5.92 -5.14091,1.80569 -7.83223,7.44849 -6,12.58 10,27.77 23.47,50.75 39,66.46 16.11,16.34 34.55,25 53.32,25 27.38,0 53.54,-18.33 73.65,-51.61 2.81275,-4.65857 1.29605,-10.7164 -3.38,-13.5 z M 431.7,338.54 c -22.924,-0.11525 -38.59497,23.11867 -29.9,44.33 -41.8,19.5 -119.8,4.79 -191.87,-36.62 -32.91,-18.9 -62.16,-41.86 -84.6,-66.39 -3.67506,-3.992 -9.87868,-4.28189 -13.91,-0.65 -4.0394,3.64874 -4.33127,9.89022 -0.65,13.9 23.79,26 54.68,50.28 89.33,70.18 40.28,23.13 82.27,38.63 121.43,44.81 11.57329,1.87826 23.27543,2.85121 35,2.91 23.12,0 43,-4.3 58.51,-12.79 18.22457,11.13063 42.03766,1.76163 47.79219,-18.80306 5.75453,-20.56469 -9.7375,-40.93227 -31.09219,-40.87694 z m 0,44.66 c -2.83864,1e-4 -5.59415,-0.95834 -7.82,-2.72 -0.61326,-0.84718 -1.35561,-1.59291 -2.2,-2.21 -8.13146,-10.58941 3.6108,-24.88654 15.57615,-18.98763 5.25741,2.59191 8.03636,8.46347 6.70565,14.1715 -1.33072,5.70808 -6.42007,9.74682 -12.2818,9.74613 z"
     id="path4" />
  <path
     style="color:#000000;font-style:normal;font-variant:normal;font-weight:normal;font-stretch:normal;font-size:medium;line-height:normal;font-family:sans-serif;font-variant-ligatures:normal;font-variant-position:normal;font-variant-caps:normal;font-variant-numeric:normal;font-variant-alternates:normal;font-variant-east-asian:normal;font-feature-settings:normal;font-variation-settings:normal;text-indent:0;text-align:start;text-decoration:none;text-decoration-line:none;text-decoration-style:solid;text-decoration-color:#000000;letter-spacing:normal;word-spacing:normal;text-transform:none;writing-mode:lr-tb;direction:ltr;text-orientation:mixed;dominant-baseline:auto;baseline-shift:baseline;text-anchor:start;white-space:normal;shape-padding:0;shape-margin:0;inline-size:0;clip-rule:nonzero;display:inline;overflow:visible;visibility:visible;isolation:auto;mix-blend-mode:normal;color-interpolation:sRGB;color-interpolation-filters:linearRGB;solid-color:#000000;solid-opacity:1;vector-effect:none;fill:#000000;fill-opacity:1;fill-rule:nonzero;stroke-width:1;stroke-linecap:butt;stroke-linejoin:miter;stroke-miterlimit:4;stroke-dasharray:none;stroke-dashoffset:0;stroke-opacity:1;color-rendering:auto;image-rendering:auto;shape-rendering:auto;text-rendering:auto;enable-background:accumulate;stop-color:#000000;stop-opacity:1;stroke:none;opacity:1"
     d="m 82.09,338.59 c 0.57,-21.26 12.41,-47 33.68,-73.16 23.19,-28.45 56.69,-56 94.34,-77.65 33.25,-19.1 65.2,-31.9 98.07,-38.91 5.39853,-1.05296 8.88265,-6.33046 7.72981,-11.70854 -1.15285,-5.37809 -6.49402,-8.7638 -11.84981,-7.51146 -34.85,7.43 -68.78,21 -103.79,41.09 C 116.09,219.09 59.9,289.88 62.46,343.9 49.228761,352.64859 44.301841,369.70655 50.830071,384.15988 57.35819,398.61297 73.410767,406.18732 88.721828,402.04561 104.03289,397.9039 114.07804,383.27 112.42984,367.49688 110.78161,351.72348 97.927281,339.47543 82.09,338.59 Z M 80.3,383.2 c -11.115018,-0.08 -16.603548,-13.53918 -8.716633,-21.36972 7.886915,-7.83053 21.306345,-2.24559 21.306633,8.86972 -0.03306,6.92497 -5.664966,12.51662 -12.59,12.5 z"
     id="path6" />
  <path
     style="color:#000000;font-style:normal;font-variant:normal;font-weight:normal;font-stretch:normal;font-size:medium;line-height:normal;font-family:sans-serif;font-variant-ligatures:normal;font-variant-position:normal;font-variant-caps:normal;font-variant-numeric:normal;font-variant-alternates:normal;font-variant-east-asian:normal;font-feature-settings:normal;font-variation-settings:normal;text-indent:0;text-align:start;text-decoration:none;text-decoration-line:none;text-decoration-style:solid;text-decoration-color:#000000;letter-spacing:normal;word-spacing:normal;text-transform:none;writing-mode:lr-tb;direction:ltr;text-orientation:mixed;dominant-baseline:auto;baseline-shift:baseline;text-anchor:start;white-space:normal;shape-padding:0;shape-margin:0;inline-size:0;clip-rule:nonzero;display:inline;overflow:visible;visibility:visible;isolation:auto;mix-blend-mode:normal;color-interpolation:sRGB;color-interpolation-filters:linearRGB;solid-color:#000000;solid-opacity:1;vector-effect:none;fill:#000000;fill-opacity:1;fill-rule:nonzero;stroke-width:1;stroke-linecap:butt;stroke-linejoin:miter;stroke-miterlimit:4;stroke-dasharray:none;stroke-dashoffset:0;stroke-opacity:1;color-rendering:auto;image-rendering:auto;shape-rendering:auto;text-rendering:auto;enable-background:accumulate;stop-color:#000000;stop-opacity:1;stroke:none;opacity:1"
     d="m 256.2,96.32 c 10.57321,0.027 20.48724,-5.133673 26.53,-13.81 17.89,11.69 34,35 45.81,66.12 13,34.39 19.84,75.38 19.84,118.54 0,37.18 -5.19,72.35 -15,103.6 -0.79367,2.48411 -0.55585,5.18296 0.66,7.49 1.21063,2.32216 3.29864,4.06458 5.8,4.84 5.18344,1.6012 10.68919,-1.27215 12.34,-6.44 10.42,-33.14 15.93,-70.34 15.93,-109.49 0,-47.17 -7.77,-91.77 -22.47,-129 -14.41,-36.48 -34.13,-62.4 -57.14,-75.16 -0.40559,-12.964466 -8.52715,-24.42886 -20.62296,-29.111371 -12.09579,-4.682502 -25.8191,-1.674659 -34.84855,7.637138 -9.02945,9.311796 -11.61346,23.121184 -6.56086,35.067109 C 231.52024,88.548824 243.22919,96.313657 256.2,96.32 Z m 0,-44.66 c 11.11502,0.08003 16.60355,13.539182 8.71663,21.369717 -7.88691,7.830535 -21.30634,2.24559 -21.30663,-8.869717 0.0331,-6.924975 5.66497,-12.51662 12.59,-12.5 z m -5.2,191.7 c -12.19079,2.61085 -20.4403,14.00788 -19.11213,26.40416 1.32817,12.39628 11.80494,21.78692 24.27213,21.75584 1.73455,-0.001 3.46411,-0.18585 5.16,-0.55 13.31001,-2.69939 21.84228,-15.76169 18.96526,-29.03442 C 277.40825,248.66285 264.23311,240.30587 251,243.36 Z"
     id="path8" />
</svg>
