<?xml version="1.0" encoding="UTF-8" standalone="no"?>
<svg
   xmlns:dc="http://purl.org/dc/elements/1.1/"
   xmlns:cc="http://creativecommons.org/ns#"
   xmlns:rdf="http://www.w3.org/1999/02/22-rdf-syntax-ns#"
   xmlns:svg="http://www.w3.org/2000/svg"
   xmlns="http://www.w3.org/2000/svg"
   xmlns:sodipodi="http://sodipodi.sourceforge.net/DTD/sodipodi-0.dtd"
   xmlns:inkscape="http://www.inkscape.org/namespaces/inkscape"
   class="ionicon"
   viewBox="0 0 512 512"
   version="1.1"
   id="svg6"
   sodipodi:docname="logo-tux.svg"
   inkscape:version="1.0.2 (e86c8708, 2021-01-15)">
  <metadata
     id="metadata12">
    <rdf:RDF>
      <cc:Work
         rdf:about="">
        <dc:format>image/svg+xml</dc:format>
        <dc:type
           rdf:resource="http://purl.org/dc/dcmitype/StillImage" />
      </cc:Work>
    </rdf:RDF>
  </metadata>
  <defs
     id="defs10" />
  <sodipodi:namedview
     pagecolor="#ffffff"
     bordercolor="#666666"
     borderopacity="1"
     objecttolerance="10"
     gridtolerance="10"
     guidetolerance="10"
     inkscape:pageopacity="0"
     inkscape:pageshadow="2"
     inkscape:window-width="689"
     inkscape:window-height="480"
     id="namedview8"
     showgrid="false"
     inkscape:zoom="1.3027344"
     inkscape:cx="256"
     inkscape:cy="256"
     inkscape:window-x="44"
     inkscape:window-y="25"
     inkscape:window-maximized="0"
     inkscape:current-layer="svg6" />
  <title
     id="title2">Logo Tux</title>
  <path
     style="color:#000000;font-style:normal;font-variant:normal;font-weight:normal;font-stretch:normal;font-size:medium;line-height:normal;font-family:sans-serif;font-variant-ligatures:normal;font-variant-position:normal;font-variant-caps:normal;font-variant-numeric:normal;font-variant-alternates:normal;font-variant-east-asian:normal;font-feature-settings:normal;font-variation-settings:normal;text-indent:0;text-align:start;text-decoration:none;text-decoration-line:none;text-decoration-style:solid;text-decoration-color:#000000;letter-spacing:normal;word-spacing:normal;text-transform:none;writing-mode:lr-tb;direction:ltr;text-orientation:mixed;dominant-baseline:auto;baseline-shift:baseline;text-anchor:start;white-space:normal;shape-padding:0;shape-margin:0;inline-size:0;clip-rule:nonzero;display:inline;overflow:visible;visibility:visible;isolation:auto;mix-blend-mode:normal;color-interpolation:sRGB;color-interpolation-filters:linearRGB;solid-color:#000000;solid-opacity:1;vector-effect:none;fill:#000000;fill-opacity:1;fill-rule:nonzero;stroke-width:1;stroke-linecap:butt;stroke-linejoin:miter;stroke-miterlimit:4;stroke-dasharray:none;stroke-dashoffset:0;stroke-opacity:1;color-rendering:auto;image-rendering:auto;shape-rendering:auto;text-rendering:auto;enable-background:accumulate;stop-color:#000000;stop-opacity:1;stroke:none;opacity:1"
     d="m 443.66,405.05 c -1.46,-0.79 -2.85,-1.54 -4,-2.2 -6.47,-3.83 -13,-10.52 -11.85,-17.83 2.42,-15.94 2.89,-23.47 -0.49,-28.79 -1.81946,-2.84124 -4.51049,-5.01652 -7.67,-6.2 v -0.06 c 1.41,-2.56 2.26,-5.66 2.83,-10.12 1.44,-11 -5,-44 -13.7,-70.7 -8.08,-24.68 -29.24,-50 -44.7,-68.56 l -3.61,-4.34 c -23.88,-28.93 -24.34,-38.19 -26.55,-82.67 -0.32,-6.47 -0.69,-13.8 -1.17,-22 C 329.87,41.43 304,16 256,16 230.8,16 211.38,23.15 198.28,37.26 187.79,48.55 182,64 182,80.78 c 0,29.52 2,53 2.15,54.29 1.4,35.7 1,41.22 -8.31,57.55 -2.23,3.93 -8.38,10.87 -14.89,18.21 -8.48,9.57 -18.09,20.41 -23.36,29.22 -3.77,6.31 -5.88,12.63 -8.11,19.33 -3.4,10.21 -7.26,21.78 -18.15,36.57 -12.57,17.07 -15.52,29.61 -11,47.45 -4.94,6.45 -4.83,14.37 -4.75,20.23 0.140696,2.03473 0.04,4.07895 -0.3,6.09 -2.29,7.59 -12.42,9.4 -22,10.18 -1.58,0.12 -3.1,0.21 -4.55,0.29 -7.26,0.39 -13.53,0.74 -17.13,6.3 -3.47,5.36 -1.12,13.8 2.14,25.48 0.72,2.58 1.46,5.25 2.19,8.06 1.83,7 -0.16,10.48 -2.68,14.84 -2.44,4.21 -5.21,9 -5.21,17.55 0,14.67 20,18 43.05,21.94 7.36,1.24 15,2.53 22.63,4.24 11.6244,2.65372 23.02011,6.22491 34.08,10.68 9.72,3.73 17.4,6.68 26.43,6.68 16.18,0 28.25,-9.77 39.92,-19.21 L 216.3,475 c 5.53,-4.49 21.5,-4 34.34,-3.64 3.46,0.1 6.73,0.2 9.65,0.2 h 6.22 c 13.48,-0.08 31.94,-0.18 42.23,2.5 3.75,1 6.2,3.72 9.29,7.19 5.87,6.56 13.17,14.75 33.39,14.75 19.39,0 29.55,-8.71 41.32,-18.8 7.16,-6.13 14.56,-12.48 25.07,-17.86 3.92,-2 7.62,-3.87 11.08,-5.61 C 451.53,442.35 464,436.08 464,425.91 464,416 451.76,409.41 443.66,405.05 Z M 211.11,88.38 c 5.5879,0.220589 10.50038,3.766086 12.47,9 1.95,5.55 1.81,10.42 0.21,12.94 0,0 -0.22,-1 -0.36,-1.44 -1.00029,-3.56627 -3.29719,-6.63 -6.44,-8.59 -2.64676,-1.709701 -5.88514,-2.242186 -8.94,-1.47 -4.26,1.13 -8.41,5 -8.91,18.79 -5.16,-10.47 -2.31,-18 0.92,-23 2.31,-3.73 7.47,-6.33 11.05,-6.23 z m -17.5,375 C 192,479.24 175.2,479 170.09,478.59 c -9.81,-0.82 -21.66,-4.69 -33.13,-8.43 -4.52,-1.47 -9.19,-3 -13.73,-4.34 -13.2,-3.89 -30.12,-6.74 -43.72,-9 -3.22,-0.55 -6.27,-1.06 -9.05,-1.55 -2.78,-0.49 -4.61,-1.27 -5.2,-2.3 -1,-1.65 0.38,-5.25 1.93,-9.41 C 69.27,438 72.11,430.34 72,421 c 0,-3.91 -1.47,-8.3 -2.84,-12.56 -1.62,-5 -3.28,-10.17 -1.93,-12.62 1.23,-2.23 6.75,-2.49 11.6,-2.49 h 2.26 c 3.55,0 6.62,0.06 8.75,-0.53 6.51,-1.81 14.86,-6.92 17.81,-13.88 0.9,-2.17 1.37,-6.94 2,-14 0.37,-4.12 0.74,-8.37 1.22,-10.58 0.23982,-1.14593 1.02921,-2.09993 2.11,-2.55 1.65,-0.77 6.78,-1.91 18.63,4.08 11.18,5.65 22.88,25.84 34.2,45.37 3.56,6.14 6.92,11.94 10.3,17.36 14.04,22.54 18.83,31.6 17.5,44.8 z m 128.84,-31.56 c -1.20112,3.75715 -2.72341,7.40394 -4.55,10.9 -0.29892,0.67566 -1.31609,0.28009 -1.08,-0.42 1.71194,-5.98552 2.42485,-12.21244 2.11,-18.43 -0.25,-4.73 -0.4,-7.59 -2.66,-8.51 -2.26,-0.92 -4.26,0.83 -9.45,5.54 -1.1,1 -2.36,2.14 -3.78,3.4 -10.8,9.47 -26.88,20.68 -55.61,23.37 -16.84,1.59 -27.59,-4.63 -30.92,-8.14 -0.82282,-0.87622 -2.20266,-0.91217 -3.07,-0.08 -0.59025,0.605 -0.78772,1.4917 -0.51,2.29 2.12,6.84 1.2,12.26 -0.49,16.19 -0.95,2.2 -1.85,2.05 -2,-0.34 -0.25,-4.64 -1,-9.88 -3,-14.19 -3.11,-6.94 -7,-14.34 -8.89,-17.88 v -0.05 c 3.24,-1.49 8.86,-4.83 11.37,-10.88 2.51,-6.05 4.48,-18 -9.82,-31.74 -6.28,-6.05 -22.1,-17.16 -36.06,-27 -10.9,-7.65 -22.17,-15.56 -23.65,-17.51 -4.49,-5.89 -6.37,-9.3 -6.94,-19.65 0.07,-2.3 0.13,-4.59 0.19,-6.89 l 0.27,-2.49 c 0.0888,-0.67201 1.06119,-0.67201 1.15,0 0.41034,3.2875 1.07908,6.53756 2,9.72 1.08,3.73 2.4,7.58 3.62,9.18 3.19,4.22 7.56,7.39 11.67,8.49 1.68449,0.5883 3.54994,0.31968 5,-0.72 2.93,-2.33 2.65,-7.6 2.19,-16.34 -0.47,-9 -1.11,-21.34 1.85,-34.55 5.62,-25 10.91,-32.51 17.61,-42 0.86,-1.22 1.75,-2.47 2.65,-3.79 1.44,-2.08 3,-4.1 4.67,-6.23 7.47,-9.61 15.93,-20.49 13.92,-40.95 -0.51,-5.19 -0.76,-8.83 -0.86,-11.39 -0.14743,-1.11167 1.3658,-1.58657 1.88,-0.59 l 0.49,0.77 1.21,2 c 4.86,8 13.64,22.57 25.1,22.57 0.79127,-0.001 1.58093,-0.0716 2.36,-0.21 23.39,-3.93 51.9,-30.25 52.17,-30.51 3.12,-3 2.84,-6.14 1.64,-7.91 -1.4447,-2.06692 -4.16795,-2.79312 -6.45,-1.72 -3.29,1.4 -7.14,3.15 -11.22,5 -13.82,6.27 -37,16.75 -42.25,14.34 -2.3936,-1.3226 -4.53345,-3.05953 -6.32,-5.13 -1.1,-0.76 0.04,-2.41 1.14,-1.65 5.59,2.29 9.55,1.45 14.2,-0.08 l 1,-0.34 c 9.37,-3.09 14.2,-4.77 30.76,-12.08 5.2336,-2.45453 10.67501,-4.439 16.26,-5.93 4,-1 6.42,-1.63 7.71,-4.34 1.2333,-2.27184 1.0383,-5.05252 -0.5,-7.13 -1.53,-1.87 -4.07,-2.57 -7,-1.9 -3.22,0.75 -4.7,3 -6.41,4.49 -2.4,2.05 -5,4.16 -17.19,8.65 -27,10 -34.58,10.61 -45.21,3.43 -9.84,-6.69 -15.15,-13.23 -15.15,-16 0,-2.13 5.45,-5.7 8.71,-7.84 1.33,-0.87 2.59,-1.69 3.62,-2.46 4.34,-3.22 13,-11.39 13.38,-11.73 5.4,-5.41 17.91,-2.18 25,2.58 0.49234,0.36784 1.11466,0.51618 1.72,0.41 1.18919,-0.22964 1.95099,-1.39954 1.68,-2.58 -4.2,-17.46 -0.13,-27.34 4,-32.55 4.25056,-5.317008 10.67297,-8.432686 17.48,-8.48 12.81,0 21.76,10 21.76,24.42 0,11 -2.82,16.79 -5.48,20.3 -0.63263,0.8204 -1.83958,0.9046 -2.58,0.18 -0.58155,-0.58845 -0.68099,-1.5 -0.24,-2.2 2.21353,-3.79613 3.37025,-8.1157 3.35,-12.51 0.0516,-9.29463 -7.54637,-16.8159 -16.84,-16.67 -3.94,0 -13.48,1.5 -16.77,15.44 -0.80382,3.63637 -0.91915,7.39116 -0.34,11.07 l 0.08,0.71 c 0.9,7.38 15.3,12.51 27.23,15.51 11.36,2.85 13,6.22 8.84,19.63 -4.16,13.41 3.11,26.23 5.7,29.57 3.1623,3.88143 5.94504,8.05722 8.31,12.47 2.72292,5.2716 4.93952,10.78966 6.62,16.48 2.17,6.79 4.05,12.65 10.63,21.22 11.07,14.4 17.66,48.64 15,78 -0.21,2.41 -0.53,4.29 -0.77,5.67 -0.43,2.53 -0.72,4.2 0.66,5.38 1.38,1.18 3.16,0.7 7.26,-0.63 l 3.43,-1.09 c 4.13463,-1.17989 8.33526,-2.11485 12.58,-2.8 0.68626,-0.10714 1.27849,-0.5392 1.59,-1.16 3.43,-6.91 3.85,-15.22 4,-22.47 0,-0.87333 0.02,-1.80333 0.06,-2.79 0.19,-7.77 0.45,-18.93 -2.95,-32 -0.42667,-1.28667 1.50333,-1.92667 1.93,-0.64 3.42384,8.15658 5.66644,16.75993 6.66,25.55 2.55,22.58 -1.9,32.09 -1.94,32.17 -0.43895,0.88268 0.0113,1.949 0.95,2.25 2.6675,0.95741 5.05559,2.56206 6.95,4.67 1.46,1.66 0.93,2.4 -1.14,1.62 -4.08438,-1.52483 -8.41028,-2.30058 -12.77,-2.29 -10.4,0 -18.09,4.95 -21.51,9.19 -3.19,3.94 -3.7,7.67 -3.83,11.27 l -0.06,0.05 c -7.48,-0.75 -12.94,1.21 -17.47,6.21 l -0.08,0.09 c -6.26,7.75 -4,24.63 -1.29,38.48 1.28,6.45 5.59,25.52 1.73,37.68 z m 96.1,10.07 c -15.71,6.71 -25.43,14.51 -34,21.39 -5.65,4.53 -11,8.81 -17.28,12.14 -10.12,5.34 -24.91,6.53 -33.27,-7.7 -2.37,-4 -0.71,-9.86 1.58,-17.95 3.05,-10.75 7.23,-25.46 3.71,-44.65 -0.94,-5.12 -1.77,-9.51 -2.49,-13.31 C 334,377 332.9,371.43 334,367 c 0.63,-2.45 3.43,-3 5.87,-3 0.8798,0.008 1.75823,0.0712 2.63,0.19 1.33057,4.53575 3.73126,8.6855 7,12.1 5.7,5.86 13.63,8.83 23.56,8.85 2.1,0.17 25.94,1.55 36.54,-22.4 1.46,0.18 3.65,0.7 4.3,2.3 1.28,3.19 -0.27,8.91 -1.52,13.5 -0.9,3.31 -1.68,6.16 -1.63,8.37 0.31,16 11,22.78 25.83,32.16 1.79,1.13 3.66,2.31 5.55,3.54 1.89,1.23 2.87,2.39 2.87,3.39 -0.52,4.79 -20,13.16 -26.45,15.91 z"
     id="path4" />
</svg>
