<?xml version="1.0" encoding="UTF-8" standalone="no"?>
<svg
   xmlns:dc="http://purl.org/dc/elements/1.1/"
   xmlns:cc="http://creativecommons.org/ns#"
   xmlns:rdf="http://www.w3.org/1999/02/22-rdf-syntax-ns#"
   xmlns:svg="http://www.w3.org/2000/svg"
   xmlns="http://www.w3.org/2000/svg"
   xmlns:sodipodi="http://sodipodi.sourceforge.net/DTD/sodipodi-0.dtd"
   xmlns:inkscape="http://www.inkscape.org/namespaces/inkscape"
   class="ionicon"
   viewBox="0 0 512 512"
   version="1.1"
   id="svg8"
   sodipodi:docname="logo-playstation.svg"
   inkscape:version="1.0.2 (e86c8708, 2021-01-15)">
  <metadata
     id="metadata14">
    <rdf:RDF>
      <cc:Work
         rdf:about="">
        <dc:format>image/svg+xml</dc:format>
        <dc:type
           rdf:resource="http://purl.org/dc/dcmitype/StillImage" />
      </cc:Work>
    </rdf:RDF>
  </metadata>
  <defs
     id="defs12" />
  <sodipodi:namedview
     pagecolor="#ffffff"
     bordercolor="#666666"
     borderopacity="1"
     objecttolerance="10"
     gridtolerance="10"
     guidetolerance="10"
     inkscape:pageopacity="0"
     inkscape:pageshadow="2"
     inkscape:window-width="689"
     inkscape:window-height="480"
     id="namedview10"
     showgrid="false"
     inkscape:zoom="1.3027344"
     inkscape:cx="256"
     inkscape:cy="256"
     inkscape:window-x="44"
     inkscape:window-y="25"
     inkscape:window-maximized="0"
     inkscape:current-layer="svg8" />
  <title
     id="title2">Logo Playstation</title>
  <path
     style="color:#000000;font-style:normal;font-variant:normal;font-weight:normal;font-stretch:normal;font-size:medium;line-height:normal;font-family:sans-serif;font-variant-ligatures:normal;font-variant-position:normal;font-variant-caps:normal;font-variant-numeric:normal;font-variant-alternates:normal;font-variant-east-asian:normal;font-feature-settings:normal;font-variation-settings:normal;text-indent:0;text-align:start;text-decoration:none;text-decoration-line:none;text-decoration-style:solid;text-decoration-color:#000000;letter-spacing:normal;word-spacing:normal;text-transform:none;writing-mode:lr-tb;direction:ltr;text-orientation:mixed;dominant-baseline:auto;baseline-shift:baseline;text-anchor:start;white-space:normal;shape-padding:0;shape-margin:0;inline-size:0;clip-rule:nonzero;display:inline;overflow:visible;visibility:visible;isolation:auto;mix-blend-mode:normal;color-interpolation:sRGB;color-interpolation-filters:linearRGB;solid-color:#000000;solid-opacity:1;vector-effect:none;fill:#000000;fill-opacity:1;fill-rule:nonzero;stroke-width:1;stroke-linecap:butt;stroke-linejoin:miter;stroke-miterlimit:4;stroke-dasharray:none;stroke-dashoffset:0;stroke-opacity:1;color-rendering:auto;image-rendering:auto;shape-rendering:auto;text-rendering:auto;enable-background:accumulate;stop-color:#000000;stop-opacity:1;stroke:none;opacity:1"
     d="m 399.77,203 c -0.8,-17.1 -3.3,-34.5 -10.8,-50.1 -4.11318,-8.63156 -9.69639,-16.4819 -16.5,-23.2 -6.37826,-6.31666 -13.53599,-11.79417 -21.3,-16.3 -17.1,-10.2 -37.5,-17 -84.4,-31 C 219.87,68.4 192,64 192,64 v 358.3 l 79.9,25.7 c 0,0 0.1,-198.8 0.1,-299.5 v -3.8 c 0,-9.3 7.5,-16.8 16.1,-16.8 h 0.5 c 8.5,0 15.5,7.5 15.5,16.8 V 278 c 11,5.3 29.2,9.3 41.8,9.1 8.36096,0.23298 16.63665,-1.7325 24,-5.7 7.59917,-4.20223 13.94824,-10.34426 18.4,-17.8 4.96615,-8.40651 8.32338,-17.66432 9.9,-27.3 1.87,-10.8 1.97,-22.1 1.57,-33.3 z M 86.67,357.8 c 27.4,-9.8 89.3,-29.5 89.3,-29.5 v -47.2 c 0,0 -76.5,24.8 -111.3,37.1 -8.6,3.1 -17.3,5.9 -25.7,9.5 -9.8,4.1 -19.4,8.7 -28.1,14.8 -3.9031365,2.4971 -7.0769722,5.98142 -9.2,10.1 -2.01070937,4.27634 -2.19126888,9.18756 -0.5,13.6 2,5.1 5.8,9.3 10.1,12.6 7.8,5.9 17.1,9.5 26.4,12.2 28.489112,9.45664 58.389531,13.95523 88.4,13.3 14.5,-0.2 36,-1.9 50,-4.4 v -42 c 0,0 -11,2.5 -41.3,12.5 -4.6,1.5 -9.2,3.3 -14,4.3 -7.10449,1.47869 -14.34328,2.21597 -21.6,2.2 -6.5,-0.3 -13.2,-0.7 -19.3,-3.1 -2.2,-1 -4.6,-2.2 -5.5,-4.6 -0.8,-2 0.3,-4 1.7,-5.4 2.8,-2.9 6.8,-4.5 10.6,-6 z"
     id="path4" />
  <path
     style="color:#000000;font-style:normal;font-variant:normal;font-weight:normal;font-stretch:normal;font-size:medium;line-height:normal;font-family:sans-serif;font-variant-ligatures:normal;font-variant-position:normal;font-variant-caps:normal;font-variant-numeric:normal;font-variant-alternates:normal;font-variant-east-asian:normal;font-feature-settings:normal;font-variation-settings:normal;text-indent:0;text-align:start;text-decoration:none;text-decoration-line:none;text-decoration-style:solid;text-decoration-color:#000000;letter-spacing:normal;word-spacing:normal;text-transform:none;writing-mode:lr-tb;direction:ltr;text-orientation:mixed;dominant-baseline:auto;baseline-shift:baseline;text-anchor:start;white-space:normal;shape-padding:0;shape-margin:0;inline-size:0;clip-rule:nonzero;display:inline;overflow:visible;visibility:visible;isolation:auto;mix-blend-mode:normal;color-interpolation:sRGB;color-interpolation-filters:linearRGB;solid-color:#000000;solid-opacity:1;vector-effect:none;fill:#000000;fill-opacity:1;fill-rule:nonzero;stroke-width:1;stroke-linecap:butt;stroke-linejoin:miter;stroke-miterlimit:4;stroke-dasharray:none;stroke-dashoffset:0;stroke-opacity:1;color-rendering:auto;image-rendering:auto;shape-rendering:auto;text-rendering:auto;enable-background:accumulate;stop-color:#000000;stop-opacity:1;stroke:none;opacity:1"
     d="m 512,345.9 c -0.1,-6 -3.7,-11.2 -7.9,-15 -7.1,-6.3 -15.9,-10.3 -24.7,-13.5 -5.5,-1.9 -9.3,-3.3 -14.7,-5 -25.2,-8.2 -51.9,-11.2 -78.3,-11.3 -8,0.3 -23.1,0.5 -31,1.4 -21.9,2.5 -67.3,15.4 -67.3,15.4 v 48.8 c 0,0 67.5,-21.6 96.5,-31.8 9.78214,-3.17301 20.0169,-4.7268 30.3,-4.6 6.5,0.2 13.2,0.7 19.4,3.1 2.2,0.9 4.5,2.2 5.5,4.5 0.9,2.6 -0.9,5 -2.9,6.5 -4.7,3.8 -10.7,5.3 -16.2,7.4 -41,14.5 -132.7,44.7 -132.7,44.7 v 47 c 0,0 117.2,-39.6 170.8,-58.8 8.9,-3.3 17.9,-6.1 26.4,-10.4 7.9,-4 15.8,-8.6 21.8,-15.3 3.21364,-3.60765 4.99262,-8.26859 5,-13.1 z"
     id="path6" />
</svg>
