<?xml version="1.0" encoding="UTF-8" standalone="no"?>
<svg
   xmlns:dc="http://purl.org/dc/elements/1.1/"
   xmlns:cc="http://creativecommons.org/ns#"
   xmlns:rdf="http://www.w3.org/1999/02/22-rdf-syntax-ns#"
   xmlns:svg="http://www.w3.org/2000/svg"
   xmlns="http://www.w3.org/2000/svg"
   xmlns:sodipodi="http://sodipodi.sourceforge.net/DTD/sodipodi-0.dtd"
   xmlns:inkscape="http://www.inkscape.org/namespaces/inkscape"
   class="ionicon"
   viewBox="0 0 512 512"
   version="1.1"
   id="svg6"
   sodipodi:docname="logo-laravel.svg"
   inkscape:version="1.0.2 (e86c8708, 2021-01-15)">
  <metadata
     id="metadata12">
    <rdf:RDF>
      <cc:Work
         rdf:about="">
        <dc:format>image/svg+xml</dc:format>
        <dc:type
           rdf:resource="http://purl.org/dc/dcmitype/StillImage" />
      </cc:Work>
    </rdf:RDF>
  </metadata>
  <defs
     id="defs10" />
  <sodipodi:namedview
     pagecolor="#ffffff"
     bordercolor="#666666"
     borderopacity="1"
     objecttolerance="10"
     gridtolerance="10"
     guidetolerance="10"
     inkscape:pageopacity="0"
     inkscape:pageshadow="2"
     inkscape:window-width="689"
     inkscape:window-height="480"
     id="namedview8"
     showgrid="false"
     inkscape:zoom="1.3027344"
     inkscape:cx="256"
     inkscape:cy="256"
     inkscape:window-x="44"
     inkscape:window-y="25"
     inkscape:window-maximized="0"
     inkscape:current-layer="svg6" />
  <title
     id="title2">Logo Laravel</title>
  <path
     style="color:#000000;font-style:normal;font-variant:normal;font-weight:normal;font-stretch:normal;font-size:medium;line-height:normal;font-family:sans-serif;font-variant-ligatures:normal;font-variant-position:normal;font-variant-caps:normal;font-variant-numeric:normal;font-variant-alternates:normal;font-variant-east-asian:normal;font-feature-settings:normal;font-variation-settings:normal;text-indent:0;text-align:start;text-decoration:none;text-decoration-line:none;text-decoration-style:solid;text-decoration-color:#000000;letter-spacing:normal;word-spacing:normal;text-transform:none;writing-mode:lr-tb;direction:ltr;text-orientation:mixed;dominant-baseline:auto;baseline-shift:baseline;text-anchor:start;white-space:normal;shape-padding:0;shape-margin:0;inline-size:0;clip-rule:nonzero;display:inline;overflow:visible;visibility:visible;isolation:auto;mix-blend-mode:normal;color-interpolation:sRGB;color-interpolation-filters:linearRGB;solid-color:#000000;solid-opacity:1;vector-effect:none;fill:#000000;fill-opacity:1;fill-rule:nonzero;stroke-width:1;stroke-linecap:butt;stroke-linejoin:miter;stroke-miterlimit:4;stroke-dasharray:none;stroke-dashoffset:0;stroke-opacity:1;color-rendering:auto;image-rendering:auto;shape-rendering:auto;text-rendering:auto;enable-background:accumulate;stop-color:#000000;stop-opacity:1;stroke:none;opacity:1"
     d="m 505.57,234.62 c -3.28,-3.53 -26.82,-32.29 -39.51,-47.79 -6.75,-8.24 -12.08,-14.75 -14.32,-17.45 l -0.18,-0.22 -0.2,-0.21 c -5.22,-5.83 -12.64,-12.51 -23.78,-12.51 -1.81125,0.0233 -3.61879,0.17033 -5.41,0.44 -0.37,0.05 -0.75,0.11 -1.15,0.15 -2.45,0.27 -10.06,1.5 -28.14,4.48 -14,2.29 -35.11,5.77 -38.31,6.07 l -0.71,0.06 -0.69,0.13 c -10,1.78 -16.62,6.22 -19.56,13.19 -1.55,3.68 -3.22,11.15 2.94,19.86 1.53,2.22 6.83,9.56 15.94,22.17 6.06,8.4 12.87,17.82 18.75,26 L 259.9,275 150.66,96.05 l -0.2,-0.34 -0.23,-0.33 -0.44,-0.65 C 145.32,88.17 139.76,80 123.7,80 c -1.13,0 -2.31,0 -3.63,0.11 -4.6,0.25 -21.42,1.57 -40.89,3.11 -21.49,1.69 -50.9,4 -54.72,4.1 h -0.73 l -0.79,0.08 c -9.14,0.89 -15.77,4.6 -19.7,11 -6.55,10.69 -1.42,22.69 0.26,26.63 3.37,7.97 34.06,72.67 61.13,129.78 18,37.94 36.58,77.17 38.1,80.65 5.47103,13.30594 18.55616,21.88238 32.94,21.59 3.31644,-0.0149 6.62182,-0.38366 9.86,-1.1 h 0.21 l 0.2,-0.05 c 13.86,-3.38 57.83,-14.54 89.2,-22.59 1.9,3.32 3.9,6.83 6,10.44 21.93,38.5 37.9,66.35 43.16,73.46 C 287,421 295,432 310.06,432 c 5.46,0 10.46,-1.4 15.74,-2.89 l 1.53,-0.43 h 0.12 c 10.53,-3 150.69,-52.16 157.87,-55.35 l 0.22,-0.1 c 5.44,-2.41 13.66,-6.05 16.18,-15.4 1.65,-6.12 0.18,-12.33 -4.38,-18.46 l -0.07,-0.09 -0.07,-0.09 c -0.85,-1.1 -4,-5.21 -8.27,-10.9 -9.13,-12.07 -23.88,-31.57 -36.84,-48.54 17.37,-4.5 38.8,-10.11 43.38,-11.55 11.47,-3.43 14.94,-10.69 16,-14.73 0.79,-3.15 1.82,-11.2 -5.9,-18.85 z m -320,58.19 c -17.81,4.17 -30.22,7.08 -37.89,8.9 -6.67,-13.34 -19.74,-39.65 -32.5,-65.33 C 85.44,176.46 70.08,145.61 62,129.48 l 8.15,-0.7 c 13.34,-1.15 31.61,-2.72 41.78,-3.57 16.76,28.26 74.32,125.3 96.3,162.3 z M 427.58,172 Z M 310.06,416.4 Z m 53.67,-56.95 c -24.21,8 -37.33,12.37 -44.42,14.74 -6.3,-10.34 -20.16,-33.52 -32.47,-54.19 l 115.7,-29.48 c 5,6.81 14.57,19.72 33.46,44.93 -18.07,6.04 -48.2,16.02 -72.27,24 z M 419.6,237.82 395.84,206.29 c 13.67,-2.39 21.54,-3.77 26.15,-4.6 l 12,14.88 11.94,14.82 c -8.2,1.99 -17.74,4.32 -26.33,6.43 z"
     id="path4" />
</svg>
