<?xml version="1.0" encoding="UTF-8" standalone="no"?>
<svg
   xmlns:dc="http://purl.org/dc/elements/1.1/"
   xmlns:cc="http://creativecommons.org/ns#"
   xmlns:rdf="http://www.w3.org/1999/02/22-rdf-syntax-ns#"
   xmlns:svg="http://www.w3.org/2000/svg"
   xmlns="http://www.w3.org/2000/svg"
   xmlns:sodipodi="http://sodipodi.sourceforge.net/DTD/sodipodi-0.dtd"
   xmlns:inkscape="http://www.inkscape.org/namespaces/inkscape"
   class="ionicon"
   viewBox="0 0 512 512"
   version="1.1"
   id="svg8"
   sodipodi:docname="logo-closed-captioning.svg"
   inkscape:version="1.0.2 (e86c8708, 2021-01-15)">
  <metadata
     id="metadata14">
    <rdf:RDF>
      <cc:Work
         rdf:about="">
        <dc:format>image/svg+xml</dc:format>
        <dc:type
           rdf:resource="http://purl.org/dc/dcmitype/StillImage" />
      </cc:Work>
    </rdf:RDF>
  </metadata>
  <defs
     id="defs12" />
  <sodipodi:namedview
     pagecolor="#ffffff"
     bordercolor="#666666"
     borderopacity="1"
     objecttolerance="10"
     gridtolerance="10"
     guidetolerance="10"
     inkscape:pageopacity="0"
     inkscape:pageshadow="2"
     inkscape:window-width="689"
     inkscape:window-height="480"
     id="namedview10"
     showgrid="false"
     inkscape:zoom="1.3027344"
     inkscape:cx="256"
     inkscape:cy="256"
     inkscape:window-x="44"
     inkscape:window-y="25"
     inkscape:window-maximized="0"
     inkscape:current-layer="svg8" />
  <title
     id="title2">Logo Closed Captioning</title>
  <path
     style="color:#000000;font-style:normal;font-variant:normal;font-weight:normal;font-stretch:normal;font-size:medium;line-height:normal;font-family:sans-serif;font-variant-ligatures:normal;font-variant-position:normal;font-variant-caps:normal;font-variant-numeric:normal;font-variant-alternates:normal;font-variant-east-asian:normal;font-feature-settings:normal;font-variation-settings:normal;text-indent:0;text-align:start;text-decoration:none;text-decoration-line:none;text-decoration-style:solid;text-decoration-color:#000000;letter-spacing:normal;word-spacing:normal;text-transform:none;writing-mode:lr-tb;direction:ltr;text-orientation:mixed;dominant-baseline:auto;baseline-shift:baseline;text-anchor:start;white-space:normal;shape-padding:0;shape-margin:0;inline-size:0;clip-rule:nonzero;display:inline;overflow:visible;visibility:visible;isolation:auto;mix-blend-mode:normal;color-interpolation:sRGB;color-interpolation-filters:linearRGB;solid-color:#000000;solid-opacity:1;vector-effect:none;fill:#000000;fill-opacity:1;fill-rule:nonzero;stroke-width:1;stroke-linecap:butt;stroke-linejoin:miter;stroke-miterlimit:4;stroke-dasharray:none;stroke-dashoffset:0;stroke-opacity:1;color-rendering:auto;image-rendering:auto;shape-rendering:auto;text-rendering:auto;enable-background:accumulate;stop-color:#000000;stop-opacity:1;stroke:none;opacity:1"
     d="M 0,80 V 432 H 512 V 80 Z m 464,175.78 c 0,25.74 -1.6,45.32 -3.77,77.22 -2.17,31.9 -19.2,54.34 -59.09,57.86 -39.89,3.52 -95.77,3.85 -145.14,3.74 -49,0.11 -105.14,-0.11 -145.14,-3.74 -40,-3.63 -56.8,-26 -59.09,-57.86 C 49.48,301.14 48,281.52 48,255.78 c 0,-25.74 0.11,-42.46 3.77,-77.22 3.66,-34.76 23,-54.12 59.09,-57.64 36.09,-3.52 98.28,-3.52 145.14,-3.52 46.86,0 109,0 145.14,3.52 36.14,3.52 55.43,23 59.09,57.64 3.66,34.64 3.77,51.59 3.77,77.22 z"
     id="path4" />
  <path
     style="color:#000000;font-style:normal;font-variant:normal;font-weight:normal;font-stretch:normal;font-size:medium;line-height:normal;font-family:sans-serif;font-variant-ligatures:normal;font-variant-position:normal;font-variant-caps:normal;font-variant-numeric:normal;font-variant-alternates:normal;font-variant-east-asian:normal;font-feature-settings:normal;font-variation-settings:normal;text-indent:0;text-align:start;text-decoration:none;text-decoration-line:none;text-decoration-style:solid;text-decoration-color:#000000;letter-spacing:normal;word-spacing:normal;text-transform:none;writing-mode:lr-tb;direction:ltr;text-orientation:mixed;dominant-baseline:auto;baseline-shift:baseline;text-anchor:start;white-space:normal;shape-padding:0;shape-margin:0;inline-size:0;clip-rule:nonzero;display:inline;overflow:visible;visibility:visible;isolation:auto;mix-blend-mode:normal;color-interpolation:sRGB;color-interpolation-filters:linearRGB;solid-color:#000000;solid-opacity:1;vector-effect:none;fill:#000000;fill-opacity:1;fill-rule:nonzero;stroke-width:1;stroke-linecap:butt;stroke-linejoin:miter;stroke-miterlimit:4;stroke-dasharray:none;stroke-dashoffset:0;stroke-opacity:1;color-rendering:auto;image-rendering:auto;shape-rendering:auto;text-rendering:auto;enable-background:accumulate;stop-color:#000000;stop-opacity:1;stroke:none;opacity:1"
     d="m 367.57,282.84 v 0.77 c 0,17.93 -11.11,28.49 -25.95,28.49 -14.84,0 -24.84,-11.88 -26.27,-28.49 0,0 -1.31,-8.69 -1.31,-26.29 -0.0859,-9.55589 0.42505,-19.10782 1.53,-28.6 2.64,-18.7 11.77,-28.49 26.6,-28.49 14.83,0 26.49,12.76 26.49,32.12 v 0.55 h 49.58 c 0,-24.09 -6.05,-45.76 -18.25,-59.4 -12.2,-13.64 -30.23,-20.5 -54.19,-20.5 -11.17845,-0.13983 -22.31089,1.45582 -33,4.73 -9.96859,3.13418 -18.92227,8.86744 -25.94,16.61 -7.23,7.96 -12.86,18.52 -16.86,31.83 -4,13.31 -6,30 -6,50.27 0,19.8 1.65,36.3 4.84,49.61 3.19,13.31 8,23.87 14.4,31.79 6.17535,7.77052 14.53343,13.51671 24,16.5 9.66667,3.08 21,4.62 34,4.62 27.47,0 47.26,-7 59.13,-20.57 C 412.24,324.82 418,305.06 418,279.1 h -50.65 c 0.22,0 0.22,2.75 0.22,3.74 z m -170.27,0 v 0.77 c 0,17.93 -11.1,28.49 -25.94,28.49 -14.84,0 -24.84,-11.88 -26.27,-28.49 0,0 -1.31,-8.69 -1.31,-26.29 -0.0859,-9.55589 0.42505,-19.10782 1.53,-28.6 2.64,-18.7 11.77,-28.49 26.6,-28.49 14.83,0 26.49,12.77 26.49,32.12 v 0.55 H 248 c 0,-24.09 -6,-45.76 -18.25,-59.4 C 217.5,159.86 199.5,153 175.54,153 c -11.17845,-0.13983 -22.31089,1.45582 -33,4.73 -9.96859,3.13418 -18.92227,8.86744 -25.94,16.61 -7.26,7.92 -12.86,18.48 -16.93,31.79 -4.07,13.31 -6,30 -6,50.27 0,19.8 1.65,36.3 4.84,49.61 3.19,13.31 8,23.87 14.4,31.79 6.17535,7.77052 14.53343,13.51671 24,16.5 9.67333,3.08 21.00667,4.62 34,4.62 27.48,0 47.27,-7 59.14,-20.57 11.87,-13.57 17.81,-33.33 17.81,-59.29 h -50.78 c 0.22,0.04 0.22,2.79 0.22,3.78 z"
     id="path6" />
</svg>
