<?xml version="1.0" encoding="UTF-8" standalone="no"?>
<svg
   xmlns:dc="http://purl.org/dc/elements/1.1/"
   xmlns:cc="http://creativecommons.org/ns#"
   xmlns:rdf="http://www.w3.org/1999/02/22-rdf-syntax-ns#"
   xmlns:svg="http://www.w3.org/2000/svg"
   xmlns="http://www.w3.org/2000/svg"
   xmlns:sodipodi="http://sodipodi.sourceforge.net/DTD/sodipodi-0.dtd"
   xmlns:inkscape="http://www.inkscape.org/namespaces/inkscape"
   class="ionicon"
   viewBox="0 0 512 512"
   version="1.1"
   id="svg8"
   sodipodi:docname="logo-react.svg"
   inkscape:version="1.0.2 (e86c8708, 2021-01-15)">
  <metadata
     id="metadata14">
    <rdf:RDF>
      <cc:Work
         rdf:about="">
        <dc:format>image/svg+xml</dc:format>
        <dc:type
           rdf:resource="http://purl.org/dc/dcmitype/StillImage" />
      </cc:Work>
    </rdf:RDF>
  </metadata>
  <defs
     id="defs12" />
  <sodipodi:namedview
     pagecolor="#ffffff"
     bordercolor="#666666"
     borderopacity="1"
     objecttolerance="10"
     gridtolerance="10"
     guidetolerance="10"
     inkscape:pageopacity="0"
     inkscape:pageshadow="2"
     inkscape:window-width="689"
     inkscape:window-height="480"
     id="namedview10"
     showgrid="false"
     inkscape:zoom="1.3027344"
     inkscape:cx="256"
     inkscape:cy="256"
     inkscape:window-x="44"
     inkscape:window-y="25"
     inkscape:window-maximized="0"
     inkscape:current-layer="svg8" />
  <title
     id="title2">Logo React</title>
  <path
     style="color:#000000;font-style:normal;font-variant:normal;font-weight:normal;font-stretch:normal;font-size:medium;line-height:normal;font-family:sans-serif;font-variant-ligatures:normal;font-variant-position:normal;font-variant-caps:normal;font-variant-numeric:normal;font-variant-alternates:normal;font-variant-east-asian:normal;font-feature-settings:normal;font-variation-settings:normal;text-indent:0;text-align:start;text-decoration:none;text-decoration-line:none;text-decoration-style:solid;text-decoration-color:#000000;letter-spacing:normal;word-spacing:normal;text-transform:none;writing-mode:lr-tb;direction:ltr;text-orientation:mixed;dominant-baseline:auto;baseline-shift:baseline;text-anchor:start;white-space:normal;shape-padding:0;shape-margin:0;inline-size:0;clip-rule:nonzero;display:inline;overflow:visible;visibility:visible;isolation:auto;mix-blend-mode:normal;color-interpolation:sRGB;color-interpolation-filters:linearRGB;solid-color:#000000;solid-opacity:1;vector-effect:none;fill:#000000;fill-opacity:1;fill-rule:nonzero;stroke-width:1;stroke-linecap:butt;stroke-linejoin:miter;stroke-miterlimit:4;stroke-dasharray:none;stroke-dashoffset:0;stroke-opacity:1;color-rendering:auto;image-rendering:auto;shape-rendering:auto;text-rendering:auto;enable-background:accumulate;stop-color:#000000;stop-opacity:1;stroke:none;opacity:1"
     d="m 410.66,180.72 c -5.11333,-1.74667 -10.26333,-3.37333 -15.45,-4.88 0.86,-3.5 1.65333,-7.02 2.38,-10.56 11.7,-56.9 4.05,-102.74 -22.06,-117.83 -25,-14.48 -66,0.61 -107.36,36.69 -4.06667,3.56 -8.05,7.226667 -11.95,11 -2.6,-2.506667 -5.26667,-4.96 -8,-7.36 -43.35,-38.58 -86.8,-54.83 -112.88,-39.69 -25,14.51 -32.43,57.6 -21.9,111.53 1.05333,5.33333 2.23667,10.64333 3.55,15.93 -5.97629,1.69426 -11.90212,3.56171 -17.77,5.6 C 48.46,198.9 16,226.73 16,255.59 c 0,29.82 34.84,59.72 87.77,77.85 4.29333,1.46 8.62667,2.81667 13,4.07 -1.42,5.66 -2.67667,11.38333 -3.77,17.17 -10,53 -2.2,95.07 22.75,109.49 25.77,14.89 69,-0.41 111.14,-37.31 3.33333,-2.92 6.66667,-6.00333 10,-9.25 4.21333,4.07333 8.54667,8.02667 13,11.86 40.8,35.18 81.09,49.39 106,34.93 25.75,-14.94 34.12,-60.14 23.25,-115.13 -0.83333,-4.2 -1.79333,-8.48667 -2.88,-12.86 3.04,-0.9 6.01667,-1.83 8.93,-2.79 55,-18.27 90.83,-47.81 90.83,-78 -0.02,-29 -33.52,-57.01 -85.36,-74.9 z m -129,-81.08 c 35.43,-30.91 68.55,-43.11 83.65,-34.39 16.07,9.29 22.32,46.75 12.22,95.88 -0.66667,3.2 -1.38667,6.39 -2.16,9.57 -21.14375,-4.80929 -42.58464,-8.20348 -64.18,-10.16 -12.36469,-17.81124 -25.9189,-34.76654 -40.57,-50.75 3.58667,-3.48 7.26,-6.86333 11.02,-10.15 z M 157.73,280.25 c 4.34,8.4 8.87667,16.69667 13.61,24.89 4.82,8.36 9.84333,16.59667 15.07,24.71 -14.8593,-1.61552 -29.62553,-3.99534 -44.24,-7.13 4.24,-13.72 9.46,-27.97 15.56,-42.47 z m 0,-48.33 c -6,-14.19 -11.08,-28.15 -15.25,-41.63 13.7,-3.07 28.3,-5.58 43.52,-7.48 -5.1,7.96 -10.00667,16.03667 -14.72,24.23 -4.71333,8.19333 -9.24,16.48667 -13.58,24.88 z m 10.9,24.17 c 6.32,-13.18 13.12667,-26.10667 20.42,-38.78 7.28667,-12.66667 15.04333,-25.04333 23.27,-37.13 14.28,-1.08 28.92,-1.65 43.71,-1.65 14.79,0 29.52,0.57 43.79,1.66 8.14,12.06 15.85,24.39333 23.13,37 7.28,12.60667 14.17667,25.47333 20.69,38.6 -6.42667,13.22667 -13.30667,26.20667 -20.64,38.94 -7.27333,12.66667 -14.94,25.08 -23,37.24 -14.25,1 -29,1.55 -44,1.55 -15,0 -29.47,-0.47 -43.46,-1.38 -8.28667,-12.12667 -16.10667,-24.55667 -23.46,-37.29 -7.35333,-12.73333 -14.18,-25.65333 -20.48,-38.76 z M 340.75,305 c 4.83333,-8.38667 9.47333,-16.88333 13.92,-25.49 6.09553,13.82089 11.47598,27.94622 16.12,42.32 -14.78633,3.32956 -29.73678,5.88305 -44.79,7.65 5.08,-8.06 9.99667,-16.22 14.75,-24.48 z m 13.72,-73.07 c -4.42667,-8.43333 -9.03,-16.76667 -13.81,-25 -4.66667,-8.12 -9.53,-16.14 -14.59,-24.06 15.31,1.94 30,4.52 43.77,7.67 -4.42728,14.04524 -9.55708,27.85931 -15.37,41.39 z M 256.23,124.48 c 9.98548,10.911 19.41413,22.31884 28.25,34.18 -18.9,-0.9 -37.81333,-0.9 -56.74,0 9.33,-12.34 18.88,-23.79 28.49,-34.18 z M 145.66,65.86 c 16.06,-9.32 51.57,4 89,37.27 2.39,2.13 4.8,4.36 7.2,6.67 -14.72638,15.98119 -28.37635,32.92171 -40.86,50.71 -21.5475,1.94144 -42.94596,5.28182 -64.06,10 -1.22,-4.90667 -2.32,-9.84667 -3.3,-14.82 -9.05,-46.23 -3.06,-81.08 12.02,-89.83 z m -23.41,251.85 c -4,-1.14 -7.95,-2.37667 -11.85,-3.71 C 87,306 67.67,295.56 54.4,284.19 42.52,274 36.5,263.83 36.5,255.59 c 0,-17.51 26.06,-39.85 69.52,-55 5.46,-1.9 10.96667,-3.63667 16.52,-5.21 6.4545,20.74292 14.2715,41.03706 23.4,60.75 -9.2373,19.98547 -17.15103,40.55647 -23.69,61.58 z m 111.13,93.67 c -18.63,16.32 -37.29,27.89 -53.74,33.72 -14.78,5.23 -26.55,5.38 -33.66,1.27 -15.14,-8.75 -21.44,-42.54 -12.85,-87.86 1.02,-5.33333 2.18667,-10.66667 3.5,-16 21.32537,4.59376 42.93863,7.73101 64.69,9.39 12.60553,17.88098 26.3683,34.91742 41.2,51 -2.98,2.93 -6.03,5.75 -9.14,8.48 z m 23.42,-23.22 c -9.72,-10.51 -19.42,-22.14 -28.88,-34.64 9.19333,0.36 18.55333,0.54 28.08,0.54 9.78,0 19.46,-0.21 29,-0.64 -8.80381,12.05148 -18.21602,23.64651 -28.2,34.74 z m 124.52,28.59 c -2.86,15.44 -8.61,25.74 -15.72,29.86 -15.13,8.78 -47.48,-2.63 -82.36,-32.72 -4,-3.44 -8,-7.13 -12.07,-11 14.54287,-16.1453 27.98321,-33.25058 40.23,-51.2 21.87178,-1.8531 43.58988,-5.21105 65,-10.05 0.98,3.96 1.84667,7.84 2.6,11.64 4.81,24.3 5.5,46.28 2.32,63.47 z m 17.4,-102.64 c -2.62,0.87 -5.32,1.71 -8.06,2.53 -6.71346,-20.84059 -14.83551,-41.20083 -24.31,-60.94 9.1191,-19.4759 16.92323,-39.54082 23.36,-60.06 4.91,1.43 9.68,2.93 14.27,4.52 44.42,15.32 71.52,38 71.52,55.43 0,18.6 -29.27,42.74 -76.78,58.52 z"
     id="path4" />
  <path
     style="color:#000000;font-style:normal;font-variant:normal;font-weight:normal;font-stretch:normal;font-size:medium;line-height:normal;font-family:sans-serif;font-variant-ligatures:normal;font-variant-position:normal;font-variant-caps:normal;font-variant-numeric:normal;font-variant-alternates:normal;font-variant-east-asian:normal;font-feature-settings:normal;font-variation-settings:normal;text-indent:0;text-align:start;text-decoration:none;text-decoration-line:none;text-decoration-style:solid;text-decoration-color:#000000;letter-spacing:normal;word-spacing:normal;text-transform:none;writing-mode:lr-tb;direction:ltr;text-orientation:mixed;dominant-baseline:auto;baseline-shift:baseline;text-anchor:start;white-space:normal;shape-padding:0;shape-margin:0;inline-size:0;clip-rule:nonzero;display:inline;overflow:visible;visibility:visible;isolation:auto;mix-blend-mode:normal;color-interpolation:sRGB;color-interpolation-filters:linearRGB;solid-color:#000000;solid-opacity:1;vector-effect:none;fill:#000000;fill-opacity:1;fill-rule:nonzero;stroke-width:1;stroke-linecap:butt;stroke-linejoin:miter;stroke-miterlimit:4;stroke-dasharray:none;stroke-dashoffset:0;stroke-opacity:1;color-rendering:auto;image-rendering:auto;shape-rendering:auto;text-rendering:auto;enable-background:accumulate;stop-color:#000000;stop-opacity:1;stroke:none;opacity:1"
     d="m 256,298.55 c 17.40449,0.0567 33.12687,-10.384 39.8262,-26.44712 6.69931,-16.06309 3.05413,-34.58018 -9.23263,-46.90707 -12.28676,-12.32689 -30.79186,-16.03244 -46.87671,-9.38555 -16.08488,6.64691 -26.57677,22.33516 -26.57686,39.73974 -0.0497,23.71416 19.14581,42.97242 42.86,43 z"
     id="path6" />
</svg>
