<?xml version="1.0" encoding="UTF-8" standalone="no"?>
<svg
   xmlns:dc="http://purl.org/dc/elements/1.1/"
   xmlns:cc="http://creativecommons.org/ns#"
   xmlns:rdf="http://www.w3.org/1999/02/22-rdf-syntax-ns#"
   xmlns:svg="http://www.w3.org/2000/svg"
   xmlns="http://www.w3.org/2000/svg"
   xmlns:sodipodi="http://sodipodi.sourceforge.net/DTD/sodipodi-0.dtd"
   xmlns:inkscape="http://www.inkscape.org/namespaces/inkscape"
   class="ionicon"
   viewBox="0 0 512 512"
   version="1.1"
   id="svg6"
   sodipodi:docname="logo-snapchat.svg"
   inkscape:version="1.0.2 (e86c8708, 2021-01-15)">
  <metadata
     id="metadata12">
    <rdf:RDF>
      <cc:Work
         rdf:about="">
        <dc:format>image/svg+xml</dc:format>
        <dc:type
           rdf:resource="http://purl.org/dc/dcmitype/StillImage" />
      </cc:Work>
    </rdf:RDF>
  </metadata>
  <defs
     id="defs10" />
  <sodipodi:namedview
     pagecolor="#ffffff"
     bordercolor="#666666"
     borderopacity="1"
     objecttolerance="10"
     gridtolerance="10"
     guidetolerance="10"
     inkscape:pageopacity="0"
     inkscape:pageshadow="2"
     inkscape:window-width="689"
     inkscape:window-height="480"
     id="namedview8"
     showgrid="false"
     inkscape:zoom="1.3027344"
     inkscape:cx="256"
     inkscape:cy="256"
     inkscape:window-x="44"
     inkscape:window-y="25"
     inkscape:window-maximized="0"
     inkscape:current-layer="svg6" />
  <title
     id="title2">Logo Snapchat</title>
  <path
     style="color:#000000;font-style:normal;font-variant:normal;font-weight:normal;font-stretch:normal;font-size:medium;line-height:normal;font-family:sans-serif;font-variant-ligatures:normal;font-variant-position:normal;font-variant-caps:normal;font-variant-numeric:normal;font-variant-alternates:normal;font-variant-east-asian:normal;font-feature-settings:normal;font-variation-settings:normal;text-indent:0;text-align:start;text-decoration:none;text-decoration-line:none;text-decoration-style:solid;text-decoration-color:#000000;letter-spacing:normal;word-spacing:normal;text-transform:none;writing-mode:lr-tb;direction:ltr;text-orientation:mixed;dominant-baseline:auto;baseline-shift:baseline;text-anchor:start;white-space:normal;shape-padding:0;shape-margin:0;inline-size:0;clip-rule:nonzero;display:inline;overflow:visible;visibility:visible;isolation:auto;mix-blend-mode:normal;color-interpolation:sRGB;color-interpolation-filters:linearRGB;solid-color:#000000;solid-opacity:1;vector-effect:none;fill:#000000;fill-opacity:1;fill-rule:nonzero;stroke-width:1;stroke-linecap:butt;stroke-linejoin:miter;stroke-miterlimit:4;stroke-dasharray:none;stroke-dashoffset:0;stroke-opacity:1;color-rendering:auto;image-rendering:auto;shape-rendering:auto;text-rendering:auto;enable-background:accumulate;stop-color:#000000;stop-opacity:1;stroke:none;opacity:1"
     d="m 496,347.21 c -11.06387,-0.81092 -22.03566,-2.58769 -32.79,-5.31 -27.28,-6.63 -54.84,-24.26 -68.12,-52.43 -6.9,-14.63 -2.64,-18.59 11.86,-24 14.18,-5.27 29.8,-7.72 36.86,-23 5.89,-12.76 1.13,-27.76 -10.41,-35.49 -15.71,-10.53 -30.35,-0.21 -46.62,2.07 3.73,-46.66 8.66,-88.57 -22.67,-127.73 C 338.14,48.86 297.34,32 256.29,32 215.24,32 174.43,48.86 148.48,81.33 117.1,120.59 122.08,162.51 125.81,209.25 109.49,207 95,196.46 79.18,207.07 c -14.72,9.85 -17,29.76 -5.44,43 11.56,13.24 31.64,9.5 43.45,20.6 6.49,6.09 3.49,12.61 -0.35,20.14 -14.48,28.4 -39.26,45.74 -69.84,51.56 -4,0.76 -22.31,2.87 -31,3.65 0,9.28 0.52,16.78 1.63,21.73 2.94,13.06 12.32,23.58 23.69,30.1 11.18,6.4 35.48,6.43 41.68,15.51 3,4.48 1.76,12.28 5.33,17.38 3.629115,5.15811 9.15719,8.66486 15.37,9.75 18.61,3.61 37.32,-7.2 56.42,-2.1 14.85,3.95 26.52,15.87 39.26,24 15.51,9.85 32.34,16.42 50.83,17.49 38.1,2.21 59.93,-18.91 90.58,-36.42 19.5,-11.14 38.15,-3.86 58.88,-2.68 20.1,1.15 23.53,-9.25 29.62,-24.88 0.66283,-1.56534 1.17839,-3.18902 1.54,-4.85 0.82026,-0.38954 1.58663,-0.88365 2.28,-1.47 2,-1.57 10.55,-2.34 12.76,-2.86 10.28,-2.44 20.34,-5.15 29.17,-11.2 11.31,-7.76 17.65,-18.5 19.58,-32.64 0.89828,-5.17544 1.3599,-10.41723 1.38,-15.67 z M 208,128 c 8.84,0 16,10.74 16,24 0,13.26 -7.16,24 -16,24 -8.84,0 -16,-10.74 -16,-24 0,-13.26 7.16,-24 16,-24 z m 103.62,77.7 c -15.25,15 -35,23.3 -55.62,23.3 -20.92527,-0.0372 -40.96666,-8.4412 -55.66,-23.34 -3.12593,-3.12593 -3.12593,-8.19407 0,-11.32 3.12593,-3.12593 8.19407,-3.12593 11.32,0 11.69581,11.89056 27.66143,18.60952 44.34,18.66 16.39,0 32.15,-6.64 44.39,-18.7 3.14803,-3.10108 8.21392,-3.06302 11.315,0.085 3.10108,3.14803 3.06303,8.21392 -0.085,11.315 z M 304,176 c -8.84,0 -16,-10.75 -16,-24 0,-13.25 7.16,-24 16,-24 8.84,0 16,10.75 16,24 0,13.25 -7.16,24 -16,24 z"
     id="path4" />
</svg>
