<?xml version="1.0" encoding="UTF-8" standalone="no"?>
<svg
   xmlns:dc="http://purl.org/dc/elements/1.1/"
   xmlns:cc="http://creativecommons.org/ns#"
   xmlns:rdf="http://www.w3.org/1999/02/22-rdf-syntax-ns#"
   xmlns:svg="http://www.w3.org/2000/svg"
   xmlns="http://www.w3.org/2000/svg"
   xmlns:sodipodi="http://sodipodi.sourceforge.net/DTD/sodipodi-0.dtd"
   xmlns:inkscape="http://www.inkscape.org/namespaces/inkscape"
   class="ionicon"
   viewBox="0 0 512 512"
   version="1.1"
   id="svg8"
   sodipodi:docname="logo-octocat.svg"
   inkscape:version="1.0.2 (e86c8708, 2021-01-15)">
  <metadata
     id="metadata14">
    <rdf:RDF>
      <cc:Work
         rdf:about="">
        <dc:format>image/svg+xml</dc:format>
        <dc:type
           rdf:resource="http://purl.org/dc/dcmitype/StillImage" />
      </cc:Work>
    </rdf:RDF>
  </metadata>
  <defs
     id="defs12" />
  <sodipodi:namedview
     pagecolor="#ffffff"
     bordercolor="#666666"
     borderopacity="1"
     objecttolerance="10"
     gridtolerance="10"
     guidetolerance="10"
     inkscape:pageopacity="0"
     inkscape:pageshadow="2"
     inkscape:window-width="689"
     inkscape:window-height="480"
     id="namedview10"
     showgrid="false"
     inkscape:zoom="1.3027344"
     inkscape:cx="256"
     inkscape:cy="256"
     inkscape:window-x="44"
     inkscape:window-y="25"
     inkscape:window-maximized="0"
     inkscape:current-layer="svg8" />
  <title
     id="title2">Logo Octocat</title>
  <path
     style="color:#000000;font-style:normal;font-variant:normal;font-weight:normal;font-stretch:normal;font-size:medium;line-height:normal;font-family:sans-serif;font-variant-ligatures:normal;font-variant-position:normal;font-variant-caps:normal;font-variant-numeric:normal;font-variant-alternates:normal;font-variant-east-asian:normal;font-feature-settings:normal;font-variation-settings:normal;text-indent:0;text-align:start;text-decoration:none;text-decoration-line:none;text-decoration-style:solid;text-decoration-color:#000000;letter-spacing:normal;word-spacing:normal;text-transform:none;writing-mode:lr-tb;direction:ltr;text-orientation:mixed;dominant-baseline:auto;baseline-shift:baseline;text-anchor:start;white-space:normal;shape-padding:0;shape-margin:0;inline-size:0;clip-rule:nonzero;display:inline;overflow:visible;visibility:visible;isolation:auto;mix-blend-mode:normal;color-interpolation:sRGB;color-interpolation-filters:linearRGB;solid-color:#000000;solid-opacity:1;vector-effect:none;fill:#000000;fill-opacity:1;fill-rule:nonzero;stroke-width:1;stroke-linecap:butt;stroke-linejoin:miter;stroke-miterlimit:4;stroke-dasharray:none;stroke-dashoffset:0;stroke-opacity:1;color-rendering:auto;image-rendering:auto;shape-rendering:auto;text-rendering:auto;enable-background:accumulate;stop-color:#000000;stop-opacity:1;stroke:none;opacity:1"
     d="m 172.86,290.12 c -9.75,0 -18.11,4.56 -24.86,13.87 -6.75,9.31 -10.07,20.58 -10.07,34 0,13.42 3.43,24.91 10.07,34.12 6.64,9.21 15,13.89 24.86,13.89 9.1,0 17,-4.66 23.68,-13.87 6.68,-9.21 10.07,-20.58 10.07,-34.12 0,-13.54 -3.43,-24.81 -10.07,-34 -6.64,-9.19 -14.54,-13.89 -23.68,-13.89 z m 167.46,0 c -9.64,0 -18.11,4.56 -24.86,13.87 -6.75,9.31 -10.07,20.58 -10.07,34 0,13.42 3.43,24.91 10.07,34.12 6.64,9.21 15.11,13.89 24.86,13.89 9.11,0 17,-4.66 23.79,-13.87 6.79,-9.21 10.07,-20.58 10.07,-34.12 0,-13.54 -3.43,-24.81 -10.07,-34 -6.64,-9.19 -14.57,-13.89 -23.79,-13.89 z"
     id="path4" />
  <path
     style="color:#000000;font-style:normal;font-variant:normal;font-weight:normal;font-stretch:normal;font-size:medium;line-height:normal;font-family:sans-serif;font-variant-ligatures:normal;font-variant-position:normal;font-variant-caps:normal;font-variant-numeric:normal;font-variant-alternates:normal;font-variant-east-asian:normal;font-feature-settings:normal;font-variation-settings:normal;text-indent:0;text-align:start;text-decoration:none;text-decoration-line:none;text-decoration-style:solid;text-decoration-color:#000000;letter-spacing:normal;word-spacing:normal;text-transform:none;writing-mode:lr-tb;direction:ltr;text-orientation:mixed;dominant-baseline:auto;baseline-shift:baseline;text-anchor:start;white-space:normal;shape-padding:0;shape-margin:0;inline-size:0;clip-rule:nonzero;display:inline;overflow:visible;visibility:visible;isolation:auto;mix-blend-mode:normal;color-interpolation:sRGB;color-interpolation-filters:linearRGB;solid-color:#000000;solid-opacity:1;vector-effect:none;fill:#000000;fill-opacity:1;fill-rule:nonzero;stroke-width:1;stroke-linecap:butt;stroke-linejoin:miter;stroke-miterlimit:4;stroke-dasharray:none;stroke-dashoffset:0;stroke-opacity:1;color-rendering:auto;image-rendering:auto;shape-rendering:auto;text-rendering:auto;enable-background:accumulate;stop-color:#000000;stop-opacity:1;stroke:none;opacity:1"
     d="m 459.36,165 c -0.11,0 2.89,-15.49 0.32,-42.47 -2.36,-27 -8,-51.78 -17.25,-74.53 0,0 -4.72,0.87 -13.72,3.14 -9,2.27 -23.71,6.86 -43.82,16.04 -19.82,9.2 -40.71,21.44 -62.46,36.29 -14.79,-4.23 -36.86,-6.39 -66.43,-6.39 -28.18,0 -50.25,2.16 -66.43,6.39 C 141.79,69.99 101.75333,51.5 69.46,48 60.253333,70.753333 54.54,95.67 52.32,122.75 c -2.57,27 0.43,42.58 0.43,42.58 C 26.71,193.82 16,234.88 16,268.78 c 0,26.22 0.75,49.94 6.54,71 6,20.91 13.6,38 22.6,51.14 9.311607,13.2875 20.751942,24.94745 33.86,34.51 13.39,10.08 25.71,17.34 36.86,21.89 11.25,4.76 24,8.23 38.57,10.72 10.79834,2.08911 21.71069,3.5383 32.68,4.34 0,0 30,1.62 69,1.62 39,0 68.89,-1.62 68.89,-1.62 10.96867,-0.82867 21.88023,-2.29111 32.68,-4.38 13.17981,-2.12719 26.08012,-5.7229 38.46,-10.72 11.15,-4.66 23.47,-11.81 37,-21.89 13.10244,-9.54884 24.51067,-21.22749 33.75,-34.55 9,-13.11 16.6,-30.23 22.6,-51.14 6,-20.91 6.51,-44.81 6.51,-71.03 C 496,235.85 485.29,194.25 459.36,165 Z M 389.29,418.07 C 359.39,432.26 315.46,438 257.18,438 h -2.25 c -58.29,0 -102.22,-5.63 -131.57,-19.93 -29.35,-14.3 -44.25,-43.45 -44.25,-87.43 0,-26.32 9.21,-47.66 27.32,-64 7.93,-7 17.57,-11.92 29.57,-14.84 12,-2.92 22.93,-3 33.21,-2.71 10.08,0.43 24.22,2.38 42.11,3.79 17.89,1.41 31.39,3.25 44.79,3.25 12.53,0 29.14,-2.17 55.82,-4.33 26.68,-2.16 46.61,-3.25 59.46,-1.09 13.18,2.17 24.65,6.72 34.4,15.93 18.96,17.11333 28.46,38.44667 28.5,64 -0.11,43.98 -15.22,73.24 -45,87.43 z"
     id="path6" />
</svg>
