<?xml version="1.0" encoding="UTF-8" standalone="no"?>
<svg
   xmlns:dc="http://purl.org/dc/elements/1.1/"
   xmlns:cc="http://creativecommons.org/ns#"
   xmlns:rdf="http://www.w3.org/1999/02/22-rdf-syntax-ns#"
   xmlns:svg="http://www.w3.org/2000/svg"
   xmlns="http://www.w3.org/2000/svg"
   xmlns:sodipodi="http://sodipodi.sourceforge.net/DTD/sodipodi-0.dtd"
   xmlns:inkscape="http://www.inkscape.org/namespaces/inkscape"
   class="ionicon"
   viewBox="0 0 512 512"
   version="1.1"
   id="svg6"
   sodipodi:docname="logo-foursquare.svg"
   inkscape:version="1.0.2 (e86c8708, 2021-01-15)">
  <metadata
     id="metadata12">
    <rdf:RDF>
      <cc:Work
         rdf:about="">
        <dc:format>image/svg+xml</dc:format>
        <dc:type
           rdf:resource="http://purl.org/dc/dcmitype/StillImage" />
      </cc:Work>
    </rdf:RDF>
  </metadata>
  <defs
     id="defs10" />
  <sodipodi:namedview
     pagecolor="#ffffff"
     bordercolor="#666666"
     borderopacity="1"
     objecttolerance="10"
     gridtolerance="10"
     guidetolerance="10"
     inkscape:pageopacity="0"
     inkscape:pageshadow="2"
     inkscape:window-width="689"
     inkscape:window-height="480"
     id="namedview8"
     showgrid="false"
     inkscape:zoom="1.3027344"
     inkscape:cx="256"
     inkscape:cy="256"
     inkscape:window-x="44"
     inkscape:window-y="25"
     inkscape:window-maximized="0"
     inkscape:current-layer="svg6" />
  <title
     id="title2">Logo Foursquare</title>
  <path
     style="color:#000000;font-style:normal;font-variant:normal;font-weight:normal;font-stretch:normal;font-size:medium;line-height:normal;font-family:sans-serif;font-variant-ligatures:normal;font-variant-position:normal;font-variant-caps:normal;font-variant-numeric:normal;font-variant-alternates:normal;font-variant-east-asian:normal;font-feature-settings:normal;font-variation-settings:normal;text-indent:0;text-align:start;text-decoration:none;text-decoration-line:none;text-decoration-style:solid;text-decoration-color:#000000;letter-spacing:normal;word-spacing:normal;text-transform:none;writing-mode:lr-tb;direction:ltr;text-orientation:mixed;dominant-baseline:auto;baseline-shift:baseline;text-anchor:start;white-space:normal;shape-padding:0;shape-margin:0;inline-size:0;clip-rule:nonzero;display:inline;overflow:visible;visibility:visible;isolation:auto;mix-blend-mode:normal;color-interpolation:sRGB;color-interpolation-filters:linearRGB;solid-color:#000000;solid-opacity:1;vector-effect:none;fill:#000000;fill-opacity:1;fill-rule:nonzero;stroke-width:1;stroke-linecap:butt;stroke-linejoin:miter;stroke-miterlimit:4;stroke-dasharray:none;stroke-dashoffset:0;stroke-opacity:1;color-rendering:auto;image-rendering:auto;shape-rendering:auto;text-rendering:auto;enable-background:accumulate;stop-color:#000000;stop-opacity:1;stroke:none;opacity:1"
     d="M 376.76,32 H 138.54 C 105.67,32 96,56.8 96,72.41 v 379.64 c 0,17.59 9.42,24.12 14.72,26.27 5.3,2.15 19.91,4 28.67,-6.17 0,0 112.47,-130.89 114.4,-132.83 2.92,-2.93 2.92,-2.93 5.84,-2.93 h 72.77 c 30.58,0 35.49,-21.87 38.69,-34.75 2.65,-10.79 32.48,-164 42.45,-212.56 C 421.14,52 411.74,32 376.76,32 Z m -5.67,269.64 c 2.65,-10.79 32.48,-164 42.45,-212.56 m -50.85,7.59 -10,51.73 c -1.19,5.65 -8.28,11.6 -14.86,11.6 H 241.91 C 231.47,160 224,166.14 224,176.6 v 13.45 c 0,10.47 7.52,17.89 18,17.89 h 81.85 c 7.38,0 14.61,8.11 13,16 -1.61,7.89 -9.09,46.57 -10,50.89 -0.91,4.32 -5.84,11.72 -14.61,11.72 H 248 c -11.7,0 -15.24,1.54 -23.07,11.3 -7.83,9.76 -78.26,94.59 -78.26,94.59 -0.71,0.82 -1.41,0.58 -1.41,-0.31 V 95.9 c 0,-6.69 5.8,-14.53 14.48,-14.53 h 191.14 c 7.91217,0.172535 13.64702,7.602111 11.81,15.3 z"
     id="path4" />
</svg>
