<?xml version="1.0" encoding="UTF-8"?>
<svg width="512px" height="512px" viewBox="0 0 512 512" version="1.1" xmlns="http://www.w3.org/2000/svg" xmlns:xlink="http://www.w3.org/1999/xlink">
    <!-- Generator: Sketch 62 (91390) - https://sketch.com -->
    <title>Artboard</title>
    <desc>Created with Sketch.</desc>
    <g id="Artboard" stroke="none" stroke-width="1" fill="none" fill-rule="evenodd">
        <g id="logo-reddit" transform="translate(16.000000, 48.000000)" fill="#000000" fill-rule="nonzero">
            <path d="M397,0 C425,0 448.58,23.07 448.58,51.28 C448.58,79.49 425.8,102.49 397.8,102.49 C371.15,102.49 349.05,81.48 347.15,55 L347.15,55 L280.74,41.8 L258.74,120.8 C307.61,123.75 353.39,138.3 388.39,162.07 C398.395149,153.758368 410.992839,149.208908 424,149.21 C454.86,149.21 480.000376,174.58 480.000376,205.77 C480.073591,225.964559 469.329195,244.652787 451.84,254.75 C452.390211,259.162126 452.670732,263.60371 452.68,268.05 C452.68,307.84 430.36,345.11 389.83,373.11 C349.76,400.77 296.49,416 240,416 C183.51,416 130.36,400.77 90.22,373.17 C49.71,345.17 27.33,307.91 27.22,268.17 C27.2146588,263.708323 27.5120081,259.251424 28.11,254.83 C10.6319271,244.689132 -0.0897498306,225.976736 -0.000559076324,205.77 C-0.000559076324,174.58 25.11,149.21 56,149.21 C69.0246831,149.167823 81.647492,153.717699 91.65,162.06 C128.08,137.46 175.79,122.74 226.42,120.53 L226.42,120.53 L231.05,120.4 L262.15,10.88 L352.15,28.77 C360.69,11.19 377.47,0 397,0 Z M240.06,147.02 C188.97,147.02 141.17,160.5 105.45,185.02 L105.45,185.02 L105.21,185.19 L104.91,185.4 C99.7623241,188.942625 94.8333476,192.79297 90.15,196.93 C75.16,210.24 64.68,224.98 59,240.72 C55.7445102,249.44762 54.0683727,258.685 54.05,268 C54.05,298.74 72.29,328.21 105.29,351 C141,375.61 188.88,389.14 240.05,389.14 C291.22,389.14 339.08,375.59 374.82,351 C407.86,328.24 426.06,298.77 426.070009,268.05 C426.070009,264.823964 425.871197,261.600993 425.47,258.4 C424.666128,252.373426 423.221277,246.449872 421.16,240.73 C415.48,224.97 405,210.24 390,196.92 C385.316334,192.803015 380.390893,188.96952 375.25,185.44 L375.25,185.44 L374.91,185.19 L374.68,185.02 C338.96,160.53 291.15,147.02 240.06,147.02 Z M307.28,314.21 C308.889291,312.617496 311.480709,312.617496 313.09,314.21 L313.09,314.21 L326.8,327.68 C327.585325,328.460827 328.026896,329.522559 328.026896,330.63 C328.026896,331.737441 327.585325,332.799173 326.8,333.58 L326.8,333.58 L326.689596,333.690171 C322.76915,337.593539 291.4406,367.8122 240.02,368.03 C187.94,367.81 156.64,336.98 153.24,333.58 L153.24,333.58 L153.077137,333.408832 C152.394481,332.649213 152.013949,331.661821 152.013949,330.635 C152.013949,329.529192 152.455276,328.469114 153.24,327.69 L153.24,327.69 L166.94,314.22 C168.553888,312.619722 171.156112,312.619722 172.77,314.22 L172.77,314.22 L172.807869,314.258348 C174.287372,315.758117 198.5,340.292 240.08,340.49 C280.4223,340.296 305.446748,315.996142 307.140075,314.310157 L307.23,314.22 Z M158.226311,210.738675 C176.595116,203.130067 197.653969,211.85293 205.262578,230.221735 C212.871186,248.590539 204.148323,269.649393 185.779518,277.258001 C167.410713,284.866609 146.351859,276.143747 138.743251,257.774942 C131.134643,239.406137 139.857506,218.347283 158.226311,210.738675 Z M308,208 C327.882251,208 344,224.117749 344,244 C344,263.882251 327.882251,280 308,280 C288.117749,280 272,263.882251 272,244 C272,224.117749 288.117749,208 308,208 Z M56.14,176.06 C39.8197091,176.159133 26.6590481,189.449522 26.7197891,205.77 C26.7442601,213.812544 29.9723485,221.513892 35.69,227.17 C42.83,209.9 54.26,193.9 69.76,179.49 C65.5696357,177.247926 60.8924678,176.070048 56.14,176.06 Z M424,175.999896 C419.243736,175.987255 414.556896,177.140939 410.35,179.36 C425.86,193.79 437.29,209.8 444.42,227.08 L444.42,227.08 L444.42,227.1 C450.157568,221.459809 453.39558,213.755573 453.410251,205.71 C453.476482,189.391148 440.318687,176.099135 424,175.999896 Z M398,27 C384.745166,27 374,37.745166 374,51 C374,64.254834 384.745166,75 398,75 C411.254834,75 422,64.254834 422,51 C422,37.745166 411.254834,27 398,27 Z" id="Combined-Shape"></path>
        </g>
    </g>
</svg>