<?xml version="1.0" encoding="UTF-8" standalone="no"?>
<svg
   xmlns:dc="http://purl.org/dc/elements/1.1/"
   xmlns:cc="http://creativecommons.org/ns#"
   xmlns:rdf="http://www.w3.org/1999/02/22-rdf-syntax-ns#"
   xmlns:svg="http://www.w3.org/2000/svg"
   xmlns="http://www.w3.org/2000/svg"
   xmlns:sodipodi="http://sodipodi.sourceforge.net/DTD/sodipodi-0.dtd"
   xmlns:inkscape="http://www.inkscape.org/namespaces/inkscape"
   class="ionicon"
   viewBox="0 0 512 512"
   version="1.1"
   id="svg6"
   sodipodi:docname="logo-bitcoin.svg"
   inkscape:version="1.0.2 (e86c8708, 2021-01-15)">
  <metadata
     id="metadata12">
    <rdf:RDF>
      <cc:Work
         rdf:about="">
        <dc:format>image/svg+xml</dc:format>
        <dc:type
           rdf:resource="http://purl.org/dc/dcmitype/StillImage" />
      </cc:Work>
    </rdf:RDF>
  </metadata>
  <defs
     id="defs10" />
  <sodipodi:namedview
     pagecolor="#ffffff"
     bordercolor="#666666"
     borderopacity="1"
     objecttolerance="10"
     gridtolerance="10"
     guidetolerance="10"
     inkscape:pageopacity="0"
     inkscape:pageshadow="2"
     inkscape:window-width="689"
     inkscape:window-height="480"
     id="namedview8"
     showgrid="false"
     inkscape:zoom="1.3027344"
     inkscape:cx="256"
     inkscape:cy="256"
     inkscape:window-x="44"
     inkscape:window-y="25"
     inkscape:window-maximized="0"
     inkscape:current-layer="svg6" />
  <title
     id="title2">Logo Bitcoin</title>
  <path
     style="color:#000000;font-style:normal;font-variant:normal;font-weight:normal;font-stretch:normal;font-size:medium;line-height:normal;font-family:sans-serif;font-variant-ligatures:normal;font-variant-position:normal;font-variant-caps:normal;font-variant-numeric:normal;font-variant-alternates:normal;font-variant-east-asian:normal;font-feature-settings:normal;font-variation-settings:normal;text-indent:0;text-align:start;text-decoration:none;text-decoration-line:none;text-decoration-style:solid;text-decoration-color:#000000;letter-spacing:normal;word-spacing:normal;text-transform:none;writing-mode:lr-tb;direction:ltr;text-orientation:mixed;dominant-baseline:auto;baseline-shift:baseline;text-anchor:start;white-space:normal;shape-padding:0;shape-margin:0;inline-size:0;clip-rule:nonzero;display:inline;overflow:visible;visibility:visible;isolation:auto;mix-blend-mode:normal;color-interpolation:sRGB;color-interpolation-filters:linearRGB;solid-color:#000000;solid-opacity:1;vector-effect:none;fill:#000000;fill-opacity:1;fill-rule:nonzero;stroke-width:1;stroke-linecap:butt;stroke-linejoin:miter;stroke-miterlimit:4;stroke-dasharray:none;stroke-dashoffset:0;stroke-opacity:1;color-rendering:auto;image-rendering:auto;shape-rendering:auto;text-rendering:auto;enable-background:accumulate;stop-color:#000000;stop-opacity:1;stroke:none;opacity:1"
     d="m 410.47,279.2 c -5,-11.5 -12.7,-21.6 -28.1,-30.1 -7.95954,-4.50019 -16.50887,-7.86607 -25.4,-10 5.98207,-2.77946 11.4841,-6.49249 16.3,-11 7.07952,-6.32873 12.44553,-14.34334 15.6,-23.3 2.90358,-9.10201 4.09039,-18.66434 3.5,-28.2 -1.1,-16.8 -4.4,-33.1 -13.2,-44.8 -8.8,-11.7 -21.2,-20.7 -37.6,-27 -12.6,-4.8 -25.5,-7.8 -45.5,-8.9 V 32 h -40 v 64 h -32 V 32 h -41 V 96 H 96 v 48 h 27.87 c 8.7,0 14.6,0.8 17.6,2.3 2.79137,1.19427 5.0866,3.31294 6.5,6 1.3,2.5 1.9,8.4 1.9,17.5 V 343 c 0,9 -0.6,14.8 -1.9,17.4 -1.3,2.6 -2,4.9 -5.1,6.3 -3.1,1.4 -3.2,1.3 -11.8,1.3 h -26.4 L 96,416 h 87 v 64 h 41 v -64 h 32 v 64 h 40 v -64.4 c 26,-1.3 44.5,-4.7 59.4,-10.3 19.3,-7.2 34.1,-17.7 44.7,-31.5 10.6,-13.8 14,-34.9 14.93,-51.2 0.67,-14.5 -0.03,-33.2 -4.56,-43.4 z M 224,150 h 32 v 74 h -32 z m 0,212 v -90 h 32 v 90 z m 72,-208.1 c 6,2.5 9.9,7.5 13.8,12.7 4.3,5.7 6.5,13.3 6.5,21.4 0,7.8 -2.9,14.5 -7.5,20.5 -3.8,4.9 -6.8,8.3 -12.8,11.1 z m 28.8,186.7 c -7.8,6.9 -12.3,10.1 -22.1,13.8 -2.1918,0.77158 -4.42945,1.40613 -6.7,1.9 v -82.8 c 3.91171,0.57893 7.7183,1.72427 11.3,3.4 7.8,3.3 15.2,6.9 19.8,13.2 5.10056,7.23616 7.88968,15.84757 8,24.7 -0.03,10.9 -2.83,19.2 -10.33,25.8 z"
     id="path4" />
</svg>
