<?xml version="1.0" encoding="UTF-8" standalone="no"?>
<svg
   xmlns:dc="http://purl.org/dc/elements/1.1/"
   xmlns:cc="http://creativecommons.org/ns#"
   xmlns:rdf="http://www.w3.org/1999/02/22-rdf-syntax-ns#"
   xmlns:svg="http://www.w3.org/2000/svg"
   xmlns="http://www.w3.org/2000/svg"
   xmlns:sodipodi="http://sodipodi.sourceforge.net/DTD/sodipodi-0.dtd"
   xmlns:inkscape="http://www.inkscape.org/namespaces/inkscape"
   class="ionicon"
   viewBox="0 0 512 512"
   version="1.1"
   id="svg6"
   sodipodi:docname="logo-alipay.svg"
   inkscape:version="1.0.2 (e86c8708, 2021-01-15)">
  <metadata
     id="metadata12">
    <rdf:RDF>
      <cc:Work
         rdf:about="">
        <dc:format>image/svg+xml</dc:format>
        <dc:type
           rdf:resource="http://purl.org/dc/dcmitype/StillImage" />
      </cc:Work>
    </rdf:RDF>
  </metadata>
  <defs
     id="defs10" />
  <sodipodi:namedview
     pagecolor="#ffffff"
     bordercolor="#666666"
     borderopacity="1"
     objecttolerance="10"
     gridtolerance="10"
     guidetolerance="10"
     inkscape:pageopacity="0"
     inkscape:pageshadow="2"
     inkscape:window-width="689"
     inkscape:window-height="480"
     id="namedview8"
     showgrid="false"
     inkscape:zoom="1.3027344"
     inkscape:cx="256"
     inkscape:cy="256"
     inkscape:window-x="44"
     inkscape:window-y="25"
     inkscape:window-maximized="0"
     inkscape:current-layer="svg6" />
  <title
     id="title2">Logo Alipay</title>
  <path
     style="color:#000000;font-style:normal;font-variant:normal;font-weight:normal;font-stretch:normal;font-size:medium;line-height:normal;font-family:sans-serif;font-variant-ligatures:normal;font-variant-position:normal;font-variant-caps:normal;font-variant-numeric:normal;font-variant-alternates:normal;font-variant-east-asian:normal;font-feature-settings:normal;font-variation-settings:normal;text-indent:0;text-align:start;text-decoration:none;text-decoration-line:none;text-decoration-style:solid;text-decoration-color:#000000;letter-spacing:normal;word-spacing:normal;text-transform:none;writing-mode:lr-tb;direction:ltr;text-orientation:mixed;dominant-baseline:auto;baseline-shift:baseline;text-anchor:start;white-space:normal;shape-padding:0;shape-margin:0;inline-size:0;clip-rule:nonzero;display:inline;overflow:visible;visibility:visible;isolation:auto;mix-blend-mode:normal;color-interpolation:sRGB;color-interpolation-filters:linearRGB;solid-color:#000000;solid-opacity:1;vector-effect:none;fill:#000000;fill-opacity:1;fill-rule:nonzero;stroke-width:1;stroke-linecap:butt;stroke-linejoin:miter;stroke-miterlimit:4;stroke-dasharray:none;stroke-dashoffset:0;stroke-opacity:1;color-rendering:auto;image-rendering:auto;shape-rendering:auto;text-rendering:auto;enable-background:accumulate;stop-color:#000000;stop-opacity:1;stroke:none;opacity:1"
     d="M 102.41,32 C 62.38,32 32,64.12 32,103.78 V 408.23 C 32,447.86 64.38,480 104.41,480 h 303.2 c 40,0 72.39,-32.14 72.39,-71.77 v -3.11 c -1.35,-0.56 -115.47,-48.57 -174.5,-76.7 -39.82,48.57 -91.18,78 -144.5,78 -90.18,0 -120.8,-78.22 -78.1,-129.72 9.31,-11.22 25.15,-21.94 49.73,-28 38.45,-9.36 99.64,5.85 157,24.61 10.68468,-19.5789 19.22096,-40.25575 25.46,-61.67 H 138.34 V 194 h 91.13 V 162.17 H 119.09 V 144.42 H 229.47 V 99 c 0,0 0,-7.65 7.82,-7.65 h 44.55 v 53 H 391 V 162.1 H 281.84 V 194 h 89.08 c -8.03457,33.10522 -20.73499,64.90002 -37.72,94.43 27,9.69 49.31,18.88 67.39,24.89 60.32,20 77.23,22.45 79.41,22.7 V 103.78 C 480,64.12 447.6,32 407.61,32 Z M 152,274.73 c -3.87333,0.04 -7.76333,0.25 -11.67,0.63 -11.3,1.13 -32.5,6.07 -44.09,16.23 -34.74,30 -13.94,84.93 56.37,84.93 40.87,0 81.71,-25.9 113.79,-67.37 -41.36,-20 -77,-34.85 -114.4,-34.42 z"
     id="path4" />
</svg>
