<?xml version="1.0" encoding="UTF-8" standalone="no"?>
<svg
   xmlns:dc="http://purl.org/dc/elements/1.1/"
   xmlns:cc="http://creativecommons.org/ns#"
   xmlns:rdf="http://www.w3.org/1999/02/22-rdf-syntax-ns#"
   xmlns:svg="http://www.w3.org/2000/svg"
   xmlns="http://www.w3.org/2000/svg"
   xmlns:sodipodi="http://sodipodi.sourceforge.net/DTD/sodipodi-0.dtd"
   xmlns:inkscape="http://www.inkscape.org/namespaces/inkscape"
   class="ionicon"
   viewBox="0 0 512 512"
   version="1.1"
   id="svg8"
   sodipodi:docname="logo-nodejs.svg"
   inkscape:version="1.0.2 (e86c8708, 2021-01-15)">
  <metadata
     id="metadata14">
    <rdf:RDF>
      <cc:Work
         rdf:about="">
        <dc:format>image/svg+xml</dc:format>
        <dc:type
           rdf:resource="http://purl.org/dc/dcmitype/StillImage" />
      </cc:Work>
    </rdf:RDF>
  </metadata>
  <defs
     id="defs12" />
  <sodipodi:namedview
     pagecolor="#ffffff"
     bordercolor="#666666"
     borderopacity="1"
     objecttolerance="10"
     gridtolerance="10"
     guidetolerance="10"
     inkscape:pageopacity="0"
     inkscape:pageshadow="2"
     inkscape:window-width="689"
     inkscape:window-height="480"
     id="namedview10"
     showgrid="false"
     inkscape:zoom="1.3027344"
     inkscape:cx="256"
     inkscape:cy="256"
     inkscape:window-x="44"
     inkscape:window-y="25"
     inkscape:window-maximized="0"
     inkscape:current-layer="svg8" />
  <title
     id="title2">Logo Nodejs</title>
  <path
     style="color:#000000;font-style:normal;font-variant:normal;font-weight:normal;font-stretch:normal;font-size:medium;line-height:normal;font-family:sans-serif;font-variant-ligatures:normal;font-variant-position:normal;font-variant-caps:normal;font-variant-numeric:normal;font-variant-alternates:normal;font-variant-east-asian:normal;font-feature-settings:normal;font-variation-settings:normal;text-indent:0;text-align:start;text-decoration:none;text-decoration-line:none;text-decoration-style:solid;text-decoration-color:#000000;letter-spacing:normal;word-spacing:normal;text-transform:none;writing-mode:lr-tb;direction:ltr;text-orientation:mixed;dominant-baseline:auto;baseline-shift:baseline;text-anchor:start;white-space:normal;shape-padding:0;shape-margin:0;inline-size:0;clip-rule:nonzero;display:inline;overflow:visible;visibility:visible;isolation:auto;mix-blend-mode:normal;color-interpolation:sRGB;color-interpolation-filters:linearRGB;solid-color:#000000;solid-opacity:1;vector-effect:none;fill:#000000;fill-opacity:1;fill-rule:nonzero;stroke-width:1;stroke-linecap:butt;stroke-linejoin:miter;stroke-miterlimit:4;stroke-dasharray:none;stroke-dashoffset:0;stroke-opacity:1;color-rendering:auto;image-rendering:auto;shape-rendering:auto;text-rendering:auto;enable-background:accumulate;stop-color:#000000;stop-opacity:1;stroke:none;opacity:1"
     d="M 429.76,130.07 274.33,36.85 c -11.35856,-6.475545 -25.29144,-6.475545 -36.65,0 L 82.24,130.06 C 70.847206,137.04153 63.930334,149.46839 64,162.83 V 349 c -0.06835,13.36924 6.846853,25.80447 18.24,32.8 l 40.76,24.34 0.23,0.13 c 20.58,10.53 28.46,10.53 37.59,10.53 32.14,0 52.11,-20.8 52.11,-54.29 V 182 c 0.0389,-4.69227 -3.72783,-8.53053 -8.42,-8.58 h -22.38 c -4.69217,0.0495 -8.45886,3.88773 -8.42,8.58 v 180.51 c 0.16563,5.25622 -2.43344,10.21531 -6.85,13.07 -5.9,3.6 -14.47,2.84 -24.14,-2.15 l -39.06,-23.51 c -0.30368,-0.20719 -0.48379,-0.55239 -0.48,-0.92 V 165.46 c 0.013,-0.42813 0.233,-0.82332 0.59,-1.06 l 151.84,-93 c 0.22991,-0.114286 0.50009,-0.114286 0.73,0 l 151.93,93 c 0.3507,0.25592 0.55569,0.66589 0.55,1.1 V 349 c 0.008,0.38396 -0.15758,0.75105 -0.45,1 l -152.06,90.65 c -0.25909,0.0899 -0.54091,0.0899 -0.8,0 l -38.83,-23.06 c -2.34666,-1.53387 -5.33598,-1.6904 -7.83,-0.41 l -0.34,0.2 c -10.72,6.35 -13.6,8 -23.54,11.62 -1.62,0.59 -5.43,2 -5.76,5.77 -0.33,3.77 3.29,6.45 6.51,8.32 l 51.9,31.87 c 5.52984,3.31248 11.85395,5.06457 18.3,5.07 h 0.58 c 6.2849,-0.0986 12.43354,-1.84697 17.83,-5.07 L 429.76,381.83 C 441.14619,374.81349 448.05724,362.37436 448,349 V 162.83 c 0.0642,-13.35755 -6.85173,-25.77891 -18.24,-32.76 z"
     id="path4" />
  <path
     style="color:#000000;font-style:normal;font-variant:normal;font-weight:normal;font-stretch:normal;font-size:medium;line-height:normal;font-family:sans-serif;font-variant-ligatures:normal;font-variant-position:normal;font-variant-caps:normal;font-variant-numeric:normal;font-variant-alternates:normal;font-variant-east-asian:normal;font-feature-settings:normal;font-variation-settings:normal;text-indent:0;text-align:start;text-decoration:none;text-decoration-line:none;text-decoration-style:solid;text-decoration-color:#000000;letter-spacing:normal;word-spacing:normal;text-transform:none;writing-mode:lr-tb;direction:ltr;text-orientation:mixed;dominant-baseline:auto;baseline-shift:baseline;text-anchor:start;white-space:normal;shape-padding:0;shape-margin:0;inline-size:0;clip-rule:nonzero;display:inline;overflow:visible;visibility:visible;isolation:auto;mix-blend-mode:normal;color-interpolation:sRGB;color-interpolation-filters:linearRGB;solid-color:#000000;solid-opacity:1;vector-effect:none;fill:#000000;fill-opacity:1;fill-rule:nonzero;stroke-width:1;stroke-linecap:butt;stroke-linejoin:miter;stroke-miterlimit:4;stroke-dasharray:none;stroke-dashoffset:0;stroke-opacity:1;color-rendering:auto;image-rendering:auto;shape-rendering:auto;text-rendering:auto;enable-background:accumulate;stop-color:#000000;stop-opacity:1;stroke:none;opacity:1"
     d="m 307.88,318.05 c -37.29,0 -45.24,-10.42 -47.6,-27.24 -0.54921,-4.13892 -4.04535,-7.25227 -8.22,-7.32 h -19.8 c -4.64583,0.0985 -8.33812,3.93378 -8.26,8.58 0,14.58 5.12,62.17 83.92,62.17 24.38,0 44.66,-5.7 58.63,-16.49 C 380.52,326.96 388,311.26 388,292.55 388,255 363.5,244.72 315.25,238 266.2,231.18 266.2,227.71 266.2,220.11 c 0,-5.47 0,-18.28 35.46,-18.28 25.23,0 38.74,3.19 43.06,20 0.7882,3.83948 4.14085,6.61394 8.06,6.67 h 19.87 c 2.369,-0.0235 4.61329,-1.06545 6.16,-2.86 1.52771,-1.78342 2.2896,-4.09784 2.12,-6.44 -2.57,-35.55 -28.56,-53.58 -79.24,-53.58 -46.06,0 -73.55,20.75 -73.55,55.5 0,38.1 28.49,48.87 71.29,53.33 50,5.17 50,12.71 50,19.37 0.03,10.38 -4.28,24.23 -41.55,24.23 z"
     id="path6" />
</svg>
