<?xml version="1.0" encoding="UTF-8" standalone="no"?>
<svg
   xmlns:dc="http://purl.org/dc/elements/1.1/"
   xmlns:cc="http://creativecommons.org/ns#"
   xmlns:rdf="http://www.w3.org/1999/02/22-rdf-syntax-ns#"
   xmlns:svg="http://www.w3.org/2000/svg"
   xmlns="http://www.w3.org/2000/svg"
   xmlns:sodipodi="http://sodipodi.sourceforge.net/DTD/sodipodi-0.dtd"
   xmlns:inkscape="http://www.inkscape.org/namespaces/inkscape"
   class="ionicon"
   viewBox="0 0 512 512"
   version="1.1"
   id="svg6"
   sodipodi:docname="logo-vimeo.svg"
   inkscape:version="1.0.2 (e86c8708, 2021-01-15)">
  <metadata
     id="metadata12">
    <rdf:RDF>
      <cc:Work
         rdf:about="">
        <dc:format>image/svg+xml</dc:format>
        <dc:type
           rdf:resource="http://purl.org/dc/dcmitype/StillImage" />
      </cc:Work>
    </rdf:RDF>
  </metadata>
  <defs
     id="defs10" />
  <sodipodi:namedview
     pagecolor="#ffffff"
     bordercolor="#666666"
     borderopacity="1"
     objecttolerance="10"
     gridtolerance="10"
     guidetolerance="10"
     inkscape:pageopacity="0"
     inkscape:pageshadow="2"
     inkscape:window-width="689"
     inkscape:window-height="480"
     id="namedview8"
     showgrid="false"
     inkscape:zoom="1.3027344"
     inkscape:cx="256"
     inkscape:cy="256"
     inkscape:window-x="44"
     inkscape:window-y="25"
     inkscape:window-maximized="0"
     inkscape:current-layer="svg6" />
  <title
     id="title2">Logo Vimeo</title>
  <path
     style="color:#000000;font-style:normal;font-variant:normal;font-weight:normal;font-stretch:normal;font-size:medium;line-height:normal;font-family:sans-serif;font-variant-ligatures:normal;font-variant-position:normal;font-variant-caps:normal;font-variant-numeric:normal;font-variant-alternates:normal;font-variant-east-asian:normal;font-feature-settings:normal;font-variation-settings:normal;text-indent:0;text-align:start;text-decoration:none;text-decoration-line:none;text-decoration-style:solid;text-decoration-color:#000000;letter-spacing:normal;word-spacing:normal;text-transform:none;writing-mode:lr-tb;direction:ltr;text-orientation:mixed;dominant-baseline:auto;baseline-shift:baseline;text-anchor:start;white-space:normal;shape-padding:0;shape-margin:0;inline-size:0;clip-rule:nonzero;display:inline;overflow:visible;visibility:visible;isolation:auto;mix-blend-mode:normal;color-interpolation:sRGB;color-interpolation-filters:linearRGB;solid-color:#000000;solid-opacity:1;vector-effect:none;fill:#000000;fill-opacity:1;fill-rule:nonzero;stroke-width:1;stroke-linecap:butt;stroke-linejoin:miter;stroke-miterlimit:4;stroke-dasharray:none;stroke-dashoffset:0;stroke-opacity:1;color-rendering:auto;image-rendering:auto;shape-rendering:auto;text-rendering:auto;enable-background:accumulate;stop-color:#000000;stop-opacity:1;stroke:none;opacity:1"
     d="m 476.9,114 c -5,-23.39 -17.51,-38.78 -40.61,-46.27 -23.1,-7.49 -64.92,-4.5 -94.12,16.79 -26.79,19.51 -46.26,54.42 -54,78.28 -1.01189,3.14588 2.01112,6.09229 5.13,5 10.77,-3.8 21.72,-7.1 34,-6.45 15,0.8 24.51,12 24.91,25.29 0.3,9.79 -0.2,18.69 -3.6,27.68 -10.74,28.68 -27.61,56.46 -47.55,80.75 -3.00489,3.61301 -6.35398,6.92526 -10,9.89 -10.21,8.29 -18.81,6.1 -25.41,-5.2 -5.4,-9.29 -9,-18.88 -12.2,-29.08 -12.4,-39.67 -16.81,-80.84 -23.81,-121.52 -3.3,-19.48 -7,-39.77 -18,-56.86 -11.6,-17.79 -28.61,-24.58 -50,-22 -14.7,1.8 -36.91,17.49 -47.81,26.39 0,0 -56,46.87 -81.82,71.35 l 21.2,27 c 0,0 17.91,-12.49 27.51,-18.29 5.7,-3.39 12.4,-4.09 17.2,0.2 4.51,3.9 9.61,9 12.31,14.1 5.7,10.69 11.2,21.88 14.7,33.37 13.2,44.27 25.51,88.64 37.81,133.22 6.3,22.78 13.9,44.17 28,63.55 19.31,26.59 39.61,32.68 70.92,21.49 25.41,-9.09 46.61,-26.18 66,-43.87 33.11,-30.18 59.12,-65.36 85.52,-101.14 C 433.59,270 450.49,242 464.59,210.72 478.5,179.74 484,147.26 476.9,114 Z"
     id="path4" />
</svg>
