<?xml version="1.0" encoding="UTF-8" standalone="no"?>
<svg
   xmlns:dc="http://purl.org/dc/elements/1.1/"
   xmlns:cc="http://creativecommons.org/ns#"
   xmlns:rdf="http://www.w3.org/1999/02/22-rdf-syntax-ns#"
   xmlns:svg="http://www.w3.org/2000/svg"
   xmlns="http://www.w3.org/2000/svg"
   xmlns:sodipodi="http://sodipodi.sourceforge.net/DTD/sodipodi-0.dtd"
   xmlns:inkscape="http://www.inkscape.org/namespaces/inkscape"
   class="ionicon"
   viewBox="0 0 512 512"
   version="1.1"
   id="svg12"
   sodipodi:docname="logo-no-smoking.svg"
   inkscape:version="1.0.2 (e86c8708, 2021-01-15)">
  <metadata
     id="metadata18">
    <rdf:RDF>
      <cc:Work
         rdf:about="">
        <dc:format>image/svg+xml</dc:format>
        <dc:type
           rdf:resource="http://purl.org/dc/dcmitype/StillImage" />
      </cc:Work>
    </rdf:RDF>
  </metadata>
  <defs
     id="defs16" />
  <sodipodi:namedview
     pagecolor="#ffffff"
     bordercolor="#666666"
     borderopacity="1"
     objecttolerance="10"
     gridtolerance="10"
     guidetolerance="10"
     inkscape:pageopacity="0"
     inkscape:pageshadow="2"
     inkscape:window-width="689"
     inkscape:window-height="480"
     id="namedview14"
     showgrid="false"
     inkscape:zoom="1.3027344"
     inkscape:cx="256"
     inkscape:cy="256"
     inkscape:window-x="44"
     inkscape:window-y="25"
     inkscape:window-maximized="0"
     inkscape:current-layer="svg12" />
  <title
     id="title2">Logo No Smoking</title>
  <path
     style="color:#000000;font-style:normal;font-variant:normal;font-weight:normal;font-stretch:normal;font-size:medium;line-height:normal;font-family:sans-serif;font-variant-ligatures:normal;font-variant-position:normal;font-variant-caps:normal;font-variant-numeric:normal;font-variant-alternates:normal;font-variant-east-asian:normal;font-feature-settings:normal;font-variation-settings:normal;text-indent:0;text-align:start;text-decoration:none;text-decoration-line:none;text-decoration-style:solid;text-decoration-color:#000000;letter-spacing:normal;word-spacing:normal;text-transform:none;writing-mode:lr-tb;direction:ltr;text-orientation:mixed;dominant-baseline:auto;baseline-shift:baseline;text-anchor:start;white-space:normal;shape-padding:0;shape-margin:0;inline-size:0;clip-rule:nonzero;display:inline;overflow:visible;visibility:visible;isolation:auto;mix-blend-mode:normal;color-interpolation:sRGB;color-interpolation-filters:linearRGB;solid-color:#000000;solid-opacity:1;vector-effect:none;fill:#000000;fill-opacity:1;fill-rule:nonzero;stroke-width:1;stroke-linecap:butt;stroke-linejoin:miter;stroke-miterlimit:4;stroke-dasharray:none;stroke-dashoffset:0;stroke-opacity:1;color-rendering:auto;image-rendering:auto;shape-rendering:auto;text-rendering:auto;enable-background:accumulate;stop-color:#000000;stop-opacity:1;stroke:none;opacity:1"
     d="m 360,256 h 16 v 48 h -16 z m -248,48 h 129.6 l -48,-48 H 112 Z"
     id="path4" />
  <path
     style="color:#000000;font-style:normal;font-variant:normal;font-weight:normal;font-stretch:normal;font-size:medium;line-height:normal;font-family:sans-serif;font-variant-ligatures:normal;font-variant-position:normal;font-variant-caps:normal;font-variant-numeric:normal;font-variant-alternates:normal;font-variant-east-asian:normal;font-feature-settings:normal;font-variation-settings:normal;text-indent:0;text-align:start;text-decoration:none;text-decoration-line:none;text-decoration-style:solid;text-decoration-color:#000000;letter-spacing:normal;word-spacing:normal;text-transform:none;writing-mode:lr-tb;direction:ltr;text-orientation:mixed;dominant-baseline:auto;baseline-shift:baseline;text-anchor:start;white-space:normal;shape-padding:0;shape-margin:0;inline-size:0;clip-rule:nonzero;display:inline;overflow:visible;visibility:visible;isolation:auto;mix-blend-mode:normal;color-interpolation:sRGB;color-interpolation-filters:linearRGB;solid-color:#000000;solid-opacity:1;vector-effect:none;fill:#000000;fill-opacity:1;fill-rule:nonzero;stroke-width:1;stroke-linecap:butt;stroke-linejoin:miter;stroke-miterlimit:4;stroke-dasharray:none;stroke-dashoffset:0;stroke-opacity:1;color-rendering:auto;image-rendering:auto;shape-rendering:auto;text-rendering:auto;enable-background:accumulate;stop-color:#000000;stop-opacity:1;stroke:none;opacity:1"
     d="m 364.5,60.1 c -0.34625,-0.177643 -0.68032,-0.378084 -1,-0.6 -11.02262,-5.907402 -22.53143,-10.858868 -34.4,-14.8 l -5.4,-1.8 C 301.8295,35.801179 278.9934,32.124466 256,32 132.3,32 32,132.3 32,256 c -0.02094,81.40115 44.17537,156.38934 115.4,195.8 0.4,0.2 0.7,0.5 1.1,0.7 11.02262,5.9074 22.53143,10.85887 34.4,14.8 l 5.4,1.8 c 21.86861,7.10665 44.70594,10.78356 67.7,10.9 C 379.7,480 480,379.7 480,256 480.02648,174.54484 435.78683,99.509793 364.5,60.1 Z M 256,426.4 c -9.11808,-0.0324 -18.21712,-0.83525 -27.2,-2.4 -9.69296,-1.60587 -19.2286,-4.04834 -28.5,-7.3 -1.9,-0.6 -3.8,-1.2 -5.6,-1.9 -6.51106,-2.45659 -12.85748,-5.32918 -19,-8.6 -55.47821,-29.62381 -90.117977,-87.40801 -90.1,-150.3 0,-37.2 12.4,-71.4 32.7,-99.4 L 355.5,393.7 C 327.4,414 293.2,426.4 256,426.4 Z m 137.8,-71 -237.2,-237.2 c 28,-20.2 62.1,-32.6 99.4,-32.6 9.11788,0.03684 18.21655,0.839669 27.2,2.4 9.69296,1.605874 19.2286,4.048336 28.5,7.3 1.8,0.6 3.7,1.2 5.6,1.9 6.15906,2.331622 12.17022,5.03664 18,8.1 56.07558,29.39795 91.20552,87.48563 91.2,150.8 -0.1,37.2 -12.5,71.3 -32.7,99.3 z"
     id="path6" />
  <path
     style="color:#000000;font-style:normal;font-variant:normal;font-weight:normal;font-stretch:normal;font-size:medium;line-height:normal;font-family:sans-serif;font-variant-ligatures:normal;font-variant-position:normal;font-variant-caps:normal;font-variant-numeric:normal;font-variant-alternates:normal;font-variant-east-asian:normal;font-feature-settings:normal;font-variation-settings:normal;text-indent:0;text-align:start;text-decoration:none;text-decoration-line:none;text-decoration-style:solid;text-decoration-color:#000000;letter-spacing:normal;word-spacing:normal;text-transform:none;writing-mode:lr-tb;direction:ltr;text-orientation:mixed;dominant-baseline:auto;baseline-shift:baseline;text-anchor:start;white-space:normal;shape-padding:0;shape-margin:0;inline-size:0;clip-rule:nonzero;display:inline;overflow:visible;visibility:visible;isolation:auto;mix-blend-mode:normal;color-interpolation:sRGB;color-interpolation-filters:linearRGB;solid-color:#000000;solid-opacity:1;vector-effect:none;fill:#000000;fill-opacity:1;fill-rule:nonzero;stroke-width:1;stroke-linecap:butt;stroke-linejoin:miter;stroke-miterlimit:4;stroke-dasharray:none;stroke-dashoffset:0;stroke-opacity:1;color-rendering:auto;image-rendering:auto;shape-rendering:auto;text-rendering:auto;enable-background:accumulate;stop-color:#000000;stop-opacity:1;stroke:none;opacity:1"
     d="m 352,256 h -34 l 34,34 z m 32,0 h 16 v 48 h -16 z m -23.9,-43.3 c -8.8,-4.1 -22,-5.7 -45.6,-5.7 h -3.6 c -12.7,0.1 -15.9,-0.1 -20,-6.1 -2.8,-4.2 -1,-14.8 3.7,-21.9 1.63259,-2.45132 1.78626,-5.60142 0.4,-8.2 -1.40458,-2.57432 -4.06878,-4.21091 -7,-4.3 -6.2813,-0.21845 -12.47541,-1.5385 -18.3,-3.9 -10.6,-4.5 -15.6,-12.1 -15.6,-23.1 0,-25.8 21.8,-27.7 22.8,-27.7 v -16 c -12,0 -38.8,11 -38.8,43.7 0,17.5 9,31 25.7,38 3.87796,1.57451 7.89574,2.77984 12,3.6 -3.3,9.8 -3.6,20.9 1.7,28.7 9,13.3 20.3,13.2 33.3,13.1 h 3.5 c 26.3,0 34.6,2.3 38.9,4.3 5.7,2.6 6.8,7.5 6.6,15.7 v 1 h 16 v -1 c 0,-7.1 0.3,-22.8 -15.7,-30.2 z"
     id="path8" />
  <path
     style="color:#000000;font-style:normal;font-variant:normal;font-weight:normal;font-stretch:normal;font-size:medium;line-height:normal;font-family:sans-serif;font-variant-ligatures:normal;font-variant-position:normal;font-variant-caps:normal;font-variant-numeric:normal;font-variant-alternates:normal;font-variant-east-asian:normal;font-feature-settings:normal;font-variation-settings:normal;text-indent:0;text-align:start;text-decoration:none;text-decoration-line:none;text-decoration-style:solid;text-decoration-color:#000000;letter-spacing:normal;word-spacing:normal;text-transform:none;writing-mode:lr-tb;direction:ltr;text-orientation:mixed;dominant-baseline:auto;baseline-shift:baseline;text-anchor:start;white-space:normal;shape-padding:0;shape-margin:0;inline-size:0;clip-rule:nonzero;display:inline;overflow:visible;visibility:visible;isolation:auto;mix-blend-mode:normal;color-interpolation:sRGB;color-interpolation-filters:linearRGB;solid-color:#000000;solid-opacity:1;vector-effect:none;fill:#000000;fill-opacity:1;fill-rule:nonzero;stroke-width:1;stroke-linecap:butt;stroke-linejoin:miter;stroke-miterlimit:4;stroke-dasharray:none;stroke-dashoffset:0;stroke-opacity:1;color-rendering:auto;image-rendering:auto;shape-rendering:auto;text-rendering:auto;enable-background:accumulate;stop-color:#000000;stop-opacity:1;stroke:none;opacity:1"
     d="m 400,244 c 0,-25.7 -3,-39.2 -9.1,-49.6 C 382.3,180 368.5,172 352,172 h -17.4 c 2.9,-8.3 5.4,-19.8 3.5,-30.9 -3.2,-18.8 -19.1,-30 -43.1,-30 v 16 c 21,0 26.1,9.1 27.4,16.7 2.5,14.5 -6.8,32.1 -6.9,32.3 -1.36001,2.46724 -1.32203,5.46797 0.1,7.9 1.45779,2.41918 4.07554,3.89878 6.9,3.9 H 352 c 10.9,0 19.4,4.9 25.1,14.6 3.1,5.3 6.9,13.5 6.9,41.4 h 16 z"
     id="path10" />
</svg>
