<?xml version="1.0" encoding="UTF-8" standalone="no"?>
<svg
   xmlns:dc="http://purl.org/dc/elements/1.1/"
   xmlns:cc="http://creativecommons.org/ns#"
   xmlns:rdf="http://www.w3.org/1999/02/22-rdf-syntax-ns#"
   xmlns:svg="http://www.w3.org/2000/svg"
   xmlns="http://www.w3.org/2000/svg"
   xmlns:sodipodi="http://sodipodi.sourceforge.net/DTD/sodipodi-0.dtd"
   xmlns:inkscape="http://www.inkscape.org/namespaces/inkscape"
   class="ionicon"
   viewBox="0 0 512 512"
   version="1.1"
   id="svg6"
   sodipodi:docname="logo-gitlab.svg"
   inkscape:version="1.0.2 (e86c8708, 2021-01-15)">
  <metadata
     id="metadata12">
    <rdf:RDF>
      <cc:Work
         rdf:about="">
        <dc:format>image/svg+xml</dc:format>
        <dc:type
           rdf:resource="http://purl.org/dc/dcmitype/StillImage" />
      </cc:Work>
    </rdf:RDF>
  </metadata>
  <defs
     id="defs10" />
  <sodipodi:namedview
     pagecolor="#ffffff"
     bordercolor="#666666"
     borderopacity="1"
     objecttolerance="10"
     gridtolerance="10"
     guidetolerance="10"
     inkscape:pageopacity="0"
     inkscape:pageshadow="2"
     inkscape:window-width="689"
     inkscape:window-height="480"
     id="namedview8"
     showgrid="false"
     inkscape:zoom="1.3027344"
     inkscape:cx="256"
     inkscape:cy="256"
     inkscape:window-x="44"
     inkscape:window-y="25"
     inkscape:window-maximized="0"
     inkscape:current-layer="svg6" />
  <title
     id="title2">Logo Gitlab</title>
  <path
     style="color:#000000;font-style:normal;font-variant:normal;font-weight:normal;font-stretch:normal;font-size:medium;line-height:normal;font-family:sans-serif;font-variant-ligatures:normal;font-variant-position:normal;font-variant-caps:normal;font-variant-numeric:normal;font-variant-alternates:normal;font-variant-east-asian:normal;font-feature-settings:normal;font-variation-settings:normal;text-indent:0;text-align:start;text-decoration:none;text-decoration-line:none;text-decoration-style:solid;text-decoration-color:#000000;letter-spacing:normal;word-spacing:normal;text-transform:none;writing-mode:lr-tb;direction:ltr;text-orientation:mixed;dominant-baseline:auto;baseline-shift:baseline;text-anchor:start;white-space:normal;shape-padding:0;shape-margin:0;inline-size:0;clip-rule:nonzero;display:inline;overflow:visible;visibility:visible;isolation:auto;mix-blend-mode:normal;color-interpolation:sRGB;color-interpolation-filters:linearRGB;solid-color:#000000;solid-opacity:1;vector-effect:none;fill:#000000;fill-opacity:1;fill-rule:nonzero;stroke-width:1;stroke-linecap:butt;stroke-linejoin:miter;stroke-miterlimit:4;stroke-dasharray:none;stroke-dashoffset:0;stroke-opacity:1;color-rendering:auto;image-rendering:auto;shape-rendering:auto;text-rendering:auto;enable-background:accumulate;stop-color:#000000;stop-opacity:1;stroke:none;opacity:1"
     d="m 494.07,281.6 -25.18,-78.08 c -0.13308,-0.71852 -0.33742,-1.422 -0.61,-2.1 L 417.78,44.48 c -2.71571,-8.277257 -10.45871,-13.85933 -19.17,-13.82 -8.69481,-0.02601 -16.386,5.631788 -18.95,13.94 l -48.14,149.55 h -152 L 131.34,44.59 C 128.78856,36.31162 121.14264,30.660288 112.48,30.65 h -0.11 c -8.73393,0.02972 -16.454344,5.682747 -19.12,14 L 42.7,201.73 c 0,0.14 -0.11,0.26 -0.16,0.4 l -25.63,79.48 c -3.871055,11.93924 0.334749,25.01591 10.44,32.46 l 221.44,162.41 c 3.99072,2.91967 9.42004,2.89126 13.38,-0.07 L 483.65,314.07 c 10.10751,-7.44702 14.30666,-20.53209 10.42,-32.47 M 163.07,217.09 224.8,408.85 76.63,217.09 m 209.64,191.8 59.19,-183.84 2.55,-8 h 86.52 L 300.47,390.44 M 398.8,59.31 442.17,194.14 H 355.35 M 324.16,217 281.16,350.58 255.5,430.14 186.94,217 M 112.27,59.31 155.73,194.14 H 69 M 40.68,295.58 c -2.14637,-1.58361 -3.036923,-4.36407 -2.21,-6.9 l 19,-59 139.61,180.59 m 273.26,-114.69 -156.42,114.64 0.52,-0.69 139.06,-179.89 19,59 c 0.83756,2.53759 -0.045,5.32632 -2.19,6.92"
     id="path4" />
</svg>
