<?xml version="1.0" encoding="UTF-8" standalone="no"?>
<svg
   xmlns:dc="http://purl.org/dc/elements/1.1/"
   xmlns:cc="http://creativecommons.org/ns#"
   xmlns:rdf="http://www.w3.org/1999/02/22-rdf-syntax-ns#"
   xmlns:svg="http://www.w3.org/2000/svg"
   xmlns="http://www.w3.org/2000/svg"
   xmlns:sodipodi="http://sodipodi.sourceforge.net/DTD/sodipodi-0.dtd"
   xmlns:inkscape="http://www.inkscape.org/namespaces/inkscape"
   class="ionicon"
   viewBox="0 0 512 512"
   version="1.1"
   id="svg6"
   sodipodi:docname="logo-slack.svg"
   inkscape:version="1.0.2 (e86c8708, 2021-01-15)">
  <metadata
     id="metadata12">
    <rdf:RDF>
      <cc:Work
         rdf:about="">
        <dc:format>image/svg+xml</dc:format>
        <dc:type
           rdf:resource="http://purl.org/dc/dcmitype/StillImage" />
      </cc:Work>
    </rdf:RDF>
  </metadata>
  <defs
     id="defs10" />
  <sodipodi:namedview
     pagecolor="#ffffff"
     bordercolor="#666666"
     borderopacity="1"
     objecttolerance="10"
     gridtolerance="10"
     guidetolerance="10"
     inkscape:pageopacity="0"
     inkscape:pageshadow="2"
     inkscape:window-width="689"
     inkscape:window-height="480"
     id="namedview8"
     showgrid="false"
     inkscape:zoom="1.3027344"
     inkscape:cx="256"
     inkscape:cy="256"
     inkscape:window-x="44"
     inkscape:window-y="25"
     inkscape:window-maximized="0"
     inkscape:current-layer="svg6" />
  <title
     id="title2">Logo Slack</title>
  <path
     style="color:#000000;font-style:normal;font-variant:normal;font-weight:normal;font-stretch:normal;font-size:medium;line-height:normal;font-family:sans-serif;font-variant-ligatures:normal;font-variant-position:normal;font-variant-caps:normal;font-variant-numeric:normal;font-variant-alternates:normal;font-variant-east-asian:normal;font-feature-settings:normal;font-variation-settings:normal;text-indent:0;text-align:start;text-decoration:none;text-decoration-line:none;text-decoration-style:solid;text-decoration-color:#000000;letter-spacing:normal;word-spacing:normal;text-transform:none;writing-mode:lr-tb;direction:ltr;text-orientation:mixed;dominant-baseline:auto;baseline-shift:baseline;text-anchor:start;white-space:normal;shape-padding:0;shape-margin:0;inline-size:0;clip-rule:nonzero;display:inline;overflow:visible;visibility:visible;isolation:auto;mix-blend-mode:normal;color-interpolation:sRGB;color-interpolation-filters:linearRGB;solid-color:#000000;solid-opacity:1;vector-effect:none;fill:#000000;fill-opacity:1;fill-rule:nonzero;stroke-width:1;stroke-linecap:butt;stroke-linejoin:miter;stroke-miterlimit:4;stroke-dasharray:none;stroke-dashoffset:0;stroke-opacity:1;color-rendering:auto;image-rendering:auto;shape-rendering:auto;text-rendering:auto;enable-background:accumulate;stop-color:#000000;stop-opacity:1;stroke:none;opacity:1"
     d="m 126.12,315.1 c -0.0162,19.03032 -11.49229,36.17794 -29.078347,43.44892 -17.586021,7.27095 -37.819826,3.23383 -51.270527,-10.2283 C 32.320426,334.85849 28.300498,314.62126 35.586395,297.04142 42.872307,279.46155 60.029669,268.00001 79.06,268 h 47.06 z m 23.72,0 c 0,-25.99054 21.06948,-47.05998 47.06,-47.05998 25.99052,0 47.06,21.06944 47.06,47.05998 v 117.84 c 0,25.99054 -21.06948,47.05998 -47.06,47.05998 -25.99052,0 -47.06,-21.06944 -47.06,-47.05998 z M 196.9,126.12 c -19.03032,-0.0162 -36.17794,-11.49229 -43.44892,-29.078347 -7.27095,-17.586021 -3.23383,-37.819826 10.2283,-51.270527 13.46213,-13.4507 33.69936,-17.470628 51.2792,-10.184731 C 232.53845,42.872307 243.99999,60.029669 244,79.06 v 47.06 z m 0,23.72 c 25.99054,0 47.05998,21.06948 47.05998,47.06 0,25.99052 -21.06944,47.06 -47.05998,47.06 H 79.06 c -25.990538,0 -47.05998,-21.06948 -47.05998,-47.06 0,-25.99052 21.069442,-47.06 47.05998,-47.06 z m 188.98,47.06 c 0.0162,-19.03032 11.49229,-36.17794 29.07835,-43.44892 17.58602,-7.27095 37.81982,-3.23383 51.27052,10.2283 13.4507,13.46213 17.47063,33.69936 10.18474,51.2792 C 469.12769,232.53845 451.97033,243.99999 432.94,244 h -47.06 z m -23.72,0 c 0,25.99054 -21.06948,47.05998 -47.06,47.05998 -25.99052,0 -47.06,-21.06944 -47.06,-47.05998 V 79.06 c 0,-25.990538 21.06948,-47.05998 47.06,-47.05998 25.99052,0 47.06,21.069442 47.06,47.05998 z M 315.1,385.88 c 19.03032,0.0162 36.17794,11.49229 43.44892,29.07835 7.27095,17.58602 3.23383,37.81982 -10.2283,51.27052 -13.46213,13.4507 -33.69936,17.47063 -51.2792,10.18474 C 279.46155,469.12769 268.00001,451.97033 268,432.94 v -47.06 z m 0,-23.72 c -25.99054,0 -47.05998,-21.06948 -47.05998,-47.06 0,-25.99052 21.06944,-47.06 47.05998,-47.06 h 117.84 c 25.99054,0 47.05998,21.06948 47.05998,47.06 0,25.99052 -21.06944,47.06 -47.05998,47.06 z"
     id="path4" />
</svg>
