<?xml version="1.0" encoding="UTF-8" standalone="no"?>
<svg
   xmlns:dc="http://purl.org/dc/elements/1.1/"
   xmlns:cc="http://creativecommons.org/ns#"
   xmlns:rdf="http://www.w3.org/1999/02/22-rdf-syntax-ns#"
   xmlns:svg="http://www.w3.org/2000/svg"
   xmlns="http://www.w3.org/2000/svg"
   xmlns:sodipodi="http://sodipodi.sourceforge.net/DTD/sodipodi-0.dtd"
   xmlns:inkscape="http://www.inkscape.org/namespaces/inkscape"
   class="ionicon"
   viewBox="0 0 512 512"
   version="1.1"
   id="svg6"
   sodipodi:docname="logo-skype.svg"
   inkscape:version="1.0.2 (e86c8708, 2021-01-15)">
  <metadata
     id="metadata12">
    <rdf:RDF>
      <cc:Work
         rdf:about="">
        <dc:format>image/svg+xml</dc:format>
        <dc:type
           rdf:resource="http://purl.org/dc/dcmitype/StillImage" />
      </cc:Work>
    </rdf:RDF>
  </metadata>
  <defs
     id="defs10" />
  <sodipodi:namedview
     pagecolor="#ffffff"
     bordercolor="#666666"
     borderopacity="1"
     objecttolerance="10"
     gridtolerance="10"
     guidetolerance="10"
     inkscape:pageopacity="0"
     inkscape:pageshadow="2"
     inkscape:window-width="689"
     inkscape:window-height="480"
     id="namedview8"
     showgrid="false"
     inkscape:zoom="1.3027344"
     inkscape:cx="256"
     inkscape:cy="256"
     inkscape:window-x="44"
     inkscape:window-y="25"
     inkscape:window-maximized="0"
     inkscape:current-layer="svg6" />
  <title
     id="title2">Logo Skype</title>
  <path
     style="color:#000000;font-style:normal;font-variant:normal;font-weight:normal;font-stretch:normal;font-size:medium;line-height:normal;font-family:sans-serif;font-variant-ligatures:normal;font-variant-position:normal;font-variant-caps:normal;font-variant-numeric:normal;font-variant-alternates:normal;font-variant-east-asian:normal;font-feature-settings:normal;font-variation-settings:normal;text-indent:0;text-align:start;text-decoration:none;text-decoration-line:none;text-decoration-style:solid;text-decoration-color:#000000;letter-spacing:normal;word-spacing:normal;text-transform:none;writing-mode:lr-tb;direction:ltr;text-orientation:mixed;dominant-baseline:auto;baseline-shift:baseline;text-anchor:start;white-space:normal;shape-padding:0;shape-margin:0;inline-size:0;clip-rule:nonzero;display:inline;overflow:visible;visibility:visible;isolation:auto;mix-blend-mode:normal;color-interpolation:sRGB;color-interpolation-filters:linearRGB;solid-color:#000000;solid-opacity:1;vector-effect:none;fill:#000000;fill-opacity:1;fill-rule:nonzero;stroke-width:1;stroke-linecap:butt;stroke-linejoin:miter;stroke-miterlimit:4;stroke-dasharray:none;stroke-dashoffset:0;stroke-opacity:1;color-rendering:auto;image-rendering:auto;shape-rendering:auto;text-rendering:auto;enable-background:accumulate;stop-color:#000000;stop-opacity:1;stroke:none;opacity:1"
     d="m 467.16,303.6 c 3.29489,-14.823 4.93824,-29.96527 4.9,-45.15 0,-116.32 -95.69,-210.7 -213.79,-210.7 -12.23524,-0.0089 -24.45023,0.994564 -36.52,3 C 202.01263,38.428305 179.19764,31.929049 155.93,32 87.55,32 32,86.72 32,154.15 c -0.07276,21.78026 5.805471,43.16665 17,61.85 -2.862913,13.9351 -4.310266,28.12385 -4.32,42.35 0,116.44 95.69,210.7 213.67,210.7 13.1097,0.0331 26.19471,-1.13846 39.09,-3.5 18.0753,9.5185 38.20165,14.47885 58.63,14.45 68.5,0 123.93,-54.72 123.93,-122.15 0.11446,-18.84932 -4.28841,-37.45178 -12.84,-54.25 z M 368,359 c -9.92,13.76 -24.51,24.73 -43.41,32.43 -18.9,7.7 -41.23,11.57 -66.9,11.57 -30.69,0 -56.36,-5.37 -76.55,-15.87 -13.9962,-7.36585 -26.06693,-17.91574 -35.24,-30.8 -9.11,-12.83 -13.66,-25.66 -13.66,-38 0,-7.7 3,-14.35 8.87,-19.95 5.84,-5.37 13.42,-8.17 22.29,-8.17 7.35,0 13.65,2.1 18.79,6.42 4.9,4.08 9.1,10.15 12.48,18.08 3.27614,7.59489 7.41321,14.78864 12.33,21.44 4.21333,5.48 10.16667,10.03 17.86,13.65 7.82,3.62 18.2,5.48 31,5.48 17.62,0 32.09,-3.73 42.94,-11.08 10.74,-7.12 15.88,-15.75 15.88,-26.25 0,-8.28 -2.69,-14.82 -8.29,-19.95 -5.83,-5.37 -13.42,-9.57 -22.87,-12.37 -9.69,-3 -22.87,-6.18 -39.21,-9.56 -22.17,-4.67 -41,-10.27 -56,-16.57 -15.28,-6.42 -27.65,-15.4 -36.76,-26.48 -9.22,-11.32 -13.77,-25.55 -13.77,-42.24 -0.15661,-15.42545 4.94713,-30.44393 14.47,-42.58 9.57,-12.25 23.46,-21.82 41.55,-28.35 17.74,-6.53 38.86,-9.8 62.66,-9.8 19.14,0 35.83,2.22 49.83,6.42 14,4.2 25.91,10.15 35.36,17.38 9.45,7.23 16.34,14.93 20.77,23 4.43,8.07 6.66,16.22 6.66,24 0,7.46 -2.92,14.35 -8.76,20.3 -5.72574,5.95811 -13.67812,9.2565 -21.94,9.1 -7.93,0 -14.12,-1.87 -18.43,-5.6 -4,-3.5 -8.17,-8.87 -12.72,-16.69 -5.37,-9.91 -11.79,-17.85 -19.14,-23.45 -7.24,-5.36 -19.14,-8.16 -35.71,-8.16 -15.29,0 -27.77,3 -37,9 -8.87,5.72 -13.19,12.37 -13.19,20.18 -0.11012,4.4748 1.42722,8.83418 4.32,12.25 3.51951,4.04936 7.85394,7.31041 12.72,9.57 5.47964,2.75443 11.22607,4.94243 17.15,6.53 6,1.64 15.87,4.09 29.53,7.12 17.38,3.62 33.25,7.82 47.26,12.13 14.24,4.55 26.49,10 36.52,16.45 9.9616,6.28922 18.25134,14.89807 24.16,25.09 5.72,10 8.64,22.63 8.64,37.1 0.63537,16.92704 -4.47113,33.57165 -14.49,47.23 z"
     id="path4" />
</svg>
