<?xml version="1.0" encoding="UTF-8" standalone="no"?>
<svg
   xmlns:dc="http://purl.org/dc/elements/1.1/"
   xmlns:cc="http://creativecommons.org/ns#"
   xmlns:rdf="http://www.w3.org/1999/02/22-rdf-syntax-ns#"
   xmlns:svg="http://www.w3.org/2000/svg"
   xmlns="http://www.w3.org/2000/svg"
   xmlns:sodipodi="http://sodipodi.sourceforge.net/DTD/sodipodi-0.dtd"
   xmlns:inkscape="http://www.inkscape.org/namespaces/inkscape"
   class="ionicon"
   viewBox="0 0 512 512"
   version="1.1"
   id="svg6"
   sodipodi:docname="logo-apple-appstore.svg"
   inkscape:version="1.0.2 (e86c8708, 2021-01-15)">
  <metadata
     id="metadata12">
    <rdf:RDF>
      <cc:Work
         rdf:about="">
        <dc:format>image/svg+xml</dc:format>
        <dc:type
           rdf:resource="http://purl.org/dc/dcmitype/StillImage" />
      </cc:Work>
    </rdf:RDF>
  </metadata>
  <defs
     id="defs10" />
  <sodipodi:namedview
     pagecolor="#ffffff"
     bordercolor="#666666"
     borderopacity="1"
     objecttolerance="10"
     gridtolerance="10"
     guidetolerance="10"
     inkscape:pageopacity="0"
     inkscape:pageshadow="2"
     inkscape:window-width="689"
     inkscape:window-height="480"
     id="namedview8"
     showgrid="false"
     inkscape:zoom="1.3027344"
     inkscape:cx="256"
     inkscape:cy="256"
     inkscape:window-x="44"
     inkscape:window-y="25"
     inkscape:window-maximized="0"
     inkscape:current-layer="svg6" />
  <title
     id="title2">Logo Apple Appstore</title>
  <path
     style="color:#000000;font-style:normal;font-variant:normal;font-weight:normal;font-stretch:normal;font-size:medium;line-height:normal;font-family:sans-serif;font-variant-ligatures:normal;font-variant-position:normal;font-variant-caps:normal;font-variant-numeric:normal;font-variant-alternates:normal;font-variant-east-asian:normal;font-feature-settings:normal;font-variation-settings:normal;text-indent:0;text-align:start;text-decoration:none;text-decoration-line:none;text-decoration-style:solid;text-decoration-color:#000000;letter-spacing:normal;word-spacing:normal;text-transform:none;writing-mode:lr-tb;direction:ltr;text-orientation:mixed;dominant-baseline:auto;baseline-shift:baseline;text-anchor:start;white-space:normal;shape-padding:0;shape-margin:0;inline-size:0;clip-rule:nonzero;display:inline;overflow:visible;visibility:visible;isolation:auto;mix-blend-mode:normal;color-interpolation:sRGB;color-interpolation-filters:linearRGB;solid-color:#000000;solid-opacity:1;vector-effect:none;fill:#000000;fill-opacity:1;fill-rule:nonzero;stroke-width:1;stroke-linecap:butt;stroke-linejoin:miter;stroke-miterlimit:4;stroke-dasharray:none;stroke-dashoffset:0;stroke-opacity:1;color-rendering:auto;image-rendering:auto;shape-rendering:auto;text-rendering:auto;enable-background:accumulate;stop-color:#000000;stop-opacity:1;stroke:none;opacity:1"
     d="M 256,32 C 132.26,32 32,132.26 32,256 32,379.74 132.26,480 256,480 379.74,480 480,379.74 480,256 480,132.26 379.74,32 256,32 Z m -85,321.89 c -2.79769,4.77163 -7.92881,7.6879 -13.46,7.65 -2.76977,0.0241 -5.4915,-0.72389 -7.86,-2.16 -7.41849,-4.29906 -9.92941,-13.80918 -5.6,-21.21 l 15.29,-25.42 c 1.57222,-2.66977 4.44169,-4.30621 7.54,-4.3 h 2.26 c 11.09,0 18.85,6.67 21.11,13.13 z m 129.45,-50 -100.13,0.11 h -66.55 c -8.83491,0.0374 -15.9044,-7.32382 -15.51,-16.15 0.32,-8.4 7.65,-14.76 16,-14.76 h 48.24 l 57.19,-97.35 -18.52,-31.55 C 217,137 218.85,127.52 226,123 c 7.43405,-4.80785 17.37567,-2.45768 21.87,5.17 l 9.9,16.91 h 0.11 l 9.91,-16.91 c 4.49714,-7.5846 14.38686,-9.92894 21.81,-5.17 7.11,4.52 8.94,14 4.74,21.22 l -18.52,31.55 -18,30.69 -39.09,66.66 v 0.11 h 57.61 c 7.22,0 16.27,3.88 19.93,10.12 l 0.32,0.65 c 3.23,5.49 5.06,9.26 5.06,14.75 -0.0528,1.78268 -0.45006,3.5383 -1.17,5.17 z M 378.2,304 h -27.11 v 0.11 l 19.82,33.71 c 4.43447,7.38598 2.13476,16.96296 -5.17,21.53 -2.43395,1.48389 -5.22938,2.26924 -8.08,2.27 -5.51287,-0.002 -10.6211,-2.89428 -13.46,-7.62 l -29.29,-49.86 -18.2,-31 L 273.23,233 c -6.91923,-11.66106 -7.16637,-26.10912 -0.65,-38 4.64,-8.19 8.19,-10.34 8.19,-10.34 L 333,273 h 44.91 c 8.4,0 15.61,6.46 16,14.75 0.34105,8.8884 -6.78509,16.27359 -15.68,16.25 z"
     id="path4" />
</svg>
