<?xml version="1.0" encoding="UTF-8" standalone="no"?>
<svg
   xmlns:dc="http://purl.org/dc/elements/1.1/"
   xmlns:cc="http://creativecommons.org/ns#"
   xmlns:rdf="http://www.w3.org/1999/02/22-rdf-syntax-ns#"
   xmlns:svg="http://www.w3.org/2000/svg"
   xmlns="http://www.w3.org/2000/svg"
   xmlns:sodipodi="http://sodipodi.sourceforge.net/DTD/sodipodi-0.dtd"
   xmlns:inkscape="http://www.inkscape.org/namespaces/inkscape"
   class="ionicon"
   viewBox="0 0 512 512"
   version="1.1"
   id="svg6"
   sodipodi:docname="logo-xbox.svg"
   inkscape:version="1.0.2 (e86c8708, 2021-01-15)">
  <metadata
     id="metadata12">
    <rdf:RDF>
      <cc:Work
         rdf:about="">
        <dc:format>image/svg+xml</dc:format>
        <dc:type
           rdf:resource="http://purl.org/dc/dcmitype/StillImage" />
      </cc:Work>
    </rdf:RDF>
  </metadata>
  <defs
     id="defs10" />
  <sodipodi:namedview
     pagecolor="#ffffff"
     bordercolor="#666666"
     borderopacity="1"
     objecttolerance="10"
     gridtolerance="10"
     guidetolerance="10"
     inkscape:pageopacity="0"
     inkscape:pageshadow="2"
     inkscape:window-width="689"
     inkscape:window-height="480"
     id="namedview8"
     showgrid="false"
     inkscape:zoom="1.3027344"
     inkscape:cx="256"
     inkscape:cy="256"
     inkscape:window-x="44"
     inkscape:window-y="25"
     inkscape:window-maximized="0"
     inkscape:current-layer="svg6" />
  <title
     id="title2">Logo Xbox</title>
  <path
     style="color:#000000;font-style:normal;font-variant:normal;font-weight:normal;font-stretch:normal;font-size:medium;line-height:normal;font-family:sans-serif;font-variant-ligatures:normal;font-variant-position:normal;font-variant-caps:normal;font-variant-numeric:normal;font-variant-alternates:normal;font-variant-east-asian:normal;font-feature-settings:normal;font-variation-settings:normal;text-indent:0;text-align:start;text-decoration:none;text-decoration-line:none;text-decoration-style:solid;text-decoration-color:#000000;letter-spacing:normal;word-spacing:normal;text-transform:none;writing-mode:lr-tb;direction:ltr;text-orientation:mixed;dominant-baseline:auto;baseline-shift:baseline;text-anchor:start;white-space:normal;shape-padding:0;shape-margin:0;inline-size:0;clip-rule:nonzero;display:inline;overflow:visible;visibility:visible;isolation:auto;mix-blend-mode:normal;color-interpolation:sRGB;color-interpolation-filters:linearRGB;solid-color:#000000;solid-opacity:1;vector-effect:none;fill:#000000;fill-opacity:1;fill-rule:nonzero;stroke-width:1;stroke-linecap:butt;stroke-linejoin:miter;stroke-miterlimit:4;stroke-dasharray:none;stroke-dashoffset:0;stroke-opacity:1;color-rendering:auto;image-rendering:auto;shape-rendering:auto;text-rendering:auto;enable-background:accumulate;stop-color:#000000;stop-opacity:1;stroke:none;opacity:1"
     d="m 126.8,248.3 c 39.7,-58.6 77.9,-92.8 77.9,-92.8 0,0 -42.1,-48.9 -92.8,-67.4 l -3.3,-0.8 C 20.138255,164.64928 6.4348766,297.18801 77.2,391 c 0,-4.4 0.6,-70.3 49.6,-142.7 z M 480,256 c 0.047,-64.66094 -27.88611,-126.17946 -76.6,-168.7 l -3.2,0.9 c -50.7,18.5 -92.9,67.4 -92.9,67.4 0,0 38.2,34.2 77.9,92.8 49,72.4 49.6,138.3 49.5,142.7 C 464.18175,352.23964 480.09598,304.77799 480,256 Z M 201.2,80.9 c 29.3,13.1 54.6,34.6 54.6,34.6 0,0 25.5,-21.4 54.8,-34.6 36.8,-16.5 64.9,-11.3 72.3,-9.5 -76.44466,-52.533485 -177.35534,-52.533485 -253.8,0 7.2,-1.8 35.2,-7.1 72.1,9.5 z m 157.5,212 C 312.4,236 255.8,199 255.8,199 c 0,0 -56.3,37 -102.7,93.9 -39.8,48.9 -54.6,84.8 -62.6,107.8 l -1.3,4.8 c 42.48971,47.40286 103.14149,74.48826 166.8,74.48826 63.65851,0 124.31029,-27.0854 166.8,-74.48826 l -1.4,-4.8 c -8,-23 -22.9,-58.9 -62.7,-107.8 z"
     id="path4" />
</svg>
