<?xml version="1.0" encoding="UTF-8" standalone="no"?>
<svg
   xmlns:dc="http://purl.org/dc/elements/1.1/"
   xmlns:cc="http://creativecommons.org/ns#"
   xmlns:rdf="http://www.w3.org/1999/02/22-rdf-syntax-ns#"
   xmlns:svg="http://www.w3.org/2000/svg"
   xmlns="http://www.w3.org/2000/svg"
   xmlns:sodipodi="http://sodipodi.sourceforge.net/DTD/sodipodi-0.dtd"
   xmlns:inkscape="http://www.inkscape.org/namespaces/inkscape"
   class="ionicon"
   viewBox="0 0 512 512"
   version="1.1"
   id="svg8"
   sodipodi:docname="logo-docker.svg"
   inkscape:version="1.0.2 (e86c8708, 2021-01-15)">
  <metadata
     id="metadata14">
    <rdf:RDF>
      <cc:Work
         rdf:about="">
        <dc:format>image/svg+xml</dc:format>
        <dc:type
           rdf:resource="http://purl.org/dc/dcmitype/StillImage" />
      </cc:Work>
    </rdf:RDF>
  </metadata>
  <defs
     id="defs12" />
  <sodipodi:namedview
     pagecolor="#ffffff"
     bordercolor="#666666"
     borderopacity="1"
     objecttolerance="10"
     gridtolerance="10"
     guidetolerance="10"
     inkscape:pageopacity="0"
     inkscape:pageshadow="2"
     inkscape:window-width="689"
     inkscape:window-height="480"
     id="namedview10"
     showgrid="false"
     inkscape:zoom="1.3027344"
     inkscape:cx="256"
     inkscape:cy="256"
     inkscape:window-x="44"
     inkscape:window-y="25"
     inkscape:window-maximized="0"
     inkscape:current-layer="svg8" />
  <title
     id="title2">Logo Docker</title>
  <path
     style="color:#000000;font-style:normal;font-variant:normal;font-weight:normal;font-stretch:normal;font-size:medium;line-height:normal;font-family:sans-serif;font-variant-ligatures:normal;font-variant-position:normal;font-variant-caps:normal;font-variant-numeric:normal;font-variant-alternates:normal;font-variant-east-asian:normal;font-feature-settings:normal;font-variation-settings:normal;text-indent:0;text-align:start;text-decoration:none;text-decoration-line:none;text-decoration-style:solid;text-decoration-color:#000000;letter-spacing:normal;word-spacing:normal;text-transform:none;writing-mode:lr-tb;direction:ltr;text-orientation:mixed;dominant-baseline:auto;baseline-shift:baseline;text-anchor:start;white-space:normal;shape-padding:0;shape-margin:0;inline-size:0;clip-rule:nonzero;display:inline;overflow:visible;visibility:visible;isolation:auto;mix-blend-mode:normal;color-interpolation:sRGB;color-interpolation-filters:linearRGB;solid-color:#000000;solid-opacity:1;vector-effect:none;fill:#000000;fill-opacity:1;fill-rule:nonzero;stroke-width:1;stroke-linecap:butt;stroke-linejoin:miter;stroke-miterlimit:4;stroke-dasharray:none;stroke-dashoffset:0;stroke-opacity:1;color-rendering:auto;image-rendering:auto;shape-rendering:auto;text-rendering:auto;enable-background:accumulate;stop-color:#000000;stop-opacity:1;stroke:none;opacity:1"
     d="m 507,211.16 c -1.42,-1.19 -14.25,-10.94 -41.79,-10.94 -7.24315,0.0418 -14.47068,0.67729 -21.61,1.9 -5.22,-36.4 -35.38,-54 -36.57,-55 l -7.36,-4.28 -4.75,6.9 c -5.98935,9.36744 -10.40128,19.65405 -13.06,30.45 -5,20.7 -1.9,40.2 8.55,56.85 -12.59,7.14 -33,8.8 -37.28,9 H 15.94 C 7.098993,246.03428 -0.05550097,253.22917 0,262.07 -0.45295994,291.67321 4.5470111,321.10694 14.75,348.9 26.39,379.35 43.72,402 66,415.74 91.22,431.2 132.3,440 178.6,440 c 20.94704,7.3e-4 41.85042,-1.91053 62.45,-5.71 28.71842,-5.20763 56.34216,-15.26093 81.69,-29.73 20.86707,-12.12399 39.63327,-27.54692 55.57,-45.67 26.83,-30.21 42.74,-64 54.38,-94 h 4.75 c 29.21,0 47.26,-11.66 57.23,-21.65 6.61764,-6.27187 11.80252,-13.89911 15.2,-22.36 l 2.14,-6.18 z"
     id="path4" />
  <path
     style="color:#000000;font-style:normal;font-variant:normal;font-weight:normal;font-stretch:normal;font-size:medium;line-height:normal;font-family:sans-serif;font-variant-ligatures:normal;font-variant-position:normal;font-variant-caps:normal;font-variant-numeric:normal;font-variant-alternates:normal;font-variant-east-asian:normal;font-feature-settings:normal;font-variation-settings:normal;text-indent:0;text-align:start;text-decoration:none;text-decoration-line:none;text-decoration-style:solid;text-decoration-color:#000000;letter-spacing:normal;word-spacing:normal;text-transform:none;writing-mode:lr-tb;direction:ltr;text-orientation:mixed;dominant-baseline:auto;baseline-shift:baseline;text-anchor:start;white-space:normal;shape-padding:0;shape-margin:0;inline-size:0;clip-rule:nonzero;display:inline;overflow:visible;visibility:visible;isolation:auto;mix-blend-mode:normal;color-interpolation:sRGB;color-interpolation-filters:linearRGB;solid-color:#000000;solid-opacity:1;vector-effect:none;fill:#000000;fill-opacity:1;fill-rule:nonzero;stroke-width:1;stroke-linecap:butt;stroke-linejoin:miter;stroke-miterlimit:4;stroke-dasharray:none;stroke-dashoffset:0;stroke-opacity:1;color-rendering:auto;image-rendering:auto;shape-rendering:auto;text-rendering:auto;enable-background:accumulate;stop-color:#000000;stop-opacity:1;stroke:none;opacity:1"
     d="M 47.29,236.37 H 92.4 c 2.209139,0 4,-1.79086 4,-4 v -40.48 c 0,-2.20914 -1.790861,-4 -4,-4 H 47.29 c -2.209139,0 -4,1.79086 -4,4 v 40.44 c 0.08213,2.17421 1.82579,3.91787 4,4 m 62.21,0.04 h 45.12 c 2.20914,0 4,-1.79086 4,-4 v -40.48 c 0,-2.20914 -1.79086,-4 -4,-4 H 109.5 c -2.20914,0 -4,1.79086 -4,4 v 40.44 c 0.0821,2.17421 1.82579,3.91787 4,4 m 63.4,0.04 H 218 c 2.20914,0 4,-1.79086 4,-4 v -40.48 c 0,-2.20914 -1.79086,-4 -4,-4 h -45.1 c -2.20914,0 -4,1.79086 -4,4 v 40.44 c -0.0766,2.2401 1.7599,4.0766 4,4 m 62.46,0.04 h 45.12 c 2.20914,0 4,-1.79086 4,-4 v -40.48 c 0,-2.20914 -1.79086,-4 -4,-4 h -45.12 c -2.20914,0 -4,1.79086 -4,4 v 40.44 c 0,2.20914 1.79086,4 4,4 M 109.5,178.57 h 45.12 c 2.17421,-0.0821 3.91787,-1.82579 4,-4 v -40.48 c 0,-2.20914 -1.79086,-4 -4,-4 H 109.5 c -2.20914,0 -4,1.79086 -4,4 v 40.44 c 0.16189,2.1385 1.8615,3.83811 4,4 m 63.4,0.04 H 218 c 2.17421,-0.0821 3.91787,-1.82579 4,-4 v -40.48 c 0,-2.20914 -1.79086,-4 -4,-4 h -45.1 c -2.20914,0 -4,1.79086 -4,4 v 40.44 c 0,2.20914 1.79086,4 4,4 m 62.46,0.04 h 45.12 c 2.17421,-0.0821 3.91787,-1.82579 4,-4 v -40.48 c -0.0821,-2.17421 -1.82579,-3.91787 -4,-4 h -45.12 c -2.20914,0 -4,1.79086 -4,4 v 40.44 c 0.0821,2.17421 1.82579,3.91787 4,4 m 0,-58 h 45.12 c 2.20914,0 4,-1.79086 4,-4 V 76 c -0.0821,-2.17421 -1.82579,-3.917868 -4,-4 h -45.12 c -2.20914,0 -4,1.790861 -4,4 v 40.44 c 0.0869,2.17213 1.82787,3.91311 4,4 m 62.92,115.93 h 45.12 c 2.20914,0 4,-1.79086 4,-4 v -40.48 c 0,-2.20914 -1.79086,-4 -4,-4 h -45.12 c -2.20914,0 -4,1.79086 -4,4 v 40.44 c 0.0821,2.17421 1.82579,3.91787 4,4"
     id="path6" />
</svg>
