<?xml version="1.0" encoding="UTF-8" standalone="no"?>
<svg
   xmlns:dc="http://purl.org/dc/elements/1.1/"
   xmlns:cc="http://creativecommons.org/ns#"
   xmlns:rdf="http://www.w3.org/1999/02/22-rdf-syntax-ns#"
   xmlns:svg="http://www.w3.org/2000/svg"
   xmlns="http://www.w3.org/2000/svg"
   xmlns:sodipodi="http://sodipodi.sourceforge.net/DTD/sodipodi-0.dtd"
   xmlns:inkscape="http://www.inkscape.org/namespaces/inkscape"
   class="ionicon"
   viewBox="0 0 512 512"
   version="1.1"
   id="svg6"
   sodipodi:docname="logo-steam.svg"
   inkscape:version="1.0.2 (e86c8708, 2021-01-15)">
  <metadata
     id="metadata12">
    <rdf:RDF>
      <cc:Work
         rdf:about="">
        <dc:format>image/svg+xml</dc:format>
        <dc:type
           rdf:resource="http://purl.org/dc/dcmitype/StillImage" />
      </cc:Work>
    </rdf:RDF>
  </metadata>
  <defs
     id="defs10" />
  <sodipodi:namedview
     pagecolor="#ffffff"
     bordercolor="#666666"
     borderopacity="1"
     objecttolerance="10"
     gridtolerance="10"
     guidetolerance="10"
     inkscape:pageopacity="0"
     inkscape:pageshadow="2"
     inkscape:window-width="689"
     inkscape:window-height="480"
     id="namedview8"
     showgrid="false"
     inkscape:zoom="1.3027344"
     inkscape:cx="256"
     inkscape:cy="256"
     inkscape:window-x="44"
     inkscape:window-y="25"
     inkscape:window-maximized="0"
     inkscape:current-layer="svg6" />
  <title
     id="title2">Logo Steam</title>
  <path
     style="color:#000000;font-style:normal;font-variant:normal;font-weight:normal;font-stretch:normal;font-size:medium;line-height:normal;font-family:sans-serif;font-variant-ligatures:normal;font-variant-position:normal;font-variant-caps:normal;font-variant-numeric:normal;font-variant-alternates:normal;font-variant-east-asian:normal;font-feature-settings:normal;font-variation-settings:normal;text-indent:0;text-align:start;text-decoration:none;text-decoration-line:none;text-decoration-style:solid;text-decoration-color:#000000;letter-spacing:normal;word-spacing:normal;text-transform:none;writing-mode:lr-tb;direction:ltr;text-orientation:mixed;dominant-baseline:auto;baseline-shift:baseline;text-anchor:start;white-space:normal;shape-padding:0;shape-margin:0;inline-size:0;clip-rule:nonzero;display:inline;overflow:visible;visibility:visible;isolation:auto;mix-blend-mode:normal;color-interpolation:sRGB;color-interpolation-filters:linearRGB;solid-color:#000000;solid-opacity:1;vector-effect:none;fill:#000000;fill-opacity:1;fill-rule:nonzero;stroke-width:1;stroke-linecap:butt;stroke-linejoin:miter;stroke-miterlimit:4;stroke-dasharray:none;stroke-dashoffset:0;stroke-opacity:1;color-rendering:auto;image-rendering:auto;shape-rendering:auto;text-rendering:auto;enable-background:accumulate;stop-color:#000000;stop-opacity:1;stroke:none;opacity:1"
     d="m 478.8,208.2 c 0,14.56063 -8.77117,27.68762 -22.22319,33.25941 -13.45199,5.57179 -28.93549,2.49101 -39.23136,-7.80486 C 407.04958,223.35868 403.9688,207.87518 409.54059,194.42319 415.11238,180.97117 428.23937,172.2 442.8,172.2 c 19.88225,0 36,16.11775 36,36 z M 442.6,139 c -38.05239,0.009 -69.00533,30.64966 -69.4,68.7 l -43.2,62 c -1.79308,-0.19962 -3.59584,-0.29977 -5.4,-0.3 -9.29918,-0.006 -18.42487,2.51752 -26.4,7.3 L 102.4,198 C 98.127805,178.5262 83.058519,163.23245 63.650235,158.67307 44.241973,154.1137 23.939816,161.09803 11.443235,176.63232 -1.0533451,192.1666 -3.5263146,213.49365 5.0849289,231.47461 13.696182,249.45559 31.863088,260.89874 51.8,260.9 c 9.299182,0.006 18.424868,-2.51752 26.4,-7.3 L 274,332.2 c 5.39504,24.91311 28.12535,42.18943 53.57347,40.71888 C 353.02159,371.44832 373.61058,351.66872 376.1,326.3 l 66.5,-48.6 c 38.30097,0 69.34997,-31.04905 69.34997,-69.35 0,-38.30095 -31.049,-69.35 -69.34997,-69.35 z m 0,22.9 c 18.77814,0.0202 35.69709,11.34487 42.87342,28.69717 7.17633,17.35227 3.1981,37.31816 -10.08,50.59625 -13.27809,13.2781 -33.24398,17.25633 -50.59625,10.08 C 407.44487,244.09709 396.12022,227.17814 396.1,208.4 c 0.0221,-25.6721 20.8279,-46.47794 46.5,-46.5 z m -390.8,9 c 14.101766,-0.007 27.059096,7.75981 33.7,20.2 l -18.9,-7.6 v 0.1 C 51.29117,177.99027 34.292933,185.54021 28.19116,200.65965 22.089387,215.77908 29.085748,233.01256 44,239.6 v 0.1 l 16.1,6.4 c -2.690964,0.60638 -5.441574,0.90827 -8.2,0.9 C 30.885551,247.02761 13.827631,230.01443 13.800017,209 13.772403,187.98557 30.785551,170.92761 51.8,170.9 Z m 272.8,112.2 c 29.64514,0.0106 47.92035,32.38298 32.61509,57.77063 C 341.90983,366.25829 304.74996,365.21093 290.9,339 c 6.3,2.5 12.5,5 18.8,7.6 15.56869,6.42291 33.3861,-1.09656 39.64569,-16.73162 C 355.60527,314.23332 347.89973,296.49558 332.2,290.4 L 316.3,284 c 2.73435,-0.54651 5.51206,-0.8477 8.3,-0.9 z"
     id="path4" />
</svg>
