<?xml version="1.0" encoding="UTF-8" standalone="no"?>
<svg
   xmlns:dc="http://purl.org/dc/elements/1.1/"
   xmlns:cc="http://creativecommons.org/ns#"
   xmlns:rdf="http://www.w3.org/1999/02/22-rdf-syntax-ns#"
   xmlns:svg="http://www.w3.org/2000/svg"
   xmlns="http://www.w3.org/2000/svg"
   xmlns:sodipodi="http://sodipodi.sourceforge.net/DTD/sodipodi-0.dtd"
   xmlns:inkscape="http://www.inkscape.org/namespaces/inkscape"
   class="ionicon"
   viewBox="0 0 512 512"
   version="1.1"
   id="svg6"
   sodipodi:docname="logo-whatsapp.svg"
   inkscape:version="1.0.2 (e86c8708, 2021-01-15)">
  <metadata
     id="metadata12">
    <rdf:RDF>
      <cc:Work
         rdf:about="">
        <dc:format>image/svg+xml</dc:format>
        <dc:type
           rdf:resource="http://purl.org/dc/dcmitype/StillImage" />
      </cc:Work>
    </rdf:RDF>
  </metadata>
  <defs
     id="defs10" />
  <sodipodi:namedview
     pagecolor="#ffffff"
     bordercolor="#666666"
     borderopacity="1"
     objecttolerance="10"
     gridtolerance="10"
     guidetolerance="10"
     inkscape:pageopacity="0"
     inkscape:pageshadow="2"
     inkscape:window-width="689"
     inkscape:window-height="480"
     id="namedview8"
     showgrid="false"
     inkscape:zoom="1.3027344"
     inkscape:cx="256"
     inkscape:cy="256"
     inkscape:window-x="44"
     inkscape:window-y="25"
     inkscape:window-maximized="0"
     inkscape:current-layer="svg6" />
  <title
     id="title2">Logo Whatsapp</title>
  <path
     style="color:#000000;font-style:normal;font-variant:normal;font-weight:normal;font-stretch:normal;font-size:medium;line-height:normal;font-family:sans-serif;font-variant-ligatures:normal;font-variant-position:normal;font-variant-caps:normal;font-variant-numeric:normal;font-variant-alternates:normal;font-variant-east-asian:normal;font-feature-settings:normal;font-variation-settings:normal;text-indent:0;text-align:start;text-decoration:none;text-decoration-line:none;text-decoration-style:solid;text-decoration-color:#000000;letter-spacing:normal;word-spacing:normal;text-transform:none;writing-mode:lr-tb;direction:ltr;text-orientation:mixed;dominant-baseline:auto;baseline-shift:baseline;text-anchor:start;white-space:normal;shape-padding:0;shape-margin:0;inline-size:0;clip-rule:nonzero;display:inline;overflow:visible;visibility:visible;isolation:auto;mix-blend-mode:normal;color-interpolation:sRGB;color-interpolation-filters:linearRGB;solid-color:#000000;solid-opacity:1;vector-effect:none;fill:#000000;fill-opacity:1;fill-rule:evenodd;stroke-width:1;stroke-linecap:butt;stroke-linejoin:miter;stroke-miterlimit:4;stroke-dasharray:none;stroke-dashoffset:0;stroke-opacity:1;color-rendering:auto;image-rendering:auto;shape-rendering:auto;text-rendering:auto;enable-background:accumulate;stop-color:#000000;stop-opacity:1;stroke:none;opacity:1"
     d="M 414.73,97.1 C 372.90208,55.251985 316.10755,31.820056 256.94,32 134,32 33.92,131.58 33.87,254 c -0.05439,38.98122 10.220953,77.28084 29.78,111 L 32,480 150.25,449.13 c 32.73217,17.73234 69.37325,27.01291 106.6,27 h 0.09 c 122.93,0 223,-99.59 223.06,-222 C 480.15043,195.15797 456.63793,138.59035 414.73,97.1 Z M 256.94,438.66 h -0.08 c -33.18617,0.01 -65.76898,-8.8714 -94.36,-25.72 l -6.77,-4 -70.17,18.32 18.73,-68.09 -4.41,-7 C 81.323858,322.79177 71.492479,288.7478 71.53,254 71.53,152.27 154.74,69.5 257.01,69.5 359.17105,69.317573 442.14136,151.97898 442.34,254.14 442.3,355.88 359.13,438.66 256.94,438.66 Z M 358.63,300.47 c -5.57,-2.78 -33,-16.2 -38.08,-18.05 -5.08,-1.85 -8.83,-2.78 -12.54,2.78 -3.71,5.56 -14.4,18 -17.65,21.75 -3.25,3.75 -6.5,4.16 -12.07,1.38 -5.57,-2.78 -23.54,-8.63 -44.83,-27.53 -16.57,-14.71 -27.75,-32.87 -31,-38.42 -3.25,-5.55 -0.35,-8.56 2.44,-11.32 2.51,-2.49 5.57,-6.48 8.36,-9.72 2.79,-3.24 3.72,-5.56 5.57,-9.26 1.85,-3.7 0.93,-6.94 -0.46,-9.71 -1.39,-2.77 -12.54,-30.08 -17.18,-41.19 -4.53,-10.82 -9.12,-9.35 -12.54,-9.52 -3.25,-0.16 -7,-0.2 -10.69,-0.2 -5.70238,0.14843 -11.08592,2.66268 -14.86,6.94 -5.11,5.56 -19.51,19 -19.51,46.28 0,27.28 20,53.68 22.76,57.38 2.76,3.7 39.3,59.73 95.21,83.76 10.38192,4.44607 20.98982,8.34476 31.78,11.68 13.35,4.22 25.5,3.63 35.1,2.2 10.71,-1.59 33,-13.42 37.63,-26.38 4.63,-12.96 4.64,-24.06 3.25,-26.37 -1.39,-2.31 -5.11,-3.71 -10.69,-6.48 z"
     id="path4" />
</svg>
