<?xml version="1.0" encoding="UTF-8" standalone="no"?>
<svg
   xmlns:dc="http://purl.org/dc/elements/1.1/"
   xmlns:cc="http://creativecommons.org/ns#"
   xmlns:rdf="http://www.w3.org/1999/02/22-rdf-syntax-ns#"
   xmlns:svg="http://www.w3.org/2000/svg"
   xmlns="http://www.w3.org/2000/svg"
   xmlns:sodipodi="http://sodipodi.sourceforge.net/DTD/sodipodi-0.dtd"
   xmlns:inkscape="http://www.inkscape.org/namespaces/inkscape"
   class="ionicon"
   viewBox="0 0 512 512"
   version="1.1"
   id="svg6"
   sodipodi:docname="logo-firefox.svg"
   inkscape:version="1.0.2 (e86c8708, 2021-01-15)">
  <metadata
     id="metadata12">
    <rdf:RDF>
      <cc:Work
         rdf:about="">
        <dc:format>image/svg+xml</dc:format>
        <dc:type
           rdf:resource="http://purl.org/dc/dcmitype/StillImage" />
      </cc:Work>
    </rdf:RDF>
  </metadata>
  <defs
     id="defs10" />
  <sodipodi:namedview
     pagecolor="#ffffff"
     bordercolor="#666666"
     borderopacity="1"
     objecttolerance="10"
     gridtolerance="10"
     guidetolerance="10"
     inkscape:pageopacity="0"
     inkscape:pageshadow="2"
     inkscape:window-width="689"
     inkscape:window-height="480"
     id="namedview8"
     showgrid="false"
     inkscape:zoom="1.3027344"
     inkscape:cx="256"
     inkscape:cy="256"
     inkscape:window-x="44"
     inkscape:window-y="25"
     inkscape:window-maximized="0"
     inkscape:current-layer="svg6" />
  <title
     id="title2">Logo Firefox</title>
  <path
     style="color:#000000;font-style:normal;font-variant:normal;font-weight:normal;font-stretch:normal;font-size:medium;line-height:normal;font-family:sans-serif;font-variant-ligatures:normal;font-variant-position:normal;font-variant-caps:normal;font-variant-numeric:normal;font-variant-alternates:normal;font-variant-east-asian:normal;font-feature-settings:normal;font-variation-settings:normal;text-indent:0;text-align:start;text-decoration:none;text-decoration-line:none;text-decoration-style:solid;text-decoration-color:#000000;letter-spacing:normal;word-spacing:normal;text-transform:none;writing-mode:lr-tb;direction:ltr;text-orientation:mixed;dominant-baseline:auto;baseline-shift:baseline;text-anchor:start;white-space:normal;shape-padding:0;shape-margin:0;inline-size:0;clip-rule:nonzero;display:inline;overflow:visible;visibility:visible;isolation:auto;mix-blend-mode:normal;color-interpolation:sRGB;color-interpolation-filters:linearRGB;solid-color:#000000;solid-opacity:1;vector-effect:none;fill:#000000;fill-opacity:1;fill-rule:nonzero;stroke-width:1;stroke-linecap:butt;stroke-linejoin:miter;stroke-miterlimit:4;stroke-dasharray:none;stroke-dashoffset:0;stroke-opacity:1;color-rendering:auto;image-rendering:auto;shape-rendering:auto;text-rendering:auto;enable-background:accumulate;stop-color:#000000;stop-opacity:1;stroke:none;opacity:1"
     d="m 471.46,194.62 v -0.07 c -0.22,-0.76 -0.45,-1.52 -0.68,-2.28 -0.05,-0.19 -0.11,-0.38 -0.17,-0.56 -0.43,-1.44 -0.87,-2.88 -1.33,-4.31 l -0.06,-0.2 c -2.80593,-8.71704 -6.14557,-17.25317 -10,-25.56 -3.73398,-8.22731 -8.04472,-16.18046 -12.9,-23.8 C 427.56605,107.71342 401.95645,82.446467 371.58,64.1 336.71036,43.039602 296.73608,31.937556 256,32 249,32 242,32.34 235.18,33 211.06,35.54 170.4,44.21 137.41,73.18 257.5,11.86 417.94,85.7 404.29,223 c -4.86,49 -46.46,82.67 -85.19,88.35 -6.88857,1.0526 -13.89158,1.1233 -20.8,0.21 -94.59,-13.15 -88.8,-90.68 -60.06,-123.83 -38,-0.24 -67.47,46.79 -53.15,93 -32.95,-61.18 0.35,-157 70.93,-186 -82.95,-12 -160.71,28.2 -185.7,98.07 2.984364,-25.53935 8.941387,-50.64274 17.75,-74.8 0,0 -45.22,35.74 -54.44,110.9 -0.14,1.16 -0.27,2.32 -0.39,3.49 -0.05,0.4 -0.09,0.8 -0.13,1.21 -0.353333,3.5 -0.62,7.02333 -0.8,10.57 v 0.81 c -0.07,1.48 -0.13,3 -0.17,4.46 v 1.25 c 0,1.76 -0.07,3.52 -0.07,5.29 0,123.71 100.29,224 224,224 C 379.78,479.98 480,379.71 480,256 c 0.011,-20.75686 -2.86321,-41.4145 -8.54,-61.38 z"
     id="path4" />
</svg>
