<?xml version="1.0" encoding="UTF-8" standalone="no"?>
<svg
   xmlns:dc="http://purl.org/dc/elements/1.1/"
   xmlns:cc="http://creativecommons.org/ns#"
   xmlns:rdf="http://www.w3.org/1999/02/22-rdf-syntax-ns#"
   xmlns:svg="http://www.w3.org/2000/svg"
   xmlns="http://www.w3.org/2000/svg"
   xmlns:sodipodi="http://sodipodi.sourceforge.net/DTD/sodipodi-0.dtd"
   xmlns:inkscape="http://www.inkscape.org/namespaces/inkscape"
   class="ionicon"
   viewBox="0 0 512 512"
   version="1.1"
   id="svg6"
   sodipodi:docname="logo-vk.svg"
   inkscape:version="1.0.2 (e86c8708, 2021-01-15)">
  <metadata
     id="metadata12">
    <rdf:RDF>
      <cc:Work
         rdf:about="">
        <dc:format>image/svg+xml</dc:format>
        <dc:type
           rdf:resource="http://purl.org/dc/dcmitype/StillImage" />
      </cc:Work>
    </rdf:RDF>
  </metadata>
  <defs
     id="defs10" />
  <sodipodi:namedview
     pagecolor="#ffffff"
     bordercolor="#666666"
     borderopacity="1"
     objecttolerance="10"
     gridtolerance="10"
     guidetolerance="10"
     inkscape:pageopacity="0"
     inkscape:pageshadow="2"
     inkscape:window-width="689"
     inkscape:window-height="480"
     id="namedview8"
     showgrid="false"
     inkscape:zoom="1.3027344"
     inkscape:cx="256"
     inkscape:cy="256"
     inkscape:window-x="44"
     inkscape:window-y="25"
     inkscape:window-maximized="0"
     inkscape:current-layer="svg6" />
  <title
     id="title2">Logo Vk</title>
  <path
     style="color:#000000;font-style:normal;font-variant:normal;font-weight:normal;font-stretch:normal;font-size:medium;line-height:normal;font-family:sans-serif;font-variant-ligatures:normal;font-variant-position:normal;font-variant-caps:normal;font-variant-numeric:normal;font-variant-alternates:normal;font-variant-east-asian:normal;font-feature-settings:normal;font-variation-settings:normal;text-indent:0;text-align:start;text-decoration:none;text-decoration-line:none;text-decoration-style:solid;text-decoration-color:#000000;letter-spacing:normal;word-spacing:normal;text-transform:none;writing-mode:lr-tb;direction:ltr;text-orientation:mixed;dominant-baseline:auto;baseline-shift:baseline;text-anchor:start;white-space:normal;shape-padding:0;shape-margin:0;inline-size:0;clip-rule:nonzero;display:inline;overflow:visible;visibility:visible;isolation:auto;mix-blend-mode:normal;color-interpolation:sRGB;color-interpolation-filters:linearRGB;solid-color:#000000;solid-opacity:1;vector-effect:none;fill:#000000;fill-opacity:1;fill-rule:evenodd;stroke-width:1;stroke-linecap:butt;stroke-linejoin:miter;stroke-miterlimit:4;stroke-dasharray:none;stroke-dashoffset:0;stroke-opacity:1;color-rendering:auto;image-rendering:auto;shape-rendering:auto;text-rendering:auto;enable-background:accumulate;stop-color:#000000;stop-opacity:1;stroke:none;opacity:1"
     d="m 484.7,132 c 3.56,-11.28 0,-19.48 -15.75,-19.48 h -52.37 c -13.21,0 -19.31,7.18 -22.87,14.86 0,0 -26.94,65.6 -64.56,108.13 -12.2,12.3 -17.79,16.4 -24.4,16.4 -3.56,0 -8.14,-4.1 -8.14,-15.37 V 131.47 C 296.61,118.15 292.55,112 281.36,112 H 199 c -8.14,0 -13.22,6.15 -13.22,12.3 0,12.81 18.81,15.89 20.84,51.76 V 254 c 0,16.91 -3,20 -9.66,20 -17.79,0 -61,-66.11 -86.92,-141.44 C 105,117.64 99.88,112 86.66,112 H 33.79 C 18.54,112 16,119.17 16,126.86 c 0,13.84 17.79,83.53 82.86,175.77 43.21,63 104.72,96.86 160.13,96.86 33.56,0 37.62,-7.69 37.62,-20.5 v -47.66 c 0,-15.37 3.05,-17.93 13.73,-17.93 7.62,0 21.35,4.09 52.36,34.33 35.58,35.87 41.68,52.27 61.51,52.27 h 52.36 c 15.25,0 22.37,-7.69 18.3,-22.55 -4.57,-14.86 -21.86,-36.38 -44.23,-62 -12.2,-14.34 -30.5,-30.23 -36.09,-37.92 -7.62,-10.25 -5.59,-14.35 0,-23.57 -0.51,0 63.55,-91.22 70.15,-122"
     id="path4" />
</svg>
