<?xml version="1.0" encoding="UTF-8" standalone="no"?>
<svg
   xmlns:dc="http://purl.org/dc/elements/1.1/"
   xmlns:cc="http://creativecommons.org/ns#"
   xmlns:rdf="http://www.w3.org/1999/02/22-rdf-syntax-ns#"
   xmlns:svg="http://www.w3.org/2000/svg"
   xmlns="http://www.w3.org/2000/svg"
   xmlns:sodipodi="http://sodipodi.sourceforge.net/DTD/sodipodi-0.dtd"
   xmlns:inkscape="http://www.inkscape.org/namespaces/inkscape"
   class="ionicon"
   viewBox="0 0 512 512"
   version="1.1"
   id="svg6"
   sodipodi:docname="logo-tiktok.svg"
   inkscape:version="1.0.2 (e86c8708, 2021-01-15)">
  <metadata
     id="metadata12">
    <rdf:RDF>
      <cc:Work
         rdf:about="">
        <dc:format>image/svg+xml</dc:format>
        <dc:type
           rdf:resource="http://purl.org/dc/dcmitype/StillImage" />
      </cc:Work>
    </rdf:RDF>
  </metadata>
  <defs
     id="defs10" />
  <sodipodi:namedview
     pagecolor="#ffffff"
     bordercolor="#666666"
     borderopacity="1"
     objecttolerance="10"
     gridtolerance="10"
     guidetolerance="10"
     inkscape:pageopacity="0"
     inkscape:pageshadow="2"
     inkscape:window-width="689"
     inkscape:window-height="480"
     id="namedview8"
     showgrid="false"
     inkscape:zoom="1.3027344"
     inkscape:cx="256"
     inkscape:cy="256"
     inkscape:window-x="44"
     inkscape:window-y="25"
     inkscape:window-maximized="0"
     inkscape:current-layer="svg6" />
  <title
     id="title2">Logo Tiktok</title>
  <path
     style="color:#000000;font-style:normal;font-variant:normal;font-weight:normal;font-stretch:normal;font-size:medium;line-height:normal;font-family:sans-serif;font-variant-ligatures:normal;font-variant-position:normal;font-variant-caps:normal;font-variant-numeric:normal;font-variant-alternates:normal;font-variant-east-asian:normal;font-feature-settings:normal;font-variation-settings:normal;text-indent:0;text-align:start;text-decoration:none;text-decoration-line:none;text-decoration-style:solid;text-decoration-color:#000000;letter-spacing:normal;word-spacing:normal;text-transform:none;writing-mode:lr-tb;direction:ltr;text-orientation:mixed;dominant-baseline:auto;baseline-shift:baseline;text-anchor:start;white-space:normal;shape-padding:0;shape-margin:0;inline-size:0;clip-rule:nonzero;display:inline;overflow:visible;visibility:visible;isolation:auto;mix-blend-mode:normal;color-interpolation:sRGB;color-interpolation-filters:linearRGB;solid-color:#000000;solid-opacity:1;vector-effect:none;fill:#000000;fill-opacity:1;fill-rule:nonzero;stroke-width:1;stroke-linecap:butt;stroke-linejoin:miter;stroke-miterlimit:4;stroke-dasharray:none;stroke-dashoffset:0;stroke-opacity:1;color-rendering:auto;image-rendering:auto;shape-rendering:auto;text-rendering:auto;enable-background:accumulate;stop-color:#000000;stop-opacity:1;stroke:none;opacity:1"
     d="m 412.19,118.66 c -3.23981,-1.67448 -6.39376,-3.51012 -9.45,-5.5 -8.88743,-5.87545 -17.03595,-12.7985 -24.27,-20.62 -18.1,-20.71 -24.86,-41.72 -27.35,-56.43 h 0.1 C 349.14,23.9 350,16 350.13,16 h -82.44 v 318.78 c 0,4.28 0,8.51 -0.18,12.69 0,0.52 -0.05,1 -0.08,1.56 0,0.23 0,0.47 -0.05,0.71 v 0.18 c -1.76463,23.2264 -14.96711,44.05347 -35.22,55.56 -10.39456,5.91355 -22.15104,9.01553 -34.11,9 -38.41,0 -69.54,-31.32 -69.54,-70 0,-38.68 31.13,-70 69.54,-70 7.27083,-0.007 14.49691,1.13741 21.41,3.39 l 0.1,-83.94 c -42.4284,-5.48058 -85.21504,7.03632 -118,34.52 -14.209346,12.34601 -26.155201,27.07697 -35.3,43.53 -3.48,6 -16.61,30.11 -18.2,69.24 -1,22.21 5.67,45.22 8.85,54.73 v 0.2 c 2,5.6 9.75,24.71 22.38,40.82 10.184369,12.92264 22.21687,24.2745 35.71,33.69 v -0.2 l 0.2,0.2 c 39.91,27.12 84.16,25.34 84.16,25.34 7.66,-0.31 33.32,0 62.46,-13.81 32.32,-15.31 50.72,-38.12 50.72,-38.12 11.75487,-13.6292 21.10192,-29.1614 27.64,-45.93 7.46,-19.61 9.95,-43.13 9.95,-52.53 V 176.49 c 1,0.6 14.32,9.41 14.32,9.41 0,0 19.19,12.3 49.13,20.31 21.48,5.7 50.42,6.9 50.42,6.9 v -81.84 c -10.14,1.1 -30.73,-2.1 -51.81,-12.61 z"
     id="path4" />
</svg>
