<?xml version="1.0" encoding="UTF-8" standalone="no"?>
<svg
   xmlns:dc="http://purl.org/dc/elements/1.1/"
   xmlns:cc="http://creativecommons.org/ns#"
   xmlns:rdf="http://www.w3.org/1999/02/22-rdf-syntax-ns#"
   xmlns:svg="http://www.w3.org/2000/svg"
   xmlns="http://www.w3.org/2000/svg"
   xmlns:sodipodi="http://sodipodi.sourceforge.net/DTD/sodipodi-0.dtd"
   xmlns:inkscape="http://www.inkscape.org/namespaces/inkscape"
   class="ionicon"
   viewBox="0 0 512 512"
   version="1.1"
   id="svg6"
   sodipodi:docname="logo-sass.svg"
   inkscape:version="1.0.2 (e86c8708, 2021-01-15)">
  <metadata
     id="metadata12">
    <rdf:RDF>
      <cc:Work
         rdf:about="">
        <dc:format>image/svg+xml</dc:format>
        <dc:type
           rdf:resource="http://purl.org/dc/dcmitype/StillImage" />
      </cc:Work>
    </rdf:RDF>
  </metadata>
  <defs
     id="defs10" />
  <sodipodi:namedview
     pagecolor="#ffffff"
     bordercolor="#666666"
     borderopacity="1"
     objecttolerance="10"
     gridtolerance="10"
     guidetolerance="10"
     inkscape:pageopacity="0"
     inkscape:pageshadow="2"
     inkscape:window-width="689"
     inkscape:window-height="480"
     id="namedview8"
     showgrid="false"
     inkscape:zoom="1.3027344"
     inkscape:cx="256"
     inkscape:cy="256"
     inkscape:window-x="44"
     inkscape:window-y="25"
     inkscape:window-maximized="0"
     inkscape:current-layer="svg6" />
  <title
     id="title2">Logo Sass</title>
  <path
     style="color:#000000;font-style:normal;font-variant:normal;font-weight:normal;font-stretch:normal;font-size:medium;line-height:normal;font-family:sans-serif;font-variant-ligatures:normal;font-variant-position:normal;font-variant-caps:normal;font-variant-numeric:normal;font-variant-alternates:normal;font-variant-east-asian:normal;font-feature-settings:normal;font-variation-settings:normal;text-indent:0;text-align:start;text-decoration:none;text-decoration-line:none;text-decoration-style:solid;text-decoration-color:#000000;letter-spacing:normal;word-spacing:normal;text-transform:none;writing-mode:lr-tb;direction:ltr;text-orientation:mixed;dominant-baseline:auto;baseline-shift:baseline;text-anchor:start;white-space:normal;shape-padding:0;shape-margin:0;inline-size:0;clip-rule:nonzero;display:inline;overflow:visible;visibility:visible;isolation:auto;mix-blend-mode:normal;color-interpolation:sRGB;color-interpolation-filters:linearRGB;solid-color:#000000;solid-opacity:1;vector-effect:none;fill:#000000;fill-opacity:1;fill-rule:nonzero;stroke-width:1;stroke-linecap:butt;stroke-linejoin:miter;stroke-miterlimit:4;stroke-dasharray:none;stroke-dashoffset:0;stroke-opacity:1;color-rendering:auto;image-rendering:auto;shape-rendering:auto;text-rendering:auto;enable-background:accumulate;stop-color:#000000;stop-opacity:1;stroke:none;opacity:1"
     d="m 511.78,328.07 c -1.47,-11.92 -7.51,-22.26 -18,-30.77 -0.13044,-0.15873 -0.27431,-0.30594 -0.43,-0.44 l -0.53,-0.38 -0.17,-0.12 -5.57,-4 -0.19,-0.14 -0.71,-0.5 c -0.26044,-0.15193 -0.53941,-0.26957 -0.83,-0.35 -17.62,-10.49 -46.79,-17.84 -91.42,-2.09 C 383.28,271.36 382.07,257 389.2,235 c 1.27,-3.83 0.09,-6.36 -3.71,-8 -7.64,-3.25 -18.1,-1.59 -25.52,0.37 -3.46,0.9 -5.54,2.86 -6.2,5.83 -4.7,22 -18.36,42.1 -31.57,61.5 l -0.78,1.14 c -8.14,-17.26 -6.45,-30.63 -0.78,-47.38 1.13,-3.34 0.24,-5.56 -2.89,-7.22 -8.74,-4.51 -21.85,-1.41 -27.07,0.13 -6.62,1.93 -13.72,19.82 -21.65,41.24 -2,5.39 -3.72,10 -4.75,12.15 -2.45,5 -4.79,10.7 -7.27,16.75 -5.6,13.69 -11.91,29.1 -20.93,38.78 -3.28,-7.25 1.88,-18.68 6.89,-29.77 5.93,-13.11 11.53,-25.5 5.08,-33.41 -2.06165,-2.52769 -5.0762,-4.09106 -8.33,-4.32 -2.10033,-0.15987 -4.20853,0.18292 -6.15,1 0.67,-5.65 0.7,-10.11 -0.95,-15.5 -2.36,-7.69 -8.49,-12 -16.93,-11.77 -19.22,0.56 -35.48,14.88 -45.75,26.8 -6.84,8 -22,14.1 -35.31,19.45 -5.26,2.23 -10.26,4.23 -14.43,6.23 -6.65,-5.62 -15.1,-11.29 -24,-17.28 -25,-16.78 -53.33,-35.81 -54.31,-61.61 -1.4,-38.11 42,-65.14 79.88,-84.43 28.71,-14.6 53.67,-24.28 76.31,-29.57 31.8,-7.43 58.66,-5.93 79.82,4.44 11.58,5.67 17,18 13.56,30.68 -9,32.95 -46.29,55.53 -78.18,65.69 -19.21,6.12 -35.56,8.68 -50,7.84 -18.1,-1.05 -32.88,-10.13 -39.2,-14 -1.01255,-0.6915 -2.08324,-1.29376 -3.2,-1.8 l -0.29,-0.07 c -1.1667,-0.29037 -2.39785,0.0956 -3.19,1 -1.3,1.55 -0.84,4 -0.37,5.24 6.15,16.07 18.85,26.22 37.74,30.17 6.18222,1.23798 12.47523,1.83779 18.78,1.79 44.21,0 100.62,-25.49 121.34,-46.48 14.13,-14.3 24.42,-29 28.68,-54.35 4.45,-26.55 -13.55,-45 -31.89,-53.5 -44.57,-20.57 -95.19,-12.44 -129.81,-2 -40.5,12.21 -82.4,34.41 -114.94,60.93 -40.12,32.67 -54.62,63 -43.12,90.25 11.81,27.93 40.61,45.4 68.46,62.3 9,5.45 17.56,10.64 25.27,16 -2.32,1.13 -4.69,2.28 -7.1,3.43 -23.38,11.33 -49.9,24.08 -64.61,45.15 -10.68,15.35 -12.68,30.63 -5.94,45.42 3.6,7.87 10,13.21 18.89,15.87 4.624517,1.31022 9.413796,1.94676 14.22,1.89 17.31,0 36.36,-7 46.73,-13.47 18.32,-11.5 30.19,-26.94 35.29,-45.89 4.54,-16.86 3.45,-33.61 -3.15,-48.56 l 22.45,-11.32 c -10.83,36 -2.53,57.5 6.59,69.36 3.36,4.37 9.42,7 16.19,7.12 6.77,0.12 13,-2.43 16.52,-6.77 6.66,-8.25 11.58,-17.9 16.11,-27.55 -0.24,6.3 0.06,12.68 2.21,18.09 1.93,4.87 5.11,8.1 9.21,9.34 4.36,1.33 9.47,0.21 14.39,-3.15 22.17,-15.17 37.33,-51.58 49.51,-80.85 1.73,-4.16 3.39,-8.16 5,-11.9 3.01338,10.78416 7.20532,21.20364 12.5,31.07 1.18,2.14 1.08,3.08 -0.52,4.84 -2.41,2.64 -5.77,5.83 -9.33,9.21 -10.78,10.23 -24.2,23 -26,34.23 -0.7,4.5 2.4,8.6 7.21,9.53 14.47,2.88 31.9,-1.33 46.64,-11.25 13.4,-9 18.44,-21.55 15,-37.19 -3.33,-15.06 4.27,-33.76 22.59,-55.62 3,12.53 7,22.66 12.52,31.53 l -0.15,0.12 c -13.34,11.65 -31.62,27.6 -28.78,46.95 0.48174,3.7209 2.50702,7.06733 5.58,9.22 3.28338,2.21685 7.34271,2.96347 11.2,2.06 17.47,-3.67 30.62,-11.06 40.18,-22.57 9.56,-11.51 6.07,-24.27 2.85,-34.17 25,-6.78 47.26,-6.61 68.1,0.5 11.7,4 20.09,10.57 24.93,19.64 6.09,11.41 2.8,21.94 -9.29,29.65 -3.71,2.37 -5.5,3.82 -5.61,5.65 -0.0498,0.86184 0.32334,1.69392 1,2.23 1.4,1.15 5.72,3.15 15.49,-3 9,-5.65 14.28,-13.34 15.63,-23 0.27159,-2.66327 0.26824,-5.34742 -0.01,-8.01 z m -399.73,25.06 -0.1,1.28 c -1.56,14.64 -9,27.4 -22.15,38 -8.26,6.66 -17.23,10.75 -25.25,11.53 -5.6,0.54 -9.67,-0.22 -12.09,-2.27 -1.81,-1.53 -2.78,-3.82 -3,-7 -1.64,-25.48 38.32,-50.8 60.81,-59.13 1.60504,5.71648 2.20728,11.66786 1.78,17.59 z M 214.4,281.27 c -3.7,21.09 -14.49,60.9 -31.45,76.35 -0.81,0.74 -1.49,1 -1.8,0.93 -0.31,-0.07 -0.55,-0.44 -0.8,-1 -5.66,-13.12 -3.57,-35.28 5,-52.69 6.59,-13.42 16,-22.31 26.52,-25 0.43669,-0.12045 0.88704,-0.1843 1.34,-0.19 0.3542,-0.0249 0.70648,0.0702 1,0.27 0.25035,0.39586 0.3195,0.87988 0.19,1.33 z m 83.49,76.88 c -3.19,3.33 -7.56,2.88 -6.53,1.66 l 16.24,-17.24 c -1.31,5.93 -5.18,10.84 -9.71,15.58 z m 67.37,-14.91 c -1.54444,0.76108 -3.21546,1.23222 -4.93,1.39 -0.46,-9.07 8.33,-19.28 17,-26.09 2.33,9.46 -2.44,19.46 -12.07,24.7 z"
     id="path4" />
</svg>
