<?xml version="1.0" encoding="UTF-8" standalone="no"?>
<svg
   xmlns:dc="http://purl.org/dc/elements/1.1/"
   xmlns:cc="http://creativecommons.org/ns#"
   xmlns:rdf="http://www.w3.org/1999/02/22-rdf-syntax-ns#"
   xmlns:svg="http://www.w3.org/2000/svg"
   xmlns="http://www.w3.org/2000/svg"
   xmlns:sodipodi="http://sodipodi.sourceforge.net/DTD/sodipodi-0.dtd"
   xmlns:inkscape="http://www.inkscape.org/namespaces/inkscape"
   class="ionicon"
   viewBox="0 0 512 512"
   version="1.1"
   id="svg6"
   sodipodi:docname="logo-pinterest.svg"
   inkscape:version="1.0.2 (e86c8708, 2021-01-15)">
  <metadata
     id="metadata12">
    <rdf:RDF>
      <cc:Work
         rdf:about="">
        <dc:format>image/svg+xml</dc:format>
        <dc:type
           rdf:resource="http://purl.org/dc/dcmitype/StillImage" />
      </cc:Work>
    </rdf:RDF>
  </metadata>
  <defs
     id="defs10" />
  <sodipodi:namedview
     pagecolor="#ffffff"
     bordercolor="#666666"
     borderopacity="1"
     objecttolerance="10"
     gridtolerance="10"
     guidetolerance="10"
     inkscape:pageopacity="0"
     inkscape:pageshadow="2"
     inkscape:window-width="689"
     inkscape:window-height="480"
     id="namedview8"
     showgrid="false"
     inkscape:zoom="1.3027344"
     inkscape:cx="256"
     inkscape:cy="256"
     inkscape:window-x="44"
     inkscape:window-y="25"
     inkscape:window-maximized="0"
     inkscape:current-layer="svg6" />
  <title
     id="title2">Logo Pinterest</title>
  <path
     style="color:#000000;font-style:normal;font-variant:normal;font-weight:normal;font-stretch:normal;font-size:medium;line-height:normal;font-family:sans-serif;font-variant-ligatures:normal;font-variant-position:normal;font-variant-caps:normal;font-variant-numeric:normal;font-variant-alternates:normal;font-variant-east-asian:normal;font-feature-settings:normal;font-variation-settings:normal;text-indent:0;text-align:start;text-decoration:none;text-decoration-line:none;text-decoration-style:solid;text-decoration-color:#000000;letter-spacing:normal;word-spacing:normal;text-transform:none;writing-mode:lr-tb;direction:ltr;text-orientation:mixed;dominant-baseline:auto;baseline-shift:baseline;text-anchor:start;white-space:normal;shape-padding:0;shape-margin:0;inline-size:0;clip-rule:nonzero;display:inline;overflow:visible;visibility:visible;isolation:auto;mix-blend-mode:normal;color-interpolation:sRGB;color-interpolation-filters:linearRGB;solid-color:#000000;solid-opacity:1;vector-effect:none;fill:#000000;fill-opacity:1;fill-rule:nonzero;stroke-width:1;stroke-linecap:butt;stroke-linejoin:miter;stroke-miterlimit:4;stroke-dasharray:none;stroke-dashoffset:0;stroke-opacity:1;color-rendering:auto;image-rendering:auto;shape-rendering:auto;text-rendering:auto;enable-background:accumulate;stop-color:#000000;stop-opacity:1;stroke:none;opacity:1"
     d="m 256.05,32 c -123.7,0 -224,100.3 -224,224 0,91.7 55.2,170.5 134.1,205.2 -0.6,-15.6 -0.1,-34.4 3.9,-51.4 4.3,-18.2 28.8,-122.1 28.8,-122.1 0,0 -7.2,-14.3 -7.2,-35.4 0,-33.2 19.2,-58 43.2,-58 20.4,0 30.2,15.3 30.2,33.6 0,20.5 -13.1,51.1 -19.8,79.5 -5.6,23.8 11.9,43.1 35.4,43.1 42.4,0 71,-54.5 71,-119.1 0,-49.1 -33.1,-85.8 -93.2,-85.8 -67.9,0 -110.3,50.7 -110.3,107.3 0,19.5 5.8,33.3 14.8,43.9 4.1,4.9 4.7,6.9 3.2,12.5 -1.1,4.1 -3.5,14 -4.6,18 -1.5,5.7 -6.1,7.7 -11.2,5.6 -31.3,-12.8 -45.9,-47 -45.9,-85.6 0,-63.6 53.7,-139.9 160.1,-139.9 85.5,0 141.8,61.9 141.8,128.3 0,87.9 -48.9,153.5 -120.9,153.5 -24.2,0 -46.9,-13.1 -54.7,-27.9 0,0 -13,51.6 -15.8,61.6 -4.7,17.3 -14,34.5 -22.5,48 20.61886,6.0827 42.00265,9.18083 63.5,9.2 123.7,0 224,-100.3 224,-224 C 479.95,132.4 379.75,32 256.05,32 Z"
     id="path4" />
</svg>
