<?xml version="1.0" encoding="UTF-8" standalone="no"?>
<svg
   xmlns:dc="http://purl.org/dc/elements/1.1/"
   xmlns:cc="http://creativecommons.org/ns#"
   xmlns:rdf="http://www.w3.org/1999/02/22-rdf-syntax-ns#"
   xmlns:svg="http://www.w3.org/2000/svg"
   xmlns="http://www.w3.org/2000/svg"
   xmlns:sodipodi="http://sodipodi.sourceforge.net/DTD/sodipodi-0.dtd"
   xmlns:inkscape="http://www.inkscape.org/namespaces/inkscape"
   class="ionicon"
   viewBox="0 0 512 512"
   version="1.1"
   id="svg6"
   sodipodi:docname="logo-mastodon.svg"
   inkscape:version="1.0.2 (e86c8708, 2021-01-15)">
  <metadata
     id="metadata12">
    <rdf:RDF>
      <cc:Work
         rdf:about="">
        <dc:format>image/svg+xml</dc:format>
        <dc:type
           rdf:resource="http://purl.org/dc/dcmitype/StillImage" />
      </cc:Work>
    </rdf:RDF>
  </metadata>
  <defs
     id="defs10" />
  <sodipodi:namedview
     pagecolor="#ffffff"
     bordercolor="#666666"
     borderopacity="1"
     objecttolerance="10"
     gridtolerance="10"
     guidetolerance="10"
     inkscape:pageopacity="0"
     inkscape:pageshadow="2"
     inkscape:window-width="689"
     inkscape:window-height="480"
     id="namedview8"
     showgrid="false"
     inkscape:zoom="1.3027344"
     inkscape:cx="256"
     inkscape:cy="256"
     inkscape:window-x="44"
     inkscape:window-y="25"
     inkscape:window-maximized="0"
     inkscape:current-layer="svg6" />
  <title
     id="title2">Logo Mastodon</title>
  <path
     style="color:#000000;font-style:normal;font-variant:normal;font-weight:normal;font-stretch:normal;font-size:medium;line-height:normal;font-family:sans-serif;font-variant-ligatures:normal;font-variant-position:normal;font-variant-caps:normal;font-variant-numeric:normal;font-variant-alternates:normal;font-variant-east-asian:normal;font-feature-settings:normal;font-variation-settings:normal;text-indent:0;text-align:start;text-decoration:none;text-decoration-line:none;text-decoration-style:solid;text-decoration-color:#000000;letter-spacing:normal;word-spacing:normal;text-transform:none;writing-mode:lr-tb;direction:ltr;text-orientation:mixed;dominant-baseline:auto;baseline-shift:baseline;text-anchor:start;white-space:normal;shape-padding:0;shape-margin:0;inline-size:0;clip-rule:nonzero;display:inline;overflow:visible;visibility:visible;isolation:auto;mix-blend-mode:normal;color-interpolation:sRGB;color-interpolation-filters:linearRGB;solid-color:#000000;solid-opacity:1;vector-effect:none;fill:#000000;fill-opacity:1;fill-rule:nonzero;stroke-width:1;stroke-linecap:butt;stroke-linejoin:miter;stroke-miterlimit:4;stroke-dasharray:none;stroke-dashoffset:0;stroke-opacity:1;color-rendering:auto;image-rendering:auto;shape-rendering:auto;text-rendering:auto;enable-background:accumulate;stop-color:#000000;stop-opacity:1;stroke:none;opacity:1"
     d="M 480,173.59 C 480,69.46 411.74,38.94 411.74,38.94 377.3,23.15 318.2,16.5 256.8,16 h -1.51 c -61.4,0.5 -120.46,7.15 -154.88,22.94 0,0 -68.27,30.52 -68.27,134.65 0,23.85 -0.46,52.35 0.29,82.59 2.48,101.82 18.68,202.19 112.89,227.11 43.43,11.49 80.73,13.89 110.76,12.24 54.47,-3 85,-19.42 85,-19.42 l -1.79,-39.5 c 0,0 -38.93,12.27 -82.64,10.77 -43.31,-1.48 -89,-4.67 -96,-57.81 -0.67533,-4.93779 -1.00945,-9.91625 -1,-14.9 31.69565,7.0756 63.94769,11.3752 96.39,12.85 32.95,1.51 63.84,-1.93 95.22,-5.67 60.18,-7.18 112.58,-44.24 119.16,-78.09 C 480.84,250.42 480,173.59 480,173.59 Z m -80.54,134.16 h -50 V 185.38 c 0,-25.8 -10.86,-38.89 -32.58,-38.89 -24,0 -36.06,15.53 -36.06,46.24 v 67 h -49.66 v -67 c 0,-30.71 -12,-46.24 -36.06,-46.24 -21.72,0 -32.58,13.09 -32.58,38.89 v 122.37 h -50 V 181.67 c 0,-25.76667 6.58333,-46.23 19.75,-61.39 13.6,-15.15 31.4,-22.92 53.51,-22.92 25.58,0 44.95,9.82 57.75,29.48 l 12.47,20.85 12.45,-20.85 c 12.81,-19.66 32.17,-29.48 57.75,-29.48 22.11,0 39.91,7.77 53.51,22.92 13.19333,15.14667 19.77667,35.61 19.75,61.39 z"
     id="path4" />
</svg>
