<?xml version="1.0" encoding="UTF-8" standalone="no"?>
<svg
   xmlns:dc="http://purl.org/dc/elements/1.1/"
   xmlns:cc="http://creativecommons.org/ns#"
   xmlns:rdf="http://www.w3.org/1999/02/22-rdf-syntax-ns#"
   xmlns:svg="http://www.w3.org/2000/svg"
   xmlns="http://www.w3.org/2000/svg"
   xmlns:sodipodi="http://sodipodi.sourceforge.net/DTD/sodipodi-0.dtd"
   xmlns:inkscape="http://www.inkscape.org/namespaces/inkscape"
   class="ionicon"
   viewBox="0 0 512 512"
   version="1.1"
   id="svg10"
   sodipodi:docname="magnet-outline.svg"
   inkscape:version="1.0.2 (e86c8708, 2021-01-15)">
  <metadata
     id="metadata16">
    <rdf:RDF>
      <cc:Work
         rdf:about="">
        <dc:format>image/svg+xml</dc:format>
        <dc:type
           rdf:resource="http://purl.org/dc/dcmitype/StillImage" />
      </cc:Work>
    </rdf:RDF>
  </metadata>
  <defs
     id="defs14" />
  <sodipodi:namedview
     pagecolor="#ffffff"
     bordercolor="#666666"
     borderopacity="1"
     objecttolerance="10"
     gridtolerance="10"
     guidetolerance="10"
     inkscape:pageopacity="0"
     inkscape:pageshadow="2"
     inkscape:window-width="689"
     inkscape:window-height="480"
     id="namedview12"
     showgrid="false"
     inkscape:zoom="1.3027344"
     inkscape:cx="256"
     inkscape:cy="256"
     inkscape:window-x="44"
     inkscape:window-y="25"
     inkscape:window-maximized="0"
     inkscape:current-layer="svg10" />
  <title
     id="title2">Magnet</title>
  <path
     style="color:#000000;font-style:normal;font-variant:normal;font-weight:normal;font-stretch:normal;font-size:medium;line-height:normal;font-family:sans-serif;font-variant-ligatures:normal;font-variant-position:normal;font-variant-caps:normal;font-variant-numeric:normal;font-variant-alternates:normal;font-variant-east-asian:normal;font-feature-settings:normal;font-variation-settings:normal;text-indent:0;text-align:start;text-decoration:none;text-decoration-line:none;text-decoration-style:solid;text-decoration-color:#000000;letter-spacing:normal;word-spacing:normal;text-transform:none;writing-mode:lr-tb;direction:ltr;text-orientation:mixed;dominant-baseline:auto;baseline-shift:baseline;text-anchor:start;white-space:normal;shape-padding:0;shape-margin:0;inline-size:0;clip-rule:nonzero;display:inline;overflow:visible;visibility:visible;isolation:auto;mix-blend-mode:normal;color-interpolation:sRGB;color-interpolation-filters:linearRGB;solid-color:#000000;solid-opacity:1;vector-effect:none;fill:currentColor;fill-opacity:1;fill-rule:nonzero;stroke:none;stroke-linecap:butt;stroke-linejoin:miter;stroke-miterlimit:10;stroke-dasharray:none;stroke-dashoffset:0;stroke-opacity:1;color-rendering:auto;image-rendering:auto;shape-rendering:auto;text-rendering:auto;enable-background:accumulate;stop-color:#000000;stop-opacity:1;opacity:1"
     d="M 320.00586 32.09375 C 279.02421 32.093733 238.04259 47.680063 206.86719 78.855469 L 229.49414 101.48438 C 279.6162 51.36232 360.3936 51.362353 410.51562 101.48438 C 460.63765 151.6064 460.63768 232.3838 410.51562 282.50586 L 433.14453 305.13281 C 495.49534 242.782 495.4953 141.20623 433.14453 78.855469 C 401.96915 47.680087 360.98751 32.093767 320.00586 32.09375 z M 319.98438 128.375 C 303.65431 128.3085 287.29769 134.3958 274.83789 146.6543 L 297.28125 169.46484 C 309.93861 157.01198 329.79604 157.09292 342.35156 169.64844 C 354.90708 182.20396 354.98802 202.06139 342.53516 214.71875 L 365.3457 237.16211 C 389.8627 212.2425 389.69762 171.74059 364.97852 147.02148 C 352.61896 134.66193 336.31444 128.4415 319.98438 128.375 z "
     id="path4" />
  <g
     id="path6"
     style="opacity:1">
    <path
       style="color:#000000;font-style:normal;font-variant:normal;font-weight:normal;font-stretch:normal;font-size:medium;line-height:normal;font-family:sans-serif;font-variant-ligatures:normal;font-variant-position:normal;font-variant-caps:normal;font-variant-numeric:normal;font-variant-alternates:normal;font-variant-east-asian:normal;font-feature-settings:normal;font-variation-settings:normal;text-indent:0;text-align:start;text-decoration:none;text-decoration-line:none;text-decoration-style:solid;text-decoration-color:#000000;letter-spacing:normal;word-spacing:normal;text-transform:none;writing-mode:lr-tb;direction:ltr;text-orientation:mixed;dominant-baseline:auto;baseline-shift:baseline;text-anchor:start;white-space:normal;shape-padding:0;shape-margin:0;inline-size:0;clip-rule:nonzero;display:inline;overflow:visible;visibility:visible;isolation:auto;mix-blend-mode:normal;color-interpolation:sRGB;color-interpolation-filters:linearRGB;solid-color:#000000;solid-opacity:1;vector-effect:none;fill:#000000;fill-opacity:1;fill-rule:nonzero;stroke:none;stroke-width:32;stroke-linecap:round;stroke-linejoin:miter;stroke-miterlimit:10;stroke-dasharray:none;stroke-dashoffset:0;stroke-opacity:1.0;color-rendering:auto;image-rendering:auto;shape-rendering:auto;text-rendering:auto;enable-background:accumulate;stop-color:#000000;stop-opacity:1;"
       d="m 192,464 v -48 m -101.82,5.82 33.94,-33.94 M 48,320 h 48"
       id="path24" />
    <path
       style="color:#000000;font-style:normal;font-variant:normal;font-weight:normal;font-stretch:normal;font-size:medium;line-height:normal;font-family:sans-serif;font-variant-ligatures:normal;font-variant-position:normal;font-variant-caps:normal;font-variant-numeric:normal;font-variant-alternates:normal;font-variant-east-asian:normal;font-feature-settings:normal;font-variation-settings:normal;text-indent:0;text-align:start;text-decoration:none;text-decoration-line:none;text-decoration-style:solid;text-decoration-color:#000000;letter-spacing:normal;word-spacing:normal;text-transform:none;writing-mode:lr-tb;direction:ltr;text-orientation:mixed;dominant-baseline:auto;baseline-shift:baseline;text-anchor:start;white-space:normal;shape-padding:0;shape-margin:0;inline-size:0;clip-rule:nonzero;display:inline;overflow:visible;visibility:visible;isolation:auto;mix-blend-mode:normal;color-interpolation:sRGB;color-interpolation-filters:linearRGB;solid-color:#000000;solid-opacity:1;vector-effect:none;fill:currentColor;fill-opacity:1;fill-rule:nonzero;stroke:none;stroke-linecap:round;stroke-linejoin:miter;stroke-miterlimit:10;stroke-dasharray:none;stroke-dashoffset:0;stroke-opacity:1.0;color-rendering:auto;image-rendering:auto;shape-rendering:auto;text-rendering:auto;enable-background:accumulate;stop-color:#000000;stop-opacity:1;"
       d="M 48 304 A 16 16 0 0 0 32 320 A 16 16 0 0 0 48 336 L 96 336 A 16 16 0 0 0 112 320 A 16 16 0 0 0 96 304 L 48 304 z M 123.9043 371.88086 A 16 16 0 0 0 112.80664 376.56641 L 78.867188 410.50586 A 16 16 0 0 0 78.867188 433.13281 A 16 16 0 0 0 101.49414 433.13281 L 135.43359 399.19336 A 16 16 0 0 0 135.43359 376.56641 A 16 16 0 0 0 123.9043 371.88086 z M 192 400 A 16 16 0 0 0 176 416 L 176 464 A 16 16 0 0 0 192 480 A 16 16 0 0 0 208 464 L 208 416 A 16 16 0 0 0 192 400 z "
       id="path26" />
  </g>
  <path
     style="color:#000000;font-style:normal;font-variant:normal;font-weight:normal;font-stretch:normal;font-size:medium;line-height:normal;font-family:sans-serif;font-variant-ligatures:normal;font-variant-position:normal;font-variant-caps:normal;font-variant-numeric:normal;font-variant-alternates:normal;font-variant-east-asian:normal;font-feature-settings:normal;font-variation-settings:normal;text-indent:0;text-align:start;text-decoration:none;text-decoration-line:none;text-decoration-style:solid;text-decoration-color:#000000;letter-spacing:normal;word-spacing:normal;text-transform:none;writing-mode:lr-tb;direction:ltr;text-orientation:mixed;dominant-baseline:auto;baseline-shift:baseline;text-anchor:start;white-space:normal;shape-padding:0;shape-margin:0;inline-size:0;clip-rule:nonzero;display:inline;overflow:visible;visibility:visible;isolation:auto;mix-blend-mode:normal;color-interpolation:sRGB;color-interpolation-filters:linearRGB;solid-color:#000000;solid-opacity:1;vector-effect:none;fill:currentColor;fill-opacity:1;fill-rule:nonzero;stroke:none;stroke-linecap:butt;stroke-linejoin:round;stroke-miterlimit:4;stroke-dasharray:none;stroke-dashoffset:0;stroke-opacity:1;color-rendering:auto;image-rendering:auto;shape-rendering:auto;text-rendering:auto;enable-background:accumulate;stop-color:#000000;stop-opacity:1;opacity:1"
     d="M 206.86914 78.853516 L 93.6875 191.99414 C 75.071285 210.60611 75.071285 241.2728 93.6875 259.88477 A 16.0016 16.0016 0 0 0 93.699219 259.89648 L 116.36914 282.51562 C 134.98061 301.11116 165.62565 301.10866 184.23242 282.50586 A 16.0016 16.0016 0 0 0 184.23242 282.50391 L 297.37305 169.375 L 274.74609 146.74609 L 206.86328 214.62305 L 161.59961 169.35547 L 229.49219 101.48633 L 206.86914 78.853516 z M 138.96875 191.97656 L 184.23438 237.25 L 161.60742 259.875 C 155.22538 266.25568 145.36447 266.25568 138.98242 259.875 A 16.0016 16.0016 0 0 0 138.9707 259.86328 L 116.3125 237.25586 C 109.92827 230.87309 109.92827 221.00777 116.3125 214.625 L 138.96875 191.97656 z M 342.625 214.62891 L 229.49414 327.79883 C 210.88187 346.41118 210.88315 377.0749 229.49805 395.68555 L 252.11328 418.31055 A 16.0016 16.0016 0 0 0 252.11523 418.3125 C 270.7272 436.92872 301.39389 436.92872 320.00586 418.3125 L 433.14648 305.13086 L 410.51367 282.50781 L 342.64453 350.40039 L 297.38477 305.14648 L 365.25586 237.25195 L 342.625 214.62891 z M 274.76172 327.77734 L 320.02148 373.03125 L 297.375 395.6875 C 290.99289 402.07106 281.12893 402.07169 274.74609 395.68945 L 274.74414 395.6875 L 252.12695 373.05859 A 16.0016 16.0016 0 0 0 252.12305 373.05469 C 245.73882 366.67192 245.73882 356.80855 252.12305 350.42578 A 16.0016 16.0016 0 0 0 252.125 350.42188 L 274.76172 327.77734 z "
     id="path8" />
</svg>
