<?xml version="1.0" encoding="UTF-8"?>
<svg width="512px" height="512px" viewBox="0 0 512 512" version="1.1" xmlns="http://www.w3.org/2000/svg" xmlns:xlink="http://www.w3.org/1999/xlink">
    <!-- Generator: Sketch 62 (91390) - https://sketch.com -->
    <title>Artboard</title>
    <desc>Created with Sketch.</desc>
    <g id="Artboard" stroke="none" stroke-width="1" fill="none" fill-rule="evenodd">
        <g id="magnet-sharp" transform="translate(32.000000, 48.000000)" fill="#000000" fill-rule="nonzero">
            <path d="M176.98,352.58 L176.98,432.58 L144.98,432.58 L144.98,352.58 L176.98,352.58 Z M93.1,317.832583 L115.727417,340.46 L59.16,397.027417 L36.532583,374.4 L93.1,317.832583 Z M232.743998,269.015582 L300.626249,336.897833 L255.371415,382.152667 L187.489164,314.270416 L232.743998,269.015582 Z M289.359504,0.576722615 C327.566179,0.589868429 364.201482,15.7861282 391.2,42.82 C446.9667,98.656 446.544267,189.167938 391.834487,245.668348 L390.16,247.37 L323.25,314.28 L255.37,246.4 L322.69,179.08 C341.31,160.46 342.13,130.14 323.83,111.22 C314.885172,101.96199 302.596456,96.6849508 289.723679,96.574011 C277.052039,96.4648046 264.85999,101.370529 255.799094,110.206284 L255.37,110.63 L187.49,178.52 L119.61,110.63 L187.49,42.75 C214.507091,15.7346894 251.152829,0.563610835 289.359504,0.576722615 Z M80.98,256.58 L80.98,288.58 L0.98,288.58 L0.98,256.58 L80.98,256.58 Z M96.973294,133.262653 L164.855545,201.144904 L119.600711,246.399738 L51.71846,178.517487 L96.973294,133.262653 Z" id="Combined-Shape"></path>
        </g>
    </g>
</svg>