<?xml version="1.0" encoding="UTF-8" standalone="no"?>
<svg
   xmlns:dc="http://purl.org/dc/elements/1.1/"
   xmlns:cc="http://creativecommons.org/ns#"
   xmlns:rdf="http://www.w3.org/1999/02/22-rdf-syntax-ns#"
   xmlns:svg="http://www.w3.org/2000/svg"
   xmlns="http://www.w3.org/2000/svg"
   xmlns:sodipodi="http://sodipodi.sourceforge.net/DTD/sodipodi-0.dtd"
   xmlns:inkscape="http://www.inkscape.org/namespaces/inkscape"
   class="ionicon"
   viewBox="0 0 512 512"
   version="1.1"
   id="svg8"
   sodipodi:docname="magnet.svg"
   inkscape:version="1.0.2 (e86c8708, 2021-01-15)">
  <metadata
     id="metadata14">
    <rdf:RDF>
      <cc:Work
         rdf:about="">
        <dc:format>image/svg+xml</dc:format>
        <dc:type
           rdf:resource="http://purl.org/dc/dcmitype/StillImage" />
      </cc:Work>
    </rdf:RDF>
  </metadata>
  <defs
     id="defs12" />
  <sodipodi:namedview
     pagecolor="#ffffff"
     bordercolor="#666666"
     borderopacity="1"
     objecttolerance="10"
     gridtolerance="10"
     guidetolerance="10"
     inkscape:pageopacity="0"
     inkscape:pageshadow="2"
     inkscape:window-width="689"
     inkscape:window-height="480"
     id="namedview10"
     showgrid="false"
     inkscape:zoom="1.3027344"
     inkscape:cx="256"
     inkscape:cy="256"
     inkscape:window-x="44"
     inkscape:window-y="25"
     inkscape:window-maximized="0"
     inkscape:current-layer="svg8" />
  <title
     id="title2">Magnet</title>
  <g
     id="path4"
     style="opacity:1">
    <path
       style="color:#000000;font-style:normal;font-variant:normal;font-weight:normal;font-stretch:normal;font-size:medium;line-height:normal;font-family:sans-serif;font-variant-ligatures:normal;font-variant-position:normal;font-variant-caps:normal;font-variant-numeric:normal;font-variant-alternates:normal;font-variant-east-asian:normal;font-feature-settings:normal;font-variation-settings:normal;text-indent:0;text-align:start;text-decoration:none;text-decoration-line:none;text-decoration-style:solid;text-decoration-color:#000000;letter-spacing:normal;word-spacing:normal;text-transform:none;writing-mode:lr-tb;direction:ltr;text-orientation:mixed;dominant-baseline:auto;baseline-shift:baseline;text-anchor:start;white-space:normal;shape-padding:0;shape-margin:0;inline-size:0;clip-rule:nonzero;display:inline;overflow:visible;visibility:visible;isolation:auto;mix-blend-mode:normal;color-interpolation:sRGB;color-interpolation-filters:linearRGB;solid-color:#000000;solid-opacity:1;vector-effect:none;fill:#000000;fill-opacity:1;fill-rule:nonzero;stroke:none;stroke-width:32;stroke-linecap:round;stroke-linejoin:miter;stroke-miterlimit:10;stroke-dasharray:none;stroke-dashoffset:0;stroke-opacity:1.0;color-rendering:auto;image-rendering:auto;shape-rendering:auto;text-rendering:auto;enable-background:accumulate;stop-color:#000000;stop-opacity:1;"
       d="m 191.98,463.79 v -48 M 90.16,421.61 124.1,387.67 M 47.98,319.79 h 48"
       id="path22" />
    <path
       style="color:#000000;font-style:normal;font-variant:normal;font-weight:normal;font-stretch:normal;font-size:medium;line-height:normal;font-family:sans-serif;font-variant-ligatures:normal;font-variant-position:normal;font-variant-caps:normal;font-variant-numeric:normal;font-variant-alternates:normal;font-variant-east-asian:normal;font-feature-settings:normal;font-variation-settings:normal;text-indent:0;text-align:start;text-decoration:none;text-decoration-line:none;text-decoration-style:solid;text-decoration-color:#000000;letter-spacing:normal;word-spacing:normal;text-transform:none;writing-mode:lr-tb;direction:ltr;text-orientation:mixed;dominant-baseline:auto;baseline-shift:baseline;text-anchor:start;white-space:normal;shape-padding:0;shape-margin:0;inline-size:0;clip-rule:nonzero;display:inline;overflow:visible;visibility:visible;isolation:auto;mix-blend-mode:normal;color-interpolation:sRGB;color-interpolation-filters:linearRGB;solid-color:#000000;solid-opacity:1;vector-effect:none;fill:currentColor;fill-opacity:1;fill-rule:nonzero;stroke:none;stroke-linecap:round;stroke-linejoin:miter;stroke-miterlimit:10;stroke-dasharray:none;stroke-dashoffset:0;stroke-opacity:1.0;color-rendering:auto;image-rendering:auto;shape-rendering:auto;text-rendering:auto;enable-background:accumulate;stop-color:#000000;stop-opacity:1;"
       d="M 47.980469 303.78906 A 16 16 0 0 0 31.980469 319.78906 A 16 16 0 0 0 47.980469 335.78906 L 95.980469 335.78906 A 16 16 0 0 0 111.98047 319.78906 A 16 16 0 0 0 95.980469 303.78906 L 47.980469 303.78906 z M 124.2207 371.66992 A 16 16 0 0 0 112.78711 376.35547 L 78.845703 410.29688 A 16 16 0 0 0 78.845703 432.92383 A 16 16 0 0 0 101.47461 432.92383 L 135.41406 398.98438 A 16 16 0 0 0 135.41406 376.35547 A 16 16 0 0 0 124.2207 371.66992 z M 191.98047 399.78906 A 16 16 0 0 0 175.98047 415.78906 L 175.98047 463.78906 A 16 16 0 0 0 191.98047 479.78906 A 16 16 0 0 0 207.98047 463.78906 L 207.98047 415.78906 A 16 16 0 0 0 191.98047 399.78906 z "
       id="path24" />
  </g>
  <path
     style="color:#000000;font-style:normal;font-variant:normal;font-weight:normal;font-stretch:normal;font-size:medium;line-height:normal;font-family:sans-serif;font-variant-ligatures:normal;font-variant-position:normal;font-variant-caps:normal;font-variant-numeric:normal;font-variant-alternates:normal;font-variant-east-asian:normal;font-feature-settings:normal;font-variation-settings:normal;text-indent:0;text-align:start;text-decoration:none;text-decoration-line:none;text-decoration-style:solid;text-decoration-color:#000000;letter-spacing:normal;word-spacing:normal;text-transform:none;writing-mode:lr-tb;direction:ltr;text-orientation:mixed;dominant-baseline:auto;baseline-shift:baseline;text-anchor:start;white-space:normal;shape-padding:0;shape-margin:0;inline-size:0;clip-rule:nonzero;display:inline;overflow:visible;visibility:visible;isolation:auto;mix-blend-mode:normal;color-interpolation:sRGB;color-interpolation-filters:linearRGB;solid-color:#000000;solid-opacity:1;vector-effect:none;fill:#000000;fill-opacity:1;fill-rule:nonzero;stroke-width:1;stroke-linecap:butt;stroke-linejoin:miter;stroke-miterlimit:4;stroke-dasharray:none;stroke-dashoffset:0;stroke-opacity:1;color-rendering:auto;image-rendering:auto;shape-rendering:auto;text-rendering:auto;enable-background:accumulate;stop-color:#000000;stop-opacity:1;stroke:none;opacity:1"
     d="m 267.56,312.32 -31.11,31.11 c -6.25011,6.24868 -6.25011,16.38132 0,22.63 l 45.26,45.25 c 6.24754,6.24345 16.37246,6.24345 22.62,0 l 31.12,-31.11 c 1.5642,-1.56246 1.5642,-4.09754 0,-5.66 l -62.23,-62.22 c -1.56246,-1.5642 -4.09754,-1.5642 -5.66,0 z M 131.8,176.55 100.69,207.67 c -6.243446,6.24754 -6.243446,16.37246 0,22.62 l 45.25,45.26 c 6.24868,6.25011 16.38132,6.25011 22.63,0 l 31.11,-31.11 c 1.5642,-1.56246 1.5642,-4.09754 0,-5.66 l -62.22,-62.23 c -1.56246,-1.5642 -4.09754,-1.5642 -5.66,0 z M 428.85,83.28 C 372.62385,26.985755 281.3993,26.958886 225.14,83.22 l -65.06,65.05 c -1.5642,1.56246 -1.5642,4.09754 0,5.66 l 62.23,62.22 c 1.56246,1.5642 4.09754,1.5642 5.66,0 l 65,-65.05 c 18.97379,-18.97255 49.81602,-18.70675 68.46,0.59 18.3,18.92 17.47,49.24 -1.14,67.85 L 295.85,284 c -1.5642,1.56246 -1.5642,4.09754 0,5.66 l 62.22,62.23 c 1.56246,1.5642 4.09754,1.5642 5.66,0 l 64.08,-64.08 c 56.37,-56.34 57.37,-148.13 1.04,-204.53 z"
     id="path6" />
</svg>
