<?xml version="1.0" encoding="UTF-8"?>
<svg width="512px" height="512px" viewBox="0 0 512 512" version="1.1" xmlns="http://www.w3.org/2000/svg" xmlns:xlink="http://www.w3.org/1999/xlink">
    <!-- Generator: Sketch 62 (91390) - https://sketch.com -->
    <title>Artboard</title>
    <desc>Created with Sketch.</desc>
    <g id="Artboard" stroke="none" stroke-width="1" fill="none" fill-rule="evenodd">
        <g id="magnet" transform="translate(28.000000, 45.000000)" fill="#000000" fill-rule="nonzero">
            <path d="M160.98,358.79 C169.711359,358.79 176.809205,365.783901 176.976964,374.475129 L176.98,374.79 L176.98,422.79 C176.98,431.626556 169.816556,438.79 160.98,438.79 C152.248641,438.79 145.150795,431.796099 144.983036,423.104871 L144.98,422.79 L144.98,374.79 C144.98,365.953444 152.143444,358.79 160.98,358.79 Z M104.413708,335.356292 C110.575314,341.517897 110.660892,351.454662 104.670442,357.721133 L104.413708,357.983708 L70.4737085,391.923708 C64.2253198,398.172097 54.0946802,398.172097 47.8462915,391.923708 C41.684686,385.762103 41.5991082,375.825338 47.5895579,369.558867 L47.8462915,369.296292 L81.7862915,335.356292 C88.0346802,329.107903 98.1653198,329.107903 104.413708,335.356292 Z M239.39,270.146853 C240.375806,270.146853 241.324063,270.510754 242.05521,271.164119 L242.22,271.32 L304.45,333.54 C305.201108,334.290273 305.623147,335.308363 305.623147,336.37 C305.623147,337.355806 305.259246,338.304063 304.605881,339.03521 L304.45,339.2 L273.33,370.31 C267.169232,376.466731 257.238039,376.552242 250.972537,370.56653 L250.71,370.31 L205.45,325.06 C202.448628,322.059313 200.762417,317.989097 200.762417,313.745 C200.762417,309.637809 202.341595,305.693463 205.163663,302.723698 L205.45,302.43 L236.56,271.32 C237.310273,270.568892 238.328363,270.146853 239.39,270.146853 Z M296.007432,0.0417280639 C334.214107,0.0529938219 370.850155,15.2474546 397.85,42.28 C453.6167,98.116 453.194267,188.637739 398.484487,245.109236 L396.81,246.81 L332.73,310.89 C331.979727,311.641108 330.961637,312.063147 329.9,312.063147 C328.914194,312.063147 327.965937,311.699246 327.23479,311.045881 L327.07,310.89 L264.85,248.66 C264.098892,247.909727 263.676853,246.891637 263.676853,245.83 C263.676853,244.844194 264.040754,243.895937 264.694119,243.16479 L264.85,243 L329.29,178.54 C347.9,159.93 348.73,129.61 330.43,110.69 C321.485172,101.43199 309.196456,96.1549508 296.323679,96.044011 C283.652039,95.9348046 271.45999,100.840529 262.399094,109.676284 L261.97,110.1 L196.97,175.15 C196.219727,175.901108 195.201637,176.323147 194.14,176.323147 C193.154194,176.323147 192.205937,175.959246 191.47479,175.305881 L191.31,175.15 L129.08,112.93 C128.328892,112.179727 127.906853,111.161637 127.906853,110.1 C127.906853,109.114194 128.270754,108.165937 128.924119,107.43479 L129.08,107.27 L194.14,42.22 C221.155764,15.2033642 257.800757,0.0304873127 296.007432,0.0417280639 Z M64.98,262.79 C73.816556,262.79 80.98,269.953444 80.98,278.79 C80.98,287.521359 73.986099,294.619205 65.2948707,294.786964 L64.98,294.79 L16.98,294.79 C8.143444,294.79 0.98,287.626556 0.98,278.79 C0.98,270.058641 7.97390104,262.960795 16.6651293,262.793036 L16.98,262.79 L64.98,262.79 Z M103.63,134.376853 C104.615806,134.376853 105.564063,134.740754 106.29521,135.394119 L106.46,135.55 L168.68,197.78 C169.431108,198.530273 169.853147,199.548363 169.853147,200.61 C169.853147,201.595806 169.489246,202.544063 168.835881,203.27521 L168.68,203.44 L137.57,234.55 C134.569313,237.551372 130.499097,239.237583 126.255,239.237583 C122.147809,239.237583 118.203463,237.658405 115.233698,234.836337 L114.94,234.55 L69.69,189.29 C63.5332689,183.129232 63.4477588,173.198039 69.4334695,166.932537 L69.69,166.67 L100.8,135.55 C101.550273,134.798892 102.568363,134.376853 103.63,134.376853 Z" id="Combined-Shape"></path>
        </g>
    </g>
</svg>