<?xml version="1.0" encoding="UTF-8"?>
<svg width="512px" height="512px" viewBox="0 0 512 512" version="1.1" xmlns="http://www.w3.org/2000/svg" xmlns:xlink="http://www.w3.org/1999/xlink">
    <!-- Generator: Sketch 62 (91390) - https://sketch.com -->
    <title>Artboard</title>
    <desc>Created with Sketch.</desc>
    <g id="Artboard" stroke="none" stroke-width="1" fill="none" fill-rule="evenodd">
        <g id="magnet-outline" transform="translate(32.000000, 32.000000)" fill="#000000" fill-rule="nonzero">
            <path d="M160,368 C168.8,368 176,375.2 176,384 L176,432 C176,440.8 168.8,448 160,448 C151.2,448 144,440.8 144,432 L144,384 C144,375.2 151.2,368 160,368 Z M103.4,344.6 C109.6,350.8 109.6,361 103.4,367.2 L69.5,401.1 C66.4,404.3 62.3,405.8 58.2,405.8 C54.1,405.8 50,404.2 46.9,401.1 C40.7,394.9 40.7,384.7 46.9,378.5 L80.8,344.6 C87,338.4 97.2,338.4 103.4,344.6 Z M288,0 C330.7,0 370.9,16.6 401.1,46.9 C463.5,109.2 463.5,210.7 401.1,273.1 L378.5,250.5 C428.4,200.6 428.4,119.4 378.5,69.5 C354.3,45.3 322.2,32 288,32 C253.8,32 221.7,45.3 197.5,69.5 L129.573,137.366 L174.85,182.649 L242.7,114.8 L248.386,120.485 L242.8,114.8 C254.8,102.9 270.8,96.4 287.7,96.4 C304.6,96.4 320.5,102.9 332.6,114.8 C344.8,126.8 351.6,142.8 351.7,159.9 C351.9,176.8 345.3,193 333.3,205.2 L321.929,194.028 L333.3,205.4 L265.419,273.16 L310.613,318.347 L378.4,250.5 L401,273.1 L288,386.3 C278.9,395.4 266.9,400.4 254.1,400.4 C241.3,400.4 229.3,395.5 220.3,386.5 C220.3,386.5 220.2,386.4 220.2,386.4 L197.6,363.8 C188.5,354.7 183.5,342.7 183.5,329.9 C183.5,317.1 188.5,305.1 197.5,296 L197.584375,295.915625 C197.59375,295.90625 197.6,295.9 197.6,295.9 L310.601,182.898 L310.5,182.8 C316.5,176.7 319.8,168.6 319.7,160.1 C319.6,151.6 316.2,143.5 310.1,137.6 C297.7,125.4 277.6,125.4 265.2,137.6 L265.15,137.549 L152.2,250.5 C142.9,259.9 130.6,264.5 118.3,264.5 C106,264.5 93.7,259.8 84.4,250.5 L61.7,227.9 C43,209.2 43,178.7 61.7,160 C61.7,160 61.8,159.9 61.8,159.9 L174.9,46.9 C205.1,16.6 245.3,0 288,0 Z M242.77,295.769 L220.1,318.4 C220.1,318.4 220.1,318.4 220,318.5 C213.8,324.7 213.8,334.9 220.1,341.1 L242.6,363.6 L242.7,363.7 L242.7,363.7 C245.7,366.7 249.7,368.4 254,368.4 C258.3,368.4 262.3,366.7 265.3,363.7 L287.994,340.986 L242.77,295.769 Z M64,272 C72.8,272 80,279.2 80,288 C80,296.8 72.8,304 64,304 L16,304 C7.2,304 0,296.8 0,288 C0,279.2 7.2,272 16,272 L64,272 Z M106.934,159.985 L84.3,182.6 L84.2421296,182.65787 C84.2305556,182.669444 84.2166667,182.683333 84.2,182.7 C78,188.9 78,199.1 84.3,205.3 L107,227.9 C113.2,234.1 123.4,234.1 129.6,227.9 L152.221,205.278 L106.934,159.985 Z" id="Combined-Shape"></path>
        </g>
    </g>
</svg>