<?xml version="1.0" encoding="utf-8"?>
<!-- Generator: Adobe Illustrator 24.0.0, SVG Export Plug-In . SVG Version: 6.00 Build 0)  -->
<svg version="1.1" id="Layer_1" xmlns="http://www.w3.org/2000/svg" xmlns:xlink="http://www.w3.org/1999/xlink" x="0px" y="0px"
	 viewBox="0 0 512 512" style="enable-background:new 0 0 512 512;" xml:space="preserve">
<title>ionicons-v5-o</title>
<g>
	<path d="M424,432H88c-30.9,0-56-25.1-56-56V136c0-30.9,25.1-56,56-56h336c30.9,0,56,25.1,56,56v240C480,406.9,454.9,432,424,432z
		 M88,112c-13.2,0-24,10.8-24,24v240c0,13.2,10.8,24,24,24h336c13.2,0,24-10.8,24-24V136c0-13.2-10.8-24-24-24H88z"/>
</g>
<g>
	<path d="M256,288c-3.5,0-6.9-1.1-9.8-3.4l-144-112c-7-5.4-8.2-15.5-2.8-22.5c5.4-7,15.5-8.2,22.5-2.8L256,251.7l134.2-104.4
		c7-5.4,17-4.2,22.5,2.8c5.4,7,4.2,17-2.8,22.5l-144,112C262.9,286.9,259.5,288,256,288z"/>
</g>
</svg>
