<?xml version="1.0" encoding="UTF-8"?>
<svg width="512px" height="512px" viewBox="0 0 512 512" version="1.1" xmlns="http://www.w3.org/2000/svg" xmlns:xlink="http://www.w3.org/1999/xlink">
    <!-- Generator: Sketch 62 (91390) - https://sketch.com -->
    <title>Artboard</title>
    <desc>Created with Sketch.</desc>
    <g id="Artboard" stroke="none" stroke-width="1" fill="none" fill-rule="evenodd">
        <g id="mail-unread-outline" transform="translate(24.000000, 72.000000)" fill="#000000" fill-rule="nonzero">
            <path d="M288,16 C296.8,16 304,23.2 304,32 C304,40.8 296.8,48 288,48 L56,48 C42.8,48 32,58.8 32,72 L32,312 C32,325.2 42.8,336 56,336 L390.7,336 C403.9,336 414.7,325.2 414.7,312 L414.7,175 C414.7,166.2 421.9,159 430.7,159 C439.5,159 446.7,166.2 446.7,175 L446.7,312 C446.7,342.9 421.6,368 390.7,368 L56,368 C25.1,368 0,342.9 0,312 L0,72 C0,41.1 25.1,16 56,16 L288,16 Z M89.9,83.3 L224.2,187.8 L301.4,129.5 C308.5,124.2 318.5,125.6 323.8,132.6 C329.1,139.7 327.7,149.7 320.7,155 L233.7,220.7 C230.8,222.9 227.4,224 224,224 C220.5,224 217.1,222.9 214.2,220.6 L70.2,108.6 C63.2,103.2 62,93.1 67.4,86.1 C72.8,79.1 82.9,77.9 89.9,83.3 Z M400.1,0.1 C435.5,0.1 464,28.7 464,64.1 C463.9,99.4 435.3,128 400,128 C364.7,128 336.1,99.4 336.1,64 C336.1,28.6 364.7,0.1 400.1,0.1 Z" id="Combined-Shape"></path>
        </g>
    </g>
</svg>