<?xml version="1.0" encoding="UTF-8" standalone="no"?>
<svg
   xmlns:dc="http://purl.org/dc/elements/1.1/"
   xmlns:cc="http://creativecommons.org/ns#"
   xmlns:rdf="http://www.w3.org/1999/02/22-rdf-syntax-ns#"
   xmlns:svg="http://www.w3.org/2000/svg"
   xmlns="http://www.w3.org/2000/svg"
   xmlns:sodipodi="http://sodipodi.sourceforge.net/DTD/sodipodi-0.dtd"
   xmlns:inkscape="http://www.inkscape.org/namespaces/inkscape"
   class="ionicon"
   viewBox="0 0 512 512"
   version="1.1"
   id="svg8"
   sodipodi:docname="mail-open-outline.svg"
   inkscape:version="1.0.2 (e86c8708, 2021-01-15)">
  <metadata
     id="metadata14">
    <rdf:RDF>
      <cc:Work
         rdf:about="">
        <dc:format>image/svg+xml</dc:format>
        <dc:type
           rdf:resource="http://purl.org/dc/dcmitype/StillImage" />
      </cc:Work>
    </rdf:RDF>
  </metadata>
  <defs
     id="defs12" />
  <sodipodi:namedview
     pagecolor="#ffffff"
     bordercolor="#666666"
     borderopacity="1"
     objecttolerance="10"
     gridtolerance="10"
     guidetolerance="10"
     inkscape:pageopacity="0"
     inkscape:pageshadow="2"
     inkscape:window-width="689"
     inkscape:window-height="480"
     id="namedview10"
     showgrid="false"
     inkscape:zoom="1.3027344"
     inkscape:cx="256"
     inkscape:cy="256"
     inkscape:window-x="44"
     inkscape:window-y="25"
     inkscape:window-maximized="0"
     inkscape:current-layer="svg8" />
  <title
     id="title2">Mail Open</title>
  <path
     style="color:#000000;font-style:normal;font-variant:normal;font-weight:normal;font-stretch:normal;font-size:medium;line-height:normal;font-family:sans-serif;font-variant-ligatures:normal;font-variant-position:normal;font-variant-caps:normal;font-variant-numeric:normal;font-variant-alternates:normal;font-variant-east-asian:normal;font-feature-settings:normal;font-variation-settings:normal;text-indent:0;text-align:start;text-decoration:none;text-decoration-line:none;text-decoration-style:solid;text-decoration-color:#000000;letter-spacing:normal;word-spacing:normal;text-transform:none;writing-mode:lr-tb;direction:ltr;text-orientation:mixed;dominant-baseline:auto;baseline-shift:baseline;text-anchor:start;white-space:normal;shape-padding:0;shape-margin:0;inline-size:0;clip-rule:nonzero;display:inline;overflow:visible;visibility:visible;isolation:auto;mix-blend-mode:normal;color-interpolation:sRGB;color-interpolation-filters:linearRGB;solid-color:#000000;solid-opacity:1;vector-effect:none;fill:currentColor;fill-opacity:1;fill-rule:nonzero;stroke:none;stroke-linecap:round;stroke-linejoin:round;stroke-miterlimit:4;stroke-dasharray:none;stroke-dashoffset:0;stroke-opacity:1;color-rendering:auto;image-rendering:auto;shape-rendering:auto;text-rendering:auto;enable-background:accumulate;stop-color:#000000;stop-opacity:1;opacity:1"
     d="M 256 66.839844 C 249.85145 66.839844 243.70222 68.233555 238.05078 71.021484 A 16.0016 16.0016 0 0 0 238.04883 71.021484 L 63.359375 157.24219 C 44.260098 166.60027 32.074457 186.06545 32 207.33398 A 16.0016 16.0016 0 0 0 32 207.39062 L 32 392 C 32 422.84932 57.603338 448 88.519531 448 L 423.51953 448 C 454.43572 448 480.03906 422.84932 480.03906 392 L 480.03906 207.39062 A 16.0016 16.0016 0 0 0 480.03906 207.32617 C 479.95413 186.04515 467.744 166.57665 448.62305 157.23438 L 448.68164 157.26172 L 273.95117 71.021484 A 16.0016 16.0016 0 0 0 273.94922 71.021484 C 268.29778 68.233555 262.14855 66.839844 256 66.839844 z M 256 98.830078 C 257.29522 98.830078 258.59001 99.126279 259.79102 99.71875 L 434.51953 185.95703 A 16.0016 16.0016 0 0 0 434.57617 185.98633 C 442.81103 190.00978 447.9972 198.27524 448.03906 207.43945 L 448.03906 392 C 448.03906 405.33068 437.36334 416 423.51953 416 L 88.519531 416 C 74.675724 416 64 405.33068 64 392 L 64 207.44531 C 64.032083 198.28096 69.209805 190.0108 77.439453 185.97852 A 16.0016 16.0016 0 0 0 77.480469 185.95703 L 252.20898 99.71875 C 253.40999 99.126279 254.70478 98.830078 256 98.830078 z "
     id="path4" />
  <path
     style="color:#000000;font-style:normal;font-variant:normal;font-weight:normal;font-stretch:normal;font-size:medium;line-height:normal;font-family:sans-serif;font-variant-ligatures:normal;font-variant-position:normal;font-variant-caps:normal;font-variant-numeric:normal;font-variant-alternates:normal;font-variant-east-asian:normal;font-feature-settings:normal;font-variation-settings:normal;text-indent:0;text-align:start;text-decoration:none;text-decoration-line:none;text-decoration-style:solid;text-decoration-color:#000000;letter-spacing:normal;word-spacing:normal;text-transform:none;writing-mode:lr-tb;direction:ltr;text-orientation:mixed;dominant-baseline:auto;baseline-shift:baseline;text-anchor:start;white-space:normal;shape-padding:0;shape-margin:0;inline-size:0;clip-rule:nonzero;display:inline;overflow:visible;visibility:visible;isolation:auto;mix-blend-mode:normal;color-interpolation:sRGB;color-interpolation-filters:linearRGB;solid-color:#000000;solid-opacity:1;vector-effect:none;fill:currentColor;fill-opacity:1;fill-rule:nonzero;stroke:none;stroke-linecap:round;stroke-linejoin:round;stroke-miterlimit:4;stroke-dasharray:none;stroke-dashoffset:0;stroke-opacity:1;color-rendering:auto;image-rendering:auto;shape-rendering:auto;text-rendering:auto;enable-background:accumulate;stop-color:#000000;stop-opacity:1;opacity:1"
     d="M 61.253906 176 A 16 16 0 0 0 48.5625 182.35547 A 16 16 0 0 0 51.685547 204.76758 L 174.17578 297.29688 L 99.507812 355.37109 A 16 16 0 0 0 96.701172 377.82227 A 16 16 0 0 0 119.15234 380.62891 L 248.42188 280.08984 A 16.0016 16.0016 0 0 0 248.42383 280.08984 C 251.37687 277.79293 255.29305 277.79293 258.24609 280.08984 L 387.50586 380.62891 A 16 16 0 0 0 409.95898 377.82422 A 16 16 0 0 0 407.1543 355.37109 L 332.64258 297.41406 L 454.99023 204.75391 A 16 16 0 0 0 458.08398 182.33984 A 16 16 0 0 0 435.66992 179.24609 L 306.49414 277.07812 L 277.89258 254.83008 C 263.51199 243.64465 243.15794 243.64465 228.77734 254.83008 L 200.33594 276.95117 L 70.974609 179.23242 A 16 16 0 0 0 61.253906 176 z "
     id="path6" />
</svg>
