<?xml version="1.0" encoding="UTF-8"?>
<svg width="512px" height="512px" viewBox="0 0 512 512" version="1.1" xmlns="http://www.w3.org/2000/svg" xmlns:xlink="http://www.w3.org/1999/xlink">
    <!-- Generator: Sketch 62 (91390) - https://sketch.com -->
    <title>Artboard</title>
    <desc>Created with Sketch.</desc>
    <g id="Artboard" stroke="none" stroke-width="1" fill="none" fill-rule="evenodd">
        <g id="mail-open-outline" transform="translate(32.000000, 65.000000)" fill="#000000" fill-rule="nonzero">
            <path d="M241.9,5 L416.6,91.2 C435.9,100.6 447.9,119.8 448,141.3 L448,326 C448,356.9 422.7,382 391.5,382 L56.5,382 C25.4,382 0,356.9 0,326 L0,141.4 C0.1,119.9 12.1,100.7 31.4,91.3 L206,5 C217.2,-0.5 230.7,-0.5 241.9,5 Z M416,144.026 L300.67,231.371 L375.2,289.3 C382.2,294.7 383.4,304.8 378,311.8 C372.6,318.8 362.5,320 355.5,314.6 L226.2,214.1 C223.3,211.9 219.3,211.9 216.4,214.1 L87.2,314.6 C84.2,316.9 80.8,318 77.3,318 C72.5,318 67.8,315.9 64.7,311.8 C59.3,304.8 60.5,294.8 67.5,289.3 L142.136,231.288 L32,148.091 L32,326 C32,339.2 43,350 56.5,350 L391.5,350 C405,350 416,339.2 416,326 L416,144.026 Z M224,32.8 C222.7,32.8 221.4,33.1 220.2,33.7 L46.932,119.292 L168.287,210.962 L196.8,188.8 C211.3,177.6 231.5,177.6 245.9,188.8 L274.529,211.052 L397.774,117.712 L227.8,33.7 C226.6,33.1 225.3,32.8 224,32.8 Z" id="Combined-Shape"></path>
        </g>
    </g>
</svg>