<?xml version="1.0" encoding="UTF-8" standalone="no"?>
<svg
   xmlns:dc="http://purl.org/dc/elements/1.1/"
   xmlns:cc="http://creativecommons.org/ns#"
   xmlns:rdf="http://www.w3.org/1999/02/22-rdf-syntax-ns#"
   xmlns:svg="http://www.w3.org/2000/svg"
   xmlns="http://www.w3.org/2000/svg"
   xmlns:sodipodi="http://sodipodi.sourceforge.net/DTD/sodipodi-0.dtd"
   xmlns:inkscape="http://www.inkscape.org/namespaces/inkscape"
   class="ionicon"
   viewBox="0 0 512 512"
   version="1.1"
   id="svg8"
   sodipodi:docname="mail-unread.svg"
   inkscape:version="1.0.2 (e86c8708, 2021-01-15)">
  <metadata
     id="metadata14">
    <rdf:RDF>
      <cc:Work
         rdf:about="">
        <dc:format>image/svg+xml</dc:format>
        <dc:type
           rdf:resource="http://purl.org/dc/dcmitype/StillImage" />
      </cc:Work>
    </rdf:RDF>
  </metadata>
  <defs
     id="defs12" />
  <sodipodi:namedview
     pagecolor="#ffffff"
     bordercolor="#666666"
     borderopacity="1"
     objecttolerance="10"
     gridtolerance="10"
     guidetolerance="10"
     inkscape:pageopacity="0"
     inkscape:pageshadow="2"
     inkscape:window-width="689"
     inkscape:window-height="480"
     id="namedview10"
     showgrid="false"
     inkscape:zoom="1.3027344"
     inkscape:cx="256"
     inkscape:cy="256"
     inkscape:window-x="44"
     inkscape:window-y="25"
     inkscape:window-maximized="0"
     inkscape:current-layer="svg8" />
  <title
     id="title2">Mail Unread</title>
  <path
     style="color:#000000;font-style:normal;font-variant:normal;font-weight:normal;font-stretch:normal;font-size:medium;line-height:normal;font-family:sans-serif;font-variant-ligatures:normal;font-variant-position:normal;font-variant-caps:normal;font-variant-numeric:normal;font-variant-alternates:normal;font-variant-east-asian:normal;font-feature-settings:normal;font-variation-settings:normal;text-indent:0;text-align:start;text-decoration:none;text-decoration-line:none;text-decoration-style:solid;text-decoration-color:#000000;letter-spacing:normal;word-spacing:normal;text-transform:none;writing-mode:lr-tb;direction:ltr;text-orientation:mixed;dominant-baseline:auto;baseline-shift:baseline;text-anchor:start;white-space:normal;shape-padding:0;shape-margin:0;inline-size:0;clip-rule:nonzero;display:inline;overflow:visible;visibility:visible;isolation:auto;mix-blend-mode:normal;color-interpolation:sRGB;color-interpolation-filters:linearRGB;solid-color:#000000;solid-opacity:1;vector-effect:none;fill:#000000;fill-opacity:1;fill-rule:nonzero;stroke-width:1;stroke-linecap:butt;stroke-linejoin:miter;stroke-miterlimit:4;stroke-dasharray:none;stroke-dashoffset:0;stroke-opacity:1;color-rendering:auto;image-rendering:auto;shape-rendering:auto;text-rendering:auto;enable-background:accumulate;stop-color:#000000;stop-opacity:1;stroke:none;opacity:1"
     d="M 496,128.05 C 496.03637,102.86429 481.29793,79.998835 458.345,69.631393 435.39206,59.263951 408.49261,63.322297 389.62,80 c -5.00205,4.412364 -9.28966,9.573683 -12.71,15.3 v 0.06 c -0.54,0.9 -1.05,1.82 -1.55,2.74 l -0.24,0.49 c -0.42,0.79 -0.81,1.59 -1.19,2.4 -0.12,0.25 -0.23,0.5 -0.34,0.75 -0.33,0.73 -0.65,1.47 -0.95,2.22 -0.13,0.31 -0.25,0.62 -0.37,0.93 -0.27,0.7 -0.53,1.4 -0.78,2.11 l -0.36,1.06 c -0.22,0.68 -0.43,1.37 -0.63,2.06 -0.12,0.39 -0.23,0.77 -0.33,1.16 -0.19,0.67 -0.35,1.35 -0.51,2 -0.1,0.41 -0.2,0.82 -0.29,1.23 -0.14,0.68 -0.27,1.37 -0.39,2 -0.08,0.42 -0.16,0.84 -0.23,1.26 -0.11,0.7 -0.2,1.41 -0.29,2.12 -0.05,0.41 -0.11,0.82 -0.16,1.24 -0.08,0.77 -0.13,1.54 -0.19,2.32 0,0.36 -0.06,0.72 -0.08,1.08 -0.06,1.14 -0.1,2.28 -0.1,3.44 0,1 0,2 0.08,2.94 v 0.64 c 0.0533,0.94 0.12333,1.88 0.21,2.82 l 0.06,0.48 c 0.09,0.85 0.19,1.69 0.32,2.52 0,0.17 0,0.35 0.07,0.52 0.14,0.91 0.31,1.81 0.49,2.71 0,0.22 0.09,0.43 0.13,0.65 0.18,0.86 0.38,1.72 0.6,2.57 v 0.19 c 0.23,0.89 0.48,1.76 0.75,2.63 l 0.21,0.68 c 0.27,0.85 0.55,1.68 0.85,2.51 0.06,0.18 0.13,0.36 0.2,0.54 0.27,0.71 0.55,1.42 0.84,2.12 0.08,0.21 0.16,0.41 0.25,0.61 0.34,0.79 0.69,1.58 1.06,2.36 l 0.33,0.67 c 0.35,0.7 0.7,1.4 1.07,2.09 5.21991,9.70121 12.84331,17.89964 22.14,23.81 2.44033,1.55897 4.98652,2.94567 7.62,4.15 l 0.39,0.18 c 1.77333,0.8 3.58333,1.52 5.43,2.16 l 0.95,0.32 1.5,0.47 c 0.45,0.14 0.9,0.26 1.36,0.39 l 1.92,0.5 1.73,0.4 1.15,0.23 1.83,0.33 0.94,0.15 c 0.9,0.13 1.81,0.25 2.72,0.35 l 0.77,0.07 c 0.73,0.06 1.47,0.12 2.21,0.16 l 0.86,0.05 c 1,0 1.94,0.08 2.92,0.08 1.16,0 2.3,0 3.44,-0.1 l 1.08,-0.08 c 0.78,-0.06 1.55,-0.11 2.32,-0.19 l 1.25,-0.16 c 0.7,-0.09 1.41,-0.18 2.11,-0.29 l 1.26,-0.23 c 0.68,-0.12 1.37,-0.25 2,-0.39 l 1.23,-0.29 c 0.68,-0.16 1.36,-0.32 2,-0.51 0.39,-0.1 0.77,-0.21 1.16,-0.33 0.69,-0.2 1.38,-0.41 2.06,-0.63 l 1.06,-0.36 c 0.71,-0.25 1.41,-0.51 2.11,-0.78 l 0.93,-0.37 c 0.75,-0.3 1.49,-0.62 2.22,-0.95 l 0.75,-0.34 c 0.81,-0.38 1.61,-0.77 2.4,-1.19 l 0.49,-0.24 c 0.92,-0.5 1.84,-1 2.74,-1.55 h 0.06 c 5.77241,-3.39325 10.98144,-7.66438 15.44,-12.66 10.32553,-11.68152 16.01706,-26.73916 16,-42.33 z"
     id="path4" />
  <path
     style="color:#000000;font-style:normal;font-variant:normal;font-weight:normal;font-stretch:normal;font-size:medium;line-height:normal;font-family:sans-serif;font-variant-ligatures:normal;font-variant-position:normal;font-variant-caps:normal;font-variant-numeric:normal;font-variant-alternates:normal;font-variant-east-asian:normal;font-feature-settings:normal;font-variation-settings:normal;text-indent:0;text-align:start;text-decoration:none;text-decoration-line:none;text-decoration-style:solid;text-decoration-color:#000000;letter-spacing:normal;word-spacing:normal;text-transform:none;writing-mode:lr-tb;direction:ltr;text-orientation:mixed;dominant-baseline:auto;baseline-shift:baseline;text-anchor:start;white-space:normal;shape-padding:0;shape-margin:0;inline-size:0;clip-rule:nonzero;display:inline;overflow:visible;visibility:visible;isolation:auto;mix-blend-mode:normal;color-interpolation:sRGB;color-interpolation-filters:linearRGB;solid-color:#000000;solid-opacity:1;vector-effect:none;fill:#000000;fill-opacity:1;fill-rule:nonzero;stroke-width:1;stroke-linecap:butt;stroke-linejoin:miter;stroke-miterlimit:4;stroke-dasharray:none;stroke-dashoffset:0;stroke-opacity:1;color-rendering:auto;image-rendering:auto;shape-rendering:auto;text-rendering:auto;enable-background:accumulate;stop-color:#000000;stop-opacity:1;stroke:none;opacity:1"
     d="m 371.38,202.53 -105.56,82.1 c -5.77658,4.49066 -13.86342,4.49066 -19.64,0 l -144,-112 C 95.05803,167.25166 93.712969,157.08639 99.190997,150.04082 104.66902,142.99525 114.85221,141.79336 121.82,147.37 L 256,251.73 350.22,178.45 C 331.64499,148.4002 331.10317,110.56942 348.81,80 H 88 c -30.914238,0.03307 -55.966931,25.08576 -56,56 v 240 c 0.03307,30.91424 25.085762,55.96693 56,56 h 336 c 30.91424,-0.0331 55.96693,-25.08576 56,-56 V 211.19 c -34.48606,19.97575 -77.7347,16.52764 -108.62,-8.66 z"
     id="path6" />
</svg>
