<?xml version="1.0" encoding="utf-8"?>
<!-- Generator: Adobe Illustrator 24.0.0, SVG Export Plug-In . SVG Version: 6.00 Build 0)  -->
<svg version="1.1" id="Layer_1" xmlns="http://www.w3.org/2000/svg" xmlns:xlink="http://www.w3.org/1999/xlink" x="0px" y="0px"
	 viewBox="0 0 512 512" style="enable-background:new 0 0 512 512;" xml:space="preserve">
<title>male-outline</title>
<g>
	<path d="M216,464c-92.6,0-168-75.4-168-168s75.4-168,168-168s168,75.4,168,168S308.6,464,216,464z M216,160c-75,0-136,61-136,136
		c0,75,61,136,136,136c75,0,136-61,136-136C352,221,291,160,216,160z"/>
</g>
<g>
	<path d="M448,176c-8.8,0-16-7.2-16-16V80h-80c-8.8,0-16-7.2-16-16s7.2-16,16-16h96c8.8,0,16,7.2,16,16v96
		C464,168.8,456.8,176,448,176z"/>
</g>
<g>
	<path d="M324,204c-4.1,0-8.2-1.6-11.3-4.7c-6.2-6.2-6.2-16.4,0-22.6l124-124c6.2-6.2,16.4-6.2,22.6,0c6.2,6.2,6.2,16.4,0,22.6
		l-124,124C332.2,202.4,328.1,204,324,204z"/>
</g>
</svg>
