<?xml version="1.0" encoding="utf-8"?>
<!-- Generator: Adobe Illustrator 24.0.0, SVG Export Plug-In . SVG Version: 6.00 Build 0)  -->
<svg version="1.1" id="Layer_1" xmlns="http://www.w3.org/2000/svg" xmlns:xlink="http://www.w3.org/1999/xlink" x="0px" y="0px"
	 viewBox="0 0 512 512" style="enable-background:new 0 0 512 512;" xml:space="preserve">
<title>ionicons-v5-k</title>
<g>
	<path d="M216,352c-83.8,0-152-68.2-152-152c0-83.8,68.2-152,152-152c83.8,0,152,68.2,152,152C368,283.8,299.8,352,216,352z M216,80
		c-66.2,0-120,53.8-120,120s53.8,120,120,120s120-53.8,120-120S282.2,80,216,80z"/>
</g>
<g>
	<path d="M216,496c-8.8,0-16-7.2-16-16V352c0-8.8,7.2-16,16-16s16,7.2,16,16v128C232,488.8,224.8,496,216,496z"/>
</g>
<g>
	<path d="M272,432H160c-8.8,0-16-7.2-16-16s7.2-16,16-16h112c8.8,0,16,7.2,16,16S280.8,432,272,432z"/>
</g>
<g>
	<path d="M432,128c-8.8,0-16-7.2-16-16V48h-64c-8.8,0-16-7.2-16-16s7.2-16,16-16h80c8.8,0,16,7.2,16,16v80
		C448,120.8,440.8,128,432,128z"/>
</g>
<g>
	<path d="M335.3,144.7c-4.1,0-8.2-1.6-11.3-4.7c-6.2-6.2-6.2-16.4,0-22.6l96.7-96.7c6.2-6.2,16.4-6.2,22.6,0
		c6.2,6.2,6.2,16.4,0,22.6L346.6,140C343.5,143.2,339.4,144.7,335.3,144.7z"/>
</g>
</svg>
