<?xml version="1.0" encoding="UTF-8" standalone="no"?>
<svg
   xmlns:dc="http://purl.org/dc/elements/1.1/"
   xmlns:cc="http://creativecommons.org/ns#"
   xmlns:rdf="http://www.w3.org/1999/02/22-rdf-syntax-ns#"
   xmlns:svg="http://www.w3.org/2000/svg"
   xmlns="http://www.w3.org/2000/svg"
   xmlns:sodipodi="http://sodipodi.sourceforge.net/DTD/sodipodi-0.dtd"
   xmlns:inkscape="http://www.inkscape.org/namespaces/inkscape"
   class="ionicon"
   viewBox="0 0 512 512"
   version="1.1"
   id="svg8"
   sodipodi:docname="male-outline.svg"
   inkscape:version="1.0.2 (e86c8708, 2021-01-15)">
  <metadata
     id="metadata14">
    <rdf:RDF>
      <cc:Work
         rdf:about="">
        <dc:format>image/svg+xml</dc:format>
        <dc:type
           rdf:resource="http://purl.org/dc/dcmitype/StillImage" />
      </cc:Work>
    </rdf:RDF>
  </metadata>
  <defs
     id="defs12" />
  <sodipodi:namedview
     pagecolor="#ffffff"
     bordercolor="#666666"
     borderopacity="1"
     objecttolerance="10"
     gridtolerance="10"
     guidetolerance="10"
     inkscape:pageopacity="0"
     inkscape:pageshadow="2"
     inkscape:window-width="689"
     inkscape:window-height="480"
     id="namedview10"
     showgrid="false"
     inkscape:zoom="1.3027344"
     inkscape:cx="256"
     inkscape:cy="256"
     inkscape:window-x="44"
     inkscape:window-y="25"
     inkscape:window-maximized="0"
     inkscape:current-layer="svg8" />
  <title
     id="title2">Male</title>
  <path
     style="color:#000000;font-style:normal;font-variant:normal;font-weight:normal;font-stretch:normal;font-size:medium;line-height:normal;font-family:sans-serif;font-variant-ligatures:normal;font-variant-position:normal;font-variant-caps:normal;font-variant-numeric:normal;font-variant-alternates:normal;font-variant-east-asian:normal;font-feature-settings:normal;font-variation-settings:normal;text-indent:0;text-align:start;text-decoration:none;text-decoration-line:none;text-decoration-style:solid;text-decoration-color:#000000;letter-spacing:normal;word-spacing:normal;text-transform:none;writing-mode:lr-tb;direction:ltr;text-orientation:mixed;dominant-baseline:auto;baseline-shift:baseline;text-anchor:start;white-space:normal;shape-padding:0;shape-margin:0;inline-size:0;clip-rule:nonzero;display:inline;overflow:visible;visibility:visible;isolation:auto;mix-blend-mode:normal;color-interpolation:sRGB;color-interpolation-filters:linearRGB;solid-color:#000000;solid-opacity:1;vector-effect:none;fill:currentColor;fill-opacity:1;fill-rule:nonzero;stroke:none;stroke-linecap:round;stroke-linejoin:round;stroke-miterlimit:4;stroke-dasharray:none;stroke-dashoffset:0;stroke-opacity:1;color-rendering:auto;image-rendering:auto;shape-rendering:auto;text-rendering:auto;enable-background:accumulate;stop-color:#000000;stop-opacity:1;opacity:1"
     d="M 216 128 C 123.40568 128 48 203.40568 48 296 C 48 388.59432 123.40568 464 216 464 C 308.59432 464 384 388.59432 384 296 C 384 203.40568 308.59432 128 216 128 z M 216 160 C 291.30024 160 352 220.69976 352 296 C 352 371.30024 291.30024 432 216 432 C 140.69976 432 80 371.30024 80 296 C 80 220.69976 140.69976 160 216 160 z "
     id="circle4" />
  <path
     style="color:#000000;font-style:normal;font-variant:normal;font-weight:normal;font-stretch:normal;font-size:medium;line-height:normal;font-family:sans-serif;font-variant-ligatures:normal;font-variant-position:normal;font-variant-caps:normal;font-variant-numeric:normal;font-variant-alternates:normal;font-variant-east-asian:normal;font-feature-settings:normal;font-variation-settings:normal;text-indent:0;text-align:start;text-decoration:none;text-decoration-line:none;text-decoration-style:solid;text-decoration-color:#000000;letter-spacing:normal;word-spacing:normal;text-transform:none;writing-mode:lr-tb;direction:ltr;text-orientation:mixed;dominant-baseline:auto;baseline-shift:baseline;text-anchor:start;white-space:normal;shape-padding:0;shape-margin:0;inline-size:0;clip-rule:nonzero;display:inline;overflow:visible;visibility:visible;isolation:auto;mix-blend-mode:normal;color-interpolation:sRGB;color-interpolation-filters:linearRGB;solid-color:#000000;solid-opacity:1;vector-effect:none;fill:currentColor;fill-opacity:1;fill-rule:nonzero;stroke:none;stroke-linecap:round;stroke-linejoin:round;stroke-miterlimit:4;stroke-dasharray:none;stroke-dashoffset:0;stroke-opacity:1;color-rendering:auto;image-rendering:auto;shape-rendering:auto;text-rendering:auto;enable-background:accumulate;stop-color:#000000;stop-opacity:1;opacity:1"
     d="M 352 48 A 16 16 0 0 0 336 64 A 16 16 0 0 0 352 80 L 409.37109 80 L 312.68555 176.68555 A 16 16 0 0 0 312.68555 199.31445 A 16 16 0 0 0 335.31445 199.31445 L 432 102.62891 L 432 160 A 16 16 0 0 0 448 176 A 16 16 0 0 0 464 160 L 464 64.121094 A 16 16 0 0 0 463.99805 63.878906 A 16.0016 16.0016 0 0 0 463.99805 63.785156 A 16 16 0 0 0 463.99609 63.664062 A 16.0016 16.0016 0 0 0 463.99023 63.449219 A 16 16 0 0 0 463.98828 63.427734 A 16.0016 16.0016 0 0 0 463.97461 63.113281 A 16.0016 16.0016 0 0 0 463.95703 62.830078 A 16.0016 16.0016 0 0 0 463.95312 62.777344 A 16 16 0 0 0 463.94336 62.65625 A 16.0016 16.0016 0 0 0 463.92383 62.441406 A 16 16 0 0 0 463.92188 62.416016 A 16.0016 16.0016 0 0 0 463.88672 62.107422 A 16.0016 16.0016 0 0 0 463.85156 61.833984 A 16.0016 16.0016 0 0 0 463.84375 61.773438 A 16 16 0 0 0 463.82617 61.654297 A 16 16 0 0 0 463.77344 61.322266 A 16.0016 16.0016 0 0 0 463.73633 61.109375 A 16 16 0 0 0 463.73242 61.083984 A 16.0016 16.0016 0 0 0 463.68359 60.839844 A 16.0016 16.0016 0 0 0 463.67188 60.779297 A 16 16 0 0 0 463.64648 60.660156 A 16.0016 16.0016 0 0 0 463.60156 60.451172 A 16 16 0 0 0 463.57422 60.332031 A 16.0016 16.0016 0 0 0 463.52344 60.123047 A 16 16 0 0 0 463.51562 60.095703 A 16.0016 16.0016 0 0 0 463.4375 59.798828 A 16 16 0 0 0 463.40625 59.681641 A 16.0016 16.0016 0 0 0 463.38086 59.59375 A 16 16 0 0 0 463.32031 59.384766 A 16 16 0 0 0 463.3125 59.359375 A 16.0016 16.0016 0 0 0 463.24805 59.152344 A 16 16 0 0 0 463.21094 59.037109 A 16.0016 16.0016 0 0 0 463.14258 58.833984 A 16 16 0 0 0 463.10352 58.71875 A 16.0016 16.0016 0 0 0 463.07227 58.632812 A 16 16 0 0 0 462.98828 58.402344 A 16.0016 16.0016 0 0 0 462.91211 58.201172 A 16 16 0 0 0 462.86719 58.087891 A 16.0016 16.0016 0 0 0 462.78711 57.888672 A 16 16 0 0 0 462.74023 57.777344 A 16.0016 16.0016 0 0 0 462.72852 57.75 A 16 16 0 0 0 462.60547 57.46875 A 16 16 0 0 0 462.46484 57.164062 A 16 16 0 0 0 462.31836 56.861328 A 16.0016 16.0016 0 0 0 462.22266 56.669922 A 16 16 0 0 0 462.16602 56.560547 A 16.0016 16.0016 0 0 0 462.06445 56.371094 A 16 16 0 0 0 462.00586 56.265625 A 16.0016 16.0016 0 0 0 461.90039 56.078125 A 16 16 0 0 0 461.83984 55.972656 A 16.0016 16.0016 0 0 0 461.82812 55.953125 A 16 16 0 0 0 461.66797 55.683594 A 16 16 0 0 0 461.49023 55.398438 A 16 16 0 0 0 461.30664 55.117188 A 16 16 0 0 0 461.125 54.849609 A 16 16 0 0 0 461.11719 54.837891 A 16.0016 16.0016 0 0 0 460.99219 54.662109 A 16 16 0 0 0 460.92188 54.564453 A 16.0016 16.0016 0 0 0 460.79492 54.392578 A 16 16 0 0 0 460.7207 54.294922 A 16.0016 16.0016 0 0 0 460.58984 54.125 A 16 16 0 0 0 460.51367 54.029297 A 16.0016 16.0016 0 0 0 460.37891 53.863281 A 16 16 0 0 0 460.30078 53.769531 A 16.0016 16.0016 0 0 0 460.16211 53.605469 A 16 16 0 0 0 460.08203 53.513672 A 16 16 0 0 0 459.85938 53.263672 A 16 16 0 0 0 459.85938 53.261719 A 16.0016 16.0016 0 0 0 459.71484 53.103516 A 16 16 0 0 0 459.63086 53.013672 A 16.0016 16.0016 0 0 0 459.48438 52.859375 A 16 16 0 0 0 459.39844 52.771484 A 16 16 0 0 0 459.31445 52.685547 A 16 16 0 0 0 459.16016 52.535156 A 16 16 0 0 0 458.93359 52.320312 A 16 16 0 0 0 458.91602 52.302734 A 16.0016 16.0016 0 0 0 458.82812 52.220703 A 16 16 0 0 0 458.66797 52.076172 A 16.0016 16.0016 0 0 0 458.57812 51.996094 A 16 16 0 0 0 458.41406 51.853516 A 16 16 0 0 0 458.15625 51.638672 A 16 16 0 0 0 457.90039 51.433594 A 16 16 0 0 0 457.89453 51.427734 A 16.0016 16.0016 0 0 0 457.89062 51.423828 A 16 16 0 0 0 457.6582 51.246094 A 16 16 0 0 0 457.62891 51.222656 A 16.0016 16.0016 0 0 0 457.5332 51.150391 A 16 16 0 0 0 457.35742 51.021484 A 16.0016 16.0016 0 0 0 457.32617 51 A 16 16 0 0 0 457.08203 50.828125 A 16 16 0 0 0 456.80273 50.640625 A 16 16 0 0 0 456.52148 50.458984 A 16 16 0 0 0 456.23438 50.283203 A 16.0016 16.0016 0 0 0 456.13086 50.220703 A 16 16 0 0 0 455.94336 50.111328 A 16.0016 16.0016 0 0 0 455.83984 50.052734 A 16 16 0 0 0 455.65039 49.947266 A 16.0016 16.0016 0 0 0 455.54492 49.890625 A 16 16 0 0 0 455.35352 49.791016 A 16.0016 16.0016 0 0 0 455.24609 49.736328 A 16 16 0 0 0 455.05273 49.638672 A 16.0016 16.0016 0 0 0 455.00977 49.617188 A 16 16 0 0 0 454.79297 49.513672 A 16 16 0 0 0 454.75 49.494141 A 16.0016 16.0016 0 0 0 454.64062 49.443359 A 16 16 0 0 0 454.44336 49.355469 A 16 16 0 0 0 454.17188 49.238281 A 16 16 0 0 0 454.13281 49.222656 A 16.0016 16.0016 0 0 0 454.02344 49.177734 A 16 16 0 0 0 453.82227 49.097656 A 16.0016 16.0016 0 0 0 453.71094 49.054688 A 16 16 0 0 0 453.50781 48.978516 A 16.0016 16.0016 0 0 0 453.39453 48.9375 A 16 16 0 0 0 453.18945 48.865234 A 16.0016 16.0016 0 0 0 453.18359 48.863281 A 16 16 0 0 0 452.87109 48.759766 A 16 16 0 0 0 452.58594 48.671875 A 16 16 0 0 0 452.54883 48.660156 A 16.0016 16.0016 0 0 0 452.43555 48.626953 A 16 16 0 0 0 452.22656 48.568359 A 16.0016 16.0016 0 0 0 452.11133 48.537109 A 16 16 0 0 0 451.90039 48.482422 A 16.0016 16.0016 0 0 0 451.87891 48.476562 A 16 16 0 0 0 451.6582 48.423828 A 16 16 0 0 0 451.57422 48.404297 A 16.0016 16.0016 0 0 0 451.45703 48.378906 A 16.0016 16.0016 0 0 0 451.17773 48.318359 A 16.0016 16.0016 0 0 0 451.12891 48.308594 A 16 16 0 0 0 450.91406 48.267578 A 16.0016 16.0016 0 0 0 450.87891 48.261719 A 16 16 0 0 0 450.59766 48.212891 A 16 16 0 0 0 450.58398 48.210938 A 16.0016 16.0016 0 0 0 450.57617 48.208984 A 16 16 0 0 0 450.25195 48.160156 A 16 16 0 0 0 450 48.126953 A 16 16 0 0 0 449.91797 48.115234 A 16.0016 16.0016 0 0 0 449.79883 48.101562 A 16 16 0 0 0 449.58398 48.078125 A 16.0016 16.0016 0 0 0 449.53906 48.074219 A 16 16 0 0 0 449.24805 48.048828 A 16 16 0 0 0 449.00391 48.03125 A 16.0016 16.0016 0 0 0 448.82031 48.021484 A 16.0016 16.0016 0 0 0 448.79297 48.019531 A 16 16 0 0 0 448.52148 48.007812 A 16 16 0 0 0 448.26172 48.001953 A 16 16 0 0 0 448.24023 48.001953 A 16.0016 16.0016 0 0 0 448 48 L 352 48 z "
     id="path6" />
</svg>
