<?xml version="1.0" encoding="utf-8"?>
<!-- Generator: Adobe Illustrator 24.0.0, SVG Export Plug-In . SVG Version: 6.00 Build 0)  -->
<svg version="1.1" id="Layer_1" xmlns="http://www.w3.org/2000/svg" xmlns:xlink="http://www.w3.org/1999/xlink" x="0px" y="0px"
	 viewBox="0 0 512 512" style="enable-background:new 0 0 512 512;" xml:space="preserve">
<title>ionicons-v5-j</title>
<g>
	<path d="M232.3,512c-0.2,0-0.4,0-0.6,0c-0.1,0-0.3,0-0.4,0c-21.9-0.3-39.5-18.2-39.3-40.1V208c0-8.8,7.2-16,16-16s16,7.2,16,16
		l0,264.2c0,4.3,3.4,7.8,7.6,7.8h0.5c0,0,0.1,0,0.1,0c2.7,0,4.6-1.4,5.4-2.2c0.9-0.8,2.3-2.7,2.3-5.4v-0.2
		c-0.1-8.8,7-16.1,15.8-16.2c8.8-0.1,16.1,7,16.2,15.8c0,0.3,0,0.6,0,0.9c-0.1,10.6-4.4,20.6-12,28C252.6,508,242.7,512,232.3,512z"
		/>
</g>
<g>
	<path d="M280.3,512c-0.2,0-0.4,0-0.6,0c-0.1,0-0.3,0-0.4,0c-21.9-0.3-39.5-18.2-39.3-40.1V336c0-8.8,7.2-16,16-16
		c8.8,0,16,7.2,16,16l0,136.2c0,4.3,3.4,7.8,7.6,7.8h0.5c2.8,0,4.6-1.4,5.5-2.2c0.9-0.8,2.3-2.7,2.3-5.4l0-264.4c0-8.8,7.2-16,16-16
		s16,7.2,16,16v263.9c0,0.3,0,0.5,0,0.8c-0.1,10.6-4.4,20.6-12,28C300.6,508,290.7,512,280.3,512z"/>
</g>
<g>
	<path d="M327.7,320c-21.7,0-39.5-17.5-39.7-39.2c0-0.3,0-0.6,0-0.8V192c0-8.8,7.2-16,16-16s16,7.2,16,16l0,88.4
		c0,2.8,1.5,4.6,2.3,5.4c0.8,0.8,2.7,2.2,5.4,2.2c0,0,0.1,0,0.1,0l0.2,0l0.4,0c4.2,0,7.7-3.6,7.6-7.8l0-0.2v-88
		c0-17.6-14.4-32-32-32h-96c-17.6,0-32,14.4-32,32l0,88.4c0.1,4.3,3.6,7.7,7.8,7.6l0.2,0l0.4,0c2.8,0,4.6-1.5,5.4-2.3
		s2.2-2.7,2.2-5.5l0-0.2v-88c0-8.8,7.2-16,16-16s16,7.2,16,16v87.9c0.1,10.6-3.9,20.6-11.3,28.1c-7.4,7.6-17.3,11.8-27.9,12
		c-0.3,0-0.5,0-0.7,0c-0.1,0-0.2,0-0.3,0c-21.7,0-39.5-17.5-39.7-39.2c0-0.3,0-0.6,0-0.8V192c0-35.3,28.7-64,64-64h96
		c35.3,0,64,28.7,64,64v87.9c0.1,10.6-3.9,20.6-11.3,28.1c-7.4,7.6-17.3,11.8-27.9,12c-0.3,0-0.5,0-0.7,0
		C327.9,320,327.8,320,327.7,320z"/>
</g>
<g>
	<path d="M256,112c-30.9,0-56-25.1-56-56s25.1-56,56-56c30.9,0,56,25.1,56,56S286.9,112,256,112z M256,32c-13.2,0-24,10.8-24,24
		s10.8,24,24,24c13.2,0,24-10.8,24-24S269.2,32,256,32z"/>
</g>
</svg>
