<?xml version="1.0" encoding="UTF-8"?>
<svg width="512px" height="512px" viewBox="0 0 512 512" version="1.1" xmlns="http://www.w3.org/2000/svg" xmlns:xlink="http://www.w3.org/1999/xlink">
    <!-- Generator: Sketch 62 (91390) - https://sketch.com -->
    <title>Artboard</title>
    <desc>Created with Sketch.</desc>
    <g id="Artboard" stroke="none" stroke-width="1" fill="none" fill-rule="evenodd">
        <g id="map-outline" transform="translate(32.000000, 32.000000)" fill="#000000" fill-rule="nonzero">
            <path d="M173.9,6 C174.4,6.3 174.9,6.5 175.4,6.8 L289,79.6 C293.3,81.5 298.2,81.4 302.4,79.4 L399.8,16 C400.2,15.7 400.6,15.5 401,15.3 C405.6,12.9 410.8,11.6 416,11.6 C424.5,11.6 432.6,14.9 438.6,21 C444.6,27 448,35.1 448,43.6 L448,339.3 C448,351 441.7,361.6 431.6,367.2 L316.7,442.8 C316.2,443.1 315.8,443.4 315.3,443.6 C310.393083,446.160131 305.132154,447.809946 299.768968,448.549447 C298.559179,448.843604 297.296967,449 296,449 C295.653167,449 295.308819,448.988816 294.9673,448.96679 C294.378827,448.989174 293.789414,449 293.2,449 C285.7,449 278.2,447.3 271.4,443.8 C270.9,443.5 270.4,443.3 269.9,442.9 L158.9,370.5 C154.6,368.5 149.6,368.6 145.3,370.7 L48.2,434 C47.8,434.3 47.4,434.5 47,434.7 C42.4,437.1 37.2,438.4 32,438.4 C14.4,438.4 0,424 0,406.4 L0,110.6 C0,99 6.2,88.5 16.2,82.8 L128.6,7.4 C129.1,7.1 129.5,6.8 130,6.5 C143.7,-0.7 160.1,-0.9 173.9,6 Z M168,40.2232422 L168.000676,339.769832 C170.04199,340.472825 172.046667,341.316307 174,342.3 C174.5,342.6 175,342.8 175.5,343.2 L280,411.298242 L280.000371,110.390924 C277.960604,109.700961 275.955561,108.870746 274,107.9 C273.5,107.6 273,107.4 272.5,107.1 L168,40.2232422 Z M416,43.7 L319.2,106.7 C318.8,107 318.4,107.2 317.9,107.4 C315.984136,108.414281 314.012707,109.289646 312.000528,110.025817 L312,407.604242 L414.6,340.1 C415.1,339.8 415.5,339.5 416,339.3 L416,43.7 Z M136,40.9722422 L33.4,109.8 C32.9,110.1 32.5,110.4 32,110.7 L32,406.4 L128.6,343.4 C129,343.1 129.4,342.9 129.8,342.7 C131.814724,341.63424 133.886996,340.721944 136.000325,339.962801 L136,40.9722422 Z" id="Combined-Shape"></path>
        </g>
    </g>
</svg>