<?xml version="1.0" encoding="UTF-8" standalone="no"?>
<svg
   xmlns:dc="http://purl.org/dc/elements/1.1/"
   xmlns:cc="http://creativecommons.org/ns#"
   xmlns:rdf="http://www.w3.org/1999/02/22-rdf-syntax-ns#"
   xmlns:svg="http://www.w3.org/2000/svg"
   xmlns="http://www.w3.org/2000/svg"
   xmlns:sodipodi="http://sodipodi.sourceforge.net/DTD/sodipodi-0.dtd"
   xmlns:inkscape="http://www.inkscape.org/namespaces/inkscape"
   class="ionicon"
   viewBox="0 0 512 512"
   version="1.1"
   id="svg10"
   sodipodi:docname="medal-outline.svg"
   inkscape:version="1.0.2 (e86c8708, 2021-01-15)">
  <metadata
     id="metadata16">
    <rdf:RDF>
      <cc:Work
         rdf:about="">
        <dc:format>image/svg+xml</dc:format>
        <dc:type
           rdf:resource="http://purl.org/dc/dcmitype/StillImage" />
      </cc:Work>
    </rdf:RDF>
  </metadata>
  <defs
     id="defs14" />
  <sodipodi:namedview
     pagecolor="#ffffff"
     bordercolor="#666666"
     borderopacity="1"
     objecttolerance="10"
     gridtolerance="10"
     guidetolerance="10"
     inkscape:pageopacity="0"
     inkscape:pageshadow="2"
     inkscape:window-width="689"
     inkscape:window-height="480"
     id="namedview12"
     showgrid="false"
     inkscape:zoom="1.3027344"
     inkscape:cx="256"
     inkscape:cy="256"
     inkscape:window-x="44"
     inkscape:window-y="25"
     inkscape:window-maximized="0"
     inkscape:current-layer="svg10" />
  <title
     id="title2">Medal</title>
  <path
     style="color:#000000;font-style:normal;font-variant:normal;font-weight:normal;font-stretch:normal;font-size:medium;line-height:normal;font-family:sans-serif;font-variant-ligatures:normal;font-variant-position:normal;font-variant-caps:normal;font-variant-numeric:normal;font-variant-alternates:normal;font-variant-east-asian:normal;font-feature-settings:normal;font-variation-settings:normal;text-indent:0;text-align:start;text-decoration:none;text-decoration-line:none;text-decoration-style:solid;text-decoration-color:#000000;letter-spacing:normal;word-spacing:normal;text-transform:none;writing-mode:lr-tb;direction:ltr;text-orientation:mixed;dominant-baseline:auto;baseline-shift:baseline;text-anchor:start;white-space:normal;shape-padding:0;shape-margin:0;inline-size:0;clip-rule:nonzero;display:inline;overflow:visible;visibility:visible;isolation:auto;mix-blend-mode:normal;color-interpolation:sRGB;color-interpolation-filters:linearRGB;solid-color:#000000;solid-opacity:1;vector-effect:none;fill:currentColor;fill-opacity:1;fill-rule:nonzero;stroke:none;stroke-linecap:round;stroke-linejoin:round;stroke-miterlimit:4;stroke-dasharray:none;stroke-dashoffset:0;stroke-opacity:1;color-rendering:auto;image-rendering:auto;shape-rendering:auto;text-rendering:auto;enable-background:accumulate;stop-color:#000000;stop-opacity:1;opacity:1"
     d="M 256 224 C 185.49707 224 128 281.49707 128 352 C 128 422.50293 185.49707 480 256 480 C 326.50293 480 384 422.50293 384 352 C 384 281.49707 326.50293 224 256 224 z M 256 256 C 309.20885 256 352 298.79115 352 352 C 352 405.20885 309.20885 448 256 448 C 202.79115 448 160 405.20885 160 352 C 160 298.79115 202.79115 256 256 256 z "
     id="circle4" />
  <path
     style="color:#000000;font-style:normal;font-variant:normal;font-weight:normal;font-stretch:normal;font-size:medium;line-height:normal;font-family:sans-serif;font-variant-ligatures:normal;font-variant-position:normal;font-variant-caps:normal;font-variant-numeric:normal;font-variant-alternates:normal;font-variant-east-asian:normal;font-feature-settings:normal;font-variation-settings:normal;text-indent:0;text-align:start;text-decoration:none;text-decoration-line:none;text-decoration-style:solid;text-decoration-color:#000000;letter-spacing:normal;word-spacing:normal;text-transform:none;writing-mode:lr-tb;direction:ltr;text-orientation:mixed;dominant-baseline:auto;baseline-shift:baseline;text-anchor:start;white-space:normal;shape-padding:0;shape-margin:0;inline-size:0;clip-rule:nonzero;display:inline;overflow:visible;visibility:visible;isolation:auto;mix-blend-mode:normal;color-interpolation:sRGB;color-interpolation-filters:linearRGB;solid-color:#000000;solid-opacity:1;vector-effect:none;fill:currentColor;fill-opacity:1;fill-rule:nonzero;stroke:none;stroke-linecap:round;stroke-linejoin:round;stroke-miterlimit:4;stroke-dasharray:none;stroke-dashoffset:0;stroke-opacity:1;color-rendering:auto;image-rendering:auto;shape-rendering:auto;text-rendering:auto;enable-background:accumulate;stop-color:#000000;stop-opacity:1;opacity:1"
     d="M 256 288 C 220.84329 288 192 316.84329 192 352 C 192 387.15671 220.84329 416 256 416 C 291.15671 416 320 387.15671 320 352 C 320 316.84329 291.15671 288 256 288 z M 256 320 C 273.86263 320 288 334.13737 288 352 C 288 369.86263 273.86263 384 256 384 C 238.13737 384 224 369.86263 224 352 C 224 334.13737 238.13737 320 256 320 z "
     id="circle6" />
  <path
     style="color:#000000;font-style:normal;font-variant:normal;font-weight:normal;font-stretch:normal;font-size:medium;line-height:normal;font-family:sans-serif;font-variant-ligatures:normal;font-variant-position:normal;font-variant-caps:normal;font-variant-numeric:normal;font-variant-alternates:normal;font-variant-east-asian:normal;font-feature-settings:normal;font-variation-settings:normal;text-indent:0;text-align:start;text-decoration:none;text-decoration-line:none;text-decoration-style:solid;text-decoration-color:#000000;letter-spacing:normal;word-spacing:normal;text-transform:none;writing-mode:lr-tb;direction:ltr;text-orientation:mixed;dominant-baseline:auto;baseline-shift:baseline;text-anchor:start;white-space:normal;shape-padding:0;shape-margin:0;inline-size:0;clip-rule:nonzero;display:inline;overflow:visible;visibility:visible;isolation:auto;mix-blend-mode:normal;color-interpolation:sRGB;color-interpolation-filters:linearRGB;solid-color:#000000;solid-opacity:1;vector-effect:none;fill:currentColor;fill-opacity:1;fill-rule:nonzero;stroke:none;stroke-linecap:round;stroke-linejoin:round;stroke-miterlimit:4;stroke-dasharray:none;stroke-dashoffset:0;stroke-opacity:1;color-rendering:auto;image-rendering:auto;shape-rendering:auto;text-rendering:auto;enable-background:accumulate;stop-color:#000000;stop-opacity:1;opacity:1"
     d="M 99.779297 32 C 81.616839 31.996995 64.934986 42.313358 56.824219 58.564453 L 25.830078 120.55469 C 18.266454 135.68113 19.236588 153.74076 28.378906 167.96875 L 133.53906 331.64844 A 16 16 0 0 0 155.64844 336.46094 A 16 16 0 0 0 160.46094 314.35156 L 61.292969 160 L 131.69727 160 L 193.44336 258.49805 A 16 16 0 0 0 215.49805 263.55664 A 16 16 0 0 0 220.55664 241.50195 L 169.46484 160 L 342.5332 160 L 291.44336 241.50195 A 16 16 0 0 0 296.50195 263.55664 A 16 16 0 0 0 318.55664 258.49805 L 430.25781 80.302734 L 457.5293 134.8457 C 460.06492 139.91669 459.74456 145.8806 456.67969 150.65039 A 16.0016 16.0016 0 0 0 456.67773 150.6543 L 351.53711 314.35352 A 16 16 0 0 0 356.35352 336.46289 A 16 16 0 0 0 378.46289 331.64648 L 483.60156 167.94922 L 483.60156 167.94727 C 492.74302 153.7195 493.71376 135.66109 486.15039 120.53516 L 455.15039 58.535156 C 451.33115 50.896113 445.57208 44.636901 438.70117 40.080078 A 16 16 0 0 0 437.23828 39.042969 A 16 16 0 0 0 434.86133 37.818359 A 16 16 0 0 0 434.84961 37.8125 C 427.99336 34.131406 420.27982 32.000526 412.2207 32 L 99.783203 32 L 99.779297 32 z M 99.775391 64 A 16.0016 16.0016 0 0 0 99.779297 64 L 402.71094 64 L 362.5918 128 L 140.57812 128 L 57.882812 128 L 85.451172 72.865234 A 16.0016 16.0016 0 0 0 85.455078 72.855469 C 88.179072 67.397553 93.675474 63.99849 99.775391 64 z "
     id="path8" />
</svg>
