<?xml version="1.0" encoding="utf-8"?>
<!-- Generator: Adobe Illustrator 24.0.0, SVG Export Plug-In . SVG Version: 6.00 Build 0)  -->
<svg version="1.1" id="Layer_1" xmlns="http://www.w3.org/2000/svg" xmlns:xlink="http://www.w3.org/1999/xlink" x="0px" y="0px"
	 viewBox="0 0 512 512" style="enable-background:new 0 0 512 512;" xml:space="preserve">
<title>ionicons-v5-n</title>
<g>
	<path d="M256,480c-70.6,0-128-57.4-128-128s57.4-128,128-128c70.6,0,128,57.4,128,128S326.6,480,256,480z M256,256
		c-52.9,0-96,43.1-96,96s43.1,96,96,96s96-43.1,96-96S308.9,256,256,256z"/>
</g>
<g>
	<path d="M256,416c-35.3,0-64-28.7-64-64s28.7-64,64-64c35.3,0,64,28.7,64,64S291.3,416,256,416z M256,320c-17.6,0-32,14.4-32,32
		s14.4,32,32,32c17.6,0,32-14.4,32-32S273.6,320,256,320z"/>
</g>
<g>
	<path d="M365,339c-3,0-6-0.8-8.6-2.5c-7.4-4.8-9.6-14.7-4.8-22.1l105.1-163.7c3-4.7,3.4-10.8,0.9-15.8l-31-62
		c-2.7-5.5-8.2-8.8-14.3-8.8H99.8c0,0,0,0,0,0c-6.1,0-11.6,3.4-14.3,8.9l-31,62c-2.5,5-2.2,11.1,0.8,15.8l105.2,163.7
		c4.8,7.4,2.6,17.3-4.8,22.1c-7.4,4.8-17.3,2.6-22.1-4.8L28.4,168c-9.1-14.2-10.1-32.3-2.5-47.4l31-62C65,42.2,81.5,32,99.8,32
		c0,0,0,0,0,0h312.4c18.3,0,34.7,10.2,42.9,26.5l31,62c7.5,15.1,6.6,33.2-2.5,47.4L378.5,331.6C375.4,336.4,370.2,339,365,339z"/>
</g>
<g>
	<path d="M371,160H37c-8.8,0-16-7.2-16-16s7.2-16,16-16h334c8.8,0,16,7.2,16,16S379.8,160,371,160z"/>
</g>
<g>
	<path d="M305,266c-2.9,0-5.8-0.8-8.5-2.4c-7.5-4.7-9.8-14.6-5.1-22.1L415.2,44.1c4.7-7.5,14.6-9.8,22.1-5.1
		c7.5,4.7,9.8,14.6,5.1,22.1L318.6,258.5C315.5,263.3,310.3,266,305,266z"/>
</g>
<g>
	<path d="M207,266c-5.3,0-10.5-2.7-13.6-7.5l-66.5-106c-4.7-7.5-2.4-17.4,5.1-22.1c7.5-4.7,17.4-2.4,22.1,5.1l66.5,106
		c4.7,7.5,2.4,17.4-5.1,22.1C212.9,265.2,209.9,266,207,266z"/>
</g>
</svg>
