<?xml version="1.0" encoding="UTF-8" standalone="no"?>
<svg
   xmlns:dc="http://purl.org/dc/elements/1.1/"
   xmlns:cc="http://creativecommons.org/ns#"
   xmlns:rdf="http://www.w3.org/1999/02/22-rdf-syntax-ns#"
   xmlns:svg="http://www.w3.org/2000/svg"
   xmlns="http://www.w3.org/2000/svg"
   xmlns:sodipodi="http://sodipodi.sourceforge.net/DTD/sodipodi-0.dtd"
   xmlns:inkscape="http://www.inkscape.org/namespaces/inkscape"
   class="ionicon"
   viewBox="0 0 512 512"
   version="1.1"
   id="svg6"
   sodipodi:docname="medical-outline.svg"
   inkscape:version="1.0.2 (e86c8708, 2021-01-15)">
  <metadata
     id="metadata12">
    <rdf:RDF>
      <cc:Work
         rdf:about="">
        <dc:format>image/svg+xml</dc:format>
        <dc:type
           rdf:resource="http://purl.org/dc/dcmitype/StillImage" />
      </cc:Work>
    </rdf:RDF>
  </metadata>
  <defs
     id="defs10" />
  <sodipodi:namedview
     pagecolor="#ffffff"
     bordercolor="#666666"
     borderopacity="1"
     objecttolerance="10"
     gridtolerance="10"
     guidetolerance="10"
     inkscape:pageopacity="0"
     inkscape:pageshadow="2"
     inkscape:window-width="689"
     inkscape:window-height="480"
     id="namedview8"
     showgrid="false"
     inkscape:zoom="1.3027344"
     inkscape:cx="256"
     inkscape:cy="256"
     inkscape:window-x="44"
     inkscape:window-y="25"
     inkscape:window-maximized="0"
     inkscape:current-layer="svg6" />
  <title
     id="title2">Medical</title>
  <path
     style="color:#000000;font-style:normal;font-variant:normal;font-weight:normal;font-stretch:normal;font-size:medium;line-height:normal;font-family:sans-serif;font-variant-ligatures:normal;font-variant-position:normal;font-variant-caps:normal;font-variant-numeric:normal;font-variant-alternates:normal;font-variant-east-asian:normal;font-feature-settings:normal;font-variation-settings:normal;text-indent:0;text-align:start;text-decoration:none;text-decoration-line:none;text-decoration-style:solid;text-decoration-color:#000000;letter-spacing:normal;word-spacing:normal;text-transform:none;writing-mode:lr-tb;direction:ltr;text-orientation:mixed;dominant-baseline:auto;baseline-shift:baseline;text-anchor:start;white-space:normal;shape-padding:0;shape-margin:0;inline-size:0;clip-rule:nonzero;display:inline;overflow:visible;visibility:visible;isolation:auto;mix-blend-mode:normal;color-interpolation:sRGB;color-interpolation-filters:linearRGB;solid-color:#000000;solid-opacity:1;vector-effect:none;fill:currentColor;fill-opacity:1;fill-rule:nonzero;stroke:none;stroke-linecap:round;stroke-linejoin:round;stroke-miterlimit:4;stroke-dasharray:none;stroke-dashoffset:0;stroke-opacity:1;color-rendering:auto;image-rendering:auto;shape-rendering:auto;text-rendering:auto;enable-background:accumulate;stop-color:#000000;stop-opacity:1;opacity:1"
     d="M 240 48 C 222.5164 48 208 62.516402 208 80 A 16.0016 16.0016 0 0 0 208 80.009766 L 208.05664 172.77734 L 127.70117 126.22461 A 16.0016 16.0016 0 0 0 127.6582 126.20117 C 112.74927 117.62369 93.241698 122.88134 84.662109 137.78906 L 68.21875 166.36328 C 59.604173 181.26576 64.873323 200.80469 79.8125 209.35547 L 160.29492 256 L 79.736328 302.6875 A 16.0016 16.0016 0 0 0 79.705078 302.70508 C 64.931449 311.3133 59.713654 330.6604 68.15625 345.5293 A 16.0016 16.0016 0 0 0 68.205078 345.61719 L 84.671875 374.20117 C 84.672606 374.20244 84.673097 374.20381 84.673828 374.20508 L 84.675781 374.20703 C 93.257216 389.11 112.76111 394.36536 127.66797 385.78906 A 16.0016 16.0016 0 0 0 127.71094 385.76367 L 208.06445 339.21094 L 208 431.98828 A 16.0016 16.0016 0 0 0 208 432 C 208 449.4836 222.5164 464 240 464 L 272 464 C 289.4836 464 304 449.4836 304 432 A 16.0016 16.0016 0 0 0 304 431.99023 L 303.94336 339.12109 L 384.29883 385.67383 A 16.0016 16.0016 0 0 0 384.3418 385.69922 C 399.24866 394.27551 418.75255 389.02016 427.33398 374.11719 L 427.33594 374.11523 L 443.79297 345.54688 C 452.40755 330.6444 447.13644 311.10547 432.19727 302.55469 L 351.71484 255.91016 L 432.27344 209.22266 A 16.0016 16.0016 0 0 0 432.28125 209.21875 C 447.1003 200.61726 452.3242 181.20647 443.82227 166.33008 A 16.0016 16.0016 0 0 0 443.79492 166.2832 L 427.32812 137.69922 L 427.32617 137.69531 C 418.74545 122.7905 399.2397 117.53457 384.33203 126.11133 A 16.0016 16.0016 0 0 0 384.28906 126.13477 L 303.93555 172.6875 L 304 80.011719 A 16.0016 16.0016 0 0 0 304 80 C 304 62.516402 289.4836 48 272 48 L 240 48 z M 240 80 L 272 80 L 271.91992 193.33594 C 271.78774 208.02584 289.19792 218.18178 301.91992 210.83594 A 16.0016 16.0016 0 0 0 301.94141 210.82422 L 399.84766 154.10352 L 415.79688 181.78711 L 317.73633 238.61719 A 16.0016 16.0016 0 0 0 317.66406 238.66016 C 305.13498 246.01138 305.13498 265.80893 317.66406 273.16016 A 16.0016 16.0016 0 0 0 317.73633 273.20312 L 415.79883 330.03516 L 399.85742 357.70703 L 301.95117 300.98633 A 16.0016 16.0016 0 0 0 301.92969 300.97461 C 289.20769 293.62877 271.7975 303.7847 271.92969 318.47461 L 272 432 L 240 432 L 240.08008 318.56445 C 240.21226 303.87455 222.80208 293.71861 210.08008 301.06445 A 16.0016 16.0016 0 0 0 210.05859 301.07617 L 112.15234 357.79688 L 96.210938 330.125 L 194.27344 273.29297 A 16.0016 16.0016 0 0 0 194.34766 273.25 C 206.87674 265.89878 206.87674 246.10122 194.34766 238.75 A 16.0016 16.0016 0 0 0 194.27344 238.70703 L 96.210938 181.875 L 112.14258 154.19336 L 210.04883 210.91406 A 16.0016 16.0016 0 0 0 210.07031 210.92578 C 222.79231 218.27163 240.2025 208.11569 240.07031 193.42578 L 240 80 z M 111.66016 153.91406 L 111.70312 153.93945 C 111.70291 153.93934 111.70138 153.93957 111.70117 153.93945 L 111.66016 153.91406 z M 400.29688 357.96094 C 400.29709 357.96106 400.29862 357.96082 400.29883 357.96094 L 400.33984 357.98633 L 400.29688 357.96094 z M 111.71094 358.05078 C 111.71115 358.05066 111.71268 358.0509 111.71289 358.05078 L 111.66992 358.07617 L 111.71094 358.05078 z "
     id="path4" />
</svg>
