<?xml version="1.0" encoding="UTF-8" standalone="no"?>
<svg
   xmlns:dc="http://purl.org/dc/elements/1.1/"
   xmlns:cc="http://creativecommons.org/ns#"
   xmlns:rdf="http://www.w3.org/1999/02/22-rdf-syntax-ns#"
   xmlns:svg="http://www.w3.org/2000/svg"
   xmlns="http://www.w3.org/2000/svg"
   xmlns:sodipodi="http://sodipodi.sourceforge.net/DTD/sodipodi-0.dtd"
   xmlns:inkscape="http://www.inkscape.org/namespaces/inkscape"
   class="ionicon"
   viewBox="0 0 512 512"
   version="1.1"
   id="svg6"
   sodipodi:docname="medical.svg"
   inkscape:version="1.0.2 (e86c8708, 2021-01-15)">
  <metadata
     id="metadata12">
    <rdf:RDF>
      <cc:Work
         rdf:about="">
        <dc:format>image/svg+xml</dc:format>
        <dc:type
           rdf:resource="http://purl.org/dc/dcmitype/StillImage" />
      </cc:Work>
    </rdf:RDF>
  </metadata>
  <defs
     id="defs10" />
  <sodipodi:namedview
     pagecolor="#ffffff"
     bordercolor="#666666"
     borderopacity="1"
     objecttolerance="10"
     gridtolerance="10"
     guidetolerance="10"
     inkscape:pageopacity="0"
     inkscape:pageshadow="2"
     inkscape:window-width="689"
     inkscape:window-height="480"
     id="namedview8"
     showgrid="false"
     inkscape:zoom="1.3027344"
     inkscape:cx="256"
     inkscape:cy="256"
     inkscape:window-x="44"
     inkscape:window-y="25"
     inkscape:window-maximized="0"
     inkscape:current-layer="svg6" />
  <title
     id="title2">Medical</title>
  <path
     style="color:#000000;font-style:normal;font-variant:normal;font-weight:normal;font-stretch:normal;font-size:medium;line-height:normal;font-family:sans-serif;font-variant-ligatures:normal;font-variant-position:normal;font-variant-caps:normal;font-variant-numeric:normal;font-variant-alternates:normal;font-variant-east-asian:normal;font-feature-settings:normal;font-variation-settings:normal;text-indent:0;text-align:start;text-decoration:none;text-decoration-line:none;text-decoration-style:solid;text-decoration-color:#000000;letter-spacing:normal;word-spacing:normal;text-transform:none;writing-mode:lr-tb;direction:ltr;text-orientation:mixed;dominant-baseline:auto;baseline-shift:baseline;text-anchor:start;white-space:normal;shape-padding:0;shape-margin:0;inline-size:0;clip-rule:nonzero;display:inline;overflow:visible;visibility:visible;isolation:auto;mix-blend-mode:normal;color-interpolation:sRGB;color-interpolation-filters:linearRGB;solid-color:#000000;solid-opacity:1;vector-effect:none;fill:#000000;fill-opacity:1;fill-rule:nonzero;stroke-width:1;stroke-linecap:butt;stroke-linejoin:miter;stroke-miterlimit:4;stroke-dasharray:none;stroke-dashoffset:0;stroke-opacity:1;color-rendering:auto;image-rendering:auto;shape-rendering:auto;text-rendering:auto;enable-background:accumulate;stop-color:#000000;stop-opacity:1;stroke:none;opacity:1"
     d="m 272,464 h -32 c -17.67311,0 -32,-14.32689 -32,-32 l 0.05,-85.82 c 0.005,-3.08182 -3.33106,-5.01092 -6,-3.47 l -74.34,43.06 c -15.05545,8.69169 -34.306257,3.53426 -43,-11.52 l -16.5,-28.64 -0.06,-0.1 c -8.451024,-15.03345 -3.310573,-34.06556 11.56,-42.8 l 74.61,-43.25 c 2.65722,-1.54141 2.65722,-5.37859 0,-6.92 L 79.78,209.33 c -15.098468,-8.65783 -20.278334,-27.94218 -11.55,-43 l 16.44,-28.55 c 4.195995,-7.29058 11.135299,-12.59859 19.27,-14.74 8.0421,-2.15823 16.61357,-1.00576 23.8,3.2 l 74.31,43 c 2.66894,1.54092 6.00455,-0.38818 6,-3.47 L 208,80 c 0,-17.673112 14.32689,-32 32,-32 h 32 c 17.67311,0 32,14.326888 32,32 v 85.72 c -0.005,3.08182 3.33106,5.01092 6,3.47 l 74.34,-43.06 c 15.05778,-8.67394 34.29537,-3.52006 43,11.52 l 16.49,28.64 0.06,0.09 c 8.55305,15.05843 3.35539,34.1969 -11.64,42.86 l -74.53,43.2 c -2.65722,1.54141 -2.65722,5.37859 0,6.92 l 74.53,43.2 c 15.09733,8.65806 20.2807,27.93877 11.56,43 l -16.44,28.55 c -4.196,7.29058 -11.1353,12.59859 -19.27,14.74 -8.0421,2.15823 -16.61357,1.00576 -23.8,-3.2 l -74.31,-43 c -2.66509,-1.53869 -5.99685,0.38262 -6,3.46 L 304,432 c 0,17.67311 -14.32689,32 -32,32 z M 178.44,266.52 Z m 0,-21 z m 155.1,-0.08 z m 0,0 z"
     id="path4" />
</svg>
