<?xml version="1.0" encoding="utf-8"?>
<!-- Generator: Adobe Illustrator 24.0.0, SVG Export Plug-In . SVG Version: 6.00 Build 0)  -->
<svg version="1.1" id="Layer_1" xmlns="http://www.w3.org/2000/svg" xmlns:xlink="http://www.w3.org/1999/xlink" x="0px" y="0px"
	 viewBox="0 0 512 512" style="enable-background:new 0 0 512 512;" xml:space="preserve">
<title>ionicons-v5-n</title>
<g>
	<path d="M272,464h-32c-17.6,0-32-14.4-32-32l0.1-92.8l-80.4,46.6c-15.1,8.7-34.4,3.5-43-11.6l-16.5-28.6
		c-8.5-15-3.4-34.3,11.5-42.9l80.6-46.7l-80.6-46.7c0,0,0,0,0,0c0,0,0,0,0,0c-15-8.7-20.1-27.9-11.5-42.9l16.4-28.6
		c8.7-15,28-20.2,43-11.6l80.4,46.6L208,80c0-17.7,14.4-32,32-32h32c17.6,0,32,14.4,32,32l-0.1,92.7l80.4-46.6
		c15.1-8.7,34.4-3.5,43,11.6l16.5,28.6c0,0,0,0,0,0c8.6,15,3.4,34.2-11.5,42.9l-80.6,46.7l80.5,46.6c0,0,0.1,0.1,0.1,0.1
		c15,8.7,20.1,27.9,11.5,42.9l-16.5,28.6c-8.7,15-27.9,20.2-43,11.6l-80.4-46.6L304,432C304,449.6,289.6,464,272,464z M240.1,318.5
		L240,432l32,0l-0.1-113.6c0-11,8.8-20,19.8-20.1c0.1,0,0.1,0,0.2,0c3.5,0,7,0.9,10,2.7l97.9,56.7l15.9-27.7l-98.1-56.8
		c-9.6-5.6-12.8-17.9-7.2-27.4c1.7-2.9,4.2-5.4,7.1-7.1l98.1-56.9l-15.9-27.7l-97.9,56.7c-9.6,5.5-21.8,2.2-27.3-7.3
		c-1.8-3.1-2.7-6.6-2.7-10.1L272,80l-32,0l0.1,113.5c0.1,11-8.8,20-19.8,20.1c-3.6,0.1-7.1-0.9-10.2-2.7l-97.9-56.7l-15.9,27.7
		l98.1,56.8c9.6,5.6,12.8,17.9,7.2,27.4c-1.7,2.9-4.2,5.4-7.1,7.1l-98.1,56.9l15.9,27.7l97.9-56.7c9.6-5.5,21.8-2.2,27.3,7.3
		C239.2,311.4,240.1,314.9,240.1,318.5z M208.1,318.3C208.1,318.3,208.1,318.3,208.1,318.3C208.1,318.3,208.1,318.3,208.1,318.3z
		 M303.9,318.2C303.9,318.2,303.9,318.2,303.9,318.2C303.9,318.2,303.9,318.2,303.9,318.2z M303.9,193.6
		C303.9,193.6,303.9,193.6,303.9,193.6C303.9,193.6,303.9,193.6,303.9,193.6z"/>
</g>
</svg>
