<?xml version="1.0" encoding="UTF-8"?>
<svg width="512px" height="512px" viewBox="0 0 512 512" version="1.1" xmlns="http://www.w3.org/2000/svg" xmlns:xlink="http://www.w3.org/1999/xlink">
    <!-- Generator: Sketch 62 (91390) - https://sketch.com -->
    <title>Artboard</title>
    <desc>Created with Sketch.</desc>
    <g id="Artboard" stroke="none" stroke-width="1" fill="none" fill-rule="evenodd">
        <g id="medkit" transform="translate(16.000000, 32.000000)" fill="#000000" fill-rule="nonzero">
            <path d="M416,64 L368,64 L368,48 C367.972441,21.5017558 346.498244,0.0275592986 320,0 L160,0 C133.501756,0.0275592986 112.027559,21.5017558 112,48 L112,64 L64,64 C28.6697684,64.0385792 0.0385791814,92.6697684 0,128 L0,384 C0,419.346224 28.653776,448 64,448 L416,448 C451.346224,448 480,419.346224 480,384 L480,128 C479.961421,92.6697684 451.330232,64.0385792 416,64 Z M320,272 L256,272 L256,336 C256,344.836556 248.836556,352 240,352 C231.163444,352 224,344.836556 224,336 L224,272 L160,272 C151.163444,272 144,264.836556 144,256 C144,247.163444 151.163444,240 160,240 L224,240 L224,176 C224,167.163444 231.163444,160 240,160 C248.836556,160 256,167.163444 256,176 L256,240 L320,240 C328.836556,240 336,247.163444 336,256 C336,264.836556 328.836556,272 320,272 Z M336,64 L144,64 L144,48 C144,39.163444 151.163444,32 160,32 L320,32 C328.836556,32 336,39.163444 336,48 L336,64 Z" id="Shape"></path>
        </g>
    </g>
</svg>