<?xml version="1.0" encoding="UTF-8"?>
<svg width="512px" height="512px" viewBox="0 0 512 512" version="1.1" xmlns="http://www.w3.org/2000/svg" xmlns:xlink="http://www.w3.org/1999/xlink">
    <!-- Generator: Sketch 62 (91390) - https://sketch.com -->
    <title>Artboard</title>
    <desc>Created with Sketch.</desc>
    <g id="Artboard" stroke="none" stroke-width="1" fill="none" fill-rule="evenodd">
        <g id="medkit-sharp" transform="translate(16.000000, 32.000000)" fill="#000000" fill-rule="nonzero">
            <path d="M468,64 L368,64 L368,8 C368,3.581722 364.418278,0 360,0 L120,0 C115.581722,0 112,3.581722 112,8 L112,64 L12,64 C5.372583,64 0,69.372583 0,76 L0,436 C0,442.627417 5.372583,448 12,448 L468,448 C474.627417,448 480,442.627417 480,436 L480,76 C480,69.372583 474.627417,64 468,64 Z M152,40 L328,40 L328,64 L152,64 L152,40 Z M336,278 L262,278 L262,352 L218,352 L218,278 L144,278 L144,234 L218,234 L218,160 L262,160 L262,234 L336,234 L336,278 Z" id="Shape"></path>
        </g>
    </g>
</svg>