<?xml version="1.0" encoding="utf-8"?>
<!-- Generator: Adobe Illustrator 24.0.0, SVG Export Plug-In . SVG Version: 6.00 Build 0)  -->
<svg version="1.1" id="Layer_1" xmlns="http://www.w3.org/2000/svg" xmlns:xlink="http://www.w3.org/1999/xlink" x="0px" y="0px"
	 viewBox="0 0 512 512" style="enable-background:new 0 0 512 512;" xml:space="preserve">
<title>ionicons-v5-n</title>
<g>
	<path d="M432,480H80c-35.3,0-64-28.7-64-64V160c0-35.3,28.7-64,64-64h352c35.3,0,64,28.7,64,64v256C496,451.3,467.3,480,432,480z
		 M80,128c-17.6,0-32,14.4-32,32v256c0,17.6,14.4,32,32,32h352c17.6,0,32-14.4,32-32V160c0-17.6-14.4-32-32-32H80z"/>
</g>
<g>
	<path d="M368,128c-8.8,0-16-7.2-16-16V80c0-8.8-7.2-16-16-16H176c-8.8,0-16,7.2-16,16v32c0,8.8-7.2,16-16,16s-16-7.2-16-16V80
		c0-26.5,21.5-48,48-48h160c26.5,0,48,21.5,48,48v32C384,120.8,376.8,128,368,128z"/>
</g>
<g>
	<path d="M256,384c-8.8,0-16-7.2-16-16V208c0-8.8,7.2-16,16-16c8.8,0,16,7.2,16,16v160C272,376.8,264.8,384,256,384z"/>
</g>
<g>
	<path d="M336,304H176c-8.8,0-16-7.2-16-16s7.2-16,16-16h160c8.8,0,16,7.2,16,16S344.8,304,336,304z"/>
</g>
</svg>
