<?xml version="1.0" encoding="UTF-8" standalone="no"?>
<svg
   xmlns:dc="http://purl.org/dc/elements/1.1/"
   xmlns:cc="http://creativecommons.org/ns#"
   xmlns:rdf="http://www.w3.org/1999/02/22-rdf-syntax-ns#"
   xmlns:svg="http://www.w3.org/2000/svg"
   xmlns="http://www.w3.org/2000/svg"
   xmlns:sodipodi="http://sodipodi.sourceforge.net/DTD/sodipodi-0.dtd"
   xmlns:inkscape="http://www.inkscape.org/namespaces/inkscape"
   class="ionicon"
   viewBox="0 0 512 512"
   version="1.1"
   id="svg8"
   sodipodi:docname="megaphone-outline.svg"
   inkscape:version="1.0.2 (e86c8708, 2021-01-15)">
  <metadata
     id="metadata14">
    <rdf:RDF>
      <cc:Work
         rdf:about="">
        <dc:format>image/svg+xml</dc:format>
        <dc:type
           rdf:resource="http://purl.org/dc/dcmitype/StillImage" />
      </cc:Work>
    </rdf:RDF>
  </metadata>
  <defs
     id="defs12" />
  <sodipodi:namedview
     pagecolor="#ffffff"
     bordercolor="#666666"
     borderopacity="1"
     objecttolerance="10"
     gridtolerance="10"
     guidetolerance="10"
     inkscape:pageopacity="0"
     inkscape:pageshadow="2"
     inkscape:window-width="689"
     inkscape:window-height="480"
     id="namedview10"
     showgrid="false"
     inkscape:zoom="1.3027344"
     inkscape:cx="256"
     inkscape:cy="256"
     inkscape:window-x="44"
     inkscape:window-y="25"
     inkscape:window-maximized="0"
     inkscape:current-layer="svg8" />
  <title
     id="title2">Megaphone</title>
  <path
     style="color:#000000;font-style:normal;font-variant:normal;font-weight:normal;font-stretch:normal;font-size:medium;line-height:normal;font-family:sans-serif;font-variant-ligatures:normal;font-variant-position:normal;font-variant-caps:normal;font-variant-numeric:normal;font-variant-alternates:normal;font-variant-east-asian:normal;font-feature-settings:normal;font-variation-settings:normal;text-indent:0;text-align:start;text-decoration:none;text-decoration-line:none;text-decoration-style:solid;text-decoration-color:#000000;letter-spacing:normal;word-spacing:normal;text-transform:none;writing-mode:lr-tb;direction:ltr;text-orientation:mixed;dominant-baseline:auto;baseline-shift:baseline;text-anchor:start;white-space:normal;shape-padding:0;shape-margin:0;inline-size:0;clip-rule:nonzero;display:inline;overflow:visible;visibility:visible;isolation:auto;mix-blend-mode:normal;color-interpolation:sRGB;color-interpolation-filters:linearRGB;solid-color:#000000;solid-opacity:1;vector-effect:none;fill:currentColor;fill-opacity:1;fill-rule:nonzero;stroke:none;stroke-linecap:round;stroke-linejoin:round;stroke-miterlimit:4;stroke-dasharray:none;stroke-dashoffset:0;stroke-opacity:1;color-rendering:auto;image-rendering:auto;shape-rendering:auto;text-rendering:auto;enable-background:accumulate;stop-color:#000000;stop-opacity:1;opacity:1"
     d="M 415.08789 31.820312 C 407.78692 32.2831 400.64963 35.55966 395.33008 42.371094 L 395.46875 42.195312 C 395.46875 42.195312 374.6596 68.03898 344.11914 93.898438 C 313.57869 119.75789 273.57956 144 240 144 L 112 144 L 80 144 C 62.516402 144 48 158.5164 48 176 L 48 183.77148 C 46.566432 185.01007 45.114032 186.33749 43.761719 187.94336 C 37.445475 195.4439 32 207.71795 32 224 C 32 240.28205 37.445475 252.5561 43.761719 260.05664 C 45.114032 261.66251 46.566432 262.98993 48 264.22852 L 48 272 C 48 289.4836 62.516402 304 80 304 L 112 304 L 240 304 C 273.55004 304 313.55193 328.3361 344.09375 354.30469 C 374.63557 380.27327 395.44922 406.22852 395.44922 406.22852 L 395.18555 405.89062 C 403.88133 417.3702 417.71097 417.62192 427.71484 413.98047 C 437.71872 410.33902 448 400.34867 448 386.40039 L 448 262 A 16 16 0 0 0 452.17969 261.44531 C 452.17969 261.44531 459.4539 259.50523 466.16602 253.98242 C 472.87813 248.45961 480 237.66428 480 224 C 480 210.33572 472.87813 199.54039 466.16602 194.01758 C 459.4539 188.49477 452.17969 186.55469 452.17969 186.55469 A 16 16 0 0 0 448 186 L 448 62 C 448 43.409607 431.15003 30.802179 415.08789 31.820312 z M 416 67.486328 L 416 380.94531 C 407.95824 371.54214 389.36077 350.78996 364.82227 329.92578 C 339.27318 308.20233 307.23681 285.567 272 276.33984 L 272 171.67578 C 307.21826 162.48625 339.25034 139.95128 364.79688 118.32031 C 389.35057 97.530011 407.96492 76.843757 416 67.486328 z M 80 176 L 96 176 L 96 272 L 80 272 L 80 256.02148 L 80 191.88281 L 80 176 z M 128 176 L 240 176 L 240 272 L 128 272 L 128 176 z "
     id="path4" />
  <path
     style="color:#000000;font-style:normal;font-variant:normal;font-weight:normal;font-stretch:normal;font-size:medium;line-height:normal;font-family:sans-serif;font-variant-ligatures:normal;font-variant-position:normal;font-variant-caps:normal;font-variant-numeric:normal;font-variant-alternates:normal;font-variant-east-asian:normal;font-feature-settings:normal;font-variation-settings:normal;text-indent:0;text-align:start;text-decoration:none;text-decoration-line:none;text-decoration-style:solid;text-decoration-color:#000000;letter-spacing:normal;word-spacing:normal;text-transform:none;writing-mode:lr-tb;direction:ltr;text-orientation:mixed;dominant-baseline:auto;baseline-shift:baseline;text-anchor:start;white-space:normal;shape-padding:0;shape-margin:0;inline-size:0;clip-rule:nonzero;display:inline;overflow:visible;visibility:visible;isolation:auto;mix-blend-mode:normal;color-interpolation:sRGB;color-interpolation-filters:linearRGB;solid-color:#000000;solid-opacity:1;vector-effect:none;fill:currentColor;fill-opacity:1;fill-rule:nonzero;stroke:none;stroke-linecap:round;stroke-linejoin:round;stroke-miterlimit:4;stroke-dasharray:none;stroke-dashoffset:0;stroke-opacity:1;color-rendering:auto;image-rendering:auto;shape-rendering:auto;text-rendering:auto;enable-background:accumulate;stop-color:#000000;stop-opacity:1;opacity:1"
     d="M 144 272 A 16 16 0 0 0 128 288 L 128 456 C 128 469.06532 138.93468 480 152 480 L 204.99414 480 C 226.10414 480.00678 241.81486 458.70553 235.57422 438.53906 A 16.0016 16.0016 0 0 0 235.56445 438.50781 C 227.21794 411.73523 212.29591 388.26946 208.77539 351.91992 C 225.90277 351.48913 240 337.21858 240 320 L 240 304 C 240 286.5164 225.4836 272 208 272 L 192 272 A 16 16 0 0 0 176 288 A 16 16 0 0 0 192 304 L 208 304 L 208 320 L 192 320 A 16.0016 16.0016 0 0 0 176 336 C 176 390.29767 197.74073 424.73229 205.00391 448 A 16.0016 16.0016 0 0 0 205 448 L 160 448 L 160 288 A 16 16 0 0 0 144 272 z "
     id="path6" />
</svg>
