<?xml version="1.0" encoding="UTF-8"?>
<svg width="512px" height="512px" viewBox="0 0 512 512" version="1.1" xmlns="http://www.w3.org/2000/svg" xmlns:xlink="http://www.w3.org/1999/xlink">
    <!-- Generator: Sketch 62 (91390) - https://sketch.com -->
    <title>Artboard</title>
    <desc>Created with Sketch.</desc>
    <g id="Artboard" stroke="none" stroke-width="1" fill="none" fill-rule="evenodd">
        <g id="megaphone-outline" transform="translate(32.000000, 32.000000)" fill="#000000" fill-rule="nonzero">
            <path d="M395.1,1.73471574 C407.6,6.13471574 416,17.5347157 416,30.1347157 L416,169.984 L420.2,154.534716 C429.8,157.134716 448,168.334716 448,191.934716 C448,215.534716 429.8,226.934716 420.2,229.534716 L416,214.084 L416,354.534716 C416,367.134716 407.7,378.134716 394.9,382.434716 C391.4,383.534716 387.9,384.134716 384.4,384.134716 C376,384.134716 368.3,380.634716 363.3,374.234716 C361.9,372.434716 341.1,347.034716 311.6,322.034716 C273.1437,289.371833 237.281502,272.074009 207.999798,272.034783 L208,272.134716 L208,272.134716 L208,288.134716 C208,305.534716 194.1,319.734716 176.8,320.134716 C179.3,345.634716 187.3,365.234716 194.6,382.934716 C198,391.134716 201.2,398.834716 203.6,406.634716 C204.6,409.734716 205,412.934716 205,416.134716 C205,424.464716 201.83068,432.410556 195.962636,438.372209 L195.6,438.734716 C189.72,444.712716 181.82316,448.001596 173.509506,448.13076 L173,448.134716 L173,448.134716 L120,448.134716 C106.8,448.134716 96,437.334716 96,424.134716 L96,272.034 L81.7853512,272.03502 C81.1989552,272.100883 80.6032369,272.134716 80,272.134716 C79.3967631,272.134716 78.8010448,272.100883 78.2146488,272.03502 L48,272.034716 C30.4,272.034716 16,257.634716 16,240.034716 L16.0006688,232.555501 C7.88898951,225.261017 -4.26325641e-14,212.333455 -4.26325641e-14,192.134716 C-4.26325641e-14,173.834716 6.4,162.434716 11.8,156.034716 C13.1997277,154.364073 14.6198428,152.927886 16.00051,151.697389 L16,144.034716 C16,126.434716 30.4,112.034716 48,112.034716 L208,112.034716 C237.3,112.034716 273.2,94.8347157 311.7,62.2347157 C341.5,37.1347157 362.4,11.5347157 363.4,10.2347157 C370.7,0.934715742 383.2,-2.36528426 395.1,1.73471574 Z M158.214649,272.03502 L128,272.034 L128,416.134716 L173,416.134716 C171,409.734716 168.1,402.634716 165,395.134716 C155.7,372.434716 144,344.134716 144,304.134716 C144,295.334716 151.2,288.134716 160,288.134716 L176,288.134716 L176,272.134716 L160,272.134716 C159.396763,272.134716 158.801045,272.100883 158.214649,272.03502 Z M384,35.6347157 C367.263053,55.2186695 306.463443,121.768063 240.000596,139.669609 L240.000596,244.615488 C306.463443,262.579962 367.263053,329.364489 384,349.034716 L384,35.6347157 Z M64,144.134 L48,144.134716 L48.0009578,159.523889 C48.0150191,159.909175 48.0149598,160.293622 48.0010993,160.676516 L48.0013394,223.342435 C48.0266048,223.85898 48.0267789,224.378932 48.0010917,224.900604 L48,240.134716 L64,240.134 L64,144.134 Z M208,144.134716 L96,144.134 L96,240.134 L208,240.134716 L208,144.134716 L208,144.134716 Z" id="Combined-Shape"></path>
        </g>
    </g>
</svg>