<?xml version="1.0" encoding="UTF-8" standalone="no"?>
<svg
   xmlns:dc="http://purl.org/dc/elements/1.1/"
   xmlns:cc="http://creativecommons.org/ns#"
   xmlns:rdf="http://www.w3.org/1999/02/22-rdf-syntax-ns#"
   xmlns:svg="http://www.w3.org/2000/svg"
   xmlns="http://www.w3.org/2000/svg"
   xmlns:sodipodi="http://sodipodi.sourceforge.net/DTD/sodipodi-0.dtd"
   xmlns:inkscape="http://www.inkscape.org/namespaces/inkscape"
   class="ionicon"
   viewBox="0 0 512 512"
   version="1.1"
   id="svg6"
   sodipodi:docname="megaphone.svg"
   inkscape:version="1.0.2 (e86c8708, 2021-01-15)">
  <metadata
     id="metadata12">
    <rdf:RDF>
      <cc:Work
         rdf:about="">
        <dc:format>image/svg+xml</dc:format>
        <dc:type
           rdf:resource="http://purl.org/dc/dcmitype/StillImage" />
      </cc:Work>
    </rdf:RDF>
  </metadata>
  <defs
     id="defs10" />
  <sodipodi:namedview
     pagecolor="#ffffff"
     bordercolor="#666666"
     borderopacity="1"
     objecttolerance="10"
     gridtolerance="10"
     guidetolerance="10"
     inkscape:pageopacity="0"
     inkscape:pageshadow="2"
     inkscape:window-width="689"
     inkscape:window-height="480"
     id="namedview8"
     showgrid="false"
     inkscape:zoom="1.3027344"
     inkscape:cx="256"
     inkscape:cy="256"
     inkscape:window-x="44"
     inkscape:window-y="25"
     inkscape:window-maximized="0"
     inkscape:current-layer="svg6" />
  <title
     id="title2">Megaphone</title>
  <path
     style="color:#000000;font-style:normal;font-variant:normal;font-weight:normal;font-stretch:normal;font-size:medium;line-height:normal;font-family:sans-serif;font-variant-ligatures:normal;font-variant-position:normal;font-variant-caps:normal;font-variant-numeric:normal;font-variant-alternates:normal;font-variant-east-asian:normal;font-feature-settings:normal;font-variation-settings:normal;text-indent:0;text-align:start;text-decoration:none;text-decoration-line:none;text-decoration-style:solid;text-decoration-color:#000000;letter-spacing:normal;word-spacing:normal;text-transform:none;writing-mode:lr-tb;direction:ltr;text-orientation:mixed;dominant-baseline:auto;baseline-shift:baseline;text-anchor:start;white-space:normal;shape-padding:0;shape-margin:0;inline-size:0;clip-rule:nonzero;display:inline;overflow:visible;visibility:visible;isolation:auto;mix-blend-mode:normal;color-interpolation:sRGB;color-interpolation-filters:linearRGB;solid-color:#000000;solid-opacity:1;vector-effect:none;fill:#000000;fill-opacity:1;fill-rule:nonzero;stroke-width:1;stroke-linecap:butt;stroke-linejoin:miter;stroke-miterlimit:4;stroke-dasharray:none;stroke-dashoffset:0;stroke-opacity:1;color-rendering:auto;image-rendering:auto;shape-rendering:auto;text-rendering:auto;enable-background:accumulate;stop-color:#000000;stop-opacity:1;stroke:none;opacity:1"
     d="m 48,176 v 0.66 c -0.02363,4.12302 -1.512264,8.10336 -4.2,11.23 v 0.05 C 38.4,194.32 32,205.74 32,224 c 0,16.55 5.3,28.23 11.68,35.91 2.799195,3.40667 4.326437,7.68082 4.32,12.09 0,17.67311 14.326888,32 32,32 h 8 c 4.418278,0 8,-3.58172 8,-8 V 152 c 0,-4.41828 -3.581722,-8 -8,-8 h -8 c -17.673112,0 -32,14.32689 -32,32 z m 404.18,10.55 -0.93,-0.17 c -1.88623,-0.36005 -3.25045,-2.00971 -3.25,-3.93 V 62 c 0,-12.64 -8.39,-24 -20.89,-28.32 -11.92,-4.11 -24.34,-0.76 -31.68,8.53 -15.61492,18.646249 -32.77947,35.93792 -51.31,51.69 -23.63,20 -46.24,34.25 -67,42.31 -3.09923,1.18163 -5.14787,4.15315 -5.15,7.47 V 299 c 0.005,6.39277 3.81536,12.16885 9.69,14.69 19.34,8.29 40.24,21.83 62,40.28 18.67002,15.89466 35.95862,33.34384 51.68,52.16 5.10556,6.40518 12.91109,10.05639 21.1,9.87 3.55085,-0.0157 7.07598,-0.60327 10.44,-1.74 C 439.71,410 448,399.05 448,386.4 V 265.53 c 0.002,-1.94928 1.40826,-3.6135 3.33,-3.94 l 0.85,-0.14 C 461.8,258.84 480,247.67 480,224 480,200.33 461.8,189.16 452.18,186.55 Z M 240,320 V 152 c 0,-4.41828 -3.58172,-8 -8,-8 h -96 c -4.41828,0 -8,3.58172 -8,8 v 304 c 0,13.25483 10.74517,24 24,24 h 52.45 c 10.10385,0.0845 19.67787,-4.51238 25.93,-12.45 6.42153,-8.23141 8.37078,-19.10004 5.21,-29.05 -1.62,-5.18 -3.63,-11 -5.77,-17.19 -7.91,-22.9 -18.34,-37.07 -21.12,-69.32 17.39526,-0.38061 31.29873,-14.59057 31.3,-31.99 z"
     id="path4" />
</svg>
