<?xml version="1.0" encoding="utf-8"?>
<!-- Generator: Adobe Illustrator 24.0.0, SVG Export Plug-In . SVG Version: 6.00 Build 0)  -->
<svg version="1.1" id="Layer_1" xmlns="http://www.w3.org/2000/svg" xmlns:xlink="http://www.w3.org/1999/xlink" x="0px" y="0px"
	 viewBox="0 0 512 512" style="enable-background:new 0 0 512 512;" xml:space="preserve">
<title>ionicons-v5-g</title>
<g>
	<path d="M432,416c-4.1,0-8.2-1.6-11.3-4.7l-336-336c-6.2-6.2-6.2-16.4,0-22.6c6.2-6.2,16.4-6.2,22.6,0l336,336
		c6.2,6.2,6.2,16.4,0,22.6C440.2,414.4,436.1,416,432,416z"/>
</g>
<g>
	<path d="M400,240v-31.6c0-8.6-6.6-16-15.2-16.4c-8.8-0.4-16.3,6.4-16.8,15.2c0,0.3,0,0.5,0,0.8v32c0,7.8-0.8,15.6-2.5,23.3
		c-0.3,1.3,0.1,2.7,1.1,3.7l21.8,21.8c0.8,0.8,2,0.8,2.8,0c0.2-0.2,0.4-0.4,0.5-0.7C397.2,272.7,400,256.4,400,240z"/>
</g>
<g>
	<path d="M256,352c-61.8-0.2-111.8-50.2-112-112v-31.6c0-8.6-6.6-16-15.2-16.4c-8.8-0.4-16.3,6.4-16.8,15.2c0,0.3,0,0.5,0,0.8v32
		c0,74,56.1,135.1,128,143.1V432h-47.6c-8.6,0-16,6.6-16.4,15.2c-0.4,8.8,6.4,16.3,15.2,16.8c0.3,0,0.5,0,0.8,0h127.5
		c8.6,0,16-6.6,16.4-15.2c0.4-8.8-6.4-16.3-15.2-16.8c-0.3,0-0.5,0-0.8,0h-48v-48.9c18.2-2,35.9-7.5,52-16.2
		c1.9-1.1,2.7-3.5,1.6-5.4c-0.2-0.3-0.4-0.7-0.7-0.9L307,342.6c-1.2-1.2-3-1.5-4.5-0.8C287.9,348.6,272,352,256,352z"/>
</g>
<g>
	<path d="M256,80c26.1-0.5,47.5,20.3,48,46.3c0,0.6,0,1.1,0,1.7v74.7c0,1.1,0.4,2.1,1.2,2.8l27.4,27.5c0.8,0.8,2,0.8,2.8,0
		c0.4-0.4,0.6-0.9,0.6-1.4V128.9c0-43.9-35-80.3-78.9-80.9c-27.6-0.5-53.5,13.3-68.5,36.6c-1,1.6-0.8,3.7,0.5,5l19.5,19.5
		c0.8,0.8,2,0.8,2.8,0c0.2-0.2,0.3-0.4,0.4-0.6C219.6,91,236.9,79.8,256,80z"/>
</g>
<g>
	<path d="M207.3,242.9L179.4,215c-0.8-0.8-2-0.8-2.8,0c-0.4,0.4-0.6,0.9-0.6,1.4V239c0,21.3,8.4,41.8,23.4,56.9
		c20.1,20.9,49.9,29,77.8,21.2c1.1-0.3,1.7-1.4,1.4-2.5c-0.1-0.3-0.3-0.6-0.5-0.9l-24.9-24.9c-0.7-0.6-1.5-1.1-2.4-1.1
		c-21.6-2.5-39.5-20.4-42.4-42.4C208.3,244.4,207.9,243.5,207.3,242.9z"/>
</g>
</svg>
