<?xml version="1.0" encoding="utf-8"?>
<!-- Generator: Adobe Illustrator 24.0.0, SVG Export Plug-In . SVG Version: 6.00 Build 0)  -->
<svg version="1.1" id="Layer_1" xmlns="http://www.w3.org/2000/svg" xmlns:xlink="http://www.w3.org/1999/xlink" x="0px" y="0px"
	 viewBox="0 0 512 512" style="enable-background:new 0 0 512 512;" xml:space="preserve">
<title>ionicons-v5-g</title>
<g>
	<rect x="176" y="432" width="160" height="32"/>
</g>
<g>
	<path d="M256,384c-79.4,0-144-64.6-144-144v-48h32v48c0,29.8,11.7,57.9,32.9,79.1c21.2,21.2,49.3,32.9,79.1,32.9
		c29.8,0,57.9-11.7,79.1-32.9c21.2-21.2,32.9-49.3,32.9-79.1v-48h32v48C400,319.4,335.4,384,256,384z"/>
</g>
<g>
	<rect x="240" y="352" width="32" height="112"/>
</g>
<g>
	<path d="M256,320c-21.3,0-41.7-8.7-56.6-24.1c-15-15.1-23.4-35.6-23.4-56.9V128c-0.2-44,35.4-79.8,79.4-80c0.2,0,0.4,0,0.6,0
		c44.9,0,80,35.1,80,80v111C336,283.7,300.1,320,256,320z"/>
</g>
</svg>
