<?xml version="1.0" encoding="UTF-8"?>
<svg width="512px" height="512px" viewBox="0 0 512 512" version="1.1" xmlns="http://www.w3.org/2000/svg" xmlns:xlink="http://www.w3.org/1999/xlink">
    <!-- Generator: Sketch 62 (91390) - https://sketch.com -->
    <title>Artboard</title>
    <desc>Created with Sketch.</desc>
    <g id="Artboard" stroke="none" stroke-width="1" fill="none" fill-rule="evenodd">
        <g id="mic-off-sharp" transform="translate(65.000000, 45.000000)" fill="#000000" fill-rule="nonzero">
            <path d="M71,151 L71,199 C71,215.8 74.9,232.4 82.2,247.6 C109.2,303.3 176.3,326.6 232,299.6 L232,299.6 L255.6,323.3 C238.3,333.5 219,339.9 199,342.1 L199,342.1 L199,391 L263,391 L263,423 L103,423 L103,391 L167,391 L167,342.1 C95.1,334.1 39,273 39,199 L39,199 L39,151 L71,151 Z M22.98974,0.36614 L381.63086,359.00726 L359.00366,381.63446 L0.36254,22.99334 L22.98974,0.36614 Z M103,170.6 L207.4,275.1 C178.8,284.5 147.3,276.6 126.4,254.9 C111.4,239.8 103,219.3 103,198 L103,198 L103,170.6 Z M327.1,151 L327.1,199 C327.1,216.4 323.9,233.7 317.7,250 L317.7,250 L292.1,224.5 C294,216.1 295,207.6 295,199 L295,199 L295,151 L327.1,151 Z M183,6.9995031 C227.9,6.9995031 263,42.1 263,87 L263,87 L263,195.4 L114,46.3 C128.4,21.9 154.6,6.9 183,6.9995031 Z" id="Combined-Shape"></path>
        </g>
    </g>
</svg>