<?xml version="1.0" encoding="UTF-8" standalone="no"?>
<svg
   xmlns:dc="http://purl.org/dc/elements/1.1/"
   xmlns:cc="http://creativecommons.org/ns#"
   xmlns:rdf="http://www.w3.org/1999/02/22-rdf-syntax-ns#"
   xmlns:svg="http://www.w3.org/2000/svg"
   xmlns="http://www.w3.org/2000/svg"
   xmlns:sodipodi="http://sodipodi.sourceforge.net/DTD/sodipodi-0.dtd"
   xmlns:inkscape="http://www.inkscape.org/namespaces/inkscape"
   class="ionicon"
   viewBox="0 0 512 512"
   version="1.1"
   id="svg10"
   sodipodi:docname="mic-off-circle-outline.svg"
   inkscape:version="1.0.2 (e86c8708, 2021-01-15)">
  <metadata
     id="metadata16">
    <rdf:RDF>
      <cc:Work
         rdf:about="">
        <dc:format>image/svg+xml</dc:format>
        <dc:type
           rdf:resource="http://purl.org/dc/dcmitype/StillImage" />
      </cc:Work>
    </rdf:RDF>
  </metadata>
  <defs
     id="defs14" />
  <sodipodi:namedview
     pagecolor="#ffffff"
     bordercolor="#666666"
     borderopacity="1"
     objecttolerance="10"
     gridtolerance="10"
     guidetolerance="10"
     inkscape:pageopacity="0"
     inkscape:pageshadow="2"
     inkscape:window-width="689"
     inkscape:window-height="480"
     id="namedview12"
     showgrid="false"
     inkscape:zoom="1.3027344"
     inkscape:cx="256"
     inkscape:cy="256"
     inkscape:window-x="44"
     inkscape:window-y="25"
     inkscape:window-maximized="0"
     inkscape:current-layer="svg10" />
  <title
     id="title2">Mic Off Circle</title>
  <path
     style="color:#000000;font-style:normal;font-variant:normal;font-weight:normal;font-stretch:normal;font-size:medium;line-height:normal;font-family:sans-serif;font-variant-ligatures:normal;font-variant-position:normal;font-variant-caps:normal;font-variant-numeric:normal;font-variant-alternates:normal;font-variant-east-asian:normal;font-feature-settings:normal;font-variation-settings:normal;text-indent:0;text-align:start;text-decoration:none;text-decoration-line:none;text-decoration-style:solid;text-decoration-color:#000000;letter-spacing:normal;word-spacing:normal;text-transform:none;writing-mode:lr-tb;direction:ltr;text-orientation:mixed;dominant-baseline:auto;baseline-shift:baseline;text-anchor:start;white-space:normal;shape-padding:0;shape-margin:0;inline-size:0;clip-rule:nonzero;display:inline;overflow:visible;visibility:visible;isolation:auto;mix-blend-mode:normal;color-interpolation:sRGB;color-interpolation-filters:linearRGB;solid-color:#000000;solid-opacity:1;vector-effect:none;fill:#000000;fill-opacity:1;fill-rule:nonzero;stroke-width:1;stroke-linecap:butt;stroke-linejoin:miter;stroke-miterlimit:4;stroke-dasharray:none;stroke-dashoffset:0;stroke-opacity:1;color-rendering:auto;image-rendering:auto;shape-rendering:auto;text-rendering:auto;enable-background:accumulate;stop-color:#000000;stop-opacity:1;stroke:none;opacity:1"
     d="M 256,464 C 141.31,464 48,370.69 48,256 48,141.31 141.31,48 256,48 c 114.69,0 208,93.31 208,208 0,114.69 -93.31,208 -208,208 z m 0,-384 c -97,0 -176,79 -176,176 0,97 79,176 176,176 97,0 176,-78.95 176,-176 C 432,158.95 353.05,80 256,80 Z"
     id="path4" />
  <path
     style="color:#000000;font-style:normal;font-variant:normal;font-weight:normal;font-stretch:normal;font-size:medium;line-height:normal;font-family:sans-serif;font-variant-ligatures:normal;font-variant-position:normal;font-variant-caps:normal;font-variant-numeric:normal;font-variant-alternates:normal;font-variant-east-asian:normal;font-feature-settings:normal;font-variation-settings:normal;text-indent:0;text-align:start;text-decoration:none;text-decoration-line:none;text-decoration-style:solid;text-decoration-color:#000000;letter-spacing:normal;word-spacing:normal;text-transform:none;writing-mode:lr-tb;direction:ltr;text-orientation:mixed;dominant-baseline:auto;baseline-shift:baseline;text-anchor:start;white-space:normal;shape-padding:0;shape-margin:0;inline-size:0;clip-rule:nonzero;display:inline;overflow:visible;visibility:visible;isolation:auto;mix-blend-mode:normal;color-interpolation:sRGB;color-interpolation-filters:linearRGB;solid-color:#000000;solid-opacity:1;vector-effect:none;fill:#000000;fill-opacity:1;fill-rule:nonzero;stroke-width:1;stroke-linecap:butt;stroke-linejoin:miter;stroke-miterlimit:4;stroke-dasharray:none;stroke-dashoffset:0;stroke-opacity:1;color-rendering:auto;image-rendering:auto;shape-rendering:auto;text-rendering:auto;enable-background:accumulate;stop-color:#000000;stop-opacity:1;stroke:none;opacity:1"
     d="m 352,369 c -4.51053,0.008 -8.81316,-1.89587 -11.84,-5.24 l -192,-210 c -5.81453,-6.55434 -5.2759,-16.56619 1.20825,-22.45888 6.48415,-5.89269 16.50174,-5.47415 22.47175,0.93888 l 192,210 c 9.33952,10.2783 2.04777,26.75865 -11.84,26.76 z m 0,-120.78 v -23.8 c 0.0781,-8.03551 -5.71178,-14.929 -13.64,-16.24 C 328.48,206.7 320,214.69 320,224.3 v 23.92 c -0.0143,5.44915 -1.05581,10.84675 -3.07,15.91 -0.56029,1.41818 -0.26554,3.03154 0.76,4.16 l 19.19,21.1 c 0.89658,0.9907 2.49384,0.84049 3.19,-0.3 7.7329,-12.234 11.86713,-26.39711 11.93,-40.87 z M 304,240 v -64 c -0.0769,-26.47775 -21.52225,-47.92311 -48,-48 -16.75852,0.0284 -32.29311,8.78082 -41,23.1 -0.91877,1.51822 -0.72742,3.46029 0.47,4.77 l 84.42,92.86 c 1.11759,1.24517 3.17899,0.64939 3.46,-1 0.42556,-2.55482 0.64294,-5.13999 0.65,-7.73 z m -57.43,45.2 -36.46,-40.11 c -0.65599,-0.74287 -1.87685,-0.18155 -1.74,0.8 2.55605,20.14166 17.44507,36.52958 37.25,41 1.00166,0.27066 1.70185,-0.97495 0.95,-1.69 z"
     id="path6" />
  <path
     style="color:#000000;font-style:normal;font-variant:normal;font-weight:normal;font-stretch:normal;font-size:medium;line-height:normal;font-family:sans-serif;font-variant-ligatures:normal;font-variant-position:normal;font-variant-caps:normal;font-variant-numeric:normal;font-variant-alternates:normal;font-variant-east-asian:normal;font-feature-settings:normal;font-variation-settings:normal;text-indent:0;text-align:start;text-decoration:none;text-decoration-line:none;text-decoration-style:solid;text-decoration-color:#000000;letter-spacing:normal;word-spacing:normal;text-transform:none;writing-mode:lr-tb;direction:ltr;text-orientation:mixed;dominant-baseline:auto;baseline-shift:baseline;text-anchor:start;white-space:normal;shape-padding:0;shape-margin:0;inline-size:0;clip-rule:nonzero;display:inline;overflow:visible;visibility:visible;isolation:auto;mix-blend-mode:normal;color-interpolation:sRGB;color-interpolation-filters:linearRGB;solid-color:#000000;solid-opacity:1;vector-effect:none;fill:#000000;fill-opacity:1;fill-rule:nonzero;stroke-width:1;stroke-linecap:butt;stroke-linejoin:miter;stroke-miterlimit:4;stroke-dasharray:none;stroke-dashoffset:0;stroke-opacity:1;color-rendering:auto;image-rendering:auto;shape-rendering:auto;text-rendering:auto;enable-background:accumulate;stop-color:#000000;stop-opacity:1;stroke:none;opacity:1"
     d="M 287.55,352 H 272 v -17.74 c 4.23798,-0.75019 8.42329,-1.77231 12.53,-3.06 1.40292,-0.43097 1.87931,-2.17593 0.89,-3.26 l -21.07,-23.19 c -0.83152,-0.92528 -2.05118,-1.4035 -3.29,-1.29 -1.69,0.15 -3.39,0.24 -5.06,0.24 -36,0 -64,-29.82 -64,-55.48 V 224.4 c 0.0827,-8.78648 -6.83014,-16.04913 -15.61,-16.4 -9.00918,-0.2721 -16.44509,6.98689 -16.39,16 v 24.22 c 0,23.36 10.94,45.61 30.79,62.66 14.0266,12.03962 31.01619,20.11148 49.21,23.38 V 352 h -15.55 c -8.61,0 -16,6.62 -16.43,15.23 -0.43978,9.12773 6.84168,16.76917 15.98,16.77 h 64 c 9.14621,0.0106 16.44017,-7.63438 16,-16.77 C 303.58,358.62 296.16,352 287.55,352 Z"
     id="path8" />
</svg>
