<?xml version="1.0" encoding="utf-8"?>
<!-- Generator: Adobe Illustrator 24.0.0, SVG Export Plug-In . SVG Version: 6.00 Build 0)  -->
<svg version="1.1" id="Layer_1" xmlns="http://www.w3.org/2000/svg" xmlns:xlink="http://www.w3.org/1999/xlink" x="0px" y="0px"
	 viewBox="0 0 512 512" style="enable-background:new 0 0 512 512;" xml:space="preserve">
<title>ionicons-v5-g</title>
<g>
	<path d="M256,464c-114.7,0-208-93.3-208-208S141.3,48,256,48s208,93.3,208,208S370.7,464,256,464z M256,80c-97,0-176,79-176,176
		s79,176,176,176s176-79,176-176S353,80,256,80z"/>
</g>
<g>
	<path d="M288,384h-64c-8.8,0-16-7.2-16-16s7.2-16,16-16h64c8.8,0,16,7.2,16,16S296.8,384,288,384z"/>
</g>
<g>
	<path d="M256,335.7c-23.1,0-46.8-9-65.2-24.8c-19.9-17.1-30.8-39.3-30.8-62.7v-23.9c0-8.8,7.2-16,16-16s16,7.2,16,16v23.9
		c0,25.7,28,55.5,64,55.5c29.6,0,64-24.2,64-55.5v-23.9c0-8.8,7.2-16,16-16s16,7.2,16,16v23.9c0,23.4-10.9,45.6-30.8,62.7
		C302.8,326.7,279.1,335.7,256,335.7z"/>
</g>
<g>
	<path d="M256,384c-8.8,0-16-7.2-16-16v-48c0-8.8,7.2-16,16-16c8.8,0,16,7.2,16,16v48C272,376.8,264.8,384,256,384z"/>
</g>
<g>
	<path d="M256,128L256,128c26.5,0,48,21.5,48,48v64c0,26.5-21.5,48-48,48l0,0c-26.5,0-48-21.5-48-48v-64
		C208,149.5,229.5,128,256,128z"/>
</g>
</svg>
