<?xml version="1.0" encoding="UTF-8" standalone="no"?>
<svg
   xmlns:dc="http://purl.org/dc/elements/1.1/"
   xmlns:cc="http://creativecommons.org/ns#"
   xmlns:rdf="http://www.w3.org/1999/02/22-rdf-syntax-ns#"
   xmlns:svg="http://www.w3.org/2000/svg"
   xmlns="http://www.w3.org/2000/svg"
   xmlns:sodipodi="http://sodipodi.sourceforge.net/DTD/sodipodi-0.dtd"
   xmlns:inkscape="http://www.inkscape.org/namespaces/inkscape"
   class="ionicon"
   viewBox="0 0 512 512"
   version="1.1"
   id="svg10"
   sodipodi:docname="mic-off-outline.svg"
   inkscape:version="1.0.2 (e86c8708, 2021-01-15)">
  <metadata
     id="metadata16">
    <rdf:RDF>
      <cc:Work
         rdf:about="">
        <dc:format>image/svg+xml</dc:format>
        <dc:type
           rdf:resource="http://purl.org/dc/dcmitype/StillImage" />
      </cc:Work>
    </rdf:RDF>
  </metadata>
  <defs
     id="defs14" />
  <sodipodi:namedview
     pagecolor="#ffffff"
     bordercolor="#666666"
     borderopacity="1"
     objecttolerance="10"
     gridtolerance="10"
     guidetolerance="10"
     inkscape:pageopacity="0"
     inkscape:pageshadow="2"
     inkscape:window-width="689"
     inkscape:window-height="480"
     id="namedview12"
     showgrid="false"
     inkscape:zoom="1.3027344"
     inkscape:cx="256"
     inkscape:cy="256"
     inkscape:window-x="44"
     inkscape:window-y="25"
     inkscape:window-maximized="0"
     inkscape:current-layer="svg10" />
  <title
     id="title2">Mic Off</title>
  <path
     style="color:#000000;font-style:normal;font-variant:normal;font-weight:normal;font-stretch:normal;font-size:medium;line-height:normal;font-family:sans-serif;font-variant-ligatures:normal;font-variant-position:normal;font-variant-caps:normal;font-variant-numeric:normal;font-variant-alternates:normal;font-variant-east-asian:normal;font-feature-settings:normal;font-variation-settings:normal;text-indent:0;text-align:start;text-decoration:none;text-decoration-line:none;text-decoration-style:solid;text-decoration-color:#000000;letter-spacing:normal;word-spacing:normal;text-transform:none;writing-mode:lr-tb;direction:ltr;text-orientation:mixed;dominant-baseline:auto;baseline-shift:baseline;text-anchor:start;white-space:normal;shape-padding:0;shape-margin:0;inline-size:0;clip-rule:nonzero;display:inline;overflow:visible;visibility:visible;isolation:auto;mix-blend-mode:normal;color-interpolation:sRGB;color-interpolation-filters:linearRGB;solid-color:#000000;solid-opacity:1;vector-effect:none;fill:currentColor;fill-opacity:1;fill-rule:nonzero;stroke:none;stroke-linecap:round;stroke-linejoin:miter;stroke-miterlimit:10;stroke-dasharray:none;stroke-dashoffset:0;stroke-opacity:1;color-rendering:auto;image-rendering:auto;shape-rendering:auto;text-rendering:auto;enable-background:accumulate;stop-color:#000000;stop-opacity:1;opacity:1"
     d="M 96.121094 48 A 16 16 0 0 0 84.685547 52.685547 A 16 16 0 0 0 84.685547 75.314453 L 420.68555 411.31445 A 16 16 0 0 0 443.31445 411.31445 A 16 16 0 0 0 443.31445 388.68555 L 107.31445 52.685547 A 16 16 0 0 0 96.121094 48 z "
     id="path4" />
  <path
     style="color:#000000;font-style:normal;font-variant:normal;font-weight:normal;font-stretch:normal;font-size:medium;line-height:normal;font-family:sans-serif;font-variant-ligatures:normal;font-variant-position:normal;font-variant-caps:normal;font-variant-numeric:normal;font-variant-alternates:normal;font-variant-east-asian:normal;font-feature-settings:normal;font-variation-settings:normal;text-indent:0;text-align:start;text-decoration:none;text-decoration-line:none;text-decoration-style:solid;text-decoration-color:#000000;letter-spacing:normal;word-spacing:normal;text-transform:none;writing-mode:lr-tb;direction:ltr;text-orientation:mixed;dominant-baseline:auto;baseline-shift:baseline;text-anchor:start;white-space:normal;shape-padding:0;shape-margin:0;inline-size:0;clip-rule:nonzero;display:inline;overflow:visible;visibility:visible;isolation:auto;mix-blend-mode:normal;color-interpolation:sRGB;color-interpolation-filters:linearRGB;solid-color:#000000;solid-opacity:1;vector-effect:none;fill:#000000;fill-opacity:1;fill-rule:nonzero;stroke-width:1;stroke-linecap:butt;stroke-linejoin:miter;stroke-miterlimit:4;stroke-dasharray:none;stroke-dashoffset:0;stroke-opacity:1;color-rendering:auto;image-rendering:auto;shape-rendering:auto;text-rendering:auto;enable-background:accumulate;stop-color:#000000;stop-opacity:1;stroke:none;opacity:1"
     d="m 400,240 v -31.55 c 0,-8.61 -6.62,-16 -15.23,-16.43 -9.12773,-0.43978 -16.76917,6.84168 -16.77,15.98 v 32 c 0.004,7.83446 -0.81726,15.64756 -2.45,23.31 -0.28657,1.33167 0.11549,2.71821 1.07,3.69 l 21.82,21.81 c 1.03117,1.03131 2.78385,0.64775 3.29,-0.72 5.48627,-15.43917 8.2835,-31.70504 8.27,-48.09 z M 256,352 C 194.22614,351.80239 144.19761,301.77386 144,240 v -31.55 c 0,-8.61 -6.62,-16 -15.23,-16.43 -9.12773,-0.43978 -16.76917,6.84168 -16.77,15.98 v 32 c 0,74 56.1,135.12 128,143.11 V 432 h -47.55 c -8.61,0 -16,6.62 -16.43,15.23 -0.43978,9.12773 6.84168,16.76917 15.98,16.77 h 127.55 c 8.61,0 16,-6.62 16.43,-15.23 0.43978,-9.12773 -6.84168,-16.76917 -15.98,-16.77 h -48 v -48.89 c 18.21207,-2.02692 35.86525,-7.53335 52,-16.22 2.3518,-1.27887 2.80798,-4.46211 0.91,-6.35 L 307,342.63 c -1.19136,-1.17937 -2.99175,-1.49075 -4.51,-0.78 -14.57849,6.71095 -30.44106,10.17417 -46.49,10.15 z m 0,-272 c 26.70122,-0.468251 48.46825,21.29878 48,48 v 74.72 c 0.002,1.05772 0.42249,2.07166 1.17,2.82 L 332.59,233 c 1.26218,1.25469 3.41141,0.35971 3.41,-1.42 V 128.91 C 336,85 301,48.6 257.14,48 c -27.62041,-0.506871 -53.5316,13.332362 -68.47,36.57 -1.02125,1.585556 -0.79623,3.669052 0.54,5 l 19.54,19.54 c 1.00156,0.99754 2.69372,0.66953 3.25,-0.63 7.61517,-17.469097 24.94435,-28.685807 44,-28.48 z"
     id="path6" />
  <path
     style="color:#000000;font-style:normal;font-variant:normal;font-weight:normal;font-stretch:normal;font-size:medium;line-height:normal;font-family:sans-serif;font-variant-ligatures:normal;font-variant-position:normal;font-variant-caps:normal;font-variant-numeric:normal;font-variant-alternates:normal;font-variant-east-asian:normal;font-feature-settings:normal;font-variation-settings:normal;text-indent:0;text-align:start;text-decoration:none;text-decoration-line:none;text-decoration-style:solid;text-decoration-color:#000000;letter-spacing:normal;word-spacing:normal;text-transform:none;writing-mode:lr-tb;direction:ltr;text-orientation:mixed;dominant-baseline:auto;baseline-shift:baseline;text-anchor:start;white-space:normal;shape-padding:0;shape-margin:0;inline-size:0;clip-rule:nonzero;display:inline;overflow:visible;visibility:visible;isolation:auto;mix-blend-mode:normal;color-interpolation:sRGB;color-interpolation-filters:linearRGB;solid-color:#000000;solid-opacity:1;vector-effect:none;fill:#000000;fill-opacity:1;fill-rule:nonzero;stroke-width:1;stroke-linecap:butt;stroke-linejoin:miter;stroke-miterlimit:4;stroke-dasharray:none;stroke-dashoffset:0;stroke-opacity:1;color-rendering:auto;image-rendering:auto;shape-rendering:auto;text-rendering:auto;enable-background:accumulate;stop-color:#000000;stop-opacity:1;stroke:none;opacity:1"
     d="M 207.27,242.9 179.41,215 c -1.26218,-1.25469 -3.41141,-0.35971 -3.41,1.42 V 239 c 0.0144,21.31553 8.44172,41.76384 23.45,56.9 20.05283,20.85066 49.94325,28.99177 77.8,21.19 1.47707,-0.41682 1.95364,-2.27324 0.86,-3.35 L 253.2,288.83 c -0.65421,-0.64483 -1.50688,-1.05002 -2.42,-1.15 -21.65,-2.52 -39.48,-20.44 -42.37,-42.43 -0.10634,-0.88883 -0.50775,-1.7163 -1.14,-2.35 z"
     id="path8" />
</svg>
