<?xml version="1.0" encoding="utf-8"?>
<!-- Generator: Adobe Illustrator 24.0.0, SVG Export Plug-In . SVG Version: 6.00 Build 0)  -->
<svg version="1.1" id="Layer_1" xmlns="http://www.w3.org/2000/svg" xmlns:xlink="http://www.w3.org/1999/xlink" x="0px" y="0px"
	 viewBox="0 0 512 512" style="enable-background:new 0 0 512 512;" xml:space="preserve">
<title>ionicons-v5-j</title>
<g>
	<path d="M264,480c-62,0-120.2-24.1-164-68C56.1,368.2,32,310,32,248c0-94,54-178.3,137.6-214.7c6-2.6,13.1-1.3,17.7,3.4
		c4.6,4.7,6,11.7,3.4,17.7c-9.6,22-14.7,50.3-14.7,81.6c0,110.3,89.7,200,200,200c31.3,0,59.6-5.1,81.6-14.7c6-2.6,13-1.3,17.7,3.4
		c4.6,4.6,6,11.7,3.4,17.7C442.3,426,358,480,264,480z M149.1,81.3C96.4,118.1,64,180.1,64,248c0,110.3,89.7,200,200,200
		c67.9,0,129.9-32.4,166.7-85.1c-16.8,3.4-35.1,5.1-54.7,5.1c-62,0-120.2-24.1-164-68c-43.8-43.8-68-102.1-68-164
		C144,116.4,145.7,98.1,149.1,81.3z"/>
</g>
</svg>
