<?xml version="1.0" encoding="UTF-8" standalone="no"?>
<svg
   xmlns:dc="http://purl.org/dc/elements/1.1/"
   xmlns:cc="http://creativecommons.org/ns#"
   xmlns:rdf="http://www.w3.org/1999/02/22-rdf-syntax-ns#"
   xmlns:svg="http://www.w3.org/2000/svg"
   xmlns="http://www.w3.org/2000/svg"
   xmlns:sodipodi="http://sodipodi.sourceforge.net/DTD/sodipodi-0.dtd"
   xmlns:inkscape="http://www.inkscape.org/namespaces/inkscape"
   class="ionicon"
   viewBox="0 0 512 512"
   version="1.1"
   id="svg6"
   sodipodi:docname="move-outline.svg"
   inkscape:version="1.0.2 (e86c8708, 2021-01-15)">
  <metadata
     id="metadata12">
    <rdf:RDF>
      <cc:Work
         rdf:about="">
        <dc:format>image/svg+xml</dc:format>
        <dc:type
           rdf:resource="http://purl.org/dc/dcmitype/StillImage" />
      </cc:Work>
    </rdf:RDF>
  </metadata>
  <defs
     id="defs10" />
  <sodipodi:namedview
     pagecolor="#ffffff"
     bordercolor="#666666"
     borderopacity="1"
     objecttolerance="10"
     gridtolerance="10"
     guidetolerance="10"
     inkscape:pageopacity="0"
     inkscape:pageshadow="2"
     inkscape:window-width="689"
     inkscape:window-height="480"
     id="namedview8"
     showgrid="false"
     inkscape:zoom="1.3027344"
     inkscape:cx="256"
     inkscape:cy="256"
     inkscape:window-x="44"
     inkscape:window-y="25"
     inkscape:window-maximized="0"
     inkscape:current-layer="svg6" />
  <title
     id="title2">Move</title>
  <path
     style="color:#000000;font-style:normal;font-variant:normal;font-weight:normal;font-stretch:normal;font-size:medium;line-height:normal;font-family:sans-serif;font-variant-ligatures:normal;font-variant-position:normal;font-variant-caps:normal;font-variant-numeric:normal;font-variant-alternates:normal;font-variant-east-asian:normal;font-feature-settings:normal;font-variation-settings:normal;text-indent:0;text-align:start;text-decoration:none;text-decoration-line:none;text-decoration-style:solid;text-decoration-color:#000000;letter-spacing:normal;word-spacing:normal;text-transform:none;writing-mode:lr-tb;direction:ltr;text-orientation:mixed;dominant-baseline:auto;baseline-shift:baseline;text-anchor:start;white-space:normal;shape-padding:0;shape-margin:0;inline-size:0;clip-rule:nonzero;display:inline;overflow:visible;visibility:visible;isolation:auto;mix-blend-mode:normal;color-interpolation:sRGB;color-interpolation-filters:linearRGB;solid-color:#000000;solid-opacity:1;vector-effect:none;fill:currentColor;fill-opacity:1;fill-rule:nonzero;stroke:none;stroke-linecap:round;stroke-linejoin:round;stroke-miterlimit:4;stroke-dasharray:none;stroke-dashoffset:0;stroke-opacity:1;color-rendering:auto;image-rendering:auto;shape-rendering:auto;text-rendering:auto;enable-background:accumulate;stop-color:#000000;stop-opacity:1;opacity:1"
     d="M 255.97852 16 A 16 16 0 0 0 255.81055 16.001953 A 16 16 0 0 0 255.7832 16.001953 A 16.0016 16.0016 0 0 0 255.75586 16.001953 A 16 16 0 0 0 255.44727 16.009766 A 16 16 0 0 0 254.77539 16.046875 A 16 16 0 0 0 244.24219 21.128906 L 164.68555 100.68555 A 16 16 0 0 0 164.68555 123.31445 A 16 16 0 0 0 187.31445 123.31445 L 239.98242 70.646484 L 239.99023 240 L 70.628906 240 L 123.31445 187.31445 A 16 16 0 0 0 123.31445 164.68555 A 16 16 0 0 0 100.68555 164.68555 L 20.771484 244.60156 L 20.685547 244.68555 A 16.0016 16.0016 0 0 0 20.535156 244.83984 A 16.0016 16.0016 0 0 0 20.390625 244.99023 A 16 16 0 0 0 20.240234 245.15234 A 16.0016 16.0016 0 0 0 20.150391 245.25 A 16 16 0 0 0 20.050781 245.36133 A 16.0016 16.0016 0 0 0 19.996094 245.42188 A 16 16 0 0 0 19.855469 245.58398 A 16.0016 16.0016 0 0 0 19.664062 245.81055 A 16 16 0 0 0 19.599609 245.89062 A 16.0016 16.0016 0 0 0 19.525391 245.98047 A 16 16 0 0 0 19.378906 246.16602 A 16.0016 16.0016 0 0 0 19.263672 246.31836 A 16 16 0 0 0 19.208984 246.39062 A 16.0016 16.0016 0 0 0 19.087891 246.55273 A 16 16 0 0 0 19.023438 246.64062 A 16.0016 16.0016 0 0 0 18.953125 246.74023 A 16 16 0 0 0 18.792969 246.9668 A 16.0016 16.0016 0 0 0 18.675781 247.14453 A 16 16 0 0 0 18.619141 247.22852 A 16.0016 16.0016 0 0 0 18.574219 247.29688 A 16 16 0 0 0 18.458984 247.47852 A 16.0016 16.0016 0 0 0 18.320312 247.70312 A 16 16 0 0 0 18.251953 247.81641 A 16.0016 16.0016 0 0 0 18.142578 248.00586 A 16 16 0 0 0 18.103516 248.07422 A 16.0016 16.0016 0 0 0 17.974609 248.30469 A 16 16 0 0 0 17.935547 248.375 A 16.0016 16.0016 0 0 0 17.847656 248.53711 A 16 16 0 0 0 17.736328 248.75391 A 16 16 0 0 0 17.597656 249.03125 A 16.0016 16.0016 0 0 0 17.560547 249.10938 A 16 16 0 0 0 17.457031 249.33203 A 16.0016 16.0016 0 0 0 17.412109 249.42773 A 16 16 0 0 0 17.335938 249.59961 A 16.0016 16.0016 0 0 0 17.265625 249.76172 A 16 16 0 0 0 17.181641 249.96875 A 16.0016 16.0016 0 0 0 17.173828 249.98633 A 16 16 0 0 0 17.054688 250.29102 A 16 16 0 0 0 16.9375 250.60547 A 16 16 0 0 0 16.828125 250.92383 A 16 16 0 0 0 16.724609 251.24414 A 16 16 0 0 0 16.626953 251.56641 A 16 16 0 0 0 16.537109 251.89062 A 16 16 0 0 0 16.455078 252.2168 A 16 16 0 0 0 16.378906 252.54297 A 16 16 0 0 0 16.310547 252.86328 A 16.0016 16.0016 0 0 0 16.302734 252.90234 A 16 16 0 0 0 16.257812 253.14453 A 16.0016 16.0016 0 0 0 16.220703 253.35352 A 16 16 0 0 0 16.205078 253.44727 A 16.0016 16.0016 0 0 0 16.191406 253.53516 A 16 16 0 0 0 16.160156 253.74805 A 16.0016 16.0016 0 0 0 16.128906 253.98438 A 16 16 0 0 0 16.103516 254.18359 A 16.0016 16.0016 0 0 0 16.099609 254.21875 A 16 16 0 0 0 16.068359 254.53711 A 16 16 0 0 0 16.041016 254.87109 A 16 16 0 0 0 16.019531 255.19336 A 16.0016 16.0016 0 0 0 16.019531 255.22656 A 16 16 0 0 0 16.007812 255.54297 A 16 16 0 0 0 16.001953 255.87891 A 16 16 0 0 0 16 256 A 16 16 0 0 0 16.001953 256.16797 A 16.0016 16.0016 0 0 0 16.003906 256.26562 A 16 16 0 0 0 16.007812 256.47656 A 16.0016 16.0016 0 0 0 16.011719 256.57812 A 16 16 0 0 0 16.025391 256.88867 A 16 16 0 0 0 16.042969 257.16016 A 16.0016 16.0016 0 0 0 16.052734 257.28711 A 16 16 0 0 0 16.068359 257.46094 A 16.0016 16.0016 0 0 0 16.080078 257.5918 A 16 16 0 0 0 16.113281 257.89453 A 16 16 0 0 0 16.148438 258.16211 A 16.0016 16.0016 0 0 0 16.166016 258.29688 A 16 16 0 0 0 16.185547 258.42578 A 16.0016 16.0016 0 0 0 16.21875 258.63281 A 16 16 0 0 0 16.248047 258.79688 A 16.0016 16.0016 0 0 0 16.267578 258.91602 A 16 16 0 0 0 16.328125 259.2207 A 16 16 0 0 0 16.400391 259.55078 A 16 16 0 0 0 16.466797 259.83203 A 16.0016 16.0016 0 0 0 16.484375 259.90625 A 16 16 0 0 0 16.5625 260.20117 A 16.0016 16.0016 0 0 0 16.5625 260.20312 A 16 16 0 0 0 16.644531 260.49609 A 16.0016 16.0016 0 0 0 16.660156 260.54492 A 16 16 0 0 0 16.728516 260.76953 A 16.0016 16.0016 0 0 0 16.769531 260.9043 A 16 16 0 0 0 16.824219 261.06445 A 16.0016 16.0016 0 0 0 16.871094 261.20898 A 16 16 0 0 0 16.970703 261.48438 A 16 16 0 0 0 17.042969 261.67773 A 16.0016 16.0016 0 0 0 17.132812 261.91016 A 16.0016 16.0016 0 0 0 17.246094 262.1875 A 16 16 0 0 0 17.259766 262.22266 A 16.0016 16.0016 0 0 0 17.345703 262.42188 A 16 16 0 0 0 17.484375 262.72852 A 16 16 0 0 0 17.626953 263.02734 A 16.0016 16.0016 0 0 0 17.632812 263.03711 A 16 16 0 0 0 17.732422 263.23828 A 16.0016 16.0016 0 0 0 17.800781 263.37109 A 16 16 0 0 0 17.9375 263.62891 A 16 16 0 0 0 18.039062 263.8125 A 16.0016 16.0016 0 0 0 18.160156 264.02734 A 16.0016 16.0016 0 0 0 18.330078 264.31055 A 16 16 0 0 0 18.341797 264.33203 A 16.0016 16.0016 0 0 0 18.486328 264.56445 A 16 16 0 0 0 18.548828 264.66211 A 16.0016 16.0016 0 0 0 18.677734 264.85742 A 16 16 0 0 0 18.738281 264.94922 A 16.0016 16.0016 0 0 0 18.837891 265.0957 A 16 16 0 0 0 18.976562 265.29297 A 16.0016 16.0016 0 0 0 19.029297 265.36719 A 16 16 0 0 0 19.158203 265.54297 A 16.0016 16.0016 0 0 0 19.238281 265.65039 A 16 16 0 0 0 19.34375 265.78906 A 16.0016 16.0016 0 0 0 19.447266 265.91992 A 16 16 0 0 0 19.486328 265.9707 A 16.0016 16.0016 0 0 0 19.623047 266.13867 A 16 16 0 0 0 19.787109 266.33594 A 16.0016 16.0016 0 0 0 19.837891 266.39648 A 16 16 0 0 0 19.916016 266.48633 A 16.0016 16.0016 0 0 0 20.132812 266.73242 A 16 16 0 0 0 20.162109 266.76367 A 16.0016 16.0016 0 0 0 20.318359 266.93359 A 16 16 0 0 0 20.46875 267.08984 A 16.0016 16.0016 0 0 0 20.517578 267.14258 A 16 16 0 0 0 20.601562 267.22852 A 16.0016 16.0016 0 0 0 20.685547 267.31445 L 100.68555 347.31445 A 16 16 0 0 0 123.31445 347.31445 A 16 16 0 0 0 123.31445 324.68555 L 70.628906 272 L 239.99023 272 L 239.99805 441.36914 L 187.31445 388.68555 A 16 16 0 0 0 164.68555 388.68555 A 16 16 0 0 0 164.68555 411.31445 L 244.60156 491.22852 L 244.68555 491.31445 A 16.0016 16.0016 0 0 0 244.83984 491.46484 A 16.0016 16.0016 0 0 0 245.06641 491.67969 A 16 16 0 0 0 245.0957 491.70898 A 16.0016 16.0016 0 0 0 245.28906 491.88477 A 16 16 0 0 0 245.375 491.96289 A 16.0016 16.0016 0 0 0 245.46875 492.04492 A 16 16 0 0 0 245.63086 492.18555 A 16.0016 16.0016 0 0 0 245.79297 492.32227 A 16 16 0 0 0 245.875 492.38867 A 16.0016 16.0016 0 0 0 246.09375 492.5625 A 16 16 0 0 0 246.10938 492.57617 A 16.0016 16.0016 0 0 0 246.3418 492.75391 A 16 16 0 0 0 246.39258 492.79297 A 16.0016 16.0016 0 0 0 246.53516 492.89844 A 16 16 0 0 0 246.74023 493.04688 A 16 16 0 0 0 246.9668 493.20703 A 16.0016 16.0016 0 0 0 247.14453 493.32422 A 16 16 0 0 0 247.47852 493.54102 A 16.0016 16.0016 0 0 0 247.66992 493.66016 A 16 16 0 0 0 247.86914 493.7793 A 16 16 0 0 0 248.16016 493.94727 A 16 16 0 0 0 248.40625 494.08203 A 16.0016 16.0016 0 0 0 248.56836 494.16797 A 16 16 0 0 0 248.64648 494.20898 A 16.0016 16.0016 0 0 0 248.75391 494.26367 A 16 16 0 0 0 249.02148 494.39844 A 16.0016 16.0016 0 0 0 249.1875 494.47656 A 16 16 0 0 0 249.27539 494.51758 A 16.0016 16.0016 0 0 0 249.35938 494.55664 A 16 16 0 0 0 249.55664 494.64453 A 16.0016 16.0016 0 0 0 249.78125 494.74023 A 16 16 0 0 0 249.95117 494.8125 A 16.0016 16.0016 0 0 0 250.02148 494.83984 A 16 16 0 0 0 250.28711 494.94336 A 16.0016 16.0016 0 0 0 250.29883 494.94727 A 16 16 0 0 0 250.57422 495.05078 A 16.0016 16.0016 0 0 0 250.63672 495.07422 A 16 16 0 0 0 250.92383 495.17188 A 16 16 0 0 0 251.24414 495.27539 A 16 16 0 0 0 251.56445 495.37305 A 16 16 0 0 0 251.56641 495.37305 A 16.0016 16.0016 0 0 0 251.57031 495.375 A 16 16 0 0 0 251.875 495.45898 A 16.0016 16.0016 0 0 0 251.9043 495.4668 A 16 16 0 0 0 252.2168 495.54492 A 16 16 0 0 0 252.54297 495.62109 A 16 16 0 0 0 252.86328 495.68945 A 16.0016 16.0016 0 0 0 252.90234 495.69727 A 16 16 0 0 0 253.14062 495.74219 A 16.0016 16.0016 0 0 0 253.40039 495.78711 A 16 16 0 0 0 253.42383 495.79102 A 16.0016 16.0016 0 0 0 253.74805 495.83984 A 16.0016 16.0016 0 0 0 254 495.87305 A 16 16 0 0 0 254.16406 495.89453 A 16.0016 16.0016 0 0 0 254.23633 495.90234 A 16 16 0 0 0 254.53711 495.93164 A 16 16 0 0 0 254.87109 495.95898 A 16 16 0 0 0 255.19336 495.98047 A 16 16 0 0 0 255.22656 495.98047 A 16 16 0 0 0 255.54297 495.99219 A 16 16 0 0 0 255.87891 495.99805 A 16 16 0 0 0 256 496 A 16 16 0 0 0 256.16797 495.99805 A 16 16 0 0 0 256.26367 495.99609 A 16.0016 16.0016 0 0 0 256.33789 495.99609 A 16 16 0 0 0 256.55273 495.99023 A 16.0016 16.0016 0 0 0 256.57422 495.98828 A 16 16 0 0 0 256.88867 495.97461 A 16 16 0 0 0 257.16602 495.95703 A 16 16 0 0 0 257.22461 495.95312 A 16.0016 16.0016 0 0 0 257.34375 495.94336 A 16 16 0 0 0 257.55859 495.92383 A 16.0016 16.0016 0 0 0 257.58398 495.92188 A 16 16 0 0 0 257.89453 495.88672 A 16 16 0 0 0 258.17383 495.85156 A 16 16 0 0 0 258.22656 495.84375 A 16.0016 16.0016 0 0 0 258.34766 495.82617 A 16 16 0 0 0 258.56055 495.79297 A 16.0016 16.0016 0 0 0 258.67969 495.77344 A 16 16 0 0 0 258.89062 495.73633 A 16.0016 16.0016 0 0 0 258.91016 495.73242 A 16 16 0 0 0 259.2207 495.67188 A 16 16 0 0 0 259.55078 495.59961 A 16 16 0 0 0 259.83203 495.5332 A 16 16 0 0 0 259.87695 495.52344 A 16.0016 16.0016 0 0 0 259.90625 495.51562 A 16 16 0 0 0 260.20117 495.4375 A 16 16 0 0 0 260.20312 495.4375 A 16 16 0 0 0 260.52734 495.3457 A 16 16 0 0 0 260.80078 495.26172 A 16 16 0 0 0 260.84766 495.24805 A 16.0016 16.0016 0 0 0 260.96289 495.21094 A 16 16 0 0 0 261.16797 495.14258 A 16.0016 16.0016 0 0 0 261.20898 495.12891 A 16 16 0 0 0 261.48438 495.0293 A 16.0016 16.0016 0 0 0 261.59766 494.98828 A 16 16 0 0 0 261.79883 494.91211 A 16.0016 16.0016 0 0 0 261.91211 494.86719 A 16 16 0 0 0 262.11133 494.78711 A 16.0016 16.0016 0 0 0 262.22266 494.74023 A 16 16 0 0 0 262.42188 494.6543 A 16.0016 16.0016 0 0 0 262.53125 494.60547 A 16 16 0 0 0 262.72852 494.51562 A 16.0016 16.0016 0 0 0 262.83789 494.46484 A 16 16 0 0 0 263.03125 494.37109 A 16.0016 16.0016 0 0 0 263.13867 494.31836 A 16 16 0 0 0 263.33203 494.2207 A 16.0016 16.0016 0 0 0 263.3418 494.21484 A 16 16 0 0 0 263.62891 494.0625 A 16.0016 16.0016 0 0 0 263.73438 494.00586 A 16 16 0 0 0 263.8125 493.96094 A 16.0016 16.0016 0 0 0 264.02734 493.83984 A 16.0016 16.0016 0 0 0 264.31055 493.66992 A 16.0016 16.0016 0 0 0 264.31641 493.66797 A 16 16 0 0 0 264.5 493.55469 A 16.0016 16.0016 0 0 0 264.60156 493.49023 A 16 16 0 0 0 264.7832 493.37305 A 16.0016 16.0016 0 0 0 264.80859 493.35742 A 16 16 0 0 0 265.03516 493.20312 A 16 16 0 0 0 265.0625 493.18555 A 16.0016 16.0016 0 0 0 265.16211 493.11719 A 16 16 0 0 0 265.33789 492.99219 A 16.0016 16.0016 0 0 0 265.43555 492.92188 A 16 16 0 0 0 265.60938 492.79297 A 16.0016 16.0016 0 0 0 265.70508 492.7207 A 16 16 0 0 0 265.87695 492.58789 A 16.0016 16.0016 0 0 0 265.9707 492.51367 A 16 16 0 0 0 266.13867 492.37695 A 16.0016 16.0016 0 0 0 266.23047 492.30078 A 16 16 0 0 0 266.39648 492.16211 A 16.0016 16.0016 0 0 0 266.48828 492.08398 A 16 16 0 0 0 266.65039 491.94141 A 16.0016 16.0016 0 0 0 266.73828 491.86133 A 16 16 0 0 0 266.89844 491.71484 A 16.0016 16.0016 0 0 0 266.98633 491.63281 A 16 16 0 0 0 267.14258 491.48242 A 16.0016 16.0016 0 0 0 267.22852 491.39844 A 16.0016 16.0016 0 0 0 267.31445 491.31445 L 347.31445 411.31445 A 16 16 0 0 0 347.31445 388.68555 A 16 16 0 0 0 324.68555 388.68555 L 271.99805 441.37305 L 271.99023 272 L 441.37109 272 L 388.68555 324.68555 A 16 16 0 0 0 388.68555 347.31445 A 16 16 0 0 0 411.31445 347.31445 L 491.22852 267.39844 L 491.31445 267.31445 A 16.0016 16.0016 0 0 0 491.46484 267.16016 A 16 16 0 0 0 491.54883 267.07422 A 16.0016 16.0016 0 0 0 491.60938 267.00977 A 16 16 0 0 0 491.75977 266.84766 A 16 16 0 0 0 491.7793 266.82812 A 16.0016 16.0016 0 0 0 491.92383 266.66797 A 16 16 0 0 0 492.00391 266.57812 A 16.0016 16.0016 0 0 0 492.14453 266.41602 A 16.0016 16.0016 0 0 0 492.33594 266.18945 A 16.0016 16.0016 0 0 0 492.36133 266.1582 A 16 16 0 0 0 492.4375 266.06445 A 16.0016 16.0016 0 0 0 492.57227 265.89648 A 16 16 0 0 0 492.64648 265.80078 A 16.0016 16.0016 0 0 0 492.77734 265.62891 A 16 16 0 0 0 492.84961 265.5332 A 16.0016 16.0016 0 0 0 492.97656 265.35938 A 16 16 0 0 0 493.04688 265.25977 A 16.0016 16.0016 0 0 0 493.17188 265.08398 A 16 16 0 0 0 493.24023 264.98438 A 16.0016 16.0016 0 0 0 493.35938 264.80469 A 16 16 0 0 0 493.42578 264.70312 A 16.0016 16.0016 0 0 0 493.54102 264.52148 A 16.0016 16.0016 0 0 0 493.67969 264.29688 A 16.0016 16.0016 0 0 0 493.7168 264.23633 A 16 16 0 0 0 493.7793 264.13086 A 16.0016 16.0016 0 0 0 493.88672 263.94531 A 16 16 0 0 0 493.94727 263.83984 A 16.0016 16.0016 0 0 0 494.05078 263.65234 A 16 16 0 0 0 494.10938 263.54492 A 16.0016 16.0016 0 0 0 494.15234 263.46289 A 16 16 0 0 0 494.26367 263.24609 A 16 16 0 0 0 494.40234 262.96875 A 16 16 0 0 0 494.41406 262.94531 A 16.0016 16.0016 0 0 0 494.50586 262.75195 A 16 16 0 0 0 494.55664 262.64062 A 16.0016 16.0016 0 0 0 494.64453 262.44531 A 16 16 0 0 0 494.69336 262.33398 A 16.0016 16.0016 0 0 0 494.77734 262.13477 A 16 16 0 0 0 494.82227 262.02344 A 16.0016 16.0016 0 0 0 494.82617 262.01367 A 16 16 0 0 0 494.94531 261.70898 A 16 16 0 0 0 495.0625 261.39453 A 16 16 0 0 0 495.17188 261.07617 A 16 16 0 0 0 495.27539 260.75586 A 16 16 0 0 0 495.37305 260.43359 A 16 16 0 0 0 495.46289 260.10938 A 16 16 0 0 0 495.54492 259.7832 A 16 16 0 0 0 495.62109 259.45703 A 16 16 0 0 0 495.68945 259.13672 A 16 16 0 0 0 495.69141 259.12695 A 16.0016 16.0016 0 0 0 495.73242 258.91602 A 16 16 0 0 0 495.75391 258.79688 A 16.0016 16.0016 0 0 0 495.78906 258.58594 A 16 16 0 0 0 495.80859 258.46484 A 16.0016 16.0016 0 0 0 495.83984 258.25195 A 16.0016 16.0016 0 0 0 495.87109 258.01562 A 16 16 0 0 0 495.89648 257.81641 A 16 16 0 0 0 495.89844 257.79883 A 16.0016 16.0016 0 0 0 495.90039 257.78125 A 16 16 0 0 0 495.93164 257.46289 A 16 16 0 0 0 495.95898 257.12891 A 16 16 0 0 0 495.98047 256.80664 A 16 16 0 0 0 495.98047 256.79297 A 16.0016 16.0016 0 0 0 495.98047 256.77344 A 16 16 0 0 0 495.99219 256.45703 A 16 16 0 0 0 495.99805 256.12109 A 16 16 0 0 0 496 256 A 16 16 0 0 0 495.99805 255.83203 A 16 16 0 0 0 495.99805 255.7832 A 16.0016 16.0016 0 0 0 495.99609 255.66406 A 16 16 0 0 0 495.99023 255.44727 A 16.0016 16.0016 0 0 0 495.98828 255.42188 A 16 16 0 0 0 495.97461 255.11133 A 16 16 0 0 0 495.95703 254.83984 A 16 16 0 0 0 495.95312 254.77539 A 16.0016 16.0016 0 0 0 495.94336 254.65625 A 16 16 0 0 0 495.92383 254.44141 A 16.0016 16.0016 0 0 0 495.91992 254.4082 A 16 16 0 0 0 495.88672 254.10547 A 16 16 0 0 0 495.85156 253.83789 A 16 16 0 0 0 495.84375 253.77344 A 16.0016 16.0016 0 0 0 495.82617 253.6543 A 16 16 0 0 0 495.79297 253.43945 A 16.0016 16.0016 0 0 0 495.77344 253.32227 A 16 16 0 0 0 495.73633 253.10938 A 16.0016 16.0016 0 0 0 495.73242 253.08398 A 16 16 0 0 0 495.67188 252.7793 A 16 16 0 0 0 495.59961 252.44922 A 16 16 0 0 0 495.5332 252.16797 A 16 16 0 0 0 495.52344 252.12305 A 16.0016 16.0016 0 0 0 495.51562 252.09375 A 16 16 0 0 0 495.4375 251.79883 A 16 16 0 0 0 495.4375 251.79688 A 16 16 0 0 0 495.35547 251.50391 A 16 16 0 0 0 495.3457 251.47266 A 16.0016 16.0016 0 0 0 495.33984 251.45508 A 16 16 0 0 0 495.27148 251.23047 A 16 16 0 0 0 495.24805 251.15234 A 16.0016 16.0016 0 0 0 495.21094 251.03711 A 16 16 0 0 0 495.14258 250.83203 A 16.0016 16.0016 0 0 0 495.12891 250.79102 A 16 16 0 0 0 495.0293 250.51562 A 16.0016 16.0016 0 0 0 494.98828 250.40234 A 16 16 0 0 0 494.95703 250.32227 A 16.0016 16.0016 0 0 0 494.86719 250.08984 A 16.0016 16.0016 0 0 0 494.75391 249.8125 A 16.0016 16.0016 0 0 0 494.74023 249.77734 A 16 16 0 0 0 494.6543 249.57812 A 16 16 0 0 0 494.51562 249.27148 A 16 16 0 0 0 494.37305 248.97266 A 16 16 0 0 0 494.37109 248.96875 A 16.0016 16.0016 0 0 0 494.31836 248.86133 A 16 16 0 0 0 494.2207 248.66797 A 16.0016 16.0016 0 0 0 494.19922 248.62891 A 16 16 0 0 0 494.0625 248.37109 A 16.0016 16.0016 0 0 0 494.00586 248.26562 A 16 16 0 0 0 493.96094 248.1875 A 16.0016 16.0016 0 0 0 493.83984 247.97266 A 16.0016 16.0016 0 0 0 493.66992 247.68945 A 16.0016 16.0016 0 0 0 493.66797 247.68359 A 16 16 0 0 0 493.55469 247.5 A 16.0016 16.0016 0 0 0 493.49023 247.39844 A 16 16 0 0 0 493.37305 247.2168 A 16.0016 16.0016 0 0 0 493.30664 247.11719 A 16 16 0 0 0 493.18555 246.9375 A 16.0016 16.0016 0 0 0 493.11719 246.83789 A 16 16 0 0 0 492.99219 246.66211 A 16.0016 16.0016 0 0 0 492.92188 246.56445 A 16 16 0 0 0 492.79297 246.39062 A 16.0016 16.0016 0 0 0 492.7207 246.29492 A 16 16 0 0 0 492.58789 246.12305 A 16.0016 16.0016 0 0 0 492.51367 246.0293 A 16 16 0 0 0 492.37695 245.86133 A 16 16 0 0 0 492.21289 245.66406 A 16 16 0 0 0 492.16211 245.60352 A 16.0016 16.0016 0 0 0 492.08398 245.51367 A 16.0016 16.0016 0 0 0 491.86719 245.26758 A 16.0016 16.0016 0 0 0 491.86133 245.26172 A 16 16 0 0 0 491.71484 245.10156 A 16.0016 16.0016 0 0 0 491.63281 245.01367 A 16 16 0 0 0 491.48242 244.85742 A 16.0016 16.0016 0 0 0 491.39844 244.77148 A 16.0016 16.0016 0 0 0 491.31445 244.68555 L 411.31445 164.68555 A 16 16 0 0 0 388.68555 164.68555 A 16 16 0 0 0 388.68555 187.31445 L 441.37109 240 L 271.99023 240 L 271.98242 70.611328 L 324.68555 123.31445 A 16 16 0 0 0 347.31445 123.31445 A 16 16 0 0 0 347.31445 100.68555 L 267.31445 20.685547 A 16.0016 16.0016 0 0 0 257.58594 16.080078 A 16.0016 16.0016 0 0 0 257.56445 16.078125 A 16 16 0 0 0 257.46289 16.068359 A 16.0016 16.0016 0 0 0 257.22852 16.048828 A 16 16 0 0 0 257.12891 16.041016 A 16.0016 16.0016 0 0 0 256.85742 16.023438 A 16.0016 16.0016 0 0 0 256.69531 16.015625 A 16 16 0 0 0 256.45703 16.007812 A 16 16 0 0 0 256.12109 16.001953 A 16 16 0 0 0 255.97852 16 z "
     id="path4" />
</svg>
