<?xml version="1.0" encoding="utf-8"?>
<!-- Generator: Adobe Illustrator 24.0.0, SVG Export Plug-In . SVG Version: 6.00 Build 0)  -->
<svg version="1.1" id="Layer_1" xmlns="http://www.w3.org/2000/svg" xmlns:xlink="http://www.w3.org/1999/xlink" x="0px" y="0px"
	 viewBox="0 0 512 512" style="enable-background:new 0 0 512 512;" xml:space="preserve">
<title>ionicons-v5-g</title>
<g>
	<path d="M336,128c-4.1,0-8.2-1.6-11.3-4.7L256,54.6l-68.7,68.7c-6.2,6.2-16.4,6.2-22.6,0c-6.2-6.2-6.2-16.4,0-22.6l80-80
		c6.2-6.2,16.4-6.2,22.6,0l80,80c6.2,6.2,6.2,16.4,0,22.6C344.2,126.4,340.1,128,336,128z"/>
</g>
<g>
	<path d="M256,496c-8.8,0-16-7.2-16-16l0-448c0-8.8,7.2-16,16-16s16,7.2,16,16l0,448C272,488.8,264.8,496,256,496z"/>
</g>
<g>
	<path d="M256,496c-4.1,0-8.2-1.6-11.3-4.7l-80-80c-6.2-6.2-6.2-16.4,0-22.6c6.2-6.2,16.4-6.2,22.6,0l68.7,68.7l68.7-68.7
		c6.2-6.2,16.4-6.2,22.6,0c6.2,6.2,6.2,16.4,0,22.6l-80,80C264.2,494.4,260.1,496,256,496z"/>
</g>
<g>
	<path d="M400,352c-4.1,0-8.2-1.6-11.3-4.7c-6.2-6.2-6.2-16.4,0-22.6l68.7-68.7l-68.7-68.7c-6.2-6.2-6.2-16.4,0-22.6
		c6.2-6.2,16.4-6.2,22.6,0l80,80c6.2,6.2,6.2,16.4,0,22.6l-80,80C408.2,350.4,404.1,352,400,352z"/>
</g>
<g>
	<path d="M112,352c-4.1,0-8.2-1.6-11.3-4.7l-80-80c-6.2-6.2-6.2-16.4,0-22.6l80-80c6.2-6.2,16.4-6.2,22.6,0c6.2,6.2,6.2,16.4,0,22.6
		L54.6,256l68.7,68.7c6.2,6.2,6.2,16.4,0,22.6C120.2,350.4,116.1,352,112,352z"/>
</g>
<g>
	<path d="M480,272H32c-8.8,0-16-7.2-16-16c0-8.8,7.2-16,16-16h448c8.8,0,16,7.2,16,16C496,264.8,488.8,272,480,272z"/>
</g>
</svg>
