<?xml version="1.0" encoding="UTF-8"?>
<svg width="512px" height="512px" viewBox="0 0 512 512" version="1.1" xmlns="http://www.w3.org/2000/svg" xmlns:xlink="http://www.w3.org/1999/xlink">
    <!-- Generator: Sketch 62 (91390) - https://sketch.com -->
    <title>Artboard</title>
    <desc>Created with Sketch.</desc>
    <g id="Artboard" stroke="none" stroke-width="1" fill="none" fill-rule="evenodd">
        <g id="musical-notes-outline" transform="translate(80.000000, 32.000000)" fill="#000000" fill-rule="nonzero">
            <path d="M325.9,0 C332.8,0 339.3,2.7 344.2,7.5 C349.1,12.4 351.9,18.9 351.9,25.8 L351.901745,119.241192 C351.967248,120.1259 352,121.01295 352,121.9 L352,143.9 C352,144.500156 351.966512,145.092869 351.901311,145.676365 L351.9,343.8 C351.9,364.1 338.8,382.2 319.2,388.9 L297.4,396.8 C297.3,396.8 297.2,396.9 297,396.9 C279.8,402.7 261.7,400 247.1,389.5 C232.5,379.2 224,362.5 224,344 C223.8,322.5 237.4,303.6 257.8,296.8 L308.6,278.7 C308.7,278.7 308.8,278.6 308.9,278.6 C315.8,276.3 320,270.7 320,263.9 L320,121.9 C320,121.6 320,121.3 319.9,120.9 C319.5,119.6 318.7,118.8 318,118.5 C317.3,118.1 316.3,117.7 315,118.1 L140.4,164.8 C140.3,164.8 140.3,164.8 140.2,164.9 C132.8,166.8 128,172.7 128,180 L128,392 C128,412.3 114.9,430.4 95.3,437.1 L73.5,445 C73.4,445 73.2,445.1 73.1,445.1 C67.2,447.1 61.3,448.1 55.3,448.1 C43.9,448.1 32.8,444.5 23.2,437.6 C8.5,427 0,410.4 0,392 C0,370.1 12.9,351.6 32.8,344.9 L84.7,326.9 L84.8,326.9 L84.8,326.9 C91.5,324.6 95.9,318.8 95.9,312.1 L95.9,86.1 C95.8,71.5 105.5,58.6 119.6,54.6 C119.7,54.6 119.7,54.6 119.8,54.5 L319.2,0.9 C321.4,0.3 323.6,0 325.8,0 L325.9,0 L325.9,0 Z M96.1,356.9 C95.7,357 95.5,357 95.2,357.1 L43.3,375.1 L43.2,375.1 L43.2,375.1 C36.1,377.5 32.1,383.6 32.1,391.9 C32.1,399.9 35.7,407 42,411.6 C48.1,416 55.7,417.2 62.8,414.8 L84.6,406.9 C84.7,406.9 84.8,406.8 85,406.8 C91.9,404.5 96.1,398.8 96.1,392 L96.1,356.9 Z M320,308.7 C319.8,308.7 319.5,308.8 319.2,308.9 L268.4,327 C268.3,327 268.1,327.1 268,327.1 C260.8,329.5 256,336.2 256,343.8 L256,343.9 L256,343.9 C256,352 259.6,359.2 265.9,363.7 C271.9,368 279.5,369.2 286.7,366.8 L308.5,358.9 C308.6,358.9 308.7,358.8 308.9,358.8 C315.8,356.5 320,350.8 320,344 L320,308.7 Z M320,33.9 L128.3,85.4 C128.1,85.5 128,85.7 128,85.9 L127.999788,135.156112 C129.3671,134.682587 130.76787,134.262982 132.2,133.9 L306.7,87.2 C311.107515,86.0151842 315.604872,85.6838718 320.000468,86.1741288 L320,33.9 Z" id="Combined-Shape"></path>
        </g>
    </g>
</svg>