<?xml version="1.0" encoding="UTF-8" standalone="no"?>
<svg
   xmlns:dc="http://purl.org/dc/elements/1.1/"
   xmlns:cc="http://creativecommons.org/ns#"
   xmlns:rdf="http://www.w3.org/1999/02/22-rdf-syntax-ns#"
   xmlns:svg="http://www.w3.org/2000/svg"
   xmlns="http://www.w3.org/2000/svg"
   xmlns:sodipodi="http://sodipodi.sourceforge.net/DTD/sodipodi-0.dtd"
   xmlns:inkscape="http://www.inkscape.org/namespaces/inkscape"
   class="ionicon"
   viewBox="0 0 512 512"
   version="1.1"
   id="svg6"
   sodipodi:docname="musical-note-outline.svg"
   inkscape:version="1.0.2 (e86c8708, 2021-01-15)">
  <metadata
     id="metadata12">
    <rdf:RDF>
      <cc:Work
         rdf:about="">
        <dc:format>image/svg+xml</dc:format>
        <dc:type
           rdf:resource="http://purl.org/dc/dcmitype/StillImage" />
      </cc:Work>
    </rdf:RDF>
  </metadata>
  <defs
     id="defs10" />
  <sodipodi:namedview
     pagecolor="#ffffff"
     bordercolor="#666666"
     borderopacity="1"
     objecttolerance="10"
     gridtolerance="10"
     guidetolerance="10"
     inkscape:pageopacity="0"
     inkscape:pageshadow="2"
     inkscape:window-width="689"
     inkscape:window-height="480"
     id="namedview8"
     showgrid="false"
     inkscape:zoom="1.3027344"
     inkscape:cx="256"
     inkscape:cy="256"
     inkscape:window-x="44"
     inkscape:window-y="25"
     inkscape:window-maximized="0"
     inkscape:current-layer="svg6" />
  <title
     id="title2">Musical Note</title>
  <path
     style="color:#000000;font-style:normal;font-variant:normal;font-weight:normal;font-stretch:normal;font-size:medium;line-height:normal;font-family:sans-serif;font-variant-ligatures:normal;font-variant-position:normal;font-variant-caps:normal;font-variant-numeric:normal;font-variant-alternates:normal;font-variant-east-asian:normal;font-feature-settings:normal;font-variation-settings:normal;text-indent:0;text-align:start;text-decoration:none;text-decoration-line:none;text-decoration-style:solid;text-decoration-color:#000000;letter-spacing:normal;word-spacing:normal;text-transform:none;writing-mode:lr-tb;direction:ltr;text-orientation:mixed;dominant-baseline:auto;baseline-shift:baseline;text-anchor:start;white-space:normal;shape-padding:0;shape-margin:0;inline-size:0;clip-rule:nonzero;display:inline;overflow:visible;visibility:visible;isolation:auto;mix-blend-mode:normal;color-interpolation:sRGB;color-interpolation-filters:linearRGB;solid-color:#000000;solid-opacity:1;vector-effect:none;fill:currentColor;fill-opacity:1;fill-rule:nonzero;stroke:none;stroke-linecap:round;stroke-linejoin:round;stroke-miterlimit:4;stroke-dasharray:none;stroke-dashoffset:0;stroke-opacity:1;color-rendering:auto;image-rendering:auto;shape-rendering:auto;text-rendering:auto;enable-background:accumulate;stop-color:#000000;stop-opacity:1;opacity:1"
     d="M 361.53516 32.042969 C 359.85938 32.057513 358.16106 32.27404 356.4707 32.712891 L 248.04102 60.853516 A 16.0016 16.0016 0 0 0 248.02344 60.857422 C 233.91441 64.536445 223.95308 77.470055 224 92.050781 L 224 181.91016 L 224 181.96484 L 224 221.30078 L 224 343.24023 A 16.0016 16.0016 0 0 0 224 343.27734 C 224.01615 350.32174 219.63353 356.45679 212.9668 358.73047 C 212.96452 358.73125 212.96321 358.7336 212.96094 358.73438 L 162.14648 375.83594 A 16.0016 16.0016 0 0 0 162.09961 375.85156 C 141.72639 382.77973 127.95036 402.06839 128.00195 423.58594 C 128.01918 461.49204 165.87879 489.10817 201.75 477.04492 A 16.0016 16.0016 0 0 0 201.75586 477.04297 L 223.22656 469.8125 A 16.0016 16.0016 0 0 0 223.27539 469.79688 C 242.83315 463.14092 256.05836 444.61433 256 423.95508 L 256 343.31055 A 16 16 0 0 0 256 343.24023 A 16 16 0 0 0 255.99805 343.2168 C 255.99804 343.21215 256.00001 343.20778 256 343.20312 L 256 221.30078 L 256 181.91016 A 16.0016 16.0016 0 0 0 256 181.85547 C 255.97423 174.33605 260.9231 167.93371 268.20508 166.0625 L 359.79492 142.94336 A 16.0016 16.0016 0 0 0 359.85742 142.92773 C 374.02001 139.29278 384.04205 126.33641 384 111.71484 L 384 54 A 16.0016 16.0016 0 0 0 384 53.982422 C 383.98595 41.737447 373.28393 31.940997 361.53516 32.042969 z M 352 66.933594 L 352 111.75977 A 16.0016 16.0016 0 0 0 352 111.80664 C 352.0004 111.94743 352.03872 111.89664 351.90234 111.93164 L 260.32422 135.04688 A 16.0016 16.0016 0 0 0 260.26562 135.06055 C 258.7859 135.43995 257.41607 136.04075 256 136.55078 L 256 92 A 16.0016 16.0016 0 0 0 256 91.949219 C 255.99955 91.809651 255.9626 91.857481 256.09766 91.822266 L 352 66.933594 z M 224 388.71289 L 224 424 A 16.0016 16.0016 0 0 0 224 424.04492 C 224.0199 431.08972 219.63834 437.22768 212.9707 439.5 C 212.96843 439.50078 212.96712 439.50313 212.96484 439.50391 L 191.54297 446.7168 C 175.62508 452.06439 160 440.77827 160 423.56055 A 16.0016 16.0016 0 0 0 160 423.51562 C 159.9779 415.6044 164.91037 408.69551 172.40039 406.14844 L 223.22266 389.04492 A 16.0016 16.0016 0 0 0 223.27734 389.02539 C 223.52887 388.93973 223.75058 388.80246 224 388.71289 z "
     id="path4" />
</svg>
