<?xml version="1.0" encoding="utf-8"?>
<!-- Generator: Adobe Illustrator 24.0.0, SVG Export Plug-In . SVG Version: 6.00 Build 0)  -->
<svg version="1.1" id="Layer_1" xmlns="http://www.w3.org/2000/svg" xmlns:xlink="http://www.w3.org/1999/xlink" x="0px" y="0px"
	 viewBox="0 0 512 512" style="enable-background:new 0 0 512 512;" xml:space="preserve">
<title>ionicons-v5-j</title>
<g>
	<path d="M183.8,480c-11.4,0-22.7-3.6-32.4-10.5c-14.7-10.6-23.5-27.7-23.5-45.9c-0.1-21.6,13.6-40.8,34.1-47.7l50.9-17.1
		c6.5-2.2,11-8.4,11-15.3v-0.1c0,0,0,0,0,0V221.3c0,0,0,0,0,0v-39.4c0-0.1,0-0.2,0-0.3V92c0-14.6,9.8-27.4,24-31.1l108.4-28.1
		c5.7-1.5,11.6-0.7,16.7,2.3c5.1,3,8.7,7.7,10.2,13.4c0.5,1.8,0.7,3.6,0.7,5.5v57.8c0,14.7-9.9,27.5-24.1,31.2l-91.7,23.1
		c-7.1,1.8-12.1,8.3-12.2,15.7v39.6c0,0,0,0,0,0v121.9c0,0.1,0,0.1,0,0.2V424c0.1,20.7-13.1,39.1-32.7,45.8l-21.5,7.2
		C195.9,479,189.8,480,183.8,480z M224,388.8c-0.2,0.1-0.5,0.2-0.7,0.3l-50.9,17.1c-7.4,2.5-12.4,9.5-12.4,17.4
		c0,8.1,3.7,15.3,10.1,20c6.3,4.5,14.1,5.7,21.4,3.2l21.5-7.2c6.6-2.2,11-8.4,11-15.4V388.8z M352,66.9l-95.9,24.9
		c0,0-0.1,0.1-0.1,0.1v44.4c1.4-0.5,2.8-0.9,4.3-1.3l91.7-23.1l0,0c0,0,0-0.1,0-0.1V66.9z"/>
</g>
</svg>
