<?xml version="1.0" encoding="utf-8"?>
<!-- Generator: Adobe Illustrator 24.0.0, SVG Export Plug-In . SVG Version: 6.00 Build 0)  -->
<svg version="1.1" id="Layer_1" xmlns="http://www.w3.org/2000/svg" xmlns:xlink="http://www.w3.org/1999/xlink" x="0px" y="0px"
	 viewBox="0 0 512 512" style="enable-background:new 0 0 512 512;" xml:space="preserve">
<title>ionicons-v5-f</title>
<g>
	<path d="M336.8,161l-186.5,82.4c-10.5,4.8-6.9,20.7,4.6,20.7H244c2.2,0,4,1.8,4,4v89.2c0,11.5,16,15,20.8,4.6L351,175.2
		c2.5-5.4,0.1-11.8-5.2-14.2C342.9,159.7,339.6,159.7,336.8,161z"/>
</g>
<g>
	<path d="M256,464c-114.7,0-208-93.3-208-208S141.3,48,256,48s208,93.3,208,208S370.7,464,256,464z M256,80c-97,0-176,79-176,176
		s79,176,176,176s176-79,176-176S353,80,256,80z"/>
</g>
</svg>
