<?xml version="1.0" encoding="utf-8"?>
<!-- Generator: Adobe Illustrator 24.0.0, SVG Export Plug-In . SVG Version: 6.00 Build 0)  -->
<svg version="1.1" id="Layer_1" xmlns="http://www.w3.org/2000/svg" xmlns:xlink="http://www.w3.org/1999/xlink" x="0px" y="0px"
	 viewBox="0 0 512 512" style="enable-background:new 0 0 512 512;" xml:space="preserve">
<title>ionicons-v5-f</title>
<g>
	<path d="M272,464c-1.1,0-2.3-0.1-3.4-0.4c-7.3-1.6-12.6-8.1-12.6-15.6V256.1H64c-7.5,0-14-5.2-15.6-12.6c-1.6-7.3,2.1-14.8,9-18
		l384-176.1c6.1-2.8,13.3-1.5,18,3.2c4.7,4.7,6,11.9,3.2,18l-176,384C283.9,460.4,278.2,464,272,464z M137.3,224.1H264
		c13.2,0,24,10.8,24,24v126.5L415.5,96.5L137.3,224.1z"/>
</g>
</svg>
