<?xml version="1.0" encoding="UTF-8" standalone="no"?>
<svg
   xmlns:dc="http://purl.org/dc/elements/1.1/"
   xmlns:cc="http://creativecommons.org/ns#"
   xmlns:rdf="http://www.w3.org/1999/02/22-rdf-syntax-ns#"
   xmlns:svg="http://www.w3.org/2000/svg"
   xmlns="http://www.w3.org/2000/svg"
   xmlns:sodipodi="http://sodipodi.sourceforge.net/DTD/sodipodi-0.dtd"
   xmlns:inkscape="http://www.inkscape.org/namespaces/inkscape"
   class="ionicon"
   viewBox="0 0 512 512"
   version="1.1"
   id="svg841"
   sodipodi:docname="newspaper-sharp.svg"
   inkscape:version="1.0.2 (e86c8708, 2021-01-15)">
  <metadata
     id="metadata847">
    <rdf:RDF>
      <cc:Work
         rdf:about="">
        <dc:format>image/svg+xml</dc:format>
        <dc:type
           rdf:resource="http://purl.org/dc/dcmitype/StillImage" />
      </cc:Work>
    </rdf:RDF>
  </metadata>
  <defs
     id="defs845" />
  <sodipodi:namedview
     pagecolor="#ffffff"
     bordercolor="#666666"
     borderopacity="1"
     objecttolerance="10"
     gridtolerance="10"
     guidetolerance="10"
     inkscape:pageopacity="0"
     inkscape:pageshadow="2"
     inkscape:window-width="776"
     inkscape:window-height="480"
     id="namedview843"
     showgrid="false"
     inkscape:zoom="0.3"
     inkscape:cx="256"
     inkscape:cy="256"
     inkscape:window-x="350"
     inkscape:window-y="1252"
     inkscape:window-maximized="0"
     inkscape:current-layer="svg841"
     inkscape:document-rotation="0" />
  <title
     id="title833">Newspaper</title>
  <rect
     x="96"
     y="112"
     width="96"
     height="96"
     rx="16"
     ry="16"
     fill="none"
     id="rect835" />
  <path
     id="path837"
     style="color:#000000;font-style:normal;font-variant:normal;font-weight:normal;font-stretch:normal;font-size:medium;line-height:normal;font-family:sans-serif;font-variant-ligatures:normal;font-variant-position:normal;font-variant-caps:normal;font-variant-numeric:normal;font-variant-alternates:normal;font-variant-east-asian:normal;font-feature-settings:normal;font-variation-settings:normal;text-indent:0;text-align:start;text-decoration:none;text-decoration-line:none;text-decoration-style:solid;text-decoration-color:#000000;letter-spacing:normal;word-spacing:normal;text-transform:none;writing-mode:lr-tb;direction:ltr;text-orientation:mixed;dominant-baseline:auto;baseline-shift:baseline;text-anchor:start;white-space:normal;shape-padding:0;shape-margin:0;inline-size:0;clip-rule:nonzero;display:inline;overflow:visible;visibility:visible;isolation:auto;mix-blend-mode:normal;color-interpolation:sRGB;color-interpolation-filters:linearRGB;solid-color:#000000;solid-opacity:1;vector-effect:none;fill:#000000;fill-opacity:1;fill-rule:nonzero;stroke-width:1;stroke-linecap:butt;stroke-linejoin:miter;stroke-miterlimit:4;stroke-dasharray:none;stroke-dashoffset:0;stroke-opacity:1;color-rendering:auto;image-rendering:auto;shape-rendering:auto;text-rendering:auto;enable-background:accumulate;stop-color:#000000;stop-opacity:1;stroke:none;opacity:1"
     d="M 44 32 C 37.372583 32 32 37.372583 32 44 L 32 424 C 32 454.92795 57.072054 480 88 480 L 430.84961 480 C 432.23188 480.0532 432.4983 478.06085 431.15039 477.75 C 403.33108 470.11867 384.03419 444.84701 384 416 L 384 44 C 384 37.372583 378.62742 32 372 32 L 44 32 z M 96 112 L 192 112 L 192 208 L 96 208 L 96 112 z M 224 112 L 320 112 L 320 144 L 224 144 L 224 112 z M 416 112 L 416 416 C 416 433.67311 430.32689 448 448 448 C 465.67311 448 480 433.67311 480 416 L 480 124 C 480 117.37258 474.62742 112 468 112 L 416 112 z M 224 176 L 320 176 L 320 208 L 224 208 L 224 176 z M 96 240 L 320 240 L 320 272 L 96 272 L 96 240 z M 96 304 L 320 304 L 320 336 L 96 336 L 96 304 z M 96 368 L 320 368 L 320 400 L 96 400 L 96 368 z " />
</svg>
