<?xml version="1.0" encoding="UTF-8"?>
<svg width="512px" height="512px" viewBox="0 0 512 512" version="1.1" xmlns="http://www.w3.org/2000/svg" xmlns:xlink="http://www.w3.org/1999/xlink">
    <!-- Generator: Sketch 62 (91390) - https://sketch.com -->
    <title>Artboard</title>
    <desc>Created with Sketch.</desc>
    <g id="Artboard" stroke="none" stroke-width="1" fill="none" fill-rule="evenodd">
        <g id="newspaper-sharp" transform="translate(32.000000, 32.000000)" fill="#000000" fill-rule="nonzero">
            <path d="M340,1.42108547e-13 C346.627417,1.42108547e-13 352,5.372583 352,12 L352,12 L352,384 C352.034189,412.847005 371.330694,438.118675 399.15,445.75 C399.723064,445.88216 400.101544,446.428562 400.023818,447.011509 C399.946092,447.594456 399.437671,448.022605 398.85,448.000855 L398.85,448.000855 L56,448.000855 C25.072054,448.000855 0,422.927946 0,392 L0,392 L0,12 C0,5.372583 5.372583,1.42108547e-13 12,1.42108547e-13 L12,1.42108547e-13 Z M436,80 C442.627417,80 448,85.372583 448,92 L448,92 L448,384 C448,401.673112 433.673112,416 416,416 L416,416 L415.470821,415.995713 C398.041783,415.713128 384,401.496381 384,384 L384,384 L384,80 Z M288,336 L64,336 L64,368 L288,368 L288,336 Z M288,272 L64,272 L64,304 L288,304 L288,272 Z M288,208 L64,208 L64,240 L288,240 L288,208 Z M160,80 L64,80 L64,176 L160,176 L160,80 Z M288,144 L192,144 L192,176 L288,176 L288,144 Z M288,80 L192,80 L192,112 L288,112 L288,80 Z" id="Combined-Shape"></path>
        </g>
    </g>
</svg>