<?xml version="1.0" encoding="utf-8"?>
<!-- Generator: Adobe Illustrator 24.0.0, SVG Export Plug-In . SVG Version: 6.00 Build 0)  -->
<svg version="1.1" id="Layer_1" xmlns="http://www.w3.org/2000/svg" xmlns:xlink="http://www.w3.org/1999/xlink" x="0px" y="0px"
	 viewBox="0 0 512 512" style="enable-background:new 0 0 512 512;" xml:space="preserve">
<title>ionicons-v5-n</title>
<g>
	<path d="M416,480H88c-30.8-0.1-55.9-25.2-56-56V72c0.1-22,18-39.9,40-40h272c22,0.1,39.9,18,40,40v343.9h-32V72c0-4.4-3.6-8-8-8H72
		c-4.4,0-8,3.6-8,8v352c0,13.2,10.8,24,24,24h328V480z"/>
</g>
<g>
	<path d="M416,480c-35.3,0-64-28.7-64-64V128c0-8.8,7.2-16,16-16h72c22.1,0,40,17.9,40,40v264C480,451.3,451.3,480,416,480z
		 M384,144v272c0,17.6,14.4,32,32,32s32-14.4,32-32V152c0-4.4-3.6-8-8-8H384z"/>
</g>
<g>
	<path d="M304,144h-64c-8.8,0-16-7.2-16-16s7.2-16,16-16h64c8.8,0,16,7.2,16,16S312.8,144,304,144z"/>
</g>
<g>
	<path d="M304,208h-64c-8.8,0-16-7.2-16-16s7.2-16,16-16h64c8.8,0,16,7.2,16,16S312.8,208,304,208z"/>
</g>
<g>
	<path d="M304,272H112c-8.8,0-16-7.2-16-16c0-8.8,7.2-16,16-16h192c8.8,0,16,7.2,16,16C320,264.8,312.8,272,304,272z"/>
</g>
<g>
	<path d="M304,336H112c-8.8,0-16-7.2-16-16s7.2-16,16-16h192c8.8,0,16,7.2,16,16S312.8,336,304,336z"/>
</g>
<g>
	<path d="M304,400H112c-8.8,0-16-7.2-16-16s7.2-16,16-16h192c8.8,0,16,7.2,16,16S312.8,400,304,400z"/>
</g>
<g>
	<path d="M176,208h-64c-8.8,0-16-7.2-16-16v-64c0-8.8,7.2-16,16-16h64c8.8,0,16,7.2,16,16v64C192,200.8,184.8,208,176,208z"/>
</g>
</svg>
