<?xml version="1.0" encoding="UTF-8" standalone="no"?>
<svg
   xmlns:dc="http://purl.org/dc/elements/1.1/"
   xmlns:cc="http://creativecommons.org/ns#"
   xmlns:rdf="http://www.w3.org/1999/02/22-rdf-syntax-ns#"
   xmlns:svg="http://www.w3.org/2000/svg"
   xmlns="http://www.w3.org/2000/svg"
   xmlns:sodipodi="http://sodipodi.sourceforge.net/DTD/sodipodi-0.dtd"
   xmlns:inkscape="http://www.inkscape.org/namespaces/inkscape"
   class="ionicon"
   viewBox="0 0 512 512"
   version="1.1"
   id="svg8"
   sodipodi:docname="newspaper.svg"
   inkscape:version="1.0.2 (e86c8708, 2021-01-15)">
  <metadata
     id="metadata14">
    <rdf:RDF>
      <cc:Work
         rdf:about="">
        <dc:format>image/svg+xml</dc:format>
        <dc:type
           rdf:resource="http://purl.org/dc/dcmitype/StillImage" />
      </cc:Work>
    </rdf:RDF>
  </metadata>
  <defs
     id="defs12" />
  <sodipodi:namedview
     pagecolor="#ffffff"
     bordercolor="#666666"
     borderopacity="1"
     objecttolerance="10"
     gridtolerance="10"
     guidetolerance="10"
     inkscape:pageopacity="0"
     inkscape:pageshadow="2"
     inkscape:window-width="689"
     inkscape:window-height="480"
     id="namedview10"
     showgrid="false"
     inkscape:zoom="1.3027344"
     inkscape:cx="256"
     inkscape:cy="256"
     inkscape:window-x="44"
     inkscape:window-y="25"
     inkscape:window-maximized="0"
     inkscape:current-layer="svg8" />
  <title
     id="title2">Newspaper</title>
  <path
     style="color:#000000;font-style:normal;font-variant:normal;font-weight:normal;font-stretch:normal;font-size:medium;line-height:normal;font-family:sans-serif;font-variant-ligatures:normal;font-variant-position:normal;font-variant-caps:normal;font-variant-numeric:normal;font-variant-alternates:normal;font-variant-east-asian:normal;font-feature-settings:normal;font-variation-settings:normal;text-indent:0;text-align:start;text-decoration:none;text-decoration-line:none;text-decoration-style:solid;text-decoration-color:#000000;letter-spacing:normal;word-spacing:normal;text-transform:none;writing-mode:lr-tb;direction:ltr;text-orientation:mixed;dominant-baseline:auto;baseline-shift:baseline;text-anchor:start;white-space:normal;shape-padding:0;shape-margin:0;inline-size:0;clip-rule:nonzero;display:inline;overflow:visible;visibility:visible;isolation:auto;mix-blend-mode:normal;color-interpolation:sRGB;color-interpolation-filters:linearRGB;solid-color:#000000;solid-opacity:1;vector-effect:none;fill:#000000;fill-opacity:1;fill-rule:nonzero;stroke-width:1;stroke-linecap:butt;stroke-linejoin:miter;stroke-miterlimit:4;stroke-dasharray:none;stroke-dashoffset:0;stroke-opacity:1;color-rendering:auto;image-rendering:auto;shape-rendering:auto;text-rendering:auto;enable-background:accumulate;stop-color:#000000;stop-opacity:1;stroke:none;opacity:1"
     d="m 439.91,112 h -23.82 c -0.0497,0 -0.09,0.0403 -0.09,0.09 V 416 c 0,17.67311 14.32689,32 32,32 17.67311,0 32,-14.32689 32,-32 V 152.09 C 480,129.9489 462.0511,112 439.91,112 Z"
     id="path4" />
  <path
     style="color:#000000;font-style:normal;font-variant:normal;font-weight:normal;font-stretch:normal;font-size:medium;line-height:normal;font-family:sans-serif;font-variant-ligatures:normal;font-variant-position:normal;font-variant-caps:normal;font-variant-numeric:normal;font-variant-alternates:normal;font-variant-east-asian:normal;font-feature-settings:normal;font-variation-settings:normal;text-indent:0;text-align:start;text-decoration:none;text-decoration-line:none;text-decoration-style:solid;text-decoration-color:#000000;letter-spacing:normal;word-spacing:normal;text-transform:none;writing-mode:lr-tb;direction:ltr;text-orientation:mixed;dominant-baseline:auto;baseline-shift:baseline;text-anchor:start;white-space:normal;shape-padding:0;shape-margin:0;inline-size:0;clip-rule:nonzero;display:inline;overflow:visible;visibility:visible;isolation:auto;mix-blend-mode:normal;color-interpolation:sRGB;color-interpolation-filters:linearRGB;solid-color:#000000;solid-opacity:1;vector-effect:none;fill:#000000;fill-opacity:1;fill-rule:nonzero;stroke-width:1;stroke-linecap:butt;stroke-linejoin:miter;stroke-miterlimit:4;stroke-dasharray:none;stroke-dashoffset:0;stroke-opacity:1;color-rendering:auto;image-rendering:auto;shape-rendering:auto;text-rendering:auto;enable-background:accumulate;stop-color:#000000;stop-opacity:1;stroke:none;opacity:1"
     d="M 384,416 V 72 C 384,49.90861 366.09139,32 344,32 H 72 C 49.90861,32 32,49.90861 32,72 v 352 c 0,30.92795 25.072054,56 56,56 h 342.85 c 0.63744,0.006 1.15562,-0.51256 1.15,-1.15 -0.001,-0.51699 -0.35002,-0.96849 -0.85,-1.1 C 403.33069,470.11867 384.03419,444.84701 384,416 Z M 96,128 c 0,-8.83656 7.16344,-16 16,-16 h 64 c 8.83656,0 16,7.16344 16,16 v 64 c 0,8.83656 -7.16344,16 -16,16 h -64 c -8.83656,0 -16,-7.16344 -16,-16 z M 304,400 H 112.45 c -8.61,0 -16,-6.62 -16.43,-15.23 -0.439782,-9.12773 6.84168,-16.76917 15.98,-16.77 h 191.55 c 8.61,0 16,6.62 16.43,15.23 0.43978,9.12773 -6.84168,16.76917 -15.98,16.77 z m 0,-64 H 112.45 c -8.61,0 -16,-6.62 -16.43,-15.23 -0.439782,-9.12773 6.84168,-16.76917 15.98,-16.77 h 191.55 c 8.61,0 16,6.62 16.43,15.23 0.43978,9.12773 -6.84168,16.76917 -15.98,16.77 z m 0,-64 H 112.45 c -8.61,0 -16,-6.62 -16.43,-15.23 -0.439782,-9.12773 6.84168,-16.76917 15.98,-16.77 h 191.55 c 8.61,0 16,6.62 16.43,15.23 0.43978,9.12773 -6.84168,16.76917 -15.98,16.77 z m 0,-64 h -63.55 c -8.61,0 -16,-6.62 -16.43,-15.23 -0.43978,-9.12773 6.84168,-16.76917 15.98,-16.77 h 63.55 c 8.61,0 16,6.62 16.43,15.23 0.43978,9.12773 -6.84168,16.76917 -15.98,16.77 z m 0,-64 h -63.55 c -8.61,0 -16,-6.62 -16.43,-15.23 -0.43978,-9.12773 6.84168,-16.76917 15.98,-16.77 h 63.55 c 8.61,0 16,6.62 16.43,15.23 0.43978,9.12773 -6.84168,16.76917 -15.98,16.77 z"
     id="path6" />
</svg>
