<?xml version="1.0" encoding="utf-8"?>
<!-- Generator: Adobe Illustrator 24.0.0, SVG Export Plug-In . SVG Version: 6.00 Build 0)  -->
<svg version="1.1" id="Layer_1" xmlns="http://www.w3.org/2000/svg" xmlns:xlink="http://www.w3.org/1999/xlink" x="0px" y="0px"
	 viewBox="0 0 512 512" style="enable-background:new 0 0 512 512;" xml:space="preserve">
<title>ionicons-v5-j</title>
<g>
	<path d="M320,400H101.6c-15,0-28.2-8.1-34.3-21.1c-5.9-12.5-4.1-26.9,4.7-37.6c1.7-2,3.3-4,4.9-5.9c22-26.6,35.3-42.7,35.3-118
		c0-4.7,0.1-9.3,0.4-13.7c0.5-8.8,8.1-15.5,16.9-15c8.8,0.5,15.5,8.1,15,16.9c-0.2,3.8-0.3,7.7-0.3,11.8
		c0,86.9-18.8,109.6-42.6,138.4c-1.6,1.9-3.1,3.8-4.8,5.8c-0.4,0.4-1.4,1.8-0.5,3.7c0.5,1,1.9,2.8,5.4,2.8H320c8.8,0,16,7.2,16,16
		S328.8,400,320,400z"/>
</g>
<g>
	<path d="M414.5,351.3c-4.7,0-9.4-2.1-12.6-6.1c-22.1-28-34.1-56.7-34.1-127.9c0-31.8-7.1-57.2-21.1-75.5
		c-10.2-13.3-23.8-23.1-42.8-31c-9.1-3.8-16.5-11.7-19.2-20.8c-3.8-13-14.1-26-28.7-26c-14.6,0-24.9,13-28.6,25.9
		c-2.7,9.1-10.1,17.1-19.3,20.9c-5.5,2.2-10.9,4.9-16.1,7.8c-7.7,4.4-17.4,1.8-21.8-5.9c-4.4-7.7-1.8-17.4,5.9-21.8
		c6.4-3.7,13.1-6.9,19.9-9.7c0.2-0.1,0.6-0.4,0.8-0.6c8.6-29,32.4-48.6,59.2-48.6c26.8,0,50.6,19.5,59.3,48.5
		c0.2,0.3,0.6,0.6,0.8,0.7c24.2,9.9,42.5,23.4,56.1,41.1c18.4,24,27.7,56,27.7,95c0,68.3,11.3,87.9,27.2,108.1
		c5.5,6.9,4.3,17-2.7,22.5C421.5,350.2,418,351.3,414.5,351.3z M196.9,80.4L196.9,80.4L196.9,80.4z"/>
</g>
<g>
	<path d="M256,480c-44.1,0-80-35.9-80-80v-16c0-8.8,7.2-16,16-16s16,7.2,16,16v16c0,26.5,21.5,48,48,48c26.5,0,48-21.5,48-48v-16
		c0-8.8,7.2-16,16-16s16,7.2,16,16v16C336,444.1,300.1,480,256,480z"/>
</g>
<g>
	<path d="M448,464c-4.1,0-8.2-1.6-11.3-4.7l-384-384c-6.2-6.2-6.2-16.4,0-22.6c6.2-6.2,16.4-6.2,22.6,0l384,384
		c6.2,6.2,6.2,16.4,0,22.6C456.2,462.4,452.1,464,448,464z"/>
</g>
</svg>
