<?xml version="1.0" encoding="utf-8"?>
<!-- Generator: Adobe Illustrator 24.0.0, SVG Export Plug-In . SVG Version: 6.00 Build 0)  -->
<svg version="1.1" id="Layer_1" xmlns="http://www.w3.org/2000/svg" xmlns:xlink="http://www.w3.org/1999/xlink" x="0px" y="0px"
	 viewBox="0 0 512 512" style="enable-background:new 0 0 512 512;" xml:space="preserve">
<title>ionicons-v5-j</title>
<g>
	<path d="M256,464c-114.7,0-208-93.3-208-208S141.3,48,256,48s208,93.3,208,208S370.7,464,256,464z M256,80c-97,0-176,79-176,176
		s79,176,176,176s176-79,176-176S353,80,256,80z"/>
</g>
<g>
	<path d="M365.2,313c-16.3-19.3-27.9-27.5-27.9-80.8c0-48.9-25.8-66.2-47-74.7c-3-1.2-5.3-3.7-6.3-6.7c-3.7-12.2-14.1-22.9-28-22.9
		s-24.3,10.6-28,22.9c-1.1,3-3.4,5.4-6.3,6.7c-21.2,8.5-47,25.8-47,74.7c0,53.3-11.5,61.5-27.9,80.8c-6.8,8-0.6,23,11.2,23h196
		C365.8,336,371.9,321,365.2,313z"/>
</g>
<g>
	<path d="M220.2,352c-2.2,0-4,1.8-4,4c0,0.1,0,0.3,0,0.4c2.2,18.7,18.9,27.6,39.8,27.6c20.7,0,37.1-9.1,39.7-27.5
		c0.3-2.2-1.3-4.2-3.5-4.5c-0.2,0-0.3,0-0.5,0H220.2z"/>
</g>
</svg>
