<?xml version="1.0" encoding="utf-8"?>
<!-- Generator: Adobe Illustrator 24.0.0, SVG Export Plug-In . SVG Version: 6.00 Build 0)  -->
<svg version="1.1" id="Layer_1" xmlns="http://www.w3.org/2000/svg" xmlns:xlink="http://www.w3.org/1999/xlink" x="0px" y="0px"
	 viewBox="0 0 512 512" style="enable-background:new 0 0 512 512;" xml:space="preserve">
<title>ionicons-v5-j</title>
<g>
	<path d="M256,464c-114.7,0-208-93.3-208-208S141.3,48,256,48s208,93.3,208,208S370.7,464,256,464z M256,80c-97,0-176,79-176,176
		s79,176,176,176s176-79,176-176S353,80,256,80z"/>
</g>
<g>
	<path d="M220.2,352c-2.2,0-4,1.8-4,4c0,0.1,0,0.3,0,0.4c2.2,18.7,18.9,27.6,39.8,27.6s37.5-8.9,39.7-27.6c0.2-2.2-1.4-4.2-3.6-4.4
		c-0.1,0-0.3,0-0.4,0H220.2z"/>
</g>
<g>
	<path d="M352,378c-4.5,0-8.8-1.9-11.8-5.2l-192-212c-5.9-6.6-5.3-16.7,1.4-22.6c6.5-5.8,16.4-5.3,22.3,1.1l192,212
		c5.9,6.5,5.5,16.7-1.1,22.6C359.8,376.5,356,378,352,378z"/>
</g>
<g>
	<path d="M174.7,232.2c0,53.3-11.5,61.5-27.9,80.8c-6.8,8-0.6,23,11.2,23h118.8c2.2,0,4-1.8,4-4c0-1-0.4-2-1-2.7l-98-106.9
		c-1.5-1.6-4-1.7-5.7-0.2c-0.8,0.7-1.2,1.7-1.3,2.8C174.7,227.3,174.7,229.7,174.7,232.2z"/>
</g>
<g>
	<path d="M365.2,313c-16.3-19.3-27.9-27.5-27.9-80.8c0-48.9-25.8-66.2-47-74.7c-3-1.2-5.3-3.7-6.3-6.7c-3.7-12.2-14.1-22.9-28-22.9
		s-24.3,10.6-28,22.9c-1.1,3-3.4,5.4-6.3,6.7c-1.3,0.5-2.6,1.1-3.9,1.6c-2,0.9-2.9,3.3-2,5.3c0.2,0.4,0.4,0.8,0.7,1.1L361,323.2
		c1.5,1.6,4,1.7,5.7,0.2c0.9-0.8,1.4-2,1.3-3.2C367.9,317.6,366.9,315,365.2,313z"/>
</g>
</svg>
