<?xml version="1.0" encoding="UTF-8"?>
<svg width="512px" height="512px" viewBox="0 0 512 512" version="1.1" xmlns="http://www.w3.org/2000/svg" xmlns:xlink="http://www.w3.org/1999/xlink">
    <!-- Generator: Sketch 62 (91390) - https://sketch.com -->
    <title>Artboard</title>
    <desc>Created with Sketch.</desc>
    <g id="Artboard" stroke="none" stroke-width="1" fill="none" fill-rule="evenodd">
        <g id="notifications-outline" transform="translate(63.000000, 32.000000)" fill="#000000" fill-rule="nonzero">
            <path d="M38.6,368 C23.6,368 10.4,359.9 4.3,346.9 C-1.6,334.4 0.2,320 8.9,309.3 C10.6,307.3 12.2,305.3 13.8,303.4 C35.8,276.8 49.1,260.7 49.2,185.4 C49.2,117 76.6,72.5 133,49.3 C133.2,49.2 133.6,48.9 133.8,48.7 C142.4,19.7 166.2,0.1 193,0.1 C219.8,0.1 243.6,19.6 252.3,48.6 C252.5,48.9 252.9,49.2 253.1,49.3 C277.3,59.2 295.6,72.7 309.2,90.4 C327.6,114.5 336.9,146.4 336.9,185.4 C336.9,260.8 350.2,276.8 372.2,303.4 C373.533333,304.983333 374.866667,306.636111 376.25787,308.300463 L377.1,309.3 L377.1,309.3 C385.9,320 387.6,334.5 381.7,347 C375.5,359.9 362.4,368 347.5,368 L273,368 C273,412.1 237.1,448 193,448 C148.9,448 113,412.1 113,368 L38.6,368 Z M145,368 C145,394.5 166.5,416 193,416 C219.5,416 241,394.5 241,368 L145,368 Z M193,32 C178.4,32 168.1,45 164.4,57.9 C161.7,67 154.4,75 145.2,78.8 C126.1,86.7 112.5,96.5 102.4,109.8 C88.4,128.1 81.3,153.6 81.3,185.4 C81.2,272.3 62.4,295 38.6,323.8 C37,325.7 35.5,327.6 33.8,329.6 C33.4,330 32.4,331.3 33.3,333.3 C33.8,334.3 35.2,336.1 38.7,336.1 L127.214649,336.099696 C127.801045,336.033833 128.396763,336 129,336 C129.603237,336 130.198955,336.033833 130.785351,336.099696 L255.214649,336.099696 C255.801045,336.033833 256.396763,336 257,336 C257.603237,336 258.198955,336.033833 258.785351,336.099696 L347.6,336.1 C351.1,336.1 352.4,334.4 352.9,333.3 C353.8,331.3 352.8,330 352.4,329.6 C350.8,327.6 349.2,325.7 347.6,323.8 C323.8,295 304.9,272.3 304.9,185.4 C304.9,153.6 297.8,128.2 283.8,109.8 C273.6,96.5 260,86.7 241,78.8 C231.9,75 224.5,67.1 221.8,58 C217.9,45 207.6,32 193,32 Z" id="Combined-Shape"></path>
        </g>
    </g>
</svg>