<?xml version="1.0" encoding="UTF-8" standalone="no"?>
<svg
   xmlns:dc="http://purl.org/dc/elements/1.1/"
   xmlns:cc="http://creativecommons.org/ns#"
   xmlns:rdf="http://www.w3.org/1999/02/22-rdf-syntax-ns#"
   xmlns:svg="http://www.w3.org/2000/svg"
   xmlns="http://www.w3.org/2000/svg"
   xmlns:sodipodi="http://sodipodi.sourceforge.net/DTD/sodipodi-0.dtd"
   xmlns:inkscape="http://www.inkscape.org/namespaces/inkscape"
   class="ionicon"
   viewBox="0 0 512 512"
   version="1.1"
   id="svg6"
   sodipodi:docname="notifications-off-circle.svg"
   inkscape:version="1.0.2 (e86c8708, 2021-01-15)">
  <metadata
     id="metadata12">
    <rdf:RDF>
      <cc:Work
         rdf:about="">
        <dc:format>image/svg+xml</dc:format>
        <dc:type
           rdf:resource="http://purl.org/dc/dcmitype/StillImage" />
      </cc:Work>
    </rdf:RDF>
  </metadata>
  <defs
     id="defs10" />
  <sodipodi:namedview
     pagecolor="#ffffff"
     bordercolor="#666666"
     borderopacity="1"
     objecttolerance="10"
     gridtolerance="10"
     guidetolerance="10"
     inkscape:pageopacity="0"
     inkscape:pageshadow="2"
     inkscape:window-width="689"
     inkscape:window-height="480"
     id="namedview8"
     showgrid="false"
     inkscape:zoom="1.3027344"
     inkscape:cx="256"
     inkscape:cy="256"
     inkscape:window-x="44"
     inkscape:window-y="25"
     inkscape:window-maximized="0"
     inkscape:current-layer="svg6" />
  <title
     id="title2">Notifications Off Circle</title>
  <path
     style="color:#000000;font-style:normal;font-variant:normal;font-weight:normal;font-stretch:normal;font-size:medium;line-height:normal;font-family:sans-serif;font-variant-ligatures:normal;font-variant-position:normal;font-variant-caps:normal;font-variant-numeric:normal;font-variant-alternates:normal;font-variant-east-asian:normal;font-feature-settings:normal;font-variation-settings:normal;text-indent:0;text-align:start;text-decoration:none;text-decoration-line:none;text-decoration-style:solid;text-decoration-color:#000000;letter-spacing:normal;word-spacing:normal;text-transform:none;writing-mode:lr-tb;direction:ltr;text-orientation:mixed;dominant-baseline:auto;baseline-shift:baseline;text-anchor:start;white-space:normal;shape-padding:0;shape-margin:0;inline-size:0;clip-rule:nonzero;display:inline;overflow:visible;visibility:visible;isolation:auto;mix-blend-mode:normal;color-interpolation:sRGB;color-interpolation-filters:linearRGB;solid-color:#000000;solid-opacity:1;vector-effect:none;fill:#000000;fill-opacity:1;fill-rule:nonzero;stroke-width:1;stroke-linecap:butt;stroke-linejoin:miter;stroke-miterlimit:4;stroke-dasharray:none;stroke-dashoffset:0;stroke-opacity:1;color-rendering:auto;image-rendering:auto;shape-rendering:auto;text-rendering:auto;enable-background:accumulate;stop-color:#000000;stop-opacity:1;stroke:none;opacity:1"
     d="M 256,48 C 141.31,48 48,141.31 48,256 48,370.69 141.31,464 256,464 370.69,464 464,370.69 464,256 464,141.31 370.69,48 256,48 Z M 146.83,313 c 16.33,-19.34 27.86,-27.47 27.86,-80.8 0,-2.5 0.0667,-4.92 0.2,-7.26 0.11205,-3.62488 4.60319,-5.24169 7,-2.52 l 98,106.87 c 2.34443,2.56259 0.5332,6.69023 -2.94,6.7 H 158 C 146.18,336 140.06,321 146.83,313 Z m 148.93,43.41 C 293.53,375.14 276.92,384 256,384 c -20.92,0 -37.51,-8.86 -39.75,-27.58 -0.25037,-2.37099 1.61586,-4.43318 4,-4.42 h 71.53 c 2.37615,-0.001 4.2295,2.05698 3.98,4.42 z m 67,17.42 c -6.53928,5.94194 -16.65712,5.45843 -22.6,-1.08 l -192,-212 c -5.81453,-6.55434 -5.2759,-16.56619 1.20825,-22.45888 6.48415,-5.89269 16.50174,-5.47415 22.47175,0.93888 l 192,212 c 5.94867,6.54062 5.46501,16.66616 -1.08,22.61 z M 361,323.21 216.49,165.53 c -1.85175,-2.00782 -1.19111,-5.23987 1.3,-6.36 1.31,-0.58 2.61,-1.12 3.89,-1.63 2.95621,-1.23319 5.2523,-3.66007 6.32,-6.68 3.72,-12.26 14.15,-22.86 28,-22.86 13.85,0 24.29,10.6 28,22.86 1.07331,3.02322 3.37692,5.45037 6.34,6.68 21.21,8.44 47,25.81 47,74.67 0,53.33 11.54,61.46 27.87,80.8 1.6914,2.04788 2.66136,4.59577 2.76,7.25 0.26836,3.80164 -4.42768,5.7892 -6.97,2.95 z"
     id="path4" />
</svg>
