<?xml version="1.0" encoding="UTF-8"?>
<svg width="512px" height="512px" viewBox="0 0 512 512" version="1.1" xmlns="http://www.w3.org/2000/svg" xmlns:xlink="http://www.w3.org/1999/xlink">
    <!-- Generator: Sketch 62 (91390) - https://sketch.com -->
    <title>Artboard</title>
    <desc>Created with Sketch.</desc>
    <g id="Artboard" stroke="none" stroke-width="1" fill="none" fill-rule="evenodd">
        <g id="notifications-off-sharp" transform="translate(41.000000, 32.000000)" fill="#000000" fill-rule="nonzero">
            <path d="M287.929449,400 C275.189984,429.13134 246.424543,447.968191 214.629449,448 C182.834356,447.968191 154.068915,429.13134 141.329449,400 L141.329449,400 Z M22.627417,9.37187871 L429.256243,416.000704 L406.628826,438.628121 L0,31.9992957 L22.627417,9.37187871 Z M74.4994493,151.75 L290.749449,368 L22.6294493,368 L22.6294493,320 L70.6294493,256 L70.6294493,195.47 C70.562881,180.808272 71.858447,166.172059 74.4994493,151.75 L74.4994493,151.75 Z M254.629449,0 L262.629449,48 C331.269449,63.61 358.629449,125 358.629449,195.47 L358.629449,195.47 L358.629449,256 L406.629449,320 L406.679449,348.17 L124.679449,66.17 C137.337684,57.4241065 151.590974,51.250512 166.629449,48 L166.629449,48 L174.629449,0 L254.629449,0 Z" id="Combined-Shape"></path>
        </g>
    </g>
</svg>