<?xml version="1.0" encoding="UTF-8" standalone="no"?>
<svg
   xmlns:dc="http://purl.org/dc/elements/1.1/"
   xmlns:cc="http://creativecommons.org/ns#"
   xmlns:rdf="http://www.w3.org/1999/02/22-rdf-syntax-ns#"
   xmlns:svg="http://www.w3.org/2000/svg"
   xmlns="http://www.w3.org/2000/svg"
   xmlns:sodipodi="http://sodipodi.sourceforge.net/DTD/sodipodi-0.dtd"
   xmlns:inkscape="http://www.inkscape.org/namespaces/inkscape"
   class="ionicon"
   viewBox="0 0 512 512"
   version="1.1"
   id="svg6"
   sodipodi:docname="notifications-off.svg"
   inkscape:version="1.0.2 (e86c8708, 2021-01-15)">
  <metadata
     id="metadata12">
    <rdf:RDF>
      <cc:Work
         rdf:about="">
        <dc:format>image/svg+xml</dc:format>
        <dc:type
           rdf:resource="http://purl.org/dc/dcmitype/StillImage" />
      </cc:Work>
    </rdf:RDF>
  </metadata>
  <defs
     id="defs10" />
  <sodipodi:namedview
     pagecolor="#ffffff"
     bordercolor="#666666"
     borderopacity="1"
     objecttolerance="10"
     gridtolerance="10"
     guidetolerance="10"
     inkscape:pageopacity="0"
     inkscape:pageshadow="2"
     inkscape:window-width="689"
     inkscape:window-height="480"
     id="namedview8"
     showgrid="false"
     inkscape:zoom="1.3027344"
     inkscape:cx="256"
     inkscape:cy="256"
     inkscape:window-x="44"
     inkscape:window-y="25"
     inkscape:window-maximized="0"
     inkscape:current-layer="svg6" />
  <title
     id="title2">Notifications Off</title>
  <path
     style="color:#000000;font-style:normal;font-variant:normal;font-weight:normal;font-stretch:normal;font-size:medium;line-height:normal;font-family:sans-serif;font-variant-ligatures:normal;font-variant-position:normal;font-variant-caps:normal;font-variant-numeric:normal;font-variant-alternates:normal;font-variant-east-asian:normal;font-feature-settings:normal;font-variation-settings:normal;text-indent:0;text-align:start;text-decoration:none;text-decoration-line:none;text-decoration-style:solid;text-decoration-color:#000000;letter-spacing:normal;word-spacing:normal;text-transform:none;writing-mode:lr-tb;direction:ltr;text-orientation:mixed;dominant-baseline:auto;baseline-shift:baseline;text-anchor:start;white-space:normal;shape-padding:0;shape-margin:0;inline-size:0;clip-rule:nonzero;display:inline;overflow:visible;visibility:visible;isolation:auto;mix-blend-mode:normal;color-interpolation:sRGB;color-interpolation-filters:linearRGB;solid-color:#000000;solid-opacity:1;vector-effect:none;fill:#000000;fill-opacity:1;fill-rule:nonzero;stroke-width:1;stroke-linecap:butt;stroke-linejoin:miter;stroke-miterlimit:4;stroke-dasharray:none;stroke-dashoffset:0;stroke-opacity:1;color-rendering:auto;image-rendering:auto;shape-rendering:auto;text-rendering:auto;enable-background:accumulate;stop-color:#000000;stop-opacity:1;stroke:none;opacity:1"
     d="m 448,464 c -4.24447,0.007 -8.31595,-1.68148 -11.31,-4.69 l -384,-384 C 46.713534,69.019368 46.840394,59.111507 52.975951,52.975951 59.111507,46.840394 69.019368,46.713534 75.31,52.69 l 384,384 c 10.07182,10.07842 2.93837,27.3034 -11.31,27.31 z m -7.92,-122.69 c -1.66,-2 -3.29,-4 -4.89,-5.93 -22,-26.61 -35.31,-42.67 -35.31,-118 0,-39 -9.33,-71 -27.72,-95 C 358.6,104.65 340.27,91.2 316.11,81.26 315.7991,81.087054 315.52144,80.860188 315.29,80.59 306.6,51.49 282.82,32 256,32 c -26.82,0 -50.59,19.49 -59.28,48.56 -0.23192,0.260261 -0.50569,0.479952 -0.81,0.65 -7.56714,3.094632 -14.88247,6.77236 -21.88,11 -4.42515,2.697831 -5.15632,8.82689 -1.49,12.49 l 261.78,261.74 c 5.37908,5.38462 14.52861,0.92423 13.6,-6.63 -0.77112,-6.7946 -3.49422,-13.22028 -7.84,-18.5 z M 112.14,217.35 c 0,75.36 -13.29,91.42 -35.31,118 -1.6,1.93 -3.23,3.89 -4.89,5.93 -8.75578,10.5593 -10.571191,25.24656 -4.65,37.62 6.17,13 19.32,21.07 34.33,21.07 H 312.8 c 7.13242,0.006 10.70619,-8.61942 5.66,-13.66 l -192,-192 c -4.81896,-4.80351 -13.05362,-1.78051 -13.62,5 -0.46667,5.79333 -0.7,11.80667 -0.7,18.04 z M 256,480 c 29.44021,-0.0238 56.49213,-16.2035 70.44,-42.13 1.40965,-2.6655 -0.5247,-5.87304 -3.54,-5.87 H 189.12 c -3.0197,-0.0106 -4.96174,3.2006 -3.55,5.87 13.94617,25.92334 40.99338,42.10251 70.43,42.13 z"
     id="path4" />
</svg>
