<?xml version="1.0" encoding="UTF-8"?>
<svg width="512px" height="512px" viewBox="0 0 512 512" version="1.1" xmlns="http://www.w3.org/2000/svg" xmlns:xlink="http://www.w3.org/1999/xlink">
    <!-- Generator: Sketch 62 (91390) - https://sketch.com -->
    <title>Artboard</title>
    <desc>Created with Sketch.</desc>
    <g id="Artboard" stroke="none" stroke-width="1" fill="none" fill-rule="evenodd">
        <g id="nuclear-outline" transform="translate(48.000000, 48.000000)" fill="#000000" fill-rule="nonzero">
            <path d="M208,0 C322.7,0 416,93.3 416,208 C416,322.7 322.7,416 208,416 C93.3,416 0,322.7 0,208 C0,93.3 93.3,0 208,0 Z M173.389281,280.114623 L114.834237,357.241946 C141.875303,374.191032 173.820174,384 208,384 C242.129551,384 274.030718,374.219867 301.046409,357.31669 L242.482396,280.176341 C232.03454,285.189906 220.3382,288 208,288 C195.611262,288 183.869653,285.166838 173.389281,280.114623 Z M267.980681,260.872939 L326.51424,337.974388 C358.13508,309.11393 379.23573,268.909121 383.288148,223.888 L286.430769,223.806445 C283.608038,237.82628 277.106395,250.533391 267.980681,260.872939 Z M129.569231,223.806445 L32.7118525,223.888 C36.759839,268.859891 57.8187937,309.025998 89.3820677,337.879672 L147.925484,260.766435 C138.849036,250.446183 132.382278,237.77818 129.569231,223.806445 Z M208,160 C181.5,160 160,181.5 160,208 C160,234.5 181.5,256 208,256 C234.5,256 256,234.5 256,208 C256,181.5 234.5,160 208,160 Z M300.304929,58.221929 L257.298966,145.043677 C271.91748,156.517626 282.459628,172.962571 286.351431,191.804535 L383.267572,191.885056 C378.113979,135.448597 346.16874,86.6031966 300.304929,58.221929 Z M32.7324281,191.885056 L129.648569,191.804535 C133.540372,172.962571 144.08252,156.517626 158.701034,145.043677 L115.695071,58.221929 C69.8312599,86.6031966 37.8860205,135.448597 32.7324281,191.885056 Z M208,32 C185.536243,32 164.037855,36.236902 144.262476,43.9530679 L187.245414,130.731622 C193.867016,128.950307 200.824977,128 208,128 C215.175747,128 222.134388,128.950499 228.756589,130.732161 L271.739529,43.9538504 C251.963598,36.2371884 230.464517,32 208,32 Z" id="Combined-Shape"></path>
        </g>
    </g>
</svg>