<?xml version="1.0" encoding="UTF-8" standalone="no"?>
<svg
   xmlns:dc="http://purl.org/dc/elements/1.1/"
   xmlns:cc="http://creativecommons.org/ns#"
   xmlns:rdf="http://www.w3.org/1999/02/22-rdf-syntax-ns#"
   xmlns:svg="http://www.w3.org/2000/svg"
   xmlns="http://www.w3.org/2000/svg"
   xmlns:sodipodi="http://sodipodi.sourceforge.net/DTD/sodipodi-0.dtd"
   xmlns:inkscape="http://www.inkscape.org/namespaces/inkscape"
   class="ionicon"
   viewBox="0 0 512 512"
   version="1.1"
   id="svg6"
   sodipodi:docname="nuclear.svg"
   inkscape:version="1.0.2 (e86c8708, 2021-01-15)">
  <metadata
     id="metadata12">
    <rdf:RDF>
      <cc:Work
         rdf:about="">
        <dc:format>image/svg+xml</dc:format>
        <dc:type
           rdf:resource="http://purl.org/dc/dcmitype/StillImage" />
      </cc:Work>
    </rdf:RDF>
  </metadata>
  <defs
     id="defs10" />
  <sodipodi:namedview
     pagecolor="#ffffff"
     bordercolor="#666666"
     borderopacity="1"
     objecttolerance="10"
     gridtolerance="10"
     guidetolerance="10"
     inkscape:pageopacity="0"
     inkscape:pageshadow="2"
     inkscape:window-width="689"
     inkscape:window-height="480"
     id="namedview8"
     showgrid="false"
     inkscape:zoom="1.3027344"
     inkscape:cx="256"
     inkscape:cy="256"
     inkscape:window-x="44"
     inkscape:window-y="25"
     inkscape:window-maximized="0"
     inkscape:current-layer="svg6" />
  <title
     id="title2">Nuclear</title>
  <path
     style="color:#000000;font-style:normal;font-variant:normal;font-weight:normal;font-stretch:normal;font-size:medium;line-height:normal;font-family:sans-serif;font-variant-ligatures:normal;font-variant-position:normal;font-variant-caps:normal;font-variant-numeric:normal;font-variant-alternates:normal;font-variant-east-asian:normal;font-feature-settings:normal;font-variation-settings:normal;text-indent:0;text-align:start;text-decoration:none;text-decoration-line:none;text-decoration-style:solid;text-decoration-color:#000000;letter-spacing:normal;word-spacing:normal;text-transform:none;writing-mode:lr-tb;direction:ltr;text-orientation:mixed;dominant-baseline:auto;baseline-shift:baseline;text-anchor:start;white-space:normal;shape-padding:0;shape-margin:0;inline-size:0;clip-rule:nonzero;display:inline;overflow:visible;visibility:visible;isolation:auto;mix-blend-mode:normal;color-interpolation:sRGB;color-interpolation-filters:linearRGB;solid-color:#000000;solid-opacity:1;vector-effect:none;fill:#000000;fill-opacity:1;fill-rule:nonzero;stroke-width:1;stroke-linecap:butt;stroke-linejoin:miter;stroke-miterlimit:4;stroke-dasharray:none;stroke-dashoffset:0;stroke-opacity:1;color-rendering:auto;image-rendering:auto;shape-rendering:auto;text-rendering:auto;enable-background:accumulate;stop-color:#000000;stop-opacity:1;stroke:none;opacity:1"
     d="M 258.9,48 C 141.92,46.42 46.42,141.92 48,258.9 49.56,371.09 140.91,462.44 253.1,464 370.1,465.6 465.58,370.1 463.98,253.12 462.44,140.91 371.09,49.56 258.9,48 Z m 170.1,191.92 -93.08,-0.1 c -0.93767,-0.002 -1.7484,-0.65426 -1.95,-1.57 -3.97868,-17.36577 -13.63465,-32.90892 -27.44,-44.17 -0.72357,-0.58563 -0.94744,-1.59303 -0.54,-2.43 l 41.32,-83.43 c 0.52362,-1.07193 1.86322,-1.45 2.87,-0.81 45.41632,28.82048 75.18072,76.80738 80.82,130.3 0.12519,1.1855 -0.80793,2.21659 -2,2.21 z m -220.8,20.46 c -1.84454,-20.13088 9.12127,-39.26003 27.4244,-47.84029 18.30307,-8.58023 40.0196,-4.77213 54.31381,9.52208 14.29421,14.29421 18.10231,36.01074 9.52208,54.31381 C 290.88003,294.67873 271.75088,305.64454 251.62,303.8 228.57114,301.68809 210.31191,283.42886 208.2,260.38 Z M 164.65,108.22 206,191.65 c 0.40744,0.83697 0.18357,1.84437 -0.54,2.43 -13.81278,11.25803 -23.476,26.80153 -27.46,44.17 -0.20541,0.93429 -1.04366,1.59231 -2,1.57 l -93.08,0.1 c -1.19207,0.007 -2.125187,-1.0245 -2,-2.21 5.639284,-53.49262 35.40368,-101.47952 80.82,-130.3 1.01449,-0.67109 2.38814,-0.28873 2.91,0.81 z m -0.37,295.34 56.31,-74.09 c 0.56929,-0.74477 1.57948,-0.9942 2.43,-0.6 20.97038,9.51876 45.02962,9.51876 66,0 0.85052,-0.3942 1.86071,-0.14477 2.43,0.6 l 56.31,74.09 c 0.72095,0.94102 0.46981,2.29905 -0.54,2.92 -56.02501,34.02616 -126.33499,34.02616 -182.36,0 -1.0235,-0.60698 -1.29382,-1.96794 -0.58,-2.92 z"
     id="path4" />
</svg>
