<?xml version="1.0" encoding="UTF-8"?>
<svg width="512px" height="512px" viewBox="0 0 512 512" version="1.1" xmlns="http://www.w3.org/2000/svg" xmlns:xlink="http://www.w3.org/1999/xlink">
    <!-- Generator: Sketch 62 (91390) - https://sketch.com -->
    <title>Artboard</title>
    <desc>Created with Sketch.</desc>
    <g id="Artboard" stroke="none" stroke-width="1" fill="none" fill-rule="evenodd">
        <g id="nuclear-sharp" transform="translate(48.000000, 48.000000)" fill="#000000" fill-rule="nonzero">
            <path d="M60.9200022,60.9200022 C142.150042,-20.310038 273.849959,-20.3100389 355.08,60.92 C436.310041,142.150041 436.310041,273.849959 355.08,355.08 C273.849959,436.310041 142.150041,436.310041 60.92,355.08 C-20.3100389,273.849959 -20.310038,142.150042 60.9200022,60.9200022 Z M302.74,66.91 L264.8,143.5 C232.358607,114.833852 183.641393,114.833852 151.2,143.5 L151.2,143.5 L113.26,66.91 C72.7159493,94.1463298 45.8261402,137.487618 39.43,185.91 L39.43,185.91 L124.91,185.82 C113.758442,227.632415 135.412365,271.218646 175.47,287.59 L175.47,287.59 L123.76,355.59 C175.956058,385.430576 240.043942,385.430576 292.24,355.59 L292.24,355.59 L240.53,287.59 C272.837944,274.350261 293.956385,242.915498 294,208 C294.001292,200.511407 293.022993,193.054816 291.09,185.82 L291.09,185.82 L376.57,185.91 C370.17386,137.487618 343.284051,94.1463298 302.74,66.91 L302.74,66.91 Z M208,160 C234.509668,160 256,181.490332 256,208 C256,234.509668 234.509668,256 208,256 C181.490332,256 160,234.509668 160,208 C160,181.490332 181.490332,160 208,160 Z" id="Combined-Shape"></path>
        </g>
    </g>
</svg>