<?xml version="1.0" encoding="utf-8"?>
<!-- Generator: Adobe Illustrator 24.0.0, SVG Export Plug-In . SVG Version: 6.00 Build 0)  -->
<svg version="1.1" id="Layer_1" xmlns="http://www.w3.org/2000/svg" xmlns:xlink="http://www.w3.org/1999/xlink" x="0px" y="0px"
	 viewBox="0 0 512 512" style="enable-background:new 0 0 512 512;" xml:space="preserve">
<title>ionicons-v5-m</title>
<g>
	<path d="M336.8,496c-30.8,0-47.2-9.4-59.1-16.3c-8.3-4.8-13.3-7.7-21.7-7.7c-8.4,0-13.4,2.9-21.7,7.7c-12,6.9-28.3,16.3-59.1,16.3
		c-40.2,0-74.3-51.8-87.2-74C63,378.5,48,328.4,48,288c0-51.2,8.8-92.2,26.2-121.9c18.8-32,47.9-50.7,84.3-54.1
		c20.3-1.9,39.1,3.3,57.4,8.4c14.1,3.9,27.4,7.6,40.1,7.6c12.7,0,26-3.7,40.2-7.6c18.2-5,37.1-10.2,57.2-8.4
		c38.1,3.4,66.9,21.7,85.6,54.2c16.8,29.3,25,69.1,25,121.7c0,40.4-15,90.5-40,134C411.1,444.2,377,496,336.8,496z M256,440
		c16.9,0,28,6.3,37.7,11.9c10.8,6.2,20.9,12.1,43.1,12.1c13,0,36.4-17.9,59.4-58c22.1-38.3,35.8-83.5,35.8-118
		c0-46.2-7-81.8-20.8-105.8c-13.4-23.3-33.2-35.8-60.7-38.3h0c-14.4-1.3-29.7,2.9-45.9,7.4c-15.6,4.3-31.7,8.7-48.7,8.7
		c-17,0-33-4.4-48.6-8.7c-16.2-4.5-31.5-8.7-45.9-7.3c-26.4,2.5-46,15-59.7,38.4C87.3,207,80,242.5,80,288
		c0,34.5,13.7,79.7,35.8,118c23.1,40.1,46.5,58,59.4,58c22.2,0,32.4-5.9,43.1-12.1C228,446.3,239.1,440,256,440z"/>
</g>
<g>
	<path d="M323.9,83.1c-21,21-45.7,27-58.8,28.8c-4.4,0.6-8.4-2.4-9.1-6.8c-0.1-0.6-0.1-1.3,0-2c2.4-22.5,12.5-43.5,28.6-59.3
		c22-22,46-26.9,58.7-27.9c4.4-0.4,8.3,2.8,8.7,7.2c0.1,0.6,0,1.1,0,1.7C349.5,47,339.6,67.5,323.9,83.1z"/>
</g>
<g>
	<ellipse cx="216" cy="304" rx="24" ry="48"/>
</g>
<g>
	<ellipse cx="296" cy="304" rx="24" ry="48"/>
</g>
</svg>
