<?xml version="1.0" encoding="utf-8"?>
<!-- Generator: Adobe Illustrator 24.0.0, SVG Export Plug-In . SVG Version: 6.00 Build 0)  -->
<svg version="1.1" id="Layer_1" xmlns="http://www.w3.org/2000/svg" xmlns:xlink="http://www.w3.org/1999/xlink" x="0px" y="0px"
	 viewBox="0 0 512 512" style="enable-background:new 0 0 512 512;" xml:space="preserve">
<title>ionicons-v5-k</title>
<g>
	<path d="M344,464H104c-30.9,0-56-25.1-56-56V168c0-30.9,25.1-56,56-56h167.5c8.8,0,16,7.2,16,16s-7.2,16-16,16H104
		c-13.2,0-24,10.8-24,24v240c0,13.2,10.8,24,24,24h240c13.2,0,24-10.8,24-24V224c0-8.8,7.2-16,16-16s16,7.2,16,16v184
		C400,438.9,374.9,464,344,464z"/>
</g>
<g>
	<path d="M448,192c-8.8,0-16-7.2-16-16V80h-96c-8.8,0-16-7.2-16-16s7.2-16,16-16h112c8.8,0,16,7.2,16,16v112
		C464,184.8,456.8,192,448,192z"/>
</g>
<g>
	<path d="M224,304c-4.1,0-8.2-1.6-11.3-4.7c-6.2-6.2-6.2-16.4,0-22.6l216-216c6.2-6.2,16.4-6.2,22.6,0c6.2,6.2,6.2,16.4,0,22.6
		l-216,216C232.2,302.4,228.1,304,224,304z"/>
</g>
</svg>
