<?xml version="1.0" encoding="utf-8"?>
<!-- Generator: Adobe Illustrator 24.0.0, SVG Export Plug-In . SVG Version: 6.00 Build 0)  -->
<svg version="1.1" id="Layer_1" xmlns="http://www.w3.org/2000/svg" xmlns:xlink="http://www.w3.org/1999/xlink" x="0px" y="0px"
	 viewBox="0 0 512 512" style="enable-background:new 0 0 512 512;" xml:space="preserve">
<title>ionicons-v5-i</title>
<g>
	<path d="M448,144h-80c-8.8,0-16-7.2-16-16s7.2-16,16-16h80c8.8,0,16,7.2,16,16S456.8,144,448,144z"/>
</g>
<g>
	<path d="M304,144H64c-8.8,0-16-7.2-16-16s7.2-16,16-16h240c8.8,0,16,7.2,16,16S312.8,144,304,144z"/>
</g>
<g>
	<path d="M448,400h-80c-8.8,0-16-7.2-16-16s7.2-16,16-16h80c8.8,0,16,7.2,16,16S456.8,400,448,400z"/>
</g>
<g>
	<path d="M304,400H64c-8.8,0-16-7.2-16-16s7.2-16,16-16h240c8.8,0,16,7.2,16,16S312.8,400,304,400z"/>
</g>
<g>
	<path d="M448,272H208c-8.8,0-16-7.2-16-16c0-8.8,7.2-16,16-16h240c8.8,0,16,7.2,16,16C464,264.8,456.8,272,448,272z"/>
</g>
<g>
	<path d="M144,272H64c-8.8,0-16-7.2-16-16c0-8.8,7.2-16,16-16h80c8.8,0,16,7.2,16,16C160,264.8,152.8,272,144,272z"/>
</g>
<g>
	<path d="M336,176c-26.5,0-48-21.5-48-48s21.5-48,48-48s48,21.5,48,48S362.5,176,336,176z M336,112c-8.8,0-16,7.2-16,16
		s7.2,16,16,16s16-7.2,16-16S344.8,112,336,112z"/>
</g>
<g>
	<path d="M176,304c-26.5,0-48-21.5-48-48c0-26.5,21.5-48,48-48s48,21.5,48,48C224,282.5,202.5,304,176,304z M176,240
		c-8.8,0-16,7.2-16,16s7.2,16,16,16s16-7.2,16-16S184.8,240,176,240z"/>
</g>
<g>
	<path d="M336,432c-26.5,0-48-21.5-48-48s21.5-48,48-48s48,21.5,48,48S362.5,432,336,432z M336,368c-8.8,0-16,7.2-16,16
		s7.2,16,16,16s16-7.2,16-16S344.8,368,336,368z"/>
</g>
</svg>
