<?xml version="1.0" encoding="UTF-8"?>
<svg width="512px" height="512px" viewBox="0 0 512 512" version="1.1" xmlns="http://www.w3.org/2000/svg" xmlns:xlink="http://www.w3.org/1999/xlink">
    <!-- Generator: Sketch 62 (91390) - https://sketch.com -->
    <title>Artboard</title>
    <desc>Created with Sketch.</desc>
    <g id="Artboard" stroke="none" stroke-width="1" fill="none" fill-rule="evenodd">
        <g id="paper-plane-outline" transform="translate(32.000000, 32.000000)" fill="#000000" fill-rule="nonzero">
            <path d="M447.4,15.6 C449.5,21.1 449.5,27.2 447.4,32.7 L296,432.5 C296,432.6 295.9,432.7 295.9,432.7 C293.5,438.7 289,443.3 283.1,445.9 C280.1,447.3 276.9,447.9 273.6,447.9 C270.6,447.9 267.6,447.3 264.8,446.2 C258.5,443.7 253.5,438.6 251.1,432.2 L183.8,266.4 C183.7,266.1 183.6,265.8 183.4,265.4 L182.5,265.1 L182.5,265.1 L16.8,198 C4.6,193.6 -1.9,180.2 2.2,167.9 C4.5,161.1 9.6,155.7 16.4,153.1 L16.5,153.1 L16.5,153.1 L416.5,1.7 C428.8,-3 442.7,3.2 447.4,15.6 Z M397.443555,74.1553189 L214.523555,257.075319 L273.4,402 L397.443555,74.1553189 Z M374.833555,51.5653189 L46.9,175.7 L191.893555,234.505319 L374.833555,51.5653189 Z" id="Combined-Shape"></path>
        </g>
    </g>
</svg>