<?xml version="1.0" encoding="UTF-8" standalone="no"?>
<svg
   xmlns:dc="http://purl.org/dc/elements/1.1/"
   xmlns:cc="http://creativecommons.org/ns#"
   xmlns:rdf="http://www.w3.org/1999/02/22-rdf-syntax-ns#"
   xmlns:svg="http://www.w3.org/2000/svg"
   xmlns="http://www.w3.org/2000/svg"
   xmlns:sodipodi="http://sodipodi.sourceforge.net/DTD/sodipodi-0.dtd"
   xmlns:inkscape="http://www.inkscape.org/namespaces/inkscape"
   class="ionicon"
   viewBox="0 0 512 512"
   version="1.1"
   id="svg6"
   sodipodi:docname="paper-plane-outline.svg"
   inkscape:version="1.0.2 (e86c8708, 2021-01-15)">
  <metadata
     id="metadata12">
    <rdf:RDF>
      <cc:Work
         rdf:about="">
        <dc:format>image/svg+xml</dc:format>
        <dc:type
           rdf:resource="http://purl.org/dc/dcmitype/StillImage" />
      </cc:Work>
    </rdf:RDF>
  </metadata>
  <defs
     id="defs10" />
  <sodipodi:namedview
     pagecolor="#ffffff"
     bordercolor="#666666"
     borderopacity="1"
     objecttolerance="10"
     gridtolerance="10"
     guidetolerance="10"
     inkscape:pageopacity="0"
     inkscape:pageshadow="2"
     inkscape:window-width="689"
     inkscape:window-height="480"
     id="namedview8"
     showgrid="false"
     inkscape:zoom="1.3027344"
     inkscape:cx="256"
     inkscape:cy="256"
     inkscape:window-x="44"
     inkscape:window-y="25"
     inkscape:window-maximized="0"
     inkscape:current-layer="svg6" />
  <title
     id="title2">Paper Plane</title>
  <path
     style="color:#000000;font-style:normal;font-variant:normal;font-weight:normal;font-stretch:normal;font-size:medium;line-height:normal;font-family:sans-serif;font-variant-ligatures:normal;font-variant-position:normal;font-variant-caps:normal;font-variant-numeric:normal;font-variant-alternates:normal;font-variant-east-asian:normal;font-feature-settings:normal;font-variation-settings:normal;text-indent:0;text-align:start;text-decoration:none;text-decoration-line:none;text-decoration-style:solid;text-decoration-color:#000000;letter-spacing:normal;word-spacing:normal;text-transform:none;writing-mode:lr-tb;direction:ltr;text-orientation:mixed;dominant-baseline:auto;baseline-shift:baseline;text-anchor:start;white-space:normal;shape-padding:0;shape-margin:0;inline-size:0;clip-rule:nonzero;display:inline;overflow:visible;visibility:visible;isolation:auto;mix-blend-mode:normal;color-interpolation:sRGB;color-interpolation-filters:linearRGB;solid-color:#000000;solid-opacity:1;vector-effect:none;fill:currentColor;fill-opacity:1;fill-rule:nonzero;stroke:none;stroke-linecap:round;stroke-linejoin:round;stroke-miterlimit:4;stroke-dasharray:none;stroke-dashoffset:0;stroke-opacity:1;color-rendering:auto;image-rendering:auto;shape-rendering:auto;text-rendering:auto;enable-background:accumulate;stop-color:#000000;stop-opacity:1;opacity:1"
     d="M 454.38477 32.123047 C 452.04278 32.254547 449.68973 32.732357 447.41016 33.603516 C 447.40821 33.60426 447.40625 33.604724 447.4043 33.605469 L 47.457031 184.97656 A 16.0016 16.0016 0 0 0 47.388672 185.00195 C 37.640279 188.74206 31.785623 198.80159 31.992188 207.95117 C 32.198752 217.10076 38.500952 226.88528 48.408203 230.18164 L 47.447266 229.82812 L 213.53906 297.16797 A 16.0016 16.0016 0 0 0 214.48242 297.51758 A 16.0016 16.0016 0 0 0 214.83398 298.4668 L 282.23438 464.55664 L 281.93359 463.75586 C 285.30614 473.53605 294.99966 479.71996 304.08008 479.92578 C 313.16049 480.1316 323.12137 474.39272 326.93359 464.77539 A 16.0016 16.0016 0 0 0 327.02344 464.54297 L 478.39453 64.595703 L 478.39648 64.589844 C 481.88335 55.46569 479.07331 45.174873 472.94922 39.050781 C 468.35517 34.456732 461.41673 31.728208 454.38477 32.123047 z M 405.80664 83.564453 L 222.92773 266.44336 L 77.933594 207.65625 L 405.80664 83.564453 z M 428.43555 106.19336 L 304.36914 433.99805 L 245.55664 289.07227 L 428.43555 106.19336 z "
     id="path4" />
</svg>
