<?xml version="1.0" encoding="UTF-8" standalone="no"?>
<svg
   xmlns:dc="http://purl.org/dc/elements/1.1/"
   xmlns:cc="http://creativecommons.org/ns#"
   xmlns:rdf="http://www.w3.org/1999/02/22-rdf-syntax-ns#"
   xmlns:svg="http://www.w3.org/2000/svg"
   xmlns="http://www.w3.org/2000/svg"
   xmlns:sodipodi="http://sodipodi.sourceforge.net/DTD/sodipodi-0.dtd"
   xmlns:inkscape="http://www.inkscape.org/namespaces/inkscape"
   class="ionicon"
   viewBox="0 0 512 512"
   version="1.1"
   id="svg6"
   sodipodi:docname="partly-sunny.svg"
   inkscape:version="1.0.2 (e86c8708, 2021-01-15)">
  <metadata
     id="metadata12">
    <rdf:RDF>
      <cc:Work
         rdf:about="">
        <dc:format>image/svg+xml</dc:format>
        <dc:type
           rdf:resource="http://purl.org/dc/dcmitype/StillImage" />
      </cc:Work>
    </rdf:RDF>
  </metadata>
  <defs
     id="defs10" />
  <sodipodi:namedview
     pagecolor="#ffffff"
     bordercolor="#666666"
     borderopacity="1"
     objecttolerance="10"
     gridtolerance="10"
     guidetolerance="10"
     inkscape:pageopacity="0"
     inkscape:pageshadow="2"
     inkscape:window-width="689"
     inkscape:window-height="480"
     id="namedview8"
     showgrid="false"
     inkscape:zoom="1.3027344"
     inkscape:cx="256"
     inkscape:cy="256"
     inkscape:window-x="44"
     inkscape:window-y="25"
     inkscape:window-maximized="0"
     inkscape:current-layer="svg6" />
  <title
     id="title2">Partly Sunny</title>
  <path
     style="color:#000000;font-style:normal;font-variant:normal;font-weight:normal;font-stretch:normal;font-size:medium;line-height:normal;font-family:sans-serif;font-variant-ligatures:normal;font-variant-position:normal;font-variant-caps:normal;font-variant-numeric:normal;font-variant-alternates:normal;font-variant-east-asian:normal;font-feature-settings:normal;font-variation-settings:normal;text-indent:0;text-align:start;text-decoration:none;text-decoration-line:none;text-decoration-style:solid;text-decoration-color:#000000;letter-spacing:normal;word-spacing:normal;text-transform:none;writing-mode:lr-tb;direction:ltr;text-orientation:mixed;dominant-baseline:auto;baseline-shift:baseline;text-anchor:start;white-space:normal;shape-padding:0;shape-margin:0;inline-size:0;clip-rule:nonzero;display:inline;overflow:visible;visibility:visible;isolation:auto;mix-blend-mode:normal;color-interpolation:sRGB;color-interpolation-filters:linearRGB;solid-color:#000000;solid-opacity:1;vector-effect:none;fill:#000000;fill-opacity:1;fill-rule:nonzero;stroke-width:1;stroke-linecap:butt;stroke-linejoin:miter;stroke-miterlimit:4;stroke-dasharray:none;stroke-dashoffset:0;stroke-opacity:1;color-rendering:auto;image-rendering:auto;shape-rendering:auto;text-rendering:auto;enable-background:accumulate;stop-color:#000000;stop-opacity:1;stroke:none;opacity:1"
     d="M 340,480 H 106 C 76.5,480 51.08,472.17 32.47,457.36 11.23,440.44 0,415.35 0,384.8 0,358.14 10.08,335 29.14,317.89 c 15.24,-13.68 36.17,-23.21 59,-26.84 0.06,0 0.08,0 0.09,-0.05 6.44,-39 23.83,-72.09 50.31,-95.68 25.76086,-22.84771 59.02703,-35.41952 93.46,-35.32 30.23,0 58.48,9.39 81.71,27.17 18.15299,14.07034 32.62882,32.32725 42.19,53.21 2.09865,4.59939 6.2476,7.93634 11.19,9 26,5.61 48.4,17.29 65.17,34 20.74,20.73 31.74,48.33 31.74,79.82 0,32.85 -13.13,62.87 -37,84.52 C 404.11,468.54 373.2,480 340,480 Z m 19,-232.18 z m 28.89,-26.14 c 12.10016,3.58843 23.7597,8.5226 34.76,14.71 2.27166,1.27649 5.13784,0.0749 5.82,-2.44 2.41067,-8.6861 3.59876,-17.66584 3.53,-26.68 -0.39,-52.43 -43.48,-95.22 -95.91,-95.27 -19.71218,-0.0499 -38.95642,6.00392 -55.09,17.33 h -0.06 c -2.30349,1.63267 -1.70849,5.20266 1,6 18.53119,5.67083 35.89819,14.61172 51.28,26.4 18.47918,14.2828 33.89232,32.14124 45.32,52.51 2.03894,3.59438 5.38949,6.2605 9.35,7.44 z M 496,224 h -32 c -8.83656,0 -15.99999,-7.16344 -15.99999,-16 0,-8.83656 7.16343,-16 15.99999,-16 h 32 c 8.83656,0 15.99999,7.16344 15.99999,16 0,8.83656 -7.16343,16 -15.99999,16 z M 336,96 c -8.83656,0 -16,-7.163444 -16,-16 V 48 c 0,-8.836562 7.16344,-15.999993 16,-15.999993 8.83656,0 16,7.163431 16,15.999993 v 32 c 0,8.836556 -7.16344,16 -16,16 z m -90.51,37.49 c -4.24447,0.007 -8.31595,-1.68148 -11.31,-4.69 l -22.63,-22.62 c -6.24911,-6.249106 -6.2491,-16.380893 10e-6,-22.629995 6.2491,-6.249102 16.38088,-6.249111 22.62999,-5e-6 l 22.62,22.63 c 10.07182,10.07842 2.93837,27.3034 -11.31,27.31 z m 181.02,0 c -14.24837,-0.007 -21.38182,-17.23158 -11.31,-27.31 l 22.62,-22.63 c 6.24911,-6.249106 16.38089,-6.249097 22.62999,5e-6 6.24911,6.249102 6.24912,16.380889 10e-6,22.629995 l -22.63,22.62 c -2.99405,3.00852 -7.06553,4.69687 -11.31,4.69 z"
     id="path4" />
</svg>
