<?xml version="1.0" encoding="UTF-8" standalone="no"?>
<svg
   xmlns:dc="http://purl.org/dc/elements/1.1/"
   xmlns:cc="http://creativecommons.org/ns#"
   xmlns:rdf="http://www.w3.org/1999/02/22-rdf-syntax-ns#"
   xmlns:svg="http://www.w3.org/2000/svg"
   xmlns="http://www.w3.org/2000/svg"
   xmlns:sodipodi="http://sodipodi.sourceforge.net/DTD/sodipodi-0.dtd"
   xmlns:inkscape="http://www.inkscape.org/namespaces/inkscape"
   class="ionicon"
   viewBox="0 0 512 512"
   version="1.1"
   id="svg8"
   sodipodi:docname="partly-sunny-outline.svg"
   inkscape:version="1.0.2 (e86c8708, 2021-01-15)">
  <metadata
     id="metadata14">
    <rdf:RDF>
      <cc:Work
         rdf:about="">
        <dc:format>image/svg+xml</dc:format>
        <dc:type
           rdf:resource="http://purl.org/dc/dcmitype/StillImage" />
      </cc:Work>
    </rdf:RDF>
  </metadata>
  <defs
     id="defs12" />
  <sodipodi:namedview
     pagecolor="#ffffff"
     bordercolor="#666666"
     borderopacity="1"
     objecttolerance="10"
     gridtolerance="10"
     guidetolerance="10"
     inkscape:pageopacity="0"
     inkscape:pageshadow="2"
     inkscape:window-width="689"
     inkscape:window-height="480"
     id="namedview10"
     showgrid="false"
     inkscape:zoom="1.3027344"
     inkscape:cx="256"
     inkscape:cy="256"
     inkscape:window-x="44"
     inkscape:window-y="25"
     inkscape:window-maximized="0"
     inkscape:current-layer="svg8" />
  <title
     id="title2">Partly Sunny</title>
  <path
     style="color:#000000;font-style:normal;font-variant:normal;font-weight:normal;font-stretch:normal;font-size:medium;line-height:normal;font-family:sans-serif;font-variant-ligatures:normal;font-variant-position:normal;font-variant-caps:normal;font-variant-numeric:normal;font-variant-alternates:normal;font-variant-east-asian:normal;font-feature-settings:normal;font-variation-settings:normal;text-indent:0;text-align:start;text-decoration:none;text-decoration-line:none;text-decoration-style:solid;text-decoration-color:#000000;letter-spacing:normal;word-spacing:normal;text-transform:none;writing-mode:lr-tb;direction:ltr;text-orientation:mixed;dominant-baseline:auto;baseline-shift:baseline;text-anchor:start;white-space:normal;shape-padding:0;shape-margin:0;inline-size:0;clip-rule:nonzero;display:inline;overflow:visible;visibility:visible;isolation:auto;mix-blend-mode:normal;color-interpolation:sRGB;color-interpolation-filters:linearRGB;solid-color:#000000;solid-opacity:1;vector-effect:none;fill:currentColor;fill-opacity:1;fill-rule:nonzero;stroke:none;stroke-linecap:butt;stroke-linejoin:round;stroke-miterlimit:4;stroke-dasharray:none;stroke-dashoffset:0;stroke-opacity:1;color-rendering:auto;image-rendering:auto;shape-rendering:auto;text-rendering:auto;enable-background:accumulate;stop-color:#000000;stop-opacity:1;opacity:1"
     d="M 232 160 C 162.07594 160 101.36596 211.11335 88.212891 291 L 88.214844 290.98047 C 88.19972 291.07163 88.249516 291.0249 88.158203 291.03906 A 16.0016 16.0016 0 0 0 88.091797 291.04883 C 67.608724 294.31449 46.208685 302.56754 29.138672 317.89258 C 12.068659 333.21762 4.7369516e-15 356.31078 0 384.80078 C 0 416.01408 12.482845 441.44176 32.470703 457.35547 C 52.458561 473.26917 78.588721 480 106 480 L 340 480 C 406.83434 480 464 431.32649 464 363.19922 C 464 330.35223 451.73701 302.82006 432.25391 283.36914 C 412.79291 263.94029 386.76197 252.36662 359.06836 247.83594 C 341.44631 202.70632 296.83489 160 232 160 z M 232 192 C 282.97908 192 315.72722 224.73391 329.29102 259.54883 A 16.0016 16.0016 0 0 0 329.29688 259.56055 C 333.38202 270.02008 342.73832 277.58945 353.82031 279.40039 A 16.0016 16.0016 0 0 0 353.82617 279.40234 C 376.09733 283.03254 395.82958 292.22154 409.64648 306.01562 C 423.46339 319.80971 432 337.99621 432 363.19922 C 432 413.87195 391.96566 448 340 448 L 106 448 C 83.911279 448 65.041439 442.38161 52.404297 432.32031 C 39.767155 422.25902 32 408.08748 32 384.80078 C 32 364.82078 39.265638 351.80309 50.515625 341.70312 C 61.765612 331.60316 77.671979 325.11473 93.128906 322.65039 L 93.0625 322.66016 C 106.68211 320.54749 117.52946 309.8154 119.78516 296.21875 A 16.0016 16.0016 0 0 0 119.78711 296.19922 C 130.81404 229.22587 177.18406 192 232 192 z "
     id="path4" />
  <path
     style="color:#000000;font-style:normal;font-variant:normal;font-weight:normal;font-stretch:normal;font-size:medium;line-height:normal;font-family:sans-serif;font-variant-ligatures:normal;font-variant-position:normal;font-variant-caps:normal;font-variant-numeric:normal;font-variant-alternates:normal;font-variant-east-asian:normal;font-feature-settings:normal;font-variation-settings:normal;text-indent:0;text-align:start;text-decoration:none;text-decoration-line:none;text-decoration-style:solid;text-decoration-color:#000000;letter-spacing:normal;word-spacing:normal;text-transform:none;writing-mode:lr-tb;direction:ltr;text-orientation:mixed;dominant-baseline:auto;baseline-shift:baseline;text-anchor:start;white-space:normal;shape-padding:0;shape-margin:0;inline-size:0;clip-rule:nonzero;display:inline;overflow:visible;visibility:visible;isolation:auto;mix-blend-mode:normal;color-interpolation:sRGB;color-interpolation-filters:linearRGB;solid-color:#000000;solid-opacity:1;vector-effect:none;fill:currentColor;fill-opacity:1;fill-rule:nonzero;stroke:none;stroke-linecap:round;stroke-linejoin:round;stroke-miterlimit:4;stroke-dasharray:none;stroke-dashoffset:0;stroke-opacity:1;color-rendering:auto;image-rendering:auto;shape-rendering:auto;text-rendering:auto;enable-background:accumulate;stop-color:#000000;stop-opacity:1;opacity:1"
     d="M 336 32 A 16 16 0 0 0 320 48 L 320 80 A 16 16 0 0 0 336 96 A 16 16 0 0 0 352 80 L 352 48 A 16 16 0 0 0 336 32 z M 222.64453 78.861328 A 16 16 0 0 0 211.54688 83.546875 A 16 16 0 0 0 211.54688 106.17383 L 234.17578 128.80273 A 16 16 0 0 0 256.80273 128.80273 A 16 16 0 0 0 256.80273 106.17578 L 234.17383 83.546875 A 16 16 0 0 0 222.64453 78.861328 z M 448.92383 78.861328 A 16 16 0 0 0 437.82617 83.546875 L 415.19727 106.17578 A 16 16 0 0 0 415.19727 128.80273 A 16 16 0 0 0 437.82422 128.80273 L 460.45312 106.17383 A 16 16 0 0 0 460.45312 83.546875 A 16 16 0 0 0 448.92383 78.861328 z M 341.29297 112.33398 C 301.5459 110.34182 261.86814 133.11205 246.31055 173.66992 A 16 16 0 0 0 255.51953 194.33789 A 16 16 0 0 0 276.18945 185.13086 C 291.5237 145.15522 339.8254 131.14938 374.16602 156.7207 C 408.50663 182.29203 408.93319 232.58249 375.0293 258.73047 A 16 16 0 0 0 372.13086 281.17188 A 16 16 0 0 0 394.57227 284.07031 C 444.60527 245.48294 443.95683 168.79109 393.2793 131.05469 C 377.44257 119.26206 359.35982 113.23951 341.29297 112.33398 z M 464 192 A 16 16 0 0 0 448 208 A 16 16 0 0 0 464 224 L 496 224 A 16 16 0 0 0 512 208 A 16 16 0 0 0 496 192 L 464 192 z "
     id="path6" />
</svg>
