<?xml version="1.0" encoding="UTF-8" standalone="no"?>
<svg
   xmlns:dc="http://purl.org/dc/elements/1.1/"
   xmlns:cc="http://creativecommons.org/ns#"
   xmlns:rdf="http://www.w3.org/1999/02/22-rdf-syntax-ns#"
   xmlns:svg="http://www.w3.org/2000/svg"
   xmlns="http://www.w3.org/2000/svg"
   xmlns:sodipodi="http://sodipodi.sourceforge.net/DTD/sodipodi-0.dtd"
   xmlns:inkscape="http://www.inkscape.org/namespaces/inkscape"
   class="ionicon"
   viewBox="0 0 512 512"
   version="1.1"
   id="svg6"
   sodipodi:docname="partly-sunny-sharp.svg"
   inkscape:version="1.0.2 (e86c8708, 2021-01-15)">
  <metadata
     id="metadata12">
    <rdf:RDF>
      <cc:Work
         rdf:about="">
        <dc:format>image/svg+xml</dc:format>
        <dc:type
           rdf:resource="http://purl.org/dc/dcmitype/StillImage" />
      </cc:Work>
    </rdf:RDF>
  </metadata>
  <defs
     id="defs10" />
  <sodipodi:namedview
     pagecolor="#ffffff"
     bordercolor="#666666"
     borderopacity="1"
     objecttolerance="10"
     gridtolerance="10"
     guidetolerance="10"
     inkscape:pageopacity="0"
     inkscape:pageshadow="2"
     inkscape:window-width="689"
     inkscape:window-height="480"
     id="namedview8"
     showgrid="false"
     inkscape:zoom="1.3027344"
     inkscape:cx="256"
     inkscape:cy="256"
     inkscape:window-x="44"
     inkscape:window-y="25"
     inkscape:window-maximized="0"
     inkscape:current-layer="svg6" />
  <title
     id="title2">Partly Sunny</title>
  <path
     style="color:#000000;font-style:normal;font-variant:normal;font-weight:normal;font-stretch:normal;font-size:medium;line-height:normal;font-family:sans-serif;font-variant-ligatures:normal;font-variant-position:normal;font-variant-caps:normal;font-variant-numeric:normal;font-variant-alternates:normal;font-variant-east-asian:normal;font-feature-settings:normal;font-variation-settings:normal;text-indent:0;text-align:start;text-decoration:none;text-decoration-line:none;text-decoration-style:solid;text-decoration-color:#000000;letter-spacing:normal;word-spacing:normal;text-transform:none;writing-mode:lr-tb;direction:ltr;text-orientation:mixed;dominant-baseline:auto;baseline-shift:baseline;text-anchor:start;white-space:normal;shape-padding:0;shape-margin:0;inline-size:0;clip-rule:nonzero;display:inline;overflow:visible;visibility:visible;isolation:auto;mix-blend-mode:normal;color-interpolation:sRGB;color-interpolation-filters:linearRGB;solid-color:#000000;solid-opacity:1;vector-effect:none;fill:#000000;fill-opacity:1;fill-rule:nonzero;stroke-width:1;stroke-linecap:butt;stroke-linejoin:miter;stroke-miterlimit:4;stroke-dasharray:none;stroke-dashoffset:0;stroke-opacity:1;color-rendering:auto;image-rendering:auto;shape-rendering:auto;text-rendering:auto;enable-background:accumulate;stop-color:#000000;stop-opacity:1;stroke:none;opacity:1"
     d="M 340,480 H 106 C 76.5,480 51.08,472.17 32.47,457.36 11.23,440.44 0,415.35 0,384.8 0,358.14 10.08,335 29.14,317.89 c 15.24,-13.68 36.17,-23.21 59,-26.84 0.06,0 0.08,0 0.09,-0.05 6.44,-39 23.83,-72.09 50.31,-95.68 25.76086,-22.84771 59.02703,-35.41952 93.46,-35.32 30.23,0 58.48,9.39 81.71,27.17 20.30859,15.76442 35.98078,36.72287 45.36,60.66 29.41,4.82 54.72,17.11 73.19,35.54 20.74,20.74 31.74,48.34 31.74,79.83 0,32.85 -13.13,62.87 -37,84.52 C 404.11,468.54 373.2,480 340,480 Z m 19,-232.18 z m 22.5,-27.93 c 15.99217,4.08352 31.30093,10.48463 45.44,19 13.37114,-39.3096 -0.045,-82.76015 -33.2507,-107.68831 C 360.4836,106.27352 315.01523,105.51832 281,129.33 c -1.9,1.33333 -3.74667,2.73333 -5.54,4.2 20.93096,5.47248 40.55816,15.07019 57.73,28.23 20.15613,15.61523 36.64611,35.45714 48.31,58.13 z M 448,192 h 64 v 32 H 448 Z M 320,32 h 32 v 64 h -32 z m -64.65,97.63 12.45,-12.45 -44.62,-44.63 -22.63,22.63 33.17,33.17 h 0.6 c 7.02957,-0.003 14.05274,0.42399 21.03,1.28 z m 148.853,-12.46 44.626,-44.625 22.627,22.628 -44.625,44.625 z"
     id="path4" />
</svg>
