<?xml version="1.0" encoding="UTF-8"?>
<svg width="512px" height="512px" viewBox="0 0 512 512" version="1.1" xmlns="http://www.w3.org/2000/svg" xmlns:xlink="http://www.w3.org/1999/xlink">
    <!-- Generator: Sketch 62 (91390) - https://sketch.com -->
    <title>Artboard</title>
    <desc>Created with Sketch.</desc>
    <g id="Artboard" stroke="none" stroke-width="1" fill="none" fill-rule="evenodd">
        <g id="partly-sunny-outline" transform="translate(0.000000, 32.000000)" fill="#000000" fill-rule="nonzero">
            <path d="M411.8,117.5 C439.030492,152.823765 437.760627,201.296074 411.585497,234.995037 C419.220397,239.739672 426.192942,245.226493 432.4,251.4 C453.2,272.1 464.1,299.7 464.1,331.2 C464.1,364.1 451,394.1 427.1,415.7 C404.1,436.5 373.2,448 340,448 L106,448 C76.5,448 51.1,440.2 32.5,425.4 C11.2,408.4 0,383.4 0,352.8 C0,326.1 10.1,303 29.1,285.9 C44.1025974,272.377922 64.7555237,262.947462 87.2126079,259.243241 L88.1008,259.1 L88.1008,259.1 L88.2,259.1 C88.2,259.1 88.3,259.1 88.3,259 C94.7,220 112.1,186.9 138.6,163.3 C164.2,140.5 197.4,128 232.1,128 C238.816287,128 245.438603,128.464914 251.931748,129.383742 C258.236835,118.020573 266.80956,108.041265 277.2,100.1 C319.1,67.8 379.5,75.6 411.8,117.5 Z M232,160 C204.7,160 179.8,169.4 159.8,187.2 C138.8,205.9 125,232.5 119.8,264.2 C117.5,277.9 106.8,288.5 93.1,290.7 C76.3,293.4 61.2,300.1 50.5,309.7 C38.2,320.7 32,335.2 32,352.8 C32,409.8 83.8,416 106,416 L340,416 C365.2,416 388.5,407.5 405.5,392 C422.6,376.5 432,354.9 432,331.2 C432,316.9215 427.90626,274.425435 381.342161,255.02647 C379.713585,254.676095 378.143233,254.07203 376.685021,253.22113 C369.915892,250.768325 362.319234,248.784669 353.8,247.4 C342.7,245.6 333.3,238 329.3,227.6 C318.933142,200.907381 295.506291,172.748844 258.801881,163.303603 C257.895954,163.167811 256.990559,162.950479 256.093352,162.649751 C248.599031,160.936634 240.567892,160 232,160 Z M296.8,125.4 C292.048852,129.078308 287.845793,133.383002 284.310824,138.180748 C294.797184,142.518121 304.691639,148.211689 313.8,155.2 C333.7,170.5 349.8,192 359.2,215.9 C366.88159,217.154137 374.283287,218.920273 381.356933,221.173436 C403.569397,198.739516 406.350788,162.721957 386.6,137 C365,109.1 324.8,103.9 296.8,125.4 Z M496,160 C504.8,160 512,167.2 512,176 C512,184.8 504.8,192 496,192 L464,192 C455.2,192 448,184.8 448,176 C448,167.2 455.2,160 464,160 L496,160 Z M234.2,51.6 L256.8,74.2 C263,80.4 263,90.6 256.8,96.8 C253.7,99.9 249.6,101.5 245.5,101.5 C241.4,101.5 237.3,99.9 234.2,96.8 L211.6,74.2 C205.4,68 205.4,57.8 211.6,51.6 C217.8,45.4 228,45.4 234.2,51.6 Z M460.4,51.6 C466.6,57.8 466.6,68 460.4,74.2 L437.8,96.8 C434.7,99.9 430.6,101.5 426.5,101.5 C422.4,101.5 418.3,99.9 415.2,96.8 C409,90.6 409,80.4 415.2,74.2 L437.8,51.6 C444,45.4 454.2,45.4 460.4,51.6 Z M336,0 C344.8,0 352,7.2 352,16 L352,48 C352,56.8 344.8,64 336,64 C327.2,64 320,56.8 320,48 L320,16 C320,7.2 327.2,0 336,0 Z" id="Combined-Shape"></path>
        </g>
    </g>
</svg>