<?xml version="1.0" encoding="UTF-8"?>
<svg width="512px" height="512px" viewBox="0 0 512 512" version="1.1" xmlns="http://www.w3.org/2000/svg" xmlns:xlink="http://www.w3.org/1999/xlink">
    <!-- Generator: Sketch 62 (91390) - https://sketch.com -->
    <title>Artboard</title>
    <desc>Created with Sketch.</desc>
    <g id="Artboard" stroke="none" stroke-width="1" fill="none" fill-rule="evenodd">
        <g id="partly-sunny-sharp" transform="translate(0.000000, 32.000000)" fill="#000000" fill-rule="nonzero">
            <path d="M232,127.999414 C262.23,127.999414 290.48,137.39 313.71,155.17 C334.018589,170.934425 349.69078,191.892872 359.07,215.83 C388.48,220.65 413.79,232.94 432.26,251.37 C453,272.11 464,299.71 464,331.2 C464,364.05 450.87,394.07 427,415.72 C404.11,436.54 373.2,448 340,448 L106,448 C76.5,448 51.08,440.17 32.47,425.36 C11.23,408.44 0,383.35 0,352.8 C0,326.14 10.08,303 29.14,285.89 C44.1820779,272.387662 64.7673233,262.928232 87.2514892,259.19441 L88.14,259.05 C88.2,259.05 88.22,259.05 88.23,259 C94.67,220 112.06,186.91 138.54,163.32 C164.300856,140.47229 197.567026,127.900483 232,127.999414 Z M281,97.33 C315.015231,73.5183255 360.483603,74.2735216 393.689302,99.2016862 C426.895,124.129851 440.311137,167.580402 426.94,206.89 C412.800931,198.374634 397.492172,191.973524 381.5,187.89 L381.5,187.89 C369.836106,165.217139 353.346129,145.375234 333.19,129.76 C316.018156,116.600188 296.390955,107.002477 275.46,101.53 C277.253333,100.063333 279.1,98.6633333 281,97.33 Z M512,160 L512,192 L448,192 L448,160 L512,160 Z M448.82867,40.5451086 L471.456087,63.1725256 L426.830579,107.798035 L404.203162,85.1706175 L448.82867,40.5451086 Z M223.18,40.55 L267.8,85.18 L255.35,97.63 C248.372743,96.7739904 241.34957,96.346522 234.32,96.35 L234.32,96.35 L233.72,96.35 L200.55,63.18 L223.18,40.55 Z M352,0 L352,64 L320,64 L320,0 L352,0 Z" id="Combined-Shape"></path>
        </g>
    </g>
</svg>