<?xml version="1.0" encoding="utf-8"?>
<!-- Generator: Adobe Illustrator 24.0.0, SVG Export Plug-In . SVG Version: 6.00 Build 0)  -->
<svg version="1.1" id="Layer_1" xmlns="http://www.w3.org/2000/svg" xmlns:xlink="http://www.w3.org/1999/xlink" x="0px" y="0px"
	 viewBox="0 0 512 512" style="enable-background:new 0 0 512 512;" xml:space="preserve">
<title>ionicons-v5-c</title>
<g>
	<path d="M256,464c-114.7,0-208-93.3-208-208S141.3,48,256,48s208,93.3,208,208S370.7,464,256,464z M256,80c-97,0-176,79-176,176
		s79,176,176,176s176-79,176-176S353,80,256,80z"/>
</g>
<g>
	<path d="M208,336c-8.8,0-16-7.2-16-16V192c0-8.8,7.2-16,16-16s16,7.2,16,16v128C224,328.8,216.8,336,208,336z"/>
</g>
<g>
	<path d="M304,336c-8.8,0-16-7.2-16-16V192c0-8.8,7.2-16,16-16s16,7.2,16,16v128C320,328.8,312.8,336,304,336z"/>
</g>
</svg>
