<?xml version="1.0" encoding="utf-8"?>
<!-- Generator: Adobe Illustrator 24.0.0, SVG Export Plug-In . SVG Version: 6.00 Build 0)  -->
<svg version="1.1" id="Layer_1" xmlns="http://www.w3.org/2000/svg" xmlns:xlink="http://www.w3.org/1999/xlink" x="0px" y="0px"
	 viewBox="0 0 512 512" style="enable-background:new 0 0 512 512;" xml:space="preserve">
<title>ionicons-v5-n</title>
<g>
	<path d="M417.3,312c-5.8,0-11.5-1.1-16.9-3.2l-0.1,0c-11.9-4.8-21.2-14.3-26.7-27.5c-8.4-20-7.2-46.7,3.2-71.6
		c14.1-34,42-57.2,69.2-57.6l0.6,0c5.8,0,11.6,1.1,17,3.2l0.1,0c11.9,4.8,21.1,14.3,26.7,27.5c8.4,20,7.3,46.7-3,71.6
		c-14.4,34.5-42.5,57.6-70,57.6C417.4,312,417.3,312,417.3,312z M412.2,279c1.7,0.6,3.4,1,5.2,1c12,0,30.2-13.3,40.4-37.9
		c7-16.9,8.2-34.9,3.1-46.9c-2.2-5.2-5.2-8.6-9.1-10.2c-1.7-0.6-3.4-1-5.2-1c0,0,0,0,0,0h-0.3c-11.9,0.2-29.9,13.6-40,37.9
		c-7,16.9-8.3,34.9-3.2,47C405.3,274,408.3,277.5,412.2,279z"/>
</g>
<g>
	<path d="M368.8,464c-17.8,0-36.6-6.2-56.5-12.7c-19.2-6.3-39-12.7-56.2-12.7c-17.2,0-37.1,6.5-56.3,12.7
		c-20,6.5-38.9,12.7-56.6,12.7c-34.4,0-62.4-29.2-62.4-65.1c-0.1-8.6,1.5-17,4.6-25c8-22.1,26.7-33.3,44.8-44.2
		c15.8-9.5,30.7-18.4,40.4-34.5c26.8-44.4,43-71.2,85.4-71.2c42.4,0,58.5,26.8,85.3,71.2l0,0c9.7,16,24.5,25,40.3,34.4
		c18.1,10.9,36.7,22.1,44.8,44.3c3.2,8,4.8,16.4,4.7,25C431.1,434.8,403.2,464,368.8,464z M256.1,406.6c22.3,0,44.5,7.3,66.1,14.3
		c17.5,5.7,33.9,11.1,46.6,11.1c16.7,0,30.3-14.9,30.3-33.2c0-4.6-0.8-9-2.5-13.3l-0.2-0.6c-3.9-11-14.5-17.8-31.3-27.9
		c-17.5-10.5-37.4-22.5-51.2-45.3l0,0C284.7,263.3,277.1,256,256,256c-22.2,0-30.3,9.8-58,55.8c-13.8,22.9-33.7,34.8-51.3,45.4
		c-15.2,9.1-27.1,16.3-31.3,27.8l-0.2,0.5c-1.7,4.2-2.5,8.7-2.5,13.2l0,0.1c0,18.3,13.6,33.2,30.4,33.2c12.7,0,29.2-5.4,46.7-11.1
		C211.5,413.9,233.8,406.6,256.1,406.6z"/>
</g>
<g>
	<path d="M192.5,212C192.5,212,192.5,212,192.5,212c-15.5,0-30.6-8.2-42.6-23.1c-10.6-13.3-18-31.2-20.8-50.4
		c-6.6-45.7,13.5-85.2,45.9-90c2.1-0.3,4.2-0.5,6.4-0.5c15.5,0,30.6,8.2,42.5,23.1c10.6,13.3,18,31.2,20.8,50.5
		c6.6,45.7-13.5,85.2-45.9,90C196.8,211.8,194.6,212,192.5,212z M181.5,80c-0.5,0-1.1,0-1.6,0.1l-0.1,0c-12.3,1.8-23,25.1-18.9,53.7
		c4,27.6,19.6,46.1,31.6,46.1h0c0,0,0,0,0,0c0.5,0,1.1,0,1.6-0.1l0.1,0c12.3-1.8,23-25.1,18.9-53.7C209.1,98.5,193.5,80,181.5,80
		C181.5,80,181.5,80,181.5,80z"/>
</g>
<g>
	<path d="M319.5,212c-2.1,0-4.2-0.2-6.3-0.5c-32.4-4.7-52.6-44.2-45.9-90c2.8-19.3,10.2-37.2,20.8-50.4C299.9,56.2,315,48,330.5,48
		c0,0,0,0,0,0c2.1,0,4.3,0.2,6.4,0.5c32.3,4.7,52.5,44.2,45.9,90c-2.8,19.2-10.1,37.1-20.7,50.4C350.1,203.8,335,212,319.5,212
		C319.5,212,319.5,212,319.5,212z M330.5,80C330.5,80,330.5,80,330.5,80c-12,0-27.6,18.5-31.6,46.1c-4.1,28.6,6.6,51.9,18.9,53.7
		l0.1,0c0.5,0.1,1.1,0.2,1.6,0.1c12.1,0,27.6-18.5,31.6-46.1l0,0c3.4-23.6-3.9-51.6-18.9-53.7C331.6,80,331,80,330.5,80z"/>
</g>
<g>
	<path d="M94.7,312c0,0-0.1,0-0.1,0c-27.4,0-55.5-23.2-69.8-57.6c-10.4-24.9-11.5-51.7-3.2-71.6c5.5-13.2,14.8-22.7,26.7-27.5l0.1,0
		c5.5-2.1,11.2-3.2,17.1-3.2c27.4,0,55.5,23.2,69.8,57.6c10.4,24.9,11.5,51.7,3.2,71.6c-5.5,13.2-14.8,22.7-26.7,27.5l-0.1,0
		C106.2,310.9,100.5,312,94.7,312z M60.1,185c-3.8,1.6-6.9,5-9.1,10.2c-5.1,12.1-3.8,30.1,3.2,47C64.5,266.7,82.7,280,94.6,280
		c1.9,0,3.6-0.3,5.2-1c3.8-1.6,6.9-5,9.1-10.2c5.1-12.1,3.8-30.1-3.2-47C95.5,197.3,77.3,184,65.4,184C63.5,184,61.8,184.3,60.1,185
		z"/>
</g>
</svg>
