<?xml version="1.0" encoding="utf-8"?>
<!-- Generator: Adobe Illustrator 24.0.0, SVG Export Plug-In . SVG Version: 6.00 Build 0)  -->
<svg version="1.1" id="Layer_1" xmlns="http://www.w3.org/2000/svg" xmlns:xlink="http://www.w3.org/1999/xlink" x="0px" y="0px"
	 viewBox="0 0 512 512" style="enable-background:new 0 0 512 512;" xml:space="preserve">
<title>ionicons-v5-k</title>
<g>
	<path d="M64,464c-4.1,0-8.2-1.6-11.3-4.7c-4.9-4.9-6.1-12.4-2.9-18.6l23-45c0.8-1.5,1.7-2.8,2.9-4l277.1-277.8
		c3-3,7.1-4.7,11.3-4.7c0,0,0,0,0,0c4.2,0,8.3,1.7,11.3,4.7l22.6,22.6c3,3,4.7,7.1,4.7,11.3s-1.7,8.3-4.7,11.3L120.3,436.3
		c-1.2,1.2-2.5,2.2-4,2.9l-45,23C69,463.4,66.5,464,64,464z"/>
</g>
<g>
	<path d="M420.7,129.9c-4.2,0-8.3-1.7-11.3-4.7l-22.6-22.6c-6.2-6.2-6.2-16.4,0-22.6l22.6-22.6c0,0,0,0,0,0
		c12.5-12.5,32.8-12.5,45.2,0c12.5,12.5,12.5,32.8,0,45.2L432,125.3C429,128.3,424.9,129.9,420.7,129.9z"/>
</g>
</svg>
