<?xml version="1.0" encoding="utf-8"?>
<!-- Generator: Adobe Illustrator 24.0.0, SVG Export Plug-In . SVG Version: 6.00 Build 0)  -->
<svg version="1.1" id="Layer_1" xmlns="http://www.w3.org/2000/svg" xmlns:xlink="http://www.w3.org/1999/xlink" x="0px" y="0px"
	 viewBox="0 0 512 512" style="enable-background:new 0 0 512 512;" xml:space="preserve">
<title>ionicons-v5-k</title>
<g>
	<path d="M70,464c-5.7,0-11.4-2.2-15.6-6.4c-6.3-6.3-8.2-15.7-4.8-24l16.5-39.9c1.1-2.7,2.7-5.1,4.8-7.1L343,113.7
		c4.1-4.1,9.7-6.5,15.6-6.5c0,0,0,0,0,0c5.8,0,11.4,2.3,15.6,6.4l24.1,24.1c4.1,4.1,6.4,9.7,6.4,15.6s-2.3,11.4-6.5,15.6
		L125.5,441.1c-2,2-4.5,3.7-7.1,4.8l-39.9,16.5C75.7,463.5,72.8,464,70,464z"/>
</g>
<g>
	<path d="M425.4,132.7L425.4,132.7c-5.8,0-11.4-2.3-15.6-6.4l-24.1-24.1c-4.1-4.1-6.4-9.7-6.4-15.6c0-5.8,2.3-11.4,6.5-15.6
		l11.8-11.8c15-15,39.4-15,54.5,0l0.8,0.7c15,15,15,39.4,0,54.4l-11.8,11.8C436.8,130.4,431.2,132.7,425.4,132.7z"/>
</g>
</svg>
