<?xml version="1.0" encoding="UTF-8" standalone="no"?>
<svg
   xmlns:dc="http://purl.org/dc/elements/1.1/"
   xmlns:cc="http://creativecommons.org/ns#"
   xmlns:rdf="http://www.w3.org/1999/02/22-rdf-syntax-ns#"
   xmlns:svg="http://www.w3.org/2000/svg"
   xmlns="http://www.w3.org/2000/svg"
   xmlns:sodipodi="http://sodipodi.sourceforge.net/DTD/sodipodi-0.dtd"
   xmlns:inkscape="http://www.inkscape.org/namespaces/inkscape"
   class="ionicon"
   viewBox="0 0 512 512"
   version="1.1"
   id="svg8"
   sodipodi:docname="people-circle.svg"
   inkscape:version="1.0.2 (e86c8708, 2021-01-15)">
  <metadata
     id="metadata14">
    <rdf:RDF>
      <cc:Work
         rdf:about="">
        <dc:format>image/svg+xml</dc:format>
        <dc:type
           rdf:resource="http://purl.org/dc/dcmitype/StillImage" />
      </cc:Work>
    </rdf:RDF>
  </metadata>
  <defs
     id="defs12" />
  <sodipodi:namedview
     pagecolor="#ffffff"
     bordercolor="#666666"
     borderopacity="1"
     objecttolerance="10"
     gridtolerance="10"
     guidetolerance="10"
     inkscape:pageopacity="0"
     inkscape:pageshadow="2"
     inkscape:window-width="689"
     inkscape:window-height="480"
     id="namedview10"
     showgrid="false"
     inkscape:zoom="1.3027344"
     inkscape:cx="256"
     inkscape:cy="256"
     inkscape:window-x="44"
     inkscape:window-y="25"
     inkscape:window-maximized="0"
     inkscape:current-layer="svg8" />
  <title
     id="title2">People Circle</title>
  <path
     style="color:#000000;font-style:normal;font-variant:normal;font-weight:normal;font-stretch:normal;font-size:medium;line-height:normal;font-family:sans-serif;font-variant-ligatures:normal;font-variant-position:normal;font-variant-caps:normal;font-variant-numeric:normal;font-variant-alternates:normal;font-variant-east-asian:normal;font-feature-settings:normal;font-variation-settings:normal;text-indent:0;text-align:start;text-decoration:none;text-decoration-line:none;text-decoration-style:solid;text-decoration-color:#000000;letter-spacing:normal;word-spacing:normal;text-transform:none;writing-mode:lr-tb;direction:ltr;text-orientation:mixed;dominant-baseline:auto;baseline-shift:baseline;text-anchor:start;white-space:normal;shape-padding:0;shape-margin:0;inline-size:0;clip-rule:nonzero;display:inline;overflow:visible;visibility:visible;isolation:auto;mix-blend-mode:normal;color-interpolation:sRGB;color-interpolation-filters:linearRGB;solid-color:#000000;solid-opacity:1;vector-effect:none;fill:#000000;fill-opacity:1;fill-rule:nonzero;stroke-width:1;stroke-linecap:butt;stroke-linejoin:miter;stroke-miterlimit:4;stroke-dasharray:none;stroke-dashoffset:0;stroke-opacity:1;color-rendering:auto;image-rendering:auto;shape-rendering:auto;text-rendering:auto;enable-background:accumulate;stop-color:#000000;stop-opacity:1;stroke:none;opacity:1"
     d="M 258.9,48 C 141.92,46.42 46.42,141.92 48,258.9 49.56,371.09 140.91,462.44 253.1,464 370.1,465.6 465.58,370.1 463.98,253.12 462.44,140.91 371.09,49.56 258.9,48 Z m -3.68,152.11 c 0.21,-1.2 0.44,-2.4 0.71,-3.59 2.52572,-11.67854 8.15318,-22.46017 16.29,-31.21 12.89,-13.73 31.16,-21.31 51.45,-21.31 8.53644,-0.0351 17.01466,1.40615 25.06,4.26 10.00082,3.56077 19.0071,9.45754 26.27,17.2 10.68412,11.54797 17.04383,26.43676 18,42.14 0.27643,3.79497 0.27643,7.60503 0,11.4 -0.77014,10.75529 -3.5516,21.27057 -8.2,31 -0.50667,1.06 -1.03667,2.11 -1.59,3.15 -1.11,2.07 -2.3,4.1 -3.58,6.06 -2.54791,3.91309 -5.43575,7.59399 -8.63,11 -13.12,14 -29.92,21.73 -47.31,21.73 -6.52092,-0.004 -12.99695,-1.0786 -19.17,-3.18 -2.0739,-0.70421 -4.10996,-1.51529 -6.1,-2.43 -8.33432,-3.88807 -15.83079,-9.36351 -22.07,-16.12 -12.9872,-14.08691 -20.75223,-32.2006 -22,-51.32 -0.18,-2.58667 -0.24,-5.14667 -0.18,-7.68 0.0774,-3.71411 0.42832,-7.41747 1.05,-11.08 z m -149.73,24.34 c 0.48662,-7.13536 2.24778,-14.12582 5.2,-20.64 0.83282,-1.81433 1.76077,-3.58345 2.78,-5.3 2.03856,-3.44087 4.44976,-6.64685 7.19,-9.56 4.05942,-4.3306 8.78588,-7.98347 14,-10.82 2.60416,-1.42319 5.31579,-2.64024 8.11,-3.64 10.70703,-3.74486 22.21839,-4.56981 33.35,-2.39 11.79515,2.28136 22.5679,8.23122 30.78,17 9.74471,10.51911 15.23629,24.28191 15.41,38.62 0.05,2.11 0,4.23 -0.15,6.38 -0.61022,8.23321 -2.64015,16.29881 -6,23.84 -1.60876,3.63068 -3.52577,7.11677 -5.73,10.42 -4.23926,6.40617 -9.57415,12.01526 -15.76,16.57 -1.5,1.07 -3.06,2.07 -4.67,3.07 -3.16659,1.88591 -6.51726,3.44397 -10,4.65 -5.2076,1.81968 -10.68363,2.75263 -16.2,2.76 -0.93,0 -1.86,0 -2.78,-0.08 -1.83711,-0.10058 -3.66685,-0.3076 -5.48,-0.62 -1.80405,-0.31401 -3.58995,-0.7246 -5.35,-1.23 -2.64378,-0.76351 -5.22476,-1.7297 -7.72,-2.89 -0.84,-0.39 -1.66,-0.8 -2.48,-1.23 -18,-9.49 -31.57,-29.16 -34.23,-52.12 -0.12,-1.05 -0.22,-2.1 -0.29,-3.16 -0.22576,-3.20628 -0.21907,-6.42469 0.02,-9.63 z m 53.92,178.6 c -26.62548,-17.55011 -48.0238,-41.95746 -61.94,-70.65 -0.943782,-1.90523 -0.23214,-4.21587 1.62,-5.26 18.58,-10.45 42.31,-16.14 64.73,-16.14 17,0 30.7,2 42.69,5.88 5.98368,1.9694 7.44923,9.76116 2.59,13.77 -23.35,19 -38.4,42.54 -45.47,70.75 -0.45643,1.86235 -2.6214,2.70885 -4.22,1.65 z M 256,432 c -22.51405,0.0227 -44.82128,-4.29611 -65.7,-12.72 -1.75918,-0.72637 -2.76293,-2.59168 -2.4,-4.46 0.4,-2.05 0.84,-3.92 1.23,-5.48 7.12,-28.43 24.76,-52 51,-68.18 23.29,-14.35 53,-22.25 83.52,-22.25 31.16,0 60,7.58 83.48,21.91 1.24305,0.77801 1.64558,2.40138 0.91,3.67 C 376.52968,398.6235 318.63652,431.9452 256,432 Z"
     id="path4" />
  <path
     style="color:#000000;font-style:normal;font-variant:normal;font-weight:normal;font-stretch:normal;font-size:medium;line-height:normal;font-family:sans-serif;font-variant-ligatures:normal;font-variant-position:normal;font-variant-caps:normal;font-variant-numeric:normal;font-variant-alternates:normal;font-variant-east-asian:normal;font-feature-settings:normal;font-variation-settings:normal;text-indent:0;text-align:start;text-decoration:none;text-decoration-line:none;text-decoration-style:solid;text-decoration-color:#000000;letter-spacing:normal;word-spacing:normal;text-transform:none;writing-mode:lr-tb;direction:ltr;text-orientation:mixed;dominant-baseline:auto;baseline-shift:baseline;text-anchor:start;white-space:normal;shape-padding:0;shape-margin:0;inline-size:0;clip-rule:nonzero;display:inline;overflow:visible;visibility:visible;isolation:auto;mix-blend-mode:normal;color-interpolation:sRGB;color-interpolation-filters:linearRGB;solid-color:#000000;solid-opacity:1;vector-effect:none;fill:#000000;fill-opacity:1;fill-rule:nonzero;stroke-width:1;stroke-linecap:butt;stroke-linejoin:miter;stroke-miterlimit:4;stroke-dasharray:none;stroke-dashoffset:0;stroke-opacity:1;color-rendering:auto;image-rendering:auto;shape-rendering:auto;text-rendering:auto;enable-background:accumulate;stop-color:#000000;stop-opacity:1;stroke:none;opacity:1"
     d="m 161,295.28 c -1.83711,-0.10058 -3.66685,-0.3076 -5.48,-0.62 1.81315,0.3124 3.64289,0.51942 5.48,0.62 z M 134.64,178.13 c -5.21412,2.83653 -9.94058,6.4894 -14,10.82 -2.74024,2.91315 -5.15144,6.11913 -7.19,9.56 2.03856,-3.44087 4.44976,-6.64685 7.19,-9.56 4.05942,-4.3306 8.78588,-7.98347 14,-10.82 z m 81.53,79.76 c 3.35985,-7.54119 5.38978,-15.60679 6,-23.84 0.15,-2.15 0.2,-4.27 0.15,-6.38 0.0533,2.1 0.003,4.22667 -0.15,6.38 -0.61022,8.23321 -2.64015,16.29881 -6,23.84 z m -81.53,-79.76 c 2.60416,-1.42319 5.31579,-2.64024 8.11,-3.64 -2.79421,0.99976 -5.50584,2.21681 -8.11,3.64 z m 15.57,115.3 c -2.64378,-0.76351 -5.22476,-1.7297 -7.72,-2.89 2.49524,1.1603 5.07622,2.12649 7.72,2.89 z m -44.43,-56.24 c 2.66,23 16.26,42.63 34.23,52.12 C 122,279.82 108.44,260.15 105.78,237.19 Z M 254.34,219 c 1.24777,19.1194 9.0128,37.23309 22,51.32 6.23921,6.75649 13.73568,12.23193 22.07,16.12 -8.33432,-3.88807 -15.83079,-9.36351 -22.07,-16.12 -12.9872,-14.08691 -20.75223,-32.2006 -22,-51.32 -0.18,-2.58667 -0.24,-5.14667 -0.18,-7.68 -0.06,2.5 0,5.06 0.18,7.68 z m 50.16,69.82 c -2.0739,-0.70421 -4.10996,-1.51529 -6.1,-2.43 1.99004,0.91471 4.0261,1.72579 6.1,2.43 z m -48.57,-92.28 c 2.52572,-11.67854 8.15318,-22.46017 16.29,-31.21 -8.13682,8.74983 -13.76428,19.53146 -16.29,31.21 z M 375,165.46 c 10.68412,11.54797 17.04383,26.43676 18,42.14 -0.95617,-15.70324 -7.31588,-30.59203 -18,-42.14 -7.2629,-7.74246 -16.26918,-13.63923 -26.27,-17.2 10.00082,3.56077 19.0071,9.45754 26.27,17.2 z M 393,219 c -0.77014,10.75529 -3.5516,21.27057 -8.2,31 4.6484,-9.72943 7.42986,-20.24471 8.2,-31 z m -138.84,-7.73 c 0.0777,-3.73442 0.43202,-7.45794 1.06,-11.14 -0.62798,3.68206 -0.98228,7.40558 -1.06,11.14 z m 129.03,41.89 z M 206.88,189.05 c 9.74471,10.51911 15.23629,24.28191 15.41,38.62 -0.17371,-14.33809 -5.66529,-28.10089 -15.41,-38.62 -8.2121,-8.76878 -18.98485,-14.71864 -30.78,-17 11.79515,2.28136 22.5679,8.23122 30.78,17 z M 190,288 c -3.16659,1.88591 -6.51726,3.44397 -10,4.65 3.48274,-1.20603 6.83341,-2.76409 10,-4.65 z m -84.51,-63.55 c 0.48662,-7.13536 2.24778,-14.12582 5.2,-20.64 -2.95222,6.51418 -4.71338,13.50464 -5.2,20.64 z m 89.19,60.43 C 193.17,286 191.61,287 190,288 c 1.61,-1 3.17,-2 4.68,-3.12 z m 21.49,-26.99 c -1.60876,3.63068 -3.52577,7.11677 -5.73,10.42 2.20423,-3.30323 4.12124,-6.78932 5.73,-10.42 z M 110.69,203.81 c 0.83282,-1.81433 1.76077,-3.58345 2.78,-5.3 -1.01923,1.71655 -1.94718,3.48567 -2.78,5.3 z m 83.99,81.07 c 6.18585,-4.55474 11.52074,-10.16383 15.76,-16.57 -4.23926,6.40617 -9.57415,12.01526 -15.76,16.57 z"
     id="path6" />
</svg>
