<?xml version="1.0" encoding="UTF-8" standalone="no"?>
<svg
   xmlns:dc="http://purl.org/dc/elements/1.1/"
   xmlns:cc="http://creativecommons.org/ns#"
   xmlns:rdf="http://www.w3.org/1999/02/22-rdf-syntax-ns#"
   xmlns:svg="http://www.w3.org/2000/svg"
   xmlns="http://www.w3.org/2000/svg"
   xmlns:sodipodi="http://sodipodi.sourceforge.net/DTD/sodipodi-0.dtd"
   xmlns:inkscape="http://www.inkscape.org/namespaces/inkscape"
   class="ionicon"
   viewBox="0 0 512 512"
   version="1.1"
   id="svg6"
   sodipodi:docname="people.svg"
   inkscape:version="1.0.2 (e86c8708, 2021-01-15)">
  <metadata
     id="metadata12">
    <rdf:RDF>
      <cc:Work
         rdf:about="">
        <dc:format>image/svg+xml</dc:format>
        <dc:type
           rdf:resource="http://purl.org/dc/dcmitype/StillImage" />
      </cc:Work>
    </rdf:RDF>
  </metadata>
  <defs
     id="defs10" />
  <sodipodi:namedview
     pagecolor="#ffffff"
     bordercolor="#666666"
     borderopacity="1"
     objecttolerance="10"
     gridtolerance="10"
     guidetolerance="10"
     inkscape:pageopacity="0"
     inkscape:pageshadow="2"
     inkscape:window-width="689"
     inkscape:window-height="480"
     id="namedview8"
     showgrid="false"
     inkscape:zoom="1.3027344"
     inkscape:cx="256"
     inkscape:cy="256"
     inkscape:window-x="44"
     inkscape:window-y="25"
     inkscape:window-maximized="0"
     inkscape:current-layer="svg6" />
  <title
     id="title2">People</title>
  <path
     style="color:#000000;font-style:normal;font-variant:normal;font-weight:normal;font-stretch:normal;font-size:medium;line-height:normal;font-family:sans-serif;font-variant-ligatures:normal;font-variant-position:normal;font-variant-caps:normal;font-variant-numeric:normal;font-variant-alternates:normal;font-variant-east-asian:normal;font-feature-settings:normal;font-variation-settings:normal;text-indent:0;text-align:start;text-decoration:none;text-decoration-line:none;text-decoration-style:solid;text-decoration-color:#000000;letter-spacing:normal;word-spacing:normal;text-transform:none;writing-mode:lr-tb;direction:ltr;text-orientation:mixed;dominant-baseline:auto;baseline-shift:baseline;text-anchor:start;white-space:normal;shape-padding:0;shape-margin:0;inline-size:0;clip-rule:nonzero;display:inline;overflow:visible;visibility:visible;isolation:auto;mix-blend-mode:normal;color-interpolation:sRGB;color-interpolation-filters:linearRGB;solid-color:#000000;solid-opacity:1;vector-effect:none;fill:#000000;fill-opacity:1;fill-rule:nonzero;stroke-width:1;stroke-linecap:butt;stroke-linejoin:miter;stroke-miterlimit:4;stroke-dasharray:none;stroke-dashoffset:0;stroke-opacity:1;color-rendering:auto;image-rendering:auto;shape-rendering:auto;text-rendering:auto;enable-background:accumulate;stop-color:#000000;stop-opacity:1;stroke:none;opacity:1"
     d="m 336,256 c -20.56,0 -40.44,-9.18 -56,-25.84 -15.13,-16.25 -24.37,-37.92 -26,-61 -1.74,-24.62 5.77,-47.26 21.14,-63.76 C 290.51,88.9 312,80 336,80 c 23.83,0 45.38,9.06 60.7,25.52 15.47,16.62 23,39.22 21.26,63.63 -1.67,23.11 -10.9,44.77 -26,61 C 376.44,246.82 356.57,256 336,256 Z m 66,-88 z m 65.83,264 H 204.18 c -8.59086,0.046 -16.71718,-3.89528 -22,-10.67 -5.60163,-7.34147 -7.53915,-16.8412 -5.26,-25.79 8.42,-33.81 29.28,-61.85 60.32,-81.08 C 264.79,297.4 299.86,288 336,288 c 36.85,0 71,9 98.71,26.05 31.11,19.13 52,47.33 60.38,81.55 2.2515,8.95496 0.29252,18.44787 -5.32,25.78 -5.27713,6.74286 -13.37774,10.66394 -21.94,10.62 z M 147,260 c -35.19,0 -66.13,-32.72 -69,-72.93 -1.42,-20.6 5,-39.65 18,-53.62 12.86,-13.83 31,-21.45 51,-21.45 20,0 38,7.66 50.93,21.57 13.1,14.08 19.5,33.09 18,53.52 C 213.06,227.29 182.13,260 147,260 Z m 65.66,31.45 c -17.59,-8.6 -40.42,-12.9 -65.65,-12.9 -29.46,0 -58.07,7.68 -80.57,21.62 -25.51,15.83 -42.67,38.88 -49.6,66.71 -2.054566,8.10957 -0.290329,16.71345 4.79,23.36 4.822392,6.19078 12.242714,9.79567 20.09,9.76 h 111 c 3.86627,-5.6e-4 7.1789,-2.766 7.87,-6.57 0.11,-0.63 0.25,-1.26 0.41,-1.88 8.48,-34.06 28.35,-62.84 57.71,-83.82 4.68924,-3.38014 4.3559,-10.46507 -0.63,-13.39 -1.57,-0.92 -3.37,-1.89 -5.42,-2.89 z"
     id="path4" />
</svg>
