<?xml version="1.0" encoding="UTF-8" standalone="no"?>
<svg
   xmlns:dc="http://purl.org/dc/elements/1.1/"
   xmlns:cc="http://creativecommons.org/ns#"
   xmlns:rdf="http://www.w3.org/1999/02/22-rdf-syntax-ns#"
   xmlns:svg="http://www.w3.org/2000/svg"
   xmlns="http://www.w3.org/2000/svg"
   xmlns:sodipodi="http://sodipodi.sourceforge.net/DTD/sodipodi-0.dtd"
   xmlns:inkscape="http://www.inkscape.org/namespaces/inkscape"
   class="ionicon"
   viewBox="0 0 512 512"
   version="1.1"
   id="svg8"
   sodipodi:docname="people-circle-outline.svg"
   inkscape:version="1.0.2 (e86c8708, 2021-01-15)">
  <metadata
     id="metadata14">
    <rdf:RDF>
      <cc:Work
         rdf:about="">
        <dc:format>image/svg+xml</dc:format>
        <dc:type
           rdf:resource="http://purl.org/dc/dcmitype/StillImage" />
      </cc:Work>
    </rdf:RDF>
  </metadata>
  <defs
     id="defs12" />
  <sodipodi:namedview
     pagecolor="#ffffff"
     bordercolor="#666666"
     borderopacity="1"
     objecttolerance="10"
     gridtolerance="10"
     guidetolerance="10"
     inkscape:pageopacity="0"
     inkscape:pageshadow="2"
     inkscape:window-width="776"
     inkscape:window-height="480"
     id="namedview10"
     showgrid="false"
     inkscape:zoom="0.3"
     inkscape:cx="256"
     inkscape:cy="256"
     inkscape:window-x="224"
     inkscape:window-y="1153"
     inkscape:window-maximized="0"
     inkscape:current-layer="svg8"
     inkscape:document-rotation="0" />
  <title
     id="title2">People Circle</title>
  <path
     id="path4"
     style="color:#000000;font-style:normal;font-variant:normal;font-weight:normal;font-stretch:normal;font-size:medium;line-height:normal;font-family:sans-serif;font-variant-ligatures:normal;font-variant-position:normal;font-variant-caps:normal;font-variant-numeric:normal;font-variant-alternates:normal;font-variant-east-asian:normal;font-feature-settings:normal;font-variation-settings:normal;text-indent:0;text-align:start;text-decoration:none;text-decoration-line:none;text-decoration-style:solid;text-decoration-color:#000000;letter-spacing:normal;word-spacing:normal;text-transform:none;writing-mode:lr-tb;direction:ltr;text-orientation:mixed;dominant-baseline:auto;baseline-shift:baseline;text-anchor:start;white-space:normal;shape-padding:0;shape-margin:0;inline-size:0;clip-rule:nonzero;display:inline;overflow:visible;visibility:visible;isolation:auto;mix-blend-mode:normal;color-interpolation:sRGB;color-interpolation-filters:linearRGB;solid-color:#000000;solid-opacity:1;vector-effect:none;fill:#000000;fill-opacity:1;fill-rule:nonzero;stroke-width:1;stroke-linecap:butt;stroke-linejoin:miter;stroke-miterlimit:4;stroke-dasharray:none;stroke-dashoffset:0;stroke-opacity:1;color-rendering:auto;image-rendering:auto;shape-rendering:auto;text-rendering:auto;enable-background:accumulate;stop-color:#000000;stop-opacity:1;stroke:none;opacity:1"
     d="M 256 48 C 141.31 48 48 141.31 48 256 C 48 370.69 141.31 464 256 464 C 370.69 464 464 370.69 464 256 C 464 141.31 370.69 48 256 48 z M 256 80 C 353.05 80 432 158.95 432 256 C 432 287.3213 423.76177 316.75051 409.35547 342.25586 C 408.65473 341.77551 407.92754 341.29602 407.15039 340.82031 C 383.69039 326.49031 354.82992 318.91016 323.66992 318.91016 C 293.09992 318.91016 263.44062 326.81016 240.14062 341.16016 C 213.89062 357.33016 196.25063 380.90984 189.14062 409.33984 C 188.55115 411.6872 187.87445 414.75898 187.34766 418.03906 C 178.77118 414.38887 170.54609 410.0697 162.72656 405.16016 C 163.0066 403.89223 163.30273 402.6265 163.63086 401.36914 C 170.70086 373.15914 185.74961 349.63914 209.09961 330.61914 C 213.95884 326.6103 212.49345 318.81901 206.50977 316.84961 C 194.50977 313.01961 180.81031 310.9707 163.82031 310.9707 C 140.08738 310.9707 114.89851 317.37686 95.892578 329.01562 C 85.694463 306.75774 80 282.02866 80 256 C 80 159 159 80 256 80 z M 323.66992 144 C 303.37992 144 285.21094 151.46008 272.21094 165.33008 C 259.21094 179.20008 252.86008 198.24922 254.33008 218.94922 C 255.57785 238.06862 263.34288 256.18262 276.33008 270.26953 C 289.46008 284.27953 306.26992 292 323.66992 292 C 341.05992 292 357.86 284.27953 371 270.26953 C 383.96655 256.1772 391.72867 238.07853 393 218.9707 C 394.47 198.4607 387.96 179.30094 375 165.46094 C 362.04 151.62094 343.80992 144 323.66992 144 z M 163.81055 170.94922 C 146.88055 170.94922 131.68016 177.19922 120.66016 188.94922 C 109.64016 200.69922 104.26023 216.7093 105.49023 234.0293 C 107.89023 267.8493 134.06031 295.35938 163.82031 295.35938 C 193.53031 295.35938 219.69086 267.85984 222.13086 234.08984 C 223.38086 216.90984 217.83086 200.78984 206.88086 189.08984 C 195.93086 177.38984 180.74055 170.94922 163.81055 170.94922 z " />
</svg>
