<?xml version="1.0" encoding="UTF-8"?>
<svg width="512px" height="512px" viewBox="0 0 512 512" version="1.1" xmlns="http://www.w3.org/2000/svg" xmlns:xlink="http://www.w3.org/1999/xlink">
    <!-- Generator: Sketch 62 (91390) - https://sketch.com -->
    <title>Artboard</title>
    <desc>Created with Sketch.</desc>
    <g id="Artboard" stroke="none" stroke-width="1" fill="none" fill-rule="evenodd">
        <g id="people-circle-outline" transform="translate(48.000000, 48.000000)" fill="#000000" fill-rule="nonzero">
            <path d="M208,0 C322.69,0 416,93.31 416,208 C416,322.69 322.69,416 208,416 C93.31,416 0,322.69 0,208 C0,93.31 93.31,0 208,0 Z M208,32 C111,32 32,111 32,208 C32,234.027102 37.6876814,258.758277 47.8846458,281.015126 C66.8934141,269.373302 92.0863856,262.97 115.82,262.97 C132.81,262.97 146.51,265.02 158.51,268.85 C161.278468,269.761181 163.332338,272.105874 163.871091,274.970209 C164.409844,277.834543 163.34822,280.76523 161.1,282.62 C137.75,301.64 122.7,325.16 115.63,353.37 L115.63,353.37 L115.334987,354.527975 C115.117219,355.403993 114.911051,356.282627 114.716518,357.163646 C122.532932,362.076041 130.761581,366.387837 139.336295,370.037898 C139.864574,366.751383 140.549803,363.69025 141.14,361.34 C148.25,332.91 165.89,309.33 192.14,293.16 C215.44,278.81 245.1,270.91 275.67,270.91 C306.83,270.91 335.69,278.49 359.15,292.82 C359.927173,293.295718 360.665328,293.774044 361.366083,294.254405 C375.772842,268.752902 384,239.318929 384,208 C384,110.95 305.05,32 208,32 Z M115.81,122.95 C132.74,122.95 147.93,129.39 158.88,141.09 C169.83,152.79 175.38,168.91 174.13,186.09 C171.69,219.86 145.53,247.36 115.82,247.36 C86.06,247.36 59.89,219.85 57.49,186.03 C56.26,168.71 61.64,152.7 72.66,140.95 C83.68,129.2 98.88,122.95 115.81,122.95 Z M275.67,96 C295.81,96 314.04,103.62 327,117.46 C339.816,131.146222 346.324537,150.034879 345.046047,170.286839 L345,170.97 C343.72867,190.077827 335.966554,208.177668 323,222.27 C309.86,236.28 293.06,244 275.67,244 C258.27,244 241.46,236.28 228.33,222.27 C215.342796,208.183091 207.577769,190.069402 206.33,170.95 C204.86,150.25 211.21,131.2 224.21,117.33 C237.21,103.46 255.38,96 275.67,96 Z" id="Combined-Shape"></path>
        </g>
    </g>
</svg>