<?xml version="1.0" encoding="utf-8"?>
<!-- Generator: Adobe Illustrator 24.0.0, SVG Export Plug-In . SVG Version: 6.00 Build 0)  -->
<svg version="1.1" id="Layer_1" xmlns="http://www.w3.org/2000/svg" xmlns:xlink="http://www.w3.org/1999/xlink" x="0px" y="0px"
	 viewBox="0 0 512 512" style="enable-background:new 0 0 512 512;" xml:space="preserve">
<title>ionicons-v5-j</title>
<g>
	<path d="M288,256c-52.9,0-99.5-49.7-104-110.8c-2.3-31,7.3-59.7,27-80.8C230.4,43.5,257.8,32,288,32c30,0,57.3,11.6,76.8,32.6
		c19.8,21.3,29.4,49.9,27.1,80.6c0,0,0,0,0,0C387.4,206.3,340.8,256,288,256z M288,64c-21.2,0-40.3,7.9-53.6,22.2
		c-13.5,14.5-20.1,34.7-18.5,56.7c3.2,44,36.2,81.2,72,81.2c35.8,0,68.8-37.2,72-81.2v0c1.6-21.7-5-41.8-18.7-56.5
		C328,71.9,309,64,288,64z M376,144L376,144L376,144z"/>
</g>
<g>
	<path d="M464,480H112c-9.6,0-18.3-4-24.3-11.2c-6.5-7.8-9.1-18.4-7.1-29.1c8.4-46.8,34.8-86.1,76.2-113.7
		c36.8-24.5,83.4-38,131.2-38c47.8,0,94.4,13.5,131.2,38c41.4,27.6,67.8,66.9,76.2,113.7c1.9,10.7-0.7,21.3-7.2,29.1
		C482.2,476,473.6,480,464,480z M112.2,448h351.6c0.2-0.5,0.3-1.3,0.1-2.6c-6.9-38.1-28.5-70.1-62.5-92.8
		c-31.6-21-71.9-32.6-113.4-32.6c-41.6,0-81.9,11.6-113.4,32.6c-34,22.7-55.6,54.7-62.5,92.8C111.9,446.7,112,447.5,112.2,448z
		 M464.2,448L464.2,448L464.2,448z M111.8,448L111.8,448L111.8,448z"/>
</g>
<g>
	<path d="M144,248H32c-8.8,0-16-7.2-16-16s7.2-16,16-16h112c8.8,0,16,7.2,16,16S152.8,248,144,248z"/>
</g>
</svg>
