<?xml version="1.0" encoding="UTF-8"?>
<svg width="512px" height="512px" viewBox="0 0 512 512" version="1.1" xmlns="http://www.w3.org/2000/svg" xmlns:xlink="http://www.w3.org/1999/xlink">
    <!-- Generator: Sketch 62 (91390) - https://sketch.com -->
    <title>Artboard</title>
    <desc>Created with Sketch.</desc>
    <g id="Artboard" stroke="none" stroke-width="1" fill="none" fill-rule="evenodd">
        <g id="phone-portrait" transform="translate(112.000000, 0.000000)" fill="#000000" fill-rule="nonzero">
            <path d="M224,0 C259.346224,0 288,28.653776 288,64 L288,64 L288,448 C288,483.346224 259.346224,512 224,512 L224,512 L64,512 C28.653776,512 0,483.346224 0,448 L0,448 L0,64 C0,28.653776 28.653776,0 64,0 L64,0 Z M75.35,31.9999468 L64,31.9999468 C46.326888,31.9999468 32,46.326888 32,64 L32,64 L32,448 C32,465.673112 46.326888,480 64,480 L64,480 L224,480 C241.673112,480 256,465.673112 256,448 L256,448 L256,64 C256,46.326888 241.673112,31.9999468 224,31.9999468 L224,31.9999468 L212.65,31.9999468 C209.48791,31.9884616 206.620399,33.8543077 205.35,36.75 C200.272466,48.4383851 188.743614,55.9998982 176,56 L176,56 L112,56 C99.2563861,55.9998982 87.7275336,48.4383851 82.65,36.75 C81.3796011,33.8543077 78.5120901,31.9884616 75.35,31.9999468 L75.35,31.9999468 Z M224,47.9997773 L224.314871,48.0028138 C233.006099,48.1705779 240,55.2686411 240,64 L240,64 L240,448 C240,456.836556 232.836556,464 224,464 L224,464 L64,464 C55.163444,464 48,456.836556 48,448 L48,448 L48,64 C48,55.163444 55.163444,47.9997773 64,47.9997773 L64,47.9997773 L64.349758,48.0027958 C67.9569827,48.0869413 71.3386674,49.8075463 73.53,52.69 C82.5867039,64.8378707 96.8476196,71.9961312 112,72 L112,72 L176,72 C191.15238,71.9961312 205.413296,64.8378707 214.47,52.69 C216.732021,49.7145639 220.262429,47.9771436 224,47.9997773 L224,47.9997773 Z" id="Combined-Shape"></path>
        </g>
    </g>
</svg>