<?xml version="1.0" encoding="UTF-8"?>
<svg width="512px" height="512px" viewBox="0 0 512 512" version="1.1" xmlns="http://www.w3.org/2000/svg" xmlns:xlink="http://www.w3.org/1999/xlink">
    <!-- Generator: Sketch 62 (91390) - https://sketch.com -->
    <title>Artboard</title>
    <desc>Created with Sketch.</desc>
    <g id="Artboard" stroke="none" stroke-width="1" fill="none" fill-rule="evenodd">
        <g id="phone-landscape" transform="translate(0.000000, 112.000000)" fill="#000000" fill-rule="nonzero">
            <path d="M448,0 C483.346224,0 512,28.653776 512,64 L512,64 L512,224 C512,259.346224 483.346224,288 448,288 L448,288 L64,288 C28.653776,288 0,259.346224 0,224 L0,224 L0,64 C0,28.653776 28.653776,0 64,0 L64,0 Z M448,32 L64,32 C46.326888,32 31.9999468,46.326888 31.9999468,64 L31.9999468,64 L31.9999468,75.35 C31.9884616,78.5120901 33.8543077,81.3796011 36.75,82.65 C48.4383851,87.7275336 55.9998982,99.2563861 56,112 L56,112 L56,176 C55.9998982,188.743614 48.4383851,200.272466 36.75,205.35 C33.8543077,206.620399 31.9884616,209.48791 31.9999468,212.65 L31.9999468,212.65 L31.9999468,224 C31.9999468,241.673112 46.326888,256 64,256 L64,256 L448,256 C465.673112,256 480,241.673112 480,224 L480,224 L480,64 C480,46.326888 465.673112,32 448,32 L448,32 Z M448,48 C456.836556,48 464,55.163444 464,64 L464,64 L464,224 C464,232.836556 456.836556,240 448,240 L448,240 L64,240 C55.163444,240 47.9997773,232.836556 47.9997773,224 L47.9997773,224 L48.0027958,223.650242 C48.0869413,220.043017 49.8075463,216.661333 52.69,214.47 C64.8378707,205.413296 71.9961312,191.15238 72,176 L72,176 L72,112 C71.9961312,96.8476196 64.8378707,82.5867039 52.69,73.53 C49.7145639,71.2679793 47.9771436,67.7375708 47.9997773,64 L47.9997773,64 L48.0028138,63.6851293 C48.1705779,54.993901 55.2686411,48 64,48 L64,48 Z" id="Combined-Shape"></path>
        </g>
    </g>
</svg>