<?xml version="1.0" encoding="utf-8"?>
<!-- Generator: Adobe Illustrator 24.0.0, SVG Export Plug-In . SVG Version: 6.00 Build 0)  -->
<svg version="1.1" id="Layer_1" xmlns="http://www.w3.org/2000/svg" xmlns:xlink="http://www.w3.org/1999/xlink" x="0px" y="0px"
	 viewBox="0 0 512 512" style="enable-background:new 0 0 512 512;" xml:space="preserve">
<title>ionicons-v5-n</title>
<g>
	<path d="M272,480c-44.4,0-86.8-13.8-122.6-40c-35.8-26.1-62-62.3-75.5-104.5c-2.7-8.4,1.9-17.4,10.3-20.1
		c8.4-2.7,17.4,1.9,20.1,10.3c11.5,35.7,33.6,66.3,63.9,88.4C198.6,436.3,234.5,448,272,448c97,0,176-79,176-176S369,96,272,96
		c-4.9,0-9.8,0.2-14.6,0.6c-8.8,0.7-16.5-5.8-17.3-14.6c-0.7-8.8,5.8-16.5,14.6-17.3c5.7-0.5,11.5-0.7,17.3-0.7
		c114.7,0,208,93.3,208,208S386.7,480,272,480z"/>
</g>
<g>
	<path d="M66.1,357c-6.1,0-12-3.5-14.6-9.5c-13-29-19.5-59.8-19.5-91.6c0-59.8,23.3-116.1,65.6-158.4C139.9,55.3,196.2,32,256,32
		c8.8,0,16,7.2,16,16v208c0,6.3-3.7,12-9.5,14.6l-189.9,85C70.5,356.6,68.3,357,66.1,357z M240,64.7C141.6,72.8,64,155.5,64,256
		c0,21.9,3.6,43.2,10.8,63.6l165.2-74V64.7z"/>
</g>
</svg>
