<?xml version="1.0" encoding="utf-8"?>
<!-- Generator: Adobe Illustrator 24.0.0, SVG Export Plug-In . SVG Version: 6.00 Build 0)  -->
<svg version="1.1" id="Layer_1" xmlns="http://www.w3.org/2000/svg" xmlns:xlink="http://www.w3.org/1999/xlink" x="0px" y="0px"
	 viewBox="0 0 512 512" style="enable-background:new 0 0 512 512;" xml:space="preserve">
<title>ionicons-v5-n</title>
<g>
	<path d="M256,176c-44.1,0-80-35.9-80-80s35.9-80,80-80s80,35.9,80,80S300.1,176,256,176z M256,48c-26.5,0-48,21.5-48,48
		s21.5,48,48,48c26.5,0,48-21.5,48-48S282.5,48,256,48z"/>
</g>
<g>
	<path d="M272,164c0-5-4-9-9-9h-14c-5,0-9,4-9,9v293.6c0,4.3,0.8,8.5,2.5,12.4l10.1,24c1,1.9,3.4,2.6,5.3,1.6
		c0.7-0.4,1.2-0.9,1.6-1.6l10.1-24c1.6-3.9,2.5-8.1,2.5-12.4V164z"/>
</g>
<g>
	<circle cx="280" cy="72" r="24"/>
</g>
</svg>
