<?xml version="1.0" encoding="UTF-8" standalone="no"?>
<svg
   xmlns:dc="http://purl.org/dc/elements/1.1/"
   xmlns:cc="http://creativecommons.org/ns#"
   xmlns:rdf="http://www.w3.org/1999/02/22-rdf-syntax-ns#"
   xmlns:svg="http://www.w3.org/2000/svg"
   xmlns="http://www.w3.org/2000/svg"
   xmlns:sodipodi="http://sodipodi.sourceforge.net/DTD/sodipodi-0.dtd"
   xmlns:inkscape="http://www.inkscape.org/namespaces/inkscape"
   class="ionicon"
   viewBox="0 0 512 512"
   version="1.1"
   id="svg6"
   sodipodi:docname="pint-outline.svg"
   inkscape:version="1.0.2 (e86c8708, 2021-01-15)">
  <metadata
     id="metadata12">
    <rdf:RDF>
      <cc:Work
         rdf:about="">
        <dc:format>image/svg+xml</dc:format>
        <dc:type
           rdf:resource="http://purl.org/dc/dcmitype/StillImage" />
      </cc:Work>
    </rdf:RDF>
  </metadata>
  <defs
     id="defs10" />
  <sodipodi:namedview
     pagecolor="#ffffff"
     bordercolor="#666666"
     borderopacity="1"
     objecttolerance="10"
     gridtolerance="10"
     guidetolerance="10"
     inkscape:pageopacity="0"
     inkscape:pageshadow="2"
     inkscape:window-width="689"
     inkscape:window-height="480"
     id="namedview8"
     showgrid="false"
     inkscape:zoom="1.3027344"
     inkscape:cx="256"
     inkscape:cy="256"
     inkscape:window-x="44"
     inkscape:window-y="25"
     inkscape:window-maximized="0"
     inkscape:current-layer="svg6" />
  <title
     id="title2">Pint</title>
  <path
     style="color:#000000;font-style:normal;font-variant:normal;font-weight:normal;font-stretch:normal;font-size:medium;line-height:normal;font-family:sans-serif;font-variant-ligatures:normal;font-variant-position:normal;font-variant-caps:normal;font-variant-numeric:normal;font-variant-alternates:normal;font-variant-east-asian:normal;font-feature-settings:normal;font-variation-settings:normal;text-indent:0;text-align:start;text-decoration:none;text-decoration-line:none;text-decoration-style:solid;text-decoration-color:#000000;letter-spacing:normal;word-spacing:normal;text-transform:none;writing-mode:lr-tb;direction:ltr;text-orientation:mixed;dominant-baseline:auto;baseline-shift:baseline;text-anchor:start;white-space:normal;shape-padding:0;shape-margin:0;inline-size:0;clip-rule:nonzero;display:inline;overflow:visible;visibility:visible;isolation:auto;mix-blend-mode:normal;color-interpolation:sRGB;color-interpolation-filters:linearRGB;solid-color:#000000;solid-opacity:1;vector-effect:none;fill:currentColor;fill-opacity:1;fill-rule:nonzero;stroke:none;stroke-linecap:round;stroke-linejoin:round;stroke-miterlimit:4;stroke-dasharray:none;stroke-dashoffset:0;stroke-opacity:1;color-rendering:auto;image-rendering:auto;shape-rendering:auto;text-rendering:auto;enable-background:accumulate;stop-color:#000000;stop-opacity:1;opacity:1"
     d="M 148.18164 16 C 131.46163 16.030014 117.34576 29.31265 116.30078 46 A 16.0016 16.0016 0 0 0 116.30078 46.003906 L 113.39062 92.613281 A 16.0016 16.0016 0 0 0 113.39062 92.617188 C 112.00056 114.97565 110.24184 129.73185 116.69141 164.87891 C 116.69171 164.88058 116.69305 164.88309 116.69336 164.88477 C 116.69363 164.88623 116.69309 164.88721 116.69336 164.88867 C 120.27362 184.4615 131.01279 219.68433 141.02734 262.89648 C 151.04329 306.11464 160.12391 356.29597 160.11914 400.36914 L 160.11914 472 C 160.11914 485.06532 171.05382 496 184.11914 496 L 327.85938 496 C 340.92469 496 351.85938 485.06532 351.85938 472 L 351.85938 400.38086 C 351.85938 349.77393 361.02504 299.40795 371.04883 257.67188 C 381.07262 215.9358 391.7865 184.11709 395.30664 164.94922 A 16.0016 16.0016 0 0 0 395.30664 164.94727 C 401.76838 129.73339 399.99945 114.99027 398.59961 92.613281 L 398.59961 92.611328 L 395.68945 46.003906 A 16.0016 16.0016 0 0 0 395.68945 46 C 394.64448 29.31265 380.5286 16.030014 363.80859 16 A 16.0016 16.0016 0 0 0 363.7793 16 L 148.21094 16 A 16.0016 16.0016 0 0 0 148.18164 16 z M 148.23828 48 L 363.75195 48 L 365.74805 80 L 146.24023 80 L 148.23828 48 z M 144.25391 112 L 367.74219 112 C 368.42007 124.77636 368.12581 135.77252 363.83203 159.17188 L 363.83398 159.16992 C 361.42413 172.29206 350.2823 207.1103 339.93359 250.19922 C 329.58489 293.28814 319.85938 345.93779 319.85938 400.38086 L 319.85938 464 L 192.11914 464 L 192.11914 400.37109 L 192.11914 400.36914 C 192.12412 351.97286 182.47509 300.00313 172.20117 255.67188 C 161.92712 211.34003 150.82116 173.6199 148.16992 159.12109 A 16.0016 16.0016 0 0 0 148.16797 159.11133 C 143.88338 135.76579 143.58314 124.76527 144.25391 112 z "
     id="path4" />
</svg>
