<?xml version="1.0" encoding="UTF-8"?>
<svg width="512px" height="512px" viewBox="0 0 512 512" version="1.1" xmlns="http://www.w3.org/2000/svg" xmlns:xlink="http://www.w3.org/1999/xlink">
    <!-- Generator: Sketch 62 (91390) - https://sketch.com -->
    <title>Artboard</title>
    <desc>Created with Sketch.</desc>
    <g id="Artboard" stroke="none" stroke-width="1" fill="none" fill-rule="evenodd">
        <g id="pint-outline" transform="translate(112.000000, 16.000000)" fill="#000000" fill-rule="nonzero">
            <path d="M251.8,0.1 C268.7,0.1 282.7,13.3 283.7,30.1 L286.6,76.7 C286.7,79 286.9,81.2 287,83.4 C288.3,102.6 289.2,116.6 283.3,149.1 C281.7,157.7 278.3,170.1 273.9,185.7 C261.2,231.2 239.9,307.4 239.9,384.5 L239.9,456 C239.9,469.2 229.1,480 215.9,480 L72.1,480 C58.9,480 48.1,469.2 48.1,456 L48.1,384.4 C48.1,317.2 27,236.8 14.4,188.8 C9.97758621,171.896552 6.42440547,158.470036 4.78453657,149.374698 L4.7,148.9 C-1.3,116.4 -0.3,102.5 1,83.3 C1.1,81.2 1.3,79 1.4,76.7 L4.3,30.1 C5.4,13.3 19.4,0.1 36.2,0.1 L251.8,0.1 Z M255.730872,96.0006342 L32.3565485,96.0004377 C31.7381665,108.743897 32.0885017,120.209547 36.1428243,142.250225 L36.3,143.1 L36.3,143.1 C37.8,151 41.2,164.1 45.5,180.6 C58.5,230.1 80.2,312.9 80.2,384.3 L80.2,448 L207.8,448 L207.8,384.4 C207.8,302.9 229.8,224.1 243,177 C247.2,162.2 250.4,150.4 251.8,143.2 C255.928501,120.493244 256.337968,108.880555 255.730872,96.0006342 Z M251.8,32 L36.3,32 L34.3087637,64 L253.786764,64 L251.8,32 Z" id="Combined-Shape"></path>
        </g>
    </g>
</svg>