<?xml version="1.0" encoding="UTF-8" standalone="no"?>
<svg
   xmlns:dc="http://purl.org/dc/elements/1.1/"
   xmlns:cc="http://creativecommons.org/ns#"
   xmlns:rdf="http://www.w3.org/1999/02/22-rdf-syntax-ns#"
   xmlns:svg="http://www.w3.org/2000/svg"
   xmlns="http://www.w3.org/2000/svg"
   xmlns:sodipodi="http://sodipodi.sourceforge.net/DTD/sodipodi-0.dtd"
   xmlns:inkscape="http://www.inkscape.org/namespaces/inkscape"
   class="ionicon"
   viewBox="0 0 512 512"
   version="1.1"
   id="svg845"
   sodipodi:docname="pizza-sharp.svg"
   inkscape:version="1.0.2 (e86c8708, 2021-01-15)">
  <metadata
     id="metadata851">
    <rdf:RDF>
      <cc:Work
         rdf:about="">
        <dc:format>image/svg+xml</dc:format>
        <dc:type
           rdf:resource="http://purl.org/dc/dcmitype/StillImage" />
      </cc:Work>
    </rdf:RDF>
  </metadata>
  <defs
     id="defs849" />
  <sodipodi:namedview
     pagecolor="#ffffff"
     bordercolor="#666666"
     borderopacity="1"
     objecttolerance="10"
     gridtolerance="10"
     guidetolerance="10"
     inkscape:pageopacity="0"
     inkscape:pageshadow="2"
     inkscape:window-width="776"
     inkscape:window-height="480"
     id="namedview847"
     showgrid="false"
     inkscape:zoom="0.3"
     inkscape:cx="256"
     inkscape:cy="256"
     inkscape:window-x="254"
     inkscape:window-y="1147"
     inkscape:window-maximized="0"
     inkscape:current-layer="svg845"
     inkscape:document-rotation="0"
     showguides="false" />
  <title
     id="title833">Pizza</title>
  <path
     id="path835"
     style="color:#000000;font-style:normal;font-variant:normal;font-weight:normal;font-stretch:normal;font-size:medium;line-height:normal;font-family:sans-serif;font-variant-ligatures:normal;font-variant-position:normal;font-variant-caps:normal;font-variant-numeric:normal;font-variant-alternates:normal;font-variant-east-asian:normal;font-feature-settings:normal;font-variation-settings:normal;text-indent:0;text-align:start;text-decoration:none;text-decoration-line:none;text-decoration-style:solid;text-decoration-color:#000000;letter-spacing:normal;word-spacing:normal;text-transform:none;writing-mode:lr-tb;direction:ltr;text-orientation:mixed;dominant-baseline:auto;baseline-shift:baseline;text-anchor:start;white-space:normal;shape-padding:0;shape-margin:0;inline-size:0;clip-rule:nonzero;display:inline;overflow:visible;visibility:visible;isolation:auto;mix-blend-mode:normal;color-interpolation:sRGB;color-interpolation-filters:linearRGB;solid-color:#000000;solid-opacity:1;vector-effect:none;fill:#000000;fill-opacity:1;fill-rule:evenodd;stroke-width:1;stroke-linecap:butt;stroke-linejoin:miter;stroke-miterlimit:4;stroke-dasharray:none;stroke-dashoffset:0;stroke-opacity:1;color-rendering:auto;image-rendering:auto;shape-rendering:auto;text-rendering:auto;enable-background:accumulate;stop-color:#000000;stop-opacity:1;stroke:none;opacity:1"
     d="M 256 32 C 192.43 32 126.19945 44.51 69.439453 67.25 C 49.179453 75.48 42 80 42 80 L 64 124 L 101.5293 107.85938 C 147.5793 89.52937 199.18977 80 256.50977 80 C 313.99977 80 364.59977 89.23 411.25977 108.25 L 448 124 L 470 80 C 470 80 463.00078 76.000314 442.30078 67.820312 C 383.92078 44.720313 317.78 32 256 32 z M 256 112 C 203.42005 112.0427 151.30529 121.8423 102.30078 140.90039 C 102.05078 141.00039 93.060781 145.12938 83.300781 149.60938 C 90.760781 165.82937 101.3 188.76945 105.5 197.93945 L 256 480 L 429.74023 149.16016 L 409.82031 140.91992 L 409.66016 140.84961 C 364.15016 122.51961 308.16 112 256 112 z M 192.20312 160.00977 C 210.62713 159.90443 225.53706 175.43259 224.41016 194.07031 C 223.59847 206.61133 215.52153 217.51585 203.76172 221.94727 C 192.00193 226.37868 178.73598 223.51528 169.84961 214.62891 C 150.38907 195.16837 162.94398 161.84801 190.41016 160.07031 C 191.01137 160.03396 191.60881 160.01316 192.20312 160.00977 z M 320.54297 176.00781 A 32.029999 31.969999 45.02 0 1 343.0957 185.41016 A 32.029999 31.969999 45.02 0 1 343.12305 230.66406 A 32.029999 31.969999 45.02 0 1 318.22266 239.92188 A 32.029999 31.969999 45.02 0 1 318.20703 239.92188 C 318.20244 239.92155 318.19795 239.92025 318.19336 239.91992 A 32.029999 31.969999 45.02 0 1 316.09766 239.69727 C 315.99588 239.68318 315.89459 239.6674 315.79297 239.65234 A 32.029999 31.969999 45.02 0 1 314.01367 239.33398 C 313.82247 239.29452 313.63186 239.25388 313.44141 239.21094 A 32.029999 31.969999 45.02 0 1 311.89453 238.81836 C 311.63088 238.74495 311.36921 238.66611 311.10742 238.58594 A 32.029999 31.969999 45.02 0 1 309.93555 238.19922 C 309.55651 238.06696 309.18088 237.9259 308.80664 237.7793 A 32.029999 31.969999 45.02 0 1 308.62109 237.70508 A 32.029999 31.969999 45.02 0 1 308.13281 237.50391 C 307.47915 237.23055 306.83534 236.93446 306.19922 236.61719 C 303.16271 235.1027 300.33121 233.11051 297.84961 230.62891 C 289.79123 222.57052 287.23492 212.1385 288.94141 202.55078 A 32.029999 31.969999 45.02 0 1 289.24023 201.02539 C 289.25088 200.97857 289.26063 200.93154 289.27148 200.88477 A 32.029999 31.969999 45.02 0 1 293.45898 190.82227 C 293.4638 190.8146 293.46783 190.80649 293.47266 190.79883 A 32.029999 31.969999 45.02 0 1 293.48633 190.77734 A 32.029999 31.969999 45.02 0 1 294.51172 189.26562 C 294.69126 189.01361 294.87757 188.76651 295.06445 188.51953 A 32.029999 31.969999 45.02 0 1 295.41602 188.07031 A 32.029999 31.969999 45.02 0 1 295.44531 188.0332 C 299.58384 182.77654 305.40932 178.75884 312.53906 176.99414 C 312.99162 176.88213 313.44526 176.77125 313.9082 176.67773 C 313.91529 176.6763 313.9226 176.67525 313.92969 176.67383 A 32.029999 31.969999 45.02 0 1 315.7168 176.35742 C 315.81255 176.34356 315.90775 176.32948 316.00391 176.31641 A 32.029999 31.969999 45.02 0 1 318.34766 176.07617 C 318.36881 176.07476 318.38898 176.07168 318.41016 176.07031 C 318.44029 176.06849 318.46988 176.06815 318.5 176.06641 A 32.029999 31.969999 45.02 0 1 320.20312 176.00977 A 32.029999 31.969999 45.02 0 1 320.54297 176.00781 z M 256.20312 288.00977 C 274.62714 287.90443 289.53706 303.43259 288.41016 322.07031 C 287.59847 334.61133 279.52153 345.51585 267.76172 349.94727 C 256.00193 354.37868 242.73598 351.51528 233.84961 342.62891 C 214.38907 323.16837 226.94398 289.84801 254.41016 288.07031 C 255.01137 288.03396 255.60881 288.01316 256.20312 288.00977 z " />
</svg>
