<?xml version="1.0" encoding="UTF-8" standalone="no"?>
<svg
   xmlns:dc="http://purl.org/dc/elements/1.1/"
   xmlns:cc="http://creativecommons.org/ns#"
   xmlns:rdf="http://www.w3.org/1999/02/22-rdf-syntax-ns#"
   xmlns:svg="http://www.w3.org/2000/svg"
   xmlns="http://www.w3.org/2000/svg"
   xmlns:sodipodi="http://sodipodi.sourceforge.net/DTD/sodipodi-0.dtd"
   xmlns:inkscape="http://www.inkscape.org/namespaces/inkscape"
   class="ionicon"
   viewBox="0 0 512 512"
   version="1.1"
   id="svg8"
   sodipodi:docname="pizza.svg"
   inkscape:version="1.0.2 (e86c8708, 2021-01-15)">
  <metadata
     id="metadata14">
    <rdf:RDF>
      <cc:Work
         rdf:about="">
        <dc:format>image/svg+xml</dc:format>
        <dc:type
           rdf:resource="http://purl.org/dc/dcmitype/StillImage" />
      </cc:Work>
    </rdf:RDF>
  </metadata>
  <defs
     id="defs12" />
  <sodipodi:namedview
     pagecolor="#ffffff"
     bordercolor="#666666"
     borderopacity="1"
     objecttolerance="10"
     gridtolerance="10"
     guidetolerance="10"
     inkscape:pageopacity="0"
     inkscape:pageshadow="2"
     inkscape:window-width="689"
     inkscape:window-height="480"
     id="namedview10"
     showgrid="false"
     inkscape:zoom="1.3027344"
     inkscape:cx="256"
     inkscape:cy="256"
     inkscape:window-x="44"
     inkscape:window-y="25"
     inkscape:window-maximized="0"
     inkscape:current-layer="svg8" />
  <title
     id="title2">Pizza</title>
  <path
     style="color:#000000;font-style:normal;font-variant:normal;font-weight:normal;font-stretch:normal;font-size:medium;line-height:normal;font-family:sans-serif;font-variant-ligatures:normal;font-variant-position:normal;font-variant-caps:normal;font-variant-numeric:normal;font-variant-alternates:normal;font-variant-east-asian:normal;font-feature-settings:normal;font-variation-settings:normal;text-indent:0;text-align:start;text-decoration:none;text-decoration-line:none;text-decoration-style:solid;text-decoration-color:#000000;letter-spacing:normal;word-spacing:normal;text-transform:none;writing-mode:lr-tb;direction:ltr;text-orientation:mixed;dominant-baseline:auto;baseline-shift:baseline;text-anchor:start;white-space:normal;shape-padding:0;shape-margin:0;inline-size:0;clip-rule:nonzero;display:inline;overflow:visible;visibility:visible;isolation:auto;mix-blend-mode:normal;color-interpolation:sRGB;color-interpolation-filters:linearRGB;solid-color:#000000;solid-opacity:1;vector-effect:none;fill:#000000;fill-opacity:1;fill-rule:nonzero;stroke-width:1;stroke-linecap:butt;stroke-linejoin:miter;stroke-miterlimit:4;stroke-dasharray:none;stroke-dashoffset:0;stroke-opacity:1;color-rendering:auto;image-rendering:auto;shape-rendering:auto;text-rendering:auto;enable-background:accumulate;stop-color:#000000;stop-opacity:1;stroke:none;opacity:1"
     d="M 441.82,67.83 C 383.44,44.73 317.3,32 255.56,32 192,32 125.76,44.53 69,67.26 48.7,75.49 45.21,90 48.71,100.82 L 52.78,111 c 3.36595,8.40352 13.027381,12.34335 21.31,8.69 10.8,-4.76 23.93,-10.54 27,-11.78 C 145.1,89.64 198.71,80 256,80 c 57.47,0 108.09,9.24 154.76,28.25 4.42,1.8 14.88,6.42 26.17,11.46 8.26527,3.69179 17.94468,-0.20264 21.35,-8.59 L 462,102 l 0.34,-0.9 c 3.45,-10.21 0.14,-25.05 -20.52,-33.27 z"
     id="path4" />
  <path
     style="color:#000000;font-style:normal;font-variant:normal;font-weight:normal;font-stretch:normal;font-size:medium;line-height:normal;font-family:sans-serif;font-variant-ligatures:normal;font-variant-position:normal;font-variant-caps:normal;font-variant-numeric:normal;font-variant-alternates:normal;font-variant-east-asian:normal;font-feature-settings:normal;font-variation-settings:normal;text-indent:0;text-align:start;text-decoration:none;text-decoration-line:none;text-decoration-style:solid;text-decoration-color:#000000;letter-spacing:normal;word-spacing:normal;text-transform:none;writing-mode:lr-tb;direction:ltr;text-orientation:mixed;dominant-baseline:auto;baseline-shift:baseline;text-anchor:start;white-space:normal;shape-padding:0;shape-margin:0;inline-size:0;clip-rule:nonzero;display:inline;overflow:visible;visibility:visible;isolation:auto;mix-blend-mode:normal;color-interpolation:sRGB;color-interpolation-filters:linearRGB;solid-color:#000000;solid-opacity:1;vector-effect:none;fill:#000000;fill-opacity:1;fill-rule:nonzero;stroke-width:1;stroke-linecap:butt;stroke-linejoin:miter;stroke-miterlimit:4;stroke-dasharray:none;stroke-dashoffset:0;stroke-opacity:1;color-rendering:auto;image-rendering:auto;shape-rendering:auto;text-rendering:auto;enable-background:accumulate;stop-color:#000000;stop-opacity:1;stroke:none;opacity:1"
     d="M 409.18,140.86 C 363.67,122.53 307.68,112 255.56,112 c -52.59277,0.0346 -104.7223,9.83046 -153.74,28.89 -0.53,0.21 -2.06,0.88 -4.29,1.88 -8.112917,3.63605 -11.705837,13.18872 -8,21.27 4,8.71 9.42,20.58 15.5,33.89 C 137.94,270 199.21,404 227.26,462 c 5.30331,11.04376 16.48898,18.0494 28.74,18 12.2726,0.0486 23.47274,-6.98462 28.76,-18.06 l 0.06,-0.13 137.3,-297.57 c 3.83062,-8.21228 0.0535,-17.96188 -8.31,-21.45 -2.26,-0.95 -3.85,-1.61 -4.5,-1.87 z m -215.1,83.07 c -13.29472,0.8669 -25.73568,-6.59417 -31.23174,-18.7302 -5.49604,-12.13599 -2.89698,-26.40713 6.52371,-35.82783 9.4207,-9.42069 23.69184,-12.01975 35.82783,-6.52371 12.13603,5.49606 19.5971,17.93702 18.7302,31.23174 -1.04544,16.03272 -13.81728,28.80456 -29.85,29.85 z m 64,128 c -13.29472,0.8669 -25.73568,-6.59417 -31.23174,-18.7302 -5.49604,-12.13599 -2.89698,-26.40713 6.52371,-35.82783 9.4207,-9.42069 23.69184,-12.01975 35.82783,-6.52371 12.13603,5.49606 19.5971,17.93702 18.7302,31.23174 -1.04544,16.03272 -13.81728,28.80456 -29.85,29.85 z m 64,-112 c -13.29472,0.8669 -25.73568,-6.59417 -31.23174,-18.7302 -5.49604,-12.13599 -2.89698,-26.40713 6.52371,-35.82783 9.4207,-9.42069 23.69184,-12.01975 35.82783,-6.52371 12.13603,5.49606 19.5971,17.93702 18.7302,31.23174 -1.04544,16.03272 -13.81728,28.80456 -29.85,29.85 z"
     id="path6" />
</svg>
