<?xml version="1.0" encoding="UTF-8"?>
<svg width="512px" height="512px" viewBox="0 0 512 512" version="1.1" xmlns="http://www.w3.org/2000/svg" xmlns:xlink="http://www.w3.org/1999/xlink">
    <!-- Generator: Sketch 62 (91390) - https://sketch.com -->
    <title>Artboard</title>
    <desc>Created with Sketch.</desc>
    <g id="Artboard" stroke="none" stroke-width="1" fill="none" fill-rule="evenodd">
        <g id="pizza-sharp" transform="translate(42.000000, 32.000000)" fill="#000000" fill-rule="nonzero">
            <path d="M214,80 C266.16,80 322.15,90.52 367.66,108.85 L367.66,108.85 L367.82,108.92 L387.74,117.16 L214,448 L63.5,165.94 C59.3,156.77 48.76,133.83 41.3,117.61 C51.06,113.13 60.05,109 60.3,108.9 C109.304514,89.8419107 161.420049,80.0426982 214,80 Z M237.060822,265.419178 C230.560397,258.918753 221.586231,255.515171 212.41,256.07 C195.308768,257.176845 182.115065,271.559513 182.484242,288.69255 C182.853419,305.825587 196.654413,319.626581 213.78745,319.995758 C230.920487,320.364935 245.303155,307.171232 246.41,290.07 C246.964829,280.893769 243.561247,271.919603 237.060822,265.419178 Z M301.060822,153.419178 C294.560397,146.918753 285.586231,143.515171 276.41,144.07 C259.308768,145.176845 246.115065,159.559513 246.484242,176.69255 C246.853419,193.825587 260.654413,207.626581 277.78745,207.995758 C294.920487,208.364935 309.303155,195.171232 310.41,178.07 C310.964829,168.893769 307.561247,159.919603 301.060822,153.419178 Z M173.060822,137.419178 C166.560397,130.918753 157.586231,127.515171 148.41,128.07 C131.308768,129.176845 118.115065,143.559513 118.484242,160.69255 C118.853419,177.825587 132.654413,191.626581 149.78745,191.995758 C166.920487,192.364935 181.303155,179.171232 182.41,162.07 C182.964829,152.893769 179.561247,143.919603 173.060822,137.419178 Z M214,0 C275.78,0 341.92,12.72 400.3,35.82 L400.3,35.82 L400.916897,36.0641462 C421.1393,44.0796 428,48 428,48 L428,48 L406,92 L369.26,76.25 L367.859015,75.6823364 C321.587311,57.046323 271.4251,48 214.51,48 C157.19,48 105.58,57.53 59.53,75.86 L59.53,75.86 L22,92 L0,48 C0,48 7.18,43.48 27.44,35.25 C84.2,12.51 150.43,0 214,0 Z" id="Combined-Shape"></path>
        </g>
    </g>
</svg>