<?xml version="1.0" encoding="utf-8"?>
<!-- Generator: Adobe Illustrator 24.0.0, SVG Export Plug-In . SVG Version: 6.00 Build 0)  -->
<svg version="1.1" id="Layer_1" xmlns="http://www.w3.org/2000/svg" xmlns:xlink="http://www.w3.org/1999/xlink" x="0px" y="0px"
	 viewBox="0 0 512 512" style="enable-background:new 0 0 512 512;" xml:space="preserve">
<title>ionicons-v5-p</title>
<g>
	<path d="M256.1,480c-11.9,0-23.3-6.7-28.8-18.1c-28-57.8-89.1-191.6-122-263.5c-12-26.3-21.5-47-22.6-49.2
		c-4.9-9.9-3.6-17.9-1.7-23c3-8,9.8-14.2,20.1-18.4C145.2,89.6,198.8,80,256,80c57.5,0,108.1,9.2,154.8,28.3
		c11.6,4.7,16.7,12.5,19,18.1c2.9,7.4,2.6,15.6-0.8,23.1L284.8,461.9c-3.1,6.5-8.4,11.8-14.9,14.9C265.4,479,260.7,480,256.1,480z
		 M112.6,137.7c2.8,6,9.7,21.1,21.7,47.4c32.8,71.7,93.8,205.2,121.7,262.8L399,138c-0.1,0-0.2-0.1-0.3-0.1l0,0
		C356,120.5,309.3,112,256,112c-52.3,0-103,9-142.8,25.5C113,137.6,112.8,137.6,112.6,137.7z M111.2,134.6
		C111.2,134.6,111.2,134.6,111.2,134.6C111.2,134.6,111.2,134.6,111.2,134.6z"/>
</g>
<g>
	<path d="M427.6,144.3c-0.9,0-1.8,0-2.7-0.1c-0.8,0-1.4-0.1-2-0.1c-4.7,0-8.4-1.4-13.1-3.3l-0.2-0.1C364.1,122.5,308.1,112,256,112
		c-52.8,0.1-104.5,9.8-153.8,28.9l-0.1,0c-4,1.6-8.2,3.2-13,3.2c-7.4,0-21.1,0-29.4-17.2l-0.5-1.1l-10.1-25.2
		c-3.5-10.8,0-25.2,20.2-33.5l0.1,0C126.2,44.5,192.5,32,256,32c61.8,0,127.9,12.7,186.3,35.8l0,0c20.6,8.2,23.9,23.1,20.5,33.3
		l-0.3,0.9l-10,24.6C445.8,141.6,436.4,144.3,427.6,144.3z M82,96.7l6.2,15.4c0.7-0.3,1.5-0.6,2.2-0.9l0.2-0.1
		C143.6,90.5,199.2,80.1,256,80c56.1,0,116.4,11.3,165.5,31.1c0.8,0.3,1.7,0.7,2.4,0.9l6-14.7C375.3,75.8,313.6,64,256,64
		C196.6,64,134.9,75.6,82,96.7z"/>
</g>
<g>
	<circle cx="192" cy="192" r="32"/>
</g>
<g>
	<circle cx="320" cy="208" r="32"/>
</g>
<g>
	<circle cx="256" cy="320" r="32"/>
</g>
</svg>
