<?xml version="1.0" encoding="UTF-8" standalone="no"?>
<svg
   xmlns:dc="http://purl.org/dc/elements/1.1/"
   xmlns:cc="http://creativecommons.org/ns#"
   xmlns:rdf="http://www.w3.org/1999/02/22-rdf-syntax-ns#"
   xmlns:svg="http://www.w3.org/2000/svg"
   xmlns="http://www.w3.org/2000/svg"
   xmlns:sodipodi="http://sodipodi.sourceforge.net/DTD/sodipodi-0.dtd"
   xmlns:inkscape="http://www.inkscape.org/namespaces/inkscape"
   class="ionicon"
   viewBox="0 0 512 512"
   version="1.1"
   id="svg6"
   sodipodi:docname="planet.svg"
   inkscape:version="1.0.2 (e86c8708, 2021-01-15)">
  <metadata
     id="metadata12">
    <rdf:RDF>
      <cc:Work
         rdf:about="">
        <dc:format>image/svg+xml</dc:format>
        <dc:type
           rdf:resource="http://purl.org/dc/dcmitype/StillImage" />
      </cc:Work>
    </rdf:RDF>
  </metadata>
  <defs
     id="defs10" />
  <sodipodi:namedview
     pagecolor="#ffffff"
     bordercolor="#666666"
     borderopacity="1"
     objecttolerance="10"
     gridtolerance="10"
     guidetolerance="10"
     inkscape:pageopacity="0"
     inkscape:pageshadow="2"
     inkscape:window-width="689"
     inkscape:window-height="480"
     id="namedview8"
     showgrid="false"
     inkscape:zoom="1.3027344"
     inkscape:cx="256"
     inkscape:cy="256"
     inkscape:window-x="44"
     inkscape:window-y="25"
     inkscape:window-maximized="0"
     inkscape:current-layer="svg6" />
  <title
     id="title2">Planet</title>
  <path
     style="color:#000000;font-style:normal;font-variant:normal;font-weight:normal;font-stretch:normal;font-size:medium;line-height:normal;font-family:sans-serif;font-variant-ligatures:normal;font-variant-position:normal;font-variant-caps:normal;font-variant-numeric:normal;font-variant-alternates:normal;font-variant-east-asian:normal;font-feature-settings:normal;font-variation-settings:normal;text-indent:0;text-align:start;text-decoration:none;text-decoration-line:none;text-decoration-style:solid;text-decoration-color:#000000;letter-spacing:normal;word-spacing:normal;text-transform:none;writing-mode:lr-tb;direction:ltr;text-orientation:mixed;dominant-baseline:auto;baseline-shift:baseline;text-anchor:start;white-space:normal;shape-padding:0;shape-margin:0;inline-size:0;clip-rule:nonzero;display:inline;overflow:visible;visibility:visible;isolation:auto;mix-blend-mode:normal;color-interpolation:sRGB;color-interpolation-filters:linearRGB;solid-color:#000000;solid-opacity:1;vector-effect:none;fill:#000000;fill-opacity:1;fill-rule:nonzero;stroke-width:1;stroke-linecap:butt;stroke-linejoin:miter;stroke-miterlimit:4;stroke-dasharray:none;stroke-dashoffset:0;stroke-opacity:1;color-rendering:auto;image-rendering:auto;shape-rendering:auto;text-rendering:auto;enable-background:accumulate;stop-color:#000000;stop-opacity:1;stroke:none;opacity:1"
     d="m 96.85,286.62 c -5.981496,-4.39319 -14.201909,1.01929 -12.53,8.25 C 102.07,373.28 172.3,432 256,432 c 17.77454,0.006 35.44657,-2.69185 52.41,-8 7.11764,-2.19434 7.63776,-12.07015 0.79,-15 C 271.7172,392.4793 235.16895,373.91474 199.72,353.39 164.24275,333.01821 129.90185,310.7285 96.85,286.62 Z m 395.87,52.89 c -4.19,-5.58 -9.11,-11.44 -14.7,-17.53 -7.97733,-8.78655 -22.4286,-5.99533 -26.56,5.13 0,0.16 -0.11,0.31 -0.17,0.47 -2.0321,5.52148 -0.81726,11.71523 3.15,16.06 22.74,25 26.42,38.51 25.48,41.36 -2,2.23 -17.05,6.89 -58.15,-3.53 -5.88667,-1.49333 -12.32667,-3.31333 -19.32,-5.46 -4.50667,-1.38667 -9.10333,-2.88333 -13.79,-4.49 7.36213,-8.44362 13.90489,-17.568 19.54,-27.25 0.17,-0.29 0.35,-0.58 0.52,-0.88 15.26597,-26.59407 23.29282,-56.72579 23.28,-87.39 0.004,-6.34659 -0.32983,-12.68889 -1,-19 -9.57,-88.17 -84.4,-157 -175,-157 -38.44167,-0.02163 -75.82553,12.5884 -106.4,35.89 -18.53123,14.10433 -34.10406,31.71934 -45.83,51.84 -0.16,0.29 -0.34,0.58 -0.51,0.87 -5.572952,9.7089 -10.204058,19.92882 -13.83,30.52 -3.726667,-3.24667 -7.323333,-6.47 -10.79,-9.67 -5.39,-5 -10.17,-9.63 -14.42,-14 C 34.65,145.19 31.13,129.84 32.06,127 c 2,-2.23 15.54,-5.87 48.62,1.31 5.764985,1.26774 11.756272,-0.77948 15.54,-5.31 l 0.36,-0.44 C 104.1119,113.50882 99.402318,99.69514 87.91,97.13 80.058494,95.350985 72.121571,93.972537 64.13,93 33.41,89.47 13.3,95.52 4.35,111 1.11,116.58 -2,126.09 1.63,139.6 7,159.66 26.14,184 53.23,209.5 c 8.63,8.13 18.06,16.37 28.12,24.64 7.32,6 15,12.06 22.9,18.08 5.27333,4 10.65667,8 16.15,12 5.49333,4 11.06,7.92667 16.7,11.78 25.41,17.61 52.26,34.52 78.59,49.69 9.56,5.50667 19.10667,10.84 28.64,16 9.53333,5.16 18.99,10.09667 28.37,14.81 21.9,11 43.35,20.92 63.86,29.43 8.79333,3.65333 17.39667,7.04 25.81,10.16 11.89,4.42 23.37,8.31 34.31,11.59 l 1.1,0.33 c 25.73,7.66 47.42,11.69 64.48,12 H 464 c 21.64,0 36.3,-6.38 43.58,-19 9.09,-15.62 4.08,-36.32 -14.86,-61.5 z"
     id="path4" />
</svg>
