<?xml version="1.0" encoding="utf-8"?>
<!-- Generator: Adobe Illustrator 24.0.0, SVG Export Plug-In . SVG Version: 6.00 Build 0)  -->
<svg version="1.1" id="Layer_1" xmlns="http://www.w3.org/2000/svg" xmlns:xlink="http://www.w3.org/1999/xlink" x="0px" y="0px"
	 viewBox="0 0 512 512" style="enable-background:new 0 0 512 512;" xml:space="preserve">
<title>ionicons-v5-p</title>
<g>
	<path d="M464,420c-0.6,0-1.2,0-1.8,0c-17.3-0.3-39.4-4.4-65.6-12.3c-52.2-15.7-116.4-44.8-181-82C119.1,270,15.4,190.9,1.6,139.6
		c-3.6-13.5-0.5-23,2.7-28.6c8.9-15.5,29.1-21.5,59.8-18c24,2.8,55.7,11.5,91.4,25.1L144.1,148C63.6,117.2,35,123.7,32.1,127
		c-1.1,3.3,3.7,22.9,46.6,62.5c37.8,34.9,92.2,73.5,153,108.5c60.9,35.1,121.5,62.8,170.8,78c55.8,17.3,75.2,11.5,77.5,9
		c1.4-4.3-7.6-32.8-76.5-88.1l20-25c30.5,24.4,54.4,47.8,69.2,67.5c18.9,25.2,23.9,45.9,14.9,61.5C500.4,413.6,485.7,420,464,420z"
		/>
</g>
<g>
	<path d="M256,432c-97,0-176-79-176-176S159,80,256,80s176,79,176,176S353,432,256,432z M256,112c-79.4,0-144,64.6-144,144
		c0,79.4,64.6,144,144,144c79.4,0,144-64.6,144-144C400,176.6,335.4,112,256,112z"/>
</g>
</svg>
