<?xml version="1.0" encoding="utf-8"?>
<!-- Generator: Adobe Illustrator 24.0.0, SVG Export Plug-In . SVG Version: 6.00 Build 0)  -->
<svg version="1.1" id="Layer_1" xmlns="http://www.w3.org/2000/svg" xmlns:xlink="http://www.w3.org/1999/xlink" x="0px" y="0px"
	 viewBox="0 0 512 512" style="enable-background:new 0 0 512 512;" xml:space="preserve">
<title>ionicons-v5-c</title>
<g>
	<path d="M256,464c-114.7,0-208-93.3-208-208S141.3,48,256,48s208,93.3,208,208S370.7,464,256,464z M256,80c-97,0-176,79-176,176
		s79,176,176,176s176-79,176-176S353,80,256,80z"/>
</g>
<g>
	<path d="M192,176c8.8,0,16,7.2,16,16v53l111.7-67.5c5.1-3.1,11.7-1.4,14.8,3.7c1,1.7,1.5,3.6,1.5,5.6v138.3c0,6-4.8,10.8-10.7,10.8
		c-2,0-3.9-0.5-5.6-1.5L208,267v53c0,8.8-7.2,16-16,16s-16-7.2-16-16V192C176,183.2,183.2,176,192,176z"/>
</g>
</svg>
