<?xml version="1.0" encoding="utf-8"?>
<!-- Generator: Adobe Illustrator 24.0.0, SVG Export Plug-In . SVG Version: 6.00 Build 0)  -->
<svg version="1.1" id="Layer_1" xmlns="http://www.w3.org/2000/svg" xmlns:xlink="http://www.w3.org/1999/xlink" x="0px" y="0px"
	 viewBox="0 0 512 512" style="enable-background:new 0 0 512 512;" xml:space="preserve">
<title>ionicons-v5-c</title>
<g>
	<path d="M379.1,440c-6.3,0-12.6-1.7-18.3-5.1L112.9,286.5C102.3,280.2,96,268.8,96,256s6.3-24.2,16.9-30.5L360.8,77.1
		c11.2-6.7,24.5-6.8,35.8-0.4c12,6.8,19.4,20,19.4,34.3v290c0,14.4-7.4,27.5-19.4,34.3C391.1,438.4,385.1,440,379.1,440z M379,104
		c-0.7,0-1.3,0.3-1.8,0.6L129.3,252.9c-1,0.6-1.3,2-1.3,3.1s0.3,2.5,1.3,3.1l247.9,148.4c0.8,0.5,2,1,3.6,0.1
		c1.6-0.9,3.2-3.1,3.2-6.5V111c0-3.4-1.7-5.6-3.2-6.5C380.1,104.1,379.6,104,379,104z"/>
</g>
<g>
	<path d="M112,448c-8.8,0-16-7.2-16-16V80c0-8.8,7.2-16,16-16s16,7.2,16,16v352C128,440.8,120.8,448,112,448z"/>
</g>
</svg>
