<?xml version="1.0" encoding="UTF-8" standalone="no"?>
<svg
   xmlns:dc="http://purl.org/dc/elements/1.1/"
   xmlns:cc="http://creativecommons.org/ns#"
   xmlns:rdf="http://www.w3.org/1999/02/22-rdf-syntax-ns#"
   xmlns:svg="http://www.w3.org/2000/svg"
   xmlns="http://www.w3.org/2000/svg"
   xmlns:sodipodi="http://sodipodi.sourceforge.net/DTD/sodipodi-0.dtd"
   xmlns:inkscape="http://www.inkscape.org/namespaces/inkscape"
   class="ionicon"
   viewBox="0 0 512 512"
   version="1.1"
   id="svg6"
   sodipodi:docname="play-forward-outline.svg"
   inkscape:version="1.0.2 (e86c8708, 2021-01-15)">
  <metadata
     id="metadata12">
    <rdf:RDF>
      <cc:Work
         rdf:about="">
        <dc:format>image/svg+xml</dc:format>
        <dc:type
           rdf:resource="http://purl.org/dc/dcmitype/StillImage" />
      </cc:Work>
    </rdf:RDF>
  </metadata>
  <defs
     id="defs10" />
  <sodipodi:namedview
     pagecolor="#ffffff"
     bordercolor="#666666"
     borderopacity="1"
     objecttolerance="10"
     gridtolerance="10"
     guidetolerance="10"
     inkscape:pageopacity="0"
     inkscape:pageshadow="2"
     inkscape:window-width="689"
     inkscape:window-height="480"
     id="namedview8"
     showgrid="false"
     inkscape:zoom="1.3027344"
     inkscape:cx="256"
     inkscape:cy="256"
     inkscape:window-x="44"
     inkscape:window-y="25"
     inkscape:window-maximized="0"
     inkscape:current-layer="svg6" />
  <title
     id="title2">Play Forward</title>
  <path
     style="color:#000000;font-style:normal;font-variant:normal;font-weight:normal;font-stretch:normal;font-size:medium;line-height:normal;font-family:sans-serif;font-variant-ligatures:normal;font-variant-position:normal;font-variant-caps:normal;font-variant-numeric:normal;font-variant-alternates:normal;font-variant-east-asian:normal;font-feature-settings:normal;font-variation-settings:normal;text-indent:0;text-align:start;text-decoration:none;text-decoration-line:none;text-decoration-style:solid;text-decoration-color:#000000;letter-spacing:normal;word-spacing:normal;text-transform:none;writing-mode:lr-tb;direction:ltr;text-orientation:mixed;dominant-baseline:auto;baseline-shift:baseline;text-anchor:start;white-space:normal;shape-padding:0;shape-margin:0;inline-size:0;clip-rule:nonzero;display:inline;overflow:visible;visibility:visible;isolation:auto;mix-blend-mode:normal;color-interpolation:sRGB;color-interpolation-filters:linearRGB;solid-color:#000000;solid-opacity:1;vector-effect:none;fill:currentColor;fill-opacity:1;fill-rule:nonzero;stroke:none;stroke-linecap:butt;stroke-linejoin:miter;stroke-miterlimit:10;stroke-dasharray:none;stroke-dashoffset:0;stroke-opacity:1;color-rendering:auto;image-rendering:auto;shape-rendering:auto;text-rendering:auto;enable-background:accumulate;stop-color:#000000;stop-opacity:1;opacity:1"
     d="M 47.072266 112.22461 C 41.319762 112.38958 35.725146 114.08775 31.140625 117.05273 C 21.971583 122.9827 16 133.65865 16 145.51953 L 16 366.51953 C 16 378.38041 21.973557 389.04647 31.113281 394.98242 C 40.250128 400.91651 53.39093 401.85788 63.84375 395.59961 L 63.853516 395.59375 L 244.57031 287.47266 L 244.57031 366.51953 C 244.57031 378.38041 250.54387 389.04647 259.68359 394.98242 C 268.82044 400.91651 281.96124 401.85788 292.41406 395.59961 L 292.42383 395.59375 L 481.28516 282.59961 L 481.28711 282.59961 C 501.13144 270.72308 501.13144 241.41755 481.28711 229.54102 L 481.28516 229.54102 L 292.51367 116.59961 C 282.08494 110.25807 268.87445 111.12289 259.70508 117.05469 C 250.5357 122.98649 244.57031 133.66266 244.57031 145.51953 L 244.57031 224.66797 L 63.949219 116.60352 C 58.734781 113.42972 52.824769 112.05964 47.072266 112.22461 z M 48.207031 144.47266 L 234.73047 256.07031 L 48.224609 367.6543 C 48.114752 367.41335 48 367.11961 48 366.51953 L 48 145.51953 C 48 144.96189 48.10851 144.71229 48.207031 144.47266 z M 276.77734 144.47461 L 463.30078 256.07031 L 276.79492 367.6543 C 276.68506 367.41335 276.57031 367.11961 276.57031 366.51953 L 276.57031 145.51953 C 276.57031 144.96289 276.67946 144.71458 276.77734 144.47461 z "
     id="path4" />
</svg>
