<?xml version="1.0" encoding="utf-8"?>
<!-- Generator: Adobe Illustrator 24.0.0, SVG Export Plug-In . SVG Version: 6.00 Build 0)  -->
<svg version="1.1" id="Layer_1" xmlns="http://www.w3.org/2000/svg" xmlns:xlink="http://www.w3.org/1999/xlink" x="0px" y="0px"
	 viewBox="0 0 512 512" style="enable-background:new 0 0 512 512;" xml:space="preserve">
<title>ionicons-v5-c</title>
<g>
	<path d="M48,400c-5.2,0-10.4-1.4-15.2-4.1C22.4,390.1,16,378.8,16,366.5v-221c0-12.4,6.4-23.7,16.8-29.5c9.8-5.5,21.4-5.3,31.1,0.5
		l188.8,113c9.2,5.5,14.7,15.4,14.7,26.5c0,11.1-5.5,21-14.7,26.5l-188.9,113C58.9,398.6,53.4,400,48,400z M48.2,144.5
		c-0.1,0.2-0.2,0.6-0.2,1.1v221c0,0.5,0.1,0.9,0.2,1.1l186.5-111.6L48.2,144.5z"/>
</g>
<g>
	<path d="M276.6,400c-5.2,0-10.4-1.4-15.2-4.1c-10.3-5.9-16.8-17.2-16.8-29.5v-221c0-12.4,6.4-23.7,16.8-29.5
		c9.8-5.5,21.4-5.3,31.1,0.5l188.8,113c9.2,5.5,14.7,15.4,14.7,26.5s-5.5,21-14.7,26.5l-188.9,113C287.5,398.6,282,400,276.6,400z
		 M276.7,144.5c-0.1,0.2-0.2,0.6-0.2,1.1v221c0,0.5,0.1,0.9,0.2,1.1l186.5-111.6L276.7,144.5z"/>
</g>
</svg>
