<?xml version="1.0" encoding="utf-8"?>
<!-- Generator: Adobe Illustrator 24.0.0, SVG Export Plug-In . SVG Version: 6.00 Build 0)  -->
<svg version="1.1" id="Layer_1" xmlns="http://www.w3.org/2000/svg" xmlns:xlink="http://www.w3.org/1999/xlink" x="0px" y="0px"
	 viewBox="0 0 512 512" style="enable-background:new 0 0 512 512;" xml:space="preserve">
<title>ionicons-v5-c</title>
<g>
	<path d="M464,400c-5.5,0-10.9-1.5-15.9-4.5L259.3,282.5c-9.2-5.5-14.7-15.4-14.7-26.5s5.5-21,14.7-26.5l188.9-113
		c9.6-5.8,21.3-6,31.1-0.4c10.4,5.9,16.8,17.1,16.8,29.5v221c0,12.3-6.4,23.6-16.8,29.5C474.5,398.7,469.2,400,464,400z M277.3,256
		l186.5,111.7c0.1-0.3,0.2-0.6,0.2-1.1v-221c0-0.5-0.1-0.9-0.2-1.1L277.3,256z"/>
</g>
<g>
	<path d="M235.5,400c-5.5,0-10.9-1.5-15.9-4.5L30.7,282.5C21.5,277,16,267.1,16,256s5.5-21,14.7-26.5l188.9-113
		c9.6-5.8,21.3-6,31.1-0.4c10.3,5.9,16.8,17.1,16.8,29.5v221c0,12.3-6.4,23.6-16.8,29.5C245.9,398.7,240.7,400,235.5,400z M48.7,256
		l186.5,111.7c0.1-0.3,0.2-0.6,0.2-1.1v-221c0-0.5-0.1-0.9-0.2-1.1L48.7,256z"/>
</g>
</svg>
