<?xml version="1.0" encoding="utf-8"?>
<!-- Generator: Adobe Illustrator 24.0.0, SVG Export Plug-In . SVG Version: 6.00 Build 0)  -->
<svg version="1.1" id="Layer_1" xmlns="http://www.w3.org/2000/svg" xmlns:xlink="http://www.w3.org/1999/xlink" x="0px" y="0px"
	 viewBox="0 0 512 512" style="enable-background:new 0 0 512 512;" xml:space="preserve">
<title>ionicons-v5-c</title>
<g>
	<path d="M132.9,440c-6,0-12-1.6-17.5-4.7c-12-6.8-19.4-20-19.4-34.3V111c0-14.4,7.4-27.5,19.4-34.3c11.3-6.4,24.6-6.2,35.8,0.4
		l247.9,148.4c10.6,6.3,16.9,17.7,16.9,30.5c0,12.8-6.3,24.2-16.9,30.5L151.2,434.9C145.5,438.3,139.2,440,132.9,440z M133,104
		c-0.5,0-1.1,0.1-1.7,0.5c-1.6,0.9-3.2,3.1-3.2,6.5v290c0,3.4,1.7,5.6,3.2,6.5c1.6,0.9,2.7,0.4,3.6-0.1l247.9-148.4
		c1-0.6,1.3-2,1.3-3.1s-0.3-2.5-1.3-3.1L134.8,104.6C134.3,104.3,133.7,104,133,104z"/>
</g>
</svg>
