<?xml version="1.0" encoding="utf-8"?>
<!-- Generator: Adobe Illustrator 24.0.0, SVG Export Plug-In . SVG Version: 6.00 Build 0)  -->
<svg version="1.1" id="Layer_1" xmlns="http://www.w3.org/2000/svg" xmlns:xlink="http://www.w3.org/1999/xlink" x="0px" y="0px"
	 viewBox="0 0 512 512" style="enable-background:new 0 0 512 512;" xml:space="preserve">
<title>ionicons-v5-p</title>
<g>
	<path d="M256,464c-114.7,0-208-93.3-208-208c-0.2-62.1,27.1-120.5,74.8-160.3c6.8-5.7,16.9-4.7,22.5,2c5.7,6.8,4.7,16.9-2,22.5
		C102.9,154,79.8,203.4,80,256c0,97.1,79,176,176,176s176-79,176-176c0-52.7-23.4-102.2-64.1-135.6c-6.8-5.6-7.8-15.7-2.2-22.5
		c5.6-6.8,15.7-7.8,22.5-2.2c48.2,39.6,75.9,98,75.9,160.4C464,370.7,370.7,464,256,464z"/>
</g>
<g>
	<path d="M256,272c-8.8,0-16-7.2-16-16V64c0-8.8,7.2-16,16-16c8.8,0,16,7.2,16,16v192C272,264.8,264.8,272,256,272z"/>
</g>
</svg>
