<?xml version="1.0" encoding="utf-8"?>
<!-- Generator: Adobe Illustrator 24.0.0, SVG Export Plug-In . SVG Version: 6.00 Build 0)  -->
<svg version="1.1" id="Layer_1" xmlns="http://www.w3.org/2000/svg" xmlns:xlink="http://www.w3.org/1999/xlink" x="0px" y="0px"
	 viewBox="0 0 512 512" style="enable-background:new 0 0 512 512;" xml:space="preserve">
<title>ionicons-v5-p</title>
<g>
	<path d="M193.8,480c-11.5,0-22.9-4.3-31.6-13l-117-117c-17.4-17.5-17.4-45.9,0-63.3L290.8,40.9c5.8-5.7,13.4-8.9,21.5-8.9
		c0,0,0,0,0,0l123.2,0c11.9,0.1,23.1,4.8,31.5,13.2c8.4,8.5,13,19.7,12.9,31.6v122.9c0,8.1-3.1,15.7-8.8,21.5L225.5,466.9
		C216.7,475.6,205.3,480,193.8,480z M313,64L67.8,309.2c-4.9,5-4.9,13.1,0,18.1l117,117c5,4.9,13.1,4.9,18.1,0L448,199.2V76.8
		c0-7.1-5.6-12.8-12.6-12.8l-0.1,0H313z M312.3,64L312.3,64L312.3,64L312.3,64z"/>
</g>
<g>
	<path d="M384,160c-17.7,0-32-14.3-32-32s14.3-32,32-32s32,14.3,32,32S401.7,160,384,160z"/>
</g>
</svg>
