<?xml version="1.0" encoding="utf-8"?>
<!-- Generator: Adobe Illustrator 24.0.0, SVG Export Plug-In . SVG Version: 6.00 Build 0)  -->
<svg version="1.1" id="Layer_1" xmlns="http://www.w3.org/2000/svg" xmlns:xlink="http://www.w3.org/1999/xlink" x="0px" y="0px"
	 viewBox="0 0 512 512" style="enable-background:new 0 0 512 512;" xml:space="preserve">
<title>ionicons-v5-p</title>
<g>
	<path d="M161.7,464c-11.5,0-22.9-4.3-31.6-13l-117-117c-17.4-17.5-17.4-45.9,0-63.3L258.8,24.9c5.8-5.7,13.4-8.9,21.5-8.9
		c0,0,0,0,0,0l123.2,0c11.9,0.1,23.1,4.8,31.5,13.2c8.4,8.5,13,19.7,12.9,31.6v122.9c0,8.1-3.1,15.7-8.8,21.5L193.4,450.9
		C184.7,459.6,173.2,464,161.7,464z M281,48L35.7,293.2c-4.9,5-4.9,13.1,0,18.1l117,117c5,4.9,13.1,4.9,18.1,0L416,183.2V60.8
		c0-7.1-5.6-12.8-12.6-12.8l-0.1,0H281z M280.4,48L280.4,48L280.4,48L280.4,48z"/>
</g>
<g>
	<path d="M352,144c-17.7,0-32-14.3-32-32s14.3-32,32-32s32,14.3,32,32S369.7,144,352,144z"/>
</g>
<g>
	<path d="M230,496c-4.1,0-8.2-1.6-11.3-4.7c-6.2-6.2-6.2-16.4,0-22.6L480,207.4V80c0-8.8,7.2-16,16-16s16,7.2,16,16v127.9
		c0.1,8-3,15.7-8.6,21.4l-262,262C238.2,494.4,234.1,496,230,496z"/>
</g>
</svg>
