<?xml version="1.0" encoding="UTF-8"?>
<svg width="512px" height="512px" viewBox="0 0 512 512" version="1.1" xmlns="http://www.w3.org/2000/svg" xmlns:xlink="http://www.w3.org/1999/xlink">
    <!-- Generator: Sketch 62 (91390) - https://sketch.com -->
    <title>Artboard</title>
    <desc>Created with Sketch.</desc>
    <g id="Artboard" stroke="none" stroke-width="1" fill="none" fill-rule="evenodd">
        <g id="print-sharp" transform="translate(48.000000, 48.000000)" fill="#000000" fill-rule="nonzero">
            <path d="M360,64 C390.927946,64 416,89.072054 416,120 L416,120 L416,328 C416,332.418278 412.418278,336 408,336 L408,336 L352,336 L352,408 C352,412.418278 348.418278,416 344,416 L344,416 L72,416 C67.581722,416 64,412.418278 64,408 L64,408 L64,336 L8,336 C3.581722,336 0,332.418278 0,328 L0,328 L0,120 C0,89.072054 25.072054,64 56,64 L56,64 Z M308,216 L108,216 C105.790861,216 104,217.790861 104,220 L104,220 L104,372 C104,374.209139 105.790861,376 108,376 L108,376 L308,376 C310.209139,376 312,374.209139 312,372 L312,372 L312,220 C312,217.790861 310.209139,216 308,216 L308,216 Z M354.143125,114.210087 C345.012062,109.99139 334.219033,111.914146 327.106589,119.026589 C319.994146,126.139033 318.07139,136.932062 322.290087,146.063125 C326.508784,155.194188 335.97382,160.725875 346,159.92 L346,159.92 C357.737317,158.976589 367.056589,149.657317 368,137.92 C368.805875,127.89382 363.274188,118.428784 354.143125,114.210087 Z M344,0 C348.418278,0 352,3.581722 352,8 L352,8 L352,48 L64,48 L64,8 C64,3.581722 67.581722,0 72,0 L72,0 Z" id="Combined-Shape"></path>
        </g>
    </g>
</svg>