<?xml version="1.0" encoding="UTF-8" standalone="no"?>
<svg
   xmlns:dc="http://purl.org/dc/elements/1.1/"
   xmlns:cc="http://creativecommons.org/ns#"
   xmlns:rdf="http://www.w3.org/1999/02/22-rdf-syntax-ns#"
   xmlns:svg="http://www.w3.org/2000/svg"
   xmlns="http://www.w3.org/2000/svg"
   xmlns:sodipodi="http://sodipodi.sourceforge.net/DTD/sodipodi-0.dtd"
   xmlns:inkscape="http://www.inkscape.org/namespaces/inkscape"
   class="ionicon"
   viewBox="0 0 512 512"
   version="1.1"
   id="svg843"
   sodipodi:docname="print-sharp.svg"
   inkscape:version="1.0.2 (e86c8708, 2021-01-15)">
  <metadata
     id="metadata849">
    <rdf:RDF>
      <cc:Work
         rdf:about="">
        <dc:format>image/svg+xml</dc:format>
        <dc:type
           rdf:resource="http://purl.org/dc/dcmitype/StillImage" />
      </cc:Work>
    </rdf:RDF>
  </metadata>
  <defs
     id="defs847" />
  <sodipodi:namedview
     pagecolor="#ffffff"
     bordercolor="#666666"
     borderopacity="1"
     objecttolerance="10"
     gridtolerance="10"
     guidetolerance="10"
     inkscape:pageopacity="0"
     inkscape:pageshadow="2"
     inkscape:window-width="776"
     inkscape:window-height="480"
     id="namedview845"
     showgrid="false"
     inkscape:zoom="0.3"
     inkscape:cx="256"
     inkscape:cy="256"
     inkscape:window-x="442"
     inkscape:window-y="1292"
     inkscape:window-maximized="0"
     inkscape:current-layer="svg843" />
  <title
     id="title833">Print</title>
  <path
     style="color:#000000;font-style:normal;font-variant:normal;font-weight:normal;font-stretch:normal;font-size:medium;line-height:normal;font-family:sans-serif;font-variant-ligatures:normal;font-variant-position:normal;font-variant-caps:normal;font-variant-numeric:normal;font-variant-alternates:normal;font-variant-east-asian:normal;font-feature-settings:normal;font-variation-settings:normal;text-indent:0;text-align:start;text-decoration:none;text-decoration-line:none;text-decoration-style:solid;text-decoration-color:#000000;letter-spacing:normal;word-spacing:normal;text-transform:none;writing-mode:lr-tb;direction:ltr;text-orientation:mixed;dominant-baseline:auto;baseline-shift:baseline;text-anchor:start;white-space:normal;shape-padding:0;shape-margin:0;inline-size:0;clip-rule:nonzero;display:inline;overflow:visible;visibility:visible;isolation:auto;mix-blend-mode:normal;color-interpolation:sRGB;color-interpolation-filters:linearRGB;solid-color:#000000;solid-opacity:1;vector-effect:none;fill:#000000;fill-opacity:1;fill-rule:nonzero;stroke-width:1;stroke-linecap:butt;stroke-linejoin:miter;stroke-miterlimit:4;stroke-dasharray:none;stroke-dashoffset:0;stroke-opacity:1;color-rendering:auto;image-rendering:auto;shape-rendering:auto;text-rendering:auto;enable-background:accumulate;stop-color:#000000;stop-opacity:1;stroke:none;opacity:1"
     d="m 120,48 c -4.41828,0 -8,3.581722 -8,8 V 96 H 400 V 56 c 0,-4.418278 -3.58172,-8 -8,-8 z m -16,64 c -30.927946,0 -56,25.07205 -56,56 v 208 c 0,4.41828 3.581722,8 8,8 h 56 v 72 c 0,4.41828 3.58172,8 8,8 h 272 c 4.41828,0 8,-3.58172 8,-8 v -72 h 56 c 4.41828,0 8,-3.58172 8,-8 V 168 c 0,-30.92795 -25.07205,-56 -56,-56 z m 288.20117,47.99609 c 13.96409,0.0721 24.91839,12.0045 23.79883,25.92383 -0.94341,11.73732 -10.26268,21.05659 -22,22 -13.52811,1.08105 -25.26081,-9.26084 -25.88627,-22.81764 -0.62546,-13.5568 10.10515,-24.93507 23.67533,-25.10423 0.13736,-0.002 0.27474,-0.002 0.41211,-0.002 z M 155.93945,264 c 0.0202,-1.5e-4 0.0404,-1.5e-4 0.0606,0 h 200 c 2.20914,0 4,1.79086 4,4 v 152 c 0,2.20914 -1.79086,4 -4,4 H 156 c -2.20914,0 -4,-1.79086 -4,-4 V 268 c -2.5e-4,-2.18571 1.75399,-3.96691 3.93945,-4 z"
     id="path835" />
  <rect
     x="152"
     y="264"
     width="208"
     height="160"
     rx="4"
     ry="4"
     fill="none"
     id="rect837" />
  <rect
     x="152"
     y="264"
     width="208"
     height="160"
     rx="4"
     ry="4"
     fill="none"
     id="rect839" />
</svg>
