<?xml version="1.0" encoding="utf-8"?>
<!-- Generator: Adobe Illustrator 24.0.0, SVG Export Plug-In . SVG Version: 6.00 Build 0)  -->
<svg version="1.1" id="Layer_1" xmlns="http://www.w3.org/2000/svg" xmlns:xlink="http://www.w3.org/1999/xlink" x="0px" y="0px"
	 viewBox="0 0 512 512" style="enable-background:new 0 0 512 512;" xml:space="preserve">
<title>ionicons-v5-f</title>
<g>
	<path d="M384,384v-32h24c13.2,0,24-10.8,24-24V168c0-13.2-10.8-24-24-24H104c-13.2,0-24,10.8-24,24v160c0,13.2,10.8,24,24,24h24v32
		h-24c-30.8-0.1-55.9-25.2-56-56V168c0.1-30.8,25.2-55.9,56-56h304c30.8,0.1,55.9,25.2,56,56v160c-0.1,30.8-25.2,55.9-56,56H384z"/>
</g>
<g>
	<path d="M359.7,464H152.3c-22.2,0-40.3-18.1-40.3-40.3V264.3c0-22.2,18.1-40.3,40.3-40.3h207.4c22.2,0,40.3,18.1,40.3,40.3v159.4
		C400,445.9,381.9,464,359.7,464z M152.3,256c-4.6,0-8.3,3.7-8.3,8.3v159.4c0,4.6,3.7,8.3,8.3,8.3h207.4c4.6,0,8.3-3.7,8.3-8.3
		V264.3c0-4.6-3.7-8.3-8.3-8.3H152.3z"/>
</g>
<g>
	<path d="M400,128h-32v-24c0-13.2-10.8-24-24-24H168c-13.2,0-24,10.8-24,24v24h-32v-24c0.1-30.8,25.2-55.9,56-56h176
		c30.8,0.1,55.9,25.2,56,56V128z"/>
</g>
<g>
	<circle cx="392" cy="184" r="24"/>
</g>
</svg>
