<?xml version="1.0" encoding="UTF-8" standalone="no"?>
<svg
   xmlns:dc="http://purl.org/dc/elements/1.1/"
   xmlns:cc="http://creativecommons.org/ns#"
   xmlns:rdf="http://www.w3.org/1999/02/22-rdf-syntax-ns#"
   xmlns:svg="http://www.w3.org/2000/svg"
   xmlns="http://www.w3.org/2000/svg"
   xmlns:sodipodi="http://sodipodi.sourceforge.net/DTD/sodipodi-0.dtd"
   xmlns:inkscape="http://www.inkscape.org/namespaces/inkscape"
   class="ionicon"
   viewBox="0 0 512 512"
   version="1.1"
   id="svg6"
   sodipodi:docname="prism-outline.svg"
   inkscape:version="1.0.2 (e86c8708, 2021-01-15)">
  <metadata
     id="metadata12">
    <rdf:RDF>
      <cc:Work
         rdf:about="">
        <dc:format>image/svg+xml</dc:format>
        <dc:type
           rdf:resource="http://purl.org/dc/dcmitype/StillImage" />
      </cc:Work>
    </rdf:RDF>
  </metadata>
  <defs
     id="defs10" />
  <sodipodi:namedview
     pagecolor="#ffffff"
     bordercolor="#666666"
     borderopacity="1"
     objecttolerance="10"
     gridtolerance="10"
     guidetolerance="10"
     inkscape:pageopacity="0"
     inkscape:pageshadow="2"
     inkscape:window-width="689"
     inkscape:window-height="480"
     id="namedview8"
     showgrid="false"
     inkscape:zoom="1.3027344"
     inkscape:cx="256"
     inkscape:cy="256"
     inkscape:window-x="44"
     inkscape:window-y="25"
     inkscape:window-maximized="0"
     inkscape:current-layer="svg6" />
  <title
     id="title2">Prism</title>
  <path
     style="color:#000000;font-style:normal;font-variant:normal;font-weight:normal;font-stretch:normal;font-size:medium;line-height:normal;font-family:sans-serif;font-variant-ligatures:normal;font-variant-position:normal;font-variant-caps:normal;font-variant-numeric:normal;font-variant-alternates:normal;font-variant-east-asian:normal;font-feature-settings:normal;font-variation-settings:normal;text-indent:0;text-align:start;text-decoration:none;text-decoration-line:none;text-decoration-style:solid;text-decoration-color:#000000;letter-spacing:normal;word-spacing:normal;text-transform:none;writing-mode:lr-tb;direction:ltr;text-orientation:mixed;dominant-baseline:auto;baseline-shift:baseline;text-anchor:start;white-space:normal;shape-padding:0;shape-margin:0;inline-size:0;clip-rule:nonzero;display:inline;overflow:visible;visibility:visible;isolation:auto;mix-blend-mode:normal;color-interpolation:sRGB;color-interpolation-filters:linearRGB;solid-color:#000000;solid-opacity:1;vector-effect:none;fill:currentColor;fill-opacity:1;fill-rule:nonzero;stroke:none;stroke-linecap:round;stroke-linejoin:round;stroke-miterlimit:4;stroke-dasharray:none;stroke-dashoffset:0;stroke-opacity:1;color-rendering:auto;image-rendering:auto;shape-rendering:auto;text-rendering:auto;enable-background:accumulate;stop-color:#000000;stop-opacity:1;opacity:1"
     d="M 256 16 A 16 16 0 0 0 251.75195 16.574219 C 238.14127 17.741069 224.96985 24.464013 216.51172 36.863281 A 16.0016 16.0016 0 0 0 216.50977 36.867188 L 24.320312 318.76172 C 24.317634 318.76564 24.315177 318.76952 24.3125 318.77344 L 24.310547 318.77734 C 8.40486 342.07033 16.421442 374.66084 41.322266 387.91406 L 233.4707 490.37891 L 233.4668 490.375 C 239.90626 493.81216 246.95109 495.5944 254.04297 495.87891 A 16 16 0 0 0 256 496 A 16 16 0 0 0 258.0332 495.87109 C 265.07064 495.56594 272.05816 493.78721 278.44922 490.37695 L 278.45508 490.375 L 470.63672 387.875 L 470.64453 387.87109 C 495.53924 374.61523 503.55441 342.02884 487.65039 318.73828 L 487.64844 318.73438 L 295.49023 36.867188 A 16.0016 16.0016 0 0 0 295.48828 36.863281 C 287.03095 24.465194 273.86125 17.742028 260.25195 16.574219 A 16 16 0 0 0 256 16 z M 240 59.21875 L 240 457.59375 L 56.369141 359.67188 A 16.0016 16.0016 0 0 0 56.357422 359.66602 C 47.817883 355.12093 45.28189 344.8051 50.740234 336.81836 A 16.0016 16.0016 0 0 0 50.75 336.80273 L 240 59.21875 z M 272 59.21875 L 461.20898 336.76172 A 16.0016 16.0016 0 0 0 461.2207 336.77734 C 466.67905 344.76408 464.14305 355.07991 455.60352 359.625 A 16.0016 16.0016 0 0 0 455.58984 359.63281 L 272 457.55078 L 272 59.21875 z "
     id="path4" />
</svg>
