<?xml version="1.0" encoding="utf-8"?>
<!-- Generator: Adobe Illustrator 24.0.0, SVG Export Plug-In . SVG Version: 6.00 Build 0)  -->
<svg version="1.1" id="Layer_1" xmlns="http://www.w3.org/2000/svg" xmlns:xlink="http://www.w3.org/1999/xlink" x="0px" y="0px"
	 viewBox="0 0 512 512" style="enable-background:new 0 0 512 512;" xml:space="preserve">
<title>ionicons-v5-p</title>
<g>
	<path d="M240,464c-0.3,0-0.6,0-0.9,0c-7.5-0.4-13.6-6-14.9-13.3l-51.4-308.1l-45.3,181.4c-1.8,7.1-8.2,12.1-15.5,12.1H48
		c-8.8,0-16-7.2-16-16s7.2-16,16-16h51.5l61-243.9c1.8-7.4,8.6-12.4,16.2-12.1c7.6,0.3,13.9,5.9,15.1,13.4l52.3,314l44.5-155.8
		c1.9-6.7,8-11.4,15-11.6c7-0.2,13.3,4.3,15.5,10.9l28.4,85.1H400c8.8,0,16,7.2,16,16s-7.2,16-16,16h-64c-6.9,0-13-4.4-15.2-10.9
		l-15.6-46.9l-49.8,174.3C253.4,459.3,247.1,464,240,464z"/>
</g>
<g>
	<path d="M432,368c-26.5,0-48-21.5-48-48s21.5-48,48-48s48,21.5,48,48S458.5,368,432,368z M432,304c-8.8,0-16,7.2-16,16
		s7.2,16,16,16s16-7.2,16-16S440.8,304,432,304z"/>
</g>
</svg>
