<?xml version="1.0" encoding="utf-8"?>
<!-- Generator: Adobe Illustrator 24.0.0, SVG Export Plug-In . SVG Version: 6.00 Build 0)  -->
<svg version="1.1" id="Layer_1" xmlns="http://www.w3.org/2000/svg" xmlns:xlink="http://www.w3.org/1999/xlink" x="0px" y="0px"
	 viewBox="0 0 512 512" style="enable-background:new 0 0 512 512;" xml:space="preserve">
<title>ionicons-v5-k</title>
<g>
	<path d="M376,352h-40c-8.8,0-16-7.2-16-16s7.2-16,16-16h40c13.2,0,24-10.8,24-24V88c0-13.2-10.8-24-24-24H136
		c-13.2,0-24,10.8-24,24v208c0,13.2,10.8,24,24,24h40c8.8,0,16,7.2,16,16s-7.2,16-16,16h-40c-30.9,0-56-25.1-56-56V88
		c0-30.9,25.1-56,56-56h240c30.9,0,56,25.1,56,56v208C432,326.9,406.9,352,376,352z"/>
</g>
<g>
	<path d="M336,256c-4.1,0-8.2-1.6-11.3-4.7L256,182.6l-68.7,68.7c-6.2,6.2-16.4,6.2-22.6,0c-6.2-6.2-6.2-16.4,0-22.6l80-80
		c6.2-6.2,16.4-6.2,22.6,0l80,80c6.2,6.2,6.2,16.4,0,22.6C344.2,254.4,340.1,256,336,256z"/>
</g>
<g>
	<path d="M256,480c-8.8,0-16-7.2-16-16V176c0-8.8,7.2-16,16-16c8.8,0,16,7.2,16,16v288C272,472.8,264.8,480,256,480z"/>
</g>
</svg>
