<?xml version="1.0" encoding="utf-8"?>
<!-- Generator: Adobe Illustrator 24.0.0, SVG Export Plug-In . SVG Version: 6.00 Build 0)  -->
<svg version="1.1" id="Layer_1" xmlns="http://www.w3.org/2000/svg" xmlns:xlink="http://www.w3.org/1999/xlink" x="0px" y="0px"
	 viewBox="0 0 512 512" style="enable-background:new 0 0 512 512;" xml:space="preserve">
<title>ionicons-v5-k</title>
<g>
	<path d="M344,336h64c4.4,0,8,3.6,8,8v64c0,4.4-3.6,8-8,8h-64c-4.4,0-8-3.6-8-8v-64C336,339.6,339.6,336,344,336z"/>
</g>
<g>
	<path d="M280,272h48c4.4,0,8,3.6,8,8v48c0,4.4-3.6,8-8,8h-48c-4.4,0-8-3.6-8-8v-48C272,275.6,275.6,272,280,272z"/>
</g>
<g>
	<path d="M424,416h48c4.4,0,8,3.6,8,8v48c0,4.4-3.6,8-8,8h-48c-4.4,0-8-3.6-8-8v-48C416,419.6,419.6,416,424,416z"/>
</g>
<g>
	<path d="M440,272h32c4.4,0,8,3.6,8,8v32c0,4.4-3.6,8-8,8h-32c-4.4,0-8-3.6-8-8v-32C432,275.6,435.6,272,440,272z"/>
</g>
<g>
	<path d="M280,432h32c4.4,0,8,3.6,8,8v32c0,4.4-3.6,8-8,8h-32c-4.4,0-8-3.6-8-8v-32C272,435.6,275.6,432,280,432z"/>
</g>
<g>
	<path d="M344,96h64c4.4,0,8,3.6,8,8v64c0,4.4-3.6,8-8,8h-64c-4.4,0-8-3.6-8-8v-64C336,99.6,339.6,96,344,96z"/>
</g>
<g>
	<path d="M448,240H304c-17.6,0-32-14.4-32-32V64c0-17.6,14.4-32,32-32h144c17.6,0,32,14.4,32,32v144C480,225.6,465.6,240,448,240z
		 M304,64C304,64,304,64,304,64v144h144V64H304z"/>
</g>
<g>
	<path d="M104,96h64c4.4,0,8,3.6,8,8v64c0,4.4-3.6,8-8,8h-64c-4.4,0-8-3.6-8-8v-64C96,99.6,99.6,96,104,96z"/>
</g>
<g>
	<path d="M208,240H64c-17.6,0-32-14.4-32-32V64c0-17.6,14.4-32,32-32h144c17.6,0,32,14.4,32,32v144C240,225.6,225.6,240,208,240z
		 M64,64C64,64,64,64,64,64v144h144V64H64z"/>
</g>
<g>
	<path d="M104,336h64c4.4,0,8,3.6,8,8v64c0,4.4-3.6,8-8,8h-64c-4.4,0-8-3.6-8-8v-64C96,339.6,99.6,336,104,336z"/>
</g>
<g>
	<path d="M208,480H64c-17.6,0-32-14.4-32-32V304c0-17.6,14.4-32,32-32h144c17.6,0,32,14.4,32,32v144C240,465.6,225.6,480,208,480z
		 M64,304C64,304,64,304,64,304v144h144V304H64z"/>
</g>
</svg>
