<?xml version="1.0" encoding="UTF-8" standalone="no"?>
<svg
   xmlns:dc="http://purl.org/dc/elements/1.1/"
   xmlns:cc="http://creativecommons.org/ns#"
   xmlns:rdf="http://www.w3.org/1999/02/22-rdf-syntax-ns#"
   xmlns:svg="http://www.w3.org/2000/svg"
   xmlns="http://www.w3.org/2000/svg"
   xmlns:sodipodi="http://sodipodi.sourceforge.net/DTD/sodipodi-0.dtd"
   xmlns:inkscape="http://www.inkscape.org/namespaces/inkscape"
   class="ionicon"
   viewBox="0 0 512 512"
   version="1.1"
   id="svg8"
   sodipodi:docname="radio-outline.svg"
   inkscape:version="1.0.2 (e86c8708, 2021-01-15)">
  <metadata
     id="metadata14">
    <rdf:RDF>
      <cc:Work
         rdf:about="">
        <dc:format>image/svg+xml</dc:format>
        <dc:type
           rdf:resource="http://purl.org/dc/dcmitype/StillImage" />
      </cc:Work>
    </rdf:RDF>
  </metadata>
  <defs
     id="defs12" />
  <sodipodi:namedview
     pagecolor="#ffffff"
     bordercolor="#666666"
     borderopacity="1"
     objecttolerance="10"
     gridtolerance="10"
     guidetolerance="10"
     inkscape:pageopacity="0"
     inkscape:pageshadow="2"
     inkscape:window-width="689"
     inkscape:window-height="480"
     id="namedview10"
     showgrid="false"
     inkscape:zoom="1.3027344"
     inkscape:cx="256"
     inkscape:cy="256"
     inkscape:window-x="44"
     inkscape:window-y="25"
     inkscape:window-maximized="0"
     inkscape:current-layer="svg8" />
  <title
     id="title2">Radio</title>
  <path
     style="color:#000000;font-style:normal;font-variant:normal;font-weight:normal;font-stretch:normal;font-size:medium;line-height:normal;font-family:sans-serif;font-variant-ligatures:normal;font-variant-position:normal;font-variant-caps:normal;font-variant-numeric:normal;font-variant-alternates:normal;font-variant-east-asian:normal;font-feature-settings:normal;font-variation-settings:normal;text-indent:0;text-align:start;text-decoration:none;text-decoration-line:none;text-decoration-style:solid;text-decoration-color:#000000;letter-spacing:normal;word-spacing:normal;text-transform:none;writing-mode:lr-tb;direction:ltr;text-orientation:mixed;dominant-baseline:auto;baseline-shift:baseline;text-anchor:start;white-space:normal;shape-padding:0;shape-margin:0;inline-size:0;clip-rule:nonzero;display:inline;overflow:visible;visibility:visible;isolation:auto;mix-blend-mode:normal;color-interpolation:sRGB;color-interpolation-filters:linearRGB;solid-color:#000000;solid-opacity:1;vector-effect:none;fill:#000000;fill-opacity:1;fill-rule:nonzero;stroke-width:1;stroke-linecap:butt;stroke-linejoin:miter;stroke-miterlimit:4;stroke-dasharray:none;stroke-dashoffset:0;stroke-opacity:1;color-rendering:auto;image-rendering:auto;shape-rendering:auto;text-rendering:auto;enable-background:accumulate;stop-color:#000000;stop-opacity:1;stroke:none;opacity:1"
     d="m 288,256.01999 c 0,17.67311 -14.32689,32 -32,32 -17.67311,0 -32,-14.32689 -32,-32 0,-17.67311 14.32689,-32 32,-32 17.67311,0 32,14.32689 32,32 z"
     id="circle4" />
  <path
     style="color:#000000;font-style:normal;font-variant:normal;font-weight:normal;font-stretch:normal;font-size:medium;line-height:normal;font-family:sans-serif;font-variant-ligatures:normal;font-variant-position:normal;font-variant-caps:normal;font-variant-numeric:normal;font-variant-alternates:normal;font-variant-east-asian:normal;font-feature-settings:normal;font-variation-settings:normal;text-indent:0;text-align:start;text-decoration:none;text-decoration-line:none;text-decoration-style:solid;text-decoration-color:#000000;letter-spacing:normal;word-spacing:normal;text-transform:none;writing-mode:lr-tb;direction:ltr;text-orientation:mixed;dominant-baseline:auto;baseline-shift:baseline;text-anchor:start;white-space:normal;shape-padding:0;shape-margin:0;inline-size:0;clip-rule:nonzero;display:inline;overflow:visible;visibility:visible;isolation:auto;mix-blend-mode:normal;color-interpolation:sRGB;color-interpolation-filters:linearRGB;solid-color:#000000;solid-opacity:1;vector-effect:none;fill:currentColor;fill-opacity:1;fill-rule:nonzero;stroke:none;stroke-linecap:round;stroke-linejoin:round;stroke-miterlimit:4;stroke-dasharray:none;stroke-dashoffset:0;stroke-opacity:1;color-rendering:auto;image-rendering:auto;shape-rendering:auto;text-rendering:auto;enable-background:accumulate;stop-color:#000000;stop-opacity:1;opacity:1"
     d="M 76.882812 80 A 16 16 0 0 0 65.060547 85.347656 C -21.598242 182.48205 -21.598242 329.51795 65.060547 426.65234 A 16 16 0 0 0 87.652344 427.93945 A 16 16 0 0 0 88.939453 405.34766 C 12.935144 320.15569 12.935144 191.84431 88.939453 106.65234 A 16 16 0 0 0 87.652344 84.060547 A 16 16 0 0 0 76.882812 80 z M 435.02344 80 A 16 16 0 0 0 424.34766 84.060547 A 16 16 0 0 0 423.06055 106.65234 C 499.06486 191.84431 499.06486 320.15569 423.06055 405.34766 A 16 16 0 0 0 424.34766 427.93945 A 16 16 0 0 0 446.93945 426.65234 C 533.59824 329.51795 533.59824 182.48205 446.93945 85.347656 A 16 16 0 0 0 435.02344 80 z M 133.19727 125.2793 A 16 16 0 0 0 121.5918 130.35352 C 55.591537 200.96362 55.591537 311.03638 121.5918 381.64648 A 16 16 0 0 0 144.20508 382.4082 A 16 16 0 0 0 144.96875 359.79492 C 90.256274 301.261 90.256274 210.739 144.96875 152.20508 A 16 16 0 0 0 144.20508 129.5918 A 16 16 0 0 0 133.19727 125.2793 z M 378.70898 125.2793 A 16 16 0 0 0 367.79492 129.5918 A 16 16 0 0 0 367.03125 152.20508 C 421.74373 210.739 421.74373 301.261 367.03125 359.79492 A 16 16 0 0 0 367.79492 382.4082 A 16 16 0 0 0 390.4082 381.64648 C 456.40846 311.03638 456.40846 200.96362 390.4082 130.35352 A 16 16 0 0 0 378.70898 125.2793 z M 184.09961 176.25 A 16 16 0 0 0 172.28906 181.62305 C 134.68079 223.95483 134.68079 288.0647 172.28906 330.39648 A 16 16 0 0 0 194.87695 331.73047 A 16 16 0 0 0 196.21094 309.14258 C 169.20085 278.74008 169.20085 233.27945 196.21094 202.87695 A 16 16 0 0 0 194.87695 180.28906 A 16 16 0 0 0 184.09961 176.25 z M 327.82617 176.25 A 16 16 0 0 0 317.14258 180.28906 A 16 16 0 0 0 315.80859 202.87695 C 342.81868 233.27945 342.81868 278.74008 315.80859 309.14258 A 16 16 0 0 0 317.14258 331.73047 A 16 16 0 0 0 339.73047 330.39648 C 377.33874 288.0647 377.33874 223.95483 339.73047 181.62305 A 16 16 0 0 0 327.82617 176.25 z "
     id="path6" />
</svg>
