<?xml version="1.0" encoding="utf-8"?>
<!-- Generator: Adobe Illustrator 24.0.0, SVG Export Plug-In . SVG Version: 6.00 Build 0)  -->
<svg version="1.1" id="Layer_1" xmlns="http://www.w3.org/2000/svg" xmlns:xlink="http://www.w3.org/1999/xlink" x="0px" y="0px"
	 viewBox="0 0 512 512" style="enable-background:new 0 0 512 512;" xml:space="preserve">
<title>ionicons-v5-p</title>
<g>
	<circle cx="256" cy="256" r="32"/>
</g>
<g>
	<path d="M184.3,335.8c-4.4,0-8.8-1.8-12-5.4c-37.7-42.4-37.7-106.4,0-148.8c5.9-6.6,16-7.2,22.6-1.3c6.6,5.9,7.2,16,1.3,22.6
		c-26.9,30.3-26.9,76,0,106.3c5.9,6.6,5.3,16.7-1.3,22.6C191.8,334.4,188,335.8,184.3,335.8z"/>
</g>
<g>
	<path d="M327.8,335.8c-3.8,0-7.6-1.3-10.6-4c-6.6-5.9-7.2-16-1.3-22.6c26.9-30.3,26.9-76,0-106.3c-5.9-6.6-5.3-16.7,1.3-22.6
		c6.6-5.9,16.7-5.3,22.6,1.3c37.7,42.4,37.7,106.4,0,148.8C336.6,334,332.2,335.8,327.8,335.8z"/>
</g>
<g>
	<path d="M133.3,386.7c-4.3,0-8.5-1.7-11.7-5.1C89.6,347.4,72,302.8,72,256c0-46.8,17.6-91.4,49.6-125.6c6-6.5,16.2-6.8,22.6-0.8
		c6.5,6,6.8,16.2,0.8,22.6c-26.4,28.3-41,65.1-41,103.8c0,38.7,14.5,75.5,41,103.8c6,6.5,5.7,16.6-0.8,22.6
		C141.1,385.3,137.2,386.7,133.3,386.7z"/>
</g>
<g>
	<path d="M378.7,386.7c-3.9,0-7.8-1.4-10.9-4.3c-6.5-6-6.8-16.2-0.8-22.6c26.4-28.3,41-65.1,41-103.8c0-38.7-14.5-75.5-41-103.8
		c-6-6.5-5.7-16.6,0.8-22.6c6.5-6,16.6-5.7,22.6,0.8c32,34.2,49.6,78.8,49.6,125.6c0,46.8-17.6,91.4-49.6,125.6
		C387.3,385,383,386.7,378.7,386.7z"/>
</g>
<g>
	<path d="M435,432c-3.8,0-7.6-1.3-10.6-4.1c-6.6-5.9-7.2-16-1.3-22.6c76-85.1,76-213.6,0-298.7c-5.9-6.6-5.3-16.7,1.3-22.6
		c6.6-5.9,16.7-5.3,22.6,1.3c86.8,97.3,86.8,244,0,341.3C443.8,430.2,439.4,432,435,432z"/>
</g>
<g>
	<path d="M77,432c-4.4,0-8.8-1.8-11.9-5.3c-86.8-97.3-86.8-244,0-341.3c5.9-6.6,16-7.2,22.6-1.3c6.6,5.9,7.2,16,1.3,22.6
		c-76,85.1-76,213.6,0,298.7c5.9,6.6,5.3,16.7-1.3,22.6C84.6,430.7,80.8,432,77,432z"/>
</g>
</svg>
