<?xml version="1.0" encoding="UTF-8" standalone="no"?>
<svg
   xmlns:dc="http://purl.org/dc/elements/1.1/"
   xmlns:cc="http://creativecommons.org/ns#"
   xmlns:rdf="http://www.w3.org/1999/02/22-rdf-syntax-ns#"
   xmlns:svg="http://www.w3.org/2000/svg"
   xmlns="http://www.w3.org/2000/svg"
   xmlns:sodipodi="http://sodipodi.sourceforge.net/DTD/sodipodi-0.dtd"
   xmlns:inkscape="http://www.inkscape.org/namespaces/inkscape"
   class="ionicon"
   viewBox="0 0 512 512"
   version="1.1"
   id="svg8"
   sodipodi:docname="rainy-outline.svg"
   inkscape:version="1.0.2 (e86c8708, 2021-01-15)">
  <metadata
     id="metadata14">
    <rdf:RDF>
      <cc:Work
         rdf:about="">
        <dc:format>image/svg+xml</dc:format>
        <dc:type
           rdf:resource="http://purl.org/dc/dcmitype/StillImage" />
      </cc:Work>
    </rdf:RDF>
  </metadata>
  <defs
     id="defs12" />
  <sodipodi:namedview
     pagecolor="#ffffff"
     bordercolor="#666666"
     borderopacity="1"
     objecttolerance="10"
     gridtolerance="10"
     guidetolerance="10"
     inkscape:pageopacity="0"
     inkscape:pageshadow="2"
     inkscape:window-width="689"
     inkscape:window-height="480"
     id="namedview10"
     showgrid="false"
     inkscape:zoom="1.3027344"
     inkscape:cx="256"
     inkscape:cy="256"
     inkscape:window-x="44"
     inkscape:window-y="25"
     inkscape:window-maximized="0"
     inkscape:current-layer="svg8" />
  <title
     id="title2">Rainy</title>
  <path
     style="color:#000000;font-style:normal;font-variant:normal;font-weight:normal;font-stretch:normal;font-size:medium;line-height:normal;font-family:sans-serif;font-variant-ligatures:normal;font-variant-position:normal;font-variant-caps:normal;font-variant-numeric:normal;font-variant-alternates:normal;font-variant-east-asian:normal;font-feature-settings:normal;font-variation-settings:normal;text-indent:0;text-align:start;text-decoration:none;text-decoration-line:none;text-decoration-style:solid;text-decoration-color:#000000;letter-spacing:normal;word-spacing:normal;text-transform:none;writing-mode:lr-tb;direction:ltr;text-orientation:mixed;dominant-baseline:auto;baseline-shift:baseline;text-anchor:start;white-space:normal;shape-padding:0;shape-margin:0;inline-size:0;clip-rule:nonzero;display:inline;overflow:visible;visibility:visible;isolation:auto;mix-blend-mode:normal;color-interpolation:sRGB;color-interpolation-filters:linearRGB;solid-color:#000000;solid-opacity:1;vector-effect:none;fill:currentColor;fill-opacity:1;fill-rule:nonzero;stroke:none;stroke-linecap:butt;stroke-linejoin:round;stroke-miterlimit:4;stroke-dasharray:none;stroke-dashoffset:0;stroke-opacity:1;color-rendering:auto;image-rendering:auto;shape-rendering:auto;text-rendering:auto;enable-background:accumulate;stop-color:#000000;stop-opacity:1;opacity:1"
     d="M 256 16 C 186.07594 16 125.36596 67.113349 112.21289 147 L 112.21484 146.98047 C 112.19972 147.07163 112.24952 147.0249 112.1582 147.03906 A 16.0016 16.0016 0 0 0 112.0918 147.04883 C 91.608724 150.31449 70.208685 158.56754 53.138672 173.89258 C 36.068659 189.21762 24 212.31078 24 240.80078 C 24 272.01408 36.482845 297.44176 56.470703 313.35547 C 76.458561 329.26917 102.58872 336 130 336 L 364 336 C 430.83434 336 488 287.32649 488 219.19922 C 488 186.35223 475.73701 158.82006 456.25391 139.36914 C 436.79291 119.94029 410.76197 108.36662 383.06836 103.83594 C 365.44631 58.706317 320.83489 16 256 16 z M 256 48 C 306.97908 48 339.72722 80.733914 353.29102 115.54883 A 16.0016 16.0016 0 0 0 353.29688 115.56055 C 357.38202 126.02008 366.73832 133.58945 377.82031 135.40039 A 16.0016 16.0016 0 0 0 377.82617 135.40234 C 400.09733 139.03254 419.82958 148.22154 433.64648 162.01562 C 447.46339 175.80971 456 193.99621 456 219.19922 C 456 269.87195 415.96566 304 364 304 L 130 304 C 107.91128 304 89.041439 298.38161 76.404297 288.32031 C 63.767155 278.25902 56 264.08748 56 240.80078 C 56 220.82078 63.265638 207.80309 74.515625 197.70312 C 85.765612 187.60316 101.67198 181.11473 117.12891 178.65039 L 117.0625 178.66016 C 130.68211 176.54749 141.52946 165.8154 143.78516 152.21875 A 16.0016 16.0016 0 0 0 143.78711 152.19922 C 154.81404 85.22587 201.18406 48 256 48 z "
     id="path4" />
  <path
     style="color:#000000;font-style:normal;font-variant:normal;font-weight:normal;font-stretch:normal;font-size:medium;line-height:normal;font-family:sans-serif;font-variant-ligatures:normal;font-variant-position:normal;font-variant-caps:normal;font-variant-numeric:normal;font-variant-alternates:normal;font-variant-east-asian:normal;font-feature-settings:normal;font-variation-settings:normal;text-indent:0;text-align:start;text-decoration:none;text-decoration-line:none;text-decoration-style:solid;text-decoration-color:#000000;letter-spacing:normal;word-spacing:normal;text-transform:none;writing-mode:lr-tb;direction:ltr;text-orientation:mixed;dominant-baseline:auto;baseline-shift:baseline;text-anchor:start;white-space:normal;shape-padding:0;shape-margin:0;inline-size:0;clip-rule:nonzero;display:inline;overflow:visible;visibility:visible;isolation:auto;mix-blend-mode:normal;color-interpolation:sRGB;color-interpolation-filters:linearRGB;solid-color:#000000;solid-opacity:1;vector-effect:none;fill:currentColor;fill-opacity:1;fill-rule:nonzero;stroke:none;stroke-linecap:round;stroke-linejoin:round;stroke-miterlimit:4;stroke-dasharray:none;stroke-dashoffset:0;stroke-opacity:1;color-rendering:auto;image-rendering:auto;shape-rendering:auto;text-rendering:auto;enable-background:accumulate;stop-color:#000000;stop-opacity:1;opacity:1"
     d="M 143.99023 368 A 16 16 0 0 0 130.6875 375.125 L 98.6875 423.125 A 16 16 0 0 0 103.125 445.3125 A 16 16 0 0 0 125.3125 440.875 L 157.3125 392.875 A 16 16 0 0 0 152.875 370.6875 A 16 16 0 0 0 143.99023 368 z M 223.99023 368 A 16 16 0 0 0 210.6875 375.125 L 146.6875 471.125 A 16 16 0 0 0 151.125 493.3125 A 16 16 0 0 0 173.3125 488.875 L 237.3125 392.875 A 16 16 0 0 0 232.875 370.6875 A 16 16 0 0 0 223.99023 368 z M 303.99023 368 A 16 16 0 0 0 290.6875 375.125 L 258.6875 423.125 A 16 16 0 0 0 263.125 445.3125 A 16 16 0 0 0 285.3125 440.875 L 317.3125 392.875 A 16 16 0 0 0 312.875 370.6875 A 16 16 0 0 0 303.99023 368 z M 383.99023 368 A 16 16 0 0 0 370.6875 375.125 L 306.6875 471.125 A 16 16 0 0 0 311.125 493.3125 A 16 16 0 0 0 333.3125 488.875 L 397.3125 392.875 A 16 16 0 0 0 392.875 370.6875 A 16 16 0 0 0 383.99023 368 z "
     id="path6" />
</svg>
