<?xml version="1.0" encoding="UTF-8"?>
<svg width="512px" height="512px" viewBox="0 0 512 512" version="1.1" xmlns="http://www.w3.org/2000/svg" xmlns:xlink="http://www.w3.org/1999/xlink">
    <!-- Generator: Sketch 62 (91390) - https://sketch.com -->
    <title>Artboard</title>
    <desc>Created with Sketch.</desc>
    <g id="Artboard" stroke="none" stroke-width="1" fill="none" fill-rule="evenodd">
        <g id="rainy-sharp" transform="translate(24.000000, 16.000000)" fill="#000000" fill-rule="nonzero">
            <path d="M359.559595,339.802707 L386.185225,357.553081 L304.433655,480.18075 L277.808024,462.430375 L359.559595,339.802707 Z M199.56772,339.800858 L226.193351,357.551233 L144.44178,480.178902 L117.81615,462.428527 L199.56772,339.800858 Z M279.562097,339.797535 L306.187727,357.54791 L256.436754,432.17456 L229.811124,414.424185 L279.562097,339.797535 Z M119.570222,339.795687 L146.195853,357.546062 L96.4448799,432.172711 L69.8192496,414.422337 L119.570222,339.795687 Z M232,-0.000586333044 C262.23,-0.000586333044 290.48,9.39 313.71,27.17 C334.018589,42.934425 349.69078,63.8928715 359.07,87.83 C388.48,92.65 413.79,104.94 432.26,123.37 C453,144.11 464,171.71 464,203.2 C464,236.05 450.87,266.07 427,287.72 C404.11,308.54 373.2,320 340,320 L106,320 C76.5,320 51.08,312.17 32.47,297.36 C11.23,280.44 0,255.35 0,224.8 C0,198.14 10.08,175 29.14,157.89 C44.1820779,144.387662 64.7673233,134.928232 87.2514892,131.19441 L88.14,131.05 C88.2,131.05 88.22,131.05 88.23,131 C94.67,92 112.06,58.91 138.54,35.32 C164.300856,12.4722901 197.567026,-0.0995173514 232,-0.000586333044 Z" id="Combined-Shape"></path>
        </g>
    </g>
</svg>