<?xml version="1.0" encoding="UTF-8" standalone="no"?>
<svg
   xmlns:dc="http://purl.org/dc/elements/1.1/"
   xmlns:cc="http://creativecommons.org/ns#"
   xmlns:rdf="http://www.w3.org/1999/02/22-rdf-syntax-ns#"
   xmlns:svg="http://www.w3.org/2000/svg"
   xmlns="http://www.w3.org/2000/svg"
   xmlns:sodipodi="http://sodipodi.sourceforge.net/DTD/sodipodi-0.dtd"
   xmlns:inkscape="http://www.inkscape.org/namespaces/inkscape"
   class="ionicon"
   viewBox="0 0 512 512"
   version="1.1"
   id="svg6"
   sodipodi:docname="rainy.svg"
   inkscape:version="1.0.2 (e86c8708, 2021-01-15)">
  <metadata
     id="metadata12">
    <rdf:RDF>
      <cc:Work
         rdf:about="">
        <dc:format>image/svg+xml</dc:format>
        <dc:type
           rdf:resource="http://purl.org/dc/dcmitype/StillImage" />
      </cc:Work>
    </rdf:RDF>
  </metadata>
  <defs
     id="defs10" />
  <sodipodi:namedview
     pagecolor="#ffffff"
     bordercolor="#666666"
     borderopacity="1"
     objecttolerance="10"
     gridtolerance="10"
     guidetolerance="10"
     inkscape:pageopacity="0"
     inkscape:pageshadow="2"
     inkscape:window-width="689"
     inkscape:window-height="480"
     id="namedview8"
     showgrid="false"
     inkscape:zoom="1.3027344"
     inkscape:cx="256"
     inkscape:cy="256"
     inkscape:window-x="44"
     inkscape:window-y="25"
     inkscape:window-maximized="0"
     inkscape:current-layer="svg6" />
  <title
     id="title2">Rainy</title>
  <path
     style="color:#000000;font-style:normal;font-variant:normal;font-weight:normal;font-stretch:normal;font-size:medium;line-height:normal;font-family:sans-serif;font-variant-ligatures:normal;font-variant-position:normal;font-variant-caps:normal;font-variant-numeric:normal;font-variant-alternates:normal;font-variant-east-asian:normal;font-feature-settings:normal;font-variation-settings:normal;text-indent:0;text-align:start;text-decoration:none;text-decoration-line:none;text-decoration-style:solid;text-decoration-color:#000000;letter-spacing:normal;word-spacing:normal;text-transform:none;writing-mode:lr-tb;direction:ltr;text-orientation:mixed;dominant-baseline:auto;baseline-shift:baseline;text-anchor:start;white-space:normal;shape-padding:0;shape-margin:0;inline-size:0;clip-rule:nonzero;display:inline;overflow:visible;visibility:visible;isolation:auto;mix-blend-mode:normal;color-interpolation:sRGB;color-interpolation-filters:linearRGB;solid-color:#000000;solid-opacity:1;vector-effect:none;fill:#000000;fill-opacity:1;fill-rule:nonzero;stroke-width:1;stroke-linecap:butt;stroke-linejoin:miter;stroke-miterlimit:4;stroke-dasharray:none;stroke-dashoffset:0;stroke-opacity:1;color-rendering:auto;image-rendering:auto;shape-rendering:auto;text-rendering:auto;enable-background:accumulate;stop-color:#000000;stop-opacity:1;stroke:none;opacity:1"
     d="m 456.26,139.37 c -16.77,-16.73 -39.17,-28.41 -65.17,-34 -4.9424,-1.06366 -9.09135,-4.40061 -11.19,-9 C 370.33882,75.487247 355.86299,57.230335 337.71,43.16 314.48,25.39 286.23,16 256,16 c -34.44675,-0.109349 -67.72885,12.463099 -93.5,35.32 -24.2,21.56 -40.91,51.34 -48.43,85.83 -1.27914,5.9549 -5.81873,10.67266 -11.72,12.18 -25,6.3 -35.71,12.54 -49.21,24.56 C 34,190.93 24,214.14 24,240.8 24,271.35 35.23,296.44 56.47,313.36 75.08,328.17 100.5,336 130,336 h 234 c 33.2,0 64.11,-11.46 87,-32.28 23.84,-21.65 37,-51.67 37,-84.52 0,-31.49 -11,-59.09 -31.74,-79.83 z M 112,448 c -12.777387,-0.008 -20.391453,-14.25113 -13.3,-24.88 l 32,-48 c 4.90429,-7.35091 14.83909,-9.33428 22.19,-4.42999 7.35091,4.90428 9.33429,14.83908 4.43,22.18999 l -32,48 c -2.96997,4.45147 -7.96871,7.12348 -13.32,7.12 z m 48,48 c -12.77286,-0.0156 -20.37895,-14.25489 -13.29,-24.88 l 64,-96 c 4.90429,-7.35091 14.83909,-9.33428 22.19,-4.42999 7.35091,4.90428 9.33429,14.83908 4.43,22.18999 l -64,96 c -2.97193,4.45443 -7.97517,7.12682 -13.33,7.12 z m 112,-48 c -12.77739,-0.008 -20.39145,-14.25113 -13.3,-24.88 l 32,-48 c 4.90429,-7.35091 14.83909,-9.33428 22.19,-4.42999 7.35091,4.90428 9.33429,14.83908 4.43,22.18999 l -32,48 c -2.96997,4.45147 -7.96871,7.12348 -13.32,7.12 z m 48,48 c -12.77739,-0.008 -20.39145,-14.25113 -13.3,-24.88 l 64,-96 c 4.90429,-7.35091 14.83909,-9.33428 22.19,-4.42999 7.35091,4.90428 9.33429,14.83908 4.43,22.18999 l -64,96 c -2.96997,4.45147 -7.96871,7.12348 -13.32,7.12 z"
     id="path4" />
</svg>
