<?xml version="1.0" encoding="utf-8"?>
<!-- Generator: Adobe Illustrator 24.0.0, SVG Export Plug-In . SVG Version: 6.00 Build 0)  -->
<svg version="1.1" id="Layer_1" xmlns="http://www.w3.org/2000/svg" xmlns:xlink="http://www.w3.org/1999/xlink" x="0px" y="0px"
	 viewBox="0 0 512 512" style="enable-background:new 0 0 512 512;" xml:space="preserve">
<title>ionicons-v5-p</title>
<g>
	<path d="M364,336H130c-29.5,0-54.9-7.8-73.5-22.6c-21.2-16.9-32.5-42-32.5-72.6c0-26.7,10.1-49.8,29.1-66.9
		c15.2-13.7,36.2-23.2,59-26.8c0,0,0,0,0.1,0c0,0,0.1,0,0.1-0.1c6.4-39,23.8-72.1,50.3-95.7C188.1,28.5,221.3,16,256,16
		c30.2,0,58.5,9.4,81.7,27.2c19.9,15.3,36,36.8,45.4,60.7c29.4,4.8,54.7,17.1,73.2,35.5c20.8,20.7,31.7,48.3,31.7,79.8
		c0,32.9-13.1,62.9-37,84.5C428.1,324.5,397.2,336,364,336z M117.1,178.7c-16.8,2.7-31.9,9.4-42.6,19c-12.3,11-18.5,25.5-18.5,43.1
		c0,57,51.8,63.2,74,63.2h234c25.2,0,48.5-8.5,65.5-24c17.1-15.5,26.5-37.1,26.5-60.8c0-16.7-5.6-72-78.2-83.8
		c-11.1-1.8-20.5-9.4-24.5-19.8C340.6,82.9,308.3,48,256,48c-27.3,0-52.2,9.4-72.2,27.2c-21,18.7-34.8,45.3-40,77
		C141.5,165.9,130.8,176.5,117.1,178.7z"/>
</g>
<g>
	<path d="M112,448c-3,0-6.1-0.9-8.9-2.7c-7.4-4.9-9.3-14.8-4.4-22.2l32-48c4.9-7.4,14.8-9.3,22.2-4.4c7.4,4.9,9.3,14.8,4.4,22.2
		l-32,48C122.2,445.5,117.2,448,112,448z"/>
</g>
<g>
	<path d="M160,496c-3,0-6.1-0.9-8.9-2.7c-7.4-4.9-9.3-14.8-4.4-22.2l64-96c4.9-7.4,14.8-9.3,22.2-4.4c7.4,4.9,9.3,14.8,4.4,22.2
		l-64,96C170.2,493.5,165.2,496,160,496z"/>
</g>
<g>
	<path d="M272,448c-3,0-6.1-0.9-8.9-2.7c-7.4-4.9-9.3-14.8-4.4-22.2l32-48c4.9-7.4,14.8-9.3,22.2-4.4c7.4,4.9,9.3,14.8,4.4,22.2
		l-32,48C282.2,445.5,277.2,448,272,448z"/>
</g>
<g>
	<path d="M320,496c-3,0-6.1-0.9-8.9-2.7c-7.4-4.9-9.3-14.8-4.4-22.2l64-96c4.9-7.4,14.8-9.3,22.2-4.4c7.4,4.9,9.3,14.8,4.4,22.2
		l-64,96C330.2,493.5,325.2,496,320,496z"/>
</g>
</svg>
