<?xml version="1.0" encoding="utf-8"?>
<!-- Generator: Adobe Illustrator 24.0.0, SVG Export Plug-In . SVG Version: 6.00 Build 0)  -->
<svg version="1.1" id="Layer_1" xmlns="http://www.w3.org/2000/svg" xmlns:xlink="http://www.w3.org/1999/xlink" x="0px" y="0px"
	 viewBox="0 0 512 512" style="enable-background:new 0 0 512 512;" xml:space="preserve">
<title>ionicons-v5-l</title>
<g>
	<path d="M368,480H144c-35.3,0-64-28.7-64-64V96c0-35.3,28.7-64,64-64h224c35.3,0,64,28.7,64,64v320C432,451.3,403.3,480,368,480z
		 M144,64c-17.6,0-32,14.4-32,32v320c0,17.6,14.4,32,32,32h224c17.6,0,32-14.4,32-32V96c0-17.6-14.4-32-32-32H144z"/>
</g>
<g>
	<path d="M336,144H176c-8.8,0-16-7.2-16-16s7.2-16,16-16h160c8.8,0,16,7.2,16,16S344.8,144,336,144z"/>
</g>
<g>
	<path d="M336,224H176c-8.8,0-16-7.2-16-16s7.2-16,16-16h160c8.8,0,16,7.2,16,16S344.8,224,336,224z"/>
</g>
<g>
	<path d="M256,304h-80c-8.8,0-16-7.2-16-16s7.2-16,16-16h80c8.8,0,16,7.2,16,16S264.8,304,256,304z"/>
</g>
</svg>
