<?xml version="1.0" encoding="UTF-8"?>
<svg width="512px" height="512px" viewBox="0 0 512 512" version="1.1" xmlns="http://www.w3.org/2000/svg" xmlns:xlink="http://www.w3.org/1999/xlink">
    <!-- Generator: Sketch 62 (91390) - https://sketch.com -->
    <title>Artboard</title>
    <desc>Created with Sketch.</desc>
    <g id="Artboard" stroke="none" stroke-width="1" fill="none" fill-rule="evenodd">
        <g id="receipt" transform="translate(16.000000, 32.000000)" fill="#000000" fill-rule="nonzero">
            <path d="M131.8,6.63 C136.575029,1.0134159 144.569607,-0.613579825 151.16,2.69 L151.16,2.69 L176,15.1 L200.87,2.69 C205.38153,0.439251218 210.68847,0.439251218 215.2,2.69 L215.2,2.69 L240,15.12 L265.2,2.67 C269.724599,0.423559176 275.044344,0.445802013 279.55,2.73 L279.55,2.73 L304,15.07 L328.64,2.7 C333.15786,0.431356541 338.48214,0.431356541 343,2.7 L343,2.7 L367.78,15.11 L392.89,2.7 C397.394212,0.448058417 402.695788,0.448058417 407.2,2.7 L407.2,2.7 L432,15.1 L456.59,2.82 C460.049195,1.03554171 464.033255,0.549507685 467.82,1.45 C474.976767,3.20956032 480.005851,9.63010644 480.000005,17 L480.000005,17 L480.000005,397 C480.000005,425.718807 456.718807,449 428,449 L428,449 L416,449 C385.07,449 352,423.93 352,393 L352,393 L352,289 C352,271.326888 337.673112,257 320,257 L320,257 L127.998702,257 L127.998907,16.8636247 C128.048632,13.1206496 129.388523,9.50415557 131.8,6.63 Z M304,289 C312.836556,289 320,296.163444 320,305 L320,305 L320,393 C320,420 335.07,432.7 344.53,442.19 C345.663637,443.338456 345.996153,445.055619 345.373165,446.544232 C344.750177,448.032845 343.293716,449 341.68,449 L341.68,449 L96,449 C55.86,449 29.19,435.79 14.46,408.62 C5.78,392.62 0,371.6 0,321.05 C0.0274374798,303.380155 14.3302198,289.055025 32,289 L32,289 Z M399.5,177 L272,177 C267.632263,177.001035 263.454808,178.787611 260.437016,181.94515 C257.419224,185.10269 255.823452,189.356688 256.02,193.72 C256.4,202.36 263.86,209 272.5,209 L272.5,209 L400,209 C404.367737,208.998965 408.545192,207.212389 411.562984,204.05485 C414.580776,200.89731 416.176548,196.643312 415.98,192.28 C415.6,183.64 408.14,177 399.5,177 L399.5,177 Z M399.5,97 L208,97 C203.632263,97.0010351 199.454808,98.7876108 196.437016,101.94515 C193.419224,105.10269 191.823452,109.356688 192.02,113.72 C192.4,122.36 199.86,129 208.5,129 L208.5,129 L400,129 C404.367737,128.998965 408.545192,127.212389 411.562984,124.05485 C414.580776,120.89731 416.176548,116.643312 415.98,112.28 C415.6,103.64 408.14,97 399.5,97 L399.5,97 Z" id="Combined-Shape"></path>
        </g>
    </g>
</svg>