<?xml version="1.0" encoding="UTF-8" standalone="no"?>
<svg
   xmlns:dc="http://purl.org/dc/elements/1.1/"
   xmlns:cc="http://creativecommons.org/ns#"
   xmlns:rdf="http://www.w3.org/1999/02/22-rdf-syntax-ns#"
   xmlns:svg="http://www.w3.org/2000/svg"
   xmlns="http://www.w3.org/2000/svg"
   xmlns:sodipodi="http://sodipodi.sourceforge.net/DTD/sodipodi-0.dtd"
   xmlns:inkscape="http://www.inkscape.org/namespaces/inkscape"
   class="ionicon"
   viewBox="0 0 512 512"
   version="1.1"
   id="svg8"
   sodipodi:docname="receipt.svg"
   inkscape:version="1.0.2 (e86c8708, 2021-01-15)">
  <metadata
     id="metadata14">
    <rdf:RDF>
      <cc:Work
         rdf:about="">
        <dc:format>image/svg+xml</dc:format>
        <dc:type
           rdf:resource="http://purl.org/dc/dcmitype/StillImage" />
      </cc:Work>
    </rdf:RDF>
  </metadata>
  <defs
     id="defs12" />
  <sodipodi:namedview
     pagecolor="#ffffff"
     bordercolor="#666666"
     borderopacity="1"
     objecttolerance="10"
     gridtolerance="10"
     guidetolerance="10"
     inkscape:pageopacity="0"
     inkscape:pageshadow="2"
     inkscape:window-width="689"
     inkscape:window-height="480"
     id="namedview10"
     showgrid="false"
     inkscape:zoom="1.3027344"
     inkscape:cx="256"
     inkscape:cy="256"
     inkscape:window-x="44"
     inkscape:window-y="25"
     inkscape:window-maximized="0"
     inkscape:current-layer="svg8" />
  <title
     id="title2">Receipt</title>
  <path
     style="color:#000000;font-style:normal;font-variant:normal;font-weight:normal;font-stretch:normal;font-size:medium;line-height:normal;font-family:sans-serif;font-variant-ligatures:normal;font-variant-position:normal;font-variant-caps:normal;font-variant-numeric:normal;font-variant-alternates:normal;font-variant-east-asian:normal;font-feature-settings:normal;font-variation-settings:normal;text-indent:0;text-align:start;text-decoration:none;text-decoration-line:none;text-decoration-style:solid;text-decoration-color:#000000;letter-spacing:normal;word-spacing:normal;text-transform:none;writing-mode:lr-tb;direction:ltr;text-orientation:mixed;dominant-baseline:auto;baseline-shift:baseline;text-anchor:start;white-space:normal;shape-padding:0;shape-margin:0;inline-size:0;clip-rule:nonzero;display:inline;overflow:visible;visibility:visible;isolation:auto;mix-blend-mode:normal;color-interpolation:sRGB;color-interpolation-filters:linearRGB;solid-color:#000000;solid-opacity:1;vector-effect:none;fill:#000000;fill-opacity:1;fill-rule:nonzero;stroke-width:1;stroke-linecap:butt;stroke-linejoin:miter;stroke-miterlimit:4;stroke-dasharray:none;stroke-dashoffset:0;stroke-opacity:1;color-rendering:auto;image-rendering:auto;shape-rendering:auto;text-rendering:auto;enable-background:accumulate;stop-color:#000000;stop-opacity:1;stroke:none;opacity:1"
     d="m 483.82,32.45 c -3.78674,-0.900492 -7.7708,-0.414458 -11.23,1.37 L 448,46.1 423.2,33.7 c -4.50421,-2.251942 -9.80579,-2.251942 -14.31,0 L 383.78,46.11 359,33.7 c -4.51786,-2.268643 -9.84214,-2.268643 -14.36,0 L 320,46.07 295.55,33.73 c -4.50566,-2.284198 -9.8254,-2.306441 -14.35,-0.06 L 256,46.12 231.2,33.69 c -4.51153,-2.250749 -9.81847,-2.250749 -14.33,0 L 192,46.1 167.16,33.69 c -6.59039,-3.30358 -14.58497,-1.676584 -19.36,3.94 -2.50079,2.980606 -3.84915,6.759556 -3.8,10.65 V 288 l 0.05,0.05 H 336 c 17.67311,0 32,14.32689 32,32 V 424 c 0,30.93 33.07,56 64,56 h 12 c 28.71881,0 52,-23.28119 52,-52 V 48 c 0.006,-7.369894 -5.02323,-13.79044 -12.18,-15.55 z M 416,240 H 288.5 c -8.64,0 -16.1,-6.64 -16.48,-15.28 -0.4103,-9.10843 6.86234,-16.71784 15.98,-16.72 h 127.5 c 8.64,0 16.1,6.64 16.48,15.28 0.4103,9.10843 -6.86234,16.71784 -15.98,16.72 z m 0,-80 H 224.5 c -8.64,0 -16.1,-6.64 -16.48,-15.28 -0.4103,-9.10843 6.86234,-16.71784 15.98,-16.72 h 191.5 c 8.64,0 16.1,6.64 16.48,15.28 0.4103,9.10843 -6.86234,16.71784 -15.98,16.72 z"
     id="path4" />
  <path
     style="color:#000000;font-style:normal;font-variant:normal;font-weight:normal;font-stretch:normal;font-size:medium;line-height:normal;font-family:sans-serif;font-variant-ligatures:normal;font-variant-position:normal;font-variant-caps:normal;font-variant-numeric:normal;font-variant-alternates:normal;font-variant-east-asian:normal;font-feature-settings:normal;font-variation-settings:normal;text-indent:0;text-align:start;text-decoration:none;text-decoration-line:none;text-decoration-style:solid;text-decoration-color:#000000;letter-spacing:normal;word-spacing:normal;text-transform:none;writing-mode:lr-tb;direction:ltr;text-orientation:mixed;dominant-baseline:auto;baseline-shift:baseline;text-anchor:start;white-space:normal;shape-padding:0;shape-margin:0;inline-size:0;clip-rule:nonzero;display:inline;overflow:visible;visibility:visible;isolation:auto;mix-blend-mode:normal;color-interpolation:sRGB;color-interpolation-filters:linearRGB;solid-color:#000000;solid-opacity:1;vector-effect:none;fill:#000000;fill-opacity:1;fill-rule:nonzero;stroke-width:1;stroke-linecap:butt;stroke-linejoin:miter;stroke-miterlimit:4;stroke-dasharray:none;stroke-dashoffset:0;stroke-opacity:1;color-rendering:auto;image-rendering:auto;shape-rendering:auto;text-rendering:auto;enable-background:accumulate;stop-color:#000000;stop-opacity:1;stroke:none;opacity:1"
     d="m 336,424 v -88 c 0,-8.83656 -7.16344,-16 -16,-16 H 48 c -17.66978,0.055 -31.972563,14.38016 -32,32.05 0,50.55 5.78,71.57 14.46,87.57 C 45.19,466.79 71.86,480 112,480 h 245.68 c 3.55268,0.003 5.34576,-4.28162 2.85,-6.81 C 351.07,463.7 336,451 336,424 Z"
     id="path6" />
</svg>
