<?xml version="1.0" encoding="utf-8"?>
<!-- Generator: Adobe Illustrator 24.0.0, SVG Export Plug-In . SVG Version: 6.00 Build 0)  -->
<svg version="1.1" id="Layer_1" xmlns="http://www.w3.org/2000/svg" xmlns:xlink="http://www.w3.org/1999/xlink" x="0px" y="0px"
	 viewBox="0 0 512 512" style="enable-background:new 0 0 512 512;" xml:space="preserve">
<title>ionicons-v5-l</title>
<g>
	<path d="M176,336h-32V48c0-5.5,2.9-10.7,7.6-13.6c4.7-2.9,10.6-3.2,15.6-0.7L192,46.1l24.8-12.4c4.5-2.3,9.8-2.3,14.3,0L256,46.1
		l25.2-12.5c4.5-2.2,9.8-2.2,14.3,0.1L320,46.1l24.6-12.4c4.5-2.3,9.8-2.3,14.4,0l24.8,12.4l25.1-12.5c4.5-2.2,9.8-2.2,14.3,0
		L448,46.1l24.8-12.4c5-2.5,10.9-2.2,15.6,0.7S496,42.5,496,48v224h-32V73.9l-8.8,4.4c-4.5,2.3-9.8,2.3-14.3,0L416,65.9l-25.1,12.5
		c-4.5,2.2-9.8,2.2-14.3,0l-24.7-12.4l-24.6,12.4c-4.5,2.3-9.9,2.3-14.4,0l-24.6-12.4L263,78.3c-4.5,2.2-9.8,2.2-14.3,0L224,65.9
		l-24.8,12.4c-4.5,2.3-9.8,2.3-14.3,0l-8.8-4.4V336z"/>
</g>
<g>
	<path d="M400,480H112c-40.1,0-66.8-13.2-81.5-40.4c-12-22.1-14.5-51-14.5-87.6c0-0.2,0-0.3,0-0.5c0.1-8.5,3.5-16.5,9.5-22.4
		c6-5.9,13.9-9.1,22.3-9.1c0.1,0,0.1,0,0.2,0H320c8.8,0,16,7.2,16,16v48c0,35.3,28.7,64,64,64s64-28.7,64-64V272h32v112
		C496,436.9,452.9,480,400,480z M48,352c0,31.7,1.8,56.2,10.6,72.4C69.9,445.3,93.1,448,112,448h216.5c-15.2-17-24.5-39.4-24.5-64
		v-32H48z"/>
</g>
<g>
	<path d="M416,160H224c-8.8,0-16-7.2-16-16s7.2-16,16-16h192c8.8,0,16,7.2,16,16S424.8,160,416,160z"/>
</g>
<g>
	<path d="M416,240H288c-8.8,0-16-7.2-16-16s7.2-16,16-16h128c8.8,0,16,7.2,16,16S424.8,240,416,240z"/>
</g>
</svg>
