<?xml version="1.0" encoding="utf-8"?>
<!-- Generator: Adobe Illustrator 24.0.0, SVG Export Plug-In . SVG Version: 6.00 Build 0)  -->
<svg version="1.1" id="Layer_1" xmlns="http://www.w3.org/2000/svg" xmlns:xlink="http://www.w3.org/1999/xlink" x="0px" y="0px"
	 viewBox="0 0 512 512" style="enable-background:new 0 0 512 512;" xml:space="preserve">
<title>ionicons-v5-b</title>
<g>
	<path d="M256,470c-97,0-176-79-176-176s79-176,176-176c25.6,0,44,1,56.3,2.9c6.9,1.1,23.1,3.7,26.3,17.5c2,8.7-2.6,17.5-11.5,21.9
		c-7.9,3.9-17.5,0.6-21.4-7.3c-0.1-0.3-0.3-0.6-0.4-0.8c-7.7-1.1-22.3-2.2-49.3-2.2c-79.4,0-144,64.6-144,144
		c0,79.4,64.6,144,144,144c79.4,0,144-64.6,144-144c0-8.8,7.2-16,16-16s16,7.2,16,16C432,391,353,470,256,470z"/>
</g>
<g>
	<path d="M256,234c-4.1,0-8.2-1.6-11.3-4.7c-6.2-6.2-6.2-16.4,0-22.6l68.7-68.7l-68.7-68.7c-6.2-6.2-6.2-16.4,0-22.6
		c6.2-6.2,16.4-6.2,22.6,0l80,80c6.2,6.2,6.2,16.4,0,22.6l-80,80C264.2,232.4,260.1,234,256,234z"/>
</g>
</svg>
