<?xml version="1.0" encoding="utf-8"?>
<!-- Generator: Adobe Illustrator 24.0.0, SVG Export Plug-In . SVG Version: 6.00 Build 0)  -->
<svg version="1.1" id="Layer_1" xmlns="http://www.w3.org/2000/svg" xmlns:xlink="http://www.w3.org/1999/xlink" x="0px" y="0px"
	 viewBox="0 0 512 512" style="enable-background:new 0 0 512 512;" xml:space="preserve">
<title>ionicons-v5-b</title>
<g>
	<path d="M256,470c-97,0-176-79-176-176s79-176,176-176c25.6,0,44,1,56.3,2.9c6.9,1.1,23.1,3.7,26.3,17.5c2,8.7-2.6,17.5-11.5,21.9
		l-14.4,7.1l-7.5-15.2c-7.7-1.1-22.3-2.2-49.2-2.2c-79.4,0-144,64.6-144,144c0,79.4,64.6,144,144,144c79.4,0,144-64.6,144-144v-16
		h32v16C432,391,353,470,256,470z"/>
</g>
<g>
	<polygon points="256,240.6 233.4,218 313.4,138 233.4,58 256,35.4 358.6,138 	"/>
</g>
</svg>
