<?xml version="1.0" encoding="utf-8"?>
<!-- Generator: Adobe Illustrator 24.0.0, SVG Export Plug-In . SVG Version: 6.00 Build 0)  -->
<svg version="1.1" id="Layer_1" xmlns="http://www.w3.org/2000/svg" xmlns:xlink="http://www.w3.org/1999/xlink" x="0px" y="0px"
	 viewBox="0 0 512 512" style="enable-background:new 0 0 512 512;" xml:space="preserve">
<title>ionicons-v5-b</title>
<g>
	<path d="M256,361c-51.8,0-94-42.2-94-94c0-51.8,42.2-94,94-94c27.2,0,43.9,1,47.1,14.9c1.7,7.1-1.9,14.2-9,17.7
		c-6,3-13.1,1.2-17.1-3.8c-3.9-0.4-10.5-0.7-21.1-0.7c-36.4,0-66,29.6-66,66s29.6,66,66,66s66-29.6,66-66c0-7.7,6.3-14,14-14
		s14,6.3,14,14C350,318.8,307.8,361,256,361z M281.8,180.4C281.8,180.4,281.8,180.4,281.8,180.4
		C281.8,180.4,281.8,180.4,281.8,180.4z"/>
</g>
<g>
	<path d="M256,243c-3.6,0-7.2-1.4-9.9-4.1c-5.5-5.5-5.5-14.3,0-19.8l30.1-30.1l-30.1-30.1c-5.5-5.5-5.5-14.3,0-19.8
		c5.5-5.5,14.3-5.5,19.8,0l40,40c5.5,5.5,5.5,14.3,0,19.8l-40,40C263.2,241.6,259.6,243,256,243z"/>
</g>
<g>
	<path d="M256,464c-114.7,0-208-93.3-208-208S141.3,48,256,48s208,93.3,208,208S370.7,464,256,464z M256,80c-97,0-176,79-176,176
		s79,176,176,176s176-79,176-176S353,80,256,80z"/>
</g>
</svg>
