<?xml version="1.0" encoding="utf-8"?>
<!-- Generator: Adobe Illustrator 24.0.0, SVG Export Plug-In . SVG Version: 6.00 Build 0)  -->
<svg version="1.1" id="Layer_1" xmlns="http://www.w3.org/2000/svg" xmlns:xlink="http://www.w3.org/1999/xlink" x="0px" y="0px"
	 viewBox="0 0 512 512" style="enable-background:new 0 0 512 512;" xml:space="preserve">
<title>ionicons-v5-b</title>
<g>
	<path d="M256,464c-114.7,0-208-93.3-208-208S141.3,48,256,48s208,93.3,208,208S370.7,464,256,464z M256,80c-97,0-176,79-176,176
		s79,176,176,176s176-79,176-176S353,80,256,80z"/>
</g>
<g>
	<path d="M255.4,375.3c-31.5,0-62.9-12.3-86.3-36.9c-45.5-47.6-43.7-123.3,3.9-168.8c47.6-45.5,123.3-43.7,168.8,3.9l0.6,0.6
		l11.4,13.2c5.8,6.7,5,16.8-1.7,22.6c-6.7,5.8-16.8,5-22.6-1.7l-11.1-12.9c-33.3-34.6-88.5-35.7-123.2-2.5
		c-34.8,33.3-36.1,88.7-2.8,123.5c33.3,34.8,88.7,36.1,123.5,2.8c9.9-9.4,17.5-21.2,22-34.1c2.9-8.3,12.1-12.7,20.4-9.8
		c8.3,2.9,12.7,12.1,9.8,20.4c-6.2,17.6-16.6,33.7-30.1,46.5C314.8,364.4,285.1,375.3,255.4,375.3z"/>
</g>
<g>
	<path d="M367.3,162c-2.3,0-4.4,0.9-6,2.5l-59.5,59.5c-3.4,3.4-3.4,8.8,0,12.2c1.6,1.6,3.8,2.5,6.1,2.5h59.5c4.8,0,8.6-3.9,8.6-8.6
		v-59.6c0-4.8-3.8-8.6-8.6-8.6C367.4,162,367.4,162,367.3,162L367.3,162z"/>
</g>
</svg>
