<?xml version="1.0" encoding="utf-8"?>
<!-- Generator: Adobe Illustrator 24.0.0, SVG Export Plug-In . SVG Version: 6.00 Build 0)  -->
<svg version="1.1" id="Layer_1" xmlns="http://www.w3.org/2000/svg" xmlns:xlink="http://www.w3.org/1999/xlink" x="0px" y="0px"
	 viewBox="0 0 512 512" style="enable-background:new 0 0 512 512;" xml:space="preserve">
<title>ionicons-v5-b</title>
<g>
	<path d="M240,464c-114.7,0-208-93.3-208-208S125.3,48,240,48c0.1,0,0.2,0,0.3,0c56.5,0,111.2,23.5,150.2,64.4l0.5,0.6l31.5,36.7
		l-24.3,20.9L367,134.2C334.1,99.7,287.9,80,240.2,80c-0.1,0-0.1,0-0.2,0C143,80,64,159,64,256s79,176,176,176
		c74.4,0,141.1-47.2,166-117.3l5.3-15.1l30.2,10.7l-5.3,15.1C406.8,408.3,328,464,240,464z"/>
</g>
<g>
	<path d="M464,68.4V220c0,2.2-1.8,4-4,4H308.5c-2.2,0-4-1.8-4-4c0-1.1,0.4-2.1,1.2-2.8L457.2,65.6c1.6-1.6,4.1-1.6,5.7,0
		C463.6,66.4,464,67.4,464,68.4z"/>
</g>
</svg>
