<?xml version="1.0" encoding="utf-8"?>
<!-- Generator: Adobe Illustrator 24.0.0, SVG Export Plug-In . SVG Version: 6.00 Build 0)  -->
<svg version="1.1" id="Layer_1" xmlns="http://www.w3.org/2000/svg" xmlns:xlink="http://www.w3.org/1999/xlink" x="0px" y="0px"
	 viewBox="0 0 512 512" style="enable-background:new 0 0 512 512;" xml:space="preserve">
<title>ionicons-v5-b</title>
<g>
	<path d="M240,464c-114.7,0-208-93.3-208-208S125.3,48,240,48c0.1,0,0.2,0,0.3,0c56.5,0,111.2,23.5,150.2,64.4l0.5,0.6l21.1,24.6
		c5.8,6.7,5,16.8-1.7,22.6c-6.7,5.8-16.8,5-22.6-1.7L367,134.2C334.1,99.7,287.9,80,240.2,80c-0.1,0-0.1,0-0.2,0
		C143,80,64,159,64,256s79,176,176,176c74.4,0,141.1-47.2,166-117.3c2.9-8.3,12.1-12.7,20.4-9.7c8.3,2.9,12.7,12.1,9.7,20.4
		C406.8,408.3,328,464,240,464z"/>
</g>
<g>
	<path d="M464,97.4V208c0,8.8-7.2,16-16,16H337.4c-14.3,0-21.4-17.2-11.3-27.3L436.7,86.1C446.8,76,464,83.2,464,97.4z"/>
</g>
</svg>
