<?xml version="1.0" encoding="utf-8"?>
<!-- Generator: Adobe Illustrator 24.0.0, SVG Export Plug-In . SVG Version: 6.00 Build 0)  -->
<svg version="1.1" id="Layer_1" xmlns="http://www.w3.org/2000/svg" xmlns:xlink="http://www.w3.org/1999/xlink" x="0px" y="0px"
	 viewBox="0 0 512 512" style="enable-background:new 0 0 512 512;" xml:space="preserve">
<title>ionicons-v5-p</title>
<g>
	<path d="M416,320H96c-8.8,0-16-7.2-16-16s7.2-16,16-16h320c8.8,0,16,7.2,16,16S424.8,320,416,320z"/>
</g>
<g>
	<path d="M416,224H96c-8.8,0-16-7.2-16-16s7.2-16,16-16h320c8.8,0,16,7.2,16,16S424.8,224,416,224z"/>
</g>
<g>
	<path d="M416,128H96c-8.8,0-16-7.2-16-16s7.2-16,16-16h320c8.8,0,16,7.2,16,16S424.8,128,416,128z"/>
</g>
<g>
	<path d="M416,416H96c-8.8,0-16-7.2-16-16s7.2-16,16-16h320c8.8,0,16,7.2,16,16S424.8,416,416,416z"/>
</g>
</svg>
