<?xml version="1.0" encoding="utf-8"?>
<!-- Generator: Adobe Illustrator 24.0.0, SVG Export Plug-In . SVG Version: 6.00 Build 0)  -->
<svg version="1.1" id="Layer_1" xmlns="http://www.w3.org/2000/svg" xmlns:xlink="http://www.w3.org/1999/xlink" x="0px" y="0px"
	 viewBox="0 0 512 512" style="enable-background:new 0 0 512 512;" xml:space="preserve">
<title>ionicons-v5-p</title>
<g>
	<path d="M410,278H102c-12.2,0-22-9.8-22-22s9.8-22,22-22h308c12.2,0,22,9.8,22,22S422.2,278,410,278z"/>
</g>
<g>
	<path d="M410,198H102c-12.2,0-22-9.8-22-22s9.8-22,22-22h308c12.2,0,22,9.8,22,22S422.2,198,410,198z"/>
</g>
<g>
	<path d="M410,358H102c-12.2,0-22-9.8-22-22s9.8-22,22-22h308c12.2,0,22,9.8,22,22S422.2,358,410,358z"/>
</g>
</svg>
