<?xml version="1.0" encoding="utf-8"?>
<!-- Generator: Adobe Illustrator 24.0.0, SVG Export Plug-In . SVG Version: 6.00 Build 0)  -->
<svg version="1.1" id="Layer_1" xmlns="http://www.w3.org/2000/svg" xmlns:xlink="http://www.w3.org/1999/xlink" x="0px" y="0px"
	 viewBox="0 0 512 512" style="enable-background:new 0 0 512 512;" xml:space="preserve">
<title>ionicons-v5-p</title>
<g>
	<path d="M410,326H102c-12.2,0-22-9.8-22-22s9.8-22,22-22h308c12.2,0,22,9.8,22,22S422.2,326,410,326z"/>
</g>
<g>
	<path d="M410,230H102c-12.2,0-22-9.8-22-22s9.8-22,22-22h308c12.2,0,22,9.8,22,22S422.2,230,410,230z"/>
</g>
<g>
	<path d="M410,134H102c-12.2,0-22-9.8-22-22s9.8-22,22-22h308c12.2,0,22,9.8,22,22S422.2,134,410,134z"/>
</g>
<g>
	<path d="M410,422H102c-12.2,0-22-9.8-22-22s9.8-22,22-22h308c12.2,0,22,9.8,22,22S422.2,422,410,422z"/>
</g>
</svg>
