<?xml version="1.0" encoding="utf-8"?>
<!-- Generator: Adobe Illustrator 24.0.0, SVG Export Plug-In . SVG Version: 6.00 Build 0)  -->
<svg version="1.1" id="Layer_1" xmlns="http://www.w3.org/2000/svg" xmlns:xlink="http://www.w3.org/1999/xlink" x="0px" y="0px"
	 viewBox="0 0 512 512" style="enable-background:new 0 0 512 512;" xml:space="preserve">
<title>ionicons-v5-c</title>
<g>
	<path d="M320,232c-4.1,0-8.2-1.6-11.3-4.7c-6.2-6.2-6.2-16.4,0-22.6l36.7-36.7l-36.7-36.7c-6.2-6.2-6.2-16.4,0-22.6
		c6.2-6.2,16.4-6.2,22.6,0l48,48c6.2,6.2,6.2,16.4,0,22.6l-48,48C328.2,230.4,324.1,232,320,232z"/>
</g>
<g>
	<path d="M64,280c-8.8,0-16-7.2-16-16v-16c0.2-52.8,43.2-95.8,96-96h208c8.8,0,16,7.2,16,16s-7.2,16-16,16H144
		c-35.2,0.1-63.9,28.8-64,64v16C80,272.8,72.8,280,64,280z"/>
</g>
<g>
	<path d="M192,408c-4.1,0-8.2-1.6-11.3-4.7l-48-48c-6.2-6.2-6.2-16.4,0-22.6l48-48c6.2-6.2,16.4-6.2,22.6,0c6.2,6.2,6.2,16.4,0,22.6
		L166.6,344l36.7,36.7c6.2,6.2,6.2,16.4,0,22.6C200.2,406.4,196.1,408,192,408z"/>
</g>
<g>
	<path d="M160,360c-8.8,0-16-7.2-16-16s7.2-16,16-16h208c35.2-0.1,63.9-28.8,64-64v-16c0-8.8,7.2-16,16-16s16,7.2,16,16v16
		c-0.2,52.8-43.2,95.8-96,96H160z"/>
</g>
</svg>
