<?xml version="1.0" encoding="utf-8"?>
<!-- Generator: Adobe Illustrator 24.0.0, SVG Export Plug-In . SVG Version: 6.00 Build 0)  -->
<svg version="1.1" id="Layer_1" xmlns="http://www.w3.org/2000/svg" xmlns:xlink="http://www.w3.org/1999/xlink" x="0px" y="0px"
	 viewBox="0 0 512 512" style="enable-background:new 0 0 512 512;" xml:space="preserve">
<title>ionicons-v5-c</title>
<g>
	<path d="M416,224c-8.8,0-16-7.2-16-16v-96h-96c-8.8,0-16-7.2-16-16s7.2-16,16-16h112c8.8,0,16,7.2,16,16v112
		C432,216.8,424.8,224,416,224z"/>
</g>
<g>
	<path d="M112,416c-4.1,0-8.2-1.6-11.3-4.7c-6.2-6.2-6.2-16.4,0-22.6L394.5,94.9c6.2-6.2,16.4-6.2,22.6,0c6.2,6.2,6.2,16.4,0,22.6
		L123.3,411.3C120.2,414.5,116.1,416,112,416z"/>
</g>
<g>
	<path d="M208,432H96c-8.8,0-16-7.2-16-16V304c0-8.8,7.2-16,16-16s16,7.2,16,16v96h96c8.8,0,16,7.2,16,16S216.8,432,208,432z"/>
</g>
</svg>
