<?xml version="1.0" encoding="utf-8"?>
<!-- Generator: Adobe Illustrator 24.0.0, SVG Export Plug-In . SVG Version: 6.00 Build 0)  -->
<svg version="1.1" id="Layer_1" xmlns="http://www.w3.org/2000/svg" xmlns:xlink="http://www.w3.org/1999/xlink" x="0px" y="0px"
	 viewBox="0 0 512 512" style="enable-background:new 0 0 512 512;" xml:space="preserve">
<title>ionicons-v5-p</title>
<g>
	<path d="M399.6,495.8c-13.6,0-27.3-5.2-37.7-15.6c0,0-0.1-0.1-0.1-0.1l-90-91.5c-8.9-9-13.8-21-13.8-33.6v-5.5
		c0-4.2-1.7-8.3-4.6-11.2L242,327.6c-4-3.7-9.6-5.1-14.9-3.7c-22.1,5.8-45.8-0.7-61.9-16.8l-85.4-85.4C44.6,186.6,22.9,139,23,97.6
		c0.1-25.1,8.1-46.2,23.2-61.2c6.3-6.2,16.3-6.2,22.6,0.1l368.4,368.4c20.8,20.8,20.8,54.6,0,75.3
		C426.8,490.6,413.2,495.8,399.6,495.8z M384.6,457.6c8.3,8.2,21.8,8.2,30.1,0c8.3-8.3,8.3-21.8,0-30.1L59.7,72.6
		C56,81.2,55,90.4,55,97.7c-0.1,32.7,18.5,72.5,47.4,101.3l85.4,85.4c8.1,8.1,20.1,11.4,31.2,8.5c15.9-4.2,32.6,0,44.7,11.2
		l11.6,10.7c0.1,0.1,0.3,0.2,0.4,0.4c9.1,9,14.3,21.4,14.3,34.2v5.5c0,4.2,1.6,8.2,4.6,11.2L384.6,457.6z"/>
</g>
<g>
	<path d="M288,208c-4.1,0-8.2-1.6-11.3-4.7c-6.2-6.2-6.2-16.4,0-22.6l11.3-11.3l0-14.9c0-21.4,8.3-41.5,23.4-56.6l77.2-77.2
		c6.2-6.2,16.4-6.2,22.6,0c6.2,6.2,6.2,16.4,0,22.6l-77.2,77.2c-9.1,9.1-14.1,21.1-14.1,33.9v14.9c0,8.6-3.3,16.6-9.4,22.6
		l-11.3,11.3C296.2,206.4,292.1,208,288,208z"/>
</g>
<g>
	<path d="M320,240c-4.1,0-8.2-1.6-11.3-4.7c-6.2-6.2-6.2-16.4,0-22.6l11.3-11.3c6-6,14.1-9.4,22.6-9.4c0,0,0,0,0,0h14.9
		c12.8,0,24.9-5,33.9-14.1l77.3-77.3c6.2-6.2,16.4-6.2,22.6,0c6.2,6.2,6.2,16.4,0,22.6l-77.2,77.2C399,215.7,378.9,224,357.5,224
		h-14.9l-11.3,11.3C328.2,238.4,324.1,240,320,240z"/>
</g>
<g>
	<path d="M360,168c-4.1,0-8.2-1.6-11.3-4.7c-6.2-6.2-6.2-16.4,0-22.6l80-80c6.2-6.2,16.4-6.2,22.6,0c6.2,6.2,6.2,16.4,0,22.6l-80,80
		C368.2,166.4,364.1,168,360,168z"/>
</g>
<g>
	<path d="M72,496c-14.3,0-28.7-5.5-39.6-16.4c-21.8-21.8-21.8-57.4,0-79.2l84.3-83.8c6.3-6.2,16.4-6.2,22.6,0.1
		c6.2,6.3,6.2,16.4-0.1,22.6L55,423.1c-9.3,9.3-9.3,24.5,0,33.9c9.4,9.4,24.6,9.4,33.9,0l99.7-100.2c6.2-6.3,16.4-6.3,22.6-0.1
		c6.3,6.2,6.3,16.4,0.1,22.6l-99.7,100.3C100.7,490.5,86.3,496,72,496z"/>
</g>
</svg>
