<?xml version="1.0" encoding="utf-8"?>
<!-- Generator: Adobe Illustrator 24.0.0, SVG Export Plug-In . SVG Version: 6.00 Build 0)  -->
<svg version="1.1" id="Layer_1" xmlns="http://www.w3.org/2000/svg" xmlns:xlink="http://www.w3.org/1999/xlink" x="0px" y="0px"
	 viewBox="0 0 512 512" style="enable-background:new 0 0 512 512;" xml:space="preserve">
<title>ionicons-v5-c</title>
<g>
	<path d="M400,304c-4.1,0-8.2-1.6-11.3-4.7c-6.2-6.2-6.2-16.4,0-22.6l52.7-52.7l-52.7-52.7c-6.2-6.2-6.2-16.4,0-22.6
		c6.2-6.2,16.4-6.2,22.6,0l64,64c6.2,6.2,6.2,16.4,0,22.6l-64,64C408.2,302.4,404.1,304,400,304z"/>
</g>
<g>
	<path d="M48,368c-8.8,0-16-7.2-16-16v-20c0-32.7,12.6-63.7,35.5-87.2C90.6,221.1,121.4,208,154,208h294c8.8,0,16,7.2,16,16
		s-7.2,16-16,16H154c-23.9,0-46.5,9.6-63.6,27.2C73.4,284.7,64,307.7,64,332v20C64,360.8,56.8,368,48,368z"/>
</g>
</svg>
