<?xml version="1.0" encoding="utf-8"?>
<!-- Generator: Adobe Illustrator 24.0.0, SVG Export Plug-In . SVG Version: 6.00 Build 0)  -->
<svg version="1.1" id="Layer_1" xmlns="http://www.w3.org/2000/svg" xmlns:xlink="http://www.w3.org/1999/xlink" x="0px" y="0px"
	 viewBox="0 0 512 512" style="enable-background:new 0 0 512 512;" xml:space="preserve">
<title>ionicons-v5-c</title>
<g>
	<path d="M400,368c-4.1,0-8.2-1.6-11.3-4.7c-6.2-6.2-6.2-16.4,0-22.6l52.7-52.7l-52.7-52.7c-6.2-6.2-6.2-16.4,0-22.6
		c6.2-6.2,16.4-6.2,22.6,0l64,64c6.2,6.2,6.2,16.4,0,22.6l-64,64C408.2,366.4,404.1,368,400,368z"/>
</g>
<g>
	<path d="M448,304H154c-32.6,0-63.4-13.1-86.5-36.8C44.6,243.7,32,212.7,32,180v-20c0-8.8,7.2-16,16-16s16,7.2,16,16v20
		c0,24.3,9.4,47.3,26.4,64.8c17.1,17.5,39.6,27.2,63.6,27.2h294c8.8,0,16,7.2,16,16S456.8,304,448,304z"/>
</g>
</svg>
