<?xml version="1.0" encoding="utf-8"?>
<!-- Generator: Adobe Illustrator 24.0.0, SVG Export Plug-In . SVG Version: 6.00 Build 0)  -->
<svg version="1.1" id="Layer_1" xmlns="http://www.w3.org/2000/svg" xmlns:xlink="http://www.w3.org/1999/xlink" x="0px" y="0px"
	 viewBox="0 0 512 512" style="enable-background:new 0 0 512 512;" xml:space="preserve">
<title>ionicons-v5-p</title>
<g>
	<path d="M256,304c-79.4,0-144-64.6-144-144S176.6,16,256,16c79.4,0,144,64.6,144,144S335.4,304,256,304z M256,48
		c-61.8,0-112,50.2-112,112s50.2,112,112,112s112-50.2,112-112S317.8,48,256,48z"/>
</g>
<g>
	<path d="M192,496c-5.6,0-10.8-2.9-13.7-7.8l-43.3-72.6L48.1,416c0,0-0.1,0-0.1,0c-5.7,0-10.9-3-13.8-7.9c-2.9-4.9-3-10.9-0.2-15.9
		L129.7,220c4.3-7.7,14-10.5,21.8-6.2c7.7,4.3,10.5,14,6.2,21.8L75.3,383.9l59.5-0.3c11.3,0,21.9,5.9,27.6,15.6l27.7,46.4
		l75.7-166.5c3.7-8,13.1-11.6,21.2-7.9c8,3.7,11.6,13.1,7.9,21.2l-88.3,194.3c-2.5,5.4-7.7,9-13.7,9.4C192.6,496,192.3,496,192,496z
		"/>
</g>
<g>
	<path d="M320,496c-0.3,0-0.6,0-0.9,0c-5.9-0.3-11.2-3.9-13.7-9.4l-64-140.8c-3.7-8-0.1-17.5,7.9-21.2c8-3.7,17.5-0.1,21.2,7.9
		l51.4,113l27.7-46.4c5.8-9.6,16.3-15.6,27.5-15.6c0.1,0,0.1,0,0.2,0l59.6,0.3l-84.2-152.1c-4.3-7.7-1.5-17.5,6.2-21.7
		c7.7-4.3,17.5-1.5,21.7,6.2l97.5,176c2.8,5,2.7,11-0.2,15.9c-2.9,4.9-8.1,7.8-13.8,7.8c0,0-0.1,0-0.1,0l-86.9-0.4l-43.3,72.6
		C330.8,493.1,325.6,496,320,496z"/>
</g>
<g>
	<path d="M256,240c-44.1,0-80-35.9-80-80s35.9-80,80-80s80,35.9,80,80S300.1,240,256,240z M256,112c-26.5,0-48,21.5-48,48
		s21.5,48,48,48c26.5,0,48-21.5,48-48S282.5,112,256,112z"/>
</g>
</svg>
