<?xml version="1.0" encoding="utf-8"?>
<!-- Generator: Adobe Illustrator 24.0.0, SVG Export Plug-In . SVG Version: 6.00 Build 0)  -->
<svg version="1.1" id="Layer_1" xmlns="http://www.w3.org/2000/svg" xmlns:xlink="http://www.w3.org/1999/xlink" x="0px" y="0px"
	 viewBox="0 0 512 512" style="enable-background:new 0 0 512 512;" xml:space="preserve">
<title>ionicons-v5-p</title>
<g>
	<path d="M206.1,479.8c-0.8,0-1.7,0-2.5-0.1c-13.7-1.4-23.7-13.7-22.4-27.4c0,0,0-0.1,0-0.1l7-64.2c-0.7-0.1-1.4-0.1-2.1-0.2
		c-7.9-0.8-15.2-4.3-20.8-10l-31.3-31.3c-5.5-5.5-9.1-12.9-9.9-20.7c-0.1-0.8-0.2-1.5-0.2-2.3l-64.3,7.1c0,0-0.1,0-0.1,0
		c-2.2,0.2-4.4,0.2-6.6-0.2c-6.6-1.1-12.4-4.6-16.3-10.1c-3.9-5.4-5.5-12-4.4-18.6c4.4-26.8,20.9-91.8,78.6-117.1
		c16.6-7.2,36.2-10.4,58.6-9.4c9-12,18.9-23.3,29.5-33.9c33.1-33.1,82.2-64.1,134.5-85.1c51.9-20.8,98.8-28.5,128.6-21.3
		c7.6,1.8,13.5,7.9,15.2,15.5c7.1,30.9-0.7,78.1-21.4,129.3c-20.8,51.6-51.9,100.2-85.3,133.4c-10.5,10.6-21.9,20.5-34,29.5
		c0.9,22.3-2.3,41.9-9.5,58.3c-25.4,58-90.4,74.3-117.2,78.6C208.8,479.7,207.5,479.8,206.1,479.8z M139,289.7c3.9,0,7.7,1.4,10.6,4
		c3.4,3,5.3,7.3,5.4,11.8c0.1,5.5,0.4,11.2,1,16.7c0,0.1,0,0.1,0,0.2c0,0.5,0.3,1,0.6,1.3l31.5,31.5c0.4,0.4,0.9,0.6,1.4,0.7
		c0.1,0,0.1,0,0.2,0c5.5,0.6,11,0.9,16.6,1c4.5,0,8.8,2,11.8,5.4c3,3.4,4.4,7.9,3.9,12.4l-7.9,71.5c24.7-5.3,67.1-19.8,83.9-58.1
		c6-13.7,8.1-31.2,6.3-51.9c-0.5-5.7,2.1-11.2,6.7-14.5c13.2-9.3,25.7-19.8,37.1-31.3c63.4-63.1,105.5-172.7,99.4-225.8
		c-23.8-2.7-61.7,5.1-101.9,21.1c-48.5,19.4-93.6,47.9-123.9,78.1c-11.5,11.4-22,23.8-31.3,37c-3.3,4.7-8.8,7.2-14.5,6.7
		c-20.8-1.9-38.3,0.2-52,6.2c-38.1,16.7-52.7,59.1-58.1,83.9l71.6-7.9C137.8,289.8,138.4,289.7,139,289.7z M446.1,57.1
		C446.1,57.1,446.1,57.1,446.1,57.1C446.1,57.1,446.1,57.1,446.1,57.1z M328.8,242.2c-15,0-30-5.7-41.4-17.1c0,0-0.1-0.1-0.1-0.1
		c-11.1-11.1-17.2-25.8-17.2-41.5c0-15.7,6.1-30.4,17.2-41.5c11.1-11.1,25.8-17.2,41.5-17.2c0,0,0,0,0,0c15.7,0,30.4,6.1,41.5,17.2
		c11.1,11.1,17.2,25.8,17.2,41.5c0,15.7-6.1,30.4-17.2,41.5c0,0,0,0,0,0C358.9,236.4,343.9,242.2,328.8,242.2z M328.8,156.8
		c-7.1,0-13.8,2.8-18.9,7.8c-5,5-7.8,11.7-7.8,18.9c0,7.1,2.8,13.8,7.8,18.9c0,0,0,0,0,0c0,0,0.1,0.1,0.1,0.1
		c10.4,10.3,27.3,10.3,37.6-0.1c0,0,0,0,0,0c5-5,7.8-11.7,7.8-18.9c0-7.1-2.8-13.8-7.8-18.9S336,156.8,328.8,156.8z"/>
</g>
<g>
	<path d="M64,464c-4.2,0-8.3-1.7-11.3-4.7c-3.1-3.1-4.8-7.3-4.7-11.7c0-0.7,0.5-17.5,3.2-36.8c6-42.4,17.1-53.6,20.8-57.3
		c9.6-9.6,22.3-15.8,35.7-17.4c8.8-1.1,16.8,5.2,17.8,13.9s-5.2,16.8-13.9,17.8c-6.4,0.8-12.4,3.7-17,8.3
		c-6.3,6.3-11.4,30.7-13.6,54.8c24.2-2.2,48.5-7.3,54.8-13.6c4.6-4.6,7.5-10.6,8.3-17c1.1-8.8,9-15,17.8-14c8.8,1.1,15,9,14,17.8
		c-1.6,13.5-7.8,26.2-17.4,35.8c-3.6,3.6-14.8,14.8-57.2,20.8c-19.3,2.7-36.1,3.2-36.8,3.2C64.3,464,64.1,464,64,464z"/>
</g>
</svg>
