<?xml version="1.0" encoding="UTF-8" standalone="no"?>
<svg
   xmlns:dc="http://purl.org/dc/elements/1.1/"
   xmlns:cc="http://creativecommons.org/ns#"
   xmlns:rdf="http://www.w3.org/1999/02/22-rdf-syntax-ns#"
   xmlns:svg="http://www.w3.org/2000/svg"
   xmlns="http://www.w3.org/2000/svg"
   xmlns:sodipodi="http://sodipodi.sourceforge.net/DTD/sodipodi-0.dtd"
   xmlns:inkscape="http://www.inkscape.org/namespaces/inkscape"
   class="ionicon"
   viewBox="0 0 512 512"
   version="1.1"
   id="svg10"
   sodipodi:docname="rocket.svg"
   inkscape:version="1.0.2 (e86c8708, 2021-01-15)">
  <metadata
     id="metadata16">
    <rdf:RDF>
      <cc:Work
         rdf:about="">
        <dc:format>image/svg+xml</dc:format>
        <dc:type
           rdf:resource="http://purl.org/dc/dcmitype/StillImage" />
      </cc:Work>
    </rdf:RDF>
  </metadata>
  <defs
     id="defs14" />
  <sodipodi:namedview
     pagecolor="#ffffff"
     bordercolor="#666666"
     borderopacity="1"
     objecttolerance="10"
     gridtolerance="10"
     guidetolerance="10"
     inkscape:pageopacity="0"
     inkscape:pageshadow="2"
     inkscape:window-width="689"
     inkscape:window-height="480"
     id="namedview12"
     showgrid="false"
     inkscape:zoom="1.3027344"
     inkscape:cx="256"
     inkscape:cy="256"
     inkscape:window-x="44"
     inkscape:window-y="25"
     inkscape:window-maximized="0"
     inkscape:current-layer="svg10" />
  <title
     id="title2">Rocket</title>
  <path
     style="color:#000000;font-style:normal;font-variant:normal;font-weight:normal;font-stretch:normal;font-size:medium;line-height:normal;font-family:sans-serif;font-variant-ligatures:normal;font-variant-position:normal;font-variant-caps:normal;font-variant-numeric:normal;font-variant-alternates:normal;font-variant-east-asian:normal;font-feature-settings:normal;font-variation-settings:normal;text-indent:0;text-align:start;text-decoration:none;text-decoration-line:none;text-decoration-style:solid;text-decoration-color:#000000;letter-spacing:normal;word-spacing:normal;text-transform:none;writing-mode:lr-tb;direction:ltr;text-orientation:mixed;dominant-baseline:auto;baseline-shift:baseline;text-anchor:start;white-space:normal;shape-padding:0;shape-margin:0;inline-size:0;clip-rule:nonzero;display:inline;overflow:visible;visibility:visible;isolation:auto;mix-blend-mode:normal;color-interpolation:sRGB;color-interpolation-filters:linearRGB;solid-color:#000000;solid-opacity:1;vector-effect:none;fill:#000000;fill-opacity:1;fill-rule:nonzero;stroke-width:1;stroke-linecap:butt;stroke-linejoin:miter;stroke-miterlimit:4;stroke-dasharray:none;stroke-dashoffset:0;stroke-opacity:1;color-rendering:auto;image-rendering:auto;shape-rendering:auto;text-rendering:auto;enable-background:accumulate;stop-color:#000000;stop-opacity:1;stroke:none;opacity:1"
     d="m 328.85,156.79 c -12.73268,0.007 -23.68766,9.00732 -26.16448,21.49509 -2.47678,12.48762 4.21453,24.98366 15.97992,29.85059 11.76539,4.86693 25.32905,0.74967 32.39786,-9.83838 7.06891,-10.58819 5.67356,-24.69743 -3.3333,-33.6973 -5.00271,-5.01287 -11.79792,-7.82381 -18.88,-7.81 z"
     id="path4" />
  <path
     style="color:#000000;font-style:normal;font-variant:normal;font-weight:normal;font-stretch:normal;font-size:medium;line-height:normal;font-family:sans-serif;font-variant-ligatures:normal;font-variant-position:normal;font-variant-caps:normal;font-variant-numeric:normal;font-variant-alternates:normal;font-variant-east-asian:normal;font-feature-settings:normal;font-variation-settings:normal;text-indent:0;text-align:start;text-decoration:none;text-decoration-line:none;text-decoration-style:solid;text-decoration-color:#000000;letter-spacing:normal;word-spacing:normal;text-transform:none;writing-mode:lr-tb;direction:ltr;text-orientation:mixed;dominant-baseline:auto;baseline-shift:baseline;text-anchor:start;white-space:normal;shape-padding:0;shape-margin:0;inline-size:0;clip-rule:nonzero;display:inline;overflow:visible;visibility:visible;isolation:auto;mix-blend-mode:normal;color-interpolation:sRGB;color-interpolation-filters:linearRGB;solid-color:#000000;solid-opacity:1;vector-effect:none;fill:#000000;fill-opacity:1;fill-rule:nonzero;stroke-width:1;stroke-linecap:butt;stroke-linejoin:miter;stroke-miterlimit:4;stroke-dasharray:none;stroke-dashoffset:0;stroke-opacity:1;color-rendering:auto;image-rendering:auto;shape-rendering:auto;text-rendering:auto;enable-background:accumulate;stop-color:#000000;stop-opacity:1;stroke:none;opacity:1"
     d="m 477.44,50.06 c -0.005,-0.02982 -0.005,-0.06018 0,-0.09 -1.72492,-7.561422 -7.58832,-13.490702 -15.13,-15.3 -29.8,-7.27 -76.68,0.48 -128.63,21.28 -52.36,21 -101.42,52 -134.58,85.22 -10.62859,10.57214 -20.5028,21.87653 -29.55,33.83 -22.33,-1 -42,2.18 -58.57,9.41 -57.74,25.41 -74.23,90.44 -78.62,117.14 -2.724331,16.26986 10.778537,30.6716 27.19,29 h 0.13 L 124,323.53 c 0.08,0.82 0.17,1.57 0.24,2.26 0.8261,7.83765 4.32141,15.15309 9.9,20.72 l 31.39,31.41 c 5.55856,5.58628 12.87257,9.08612 20.71,9.91 l 2.15,0.23 -7,64.24 v 0.13 c -1.51415,14.6434 9.8893,27.41842 24.61,27.57 1.39033,0.001 2.77839,-0.1126 4.15,-0.34 C 237,475.34 302,459.05 327.34,401 c 7.17,-16.46 10.34,-36.05 9.45,-58.34 12.00727,-9.02729 23.35294,-18.90252 33.95,-29.55 33.43,-33.26 64.53,-81.92 85.31,-133.52 C 476.74,128.23 484.53,81 477.44,50.06 Z M 370.38,224.94 c -16.80326,16.82079 -42.08625,21.86017 -64.05395,12.76721 -21.96765,-9.09295 -36.29138,-30.52652 -36.29138,-54.30221 0,-23.77569 14.32373,-45.20926 36.29138,-54.30221 21.9677,-9.09296 47.25069,-4.05358 64.05395,12.76721 23.18494,22.83679 23.18494,60.23321 0,83.07 z"
     id="path6" />
  <path
     style="color:#000000;font-style:normal;font-variant:normal;font-weight:normal;font-stretch:normal;font-size:medium;line-height:normal;font-family:sans-serif;font-variant-ligatures:normal;font-variant-position:normal;font-variant-caps:normal;font-variant-numeric:normal;font-variant-alternates:normal;font-variant-east-asian:normal;font-feature-settings:normal;font-variation-settings:normal;text-indent:0;text-align:start;text-decoration:none;text-decoration-line:none;text-decoration-style:solid;text-decoration-color:#000000;letter-spacing:normal;word-spacing:normal;text-transform:none;writing-mode:lr-tb;direction:ltr;text-orientation:mixed;dominant-baseline:auto;baseline-shift:baseline;text-anchor:start;white-space:normal;shape-padding:0;shape-margin:0;inline-size:0;clip-rule:nonzero;display:inline;overflow:visible;visibility:visible;isolation:auto;mix-blend-mode:normal;color-interpolation:sRGB;color-interpolation-filters:linearRGB;solid-color:#000000;solid-opacity:1;vector-effect:none;fill:#000000;fill-opacity:1;fill-rule:nonzero;stroke-width:1;stroke-linecap:butt;stroke-linejoin:miter;stroke-miterlimit:4;stroke-dasharray:none;stroke-dashoffset:0;stroke-opacity:1;color-rendering:auto;image-rendering:auto;shape-rendering:auto;text-rendering:auto;enable-background:accumulate;stop-color:#000000;stop-opacity:1;stroke:none;opacity:1"
     d="m 161.93,386.44 c -3.86951,-0.48008 -7.78116,0.46939 -11,2.67 -6.39,4.37 -12.81,8.69 -19.29,12.9 -13.11,8.52 -28.79,-6.44 -21,-20 l 12.15,-21 c 7.77078,-11.36746 -1.4931,-26.58931 -15.16,-24.91 -13.484999,1.70533 -26.019667,7.84778 -35.63,17.46 -3.66,3.67 -14.79,14.81 -20.78,57.26 -1.704992,12.19313 -2.779754,24.46611 -3.22,36.77 -0.230604,8.99622 7.00082,16.41296 16,16.41 h 0.4 c 12.313359,-0.43599 24.596202,-1.50407 36.8,-3.2 42.47,-6 53.61,-17.14 57.27,-20.8 9.65687,-9.61448 15.78449,-22.20798 17.39,-35.74 1.07057,-8.76651 -5.16433,-16.74253 -13.93,-17.82 z"
     id="path8" />
</svg>
