<?xml version="1.0" encoding="UTF-8" standalone="no"?>
<svg
   xmlns:dc="http://purl.org/dc/elements/1.1/"
   xmlns:cc="http://creativecommons.org/ns#"
   xmlns:rdf="http://www.w3.org/1999/02/22-rdf-syntax-ns#"
   xmlns:svg="http://www.w3.org/2000/svg"
   xmlns="http://www.w3.org/2000/svg"
   xmlns:sodipodi="http://sodipodi.sourceforge.net/DTD/sodipodi-0.dtd"
   xmlns:inkscape="http://www.inkscape.org/namespaces/inkscape"
   class="ionicon"
   viewBox="0 0 512 512"
   version="1.1"
   id="svg8"
   sodipodi:docname="rocket-sharp.svg"
   inkscape:version="1.0.2 (e86c8708, 2021-01-15)">
  <metadata
     id="metadata14">
    <rdf:RDF>
      <cc:Work
         rdf:about="">
        <dc:format>image/svg+xml</dc:format>
        <dc:type
           rdf:resource="http://purl.org/dc/dcmitype/StillImage" />
      </cc:Work>
    </rdf:RDF>
  </metadata>
  <defs
     id="defs12" />
  <sodipodi:namedview
     pagecolor="#ffffff"
     bordercolor="#666666"
     borderopacity="1"
     objecttolerance="10"
     gridtolerance="10"
     guidetolerance="10"
     inkscape:pageopacity="0"
     inkscape:pageshadow="2"
     inkscape:window-width="689"
     inkscape:window-height="480"
     id="namedview10"
     showgrid="false"
     inkscape:zoom="1.3027344"
     inkscape:cx="256"
     inkscape:cy="256"
     inkscape:window-x="44"
     inkscape:window-y="25"
     inkscape:window-maximized="0"
     inkscape:current-layer="svg8" />
  <title
     id="title2">Rocket</title>
  <path
     style="color:#000000;font-style:normal;font-variant:normal;font-weight:normal;font-stretch:normal;font-size:medium;line-height:normal;font-family:sans-serif;font-variant-ligatures:normal;font-variant-position:normal;font-variant-caps:normal;font-variant-numeric:normal;font-variant-alternates:normal;font-variant-east-asian:normal;font-feature-settings:normal;font-variation-settings:normal;text-indent:0;text-align:start;text-decoration:none;text-decoration-line:none;text-decoration-style:solid;text-decoration-color:#000000;letter-spacing:normal;word-spacing:normal;text-transform:none;writing-mode:lr-tb;direction:ltr;text-orientation:mixed;dominant-baseline:auto;baseline-shift:baseline;text-anchor:start;white-space:normal;shape-padding:0;shape-margin:0;inline-size:0;clip-rule:nonzero;display:inline;overflow:visible;visibility:visible;isolation:auto;mix-blend-mode:normal;color-interpolation:sRGB;color-interpolation-filters:linearRGB;solid-color:#000000;solid-opacity:1;vector-effect:none;fill:#000000;fill-opacity:1;fill-rule:nonzero;stroke-width:1;stroke-linecap:butt;stroke-linejoin:miter;stroke-miterlimit:4;stroke-dasharray:none;stroke-dashoffset:0;stroke-opacity:1;color-rendering:auto;image-rendering:auto;shape-rendering:auto;text-rendering:auto;enable-background:accumulate;stop-color:#000000;stop-opacity:1;stroke:none;opacity:1"
     d="m 477.64,38.26 c -0.37277,-1.805555 -1.75666,-3.232319 -3.55,-3.66 -58.57,-14.32 -193.9,36.71 -267.22,110 -13.07723,12.97153 -24.99901,27.05817 -35.63,42.1 -22.61,-2 -45.22,-0.33 -64.49,8.07 -54.37,23.93 -70.2,86.37 -74.61,113.23 -1.073624,6.30997 4.187173,11.8949 10.55,11.2 L 130,309.57 c 0.0624,6.5826 0.45953,13.15776 1.19,19.7 0.43936,4.54318 2.45611,8.78897 5.7,12 L 170.7,375 c 3.21399,3.2397 7.45819,5.2557 12,5.7 6.50567,0.72773 13.04408,1.12491 19.59,1.19 l -9.58,87.2 c -0.6857,6.35943 4.89286,11.61425 11.2,10.55 26.81,-4.3 89.36,-20.13 113.15,-74.5 8.4,-19.27 10.12,-41.77 8.18,-64.27 15.07828,-10.63169 29.20168,-22.55677 42.21,-35.64 C 441,232.05 491.74,99.74 477.64,38.26 Z M 294.07,217.93 C 280.33559,204.20459 276.22311,183.55633 283.65081,165.61665 291.0785,147.67699 308.58305,135.98019 328,135.98019 c 19.41695,0 36.9215,11.6968 44.34919,29.63646 7.4277,17.93968 3.31522,38.58794 -10.41919,52.31335 -18.73117,18.75797 -49.12883,18.75797 -67.86,0 z"
     id="path4" />
  <path
     style="color:#000000;font-style:normal;font-variant:normal;font-weight:normal;font-stretch:normal;font-size:medium;line-height:normal;font-family:sans-serif;font-variant-ligatures:normal;font-variant-position:normal;font-variant-caps:normal;font-variant-numeric:normal;font-variant-alternates:normal;font-variant-east-asian:normal;font-feature-settings:normal;font-variation-settings:normal;text-indent:0;text-align:start;text-decoration:none;text-decoration-line:none;text-decoration-style:solid;text-decoration-color:#000000;letter-spacing:normal;word-spacing:normal;text-transform:none;writing-mode:lr-tb;direction:ltr;text-orientation:mixed;dominant-baseline:auto;baseline-shift:baseline;text-anchor:start;white-space:normal;shape-padding:0;shape-margin:0;inline-size:0;clip-rule:nonzero;display:inline;overflow:visible;visibility:visible;isolation:auto;mix-blend-mode:normal;color-interpolation:sRGB;color-interpolation-filters:linearRGB;solid-color:#000000;solid-opacity:1;vector-effect:none;fill:#000000;fill-opacity:1;fill-rule:nonzero;stroke-width:1;stroke-linecap:butt;stroke-linejoin:miter;stroke-miterlimit:4;stroke-dasharray:none;stroke-dashoffset:0;stroke-opacity:1;color-rendering:auto;image-rendering:auto;shape-rendering:auto;text-rendering:auto;enable-background:accumulate;stop-color:#000000;stop-opacity:1;stroke:none;opacity:1"
     d="m 168.4,399.43 c -5.48,5.49 -14.27,7.63 -24.85,9.46 -23.77,4.05 -44.76,-16.49 -40.49,-40.52 1.63,-9.11 6.45,-21.88 9.45,-24.88 3.00367,-2.94565 0.51845,-8.01821 -3.65,-7.45 -13.292401,1.62639 -25.658648,7.65287 -35.13,17.12 C 50.22,376.69 48,464 48,464 c 0,0 87.36,-2.22 110.87,-25.75 9.49659,-9.46363 15.53067,-21.84881 17.13,-35.16 0.37,-4.18 -4.72,-6.67 -7.6,-3.66 z"
     id="path6" />
</svg>
