<?xml version="1.0" encoding="UTF-8" standalone="no"?>
<svg
   xmlns:dc="http://purl.org/dc/elements/1.1/"
   xmlns:cc="http://creativecommons.org/ns#"
   xmlns:rdf="http://www.w3.org/1999/02/22-rdf-syntax-ns#"
   xmlns:svg="http://www.w3.org/2000/svg"
   xmlns="http://www.w3.org/2000/svg"
   xmlns:sodipodi="http://sodipodi.sourceforge.net/DTD/sodipodi-0.dtd"
   xmlns:inkscape="http://www.inkscape.org/namespaces/inkscape"
   class="ionicon"
   viewBox="0 0 512 512"
   version="1.1"
   id="svg10"
   sodipodi:docname="rose-outline.svg"
   inkscape:version="1.0.2 (e86c8708, 2021-01-15)">
  <metadata
     id="metadata16">
    <rdf:RDF>
      <cc:Work
         rdf:about="">
        <dc:format>image/svg+xml</dc:format>
        <dc:type
           rdf:resource="http://purl.org/dc/dcmitype/StillImage" />
      </cc:Work>
    </rdf:RDF>
  </metadata>
  <defs
     id="defs14" />
  <sodipodi:namedview
     pagecolor="#ffffff"
     bordercolor="#666666"
     borderopacity="1"
     objecttolerance="10"
     gridtolerance="10"
     guidetolerance="10"
     inkscape:pageopacity="0"
     inkscape:pageshadow="2"
     inkscape:window-width="689"
     inkscape:window-height="480"
     id="namedview12"
     showgrid="false"
     inkscape:zoom="1.3027344"
     inkscape:cx="256"
     inkscape:cy="256"
     inkscape:window-x="44"
     inkscape:window-y="25"
     inkscape:window-maximized="0"
     inkscape:current-layer="svg10" />
  <title
     id="title2">Rose</title>
  <path
     style="color:#000000;font-style:normal;font-variant:normal;font-weight:normal;font-stretch:normal;font-size:medium;line-height:normal;font-family:sans-serif;font-variant-ligatures:normal;font-variant-position:normal;font-variant-caps:normal;font-variant-numeric:normal;font-variant-alternates:normal;font-variant-east-asian:normal;font-feature-settings:normal;font-variation-settings:normal;text-indent:0;text-align:start;text-decoration:none;text-decoration-line:none;text-decoration-style:solid;text-decoration-color:#000000;letter-spacing:normal;word-spacing:normal;text-transform:none;writing-mode:lr-tb;direction:ltr;text-orientation:mixed;dominant-baseline:auto;baseline-shift:baseline;text-anchor:start;white-space:normal;shape-padding:0;shape-margin:0;inline-size:0;clip-rule:nonzero;display:inline;overflow:visible;visibility:visible;isolation:auto;mix-blend-mode:normal;color-interpolation:sRGB;color-interpolation-filters:linearRGB;solid-color:#000000;solid-opacity:1;vector-effect:none;fill:currentColor;fill-opacity:1;fill-rule:nonzero;stroke:none;stroke-linecap:round;stroke-linejoin:round;stroke-miterlimit:4;stroke-dasharray:none;stroke-dashoffset:0;stroke-opacity:1;color-rendering:auto;image-rendering:auto;shape-rendering:auto;text-rendering:auto;enable-background:accumulate;stop-color:#000000;stop-opacity:1;opacity:1"
     d="M 415.85156 112.00195 A 16.0016 16.0016 0 0 0 412.49023 112.39062 C 393.24176 116.71899 374.99485 121.49772 357.75195 126.60938 C 316.14318 138.93805 280.29134 154.47356 249.91797 169.20312 A 16.0016 16.0016 0 0 0 249.91211 169.20703 C 230.31177 178.72285 222.61611 183.30183 197.4043 197.9707 C 197.40351 197.97115 197.40313 197.97221 197.40234 197.97266 C 197.38079 197.9852 197.37509 197.98745 197.35352 198 C 136.19047 233.29906 96 283.5429 96 354.64062 C 96 395.60771 111.87839 431.89013 140.24023 457.01367 C 168.60208 482.13721 208.69593 496 256 496 C 351.13424 496 416 432.21347 416 350.2793 C 416 308.92255 400.03843 276.43737 394.91211 245.29102 C 389.78579 214.14466 392.16679 183.87152 428.54297 137.93359 A 16.0016 16.0016 0 0 0 415.85156 112.00195 z M 380.03906 153.62109 C 360.86607 189.98697 358.67948 222.18287 363.33789 250.48633 C 369.46157 287.69247 384 317.72605 384 350.2793 C 384 416.16512 337.66576 464 256 464 C 214.90407 464 182.99714 452.13755 161.45898 433.05859 C 139.92083 413.97963 128 387.58354 128 354.64062 C 128 294.93821 157.78638 257.76888 213.39453 225.68945 A 16.0016 16.0016 0 0 0 213.44727 225.66016 C 238.78142 210.92028 244.90657 207.2098 263.88867 197.99414 L 263.88086 197.99609 C 293.30704 183.72587 327.45526 168.96226 366.8457 157.29102 A 16.0016 16.0016 0 0 0 366.84766 157.29102 C 371.11619 156.02561 375.638 154.84345 380.03906 153.62109 z "
     id="path4" />
  <path
     style="color:#000000;font-style:normal;font-variant:normal;font-weight:normal;font-stretch:normal;font-size:medium;line-height:normal;font-family:sans-serif;font-variant-ligatures:normal;font-variant-position:normal;font-variant-caps:normal;font-variant-numeric:normal;font-variant-alternates:normal;font-variant-east-asian:normal;font-feature-settings:normal;font-variation-settings:normal;text-indent:0;text-align:start;text-decoration:none;text-decoration-line:none;text-decoration-style:solid;text-decoration-color:#000000;letter-spacing:normal;word-spacing:normal;text-transform:none;writing-mode:lr-tb;direction:ltr;text-orientation:mixed;dominant-baseline:auto;baseline-shift:baseline;text-anchor:start;white-space:normal;shape-padding:0;shape-margin:0;inline-size:0;clip-rule:nonzero;display:inline;overflow:visible;visibility:visible;isolation:auto;mix-blend-mode:normal;color-interpolation:sRGB;color-interpolation-filters:linearRGB;solid-color:#000000;solid-opacity:1;vector-effect:none;fill:currentColor;fill-opacity:1;fill-rule:nonzero;stroke:none;stroke-linecap:round;stroke-linejoin:round;stroke-miterlimit:4;stroke-dasharray:none;stroke-dashoffset:0;stroke-opacity:1;color-rendering:auto;image-rendering:auto;shape-rendering:auto;text-rendering:auto;enable-background:accumulate;stop-color:#000000;stop-opacity:1;opacity:1"
     d="M 95.951172 80 A 16.0016 16.0016 0 0 0 84.398438 107.01758 C 121.62406 146.2166 117.27085 184.4897 112.14844 221.82422 A 16.0016 16.0016 0 0 0 112.10938 222.12891 C 112.10938 222.12891 107.53178 256.02773 114.30469 285.94336 A 16 16 0 0 0 133.44336 298.01562 A 16 16 0 0 0 145.51562 278.87695 C 140.72853 257.73259 143.89062 225.87109 143.89062 225.87109 L 143.85156 226.17578 C 147.84901 197.04052 151.20655 158.6914 132.73242 120.85547 C 154.50709 126.76587 181.513 135.60889 203.64453 147.65039 C 203.645 147.65065 203.64601 147.65013 203.64648 147.65039 C 203.64848 147.65148 203.65034 147.65321 203.65234 147.6543 C 217.35097 155.11808 232.90282 164.70225 251.07227 189.61719 A 16 16 0 0 0 273.42773 193.11719 A 16 16 0 0 0 276.92773 170.76172 C 255.7204 141.68106 234.25468 127.88643 218.95508 119.55078 A 16.0016 16.0016 0 0 0 218.94727 119.54688 C 166.51551 91.016249 98.630859 80.216797 98.630859 80.216797 A 16.0016 16.0016 0 0 0 95.951172 80 z "
     id="path6" />
  <path
     style="color:#000000;font-style:normal;font-variant:normal;font-weight:normal;font-stretch:normal;font-size:medium;line-height:normal;font-family:sans-serif;font-variant-ligatures:normal;font-variant-position:normal;font-variant-caps:normal;font-variant-numeric:normal;font-variant-alternates:normal;font-variant-east-asian:normal;font-feature-settings:normal;font-variation-settings:normal;text-indent:0;text-align:start;text-decoration:none;text-decoration-line:none;text-decoration-style:solid;text-decoration-color:#000000;letter-spacing:normal;word-spacing:normal;text-transform:none;writing-mode:lr-tb;direction:ltr;text-orientation:mixed;dominant-baseline:auto;baseline-shift:baseline;text-anchor:start;white-space:normal;shape-padding:0;shape-margin:0;inline-size:0;clip-rule:nonzero;display:inline;overflow:visible;visibility:visible;isolation:auto;mix-blend-mode:normal;color-interpolation:sRGB;color-interpolation-filters:linearRGB;solid-color:#000000;solid-opacity:1;vector-effect:none;fill:currentColor;fill-opacity:1;fill-rule:nonzero;stroke:none;stroke-linecap:round;stroke-linejoin:round;stroke-miterlimit:4;stroke-dasharray:none;stroke-dashoffset:0;stroke-opacity:1;color-rendering:auto;image-rendering:auto;shape-rendering:auto;text-rendering:auto;enable-background:accumulate;stop-color:#000000;stop-opacity:1;opacity:1"
     d="M 176.0293 16 A 16.0016 16.0016 0 0 0 163.11133 22.519531 C 146.00694 45.772555 132.35538 77.20846 125.67969 102.01172 A 16 16 0 0 0 136.9707 121.62109 A 16 16 0 0 0 156.58008 110.32812 C 161.14473 93.36835 171.15978 69.739602 182.16602 51.685547 C 193.78241 56.920087 212.84465 67.300746 230.36328 85.34375 C 217.30953 93.623342 203.64549 103.69073 189.71094 116.01367 A 16 16 0 0 0 188.32422 138.59961 A 16 16 0 0 0 210.91016 139.98633 C 245.36048 109.52037 277.19845 94.62677 300.19141 87.232422 C 311.65188 83.546828 320.57169 81.744075 326.64844 80.857422 C 332.30231 91.723855 345.1974 116.83841 357.26172 145.37891 A 16 16 0 0 0 378.23047 153.88672 A 16 16 0 0 0 386.73828 132.91992 C 370.88017 95.404449 350.12305 56.480469 350.12305 56.480469 A 16.0016 16.0016 0 0 0 336 48 C 336 48 317.15407 48.161927 290.39453 56.767578 C 281.03118 59.778757 270.48519 63.913339 259.17188 69.345703 C 224.37288 29.810086 180.66992 16.697266 180.66992 16.697266 A 16.0016 16.0016 0 0 0 176.0293 16 z "
     id="path8" />
</svg>
