<?xml version="1.0" encoding="utf-8"?>
<!-- Generator: Adobe Illustrator 24.0.0, SVG Export Plug-In . SVG Version: 6.00 Build 0)  -->
<svg version="1.1" id="Layer_1" xmlns="http://www.w3.org/2000/svg" xmlns:xlink="http://www.w3.org/1999/xlink" x="0px" y="0px"
	 viewBox="0 0 512 512" style="enable-background:new 0 0 512 512;" xml:space="preserve">
<title>ionicons-v5-p</title>
<g>
	<path d="M256,496c-46.9,0-87-13.5-115.8-39C111.7,431.7,96,395.4,96,354.6c0-34.7,9.3-65.7,27.6-92.4
		c16.7-24.3,40.8-45.3,73.8-64.3l4.4-2.6c22-12.8,29.4-17.1,48.1-26.2c38.5-18.7,72.8-32.2,107.8-42.6c17.7-5.3,36.1-10,54.7-14.2
		c6.6-1.5,13.4,1.4,17.1,7.1c3.6,5.7,3.2,13.1-1,18.4c-48.2,60.8-37.3,99.4-24.7,144.1c6,21.3,12.2,43.3,12.2,68.3
		c0,40.9-15.6,77.9-44,104.3C342.9,481.7,302.8,496,256,496z M379.9,153.6c-4.4,1.2-8.7,2.5-13,3.7c-33.4,9.9-66.1,22.8-103,40.7
		c-17.6,8.5-24.1,12.4-45.9,25l-4.5,2.6c-28.8,16.6-49.5,34.5-63.5,54.8c-14.8,21.5-22,45.8-22,74.2c0,66.4,50.2,109.4,128,109.4
		c38.5,0,71.1-11.4,94.3-32.9c22.1-20.5,33.7-48.5,33.7-80.9c0-20.6-5.3-39.6-11-59.6C362.2,252.1,350.1,209.2,379.9,153.6z"/>
</g>
<g>
	<path d="M129.9,298.4c-7.3,0-13.9-5-15.6-12.5c-6.3-27.9-2.4-62.4-2.2-63.8c0-0.1,0-0.2,0-0.3c5.4-39.4,7.4-77.8-27.8-114.8
		c-4.7-5-5.8-12.4-2.5-18.5c3.2-6.1,10-9.4,16.8-8.3c2.8,0.5,69.8,11.9,120.3,39.3c16.9,9.2,37.1,22.5,58,51.2
		c5.2,7.1,3.6,17.1-3.5,22.4c-7.1,5.2-17.1,3.6-22.4-3.5c-17.2-23.5-32.9-34.1-47.4-42c-22.4-12.2-49.2-21-70.7-26.9
		c19.8,40,14.5,79.3,11,105.2c-0.2,2.1-3.3,31.1,1.6,52.9c2,8.6-3.5,17.2-12.1,19.1C132.3,298.3,131.1,298.4,129.9,298.4z"/>
</g>
<g>
	<path d="M372,155.2c-6.2,0-12.2-3.7-14.7-9.8c-10.5-24.8-23.5-50.9-30.5-64.5c-6.5,1-16.2,2.9-28.1,6.8
		c-20.9,6.9-53.1,21.6-87.8,52.3c-6.6,5.9-16.7,5.2-22.6-1.4c-5.9-6.6-5.2-16.7,1.4-22.6c76-67.2,143.5-68,146.3-68
		c5.9,0,11.3,3.3,14.1,8.5c0.9,1.6,21.1,39.7,36.6,76.4c3.4,8.1-0.4,17.5-8.5,21C376.2,154.7,374.1,155.2,372,155.2z"/>
</g>
<g>
	<path d="M141.1,122.2c-1.4,0-2.8-0.2-4.2-0.6c-8.5-2.3-13.6-11.1-11.3-19.6c6-22.5,20-55.7,37.4-79.5c4-5.5,11.1-7.8,17.6-5.8
		c2,0.6,50.5,15.8,85.5,61.1c5.4,7,4.1,17-2.9,22.4c-7,5.4-17,4.1-22.4-2.9c-19.5-25.3-44.6-39.3-58.7-45.7
		c-11.8,19.2-21.2,42.7-25.5,58.7C154.7,117.5,148.2,122.2,141.1,122.2z"/>
</g>
</svg>
