<?xml version="1.0" encoding="UTF-8" standalone="no"?>
<svg
   xmlns:dc="http://purl.org/dc/elements/1.1/"
   xmlns:cc="http://creativecommons.org/ns#"
   xmlns:rdf="http://www.w3.org/1999/02/22-rdf-syntax-ns#"
   xmlns:svg="http://www.w3.org/2000/svg"
   xmlns="http://www.w3.org/2000/svg"
   xmlns:sodipodi="http://sodipodi.sourceforge.net/DTD/sodipodi-0.dtd"
   xmlns:inkscape="http://www.inkscape.org/namespaces/inkscape"
   class="ionicon"
   viewBox="0 0 512 512"
   version="1.1"
   id="svg6"
   sodipodi:docname="rose-sharp.svg"
   inkscape:version="1.0.2 (e86c8708, 2021-01-15)">
  <metadata
     id="metadata12">
    <rdf:RDF>
      <cc:Work
         rdf:about="">
        <dc:format>image/svg+xml</dc:format>
        <dc:type
           rdf:resource="http://purl.org/dc/dcmitype/StillImage" />
      </cc:Work>
    </rdf:RDF>
  </metadata>
  <defs
     id="defs10" />
  <sodipodi:namedview
     pagecolor="#ffffff"
     bordercolor="#666666"
     borderopacity="1"
     objecttolerance="10"
     gridtolerance="10"
     guidetolerance="10"
     inkscape:pageopacity="0"
     inkscape:pageshadow="2"
     inkscape:window-width="689"
     inkscape:window-height="480"
     id="namedview8"
     showgrid="false"
     inkscape:zoom="1.3027344"
     inkscape:cx="256"
     inkscape:cy="256"
     inkscape:window-x="44"
     inkscape:window-y="25"
     inkscape:window-maximized="0"
     inkscape:current-layer="svg6" />
  <title
     id="title2">Rose</title>
  <path
     style="color:#000000;font-style:normal;font-variant:normal;font-weight:normal;font-stretch:normal;font-size:medium;line-height:normal;font-family:sans-serif;font-variant-ligatures:normal;font-variant-position:normal;font-variant-caps:normal;font-variant-numeric:normal;font-variant-alternates:normal;font-variant-east-asian:normal;font-feature-settings:normal;font-variation-settings:normal;text-indent:0;text-align:start;text-decoration:none;text-decoration-line:none;text-decoration-style:solid;text-decoration-color:#000000;letter-spacing:normal;word-spacing:normal;text-transform:none;writing-mode:lr-tb;direction:ltr;text-orientation:mixed;dominant-baseline:auto;baseline-shift:baseline;text-anchor:start;white-space:normal;shape-padding:0;shape-margin:0;inline-size:0;clip-rule:nonzero;display:inline;overflow:visible;visibility:visible;isolation:auto;mix-blend-mode:normal;color-interpolation:sRGB;color-interpolation-filters:linearRGB;solid-color:#000000;solid-opacity:1;vector-effect:none;fill:#000000;fill-opacity:1;fill-rule:nonzero;stroke-width:1;stroke-linecap:butt;stroke-linejoin:miter;stroke-miterlimit:4;stroke-dasharray:none;stroke-dashoffset:0;stroke-opacity:1;color-rendering:auto;image-rendering:auto;shape-rendering:auto;text-rendering:auto;enable-background:accumulate;stop-color:#000000;stop-opacity:1;stroke:none;opacity:1"
     d="m 448,112 c 0,0 -17.62,0 -30.51,1.39 -19,2 -42.06,8 -59.73,13.22 -35.06,10.39 -69.33,23.92 -107.85,42.59 -18.62,9.05 -26,13.35 -48,26.13 l -4.5,2.67 c -32.95,19 -57.09,40 -73.79,64.3 C 105.29,288.89 96,320 96,354.64 c 0,40.74 15.71,77.1 44.24,102.37 C 169,482.52 209.06,496 256,496 c 46.76,0 86.89,-14.32 116,-41.43 28.35,-26.35 44,-63.39 44,-104.29 0,-25 -6.19,-47 -12.17,-68.22 C 391.24,237.37 380.37,198.77 428.54,137.93 432.75,132.62 448,112 448,112 Z m -229,7.55 C 168.47,92.08 104.72,80 80,80 c 0,0 23.23,28.19 29.15,55.4 5.92,27.21 6.54,48.61 2.91,88.6 17.94,-20.48 40.59,-37.15 69.32,-53.73 l 4.48,-2.6 C 208,154.8 216.23,150 236,140.41 c 2.88,-1.4 5.74,-2.76 8.58,-4.11 -8.00866,-6.33698 -16.56964,-11.94278 -25.58,-16.75 z M 345.25,48 c 0,0 -42.53,0.36 -86.12,21.3 -11.14808,5.37116 -21.92832,11.474507 -32.27,18.27 2.48667,1.26 4.95333,2.553333 7.4,3.88 3.44,1.87 7.09,4 10.9,6.29 11.30215,6.9318 21.84644,15.02939 31.46,24.16 24.57,-10.41 73,-26.1 90.77,-31.28 C 359.39,71.47 345.25,48 345.25,48 Z M 176,16 c -16,10.83 -33.24,41.1 -33.24,41.1 16.5594,4.233988 32.88801,9.324162 48.92,15.25 l 17.65,-11.56 c 8.18,-5.35 16.55,-10.29 25,-14.77 C 234.31,46 202.59,24.17 176,16 Z"
     id="path4" />
</svg>
