<?xml version="1.0" encoding="UTF-8" standalone="no"?>
<svg
   xmlns:dc="http://purl.org/dc/elements/1.1/"
   xmlns:cc="http://creativecommons.org/ns#"
   xmlns:rdf="http://www.w3.org/1999/02/22-rdf-syntax-ns#"
   xmlns:svg="http://www.w3.org/2000/svg"
   xmlns="http://www.w3.org/2000/svg"
   xmlns:sodipodi="http://sodipodi.sourceforge.net/DTD/sodipodi-0.dtd"
   xmlns:inkscape="http://www.inkscape.org/namespaces/inkscape"
   class="ionicon"
   viewBox="0 0 512 512"
   version="1.1"
   id="svg6"
   sodipodi:docname="rose.svg"
   inkscape:version="1.0.2 (e86c8708, 2021-01-15)">
  <metadata
     id="metadata12">
    <rdf:RDF>
      <cc:Work
         rdf:about="">
        <dc:format>image/svg+xml</dc:format>
        <dc:type
           rdf:resource="http://purl.org/dc/dcmitype/StillImage" />
      </cc:Work>
    </rdf:RDF>
  </metadata>
  <defs
     id="defs10" />
  <sodipodi:namedview
     pagecolor="#ffffff"
     bordercolor="#666666"
     borderopacity="1"
     objecttolerance="10"
     gridtolerance="10"
     guidetolerance="10"
     inkscape:pageopacity="0"
     inkscape:pageshadow="2"
     inkscape:window-width="689"
     inkscape:window-height="480"
     id="namedview8"
     showgrid="false"
     inkscape:zoom="1.3027344"
     inkscape:cx="256"
     inkscape:cy="256"
     inkscape:window-x="44"
     inkscape:window-y="25"
     inkscape:window-maximized="0"
     inkscape:current-layer="svg6" />
  <title
     id="title2">Rose</title>
  <path
     style="color:#000000;font-style:normal;font-variant:normal;font-weight:normal;font-stretch:normal;font-size:medium;line-height:normal;font-family:sans-serif;font-variant-ligatures:normal;font-variant-position:normal;font-variant-caps:normal;font-variant-numeric:normal;font-variant-alternates:normal;font-variant-east-asian:normal;font-feature-settings:normal;font-variation-settings:normal;text-indent:0;text-align:start;text-decoration:none;text-decoration-line:none;text-decoration-style:solid;text-decoration-color:#000000;letter-spacing:normal;word-spacing:normal;text-transform:none;writing-mode:lr-tb;direction:ltr;text-orientation:mixed;dominant-baseline:auto;baseline-shift:baseline;text-anchor:start;white-space:normal;shape-padding:0;shape-margin:0;inline-size:0;clip-rule:nonzero;display:inline;overflow:visible;visibility:visible;isolation:auto;mix-blend-mode:normal;color-interpolation:sRGB;color-interpolation-filters:linearRGB;solid-color:#000000;solid-opacity:1;vector-effect:none;fill:#000000;fill-opacity:1;fill-rule:nonzero;stroke-width:1;stroke-linecap:butt;stroke-linejoin:miter;stroke-miterlimit:4;stroke-dasharray:none;stroke-dashoffset:0;stroke-opacity:1;color-rendering:auto;image-rendering:auto;shape-rendering:auto;text-rendering:auto;enable-background:accumulate;stop-color:#000000;stop-opacity:1;stroke:none;opacity:1"
     d="m 429.55,119.49 c -3.60719,-5.74313 -10.4433,-8.58817 -17.06,-7.1 -18.64,4.19 -37.06,9 -54.73,14.22 -35.06,10.39 -69.33,23.92 -107.85,42.59 -18.62,9.05 -26,13.35 -48,26.13 l -4.5,2.67 c -32.95,19 -57.09,40 -73.79,64.29 C 105.29,288.89 96,320 96,354.64 c 0,40.74 15.71,77.1 44.24,102.37 C 169,482.52 209.06,496 256,496 c 46.76,0 86.89,-14.33 116,-41.43 28.35,-26.35 44,-63.39 44,-104.29 0,-25 -6.19,-47 -12.17,-68.22 -12.59,-44.69 -23.46,-83.29 24.71,-144.13 4.20801,-5.31245 4.61263,-12.69975 1.01,-18.44 z M 219,119.55 C 168.46,92.08 101.46,80.69 98.63,80.22 91.03351,78.973851 83.626454,83.313891 81,90.55 c -2.01491,5.878818 -0.549228,12.39124 3.79,16.84 31.84,33.78 32.86,68.79 28.65,104.63 -0.22485,1.89254 0.78045,3.71816 2.5,4.54 1.7118,0.81549 3.75255,0.45394 5.08,-0.9 16.39,-16.51 36.37,-31.52 60.4,-45.39 l 4.48,-2.6 C 208,154.8 216.23,150 236,140.41 l 2.69,-1.3 c 2.72298,-1.30527 3.07309,-5.04159 0.64,-6.83 -6.48372,-4.69414 -13.2757,-8.94707 -20.33,-12.73 z m 15.26,-28.1 c 3.44,1.87 7.09,4 10.9,6.29 10.56579,6.47743 20.46998,13.97675 29.57,22.39 1.15252,1.07408 2.82815,1.37162 4.28,0.76 22.73986,-9.60629 45.99177,-17.95228 69.65,-25 4.66667,-1.38 9.36,-2.713333 14.08,-4 2.41933,-0.6652 3.63597,-3.367787 2.53,-5.62 C 357,69.44 350.6,57.37 350.12,56.48 347.34142,51.261797 341.91186,48.000984 336,48 c -1.91,0 -33.28,0.36 -76.87,21.3 -9.05148,4.358026 -17.86098,9.201747 -26.39,14.51 -2.63437,1.620426 -2.51172,5.48968 0.22,6.94 z M 209.33,60.79 c 7.3,-4.77 14.74,-9.22 22.25,-13.31 1.28157,-0.697217 1.40947,-2.487709 0.24,-3.36 -26,-19.57 -49.73,-27 -51.15,-27.42 -6.49531,-1.98338 -13.53505,0.349835 -17.56,5.82 -7.35083,10.215555 -13.80168,21.049495 -19.28,32.38 -0.55216,1.133889 0.0702,2.489576 1.29,2.81 13.61,3.57 29.4,8.29 45.61,14.29 0.59462,0.220979 1.25882,0.146767 1.79,-0.2 z"
     id="path4" />
</svg>
