<?xml version="1.0" encoding="utf-8"?>
<!-- Generator: Adobe Illustrator 24.0.0, SVG Export Plug-In . SVG Version: 6.00 Build 0)  -->
<svg version="1.1" id="Layer_1" xmlns="http://www.w3.org/2000/svg" xmlns:xlink="http://www.w3.org/1999/xlink" x="0px" y="0px"
	 viewBox="0 0 512 512" style="enable-background:new 0 0 512 512;" xml:space="preserve">
<title>ionicons-v5-p</title>
<g>
	<circle cx="184" cy="232" r="24"/>
</g>
<g>
	<path d="M256,288c45.4,0,83.6,29.5,95.7,69.8c1.2,4.3-1.3,8.7-5.5,9.9c-0.8,0.2-1.6,0.3-2.3,0.3H168.1c-4.4,0.1-8.1-3.5-8.1-7.9
		c0-0.8,0.1-1.5,0.3-2.3C172.3,317.5,210.5,288,256,288z"/>
</g>
<g>
	<circle cx="328" cy="232" r="24"/>
</g>
<g>
	<path d="M256,480c-59.8,0-116.1-23.3-158.4-65.6C55.3,372.1,32,315.8,32,256c0-59.8,23.3-116.1,65.6-158.4S196.2,32,256,32
		c59.8,0,116.1,23.3,158.4,65.6C456.7,139.9,480,196.2,480,256c0,59.8-23.3,116.1-65.6,158.4C372.1,456.7,315.8,480,256,480z
		 M256,64C150.1,64,64,150.1,64,256s86.1,192,192,192s192-86.1,192-192S361.9,64,256,64z"/>
</g>
</svg>
