<?xml version="1.0" encoding="utf-8"?>
<!-- Generator: Adobe Illustrator 24.0.0, SVG Export Plug-In . SVG Version: 6.00 Build 0)  -->
<svg version="1.1" id="Layer_1" xmlns="http://www.w3.org/2000/svg" xmlns:xlink="http://www.w3.org/1999/xlink" x="0px" y="0px"
	 viewBox="0 0 512 512" style="enable-background:new 0 0 512 512;" xml:space="preserve">
<title>ionicons-v5-p</title>
<g>
	<path d="M94.2,480C59.9,480,32,452.1,32,417.8V94.2C32,59.9,59.9,32,94.2,32c0,0,0,0,0,0h264.1c0,0,0,0,0,0
		c12.8,0,24.9,5,33.9,14.1c0,0,0,0,0,0l73.7,73.7c9.1,9.1,14.1,21.1,14.1,33.9v264.1c-0.1,34.2-28,62.1-62.2,62.2H94.2z M94.2,64
		c-8.1,0-15.7,3.1-21.4,8.8C67.1,78.5,64,86.1,64,94.2v323.6c0,16.7,13.5,30.2,30.2,30.2h323.6c16.6,0,30.2-13.6,30.2-30.3v-264
		c0-4.3-1.7-8.3-4.7-11.3l-73.7-73.7l0,0c-3-3-7-4.7-11.3-4.7H94.2C94.2,64,94.2,64,94.2,64z M256.2,432H256c-44.1,0-80-35.9-80-80
		s35.9-80,80-80s80,35.9,80,80c0,21.3-8.3,41.4-23.3,56.5C297.6,423.6,277.5,432,256.2,432z M256,304c-26.5,0-48,21.5-48,48
		s21.5,48,48,48h0.2c12.8,0,24.8-5,33.8-14.1c9-9.1,14-21.1,14-33.9C304,325.5,282.5,304,256,304z M304,208H112
		c-17.6,0-32-14.4-32-32v-64c0-17.6,14.4-32,32-32h192c17.6,0,32,14.4,32,32v64C336,193.6,321.6,208,304,208z M112,112v64h192
		c0,0,0,0,0,0l0-64H112z"/>
</g>
</svg>
