<?xml version="1.0" encoding="utf-8"?>
<!-- Generator: Adobe Illustrator 24.0.0, SVG Export Plug-In . SVG Version: 6.00 Build 0)  -->
<svg version="1.1" id="Layer_1" xmlns="http://www.w3.org/2000/svg" xmlns:xlink="http://www.w3.org/1999/xlink" x="0px" y="0px"
	 viewBox="0 0 512 512" style="enable-background:new 0 0 512 512;" xml:space="preserve">
<title>ionicons-v5-k</title>
<g>
	<path d="M388,466h-46c-12.2,0-22-9.8-22-22s9.8-22,22-22h46c18.7,0,34-15.3,34-34v-46c0-12.2,9.8-22,22-22s22,9.8,22,22v46
		C466,431,431,466,388,466z"/>
</g>
<g>
	<path d="M444,192c-12.2,0-22-9.8-22-22v-46c0-18.7-15.3-34-34-34h-46c-12.2,0-22-9.8-22-22s9.8-22,22-22h46c43,0,78,35,78,78v46
		C466,182.2,456.2,192,444,192z"/>
</g>
<g>
	<path d="M170,466h-46c-43,0-78-35-78-78v-46c0-12.2,9.8-22,22-22s22,9.8,22,22v46c0,18.7,15.3,34,34,34h46c12.2,0,22,9.8,22,22
		S182.2,466,170,466z"/>
</g>
<g>
	<path d="M68,192c-12.2,0-22-9.8-22-22v-46c0-43,35-78,78-78h46c12.2,0,22,9.8,22,22s-9.8,22-22,22h-46c-18.7,0-34,15.3-34,34v46
		C90,182.2,80.2,192,68,192z"/>
</g>
</svg>
