<?xml version="1.0" encoding="utf-8"?>
<!-- Generator: Adobe Illustrator 24.0.0, SVG Export Plug-In . SVG Version: 6.00 Build 0)  -->
<svg version="1.1" id="Layer_1" xmlns="http://www.w3.org/2000/svg" xmlns:xlink="http://www.w3.org/1999/xlink" x="0px" y="0px"
	 viewBox="0 0 512 512" style="enable-background:new 0 0 512 512;" xml:space="preserve">
<title>ionicons-v5-k</title>
<g>
	<path d="M392,464h-56c-8.8,0-16-7.2-16-16s7.2-16,16-16h56c22.1,0,40-17.9,40-40v-56c0-8.8,7.2-16,16-16s16,7.2,16,16v56
		C464,431.7,431.7,464,392,464z"/>
</g>
<g>
	<path d="M448,192c-8.8,0-16-7.2-16-16v-56c0-22.1-17.9-40-40-40h-56c-8.8,0-16-7.2-16-16s7.2-16,16-16h56c39.7,0,72,32.3,72,72v56
		C464,184.8,456.8,192,448,192z"/>
</g>
<g>
	<path d="M176,464h-56c-39.7,0-72-32.3-72-72v-56c0-8.8,7.2-16,16-16s16,7.2,16,16v56c0,22.1,17.9,40,40,40h56c8.8,0,16,7.2,16,16
		S184.8,464,176,464z"/>
</g>
<g>
	<path d="M64,192c-8.8,0-16-7.2-16-16v-56c0-39.7,32.3-72,72-72h56c8.8,0,16,7.2,16,16s-7.2,16-16,16h-56c-22.1,0-40,17.9-40,40v56
		C80,184.8,72.8,192,64,192z"/>
</g>
</svg>
