<?xml version="1.0" encoding="utf-8"?>
<!-- Generator: Adobe Illustrator 24.0.0, SVG Export Plug-In . SVG Version: 6.00 Build 0)  -->
<svg version="1.1" id="Layer_1" xmlns="http://www.w3.org/2000/svg" xmlns:xlink="http://www.w3.org/1999/xlink" x="0px" y="0px"
	 viewBox="0 0 512 512" style="enable-background:new 0 0 512 512;" xml:space="preserve">
<title>ionicons-v5-k</title>
<g>
	<path d="M256,464c-114.7,0-208-93.3-208-208S141.3,48,256,48s208,93.3,208,208S370.7,464,256,464z M256,80c-97,0-176,79-176,176
		s79,176,176,176s176-79,176-176S353,80,256,80z"/>
</g>
<g>
	<path d="M324,368h-28c-8.8,0-16-7.2-16-16s7.2-16,16-16h28c6.6,0,12-5.4,12-12v-28c0-8.8,7.2-16,16-16s16,7.2,16,16v28
		C368,348.3,348.3,368,324,368z"/>
</g>
<g>
	<path d="M352,232c-8.8,0-16-7.2-16-16v-28c0-6.6-5.4-12-12-12h-28c-8.8,0-16-7.2-16-16s7.2-16,16-16h28c24.3,0,44,19.7,44,44v28
		C368,224.8,360.8,232,352,232z"/>
</g>
<g>
	<path d="M216,368h-28c-24.3,0-44-19.7-44-44v-28c0-8.8,7.2-16,16-16s16,7.2,16,16v28c0,6.6,5.4,12,12,12h28c8.8,0,16,7.2,16,16
		S224.8,368,216,368z"/>
</g>
<g>
	<path d="M160,232c-8.8,0-16-7.2-16-16v-28c0-24.3,19.7-44,44-44h28c8.8,0,16,7.2,16,16s-7.2,16-16,16h-28c-6.6,0-12,5.4-12,12v28
		C176,224.8,168.8,232,160,232z"/>
</g>
</svg>
