<?xml version="1.0" encoding="utf-8"?>
<!-- Generator: Adobe Illustrator 24.0.0, SVG Export Plug-In . SVG Version: 6.00 Build 0)  -->
<svg version="1.1" id="Layer_1" xmlns="http://www.w3.org/2000/svg" xmlns:xlink="http://www.w3.org/1999/xlink" x="0px" y="0px"
	 viewBox="0 0 512 512" style="enable-background:new 0 0 512 512;" xml:space="preserve">
<title>ionicons-v5-q</title>
<g>
	<path d="M256,336c-2.7,0-5.5-0.7-7.9-2.1l-224-128c-5-2.8-8.1-8.2-8.1-13.9s3.1-11,8.1-13.9l224-128c4.9-2.8,11-2.8,15.9,0l224,128
		c5,2.8,8.1,8.2,8.1,13.9s-3.1,11-8.1,13.9l-224,128C261.5,335.3,258.7,336,256,336z M64.2,192L256,301.6L447.8,192L256,82.4
		L64.2,192z"/>
</g>
<g>
	<path d="M256,464c-2.7,0-5.4-0.7-7.8-2l-144-80c-5.1-2.8-8.2-8.2-8.2-14V240c0-8.8,7.2-16,16-16s16,7.2,16,16v118.6l128,71.1
		l128-71.1V240c0-8.8,7.2-16,16-16s16,7.2,16,16v128c0,5.8-3.2,11.2-8.2,14l-144,80C261.4,463.3,258.7,464,256,464z"/>
</g>
<g>
	<path d="M480,384c-8.8,0-16-7.2-16-16V192c0-8.8,7.2-16,16-16s16,7.2,16,16v176C496,376.8,488.8,384,480,384z"/>
</g>
<g>
	<path d="M256,464c-8.8,0-16-7.2-16-16V320c0-8.8,7.2-16,16-16c8.8,0,16,7.2,16,16v128C272,456.8,264.8,464,256,464z"/>
</g>
</svg>
