<?xml version="1.0" encoding="UTF-8" standalone="no"?>
<svg
   xmlns:dc="http://purl.org/dc/elements/1.1/"
   xmlns:cc="http://creativecommons.org/ns#"
   xmlns:rdf="http://www.w3.org/1999/02/22-rdf-syntax-ns#"
   xmlns:svg="http://www.w3.org/2000/svg"
   xmlns="http://www.w3.org/2000/svg"
   xmlns:sodipodi="http://sodipodi.sourceforge.net/DTD/sodipodi-0.dtd"
   xmlns:inkscape="http://www.inkscape.org/namespaces/inkscape"
   class="ionicon"
   viewBox="0 0 512 512"
   version="1.1"
   id="svg8"
   sodipodi:docname="school-outline.svg"
   inkscape:version="1.0.2 (e86c8708, 2021-01-15)">
  <metadata
     id="metadata14">
    <rdf:RDF>
      <cc:Work
         rdf:about="">
        <dc:format>image/svg+xml</dc:format>
        <dc:type
           rdf:resource="http://purl.org/dc/dcmitype/StillImage" />
      </cc:Work>
    </rdf:RDF>
  </metadata>
  <defs
     id="defs12" />
  <sodipodi:namedview
     pagecolor="#ffffff"
     bordercolor="#666666"
     borderopacity="1"
     objecttolerance="10"
     gridtolerance="10"
     guidetolerance="10"
     inkscape:pageopacity="0"
     inkscape:pageshadow="2"
     inkscape:window-width="689"
     inkscape:window-height="480"
     id="namedview10"
     showgrid="false"
     inkscape:zoom="1.3027344"
     inkscape:cx="256"
     inkscape:cy="256"
     inkscape:window-x="44"
     inkscape:window-y="25"
     inkscape:window-maximized="0"
     inkscape:current-layer="svg8" />
  <title
     id="title2">School</title>
  <path
     style="color:#000000;font-style:normal;font-variant:normal;font-weight:normal;font-stretch:normal;font-size:medium;line-height:normal;font-family:sans-serif;font-variant-ligatures:normal;font-variant-position:normal;font-variant-caps:normal;font-variant-numeric:normal;font-variant-alternates:normal;font-variant-east-asian:normal;font-feature-settings:normal;font-variation-settings:normal;text-indent:0;text-align:start;text-decoration:none;text-decoration-line:none;text-decoration-style:solid;text-decoration-color:#000000;letter-spacing:normal;word-spacing:normal;text-transform:none;writing-mode:lr-tb;direction:ltr;text-orientation:mixed;dominant-baseline:auto;baseline-shift:baseline;text-anchor:start;white-space:normal;shape-padding:0;shape-margin:0;inline-size:0;clip-rule:nonzero;display:inline;overflow:visible;visibility:visible;isolation:auto;mix-blend-mode:normal;color-interpolation:sRGB;color-interpolation-filters:linearRGB;solid-color:#000000;solid-opacity:1;vector-effect:none;fill:currentColor;fill-opacity:1;fill-rule:nonzero;stroke:none;stroke-linecap:round;stroke-linejoin:round;stroke-miterlimit:4;stroke-dasharray:none;stroke-dashoffset:0;stroke-opacity:1;color-rendering:auto;image-rendering:auto;shape-rendering:auto;text-rendering:auto;enable-background:accumulate;stop-color:#000000;stop-opacity:1;opacity:1"
     d="M 255.89648 48 A 16.0016 16.0016 0 0 0 248.0625 50.107422 L 24.0625 178.10742 A 16.0016 16.0016 0 0 0 24.0625 205.89258 L 248.0625 333.89258 A 16.0016 16.0016 0 0 0 263.9375 333.89258 L 487.9375 205.89258 A 16.0016 16.0016 0 0 0 487.9375 178.10742 L 263.9375 50.107422 A 16.0016 16.0016 0 0 0 255.89648 48 z M 256 82.427734 L 447.75 192 L 256 301.57227 L 64.25 192 L 256 82.427734 z "
     id="path4" />
  <path
     style="color:#000000;font-style:normal;font-variant:normal;font-weight:normal;font-stretch:normal;font-size:medium;line-height:normal;font-family:sans-serif;font-variant-ligatures:normal;font-variant-position:normal;font-variant-caps:normal;font-variant-numeric:normal;font-variant-alternates:normal;font-variant-east-asian:normal;font-feature-settings:normal;font-variation-settings:normal;text-indent:0;text-align:start;text-decoration:none;text-decoration-line:none;text-decoration-style:solid;text-decoration-color:#000000;letter-spacing:normal;word-spacing:normal;text-transform:none;writing-mode:lr-tb;direction:ltr;text-orientation:mixed;dominant-baseline:auto;baseline-shift:baseline;text-anchor:start;white-space:normal;shape-padding:0;shape-margin:0;inline-size:0;clip-rule:nonzero;display:inline;overflow:visible;visibility:visible;isolation:auto;mix-blend-mode:normal;color-interpolation:sRGB;color-interpolation-filters:linearRGB;solid-color:#000000;solid-opacity:1;vector-effect:none;fill:currentColor;fill-opacity:1;fill-rule:nonzero;stroke:none;stroke-linecap:round;stroke-linejoin:round;stroke-miterlimit:4;stroke-dasharray:none;stroke-dashoffset:0;stroke-opacity:1;color-rendering:auto;image-rendering:auto;shape-rendering:auto;text-rendering:auto;enable-background:accumulate;stop-color:#000000;stop-opacity:1;opacity:1"
     d="M 480 176 A 16 16 0 0 0 464 192 L 464 368 A 16 16 0 0 0 480 384 A 16 16 0 0 0 496 368 L 496 192 A 16 16 0 0 0 480 176 z M 112 224 A 16 16 0 0 0 96 240 L 96 368 A 16.0016 16.0016 0 0 0 104.23047 381.98633 L 248.23047 461.98633 A 16.0016 16.0016 0 0 0 248.29883 462.02344 A 16 16 0 0 0 248.42773 462.09375 A 16.0016 16.0016 0 0 0 248.58594 462.17773 A 16 16 0 0 0 248.74414 462.25977 A 16.0016 16.0016 0 0 0 248.87305 462.32422 A 16 16 0 0 0 249.03516 462.4043 A 16.0016 16.0016 0 0 0 249.12695 462.44922 A 16 16 0 0 0 249.32812 462.54297 A 16.0016 16.0016 0 0 0 249.49414 462.61719 A 16 16 0 0 0 249.66016 462.68945 A 16.0016 16.0016 0 0 0 249.79688 462.74805 A 16 16 0 0 0 249.93359 462.80469 A 16.0016 16.0016 0 0 0 250.13672 462.88672 A 16 16 0 0 0 250.28711 462.94531 A 16.0016 16.0016 0 0 0 250.39844 462.98633 A 16 16 0 0 0 250.65234 463.07812 A 16.0016 16.0016 0 0 0 250.69531 463.09375 A 16 16 0 0 0 251 463.19727 A 16 16 0 0 0 251.26562 463.2832 A 16.0016 16.0016 0 0 0 251.36328 463.3125 A 16 16 0 0 0 251.64258 463.39453 A 16 16 0 0 0 251.9668 463.48242 A 16 16 0 0 0 252.28516 463.5625 A 16.0016 16.0016 0 0 0 252.30078 463.56641 A 16 16 0 0 0 252.62109 463.63867 A 16 16 0 0 0 252.90625 463.69727 A 16.0016 16.0016 0 0 0 252.99609 463.71484 A 16 16 0 0 0 253.17188 463.74805 A 16.0016 16.0016 0 0 0 253.38281 463.7832 A 16 16 0 0 0 253.47266 463.79688 A 16.0016 16.0016 0 0 0 253.74805 463.83984 A 16 16 0 0 0 253.86914 463.85547 A 16.0016 16.0016 0 0 0 253.96875 463.86914 A 16 16 0 0 0 254.28125 463.90625 A 16 16 0 0 0 254.61328 463.93945 A 16 16 0 0 0 254.61719 463.93945 A 16 16 0 0 0 254.95117 463.96484 A 16 16 0 0 0 255.25195 463.98242 A 16.0016 16.0016 0 0 0 255.32227 463.98633 A 16 16 0 0 0 255.52148 463.99219 A 16.0016 16.0016 0 0 0 255.72461 463.99805 A 16.0016 16.0016 0 0 0 255.86523 463.99805 A 16 16 0 0 0 256 464 A 16.0016 16.0016 0 0 0 256.29492 463.99609 A 16 16 0 0 0 256.96875 463.9707 A 16.0016 16.0016 0 0 0 257.00781 463.96875 A 16 16 0 0 0 257.30273 463.94727 A 16.0016 16.0016 0 0 0 257.34375 463.94336 A 16 16 0 0 0 257.63867 463.91602 A 16.0016 16.0016 0 0 0 257.67773 463.91211 A 16 16 0 0 0 257.97266 463.87695 A 16 16 0 0 0 258.25586 463.83984 A 16 16 0 0 0 258.33594 463.82812 A 16.0016 16.0016 0 0 0 258.3457 463.82617 A 16 16 0 0 0 258.36523 463.82227 A 16.0016 16.0016 0 0 0 258.67773 463.77344 A 16 16 0 0 0 258.96875 463.72266 A 16.0016 16.0016 0 0 0 259.00977 463.71484 A 16 16 0 0 0 259.29883 463.65625 A 16.0016 16.0016 0 0 0 259.33789 463.64844 A 16 16 0 0 0 259.62695 463.58398 A 16.0016 16.0016 0 0 0 259.66797 463.57422 A 16 16 0 0 0 259.95508 463.50391 A 16.0016 16.0016 0 0 0 259.99414 463.49414 A 16 16 0 0 0 260.2793 463.41602 A 16 16 0 0 0 260.48438 463.35742 A 16 16 0 0 0 260.60352 463.32422 A 16.0016 16.0016 0 0 0 260.64062 463.3125 A 16 16 0 0 0 260.92383 463.22266 A 16.0016 16.0016 0 0 0 260.96289 463.21094 A 16 16 0 0 0 261.24219 463.11719 A 16.0016 16.0016 0 0 0 261.28125 463.10352 A 16 16 0 0 0 261.33203 463.08594 A 16.0016 16.0016 0 0 0 261.59766 462.98828 A 16 16 0 0 0 261.87305 462.88281 A 16.0016 16.0016 0 0 0 261.91016 462.86719 A 16 16 0 0 0 262.18555 462.75586 A 16.0016 16.0016 0 0 0 262.22266 462.74023 A 16 16 0 0 0 262.49414 462.62305 A 16.0016 16.0016 0 0 0 262.53125 462.60742 A 16 16 0 0 0 262.80078 462.48242 A 16.0016 16.0016 0 0 0 262.83594 462.4668 A 16 16 0 0 0 263.05078 462.36133 A 16.0016 16.0016 0 0 0 263.13867 462.31836 A 16 16 0 0 0 263.40234 462.18359 A 16.0016 16.0016 0 0 0 263.4375 462.16602 A 16 16 0 0 0 263.69922 462.02539 A 16.0016 16.0016 0 0 0 263.73438 462.00586 A 16 16 0 0 0 263.76953 461.98633 L 407.76953 381.98633 A 16.0016 16.0016 0 0 0 416 368 L 416 240 A 16 16 0 0 0 400 224 A 16 16 0 0 0 384 240 L 384 358.58594 L 272 420.80859 L 272 320 A 16 16 0 0 0 256 304 A 16 16 0 0 0 240 320 L 240 420.80859 L 128 358.58594 L 128 240 A 16 16 0 0 0 112 224 z "
     id="path6" />
</svg>
