<?xml version="1.0" encoding="utf-8"?>
<!-- Generator: Adobe Illustrator 24.0.0, SVG Export Plug-In . SVG Version: 6.00 Build 0)  -->
<svg version="1.1" id="Layer_1" xmlns="http://www.w3.org/2000/svg" xmlns:xlink="http://www.w3.org/1999/xlink" x="0px" y="0px"
	 viewBox="0 0 512 512" style="enable-background:new 0 0 512 512;" xml:space="preserve">
<title>ionicons-v5-f</title>
<g>
	<path d="M221.1,394.2C125.6,394.2,48,316.5,48,221.1C48,125.6,125.6,48,221.1,48h0c95.4,0,173.1,77.7,173.1,173.1
		C394.2,316.5,316.5,394.2,221.1,394.2z M221.1,80C143.3,80,80,143.3,80,221.1c0,77.8,63.3,141.1,141.1,141.1
		c77.8,0,141.1-63.3,141.1-141.1C362.2,143.3,298.9,80,221.1,80L221.1,80z"/>
</g>
<g>
	<path d="M448,464c-4.1,0-8.2-1.6-11.3-4.7L327,349.6c-6.2-6.2-6.2-16.4,0-22.6c6.2-6.2,16.4-6.2,22.6,0l109.7,109.7
		c6.2,6.2,6.2,16.4,0,22.6C456.2,462.4,452.1,464,448,464z"/>
</g>
</svg>
