<?xml version="1.0" encoding="utf-8"?>
<!-- Generator: Adobe Illustrator 24.0.0, SVG Export Plug-In . SVG Version: 6.00 Build 0)  -->
<svg version="1.1" id="Layer_1" xmlns="http://www.w3.org/2000/svg" xmlns:xlink="http://www.w3.org/1999/xlink" x="0px" y="0px"
	 viewBox="0 0 512 512" style="enable-background:new 0 0 512 512;" xml:space="preserve">
<title>ionicons-v5-f</title>
<g>
	<path d="M256,448c-105.9,0-192-86.1-192-192S150.1,64,256,64s192,86.1,192,192S361.9,448,256,448z M256,96
		c-88.2,0-160,71.8-160,160c0,88.2,71.8,160,160,160c88.2,0,160-71.8,160-160C416,167.8,344.2,96,256,96z"/>
</g>
<g>
	<path d="M232,320c-48.5,0-88-39.5-88-88s39.5-88,88-88s88,39.5,88,88S280.5,320,232,320z M232,176c-30.9,0-56,25.1-56,56
		c0,30.9,25.1,56,56,56c30.9,0,56-25.1,56-56C288,201.1,262.9,176,232,176z"/>
</g>
<g>
	<path d="M336,352c-4.1,0-8.2-1.6-11.3-4.7L272.3,295c-6.2-6.2-6.2-16.4,0-22.6c6.2-6.2,16.4-6.2,22.6,0l52.4,52.4
		c6.2,6.2,6.2,16.4,0,22.6C344.2,350.4,340.1,352,336,352z"/>
</g>
</svg>
