<?xml version="1.0" encoding="utf-8"?>
<!-- Generator: Adobe Illustrator 24.0.0, SVG Export Plug-In . SVG Version: 6.00 Build 0)  -->
<svg version="1.1" id="Layer_1" xmlns="http://www.w3.org/2000/svg" xmlns:xlink="http://www.w3.org/1999/xlink" x="0px" y="0px"
	 viewBox="0 0 512 512" style="enable-background:new 0 0 512 512;" xml:space="preserve">
<title>ionicons-v5-q</title>
<g>
	<path d="M39.8,464.1c-2.7,0-5.5-0.5-8.1-1.4c-6-2.2-10.8-6.5-13.5-12.3c-1.5-3.1-2.2-6.4-2.3-9.9c0-0.1,0-0.1,0-0.2V327
		c0-11.5,8.2-21.4,19.5-23.6l247.6-47c0,0,0,0,0,0l-247.6-47C24.2,207.3,16,197.4,16,185.9V72.6c0-8.3,4.2-16,11.1-20.6
		c6.7-4.4,15-5.2,22.2-2.2L476.4,227c0.1,0,0.1,0.1,0.2,0.1c16.2,7,23.7,25.8,16.7,42c-3.2,7.5-9.2,13.5-16.7,16.7
		c-0.1,0-0.2,0.1-0.2,0.1L49.5,462C46.4,463.4,43.1,464.1,39.8,464.1z M48,333.6V428l416-171.6L48,83.9v95.3L289.1,225
		c15.3,2.9,26,15.8,26,31.4s-10.7,28.5-26,31.4L48,333.6z M470.3,271.2L470.3,271.2L470.3,271.2z"/>
</g>
</svg>
