<?xml version="1.0" encoding="UTF-8" standalone="no"?>
<svg
   xmlns:dc="http://purl.org/dc/elements/1.1/"
   xmlns:cc="http://creativecommons.org/ns#"
   xmlns:rdf="http://www.w3.org/1999/02/22-rdf-syntax-ns#"
   xmlns:svg="http://www.w3.org/2000/svg"
   xmlns="http://www.w3.org/2000/svg"
   xmlns:sodipodi="http://sodipodi.sourceforge.net/DTD/sodipodi-0.dtd"
   xmlns:inkscape="http://www.inkscape.org/namespaces/inkscape"
   class="ionicon"
   viewBox="0 0 512 512"
   version="1.1"
   id="svg6"
   sodipodi:docname="send-outline.svg"
   inkscape:version="1.0.2 (e86c8708, 2021-01-15)">
  <metadata
     id="metadata12">
    <rdf:RDF>
      <cc:Work
         rdf:about="">
        <dc:format>image/svg+xml</dc:format>
        <dc:type
           rdf:resource="http://purl.org/dc/dcmitype/StillImage" />
      </cc:Work>
    </rdf:RDF>
  </metadata>
  <defs
     id="defs10" />
  <sodipodi:namedview
     pagecolor="#ffffff"
     bordercolor="#666666"
     borderopacity="1"
     objecttolerance="10"
     gridtolerance="10"
     guidetolerance="10"
     inkscape:pageopacity="0"
     inkscape:pageshadow="2"
     inkscape:window-width="689"
     inkscape:window-height="480"
     id="namedview8"
     showgrid="false"
     inkscape:zoom="1.3027344"
     inkscape:cx="256"
     inkscape:cy="256"
     inkscape:window-x="44"
     inkscape:window-y="25"
     inkscape:window-maximized="0"
     inkscape:current-layer="svg6" />
  <title
     id="title2">Send</title>
  <path
     style="color:#000000;font-style:normal;font-variant:normal;font-weight:normal;font-stretch:normal;font-size:medium;line-height:normal;font-family:sans-serif;font-variant-ligatures:normal;font-variant-position:normal;font-variant-caps:normal;font-variant-numeric:normal;font-variant-alternates:normal;font-variant-east-asian:normal;font-feature-settings:normal;font-variation-settings:normal;text-indent:0;text-align:start;text-decoration:none;text-decoration-line:none;text-decoration-style:solid;text-decoration-color:#000000;letter-spacing:normal;word-spacing:normal;text-transform:none;writing-mode:lr-tb;direction:ltr;text-orientation:mixed;dominant-baseline:auto;baseline-shift:baseline;text-anchor:start;white-space:normal;shape-padding:0;shape-margin:0;inline-size:0;clip-rule:nonzero;display:inline;overflow:visible;visibility:visible;isolation:auto;mix-blend-mode:normal;color-interpolation:sRGB;color-interpolation-filters:linearRGB;solid-color:#000000;solid-opacity:1;vector-effect:none;fill:currentColor;fill-opacity:1;fill-rule:nonzero;stroke:none;stroke-linecap:round;stroke-linejoin:round;stroke-miterlimit:4;stroke-dasharray:none;stroke-dashoffset:0;stroke-opacity:1;color-rendering:auto;image-rendering:auto;shape-rendering:auto;text-rendering:auto;enable-background:accumulate;stop-color:#000000;stop-opacity:1;opacity:1"
     d="M 37.341797 48.136719 C 25.636553 49.634743 16 60.089722 16 72.589844 L 16 185.84961 A 16.0016 16.0016 0 0 0 16 185.86719 C 16.011577 197.27692 24.292615 207.2767 35.5 209.41602 A 16.0016 16.0016 0 0 0 35.515625 209.41992 L 283.14648 256.41992 L 35.525391 303.41992 C 24.297721 305.5502 16.000027 315.57171 16 327 L 16 440.31055 A 16.0016 16.0016 0 0 0 16 440.48633 C 16.184618 457.2196 34.81981 468.90892 49.964844 461.79102 L 49.259766 462.10156 L 476.40039 285.94141 A 16.0016 16.0016 0 0 0 476.62891 285.8457 C 488.93463 280.54569 495.9707 268.18444 495.9707 256.45508 C 495.9707 244.72572 488.93463 232.36446 476.62891 227.06445 A 16.0016 16.0016 0 0 0 476.42969 226.98047 L 49.291016 49.810547 L 49.455078 49.880859 C 45.373747 48.133926 41.243545 47.637377 37.341797 48.136719 z M 48 83.919922 L 463.9668 256.45508 L 48 428.00586 L 48 333.625 L 289.10938 287.85938 C 305.03312 284.84157 315.15039 270.03552 315.15039 256.41992 C 315.15039 242.80541 305.03485 227.9999 289.11328 224.98047 L 289.10938 224.98047 L 48 179.2168 L 48 83.919922 z "
     id="path4" />
</svg>
