<?xml version="1.0" encoding="utf-8"?>
<!-- Generator: Adobe Illustrator 24.0.0, SVG Export Plug-In . SVG Version: 6.00 Build 0)  -->
<svg version="1.1" id="Layer_1" xmlns="http://www.w3.org/2000/svg" xmlns:xlink="http://www.w3.org/1999/xlink" x="0px" y="0px"
	 viewBox="0 0 512 512" style="enable-background:new 0 0 512 512;" xml:space="preserve">
<title>ionicons-v5-l</title>
<g>
	<path d="M256,224c-53.3,0-103.7-8.8-141.9-24.7C71.5,181.6,48,156.2,48,128s23.5-53.6,66.1-71.3C152.3,40.8,202.7,32,256,32
		s103.8,8.8,141.9,24.7C440.5,74.4,464,99.8,464,128s-23.5,53.6-66.1,71.3C359.8,215.2,309.3,224,256,224z M256,64
		c-49.2,0-95.3,7.9-129.6,22.2C97.3,98.3,80,113.9,80,128s17.3,29.7,46.4,41.8C160.7,184.1,206.8,192,256,192s95.3-7.9,129.6-22.2
		c29-12.1,46.4-27.7,46.4-41.8s-17.3-29.7-46.4-41.8C351.3,71.9,305.2,64,256,64z"/>
</g>
<g>
	<path d="M256,310c-53.3,0-103.7-8.8-141.9-24.7C71.5,267.6,48,242.2,48,214c0-8.8,7.2-16,16-16s16,7.2,16,16
		c0,14.1,17.3,29.7,46.4,41.8C160.8,270.1,206.8,278,256,278c49.2,0,95.2-7.9,129.6-22.2c29.1-12.1,46.4-27.7,46.4-41.8
		c0-8.8,7.2-16,16-16s16,7.2,16,16c0,28.2-23.5,53.6-66.1,71.3C359.7,301.2,309.3,310,256,310z"/>
</g>
<g>
	<path d="M256,396c-53.3,0-103.7-8.8-141.9-24.7C71.5,353.6,48,328.2,48,300c0-8.8,7.2-16,16-16s16,7.2,16,16
		c0,14.1,17.3,29.7,46.4,41.8C160.8,356.1,206.8,364,256,364c49.2,0,95.2-7.9,129.6-22.2c29.1-12.1,46.4-27.7,46.4-41.8
		c0-8.8,7.2-16,16-16s16,7.2,16,16c0,28.2-23.5,53.6-66.1,71.3C359.7,387.2,309.3,396,256,396z"/>
</g>
<g>
	<path d="M256,480c-53.3,0-103.7-8.7-141.9-24.4C71.5,438,48,412.8,48,384.8V127.2c0-8.8,7.2-16,16-16s16,7.2,16,16v257.5
		c0,13.8,17.3,29.3,46.4,41.2c34.4,14.2,80.4,22,129.6,22s95.3-7.8,129.6-22c29-12,46.4-27.4,46.4-41.2V127.2c0-8.8,7.2-16,16-16
		s16,7.2,16,16v257.5c0,28.1-23.5,53.2-66.1,70.8C359.7,471.3,309.3,480,256,480z"/>
</g>
</svg>
