<?xml version="1.0" encoding="UTF-8" standalone="no"?>
<svg
   xmlns:dc="http://purl.org/dc/elements/1.1/"
   xmlns:cc="http://creativecommons.org/ns#"
   xmlns:rdf="http://www.w3.org/1999/02/22-rdf-syntax-ns#"
   xmlns:svg="http://www.w3.org/2000/svg"
   xmlns="http://www.w3.org/2000/svg"
   xmlns:sodipodi="http://sodipodi.sourceforge.net/DTD/sodipodi-0.dtd"
   xmlns:inkscape="http://www.inkscape.org/namespaces/inkscape"
   class="ionicon"
   viewBox="0 0 512 512"
   version="1.1"
   id="svg6"
   sodipodi:docname="settings-outline.svg"
   inkscape:version="1.0.2 (e86c8708, 2021-01-15)">
  <metadata
     id="metadata12">
    <rdf:RDF>
      <cc:Work
         rdf:about="">
        <dc:format>image/svg+xml</dc:format>
        <dc:type
           rdf:resource="http://purl.org/dc/dcmitype/StillImage" />
      </cc:Work>
    </rdf:RDF>
  </metadata>
  <defs
     id="defs10" />
  <sodipodi:namedview
     pagecolor="#ffffff"
     bordercolor="#666666"
     borderopacity="1"
     objecttolerance="10"
     gridtolerance="10"
     guidetolerance="10"
     inkscape:pageopacity="0"
     inkscape:pageshadow="2"
     inkscape:window-width="689"
     inkscape:window-height="480"
     id="namedview8"
     showgrid="false"
     inkscape:zoom="1.3027344"
     inkscape:cx="256"
     inkscape:cy="256"
     inkscape:window-x="44"
     inkscape:window-y="25"
     inkscape:window-maximized="0"
     inkscape:current-layer="svg6" />
  <title
     id="title2">Settings</title>
  <path
     style="color:#000000;font-style:normal;font-variant:normal;font-weight:normal;font-stretch:normal;font-size:medium;line-height:normal;font-family:sans-serif;font-variant-ligatures:normal;font-variant-position:normal;font-variant-caps:normal;font-variant-numeric:normal;font-variant-alternates:normal;font-variant-east-asian:normal;font-feature-settings:normal;font-variation-settings:normal;text-indent:0;text-align:start;text-decoration:none;text-decoration-line:none;text-decoration-style:solid;text-decoration-color:#000000;letter-spacing:normal;word-spacing:normal;text-transform:none;writing-mode:lr-tb;direction:ltr;text-orientation:mixed;dominant-baseline:auto;baseline-shift:baseline;text-anchor:start;white-space:normal;shape-padding:0;shape-margin:0;inline-size:0;clip-rule:nonzero;display:inline;overflow:visible;visibility:visible;isolation:auto;mix-blend-mode:normal;color-interpolation:sRGB;color-interpolation-filters:linearRGB;solid-color:#000000;solid-opacity:1;vector-effect:none;fill:currentColor;fill-opacity:1;fill-rule:nonzero;stroke:none;stroke-linecap:round;stroke-linejoin:round;stroke-miterlimit:4;stroke-dasharray:none;stroke-dashoffset:0;stroke-opacity:1;color-rendering:auto;image-rendering:auto;shape-rendering:auto;text-rendering:auto;enable-background:accumulate;stop-color:#000000;stop-opacity:1;opacity:1"
     d="M 213.23047 26 A 16.0016 16.0016 0 0 0 212.89062 26.003906 C 200.05145 26.275777 188.99993 35.765703 186.78906 48.416016 A 16.0016 16.0016 0 0 0 186.70508 48.943359 L 179.97852 96.826172 C 171.77921 100.80348 163.89041 105.39396 156.38477 110.5625 A 16.0016 16.0016 0 0 0 156.3125 110.61328 C 156.26644 110.64538 156.26114 110.64577 156.20898 110.625 L 111.36719 92.568359 A 16.0016 16.0016 0 0 0 111.07617 92.455078 C 98.990586 87.859491 85.083768 92.716723 78.488281 103.83789 A 16.0016 16.0016 0 0 0 78.396484 103.99414 L 35.640625 177.96875 C 35.638842 177.97182 35.638501 177.97544 35.636719 177.97852 C 29.174624 189.1252 31.68031 203.57856 41.519531 211.89844 A 16.0016 16.0016 0 0 0 41.966797 212.26172 L 80.15625 242.26172 A 16.0016 16.0016 0 0 0 80.167969 242.27148 L 80.175781 242.17578 C 79.767886 246.67366 79.529297 251.26353 79.529297 255.9707 C 79.529297 260.70345 79.779537 265.32374 80.169922 269.8457 A 16.0016 16.0016 0 0 0 80.181641 269.97461 C 80.185094 270.01117 80.190874 269.99474 80.162109 270.01758 L 42.019531 299.96484 A 16.0016 16.0016 0 0 0 41.699219 300.22461 C 31.686601 308.51106 29.084857 323.10894 35.619141 334.34375 L 78.367188 408.30664 A 16.0016 16.0016 0 0 0 78.464844 408.47461 C 85.068104 419.58665 98.974934 424.43203 111.05469 419.83203 A 16.0016 16.0016 0 0 0 111.33398 419.72266 L 156.2207 401.6543 L 156.19336 401.63477 C 156.2027 401.64129 156.21332 401.64582 156.22266 401.65234 L 156.22266 401.6543 C 163.72104 406.89306 171.62752 411.52367 179.86523 415.5 A 16.0016 16.0016 0 0 0 179.94336 415.53711 C 179.98148 415.55525 179.9764 415.54805 179.98242 415.58984 L 179.97656 415.53711 L 186.69531 463.35742 A 16.0016 16.0016 0 0 0 186.86719 464.35352 C 189.40594 476.69621 200.35392 485.78007 212.95312 485.99805 A 16.0016 16.0016 0 0 0 213.23047 486 L 298.76953 486 A 16.0016 16.0016 0 0 0 299.10938 485.99609 C 311.94855 485.72422 323.00007 476.2343 325.21094 463.58398 A 16.0016 16.0016 0 0 0 325.29492 463.05664 L 332.02148 415.17383 C 340.22079 411.19652 348.10959 406.60604 355.61523 401.4375 A 16.0016 16.0016 0 0 0 355.6875 401.38672 C 355.73356 401.35462 355.73886 401.35423 355.79102 401.375 L 400.63281 419.43164 A 16.0016 16.0016 0 0 0 400.92383 419.54492 C 413.00941 424.14051 426.91623 419.28328 433.51172 408.16211 A 16.0016 16.0016 0 0 0 433.60352 408.00586 L 476.35742 334.0332 L 476.35742 334.03125 C 482.87653 322.80052 480.2789 308.21892 470.28125 299.93164 A 16.0016 16.0016 0 0 0 469.94531 299.66016 L 431.71094 269.67188 C 432.09902 265.15563 432.36398 260.62907 432.39062 256.09375 A 16.0016 16.0016 0 0 0 432.39062 256 C 432.39062 251.26725 432.14176 246.68262 431.78906 242.25781 A 16.0016 16.0016 0 0 0 431.77344 242.0625 C 431.77036 242.02908 431.76827 242.03661 431.78906 242.02148 L 469.98047 212.03516 A 16.0016 16.0016 0 0 0 470.30078 211.77539 C 480.3134 203.48894 482.91514 188.89106 476.38086 177.65625 L 433.63281 103.69336 A 16.0016 16.0016 0 0 0 433.53516 103.52539 C 426.9319 92.413353 413.02507 87.567971 400.94531 92.167969 A 16.0016 16.0016 0 0 0 400.66602 92.277344 L 355.7793 110.3457 L 355.80664 110.36523 C 355.7973 110.35871 355.78668 110.35418 355.77734 110.34766 C 355.77706 110.34745 355.77763 110.3459 355.77734 110.3457 C 348.27896 105.10694 340.37248 100.47633 332.13477 96.5 A 16.0016 16.0016 0 0 0 332.05664 96.462891 C 332.01852 96.444746 332.0236 96.451948 332.01758 96.410156 L 332.02344 96.462891 L 325.30469 48.642578 A 16.0016 16.0016 0 0 0 325.13281 47.646484 C 322.59406 35.303788 311.64608 26.219931 299.04688 26.001953 A 16.0016 16.0016 0 0 0 298.76953 26 L 213.23047 26 z M 217.74805 58 L 294.30469 58 L 300.33594 100.91602 A 16.0016 16.0016 0 0 0 300.34375 100.9707 C 301.87063 111.57411 308.63156 120.7537 318.30469 125.35742 L 318.22461 125.31836 C 324.93207 128.55604 331.36999 132.32688 337.47461 136.59375 A 16.0016 16.0016 0 0 0 337.50195 136.61328 C 346.33929 142.76207 357.7347 144.05153 367.72266 140.0332 A 16.0016 16.0016 0 0 0 367.72461 140.0332 L 408.24805 123.7207 L 446.45312 189.82227 L 412.00977 216.86523 A 16.0016 16.0016 0 0 0 411.98828 216.88086 C 403.47373 223.58866 398.91382 234.20438 399.9082 244.99805 L 399.89062 244.80078 C 400.19669 248.64052 400.38714 252.36127 400.38867 255.95508 C 400.34993 262.17412 399.89382 268.38357 399.01953 274.54102 A 16.0016 16.0016 0 0 0 404.98633 289.37891 L 446.42188 321.88086 L 408.21289 387.98633 L 367.68555 371.66797 A 16.0016 16.0016 0 0 0 367.62891 371.64453 C 357.62204 367.66022 346.22942 368.9747 337.39258 375.13281 L 337.46484 375.08203 C 331.27892 379.34178 324.78002 383.12618 318.02148 386.40234 A 16.0016 16.0016 0 0 0 318.00586 386.41016 C 308.44577 391.05668 301.80002 400.20473 300.33398 410.73242 C 300.33378 410.73386 300.33223 410.73489 300.33203 410.73633 L 294.25195 454 L 217.69531 454 L 211.66406 411.08398 A 16.0016 16.0016 0 0 0 211.65625 411.0293 C 210.12937 400.42589 203.36844 391.2463 193.69531 386.64258 L 193.77539 386.68164 C 187.06793 383.44396 180.63001 379.67312 174.52539 375.40625 A 16.0016 16.0016 0 0 0 174.49805 375.38672 C 165.66071 369.23793 154.2653 367.94847 144.27734 371.9668 A 16.0016 16.0016 0 0 0 144.27539 371.9668 L 103.75195 388.2793 L 65.546875 322.17773 L 99.990234 295.13477 A 16.0016 16.0016 0 0 0 100.05859 295.08203 C 108.53596 288.35256 113.05684 277.74054 112.03906 266.96484 L 112.05078 267.09375 C 111.72117 263.27571 111.5293 259.57795 111.5293 255.9707 C 111.5293 252.33787 111.71282 248.72658 112.04492 245.06445 A 16.0016 16.0016 0 0 0 112.05273 244.96875 C 112.96054 234.24291 108.3826 223.73202 99.912109 217.08984 L 65.580078 190.11719 L 103.78711 124.01367 L 144.31445 140.33203 A 16.0016 16.0016 0 0 0 144.37109 140.35547 C 154.37796 144.33978 165.77058 143.0253 174.60742 136.86719 L 174.53516 136.91797 C 180.72108 132.65822 187.21998 128.87382 193.97852 125.59766 A 16.0016 16.0016 0 0 0 193.99414 125.58984 C 203.55423 120.94332 210.19998 111.79527 211.66602 101.26758 L 211.66797 101.26367 L 217.74805 58 z M 251.36914 176.13477 C 222.52058 177.81696 196.31072 195.09939 183.68555 221.78516 C 169.25681 252.28311 175.57908 288.70799 199.43555 312.56445 C 223.29201 336.42092 259.71689 342.74319 290.21484 328.31445 C 320.71286 313.88568 338.92932 281.71292 335.61328 248.13672 A 16.0016 16.0016 0 0 0 335.60938 248.11133 C 331.8103 210.28686 301.71314 180.1897 263.88867 176.39062 A 16.0016 16.0016 0 0 0 263.86328 176.38672 C 259.66626 175.97221 255.49036 175.89445 251.36914 176.13477 z M 253.19727 208.07617 C 255.66935 207.93497 258.17581 207.98413 260.69922 208.23242 C 283.56628 210.533 301.467 228.43372 303.76758 251.30078 C 305.75794 271.52941 294.90299 290.69598 276.5293 299.38867 C 258.15033 308.08385 236.44125 304.31625 222.0625 289.9375 C 207.68375 275.55875 203.91615 253.84967 212.61133 235.4707 C 220.21965 219.38902 235.85217 209.06687 253.19727 208.07617 z "
     id="path4" />
</svg>
