<?xml version="1.0" encoding="utf-8"?>
<!-- Generator: Adobe Illustrator 24.0.0, SVG Export Plug-In . SVG Version: 6.00 Build 0)  -->
<svg version="1.1" id="Layer_1" xmlns="http://www.w3.org/2000/svg" xmlns:xlink="http://www.w3.org/1999/xlink" x="0px" y="0px"
	 viewBox="0 0 512 512" style="enable-background:new 0 0 512 512;" xml:space="preserve">
<title>ionicons-v5-q</title>
<g>
	<path d="M298.8,486h-85.5c-0.1,0-0.2,0-0.3,0c-12.8-0.2-23.5-9.1-26.1-21.6c-0.1-0.3-0.1-0.7-0.2-1l-6.7-47.8c0,0-0.1,0-0.1,0
		c-8.2-4-16.2-8.6-23.7-13.9l-44.9,18.1c-0.1,0-0.2,0.1-0.3,0.1c-12.2,4.6-25.9-0.1-32.6-11.4c0-0.1-0.1-0.1-0.1-0.2l-42.8-74
		c-6.6-11.3-4-25.7,6.1-34.1c0.1-0.1,0.2-0.2,0.3-0.3l38.2-30c0,0-0.1-0.1-0.1-0.1c-0.4-5-0.6-9.5-0.6-13.9c0-4.5,0.2-9,0.6-13.8
		L42,212.3c-0.2-0.1-0.3-0.2-0.4-0.4c-9.9-8.4-12.4-22.7-5.9-33.9l42.8-74c0-0.1,0.1-0.1,0.1-0.2c6.7-11.2,20.4-16,32.6-11.4
		c0.1,0,0.2,0.1,0.3,0.1l44.9,18.1c0,0,0,0,0,0c7.6-5.2,15.5-9.8,23.7-13.8l6.7-47.9c0-0.2,0.1-0.4,0.1-0.5
		C189,35.7,200,26.3,212.9,26c0.1,0,0.2,0,0.3,0h85.5c0.1,0,0.2,0,0.3,0c12.8,0.2,23.5,9.1,26.1,21.6c0.1,0.3,0.1,0.7,0.2,1
		l6.7,47.8c0,0,0.1,0,0.1,0c8.2,4,16.2,8.6,23.7,13.9l44.9-18.1c0.1,0,0.2-0.1,0.3-0.1c12.2-4.7,25.9,0.1,32.6,11.4
		c0,0.1,0.1,0.1,0.1,0.2l42.8,74c6.6,11.3,4,25.7-6.1,34.1c-0.1,0.1-0.2,0.2-0.3,0.3l-38.2,30c0,0.1,0,0.2,0,0.2
		c0.4,5.1,0.6,9.6,0.6,13.7c0,0,0,0.1,0,0.1c0,4.5-0.2,9.1-0.6,13.6l38.2,29.9c0.1,0.1,0.2,0.2,0.3,0.3c10.1,8.4,12.7,22.7,6.1,34.1
		l-42.8,74c0,0.1-0.1,0.1-0.1,0.2c-6.7,11.2-20.4,16-32.6,11.4c-0.1,0-0.2-0.1-0.3-0.1l-44.9-18.1c0,0,0,0,0,0
		c-7.6,5.2-15.5,9.8-23.7,13.8l-6.7,47.9c0,0.2-0.1,0.4-0.1,0.5c-2.2,12.7-13.2,22.1-26.1,22.4C299,486,298.9,486,298.8,486z
		 M217.7,454h76.6l6.1-43.3c1.5-10.5,8.1-19.6,17.7-24.3c6.8-3.3,13.3-7.1,19.5-11.3c8.8-6.1,20.1-7.4,30.2-3.4l40.6,16.3l38.2-66.1
		L405,289.4c-4.5-3.5-6.8-9.2-6-14.8c0.9-6.1,1.3-12.4,1.4-18.6c0-3.3-0.2-6.9-0.5-11.1c-1-10.8,3.6-21.3,12.1-28l34.5-27.1
		l-38.2-66.1L367.7,140c-10,4-21.3,2.8-30.2-3.4c-6.1-4.3-12.6-8.1-19.3-11.3c-9.6-4.6-16.3-13.7-17.9-24.3l-6-43h-76.6l-6.1,43.3
		c-1.5,10.5-8.1,19.6-17.7,24.3c-6.8,3.3-13.3,7.1-19.5,11.3c-8.8,6.1-20.1,7.4-30.2,3.4L103.8,124l-38.2,66.1l34.3,27
		c8.5,6.7,13,17.1,12.1,27.9c-0.4,3.9-0.5,7.5-0.5,11c0,3.4,0.2,7,0.5,11.1c1,10.8-3.5,21.3-12,28l-34.5,27.1l38.2,66.1l40.5-16.3
		c10-4,21.3-2.8,30.2,3.4c6.1,4.3,12.6,8.1,19.3,11.3c9.6,4.6,16.3,13.7,17.9,24.3L217.7,454z M63.3,318.3L63.3,318.3
		C63.3,318.3,63.3,318.3,63.3,318.3z M448.7,318C448.7,318,448.7,318,448.7,318L448.7,318z M416.4,256L416.4,256L416.4,256z
		 M63.3,194L63.3,194C63.3,194,63.3,194,63.3,194z M448.7,193.7C448.7,193.7,448.7,193.7,448.7,193.7L448.7,193.7z M256.1,336
		c-2.6,0-5.3-0.1-7.9-0.4c-21.3-2.1-40.4-12.4-54-28.9c-13.6-16.5-19.9-37.3-17.8-58.6c4.3-43.9,43.6-76.1,87.5-71.8c0,0,0,0,0,0
		c37.8,3.8,67.9,34,71.7,71.7c0.5,5.2,0.5,10.5,0,15.8C331.5,305.1,296.7,336,256.1,336z M255.9,208c-11.1,0-21.7,3.8-30.4,10.9
		c-9.9,8.1-16.1,19.6-17.3,32.4c-1.3,12.8,2.5,25.2,10.7,35.2c8.1,9.9,19.6,16.1,32.4,17.3c26.3,2.6,49.9-16.7,52.5-43.1
		c0.3-3.1,0.3-6.3,0-9.4c-2.3-22.7-20.4-40.8-43.1-43.1C259.1,208.1,257.5,208,255.9,208z"/>
</g>
</svg>
