<?xml version="1.0" encoding="utf-8"?>
<!-- Generator: Adobe Illustrator 24.0.0, SVG Export Plug-In . SVG Version: 6.00 Build 0)  -->
<svg version="1.1" id="Layer_1" xmlns="http://www.w3.org/2000/svg" xmlns:xlink="http://www.w3.org/1999/xlink" x="0px" y="0px"
	 viewBox="0 0 512 512" style="enable-background:new 0 0 512 512;" xml:space="preserve">
<title>ionicons-v5-l</title>
<g>
	<path d="M336,336H32c-5.7,0-10.9-3-13.8-7.9c-2.9-4.9-2.9-10.9-0.2-15.9l152-272c2.8-5.1,8.2-8.2,14-8.2s11.1,3.1,14,8.2l152,272
		c2.8,5,2.7,11-0.2,15.9C346.9,333,341.7,336,336,336z M59.3,304h249.5L184,80.8L59.3,304z"/>
</g>
<g>
	<path d="M336.2,480c-14.5,0-29-2-43.3-6c-41.2-11.5-75.4-38.3-96.4-75.6C183.1,374.6,176,347.4,176,320l32,0
		c0,22,5.7,43.7,16.5,62.8c16.8,29.8,44.2,51.3,77.1,60.5c32.9,9.2,67.5,5,97.3-11.8c29.8-16.8,51.3-44.2,60.5-77.1
		c9.2-32.9,5-67.5-11.8-97.3c-34.6-61.5-112.9-83.3-174.3-48.7l-15.7-27.9c76.9-43.3,174.6-16,217.9,60.9
		c21,37.2,26.2,80.4,14.7,121.6c-11.5,41.2-38.3,75.4-75.6,96.4C390.2,473.1,363.4,480,336.2,480z"/>
</g>
</svg>
