<?xml version="1.0" encoding="utf-8"?>
<!-- Generator: Adobe Illustrator 24.0.0, SVG Export Plug-In . SVG Version: 6.00 Build 0)  -->
<svg version="1.1" id="Layer_1" xmlns="http://www.w3.org/2000/svg" xmlns:xlink="http://www.w3.org/1999/xlink" x="0px" y="0px"
	 viewBox="0 0 512 512" style="enable-background:new 0 0 512 512;" xml:space="preserve">
<title>ionicons-v5-f</title>
<g>
	<path d="M128,320c-35.3,0-64-28.7-64-64c0-35.3,28.7-64,64-64s64,28.7,64,64C192,291.3,163.3,320,128,320z M128,224
		c-17.6,0-32,14.4-32,32c0,17.6,14.4,32,32,32s32-14.4,32-32C160,238.4,145.6,224,128,224z"/>
</g>
<g>
	<path d="M384,176c-35.3,0-64-28.7-64-64s28.7-64,64-64s64,28.7,64,64S419.3,176,384,176z M384,80c-17.6,0-32,14.4-32,32
		s14.4,32,32,32s32-14.4,32-32S401.6,80,384,80z"/>
</g>
<g>
	<path d="M384,464c-35.3,0-64-28.7-64-64s28.7-64,64-64s64,28.7,64,64S419.3,464,384,464z M384,368c-17.6,0-32,14.4-32,32
		s14.4,32,32,32s32-14.4,32-32S401.6,368,384,368z"/>
</g>
<g>
	<path d="M342.2,392.5c-2.7,0-5.3-0.7-7.8-2.1L162,293.5c-7.7-4.3-10.4-14.1-6.1-21.8s14.1-10.4,21.8-6.1L350,362.5
		c7.7,4.3,10.4,14.1,6.1,21.8C353.2,389.5,347.7,392.5,342.2,392.5z"/>
</g>
<g>
	<path d="M169.8,248.5c-5.6,0-11-2.9-14-8.2c-4.3-7.7-1.6-17.5,6.1-21.8l172.3-96.9c7.7-4.3,17.5-1.6,21.8,6.1s1.6,17.5-6.1,21.8
		l-172.3,96.9C175.2,247.8,172.5,248.5,169.8,248.5z"/>
</g>
</svg>
