<?xml version="1.0" encoding="utf-8"?>
<!-- Generator: Adobe Illustrator 24.0.0, SVG Export Plug-In . SVG Version: 6.00 Build 0)  -->
<svg version="1.1" id="Layer_1" xmlns="http://www.w3.org/2000/svg" xmlns:xlink="http://www.w3.org/1999/xlink" x="0px" y="0px"
	 viewBox="0 0 512 512" style="enable-background:new 0 0 512 512;" xml:space="preserve">
<title>ionicons-v5-f</title>
<g>
	<path d="M376,480H136c-30.9,0-56-25.1-56-56V232c0-30.9,25.1-56,56-56h40c8.8,0,16,7.2,16,16s-7.2,16-16,16h-40
		c-13.2,0-24,10.8-24,24v192c0,13.2,10.8,24,24,24h240c13.2,0,24-10.8,24-24V232c0-13.2-10.8-24-24-24h-40c-8.8,0-16-7.2-16-16
		s7.2-16,16-16h40c30.9,0,56,25.1,56,56v192C432,454.9,406.9,480,376,480z"/>
</g>
<g>
	<path d="M336,144c-4.1,0-8.2-1.6-11.3-4.7L256,70.6l-68.7,68.7c-6.2,6.2-16.4,6.2-22.6,0c-6.2-6.2-6.2-16.4,0-22.6l80-80
		c6.2-6.2,16.4-6.2,22.6,0l80,80c6.2,6.2,6.2,16.4,0,22.6C344.2,142.4,340.1,144,336,144z"/>
</g>
<g>
	<path d="M256,337c-8.8,0-16-7.2-16-16V48c0-8.8,7.2-16,16-16c8.8,0,16,7.2,16,16v273C272,329.8,264.8,337,256,337z"/>
</g>
</svg>
