<?xml version="1.0" encoding="UTF-8" standalone="no"?>
<svg
   xmlns:dc="http://purl.org/dc/elements/1.1/"
   xmlns:cc="http://creativecommons.org/ns#"
   xmlns:rdf="http://www.w3.org/1999/02/22-rdf-syntax-ns#"
   xmlns:svg="http://www.w3.org/2000/svg"
   xmlns="http://www.w3.org/2000/svg"
   xmlns:sodipodi="http://sodipodi.sourceforge.net/DTD/sodipodi-0.dtd"
   xmlns:inkscape="http://www.inkscape.org/namespaces/inkscape"
   class="ionicon"
   viewBox="0 0 512 512"
   version="1.1"
   id="svg6"
   sodipodi:docname="share-outline.svg"
   inkscape:version="1.0.2 (e86c8708, 2021-01-15)">
  <metadata
     id="metadata12">
    <rdf:RDF>
      <cc:Work
         rdf:about="">
        <dc:format>image/svg+xml</dc:format>
        <dc:type
           rdf:resource="http://purl.org/dc/dcmitype/StillImage" />
      </cc:Work>
    </rdf:RDF>
  </metadata>
  <defs
     id="defs10" />
  <sodipodi:namedview
     pagecolor="#ffffff"
     bordercolor="#666666"
     borderopacity="1"
     objecttolerance="10"
     gridtolerance="10"
     guidetolerance="10"
     inkscape:pageopacity="0"
     inkscape:pageshadow="2"
     inkscape:window-width="689"
     inkscape:window-height="480"
     id="namedview8"
     showgrid="false"
     inkscape:zoom="1.3027344"
     inkscape:cx="256"
     inkscape:cy="256"
     inkscape:window-x="44"
     inkscape:window-y="25"
     inkscape:window-maximized="0"
     inkscape:current-layer="svg6" />
  <title
     id="title2">Share</title>
  <path
     style="color:#000000;font-style:normal;font-variant:normal;font-weight:normal;font-stretch:normal;font-size:medium;line-height:normal;font-family:sans-serif;font-variant-ligatures:normal;font-variant-position:normal;font-variant-caps:normal;font-variant-numeric:normal;font-variant-alternates:normal;font-variant-east-asian:normal;font-feature-settings:normal;font-variation-settings:normal;text-indent:0;text-align:start;text-decoration:none;text-decoration-line:none;text-decoration-style:solid;text-decoration-color:#000000;letter-spacing:normal;word-spacing:normal;text-transform:none;writing-mode:lr-tb;direction:ltr;text-orientation:mixed;dominant-baseline:auto;baseline-shift:baseline;text-anchor:start;white-space:normal;shape-padding:0;shape-margin:0;inline-size:0;clip-rule:nonzero;display:inline;overflow:visible;visibility:visible;isolation:auto;mix-blend-mode:normal;color-interpolation:sRGB;color-interpolation-filters:linearRGB;solid-color:#000000;solid-opacity:1;vector-effect:none;fill:currentColor;fill-opacity:1;fill-rule:nonzero;stroke:none;stroke-linecap:round;stroke-linejoin:round;stroke-miterlimit:4;stroke-dasharray:none;stroke-dashoffset:0;stroke-opacity:1;color-rendering:auto;image-rendering:auto;shape-rendering:auto;text-rendering:auto;enable-background:accumulate;stop-color:#000000;stop-opacity:1;opacity:1"
     d="M 256 32 A 16 16 0 0 0 255.83203 32.001953 A 16 16 0 0 0 255.7832 32.001953 A 16.0016 16.0016 0 0 0 255.42188 32.011719 A 16 16 0 0 0 255.11133 32.025391 A 16 16 0 0 0 254.83984 32.042969 A 16.0016 16.0016 0 0 0 254.71289 32.052734 A 16 16 0 0 0 254.53906 32.068359 A 16.0016 16.0016 0 0 0 254.4082 32.080078 A 16 16 0 0 0 254.10547 32.113281 A 16 16 0 0 0 253.83789 32.148438 A 16.0016 16.0016 0 0 0 253.70312 32.166016 A 16 16 0 0 0 253.57422 32.185547 A 16.0016 16.0016 0 0 0 253.36719 32.21875 A 16 16 0 0 0 253.20312 32.248047 A 16.0016 16.0016 0 0 0 253.08398 32.267578 A 16 16 0 0 0 252.7793 32.328125 A 16 16 0 0 0 252.44922 32.400391 A 16 16 0 0 0 252.16797 32.466797 A 16.0016 16.0016 0 0 0 252.09375 32.484375 A 16 16 0 0 0 251.79883 32.5625 A 16 16 0 0 0 251.79688 32.5625 A 16 16 0 0 0 251.50391 32.644531 A 16.0016 16.0016 0 0 0 251.45508 32.660156 A 16 16 0 0 0 251.23047 32.728516 A 16.0016 16.0016 0 0 0 251.0957 32.769531 A 16 16 0 0 0 250.93555 32.824219 A 16.0016 16.0016 0 0 0 250.79102 32.871094 A 16 16 0 0 0 250.51562 32.970703 A 16 16 0 0 0 250.32227 33.042969 A 16.0016 16.0016 0 0 0 250.08984 33.132812 A 16.0016 16.0016 0 0 0 249.8125 33.246094 A 16 16 0 0 0 249.77734 33.259766 A 16.0016 16.0016 0 0 0 249.57812 33.345703 A 16 16 0 0 0 249.27148 33.484375 A 16 16 0 0 0 248.97266 33.626953 A 16.0016 16.0016 0 0 0 248.96289 33.632812 A 16 16 0 0 0 248.76172 33.732422 A 16.0016 16.0016 0 0 0 248.62891 33.800781 A 16 16 0 0 0 248.37109 33.9375 A 16 16 0 0 0 248.1875 34.039062 A 16.0016 16.0016 0 0 0 247.97266 34.160156 A 16.0016 16.0016 0 0 0 247.68945 34.330078 A 16 16 0 0 0 247.66797 34.341797 A 16.0016 16.0016 0 0 0 247.43555 34.486328 A 16 16 0 0 0 247.33789 34.548828 A 16.0016 16.0016 0 0 0 247.14258 34.677734 A 16 16 0 0 0 247.05078 34.738281 A 16.0016 16.0016 0 0 0 246.9043 34.837891 A 16 16 0 0 0 246.70703 34.976562 A 16.0016 16.0016 0 0 0 246.63281 35.029297 A 16 16 0 0 0 246.45703 35.158203 A 16.0016 16.0016 0 0 0 246.34961 35.238281 A 16 16 0 0 0 246.21094 35.34375 A 16.0016 16.0016 0 0 0 246.08008 35.447266 A 16 16 0 0 0 246.0293 35.486328 A 16.0016 16.0016 0 0 0 245.86133 35.623047 A 16 16 0 0 0 245.66406 35.787109 A 16.0016 16.0016 0 0 0 245.60352 35.837891 A 16 16 0 0 0 245.51367 35.916016 A 16.0016 16.0016 0 0 0 245.26758 36.132812 A 16 16 0 0 0 245.23633 36.162109 A 16.0016 16.0016 0 0 0 245.06641 36.318359 A 16 16 0 0 0 244.91016 36.46875 A 16.0016 16.0016 0 0 0 244.85742 36.517578 A 16 16 0 0 0 244.77148 36.601562 A 16.0016 16.0016 0 0 0 244.68555 36.685547 L 164.68555 116.68555 A 16 16 0 0 0 164.68555 139.31445 A 16 16 0 0 0 187.31445 139.31445 L 240 86.628906 L 240 321 A 16 16 0 0 0 256 337 A 16 16 0 0 0 272 321 L 272 86.628906 L 324.68555 139.31445 A 16 16 0 0 0 347.31445 139.31445 A 16 16 0 0 0 347.31445 116.68555 L 267.39844 36.771484 L 267.31445 36.685547 A 16.0016 16.0016 0 0 0 267.16016 36.535156 A 16 16 0 0 0 267.07422 36.451172 A 16.0016 16.0016 0 0 0 267.00977 36.390625 A 16 16 0 0 0 266.84766 36.240234 A 16 16 0 0 0 266.82812 36.220703 A 16.0016 16.0016 0 0 0 266.66797 36.076172 A 16 16 0 0 0 266.57812 35.996094 A 16.0016 16.0016 0 0 0 266.41602 35.855469 A 16.0016 16.0016 0 0 0 266.18945 35.664062 A 16.0016 16.0016 0 0 0 266.1582 35.638672 A 16 16 0 0 0 266.06445 35.5625 A 16.0016 16.0016 0 0 0 265.89648 35.427734 A 16 16 0 0 0 265.80078 35.353516 A 16.0016 16.0016 0 0 0 265.62891 35.222656 A 16 16 0 0 0 265.5332 35.150391 A 16.0016 16.0016 0 0 0 265.35938 35.023438 A 16 16 0 0 0 265.25977 34.953125 A 16.0016 16.0016 0 0 0 265.08398 34.828125 A 16 16 0 0 0 264.98438 34.759766 A 16.0016 16.0016 0 0 0 264.80469 34.640625 A 16 16 0 0 0 264.70312 34.574219 A 16.0016 16.0016 0 0 0 264.52148 34.458984 A 16.0016 16.0016 0 0 0 264.29688 34.320312 A 16.0016 16.0016 0 0 0 264.23633 34.283203 A 16 16 0 0 0 264.13086 34.220703 A 16.0016 16.0016 0 0 0 263.94531 34.113281 A 16 16 0 0 0 263.83984 34.052734 A 16.0016 16.0016 0 0 0 263.65234 33.949219 A 16 16 0 0 0 263.54492 33.890625 A 16.0016 16.0016 0 0 0 263.46289 33.847656 A 16 16 0 0 0 263.24609 33.736328 A 16 16 0 0 0 262.96875 33.597656 A 16 16 0 0 0 262.94531 33.585938 A 16.0016 16.0016 0 0 0 262.75195 33.494141 A 16 16 0 0 0 262.64062 33.443359 A 16.0016 16.0016 0 0 0 262.44531 33.355469 A 16 16 0 0 0 262.33398 33.306641 A 16.0016 16.0016 0 0 0 262.13477 33.222656 A 16 16 0 0 0 262.02344 33.177734 A 16.0016 16.0016 0 0 0 262.01367 33.173828 A 16 16 0 0 0 261.70898 33.054688 A 16 16 0 0 0 261.39453 32.9375 A 16 16 0 0 0 261.07617 32.828125 A 16 16 0 0 0 260.75586 32.724609 A 16 16 0 0 0 260.43359 32.626953 A 16 16 0 0 0 260.10938 32.537109 A 16 16 0 0 0 259.7832 32.455078 A 16 16 0 0 0 259.45703 32.378906 A 16 16 0 0 0 259.13672 32.310547 A 16 16 0 0 0 259.12695 32.308594 A 16.0016 16.0016 0 0 0 258.91602 32.267578 A 16 16 0 0 0 258.79688 32.246094 A 16.0016 16.0016 0 0 0 258.58594 32.210938 A 16 16 0 0 0 258.46484 32.191406 A 16.0016 16.0016 0 0 0 258.25195 32.160156 A 16.0016 16.0016 0 0 0 258.01562 32.128906 A 16 16 0 0 0 257.81641 32.103516 A 16 16 0 0 0 257.79883 32.101562 A 16.0016 16.0016 0 0 0 257.78125 32.099609 A 16 16 0 0 0 257.46289 32.068359 A 16 16 0 0 0 257.12891 32.041016 A 16 16 0 0 0 256.80664 32.019531 A 16 16 0 0 0 256.79297 32.019531 A 16.0016 16.0016 0 0 0 256.77344 32.019531 A 16 16 0 0 0 256.45703 32.007812 A 16 16 0 0 0 256.12109 32.001953 A 16 16 0 0 0 256 32 z M 136 176 C 105.26157 176 80 201.26157 80 232 L 80 424 C 80 454.73843 105.26157 480 136 480 L 376 480 C 406.73843 480 432 454.73843 432 424 L 432 232 C 432 201.26157 406.73843 176 376 176 L 336 176 A 16 16 0 0 0 320 192 A 16 16 0 0 0 336 208 L 376 208 C 389.44435 208 400 218.55565 400 232 L 400 424 C 400 437.44435 389.44435 448 376 448 L 136 448 C 122.55565 448 112 437.44435 112 424 L 112 232 C 112 218.55565 122.55565 208 136 208 L 176 208 A 16 16 0 0 0 192 192 A 16 16 0 0 0 176 176 L 136 176 z "
     id="path4" />
</svg>
