<?xml version="1.0" encoding="utf-8"?>
<!-- Generator: Adobe Illustrator 24.0.0, SVG Export Plug-In . SVG Version: 6.00 Build 0)  -->
<svg version="1.1" id="Layer_1" xmlns="http://www.w3.org/2000/svg" xmlns:xlink="http://www.w3.org/1999/xlink" x="0px" y="0px"
	 viewBox="0 0 512 512" style="enable-background:new 0 0 512 512;" xml:space="preserve">
<title>ionicons-v5-s</title>
<g>
	<path d="M256,480c-2,0-4.1-0.4-6-1.2c-10.8-4.4-67.6-29-121.1-85.7c-31.2-33.1-55.3-71-71.6-112.5
		c-20.1-51.2-28.3-108.1-24.4-169.2c0.5-7.4,5.9-13.4,13.1-14.7c86.5-15.5,122.6-26.7,203.3-63.2c4.2-1.9,9-1.9,13.2,0
		c80.7,36.5,116.9,47.7,203.3,63.2c7.3,1.3,12.7,7.4,13.1,14.7c3.9,61.1-4.4,118.1-24.4,169.2c-16.3,41.5-40.4,79.4-71.6,112.5
		c-53.5,56.7-110.2,81.4-121.1,85.7C260.1,479.6,258,480,256,480z M64.3,125.8c-1.8,51.7,5.9,99.8,22.9,143.1
		c14.8,37.7,36.7,72.1,65.1,102.2c42.2,44.8,87.3,67.9,103.8,75.4c16.5-7.5,61.5-30.6,103.8-75.4c28.4-30.1,50.3-64.5,65.1-102.2
		c17-43.3,24.7-91.4,22.9-143.1C369.1,111.3,331.3,99.3,256,65.5C180.7,99.3,142.9,111.3,64.3,125.8z"/>
</g>
</svg>
