<?xml version="1.0" encoding="UTF-8"?>
<svg width="512px" height="512px" viewBox="0 0 512 512" version="1.1" xmlns="http://www.w3.org/2000/svg" xmlns:xlink="http://www.w3.org/1999/xlink">
    <!-- Generator: Sketch 62 (91390) - https://sketch.com -->
    <title>Artboard</title>
    <desc>Created with Sketch.</desc>
    <g id="Artboard" stroke="none" stroke-width="1" fill="none" fill-rule="evenodd">
        <g id="shirt-outline" transform="translate(16.000000, 32.000000)" fill="#000000" fill-rule="nonzero">
            <path d="M298.6,0.1 C304,0.1 309.4,1 314.5,2.8 L320.181823,4.78710261 C320.654131,4.86948028 321.127216,4.97355788 321.6,5.1 C322.859316,5.44075619 324.044003,5.92199151 325.141053,6.52256809 L469.4,57 C476.9,59.6 481.3,67.3 479.8,75.1 L463.2,163.1 C461.9,170 456.2,175.2 449.3,176 L400.4,181.5 C396.3,182 393.2,185.6 393.3,189.7 L400.1,431.6 C400.2,435.9 398.6,440.1 395.6,443.2 C392.5,446.3 388.3,448 384,448 L96,448 C91.7,448 87.5,446.3 84.5,443.2 C81.5,440.1 79.9,435.9 80,431.6 L86.8,189.7 C86.9,185.5 83.8,181.9 79.7,181.5 L30.8,176 C23.8,175.2 18.2,170 16.9,163.1 L0.3,75.1 C-1.2,67.3 3.3,59.6 10.7,57 L155.277351,6.41014449 C156.312734,5.86098196 157.423816,5.41826153 158.6,5.1 C159.009635,4.98915771 159.419966,4.89550191 159.830233,4.81858488 L165.6,2.8 C170.7,1 176,0.1 181.5,0.1 C183.3,0.1 185.1,0.4 186.8,1 C187,1.1 207.8,8.1 240.1,8.1 C272.4,8.1 293.2,1.1 293.4,1 C295.1,0.4 296.8,0.1 298.6,0.1 Z M153.216181,40.9204743 L34.3,82.6 L46.2,145.5 L83.3,149.7 C103.8,152 119.4,170 118.8,190.7 L112.5,416 L367.6,416 L361.3,190.5 C360.7,169.9 376.3,151.9 396.8,149.6 L434,145.4 L445.9,82.5 L326.979069,40.9905294 C318.757145,58.5395978 305.434955,73.143202 288.3,83.1 C273.3,91.7 256.8,96.1 240.2,96.1 C231.9,96.1 223.6,95 215.4,92.8 C187.827364,85.4915904 165.151825,66.2508162 153.216181,40.9204743 Z M294.514628,33.7321819 L294.460839,33.7447426 C283.82954,36.39145 264.686,40 239.9,40 C215.472889,40 196.526021,36.4951934 185.806314,33.8603027 C194.312376,47.4179782 207.746959,57.5677403 223.6,61.8 C240.1,66.2 257.4,63.9 272.2,55.3 C281.435822,49.9332387 289.036044,42.5414496 294.514628,33.7321819 Z" id="Combined-Shape"></path>
        </g>
    </g>
</svg>