<?xml version="1.0" encoding="utf-8"?>
<!-- Generator: Adobe Illustrator 24.0.0, SVG Export Plug-In . SVG Version: 6.00 Build 0)  -->
<svg version="1.1" id="Layer_1" xmlns="http://www.w3.org/2000/svg" xmlns:xlink="http://www.w3.org/1999/xlink" x="0px" y="0px"
	 viewBox="0 0 512 512" style="enable-background:new 0 0 512 512;" xml:space="preserve">
<title>ionicons-v5-c</title>
<g>
	<polygon points="400,422.6 377.4,400 425.4,352 377.4,304 400,281.4 470.6,352 	"/>
</g>
<g>
	<polygon points="400,230.6 377.4,208 425.4,160 377.4,112 400,89.4 470.6,160 	"/>
</g>
<g>
	<polygon points="200.7,368 48,368 48,336 183.3,336 247.3,237.9 274.1,255.3 	"/>
</g>
<g>
	<polygon points="432,368 311.4,368 183.4,176 48,176 48,144 200.6,144 328.6,336 432,336 	"/>
</g>
<g>
	<polygon points="292.4,230.2 265.8,212.4 311.4,144 432,144 432,176 328.6,176 	"/>
</g>
</svg>
