<?xml version="1.0" encoding="utf-8"?>
<!-- Generator: Adobe Illustrator 24.0.0, SVG Export Plug-In . SVG Version: 6.00 Build 0)  -->
<svg version="1.1" id="Layer_1" xmlns="http://www.w3.org/2000/svg" xmlns:xlink="http://www.w3.org/1999/xlink" x="0px" y="0px"
	 viewBox="0 0 512 512" style="enable-background:new 0 0 512 512;" xml:space="preserve">
<title>ionicons-v5-c</title>
<g>
	<path d="M400,416c-4.1,0-8.2-1.6-11.3-4.7c-6.2-6.2-6.2-16.4,0-22.6l36.7-36.7l-36.7-36.7c-6.2-6.2-6.2-16.4,0-22.6
		c6.2-6.2,16.4-6.2,22.6,0l48,48c6.2,6.2,6.2,16.4,0,22.6l-48,48C408.2,414.4,404.1,416,400,416z"/>
</g>
<g>
	<path d="M400,224c-4.1,0-8.2-1.6-11.3-4.7c-6.2-6.2-6.2-16.4,0-22.6l36.7-36.7l-36.7-36.7c-6.2-6.2-6.2-16.4,0-22.6
		c6.2-6.2,16.4-6.2,22.6,0l48,48c6.2,6.2,6.2,16.4,0,22.6l-48,48C408.2,222.4,404.1,224,400,224z"/>
</g>
<g>
	<path d="M149.2,368H64c-8.8,0-16-7.2-16-16s7.2-16,16-16h85.2c21.4,0,41.4-10.7,53.2-28.5l40.2-60.4c4.9-7.4,14.8-9.3,22.2-4.4
		c7.4,4.9,9.3,14.8,4.4,22.2l-40.3,60.4C211.2,352,181.4,368,149.2,368z"/>
</g>
<g>
	<path d="M416,368h-53.2c-32.2,0-62-16-79.9-42.7l-80.5-120.8c-11.9-17.8-31.8-28.5-53.2-28.5H64c-8.8,0-16-7.2-16-16s7.2-16,16-16
		h85.2c32.2,0,62,16,79.9,42.7l80.5,120.8c11.9,17.8,31.8,28.5,53.2,28.5H416c8.8,0,16,7.2,16,16S424.8,368,416,368z"/>
</g>
<g>
	<path d="M288,224c-3,0-6.1-0.9-8.9-2.7c-7.4-4.9-9.3-14.8-4.4-22.2l8.2-12.4c17.8-26.8,47.7-42.7,79.9-42.7H416c8.8,0,16,7.2,16,16
		s-7.2,16-16,16h-53.2c-21.4,0-41.4,10.7-53.2,28.5l-8.2,12.4C298.2,221.5,293.2,224,288,224z"/>
</g>
</svg>
