<?xml version="1.0" encoding="UTF-8" standalone="no"?>
<svg
   xmlns:dc="http://purl.org/dc/elements/1.1/"
   xmlns:cc="http://creativecommons.org/ns#"
   xmlns:rdf="http://www.w3.org/1999/02/22-rdf-syntax-ns#"
   xmlns:svg="http://www.w3.org/2000/svg"
   xmlns="http://www.w3.org/2000/svg"
   xmlns:sodipodi="http://sodipodi.sourceforge.net/DTD/sodipodi-0.dtd"
   xmlns:inkscape="http://www.inkscape.org/namespaces/inkscape"
   class="ionicon"
   viewBox="0 0 512 512"
   version="1.1"
   id="svg8"
   sodipodi:docname="shuffle.svg"
   inkscape:version="1.0.2 (e86c8708, 2021-01-15)">
  <metadata
     id="metadata14">
    <rdf:RDF>
      <cc:Work
         rdf:about="">
        <dc:format>image/svg+xml</dc:format>
        <dc:type
           rdf:resource="http://purl.org/dc/dcmitype/StillImage" />
      </cc:Work>
    </rdf:RDF>
  </metadata>
  <defs
     id="defs12" />
  <sodipodi:namedview
     pagecolor="#ffffff"
     bordercolor="#666666"
     borderopacity="1"
     objecttolerance="10"
     gridtolerance="10"
     guidetolerance="10"
     inkscape:pageopacity="0"
     inkscape:pageshadow="2"
     inkscape:window-width="689"
     inkscape:window-height="480"
     id="namedview10"
     showgrid="false"
     inkscape:zoom="1.3027344"
     inkscape:cx="256"
     inkscape:cy="256"
     inkscape:window-x="44"
     inkscape:window-y="25"
     inkscape:window-maximized="0"
     inkscape:current-layer="svg8" />
  <title
     id="title2">Shuffle</title>
  <path
     style="color:#000000;font-style:normal;font-variant:normal;font-weight:normal;font-stretch:normal;font-size:medium;line-height:normal;font-family:sans-serif;font-variant-ligatures:normal;font-variant-position:normal;font-variant-caps:normal;font-variant-numeric:normal;font-variant-alternates:normal;font-variant-east-asian:normal;font-feature-settings:normal;font-variation-settings:normal;text-indent:0;text-align:start;text-decoration:none;text-decoration-line:none;text-decoration-style:solid;text-decoration-color:#000000;letter-spacing:normal;word-spacing:normal;text-transform:none;writing-mode:lr-tb;direction:ltr;text-orientation:mixed;dominant-baseline:auto;baseline-shift:baseline;text-anchor:start;white-space:normal;shape-padding:0;shape-margin:0;inline-size:0;clip-rule:nonzero;display:inline;overflow:visible;visibility:visible;isolation:auto;mix-blend-mode:normal;color-interpolation:sRGB;color-interpolation-filters:linearRGB;solid-color:#000000;solid-opacity:1;vector-effect:none;fill:currentColor;fill-opacity:1;fill-rule:nonzero;stroke:none;stroke-linecap:round;stroke-linejoin:round;stroke-miterlimit:4;stroke-dasharray:none;stroke-dashoffset:0;stroke-opacity:1;color-rendering:auto;image-rendering:auto;shape-rendering:auto;text-rendering:auto;enable-background:accumulate;stop-color:#000000;stop-opacity:1;opacity:1"
     d="M 400.12109 96 A 16 16 0 0 0 388.68555 100.68555 A 16 16 0 0 0 388.68555 123.31445 L 425.37109 160 L 388.68555 196.68555 A 16 16 0 0 0 388.68555 219.31445 A 16 16 0 0 0 411.31445 219.31445 L 459.31445 171.31445 A 16.0016 16.0016 0 0 0 459.31445 148.68555 L 411.31445 100.68555 A 16 16 0 0 0 400.12109 96 z M 255.99023 240 A 16 16 0 0 0 242.6875 247.125 L 202.4375 307.50586 C 190.5571 325.3232 170.60451 335.99963 149.18945 336 L 64 336 A 16 16 0 0 0 48 352 A 16 16 0 0 0 64 368 L 149.18945 368 C 181.26602 367.99945 211.26802 351.94411 229.0625 325.25586 A 16.0016 16.0016 0 0 0 229.0625 325.25391 L 269.3125 264.875 A 16 16 0 0 0 264.875 242.6875 A 16 16 0 0 0 255.99023 240 z M 400.12109 288 A 16 16 0 0 0 388.68555 292.68555 A 16 16 0 0 0 388.68555 315.31445 L 425.37109 352 L 388.68555 388.68555 A 16 16 0 0 0 388.68555 411.31445 A 16 16 0 0 0 411.31445 411.31445 L 459.31445 363.31445 A 16.0016 16.0016 0 0 0 459.31445 340.68555 L 411.31445 292.68555 A 16 16 0 0 0 400.12109 288 z "
     id="path4" />
  <path
     style="color:#000000;font-style:normal;font-variant:normal;font-weight:normal;font-stretch:normal;font-size:medium;line-height:normal;font-family:sans-serif;font-variant-ligatures:normal;font-variant-position:normal;font-variant-caps:normal;font-variant-numeric:normal;font-variant-alternates:normal;font-variant-east-asian:normal;font-feature-settings:normal;font-variation-settings:normal;text-indent:0;text-align:start;text-decoration:none;text-decoration-line:none;text-decoration-style:solid;text-decoration-color:#000000;letter-spacing:normal;word-spacing:normal;text-transform:none;writing-mode:lr-tb;direction:ltr;text-orientation:mixed;dominant-baseline:auto;baseline-shift:baseline;text-anchor:start;white-space:normal;shape-padding:0;shape-margin:0;inline-size:0;clip-rule:nonzero;display:inline;overflow:visible;visibility:visible;isolation:auto;mix-blend-mode:normal;color-interpolation:sRGB;color-interpolation-filters:linearRGB;solid-color:#000000;solid-opacity:1;vector-effect:none;fill:currentColor;fill-opacity:1;fill-rule:nonzero;stroke:none;stroke-linecap:round;stroke-linejoin:round;stroke-miterlimit:4;stroke-dasharray:none;stroke-dashoffset:0;stroke-opacity:1;color-rendering:auto;image-rendering:auto;shape-rendering:auto;text-rendering:auto;enable-background:accumulate;stop-color:#000000;stop-opacity:1;opacity:1"
     d="M 64 144 A 16 16 0 0 0 48 160 A 16 16 0 0 0 64 176 L 149.18945 176 C 170.60503 176.00037 190.55721 186.67797 202.4375 204.49609 L 282.9375 325.25391 A 16.0016 16.0016 0 0 0 282.9375 325.25586 C 300.73198 351.94411 330.73398 367.99945 362.81055 368 L 416 368 A 16 16 0 0 0 432 352 A 16 16 0 0 0 416 336 L 362.81055 336 C 341.39549 335.99963 321.4429 325.3232 309.5625 307.50586 L 309.5625 307.50391 L 229.0625 186.74609 A 16.0016 16.0016 0 0 0 229.0625 186.74414 C 211.26802 160.05589 181.26602 144.00055 149.18945 144 L 64 144 z M 362.81055 144 C 330.73398 144.00055 300.73198 160.05589 282.9375 186.74414 A 16.0016 16.0016 0 0 0 282.93555 186.74805 L 274.68555 199.12695 A 16 16 0 0 0 279.12695 221.31445 A 16 16 0 0 0 301.31445 216.87305 L 309.5625 204.49609 L 309.56445 204.49219 C 321.44503 186.67622 341.39641 176.00037 362.81055 176 L 416 176 A 16 16 0 0 0 432 160 A 16 16 0 0 0 416 144 L 362.81055 144 z "
     id="path6" />
</svg>
