<?xml version="1.0" encoding="utf-8"?>
<!-- Generator: Adobe Illustrator 24.0.0, SVG Export Plug-In . SVG Version: 6.00 Build 0)  -->
<svg version="1.1" id="Layer_1" xmlns="http://www.w3.org/2000/svg" xmlns:xlink="http://www.w3.org/1999/xlink" x="0px" y="0px"
	 viewBox="0 0 512 512" style="enable-background:new 0 0 512 512;" xml:space="preserve">
<title>ionicons-v5-l</title>
<g>
	<path d="M338.9,496C338.9,496,338.9,496,338.9,496H173.1c-15.2,0-28.4-10.8-31.4-25.7l-10-50.1c-1.1-5.3-4.7-9.7-9.7-11.7
		l-23.7-9.5C67.7,386.7,48,357.6,48,324.7V224c0-55.5,21.6-107.7,60.8-147c39.2-39.3,91.3-60.9,146.8-61c0.1,0,0.2,0,0.4,0
		c54.8,0,106.6,21.6,146,60.9c40,39.9,62,92.7,62,148.7v99c0,32.9-19.7,62.1-50.3,74.3l-23.7,9.5c-5,2-8.7,6.4-9.7,11.7l-10,50.2
		C367.3,485.2,354.1,496,338.9,496z M256,48c-0.1,0-0.2,0-0.3,0c-46.9,0.1-91.1,18.4-124.2,51.7C98.3,132.9,80,177,80,224v100.7
		c0,19.7,11.8,37.2,30.2,44.6l23.7,9.5c15.1,6.1,26,19.2,29.2,35.2l10,50.1l165.8,0l10-50.1c3.2-16,14.1-29.1,29.2-35.2l23.7-9.5
		c18.3-7.3,30.2-24.8,30.2-44.6v-99c0-47.4-18.7-92.2-52.6-126.1C346.1,66.3,302.3,48,256,48z"/>
</g>
<g>
	<path d="M168,336c-30.9,0-56-25.1-56-56c0-30.9,25.1-56,56-56s56,25.1,56,56C224,310.9,198.9,336,168,336z M168,256
		c-13.2,0-24,10.8-24,24s10.8,24,24,24s24-10.8,24-24S181.2,256,168,256z"/>
</g>
<g>
	<path d="M344,336c-30.9,0-56-25.1-56-56c0-30.9,25.1-56,56-56s56,25.1,56,56C400,310.9,374.9,336,344,336z M344,256
		c-13.2,0-24,10.8-24,24s10.8,24,24,24s24-10.8,24-24S357.2,256,344,256z"/>
</g>
<g>
	<path d="M272,400h-32c-5.1,0-10-2.5-13-6.6c-3-4.2-3.8-9.5-2.2-14.4l16-48c2.2-6.5,8.3-10.9,15.2-10.9s13,4.4,15.2,10.9l16,48
		c1.6,4.9,0.8,10.2-2.2,14.4C282,397.5,277.1,400,272,400z"/>
</g>
<g>
	<path d="M256,496c-8.8,0-16-7.2-16-16v-32c0-8.8,7.2-16,16-16c8.8,0,16,7.2,16,16v32C272,488.8,264.8,496,256,496z"/>
</g>
<g>
	<path d="M208,496c-8.8,0-16-7.2-16-16v-32c0-8.8,7.2-16,16-16s16,7.2,16,16v32C224,488.8,216.8,496,208,496z"/>
</g>
<g>
	<path d="M304,496c-8.8,0-16-7.2-16-16v-32c0-8.8,7.2-16,16-16s16,7.2,16,16v32C320,488.8,312.8,496,304,496z"/>
</g>
</svg>
