<?xml version="1.0" encoding="UTF-8" standalone="no"?>
<svg
   xmlns:dc="http://purl.org/dc/elements/1.1/"
   xmlns:cc="http://creativecommons.org/ns#"
   xmlns:rdf="http://www.w3.org/1999/02/22-rdf-syntax-ns#"
   xmlns:svg="http://www.w3.org/2000/svg"
   xmlns="http://www.w3.org/2000/svg"
   xmlns:sodipodi="http://sodipodi.sourceforge.net/DTD/sodipodi-0.dtd"
   xmlns:inkscape="http://www.inkscape.org/namespaces/inkscape"
   class="ionicon"
   viewBox="0 0 512 512"
   version="1.1"
   id="svg12"
   sodipodi:docname="skull-outline.svg"
   inkscape:version="1.0.2 (e86c8708, 2021-01-15)">
  <metadata
     id="metadata18">
    <rdf:RDF>
      <cc:Work
         rdf:about="">
        <dc:format>image/svg+xml</dc:format>
        <dc:type
           rdf:resource="http://purl.org/dc/dcmitype/StillImage" />
      </cc:Work>
    </rdf:RDF>
  </metadata>
  <defs
     id="defs16" />
  <sodipodi:namedview
     pagecolor="#ffffff"
     bordercolor="#666666"
     borderopacity="1"
     objecttolerance="10"
     gridtolerance="10"
     guidetolerance="10"
     inkscape:pageopacity="0"
     inkscape:pageshadow="2"
     inkscape:window-width="689"
     inkscape:window-height="480"
     id="namedview14"
     showgrid="false"
     inkscape:zoom="1.3027344"
     inkscape:cx="256"
     inkscape:cy="256"
     inkscape:window-x="44"
     inkscape:window-y="25"
     inkscape:window-maximized="0"
     inkscape:current-layer="svg12" />
  <title
     id="title2">Skull</title>
  <path
     style="color:#000000;font-style:normal;font-variant:normal;font-weight:normal;font-stretch:normal;font-size:medium;line-height:normal;font-family:sans-serif;font-variant-ligatures:normal;font-variant-position:normal;font-variant-caps:normal;font-variant-numeric:normal;font-variant-alternates:normal;font-variant-east-asian:normal;font-feature-settings:normal;font-variation-settings:normal;text-indent:0;text-align:start;text-decoration:none;text-decoration-line:none;text-decoration-style:solid;text-decoration-color:#000000;letter-spacing:normal;word-spacing:normal;text-transform:none;writing-mode:lr-tb;direction:ltr;text-orientation:mixed;dominant-baseline:auto;baseline-shift:baseline;text-anchor:start;white-space:normal;shape-padding:0;shape-margin:0;inline-size:0;clip-rule:nonzero;display:inline;overflow:visible;visibility:visible;isolation:auto;mix-blend-mode:normal;color-interpolation:sRGB;color-interpolation-filters:linearRGB;solid-color:#000000;solid-opacity:1;vector-effect:none;fill:currentColor;fill-opacity:1;fill-rule:nonzero;stroke:none;stroke-linecap:round;stroke-linejoin:miter;stroke-miterlimit:10;stroke-dasharray:none;stroke-dashoffset:0;stroke-opacity:1;color-rendering:auto;image-rendering:auto;shape-rendering:auto;text-rendering:auto;enable-background:accumulate;stop-color:#000000;stop-opacity:1;opacity:1"
     d="M 255.62109 16 C 141.10383 16.205499 48 109.44254 48 224 L 48 324.66992 C 48.001077 357.3325 67.960873 386.81423 98.287109 398.94531 L 98.289062 398.94531 L 121.96875 408.41602 C 127.00492 410.43314 130.64807 414.81457 131.71094 420.13477 L 131.71094 420.13672 L 141.74023 470.2793 C 144.71429 485.13902 157.96489 496.00013 173.11914 496 L 338.84961 496 C 354.02657 496.02953 367.31061 485.16116 370.28906 470.2793 L 370.28906 470.27539 L 380.29297 420.12305 L 380.29297 420.11914 C 381.35095 414.79465 384.99326 410.40745 390.03125 408.38672 L 390.0332 408.38477 C 390.03512 408.384 390.03715 408.38358 390.03906 408.38281 L 413.71094 398.91602 L 413.71289 398.91602 C 444.03913 386.78493 463.99892 357.3032 464 324.64062 L 464 225.64062 C 464 111.13197 370.38609 15.794056 255.62109 16 z M 255.67969 48 C 352.67469 47.825944 432 128.56928 432 225.64062 L 432 324.64062 C 431.99856 344.31472 420.09507 361.89795 401.82812 369.20508 L 401.82812 369.20312 L 378.14453 378.67578 L 378.14258 378.67578 C 363.09236 384.70286 352.07104 397.97087 348.9082 413.87109 L 338.91016 464 L 338.89648 464 L 173.11914 464 L 163.08984 413.86523 L 163.08984 413.86133 C 159.91482 397.97531 148.89603 384.72448 133.85547 378.70508 L 133.85352 378.70508 L 110.17188 369.23438 C 91.904321 361.927 80.000649 344.34481 80 324.66992 L 80 224 C 80 126.71746 158.43695 48.174501 255.67969 48 z "
     id="path4" />
  <path
     style="color:#000000;font-style:normal;font-variant:normal;font-weight:normal;font-stretch:normal;font-size:medium;line-height:normal;font-family:sans-serif;font-variant-ligatures:normal;font-variant-position:normal;font-variant-caps:normal;font-variant-numeric:normal;font-variant-alternates:normal;font-variant-east-asian:normal;font-feature-settings:normal;font-variation-settings:normal;text-indent:0;text-align:start;text-decoration:none;text-decoration-line:none;text-decoration-style:solid;text-decoration-color:#000000;letter-spacing:normal;word-spacing:normal;text-transform:none;writing-mode:lr-tb;direction:ltr;text-orientation:mixed;dominant-baseline:auto;baseline-shift:baseline;text-anchor:start;white-space:normal;shape-padding:0;shape-margin:0;inline-size:0;clip-rule:nonzero;display:inline;overflow:visible;visibility:visible;isolation:auto;mix-blend-mode:normal;color-interpolation:sRGB;color-interpolation-filters:linearRGB;solid-color:#000000;solid-opacity:1;vector-effect:none;fill:currentColor;fill-opacity:1;fill-rule:nonzero;stroke:none;stroke-linecap:round;stroke-linejoin:miter;stroke-miterlimit:10;stroke-dasharray:none;stroke-dashoffset:0;stroke-opacity:1;color-rendering:auto;image-rendering:auto;shape-rendering:auto;text-rendering:auto;enable-background:accumulate;stop-color:#000000;stop-opacity:1;opacity:1"
     d="M 168 224 C 137.26157 224 112 249.26157 112 280 C 112 310.73843 137.26157 336 168 336 C 198.73843 336 224 310.73843 224 280 C 224 249.26157 198.73843 224 168 224 z M 168 256 C 181.44435 256 192 266.55565 192 280 C 192 293.44435 181.44435 304 168 304 C 154.55565 304 144 293.44435 144 280 C 144 266.55565 154.55565 256 168 256 z "
     id="circle6" />
  <path
     style="color:#000000;font-style:normal;font-variant:normal;font-weight:normal;font-stretch:normal;font-size:medium;line-height:normal;font-family:sans-serif;font-variant-ligatures:normal;font-variant-position:normal;font-variant-caps:normal;font-variant-numeric:normal;font-variant-alternates:normal;font-variant-east-asian:normal;font-feature-settings:normal;font-variation-settings:normal;text-indent:0;text-align:start;text-decoration:none;text-decoration-line:none;text-decoration-style:solid;text-decoration-color:#000000;letter-spacing:normal;word-spacing:normal;text-transform:none;writing-mode:lr-tb;direction:ltr;text-orientation:mixed;dominant-baseline:auto;baseline-shift:baseline;text-anchor:start;white-space:normal;shape-padding:0;shape-margin:0;inline-size:0;clip-rule:nonzero;display:inline;overflow:visible;visibility:visible;isolation:auto;mix-blend-mode:normal;color-interpolation:sRGB;color-interpolation-filters:linearRGB;solid-color:#000000;solid-opacity:1;vector-effect:none;fill:currentColor;fill-opacity:1;fill-rule:nonzero;stroke:none;stroke-linecap:round;stroke-linejoin:miter;stroke-miterlimit:10;stroke-dasharray:none;stroke-dashoffset:0;stroke-opacity:1;color-rendering:auto;image-rendering:auto;shape-rendering:auto;text-rendering:auto;enable-background:accumulate;stop-color:#000000;stop-opacity:1;opacity:1"
     d="M 344 224 C 313.26157 224 288 249.26157 288 280 C 288 310.73843 313.26157 336 344 336 C 374.73843 336 400 310.73843 400 280 C 400 249.26157 374.73843 224 344 224 z M 344 256 C 357.44435 256 368 266.55565 368 280 C 368 293.44435 357.44435 304 344 304 C 330.55565 304 320 293.44435 320 280 C 320 266.55565 330.55565 256 344 256 z "
     id="circle8" />
  <path
     style="color:#000000;font-style:normal;font-variant:normal;font-weight:normal;font-stretch:normal;font-size:medium;line-height:normal;font-family:sans-serif;font-variant-ligatures:normal;font-variant-position:normal;font-variant-caps:normal;font-variant-numeric:normal;font-variant-alternates:normal;font-variant-east-asian:normal;font-feature-settings:normal;font-variation-settings:normal;text-indent:0;text-align:start;text-decoration:none;text-decoration-line:none;text-decoration-style:solid;text-decoration-color:#000000;letter-spacing:normal;word-spacing:normal;text-transform:none;writing-mode:lr-tb;direction:ltr;text-orientation:mixed;dominant-baseline:auto;baseline-shift:baseline;text-anchor:start;white-space:normal;shape-padding:0;shape-margin:0;inline-size:0;clip-rule:nonzero;display:inline;overflow:visible;visibility:visible;isolation:auto;mix-blend-mode:normal;color-interpolation:sRGB;color-interpolation-filters:linearRGB;solid-color:#000000;solid-opacity:1;vector-effect:none;fill:currentColor;fill-opacity:1;fill-rule:nonzero;stroke:none;stroke-linecap:round;stroke-linejoin:round;stroke-miterlimit:4;stroke-dasharray:none;stroke-dashoffset:0;stroke-opacity:1;color-rendering:auto;image-rendering:auto;shape-rendering:auto;text-rendering:auto;enable-background:accumulate;stop-color:#000000;stop-opacity:1;opacity:1"
     d="M 255.79883 320.00391 A 16.0016 16.0016 0 0 0 240.82031 330.93945 L 224.82031 378.93945 A 16.0016 16.0016 0 0 0 240 400 L 272 400 A 16.0016 16.0016 0 0 0 287.17969 378.93945 L 271.17969 330.93945 A 16.0016 16.0016 0 0 0 255.79883 320.00391 z M 208 432 A 16 16 0 0 0 192 448 L 192 480 A 16 16 0 0 0 208 496 A 16 16 0 0 0 224 480 L 224 448 A 16 16 0 0 0 208 432 z M 256 432 A 16 16 0 0 0 240 448 L 240 480 A 16 16 0 0 0 256 496 A 16 16 0 0 0 272 480 L 272 448 A 16 16 0 0 0 256 432 z M 304 432 A 16 16 0 0 0 288 448 L 288 480 A 16 16 0 0 0 304 496 A 16 16 0 0 0 320 480 L 320 448 A 16 16 0 0 0 304 432 z "
     id="path10" />
</svg>
