<?xml version="1.0" encoding="utf-8"?>
<!-- Generator: Adobe Illustrator 24.0.0, SVG Export Plug-In . SVG Version: 6.00 Build 0)  -->
<svg version="1.1" id="Layer_1" xmlns="http://www.w3.org/2000/svg" xmlns:xlink="http://www.w3.org/1999/xlink" x="0px" y="0px"
	 viewBox="0 0 512 512" style="enable-background:new 0 0 512 512;" xml:space="preserve">
<title>ionicons-v5-q</title>
<g>
	<path d="M256,496c-8.8,0-16-7.2-16-16V32c0-8.8,7.2-16,16-16c8.8,0,16,7.2,16,16v448C272,488.8,264.8,496,256,496z"/>
</g>
<g>
	<path d="M256.2,112c-0.1,0-0.3,0-0.4,0c-23.1,0-45.9-6.3-65.7-18.3c-7.6-4.6-10-14.4-5.4-22c4.6-7.6,14.4-10,22-5.4
		c14.9,9,32,13.7,49.4,13.7c0.1,0,0.1,0,0.2,0c17.4,0,34.5-4.7,49.3-13.7c7.6-4.6,17.4-2.1,22,5.4s2.1,17.4-5.4,22
		C302.1,105.7,279.4,112,256.2,112z"/>
</g>
<g>
	<path d="M313.7,448c-2.8,0-5.6-0.7-8.2-2.3c-30.5-18.3-68.4-18.3-99,0c-7.6,4.5-17.4,2.1-22-5.5c-4.5-7.6-2.1-17.4,5.5-22
		c40.7-24.4,91.2-24.4,131.9,0c7.6,4.5,10,14.4,5.5,22C324.4,445.2,319.1,448,313.7,448z"/>
</g>
<g>
	<path d="M62,384c-5.5,0-10.9-2.9-13.9-8c-4.4-7.7-1.8-17.4,5.9-21.9l388-224c7.7-4.4,17.4-1.8,21.9,5.9c4.4,7.7,1.8,17.4-5.9,21.9
		l-388,224C67.5,383.3,64.7,384,62,384z"/>
</g>
<g>
	<path d="M437.3,234c-2.6,0-5.3-0.6-7.7-2c-41.5-23-66.8-66.8-65.9-114.3c0.2-8.8,7.5-15.9,16.3-15.7c8.8,0.2,15.9,7.4,15.7,16.3
		c-0.6,35.6,18.3,68.5,49.5,85.7c7.7,4.3,10.5,14,6.2,21.8C448.3,231,442.9,234,437.3,234z"/>
</g>
<g>
	<path d="M132.4,410c-0.1,0-0.2,0-0.3,0c-8.8-0.2-15.9-7.4-15.7-16.3c0.6-35.6-18.3-68.5-49.5-85.7c-7.7-4.3-10.5-14-6.2-21.8
		c4.3-7.7,14-10.5,21.8-6.2c41.5,23,66.8,66.8,65.9,114.3C148.3,403,141.1,410,132.4,410z"/>
</g>
<g>
	<path d="M450,384c-2.7,0-5.5-0.7-8-2.1l-388-224c-7.7-4.4-10.3-14.2-5.9-21.9c4.4-7.7,14.2-10.3,21.9-5.9l388,224
		c7.7,4.4,10.3,14.2,5.9,21.9C460.9,381.1,455.5,384,450,384z"/>
</g>
<g>
	<path d="M74.7,234c-5.6,0-11.1-3-14-8.2c-4.3-7.7-1.5-17.5,6.2-21.8c31.1-17.3,50.1-50.1,49.5-85.7c-0.2-8.8,6.9-16.1,15.7-16.3
		c0.1,0,0.2,0,0.3,0c8.7,0,15.8,7,16,15.7C149.3,165.2,124,209,82.5,232C80,233.4,77.4,234,74.7,234z"/>
</g>
<g>
	<path d="M379.6,410c-8.7,0-15.8-7-16-15.7C362.7,346.8,388,303,429.5,280c7.7-4.3,17.5-1.5,21.8,6.2c4.3,7.7,1.5,17.5-6.2,21.8
		c-31.1,17.3-50.1,50.1-49.5,85.7c0.2,8.8-6.9,16.1-15.7,16.3C379.7,410,379.6,410,379.6,410z"/>
</g>
</svg>
