<?xml version="1.0" encoding="UTF-8" standalone="no"?>
<svg
   xmlns:dc="http://purl.org/dc/elements/1.1/"
   xmlns:cc="http://creativecommons.org/ns#"
   xmlns:rdf="http://www.w3.org/1999/02/22-rdf-syntax-ns#"
   xmlns:svg="http://www.w3.org/2000/svg"
   xmlns="http://www.w3.org/2000/svg"
   xmlns:sodipodi="http://sodipodi.sourceforge.net/DTD/sodipodi-0.dtd"
   xmlns:inkscape="http://www.inkscape.org/namespaces/inkscape"
   class="ionicon"
   viewBox="0 0 512 512"
   version="1.1"
   id="svg6"
   sodipodi:docname="snow.svg"
   inkscape:version="1.0.2 (e86c8708, 2021-01-15)">
  <metadata
     id="metadata12">
    <rdf:RDF>
      <cc:Work
         rdf:about="">
        <dc:format>image/svg+xml</dc:format>
        <dc:type
           rdf:resource="http://purl.org/dc/dcmitype/StillImage" />
      </cc:Work>
    </rdf:RDF>
  </metadata>
  <defs
     id="defs10" />
  <sodipodi:namedview
     pagecolor="#ffffff"
     bordercolor="#666666"
     borderopacity="1"
     objecttolerance="10"
     gridtolerance="10"
     guidetolerance="10"
     inkscape:pageopacity="0"
     inkscape:pageshadow="2"
     inkscape:window-width="689"
     inkscape:window-height="480"
     id="namedview8"
     showgrid="false"
     inkscape:zoom="1.3027344"
     inkscape:cx="256"
     inkscape:cy="256"
     inkscape:window-x="44"
     inkscape:window-y="25"
     inkscape:window-maximized="0"
     inkscape:current-layer="svg6" />
  <title
     id="title2">Snow</title>
  <path
     style="color:#000000;font-style:normal;font-variant:normal;font-weight:normal;font-stretch:normal;font-size:medium;line-height:normal;font-family:sans-serif;font-variant-ligatures:normal;font-variant-position:normal;font-variant-caps:normal;font-variant-numeric:normal;font-variant-alternates:normal;font-variant-east-asian:normal;font-feature-settings:normal;font-variation-settings:normal;text-indent:0;text-align:start;text-decoration:none;text-decoration-line:none;text-decoration-style:solid;text-decoration-color:#000000;letter-spacing:normal;word-spacing:normal;text-transform:none;writing-mode:lr-tb;direction:ltr;text-orientation:mixed;dominant-baseline:auto;baseline-shift:baseline;text-anchor:start;white-space:normal;shape-padding:0;shape-margin:0;inline-size:0;clip-rule:nonzero;display:inline;overflow:visible;visibility:visible;isolation:auto;mix-blend-mode:normal;color-interpolation:sRGB;color-interpolation-filters:linearRGB;solid-color:#000000;solid-opacity:1;vector-effect:none;fill:#000000;fill-opacity:1;fill-rule:nonzero;stroke-width:1;stroke-linecap:butt;stroke-linejoin:miter;stroke-miterlimit:4;stroke-dasharray:none;stroke-dashoffset:0;stroke-opacity:1;color-rendering:auto;image-rendering:auto;shape-rendering:auto;text-rendering:auto;enable-background:accumulate;stop-color:#000000;stop-opacity:1;stroke:none;opacity:1"
     d="m 461,349 -34,-19.64 c 6.15256,-6.33704 13.20898,-11.72877 20.94,-16 10.52008,-5.93119 14.29211,-19.23402 8.45107,-29.80442 -5.84103,-10.5704 -19.11111,-14.45603 -29.73107,-8.70558 -14.76132,8.17028 -27.8418,19.06219 -38.55,32.1 L 300,256 388.09,205.14 c 10.70545,13.04054 23.78649,23.93293 38.55,32.1 10.64805,6.00334 24.14823,2.17533 30.06032,-8.52365 5.91208,-10.69898 1.96882,-24.16595 -8.78032,-29.98635 -7.72933,-4.27382 -14.78539,-9.66527 -20.94,-16 l 34,-19.64 c 10.9613,-5.8604 14.89464,-19.63126 8.68224,-30.39695 C 463.44985,121.92735 449.55882,118.44212 439,125 l -34,19.63 c -2.42159,-8.50068 -3.57403,-17.31247 -3.42,-26.15 C 401.84785,106.30563 392.17515,96.22953 380,96 h -0.41 c -11.99193,-0.0021 -21.77651,9.60015 -22,21.59 -0.30983,16.8588 2.57427,33.6239 8.5,49.41 L 278,217.89 V 116.18 c 16.64403,-2.75077 32.61589,-8.63121 47.07,-17.33 10.40781,-6.271198 13.76118,-19.792189 7.48999,-30.199995 C 326.2888,58.242199 312.76781,54.888803 302.36,61.16 294.78343,65.713719 286.57444,69.120654 278,71.27 V 38 c 0,-12.150273 -9.84974,-21.99999 -22,-21.99999 -12.15026,0 -22,9.849717 -22,21.99999 v 33.27 c -8.57444,-2.149346 -16.78343,-5.556281 -24.36,-10.11 -10.40781,-6.271198 -23.9288,-2.917801 -30.19999,7.490005 -6.2712,10.407806 -2.91782,23.928798 7.48999,30.199995 14.45411,8.69879 30.42597,14.57923 47.07,17.33 V 217.89 L 145.91,167 c 5.93504,-15.79105 8.82598,-32.56321 8.52,-49.43 -0.22349,-11.98985 -10.00807,-21.592083 -22,-21.59 H 132 c -12.15118,0.224343 -21.81856,10.2589 -21.59,22.41 0.16123,8.8504 -0.98788,17.67596 -3.41,26.19 L 73,125 C 62.460319,118.71296 48.814496,122.26491 42.677683,132.89276 36.54087,143.5206 40.286117,157.11464 51,163.1 l 34,19.64 c -6.154608,6.33473 -13.210671,11.72618 -20.94,16 -10.749138,5.8204 -14.692397,19.28737 -8.780316,29.98635 5.912081,10.69898 19.412265,14.52699 30.060316,8.52365 14.76132,-8.17028 27.8418,-19.06219 38.55,-32.1 L 212,256 123.91,306.86 C 113.2018,293.82219 100.12132,282.93028 85.36,274.76 74.711949,268.75666 61.211765,272.58467 55.299684,283.28365 49.387603,293.98263 53.330862,307.4496 64.08,313.27 c 7.729329,4.27382 14.785392,9.66527 20.94,16 L 51,349 C 40.286117,354.98536 36.54087,368.5794 42.677683,379.20724 48.814496,389.83509 62.460319,393.38704 73,387.1 l 34,-19.63 c 2.42159,8.50068 3.57403,17.31247 3.42,26.15 -0.21182,12.13564 9.44468,22.15013 21.58,22.38 h 0.41 c 11.99193,0.002 21.77651,-9.60015 22,-21.59 0.30983,-16.8588 -2.57427,-33.6239 -8.5,-49.41 L 234,294.11 v 101.71 c -16.64403,2.75077 -32.61589,8.63121 -47.07,17.33 -10.40781,6.2712 -13.76119,19.79219 -7.48999,30.2 6.27119,10.4078 19.79218,13.7612 30.19999,7.49 7.57657,-4.55372 15.78556,-7.96065 24.36,-10.11 V 474 c 0,12.15027 9.84974,21.99999 22,21.99999 12.15026,0 22,-9.84972 22,-21.99999 v -33.27 c 8.57444,2.14935 16.78343,5.55628 24.36,10.11 10.40781,6.2712 23.9288,2.9178 30.19999,-7.49001 C 338.83118,432.94219 335.47781,419.4212 325.07,413.15 310.61589,404.45121 294.64403,398.57077 278,395.82 V 294.11 L 366.09,345 c -5.93504,15.79105 -8.82598,32.56321 -8.52,49.43 0.22349,11.98985 10.00807,21.59208 22,21.59 H 380 c 12.15118,-0.22434 21.81856,-10.2589 21.59,-22.41 -0.16123,-8.8504 0.98788,-17.67596 3.41,-26.19 l 34,19.63 c 10.56244,6.78221 24.64945,3.36646 30.93247,-7.50031 C 476.2155,368.68292 472.14756,354.77022 461,349 Z"
     id="path4" />
</svg>
