<?xml version="1.0" encoding="UTF-8" standalone="no"?>
<svg
   xmlns:dc="http://purl.org/dc/elements/1.1/"
   xmlns:cc="http://creativecommons.org/ns#"
   xmlns:rdf="http://www.w3.org/1999/02/22-rdf-syntax-ns#"
   xmlns:svg="http://www.w3.org/2000/svg"
   xmlns="http://www.w3.org/2000/svg"
   xmlns:sodipodi="http://sodipodi.sourceforge.net/DTD/sodipodi-0.dtd"
   xmlns:inkscape="http://www.inkscape.org/namespaces/inkscape"
   class="ionicon"
   viewBox="0 0 512 512"
   version="1.1"
   id="svg6"
   sodipodi:docname="sparkles-outline.svg"
   inkscape:version="1.0.2 (e86c8708, 2021-01-15)">
  <metadata
     id="metadata12">
    <rdf:RDF>
      <cc:Work
         rdf:about="">
        <dc:format>image/svg+xml</dc:format>
        <dc:type
           rdf:resource="http://purl.org/dc/dcmitype/StillImage" />
      </cc:Work>
    </rdf:RDF>
  </metadata>
  <defs
     id="defs10" />
  <sodipodi:namedview
     pagecolor="#ffffff"
     bordercolor="#666666"
     borderopacity="1"
     objecttolerance="10"
     gridtolerance="10"
     guidetolerance="10"
     inkscape:pageopacity="0"
     inkscape:pageshadow="2"
     inkscape:window-width="689"
     inkscape:window-height="480"
     id="namedview8"
     showgrid="false"
     inkscape:zoom="1.3027344"
     inkscape:cx="256"
     inkscape:cy="256"
     inkscape:window-x="44"
     inkscape:window-y="25"
     inkscape:window-maximized="0"
     inkscape:current-layer="svg6" />
  <title
     id="title2">Sparkles</title>
  <path
     style="color:#000000;font-style:normal;font-variant:normal;font-weight:normal;font-stretch:normal;font-size:medium;line-height:normal;font-family:sans-serif;font-variant-ligatures:normal;font-variant-position:normal;font-variant-caps:normal;font-variant-numeric:normal;font-variant-alternates:normal;font-variant-east-asian:normal;font-feature-settings:normal;font-variation-settings:normal;text-indent:0;text-align:start;text-decoration:none;text-decoration-line:none;text-decoration-style:solid;text-decoration-color:#000000;letter-spacing:normal;word-spacing:normal;text-transform:none;writing-mode:lr-tb;direction:ltr;text-orientation:mixed;dominant-baseline:auto;baseline-shift:baseline;text-anchor:start;white-space:normal;shape-padding:0;shape-margin:0;inline-size:0;clip-rule:nonzero;display:inline;overflow:visible;visibility:visible;isolation:auto;mix-blend-mode:normal;color-interpolation:sRGB;color-interpolation-filters:linearRGB;solid-color:#000000;solid-opacity:1;vector-effect:none;fill:currentColor;fill-opacity:1;fill-rule:nonzero;stroke:none;stroke-linecap:round;stroke-linejoin:round;stroke-miterlimit:4;stroke-dasharray:none;stroke-dashoffset:0;stroke-opacity:1;color-rendering:auto;image-rendering:auto;shape-rendering:auto;text-rendering:auto;enable-background:accumulate;stop-color:#000000;stop-opacity:1;opacity:1"
     d="M 87.746094 0.00390625 A 16.0016 16.0016 0 0 0 73.066406 10.255859 L 55.619141 55.619141 L 10.255859 73.066406 A 16.0016 16.0016 0 0 0 10.255859 102.93359 L 55.619141 120.38086 L 73.066406 165.74414 A 16.0016 16.0016 0 0 0 102.93359 165.74414 L 120.38086 120.38086 L 165.74414 102.93359 A 16.0016 16.0016 0 0 0 165.74414 73.066406 L 120.38086 55.619141 L 102.93359 10.255859 A 16.0016 16.0016 0 0 0 87.746094 0.00390625 z M 400.08203 32.003906 A 16.0016 16.0016 0 0 0 385.06641 42.255859 L 360.94922 104.94922 L 298.25586 129.06641 A 16.0016 16.0016 0 0 0 298.25586 158.93359 L 360.94922 183.05078 L 385.06641 245.74414 A 16.0016 16.0016 0 0 0 414.93359 245.74414 L 439.05078 183.05078 L 501.74414 158.93359 A 16.0016 16.0016 0 0 0 501.74414 129.06641 L 439.05078 104.94922 L 414.93359 42.255859 A 16.0016 16.0016 0 0 0 400.08203 32.003906 z M 88 60.572266 L 93.066406 73.744141 A 16.0016 16.0016 0 0 0 102.25586 82.933594 L 115.42773 88 L 102.25586 93.066406 A 16.0016 16.0016 0 0 0 93.066406 102.25586 L 88 115.42773 L 82.933594 102.25586 A 16.0016 16.0016 0 0 0 73.744141 93.066406 L 60.572266 88 L 73.744141 82.933594 A 16.0016 16.0016 0 0 0 82.933594 73.744141 L 88 60.572266 z M 400 92.564453 L 411.73633 123.07422 A 16.0016 16.0016 0 0 0 420.92578 132.26367 L 451.43555 144 L 420.92578 155.73633 A 16.0016 16.0016 0 0 0 411.73633 164.92578 L 400 195.43555 L 388.26367 164.92578 A 16.0016 16.0016 0 0 0 379.07422 155.73633 L 348.56445 144 L 379.07422 132.26367 A 16.0016 16.0016 0 0 0 388.26367 123.07422 L 400 92.564453 z M 208 128.00195 C 198.61201 128.00195 188.5052 134.04454 184.66602 144.02539 L 142.26367 254.26367 L 32.025391 296.66602 C 22.044537 300.5052 16.001953 310.61201 16.001953 320 C 16.001953 329.38799 22.044537 339.4948 32.025391 343.33398 L 142.26367 385.73633 L 184.66602 495.97461 C 188.5052 505.95546 198.61201 511.99805 208 511.99805 C 217.38799 511.99805 227.4948 505.95546 231.33398 495.97461 L 273.73633 385.73633 L 383.97461 343.33398 C 393.95546 339.4948 399.99805 329.38799 399.99805 320 C 399.99805 310.61201 393.95546 300.5052 383.97461 296.66602 L 273.73633 254.26367 L 231.33398 144.02539 C 227.4948 134.04454 217.38799 128.00195 208 128.00195 z M 208 172.49805 L 244.98633 268.6543 C 247.52287 275.24912 252.75261 280.47757 259.34766 283.01367 L 355.50195 320 L 259.3457 356.98633 C 252.75143 359.52266 247.52266 364.75143 244.98633 371.3457 L 208 467.50195 L 171.01367 371.34766 L 171.01367 371.3457 C 168.47734 364.75143 163.24857 359.52266 156.6543 356.98633 L 156.65234 356.98633 L 60.498047 320 L 156.65234 283.01367 C 163.24739 280.47757 168.47713 275.24912 171.01367 268.6543 L 171.01367 268.65234 L 208 172.49805 z "
     id="path4" />
</svg>
