<?xml version="1.0" encoding="UTF-8" standalone="no"?>
<svg
   xmlns:dc="http://purl.org/dc/elements/1.1/"
   xmlns:cc="http://creativecommons.org/ns#"
   xmlns:rdf="http://www.w3.org/1999/02/22-rdf-syntax-ns#"
   xmlns:svg="http://www.w3.org/2000/svg"
   xmlns="http://www.w3.org/2000/svg"
   xmlns:sodipodi="http://sodipodi.sourceforge.net/DTD/sodipodi-0.dtd"
   xmlns:inkscape="http://www.inkscape.org/namespaces/inkscape"
   class="ionicon"
   viewBox="0 0 512 512"
   version="1.1"
   id="svg10"
   sodipodi:docname="speedometer-outline.svg"
   inkscape:version="1.0.2 (e86c8708, 2021-01-15)">
  <metadata
     id="metadata16">
    <rdf:RDF>
      <cc:Work
         rdf:about="">
        <dc:format>image/svg+xml</dc:format>
        <dc:type
           rdf:resource="http://purl.org/dc/dcmitype/StillImage" />
      </cc:Work>
    </rdf:RDF>
  </metadata>
  <defs
     id="defs14" />
  <sodipodi:namedview
     pagecolor="#ffffff"
     bordercolor="#666666"
     borderopacity="1"
     objecttolerance="10"
     gridtolerance="10"
     guidetolerance="10"
     inkscape:pageopacity="0"
     inkscape:pageshadow="2"
     inkscape:window-width="689"
     inkscape:window-height="480"
     id="namedview12"
     showgrid="false"
     inkscape:zoom="1.3027344"
     inkscape:cx="256"
     inkscape:cy="256"
     inkscape:window-x="44"
     inkscape:window-y="25"
     inkscape:window-maximized="0"
     inkscape:current-layer="svg10" />
  <title
     id="title2">Speedometer</title>
  <path
     style="color:#000000;font-style:normal;font-variant:normal;font-weight:normal;font-stretch:normal;font-size:medium;line-height:normal;font-family:sans-serif;font-variant-ligatures:normal;font-variant-position:normal;font-variant-caps:normal;font-variant-numeric:normal;font-variant-alternates:normal;font-variant-east-asian:normal;font-feature-settings:normal;font-variation-settings:normal;text-indent:0;text-align:start;text-decoration:none;text-decoration-line:none;text-decoration-style:solid;text-decoration-color:#000000;letter-spacing:normal;word-spacing:normal;text-transform:none;writing-mode:lr-tb;direction:ltr;text-orientation:mixed;dominant-baseline:auto;baseline-shift:baseline;text-anchor:start;white-space:normal;shape-padding:0;shape-margin:0;inline-size:0;clip-rule:nonzero;display:inline;overflow:visible;visibility:visible;isolation:auto;mix-blend-mode:normal;color-interpolation:sRGB;color-interpolation-filters:linearRGB;solid-color:#000000;solid-opacity:1;vector-effect:none;fill:#000000;fill-opacity:1;fill-rule:nonzero;stroke-width:1;stroke-linecap:butt;stroke-linejoin:miter;stroke-miterlimit:4;stroke-dasharray:none;stroke-dashoffset:0;stroke-opacity:1;color-rendering:auto;image-rendering:auto;shape-rendering:auto;text-rendering:auto;enable-background:accumulate;stop-color:#000000;stop-opacity:1;stroke:none;opacity:1"
     d="m 326.1,231.9 -47.5,75.5 c -1.9433,2.69324 -4.30676,5.0567 -7,7 -13.53135,9.43979 -32.13939,6.232 -41.72906,-7.19353 C 220.28128,293.78093 223.28192,275.13837 236.6,265.4 l 75.5,-47.5 c 3.51513,-2.45029 8.18487,-2.45029 11.7,0 4.48706,3.23958 5.51476,9.49512 2.3,14 z"
     id="path4" />
  <path
     style="color:#000000;font-style:normal;font-variant:normal;font-weight:normal;font-stretch:normal;font-size:medium;line-height:normal;font-family:sans-serif;font-variant-ligatures:normal;font-variant-position:normal;font-variant-caps:normal;font-variant-numeric:normal;font-variant-alternates:normal;font-variant-east-asian:normal;font-feature-settings:normal;font-variation-settings:normal;text-indent:0;text-align:start;text-decoration:none;text-decoration-line:none;text-decoration-style:solid;text-decoration-color:#000000;letter-spacing:normal;word-spacing:normal;text-transform:none;writing-mode:lr-tb;direction:ltr;text-orientation:mixed;dominant-baseline:auto;baseline-shift:baseline;text-anchor:start;white-space:normal;shape-padding:0;shape-margin:0;inline-size:0;clip-rule:nonzero;display:inline;overflow:visible;visibility:visible;isolation:auto;mix-blend-mode:normal;color-interpolation:sRGB;color-interpolation-filters:linearRGB;solid-color:#000000;solid-opacity:1;vector-effect:none;fill:currentColor;fill-opacity:1;fill-rule:nonzero;stroke:none;stroke-linecap:round;stroke-linejoin:round;stroke-miterlimit:4;stroke-dasharray:none;stroke-dashoffset:0;stroke-opacity:1;color-rendering:auto;image-rendering:auto;shape-rendering:auto;text-rendering:auto;enable-background:accumulate;stop-color:#000000;stop-opacity:1;opacity:1"
     d="M 256 48 C 123.6676 48 16.012779 155.53887 16 287.87695 C 15.999995 287.88087 16.000005 287.88476 16 287.88867 C 16 287.8926 16 287.89646 16 287.90039 C 15.924455 346.54003 37.399068 403.17601 76.335938 447.02344 A 16.0016 16.0016 0 0 0 76.505859 447.21094 C 77.207475 447.97634 78.333896 449.29101 79.84375 450.83984 C 96.060285 468.28322 124.33474 468.18874 140.41211 450.59375 L 140.37305 450.63477 C 202.78264 382.81188 309.21736 382.81188 371.62695 450.63477 L 371.58789 450.59375 C 387.69489 468.22117 416.05212 468.29619 432.25391 450.75586 A 16.0016 16.0016 0 0 0 432.30859 450.69727 L 435.50781 447.19727 A 16.0016 16.0016 0 0 0 435.66406 447.02344 C 474.60353 403.17308 496.07843 346.53249 496 287.88867 C 495.99361 155.54519 388.33633 48 256 48 z M 256 80 C 371.05974 80 464 172.84927 464 287.90039 A 16.0016 16.0016 0 0 0 464 287.92188 C 464.07043 338.71953 445.48034 387.75969 411.75781 425.74805 L 408.74609 429.04297 C 404.92786 433.17665 399.00683 433.16202 395.21094 429.00781 A 16.0016 16.0016 0 0 0 395.17383 428.9668 C 320.41834 347.72715 191.58166 347.72715 116.82617 428.9668 A 16.0016 16.0016 0 0 0 116.78906 429.00781 C 112.99317 433.16202 107.07214 433.17665 103.25391 429.04297 A 16.0016 16.0016 0 0 0 102.81445 428.58594 C 102.42603 428.19751 101.53701 427.17194 100.26367 425.77539 L 100.26172 425.77344 C 66.525683 387.78173 47.92956 338.73025 48 287.92188 A 16.0016 16.0016 0 0 0 48 287.90039 C 48 172.84927 140.94026 80 256 80 z "
     id="path6" />
  <path
     style="color:#000000;font-style:normal;font-variant:normal;font-weight:normal;font-stretch:normal;font-size:medium;line-height:normal;font-family:sans-serif;font-variant-ligatures:normal;font-variant-position:normal;font-variant-caps:normal;font-variant-numeric:normal;font-variant-alternates:normal;font-variant-east-asian:normal;font-feature-settings:normal;font-variation-settings:normal;text-indent:0;text-align:start;text-decoration:none;text-decoration-line:none;text-decoration-style:solid;text-decoration-color:#000000;letter-spacing:normal;word-spacing:normal;text-transform:none;writing-mode:lr-tb;direction:ltr;text-orientation:mixed;dominant-baseline:auto;baseline-shift:baseline;text-anchor:start;white-space:normal;shape-padding:0;shape-margin:0;inline-size:0;clip-rule:nonzero;display:inline;overflow:visible;visibility:visible;isolation:auto;mix-blend-mode:normal;color-interpolation:sRGB;color-interpolation-filters:linearRGB;solid-color:#000000;solid-opacity:1;vector-effect:none;fill:currentColor;fill-opacity:1;fill-rule:nonzero;stroke:none;stroke-linecap:round;stroke-linejoin:miter;stroke-miterlimit:10;stroke-dasharray:none;stroke-dashoffset:0;stroke-opacity:1;color-rendering:auto;image-rendering:auto;shape-rendering:auto;text-rendering:auto;enable-background:accumulate;stop-color:#000000;stop-opacity:1;opacity:1"
     d="M 256 112 A 16 16 0 0 0 240 128 L 240 160 A 16 16 0 0 0 256 176 A 16 16 0 0 0 272 160 L 272 128 A 16 16 0 0 0 256 112 z M 142.64453 158.86133 A 16 16 0 0 0 131.54688 163.54688 A 16 16 0 0 0 131.54688 186.17383 L 154.17578 208.80273 A 16 16 0 0 0 176.80273 208.80273 A 16 16 0 0 0 176.80273 186.17578 L 154.17383 163.54688 A 16 16 0 0 0 142.64453 158.86133 z M 368.92383 158.86133 A 16 16 0 0 0 357.82617 163.54688 L 335.19727 186.17578 A 16 16 0 0 0 335.19727 208.80273 A 16 16 0 0 0 357.82422 208.80273 L 380.45312 186.17383 A 16 16 0 0 0 380.45312 163.54688 A 16 16 0 0 0 368.92383 158.86133 z M 96 272 A 16 16 0 0 0 80 288 A 16 16 0 0 0 96 304 L 128 304 A 16 16 0 0 0 144 288 A 16 16 0 0 0 128 272 L 96 272 z M 384 272 A 16 16 0 0 0 368 288 A 16 16 0 0 0 384 304 L 416 304 A 16 16 0 0 0 432 288 A 16 16 0 0 0 416 272 L 384 272 z "
     id="path8" />
</svg>
