<?xml version="1.0" encoding="UTF-8" standalone="no"?>
<svg
   xmlns:dc="http://purl.org/dc/elements/1.1/"
   xmlns:cc="http://creativecommons.org/ns#"
   xmlns:rdf="http://www.w3.org/1999/02/22-rdf-syntax-ns#"
   xmlns:svg="http://www.w3.org/2000/svg"
   xmlns="http://www.w3.org/2000/svg"
   xmlns:sodipodi="http://sodipodi.sourceforge.net/DTD/sodipodi-0.dtd"
   xmlns:inkscape="http://www.inkscape.org/namespaces/inkscape"
   class="ionicon"
   viewBox="0 0 512 512"
   version="1.1"
   id="svg6"
   sodipodi:docname="speedometer.svg"
   inkscape:version="1.0.2 (e86c8708, 2021-01-15)">
  <metadata
     id="metadata12">
    <rdf:RDF>
      <cc:Work
         rdf:about="">
        <dc:format>image/svg+xml</dc:format>
        <dc:type
           rdf:resource="http://purl.org/dc/dcmitype/StillImage" />
      </cc:Work>
    </rdf:RDF>
  </metadata>
  <defs
     id="defs10" />
  <sodipodi:namedview
     pagecolor="#ffffff"
     bordercolor="#666666"
     borderopacity="1"
     objecttolerance="10"
     gridtolerance="10"
     guidetolerance="10"
     inkscape:pageopacity="0"
     inkscape:pageshadow="2"
     inkscape:window-width="689"
     inkscape:window-height="480"
     id="namedview8"
     showgrid="false"
     inkscape:zoom="1.3027344"
     inkscape:cx="256"
     inkscape:cy="256"
     inkscape:window-x="44"
     inkscape:window-y="25"
     inkscape:window-maximized="0"
     inkscape:current-layer="svg6" />
  <title
     id="title2">Speedometer</title>
  <path
     style="color:#000000;font-style:normal;font-variant:normal;font-weight:normal;font-stretch:normal;font-size:medium;line-height:normal;font-family:sans-serif;font-variant-ligatures:normal;font-variant-position:normal;font-variant-caps:normal;font-variant-numeric:normal;font-variant-alternates:normal;font-variant-east-asian:normal;font-feature-settings:normal;font-variation-settings:normal;text-indent:0;text-align:start;text-decoration:none;text-decoration-line:none;text-decoration-style:solid;text-decoration-color:#000000;letter-spacing:normal;word-spacing:normal;text-transform:none;writing-mode:lr-tb;direction:ltr;text-orientation:mixed;dominant-baseline:auto;baseline-shift:baseline;text-anchor:start;white-space:normal;shape-padding:0;shape-margin:0;inline-size:0;clip-rule:nonzero;display:inline;overflow:visible;visibility:visible;isolation:auto;mix-blend-mode:normal;color-interpolation:sRGB;color-interpolation-filters:linearRGB;solid-color:#000000;solid-opacity:1;vector-effect:none;fill:#000000;fill-opacity:1;fill-rule:nonzero;stroke-width:1;stroke-linecap:butt;stroke-linejoin:miter;stroke-miterlimit:4;stroke-dasharray:none;stroke-dashoffset:0;stroke-opacity:1;color-rendering:auto;image-rendering:auto;shape-rendering:auto;text-rendering:auto;enable-background:accumulate;stop-color:#000000;stop-opacity:1;stroke:none;opacity:1"
     d="M 425.7,118.25 C 333.90689,27.005187 186.29668,24.981653 92.036774,113.67575 -2.2231315,202.36985 -9.1761997,349.83009 76.32,447 l 0.18,0.2 c 0.33,0.35 0.64,0.71 1,1.05 0.74,0.84 1.58,1.79 2.57,2.78 16.411883,17.44403 44.19245,17.25072 60.36,-0.42 62.24502,-67.6489 169.01498,-67.6489 231.26,0 16.2987,17.77598 44.31616,17.8037 60.65,0.06 l 3.21,-3.5 0.18,-0.2 c 84.12216,-94.99106 79.74005,-239.05736 -10,-328.76 z M 240,128 c 0,-8.83656 7.16344,-15.99999 16,-15.99999 8.83656,0 16,7.16343 16,15.99999 v 32 c 0,8.83656 -7.16344,15.99999 -16,15.99999 -8.83656,0 -16,-7.16343 -16,-15.99999 z M 128,304 H 96 c -8.836562,0 -15.999993,-7.16344 -15.999993,-16 0,-8.83656 7.163431,-16 15.999993,-16 h 32 c 8.83656,0 15.99999,7.16344 15.99999,16 0,8.83656 -7.16343,16 -15.99999,16 z m 48.8,-95.2 c -6.24754,6.24345 -16.37246,6.24345 -22.62,0 l -22.63,-22.62 c -6.24911,-6.24911 -6.2491,-16.38089 10e-6,-22.62999 6.2491,-6.24911 16.38088,-6.24912 22.62999,-10e-6 l 22.62,22.63 c 6.24345,6.24754 6.24345,16.37246 0,22.62 z m 149.3,23.1 -47.5,75.5 c -1.9433,2.69324 -4.30676,5.0567 -7,7 -13.53135,9.43979 -32.13939,6.232 -41.72906,-7.19353 C 220.28128,293.78093 223.28192,275.13837 236.6,265.4 l 75.5,-47.5 c 3.51513,-2.45029 8.18487,-2.45029 11.7,0 4.48706,3.23958 5.51476,9.49512 2.3,14 z m 31.72,-23.1 c -6.29063,5.97647 -16.19849,5.84961 -22.33405,-0.28595 C 329.35039,202.37849 329.22353,192.47063 335.2,186.18 l 22.62,-22.63 c 6.24911,-6.24911 16.38089,-6.2491 22.62999,10e-6 6.24911,6.2491 6.24912,16.38088 10e-6,22.62999 z M 423.7,436.4 Z M 416,304 h -32 c -8.83656,0 -15.99999,-7.16344 -15.99999,-16 0,-8.83656 7.16343,-16 15.99999,-16 h 32 c 8.83656,0 15.99999,7.16344 15.99999,16 0,8.83656 -7.16343,16 -15.99999,16 z"
     id="path4" />
</svg>
