<?xml version="1.0" encoding="utf-8"?>
<!-- Generator: Adobe Illustrator 24.0.0, SVG Export Plug-In . SVG Version: 6.00 Build 0)  -->
<svg version="1.1" id="Layer_1" xmlns="http://www.w3.org/2000/svg" xmlns:xlink="http://www.w3.org/1999/xlink" x="0px" y="0px"
	 viewBox="0 0 512 512" style="enable-background:new 0 0 512 512;" xml:space="preserve">
<title>ionicons-v5-q</title>
<g>
	<path d="M326.1,231.9l-47.5,75.5c-1.9,2.7-4.3,5.1-7,7c-13.6,9.5-32.4,6.2-41.9-7.5c-9.4-13.4-6.3-31.9,6.9-41.5l75.5-47.5
		c3.5-2.5,8.2-2.5,11.7,0C328.3,221.1,329.3,227.4,326.1,231.9z"/>
</g>
<g>
	<path d="M402,464c-0.6,0-1.3,0-1.9,0c-11-0.5-21.1-5.2-28.6-13.4c-2.9-3.2-6-6.3-9.2-9.2c-30.9-28.4-71-43.1-112.9-41.4
		c-41.9,1.7-80.7,19.7-109.1,50.6c-0.7,0.8-1.6,1.6-2.4,2.4c-16.6,15.3-42.6,14.4-58-2.1c-1-1-1.8-1.9-2.5-2.7
		c-0.3-0.3-0.6-0.7-0.9-1.1c-0.1-0.1-0.1-0.1-0.2-0.2c-39-43.9-60.4-100.4-60.3-159.1c0-64.1,25-124.3,70.3-169.6
		C131.6,72.9,191.9,48,256,48c64.1,0,124.4,24.9,169.7,70.2C471,163.6,496,223.8,496,287.9c0.1,58.7-21.3,115.2-60.3,159.1
		c-0.1,0.1-0.1,0.1-0.2,0.2l-3.2,3.5c-0.8,0.9-1.7,1.7-2.5,2.5C422.1,460.2,412.3,464,402,464z M423.7,436.4L423.7,436.4
		L423.7,436.4z M100.2,425.7c0.4,0.4,0.8,0.9,1.2,1.3c0.6,0.6,1,1.2,1.4,1.6c0.1,0.1,0.3,0.3,0.4,0.5c3.4,3.7,9.3,4,13,0.5
		c0.2-0.2,0.4-0.4,0.5-0.6c34.2-37.2,80.9-58.8,131.4-60.9c50.5-2.1,98.7,15.6,135.9,49.8c3.8,3.5,7.6,7.3,11.1,11.1
		c3.5,3.8,9.3,4,13,0.6c0.2-0.2,0.4-0.4,0.5-0.5l3.1-3.4c33.7-38,52.3-86.9,52.2-137.8c0-55.6-21.6-107.8-60.9-147
		C363.8,101.6,311.6,80,256,80c-55.6,0-107.8,21.6-147.1,60.9C69.6,180.1,48,232.4,48,287.9C47.9,338.7,66.5,387.7,100.2,425.7z"/>
</g>
<g>
	<path d="M256,176c-8.8,0-16-7.2-16-16v-32c0-8.8,7.2-16,16-16c8.8,0,16,7.2,16,16v32C272,168.8,264.8,176,256,176z"/>
</g>
<g>
	<path d="M416,304h-32c-8.8,0-16-7.2-16-16s7.2-16,16-16h32c8.8,0,16,7.2,16,16S424.8,304,416,304z"/>
</g>
<g>
	<path d="M128,304H96c-8.8,0-16-7.2-16-16s7.2-16,16-16h32c8.8,0,16,7.2,16,16S136.8,304,128,304z"/>
</g>
<g>
	<path d="M165.5,213.5c-4.1,0-8.2-1.6-11.3-4.7l-22.6-22.6c-6.2-6.2-6.2-16.4,0-22.6c6.2-6.2,16.4-6.2,22.6,0l22.6,22.6
		c6.2,6.2,6.2,16.4,0,22.6C173.7,211.9,169.6,213.5,165.5,213.5z"/>
</g>
<g>
	<path d="M346.5,213.5c-4.1,0-8.2-1.6-11.3-4.7c-6.2-6.2-6.2-16.4,0-22.6l22.6-22.6c6.2-6.2,16.4-6.2,22.6,0
		c6.2,6.2,6.2,16.4,0,22.6l-22.6,22.6C354.7,211.9,350.6,213.5,346.5,213.5z"/>
</g>
</svg>
