<?xml version="1.0" encoding="utf-8"?>
<!-- Generator: Adobe Illustrator 24.0.0, SVG Export Plug-In . SVG Version: 6.00 Build 0)  -->
<svg version="1.1" id="Layer_1" xmlns="http://www.w3.org/2000/svg" xmlns:xlink="http://www.w3.org/1999/xlink" x="0px" y="0px"
	 viewBox="0 0 512 512" style="enable-background:new 0 0 512 512;" xml:space="preserve">
<title>ionicons-v5-q</title>
<g>
	<path d="M416,464H96c-26.4-0.1-47.9-21.6-48-48V96c0.1-26.4,21.6-47.9,48-48h320c26.4,0.1,47.9,21.6,48,48v320
		C463.9,442.4,442.4,463.9,416,464C416,464,416,464,416,464z M416,80H96c-8.8,0-16,7.2-16,16v320c0,8.8,7.2,16,16,16H416
		c8.8,0,16-7.2,16-16V96C432,87.2,424.8,80,416,80z"/>
</g>
</svg>
