<?xml version="1.0" encoding="utf-8"?>
<!-- Generator: Adobe Illustrator 24.0.0, SVG Export Plug-In . SVG Version: 6.00 Build 0)  -->
<svg version="1.1" id="Layer_1" xmlns="http://www.w3.org/2000/svg" xmlns:xlink="http://www.w3.org/1999/xlink" x="0px" y="0px"
	 viewBox="0 0 512 512" style="enable-background:new 0 0 512 512;" xml:space="preserve">
<title>ionicons-v5-q</title>
<g>
	<path d="M104,496H72c-13.2,0-24-10.8-24-24V328c0-13.2,10.8-24,24-24h32c13.2,0,24,10.8,24,24v144C128,485.2,117.2,496,104,496z
		 M80,464h16V336H80V464z M104,336L104,336L104,336z"/>
</g>
<g>
	<path d="M328,496h-32c-13.2,0-24-10.8-24-24V232c0-13.2,10.8-24,24-24h32c13.2,0,24,10.8,24,24v240C352,485.2,341.2,496,328,496z
		 M304,464h16V240h-16V464z M328,240L328,240L328,240z"/>
</g>
<g>
	<path d="M440,496h-32c-13.2,0-24-10.8-24-24V120c0-13.2,10.8-24,24-24h32c13.2,0,24,10.8,24,24v352C464,485.2,453.2,496,440,496z
		 M416,464h16V128h-16V464z M440,128L440,128L440,128z"/>
</g>
<g>
	<path d="M216,496h-32c-13.2,0-24-10.8-24-24V40c0-13.2,10.8-24,24-24h32c13.2,0,24,10.8,24,24v432C240,485.2,229.2,496,216,496z
		 M192,464h16V48h-16V464z M216,48L216,48L216,48z"/>
</g>
</svg>
