<?xml version="1.0" encoding="utf-8"?>
<!-- Generator: Adobe Illustrator 24.0.0, SVG Export Plug-In . SVG Version: 6.00 Build 0)  -->
<svg version="1.1" id="Layer_1" xmlns="http://www.w3.org/2000/svg" xmlns:xlink="http://www.w3.org/1999/xlink" x="0px" y="0px"
	 viewBox="0 0 512 512" style="enable-background:new 0 0 512 512;" xml:space="preserve">
<title>ionicons-v5-g</title>
<g>
	<path d="M256,248c-8.8,0-16-7.2-16-16v-80c0-8.8,7.2-16,16-16c8.8,0,16,7.2,16,16v80C272,240.8,264.8,248,256,248z"/>
</g>
<g>
	<path d="M256,112c-13.3,0-24-10.7-24-24V72c0-13.3,10.7-24,24-24s24,10.7,24,24v16C280,101.3,269.3,112,256,112z"/>
</g>
<g>
	<path d="M132,156c-6.1,0-12.3-2.3-17-7l-12-12c-9.4-9.4-9.4-24.6,0-33.9c9.4-9.4,24.6-9.4,33.9,0l12,12c9.4,9.4,9.4,24.6,0,33.9
		C144.3,153.7,138.1,156,132,156z"/>
</g>
<g>
	<path d="M256,320c-26.5,0-48-21.5-48-48c0-26.5,21.5-48,48-48c26.5,0,48,21.5,48,48C304,298.5,282.5,320,256,320z M256,256
		c-8.8,0-16,7.2-16,16s7.2,16,16,16s16-7.2,16-16S264.8,256,256,256z"/>
</g>
<g>
	<path d="M256,464c-105.9,0-192-86.1-192-192S150.1,80,256,80s192,86.1,192,192S361.9,464,256,464z M256,112
		c-88.2,0-160,71.8-160,160c0,88.2,71.8,160,160,160c88.2,0,160-71.8,160-160C416,183.8,344.2,112,256,112z"/>
</g>
</svg>
