<?xml version="1.0" encoding="utf-8"?>
<!-- Generator: Adobe Illustrator 24.0.0, SVG Export Plug-In . SVG Version: 6.00 Build 0)  -->
<svg version="1.1" id="Layer_1" xmlns="http://www.w3.org/2000/svg" xmlns:xlink="http://www.w3.org/1999/xlink" x="0px" y="0px"
	 viewBox="0 0 512 512" style="enable-background:new 0 0 512 512;" xml:space="preserve">
<title>ionicons-v5-c</title>
<g>
	<path d="M392,432H120c-22.1,0-40-17.9-40-40V120c0-22.1,17.9-40,40-40h272c22.1,0,40,17.9,40,40v272C432,414.1,414.1,432,392,432z
		 M120,112c-4.4,0-8,3.6-8,8v272c0,4.4,3.6,8,8,8h272c4.4,0,8-3.6,8-8V120c0-4.4-3.6-8-8-8H120z"/>
</g>
</svg>
