<?xml version="1.0" encoding="utf-8"?>
<!-- Generator: Adobe Illustrator 24.0.0, SVG Export Plug-In . SVG Version: 6.00 Build 0)  -->
<svg version="1.1" id="Layer_1" xmlns="http://www.w3.org/2000/svg" xmlns:xlink="http://www.w3.org/1999/xlink" x="0px" y="0px"
	 viewBox="0 0 512 512" style="enable-background:new 0 0 512 512;" xml:space="preserve">
<title>ionicons-v5-c</title>
<g>
	<path d="M256,464c-114.7,0-208-93.3-208-208S141.3,48,256,48s208,93.3,208,208S370.7,464,256,464z M256,80c-97,0-176,79-176,176
		s79,176,176,176s176-79,176-176S353,80,256,80z"/>
</g>
<g>
	<path d="M310.4,336H201.6c-14.1,0-25.6-11.5-25.6-25.6V201.6c0-14.1,11.5-25.6,25.6-25.6h108.8c14.1,0,25.6,11.5,25.6,25.6v108.8
		C336,324.5,324.5,336,310.4,336z"/>
</g>
</svg>
