<?xml version="1.0" encoding="UTF-8" standalone="no"?>
<svg
   xmlns:dc="http://purl.org/dc/elements/1.1/"
   xmlns:cc="http://creativecommons.org/ns#"
   xmlns:rdf="http://www.w3.org/1999/02/22-rdf-syntax-ns#"
   xmlns:svg="http://www.w3.org/2000/svg"
   xmlns="http://www.w3.org/2000/svg"
   xmlns:sodipodi="http://sodipodi.sourceforge.net/DTD/sodipodi-0.dtd"
   xmlns:inkscape="http://www.inkscape.org/namespaces/inkscape"
   class="ionicon"
   viewBox="0 0 512 512"
   version="1.1"
   id="svg6"
   sodipodi:docname="storefront-outline.svg"
   inkscape:version="1.0.2 (e86c8708, 2021-01-15)">
  <metadata
     id="metadata12">
    <rdf:RDF>
      <cc:Work
         rdf:about="">
        <dc:format>image/svg+xml</dc:format>
        <dc:type
           rdf:resource="http://purl.org/dc/dcmitype/StillImage" />
      </cc:Work>
    </rdf:RDF>
  </metadata>
  <defs
     id="defs10" />
  <sodipodi:namedview
     pagecolor="#ffffff"
     bordercolor="#666666"
     borderopacity="1"
     objecttolerance="10"
     gridtolerance="10"
     guidetolerance="10"
     inkscape:pageopacity="0"
     inkscape:pageshadow="2"
     inkscape:window-width="689"
     inkscape:window-height="480"
     id="namedview8"
     showgrid="false"
     inkscape:zoom="1.3027344"
     inkscape:cx="256"
     inkscape:cy="256"
     inkscape:window-x="44"
     inkscape:window-y="25"
     inkscape:window-maximized="0"
     inkscape:current-layer="svg6" />
  <title
     id="title2">Storefront</title>
  <path
     style="color:#000000;font-style:normal;font-variant:normal;font-weight:normal;font-stretch:normal;font-size:medium;line-height:normal;font-family:sans-serif;font-variant-ligatures:normal;font-variant-position:normal;font-variant-caps:normal;font-variant-numeric:normal;font-variant-alternates:normal;font-variant-east-asian:normal;font-feature-settings:normal;font-variation-settings:normal;text-indent:0;text-align:start;text-decoration:none;text-decoration-line:none;text-decoration-style:solid;text-decoration-color:#000000;letter-spacing:normal;word-spacing:normal;text-transform:none;writing-mode:lr-tb;direction:ltr;text-orientation:mixed;dominant-baseline:auto;baseline-shift:baseline;text-anchor:start;white-space:normal;shape-padding:0;shape-margin:0;inline-size:0;clip-rule:nonzero;display:inline;overflow:visible;visibility:visible;isolation:auto;mix-blend-mode:normal;color-interpolation:sRGB;color-interpolation-filters:linearRGB;solid-color:#000000;solid-opacity:1;vector-effect:none;fill:currentColor;fill-opacity:1;fill-rule:nonzero;stroke:none;stroke-linecap:round;stroke-linejoin:round;stroke-miterlimit:4;stroke-dasharray:none;stroke-dashoffset:0;stroke-opacity:1;color-rendering:auto;image-rendering:auto;shape-rendering:auto;text-rendering:auto;enable-background:accumulate;stop-color:#000000;stop-opacity:1;opacity:1"
     d="M 129.5293 32 C 101.86504 32 76.335897 47.178949 65.054688 71.794922 A 16.0016 16.0016 0 0 0 65.052734 71.796875 L 21.753906 166.33789 C 7.7634985 196.86711 21.351299 230.49861 48 247.25781 L 48 448 L 32 448 A 16 16 0 0 0 16 464 A 16 16 0 0 0 32 480 L 288 480 L 400 480 L 480 480 A 16 16 0 0 0 496 464 A 16 16 0 0 0 480 448 L 464 448 L 464 247.24805 C 490.6499 230.4842 504.2391 196.85826 490.24609 166.33789 L 446.94727 71.796875 A 16.0016 16.0016 0 0 0 446.94531 71.794922 C 435.6641 47.178949 410.13496 32 382.4707 32 L 129.5293 32 z M 129.5293 64 L 382.4707 64 C 398.38541 64 412.21402 72.820278 417.85352 85.123047 L 461.15234 179.66211 A 16.0016 16.0016 0 0 0 461.15625 179.66992 C 471.01679 201.16968 455.59815 225.08999 428.10352 226 L 426.56055 226 C 403.1028 226 385.71094 209.20994 385.71094 189.76953 A 16.0016 16.0016 0 0 0 353.71094 189.76953 C 353.71094 209.20624 336.30736 226 312.84961 226 C 290.02031 226 272 206.71521 272 189.76953 A 16.0016 16.0016 0 0 0 240 189.76953 C 240 209.22843 222.65697 226 199.19922 226 C 176.36992 226 158.33984 206.71126 158.33984 189.76953 A 16.0016 16.0016 0 0 0 126.33984 189.76953 C 126.33984 206.78379 108.33652 226 85.490234 226 L 83.888672 226 C 56.398172 225.10476 40.979596 201.19145 50.845703 179.66602 A 16.0016 16.0016 0 0 0 50.847656 179.66211 L 94.144531 85.125 L 94.146484 85.123047 C 99.785976 72.820278 113.61459 64 129.5293 64 z M 142.34375 232.00977 C 155.74125 247.7314 176.28791 258 199.19922 258 C 221.91786 258 242.6287 247.96311 256.11328 232.14844 C 269.51067 247.79267 290.00512 258 312.84961 258 C 335.51587 258 356.20518 248.01896 369.70898 232.26953 C 383.21001 248.01809 403.89528 258 426.56055 258 L 428.50977 258 A 16.0016 16.0016 0 0 0 429.00781 257.99219 C 430.02579 257.96048 430.99577 257.78876 432 257.71484 L 432 448 L 416 448 L 416 312 C 416 290.09812 397.90188 272 376 272 L 312 272 C 290.09812 272 272 290.09812 272 312 L 272 448 L 80 448 L 80 257.71484 C 81.006918 257.78856 81.979254 257.96093 83 257.99219 A 16.0016 16.0016 0 0 0 83.490234 258 L 85.490234 258 C 108.39699 258 128.94628 247.73491 142.34375 232.00977 z M 136 272 C 114.09812 272 96 290.09812 96 312 L 96 400 A 16.0016 16.0016 0 0 0 112 416 L 240 416 A 16.0016 16.0016 0 0 0 256 400 L 256 312 C 256 290.09812 237.90188 272 216 272 L 136 272 z M 136 304 L 216 304 C 220.60779 304 224 307.39221 224 312 L 224 384 L 128 384 L 128 312 C 128 307.39221 131.39221 304 136 304 z M 312 304 L 376 304 C 380.60779 304 384 307.39221 384 312 L 384 448 L 304 448 L 304 312 C 304 307.39221 307.39221 304 312 304 z "
     id="path4" />
</svg>
