<?xml version="1.0" encoding="UTF-8" standalone="no"?>
<svg
   xmlns:dc="http://purl.org/dc/elements/1.1/"
   xmlns:cc="http://creativecommons.org/ns#"
   xmlns:rdf="http://www.w3.org/1999/02/22-rdf-syntax-ns#"
   xmlns:svg="http://www.w3.org/2000/svg"
   xmlns="http://www.w3.org/2000/svg"
   xmlns:sodipodi="http://sodipodi.sourceforge.net/DTD/sodipodi-0.dtd"
   xmlns:inkscape="http://www.inkscape.org/namespaces/inkscape"
   class="ionicon"
   viewBox="0 0 512 512"
   version="1.1"
   id="svg6"
   sodipodi:docname="storefront-sharp.svg"
   inkscape:version="1.0.2 (e86c8708, 2021-01-15)">
  <metadata
     id="metadata12">
    <rdf:RDF>
      <cc:Work
         rdf:about="">
        <dc:format>image/svg+xml</dc:format>
        <dc:type
           rdf:resource="http://purl.org/dc/dcmitype/StillImage" />
      </cc:Work>
    </rdf:RDF>
  </metadata>
  <defs
     id="defs10" />
  <sodipodi:namedview
     pagecolor="#ffffff"
     bordercolor="#666666"
     borderopacity="1"
     objecttolerance="10"
     gridtolerance="10"
     guidetolerance="10"
     inkscape:pageopacity="0"
     inkscape:pageshadow="2"
     inkscape:window-width="689"
     inkscape:window-height="480"
     id="namedview8"
     showgrid="false"
     inkscape:zoom="1.3027344"
     inkscape:cx="256"
     inkscape:cy="256"
     inkscape:window-x="44"
     inkscape:window-y="25"
     inkscape:window-maximized="0"
     inkscape:current-layer="svg6" />
  <title
     id="title2">Storefront</title>
  <path
     style="color:#000000;font-style:normal;font-variant:normal;font-weight:normal;font-stretch:normal;font-size:medium;line-height:normal;font-family:sans-serif;font-variant-ligatures:normal;font-variant-position:normal;font-variant-caps:normal;font-variant-numeric:normal;font-variant-alternates:normal;font-variant-east-asian:normal;font-feature-settings:normal;font-variation-settings:normal;text-indent:0;text-align:start;text-decoration:none;text-decoration-line:none;text-decoration-style:solid;text-decoration-color:#000000;letter-spacing:normal;word-spacing:normal;text-transform:none;writing-mode:lr-tb;direction:ltr;text-orientation:mixed;dominant-baseline:auto;baseline-shift:baseline;text-anchor:start;white-space:normal;shape-padding:0;shape-margin:0;inline-size:0;clip-rule:nonzero;display:inline;overflow:visible;visibility:visible;isolation:auto;mix-blend-mode:normal;color-interpolation:sRGB;color-interpolation-filters:linearRGB;solid-color:#000000;solid-opacity:1;vector-effect:none;fill:#000000;fill-opacity:1;fill-rule:nonzero;stroke-width:1;stroke-linecap:butt;stroke-linejoin:miter;stroke-miterlimit:4;stroke-dasharray:none;stroke-dashoffset:0;stroke-opacity:1;color-rendering:auto;image-rendering:auto;shape-rendering:auto;text-rendering:auto;enable-background:accumulate;stop-color:#000000;stop-opacity:1;stroke:none;opacity:1"
     d="M 464,448 V 267.85 c -10.75072,4.0168 -22.08843,6.23975 -33.56,6.58 -1.18,0 -2.3,0.05 -3.4,0.05 -20.0719,0.054 -39.76173,-5.48653 -56.86,-16 -17.09538,10.51168 -36.7815,16.05219 -56.85,16 -19.98606,0.027 -39.57381,-5.58827 -56.51,-16.2 -17.17221,10.65266 -36.99209,16.26598 -57.2,16.2 -20.1234,0.0265 -39.83972,-5.66815 -56.85,-16.42 -17.01028,10.75185 -36.7266,16.44652 -56.85,16.42 -1.09,0 -2.19,0 -3.37,-0.05 H 82.49 C 70.684096,274.07937 59.02271,271.7329 48,267.49 V 448 H 16 v 32 H 496 V 448 Z M 224,384 h -96 v -76 c 0,-2.20914 1.79086,-4 4,-4 h 88 c 2.20914,0 4,1.79086 4,4 z m 160,64 H 304 V 308 c 0,-2.20914 1.79086,-4 4,-4 h 72 c 2.20914,0 4,1.79086 4,4 z M 492.57,170.28 445.89,64 C 432,32 432,32 400,32 H 112 C 80,32 80,32 66.06,64 L 19.38,170.28 c -9,19.41 2.89,39.34 2.9,39.35 l 0.41,0.66 c 0.42,0.66 1.13,1.75 1.62,2.37 0.1,0.13 0.19,0.27 0.28,0.4 l 5.24,6.39 5.31,5.14 0.42,0.36 c 2.952279,2.51905 6.109937,4.78695 9.44,6.78 v 0.05 c 10.883088,6.59258 23.282229,10.26754 36,10.67 h 2.47 c 19.24274,0.0358 37.78423,-7.2214 51.89,-20.31 2.03684,-1.88765 3.96336,-3.89097 5.77,-6 1.81275,2.1067 3.74246,4.10986 5.78,6 14.10577,13.0886 32.64726,20.34584 51.89,20.31 23.28,0 44.07,-10 57.63,-25.56 0.0422,-0.0394 0.10775,-0.0394 0.15,0 l 5.66,5.26 c 14.10884,13.0901 32.654,20.34737 51.9,20.31 23.29,0 44.11,-10 57.66,-25.61 13.56,15.61 34.37,25.61 57.67,25.61 h 2.49 c 12.39855,-0.46289 24.46209,-4.15089 35,-10.7 0.95,-0.57 1.86,-1.17 2.78,-1.77 7.10818,-4.7943 13.29378,-10.83085 18.26,-17.82 l 2,-3 c 0.9,-2.04 11.21,-20.3 2.57,-38.89 z"
     id="path4" />
</svg>
