<?xml version="1.0" encoding="UTF-8"?>
<svg width="512px" height="512px" viewBox="0 0 512 512" version="1.1" xmlns="http://www.w3.org/2000/svg" xmlns:xlink="http://www.w3.org/1999/xlink">
    <!-- Generator: Sketch 62 (91390) - https://sketch.com -->
    <title>Artboard</title>
    <desc>Created with Sketch.</desc>
    <g id="Artboard" stroke="none" stroke-width="1" fill="none" fill-rule="evenodd">
        <g id="subway-outline" transform="translate(96.000000, 16.000000)" fill="#000000" fill-rule="nonzero">
            <path d="M43.3,475.3 C40.2,478.4 36.1,480 32,480 C27.9,480 23.8,478.4 20.7,475.3 C14.5,469.1 14.5,458.9 20.7,452.7 L36.6724142,436.727652 C36.6907825,436.709195 36.7091953,436.690783 36.7276523,436.672414 L68.7,404.7 C74.9,398.5 85.1,398.5 91.3,404.7 C97.5,410.9 97.5,421.1 91.3,427.3 L86.598,432 L233.401,432 L228.7,427.3 C222.5,421.1 222.5,410.9 228.7,404.7 C234.9,398.5 245.1,398.5 251.3,404.7 L299.3,452.7 C305.5,458.9 305.5,469.1 299.3,475.3 C296.2,478.4 292.1,480 288,480 C283.9,480 279.8,478.4 276.7,475.3 L265.401,464 L54.598,464 L43.3,475.3 Z M256,0 C291.3,0 320,28.7 320,64 L320,320 C320,355.3 291.3,384 256,384 L64,384 C28.7,384 0,355.3 0,320 L0,64 C0,28.7 28.7,0 64,0 L256,0 Z M272,224 L48,224 C42.390459,224 37.0049619,223.036612 32.0000135,221.26634 L32,320 C32,337.6 46.4,352 64,352 L256,352 C273.6,352 288,337.6 288,320 L288.000988,221.265986 C282.995757,223.036483 277.609915,224 272,224 Z M80,272 C97.6,272 112,286.4 112,304 C112,321.6 97.6,336 80,336 C62.4,336 48,321.6 48,304 C48,286.4 62.4,272 80,272 Z M240,272 C257.6,272 272,286.4 272,304 C272,321.6 257.6,336 240,336 C222.4,336 208,321.6 208,304 C208,286.4 222.4,272 240,272 Z M272,128 L48,128 C39.2,128 32,135.2 32,144 L32,176 C32,184.8 39.2,192 48,192 L272,192 C280.8,192 288,184.8 288,176 L288,144 C288,135.2 280.8,128 272,128 Z M256,32 L64,32 C46.4,32 32,46.4 32,64 L32.0000135,98.7336598 C37.0049619,96.9633883 42.390459,96 48,96 L272,96 C277.609915,96 282.995757,96.9635168 288.000988,98.7340142 L288,64 C288,46.4 273.6,32 256,32 Z M208,48 C216.8,48 224,55.2 224,64 C224,72.8 216.8,80 208,80 L112,80 C103.2,80 96,72.8 96,64 C96,55.2 103.2,48 112,48 L208,48 Z" id="Combined-Shape"></path>
        </g>
    </g>
</svg>