<?xml version="1.0" encoding="UTF-8" standalone="no"?>
<svg
   xmlns:dc="http://purl.org/dc/elements/1.1/"
   xmlns:cc="http://creativecommons.org/ns#"
   xmlns:rdf="http://www.w3.org/1999/02/22-rdf-syntax-ns#"
   xmlns:svg="http://www.w3.org/2000/svg"
   xmlns="http://www.w3.org/2000/svg"
   xmlns:sodipodi="http://sodipodi.sourceforge.net/DTD/sodipodi-0.dtd"
   xmlns:inkscape="http://www.inkscape.org/namespaces/inkscape"
   class="ionicon"
   viewBox="0 0 512 512"
   version="1.1"
   id="svg6"
   sodipodi:docname="subway.svg"
   inkscape:version="1.0.2 (e86c8708, 2021-01-15)">
  <metadata
     id="metadata12">
    <rdf:RDF>
      <cc:Work
         rdf:about="">
        <dc:format>image/svg+xml</dc:format>
        <dc:type
           rdf:resource="http://purl.org/dc/dcmitype/StillImage" />
      </cc:Work>
    </rdf:RDF>
  </metadata>
  <defs
     id="defs10" />
  <sodipodi:namedview
     pagecolor="#ffffff"
     bordercolor="#666666"
     borderopacity="1"
     objecttolerance="10"
     gridtolerance="10"
     guidetolerance="10"
     inkscape:pageopacity="0"
     inkscape:pageshadow="2"
     inkscape:window-width="689"
     inkscape:window-height="480"
     id="namedview8"
     showgrid="false"
     inkscape:zoom="1.3027344"
     inkscape:cx="256"
     inkscape:cy="256"
     inkscape:window-x="44"
     inkscape:window-y="25"
     inkscape:window-maximized="0"
     inkscape:current-layer="svg6" />
  <title
     id="title2">Subway</title>
  <path
     style="color:#000000;font-style:normal;font-variant:normal;font-weight:normal;font-stretch:normal;font-size:medium;line-height:normal;font-family:sans-serif;font-variant-ligatures:normal;font-variant-position:normal;font-variant-caps:normal;font-variant-numeric:normal;font-variant-alternates:normal;font-variant-east-asian:normal;font-feature-settings:normal;font-variation-settings:normal;text-indent:0;text-align:start;text-decoration:none;text-decoration-line:none;text-decoration-style:solid;text-decoration-color:#000000;letter-spacing:normal;word-spacing:normal;text-transform:none;writing-mode:lr-tb;direction:ltr;text-orientation:mixed;dominant-baseline:auto;baseline-shift:baseline;text-anchor:start;white-space:normal;shape-padding:0;shape-margin:0;inline-size:0;clip-rule:nonzero;display:inline;overflow:visible;visibility:visible;isolation:auto;mix-blend-mode:normal;color-interpolation:sRGB;color-interpolation-filters:linearRGB;solid-color:#000000;solid-opacity:1;vector-effect:none;fill:#000000;fill-opacity:1;fill-rule:nonzero;stroke-width:1;stroke-linecap:butt;stroke-linejoin:miter;stroke-miterlimit:4;stroke-dasharray:none;stroke-dashoffset:0;stroke-opacity:1;color-rendering:auto;image-rendering:auto;shape-rendering:auto;text-rendering:auto;enable-background:accumulate;stop-color:#000000;stop-opacity:1;stroke:none;opacity:1"
     d="M 352,16 H 160 c -35.33023,0.03858 -63.961421,28.669768 -64,64 v 256 c 0.03858,35.33023 28.66977,63.96142 64,64 h 192 c 35.33023,-0.0386 63.96142,-28.66977 64,-64 V 80 C 415.96142,44.669768 387.33023,16.038579 352,16 Z M 208,64 h 96 c 8.83656,0 15.99999,7.163444 15.99999,16 0,8.836556 -7.16343,16 -15.99999,16 h -96 c -8.83656,0 -15.99999,-7.163444 -15.99999,-16 0,-8.836556 7.16343,-16 15.99999,-16 z m -32,288 c -12.94278,0 -24.61122,-7.79659 -29.56392,-19.75395 -4.9527,-11.95732 -2.21423,-25.72043 6.93765,-34.87232 9.15189,-9.15188 22.915,-11.89035 34.87232,-6.93765 C 200.20341,295.38878 208,307.05722 208,320 c 0,17.67311 -14.32689,32 -32,32 z m 160,0 c -12.94278,0 -24.61122,-7.79659 -29.56392,-19.75395 -4.9527,-11.95732 -2.21423,-25.72043 6.93765,-34.87232 9.15189,-9.15188 22.915,-11.89035 34.87232,-6.93765 C 360.20341,295.38878 368,307.05722 368,320 c 0,17.67311 -14.32689,32 -32,32 z m 48,-160 c 0,8.83656 -7.16344,16 -16,16 H 144 c -8.83656,0 -16,-7.16344 -16,-16 v -32 c 0,-8.83656 7.16344,-16 16,-16 h 224 c 8.83656,0 16,7.16344 16,16 z m -36.69,228.69 c -6.29063,-5.97647 -16.19849,-5.84961 -22.33405,0.28595 -6.13556,6.13556 -6.26242,16.04342 -0.28595,22.33405 l 4.68,4.69 H 182.63 l 4.68,-4.69 c 5.97647,-6.29063 5.84961,-16.19849 -0.28595,-22.33405 -6.13556,-6.13556 -16.04342,-6.26242 -22.33405,-0.28595 l -48,48 c -6.52262,6.19686 -6.65518,16.55154 -0.29336,22.91336 6.36182,6.36182 16.7165,6.22926 22.91336,-0.29336 L 150.63,480 h 210.74 l 11.32,11.31 c 6.29063,5.97647 16.19849,5.84961 22.33405,-0.28595 6.13556,-6.13556 6.26242,-16.04342 0.28595,-22.33405 z"
     id="path4" />
</svg>
