<?xml version="1.0" encoding="UTF-8"?>
<svg width="512px" height="512px" viewBox="0 0 512 512" version="1.1" xmlns="http://www.w3.org/2000/svg" xmlns:xlink="http://www.w3.org/1999/xlink">
    <!-- Generator: Sketch 62 (91390) - https://sketch.com -->
    <title>Artboard</title>
    <desc>Created with Sketch.</desc>
    <g id="Artboard" stroke="none" stroke-width="1" fill="none" fill-rule="evenodd">
        <g id="sunny-sharp" transform="translate(26.000000, 26.000000)" fill="#000000" fill-rule="nonzero">
            <path d="M252,368 L252,460 L208,460 L208,368 L252,368 Z M343.141436,312.026739 L408.19526,377.080563 L377.082561,408.193261 L312.028737,343.139437 L343.141436,312.026739 Z M116.869235,312.020065 L147.981933,343.132764 L82.9281092,408.186588 L51.8154108,377.073889 L116.869235,312.020065 Z M230,128 C286.333044,128 332,173.666956 332,230 C331.933875,286.305632 286.305632,331.933875 230,332 C173.666956,332 128,286.333044 128,230 C128,173.666956 173.666956,128 230,128 Z M460,208 L460,252 L368,252 L368,208 L460,208 Z M92,208 L92,252 L0,252 L0,208 L92,208 Z M82.9147826,51.8067389 L147.968606,116.860563 L116.855908,147.973261 L51.8020842,82.9194373 L82.9147826,51.8067389 Z M377.079235,51.8034123 L408.191933,82.9161107 L343.138109,147.969935 L312.025411,116.857236 L377.079235,51.8034123 Z M252,0 L252,92 L208,92 L208,0 L252,0 Z" id="Combined-Shape"></path>
        </g>
    </g>
</svg>