<?xml version="1.0" encoding="UTF-8" standalone="no"?>
<svg
   xmlns:dc="http://purl.org/dc/elements/1.1/"
   xmlns:cc="http://creativecommons.org/ns#"
   xmlns:rdf="http://www.w3.org/1999/02/22-rdf-syntax-ns#"
   xmlns:svg="http://www.w3.org/2000/svg"
   xmlns="http://www.w3.org/2000/svg"
   xmlns:sodipodi="http://sodipodi.sourceforge.net/DTD/sodipodi-0.dtd"
   xmlns:inkscape="http://www.inkscape.org/namespaces/inkscape"
   class="ionicon"
   viewBox="0 0 512 512"
   version="1.1"
   id="svg8"
   sodipodi:docname="sunny-outline.svg"
   inkscape:version="1.0.2 (e86c8708, 2021-01-15)">
  <metadata
     id="metadata14">
    <rdf:RDF>
      <cc:Work
         rdf:about="">
        <dc:format>image/svg+xml</dc:format>
        <dc:type
           rdf:resource="http://purl.org/dc/dcmitype/StillImage" />
      </cc:Work>
    </rdf:RDF>
  </metadata>
  <defs
     id="defs12" />
  <sodipodi:namedview
     pagecolor="#ffffff"
     bordercolor="#666666"
     borderopacity="1"
     objecttolerance="10"
     gridtolerance="10"
     guidetolerance="10"
     inkscape:pageopacity="0"
     inkscape:pageshadow="2"
     inkscape:window-width="689"
     inkscape:window-height="480"
     id="namedview10"
     showgrid="false"
     inkscape:zoom="1.3027344"
     inkscape:cx="256"
     inkscape:cy="256"
     inkscape:window-x="44"
     inkscape:window-y="25"
     inkscape:window-maximized="0"
     inkscape:current-layer="svg8" />
  <title
     id="title2">Sunny</title>
  <path
     style="color:#000000;font-style:normal;font-variant:normal;font-weight:normal;font-stretch:normal;font-size:medium;line-height:normal;font-family:sans-serif;font-variant-ligatures:normal;font-variant-position:normal;font-variant-caps:normal;font-variant-numeric:normal;font-variant-alternates:normal;font-variant-east-asian:normal;font-feature-settings:normal;font-variation-settings:normal;text-indent:0;text-align:start;text-decoration:none;text-decoration-line:none;text-decoration-style:solid;text-decoration-color:#000000;letter-spacing:normal;word-spacing:normal;text-transform:none;writing-mode:lr-tb;direction:ltr;text-orientation:mixed;dominant-baseline:auto;baseline-shift:baseline;text-anchor:start;white-space:normal;shape-padding:0;shape-margin:0;inline-size:0;clip-rule:nonzero;display:inline;overflow:visible;visibility:visible;isolation:auto;mix-blend-mode:normal;color-interpolation:sRGB;color-interpolation-filters:linearRGB;solid-color:#000000;solid-opacity:1;vector-effect:none;fill:currentColor;fill-opacity:1;fill-rule:nonzero;stroke:none;stroke-linecap:round;stroke-linejoin:miter;stroke-miterlimit:10;stroke-dasharray:none;stroke-dashoffset:0;stroke-opacity:1;color-rendering:auto;image-rendering:auto;shape-rendering:auto;text-rendering:auto;enable-background:accumulate;stop-color:#000000;stop-opacity:1;opacity:1"
     d="M 256 32 A 16 16 0 0 0 240 48 L 240 96 A 16 16 0 0 0 256 112 A 16 16 0 0 0 272 96 L 272 48 A 16 16 0 0 0 256 32 z M 109.04102 92.919922 A 16 16 0 0 0 97.605469 97.605469 A 16 16 0 0 0 97.605469 120.23438 L 131.54688 154.17383 A 16 16 0 0 0 154.17383 154.17383 A 16 16 0 0 0 154.17383 131.54688 L 120.23438 97.605469 A 16 16 0 0 0 109.04102 92.919922 z M 403.20117 92.919922 A 16 16 0 0 0 391.76562 97.605469 L 357.82617 131.54688 A 16 16 0 0 0 357.82617 154.17383 A 16 16 0 0 0 380.45312 154.17383 L 414.39453 120.23438 A 16 16 0 0 0 414.39453 97.605469 A 16 16 0 0 0 403.20117 92.919922 z M 48 240 A 16 16 0 0 0 32 256 A 16 16 0 0 0 48 272 L 96 272 A 16 16 0 0 0 112 256 A 16 16 0 0 0 96 240 L 48 240 z M 416 240 A 16 16 0 0 0 400 256 A 16 16 0 0 0 416 272 L 464 272 A 16 16 0 0 0 480 256 A 16 16 0 0 0 464 240 L 416 240 z M 142.64453 353.14062 A 16 16 0 0 0 131.54688 357.82617 L 97.605469 391.76562 A 16 16 0 0 0 97.605469 414.39453 A 16 16 0 0 0 120.23438 414.39453 L 154.17383 380.45312 A 16 16 0 0 0 154.17383 357.82617 A 16 16 0 0 0 142.64453 353.14062 z M 368.92383 353.14062 A 16 16 0 0 0 357.82617 357.82617 A 16 16 0 0 0 357.82617 380.45312 L 391.76562 414.39453 A 16 16 0 0 0 414.39453 414.39453 A 16 16 0 0 0 414.39453 391.76562 L 380.45312 357.82617 A 16 16 0 0 0 368.92383 353.14062 z M 256 400 A 16 16 0 0 0 240 416 L 240 464 A 16 16 0 0 0 256 480 A 16 16 0 0 0 272 464 L 272 416 A 16 16 0 0 0 256 400 z "
     id="path4" />
  <path
     style="color:#000000;font-style:normal;font-variant:normal;font-weight:normal;font-stretch:normal;font-size:medium;line-height:normal;font-family:sans-serif;font-variant-ligatures:normal;font-variant-position:normal;font-variant-caps:normal;font-variant-numeric:normal;font-variant-alternates:normal;font-variant-east-asian:normal;font-feature-settings:normal;font-variation-settings:normal;text-indent:0;text-align:start;text-decoration:none;text-decoration-line:none;text-decoration-style:solid;text-decoration-color:#000000;letter-spacing:normal;word-spacing:normal;text-transform:none;writing-mode:lr-tb;direction:ltr;text-orientation:mixed;dominant-baseline:auto;baseline-shift:baseline;text-anchor:start;white-space:normal;shape-padding:0;shape-margin:0;inline-size:0;clip-rule:nonzero;display:inline;overflow:visible;visibility:visible;isolation:auto;mix-blend-mode:normal;color-interpolation:sRGB;color-interpolation-filters:linearRGB;solid-color:#000000;solid-opacity:1;vector-effect:none;fill:currentColor;fill-opacity:1;fill-rule:nonzero;stroke:none;stroke-linecap:round;stroke-linejoin:miter;stroke-miterlimit:10;stroke-dasharray:none;stroke-dashoffset:0;stroke-opacity:1;color-rendering:auto;image-rendering:auto;shape-rendering:auto;text-rendering:auto;enable-background:accumulate;stop-color:#000000;stop-opacity:1;opacity:1"
     d="M 256 160 C 203.17018 160 160 203.17018 160 256 C 160 308.82982 203.17018 352 256 352 C 308.82982 352 352 308.82982 352 256 C 352 203.17018 308.82982 160 256 160 z M 256 192 C 291.53574 192 320 220.46426 320 256 C 320 291.53574 291.53574 320 256 320 C 220.46426 320 192 291.53574 192 256 C 192 220.46426 220.46426 192 256 192 z "
     id="circle6" />
</svg>
