<?xml version="1.0" encoding="utf-8"?>
<!-- Generator: Adobe Illustrator 24.0.0, SVG Export Plug-In . SVG Version: 6.00 Build 0)  -->
<svg version="1.1" id="Layer_1" xmlns="http://www.w3.org/2000/svg" xmlns:xlink="http://www.w3.org/1999/xlink" x="0px" y="0px"
	 viewBox="0 0 512 512" style="enable-background:new 0 0 512 512;" xml:space="preserve">
<title>ionicons-v5-q</title>
<g>
	<path d="M256,112c-8.8,0-16-7.2-16-16V48c0-8.8,7.2-16,16-16c8.8,0,16,7.2,16,16v48C272,104.8,264.8,112,256,112z"/>
</g>
<g>
	<path d="M256,480c-8.8,0-16-7.2-16-16v-48c0-8.8,7.2-16,16-16c8.8,0,16,7.2,16,16v48C272,472.8,264.8,480,256,480z"/>
</g>
<g>
	<path d="M369.1,158.9c-4.1,0-8.2-1.6-11.3-4.7c-6.2-6.2-6.2-16.4,0-22.6l33.9-33.9c6.2-6.2,16.4-6.2,22.6,0
		c6.2,6.2,6.2,16.4,0,22.6l-33.9,33.9C377.3,157.3,373.2,158.9,369.1,158.9z"/>
</g>
<g>
	<path d="M108.9,419.1c-4.1,0-8.2-1.6-11.3-4.7c-6.2-6.2-6.2-16.4,0-22.6l33.9-33.9c6.2-6.2,16.4-6.2,22.6,0
		c6.2,6.2,6.2,16.4,0,22.6l-33.9,33.9C117.1,417.5,113,419.1,108.9,419.1z"/>
</g>
<g>
	<path d="M464,272h-48c-8.8,0-16-7.2-16-16c0-8.8,7.2-16,16-16h48c8.8,0,16,7.2,16,16C480,264.8,472.8,272,464,272z"/>
</g>
<g>
	<path d="M96,272H48c-8.8,0-16-7.2-16-16c0-8.8,7.2-16,16-16h48c8.8,0,16,7.2,16,16C112,264.8,104.8,272,96,272z"/>
</g>
<g>
	<path d="M403.1,419.1c-4.1,0-8.2-1.6-11.3-4.7l-33.9-33.9c-6.2-6.2-6.2-16.4,0-22.6c6.2-6.2,16.4-6.2,22.6,0l33.9,33.9
		c6.2,6.2,6.2,16.4,0,22.6C411.3,417.5,407.2,419.1,403.1,419.1z"/>
</g>
<g>
	<path d="M142.9,158.9c-4.1,0-8.2-1.6-11.3-4.7l-33.9-33.9c-6.2-6.2-6.2-16.4,0-22.6c6.2-6.2,16.4-6.2,22.6,0l33.9,33.9
		c6.2,6.2,6.2,16.4,0,22.6C151,157.3,147,158.9,142.9,158.9z"/>
</g>
<g>
	<path d="M256,352c-52.9,0-96-43.1-96-96s43.1-96,96-96s96,43.1,96,96S308.9,352,256,352z M256,192c-35.3,0-64,28.7-64,64
		c0,35.3,28.7,64,64,64c35.3,0,64-28.7,64-64C320,220.7,291.3,192,256,192z"/>
</g>
</svg>
