<?xml version="1.0" encoding="UTF-8" standalone="no"?>
<svg
   xmlns:dc="http://purl.org/dc/elements/1.1/"
   xmlns:cc="http://creativecommons.org/ns#"
   xmlns:rdf="http://www.w3.org/1999/02/22-rdf-syntax-ns#"
   xmlns:svg="http://www.w3.org/2000/svg"
   xmlns="http://www.w3.org/2000/svg"
   xmlns:sodipodi="http://sodipodi.sourceforge.net/DTD/sodipodi-0.dtd"
   xmlns:inkscape="http://www.inkscape.org/namespaces/inkscape"
   class="ionicon"
   viewBox="0 0 512 512"
   version="1.1"
   id="svg6"
   sodipodi:docname="sunny.svg"
   inkscape:version="1.0.2 (e86c8708, 2021-01-15)">
  <metadata
     id="metadata12">
    <rdf:RDF>
      <cc:Work
         rdf:about="">
        <dc:format>image/svg+xml</dc:format>
        <dc:type
           rdf:resource="http://purl.org/dc/dcmitype/StillImage" />
      </cc:Work>
    </rdf:RDF>
  </metadata>
  <defs
     id="defs10" />
  <sodipodi:namedview
     pagecolor="#ffffff"
     bordercolor="#666666"
     borderopacity="1"
     objecttolerance="10"
     gridtolerance="10"
     guidetolerance="10"
     inkscape:pageopacity="0"
     inkscape:pageshadow="2"
     inkscape:window-width="689"
     inkscape:window-height="480"
     id="namedview8"
     showgrid="false"
     inkscape:zoom="1.3027344"
     inkscape:cx="256"
     inkscape:cy="256"
     inkscape:window-x="44"
     inkscape:window-y="25"
     inkscape:window-maximized="0"
     inkscape:current-layer="svg6" />
  <title
     id="title2">Sunny</title>
  <path
     style="color:#000000;font-style:normal;font-variant:normal;font-weight:normal;font-stretch:normal;font-size:medium;line-height:normal;font-family:sans-serif;font-variant-ligatures:normal;font-variant-position:normal;font-variant-caps:normal;font-variant-numeric:normal;font-variant-alternates:normal;font-variant-east-asian:normal;font-feature-settings:normal;font-variation-settings:normal;text-indent:0;text-align:start;text-decoration:none;text-decoration-line:none;text-decoration-style:solid;text-decoration-color:#000000;letter-spacing:normal;word-spacing:normal;text-transform:none;writing-mode:lr-tb;direction:ltr;text-orientation:mixed;dominant-baseline:auto;baseline-shift:baseline;text-anchor:start;white-space:normal;shape-padding:0;shape-margin:0;inline-size:0;clip-rule:nonzero;display:inline;overflow:visible;visibility:visible;isolation:auto;mix-blend-mode:normal;color-interpolation:sRGB;color-interpolation-filters:linearRGB;solid-color:#000000;solid-opacity:1;vector-effect:none;fill:#000000;fill-opacity:1;fill-rule:nonzero;stroke-width:1;stroke-linecap:butt;stroke-linejoin:miter;stroke-miterlimit:4;stroke-dasharray:none;stroke-dashoffset:0;stroke-opacity:1;color-rendering:auto;image-rendering:auto;shape-rendering:auto;text-rendering:auto;enable-background:accumulate;stop-color:#000000;stop-opacity:1;stroke:none;opacity:1"
     d="m 256,118 c -12.15026,0 -22,-9.84974 -22,-22 V 48 c 0,-12.150273 9.84974,-21.99999 22,-21.99999 12.15026,0 22,9.849717 22,21.99999 v 48 c 0,12.15026 -9.84974,22 -22,22 z m 0,368 c -12.15026,0 -22,-9.84974 -22,-22 v -48 c 0,-12.15027 9.84974,-21.99999 22,-21.99999 12.15026,0 22,9.84972 22,21.99999 v 48 c 0,12.15026 -9.84974,22 -22,22 z M 369.14,164.86 c -19.59428,-0.002 -29.40959,-23.6891 -15.56,-37.55 l 33.94,-33.94 c 8.623,-8.398799 22.39483,-8.308096 30.90647,0.203535 C 426.9381,102.08517 427.0288,115.857 418.63,124.48 l -33.94,33.94 c -4.12047,4.12944 -9.71643,6.447 -15.55,6.44 z M 108.92,425.08 C 89.318905,425.0776 79.50668,401.37681 93.37,387.52 l 33.94,-33.94 c 8.5567,-8.78512 22.64456,-8.87788 31.31622,-0.20622 8.67166,8.67166 8.5789,22.75952 -0.20622,31.31622 l -33.94,33.94 c -4.1219,4.13463 -9.72174,6.4559 -15.56,6.45 z M 464,278 h -48 c -12.15027,0 -21.99999,-9.84974 -21.99999,-22 0,-12.15026 9.84972,-22 21.99999,-22 h 48 c 12.15027,0 21.99999,9.84974 21.99999,22 0,12.15026 -9.84972,22 -21.99999,22 z M 96,278 H 48 c -12.150273,0 -21.99999,-9.84974 -21.99999,-22 0,-12.15026 9.849717,-22 21.99999,-22 h 48 c 12.15027,0 21.99999,9.84974 21.99999,22 0,12.15026 -9.84972,22 -21.99999,22 z m 307.08,147.08 c -5.83826,0.006 -11.4381,-2.31537 -15.56,-6.45 l -33.94,-33.94 c -8.3988,-8.623 -8.3081,-22.39483 0.20353,-30.90647 C 362.29517,345.2719 376.067,345.1812 384.69,353.58 l 33.94,33.94 c 13.86332,13.85681 4.0511,37.5576 -15.55,37.56 z M 142.86,164.86 c -5.83445,0.0114 -11.43204,-2.3068 -15.55,-6.44 L 93.37,124.48 C 84.971201,115.857 85.061904,102.08517 93.573535,93.573535 102.08517,85.061904 115.857,84.971201 124.48,93.37 l 33.94,33.94 c 13.84959,13.8609 4.03428,37.5476 -15.56,37.55 z M 256,358 c -41.2551,0 -78.44825,-24.85164 -94.23501,-62.9657 -15.78671,-38.11399 -7.05786,-81.98389 22.11378,-111.15553 29.17164,-29.17164 73.04154,-37.90049 111.15553,-22.11378 C 333.14836,177.55175 358,214.7449 358,256 c -0.0661,56.30563 -45.69437,101.93387 -102,102 z"
     id="path4" />
</svg>
