<?xml version="1.0" encoding="utf-8"?>
<!-- Generator: Adobe Illustrator 24.0.0, SVG Export Plug-In . SVG Version: 6.00 Build 0)  -->
<svg version="1.1" id="Layer_1" xmlns="http://www.w3.org/2000/svg" xmlns:xlink="http://www.w3.org/1999/xlink" x="0px" y="0px"
	 viewBox="0 0 512 512" style="enable-background:new 0 0 512 512;" xml:space="preserve">
<title>ionicons-v5-b</title>
<g>
	<path d="M304,288c-4.1,0-8.2-1.6-11.3-4.7c-6.2-6.2-6.2-16.4,0-22.6L393.4,160L292.7,59.3c-6.2-6.2-6.2-16.4,0-22.6
		c6.2-6.2,16.4-6.2,22.6,0l112,112c6.2,6.2,6.2,16.4,0,22.6l-112,112C312.2,286.4,308.1,288,304,288z"/>
</g>
<g>
	<path d="M398.9,176H96c-8.8,0-16-7.2-16-16s7.2-16,16-16h302.9c8.8,0,16,7.2,16,16S407.7,176,398.9,176z"/>
</g>
<g>
	<path d="M208,480c-4.1,0-8.2-1.6-11.3-4.7l-112-112c-6.2-6.2-6.2-16.4,0-22.6l112-112c6.2-6.2,16.4-6.2,22.6,0
		c6.2,6.2,6.2,16.4,0,22.6L118.6,352l100.7,100.7c6.2,6.2,6.2,16.4,0,22.6C216.2,478.4,212.1,480,208,480z"/>
</g>
<g>
	<path d="M416,368H114c-8.8,0-16-7.2-16-16s7.2-16,16-16h302c8.8,0,16,7.2,16,16S424.8,368,416,368z"/>
</g>
</svg>
