<?xml version="1.0" encoding="utf-8"?>
<!-- Generator: Adobe Illustrator 24.0.0, SVG Export Plug-In . SVG Version: 6.00 Build 0)  -->
<svg version="1.1" id="Layer_1" xmlns="http://www.w3.org/2000/svg" xmlns:xlink="http://www.w3.org/1999/xlink" x="0px" y="0px"
	 viewBox="0 0 512 512" style="enable-background:new 0 0 512 512;" xml:space="preserve">
<title>ionicons-v5-b</title>
<g>
	<path d="M464,224c-4.1,0-8.2-1.6-11.3-4.7L352,118.6L251.3,219.3c-6.2,6.2-16.4,6.2-22.6,0c-6.2-6.2-6.2-16.4,0-22.6l112-112
		c6.2-6.2,16.4-6.2,22.6,0l112,112c6.2,6.2,6.2,16.4,0,22.6C472.2,222.4,468.1,224,464,224z"/>
</g>
<g>
	<path d="M352,432c-8.8,0-16-7.2-16-16V113.1c0-8.8,7.2-16,16-16s16,7.2,16,16V416C368,424.8,360.8,432,352,432z"/>
</g>
<g>
	<path d="M160,432c-4.1,0-8.2-1.6-11.3-4.7l-112-112c-6.2-6.2-6.2-16.4,0-22.6c6.2-6.2,16.4-6.2,22.6,0L160,393.4l100.7-100.7
		c6.2-6.2,16.4-6.2,22.6,0c6.2,6.2,6.2,16.4,0,22.6l-112,112C168.2,430.4,164.1,432,160,432z"/>
</g>
<g>
	<path d="M160,414c-8.8,0-16-7.2-16-16V96c0-8.8,7.2-16,16-16s16,7.2,16,16v302C176,406.8,168.8,414,160,414z"/>
</g>
</svg>
