<?xml version="1.0" encoding="utf-8"?>
<!-- Generator: Adobe Illustrator 24.0.0, SVG Export Plug-In . SVG Version: 6.00 Build 0)  -->
<svg version="1.1" id="Layer_1" xmlns="http://www.w3.org/2000/svg" xmlns:xlink="http://www.w3.org/1999/xlink" x="0px" y="0px"
	 viewBox="0 0 512 512" style="enable-background:new 0 0 512 512;" xml:space="preserve">
<title>ionicons-v5-b</title>
<g>
	<path d="M256,464c-114.7,0-208-93.3-208-208S141.3,48,256,48s208,93.3,208,208S370.7,464,256,464z M256,80c-97,0-176,79-176,176
		s79,176,176,176s176-79,176-176S353,80,256,80z"/>
</g>
<g>
	<path d="M256.1,368.1c-29.8,0-57.9-11.6-79.1-32.6c-21.3-21.1-33-49.3-33.1-79.2v-16.1c0-8.8,7.2-16,16-16s16,7.2,16,16v16
		c0.1,21.4,8.5,41.5,23.7,56.6c15.1,15,35.2,23.3,56.5,23.3c0.1,0,0.2,0,0.3,0c22.7-0.1,44.4-9.8,59.5-26.7c5.9-6.6,16-7.1,22.6-1.3
		s7.1,16,1.3,22.6c-21.2,23.6-51.5,37.3-83.2,37.4C256.4,368.1,256.2,368.1,256.1,368.1z M351.8,287.9c-8.8,0-16-7.2-16-16v-16
		c-0.1-21.4-8.5-41.5-23.7-56.5C297,184.3,277,176,255.7,176c-0.1,0-0.2,0-0.3,0c-22.6,0.1-44.3,9.8-59.4,26.6
		c-5.9,6.6-16,7.1-22.6,1.2c-6.6-5.9-7.1-16-1.2-22.6c21.1-23.6,51.4-37.2,83.1-37.3c0.1,0,0.3,0,0.4,0c29.8,0,57.9,11.6,79,32.6
		c21.3,21.1,33,49.2,33.1,79.2v16.1C367.8,280.7,360.7,287.9,351.8,287.9z"/>
</g>
<g>
	<path d="M184.1,272c-4,0-8-1.5-11.1-4.4l-13.4-12.8l-12.5,12.5c-6.2,6.2-16.4,6.2-22.6,0c-6.2-6.2-6.3-16.4,0-22.6l23.6-23.6
		c6.1-6.2,16.1-6.3,22.4-0.3l24.7,23.6c6.4,6.1,6.6,16.2,0.5,22.6C192.5,270.3,188.3,272,184.1,272z"/>
</g>
<g>
	<path d="M352.5,295.6c-4,0-8-1.5-11.1-4.4l-24.7-23.6c-6.4-6.1-6.6-16.2-0.5-22.6c6.1-6.4,16.2-6.6,22.6-0.5l13.4,12.8l12.5-12.5
		c6.2-6.2,16.4-6.3,22.6,0c6.2,6.2,6.3,16.4,0,22.6l-23.6,23.6C360.7,294,356.6,295.6,352.5,295.6z"/>
</g>
</svg>
