<?xml version="1.0" encoding="UTF-8" standalone="no"?>
<svg
   xmlns:dc="http://purl.org/dc/elements/1.1/"
   xmlns:cc="http://creativecommons.org/ns#"
   xmlns:rdf="http://www.w3.org/1999/02/22-rdf-syntax-ns#"
   xmlns:svg="http://www.w3.org/2000/svg"
   xmlns="http://www.w3.org/2000/svg"
   xmlns:sodipodi="http://sodipodi.sourceforge.net/DTD/sodipodi-0.dtd"
   xmlns:inkscape="http://www.inkscape.org/namespaces/inkscape"
   class="ionicon"
   viewBox="0 0 512 512"
   version="1.1"
   id="svg10"
   sodipodi:docname="sync-circle-outline.svg"
   inkscape:version="1.0.2 (e86c8708, 2021-01-15)">
  <metadata
     id="metadata16">
    <rdf:RDF>
      <cc:Work
         rdf:about="">
        <dc:format>image/svg+xml</dc:format>
        <dc:type
           rdf:resource="http://purl.org/dc/dcmitype/StillImage" />
      </cc:Work>
    </rdf:RDF>
  </metadata>
  <defs
     id="defs14" />
  <sodipodi:namedview
     pagecolor="#ffffff"
     bordercolor="#666666"
     borderopacity="1"
     objecttolerance="10"
     gridtolerance="10"
     guidetolerance="10"
     inkscape:pageopacity="0"
     inkscape:pageshadow="2"
     inkscape:window-width="689"
     inkscape:window-height="480"
     id="namedview12"
     showgrid="false"
     inkscape:zoom="1.3027344"
     inkscape:cx="256"
     inkscape:cy="256"
     inkscape:window-x="44"
     inkscape:window-y="25"
     inkscape:window-maximized="0"
     inkscape:current-layer="svg10" />
  <title
     id="title2">Sync Circle</title>
  <path
     style="color:#000000;font-style:normal;font-variant:normal;font-weight:normal;font-stretch:normal;font-size:medium;line-height:normal;font-family:sans-serif;font-variant-ligatures:normal;font-variant-position:normal;font-variant-caps:normal;font-variant-numeric:normal;font-variant-alternates:normal;font-variant-east-asian:normal;font-feature-settings:normal;font-variation-settings:normal;text-indent:0;text-align:start;text-decoration:none;text-decoration-line:none;text-decoration-style:solid;text-decoration-color:#000000;letter-spacing:normal;word-spacing:normal;text-transform:none;writing-mode:lr-tb;direction:ltr;text-orientation:mixed;dominant-baseline:auto;baseline-shift:baseline;text-anchor:start;white-space:normal;shape-padding:0;shape-margin:0;inline-size:0;clip-rule:nonzero;display:inline;overflow:visible;visibility:visible;isolation:auto;mix-blend-mode:normal;color-interpolation:sRGB;color-interpolation-filters:linearRGB;solid-color:#000000;solid-opacity:1;vector-effect:none;fill:currentColor;fill-opacity:1;fill-rule:nonzero;stroke:none;stroke-linecap:butt;stroke-linejoin:miter;stroke-miterlimit:10;stroke-dasharray:none;stroke-dashoffset:0;stroke-opacity:1;color-rendering:auto;image-rendering:auto;shape-rendering:auto;text-rendering:auto;enable-background:accumulate;stop-color:#000000;stop-opacity:1;opacity:1"
     d="M 256 48 C 141.34591 48 48 141.34591 48 256 C 48 370.65409 141.34591 464 256 464 C 370.65409 464 464 370.65409 464 256 C 464 141.34591 370.65409 48 256 48 z M 256 80 C 353.34591 80 432 158.65409 432 256 C 432 353.34591 353.34591 432 256 432 C 158.65409 432 80 353.34591 80 256 C 80 158.65409 158.65409 80 256 80 z "
     id="path4" />
  <path
     style="color:#000000;font-style:normal;font-variant:normal;font-weight:normal;font-stretch:normal;font-size:medium;line-height:normal;font-family:sans-serif;font-variant-ligatures:normal;font-variant-position:normal;font-variant-caps:normal;font-variant-numeric:normal;font-variant-alternates:normal;font-variant-east-asian:normal;font-feature-settings:normal;font-variation-settings:normal;text-indent:0;text-align:start;text-decoration:none;text-decoration-line:none;text-decoration-style:solid;text-decoration-color:#000000;letter-spacing:normal;word-spacing:normal;text-transform:none;writing-mode:lr-tb;direction:ltr;text-orientation:mixed;dominant-baseline:auto;baseline-shift:baseline;text-anchor:start;white-space:normal;shape-padding:0;shape-margin:0;inline-size:0;clip-rule:nonzero;display:inline;overflow:visible;visibility:visible;isolation:auto;mix-blend-mode:normal;color-interpolation:sRGB;color-interpolation-filters:linearRGB;solid-color:#000000;solid-opacity:1;vector-effect:none;fill:currentColor;fill-opacity:1;fill-rule:nonzero;stroke:none;stroke-linecap:round;stroke-linejoin:round;stroke-miterlimit:4;stroke-dasharray:none;stroke-dashoffset:0;stroke-opacity:1;color-rendering:auto;image-rendering:auto;shape-rendering:auto;text-rendering:auto;enable-background:accumulate;stop-color:#000000;stop-opacity:1;opacity:1"
     d="M 253.99805 144.07031 C 223.32849 144.54782 193.45377 157.59469 172.17773 181.31836 A 16 16 0 0 0 173.4082 203.91211 A 16 16 0 0 0 196.00195 202.68164 C 218.17722 177.95528 253.1541 169.47351 284.19336 181.29297 C 315.23262 193.11243 335.70791 222.71054 335.82031 255.92383 L 335.82031 271.86914 A 16 16 0 0 0 351.82031 287.86914 A 16 16 0 0 0 367.82031 271.86914 L 367.82031 255.86914 A 16.0016 16.0016 0 0 0 367.82031 255.81641 C 367.66345 209.46521 338.89728 167.8815 295.58008 151.38672 C 282.04345 146.2321 267.93876 143.85326 253.99805 144.07031 z M 159.89062 224.16992 A 16 16 0 0 0 143.89062 240.16992 L 143.89062 256.16992 A 16.0016 16.0016 0 0 0 143.89062 256.22656 C 144.0528 302.62602 172.86436 344.24385 216.23633 360.73047 C 259.60829 377.21708 308.78979 365.24578 339.73242 330.66992 A 16 16 0 0 0 338.48047 308.07812 A 16 16 0 0 0 315.88672 309.33008 C 293.70898 334.11188 258.69177 342.63493 227.60547 330.81836 C 196.51917 319.00179 176.00686 289.3695 175.89062 256.11328 L 175.89062 240.16992 A 16 16 0 0 0 159.89062 224.16992 z "
     id="path6" />
  <path
     style="color:#000000;font-style:normal;font-variant:normal;font-weight:normal;font-stretch:normal;font-size:medium;line-height:normal;font-family:sans-serif;font-variant-ligatures:normal;font-variant-position:normal;font-variant-caps:normal;font-variant-numeric:normal;font-variant-alternates:normal;font-variant-east-asian:normal;font-feature-settings:normal;font-variation-settings:normal;text-indent:0;text-align:start;text-decoration:none;text-decoration-line:none;text-decoration-style:solid;text-decoration-color:#000000;letter-spacing:normal;word-spacing:normal;text-transform:none;writing-mode:lr-tb;direction:ltr;text-orientation:mixed;dominant-baseline:auto;baseline-shift:baseline;text-anchor:start;white-space:normal;shape-padding:0;shape-margin:0;inline-size:0;clip-rule:nonzero;display:inline;overflow:visible;visibility:visible;isolation:auto;mix-blend-mode:normal;color-interpolation:sRGB;color-interpolation-filters:linearRGB;solid-color:#000000;solid-opacity:1;vector-effect:none;fill:currentColor;fill-opacity:1;fill-rule:nonzero;stroke:none;stroke-linecap:round;stroke-linejoin:round;stroke-miterlimit:4;stroke-dasharray:none;stroke-dashoffset:0;stroke-opacity:1;color-rendering:auto;image-rendering:auto;shape-rendering:auto;text-rendering:auto;enable-background:accumulate;stop-color:#000000;stop-opacity:1;opacity:1"
     d="M 159.5625 216.40039 A 16.0016 16.0016 0 0 0 148.14453 221.08789 L 124.55469 244.68945 A 16 16 0 0 0 124.55859 267.31641 A 16 16 0 0 0 147.18555 267.31055 L 159.71094 254.78125 L 173.07031 267.5625 A 16 16 0 0 0 195.69141 267.06055 A 16 16 0 0 0 195.18945 244.4375 L 170.51953 220.83789 A 16.0016 16.0016 0 0 0 159.5625 216.40039 z M 327.97266 240 A 16 16 0 0 0 316.30859 244.93945 A 16 16 0 0 0 316.81055 267.5625 L 341.48047 291.16211 A 16.0016 16.0016 0 0 0 363.85547 290.91211 L 387.44531 267.31055 A 16 16 0 0 0 387.44141 244.68359 A 16 16 0 0 0 364.81445 244.68945 L 352.28906 257.21875 L 338.92969 244.4375 A 16 16 0 0 0 327.97266 240 z "
     id="path8" />
</svg>
