<?xml version="1.0" encoding="UTF-8" standalone="no"?>
<svg
   xmlns:dc="http://purl.org/dc/elements/1.1/"
   xmlns:cc="http://creativecommons.org/ns#"
   xmlns:rdf="http://www.w3.org/1999/02/22-rdf-syntax-ns#"
   xmlns:svg="http://www.w3.org/2000/svg"
   xmlns="http://www.w3.org/2000/svg"
   xmlns:sodipodi="http://sodipodi.sourceforge.net/DTD/sodipodi-0.dtd"
   xmlns:inkscape="http://www.inkscape.org/namespaces/inkscape"
   class="ionicon"
   viewBox="0 0 512 512"
   version="1.1"
   id="svg8"
   sodipodi:docname="sync-outline.svg"
   inkscape:version="1.0.2 (e86c8708, 2021-01-15)">
  <metadata
     id="metadata14">
    <rdf:RDF>
      <cc:Work
         rdf:about="">
        <dc:format>image/svg+xml</dc:format>
        <dc:type
           rdf:resource="http://purl.org/dc/dcmitype/StillImage" />
      </cc:Work>
    </rdf:RDF>
  </metadata>
  <defs
     id="defs12" />
  <sodipodi:namedview
     pagecolor="#ffffff"
     bordercolor="#666666"
     borderopacity="1"
     objecttolerance="10"
     gridtolerance="10"
     guidetolerance="10"
     inkscape:pageopacity="0"
     inkscape:pageshadow="2"
     inkscape:window-width="689"
     inkscape:window-height="480"
     id="namedview10"
     showgrid="false"
     inkscape:zoom="1.3027344"
     inkscape:cx="256"
     inkscape:cy="256"
     inkscape:window-x="44"
     inkscape:window-y="25"
     inkscape:window-maximized="0"
     inkscape:current-layer="svg8" />
  <title
     id="title2">Sync</title>
  <path
     style="color:#000000;font-style:normal;font-variant:normal;font-weight:normal;font-stretch:normal;font-size:medium;line-height:normal;font-family:sans-serif;font-variant-ligatures:normal;font-variant-position:normal;font-variant-caps:normal;font-variant-numeric:normal;font-variant-alternates:normal;font-variant-east-asian:normal;font-feature-settings:normal;font-variation-settings:normal;text-indent:0;text-align:start;text-decoration:none;text-decoration-line:none;text-decoration-style:solid;text-decoration-color:#000000;letter-spacing:normal;word-spacing:normal;text-transform:none;writing-mode:lr-tb;direction:ltr;text-orientation:mixed;dominant-baseline:auto;baseline-shift:baseline;text-anchor:start;white-space:normal;shape-padding:0;shape-margin:0;inline-size:0;clip-rule:nonzero;display:inline;overflow:visible;visibility:visible;isolation:auto;mix-blend-mode:normal;color-interpolation:sRGB;color-interpolation-filters:linearRGB;solid-color:#000000;solid-opacity:1;vector-effect:none;fill:currentColor;fill-opacity:1;fill-rule:nonzero;stroke:none;stroke-linecap:round;stroke-linejoin:round;stroke-miterlimit:4;stroke-dasharray:none;stroke-dashoffset:0;stroke-opacity:1;color-rendering:auto;image-rendering:auto;shape-rendering:auto;text-rendering:auto;enable-background:accumulate;stop-color:#000000;stop-opacity:1;opacity:1"
     d="M 255.4707 61 C 196.07973 60.932884 139.86407 87.955859 102.82227 134.38086 A 16 16 0 0 0 105.35156 156.86719 A 16 16 0 0 0 127.83594 154.33984 C 158.81624 115.51181 205.77833 92.938884 255.45117 93 A 16.0016 16.0016 0 0 0 255.4707 93 C 345.80122 93 418.66992 165.72809 418.66992 255.78906 L 418.66992 285.58984 A 16 16 0 0 0 434.66992 301.58984 A 16 16 0 0 0 450.66992 285.58984 L 450.66992 255.78906 C 450.66992 148.39657 363.07074 61.010633 255.49023 61 L 255.4707 61 z M 76.800781 210.35938 A 16 16 0 0 0 60.800781 226.35938 L 60.800781 256.16016 C 60.800781 363.65522 148.38047 451 256 451 A 16.0016 16.0016 0 0 0 256.02344 451 C 315.1971 450.91437 371.20845 424.14135 408.4375 378.14648 A 16 16 0 0 0 406.06641 355.64258 A 16 16 0 0 0 383.5625 358.01367 C 352.38952 396.52652 305.54699 418.92124 256 419 C 255.99737 419 255.99482 419 255.99219 419 C 165.61537 418.99577 92.800781 346.34246 92.800781 256.16016 L 92.800781 226.35938 A 16 16 0 0 0 76.800781 210.35938 z "
     id="path4" />
  <path
     style="color:#000000;font-style:normal;font-variant:normal;font-weight:normal;font-stretch:normal;font-size:medium;line-height:normal;font-family:sans-serif;font-variant-ligatures:normal;font-variant-position:normal;font-variant-caps:normal;font-variant-numeric:normal;font-variant-alternates:normal;font-variant-east-asian:normal;font-feature-settings:normal;font-variation-settings:normal;text-indent:0;text-align:start;text-decoration:none;text-decoration-line:none;text-decoration-style:solid;text-decoration-color:#000000;letter-spacing:normal;word-spacing:normal;text-transform:none;writing-mode:lr-tb;direction:ltr;text-orientation:mixed;dominant-baseline:auto;baseline-shift:baseline;text-anchor:start;white-space:normal;shape-padding:0;shape-margin:0;inline-size:0;clip-rule:nonzero;display:inline;overflow:visible;visibility:visible;isolation:auto;mix-blend-mode:normal;color-interpolation:sRGB;color-interpolation-filters:linearRGB;solid-color:#000000;solid-opacity:1;vector-effect:none;fill:currentColor;fill-opacity:1;fill-rule:nonzero;stroke:none;stroke-linecap:round;stroke-linejoin:round;stroke-miterlimit:4;stroke-dasharray:none;stroke-dashoffset:0;stroke-opacity:1;color-rendering:auto;image-rendering:auto;shape-rendering:auto;text-rendering:auto;enable-background:accumulate;stop-color:#000000;stop-opacity:1;opacity:1"
     d="M 76.101562 196 A 16.0016 16.0016 0 0 0 64.685547 200.68555 L 20.685547 244.68555 A 16 16 0 0 0 20.685547 267.31445 A 16 16 0 0 0 43.314453 267.31445 L 76.248047 234.37891 L 110.94141 267.5625 A 16 16 0 0 0 133.5625 267.05859 A 16 16 0 0 0 133.05859 244.4375 L 87.058594 200.4375 A 16.0016 16.0016 0 0 0 76.101562 196 z M 390.10156 240 A 16 16 0 0 0 378.4375 244.94141 A 16 16 0 0 0 378.94141 267.5625 L 424.94141 311.5625 A 16.0016 16.0016 0 0 0 447.31445 311.31445 L 491.31445 267.31445 A 16 16 0 0 0 491.31445 244.68555 A 16 16 0 0 0 468.68555 244.68555 L 435.75195 277.62109 L 401.05859 244.4375 A 16 16 0 0 0 390.10156 240 z "
     id="path6" />
</svg>
