<?xml version="1.0" encoding="utf-8"?>
<!-- Generator: Adobe Illustrator 24.0.0, SVG Export Plug-In . SVG Version: 6.00 Build 0)  -->
<svg version="1.1" id="Layer_1" xmlns="http://www.w3.org/2000/svg" xmlns:xlink="http://www.w3.org/1999/xlink" x="0px" y="0px"
	 viewBox="0 0 512 512" style="enable-background:new 0 0 512 512;" xml:space="preserve">
<title>ionicons-v5-b</title>
<g>
	<path d="M256,451c-52.2,0-101.2-20.3-138-57c-36.9-36.8-57.2-85.7-57.2-137.8v-45.8h32v45.8c0,43.5,17,84.4,47.8,115.2
		C171.4,402.1,212.4,419,256,419c49.7-0.1,96.3-22.3,127.6-61l10.1-12.4l24.9,20.1l-10.1,12.4C371,424.4,315.5,450.9,256,451z
		 M450.7,301.6h-32v-45.8C418.7,166,345.5,93,255.5,93c-0.1,0-0.1,0-0.2,0c-49.9,0-96.3,22.3-127.4,61.3l-10,12.5l-25-20l10-12.5
		c18.2-22.8,41.7-41.5,67.9-54.1C197,67.6,226.3,60.9,255.5,61c107.6,0,195.2,87.4,195.2,194.8V301.6z"/>
</g>
<g>
	<polygon points="32,278.6 9.4,256 75.8,189.6 144.6,255.5 122.5,278.6 76.2,234.4 	"/>
</g>
<g>
	<polygon points="436.2,322.4 367.4,256.5 389.5,233.4 435.8,277.6 480,233.4 502.6,256 	"/>
</g>
</svg>
