<?xml version="1.0" encoding="utf-8"?>
<!-- Generator: Adobe Illustrator 24.0.0, SVG Export Plug-In . SVG Version: 6.00 Build 0)  -->
<svg version="1.1" id="Layer_1" xmlns="http://www.w3.org/2000/svg" xmlns:xlink="http://www.w3.org/1999/xlink" x="0px" y="0px"
	 viewBox="0 0 512 512" style="enable-background:new 0 0 512 512;" xml:space="preserve">
<title>ionicons-v5-b</title>
<g>
	<path d="M256,451c-52.2,0-101.2-20.3-138-57c-36.9-36.8-57.2-85.7-57.2-137.8v-29.8c0-8.8,7.2-16,16-16s16,7.2,16,16v29.8
		c0,43.5,17,84.4,47.8,115.2C171.4,402.1,212.4,419,256,419c49.7-0.1,96.3-22.3,127.6-61c5.6-6.9,15.6-7.9,22.5-2.4
		c6.9,5.6,7.9,15.6,2.4,22.5C371,424.4,315.5,450.9,256,451z M434.7,301.6c-8.8,0-16-7.2-16-16v-29.8C418.7,166,345.5,93,255.5,93
		c-0.1,0-0.1,0-0.2,0c-49.9,0-96.3,22.3-127.4,61.3c-5.5,6.9-15.6,8-22.5,2.5c-6.9-5.5-8-15.6-2.5-22.5
		c18.2-22.8,41.7-41.5,67.9-54.1C197,67.6,226.3,60.9,255.5,61c107.6,0,195.2,87.4,195.2,194.8v29.8
		C450.7,294.4,443.5,301.6,434.7,301.6z"/>
</g>
<g>
	<path d="M122,272c-4,0-8-1.5-11.1-4.4l-34.7-33.2l-32.9,32.9c-6.2,6.2-16.4,6.2-22.6,0c-6.2-6.2-6.2-16.4,0-22.6l44-44
		c6.1-6.2,16.1-6.3,22.4-0.2l46,44c6.4,6.1,6.6,16.2,0.5,22.6C130.4,270.3,126.2,272,122,272z"/>
</g>
<g>
	<path d="M436,316c-4,0-8-1.5-11.1-4.4l-46-44c-6.4-6.1-6.6-16.2-0.5-22.6c6.1-6.4,16.2-6.6,22.6-0.5l34.7,33.2l32.9-32.9
		c6.2-6.2,16.4-6.2,22.6,0c6.2,6.2,6.2,16.4,0,22.6l-44,44C444.2,314.4,440.1,316,436,316z"/>
</g>
</svg>
