<?xml version="1.0" encoding="utf-8"?>
<!-- Generator: Adobe Illustrator 24.0.0, SVG Export Plug-In . SVG Version: 6.00 Build 0)  -->
<svg version="1.1" id="Layer_1" xmlns="http://www.w3.org/2000/svg" xmlns:xlink="http://www.w3.org/1999/xlink" x="0px" y="0px"
	 viewBox="0 0 512 512" style="enable-background:new 0 0 512 512;" xml:space="preserve">
<title>ionicons-v5-k</title>
<g>
	<path d="M448,448H64c-35.3,0-64-28.7-64-64V128c0-35.3,28.7-64,64-64h384c35.3,0,64,28.7,64,64v256C512,419.3,483.3,448,448,448z
		 M64,96c-17.6,0-32,14.4-32,32v256c0,17.6,14.4,32,32,32h384c17.6,0,32-14.4,32-32V128c0-17.6-14.4-32-32-32H64z"/>
</g>
</svg>
