<?xml version="1.0" encoding="UTF-8"?>
<svg width="512px" height="512px" viewBox="0 0 512 512" version="1.1" xmlns="http://www.w3.org/2000/svg" xmlns:xlink="http://www.w3.org/1999/xlink">
    <!-- Generator: Sketch 62 (91390) - https://sketch.com -->
    <title>Artboard</title>
    <desc>Created with Sketch.</desc>
    <g id="Artboard" stroke="none" stroke-width="1" fill="none" fill-rule="evenodd">
        <g id="tablet-portrait" transform="translate(64.000000, 0.000000)" fill="#000000" fill-rule="nonzero">
            <path d="M320,0 C355.330232,0.0385791814 383.961421,28.6697684 384,64 L384,448 C383.961421,483.330232 355.330232,511.961421 320,512 L64,512 C28.6697684,511.961421 0.0385791814,483.330232 -2.84217094e-14,448 L-2.84217094e-14,64 C0.0385791814,28.6697684 28.6697684,0.0385791814 64,0 L320,0 M64,480 L320,480 C337.673112,480 352,465.673112 352,448 L352,64 C352,46.326888 337.673112,32 320,32 L64,32 C46.326888,32 32,46.326888 32,64 L32,448 C32,465.673112 46.326888,480 64,480 M64,464 C55.163444,464 48,456.836556 48,448 L48,64 C48,55.163444 55.163444,48 64,48 L320,48 C328.836556,48 336,55.163444 336,64 L336,448 C336,456.836556 328.836556,464 320,464 L64,464 Z" id="Shape"></path>
        </g>
    </g>
</svg>