<?xml version="1.0" encoding="UTF-8"?>
<svg width="512px" height="512px" viewBox="0 0 512 512" version="1.1" xmlns="http://www.w3.org/2000/svg" xmlns:xlink="http://www.w3.org/1999/xlink">
    <!-- Generator: Sketch 62 (91390) - https://sketch.com -->
    <title>Artboard</title>
    <desc>Created with Sketch.</desc>
    <g id="Artboard" stroke="none" stroke-width="1" fill="none" fill-rule="evenodd">
        <g id="tablet-landscape" transform="translate(0.000000, 64.000000)" fill="#000000" fill-rule="nonzero">
            <path d="M0,64 C0.0385791814,28.6697684 28.6697684,0.0385791814 64,-2.84217094e-14 L448,-2.84217094e-14 C483.330232,0.0385791814 511.961421,28.6697684 512,64 L512,320 C511.961421,355.330232 483.330232,383.961421 448,384 L64,384 C28.6697684,383.961421 0.0385791814,355.330232 0,320 L0,64 M480,320 L480,64 C480,46.326888 465.673112,32 448,32 L64,32 C46.326888,32 32,46.326888 32,64 L32,320 C32,337.673112 46.326888,352 64,352 L448,352 C465.673112,352 480,337.673112 480,320 M464,320 C464,328.836556 456.836556,336 448,336 L64,336 C55.163444,336 48,328.836556 48,320 L48,64 C48,55.163444 55.163444,48 64,48 L448,48 C456.836556,48 464,55.163444 464,64 L464,320 Z" id="Shape"></path>
        </g>
    </g>
</svg>