<?xml version="1.0" encoding="UTF-8" standalone="no"?>
<svg
   xmlns:dc="http://purl.org/dc/elements/1.1/"
   xmlns:cc="http://creativecommons.org/ns#"
   xmlns:rdf="http://www.w3.org/1999/02/22-rdf-syntax-ns#"
   xmlns:svg="http://www.w3.org/2000/svg"
   xmlns="http://www.w3.org/2000/svg"
   xmlns:sodipodi="http://sodipodi.sourceforge.net/DTD/sodipodi-0.dtd"
   xmlns:inkscape="http://www.inkscape.org/namespaces/inkscape"
   class="ionicon"
   viewBox="0 0 512 512"
   version="1.1"
   id="svg8"
   sodipodi:docname="telescope-outline.svg"
   inkscape:version="1.0.2 (e86c8708, 2021-01-15)">
  <metadata
     id="metadata14">
    <rdf:RDF>
      <cc:Work
         rdf:about="">
        <dc:format>image/svg+xml</dc:format>
        <dc:type
           rdf:resource="http://purl.org/dc/dcmitype/StillImage" />
      </cc:Work>
    </rdf:RDF>
  </metadata>
  <defs
     id="defs12" />
  <sodipodi:namedview
     pagecolor="#ffffff"
     bordercolor="#666666"
     borderopacity="1"
     objecttolerance="10"
     gridtolerance="10"
     guidetolerance="10"
     inkscape:pageopacity="0"
     inkscape:pageshadow="2"
     inkscape:window-width="689"
     inkscape:window-height="480"
     id="namedview10"
     showgrid="false"
     inkscape:zoom="1.3027344"
     inkscape:cx="256"
     inkscape:cy="256"
     inkscape:window-x="44"
     inkscape:window-y="25"
     inkscape:window-maximized="0"
     inkscape:current-layer="svg8" />
  <title
     id="title2">Telescope</title>
  <path
     style="color:#000000;font-style:normal;font-variant:normal;font-weight:normal;font-stretch:normal;font-size:medium;line-height:normal;font-family:sans-serif;font-variant-ligatures:normal;font-variant-position:normal;font-variant-caps:normal;font-variant-numeric:normal;font-variant-alternates:normal;font-variant-east-asian:normal;font-feature-settings:normal;font-variation-settings:normal;text-indent:0;text-align:start;text-decoration:none;text-decoration-line:none;text-decoration-style:solid;text-decoration-color:#000000;letter-spacing:normal;word-spacing:normal;text-transform:none;writing-mode:lr-tb;direction:ltr;text-orientation:mixed;dominant-baseline:auto;baseline-shift:baseline;text-anchor:start;white-space:normal;shape-padding:0;shape-margin:0;inline-size:0;clip-rule:nonzero;display:inline;overflow:visible;visibility:visible;isolation:auto;mix-blend-mode:normal;color-interpolation:sRGB;color-interpolation-filters:linearRGB;solid-color:#000000;solid-opacity:1;vector-effect:none;fill:currentColor;fill-opacity:1;fill-rule:nonzero;stroke:none;stroke-linecap:round;stroke-linejoin:round;stroke-miterlimit:4;stroke-dasharray:none;stroke-dashoffset:0;stroke-opacity:1;color-rendering:auto;image-rendering:auto;shape-rendering:auto;text-rendering:auto;enable-background:accumulate;stop-color:#000000;stop-opacity:1;opacity:1"
     d="M 141.05469 218.57227 C 134.88048 218.12304 128.53394 219.43245 122.85156 222.72461 C 122.84975 222.72566 122.84751 222.72551 122.8457 222.72656 L 36.009766 272.77734 A 16.0016 16.0016 0 0 0 36 272.7832 C 17.029932 283.73694 10.407008 308.46612 21.365234 327.43359 A 16.0016 16.0016 0 0 0 21.375 327.45117 L 26.085938 335.58008 C 37.062338 354.52931 61.770327 361.14595 80.746094 350.21484 A 16.0016 16.0016 0 0 0 80.751953 350.21094 L 167.60156 300.14062 A 16.0016 16.0016 0 0 0 167.60938 300.13672 C 182.74578 291.3976 188.06216 271.57601 179.33008 256.43555 A 16.0016 16.0016 0 0 0 179.32422 256.42578 L 166.62695 234.44727 L 166.62109 234.43945 C 161.15732 224.95555 151.34519 219.32098 141.05469 218.57227 z M 138.89453 250.41211 A 16.0016 16.0016 0 0 0 138.90625 250.43359 L 151.60938 272.42383 L 64.773438 322.48633 C 64.772871 322.48665 64.77205 322.486 64.771484 322.48633 L 64.769531 322.48828 C 60.756553 324.79738 56.096176 323.54818 53.775391 319.54102 A 16.0016 16.0016 0 0 0 53.775391 319.53906 L 49.074219 311.42578 C 46.768724 307.43522 48.008898 302.80064 52 300.49609 L 138.85938 250.43164 A 16.0016 16.0016 0 0 0 138.89453 250.41211 z "
     id="path4" />
  <path
     style="color:#000000;font-style:normal;font-variant:normal;font-weight:normal;font-stretch:normal;font-size:medium;line-height:normal;font-family:sans-serif;font-variant-ligatures:normal;font-variant-position:normal;font-variant-caps:normal;font-variant-numeric:normal;font-variant-alternates:normal;font-variant-east-asian:normal;font-feature-settings:normal;font-variation-settings:normal;text-indent:0;text-align:start;text-decoration:none;text-decoration-line:none;text-decoration-style:solid;text-decoration-color:#000000;letter-spacing:normal;word-spacing:normal;text-transform:none;writing-mode:lr-tb;direction:ltr;text-orientation:mixed;dominant-baseline:auto;baseline-shift:baseline;text-anchor:start;white-space:normal;shape-padding:0;shape-margin:0;inline-size:0;clip-rule:nonzero;display:inline;overflow:visible;visibility:visible;isolation:auto;mix-blend-mode:normal;color-interpolation:sRGB;color-interpolation-filters:linearRGB;solid-color:#000000;solid-opacity:1;vector-effect:none;fill:currentColor;fill-opacity:1;fill-rule:nonzero;stroke:none;stroke-linecap:round;stroke-linejoin:round;stroke-miterlimit:4;stroke-dasharray:none;stroke-dashoffset:0;stroke-opacity:1;color-rendering:auto;image-rendering:auto;shape-rendering:auto;text-rendering:auto;enable-background:accumulate;stop-color:#000000;stop-opacity:1;opacity:1"
     d="M 412.18164 16.181641 C 404.47943 15.623061 396.55676 17.257124 389.44141 21.357422 A 16.0016 16.0016 0 0 0 389.43945 21.357422 L 296.14844 75.138672 A 16.0016 16.0016 0 0 0 296.14648 75.140625 C 282.52499 82.996656 275.40687 97.955182 276.44336 112.78906 C 275.06798 113.34092 273.68188 113.8598 272.36719 114.62109 L 147.92969 186.35938 A 16.0016 16.0016 0 0 0 147.92578 186.35938 C 128.95353 197.30139 122.31827 222.02159 133.25977 240.99414 A 16.0016 16.0016 0 0 0 133.27148 241.01367 L 156.81641 281.70898 C 164.32037 294.72969 178.31583 301.75371 192.48633 301.46875 L 113.06641 473.28711 A 16 16 0 0 0 120.87695 494.52344 A 16 16 0 0 0 142.11328 486.71289 L 236.85352 281.75195 L 260.09961 268.35547 L 354.26172 455.20117 A 16 16 0 0 0 375.75 462.28906 A 16 16 0 0 0 382.83789 440.79883 L 287.86914 252.35352 L 335.98828 224.62305 A 16.0016 16.0016 0 0 0 336.01953 224.60547 C 337.12831 223.96325 338.0689 223.14757 339.07031 222.39258 C 351.50486 231.3925 368.6483 232.95204 382.68164 224.86133 L 475.9707 171.08203 C 494.95265 160.13969 501.58934 135.40765 490.63672 116.43164 A 16.0016 16.0016 0 0 0 490.63086 116.41992 L 444.12109 35.990234 A 16.0016 16.0016 0 0 0 444.11133 35.972656 C 437.24502 24.132508 425.01866 17.112607 412.18164 16.181641 z M 408.50586 48.001953 C 411.62229 47.56436 414.68532 49.019392 416.42969 52.027344 L 462.92188 132.42773 C 465.22628 136.42023 463.98203 141.05519 459.98828 143.35742 L 366.69922 197.13867 C 362.68434 199.45339 358.01905 198.20416 355.69727 194.19336 L 309.20117 113.78711 L 309.20117 113.78516 C 306.90109 109.79489 308.142 105.16351 312.13086 102.86133 L 312.13281 102.85938 L 405.42188 49.082031 L 405.41797 49.082031 C 406.42221 48.503327 407.46705 48.147818 408.50586 48.001953 z M 288.4043 142.3125 A 16.0016 16.0016 0 0 0 288.41992 142.33984 L 319.98047 196.91406 L 195.52148 268.63672 A 16.0016 16.0016 0 0 0 195.48633 268.6582 C 191.49177 270.97371 186.84842 269.73083 184.54297 265.73047 A 16.0016 16.0016 0 0 0 184.5293 265.70703 L 160.98047 225.00586 C 158.67932 221.01566 159.92181 216.38481 163.91016 214.08203 L 163.91406 214.08008 L 288.37109 142.33203 A 16.0016 16.0016 0 0 0 288.4043 142.3125 z "
     id="path6" />
</svg>
