<?xml version="1.0" encoding="UTF-8" standalone="no"?>
<svg
   xmlns:dc="http://purl.org/dc/elements/1.1/"
   xmlns:cc="http://creativecommons.org/ns#"
   xmlns:rdf="http://www.w3.org/1999/02/22-rdf-syntax-ns#"
   xmlns:svg="http://www.w3.org/2000/svg"
   xmlns="http://www.w3.org/2000/svg"
   xmlns:sodipodi="http://sodipodi.sourceforge.net/DTD/sodipodi-0.dtd"
   xmlns:inkscape="http://www.inkscape.org/namespaces/inkscape"
   class="ionicon"
   viewBox="0 0 512 512"
   version="1.1"
   id="svg8"
   sodipodi:docname="telescope.svg"
   inkscape:version="1.0.2 (e86c8708, 2021-01-15)">
  <metadata
     id="metadata14">
    <rdf:RDF>
      <cc:Work
         rdf:about="">
        <dc:format>image/svg+xml</dc:format>
        <dc:type
           rdf:resource="http://purl.org/dc/dcmitype/StillImage" />
      </cc:Work>
    </rdf:RDF>
  </metadata>
  <defs
     id="defs12" />
  <sodipodi:namedview
     pagecolor="#ffffff"
     bordercolor="#666666"
     borderopacity="1"
     objecttolerance="10"
     gridtolerance="10"
     guidetolerance="10"
     inkscape:pageopacity="0"
     inkscape:pageshadow="2"
     inkscape:window-width="689"
     inkscape:window-height="480"
     id="namedview10"
     showgrid="false"
     inkscape:zoom="1.3027344"
     inkscape:cx="256"
     inkscape:cy="256"
     inkscape:window-x="44"
     inkscape:window-y="25"
     inkscape:window-maximized="0"
     inkscape:current-layer="svg8" />
  <title
     id="title2">Telescope</title>
  <path
     style="color:#000000;font-style:normal;font-variant:normal;font-weight:normal;font-stretch:normal;font-size:medium;line-height:normal;font-family:sans-serif;font-variant-ligatures:normal;font-variant-position:normal;font-variant-caps:normal;font-variant-numeric:normal;font-variant-alternates:normal;font-variant-east-asian:normal;font-feature-settings:normal;font-variation-settings:normal;text-indent:0;text-align:start;text-decoration:none;text-decoration-line:none;text-decoration-style:solid;text-decoration-color:#000000;letter-spacing:normal;word-spacing:normal;text-transform:none;writing-mode:lr-tb;direction:ltr;text-orientation:mixed;dominant-baseline:auto;baseline-shift:baseline;text-anchor:start;white-space:normal;shape-padding:0;shape-margin:0;inline-size:0;clip-rule:nonzero;display:inline;overflow:visible;visibility:visible;isolation:auto;mix-blend-mode:normal;color-interpolation:sRGB;color-interpolation-filters:linearRGB;solid-color:#000000;solid-opacity:1;vector-effect:none;fill:#000000;fill-opacity:1;fill-rule:nonzero;stroke-width:1;stroke-linecap:butt;stroke-linejoin:miter;stroke-miterlimit:4;stroke-dasharray:none;stroke-dashoffset:0;stroke-opacity:1;color-rendering:auto;image-rendering:auto;shape-rendering:auto;text-rendering:auto;enable-background:accumulate;stop-color:#000000;stop-opacity:1;stroke:none;opacity:1"
     d="m 107.56,250 c -4.41687,-7.65014 -14.197805,-10.27331 -21.85,-5.86 L 36,272.81 c -9.403588,5.38969 -16.195472,14.38894 -18.8,24.91 -2.480204,10.32376 -0.848553,21.20741 4.55,30.35 l 4.36,7.54 c 11.052309,19.11147 35.498482,25.65492 54.62,14.62 L 130.4,321.6 c 7.65977,-4.41371 10.28845,-14.20296 5.87,-21.86 z"
     id="path4" />
  <path
     style="color:#000000;font-style:normal;font-variant:normal;font-weight:normal;font-stretch:normal;font-size:medium;line-height:normal;font-family:sans-serif;font-variant-ligatures:normal;font-variant-position:normal;font-variant-caps:normal;font-variant-numeric:normal;font-variant-alternates:normal;font-variant-east-asian:normal;font-feature-settings:normal;font-variation-settings:normal;text-indent:0;text-align:start;text-decoration:none;text-decoration-line:none;text-decoration-style:solid;text-decoration-color:#000000;letter-spacing:normal;word-spacing:normal;text-transform:none;writing-mode:lr-tb;direction:ltr;text-orientation:mixed;dominant-baseline:auto;baseline-shift:baseline;text-anchor:start;white-space:normal;shape-padding:0;shape-margin:0;inline-size:0;clip-rule:nonzero;display:inline;overflow:visible;visibility:visible;isolation:auto;mix-blend-mode:normal;color-interpolation:sRGB;color-interpolation-filters:linearRGB;solid-color:#000000;solid-opacity:1;vector-effect:none;fill:#000000;fill-opacity:1;fill-rule:nonzero;stroke-width:1;stroke-linecap:butt;stroke-linejoin:miter;stroke-miterlimit:4;stroke-dasharray:none;stroke-dashoffset:0;stroke-opacity:1;color-rendering:auto;image-rendering:auto;shape-rendering:auto;text-rendering:auto;enable-background:accumulate;stop-color:#000000;stop-opacity:1;stroke:none;opacity:1"
     d="M 382.84,440.8 288.72,254 c -0.47522,-0.9475 -0.12867,-2.1012 0.79,-2.63 l 8.3,-4.79 c 7.65614,-4.41714 10.28012,-14.20558 5.86,-21.86 l -47.53,-82.33 c -4.41371,-7.65977 -14.20296,-10.28845 -21.86,-5.87 l -86.38,49.8 c -9.21063,5.27688 -15.92655,14.02018 -18.65,24.28 -0.91711,3.17192 -1.37839,6.45817 -1.37,9.76 0.06,7.6 9.2,22.7 18.12,38.28 9.59,16.75 19.24,33.88 26.34,38.15 4.52,2.72 12.5,4.9 19.21,4.9 h 0.84 l -79.32,171.6 c -3.71687,8.02398 -0.21978,17.54151 7.80804,21.25006 8.02782,3.70854 17.54173,0.2016 21.24196,-7.83006 L 235.8,284.06 c 0.68916,-1.49994 1.82866,-2.7478 3.26,-3.57 l 19.21,-11.08 c 0.99608,-0.56913 2.26575,-0.18549 2.78,0.84 l 93.21,185 c 3.97645,7.89215 13.59785,11.06644 21.49,7.08999 7.89215,-3.97645 11.06645,-13.59784 7.09,-21.48999 z M 490.21,115.74 444.09,36 C 433.00847,16.920323 408.58995,10.385474 389.46,21.38 l -93.34,53.78 c -9.21362,5.273446 -15.93064,14.018171 -18.65,24.28 -1.3256,4.28322 -1.75785,8.79296 -1.27,13.25 1.74,12.62 13,30.4 26.41,53.89 13.58,23.73 28.91,50.48 36.93,56.27 6.77965,4.79255 14.87746,7.36722 23.18,7.37 6.99404,0.003 13.86507,-1.83938 19.92,-5.34 L 476,171.07 c 9.38388,-5.37661 16.16961,-14.34721 18.79,-24.84 2.49845,-10.37213 0.85549,-21.30966 -4.58,-30.49 z"
     id="path6" />
</svg>
