<?xml version="1.0" encoding="UTF-8"?>
<svg width="512px" height="512px" viewBox="0 0 512 512" version="1.1" xmlns="http://www.w3.org/2000/svg" xmlns:xlink="http://www.w3.org/1999/xlink">
    <!-- Generator: Sketch 62 (91390) - https://sketch.com -->
    <title>Artboard</title>
    <desc>Created with Sketch.</desc>
    <g id="Artboard" stroke="none" stroke-width="1" fill="none" fill-rule="evenodd">
        <g id="tennisball-outline" transform="translate(32.000000, 32.000000)" fill="#000000" fill-rule="nonzero">
            <path d="M224,0 C283.8,0 340.1,23.3 382.4,65.6 C424.7,107.9 448,164.2 448,224 C448,283.8 424.7,340.1 382.4,382.4 C340.1,424.7 283.8,448 224,448 C164.2,448 107.9,424.7 65.6,382.4 C23.3,340.1 0,283.8 0,224 C0,164.2 23.3,107.9 65.6,65.6 C107.9,23.3 164.2,0 224,0 Z M32.1,224 L32,224 L32,224 C32,329.9 118.1,416 224,416 L224.1,415.999 L224.074236,412.829006 C222.37602,308.38661 136.941,224 32.1,224 Z M192.015463,34.6671046 L189.859985,35.0371847 C110.564812,49.3152365 48.0550291,112.417939 34.6620773,192.013852 C93.5097415,192.671284 148.805804,215.905804 190.5,257.6 C232.072066,299.270578 255.302409,354.527617 255.984538,413.332895 C336.301177,399.82441 399.82441,336.301177 413.338091,255.985147 C354.527617,255.302387 299.270578,232.070578 257.6,190.4 C215.929422,148.729422 192.697613,93.4723832 192.015463,34.6671046 Z M224,32 L223.999,32 L224.025764,35.1709937 C225.72398,139.61339 311.159,224 416,224 C416,118.1 329.9,32 224,32 Z" id="Combined-Shape"></path>
        </g>
    </g>
</svg>