<?xml version="1.0" encoding="utf-8"?>
<!-- Generator: Adobe Illustrator 24.0.0, SVG Export Plug-In . SVG Version: 6.00 Build 0)  -->
<svg version="1.1" id="Layer_1" xmlns="http://www.w3.org/2000/svg" xmlns:xlink="http://www.w3.org/1999/xlink" x="0px" y="0px"
	 viewBox="0 0 512 512" style="enable-background:new 0 0 512 512;" xml:space="preserve">
<title>ionicons-v5-l</title>
<g>
	<path d="M432,480H80c-35.3,0-64-28.7-64-64V96c0-35.3,28.7-64,64-64h352c35.3,0,64,28.7,64,64v320C496,451.3,467.3,480,432,480z
		 M80,64c-17.6,0-32,14.4-32,32v320c0,17.6,14.4,32,32,32h352c17.6,0,32-14.4,32-32V96c0-17.6-14.4-32-32-32H80z"/>
</g>
<g>
	<path d="M96,256c-4.7,0-9.3-2.1-12.5-6c-5.5-6.9-4.4-17,2.5-22.5l64.4-51.5L86,124.5c-6.9-5.5-8-15.6-2.5-22.5
		c5.5-6.9,15.6-8,22.5-2.5l80,64c3.8,3,6,7.6,6,12.5s-2.2,9.5-6,12.5l-80,64C103,254.9,99.5,256,96,256z"/>
</g>
<g>
	<path d="M256,256h-64c-8.8,0-16-7.2-16-16s7.2-16,16-16h64c8.8,0,16,7.2,16,16S264.8,256,256,256z"/>
</g>
</svg>
