<?xml version="1.0" encoding="UTF-8"?>
<svg width="512px" height="512px" viewBox="0 0 512 512" version="1.1" xmlns="http://www.w3.org/2000/svg" xmlns:xlink="http://www.w3.org/1999/xlink">
    <!-- Generator: Sketch 62 (91390) - https://sketch.com -->
    <title>Artboard</title>
    <desc>Created with Sketch.</desc>
    <g id="Artboard" stroke="none" stroke-width="1" fill="none" fill-rule="evenodd">
        <g id="text-outline" transform="translate(15.000000, 79.000000)" fill="#000000" fill-rule="nonzero">
            <path d="M384.9,96.6 C411.6,96.6 435.9,106 453.4,123.2 C471.2,140.6 480.901029,165.3 480.901029,192.6 L480.901326,213.986019 C481.032064,214.805494 481.1,215.645199 481.1,216.5 L481.1,231.5 C481.1,234.600924 481.034118,237.647691 480.90252,240.639925 L480.901029,336.6 C481,345.3 473.8,352.5 465,352.5 C456.2,352.5 449,345.3 449,336.5 L449.000959,323.234895 C448.054654,324.175761 447.087657,325.097486 446.1,326 C426.2,344 398.2,353.5 365,353.5 C321,353.5 289,322.4 289,279.5 C289,256.6 298.8,237.5 317.5,224.3 C334.8,212.1 356.2,207.4 371.2,205.6 C396.786397,202.561615 425.889054,201.121531 448.999945,200.666325 L449,192.5 C449,154.2 423.3,128.5 385,128.5 C358.9,128.5 335.6,143.5 325.7,166.8 C322.2,174.9 312.8,178.7 304.7,175.3 C296.6,171.8 292.8,162.5 296.2,154.3 C311.1,119.2 345.9,96.6 384.9,96.6 Z M137,0.5 C143.7,0.5 149.6,4.6 152,10.9 L272,330.9 C275.1,339.2 270.9,348.4 262.6,351.5 C260.8,352.2 258.9,352.5 257,352.5 C250.5,352.5 244.4,348.5 242,342.1 L203.899677,240.5 L70.0996772,240.5 L32,342.1 C28.9,350.4 19.7,354.6 11.4,351.5 C3.1,348.4 -1.1,339.2 2,330.9 L122,10.9 C124.3,4.7 130.3,0.5 137,0.5 Z M449,232.7 C426.9,233.2 399.2,234.6 374.9,237.4 C358.8,239.3 345.3,243.8 336,250.4 C325.8,257.6 321,266.9 321,279.5 C321,308.5 343.1,321.5 365,321.5 C420.4,321.5 448.6,291.6 449,232.7 Z M137,62.1 L82.0996772,208.5 L191.899677,208.5 L137,62.1 Z" id="Combined-Shape"></path>
        </g>
    </g>
</svg>