<?xml version="1.0" encoding="UTF-8" standalone="no"?>
<svg
   xmlns:dc="http://purl.org/dc/elements/1.1/"
   xmlns:cc="http://creativecommons.org/ns#"
   xmlns:rdf="http://www.w3.org/1999/02/22-rdf-syntax-ns#"
   xmlns:svg="http://www.w3.org/2000/svg"
   xmlns="http://www.w3.org/2000/svg"
   xmlns:sodipodi="http://sodipodi.sourceforge.net/DTD/sodipodi-0.dtd"
   xmlns:inkscape="http://www.inkscape.org/namespaces/inkscape"
   class="ionicon"
   viewBox="0 0 512 512"
   version="1.1"
   id="svg8"
   sodipodi:docname="text-outline.svg"
   inkscape:version="1.0.2 (e86c8708, 2021-01-15)">
  <metadata
     id="metadata14">
    <rdf:RDF>
      <cc:Work
         rdf:about="">
        <dc:format>image/svg+xml</dc:format>
        <dc:type
           rdf:resource="http://purl.org/dc/dcmitype/StillImage" />
      </cc:Work>
    </rdf:RDF>
  </metadata>
  <defs
     id="defs12" />
  <sodipodi:namedview
     pagecolor="#ffffff"
     bordercolor="#666666"
     borderopacity="1"
     objecttolerance="10"
     gridtolerance="10"
     guidetolerance="10"
     inkscape:pageopacity="0"
     inkscape:pageshadow="2"
     inkscape:window-width="689"
     inkscape:window-height="480"
     id="namedview10"
     showgrid="false"
     inkscape:zoom="1.3027344"
     inkscape:cx="256"
     inkscape:cy="256"
     inkscape:window-x="44"
     inkscape:window-y="25"
     inkscape:window-maximized="0"
     inkscape:current-layer="svg8" />
  <title
     id="title2">Text</title>
  <path
     style="color:#000000;font-style:normal;font-variant:normal;font-weight:normal;font-stretch:normal;font-size:medium;line-height:normal;font-family:sans-serif;font-variant-ligatures:normal;font-variant-position:normal;font-variant-caps:normal;font-variant-numeric:normal;font-variant-alternates:normal;font-variant-east-asian:normal;font-feature-settings:normal;font-variation-settings:normal;text-indent:0;text-align:start;text-decoration:none;text-decoration-line:none;text-decoration-style:solid;text-decoration-color:#000000;letter-spacing:normal;word-spacing:normal;text-transform:none;writing-mode:lr-tb;direction:ltr;text-orientation:mixed;dominant-baseline:auto;baseline-shift:baseline;text-anchor:start;white-space:normal;shape-padding:0;shape-margin:0;inline-size:0;clip-rule:nonzero;display:inline;overflow:visible;visibility:visible;isolation:auto;mix-blend-mode:normal;color-interpolation:sRGB;color-interpolation-filters:linearRGB;solid-color:#000000;solid-opacity:1;vector-effect:none;fill:currentColor;fill-opacity:1;fill-rule:nonzero;stroke:none;stroke-linecap:round;stroke-linejoin:round;stroke-miterlimit:4;stroke-dasharray:none;stroke-dashoffset:0;stroke-opacity:1;color-rendering:auto;image-rendering:auto;shape-rendering:auto;text-rendering:auto;enable-background:accumulate;stop-color:#000000;stop-opacity:1;opacity:1"
     d="M 151.88086 79.503906 A 16.0016 16.0016 0 0 0 137.01953 89.882812 L 59.097656 297.67578 L 59.050781 297.80078 A 16 16 0 0 0 58.964844 298.0293 L 17.019531 409.88281 A 16 16 0 0 0 26.382812 430.48047 A 16 16 0 0 0 46.980469 421.11719 L 85.085938 319.5 L 218.91406 319.5 L 257.01953 421.11719 A 16 16 0 0 0 277.61719 430.48047 A 16 16 0 0 0 286.98047 409.88281 L 245.00391 297.94727 L 244.98828 297.90234 A 16 16 0 0 0 244.97266 297.86328 L 166.98047 89.882812 A 16.0016 16.0016 0 0 0 151.88086 79.503906 z M 152 141.06445 L 206.91406 287.5 L 97.085938 287.5 L 152 141.06445 z M 400 175.5 C 360.75838 175.5 326.00113 198.57956 311.27344 233.24219 A 16 16 0 0 0 319.74219 254.22656 A 16 16 0 0 0 340.72656 245.75781 C 350.37887 223.04044 373.24162 207.5 400 207.5 C 438.57971 207.5 464 231.05556 464 271.5 L 464 415.5 A 16 16 0 0 0 480 431.5 A 16 16 0 0 0 496 415.5 L 496 271.5 C 496 215.94444 453.42029 175.5 400 175.5 z "
     id="path4" />
  <path
     style="color:#000000;font-style:normal;font-variant:normal;font-weight:normal;font-stretch:normal;font-size:medium;line-height:normal;font-family:sans-serif;font-variant-ligatures:normal;font-variant-position:normal;font-variant-caps:normal;font-variant-numeric:normal;font-variant-alternates:normal;font-variant-east-asian:normal;font-feature-settings:normal;font-variation-settings:normal;text-indent:0;text-align:start;text-decoration:none;text-decoration-line:none;text-decoration-style:solid;text-decoration-color:#000000;letter-spacing:normal;word-spacing:normal;text-transform:none;writing-mode:lr-tb;direction:ltr;text-orientation:mixed;dominant-baseline:auto;baseline-shift:baseline;text-anchor:start;white-space:normal;shape-padding:0;shape-margin:0;inline-size:0;clip-rule:nonzero;display:inline;overflow:visible;visibility:visible;isolation:auto;mix-blend-mode:normal;color-interpolation:sRGB;color-interpolation-filters:linearRGB;solid-color:#000000;solid-opacity:1;vector-effect:none;fill:currentColor;fill-opacity:1;fill-rule:nonzero;stroke:none;stroke-linecap:round;stroke-linejoin:round;stroke-miterlimit:4;stroke-dasharray:none;stroke-dashoffset:0;stroke-opacity:1;color-rendering:auto;image-rendering:auto;shape-rendering:auto;text-rendering:auto;enable-background:accumulate;stop-color:#000000;stop-opacity:1;opacity:1"
     d="M 480 279.5 C 459.46667 279.5 421.19745 280.48389 386.13086 284.60938 A 16.0016 16.0016 0 0 0 386.12891 284.60938 C 367.99183 286.74575 348.64052 291.8041 332.46094 303.26758 C 316.28136 314.73105 304 334.18222 304 358.5 C 304 380.47926 312.62385 399.77522 326.73242 412.76953 C 340.84099 425.76384 359.88946 432.5 380 432.5 C 409.66667 432.5 438.99171 425.0249 461.02539 404.95312 C 483.05907 384.88135 496 353.10549 496 310.5 L 496 295.5 A 16.0016 16.0016 0 0 0 480 279.5 z M 463.95703 311.69922 C 463.72763 347.32631 453.77349 368.27118 439.47461 381.29688 C 425.00829 394.4751 404.33333 400.5 380 400.5 C 366.97054 400.5 356.01854 396.23616 348.41211 389.23047 C 340.80568 382.22478 336 372.52074 336 358.5 C 336 343.81778 341.33302 336.19848 350.96094 329.37695 C 360.58844 322.55573 375.23685 318.11441 389.86914 316.39062 C 415.3248 313.39584 443.41869 312.12923 463.95703 311.69922 z "
     id="path6" />
</svg>
