<?xml version="1.0" encoding="UTF-8" standalone="no"?>
<svg
   xmlns:dc="http://purl.org/dc/elements/1.1/"
   xmlns:cc="http://creativecommons.org/ns#"
   xmlns:rdf="http://www.w3.org/1999/02/22-rdf-syntax-ns#"
   xmlns:svg="http://www.w3.org/2000/svg"
   xmlns="http://www.w3.org/2000/svg"
   xmlns:sodipodi="http://sodipodi.sourceforge.net/DTD/sodipodi-0.dtd"
   xmlns:inkscape="http://www.inkscape.org/namespaces/inkscape"
   class="ionicon"
   viewBox="0 0 512 512"
   version="1.1"
   id="svg6"
   sodipodi:docname="text.svg"
   inkscape:version="1.0.2 (e86c8708, 2021-01-15)">
  <metadata
     id="metadata12">
    <rdf:RDF>
      <cc:Work
         rdf:about="">
        <dc:format>image/svg+xml</dc:format>
        <dc:type
           rdf:resource="http://purl.org/dc/dcmitype/StillImage" />
      </cc:Work>
    </rdf:RDF>
  </metadata>
  <defs
     id="defs10" />
  <sodipodi:namedview
     pagecolor="#ffffff"
     bordercolor="#666666"
     borderopacity="1"
     objecttolerance="10"
     gridtolerance="10"
     guidetolerance="10"
     inkscape:pageopacity="0"
     inkscape:pageshadow="2"
     inkscape:window-width="689"
     inkscape:window-height="480"
     id="namedview8"
     showgrid="false"
     inkscape:zoom="1.3027344"
     inkscape:cx="256"
     inkscape:cy="256"
     inkscape:window-x="44"
     inkscape:window-y="25"
     inkscape:window-maximized="0"
     inkscape:current-layer="svg6" />
  <title
     id="title2">Text</title>
  <path
     style="color:#000000;font-style:normal;font-variant:normal;font-weight:normal;font-stretch:normal;font-size:medium;line-height:normal;font-family:sans-serif;font-variant-ligatures:normal;font-variant-position:normal;font-variant-caps:normal;font-variant-numeric:normal;font-variant-alternates:normal;font-variant-east-asian:normal;font-feature-settings:normal;font-variation-settings:normal;text-indent:0;text-align:start;text-decoration:none;text-decoration-line:none;text-decoration-style:solid;text-decoration-color:#000000;letter-spacing:normal;word-spacing:normal;text-transform:none;writing-mode:lr-tb;direction:ltr;text-orientation:mixed;dominant-baseline:auto;baseline-shift:baseline;text-anchor:start;white-space:normal;shape-padding:0;shape-margin:0;inline-size:0;clip-rule:nonzero;display:inline;overflow:visible;visibility:visible;isolation:auto;mix-blend-mode:normal;color-interpolation:sRGB;color-interpolation-filters:linearRGB;solid-color:#000000;solid-opacity:1;vector-effect:none;fill:#000000;fill-opacity:1;fill-rule:nonzero;stroke-width:1;stroke-linecap:butt;stroke-linejoin:miter;stroke-miterlimit:4;stroke-dasharray:none;stroke-dashoffset:0;stroke-opacity:1;color-rendering:auto;image-rendering:auto;shape-rendering:auto;text-rendering:auto;enable-background:accumulate;stop-color:#000000;stop-opacity:1;stroke:none;opacity:1"
     d="m 292.6,407.78 -120,-320 c -7.13652,-19.036408 -34.06348,-19.036408 -41.2,0 l -120,320 c -4.1309269,11.34183 1.648207,23.89399 12.951246,28.12989 C 35.654285,440.14578 48.259493,434.48329 52.6,423.22 L 88.76,326.8 c 0.291649,-0.78058 1.036714,-1.29854 1.87,-1.3 h 122.74 c 0.83329,0.001 1.57835,0.51942 1.87,1.3 l 36.16,96.42 c 4.34051,11.26329 16.94572,16.92578 28.24875,12.68989 11.30304,-4.2359 17.08218,-16.78806 12.95125,-28.12989 z m -185.84,-129 43.37,-115.65 c 0.65276,-1.72094 3.08724,-1.72094 3.74,0 l 43.37,115.67 c 0.48787,1.30574 -0.47609,2.69756 -1.87,2.7 h -86.74 c -1.39391,-0.002 -2.35787,-1.39426 -1.87,-2.7 z M 400.77,169.5 c -41.72,-0.3 -79.08,23.87 -95,61.4 -4.74965,11.18377 0.46624,24.10034 11.65,28.84999 11.18377,4.74965 24.10035,-0.46622 28.85,-11.64999 8.88,-20.89 29.77,-34.44 53.32,-34.6 32.32,-0.22 58.41,26.5 58.41,58.85 4.5e-4,0.80929 -0.64116,1.47302 -1.45,1.5 -21.92,0.61 -47.92,2.07 -71.12,4.8 -54.75,6.44 -87.43,36.29 -87.43,79.85 0,23.19 8.76,44 24.67,58.68 14.93,13.75 35.33,21.32 57.33,21.32 31,0 57.69,-8 77.94,-23.22 H 458 c -0.0525,12.15027 9.75474,22.04252 21.905,22.09499 12.15026,0.0525 22.04253,-9.75472 22.095,-21.90499 v -143 C 502,216.29 457,169.91 400.77,169.5 Z M 380,394.5 c -17.53,0 -38,-9.43 -38,-36 0,-10.67 3.83,-18.14 12.43,-24.23 8.37,-5.93 21.2,-10.16 36.14,-11.92 21.12,-2.49 44.82,-3.86 65.14,-4.47 1.14483,-0.001 2.05724,0.9566 2,2.1 C 455,370.1 429.46,394.5 380,394.5 Z"
     id="path4" />
</svg>
