<?xml version="1.0" encoding="utf-8"?>
<!-- Generator: Adobe Illustrator 24.0.0, SVG Export Plug-In . SVG Version: 6.00 Build 0)  -->
<svg version="1.1" id="Layer_1" xmlns="http://www.w3.org/2000/svg" xmlns:xlink="http://www.w3.org/1999/xlink" x="0px" y="0px"
	 viewBox="0 0 512 512" style="enable-background:new 0 0 512 512;" xml:space="preserve">
<title>ionicons-v5-q</title>
<g>
	<path d="M255.9,496c-28,0-54.6-10.3-75.4-29.3c-22.1-20.2-35-47.7-36.4-77.6c-1.7-38.5,16.5-75.6,47.9-97.8V80
		c0-35.3,28.7-64,64-64c35.3,0,64,28.7,64,64v211.3c30.2,21.3,48,55.6,48,92.7c0,60-47,109.1-106.9,111.8
		C259.4,495.9,257.6,496,255.9,496z M213,315.7c-24,15.7-38.2,43.2-36.9,71.9c1,21.3,10.2,41,26,55.4s36.2,21.8,57.6,20.8
		c42.8-2,76.3-37,76.4-79.9c0-27.6-13.8-53.2-37-68.3c-6.9-4.4-11-12-11-20.2V80c0-17.6-14.4-32-32-32c-17.6,0-32,14.4-32,32v215.5
		C224,303.8,219.9,311.3,213,315.7z"/>
</g>
<g>
	<path d="M256,400c-8.8,0-16-7.2-16-16V112c0-8.8,7.2-16,16-16c8.8,0,16,7.2,16,16v272C272,392.8,264.8,400,256,400z"/>
</g>
<g>
	<circle cx="256" cy="384" r="48"/>
</g>
</svg>
