<?xml version="1.0" encoding="UTF-8" standalone="no"?>
<svg
   xmlns:dc="http://purl.org/dc/elements/1.1/"
   xmlns:cc="http://creativecommons.org/ns#"
   xmlns:rdf="http://www.w3.org/1999/02/22-rdf-syntax-ns#"
   xmlns:svg="http://www.w3.org/2000/svg"
   xmlns="http://www.w3.org/2000/svg"
   xmlns:sodipodi="http://sodipodi.sourceforge.net/DTD/sodipodi-0.dtd"
   xmlns:inkscape="http://www.inkscape.org/namespaces/inkscape"
   class="ionicon"
   viewBox="0 0 512 512"
   version="1.1"
   id="svg843"
   sodipodi:docname="thumbs-up.svg"
   inkscape:version="1.0.2 (e86c8708, 2021-01-15)">
  <metadata
     id="metadata849">
    <rdf:RDF>
      <cc:Work
         rdf:about="">
        <dc:format>image/svg+xml</dc:format>
        <dc:type
           rdf:resource="http://purl.org/dc/dcmitype/StillImage" />
      </cc:Work>
    </rdf:RDF>
  </metadata>
  <defs
     id="defs847" />
  <sodipodi:namedview
     pagecolor="#ffffff"
     bordercolor="#666666"
     borderopacity="1"
     objecttolerance="10"
     gridtolerance="10"
     guidetolerance="10"
     inkscape:pageopacity="0"
     inkscape:pageshadow="2"
     inkscape:window-width="776"
     inkscape:window-height="480"
     id="namedview845"
     showgrid="false"
     inkscape:zoom="0.3"
     inkscape:cx="256"
     inkscape:cy="256"
     inkscape:window-x="369"
     inkscape:window-y="1242"
     inkscape:window-maximized="0"
     inkscape:current-layer="svg843" />
  <title
     id="title833">Thumbs Up</title>
  <path
     style="color:#000000;font-style:normal;font-variant:normal;font-weight:normal;font-stretch:normal;font-size:medium;line-height:normal;font-family:sans-serif;font-variant-ligatures:normal;font-variant-position:normal;font-variant-caps:normal;font-variant-numeric:normal;font-variant-alternates:normal;font-variant-east-asian:normal;font-feature-settings:normal;font-variation-settings:normal;text-indent:0;text-align:start;text-decoration:none;text-decoration-line:none;text-decoration-style:solid;text-decoration-color:#000000;letter-spacing:normal;word-spacing:normal;text-transform:none;writing-mode:lr-tb;direction:ltr;text-orientation:mixed;dominant-baseline:auto;baseline-shift:baseline;text-anchor:start;white-space:normal;shape-padding:0;shape-margin:0;inline-size:0;clip-rule:nonzero;display:inline;overflow:visible;visibility:visible;isolation:auto;mix-blend-mode:normal;color-interpolation:sRGB;color-interpolation-filters:linearRGB;solid-color:#000000;solid-opacity:1;vector-effect:none;fill:#000000;fill-opacity:1;fill-rule:nonzero;stroke-width:1;stroke-linecap:butt;stroke-linejoin:miter;stroke-miterlimit:4;stroke-dasharray:none;stroke-dashoffset:0;stroke-opacity:1;color-rendering:auto;image-rendering:auto;shape-rendering:auto;text-rendering:auto;enable-background:accumulate;stop-color:#000000;stop-opacity:1;stroke:none;opacity:1"
     d="m 272,32 c -6.0592,-7.9e-4 -11.599,3.421232 -14.31055,8.839844 -3,6.07 -15.24945,24.000156 -28.18945,42.910156 -18,26.33 -40.35047,59.07078 -55.23047,84.80078 l -0.12891,0.22852 c -15.37045,26.62462 -24.75842,44.21457 -29.95312,54.32226 -1.73328,3.37125 -2.99969,5.91024 -3.86719,7.67774 l -0.73828,1.47656 c -0.5489,0.91657 -1.18675,1.77684 -1.9043,2.56836 -1.20365,1.27411 -2.60433,2.34639 -4.14843,3.17578 -2.30382,1.28386 -4.89206,1.97137 -7.5293,2 H 100.68945 C 53.916884,240.0003 16.000304,277.91688 16,324.68945 v 38.61133 C 15.994908,410.07716 53.913068,447.9997 100.68945,448 h 48.79102 c 3.40621,0.0134 6.7349,1.01781 9.58008,2.89062 C 182.00055,465.87063 225.34,480 272,480 c 7.45,0 14.18953,-0.14086 20.26953,-0.38086 6.39329,-0.22686 9.94737,-7.49399 6.20117,-12.67969 l -0.10156,-0.13867 C 289.79914,454.41078 288,441 288,432 c -0.0148,-8.52789 1.75277,-16.96476 5.18945,-24.76953 1.98009,-4.47431 1.98009,-9.57647 0,-14.05078 -6.91309,-16.08557 -6.91309,-34.30506 0,-50.39063 1.9701,-4.45874 1.9701,-9.54126 0,-14 -6.8803,-15.814 -6.8803,-33.77584 0,-49.58984 2.0696,-4.6744 2.0696,-10.00529 0,-14.67969 C 289.62242,256.49225 287.85135,247.78287 288,239 c 0,-8.2 2,-21.29945 8,-31.18945 2.45685,-4.12979 2.87749,-9.16016 1.14062,-13.64063 -0.37999,-1 -0.76085,-2.06992 -1.13085,-3.16992 -1.19733,-3.73792 -1.49184,-7.70637 -0.85938,-11.58008 3,-19.34 9.67023,-36.29015 16.74023,-54.16015 3.08,-7.78 6.26875,-15.81977 9.21876,-24.25977 6.13999,-17.57 4.30117,-35.200859 -5.04883,-48.380859 C 306.63055,39.319141 291,32 272,32 Z m 165.34961,162 -106.74023,8.33008 c -4.81001,0.4 -26.60938,4.67078 -26.60938,27.55078 0,6.95 -8e-5,23.11867 26.66992,26.38867 L 439.11914,258 C 452.85914,257.83 464,244.53094 464,228.21094 v -0.33008 C 464,210.68086 449.99961,194 437.34961,194 Z m 34.71094,76 -143.91993,6.11914 C 323.16063,276.66914 304,278.19 304,302 c 0,24.66 19.29039,25.50914 23.90039,25.86914 L 472.06055,334 C 484.73055,333.87 496,319.57 496,302 496,284.43 484.73055,270.13 472.06055,270 Z M 456.18945,344.50977 329,348.39062 c -20.65,1.92 -25,15.5293 -25,27.5293 0,23.37 16.42055,25.73914 25.81055,26.36914 L 456.21094,408.5 v -0.01 c 13.14,-0.15 23.78906,-14.67007 23.78906,-32.58007 0,-17.91 -10.65055,-31.26039 -23.81055,-31.40039 z m -34.51953,71.48046 -91,3 c -13.26,0 -26.66992,6.21961 -26.66992,24.59961 0,10.23 4.00047,26.55047 28.48047,27.48047 L 421.84961,480 c 14.47,-0.34 26.14062,-14.50977 26.14062,-32.00977 0,-17.5 -11.78031,-31.77 -26.32031,-32 z"
     id="path835" />
</svg>
