<?xml version="1.0" encoding="UTF-8" standalone="no"?>
<svg
   xmlns:dc="http://purl.org/dc/elements/1.1/"
   xmlns:cc="http://creativecommons.org/ns#"
   xmlns:rdf="http://www.w3.org/1999/02/22-rdf-syntax-ns#"
   xmlns:svg="http://www.w3.org/2000/svg"
   xmlns="http://www.w3.org/2000/svg"
   xmlns:sodipodi="http://sodipodi.sourceforge.net/DTD/sodipodi-0.dtd"
   xmlns:inkscape="http://www.inkscape.org/namespaces/inkscape"
   class="ionicon"
   viewBox="0 0 512 512"
   version="1.1"
   id="svg8"
   sodipodi:docname="thumbs-up-outline.svg"
   inkscape:version="1.0.2 (e86c8708, 2021-01-15)">
  <metadata
     id="metadata14">
    <rdf:RDF>
      <cc:Work
         rdf:about="">
        <dc:format>image/svg+xml</dc:format>
        <dc:type
           rdf:resource="http://purl.org/dc/dcmitype/StillImage" />
      </cc:Work>
    </rdf:RDF>
  </metadata>
  <defs
     id="defs12" />
  <sodipodi:namedview
     pagecolor="#ffffff"
     bordercolor="#666666"
     borderopacity="1"
     objecttolerance="10"
     gridtolerance="10"
     guidetolerance="10"
     inkscape:pageopacity="0"
     inkscape:pageshadow="2"
     inkscape:window-width="689"
     inkscape:window-height="480"
     id="namedview10"
     showgrid="false"
     inkscape:zoom="1.3027344"
     inkscape:cx="256"
     inkscape:cy="256"
     inkscape:window-x="44"
     inkscape:window-y="25"
     inkscape:window-maximized="0"
     inkscape:current-layer="svg8" />
  <title
     id="title2">Thumbs Up</title>
  <path
     style="color:#000000;font-style:normal;font-variant:normal;font-weight:normal;font-stretch:normal;font-size:medium;line-height:normal;font-family:sans-serif;font-variant-ligatures:normal;font-variant-position:normal;font-variant-caps:normal;font-variant-numeric:normal;font-variant-alternates:normal;font-variant-east-asian:normal;font-feature-settings:normal;font-variation-settings:normal;text-indent:0;text-align:start;text-decoration:none;text-decoration-line:none;text-decoration-style:solid;text-decoration-color:#000000;letter-spacing:normal;word-spacing:normal;text-transform:none;writing-mode:lr-tb;direction:ltr;text-orientation:mixed;dominant-baseline:auto;baseline-shift:baseline;text-anchor:start;white-space:normal;shape-padding:0;shape-margin:0;inline-size:0;clip-rule:nonzero;display:inline;overflow:visible;visibility:visible;isolation:auto;mix-blend-mode:normal;color-interpolation:sRGB;color-interpolation-filters:linearRGB;solid-color:#000000;solid-opacity:1;vector-effect:none;fill:currentColor;fill-opacity:1;fill-rule:nonzero;stroke:none;stroke-linecap:round;stroke-linejoin:round;stroke-miterlimit:4;stroke-dasharray:none;stroke-dashoffset:0;stroke-opacity:1;color-rendering:auto;image-rendering:auto;shape-rendering:auto;text-rendering:auto;enable-background:accumulate;stop-color:#000000;stop-opacity:1;opacity:1"
     d="M 272 32 A 16.0016 16.0016 0 0 0 257.68945 40.84375 C 255.61247 44.997713 240.31868 67.869081 223.53125 92.490234 C 206.74382 117.11139 187.62785 145.42723 174.14453 168.7793 C 149.23485 211.92094 140.46992 230.5314 139.59961 232.39258 C 136.61295 237.10395 131.50213 239.96912 125.91211 240 L 96 240 C 52.006734 240 16 276.00673 16 320 L 16 368 C 16 411.99327 52.006734 448 96 448 L 154.9668 448 C 177.32456 463.6857 207.59757 480 256 480 C 280.64889 480 297.40525 478.50428 308.31055 476.91211 C 319.21585 475.31994 325.48633 473.18945 325.48633 473.18945 A 16 16 0 0 0 335.0293 452.67383 A 16 16 0 0 0 314.51367 443.13086 C 314.51367 443.13086 312.78415 443.92022 303.68945 445.24805 C 294.59475 446.57587 279.35111 448 256 448 C 211.55556 448 190.66408 434.51795 169.41016 419.06055 A 16.0016 16.0016 0 0 0 160 416 L 96 416 C 69.300818 416 48 394.69918 48 368 L 48 320 C 48 293.30082 69.300818 272 96 272 L 126 272 A 16.0016 16.0016 0 0 0 126.08789 272 C 142.76345 271.90788 158.2653 263.18568 167 248.98047 A 16.0016 16.0016 0 0 0 167.91016 247.27734 C 167.91016 247.27734 176.0526 229.46983 201.85547 184.78125 C 214.37215 163.10331 233.25618 135.02892 249.96875 110.51758 C 262.59529 91.998964 273.47892 76.65061 280.61328 65.130859 C 285.32042 66.416353 288.26732 68.665802 290.07227 71.287109 C 292.79314 75.238617 294.07343 81.353941 290.89844 90.423828 A 16.0016 16.0016 0 0 0 290.89648 90.427734 C 281.11711 118.38646 266.78185 144.8901 262.64453 180.97852 A 16.0016 16.0016 0 0 0 262.64062 181.00391 C 261.81463 188.31546 263.63312 193.60778 266.82031 198.875 C 270.0075 204.14222 276.07969 210.80078 286.49023 210.80078 L 285.23438 210.75 L 414.74414 220.95117 A 16 16 0 0 0 431.95117 206.25586 A 16 16 0 0 0 417.25586 189.04883 L 295.24023 179.43945 C 299.40044 152.49487 310.97095 129.95793 321.10156 100.99609 L 321.10352 100.99219 C 326.92689 84.35326 325.7061 66.615511 316.42773 53.140625 C 307.14861 39.664633 290.54598 32 272 32 z "
     id="path4" />
  <path
     style="color:#000000;font-style:normal;font-variant:normal;font-weight:normal;font-stretch:normal;font-size:medium;line-height:normal;font-family:sans-serif;font-variant-ligatures:normal;font-variant-position:normal;font-variant-caps:normal;font-variant-numeric:normal;font-variant-alternates:normal;font-variant-east-asian:normal;font-feature-settings:normal;font-variation-settings:normal;text-indent:0;text-align:start;text-decoration:none;text-decoration-line:none;text-decoration-style:solid;text-decoration-color:#000000;letter-spacing:normal;word-spacing:normal;text-transform:none;writing-mode:lr-tb;direction:ltr;text-orientation:mixed;dominant-baseline:auto;baseline-shift:baseline;text-anchor:start;white-space:normal;shape-padding:0;shape-margin:0;inline-size:0;clip-rule:nonzero;display:inline;overflow:visible;visibility:visible;isolation:auto;mix-blend-mode:normal;color-interpolation:sRGB;color-interpolation-filters:linearRGB;solid-color:#000000;solid-opacity:1;vector-effect:none;fill:currentColor;fill-opacity:1;fill-rule:nonzero;stroke:none;stroke-linecap:butt;stroke-linejoin:miter;stroke-miterlimit:10;stroke-dasharray:none;stroke-dashoffset:0;stroke-opacity:1;color-rendering:auto;image-rendering:auto;shape-rendering:auto;text-rendering:auto;enable-background:accumulate;stop-color:#000000;stop-opacity:1;opacity:1"
     d="M 415.59961 189 L 335.08594 193.02539 L 334.9707 193.0332 C 322.92664 193.80938 311.43864 197.97122 302.57031 205.92188 C 293.70198 213.87253 288 225.95758 288 239 C 288 251.43636 292.86101 263.56622 301.65625 271.67383 C 301.69808 271.71239 301.74906 271.73701 301.79102 271.77539 C 293.40739 279.72828 288 291.37591 288 304 C 288 316.4083 293.21381 327.84626 301.35742 335.84766 C 292.99137 343.93729 288 355.64054 288 368 C 288 380.43626 292.98827 392.23059 301.45508 400.39062 C 293.29489 408.5057 288 419.45265 288 432 C 288 444.13333 292.52739 456.32692 301.44336 464.32227 C 310.35933 472.31761 321.94526 475.83035 334.60352 476.93945 L 334.92578 476.9668 L 399.64844 480.00195 L 400.04492 480 C 426.31283 479.92643 447.92643 458.31283 448 432.04492 L 448 432 L 448 431.95508 C 447.98236 425.65782 446.66321 419.65659 444.40234 414.12695 C 464.72651 408.55222 479.93846 390.01929 480 368.04492 L 480 368 L 480 367.95508 C 479.97599 359.38196 477.477 351.41642 473.45117 344.42188 C 486.88055 335.88192 495.94733 320.98306 496 304.04883 L 496 304 L 496 303.95117 C 495.93135 281.87886 480.58595 263.26721 460.12305 257.78711 C 462.58367 252.07893 463.96515 245.8158 464 239.25586 L 464 239.21289 L 464 239 C 464 212.67273 443.53939 189 416 189 L 415.59961 189 z M 416.10547 221.01562 C 423.73705 221.09849 432 230.16783 432 239 L 432 239.08594 C 431.95231 248.06357 425.00745 254.9776 416.03516 254.99609 L 337.19922 253.02539 C 329.86783 252.30479 325.51959 250.15222 323.34375 248.14648 C 321.13899 246.1141 320 244.16364 320 239 C 320 234.44242 321.29802 232.1074 323.92969 229.74805 C 326.55736 227.39228 331.06139 225.35896 337.00391 224.9707 L 416.10547 221.01562 z M 447.98633 288.00391 C 456.99046 288.0505 463.94236 294.99799 463.99609 304 C 463.94236 313.00201 456.99046 319.9495 447.98633 319.99609 L 336.67578 318.00977 C 330.93688 317.72681 326.59046 315.77056 323.97852 313.41016 C 321.35524 311.03951 320 308.55016 320 304 C 320 299.43502 321.30221 297.09424 323.93164 294.73633 C 326.53958 292.39769 330.99934 290.38867 336.875 289.98828 L 447.98633 288.00391 z M 431.98828 352.00391 C 440.99348 352.0467 447.94718 358.99662 447.99609 368 C 447.94718 377.00338 440.99348 383.9533 431.98828 383.99609 L 336.66602 382.01172 C 330.26607 381.72043 326.12579 379.74346 323.73047 377.53125 C 321.32957 375.31389 320 372.86061 320 368 C 320 363.13939 321.27588 360.83919 323.68555 358.63086 C 326.08038 356.43613 330.34779 354.40399 336.86328 353.98438 L 431.98828 352.00391 z M 400.02539 416.00781 C 409.012 416.0701 415.94724 423.00939 415.99609 432 C 415.94737 440.96847 409.04423 447.8904 400.08984 447.98633 L 337.26367 445.04102 C 329.01872 444.29721 324.62967 442.13284 322.80664 440.49805 C 320.97261 438.85339 320 437.46667 320 432 C 320 423.12727 325.91515 418 336 418 L 336.25 418 L 400.02539 416.00781 z "
     id="path6" />
</svg>
