<?xml version="1.0" encoding="UTF-8" standalone="no"?>
<svg
   xmlns:dc="http://purl.org/dc/elements/1.1/"
   xmlns:cc="http://creativecommons.org/ns#"
   xmlns:rdf="http://www.w3.org/1999/02/22-rdf-syntax-ns#"
   xmlns:svg="http://www.w3.org/2000/svg"
   xmlns="http://www.w3.org/2000/svg"
   xmlns:sodipodi="http://sodipodi.sourceforge.net/DTD/sodipodi-0.dtd"
   xmlns:inkscape="http://www.inkscape.org/namespaces/inkscape"
   class="ionicon"
   viewBox="0 0 512 512"
   version="1.1"
   id="svg843"
   sodipodi:docname="thumbs-down.svg"
   inkscape:version="1.0.2 (e86c8708, 2021-01-15)">
  <metadata
     id="metadata849">
    <rdf:RDF>
      <cc:Work
         rdf:about="">
        <dc:format>image/svg+xml</dc:format>
        <dc:type
           rdf:resource="http://purl.org/dc/dcmitype/StillImage" />
      </cc:Work>
    </rdf:RDF>
  </metadata>
  <defs
     id="defs847" />
  <sodipodi:namedview
     pagecolor="#ffffff"
     bordercolor="#666666"
     borderopacity="1"
     objecttolerance="10"
     gridtolerance="10"
     guidetolerance="10"
     inkscape:pageopacity="0"
     inkscape:pageshadow="2"
     inkscape:window-width="776"
     inkscape:window-height="480"
     id="namedview845"
     showgrid="false"
     inkscape:zoom="0.3"
     inkscape:cx="256"
     inkscape:cy="256"
     inkscape:window-x="412"
     inkscape:window-y="1197"
     inkscape:window-maximized="0"
     inkscape:current-layer="svg843"
     inkscape:document-rotation="0" />
  <title
     id="title833">Thumbs Down</title>
  <path
     id="path835"
     style="color:#000000;font-style:normal;font-variant:normal;font-weight:normal;font-stretch:normal;font-size:medium;line-height:normal;font-family:sans-serif;font-variant-ligatures:normal;font-variant-position:normal;font-variant-caps:normal;font-variant-numeric:normal;font-variant-alternates:normal;font-variant-east-asian:normal;font-feature-settings:normal;font-variation-settings:normal;text-indent:0;text-align:start;text-decoration:none;text-decoration-line:none;text-decoration-style:solid;text-decoration-color:#000000;letter-spacing:normal;word-spacing:normal;text-transform:none;writing-mode:lr-tb;direction:ltr;text-orientation:mixed;dominant-baseline:auto;baseline-shift:baseline;text-anchor:start;white-space:normal;shape-padding:0;shape-margin:0;inline-size:0;clip-rule:nonzero;display:inline;overflow:visible;visibility:visible;isolation:auto;mix-blend-mode:normal;color-interpolation:sRGB;color-interpolation-filters:linearRGB;solid-color:#000000;solid-opacity:1;vector-effect:none;fill:#000000;fill-opacity:1;fill-rule:nonzero;stroke-width:1;stroke-linecap:butt;stroke-linejoin:miter;stroke-miterlimit:4;stroke-dasharray:none;stroke-dashoffset:0;stroke-opacity:1;color-rendering:auto;image-rendering:auto;shape-rendering:auto;text-rendering:auto;enable-background:accumulate;stop-color:#000000;stop-opacity:1;stroke:none;opacity:1"
     d="M 90.150391 32 C 75.680391 32.34 64 46.49 64 64 C 64 81.51 75.780078 95.78 90.330078 96 L 181.33008 93 C 194.59008 93 208 86.790391 208 68.400391 C 208 58.180391 203.99953 41.859686 179.51953 40.929688 L 90.150391 32 z M 240 32 C 232.55 32 225.81047 32.140859 219.73047 32.380859 C 213.33719 32.607715 209.7831 39.874842 213.5293 45.060547 L 213.63086 45.199219 C 222.20086 57.589219 224 71 224 80 C 224.016 88.528015 222.24836 96.965123 218.81055 104.76953 C 216.83007 109.24716 216.83007 114.35245 218.81055 118.83008 C 225.72364 134.91565 225.72364 153.13513 218.81055 169.2207 C 216.84045 173.67944 216.84045 178.76196 218.81055 183.2207 C 225.69043 199.03139 225.69043 216.99009 218.81055 232.80078 C 216.74095 237.47518 216.74095 242.80607 218.81055 247.48047 C 222.37511 255.50853 224.14607 264.21737 224 273 C 224 281.2 222 294.29969 216 304.17969 C 213.54441 308.31344 213.12388 313.34612 214.85938 317.83008 C 215.23936 318.83008 215.62023 319.89 215.99023 321 C 217.18751 324.73457 217.48203 328.69984 216.84961 332.57031 C 213.84961 351.92031 207.17938 368.87047 200.10938 386.73047 C 197.02937 394.51047 193.84064 402.55 190.89062 411 C 184.75063 428.56 186.58945 446.20086 195.93945 459.38086 C 205.36945 472.67086 221 480 240 480 C 246.06137 479.999 251.60173 476.5728 254.31055 471.15039 C 257.31055 465.09039 269.56 447.15 282.5 428.25 C 300.5 401.92 322.85047 369.16945 337.73047 343.43945 A 2.53 2.53 0 0 1 337.85938 343.2207 C 345.54718 329.89842 351.73778 318.83867 356.6582 309.84375 C 364.85586 294.84912 369.51719 285.5957 371.67969 281.2207 L 372.67969 279.2207 C 374.16346 277.03874 376.14947 275.24497 378.4707 273.99023 C 380.77715 272.7141 383.36423 272.03025 386 272 L 411.32031 272 C 458.09059 271.98879 495.99957 234.07106 496 187.30078 L 496 148.69922 C 495.99957 101.92513 458.08464 64.005826 411.31055 64 L 362.51953 64 C 359.11254 63.9918 355.78239 62.986969 352.93945 61.109375 C 329.99945 46.129375 286.66 32 240 32 z M 55.789062 103.5 C 42.649063 103.65 32 118.16008 32 136.08008 C 32 154.00008 42.649062 167.35 55.789062 167.5 L 183 163.60938 C 203.65 161.69938 208 148.08008 208 136.08008 C 208 112.72008 191.57945 110.3507 182.18945 109.7207 L 55.789062 103.5 z M 39.939453 178 C 27.269453 178.13 16 192.44 16 210 C 16 227.56 27.269453 241.87 39.939453 242 L 183.85938 235.88086 C 188.83937 235.33086 208 233.8 208 210 C 208 185.34 188.70961 184.47914 184.09961 184.11914 L 39.939453 178 z M 72.880859 254 C 59.140859 254.16 48 267.45906 48 283.78906 L 48 284.11914 C 48 301.30914 62.000391 318 74.650391 318 L 181.39062 309.66016 C 186.20064 309.26016 208 304.99914 208 282.11914 C 208 275.15914 208.00008 259.0007 181.33008 255.7207 L 72.880859 254 z M 385.81641 272.00195 A 15.84 15.84 0 0 0 385.50781 272.00977 A 15.93 15.93 0 0 1 385.81641 272.00195 z M 385.28711 272.01758 A 15.93 15.93 0 0 0 384.99414 272.03516 A 15.93 15.93 0 0 0 384.66016 272.06055 A 15.93 15.93 0 0 0 383.32812 272.23438 A 15.93 15.93 0 0 0 382.99805 272.29492 A 15.93 15.93 0 0 0 379.18555 273.55664 A 15.93 15.93 0 0 0 378.88281 273.70508 A 15.93 15.93 0 0 0 378.49023 273.91016 L 378.44922 273.92969 A 15.84 15.84 0 0 1 378.88281 273.70508 A 15.84 15.84 0 0 1 379.18555 273.55664 A 15.84 15.84 0 0 1 382.99805 272.29492 A 15.84 15.84 0 0 1 383.32812 272.23438 A 15.84 15.84 0 0 1 384.66016 272.06055 A 15.84 15.84 0 0 1 384.99414 272.03516 A 15.84 15.84 0 0 1 385.28711 272.01758 z " />
</svg>
