<?xml version="1.0" encoding="utf-8"?>
<!-- Generator: Adobe Illustrator 24.0.0, SVG Export Plug-In . SVG Version: 6.00 Build 0)  -->
<svg version="1.1" id="Layer_1" xmlns="http://www.w3.org/2000/svg" xmlns:xlink="http://www.w3.org/1999/xlink" x="0px" y="0px"
	 viewBox="0 0 512 512" style="enable-background:new 0 0 512 512;" xml:space="preserve">
<title>ionicons-v5-k</title>
<g>
	<path d="M256,480c-49.6,0-78.5-16-101.1-32H96c-44.1,0-80-35.9-80-80v-48c0-44.1,35.9-80,80-80h30c5.3,0,10.3-2.7,13.3-7.2
		c2.2-4.7,11.8-24.3,34.8-64.1c14.9-25.8,37.3-58.6,55.3-85c12.9-19,25.2-36.9,28.2-42.9c2.7-5.4,8.2-8.8,14.3-8.8
		c19,0,34.6,7.3,44.1,20.6c9.3,13.2,11.2,30.8,5,48.4c-3,8.5-6.2,16.5-9.2,24.3c-7.1,17.8-13.8,34.8-16.7,54.1l122.1,9.6
		c8.8,0.7,15.4,8.4,14.7,17.2s-8.4,15.4-17.2,14.7l-129.1-10.2c-5.9-0.2-11.5-3-15.8-7.8c-5.3-6-8.1-14.4-7.2-22
		c3-25.8,11.3-47,19.5-67.5c3-7.5,6-15.3,8.8-23.1c2.7-7.8,2.4-14.6-0.9-19.3c-2-2.9-5.3-4.9-9.4-6.1c-5.3,8.3-13.3,20.2-24.6,36.8
		c-17.7,26-39.8,58.3-54.1,83c-25.1,43.6-33.9,62.3-34,62.5c-0.3,0.6-0.6,1.1-0.9,1.7c-8.8,14.3-24.1,22.9-40.9,23H96
		c-26.5,0-48,21.5-48,48v48c0,26.5,21.5,48,48,48h64c3.4,0,6.7,1.1,9.4,3.1c21,15.2,43.4,28.9,86.6,28.9c43.1,0,58.6-4.9,58.8-5
		l-0.3,0.1l11,30.1C323.6,473.9,305.4,480,256,480z"/>
</g>
<g>
	<path d="M416,287l-0.4,0l-80.5-2l-0.5,0c-28.7-2.6-46.5-20.2-46.5-45.9c0-25.3,19.3-44.2,47-46l0.2,0l80.4-4h0.4
		c26,0,48,22.9,48,50v0.2C463.9,265.6,442.3,287,416,287z M337,253l79.2,2c8.7-0.1,15.8-7.2,15.8-15.9V239c0-9.1-7.6-17.8-15.7-18
		l-79.4,4c-3.1,0.2-16.9,1.9-16.9,14C320,242.7,320,251.3,337,253z"/>
</g>
<g>
	<path d="M447.9,352l-112.6-2c-27.4-1.3-47.3-20.6-47.3-46c0-25.3,19.3-44.2,47-46l0.7,0l112.2-2l0.2,0c26.4,0.1,47.9,21.6,48,48
		c-0.1,26.5-21.6,48-48,48H447.9z M336.6,318l111.5,2c8.8-0.1,15.9-7.3,15.9-16c0-8.7-7.2-15.8-15.9-15.9l-111.4,2
		c-3.4,0.3-16.7,2.1-16.7,14C320,316.3,333.4,317.8,336.6,318z"/>
</g>
<g>
	<path d="M399.6,480l-65-3.1c-42.1-3.7-46.6-32.7-46.6-44.9c0-25.7,20.9-45.9,47.7-46l64-2l0.3,0c26.4,0.1,47.9,21.6,48,48
		c-0.1,26.5-21.6,48-48,48L399.6,480z M337.1,445l63.2,3c8.7-0.2,15.7-7.3,15.7-16c0-8.7-7.1-15.8-15.8-16l-64.2,2
		c-8,0-16,4.8-16,14C320,437.1,320,443.5,337.1,445z"/>
</g>
<g>
	<path d="M431.9,416l-96.6-2c-27.8-1.2-47.3-20.1-47.3-46c0-25.8,18.9-44.3,47-46l0.6,0l96.4-2c26.4,0.1,47.9,21.6,48,48
		c-0.1,26.5-21.6,48-48,48H431.9z M336.5,382l95.6,2c8.8-0.1,15.9-7.3,15.9-16c0-8.7-7.1-15.8-15.9-16l-95.4,2
		c-13.8,0.9-16.7,8.1-16.7,14C320,379.4,330.3,381.7,336.5,382z"/>
</g>
</svg>
