<?xml version="1.0" encoding="utf-8"?>
<!-- Generator: Adobe Illustrator 24.0.0, SVG Export Plug-In . SVG Version: 6.00 Build 0)  -->
<svg version="1.1" id="Layer_1" xmlns="http://www.w3.org/2000/svg" xmlns:xlink="http://www.w3.org/1999/xlink" x="0px" y="0px"
	 viewBox="0 0 512 512" style="enable-background:new 0 0 512 512;" xml:space="preserve">
<title>ionicons-v5-k</title>
<g>
	<path d="M240,480c-19,0-34.6-7.3-44.1-20.6c-9.4-13.2-11.2-30.8-5-48.4c3-8.5,6.2-16.5,9.2-24.3c7.1-17.8,13.8-34.8,16.7-54.1
		L94.7,323c-8.8-0.7-15.4-8.4-14.7-17.2c0.7-8.8,8.4-15.4,17.2-14.7l129,10.2c5.9,0.2,11.5,3,15.8,7.8c5.3,6,8.1,14.4,7.2,22
		c-3,25.8-11.4,47-19.5,67.5c-3,7.5-6,15.3-8.8,23.1c-2.7,7.8-2.4,14.6,0.9,19.3c2,2.9,5.3,4.9,9.4,6.1c5.3-8.3,13.3-20.2,24.6-36.8
		c17.7-26,39.8-58.3,54.1-83c25.1-43.6,33.9-62.3,34-62.5c0.3-0.6,0.6-1.1,0.9-1.7c8.8-14.3,24.1-22.9,40.9-23l30.1,0
		c26.5,0,48-21.5,48-48v-48c0-26.5-21.5-48-48-48h-64c-3.4,0-6.7-1.1-9.4-3.1C321.6,77.7,299.2,64,256,64c-43.1,0-58.6,4.9-58.8,5
		l0.3-0.1l-11-30.1c1.9-0.7,20.1-6.8,69.5-6.8c49.6,0,78.5,16,101.1,32H416c44.1,0,80,35.9,80,80v48c0,44.1-35.9,80-80,80h-30
		c-5.3,0-10.3,2.7-13.3,7.2c-2.2,4.6-11.8,24.3-34.8,64.1c-14.9,25.8-37.3,58.6-55.3,85c-12.9,19-25.2,36.9-28.2,42.9
		C251.6,476.6,246.1,480,240,480z"/>
</g>
<g>
	<path d="M96.4,323H96c-26,0-48-22.9-48-50v-0.2c0.1-26.4,21.7-47.8,48-47.8l0.4,0l80.5,2l0.5,0c28.7,2.6,46.5,20.2,46.5,45.9
		c0,25.3-19.3,44.2-47,46l-0.2,0L96.4,323z M95.8,257c-8.7,0.1-15.8,7.2-15.8,15.9v0.1c0,9.1,7.6,17.8,15.7,18l79.4-4
		c3.1-0.2,16.9-1.9,16.9-14c0-3.7,0-12.3-17-14L95.8,257z"/>
</g>
<g>
	<path d="M64.1,256l-0.2,0c-26.4-0.1-47.9-21.6-48-48c0.1-26.5,21.6-48,48-48l0.2,0l112.6,2c27.4,1.3,47.3,20.6,47.3,46
		c0,25.3-19.3,44.2-47,46l-0.7,0L64.1,256z M63.9,192c-8.8,0.1-15.9,7.3-15.9,16c0,8.7,7.2,15.8,15.9,15.9l111.4-2
		c3.4-0.3,16.7-2.1,16.7-14c0-12.3-13.4-13.8-16.6-14L63.9,192z"/>
</g>
<g>
	<path d="M112.2,128l-0.3,0c-26.4-0.1-47.9-21.6-48-48c0.1-26.5,21.6-48,48-48l0.4,0l65,3.1C219.5,38.7,224,67.7,224,80
		c0,25.7-20.9,45.9-47.7,46L112.2,128z M111.7,64C103,64.2,96,71.3,96,80c0,8.7,7.1,15.8,15.8,16l64.2-2c8,0,16-4.8,16-14
		c0-5.1,0-11.5-17.1-13L111.7,64z"/>
</g>
<g>
	<path d="M80.1,192l-0.2,0c-26.4-0.1-47.9-21.6-48-48c0.1-26.5,21.6-48,48-48l0.2,0l96.6,2c27.8,1.2,47.3,20.1,47.3,46
		c0,25.8-18.9,44.3-47,46l-0.6,0L80.1,192z M79.9,128c-8.8,0.1-15.9,7.3-15.9,16c0,8.7,7.1,15.8,15.9,16l95.4-2
		c13.8-0.9,16.7-8.1,16.7-14c0-11.4-10.3-13.7-16.5-14L79.9,128z"/>
</g>
</svg>
