<?xml version="1.0" encoding="UTF-8" standalone="no"?>
<svg
   xmlns:dc="http://purl.org/dc/elements/1.1/"
   xmlns:cc="http://creativecommons.org/ns#"
   xmlns:rdf="http://www.w3.org/1999/02/22-rdf-syntax-ns#"
   xmlns:svg="http://www.w3.org/2000/svg"
   xmlns="http://www.w3.org/2000/svg"
   xmlns:sodipodi="http://sodipodi.sourceforge.net/DTD/sodipodi-0.dtd"
   xmlns:inkscape="http://www.inkscape.org/namespaces/inkscape"
   class="ionicon"
   viewBox="0 0 512 512"
   version="1.1"
   id="svg8"
   sodipodi:docname="thunderstorm.svg"
   inkscape:version="1.0.2 (e86c8708, 2021-01-15)">
  <metadata
     id="metadata14">
    <rdf:RDF>
      <cc:Work
         rdf:about="">
        <dc:format>image/svg+xml</dc:format>
        <dc:type
           rdf:resource="http://purl.org/dc/dcmitype/StillImage" />
      </cc:Work>
    </rdf:RDF>
  </metadata>
  <defs
     id="defs12" />
  <sodipodi:namedview
     pagecolor="#ffffff"
     bordercolor="#666666"
     borderopacity="1"
     objecttolerance="10"
     gridtolerance="10"
     guidetolerance="10"
     inkscape:pageopacity="0"
     inkscape:pageshadow="2"
     inkscape:window-width="689"
     inkscape:window-height="480"
     id="namedview10"
     showgrid="false"
     inkscape:zoom="1.3027344"
     inkscape:cx="256"
     inkscape:cy="256"
     inkscape:window-x="44"
     inkscape:window-y="25"
     inkscape:window-maximized="0"
     inkscape:current-layer="svg8" />
  <title
     id="title2">Thunderstorm</title>
  <path
     style="color:#000000;font-style:normal;font-variant:normal;font-weight:normal;font-stretch:normal;font-size:medium;line-height:normal;font-family:sans-serif;font-variant-ligatures:normal;font-variant-position:normal;font-variant-caps:normal;font-variant-numeric:normal;font-variant-alternates:normal;font-variant-east-asian:normal;font-feature-settings:normal;font-variation-settings:normal;text-indent:0;text-align:start;text-decoration:none;text-decoration-line:none;text-decoration-style:solid;text-decoration-color:#000000;letter-spacing:normal;word-spacing:normal;text-transform:none;writing-mode:lr-tb;direction:ltr;text-orientation:mixed;dominant-baseline:auto;baseline-shift:baseline;text-anchor:start;white-space:normal;shape-padding:0;shape-margin:0;inline-size:0;clip-rule:nonzero;display:inline;overflow:visible;visibility:visible;isolation:auto;mix-blend-mode:normal;color-interpolation:sRGB;color-interpolation-filters:linearRGB;solid-color:#000000;solid-opacity:1;vector-effect:none;fill:#000000;fill-opacity:1;fill-rule:nonzero;stroke-width:1;stroke-linecap:butt;stroke-linejoin:miter;stroke-miterlimit:4;stroke-dasharray:none;stroke-dashoffset:0;stroke-opacity:1;color-rendering:auto;image-rendering:auto;shape-rendering:auto;text-rendering:auto;enable-background:accumulate;stop-color:#000000;stop-opacity:1;stroke:none;opacity:1"
     d="m 96,416 c -11.892618,-0.006 -19.621949,-12.52462 -14.3,-23.16 l 24,-48 c 3.95436,-7.9032 13.5668,-11.10435 21.47,-7.14999 7.90319,3.95435 11.10436,13.56679 7.15,21.46999 l -24,48 c -2.71303,5.42172 -8.25737,8.84434 -14.32,8.84 z m 24,64 c -11.89262,-0.006 -19.62195,-12.52462 -14.3,-23.16 l 16,-32 c 3.95436,-7.9032 13.5668,-11.10435 21.47,-7.14999 7.90319,3.95435 11.10436,13.56679 7.15,21.46999 l -16,32 c -2.71303,5.42172 -8.25737,8.84434 -14.32,8.84 z m 256,-64 c -11.89262,-0.006 -19.62195,-12.52462 -14.3,-23.16 l 24,-48 c 3.95436,-7.9032 13.5668,-11.10435 21.47,-7.14999 7.90319,3.95436 11.10436,13.56679 7.15,21.46999 l -24,48 c -2.71303,5.42172 -8.25737,8.84434 -14.32,8.84 z m 24,64 c -11.89262,-0.006 -19.62195,-12.52462 -14.3,-23.16 l 16,-32 c 3.95436,-7.9032 13.5668,-11.10435 21.47,-7.14999 7.90319,3.95436 11.10436,13.56679 7.15,21.46999 l -16,32 c -2.71303,5.42172 -8.25737,8.84434 -14.32,8.84 z"
     id="path4" />
  <path
     style="color:#000000;font-style:normal;font-variant:normal;font-weight:normal;font-stretch:normal;font-size:medium;line-height:normal;font-family:sans-serif;font-variant-ligatures:normal;font-variant-position:normal;font-variant-caps:normal;font-variant-numeric:normal;font-variant-alternates:normal;font-variant-east-asian:normal;font-feature-settings:normal;font-variation-settings:normal;text-indent:0;text-align:start;text-decoration:none;text-decoration-line:none;text-decoration-style:solid;text-decoration-color:#000000;letter-spacing:normal;word-spacing:normal;text-transform:none;writing-mode:lr-tb;direction:ltr;text-orientation:mixed;dominant-baseline:auto;baseline-shift:baseline;text-anchor:start;white-space:normal;shape-padding:0;shape-margin:0;inline-size:0;clip-rule:nonzero;display:inline;overflow:visible;visibility:visible;isolation:auto;mix-blend-mode:normal;color-interpolation:sRGB;color-interpolation-filters:linearRGB;solid-color:#000000;solid-opacity:1;vector-effect:none;fill:#000000;fill-opacity:1;fill-rule:nonzero;stroke-width:1;stroke-linecap:butt;stroke-linejoin:miter;stroke-miterlimit:4;stroke-dasharray:none;stroke-dashoffset:0;stroke-opacity:1;color-rendering:auto;image-rendering:auto;shape-rendering:auto;text-rendering:auto;enable-background:accumulate;stop-color:#000000;stop-opacity:1;stroke:none;opacity:1"
     d="M 405.84,136.9 C 399.15218,105.20743 382.46689,76.498922 358.24,55 321.79437,22.395971 271.95947,9.1773718 224.14573,19.431788 176.33199,29.686204 136.30043,62.178097 116.43,106.86 60.5,110.16 16,156.65 16,213.33 16,272.15 63.91,320 122.8,320 h 66.31 l -12.89,77.37 c -1.625,9.75145 5.89408,18.62854 15.78,18.63 h 32 v 64 c 0.0265,15.53415 19.94421,21.92154 29,9.3 l 80,-112 c 7.55923,-10.58258 0.005,-25.28408 -13,-25.3 h -27.51 l 8,-32 h 103.84 c 50.12881,-0.20145 90.77552,-40.67672 91.18891,-90.8042 C 495.93231,179.06831 455.95867,137.92817 405.84,136.9 Z"
     id="path6" />
</svg>
