<?xml version="1.0" encoding="UTF-8"?>
<svg width="512px" height="512px" viewBox="0 0 512 512" version="1.1" xmlns="http://www.w3.org/2000/svg" xmlns:xlink="http://www.w3.org/1999/xlink">
    <!-- Generator: Sketch 62 (91390) - https://sketch.com -->
    <title>Artboard</title>
    <desc>Created with Sketch.</desc>
    <g id="Artboard" stroke="none" stroke-width="1" fill="none" fill-rule="evenodd">
        <g id="thunderstorm-sharp" transform="translate(16.000000, 16.000000)" fill="#000000" fill-rule="nonzero">
            <path d="M208.14573,3.43178801 C255.959468,-6.8226283 305.794372,6.39597115 342.24,39 C366.466888,60.4989222 383.152177,89.2074332 389.84,120.9 C439.958641,121.928173 479.932343,163.068314 479.522126,213.195796 C479.105555,263.323278 438.458781,303.798554 388.33,304 L388.33,304 L284.49,304 L276.49,336 L320,336 L208,480 L208,400 L160,400 L179.11,304 L106.8,304 C47.91,304 0,256.15 0,197.33 C0,140.65 44.5,94.16 100.43,90.86 C120.300431,46.1780967 160.331993,13.6862043 208.14573,3.43178801 Z M392.859211,394.578286 L421.479645,408.891593 L391.162271,469.513249 L362.541837,455.199942 L392.859211,394.578286 Z M112.837774,394.567082 L141.458207,408.88039 L111.140834,469.502046 L82.5203998,455.188739 L112.837774,394.567082 Z M376.860671,314.566338 L405.481105,328.879645 L367.161698,405.501913 L338.541264,391.188606 L376.860671,314.566338 Z M96.8492333,314.555135 L125.469667,328.868442 L87.1502603,405.49071 L58.5298263,391.177403 L96.8492333,314.555135 Z" id="Combined-Shape"></path>
        </g>
    </g>
</svg>