<?xml version="1.0" encoding="utf-8"?>
<!-- Generator: Adobe Illustrator 24.0.0, SVG Export Plug-In . SVG Version: 6.00 Build 0)  -->
<svg version="1.1" id="Layer_1" xmlns="http://www.w3.org/2000/svg" xmlns:xlink="http://www.w3.org/1999/xlink" x="0px" y="0px"
	 viewBox="0 0 512 512" style="enable-background:new 0 0 512 512;" xml:space="preserve">
<title>ionicons-v5-k</title>
<g>
	<path d="M96,416c-2.4,0-4.8-0.5-7.1-1.7c-7.9-4-11.1-13.6-7.2-21.5l24-48c4-7.9,13.6-11.1,21.5-7.2c7.9,4,11.1,13.6,7.2,21.5
		l-24,48C107.5,412.8,101.9,416,96,416z"/>
</g>
<g>
	<path d="M120,480c-2.4,0-4.8-0.5-7.1-1.7c-7.9-4-11.1-13.6-7.2-21.5l16-32c4-7.9,13.6-11.1,21.5-7.2c7.9,4,11.1,13.6,7.2,21.5
		l-16,32C131.5,476.8,125.9,480,120,480z"/>
</g>
<g>
	<path d="M376,416c-2.4,0-4.8-0.5-7.1-1.7c-7.9-4-11.1-13.6-7.2-21.5l24-48c4-7.9,13.6-11.1,21.5-7.2c7.9,4,11.1,13.6,7.2,21.5
		l-24,48C387.5,412.8,381.9,416,376,416z"/>
</g>
<g>
	<path d="M400,480c-2.4,0-4.8-0.5-7.1-1.7c-7.9-4-11.1-13.6-7.2-21.5l16-32c4-7.9,13.6-11.1,21.5-7.2s11.1,13.6,7.2,21.5l-16,32
		C411.5,476.8,405.9,480,400,480z"/>
</g>
<g>
	<path d="M240,496c-1.6,0-3.3-0.2-4.9-0.8c-6.6-2.1-11.1-8.3-11.1-15.2v-64h-32c-4.7,0-9.2-2.1-12.2-5.7s-4.3-8.3-3.6-13l16-96
		c1.5-8.7,9.7-14.6,18.4-13.2c8.7,1.5,14.6,9.7,13.2,18.4L210.9,384H240c8.8,0,16,7.2,16,16v30.1l32.9-46.1H272
		c-4.9,0-9.6-2.3-12.6-6.2s-4.1-8.9-2.9-13.7l16-64c2.1-8.6,10.8-13.8,19.4-11.6c8.6,2.1,13.8,10.8,11.6,19.4l-11,44.1H320
		c6,0,11.5,3.3,14.2,8.7s2.3,11.7-1.2,16.6l-80,112C250,493.6,245.1,496,240,496z"/>
</g>
<g>
	<path d="M404.3,320H122.8C63.9,320,16,272.1,16,213.3c0-56.7,44.5-103.2,100.5-106.5C140.6,52.1,195.3,16,255.9,16
		c0.1,0,0.1,0,0.1,0c37.7,0,74,13.8,102.2,39c24.4,21.8,41,50.5,47.6,81.9c49.9,0.8,90.2,41.6,90.2,91.5
		C496,278.9,454.9,320,404.3,320z M122.8,138.7c-41.2,0-74.8,33.5-74.8,74.7c0,41.2,33.6,74.7,74.8,74.7h281.5
		c32.9,0,59.7-26.7,59.7-59.6c0-32.8-26.8-59.5-59.7-59.5h-12.1c-8.2,0-15-6.1-15.9-14.2c-3.2-29.1-17.2-56-39.4-75.8
		C314.6,59,285.9,48,256,48c0,0-0.1,0-0.1,0c-50.8,0-96.4,32.1-113.4,80c-2.3,6.4-8.3,10.6-15.1,10.6H122.8z"/>
</g>
</svg>
