<?xml version="1.0" encoding="UTF-8" standalone="no"?>
<svg
   xmlns:dc="http://purl.org/dc/elements/1.1/"
   xmlns:cc="http://creativecommons.org/ns#"
   xmlns:rdf="http://www.w3.org/1999/02/22-rdf-syntax-ns#"
   xmlns:svg="http://www.w3.org/2000/svg"
   xmlns="http://www.w3.org/2000/svg"
   xmlns:sodipodi="http://sodipodi.sourceforge.net/DTD/sodipodi-0.dtd"
   xmlns:inkscape="http://www.inkscape.org/namespaces/inkscape"
   class="ionicon"
   viewBox="0 0 512 512"
   version="1.1"
   id="svg6"
   sodipodi:docname="ticket.svg"
   inkscape:version="1.0.2 (e86c8708, 2021-01-15)">
  <metadata
     id="metadata12">
    <rdf:RDF>
      <cc:Work
         rdf:about="">
        <dc:format>image/svg+xml</dc:format>
        <dc:type
           rdf:resource="http://purl.org/dc/dcmitype/StillImage" />
      </cc:Work>
    </rdf:RDF>
  </metadata>
  <defs
     id="defs10" />
  <sodipodi:namedview
     pagecolor="#ffffff"
     bordercolor="#666666"
     borderopacity="1"
     objecttolerance="10"
     gridtolerance="10"
     guidetolerance="10"
     inkscape:pageopacity="0"
     inkscape:pageshadow="2"
     inkscape:window-width="689"
     inkscape:window-height="480"
     id="namedview8"
     showgrid="false"
     inkscape:zoom="1.3027344"
     inkscape:cx="256"
     inkscape:cy="256"
     inkscape:window-x="44"
     inkscape:window-y="25"
     inkscape:window-maximized="0"
     inkscape:current-layer="svg6" />
  <title
     id="title2">Ticket</title>
  <path
     style="color:#000000;font-style:normal;font-variant:normal;font-weight:normal;font-stretch:normal;font-size:medium;line-height:normal;font-family:sans-serif;font-variant-ligatures:normal;font-variant-position:normal;font-variant-caps:normal;font-variant-numeric:normal;font-variant-alternates:normal;font-variant-east-asian:normal;font-feature-settings:normal;font-variation-settings:normal;text-indent:0;text-align:start;text-decoration:none;text-decoration-line:none;text-decoration-style:solid;text-decoration-color:#000000;letter-spacing:normal;word-spacing:normal;text-transform:none;writing-mode:lr-tb;direction:ltr;text-orientation:mixed;dominant-baseline:auto;baseline-shift:baseline;text-anchor:start;white-space:normal;shape-padding:0;shape-margin:0;inline-size:0;clip-rule:nonzero;display:inline;overflow:visible;visibility:visible;isolation:auto;mix-blend-mode:normal;color-interpolation:sRGB;color-interpolation-filters:linearRGB;solid-color:#000000;solid-opacity:1;vector-effect:none;fill:#000000;fill-opacity:1;fill-rule:nonzero;stroke-width:1;stroke-linecap:butt;stroke-linejoin:miter;stroke-miterlimit:4;stroke-dasharray:none;stroke-dashoffset:0;stroke-opacity:1;color-rendering:auto;image-rendering:auto;shape-rendering:auto;text-rendering:auto;enable-background:accumulate;stop-color:#000000;stop-opacity:1;stroke:none;opacity:1"
     d="m 490.18,181.4 -44.13,-44.13 c -7.38047,-7.28098 -19.10116,-7.71508 -27,-1 -12.19709,10.38188 -30.3147,9.68639 -41.68,-1.6 -11.28032,-11.36398 -11.9757,-29.47449 -1.6,-41.67 6.71508,-7.898842 6.28098,-19.61953 -1,-27 L 330.6,21.82 c -7.77224,-7.757361 -20.35776,-7.757361 -28.13,0 l -70.35,70.34 c -4.34338,4.35893 -7.61887,9.66405 -9.57,15.5 -0.77007,2.27426 -2.55574,4.05993 -4.83,4.83 -5.83829,1.95106 -11.14414,5.23042 -15.5,9.58 l -180.4,180.4 c -7.757361,7.77224 -7.757361,20.35776 0,28.13 L 66,374.73 c 7.38047,7.28098 19.101158,7.71508 27,1 12.17337,-10.47047 30.35981,-9.78758 41.7137,1.5663 11.35388,11.35389 12.03677,29.54033 1.5663,41.7137 -6.71508,7.89884 -6.28098,19.61953 1,27 l 44.13,44.13 c 7.77224,7.75736 20.35776,7.75736 28.13,0 l 180.4,-180.4 c 4.34712,-4.3539 7.62622,-9.6559 9.58,-15.49 0.76681,-2.28198 2.55802,-4.07319 4.84,-4.84 5.83284,-1.95153 11.13462,-5.22707 15.49,-9.57 l 70.34,-70.35 c 7.72802,-7.77037 7.72355,-20.32514 -0.01,-28.09 z M 261.81,151.75 c -6.24868,6.25011 -16.38132,6.25011 -22.63,0 l -11.51,-11.51 c -6.0915,-6.27498 -6.01618,-16.27828 0.1691,-22.46083 6.18528,-6.18254 16.18862,-6.25344 22.4609,-0.15917 l 11.51,11.5 c 6.25011,6.24868 6.25011,16.38132 0,22.63 z m 44,44 c -6.24754,6.24345 -16.37246,6.24345 -22.62,0 l -11,-11 c -6.24911,-6.24911 -6.2491,-16.38089 0,-22.63 6.24911,-6.2491 16.38089,-6.24911 22.63,0 l 11,11 c 6.2729,6.24933 6.27738,16.40514 0.01,22.66 z m 44,44 c -6.24868,6.25011 -16.38132,6.25011 -22.63,0 l -11,-11 c -6.0915,-6.27498 -6.01618,-16.27828 0.1691,-22.46083 6.18528,-6.18254 16.18862,-6.25344 22.4609,-0.15917 l 11,11 c 6.29064,6.23938 6.31306,16.40294 0.05,22.67 z m 44.43,44.54 c -6.24868,6.25011 -16.38132,6.25011 -22.63,0 l -11.44,-11.5 c -6.38735,-6.23609 -6.43632,-16.49282 -0.10883,-22.78963 6.32749,-6.2968 16.58387,-6.19796 22.78883,0.21963 l 11.45,11.49 c 6.24735,6.25145 6.24287,16.38408 -0.01,22.63 z"
     id="path4" />
</svg>
