<?xml version="1.0" encoding="UTF-8" standalone="no"?>
<svg
   xmlns:dc="http://purl.org/dc/elements/1.1/"
   xmlns:cc="http://creativecommons.org/ns#"
   xmlns:rdf="http://www.w3.org/1999/02/22-rdf-syntax-ns#"
   xmlns:svg="http://www.w3.org/2000/svg"
   xmlns="http://www.w3.org/2000/svg"
   xmlns:sodipodi="http://sodipodi.sourceforge.net/DTD/sodipodi-0.dtd"
   xmlns:inkscape="http://www.inkscape.org/namespaces/inkscape"
   class="ionicon"
   viewBox="0 0 512 512"
   version="1.1"
   id="svg8"
   sodipodi:docname="ticket-outline.svg"
   inkscape:version="1.0.2 (e86c8708, 2021-01-15)">
  <metadata
     id="metadata14">
    <rdf:RDF>
      <cc:Work
         rdf:about="">
        <dc:format>image/svg+xml</dc:format>
        <dc:type
           rdf:resource="http://purl.org/dc/dcmitype/StillImage" />
      </cc:Work>
    </rdf:RDF>
  </metadata>
  <defs
     id="defs12" />
  <sodipodi:namedview
     pagecolor="#ffffff"
     bordercolor="#666666"
     borderopacity="1"
     objecttolerance="10"
     gridtolerance="10"
     guidetolerance="10"
     inkscape:pageopacity="0"
     inkscape:pageshadow="2"
     inkscape:window-width="689"
     inkscape:window-height="480"
     id="namedview10"
     showgrid="false"
     inkscape:zoom="1.3027344"
     inkscape:cx="256"
     inkscape:cy="256"
     inkscape:window-x="44"
     inkscape:window-y="25"
     inkscape:window-maximized="0"
     inkscape:current-layer="svg8" />
  <title
     id="title2">Ticket</title>
  <path
     style="color:#000000;font-style:normal;font-variant:normal;font-weight:normal;font-stretch:normal;font-size:medium;line-height:normal;font-family:sans-serif;font-variant-ligatures:normal;font-variant-position:normal;font-variant-caps:normal;font-variant-numeric:normal;font-variant-alternates:normal;font-variant-east-asian:normal;font-feature-settings:normal;font-variation-settings:normal;text-indent:0;text-align:start;text-decoration:none;text-decoration-line:none;text-decoration-style:solid;text-decoration-color:#000000;letter-spacing:normal;word-spacing:normal;text-transform:none;writing-mode:lr-tb;direction:ltr;text-orientation:mixed;dominant-baseline:auto;baseline-shift:baseline;text-anchor:start;white-space:normal;shape-padding:0;shape-margin:0;inline-size:0;clip-rule:nonzero;display:inline;overflow:visible;visibility:visible;isolation:auto;mix-blend-mode:normal;color-interpolation:sRGB;color-interpolation-filters:linearRGB;solid-color:#000000;solid-opacity:1;vector-effect:none;fill:currentColor;fill-opacity:1;fill-rule:nonzero;stroke:none;stroke-linecap:butt;stroke-linejoin:miter;stroke-miterlimit:10;stroke-dasharray:none;stroke-dashoffset:0;stroke-opacity:1;color-rendering:auto;image-rendering:auto;shape-rendering:auto;text-rendering:auto;enable-background:accumulate;stop-color:#000000;stop-opacity:1;opacity:1"
     d="M 316.5293 16.101562 C 311.407 16.101562 306.28522 18.009544 302.46875 21.824219 L 302.4668 21.824219 L 232.12695 92.166016 C 227.77446 96.517669 224.49573 101.82468 222.55078 107.66406 L 222.54492 107.67773 L 222.54102 107.69141 C 221.77819 109.99555 220.00275 111.77636 217.70117 112.54688 L 217.72266 112.54102 C 211.88686 114.48561 206.58034 117.76007 202.22656 122.10547 L 202.22266 122.10938 L 21.826172 302.4668 L 21.824219 302.46875 C 14.194869 310.10168 14.194869 322.95887 21.824219 330.5918 L 65.90625 374.67383 C 73.121246 381.95277 85.116444 382.45377 92.914062 375.80273 L 92.933594 375.78516 L 92.955078 375.76758 C 105.24236 365.21502 123.19758 365.8968 134.65039 377.34961 C 146.1032 388.80242 146.78498 406.75764 136.23242 419.04492 L 136.21484 419.06641 L 136.19727 419.08594 C 129.54623 426.88356 130.04723 438.87875 137.32617 446.09375 L 181.4082 490.17578 C 189.04113 497.80513 201.89832 497.80513 209.53125 490.17578 L 389.93945 309.7793 L 389.94531 309.77344 C 394.29071 305.41966 397.56517 300.11314 399.50977 294.27734 L 399.51367 294.26367 L 399.51953 294.24805 C 400.28236 291.9439 402.05779 290.16309 404.35938 289.39258 L 404.33594 289.40039 C 410.17491 287.45558 415.4825 284.17625 419.83398 279.82422 L 419.83594 279.82227 L 490.17578 209.48242 L 490.17578 209.48047 C 497.80513 201.84754 497.80513 188.99231 490.17578 181.35938 L 490.17578 181.35742 L 446.09375 137.27539 L 446.08203 137.26562 C 438.86586 129.99719 426.87962 129.4988 419.08594 136.14648 L 419.06055 136.16797 L 419.03516 136.19141 C 406.76567 146.74749 388.82503 146.09321 377.35547 134.67578 C 365.91843 123.22388 365.2371 105.28263 375.77539 92.996094 L 375.78906 92.980469 L 375.80273 92.962891 C 382.45377 85.165272 381.95277 73.172028 374.67383 65.957031 L 330.5957 21.828125 L 330.5918 21.824219 C 326.77533 18.009544 321.65159 16.101562 316.5293 16.101562 z M 316.52539 53.023438 L 344.91992 81.451172 C 330.91514 105.56995 334.4033 136.97472 354.73438 157.3125 L 354.74609 157.32227 L 354.75586 157.33398 C 375.11853 177.62373 406.51305 181.06784 430.60547 167.04297 L 458.98242 195.41992 L 397.20508 257.19727 C 396.36772 258.03484 395.34827 258.6648 394.22461 259.03906 L 394.21289 259.04297 L 394.20117 259.04688 C 382.36715 263.00862 373.06284 272.34422 369.14062 284.19141 L 369.15039 284.16211 C 368.77306 285.29449 368.1381 286.32316 367.29492 287.16797 L 195.4707 458.98438 L 167.08789 430.59961 C 181.10514 406.4801 177.61793 375.06324 157.27734 354.72266 C 136.93676 334.38207 105.5199 330.89486 81.400391 344.91211 L 53.019531 316.53125 L 224.83203 144.75391 C 225.67684 143.91072 226.70551 143.27772 227.83789 142.90039 L 227.84961 142.89648 L 227.85938 142.89258 C 239.68416 138.93392 248.98262 129.60941 252.91016 117.77539 C 253.28442 116.65173 253.91438 115.63228 254.75195 114.79492 L 254.75391 114.79492 L 316.52539 53.023438 z M 439.9043 160.44922 L 439.85352 160.49414 C 439.84645 160.50017 439.83715 160.50181 439.83008 160.50781 C 439.85423 160.48709 439.88016 160.46998 439.9043 160.44922 z M 72.162109 351.44922 C 72.143945 351.46478 72.12362 351.4766 72.105469 351.49219 L 72.146484 351.45703 C 72.151028 351.45316 72.157561 351.45309 72.162109 351.44922 z M 160.55078 439.83789 C 160.54691 439.84244 160.54684 439.84897 160.54297 439.85352 L 160.50781 439.89453 C 160.5234 439.87638 160.53522 439.85606 160.55078 439.83789 z "
     id="path4" />
  <path
     style="color:#000000;font-style:normal;font-variant:normal;font-weight:normal;font-stretch:normal;font-size:medium;line-height:normal;font-family:sans-serif;font-variant-ligatures:normal;font-variant-position:normal;font-variant-caps:normal;font-variant-numeric:normal;font-variant-alternates:normal;font-variant-east-asian:normal;font-feature-settings:normal;font-variation-settings:normal;text-indent:0;text-align:start;text-decoration:none;text-decoration-line:none;text-decoration-style:solid;text-decoration-color:#000000;letter-spacing:normal;word-spacing:normal;text-transform:none;writing-mode:lr-tb;direction:ltr;text-orientation:mixed;dominant-baseline:auto;baseline-shift:baseline;text-anchor:start;white-space:normal;shape-padding:0;shape-margin:0;inline-size:0;clip-rule:nonzero;display:inline;overflow:visible;visibility:visible;isolation:auto;mix-blend-mode:normal;color-interpolation:sRGB;color-interpolation-filters:linearRGB;solid-color:#000000;solid-opacity:1;vector-effect:none;fill:currentColor;fill-opacity:1;fill-rule:nonzero;stroke:none;stroke-linecap:round;stroke-linejoin:miter;stroke-miterlimit:10;stroke-dasharray:none;stroke-dashoffset:0;stroke-opacity:1;color-rendering:auto;image-rendering:auto;shape-rendering:auto;text-rendering:auto;enable-background:accumulate;stop-color:#000000;stop-opacity:1;opacity:1"
     d="M 234.11133 107.92969 A 16 16 0 0 0 222.67578 112.61719 A 16 16 0 0 0 222.67578 135.24414 L 239.18555 151.75391 A 16 16 0 0 0 261.81445 151.75391 A 16 16 0 0 0 261.81445 129.12695 L 245.30273 112.61719 A 16 16 0 0 0 234.11133 107.92969 z M 283.28711 157.46094 A 16 16 0 0 0 272.19141 162.15234 A 16 16 0 0 0 272.20117 184.7793 L 283.21094 195.7793 A 16 16 0 0 0 305.83789 195.76953 A 16 16 0 0 0 305.82812 173.14062 L 294.81836 162.14062 A 16 16 0 0 0 283.28711 157.46094 z M 327.33203 201.48047 A 16 16 0 0 0 316.23047 206.16211 A 16 16 0 0 0 316.2207 228.78906 L 327.2207 239.79883 A 16 16 0 0 0 349.84766 239.80859 A 16 16 0 0 0 349.85938 217.18164 L 338.85938 206.17188 A 16 16 0 0 0 327.33203 201.48047 z M 371.68164 245.5 A 16 16 0 0 0 360.24609 250.18555 A 16 16 0 0 0 360.24609 272.81445 L 376.75586 289.32422 A 16 16 0 0 0 399.38281 289.32422 A 16 16 0 0 0 399.38281 266.69727 L 382.87305 250.18555 A 16 16 0 0 0 371.68164 245.5 z "
     id="path6" />
</svg>
