<?xml version="1.0" encoding="utf-8"?>
<!-- Generator: Adobe Illustrator 24.0.0, SVG Export Plug-In . SVG Version: 6.00 Build 0)  -->
<svg version="1.1" id="Layer_1" xmlns="http://www.w3.org/2000/svg" xmlns:xlink="http://www.w3.org/1999/xlink" x="0px" y="0px"
	 viewBox="0 0 512 512" style="enable-background:new 0 0 512 512;" xml:space="preserve">
<title>ionicons-v5-g</title>
<g>
	<path d="M256.4,464c-0.1,0-0.3,0-0.4,0c-55.9-0.1-108.4-22.2-147.9-62.2c-39.3-39.8-60.7-92.4-60-148c0.5-50.4,19.3-98.9,53-136.5
		c5.9-6.6,16-7.1,22.6-1.2c6.6,5.9,7.1,16,1.2,22.6C96.4,170.5,80.4,211.5,80,254.2c-0.5,47,17.5,91.4,50.8,125.1
		c33.4,33.9,77.9,52.6,125.2,52.7c0.1,0,0.2,0,0.3,0c46.8,0,90.8-18.2,124-51.3C413.7,347.5,432,303.2,432,256
		c0-46.3-17.8-90-50.2-123.1c-29.5-30.2-68.2-48.5-109.8-52.2V152c0,8.8-7.2,16-16,16c-8.8,0-16-7.2-16-16V68.4c0-0.2,0-0.5,0-0.7
		c0.2-5.4,2.5-10.5,6.4-14.2c3.9-3.7,9.1-5.7,14.5-5.5c54.5,1.3,105.6,23.5,143.8,62.5C442.9,149.6,464,201.3,464,256
		c0,55.8-21.7,108.1-61.1,147.4C363.8,442.5,311.7,464,256.4,464z"/>
</g>
<g>
	<path d="M233.4,278.6l-79-113c-2.6-3.7-1.7-8.7,2-11.3c2.8-2,6.5-2,9.3,0l113,79c14.6,10.5,17.9,30.8,7.4,45.4
		c-10.3,14.3-30.1,17.8-44.6,7.9C238.3,284.4,235.6,281.7,233.4,278.6z"/>
</g>
</svg>
