<?xml version="1.0" encoding="UTF-8"?>
<svg width="512px" height="512px" viewBox="0 0 512 512" version="1.1" xmlns="http://www.w3.org/2000/svg" xmlns:xlink="http://www.w3.org/1999/xlink">
    <!-- Generator: Sketch 62 (91390) - https://sketch.com -->
    <title>Artboard</title>
    <desc>Created with Sketch.</desc>
    <g id="Artboard" stroke="none" stroke-width="1" fill="none" fill-rule="evenodd">
        <g id="today-outline" transform="translate(32.000000, 32.000000)" fill="#000000" fill-rule="nonzero">
            <path d="M448,384 C448,419.3 419.3,448 384,448 L64,448 C28.7,448 0,419.3 0,384 L0,96 C0,60.7 28.7,32 64,32 L80,32 L80,16 C80,7.2 87.2,0 96,0 C104.8,0 112,7.2 112,16 L112,32 L336,32 L336,16 C336,7.2 343.2,0 352,0 C360.8,0 368,7.2 368,16 L368,32 L384,32 C419.3,32 448,60.7 448,96 L448,384 Z M32,384 C32,401.6 46.4,416 64,416 L384,416 C401.6,416 416,401.6 416,384 L416,176 C415.9,158.4 401.6,144.1 384,144 L64,144 C46.4,144.1 32.1,158.4 32,176 L32,384 Z M163.5,176 C179.3,176 192.1,188.8 192.1,204.6 L192.1,275.5 C192.1,291.3 179.3,304.1 163.5,304.1 L92.6,304.1 C76.8,304.1 64,291.3 64,275.5 L64,204.6 C64,188.8 76.8,176 92.6,176 L163.5,176 Z" id="Combined-Shape"></path>
        </g>
    </g>
</svg>