<?xml version="1.0" encoding="UTF-8"?>
<svg width="512px" height="512px" viewBox="0 0 512 512" version="1.1" xmlns="http://www.w3.org/2000/svg" xmlns:xlink="http://www.w3.org/1999/xlink">
    <!-- Generator: Sketch 62 (91390) - https://sketch.com -->
    <title>Artboard</title>
    <desc>Created with Sketch.</desc>
    <g id="Artboard" stroke="none" stroke-width="1" fill="none" fill-rule="evenodd">
        <g id="train" transform="translate(96.000000, 16.000000)" fill="#000000" fill-rule="nonzero">
            <path d="M79.9801583,399.99423 L80.3899576,399.998895 C84.7660882,400.104709 88.9077733,401.998856 91.85,405.24 C97.65,411.62 97.09,421.53 90.99,427.62 L90.99,427.62 L86.63,431.99 L233.37,431.99 L228.69,427.3 C225.594844,424.204564 223.903082,419.976173 224.008895,415.600042 C224.114709,411.223912 226.008856,407.082227 229.25,404.14 C235.63,398.34 245.54,398.9 251.63,405 L251.63,405 L299.31,452.69 C305.286462,458.980629 305.15961,468.888497 299.024054,475.024054 C292.888497,481.15961 282.980629,481.286462 276.69,475.31 L276.69,475.31 L265.37,464 L54.63,464 L43.31,475.3 C39.305525,479.51498 33.329767,481.226022 27.701296,479.769249 C22.0728249,478.312476 17.6775235,473.917175 16.2207509,468.288704 C14.7639783,462.660233 16.4750205,456.684475 20.69,452.68 L20.69,452.68 L68.69,404.68 C71.785436,401.584844 76.0138271,399.893082 80.3899576,399.998895 Z M208,-3.33560934e-07 C217.808657,-3.33560934e-07 227.07406,4.50408472 233.13,12.22 C235.035729,14.619115 237.936112,16.0121836 241,15.9999997 L241,15.9999997 L256,15.9999997 C291.346224,15.9999997 320,44.653776 320,79.9999997 L320,79.9999997 L320,335 C320,358.27 294.4,377.06 237,395.94 C212.759515,403.760091 188.137863,410.345223 163.23,415.67 C161.099064,416.109226 158.900936,416.109226 156.77,415.67 C131.862137,410.345223 107.240485,403.760091 83,395.94 C25.6,377.06 0,358.27 0,335 L0,335 L0,79.9999997 C0,44.84 27.19,15.9999997 64,15.9999997 L64,15.9999997 L81,15.9999997 C82.9344865,16.0099856 84.7551119,15.0866419 85.89,13.52 C91.8850966,5.04494832 101.61888,0.00470531937 112,-3.33560934e-07 L112,-3.33560934e-07 Z M186.413995,229.708466 C162.140566,218.713076 133.59415,223.908663 114.751407,242.751407 C95.9086633,261.59415 90.7130765,290.140566 101.708466,314.413995 C112.703856,338.687424 137.589063,353.607827 164.18,351.87 C196.224413,349.744931 221.744931,324.224413 223.87,292.18 C225.607827,265.589063 210.687424,240.703856 186.413995,229.708466 Z M137.414807,265.416135 C149.93111,252.899831 170.189224,252.865007 182.66257,265.338353 C195.135916,277.811699 195.101092,298.069813 182.584788,310.586116 C170.068485,323.10242 149.810371,323.137244 137.337025,310.663898 C124.863679,298.190552 124.898503,277.932438 137.414807,265.416135 Z M232,112 L88,112 C83.581722,112 80,115.581722 80,120 L80,120 L80,168 C80,172.418278 83.581722,176 88,176 L88,176 L232,176 C236.418278,176 240,172.418278 240,168 L240,168 L240,120 C240,115.581722 236.418278,112 232,112 L232,112 Z" id="Combined-Shape"></path>
        </g>
    </g>
</svg>