<?xml version="1.0" encoding="utf-8"?>
<!-- Generator: Adobe Illustrator 24.0.0, SVG Export Plug-In . SVG Version: 6.00 Build 0)  -->
<svg version="1.1" id="Layer_1" xmlns="http://www.w3.org/2000/svg" xmlns:xlink="http://www.w3.org/1999/xlink" x="0px" y="0px"
	 viewBox="0 0 512 512" style="enable-background:new 0 0 512 512;" xml:space="preserve">
<title>ionicons-v5-q</title>
<g>
	<path d="M256,432c-1.1,0-2.2-0.1-3.2-0.3c-1.5-0.3-37.3-7.7-73.8-19.7c-57.4-18.9-83-37.7-83-60.9V104c0.1-39.6,32.4-71.9,72-72
		h12.3c5.5-9.6,15.9-16,27.7-16h96c11.8,0,22.2,6.4,27.7,16H344c39.7,0,72,32.3,72,72v247c0,23.3-25.6,42.1-83,60.9
		c-36.5,12-72.3,19.4-73.8,19.7C258.2,431.9,257.1,432,256,432z M128,350.5c0.8,1.6,8.9,14.4,65.3,32.4
		c27.1,8.6,53.7,14.7,62.7,16.7c9-2,35.6-8.1,62.7-16.7c56.4-18,64.5-30.8,65.3-32.4V104c0-22.1-17.9-40-40-40h-24
		c-8.8,0-16-7.2-16-16h-96c0,8.8-7.2,16-16,16h-24c-22,0.1-39.9,18-40,40V350.5z M384.1,350.4L384.1,350.4L384.1,350.4z
		 M127.9,350.4L127.9,350.4L127.9,350.4z M256,368c-35.3,0-64-28.7-64-64s28.7-64,64-64c35.3,0,64,28.7,64,64S291.3,368,256,368z
		 M256,272c-17.6,0-32,14.4-32,32s14.4,32,32,32c17.6,0,32-14.4,32-32S273.6,272,256,272z M336,224H176c-17.6,0-32-14.4-32-32v-64
		c0-17.6,14.4-32,32-32h160c17.6,0,32,14.4,32,32v64C368,209.6,353.6,224,336,224z M176,128v64h160v-64H176z"/>
</g>
<g>
	<path d="M368,480H144c-8.8,0-16-7.2-16-16s7.2-16,16-16h224c8.8,0,16,7.2,16,16S376.8,480,368,480z"/>
</g>
<g>
	<path d="M384,496c-4.1,0-8.2-1.6-11.3-4.7l-48-48c-6.2-6.2-6.2-16.4,0-22.6c6.2-6.2,16.4-6.2,22.6,0l48,48c6.2,6.2,6.2,16.4,0,22.6
		C392.2,494.4,388.1,496,384,496z"/>
</g>
<g>
	<path d="M128,496c-4.1,0-8.2-1.6-11.3-4.7c-6.2-6.2-6.2-16.4,0-22.6l48-48c6.2-6.2,16.4-6.2,22.6,0c6.2,6.2,6.2,16.4,0,22.6l-48,48
		C136.2,494.4,132.1,496,128,496z"/>
</g>
</svg>
