<?xml version="1.0" encoding="utf-8"?>
<!-- Generator: Adobe Illustrator 24.0.0, SVG Export Plug-In . SVG Version: 6.00 Build 0)  -->
<svg version="1.1" id="Layer_1" xmlns="http://www.w3.org/2000/svg" xmlns:xlink="http://www.w3.org/1999/xlink" x="0px" y="0px"
	 viewBox="0 0 512 512" style="enable-background:new 0 0 512 512;" xml:space="preserve">
<title>ionicons-v5-l</title>
<g>
	<path d="M256,480c-8.8,0-16-7.2-16-16v-64c0-8.8,7.2-16,16-16c8.8,0,16,7.2,16,16v64C272,472.8,264.8,480,256,480z"/>
</g>
<g>
	<path d="M256,288c-8.8,0-16-7.2-16-16v-64c0-8.8,7.2-16,16-16c8.8,0,16,7.2,16,16v64C272,280.8,264.8,288,256,288z"/>
</g>
<g>
	<path d="M256,96c-8.8,0-16-7.2-16-16V48c0-8.8,7.2-16,16-16c8.8,0,16,7.2,16,16v32C272,88.8,264.8,96,256,96z"/>
</g>
<g>
	<path d="M416,224H102.6c-8.6,0-16.6-3.3-22.6-9.4l-59.3-59.3c-6.2-6.2-6.2-16.4,0-22.6L80,73.4c6-6,14.1-9.4,22.6-9.4c0,0,0,0,0,0
		H416c17.6,0,32,14.4,32,32v96C448,209.6,433.6,224,416,224z M54.6,144l48,48l313.4,0c0,0,0,0,0,0l0-96H102.6L54.6,144z"/>
</g>
<g>
	<path d="M409.4,416C409.4,416,409.4,416,409.4,416H96c-17.6,0-32-14.4-32-32v-96c0-17.6,14.4-32,32-32h313.4c0,0,0,0,0,0
		c8.5,0,16.6,3.3,22.6,9.4l59.3,59.3c6.2,6.2,6.2,16.4,0,22.6L432,406.6C426,412.7,417.9,416,409.4,416z M96,288v96h313.4l48-48
		l-48-48L96,288z"/>
</g>
</svg>
