<?xml version="1.0" encoding="UTF-8" standalone="no"?>
<svg
   xmlns:dc="http://purl.org/dc/elements/1.1/"
   xmlns:cc="http://creativecommons.org/ns#"
   xmlns:rdf="http://www.w3.org/1999/02/22-rdf-syntax-ns#"
   xmlns:svg="http://www.w3.org/2000/svg"
   xmlns="http://www.w3.org/2000/svg"
   xmlns:sodipodi="http://sodipodi.sourceforge.net/DTD/sodipodi-0.dtd"
   xmlns:inkscape="http://www.inkscape.org/namespaces/inkscape"
   class="ionicon"
   viewBox="0 0 512 512"
   version="1.1"
   id="svg6"
   sodipodi:docname="trail-sign-outline.svg"
   inkscape:version="1.0.2 (e86c8708, 2021-01-15)">
  <metadata
     id="metadata12">
    <rdf:RDF>
      <cc:Work
         rdf:about="">
        <dc:format>image/svg+xml</dc:format>
        <dc:type
           rdf:resource="http://purl.org/dc/dcmitype/StillImage" />
      </cc:Work>
    </rdf:RDF>
  </metadata>
  <defs
     id="defs10" />
  <sodipodi:namedview
     pagecolor="#ffffff"
     bordercolor="#666666"
     borderopacity="1"
     objecttolerance="10"
     gridtolerance="10"
     guidetolerance="10"
     inkscape:pageopacity="0"
     inkscape:pageshadow="2"
     inkscape:window-width="689"
     inkscape:window-height="480"
     id="namedview8"
     showgrid="false"
     inkscape:zoom="1.3027344"
     inkscape:cx="256"
     inkscape:cy="256"
     inkscape:window-x="44"
     inkscape:window-y="25"
     inkscape:window-maximized="0"
     inkscape:current-layer="svg6" />
  <title
     id="title2">Trail Sign</title>
  <path
     style="color:#000000;font-style:normal;font-variant:normal;font-weight:normal;font-stretch:normal;font-size:medium;line-height:normal;font-family:sans-serif;font-variant-ligatures:normal;font-variant-position:normal;font-variant-caps:normal;font-variant-numeric:normal;font-variant-alternates:normal;font-variant-east-asian:normal;font-feature-settings:normal;font-variation-settings:normal;text-indent:0;text-align:start;text-decoration:none;text-decoration-line:none;text-decoration-style:solid;text-decoration-color:#000000;letter-spacing:normal;word-spacing:normal;text-transform:none;writing-mode:lr-tb;direction:ltr;text-orientation:mixed;dominant-baseline:auto;baseline-shift:baseline;text-anchor:start;white-space:normal;shape-padding:0;shape-margin:0;inline-size:0;clip-rule:nonzero;display:inline;overflow:visible;visibility:visible;isolation:auto;mix-blend-mode:normal;color-interpolation:sRGB;color-interpolation-filters:linearRGB;solid-color:#000000;solid-opacity:1;vector-effect:none;fill:currentColor;fill-opacity:1;fill-rule:nonzero;stroke:none;stroke-linecap:round;stroke-linejoin:round;stroke-miterlimit:4;stroke-dasharray:none;stroke-dashoffset:0;stroke-opacity:1;color-rendering:auto;image-rendering:auto;shape-rendering:auto;text-rendering:auto;enable-background:accumulate;stop-color:#000000;stop-opacity:1;opacity:1"
     d="M 256 32 A 16 16 0 0 0 240 48 L 240 64 L 102.63281 64 L 102.63086 64 C 94.145378 63.999151 85.990398 67.378715 79.992188 73.380859 L 20.685547 132.68555 A 16.0016 16.0016 0 0 0 20.685547 155.31445 L 79.996094 214.62305 C 85.993937 220.62274 94.147227 224.00085 102.63086 224 L 240 224 L 240 256 L 96 256 C 78.516402 256 64 270.5164 64 288 L 64 384 C 64 401.4836 78.516402 416 96 416 L 240 416 L 240 464 A 16 16 0 0 0 256 480 A 16 16 0 0 0 272 464 L 272 416 L 409.36914 416 C 417.85277 416.00085 426.00606 412.62274 432.00391 406.62305 L 432.00781 406.61914 L 491.31445 347.31445 A 16.0016 16.0016 0 0 0 491.31445 324.68555 L 432.00781 265.38086 L 432.00391 265.37695 C 426.0056 259.3768 417.85152 255.99863 409.36719 256 L 272 256 L 272 224 L 416 224 C 433.4836 224 448 209.4836 448 192 L 448 96 C 448 78.516402 433.4836 64 416 64 L 272 64 L 272 48 A 16 16 0 0 0 256 32 z M 102.62695 96 A 16.0016 16.0016 0 0 0 102.63086 96 L 256 96 L 416 96 L 416 192 L 256 192 L 102.63086 192 A 16.0016 16.0016 0 0 0 102.62695 192 A 16.0016 16.0016 0 0 0 102.62305 191.99609 L 54.628906 144 L 102.62305 96.003906 A 16.0016 16.0016 0 0 0 102.62695 96 z M 96 288 L 256 288 L 409.36914 288 A 16.0016 16.0016 0 0 0 409.37305 288 A 16.0016 16.0016 0 0 0 409.37695 288.00391 L 457.37109 336 L 409.37695 383.99609 A 16.0016 16.0016 0 0 0 409.37305 384 A 16.0016 16.0016 0 0 0 409.36914 384 L 256 384 L 96 384 L 96 288 z "
     id="path4" />
</svg>
