<?xml version="1.0" encoding="UTF-8" standalone="no"?>
<svg
   xmlns:dc="http://purl.org/dc/elements/1.1/"
   xmlns:cc="http://creativecommons.org/ns#"
   xmlns:rdf="http://www.w3.org/1999/02/22-rdf-syntax-ns#"
   xmlns:svg="http://www.w3.org/2000/svg"
   xmlns="http://www.w3.org/2000/svg"
   xmlns:sodipodi="http://sodipodi.sourceforge.net/DTD/sodipodi-0.dtd"
   xmlns:inkscape="http://www.inkscape.org/namespaces/inkscape"
   class="ionicon"
   viewBox="0 0 512 512"
   version="1.1"
   id="svg6"
   sodipodi:docname="transgender.svg"
   inkscape:version="1.0.2 (e86c8708, 2021-01-15)">
  <metadata
     id="metadata12">
    <rdf:RDF>
      <cc:Work
         rdf:about="">
        <dc:format>image/svg+xml</dc:format>
        <dc:type
           rdf:resource="http://purl.org/dc/dcmitype/StillImage" />
      </cc:Work>
    </rdf:RDF>
  </metadata>
  <defs
     id="defs10" />
  <sodipodi:namedview
     pagecolor="#ffffff"
     bordercolor="#666666"
     borderopacity="1"
     objecttolerance="10"
     gridtolerance="10"
     guidetolerance="10"
     inkscape:pageopacity="0"
     inkscape:pageshadow="2"
     inkscape:window-width="689"
     inkscape:window-height="480"
     id="namedview8"
     showgrid="false"
     inkscape:zoom="1.3027344"
     inkscape:cx="256"
     inkscape:cy="256"
     inkscape:window-x="44"
     inkscape:window-y="25"
     inkscape:window-maximized="0"
     inkscape:current-layer="svg6" />
  <title
     id="title2">Transgender</title>
  <path
     style="color:#000000;font-style:normal;font-variant:normal;font-weight:normal;font-stretch:normal;font-size:medium;line-height:normal;font-family:sans-serif;font-variant-ligatures:normal;font-variant-position:normal;font-variant-caps:normal;font-variant-numeric:normal;font-variant-alternates:normal;font-variant-east-asian:normal;font-feature-settings:normal;font-variation-settings:normal;text-indent:0;text-align:start;text-decoration:none;text-decoration-line:none;text-decoration-style:solid;text-decoration-color:#000000;letter-spacing:normal;word-spacing:normal;text-transform:none;writing-mode:lr-tb;direction:ltr;text-orientation:mixed;dominant-baseline:auto;baseline-shift:baseline;text-anchor:start;white-space:normal;shape-padding:0;shape-margin:0;inline-size:0;clip-rule:nonzero;display:inline;overflow:visible;visibility:visible;isolation:auto;mix-blend-mode:normal;color-interpolation:sRGB;color-interpolation-filters:linearRGB;solid-color:#000000;solid-opacity:1;vector-effect:none;fill:#000000;fill-opacity:1;fill-rule:nonzero;stroke-width:1;stroke-linecap:butt;stroke-linejoin:miter;stroke-miterlimit:4;stroke-dasharray:none;stroke-dashoffset:0;stroke-opacity:1;color-rendering:auto;image-rendering:auto;shape-rendering:auto;text-rendering:auto;enable-background:accumulate;stop-color:#000000;stop-opacity:1;stroke:none;opacity:1"
     d="m 458,32 h -68 c -12.15027,0 -21.99999,9.849736 -21.99999,22 0,12.150264 9.84972,22 21.99999,22 h 14.89 l -59.57,59.57 c -53.02084,-39.42545 -125.61916,-39.42545 -178.64,0 l -7.57,-7.57 26.45,-26.44 c 8.59356,-8.593557 8.59354,-22.526443 -1e-5,-31.119993 -8.59355,-8.59355 -22.52643,-8.593563 -31.11999,-7e-6 L 128,96.89 107.11,76 H 122 c 12.15027,0 21.99999,-9.849736 21.99999,-22 0,-12.150264 -9.84972,-22 -21.99999,-22 H 54 C 41.849736,32 32,41.849736 32,54 v 68 c 0,12.15027 9.849736,21.99999 22,21.99999 12.150264,0 22,-9.84972 22,-21.99999 V 107.11 L 96.89,128 70.47,154.42 c -8.785117,8.5567 -8.877876,22.64456 -0.20622,31.31622 8.671656,8.67166 22.759516,8.5789 31.31622,-0.20622 l 26.42,-26.42 7.57,7.57 C 116.33724,192.48454 105.96455,223.81658 106,256 c 0,82.71 67.29,150 150,150 32.24255,0.0361 63.62923,-10.37351 89.46,-29.67 L 369,399.9 342.46,426.44 c -8.59356,8.59356 -8.59354,22.52644 1e-5,31.11999 8.59355,8.59355 22.52643,8.59357 31.11999,10e-6 l 26.49,-26.5 42.37,42.48 c 8.58251,8.6046 22.5154,8.6225 31.11999,0.04 8.6046,-8.5825 8.62252,-22.51539 0.04,-31.11999 L 431.17,400 457.56,373.61 c 8.59356,-8.59356 8.59354,-22.52644 -10e-6,-31.11999 -8.59355,-8.59355 -22.52643,-8.59357 -31.11999,-10e-6 l -26.35,26.35 -23.55,-23.62 c 39.32177,-53.01312 39.27708,-125.52539 -0.11,-178.49 L 436,107.11 V 122 c 0,12.15027 9.84974,21.99999 22,21.99999 12.15026,0 22,-9.84972 22,-21.99999 V 54 C 480,41.849736 470.15026,32 458,32 Z M 150,256 c 0,-42.87295 25.82621,-81.52466 65.43495,-97.9305 39.60865,-16.4058 85.19894,-7.33464 115.51456,22.98099 30.31563,30.31562 39.38679,75.90591 22.98099,115.51456 C 337.52466,336.17379 298.87295,362 256,362 197.48523,361.93387 150.06613,314.51477 150,256 Z"
     id="path4" />
</svg>
