<?xml version="1.0" encoding="utf-8"?>
<!-- Generator: Adobe Illustrator 24.0.0, SVG Export Plug-In . SVG Version: 6.00 Build 0)  -->
<svg version="1.1" id="Layer_1" xmlns="http://www.w3.org/2000/svg" xmlns:xlink="http://www.w3.org/1999/xlink" x="0px" y="0px"
	 viewBox="0 0 512 512" style="enable-background:new 0 0 512 512;" xml:space="preserve">
<title>ionicons-v5-q</title>
<g>
	<path d="M256,400c-79.4,0-144-64.6-144-144c0-79.4,64.6-144,144-144c79.4,0,144,64.6,144,144C400,335.4,335.4,400,256,400z
		 M256,144c-61.8,0-112,50.2-112,112s50.2,112,112,112s112-50.2,112-112S317.8,144,256,144z"/>
</g>
<g>
	<path d="M352,464c-4.1,0-8.2-1.6-11.3-4.7c-6.2-6.2-6.2-16.4,0-22.6l96-96c6.2-6.2,16.4-6.2,22.6,0c6.2,6.2,6.2,16.4,0,22.6l-96,96
		C360.2,462.4,356.1,464,352,464z"/>
</g>
<g>
	<path d="M80,192c-4.1,0-8.2-1.6-11.3-4.7c-6.2-6.2-6.2-16.4,0-22.6l96-96c6.2-6.2,16.4-6.2,22.6,0c6.2,6.2,6.2,16.4,0,22.6l-96,96
		C88.2,190.4,84.1,192,80,192z"/>
</g>
<g>
	<path d="M464,144c-8.8,0-16-7.2-16-16V64h-64c-8.8,0-16-7.2-16-16s7.2-16,16-16h80c8.8,0,16,7.2,16,16v80
		C480,136.8,472.8,144,464,144z"/>
</g>
<g>
	<path d="M48,144c-8.8,0-16-7.2-16-16V48c0-8.8,7.2-16,16-16h80c8.8,0,16,7.2,16,16s-7.2,16-16,16H64v64C64,136.8,56.8,144,48,144z"
		/>
</g>
<g>
	<path d="M346.5,181.5c-4.1,0-8.2-1.6-11.3-4.7c-6.2-6.2-6.2-16.4,0-22.6L452.7,36.7c6.2-6.2,16.4-6.2,22.6,0
		c6.2,6.2,6.2,16.4,0,22.6L357.8,176.8C354.7,179.9,350.6,181.5,346.5,181.5z"/>
</g>
<g>
	<path d="M165.5,181.5c-4.1,0-8.2-1.6-11.3-4.7L36.7,59.3c-6.2-6.2-6.2-16.4,0-22.6c6.2-6.2,16.4-6.2,22.6,0l117.5,117.5
		c6.2,6.2,6.2,16.4,0,22.6C173.7,179.9,169.6,181.5,165.5,181.5z"/>
</g>
<g>
	<path d="M464,480c-4.1,0-8.2-1.6-11.3-4.7L335.3,357.7c-6.2-6.3-6.2-16.4,0-22.6c6.3-6.2,16.4-6.2,22.6,0l117.3,117.6
		c6.2,6.3,6.2,16.4,0,22.6C472.2,478.4,468.1,480,464,480z"/>
</g>
</svg>
