<?xml version="1.0" encoding="UTF-8" standalone="no"?>
<svg
   xmlns:dc="http://purl.org/dc/elements/1.1/"
   xmlns:cc="http://creativecommons.org/ns#"
   xmlns:rdf="http://www.w3.org/1999/02/22-rdf-syntax-ns#"
   xmlns:svg="http://www.w3.org/2000/svg"
   xmlns="http://www.w3.org/2000/svg"
   xmlns:sodipodi="http://sodipodi.sourceforge.net/DTD/sodipodi-0.dtd"
   xmlns:inkscape="http://www.inkscape.org/namespaces/inkscape"
   class="ionicon"
   viewBox="0 0 512 512"
   version="1.1"
   id="svg8"
   sodipodi:docname="transgender-outline.svg"
   inkscape:version="1.0.2 (e86c8708, 2021-01-15)">
  <metadata
     id="metadata14">
    <rdf:RDF>
      <cc:Work
         rdf:about="">
        <dc:format>image/svg+xml</dc:format>
        <dc:type
           rdf:resource="http://purl.org/dc/dcmitype/StillImage" />
      </cc:Work>
    </rdf:RDF>
  </metadata>
  <defs
     id="defs12" />
  <sodipodi:namedview
     pagecolor="#ffffff"
     bordercolor="#666666"
     borderopacity="1"
     objecttolerance="10"
     gridtolerance="10"
     guidetolerance="10"
     inkscape:pageopacity="0"
     inkscape:pageshadow="2"
     inkscape:window-width="689"
     inkscape:window-height="480"
     id="namedview10"
     showgrid="false"
     inkscape:zoom="1.3027344"
     inkscape:cx="256"
     inkscape:cy="256"
     inkscape:window-x="44"
     inkscape:window-y="25"
     inkscape:window-maximized="0"
     inkscape:current-layer="svg8" />
  <title
     id="title2">Transgender</title>
  <path
     style="color:#000000;font-style:normal;font-variant:normal;font-weight:normal;font-stretch:normal;font-size:medium;line-height:normal;font-family:sans-serif;font-variant-ligatures:normal;font-variant-position:normal;font-variant-caps:normal;font-variant-numeric:normal;font-variant-alternates:normal;font-variant-east-asian:normal;font-feature-settings:normal;font-variation-settings:normal;text-indent:0;text-align:start;text-decoration:none;text-decoration-line:none;text-decoration-style:solid;text-decoration-color:#000000;letter-spacing:normal;word-spacing:normal;text-transform:none;writing-mode:lr-tb;direction:ltr;text-orientation:mixed;dominant-baseline:auto;baseline-shift:baseline;text-anchor:start;white-space:normal;shape-padding:0;shape-margin:0;inline-size:0;clip-rule:nonzero;display:inline;overflow:visible;visibility:visible;isolation:auto;mix-blend-mode:normal;color-interpolation:sRGB;color-interpolation-filters:linearRGB;solid-color:#000000;solid-opacity:1;vector-effect:none;fill:currentColor;fill-opacity:1;fill-rule:nonzero;stroke:none;stroke-linecap:round;stroke-linejoin:round;stroke-miterlimit:4;stroke-dasharray:none;stroke-dashoffset:0;stroke-opacity:1;color-rendering:auto;image-rendering:auto;shape-rendering:auto;text-rendering:auto;enable-background:accumulate;stop-color:#000000;stop-opacity:1;opacity:1"
     d="M 256 112 C 176.66051 112 112 176.66051 112 256 C 112 335.33949 176.66051 400 256 400 C 335.33949 400 400 335.33949 400 256 C 400 176.66051 335.33949 112 256 112 z M 256 144 C 318.04541 144 368 193.95459 368 256 C 368 318.04541 318.04541 368 256 368 C 193.95459 368 144 318.04541 144 256 C 144 193.95459 193.95459 144 256 144 z "
     id="circle4" />
  <path
     style="color:#000000;font-style:normal;font-variant:normal;font-weight:normal;font-stretch:normal;font-size:medium;line-height:normal;font-family:sans-serif;font-variant-ligatures:normal;font-variant-position:normal;font-variant-caps:normal;font-variant-numeric:normal;font-variant-alternates:normal;font-variant-east-asian:normal;font-feature-settings:normal;font-variation-settings:normal;text-indent:0;text-align:start;text-decoration:none;text-decoration-line:none;text-decoration-style:solid;text-decoration-color:#000000;letter-spacing:normal;word-spacing:normal;text-transform:none;writing-mode:lr-tb;direction:ltr;text-orientation:mixed;dominant-baseline:auto;baseline-shift:baseline;text-anchor:start;white-space:normal;shape-padding:0;shape-margin:0;inline-size:0;clip-rule:nonzero;display:inline;overflow:visible;visibility:visible;isolation:auto;mix-blend-mode:normal;color-interpolation:sRGB;color-interpolation-filters:linearRGB;solid-color:#000000;solid-opacity:1;vector-effect:none;fill:currentColor;fill-opacity:1;fill-rule:nonzero;stroke:none;stroke-linecap:round;stroke-linejoin:round;stroke-miterlimit:4;stroke-dasharray:none;stroke-dashoffset:0;stroke-opacity:1;color-rendering:auto;image-rendering:auto;shape-rendering:auto;text-rendering:auto;enable-background:accumulate;stop-color:#000000;stop-opacity:1;opacity:1"
     d="M 48 32 A 16.0016 16.0016 0 0 0 47.785156 32.001953 A 16 16 0 0 0 47.664062 32.003906 A 16.0016 16.0016 0 0 0 47.515625 32.007812 A 16 16 0 0 0 47.427734 32.011719 A 16.0016 16.0016 0 0 0 47.113281 32.025391 A 16.0016 16.0016 0 0 0 46.830078 32.042969 A 16 16 0 0 0 46.724609 32.050781 A 16.0016 16.0016 0 0 0 46.519531 32.070312 A 16 16 0 0 0 46.416016 32.078125 A 16.0016 16.0016 0 0 0 46.107422 32.113281 A 16.0016 16.0016 0 0 0 45.833984 32.148438 A 16 16 0 0 0 45.773438 32.15625 A 16.0016 16.0016 0 0 0 45.654297 32.173828 A 16 16 0 0 0 45.322266 32.226562 A 16 16 0 0 0 45.083984 32.267578 A 16.0016 16.0016 0 0 0 44.839844 32.316406 A 16 16 0 0 0 44.679688 32.349609 A 16.0016 16.0016 0 0 0 44.636719 32.359375 A 16 16 0 0 0 44.388672 32.414062 A 16.0016 16.0016 0 0 0 44.193359 32.458984 A 16 16 0 0 0 44.095703 32.484375 A 16.0016 16.0016 0 0 0 43.798828 32.5625 A 16.0016 16.0016 0 0 0 43.59375 32.619141 A 16 16 0 0 0 43.384766 32.679688 A 16.0016 16.0016 0 0 0 43.283203 32.710938 A 16 16 0 0 0 43.103516 32.767578 A 16.0016 16.0016 0 0 0 42.863281 32.847656 A 16 16 0 0 0 42.820312 32.863281 A 16.0016 16.0016 0 0 0 42.632812 32.927734 A 16 16 0 0 0 42.402344 33.011719 A 16 16 0 0 0 42.113281 33.123047 A 16.0016 16.0016 0 0 0 42.042969 33.150391 A 16 16 0 0 0 41.798828 33.25 A 16.0016 16.0016 0 0 0 41.75 33.271484 A 16 16 0 0 0 41.46875 33.394531 A 16 16 0 0 0 41.164062 33.535156 A 16 16 0 0 0 40.861328 33.681641 A 16 16 0 0 0 40.615234 33.806641 A 16.0016 16.0016 0 0 0 40.46875 33.884766 A 16 16 0 0 0 40.292969 33.978516 A 16.0016 16.0016 0 0 0 40.195312 34.033203 A 16 16 0 0 0 40.003906 34.142578 A 16.0016 16.0016 0 0 0 39.953125 34.171875 A 16 16 0 0 0 39.683594 34.332031 A 16 16 0 0 0 39.398438 34.509766 A 16 16 0 0 0 39.117188 34.693359 A 16 16 0 0 0 38.849609 34.875 A 16.0016 16.0016 0 0 0 38.771484 34.929688 A 16 16 0 0 0 38.630859 35.03125 A 16.0016 16.0016 0 0 0 38.484375 35.138672 A 16 16 0 0 0 38.326172 35.255859 A 16.0016 16.0016 0 0 0 38.246094 35.316406 A 16 16 0 0 0 38.066406 35.458984 A 16.0016 16.0016 0 0 0 37.958984 35.544922 A 16 16 0 0 0 37.802734 35.671875 A 16.0016 16.0016 0 0 0 37.71875 35.742188 A 16 16 0 0 0 37.605469 35.837891 A 16.0016 16.0016 0 0 0 37.513672 35.917969 A 16 16 0 0 0 37.263672 36.140625 A 16 16 0 0 0 37.261719 36.140625 A 16.0016 16.0016 0 0 0 37.257812 36.144531 A 16 16 0 0 0 37.050781 36.335938 A 16.0016 16.0016 0 0 0 36.960938 36.419922 A 16 16 0 0 0 36.859375 36.515625 A 16.0016 16.0016 0 0 0 36.771484 36.601562 A 16 16 0 0 0 36.685547 36.685547 A 16 16 0 0 0 36.535156 36.839844 A 16 16 0 0 0 36.320312 37.066406 A 16.0016 16.0016 0 0 0 36.291016 37.095703 A 16 16 0 0 0 36.115234 37.289062 A 16.0016 16.0016 0 0 0 36.050781 37.361328 A 16 16 0 0 0 35.996094 37.421875 A 16.0016 16.0016 0 0 0 35.853516 37.585938 A 16 16 0 0 0 35.638672 37.84375 A 16 16 0 0 0 35.433594 38.099609 A 16.0016 16.0016 0 0 0 35.423828 38.109375 A 16 16 0 0 0 35.246094 38.341797 A 16.0016 16.0016 0 0 0 35.207031 38.392578 A 16 16 0 0 0 35.072266 38.576172 A 16.0016 16.0016 0 0 0 35 38.673828 A 16 16 0 0 0 34.828125 38.917969 A 16 16 0 0 0 34.640625 39.197266 A 16 16 0 0 0 34.458984 39.478516 A 16 16 0 0 0 34.283203 39.765625 A 16 16 0 0 0 34.162109 39.970703 A 16.0016 16.0016 0 0 0 34.074219 40.123047 A 16 16 0 0 0 34.019531 40.220703 A 16.0016 16.0016 0 0 0 33.917969 40.40625 A 16 16 0 0 0 33.832031 40.568359 A 16.0016 16.0016 0 0 0 33.75 40.724609 A 16 16 0 0 0 33.714844 40.796875 A 16.0016 16.0016 0 0 0 33.617188 40.990234 A 16 16 0 0 0 33.513672 41.207031 A 16.0016 16.0016 0 0 0 33.482422 41.275391 A 16 16 0 0 0 33.443359 41.359375 A 16.0016 16.0016 0 0 0 33.355469 41.556641 A 16 16 0 0 0 33.238281 41.828125 A 16.0016 16.0016 0 0 0 33.207031 41.90625 A 16 16 0 0 0 33.136719 42.078125 A 16.0016 16.0016 0 0 0 33.076172 42.236328 A 16 16 0 0 0 33.019531 42.380859 A 16.0016 16.0016 0 0 0 32.955078 42.556641 A 16 16 0 0 0 32.875 42.783203 A 16.0016 16.0016 0 0 0 32.863281 42.816406 A 16 16 0 0 0 32.759766 43.128906 A 16 16 0 0 0 32.671875 43.414062 A 16.0016 16.0016 0 0 0 32.650391 43.488281 A 16 16 0 0 0 32.59375 43.685547 A 16.0016 16.0016 0 0 0 32.554688 43.824219 A 16 16 0 0 0 32.498047 44.037109 A 16.0016 16.0016 0 0 0 32.476562 44.121094 A 16 16 0 0 0 32.423828 44.341797 A 16.0016 16.0016 0 0 0 32.404297 44.425781 A 16 16 0 0 0 32.378906 44.542969 A 16.0016 16.0016 0 0 0 32.318359 44.822266 A 16 16 0 0 0 32.283203 45.003906 A 16.0016 16.0016 0 0 0 32.261719 45.121094 A 16 16 0 0 0 32.212891 45.402344 A 16.0016 16.0016 0 0 0 32.208984 45.423828 A 16 16 0 0 0 32.160156 45.748047 A 16 16 0 0 0 32.126953 46 A 16.0016 16.0016 0 0 0 32.105469 46.164062 A 16 16 0 0 0 32.09375 46.275391 A 16.0016 16.0016 0 0 0 32.074219 46.460938 A 16 16 0 0 0 32.048828 46.751953 A 16 16 0 0 0 32.03125 46.996094 A 16.0016 16.0016 0 0 0 32.021484 47.179688 A 16 16 0 0 0 32.017578 47.261719 A 16.0016 16.0016 0 0 0 32.007812 47.478516 A 16 16 0 0 0 32.001953 47.738281 A 16.0016 16.0016 0 0 0 32.001953 47.773438 A 16 16 0 0 0 32 47.949219 A 16.0016 16.0016 0 0 0 32 48 L 32 128 A 16 16 0 0 0 48 144 A 16 16 0 0 0 64 128 L 64 86.628906 L 105.37305 128 L 68.707031 164.66602 A 16 16 0 0 0 68.707031 187.29297 A 16 16 0 0 0 91.333984 187.29297 L 128 150.62695 L 154.17578 176.80273 A 16 16 0 0 0 176.80273 176.80273 A 16 16 0 0 0 176.80273 154.17578 L 150.62695 128 L 187.31445 91.314453 A 16 16 0 0 0 187.31445 68.685547 A 16 16 0 0 0 164.68555 68.685547 L 128 105.37109 L 86.628906 64 L 128 64 A 16 16 0 0 0 144 48 A 16 16 0 0 0 128 32 L 48.121094 32 L 48 32 z M 384 32 A 16 16 0 0 0 368 48 A 16 16 0 0 0 384 64 L 425.37109 64 L 335.18555 154.18555 A 16 16 0 0 0 335.18555 176.81445 A 16 16 0 0 0 357.81445 176.81445 L 448 86.628906 L 448 128 A 16 16 0 0 0 464 144 A 16 16 0 0 0 480 128 L 480 48.121094 A 16 16 0 0 0 479.99805 47.878906 A 16.0016 16.0016 0 0 0 479.99805 47.785156 A 16 16 0 0 0 479.99609 47.664062 A 16.0016 16.0016 0 0 0 479.99023 47.449219 A 16 16 0 0 0 479.98828 47.427734 A 16.0016 16.0016 0 0 0 479.97461 47.113281 A 16.0016 16.0016 0 0 0 479.95703 46.830078 A 16.0016 16.0016 0 0 0 479.95312 46.777344 A 16 16 0 0 0 479.94336 46.65625 A 16.0016 16.0016 0 0 0 479.92383 46.441406 A 16 16 0 0 0 479.92188 46.416016 A 16.0016 16.0016 0 0 0 479.88672 46.107422 A 16.0016 16.0016 0 0 0 479.85156 45.833984 A 16.0016 16.0016 0 0 0 479.84375 45.773438 A 16 16 0 0 0 479.82617 45.654297 A 16 16 0 0 0 479.77344 45.322266 A 16.0016 16.0016 0 0 0 479.73633 45.109375 A 16 16 0 0 0 479.73242 45.083984 A 16.0016 16.0016 0 0 0 479.68359 44.839844 A 16.0016 16.0016 0 0 0 479.67188 44.779297 A 16 16 0 0 0 479.64648 44.660156 A 16.0016 16.0016 0 0 0 479.60156 44.451172 A 16 16 0 0 0 479.57422 44.332031 A 16.0016 16.0016 0 0 0 479.52344 44.123047 A 16 16 0 0 0 479.51562 44.095703 A 16.0016 16.0016 0 0 0 479.4375 43.798828 A 16 16 0 0 0 479.40625 43.681641 A 16.0016 16.0016 0 0 0 479.38086 43.59375 A 16 16 0 0 0 479.32031 43.384766 A 16 16 0 0 0 479.3125 43.359375 A 16.0016 16.0016 0 0 0 479.24805 43.152344 A 16 16 0 0 0 479.21094 43.037109 A 16.0016 16.0016 0 0 0 479.14258 42.833984 A 16 16 0 0 0 479.10352 42.71875 A 16.0016 16.0016 0 0 0 479.07227 42.632812 A 16 16 0 0 0 478.98828 42.402344 A 16.0016 16.0016 0 0 0 478.91211 42.201172 A 16 16 0 0 0 478.86719 42.087891 A 16.0016 16.0016 0 0 0 478.78711 41.888672 A 16 16 0 0 0 478.74023 41.777344 A 16.0016 16.0016 0 0 0 478.72852 41.75 A 16 16 0 0 0 478.60547 41.46875 A 16 16 0 0 0 478.46484 41.164062 A 16 16 0 0 0 478.31836 40.861328 A 16.0016 16.0016 0 0 0 478.22266 40.669922 A 16 16 0 0 0 478.16602 40.560547 A 16.0016 16.0016 0 0 0 478.06445 40.371094 A 16 16 0 0 0 478.00586 40.265625 A 16.0016 16.0016 0 0 0 477.90039 40.078125 A 16 16 0 0 0 477.83984 39.972656 A 16.0016 16.0016 0 0 0 477.82812 39.953125 A 16 16 0 0 0 477.66797 39.683594 A 16 16 0 0 0 477.49023 39.398438 A 16 16 0 0 0 477.30664 39.117188 A 16 16 0 0 0 477.125 38.849609 A 16 16 0 0 0 477.11719 38.837891 A 16.0016 16.0016 0 0 0 476.99219 38.662109 A 16 16 0 0 0 476.92188 38.564453 A 16.0016 16.0016 0 0 0 476.79492 38.392578 A 16 16 0 0 0 476.7207 38.294922 A 16.0016 16.0016 0 0 0 476.58984 38.125 A 16 16 0 0 0 476.51367 38.029297 A 16.0016 16.0016 0 0 0 476.37891 37.863281 A 16 16 0 0 0 476.30078 37.769531 A 16.0016 16.0016 0 0 0 476.16211 37.605469 A 16 16 0 0 0 476.08203 37.513672 A 16 16 0 0 0 475.85938 37.263672 A 16 16 0 0 0 475.85938 37.261719 A 16.0016 16.0016 0 0 0 475.71484 37.103516 A 16 16 0 0 0 475.63086 37.013672 A 16.0016 16.0016 0 0 0 475.48438 36.859375 A 16 16 0 0 0 475.39844 36.771484 A 16 16 0 0 0 475.31445 36.685547 A 16 16 0 0 0 475.16016 36.535156 A 16 16 0 0 0 474.93359 36.320312 A 16 16 0 0 0 474.91602 36.302734 A 16.0016 16.0016 0 0 0 474.82812 36.220703 A 16 16 0 0 0 474.66797 36.076172 A 16.0016 16.0016 0 0 0 474.57812 35.996094 A 16 16 0 0 0 474.41406 35.853516 A 16 16 0 0 0 474.15625 35.638672 A 16 16 0 0 0 473.90039 35.433594 A 16 16 0 0 0 473.89453 35.427734 A 16.0016 16.0016 0 0 0 473.89062 35.423828 A 16 16 0 0 0 473.6582 35.246094 A 16 16 0 0 0 473.62891 35.222656 A 16.0016 16.0016 0 0 0 473.5332 35.150391 A 16 16 0 0 0 473.35742 35.021484 A 16.0016 16.0016 0 0 0 473.32617 35 A 16 16 0 0 0 473.08203 34.828125 A 16 16 0 0 0 472.80273 34.640625 A 16 16 0 0 0 472.52148 34.458984 A 16 16 0 0 0 472.23438 34.283203 A 16.0016 16.0016 0 0 0 472.13086 34.220703 A 16 16 0 0 0 471.94336 34.111328 A 16.0016 16.0016 0 0 0 471.83984 34.052734 A 16 16 0 0 0 471.65039 33.947266 A 16.0016 16.0016 0 0 0 471.54492 33.890625 A 16 16 0 0 0 471.35352 33.791016 A 16.0016 16.0016 0 0 0 471.24609 33.736328 A 16 16 0 0 0 471.05273 33.638672 A 16.0016 16.0016 0 0 0 471.00977 33.617188 A 16 16 0 0 0 470.79297 33.513672 A 16 16 0 0 0 470.75 33.494141 A 16.0016 16.0016 0 0 0 470.64062 33.443359 A 16 16 0 0 0 470.44336 33.355469 A 16 16 0 0 0 470.17188 33.238281 A 16 16 0 0 0 470.13281 33.222656 A 16.0016 16.0016 0 0 0 470.02344 33.177734 A 16 16 0 0 0 469.82227 33.097656 A 16.0016 16.0016 0 0 0 469.71094 33.054688 A 16 16 0 0 0 469.50781 32.978516 A 16.0016 16.0016 0 0 0 469.39453 32.9375 A 16 16 0 0 0 469.18945 32.865234 A 16.0016 16.0016 0 0 0 469.18359 32.863281 A 16 16 0 0 0 468.87109 32.759766 A 16 16 0 0 0 468.58594 32.671875 A 16 16 0 0 0 468.54883 32.660156 A 16.0016 16.0016 0 0 0 468.43555 32.626953 A 16 16 0 0 0 468.22656 32.568359 A 16.0016 16.0016 0 0 0 468.11133 32.537109 A 16 16 0 0 0 467.90039 32.482422 A 16.0016 16.0016 0 0 0 467.87891 32.476562 A 16 16 0 0 0 467.6582 32.423828 A 16 16 0 0 0 467.57422 32.404297 A 16.0016 16.0016 0 0 0 467.45703 32.378906 A 16.0016 16.0016 0 0 0 467.17773 32.318359 A 16.0016 16.0016 0 0 0 467.12891 32.308594 A 16 16 0 0 0 466.91406 32.267578 A 16.0016 16.0016 0 0 0 466.87891 32.261719 A 16 16 0 0 0 466.59766 32.212891 A 16 16 0 0 0 466.58398 32.210938 A 16.0016 16.0016 0 0 0 466.57617 32.208984 A 16 16 0 0 0 466.25195 32.160156 A 16 16 0 0 0 466 32.126953 A 16 16 0 0 0 465.91797 32.115234 A 16.0016 16.0016 0 0 0 465.79883 32.101562 A 16 16 0 0 0 465.58398 32.078125 A 16.0016 16.0016 0 0 0 465.53906 32.074219 A 16 16 0 0 0 465.24805 32.048828 A 16 16 0 0 0 465.00391 32.03125 A 16.0016 16.0016 0 0 0 464.82031 32.021484 A 16.0016 16.0016 0 0 0 464.79297 32.019531 A 16 16 0 0 0 464.52148 32.007812 A 16 16 0 0 0 464.26172 32.001953 A 16 16 0 0 0 464.24023 32.001953 A 16.0016 16.0016 0 0 0 464.12109 32 A 16 16 0 0 0 464 32 L 384 32 z M 346.45312 330.37109 A 16 16 0 0 0 335.34961 335.04297 A 16 16 0 0 0 335.32227 357.66992 L 377.46094 399.91016 L 340.68555 436.68555 A 16 16 0 0 0 340.68555 459.31445 A 16 16 0 0 0 363.31445 459.31445 L 400.0625 422.56641 L 452.67188 475.30078 A 16 16 0 0 0 475.30078 475.32812 A 16 16 0 0 0 475.32812 452.69922 L 422.69141 399.9375 L 459.31445 363.31445 A 16 16 0 0 0 459.31445 340.68555 A 16 16 0 0 0 436.68555 340.68555 L 400.08984 377.28125 L 357.97656 335.07031 A 16 16 0 0 0 346.45312 330.37109 z "
     id="path6" />
</svg>
