<?xml version="1.0" encoding="utf-8"?>
<!-- Generator: Adobe Illustrator 24.0.0, SVG Export Plug-In . SVG Version: 6.00 Build 0)  -->
<svg version="1.1" id="Layer_1" xmlns="http://www.w3.org/2000/svg" xmlns:xlink="http://www.w3.org/1999/xlink" x="0px" y="0px"
	 viewBox="0 0 512 512" style="enable-background:new 0 0 512 512;" xml:space="preserve">
<title>ionicons-v5-e</title>
<g>
	<path d="M348,480H164c-25.9,0-46.5-20.2-48-47.1L96,113c-0.6-8.8,6.2-16.4,15-17c8.8-0.6,16.4,6.2,17,15l20,320c0,0.1,0,0.1,0,0.2
		c0.5,10.1,7,16.8,16,16.8h184c9,0,15.4-6.8,16-17l20-320c0.6-8.8,8.2-15.5,17-15c8.8,0.6,15.5,8.1,15,17l-20,320
		C394.3,460.2,374.1,480,348,480z"/>
</g>
<g>
	<path d="M432,128H80c-8.8,0-16-7.2-16-16s7.2-16,16-16h352c8.8,0,16,7.2,16,16S440.8,128,432,128z"/>
</g>
<g>
	<path d="M320,128c-8.8,0-16-7.2-16-16V71.9c0-4.3-3.6-7.9-7.9-7.9c0,0,0,0,0,0h-80.2c-4.3,0-7.9,3.6-7.9,8v40c0,8.8-7.2,16-16,16
		s-16-7.2-16-16V72c-0.1-22,17.8-39.9,39.8-40H296c0,0,0.1,0,0.1,0c21.9,0,39.8,17.8,39.9,39.8V112C336,120.8,328.8,128,320,128z"/>
</g>
<g>
	<path d="M256,416c-8.8,0-16-7.2-16-16V176c0-8.8,7.2-16,16-16c8.8,0,16,7.2,16,16v224C272,408.8,264.8,416,256,416z"/>
</g>
<g>
	<path d="M192,416c-8.6,0-15.7-6.8-16-15.4l-8-224c-0.3-8.8,6.6-16.2,15.4-16.6c8.9-0.3,16.2,6.6,16.6,15.4l8,224
		c0.3,8.8-6.6,16.2-15.4,16.6C192.4,416,192.2,416,192,416z"/>
</g>
<g>
	<path d="M320,416c-0.2,0-0.4,0-0.6,0c-8.8-0.3-15.7-7.7-15.4-16.6l8-224c0.3-8.8,7.7-15.7,16.6-15.4c8.8,0.3,15.7,7.7,15.4,16.6
		l-8,224C335.7,409.2,328.6,416,320,416z"/>
</g>
</svg>
