<?xml version="1.0" encoding="UTF-8"?>
<svg width="512px" height="512px" viewBox="0 0 512 512" version="1.1" xmlns="http://www.w3.org/2000/svg" xmlns:xlink="http://www.w3.org/1999/xlink">
    <!-- Generator: Sketch 62 (91390) - https://sketch.com -->
    <title>Artboard</title>
    <desc>Created with Sketch.</desc>
    <g id="Artboard" stroke="none" stroke-width="1" fill="none" fill-rule="evenodd">
        <g id="trash-bin-sharp" transform="translate(32.000000, 48.000000)" fill="#000000" fill-rule="nonzero">
            <path d="M416,112 L386.26,394.51 C384.975324,406.726397 374.67376,416 362.39,416 L362.39,416 L85.61,416 C73.3262404,416 63.0246765,406.726397 61.74,394.51 L61.74,394.51 L32,112 L416,112 Z M280,166.54 L224,222.54 L168,166.54 L142.54,192 L198.54,248 L142.54,304 L168,329.46 L224,273.46 L280,329.46 L305.46,304 L249.46,248 L305.46,192 L280,166.54 Z M436,0 C442.627417,-1.21743675e-15 448,5.372583 448,12 L448,68 C448,74.627417 442.627417,80 436,80 L12,80 C5.372583,80 8.11624501e-16,74.627417 0,68 L0,12 C-8.11624501e-16,5.372583 5.372583,1.21743675e-15 12,0 L436,0 Z" id="Combined-Shape"></path>
        </g>
    </g>
</svg>