<?xml version="1.0" encoding="UTF-8"?>
<svg width="512px" height="512px" viewBox="0 0 512 512" version="1.1" xmlns="http://www.w3.org/2000/svg" xmlns:xlink="http://www.w3.org/1999/xlink">
    <!-- Generator: Sketch 62 (91390) - https://sketch.com -->
    <title>Artboard</title>
    <desc>Created with Sketch.</desc>
    <g id="Artboard" stroke="none" stroke-width="1" fill="none" fill-rule="evenodd">
        <g id="trash" transform="translate(64.000000, 32.000000)" fill="#000000" fill-rule="nonzero">
            <path d="M368,64 L272,64 L272,40 C272,17.90861 254.09139,0 232,0 L152,0 C129.90861,0 112,17.90861 112,40 L112,64 L16,64 C7.163444,64 0,71.163444 0,80 C0,88.836556 7.163444,96 16,96 L33,96 L52,400.92 C53.42,427.77 74,448 100,448 L284,448 C310.13,448 330.3,428.22 332,401 L351,96 L368,96 C376.836556,96 384,88.836556 384,80 C384,71.163444 376.836556,64 368,64 Z M128.57,384.000003 L128,384.000003 C119.38134,384.005471 112.307038,377.183191 112,368.57 L104,144.57 C103.685198,135.733444 110.593444,128.314802 119.43,128 C128.266556,127.685198 135.685198,134.593444 136,143.43 L144,367.43 C144.153896,371.674193 142.614089,375.805443 139.719839,378.913526 C136.82559,382.021608 132.814385,383.851491 128.57,384.000003 Z M208,368 C208,376.836556 200.836556,384 192,384 C183.163444,384 176,376.836556 176,368 L176,144 C176,135.163444 183.163444,128 192,128 C200.836556,128 208,135.163444 208,144 L208,368 Z M240.000519,64 L143.999481,64 L143.999481,40 C143.975634,37.8708919 144.810662,35.8218728 146.316267,34.3162674 C147.821873,32.8106621 149.870892,31.975634 152,32 L232,32 C234.129108,31.975634 236.178127,32.8106621 237.683733,34.3162674 C239.189338,35.8218728 240.024366,37.8708919 240.000519,40 L240.000519,64 Z M272,368.57 C271.692962,377.183191 264.61866,384.005471 256,384.000003 L255.42,384.000003 C251.177378,383.848899 247.168729,382.017887 244.276623,378.910092 C241.384516,375.802297 239.846071,371.67252 240,367.43 L248,143.43 C248.203641,137.71375 251.441396,132.540359 256.493634,129.858593 C261.545872,127.176827 267.645038,127.39411 272.493635,130.428593 C277.342231,133.463077 280.203642,138.85375 280,144.57 L272,368.57 Z" id="Shape"></path>
        </g>
    </g>
</svg>