<?xml version="1.0" encoding="UTF-8" standalone="no"?>
<svg
   xmlns:dc="http://purl.org/dc/elements/1.1/"
   xmlns:cc="http://creativecommons.org/ns#"
   xmlns:rdf="http://www.w3.org/1999/02/22-rdf-syntax-ns#"
   xmlns:svg="http://www.w3.org/2000/svg"
   xmlns="http://www.w3.org/2000/svg"
   xmlns:sodipodi="http://sodipodi.sourceforge.net/DTD/sodipodi-0.dtd"
   xmlns:inkscape="http://www.inkscape.org/namespaces/inkscape"
   class="ionicon"
   viewBox="0 0 512 512"
   version="1.1"
   id="svg839"
   sodipodi:docname="trash.svg"
   inkscape:version="1.0.2 (e86c8708, 2021-01-15)">
  <metadata
     id="metadata845">
    <rdf:RDF>
      <cc:Work
         rdf:about="">
        <dc:format>image/svg+xml</dc:format>
        <dc:type
           rdf:resource="http://purl.org/dc/dcmitype/StillImage" />
      </cc:Work>
    </rdf:RDF>
  </metadata>
  <defs
     id="defs843" />
  <sodipodi:namedview
     pagecolor="#ffffff"
     bordercolor="#666666"
     borderopacity="1"
     objecttolerance="10"
     gridtolerance="10"
     guidetolerance="10"
     inkscape:pageopacity="0"
     inkscape:pageshadow="2"
     inkscape:window-width="776"
     inkscape:window-height="480"
     id="namedview841"
     showgrid="false"
     inkscape:zoom="0.3"
     inkscape:cx="256"
     inkscape:cy="256"
     inkscape:window-x="429"
     inkscape:window-y="1255"
     inkscape:window-maximized="0"
     inkscape:current-layer="svg839"
     inkscape:document-rotation="0"
     showguides="false" />
  <title
     id="title833">Trash</title>
  <path
     d="M296 64h-80a7.91 7.91 0 00-8 8v24h96V72a7.91 7.91 0 00-8-8z"
     fill="none"
     id="path835"
     style="fill-rule:nonzero" />
  <path
     style="color:#000000;font-style:normal;font-variant:normal;font-weight:normal;font-stretch:normal;font-size:medium;line-height:normal;font-family:sans-serif;font-variant-ligatures:normal;font-variant-position:normal;font-variant-caps:normal;font-variant-numeric:normal;font-variant-alternates:normal;font-variant-east-asian:normal;font-feature-settings:normal;font-variation-settings:normal;text-indent:0;text-align:start;text-decoration:none;text-decoration-line:none;text-decoration-style:solid;text-decoration-color:#000000;letter-spacing:normal;word-spacing:normal;text-transform:none;writing-mode:lr-tb;direction:ltr;text-orientation:mixed;dominant-baseline:auto;baseline-shift:baseline;text-anchor:start;white-space:normal;shape-padding:0;shape-margin:0;inline-size:0;clip-rule:nonzero;display:inline;overflow:visible;visibility:visible;isolation:auto;mix-blend-mode:normal;color-interpolation:sRGB;color-interpolation-filters:linearRGB;solid-color:#000000;solid-opacity:1;vector-effect:none;fill:#000000;fill-opacity:1;fill-rule:nonzero;stroke-width:1;stroke-linecap:butt;stroke-linejoin:miter;stroke-miterlimit:4;stroke-dasharray:none;stroke-dashoffset:0;stroke-opacity:1;color-rendering:auto;image-rendering:auto;shape-rendering:auto;text-rendering:auto;enable-background:accumulate;stop-color:#000000;stop-opacity:1;stroke:none;opacity:1"
     d="M 432,96 H 336 V 72 C 336,49.90861 318.09139,32 296,32 h -80 c -22.09139,0 -40,17.90861 -40,40 V 96 H 80 c -8.836562,0 -15.999993,7.16344 -15.999993,16 0,8.83656 7.163431,16 15.999993,16 h 17 l 19,304.92 c 1.42,26.85 22,47.08 48,47.08 h 184 c 26.13,0 46.3,-19.78 48,-47 l 19,-305 h 17 c 8.83656,0 15.99999,-7.16344 15.99999,-16 0,-8.83656 -7.16343,-16 -15.99999,-16 z M 192.57,416 H 192 c -8.61866,0.005 -15.69296,-6.81681 -16,-15.43 l -8,-224 c -0.3148,-8.83656 6.59344,-16.25519 15.43,-16.56999 8.83656,-0.31481 16.2552,6.59343 16.57,15.42999 l 8,224 c 0.32049,8.83868 -6.59092,16.26072 -15.43,16.57 z M 272,400 c 0,8.83656 -7.16344,15.99999 -16,15.99999 -8.83656,0 -16,-7.16343 -16,-15.99999 V 176 c 0,-8.83656 7.16344,-15.99999 16,-15.99999 8.83656,0 16,7.16343 16,15.99999 z M 304,96 H 208 V 72 c -0.0508,-4.439151 3.56085,-8.050803 8,-8 h 80 c 4.43915,-0.0508 8.0508,3.560849 8,8 z m 32,304.57 c -0.30704,8.61319 -7.38134,15.43547 -16,15.43 h -0.58 c -8.83512,-0.31466 -15.74055,-7.73509 -15.42,-16.57 l 8,-224 c 0.3148,-8.83656 7.73344,-15.7448 16.57,-15.42999 8.83656,0.3148 15.7448,7.73343 15.43,16.56999 z"
     id="path837" />
</svg>
