<?xml version="1.0" encoding="utf-8"?>
<!-- Generator: Adobe Illustrator 24.0.0, SVG Export Plug-In . SVG Version: 6.00 Build 0)  -->
<svg version="1.1" id="Layer_1" xmlns="http://www.w3.org/2000/svg" xmlns:xlink="http://www.w3.org/1999/xlink" x="0px" y="0px"
	 viewBox="0 0 512 512" style="enable-background:new 0 0 512 512;" xml:space="preserve">
<title>ionicons-v5-k</title>
<g>
	<path d="M371.5,464H140.5c-24.3,0-44.8-18.2-47.7-42.4c0-0.1,0-0.1,0-0.2L64.1,145.7c-0.9-8.8,5.5-16.7,14.3-17.6
		c8.8-0.9,16.7,5.5,17.6,14.3L124.6,418c1,8,7.8,14,15.9,14h231.1c8.1,0,14.9-6,15.9-14l28.7-275.6c0.9-8.8,8.8-15.2,17.6-14.3
		c8.8,0.9,15.2,8.8,14.3,17.6l-28.7,275.7c0,0.1,0,0.1,0,0.2C416.4,445.8,395.9,464,371.5,464z"/>
</g>
<g>
	<path d="M464,160H48c-17.6,0-32-14.4-32-32V80c0-17.6,14.4-32,32-32h416c17.6,0,32,14.4,32,32v48C496,145.6,481.6,160,464,160z
		 M48,80C48,80,48,80,48,80v48h416V80H48z"/>
</g>
<g>
	<path d="M200,368c-4.1,0-8.2-1.6-11.3-4.7c-6.2-6.2-6.2-16.4,0-22.6l112-112c6.2-6.2,16.4-6.2,22.6,0c6.2,6.2,6.2,16.4,0,22.6
		l-112,112C208.2,366.4,204.1,368,200,368z"/>
</g>
<g>
	<path d="M312,368c-4.1,0-8.2-1.6-11.3-4.7l-112-112c-6.2-6.2-6.2-16.4,0-22.6c6.2-6.2,16.4-6.2,22.6,0l112,112
		c6.2,6.2,6.2,16.4,0,22.6C320.2,366.4,316.1,368,312,368z"/>
</g>
</svg>
