<?xml version="1.0" encoding="utf-8"?>
<!-- Generator: Adobe Illustrator 24.0.0, SVG Export Plug-In . SVG Version: 6.00 Build 0)  -->
<svg version="1.1" id="Layer_1" xmlns="http://www.w3.org/2000/svg" xmlns:xlink="http://www.w3.org/1999/xlink" x="0px" y="0px"
	 viewBox="0 0 512 512" style="enable-background:new 0 0 512 512;" xml:space="preserve">
<title>ionicons-v5-c</title>
<g>
	<path d="M464,272c-8.8,0-16-7.2-16-16v-96h-96c-8.8,0-16-7.2-16-16s7.2-16,16-16h112c8.8,0,16,7.2,16,16v112
		C480,264.8,472.8,272,464,272z"/>
</g>
<g>
	<path d="M48,384c-4.1,0-8.2-1.6-11.3-4.7c-6.2-6.2-6.2-16.4,0-22.6l121.4-121.4c9.1-9.1,21.1-14.1,33.9-14.1c0,0,0,0,0,0
		c12.8,0,24.9,5,33.9,14.1l50.7,50.7c3,3,7,4.7,11.3,4.7c0,0,0,0,0,0c4.3,0,8.3-1.7,11.3-4.7l137.4-137.4c6.2-6.2,16.4-6.2,22.6,0
		c6.2,6.2,6.2,16.4,0,22.6L321.9,308.7c-9.1,9.1-21.1,14.1-33.9,14.1c0,0,0,0,0,0c-12.8,0-24.9-5-33.9-14.1l-50.7-50.7
		c-3-3-7-4.7-11.3-4.7c-4.3,0-8.3,1.7-11.3,4.7L59.3,379.3C56.2,382.4,52.1,384,48,384z"/>
</g>
</svg>
