<?xml version="1.0" encoding="utf-8"?>
<!-- Generator: Adobe Illustrator 24.0.0, SVG Export Plug-In . SVG Version: 6.00 Build 0)  -->
<svg version="1.1" id="Layer_1" xmlns="http://www.w3.org/2000/svg" xmlns:xlink="http://www.w3.org/1999/xlink" x="0px" y="0px"
	 viewBox="0 0 512 512" style="enable-background:new 0 0 512 512;" xml:space="preserve">
<title>ionicons-v5-c</title>
<g>
	<path d="M464,384H352c-8.8,0-16-7.2-16-16s7.2-16,16-16h96v-96c0-8.8,7.2-16,16-16s16,7.2,16,16v112C480,376.8,472.8,384,464,384z"
		/>
</g>
<g>
	<path d="M448,368c-4.1,0-8.2-1.6-11.3-4.7L299.3,226c0,0,0,0,0,0c-3-3-7-4.7-11.3-4.7c-4.3,0-8.3,1.7-11.3,4.7L226,276.7
		c0,0,0,0,0,0c-18.7,18.7-49.2,18.7-67.9,0L36.7,155.3c-6.2-6.2-6.2-16.4,0-22.6c6.2-6.2,16.4-6.2,22.6,0l121.4,121.4
		c6.2,6.2,16.4,6.2,22.6,0c0,0,0,0,0,0l50.7-50.7c9.1-9.1,21.1-14.1,33.9-14.1c0,0,0,0,0,0c12.8,0,24.9,5,33.9,14.1c0,0,0,0,0,0
		l137.4,137.4c6.2,6.2,6.2,16.4,0,22.6C456.2,366.4,452.1,368,448,368z"/>
</g>
</svg>
