<?xml version="1.0" encoding="utf-8"?>
<!-- Generator: Adobe Illustrator 24.0.0, SVG Export Plug-In . SVG Version: 6.00 Build 0)  -->
<svg version="1.1" id="Layer_1" xmlns="http://www.w3.org/2000/svg" xmlns:xlink="http://www.w3.org/1999/xlink" x="0px" y="0px"
	 viewBox="0 0 512 512" style="enable-background:new 0 0 512 512;" xml:space="preserve">
<title>ionicons-v5-f</title>
<g>
	<path d="M447.9,384H64.1C37.6,384,16,362.4,16,335.9V128.1C16,101.6,37.6,80,64.1,80h383.7c26.5,0,48.1,21.6,48.1,48.1v207.7
		C496,362.4,474.4,384,447.9,384z M64.1,112c-8.9,0-16.1,7.2-16.1,16.1v207.7c0,8.9,7.2,16.1,16.1,16.1h383.7
		c8.9,0,16.1-7.2,16.1-16.1V128.1c0-8.9-7.2-16.1-16.1-16.1H64.1z"/>
</g>
<g>
	<path d="M384,432H128c-8.8,0-16-7.2-16-16s7.2-16,16-16h256c8.8,0,16,7.2,16,16S392.8,432,384,432z"/>
</g>
</svg>
