<?xml version="1.0" encoding="UTF-8" standalone="no"?>
<svg
   xmlns:dc="http://purl.org/dc/elements/1.1/"
   xmlns:cc="http://creativecommons.org/ns#"
   xmlns:rdf="http://www.w3.org/1999/02/22-rdf-syntax-ns#"
   xmlns:svg="http://www.w3.org/2000/svg"
   xmlns="http://www.w3.org/2000/svg"
   xmlns:sodipodi="http://sodipodi.sourceforge.net/DTD/sodipodi-0.dtd"
   xmlns:inkscape="http://www.inkscape.org/namespaces/inkscape"
   class="ionicon"
   viewBox="0 0 512 512"
   version="1.1"
   id="svg6"
   sodipodi:docname="umbrella.svg"
   inkscape:version="1.0.2 (e86c8708, 2021-01-15)">
  <metadata
     id="metadata12">
    <rdf:RDF>
      <cc:Work
         rdf:about="">
        <dc:format>image/svg+xml</dc:format>
        <dc:type
           rdf:resource="http://purl.org/dc/dcmitype/StillImage" />
      </cc:Work>
    </rdf:RDF>
  </metadata>
  <defs
     id="defs10" />
  <sodipodi:namedview
     pagecolor="#ffffff"
     bordercolor="#666666"
     borderopacity="1"
     objecttolerance="10"
     gridtolerance="10"
     guidetolerance="10"
     inkscape:pageopacity="0"
     inkscape:pageshadow="2"
     inkscape:window-width="689"
     inkscape:window-height="480"
     id="namedview8"
     showgrid="false"
     inkscape:zoom="1.3027344"
     inkscape:cx="256"
     inkscape:cy="256"
     inkscape:window-x="44"
     inkscape:window-y="25"
     inkscape:window-maximized="0"
     inkscape:current-layer="svg6" />
  <title
     id="title2">Umbrella</title>
  <path
     style="color:#000000;font-style:normal;font-variant:normal;font-weight:normal;font-stretch:normal;font-size:medium;line-height:normal;font-family:sans-serif;font-variant-ligatures:normal;font-variant-position:normal;font-variant-caps:normal;font-variant-numeric:normal;font-variant-alternates:normal;font-variant-east-asian:normal;font-feature-settings:normal;font-variation-settings:normal;text-indent:0;text-align:start;text-decoration:none;text-decoration-line:none;text-decoration-style:solid;text-decoration-color:#000000;letter-spacing:normal;word-spacing:normal;text-transform:none;writing-mode:lr-tb;direction:ltr;text-orientation:mixed;dominant-baseline:auto;baseline-shift:baseline;text-anchor:start;white-space:normal;shape-padding:0;shape-margin:0;inline-size:0;clip-rule:nonzero;display:inline;overflow:visible;visibility:visible;isolation:auto;mix-blend-mode:normal;color-interpolation:sRGB;color-interpolation-filters:linearRGB;solid-color:#000000;solid-opacity:1;vector-effect:none;fill:#000000;fill-opacity:1;fill-rule:nonzero;stroke-width:1;stroke-linecap:butt;stroke-linejoin:miter;stroke-miterlimit:4;stroke-dasharray:none;stroke-dashoffset:0;stroke-opacity:1;color-rendering:auto;image-rendering:auto;shape-rendering:auto;text-rendering:auto;enable-background:accumulate;stop-color:#000000;stop-opacity:1;stroke:none;opacity:1"
     d="M 414.39,113.61 C 377.85906,76.863045 329.63717,54.034313 278.06,49.07 c -3.20875,-0.33398 -5.91236,-2.54245 -6.88,-5.62 -4.36881,-15.258055 -25.99119,-15.258055 -30.36,0 -0.96764,3.07755 -3.67125,5.28602 -6.88,5.62 C 119.50696,60.394416 32.236731,156.52823 32,271.52 c -0.08789,5.55029 2.636109,10.76878 7.24,13.87 6.339135,4.14405 14.715419,3.27595 20.07,-2.08 20.239316,-20.23191 53.03759,-20.25876 73.31,-0.06 6.18982,6.3049 16.32704,6.37218 22.6,0.15 21.9647,-21.8601 56.61901,-24.35637 81.49,-5.87 2.07206,1.55699 3.29079,3.99816 3.29,6.59 v 147.42 c 0,8.6 -6.6,16 -15.19,16.44 -9.14317,0.46347 -16.8103,-6.82509 -16.81,-15.98 0.001,-8.95106 -7.34041,-16.16224 -16.29,-16 -9,0.16 -15.9,8.11 -15.7,17.1 0.6209,25.82289 21.5422,46.53662 47.37,46.9 26.88,0.34 48.62,-21.93 48.62,-48.81 V 284.12 c -7.9e-4,-2.59184 1.21794,-5.03301 3.29,-6.59 24.83224,-18.45784 59.42505,-16.00149 81.4,5.78 6.24754,6.24345 16.37246,6.24345 22.62,0 20.26847,-20.25091 53.11153,-20.25091 73.38,0 5.18965,5.1899 13.24484,6.18341 19.54,2.41 4.91129,-3.03822 7.8626,-8.43566 7.77,-14.21 0.0298,-59.27037 -23.58542,-116.10393 -65.61,-157.9 z"
     id="path4" />
</svg>
