<?xml version="1.0" encoding="utf-8"?>
<!-- Generator: Adobe Illustrator 24.0.0, SVG Export Plug-In . SVG Version: 6.00 Build 0)  -->
<svg version="1.1" id="Layer_1" xmlns="http://www.w3.org/2000/svg" xmlns:xlink="http://www.w3.org/1999/xlink" x="0px" y="0px"
	 viewBox="0 0 512 512" style="enable-background:new 0 0 512 512;" xml:space="preserve">
<title>ionicons-v5-q</title>
<g>
	<path d="M224,480c-26.5,0-48-21.5-48-48c0-8.8,7.2-16,16-16s16,7.2,16,16c0,8.8,7.2,16,16,16s16-7.2,16-16V272c0-8.8,7.2-16,16-16
		c8.8,0,16,7.2,16,16v160C272,458.5,250.5,480,224,480z"/>
</g>
<g>
	<path d="M464,288c-4.2,0-8.3-1.6-11.3-4.7l0,0c-9.8-9.8-22.8-15.2-36.7-15.2c-13.9,0-26.9,5.4-36.7,15.2c-6.2,6.2-16.4,6.2-22.6,0
		c-21.8-21.8-56.8-24.3-81.4-5.8l-9.7,7.3c-5.7,4.3-13.5,4.3-19.2,0l-9.7-7.3c-24.6-18.5-59.6-16-81.4,5.8c-6.1,6.1-16,6.2-22.2,0.4
		c-0.1-0.1-0.3-0.2-0.4-0.4c-9.8-9.8-22.8-15.2-36.7-15.2c-13.9,0-26.9,5.4-36.7,15.2c-4.6,4.6-11.5,5.9-17.4,3.5
		c-6-2.5-9.9-8.3-9.9-14.8c0-59.8,23.3-116.1,65.6-158.4C139.9,71.3,196.2,48,256,48s116.1,23.3,158.4,65.6
		C456.7,155.9,480,212.2,480,272c0,6.5-3.9,12.3-9.9,14.8C468.1,287.6,466.1,288,464,288z M199.3,233.1c20.3,0,40.2,6.6,56.6,18.9
		l0.1,0.1l0.1-0.1c18.2-13.6,40.6-20.2,63.2-18.6c17.7,1.3,34.6,7.5,48.8,17.8c14-9.7,30.5-15,47.9-15c10.3,0,20.2,1.8,29.6,5.3
		C430.9,150,351.5,80,256,80S81.1,150,66.4,241.5c9.3-3.5,19.3-5.3,29.6-5.3c17.4,0,33.9,5.2,47.9,15c14.2-10.3,31.1-16.5,48.8-17.8
		C194.9,233.2,197.1,233.1,199.3,233.1z"/>
</g>
<g>
	<path d="M256,80c-8.8,0-16-7.2-16-16V48c0-8.8,7.2-16,16-16c8.8,0,16,7.2,16,16v16C272,72.8,264.8,80,256,80z"/>
</g>
</svg>
