<?xml version="1.0" encoding="UTF-8" standalone="no"?>
<svg
   xmlns:dc="http://purl.org/dc/elements/1.1/"
   xmlns:cc="http://creativecommons.org/ns#"
   xmlns:rdf="http://www.w3.org/1999/02/22-rdf-syntax-ns#"
   xmlns:svg="http://www.w3.org/2000/svg"
   xmlns="http://www.w3.org/2000/svg"
   xmlns:sodipodi="http://sodipodi.sourceforge.net/DTD/sodipodi-0.dtd"
   xmlns:inkscape="http://www.inkscape.org/namespaces/inkscape"
   class="ionicon"
   viewBox="0 0 512 512"
   version="1.1"
   id="svg6"
   sodipodi:docname="umbrella-outline.svg"
   inkscape:version="1.0.2 (e86c8708, 2021-01-15)">
  <metadata
     id="metadata12">
    <rdf:RDF>
      <cc:Work
         rdf:about="">
        <dc:format>image/svg+xml</dc:format>
        <dc:type
           rdf:resource="http://purl.org/dc/dcmitype/StillImage" />
      </cc:Work>
    </rdf:RDF>
  </metadata>
  <defs
     id="defs10" />
  <sodipodi:namedview
     pagecolor="#ffffff"
     bordercolor="#666666"
     borderopacity="1"
     objecttolerance="10"
     gridtolerance="10"
     guidetolerance="10"
     inkscape:pageopacity="0"
     inkscape:pageshadow="2"
     inkscape:window-width="689"
     inkscape:window-height="480"
     id="namedview8"
     showgrid="false"
     inkscape:zoom="1.3027344"
     inkscape:cx="256"
     inkscape:cy="256"
     inkscape:window-x="44"
     inkscape:window-y="25"
     inkscape:window-maximized="0"
     inkscape:current-layer="svg6" />
  <title
     id="title2">Umbrella</title>
  <path
     style="color:#000000;font-style:normal;font-variant:normal;font-weight:normal;font-stretch:normal;font-size:medium;line-height:normal;font-family:sans-serif;font-variant-ligatures:normal;font-variant-position:normal;font-variant-caps:normal;font-variant-numeric:normal;font-variant-alternates:normal;font-variant-east-asian:normal;font-feature-settings:normal;font-variation-settings:normal;text-indent:0;text-align:start;text-decoration:none;text-decoration-line:none;text-decoration-style:solid;text-decoration-color:#000000;letter-spacing:normal;word-spacing:normal;text-transform:none;writing-mode:lr-tb;direction:ltr;text-orientation:mixed;dominant-baseline:auto;baseline-shift:baseline;text-anchor:start;white-space:normal;shape-padding:0;shape-margin:0;inline-size:0;clip-rule:nonzero;display:inline;overflow:visible;visibility:visible;isolation:auto;mix-blend-mode:normal;color-interpolation:sRGB;color-interpolation-filters:linearRGB;solid-color:#000000;solid-opacity:1;vector-effect:none;fill:currentColor;fill-opacity:1;fill-rule:nonzero;stroke:none;stroke-linecap:round;stroke-linejoin:round;stroke-miterlimit:4;stroke-dasharray:none;stroke-dashoffset:0;stroke-opacity:1;color-rendering:auto;image-rendering:auto;shape-rendering:auto;text-rendering:auto;enable-background:accumulate;stop-color:#000000;stop-opacity:1;opacity:1"
     d="M 256 32 A 16 16 0 0 0 240 48 L 240 48.634766 C 123.92254 56.873062 32 153.85932 32 272 A 16.0016 16.0016 0 0 0 59.314453 283.3125 C 79.709162 262.91644 112.29084 262.91644 132.68555 283.3125 A 16.0016 16.0016 0 0 0 155.3125 283.31445 C 177.31165 261.31958 211.82269 258.86813 236.71094 277.53125 L 240 280 L 240 432 C 240 441.02607 233.02607 448 224 448 C 214.97393 448 208 441.02607 208 432 A 16 16 0 0 0 192 416 A 16 16 0 0 0 176 432 C 176 458.32015 197.67985 480 224 480 C 250.32015 480 272 458.32015 272 432 L 272 280 L 275.28906 277.53125 L 275.29297 277.5293 C 300.18095 258.86903 334.68938 261.32061 356.6875 283.31445 A 16.0016 16.0016 0 0 0 379.31445 283.3125 C 399.70916 262.91644 432.29084 262.91644 452.68555 283.3125 A 16.0016 16.0016 0 0 0 480 272 C 480 153.85932 388.07746 56.873062 272 48.634766 L 272 48 A 16 16 0 0 0 256 32 z M 256 80 C 351.84395 80 430.7992 149.88816 445.37109 241.55664 C 419.99353 232.13995 390.94529 235.3564 368.12109 251.2207 C 335.17338 227.23603 289.55687 226.83501 256.0918 251.92969 A 16.0016 16.0016 0 0 0 256.08789 251.93164 L 256 251.99805 L 255.91211 251.93164 A 16.0016 16.0016 0 0 0 255.9082 251.92969 C 222.44313 226.83501 176.82662 227.23603 143.87891 251.2207 C 121.05471 235.3564 92.006468 232.13995 66.628906 241.55664 C 81.200797 149.88816 160.15605 80 256 80 z "
     id="path4" />
</svg>
