<?xml version="1.0" encoding="UTF-8" standalone="no"?>
<svg
   xmlns:dc="http://purl.org/dc/elements/1.1/"
   xmlns:cc="http://creativecommons.org/ns#"
   xmlns:rdf="http://www.w3.org/1999/02/22-rdf-syntax-ns#"
   xmlns:svg="http://www.w3.org/2000/svg"
   xmlns="http://www.w3.org/2000/svg"
   xmlns:sodipodi="http://sodipodi.sourceforge.net/DTD/sodipodi-0.dtd"
   xmlns:inkscape="http://www.inkscape.org/namespaces/inkscape"
   class="ionicon"
   viewBox="0 0 512 512"
   version="1.1"
   id="svg8"
   sodipodi:docname="videocam-off-outline.svg"
   inkscape:version="1.0.2 (e86c8708, 2021-01-15)">
  <metadata
     id="metadata14">
    <rdf:RDF>
      <cc:Work
         rdf:about="">
        <dc:format>image/svg+xml</dc:format>
        <dc:type
           rdf:resource="http://purl.org/dc/dcmitype/StillImage" />
      </cc:Work>
    </rdf:RDF>
  </metadata>
  <defs
     id="defs12" />
  <sodipodi:namedview
     pagecolor="#ffffff"
     bordercolor="#666666"
     borderopacity="1"
     objecttolerance="10"
     gridtolerance="10"
     guidetolerance="10"
     inkscape:pageopacity="0"
     inkscape:pageshadow="2"
     inkscape:window-width="689"
     inkscape:window-height="480"
     id="namedview10"
     showgrid="false"
     inkscape:zoom="1.3027344"
     inkscape:cx="256"
     inkscape:cy="256"
     inkscape:window-x="44"
     inkscape:window-y="25"
     inkscape:window-maximized="0"
     inkscape:current-layer="svg8" />
  <title
     id="title2">Videocam Off</title>
  <path
     style="color:#000000;font-style:normal;font-variant:normal;font-weight:normal;font-stretch:normal;font-size:medium;line-height:normal;font-family:sans-serif;font-variant-ligatures:normal;font-variant-position:normal;font-variant-caps:normal;font-variant-numeric:normal;font-variant-alternates:normal;font-variant-east-asian:normal;font-feature-settings:normal;font-variation-settings:normal;text-indent:0;text-align:start;text-decoration:none;text-decoration-line:none;text-decoration-style:solid;text-decoration-color:#000000;letter-spacing:normal;word-spacing:normal;text-transform:none;writing-mode:lr-tb;direction:ltr;text-orientation:mixed;dominant-baseline:auto;baseline-shift:baseline;text-anchor:start;white-space:normal;shape-padding:0;shape-margin:0;inline-size:0;clip-rule:nonzero;display:inline;overflow:visible;visibility:visible;isolation:auto;mix-blend-mode:normal;color-interpolation:sRGB;color-interpolation-filters:linearRGB;solid-color:#000000;solid-opacity:1;vector-effect:none;fill:currentColor;fill-opacity:1;fill-rule:nonzero;stroke:none;stroke-linecap:round;stroke-linejoin:round;stroke-miterlimit:4;stroke-dasharray:none;stroke-dashoffset:0;stroke-opacity:1;color-rendering:auto;image-rendering:auto;shape-rendering:auto;text-rendering:auto;enable-background:accumulate;stop-color:#000000;stop-opacity:1;opacity:1"
     d="M 462.80664 127.74219 C 458.86196 127.82262 454.86503 128.66055 451 130.37891 A 16.0016 16.0016 0 0 0 448.29102 131.91602 L 365.58008 190.13672 C 357.08131 196.11938 352.00222 205.90355 352 216.29688 A 16.0016 16.0016 0 0 0 352 216.30078 L 352 295.69922 A 16.0016 16.0016 0 0 0 352 295.70312 C 352.00222 306.09645 357.08131 315.88062 365.58008 321.86328 L 448.29102 380.08398 A 16.0016 16.0016 0 0 0 451 381.62109 C 471.6135 390.78566 495.99973 374.9398 496 352.38086 L 496 159.61914 C 495.99978 141.29 479.90028 127.39363 462.80664 127.74219 z M 464 159.99023 L 464 352.00977 L 384 295.69727 L 384 216.30273 L 464 159.99023 z "
     id="path4" />
  <path
     style="color:#000000;font-style:normal;font-variant:normal;font-weight:normal;font-stretch:normal;font-size:medium;line-height:normal;font-family:sans-serif;font-variant-ligatures:normal;font-variant-position:normal;font-variant-caps:normal;font-variant-numeric:normal;font-variant-alternates:normal;font-variant-east-asian:normal;font-feature-settings:normal;font-variation-settings:normal;text-indent:0;text-align:start;text-decoration:none;text-decoration-line:none;text-decoration-style:solid;text-decoration-color:#000000;letter-spacing:normal;word-spacing:normal;text-transform:none;writing-mode:lr-tb;direction:ltr;text-orientation:mixed;dominant-baseline:auto;baseline-shift:baseline;text-anchor:start;white-space:normal;shape-padding:0;shape-margin:0;inline-size:0;clip-rule:nonzero;display:inline;overflow:visible;visibility:visible;isolation:auto;mix-blend-mode:normal;color-interpolation:sRGB;color-interpolation-filters:linearRGB;solid-color:#000000;solid-opacity:1;vector-effect:none;fill:currentColor;fill-opacity:1;fill-rule:nonzero;stroke:none;stroke-linecap:round;stroke-linejoin:miter;stroke-miterlimit:10;stroke-dasharray:none;stroke-dashoffset:0;stroke-opacity:1;color-rendering:auto;image-rendering:auto;shape-rendering:auto;text-rendering:auto;enable-background:accumulate;stop-color:#000000;stop-opacity:1;opacity:1"
     d="M 80.121094 64 A 16 16 0 0 0 68.685547 68.685547 A 16 16 0 0 0 68.685547 91.314453 L 404.68555 427.31445 A 16 16 0 0 0 427.31445 427.31445 A 16 16 0 0 0 427.31445 404.68555 L 91.314453 68.685547 A 16 16 0 0 0 80.121094 64 z M 208 112 A 16 16 0 0 0 192 128 A 16 16 0 0 0 208 144 L 268.42969 144 C 288.23491 144.06122 303.93878 159.76509 304 179.57031 L 304 248 A 16 16 0 0 0 320 264 A 16 16 0 0 0 336 248 L 336 179.49609 L 336 179.4707 C 335.88553 142.44143 305.55857 112.11447 268.5293 112 L 268.50391 112 L 208 112 z M 50.214844 124.57031 A 16 16 0 0 0 39.792969 128.4082 C 24.718427 141.29473 16.019248 160.15248 16 179.98438 L 16 179.99219 L 16 332.02344 L 16 332.04688 C 16.107131 369.34599 46.654005 399.89287 83.953125 400 L 83.976562 400 L 267.98438 400 C 277.94693 400.01023 287.78819 397.81746 296.80469 393.58008 A 16 16 0 0 0 304.48047 372.29492 A 16 16 0 0 0 283.19531 364.61914 C 278.4465 366.85088 273.2627 368.00539 268.01562 368 L 268.00781 368 L 84.046875 368 C 63.976772 367.94235 48.057645 352.02323 48 331.95312 L 48 180.01562 C 48.010196 169.50965 52.600181 159.55908 60.585938 152.73242 A 16 16 0 0 0 62.351562 130.17383 A 16 16 0 0 0 50.214844 124.57031 z "
     id="path6" />
</svg>
