<?xml version="1.0" encoding="utf-8"?>
<!-- Generator: Adobe Illustrator 24.0.0, SVG Export Plug-In . SVG Version: 6.00 Build 0)  -->
<svg version="1.1" id="Layer_1" xmlns="http://www.w3.org/2000/svg" xmlns:xlink="http://www.w3.org/1999/xlink" x="0px" y="0px"
	 viewBox="0 0 512 512" style="enable-background:new 0 0 512 512;" xml:space="preserve">
<title>ionicons-v5-g</title>
<g>
	<path d="M464,384.4c-4.4,0-8.8-0.9-13-2.8c-1-0.4-1.9-0.9-2.7-1.5l-82.7-58.2v0c-8.5-6-13.6-15.8-13.6-26.2v-79.4
		c0-10.4,5.1-20.2,13.6-26.2l82.7-58.2c0.9-0.6,1.8-1.1,2.7-1.5c4.1-1.8,8.5-2.8,13-2.8c17.6,0,32,14.4,32,32v192.8
		c0,4.5-0.9,8.9-2.8,13c-3.5,7.8-9.8,13.8-17.8,16.9C471.8,383.7,467.9,384.4,464,384.4z M384,295.7l80,56.3V160l-80,56.3V295.7
		L384,295.7z"/>
</g>
<g>
	<path d="M268,400H84c-37.4-0.1-67.9-30.6-68-68V180c0.1-37.4,30.6-67.9,68-68h184.5c37.1,0.1,67.4,30.4,67.5,67.5V332
		C335.9,369.4,305.4,399.9,268,400L268,400z M268.4,144H84c-19.8,0.1-35.9,16.2-36,36v152c0.1,19.8,16.2,35.9,36,36H268
		c19.8-0.1,36-16.2,36-36V179.5C303.9,160,288,144.1,268.4,144z"/>
</g>
</svg>
