<?xml version="1.0" encoding="utf-8"?>
<!-- Generator: Adobe Illustrator 24.0.0, SVG Export Plug-In . SVG Version: 6.00 Build 0)  -->
<svg version="1.1" id="Layer_1" xmlns="http://www.w3.org/2000/svg" xmlns:xlink="http://www.w3.org/1999/xlink" x="0px" y="0px"
	 viewBox="0 0 512 512" style="enable-background:new 0 0 512 512;" xml:space="preserve">
<title>ionicons-v5-g</title>
<g>
	<path d="M416,448c-4.1,0-8.2-1.6-11.3-4.7l-352-352c-6.2-6.2-6.2-16.4,0-22.6c6.2-6.2,16.4-6.2,22.6,0l352,352
		c6.2,6.2,6.2,16.4,0,22.6C424.2,446.4,420.1,448,416,448z"/>
</g>
<g>
	<path d="M224,136.9v33.8c0,1.1,0.4,2.1,1.2,2.8l24,24c1.6,1.6,4.1,1.6,5.7,0c0.7-0.7,1.2-1.8,1.2-2.8v-74.2
		c0.1-9-4.8-17.4-12.7-21.7c-8.2-4.4-18.1-3.7-25.6,1.8c-0.2,0.2-0.4,0.3-0.7,0.5l-31.9,26.2c-1.7,1.4-2,3.9-0.6,5.6
		c0.1,0.1,0.2,0.2,0.3,0.3l17.1,17.1c1.5,1.5,3.8,1.6,5.4,0.3L224,136.9z"/>
</g>
<g>
	<path d="M224,375.1l-78.1-63.9c-5.7-4.7-12.9-7.2-20.3-7.2H64v-96h50.7c2.2,0,4-1.8,4-4c0-1.1-0.4-2.1-1.2-2.8l-24-24
		c-0.7-0.7-1.8-1.2-2.8-1.2H56c-13.3,0-24,10.7-24,24v112c0,13.3,10.7,24,24,24h69.8l91.4,74.8c0.2,0.2,0.4,0.4,0.7,0.5
		c7.5,5.6,17.6,6.2,25.9,1.7c7.7-4.4,12.5-12.7,12.4-21.5v-50.2c0-1.1-0.4-2.1-1.2-2.8l-24-24c-1.6-1.6-4.1-1.6-5.7,0
		c-0.7,0.7-1.2,1.8-1.2,2.8V375.1z"/>
</g>
<g>
	<path d="M352,256c0-24.6-5.8-47.9-17.8-71.3c-4.2-7.8-13.8-10.7-21.6-6.6c-7.6,4.1-10.6,13.4-6.9,21.1
		c9.6,18.8,14.2,37.3,14.2,56.7c0,2.7-0.1,5.4-0.3,8.1c-0.2,2.3,0.7,4.6,2.3,6.2l19.7,19.7c1.6,1.6,4.1,1.6,5.7,0
		c0.6-0.6,0.9-1.3,1.1-2C350.8,277.5,352,266.8,352,256z"/>
</g>
<g>
	<path d="M416,256c0-51.2-13.1-83.9-34.2-120.1c-4.6-7.6-14.4-10-22-5.5c-7.4,4.5-10,14-5.7,21.6C373.1,184.4,384,211.8,384,256
		c0,23.8-3.3,42.9-9.4,60.6c-1,2.9-0.3,6.1,1.9,8.3l16.8,16.8c1.6,1.6,4.1,1.6,5.7,0c0.4-0.4,0.7-0.8,0.9-1.3
		C410.1,315.9,416,289.9,416,256z"/>
</g>
<g>
	<path d="M480,256c0-74.3-20.2-121.1-50.5-168.6c-4.8-7.5-14.7-9.6-22.1-4.9c-7.5,4.8-9.6,14.7-4.9,22.1
		C429.8,147.4,448,189.5,448,256c0,47.5-8.9,82.1-23.6,113c-0.7,1.5-0.4,3.3,0.8,4.5l17.8,17.8c1.6,1.6,4.1,1.6,5.7,0
		c0.3-0.3,0.6-0.6,0.7-1C470.9,348.2,480,307,480,256z"/>
</g>
</svg>
