<?xml version="1.0" encoding="utf-8"?>
<!-- Generator: Adobe Illustrator 24.0.0, SVG Export Plug-In . SVG Version: 6.00 Build 0)  -->
<svg version="1.1" id="Layer_1" xmlns="http://www.w3.org/2000/svg" xmlns:xlink="http://www.w3.org/1999/xlink" x="0px" y="0px"
	 viewBox="0 0 512 512" style="enable-background:new 0 0 512 512;" xml:space="preserve">
<title>ionicons-v5-g</title>
<g>
	<path d="M327.1,341.5l-28.6-14.4l7.2-14.3c9.5-18.9,14.3-38,14.3-56.8c0-19.4-4.7-37.9-14.2-56.7l-7.3-14.2l28.5-14.6l7.3,14.2
		c11.9,23.4,17.8,46.7,17.8,71.3c0,23.9-6,47.8-17.7,71.2L327.1,341.5z"/>
</g>
<g>
	<path d="M373.9,389.8l-27.7-15.9l8-13.9C373,327.1,384,299.5,384,256c0-44.2-10.9-71.6-29.8-103.9l-8.1-13.8l27.6-16.1l8.1,13.8
		C402.9,172.1,416,204.8,416,256c0,50.4-13.1,83.3-34.1,120L373.9,389.8z"/>
</g>
<g>
	<path d="M420.7,438.1l-26.8-17.5l8.7-13.4C429.8,365.5,448,323.8,448,256c0-66.5-18.2-108.6-45.5-151.4l-8.6-13.5l27-17.2l8.6,13.5
		C459.8,134.9,480,181.7,480,256c0,64.7-14.7,113.6-50.6,168.7L420.7,438.1z"/>
</g>
<g>
	<polygon points="125.7,176.1 32,176.1 32,335.9 125.7,335.9 256,440 256,72 	"/>
</g>
</svg>
