<?xml version="1.0" encoding="UTF-8" standalone="no"?>
<svg
   xmlns:dc="http://purl.org/dc/elements/1.1/"
   xmlns:cc="http://creativecommons.org/ns#"
   xmlns:rdf="http://www.w3.org/1999/02/22-rdf-syntax-ns#"
   xmlns:svg="http://www.w3.org/2000/svg"
   xmlns="http://www.w3.org/2000/svg"
   xmlns:sodipodi="http://sodipodi.sourceforge.net/DTD/sodipodi-0.dtd"
   xmlns:inkscape="http://www.inkscape.org/namespaces/inkscape"
   class="ionicon"
   viewBox="0 0 512 512"
   version="1.1"
   id="svg10"
   sodipodi:docname="volume-mute.svg"
   inkscape:version="1.0.2 (e86c8708, 2021-01-15)">
  <metadata
     id="metadata16">
    <rdf:RDF>
      <cc:Work
         rdf:about="">
        <dc:format>image/svg+xml</dc:format>
        <dc:type
           rdf:resource="http://purl.org/dc/dcmitype/StillImage" />
      </cc:Work>
    </rdf:RDF>
  </metadata>
  <defs
     id="defs14" />
  <sodipodi:namedview
     pagecolor="#ffffff"
     bordercolor="#666666"
     borderopacity="1"
     objecttolerance="10"
     gridtolerance="10"
     guidetolerance="10"
     inkscape:pageopacity="0"
     inkscape:pageshadow="2"
     inkscape:window-width="689"
     inkscape:window-height="480"
     id="namedview12"
     showgrid="false"
     inkscape:zoom="1.3027344"
     inkscape:cx="256"
     inkscape:cy="256"
     inkscape:window-x="44"
     inkscape:window-y="25"
     inkscape:window-maximized="0"
     inkscape:current-layer="svg10" />
  <title
     id="title2">Volume Mute</title>
  <path
     style="color:#000000;font-style:normal;font-variant:normal;font-weight:normal;font-stretch:normal;font-size:medium;line-height:normal;font-family:sans-serif;font-variant-ligatures:normal;font-variant-position:normal;font-variant-caps:normal;font-variant-numeric:normal;font-variant-alternates:normal;font-variant-east-asian:normal;font-feature-settings:normal;font-variation-settings:normal;text-indent:0;text-align:start;text-decoration:none;text-decoration-line:none;text-decoration-style:solid;text-decoration-color:#000000;letter-spacing:normal;word-spacing:normal;text-transform:none;writing-mode:lr-tb;direction:ltr;text-orientation:mixed;dominant-baseline:auto;baseline-shift:baseline;text-anchor:start;white-space:normal;shape-padding:0;shape-margin:0;inline-size:0;clip-rule:nonzero;display:inline;overflow:visible;visibility:visible;isolation:auto;mix-blend-mode:normal;color-interpolation:sRGB;color-interpolation-filters:linearRGB;solid-color:#000000;solid-opacity:1;vector-effect:none;fill:currentColor;fill-opacity:1;fill-rule:nonzero;stroke:none;stroke-linecap:round;stroke-linejoin:miter;stroke-miterlimit:10;stroke-dasharray:none;stroke-dashoffset:0;stroke-opacity:1;color-rendering:auto;image-rendering:auto;shape-rendering:auto;text-rendering:auto;enable-background:accumulate;stop-color:#000000;stop-opacity:1;opacity:1"
     d="M 64.121094 64 A 16 16 0 0 0 52.685547 68.685547 A 16 16 0 0 0 52.685547 91.314453 L 404.68555 443.31445 A 16 16 0 0 0 427.31445 443.31445 A 16 16 0 0 0 427.31445 420.68555 L 75.314453 68.685547 A 16 16 0 0 0 64.121094 64 z "
     id="path4" />
  <path
     style="color:#000000;font-style:normal;font-variant:normal;font-weight:normal;font-stretch:normal;font-size:medium;line-height:normal;font-family:sans-serif;font-variant-ligatures:normal;font-variant-position:normal;font-variant-caps:normal;font-variant-numeric:normal;font-variant-alternates:normal;font-variant-east-asian:normal;font-feature-settings:normal;font-variation-settings:normal;text-indent:0;text-align:start;text-decoration:none;text-decoration-line:none;text-decoration-style:solid;text-decoration-color:#000000;letter-spacing:normal;word-spacing:normal;text-transform:none;writing-mode:lr-tb;direction:ltr;text-orientation:mixed;dominant-baseline:auto;baseline-shift:baseline;text-anchor:start;white-space:normal;shape-padding:0;shape-margin:0;inline-size:0;clip-rule:nonzero;display:inline;overflow:visible;visibility:visible;isolation:auto;mix-blend-mode:normal;color-interpolation:sRGB;color-interpolation-filters:linearRGB;solid-color:#000000;solid-opacity:1;vector-effect:none;fill:#000000;fill-opacity:1;fill-rule:nonzero;stroke-width:1;stroke-linecap:butt;stroke-linejoin:miter;stroke-miterlimit:4;stroke-dasharray:none;stroke-dashoffset:0;stroke-opacity:1;color-rendering:auto;image-rendering:auto;shape-rendering:auto;text-rendering:auto;enable-background:accumulate;stop-color:#000000;stop-opacity:1;stroke:none;opacity:1"
     d="m 243.33,98.86 c -8.14967,-4.396203 -18.10577,-3.687002 -25.55,1.82 l -0.66,0.51 -28.52,23.35 c -3.66393,2.99747 -3.93806,8.50341 -0.59,11.85 l 54.33,54.33 c 5.04058,5.04619 13.66561,1.47242 13.66,-5.66 v -64.49 c 0.0915,-9.01629 -4.77483,-17.35476 -12.67,-21.71 z m 8,236.43 L 96.69,180.69 C 93.690934,177.68897 89.622711,176.00197 85.38,176 H 56 c -13.254834,0 -24,10.74517 -24,24 v 112 c 0,13.25483 10.745166,24 24,24 h 69.76 l 92,75.31 c 7.54212,5.59771 17.66372,6.25892 25.87,1.69 7.72879,-4.406 12.46327,-12.65403 12.37,-21.55 v -44.86 c 6.9e-4,-4.23638 -1.67875,-8.30011 -4.67,-11.3 z M 352,256 c 0,-24.56 -5.81,-47.87 -17.75,-71.27 -3.98338,-7.93549 -13.66655,-11.10971 -21.57471,-7.07238 -7.90817,4.03733 -11.01639,13.74189 -6.92529,21.62238 9.59,18.78 14.25,37.34 14.25,56.72 0,2.66667 -0.10333,5.37667 -0.31,8.13 -0.17292,2.32166 0.67409,4.60348 2.32,6.25 l 14.36,14.36 c 4.59058,4.60077 12.4609,2.09736 13.55,-4.31 1.37709,-8.07061 2.07287,-16.24275 2.08,-24.43 z m 64,0 c 0,-51.18 -13.08,-83.89 -34.18,-120.06 -4.50935,-7.50409 -14.21245,-9.99057 -21.77501,-5.57999 C 352.48242,134.7706 349.86894,144.44026 354.18,152.06 373.07,184.44 384,211.83 384,256 c 0,23.83 -3.29,42.88 -9.37,60.65 -0.99705,2.89019 -0.25965,6.09592 1.9,8.26 L 389,337.4 c 4.09537,4.10005 11.05565,2.62105 13.13,-2.79 C 411,311.76 416,287.26 416,256 Z"
     id="path6" />
  <path
     style="color:#000000;font-style:normal;font-variant:normal;font-weight:normal;font-stretch:normal;font-size:medium;line-height:normal;font-family:sans-serif;font-variant-ligatures:normal;font-variant-position:normal;font-variant-caps:normal;font-variant-numeric:normal;font-variant-alternates:normal;font-variant-east-asian:normal;font-feature-settings:normal;font-variation-settings:normal;text-indent:0;text-align:start;text-decoration:none;text-decoration-line:none;text-decoration-style:solid;text-decoration-color:#000000;letter-spacing:normal;word-spacing:normal;text-transform:none;writing-mode:lr-tb;direction:ltr;text-orientation:mixed;dominant-baseline:auto;baseline-shift:baseline;text-anchor:start;white-space:normal;shape-padding:0;shape-margin:0;inline-size:0;clip-rule:nonzero;display:inline;overflow:visible;visibility:visible;isolation:auto;mix-blend-mode:normal;color-interpolation:sRGB;color-interpolation-filters:linearRGB;solid-color:#000000;solid-opacity:1;vector-effect:none;fill:#000000;fill-opacity:1;fill-rule:nonzero;stroke-width:1;stroke-linecap:butt;stroke-linejoin:miter;stroke-miterlimit:4;stroke-dasharray:none;stroke-dashoffset:0;stroke-opacity:1;color-rendering:auto;image-rendering:auto;shape-rendering:auto;text-rendering:auto;enable-background:accumulate;stop-color:#000000;stop-opacity:1;stroke:none;opacity:1"
     d="M 480,256 C 480,181.75 459.81,134.89 429.49,87.39 424.73483,79.934151 414.83585,77.744834 407.38,82.500006 399.92416,87.255177 397.73483,97.154151 402.49,104.61 429.82,147.38 448,189.5 448,256 c 0,46.19 -8.43,80.27 -22.43,110.53 -1.40444,3.03729 -0.77012,6.62778 1.59,9 l 11.92,11.92 c 3.89072,3.95432 10.5271,2.84483 12.92,-2.16 C 471.6,344.9 480,305 480,256 Z"
     id="path8" />
</svg>
