<?xml version="1.0" encoding="utf-8"?>
<!-- Generator: Adobe Illustrator 24.0.0, SVG Export Plug-In . SVG Version: 6.00 Build 0)  -->
<svg version="1.1" id="Layer_1" xmlns="http://www.w3.org/2000/svg" xmlns:xlink="http://www.w3.org/1999/xlink" x="0px" y="0px"
	 viewBox="0 0 512 512" style="enable-background:new 0 0 512 512;" xml:space="preserve">
<title>ionicons-v5-g</title>
<g>
	<polygon points="157.6,176.1 64,176.1 64,335.9 157.6,335.9 288,440 288,72 	"/>
</g>
<g>
	<path d="M359.1,341.5l-28.6-14.4l7.2-14.3c9.5-18.9,14.3-38,14.3-56.8c0-19.4-4.7-37.9-14.3-56.7l-7.3-14.3l28.5-14.5l7.3,14.3
		c11.9,23.4,17.7,46.7,17.7,71.3c0,23.8-6,47.8-17.7,71.2L359.1,341.5z"/>
</g>
<g>
	<path d="M405.9,389.8l-27.8-15.9l8-13.9c19.4-33.8,29.9-60.4,29.9-104c0-44.2-10.9-71.5-29.8-103.9l-8.1-13.8l27.6-16.1l8.1,13.8
		C434.9,172.1,448,204.8,448,256c0,50.3-13.1,83.2-34.1,120L405.9,389.8z"/>
</g>
</svg>
