<?xml version="1.0" encoding="utf-8"?>
<!-- Generator: Adobe Illustrator 24.0.0, SVG Export Plug-In . SVG Version: 6.00 Build 0)  -->
<svg version="1.1" id="Layer_1" xmlns="http://www.w3.org/2000/svg" xmlns:xlink="http://www.w3.org/1999/xlink" x="0px" y="0px"
	 viewBox="0 0 512 512" style="enable-background:new 0 0 512 512;" xml:space="preserve">
<title>ionicons-v5-g</title>
<g>
	<path d="M416,448c-4.1,0-8.2-1.6-11.3-4.7l-352-352c-6.2-6.2-6.2-16.4,0-22.6c6.2-6.2,16.4-6.2,22.6,0l352,352
		c6.2,6.2,6.2,16.4,0,22.6C424.2,446.4,420.1,448,416,448z"/>
</g>
<g>
	<path d="M243.3,98.9c-8.1-4.4-18.1-3.7-25.6,1.8l-0.7,0.5l-28.5,23.3c-3.4,2.8-3.9,7.8-1.1,11.3c0.2,0.2,0.3,0.4,0.5,0.6l54.3,54.3
		c3.1,3.1,8.2,3.1,11.3,0c1.5-1.5,2.3-3.5,2.3-5.7v-64.5C256.1,111.6,251.2,103.2,243.3,98.9z"/>
</g>
<g>
	<path d="M251.3,335.3L96.7,180.7c-3-3-7.1-4.7-11.3-4.7H56c-13.3,0-24,10.7-24,24v112c0,13.3,10.7,24,24,24h69.8l92,75.3
		c7.5,5.6,17.7,6.3,25.9,1.7c7.7-4.4,12.5-12.7,12.4-21.5v-44.9C256,342.4,254.3,338.3,251.3,335.3z"/>
</g>
<g>
	<path d="M352,256c0-24.6-5.8-47.9-17.8-71.3c-4-7.9-13.6-11.1-21.5-7.1c-7.9,4-11.1,13.6-7.1,21.5c0,0.1,0.1,0.1,0.1,0.2
		c9.6,18.8,14.2,37.3,14.2,56.7c0,2.7-0.1,5.4-0.3,8.1c-0.2,2.3,0.7,4.6,2.3,6.2l14.4,14.4c3.1,3.1,8.2,3.1,11.3,0
		c1.2-1.2,2-2.7,2.2-4.3C351.3,272.4,352,264.2,352,256z"/>
</g>
<g>
	<path d="M416,256c0-51.2-13.1-83.9-34.2-120.1c-4.6-7.6-14.4-10-22-5.5c-7.4,4.5-10,14-5.7,21.6C373.1,184.4,384,211.8,384,256
		c0,23.8-3.3,42.9-9.4,60.6c-1,2.9-0.3,6.1,1.9,8.3l12.5,12.5c3.1,3.1,8.2,3.1,11.3,0c0.8-0.8,1.4-1.7,1.8-2.8
		C411,311.8,416,287.3,416,256z"/>
</g>
<g>
	<path d="M480,256c0-74.2-20.2-121.1-50.5-168.6c-4.8-7.5-14.7-9.6-22.1-4.9c-7.5,4.8-9.6,14.7-4.9,22.1
		C429.8,147.4,448,189.5,448,256c0,46.2-8.4,80.3-22.4,110.5c-1.4,3-0.8,6.6,1.6,9l11.9,11.9c3.1,3.1,8.2,3.2,11.3,0.1
		c0.7-0.7,1.2-1.4,1.6-2.3C471.6,344.9,480,305,480,256z"/>
</g>
</svg>
