<?xml version="1.0" encoding="UTF-8" standalone="no"?>
<svg
   xmlns:dc="http://purl.org/dc/elements/1.1/"
   xmlns:cc="http://creativecommons.org/ns#"
   xmlns:rdf="http://www.w3.org/1999/02/22-rdf-syntax-ns#"
   xmlns:svg="http://www.w3.org/2000/svg"
   xmlns="http://www.w3.org/2000/svg"
   xmlns:sodipodi="http://sodipodi.sourceforge.net/DTD/sodipodi-0.dtd"
   xmlns:inkscape="http://www.inkscape.org/namespaces/inkscape"
   class="ionicon"
   viewBox="0 0 512 512"
   version="1.1"
   id="svg6"
   sodipodi:docname="volume-medium-outline.svg"
   inkscape:version="1.0.2 (e86c8708, 2021-01-15)">
  <metadata
     id="metadata12">
    <rdf:RDF>
      <cc:Work
         rdf:about="">
        <dc:format>image/svg+xml</dc:format>
        <dc:type
           rdf:resource="http://purl.org/dc/dcmitype/StillImage" />
      </cc:Work>
    </rdf:RDF>
  </metadata>
  <defs
     id="defs10" />
  <sodipodi:namedview
     pagecolor="#ffffff"
     bordercolor="#666666"
     borderopacity="1"
     objecttolerance="10"
     gridtolerance="10"
     guidetolerance="10"
     inkscape:pageopacity="0"
     inkscape:pageshadow="2"
     inkscape:window-width="689"
     inkscape:window-height="480"
     id="namedview8"
     showgrid="false"
     inkscape:zoom="1.3027344"
     inkscape:cx="256"
     inkscape:cy="256"
     inkscape:window-x="44"
     inkscape:window-y="25"
     inkscape:window-maximized="0"
     inkscape:current-layer="svg6" />
  <title
     id="title2">Volume Medium</title>
  <path
     style="color:#000000;font-style:normal;font-variant:normal;font-weight:normal;font-stretch:normal;font-size:medium;line-height:normal;font-family:sans-serif;font-variant-ligatures:normal;font-variant-position:normal;font-variant-caps:normal;font-variant-numeric:normal;font-variant-alternates:normal;font-variant-east-asian:normal;font-feature-settings:normal;font-variation-settings:normal;text-indent:0;text-align:start;text-decoration:none;text-decoration-line:none;text-decoration-style:solid;text-decoration-color:#000000;letter-spacing:normal;word-spacing:normal;text-transform:none;writing-mode:lr-tb;direction:ltr;text-orientation:mixed;dominant-baseline:auto;baseline-shift:baseline;text-anchor:start;white-space:normal;shape-padding:0;shape-margin:0;inline-size:0;clip-rule:nonzero;display:inline;overflow:visible;visibility:visible;isolation:auto;mix-blend-mode:normal;color-interpolation:sRGB;color-interpolation-filters:linearRGB;solid-color:#000000;solid-opacity:1;vector-effect:none;fill:currentColor;fill-opacity:1;fill-rule:nonzero;stroke:none;stroke-linecap:round;stroke-linejoin:round;stroke-miterlimit:4;stroke-dasharray:none;stroke-dashoffset:0;stroke-opacity:1;color-rendering:auto;image-rendering:auto;shape-rendering:auto;text-rendering:auto;enable-background:accumulate;stop-color:#000000;stop-opacity:1;opacity:1"
     d="M 262.09961 96.222656 C 257.81186 96.3898 253.54171 97.732729 249.7793 100.5 A 16.0016 16.0016 0 0 0 249.11523 101.01758 L 157.66602 176 A 16.0016 16.0016 0 0 0 157.65039 176 L 88 176 C 74.93468 176 64 186.93468 64 200 L 64 312 C 64 325.06532 74.93468 336 88 336 L 157.64258 336 A 16.0016 16.0016 0 0 0 157.64453 336.00195 L 249.11523 411.00195 A 16.0016 16.0016 0 0 0 249.7793 411.51953 C 264.84681 422.6018 288.03612 410.84283 288 392.13867 L 288 119.83008 A 16.0016 16.0016 0 0 0 288 119.82031 C 287.99201 105.80882 274.96285 95.721224 262.09961 96.222656 z M 399.86914 128 A 16 16 0 0 0 391.94141 130.17773 A 16 16 0 0 0 386.17773 152.05859 C 405.55608 185.29246 416 210.66667 416 256 C 416 301.21778 405.04905 327.00358 386.11719 360.04688 A 16 16 0 0 0 392.04688 381.88281 A 16 16 0 0 0 413.88281 375.95312 C 433.91095 340.99642 448 306.78222 448 256 C 448 205.33333 434.44392 171.30754 413.82227 135.94141 A 16 16 0 0 0 399.86914 128 z M 256 136.75195 L 256 375.26758 L 177.9375 311.25977 L 177.93555 311.25781 C 172.22041 306.57006 165.04999 304.00372 157.6582 304 A 16.0016 16.0016 0 0 0 157.65039 304 L 96 304 L 96 208 L 157.63281 208 C 165.02062 208.00755 172.19313 205.45377 177.91406 200.7793 A 16.0016 16.0016 0 0 0 177.93555 200.76172 L 256 136.75195 z M 352.09375 176 A 16 16 0 0 0 344.72852 177.74805 A 16 16 0 0 0 337.74805 199.27148 C 346.8339 217.07976 352 235.21225 352 256 C 352 276.3106 346.55741 295.17149 337.69922 312.82422 A 16 16 0 0 0 344.82422 334.30078 A 16 16 0 0 0 366.30078 327.17578 C 376.92259 306.00851 384 282.0694 384 256 C 384 229.76775 377.1661 206.12024 366.25195 184.72852 A 16 16 0 0 0 352.09375 176 z "
     id="path4" />
</svg>
