<?xml version="1.0" encoding="UTF-8" standalone="no"?>
<svg
   xmlns:dc="http://purl.org/dc/elements/1.1/"
   xmlns:cc="http://creativecommons.org/ns#"
   xmlns:rdf="http://www.w3.org/1999/02/22-rdf-syntax-ns#"
   xmlns:svg="http://www.w3.org/2000/svg"
   xmlns="http://www.w3.org/2000/svg"
   xmlns:sodipodi="http://sodipodi.sourceforge.net/DTD/sodipodi-0.dtd"
   xmlns:inkscape="http://www.inkscape.org/namespaces/inkscape"
   class="ionicon"
   viewBox="0 0 512 512"
   version="1.1"
   id="svg6"
   sodipodi:docname="volume-high-outline.svg"
   inkscape:version="1.0.2 (e86c8708, 2021-01-15)">
  <metadata
     id="metadata12">
    <rdf:RDF>
      <cc:Work
         rdf:about="">
        <dc:format>image/svg+xml</dc:format>
        <dc:type
           rdf:resource="http://purl.org/dc/dcmitype/StillImage" />
      </cc:Work>
    </rdf:RDF>
  </metadata>
  <defs
     id="defs10" />
  <sodipodi:namedview
     pagecolor="#ffffff"
     bordercolor="#666666"
     borderopacity="1"
     objecttolerance="10"
     gridtolerance="10"
     guidetolerance="10"
     inkscape:pageopacity="0"
     inkscape:pageshadow="2"
     inkscape:window-width="689"
     inkscape:window-height="480"
     id="namedview8"
     showgrid="false"
     inkscape:zoom="1.3027344"
     inkscape:cx="256"
     inkscape:cy="256"
     inkscape:window-x="44"
     inkscape:window-y="25"
     inkscape:window-maximized="0"
     inkscape:current-layer="svg6" />
  <title
     id="title2">Volume High</title>
  <path
     style="color:#000000;font-style:normal;font-variant:normal;font-weight:normal;font-stretch:normal;font-size:medium;line-height:normal;font-family:sans-serif;font-variant-ligatures:normal;font-variant-position:normal;font-variant-caps:normal;font-variant-numeric:normal;font-variant-alternates:normal;font-variant-east-asian:normal;font-feature-settings:normal;font-variation-settings:normal;text-indent:0;text-align:start;text-decoration:none;text-decoration-line:none;text-decoration-style:solid;text-decoration-color:#000000;letter-spacing:normal;word-spacing:normal;text-transform:none;writing-mode:lr-tb;direction:ltr;text-orientation:mixed;dominant-baseline:auto;baseline-shift:baseline;text-anchor:start;white-space:normal;shape-padding:0;shape-margin:0;inline-size:0;clip-rule:nonzero;display:inline;overflow:visible;visibility:visible;isolation:auto;mix-blend-mode:normal;color-interpolation:sRGB;color-interpolation-filters:linearRGB;solid-color:#000000;solid-opacity:1;vector-effect:none;fill:currentColor;fill-opacity:1;fill-rule:nonzero;stroke:none;stroke-linecap:round;stroke-linejoin:round;stroke-miterlimit:4;stroke-dasharray:none;stroke-dashoffset:0;stroke-opacity:1;color-rendering:auto;image-rendering:auto;shape-rendering:auto;text-rendering:auto;enable-background:accumulate;stop-color:#000000;stop-opacity:1;opacity:1"
     d="M 415.89844 80 A 16 16 0 0 0 407.39062 82.513672 A 16 16 0 0 0 402.51367 104.60938 C 431.61488 150.20127 448 190.23006 448 256 C 448 321.76994 431.56424 362.84434 402.59766 407.25977 A 16 16 0 0 0 407.25977 429.40234 A 16 16 0 0 0 429.40234 424.74023 C 460.43576 377.15566 480 327.37006 480 256 C 480 184.62994 460.38512 135.79873 429.48633 87.390625 A 16 16 0 0 0 415.89844 80 z M 230.0918 96.402344 C 225.80629 96.571129 221.53948 97.916 217.7793 100.68164 A 16.0016 16.0016 0 0 0 217.125 101.18945 L 125.75195 176 L 56 176 C 42.93468 176 32 186.93468 32 200 L 32 312 C 32 325.06532 42.93468 336 56 336 L 125.65039 336 A 16.0016 16.0016 0 0 0 125.75195 336 L 217.125 410.81055 A 16.0016 16.0016 0 0 0 217.7793 411.31836 C 232.82003 422.38092 255.96603 410.7002 256 392.0293 A 16.0016 16.0016 0 0 0 256 392 L 256 120 A 16.0016 16.0016 0 0 0 256 119.9707 C 255.97452 105.96752 242.94831 95.895989 230.0918 96.402344 z M 367.86133 128 A 16 16 0 0 0 359.93359 130.18164 A 16 16 0 0 0 354.18164 152.06641 C 373.54989 185.24422 384 210.73 384 256 C 384 301.1543 373.041 327.09333 354.125 360.03125 A 16 16 0 0 0 360.03125 381.875 A 16 16 0 0 0 381.875 375.96875 C 401.919 341.06667 416 306.7257 416 256 C 416 205.39 402.45011 171.27578 381.81836 135.93359 A 16 16 0 0 0 367.86133 128 z M 224 136.91797 L 224 375.08203 L 145.92578 311.16016 A 16.0016 16.0016 0 0 0 145.84766 311.0957 C 140.10088 306.45113 132.91222 303.94121 125.52344 304 L 64 304 L 64 208 L 125.88086 208 C 133.27852 208.05488 140.46152 205.45705 146.11328 200.68359 L 145.92578 200.83984 L 224 136.91797 z M 320.08789 176 A 16 16 0 0 0 312.72266 177.75 A 16 16 0 0 0 305.75 199.27734 C 314.82741 217.0509 320 235.24572 320 256 C 320 276.27687 314.55019 295.21117 305.70312 312.81445 A 16 16 0 0 0 312.81445 334.29688 A 16 16 0 0 0 334.29688 327.18555 C 344.92981 306.02883 352 282.04313 352 256 C 352 229.79428 345.17259 206.1091 334.25 184.72266 A 16 16 0 0 0 320.08789 176 z "
     id="path4" />
</svg>
