<?xml version="1.0" encoding="UTF-8" standalone="no"?>
<svg
   xmlns:dc="http://purl.org/dc/elements/1.1/"
   xmlns:cc="http://creativecommons.org/ns#"
   xmlns:rdf="http://www.w3.org/1999/02/22-rdf-syntax-ns#"
   xmlns:svg="http://www.w3.org/2000/svg"
   xmlns="http://www.w3.org/2000/svg"
   xmlns:sodipodi="http://sodipodi.sourceforge.net/DTD/sodipodi-0.dtd"
   xmlns:inkscape="http://www.inkscape.org/namespaces/inkscape"
   class="ionicon"
   viewBox="0 0 512 512"
   version="1.1"
   id="svg10"
   sodipodi:docname="volume-mute-outline.svg"
   inkscape:version="1.0.2 (e86c8708, 2021-01-15)">
  <metadata
     id="metadata16">
    <rdf:RDF>
      <cc:Work
         rdf:about="">
        <dc:format>image/svg+xml</dc:format>
        <dc:type
           rdf:resource="http://purl.org/dc/dcmitype/StillImage" />
      </cc:Work>
    </rdf:RDF>
  </metadata>
  <defs
     id="defs14" />
  <sodipodi:namedview
     pagecolor="#ffffff"
     bordercolor="#666666"
     borderopacity="1"
     objecttolerance="10"
     gridtolerance="10"
     guidetolerance="10"
     inkscape:pageopacity="0"
     inkscape:pageshadow="2"
     inkscape:window-width="689"
     inkscape:window-height="480"
     id="namedview12"
     showgrid="false"
     inkscape:zoom="1.3027344"
     inkscape:cx="256"
     inkscape:cy="256"
     inkscape:window-x="44"
     inkscape:window-y="25"
     inkscape:window-maximized="0"
     inkscape:current-layer="svg10" />
  <title
     id="title2">Volume Mute</title>
  <path
     style="color:#000000;font-style:normal;font-variant:normal;font-weight:normal;font-stretch:normal;font-size:medium;line-height:normal;font-family:sans-serif;font-variant-ligatures:normal;font-variant-position:normal;font-variant-caps:normal;font-variant-numeric:normal;font-variant-alternates:normal;font-variant-east-asian:normal;font-feature-settings:normal;font-variation-settings:normal;text-indent:0;text-align:start;text-decoration:none;text-decoration-line:none;text-decoration-style:solid;text-decoration-color:#000000;letter-spacing:normal;word-spacing:normal;text-transform:none;writing-mode:lr-tb;direction:ltr;text-orientation:mixed;dominant-baseline:auto;baseline-shift:baseline;text-anchor:start;white-space:normal;shape-padding:0;shape-margin:0;inline-size:0;clip-rule:nonzero;display:inline;overflow:visible;visibility:visible;isolation:auto;mix-blend-mode:normal;color-interpolation:sRGB;color-interpolation-filters:linearRGB;solid-color:#000000;solid-opacity:1;vector-effect:none;fill:currentColor;fill-opacity:1;fill-rule:nonzero;stroke:none;stroke-linecap:round;stroke-linejoin:miter;stroke-miterlimit:10;stroke-dasharray:none;stroke-dashoffset:0;stroke-opacity:1;color-rendering:auto;image-rendering:auto;shape-rendering:auto;text-rendering:auto;enable-background:accumulate;stop-color:#000000;stop-opacity:1;opacity:1"
     d="M 64.121094 64 A 16 16 0 0 0 52.685547 68.685547 A 16 16 0 0 0 52.685547 91.314453 L 404.68555 443.31445 A 16 16 0 0 0 427.31445 443.31445 A 16 16 0 0 0 427.31445 420.68555 L 75.314453 68.685547 A 16 16 0 0 0 64.121094 64 z "
     id="path4" />
  <path
     style="color:#000000;font-style:normal;font-variant:normal;font-weight:normal;font-stretch:normal;font-size:medium;line-height:normal;font-family:sans-serif;font-variant-ligatures:normal;font-variant-position:normal;font-variant-caps:normal;font-variant-numeric:normal;font-variant-alternates:normal;font-variant-east-asian:normal;font-feature-settings:normal;font-variation-settings:normal;text-indent:0;text-align:start;text-decoration:none;text-decoration-line:none;text-decoration-style:solid;text-decoration-color:#000000;letter-spacing:normal;word-spacing:normal;text-transform:none;writing-mode:lr-tb;direction:ltr;text-orientation:mixed;dominant-baseline:auto;baseline-shift:baseline;text-anchor:start;white-space:normal;shape-padding:0;shape-margin:0;inline-size:0;clip-rule:nonzero;display:inline;overflow:visible;visibility:visible;isolation:auto;mix-blend-mode:normal;color-interpolation:sRGB;color-interpolation-filters:linearRGB;solid-color:#000000;solid-opacity:1;vector-effect:none;fill:#000000;fill-opacity:1;fill-rule:nonzero;stroke-width:1;stroke-linecap:butt;stroke-linejoin:miter;stroke-miterlimit:4;stroke-dasharray:none;stroke-dashoffset:0;stroke-opacity:1;color-rendering:auto;image-rendering:auto;shape-rendering:auto;text-rendering:auto;enable-background:accumulate;stop-color:#000000;stop-opacity:1;stroke:none;opacity:1"
     d="m 224,136.92 v 33.8 c 0.002,1.05772 0.42249,2.07166 1.17,2.82 l 24,24 c 2.51688,2.51969 6.8239,0.74139 6.83,-2.82 v -74.15 c 0.0908,-9.01869 -4.77483,-17.35979 -12.67,-21.72 -8.15264,-4.388311 -18.10599,-3.67541 -25.55,1.83 -0.22844,0.15879 -0.44872,0.32901 -0.66,0.51 l -31.94,26.15 c -1.82689,1.50001 -1.96154,4.24862 -0.29,5.92 l 17.05,17.06 c 1.45622,1.45603 3.77993,1.56854 5.37,0.26 z m 0,238.16 -78.07,-63.92 c -5.73151,-4.65488 -12.8964,-7.1845 -20.28,-7.16 H 64 v -96 h 50.72 c 3.56139,-0.006 5.33969,-4.31312 2.82,-6.83 l -24,-24 C 92.791664,176.42249 91.77772,176.00181 90.72,176 H 56 c -13.254834,0 -24,10.74517 -24,24 v 112 c 0,13.25483 10.745166,24 24,24 h 69.76 l 91.36,74.8 c 0.21128,0.18099 0.43156,0.35121 0.66,0.51 7.54043,5.5818 17.64701,6.24254 25.85,1.69 7.73191,-4.40286 12.46756,-12.65291 12.37,-21.55 v -50.17 c -0.002,-1.05772 -0.42249,-2.07166 -1.17,-2.82 l -24,-24 c -2.51688,-2.51969 -6.8239,-0.74139 -6.83,2.82 z M 125.82,336 Z M 352,256 c 0,-24.56 -5.81,-47.88 -17.75,-71.27 -4.10485,-7.69702 -13.61866,-10.68751 -21.38902,-6.72326 -7.77036,3.96425 -10.93332,13.42211 -7.11098,21.26326 9.59,18.79 14.25,37.35 14.25,56.73 0,2.66667 -0.10333,5.37667 -0.31,8.13 -0.17292,2.32166 0.67409,4.60348 2.32,6.25 l 19.66,19.67 c 2.24458,2.25549 6.09644,1.1142 6.75,-2 2.36602,-10.51956 3.56659,-21.26765 3.58,-32.05 z m 64,0 c 0,-51.19 -13.08,-83.89 -34.18,-120.06 -4.50935,-7.50409 -14.21245,-9.99057 -21.77501,-5.57999 C 352.48242,134.7706 349.86894,144.44026 354.18,152.06 373.07,184.44 384,211.83 384,256 c 0,23.83 -3.29,42.88 -9.37,60.65 -0.99705,2.89019 -0.25965,6.09592 1.9,8.26 l 16.77,16.76 c 2.00692,2.01457 5.41593,1.35055 6.52,-1.27 C 410.09,315.88 416,289.91 416,256 Z"
     id="path6" />
  <path
     style="color:#000000;font-style:normal;font-variant:normal;font-weight:normal;font-stretch:normal;font-size:medium;line-height:normal;font-family:sans-serif;font-variant-ligatures:normal;font-variant-position:normal;font-variant-caps:normal;font-variant-numeric:normal;font-variant-alternates:normal;font-variant-east-asian:normal;font-feature-settings:normal;font-variation-settings:normal;text-indent:0;text-align:start;text-decoration:none;text-decoration-line:none;text-decoration-style:solid;text-decoration-color:#000000;letter-spacing:normal;word-spacing:normal;text-transform:none;writing-mode:lr-tb;direction:ltr;text-orientation:mixed;dominant-baseline:auto;baseline-shift:baseline;text-anchor:start;white-space:normal;shape-padding:0;shape-margin:0;inline-size:0;clip-rule:nonzero;display:inline;overflow:visible;visibility:visible;isolation:auto;mix-blend-mode:normal;color-interpolation:sRGB;color-interpolation-filters:linearRGB;solid-color:#000000;solid-opacity:1;vector-effect:none;fill:#000000;fill-opacity:1;fill-rule:nonzero;stroke-width:1;stroke-linecap:butt;stroke-linejoin:miter;stroke-miterlimit:4;stroke-dasharray:none;stroke-dashoffset:0;stroke-opacity:1;color-rendering:auto;image-rendering:auto;shape-rendering:auto;text-rendering:auto;enable-background:accumulate;stop-color:#000000;stop-opacity:1;stroke:none;opacity:1"
     d="M 480,256 C 480,181.74 459.81,134.89 429.49,87.39 424.73483,79.934151 414.83585,77.744834 407.38,82.500006 399.92416,87.255177 397.73483,97.154151 402.49,104.61 429.82,147.38 448,189.5 448,256 c 0,47.45 -8.9,82.12 -23.59,113 -0.73226,1.52676 -0.42385,3.34919 0.77,4.55 L 443,391.39 c 1.91805,1.93059 5.1623,1.42368 6.4,-1 C 470.88,348.22 480,307 480,256 Z"
     id="path8" />
</svg>
