<?xml version="1.0" encoding="utf-8"?>
<!-- Generator: Adobe Illustrator 24.0.0, SVG Export Plug-In . SVG Version: 6.00 Build 0)  -->
<svg version="1.1" id="Layer_1" xmlns="http://www.w3.org/2000/svg" xmlns:xlink="http://www.w3.org/1999/xlink" x="0px" y="0px"
	 viewBox="0 0 512 512" style="enable-background:new 0 0 512 512;" xml:space="preserve">
<title>ionicons-v5-g</title>
<g>
	<path d="M231.9,416c-5.1,0-10-1.6-14.2-4.7c-0.2-0.2-0.4-0.3-0.7-0.5L125.7,336L56,336c-13.2,0-24-10.8-24-24V200
		c0-13.2,10.8-24,24-24h69.8l91.4-74.8c0.2-0.2,0.4-0.3,0.7-0.5c4.1-3,9-4.7,14.2-4.7c0,0,0,0,0,0c6.4,0,12.4,2.5,16.9,7
		c4.5,4.5,7,10.5,7.1,17v272c0,5.2-1.6,10.1-4.7,14.2c-3.8,5.2-9.4,8.5-15.7,9.5C234.4,415.9,233.2,416,231.9,416z M125.8,304
		c7.3,0,14.4,2.5,20.1,7.1c0,0,0.1,0,0.1,0.1l78.1,63.9V136.9l-78,63.9c-5.6,4.7-12.7,7.3-20.1,7.2H64v96h61.6
		C125.7,304,125.7,304,125.8,304z M126.1,176L126.1,176L126.1,176z"/>
</g>
<g>
	<path d="M320,336c-2.4,0-4.9-0.5-7.2-1.7c-7.9-4-11.1-13.6-7.1-21.5c9.5-18.9,14.3-38,14.3-56.8c0-19.4-4.7-37.9-14.2-56.7
		c-4-7.9-0.9-17.5,7-21.5c7.9-4,17.5-0.9,21.5,7c11.9,23.4,17.8,46.7,17.8,71.3c0,23.9-6,47.8-17.7,71.2
		C331.5,332.8,325.8,336,320,336z"/>
</g>
<g>
	<path d="M368,384c-2.7,0-5.4-0.7-8-2.1c-7.7-4.4-10.3-14.2-5.9-21.8C373,327.1,384,299.5,384,256c0-44.2-10.9-71.6-29.8-103.9
		c-4.5-7.6-1.9-17.4,5.8-21.9c7.6-4.5,17.4-1.9,21.9,5.8C402.9,172.1,416,204.8,416,256c0,50.4-13.1,83.3-34.1,120
		C378.9,381.1,373.5,384,368,384z"/>
</g>
<g>
	<path d="M416,432c-3,0-6-0.8-8.7-2.6c-7.4-4.8-9.5-14.7-4.7-22.1C429.9,365.5,448,323.8,448,256c0-66.5-18.2-108.6-45.5-151.4
		c-4.8-7.4-2.6-17.3,4.9-22.1c7.4-4.8,17.3-2.6,22.1,4.9C459.8,134.9,480,181.7,480,256c0,64.7-14.7,113.6-50.6,168.7
		C426.3,429.4,421.2,432,416,432z"/>
</g>
</svg>
