<?xml version="1.0" encoding="UTF-8"?>
<svg width="512px" height="512px" viewBox="0 0 512 512" version="1.1" xmlns="http://www.w3.org/2000/svg" xmlns:xlink="http://www.w3.org/1999/xlink">
    <!-- Generator: Sketch 62 (91390) - https://sketch.com -->
    <title>Artboard</title>
    <desc>Created with Sketch.</desc>
    <g id="Artboard" stroke="none" stroke-width="1" fill="none" fill-rule="evenodd">
        <g id="volume-mute-sharp" transform="translate(32.000000, 57.000000)" fill="#000000" fill-rule="nonzero">
            <path d="M31.99951,0.37561 L406.62109,374.99719 L383.99389,397.62439 L9.37231,23.00281 L31.99951,0.37561 Z M60.5,119.1 L224,282.6 L224,383 L93.7,278.9 L0,278.9 L0,119.1 L60.5,119.1 Z M388.9,16.9 L397.5,30.4 C427.8,77.9 448,124.7 448,199 C448,252 438.2,294.4 414.9,338.2 L414.9,338.2 L391.2,314.5 C406.6,283 416,247.8 416,199 C416,132.5 397.8,90.4 370.5,47.6 L370.5,47.6 L361.9,34.1 L388.9,16.9 Z M341.7,65.1 L349.8,78.9 C370.9,115.1 384,147.8 384,199 C384,235.4 377.2,262.7 365.5,288.8 L365.5,288.8 L341,264.3 C348.1,245.2 352,224.9 352,199 C352,154.8 341.1,127.4 322.2,95 L322.2,95 L314.1,81.2 L341.7,65.1 Z M295,113.4 L302.2,127.7 C314.2,151.1 320,174.4 320,199 C320,212.2 318.2,225.3 314.7,238 L314.7,238 L287.4,210.7 C287.8,206.8 288,202.9 288,199 C288,179.6 283.4,161 273.8,142.2 L273.8,142.2 L266.5,128 L295,113.4 Z M224,15 L224,147.4 L150.4,73.8 L224,15 Z" id="Combined-Shape"></path>
        </g>
    </g>
</svg>