<?xml version="1.0" encoding="utf-8"?>
<!-- Generator: Adobe Illustrator 24.0.0, SVG Export Plug-In . SVG Version: 6.00 Build 0)  -->
<svg version="1.1" id="Layer_1" xmlns="http://www.w3.org/2000/svg" xmlns:xlink="http://www.w3.org/1999/xlink" x="0px" y="0px"
	 viewBox="0 0 512 512" style="enable-background:new 0 0 512 512;" xml:space="preserve">
<title>ionicons-v5-g</title>
<g>
	<path d="M343.9,416.2c-5.1,0-10-1.6-14.2-4.7c-0.2-0.2-0.4-0.3-0.7-0.5l-91.5-75l-69.6,0c-13.2,0-24-10.8-24-24V200
		c0-13.2,10.8-24,24-24h69.6v16l0-16c0,0,0,0,0,0l91.4-75c0.2-0.2,0.4-0.4,0.7-0.5c4.1-3,9.1-4.7,14.2-4.7c0,0,0,0,0,0
		c13.2,0,24,10.8,24,24v272.4c0,5.1-1.6,10.1-4.7,14.2c-3.8,5.2-9.4,8.5-15.7,9.5C346.4,416.1,345.2,416.2,343.9,416.2z M336,392.2
		C336,392.2,336,392.2,336,392.2L336,392.2z M176,304h61.6c7.4,0,14.6,2.6,20.3,7.3l78.1,64V136.8l-78.1,64
		c-5.7,4.7-12.9,7.2-20.3,7.2c0,0,0,0,0,0H176V304z"/>
</g>
</svg>
