<?xml version="1.0" encoding="utf-8"?>
<!-- Generator: Adobe Illustrator 24.0.0, SVG Export Plug-In . SVG Version: 6.00 Build 0)  -->
<svg version="1.1" id="Layer_1" xmlns="http://www.w3.org/2000/svg" xmlns:xlink="http://www.w3.org/1999/xlink" x="0px" y="0px"
	 viewBox="0 0 512 512" style="enable-background:new 0 0 512 512;" xml:space="preserve">
<title>ionicons-v5-g</title>
<g>
	<path d="M263.9,416.2c-5.1,0-10-1.6-14.2-4.7c-0.2-0.2-0.4-0.3-0.7-0.5l-91.5-75L88,336c-13.2,0-24-10.8-24-24V200
		c0-13.2,10.8-24,24-24h69.6v16l0-16c0,0,0,0,0,0l91.4-75c0.2-0.2,0.4-0.4,0.7-0.5c4.1-3,9.1-4.7,14.2-4.7c0,0,0,0,0,0
		c13.2,0,24,10.8,24,24v272.4c0,5.1-1.6,10.1-4.7,14.2c-3.8,5.2-9.4,8.5-15.7,9.5C266.4,416.1,265.2,416.2,263.9,416.2z M256,392.2
		C256,392.2,256,392.2,256,392.2L256,392.2z M96,304h61.6c7.4,0,14.6,2.6,20.3,7.3l78.1,64V136.8l-78.1,64
		c-5.7,4.7-12.9,7.2-20.3,7.2c0,0,0,0,0,0H96V304z"/>
</g>
<g>
	<path d="M352,336c-2.4,0-4.9-0.5-7.2-1.7c-7.9-4-11.1-13.6-7.1-21.5c9.5-18.9,14.3-38,14.3-56.8c0-19.4-4.7-37.9-14.3-56.7
		c-4-7.9-0.9-17.5,7-21.5c7.9-4,17.5-0.9,21.5,7c11.9,23.4,17.7,46.7,17.7,71.3c0,23.8-6,47.8-17.7,71.2
		C363.5,332.8,357.8,336,352,336z"/>
</g>
<g>
	<path d="M400,384c-2.7,0-5.4-0.7-7.9-2.1c-7.7-4.4-10.3-14.2-5.9-21.8c19.4-33.8,29.9-60.4,29.9-104c0-44.2-10.9-71.5-29.8-103.9
		c-4.5-7.6-1.9-17.4,5.8-21.9c7.6-4.4,17.4-1.9,21.9,5.8C434.9,172.1,448,204.8,448,256c0,50.3-13.1,83.2-34.1,120
		C410.9,381.1,405.5,384,400,384z"/>
</g>
</svg>
