<?xml version="1.0" encoding="UTF-8" standalone="no"?>
<svg
   xmlns:dc="http://purl.org/dc/elements/1.1/"
   xmlns:cc="http://creativecommons.org/ns#"
   xmlns:rdf="http://www.w3.org/1999/02/22-rdf-syntax-ns#"
   xmlns:svg="http://www.w3.org/2000/svg"
   xmlns="http://www.w3.org/2000/svg"
   xmlns:sodipodi="http://sodipodi.sourceforge.net/DTD/sodipodi-0.dtd"
   xmlns:inkscape="http://www.inkscape.org/namespaces/inkscape"
   class="ionicon"
   viewBox="0 0 512 512"
   version="1.1"
   id="svg8"
   sodipodi:docname="walk-outline.svg"
   inkscape:version="1.0.2 (e86c8708, 2021-01-15)">
  <metadata
     id="metadata14">
    <rdf:RDF>
      <cc:Work
         rdf:about="">
        <dc:format>image/svg+xml</dc:format>
        <dc:type
           rdf:resource="http://purl.org/dc/dcmitype/StillImage" />
      </cc:Work>
    </rdf:RDF>
  </metadata>
  <defs
     id="defs12" />
  <sodipodi:namedview
     pagecolor="#ffffff"
     bordercolor="#666666"
     borderopacity="1"
     objecttolerance="10"
     gridtolerance="10"
     guidetolerance="10"
     inkscape:pageopacity="0"
     inkscape:pageshadow="2"
     inkscape:window-width="689"
     inkscape:window-height="480"
     id="namedview10"
     showgrid="false"
     inkscape:zoom="1.3027344"
     inkscape:cx="256"
     inkscape:cy="256"
     inkscape:window-x="44"
     inkscape:window-y="25"
     inkscape:window-maximized="0"
     inkscape:current-layer="svg8" />
  <title
     id="title2">Walk</title>
  <path
     style="color:#000000;font-style:normal;font-variant:normal;font-weight:normal;font-stretch:normal;font-size:medium;line-height:normal;font-family:sans-serif;font-variant-ligatures:normal;font-variant-position:normal;font-variant-caps:normal;font-variant-numeric:normal;font-variant-alternates:normal;font-variant-east-asian:normal;font-feature-settings:normal;font-variation-settings:normal;text-indent:0;text-align:start;text-decoration:none;text-decoration-line:none;text-decoration-style:solid;text-decoration-color:#000000;letter-spacing:normal;word-spacing:normal;text-transform:none;writing-mode:lr-tb;direction:ltr;text-orientation:mixed;dominant-baseline:auto;baseline-shift:baseline;text-anchor:start;white-space:normal;shape-padding:0;shape-margin:0;inline-size:0;clip-rule:nonzero;display:inline;overflow:visible;visibility:visible;isolation:auto;mix-blend-mode:normal;color-interpolation:sRGB;color-interpolation-filters:linearRGB;solid-color:#000000;solid-opacity:1;vector-effect:none;fill:currentColor;fill-opacity:1;fill-rule:nonzero;stroke:none;stroke-linecap:round;stroke-linejoin:round;stroke-miterlimit:4;stroke-dasharray:none;stroke-dashoffset:0;stroke-opacity:1;color-rendering:auto;image-rendering:auto;shape-rendering:auto;text-rendering:auto;enable-background:accumulate;stop-color:#000000;stop-opacity:1;opacity:1"
     d="M 202.41992 128 A 16.0016 16.0016 0 0 0 200.5918 128.10547 C 186.75032 128.6538 174.97914 135.21641 165.06055 143.15234 C 154.70255 151.43985 145.88491 161.66709 138.38672 171.66602 C 123.39035 191.66386 113.58789 211.375 113.58789 211.375 A 16.0016 16.0016 0 0 0 111.90039 218.5293 L 111.90039 293.05078 A 16 16 0 0 0 127.90039 309.05078 A 16 16 0 0 0 143.90039 293.05078 L 143.90039 222.62305 C 145.94714 218.69644 152.85275 205.71265 163.98828 190.86328 C 170.46259 182.22971 177.94511 173.82554 185.05273 168.13867 C 185.52428 167.76138 185.9561 167.5131 186.41992 167.16406 L 186.41992 273.14062 C 186.41996 289.03758 190.68715 304.64455 198.77539 318.33008 A 16.0016 16.0016 0 0 0 199.94727 320.04688 L 243.82617 376.14648 L 299.86914 489.41602 A 16 16 0 0 0 321.30469 496.66016 A 16 16 0 0 0 328.55078 475.22461 L 274.32031 365.61719 L 274.32031 184.2207 C 274.32031 153.35677 248.95331 127.99449 218.08984 128 L 202.41992 128 z M 218.41992 160.03125 C 231.82806 160.20192 242.32031 170.76437 242.32031 184.2207 L 242.32031 322.28125 L 226.01367 301.43359 C 221.06472 292.82223 218.41995 283.08095 218.41992 273.14062 L 218.41992 160.03125 z M 303.88086 215 A 16 16 0 0 0 290.62695 222.21484 A 16 16 0 0 0 295.21484 244.37305 L 361.31641 287.79297 A 16 16 0 0 0 383.47266 283.20508 A 16 16 0 0 0 378.88477 261.04688 L 312.78516 217.62695 A 16 16 0 0 0 303.88086 215 z M 223.82617 384 A 16 16 0 0 0 210.7832 390.98242 L 157.31445 469.3418 A 16 16 0 0 0 161.51172 491.57617 A 16 16 0 0 0 183.74609 487.37891 L 237.2168 409.01758 A 16 16 0 0 0 233.01758 386.7832 A 16 16 0 0 0 223.82617 384 z "
     id="path4" />
  <path
     style="color:#000000;font-style:normal;font-variant:normal;font-weight:normal;font-stretch:normal;font-size:medium;line-height:normal;font-family:sans-serif;font-variant-ligatures:normal;font-variant-position:normal;font-variant-caps:normal;font-variant-numeric:normal;font-variant-alternates:normal;font-variant-east-asian:normal;font-feature-settings:normal;font-variation-settings:normal;text-indent:0;text-align:start;text-decoration:none;text-decoration-line:none;text-decoration-style:solid;text-decoration-color:#000000;letter-spacing:normal;word-spacing:normal;text-transform:none;writing-mode:lr-tb;direction:ltr;text-orientation:mixed;dominant-baseline:auto;baseline-shift:baseline;text-anchor:start;white-space:normal;shape-padding:0;shape-margin:0;inline-size:0;clip-rule:nonzero;display:inline;overflow:visible;visibility:visible;isolation:auto;mix-blend-mode:normal;color-interpolation:sRGB;color-interpolation-filters:linearRGB;solid-color:#000000;solid-opacity:1;vector-effect:none;fill:currentColor;fill-opacity:1;fill-rule:nonzero;stroke:none;stroke-linecap:round;stroke-linejoin:round;stroke-miterlimit:4;stroke-dasharray:none;stroke-dashoffset:0;stroke-opacity:1;color-rendering:auto;image-rendering:auto;shape-rendering:auto;text-rendering:auto;enable-background:accumulate;stop-color:#000000;stop-opacity:1;opacity:1"
     d="M 258.32031 16.220703 C 229.09514 16.220703 205.06055 40.255298 205.06055 69.480469 C 205.06055 98.705639 229.09514 122.74023 258.32031 122.74023 C 287.54548 122.74023 311.58008 98.705639 311.58008 69.480469 C 311.58008 40.255298 287.54548 16.220703 258.32031 16.220703 z M 258.32031 48.220703 C 270.2514 48.220703 279.58008 57.549382 279.58008 69.480469 C 279.58008 81.411556 270.2514 90.740234 258.32031 90.740234 C 246.38923 90.740234 237.06055 81.411556 237.06055 69.480469 C 237.06055 57.549382 246.38923 48.220703 258.32031 48.220703 z "
     id="circle6" />
</svg>
