<?xml version="1.0" encoding="UTF-8" standalone="no"?>
<svg
   xmlns:dc="http://purl.org/dc/elements/1.1/"
   xmlns:cc="http://creativecommons.org/ns#"
   xmlns:rdf="http://www.w3.org/1999/02/22-rdf-syntax-ns#"
   xmlns:svg="http://www.w3.org/2000/svg"
   xmlns="http://www.w3.org/2000/svg"
   xmlns:sodipodi="http://sodipodi.sourceforge.net/DTD/sodipodi-0.dtd"
   xmlns:inkscape="http://www.inkscape.org/namespaces/inkscape"
   class="ionicon"
   viewBox="0 0 512 512"
   version="1.1"
   id="svg12"
   sodipodi:docname="walk-sharp.svg"
   inkscape:version="1.0.2 (e86c8708, 2021-01-15)">
  <metadata
     id="metadata18">
    <rdf:RDF>
      <cc:Work
         rdf:about="">
        <dc:format>image/svg+xml</dc:format>
        <dc:type
           rdf:resource="http://purl.org/dc/dcmitype/StillImage" />
      </cc:Work>
    </rdf:RDF>
  </metadata>
  <defs
     id="defs16" />
  <sodipodi:namedview
     pagecolor="#ffffff"
     bordercolor="#666666"
     borderopacity="1"
     objecttolerance="10"
     gridtolerance="10"
     guidetolerance="10"
     inkscape:pageopacity="0"
     inkscape:pageshadow="2"
     inkscape:window-width="776"
     inkscape:window-height="480"
     id="namedview14"
     showgrid="false"
     inkscape:zoom="0.3"
     inkscape:cx="256"
     inkscape:cy="256"
     inkscape:window-x="499"
     inkscape:window-y="1183"
     inkscape:window-maximized="0"
     inkscape:current-layer="svg12"
     inkscape:document-rotation="0" />
  <title
     id="title2">Walk</title>
  <path
     id="path36"
     style="color:#000000;font-style:normal;font-variant:normal;font-weight:normal;font-stretch:normal;font-size:medium;line-height:normal;font-family:sans-serif;font-variant-ligatures:normal;font-variant-position:normal;font-variant-caps:normal;font-variant-numeric:normal;font-variant-alternates:normal;font-variant-east-asian:normal;font-feature-settings:normal;font-variation-settings:normal;text-indent:0;text-align:start;text-decoration:none;text-decoration-line:none;text-decoration-style:solid;text-decoration-color:#000000;letter-spacing:normal;word-spacing:normal;text-transform:none;writing-mode:lr-tb;direction:ltr;text-orientation:mixed;dominant-baseline:auto;baseline-shift:baseline;text-anchor:start;white-space:normal;shape-padding:0;shape-margin:0;inline-size:0;clip-rule:nonzero;display:inline;overflow:visible;visibility:visible;isolation:auto;mix-blend-mode:normal;color-interpolation:sRGB;color-interpolation-filters:linearRGB;solid-color:#000000;solid-opacity:1;vector-effect:none;fill:#000000;fill-opacity:1;fill-rule:nonzero;stroke:none;stroke-width:32;stroke-linecap:square;stroke-linejoin:round;stroke-miterlimit:4;stroke-dasharray:none;stroke-dashoffset:0;stroke-opacity:1;color-rendering:auto;image-rendering:auto;shape-rendering:auto;text-rendering:auto;enable-background:accumulate;stop-color:#000000"
     d="M 259.01953 21.830078 C 234.05161 21.830078 213.64062 42.243012 213.64062 67.210938 C 213.64062 92.178863 234.05161 112.58984 259.01953 112.58984 C 283.98746 112.58984 304.40039 92.178863 304.40039 67.210938 C 304.40039 42.243012 283.98746 21.830078 259.01953 21.830078 z M 202.98047 126 A 16.0016 16.0016 0 0 0 193.33594 129.23438 L 193.10352 129.00195 L 181.80273 140.33008 L 116.85352 205.42969 A 16.0016 16.0016 0 0 0 112.17969 216.73047 L 112.17969 291.5 L 112.17969 307.5 L 144.17969 307.5 L 144.17969 291.5 L 144.17969 223.3457 L 186.98047 180.44727 L 186.98047 271.5293 A 16.0016 16.0016 0 0 0 186.98047 271.5332 C 186.98247 287.46951 191.25884 303.11428 199.36328 316.83594 A 16.0016 16.0016 0 0 0 200.53516 318.55469 L 244.52539 374.82422 L 300.74805 488.47461 L 307.84375 502.81641 L 336.52539 488.62695 L 329.43164 474.28516 L 273.30859 360.83984 L 275 360.83984 L 275 344.83984 L 275 182.32031 A 16.0016 16.0016 0 0 0 275 182.30469 C 274.96944 151.42565 249.61717 126.05354 218.73828 126 A 16.0016 16.0016 0 0 0 218.71094 126 L 202.98047 126 z M 292.40039 194.66992 L 292.40039 239.34961 L 376.34961 295.73047 L 397.08008 267.61914 L 292.40039 194.66992 z M 234.0293 390.13086 L 153.69922 471.66992 L 175.13086 498.58008 L 249.56055 422.19922 L 234.0293 390.13086 z " />
</svg>
