<?xml version="1.0" encoding="UTF-8"?>
<svg width="512px" height="512px" viewBox="0 0 512 512" version="1.1" xmlns="http://www.w3.org/2000/svg" xmlns:xlink="http://www.w3.org/1999/xlink">
    <!-- Generator: Sketch 62 (91390) - https://sketch.com -->
    <title>Artboard</title>
    <desc>Created with Sketch.</desc>
    <g id="Artboard" stroke="none" stroke-width="1" fill="none" fill-rule="evenodd">
        <g id="walk" transform="translate(118.000000, 20.000000)" fill="#000000" fill-rule="nonzero">
            <path d="M106,103.6 C136.9,103.6 162,128.7 162,159.6 L162,339.9 L215.9,448.8 C219.8,456.7 216.6,466.3 208.7,470.2 C206.4,471.4 203.9,471.9 201.6,471.9 C195.7,471.9 190,468.6 187.2,463 L131.5,350.5 L87.9,294.8 C87.5,294.3 87.1,293.7 86.7,293.1 C78.6,279.5 74.4,263.9 74.4,248 L74.4007073,142.743651 C59.1637853,154.475931 42.3425764,178.606432 32.3,197.6 L32.3,267.8 C32.4,276.6 25.2,283.8 16.4,283.8 C7.6,283.8 0.4,276.6 0.4,267.8 L0.4,193.7 C0.4,191.2 1,188.8 2.1,186.6 C2.5,185.8 12.2,166.6 26.7,147.1 C47.5157806,119.345626 68.2386908,104.778866 88.1527405,103.757716 C88.8870668,103.654052 89.6375276,103.6 90.4,103.6 L106,103.6 Z M120.1,363 C120.2,363.2 120.4,363.4 120.5,363.6 C122.1,366.1 123.9,369.2 125.7,372.7 C130.9,382.7 131.7,388.8 124,398.4 C116,408.4 72,465.8 72,465.8 C69.4,468.8 64.8,469.5 60.9,469.5 C55.1,469.5 49.6,466.8 46.1,462.1 C40,453.9 42.1,444.9 49.8,436.2 L109.7,361.5 C113,359 117.6,359.7 120.1,363 Z M182.6,178.8 C183.7,178.8 184.7,179.1 185.6,179.7 L267.2,233.8 C275.7,239.5 278,251 272.3,259.5 C269,264.7 263.2,267.8 257.1,267.8 C253.4,267.8 249.9,266.7 246.8,264.7 L186.7,226 C180.7,222.1 177,215.4 177,208.2 L177,184.5 C177,181.4 179.5,178.8 182.6,178.8 Z M146,0.6 C170.8,0.6 191,20.8 191,45.6 C191,70.4 170.8,90.6 146,90.6 C121.2,90.6 101,70.4 101,45.6 C101,20.8 121.2,0.6 146,0.6 Z" id="Combined-Shape"></path>
        </g>
    </g>
</svg>