<?xml version="1.0" encoding="UTF-8"?>
<svg width="512px" height="512px" viewBox="0 0 512 512" version="1.1" xmlns="http://www.w3.org/2000/svg" xmlns:xlink="http://www.w3.org/1999/xlink">
    <!-- Generator: Sketch 62 (91390) - https://sketch.com -->
    <title>Artboard</title>
    <desc>Created with Sketch.</desc>
    <g id="Artboard" stroke="none" stroke-width="1" fill="none" fill-rule="evenodd">
        <g id="walk-outline" transform="translate(118.000000, 15.000000)" fill="#000000" fill-rule="nonzero">
            <path d="M91.4,111.9 C92.0001556,111.9 92.5928694,111.933488 93.1763649,111.998689 L107,112 L107,112 C138,112 163.2,137.2 163.2,168.2 L163.2,349.6 L217.4,459.2 C221.3,467.1 218.1,476.7 210.2,480.6 C208,481.8 205.6,482.3 203.2,482.3 C197.3,482.3 191.6,479 188.8,473.4 L132.8,360.1 L88.9,304 C88.5,303.5 88.1,302.9 87.7,302.3 C79.6,288.6 75.3,273 75.3,257.1 L75.3009592,151.002191 C59.9623899,162.831737 43.0153791,187.160829 32.9,206.3 L32.9,277 C32.9,285.9 25.7,293 16.9,293 C8.1,293 0.9,285.8 0.9,277 L0.9,202.5 C0.9,200 1.5,197.6 2.6,195.3 C3,194.5 12.7,175.2 27.4,155.6 C49.1,126.6 70.7,111.9 91.4,111.9 Z M122,370.8 C129.3,375.8 131.2,385.7 126.2,393 L72.7,471.4 C69.6,475.9 64.6,478.4 59.5,478.4 C56.4,478.4 53.3,477.5 50.5,475.6 C43.2,470.6 41.3,460.7 46.3,453.4 L99.8,375 C104.8,367.7 114.7,365.8 122,370.8 Z M107.4,144 L107.4,257.1 C107.4,267 110,276.7 114.8,285.2 L131.3,306.3 L131.3,168.2 C131.3,154.9 120.6,144.2 107.4,144 Z M201.8,201.6 L267.9,245 C275.3,249.9 277.3,259.8 272.5,267.2 C269.4,271.9 264.3,274.4 259.1,274.4 C256.1,274.4 253,273.5 250.3,271.8 L184.2,228.4 C176.8,223.5 174.8,213.6 179.6,206.2 C184.5,198.8 194.4,196.8 201.8,201.6 Z M147.3,0.1 C176.7,0.1 200.6,24 200.6,53.4 C200.6,82.8 176.7,106.7 147.3,106.7 C117.9,106.7 94,82.8 94,53.4 C94,24 117.9,0.1 147.3,0.1 Z M147.3,32.2 C135.6,32.2 126,41.7 126,53.5 C126,65.2 135.5,74.8 147.3,74.8 C159,74.8 168.6,65.3 168.6,53.5 C168.6,41.8 159,32.2 147.3,32.2 Z" id="Combined-Shape"></path>
        </g>
    </g>
</svg>