<?xml version="1.0" encoding="utf-8"?>
<!-- Generator: Adobe Illustrator 24.0.0, SVG Export Plug-In . SVG Version: 6.00 Build 0)  -->
<svg version="1.1" id="Layer_1" xmlns="http://www.w3.org/2000/svg" xmlns:xlink="http://www.w3.org/1999/xlink" x="0px" y="0px"
	 viewBox="0 0 512 512" style="enable-background:new 0 0 512 512;" xml:space="preserve">
<title>ionicons-v5-r</title>
<g>
	<path d="M416,448H96c-35.3,0-64-28.7-64-64V192c0-35.3,28.7-64,64-64h320c35.3,0,64,28.7,64,64v192C480,419.3,451.3,448,416,448z
		 M96,160c-17.6,0-32,14.4-32,32v192c0,17.6,14.4,32,32,32h320c17.6,0,32-14.4,32-32V192c0-17.6-14.4-32-32-32H96z"/>
</g>
<g>
	<path d="M64,208H32v-49c0-31.7,22.5-58.9,53.6-64.9c0.1,0,0.2,0,0.3-0.1l263.2-44.9c4-0.8,8.1-1.1,12.2-1.1c0,0,0,0,0,0
		c17.6,0,34.2,6.9,46.7,19.3c12.5,12.5,19.3,29,19.3,46.7v30h-32v-30c0-18.7-15.3-34-34-34c0,0,0,0,0,0c-2.1,0-4.3,0.2-6.4,0.6
		c-0.1,0-0.2,0-0.3,0.1L91.5,125.6C75.5,128.7,64,142.7,64,159V208z"/>
</g>
<g>
	<path d="M368,320c-17.7,0-32-14.3-32-32s14.3-32,32-32s32,14.3,32,32S385.7,320,368,320z"/>
</g>
</svg>
