<?xml version="1.0" encoding="UTF-8" standalone="no"?>
<svg
   xmlns:dc="http://purl.org/dc/elements/1.1/"
   xmlns:cc="http://creativecommons.org/ns#"
   xmlns:rdf="http://www.w3.org/1999/02/22-rdf-syntax-ns#"
   xmlns:svg="http://www.w3.org/2000/svg"
   xmlns="http://www.w3.org/2000/svg"
   xmlns:sodipodi="http://sodipodi.sourceforge.net/DTD/sodipodi-0.dtd"
   xmlns:inkscape="http://www.inkscape.org/namespaces/inkscape"
   class="ionicon"
   viewBox="0 0 512 512"
   version="1.1"
   id="svg8"
   sodipodi:docname="wallet.svg"
   inkscape:version="1.0.2 (e86c8708, 2021-01-15)">
  <metadata
     id="metadata14">
    <rdf:RDF>
      <cc:Work
         rdf:about="">
        <dc:format>image/svg+xml</dc:format>
        <dc:type
           rdf:resource="http://purl.org/dc/dcmitype/StillImage" />
      </cc:Work>
    </rdf:RDF>
  </metadata>
  <defs
     id="defs12" />
  <sodipodi:namedview
     pagecolor="#ffffff"
     bordercolor="#666666"
     borderopacity="1"
     objecttolerance="10"
     gridtolerance="10"
     guidetolerance="10"
     inkscape:pageopacity="0"
     inkscape:pageshadow="2"
     inkscape:window-width="776"
     inkscape:window-height="480"
     id="namedview10"
     showgrid="false"
     inkscape:zoom="0.3"
     inkscape:cx="256"
     inkscape:cy="256"
     inkscape:window-x="358"
     inkscape:window-y="1182"
     inkscape:window-maximized="0"
     inkscape:current-layer="svg8"
     inkscape:document-rotation="0" />
  <title
     id="title2">Wallet</title>
  <path
     id="path4"
     style="color:#000000;font-style:normal;font-variant:normal;font-weight:normal;font-stretch:normal;font-size:medium;line-height:normal;font-family:sans-serif;font-variant-ligatures:normal;font-variant-position:normal;font-variant-caps:normal;font-variant-numeric:normal;font-variant-alternates:normal;font-variant-east-asian:normal;font-feature-settings:normal;font-variation-settings:normal;text-indent:0;text-align:start;text-decoration:none;text-decoration-line:none;text-decoration-style:solid;text-decoration-color:#000000;letter-spacing:normal;word-spacing:normal;text-transform:none;writing-mode:lr-tb;direction:ltr;text-orientation:mixed;dominant-baseline:auto;baseline-shift:baseline;text-anchor:start;white-space:normal;shape-padding:0;shape-margin:0;inline-size:0;clip-rule:nonzero;display:inline;overflow:visible;visibility:visible;isolation:auto;mix-blend-mode:normal;color-interpolation:sRGB;color-interpolation-filters:linearRGB;solid-color:#000000;solid-opacity:1;vector-effect:none;fill:#000000;fill-opacity:1;fill-rule:nonzero;stroke-width:1;stroke-linecap:butt;stroke-linejoin:miter;stroke-miterlimit:4;stroke-dasharray:none;stroke-dashoffset:0;stroke-opacity:1;color-rendering:auto;image-rendering:auto;shape-rendering:auto;text-rendering:auto;enable-background:accumulate;stop-color:#000000;stop-opacity:1;stroke:none;opacity:1"
     d="M 362.89062 48.021484 C 358.38034 47.92092 353.78794 48.284022 349.16992 49.150391 L 95.445312 92.466797 C 92.293089 92.958412 89.122274 93.485964 85.9375 94.080078 L 85.699219 94.080078 C 84.436948 94.321462 83.190744 94.611043 81.951172 94.923828 C 43.287409 104.18833 32 138.98606 32 160 L 32 184.1875 C 31.685399 186.74978 31.50289 189.35333 31.5 192 L 31.5 384 C 31.53858 419.33023 60.169768 447.96142 95.5 448 L 415.5 448 C 450.83023 447.9614 479.46142 419.33023 479.5 384 L 479.5 192 C 479.4614 156.66977 450.83023 128.03858 415.5 128 L 160 128 C 143.04947 128 141.22302 107.44534 155.64844 104 L 415.5 104 C 419.23799 103.998 422.97195 104.23634 426.67969 104.71094 C 422.04103 72.149621 394.46264 48.725432 362.89062 48.021484 z M 368.70312 256.00781 C 372.59665 256.09234 376.50943 256.88783 380.24609 258.43555 C 392.20345 263.38825 400 275.05722 400 288 C 400 305.67311 385.67311 320 368 320 C 355.05722 320 343.38825 312.20345 338.43555 300.24609 C 333.48285 288.28877 336.22117 274.52494 345.37305 265.37305 C 351.66497 259.08113 360.13737 255.82184 368.70312 256.00781 z " />
</svg>
