<?xml version="1.0" encoding="utf-8"?>
<!-- Generator: Adobe Illustrator 24.0.0, SVG Export Plug-In . SVG Version: 6.00 Build 0)  -->
<svg version="1.1" id="Layer_1" xmlns="http://www.w3.org/2000/svg" xmlns:xlink="http://www.w3.org/1999/xlink" x="0px" y="0px"
	 viewBox="0 0 512 512" style="enable-background:new 0 0 512 512;" xml:space="preserve">
<title>ionicons-v5-r</title>
<g>
	<path d="M426.4,462.2H85.6c0,0,0,0,0,0c-7.9,0-15.8-2-22.7-5.7c-11.3-6.1-19.5-16.2-23.2-28.5c-3.7-12.3-2.4-25.3,3.7-36.5
		L213.7,75c8.4-15.6,24.6-25.2,42.3-25.2c0,0,0,0,0,0c17.7,0,33.9,9.7,42.3,25.2l170.4,316.5c3.8,7,5.7,14.8,5.7,22.8
		c0,12.8-5,24.9-14.1,33.9C451.3,457.3,439.3,462.2,426.4,462.2z M85.6,430.2h340.9c4.3,0,8.3-1.7,11.3-4.7s4.7-7,4.7-11.3
		c0-2.6-0.7-5.3-1.9-7.6L270.1,90.2c-4.1-7.6-11.2-8.4-14.1-8.4s-10,0.8-14.1,8.4L71.5,406.7c-2,3.8-2.5,8.1-1.2,12.2
		c1.2,4.1,4,7.5,7.7,9.5C80.3,429.6,82.9,430.2,85.6,430.2L85.6,430.2z"/>
</g>
<g>
	<path d="M256,333.4c-8.5,0-15.6-6.7-16-15.2l-5.7-122c0-0.1,0-0.2,0-0.3l0-0.5c-0.1-12,9.5-21.8,21.5-21.9c0.4,0,0.8,0,1.2,0
		c12,0.5,21.3,10.7,20.7,22.7l-5.7,122C271.6,326.7,264.5,333.4,256,333.4z"/>
</g>
<g>
	<path d="M256,397.2c-11,0-20-9-20-20s9-20,20-20c11,0,20,9,20,20S267,397.2,256,397.2z"/>
</g>
</svg>
