<?xml version="1.0" encoding="utf-8"?>
<!-- Generator: Adobe Illustrator 24.0.0, SVG Export Plug-In . SVG Version: 6.00 Build 0)  -->
<svg version="1.1" id="Layer_1" xmlns="http://www.w3.org/2000/svg" xmlns:xlink="http://www.w3.org/1999/xlink" x="0px" y="0px"
	 viewBox="0 0 512 512" style="enable-background:new 0 0 512 512;" xml:space="preserve">
<title>ionicons-v5-r</title>
<g>
	<path d="M256,480c-97.2,0-160-62.8-160-160c0-43.5,19.5-97.4,57.9-160c29.9-48.7,63.5-90,80.8-110.3c4.9-5.7,11.7-9.1,19.1-9.7
		c7.5-0.6,14.7,1.8,20.4,6.6c1.1,0.9,2.1,2,3.1,3.1c17.3,20.3,50.9,61.6,80.8,110.3c38.4,62.6,57.9,116.5,57.9,160
		C416,417.2,353.2,480,256,480z M256,74.1c-17.4,20.6-47.7,58.5-74.8,102.7C146.4,233.5,128,283,128,320c0,39,11.8,71.5,34.2,93.8
		S217,448,256,448s71.5-11.8,93.8-34.2S384,359,384,320c0-37-18.4-86.5-53.2-143.2C303.7,132.6,273.4,94.7,256,74.1z"/>
</g>
<g>
	<path d="M272,416c-8.8,0-16-7.2-16-16s7.2-16,16-16c30.9,0,56-25.1,56-56c0-8.8,7.2-16,16-16s16,7.2,16,16
		C360,376.5,320.5,416,272,416z"/>
</g>
</svg>
