<?xml version="1.0" encoding="utf-8"?>
<!-- Generator: Adobe Illustrator 24.0.0, SVG Export Plug-In . SVG Version: 6.00 Build 0)  -->
<svg version="1.1" id="Layer_1" xmlns="http://www.w3.org/2000/svg" xmlns:xlink="http://www.w3.org/1999/xlink" x="0px" y="0px"
	 viewBox="0 0 512 512" style="enable-background:new 0 0 512 512;" xml:space="preserve">
<title>ionicons-v5-r</title>
<g>
	<path d="M332.4,326.6c-3.8,0-7.6-1.3-10.6-4c-37.5-33.3-94-33.3-131.5,0c-6.6,5.9-16.7,5.3-22.6-1.3c-5.9-6.6-5.3-16.7,1.3-22.6
		c49.6-44.1,124.4-44.1,174.1,0c6.6,5.9,7.2,16,1.3,22.6C341.2,324.8,336.8,326.6,332.4,326.6z"/>
</g>
<g>
	<path d="M393.5,265.5c-3.9,0-7.8-1.4-10.9-4.3c-34.4-32.2-79.4-49.9-126.5-49.9c-47.2,0-92.1,17.7-126.5,49.9
		c-6.5,6-16.6,5.7-22.6-0.8c-6-6.5-5.7-16.6,0.8-22.6c40.4-37.8,93.1-58.6,148.4-58.6c55.3,0,108,20.8,148.4,58.6
		c6.5,6,6.8,16.2,0.8,22.6C402,263.8,397.7,265.5,393.5,265.5z"/>
</g>
<g>
	<path d="M447.7,198.1c-3.8,0-7.6-1.3-10.6-4.1C333.8,102,178.2,102,74.9,194c-6.6,5.9-16.7,5.3-22.6-1.3
		c-5.9-6.6-5.3-16.7,1.3-22.6C169,67.3,343,67.3,458.4,170.2c6.6,5.9,7.2,16,1.3,22.6C456.5,196.3,452.1,198.1,447.7,198.1z"/>
</g>
<g>
	<path d="M256,416c-17.7,0-32-14.3-32-32s14.3-32,32-32s32,14.3,32,32S273.7,416,256,416z"/>
</g>
</svg>
