<?xml version="1.0" encoding="UTF-8"?>
<svg width="512px" height="512px" viewBox="0 0 512 512" version="1.1" xmlns="http://www.w3.org/2000/svg" xmlns:xlink="http://www.w3.org/1999/xlink">
    <!-- Generator: Sketch 62 (91390) - https://sketch.com -->
    <title>Artboard</title>
    <desc>Created with Sketch.</desc>
    <g id="Artboard" stroke="none" stroke-width="1" fill="none" fill-rule="evenodd">
        <g id="wine-outline" transform="translate(96.000000, 64.000000)" fill="#000000" fill-rule="nonzero">
            <path d="M303.5,0 C312.3,0 319.5,7.2 319.5,16 L319.5,30.9 C321,42.3 329.1,121.6 282.6,175.6 C257.755076,204.39141 222.291002,220.47202 177.001497,223.481049 L176.999936,352 L257,352 C265.8,352 273,359.2 273,368 C273,376.8 265.8,384 257,384 L65,384 C56.2,384 49,376.8 49,368 C49,359.2 56.2,352 65,352 L144.999936,352 L144.999503,223.481115 C99.70952,220.472257 64.245107,204.391622 39.4,175.6 C-7.2,121.7 1,42.3 2.4,30.9 L2.4,16 C2.4,7.2 9.6,0 18.4,0 L303.5,0 Z M281.181145,112.000048 L40.7385429,112.00049 C45.345074,126.992507 52.5309509,141.997918 63.6,154.8 C85,179.5 117.7,192 160.9,192 C204.1,192 236.8,179.5 258.2,154.8 C269.335832,142.013379 276.557408,127.00346 281.181145,112.000048 Z M287.5,32 L34.4,32 C34.4,32.8 34.3,33.6 34.2,34.3 C34.1483928,34.6612502 31.433486,54.544487 34.2607669,79.9990074 L287.668486,79.99864 C290.490346,54.5507789 287.751581,34.6610656 287.7,34.3 C287.6,33.5 287.5,32.8 287.5,32 Z" id="Combined-Shape"></path>
        </g>
    </g>
</svg>