<?xml version="1.0" encoding="utf-8"?>
<!-- Generator: Adobe Illustrator 24.0.0, SVG Export Plug-In . SVG Version: 6.00 Build 0)  -->
<svg version="1.1" id="Layer_1" xmlns="http://www.w3.org/2000/svg" xmlns:xlink="http://www.w3.org/1999/xlink" x="0px" y="0px"
	 viewBox="0 0 512 512" style="enable-background:new 0 0 512 512;" xml:space="preserve">
<title>ionicons-v5-r</title>
<g>
	<path d="M232.3,512c-0.2,0-0.4,0-0.6,0c-0.1,0-0.3,0-0.4,0c-21.9-0.3-39.5-18.2-39.3-40.1V368c0-8.8,7.2-16,16-16s16,7.2,16,16
		l0,104.2c0,4.3,3.4,7.8,7.6,7.8h0.5c0,0,0.1,0,0.1,0c2.7,0,4.6-1.4,5.4-2.2c0.9-0.8,2.3-2.7,2.3-5.4v-0.2
		c-0.1-8.8,7-16.1,15.8-16.2c8.8-0.1,16.1,7,16.2,15.8c0,0.3,0,0.6,0,0.9c-0.1,10.6-4.4,20.6-12,28C252.6,508,242.7,512,232.3,512z"
		/>
</g>
<g>
	<path d="M280.3,512c-0.2,0-0.4,0-0.6,0c-0.1,0-0.3,0-0.4,0c-21.9-0.3-39.5-18.2-39.3-40.1V368c0-8.8,7.2-16,16-16
		c8.8,0,16,7.2,16,16l0,104.2c0,4.3,3.4,7.8,7.6,7.8h0.5c2.8,0,4.6-1.4,5.5-2.2c0.9-0.8,2.3-2.7,2.3-5.4l0-104.4c0-8.8,7.2-16,16-16
		s16,7.2,16,16v103.9c0,0.3,0,0.5,0,0.8c-0.1,10.6-4.4,20.6-12,28C300.6,508,290.7,512,280.3,512z"/>
</g>
<g>
	<path d="M160.2,307.3c-3.6,0-7.3-0.5-10.9-1.5c-0.2-0.1-0.5-0.1-0.7-0.2c-10.1-2.9-18.5-9.6-23.6-18.8c-5.2-9.3-6.4-20-3.5-30.2
		c0.1-0.3,0.2-0.5,0.2-0.8l25-84.2c7.6-25.6,31.6-43.5,58.3-43.5c0,0,0,0,0,0h102c0,0,0,0,0,0c26.7,0,50.7,17.9,58.3,43.5l25,84.2
		c3.1,10.1,2.1,20.8-2.8,30.2c-4.9,9.4-13.2,16.3-23.4,19.4c-0.2,0.1-0.5,0.1-0.7,0.2c-20.9,6.3-43.1-5.5-49.5-26.4
		c-0.1-0.3-0.1-0.5-0.2-0.7c-2.4-8.5,2.5-17.4,11-19.8c8.5-2.4,17.4,2.5,19.8,11l0.1,0.2c1.2,4,5.6,6.3,9.6,5.1l0.5-0.1
		c4.1-1.3,6.4-5.6,5.1-9.7l-0.1-0.2l-25-84.3c-3.6-12.1-15-20.6-27.7-20.6c0,0,0,0,0,0H205c0,0,0,0,0,0c-12.7,0-24,8.5-27.7,20.6
		l-25.1,84.6c-0.8,2.7,0.1,4.8,0.7,5.9c0.6,1,2,2.9,4.6,3.7l0.5,0.2c2.7,0.8,4.8-0.1,5.9-0.7c1-0.6,2.9-2,3.7-4.6
		c2.4-8.5,11.3-13.4,19.8-11c8.5,2.4,13.4,11.3,11,19.8c-2.9,10.2-9.6,18.7-18.9,23.8C173.5,305.6,166.9,307.3,160.2,307.3z"/>
</g>
<g>
	<path d="M256,112c-30.9,0-56-25.1-56-56s25.1-56,56-56c30.9,0,56,25.1,56,56S286.9,112,256,112z M256,32c-13.2,0-24,10.8-24,24
		s10.8,24,24,24c13.2,0,24-10.8,24-24S269.2,32,256,32z"/>
</g>
<g>
	<path d="M352,368H160c-5.1,0-9.8-2.4-12.8-6.4c-3-4.1-3.9-9.3-2.5-14.1l48-160c2.5-8.5,11.5-13.3,19.9-10.7
		c8.5,2.5,13.3,11.5,10.7,19.9L181.5,336h149l-41.8-139.4c-2.5-8.5,2.3-17.4,10.7-19.9c8.5-2.5,17.4,2.3,19.9,10.7l48,160
		c1.5,4.8,0.5,10.1-2.5,14.1C361.8,365.6,357.1,368,352,368z"/>
</g>
</svg>
